{
  "name": "OrganChaCha.S344.STY",
  "tempo": 132,
  "timeSignature": "4/4",
  "ticksPerQuarter": 1920,
  "sffType": "SFF1",
  "division": "BINARY",
  "parts": {
    "Main_A": {
      "type": "Main_A",
      "sizeInBeats": 16,
      "channels": {
        "3": {
          "ctab": {
            "srcChannel": 3,
            "name": "Organ rt",
            "accType": "CHORD2",
            "editable": true,
            "mutedNotes": [],
            "mutedChords": [
              "1+2+5",
              "sus4",
              "1+5",
              "1+8",
              "Maj7aug",
              "dim",
              "minMaj7(9)",
              "minMaj7",
              "min6",
              "min",
              "aug",
              "Maj7(9)",
              "Maj7#11",
              "Maj7",
              "Maj6",
              "Maj"
            ],
            "autoStart": false,
            "sourceChordNote": 0,
            "sourceChordType": "Maj7",
            "ctb2Low": null,
            "ctb2Main": {
              "ntr": "ROOT_TRANSPOSITION",
              "ntt": "MELODY",
              "bassOn": false,
              "chordRootUpperLimit": 10,
              "noteLowLimit": 60,
              "noteHighLimit": 74,
              "rtr": "PITCH_SHIFT"
            },
            "ctb2High": null
          },
          "notes": [
            {
              "pitch": 60,
              "velocity": 57,
              "position": 1,
              "duration": 0.1
            },
            {
              "pitch": 60,
              "velocity": 57,
              "position": 2.5,
              "duration": 0.125
            },
            {
              "pitch": 60,
              "velocity": 57,
              "position": 5,
              "duration": 0.1125
            },
            {
              "pitch": 60,
              "velocity": 57,
              "position": 6.5,
              "duration": 0.8833333333333333
            },
            {
              "pitch": 60,
              "velocity": 57,
              "position": 7.5,
              "duration": 0.08958333333333333
            },
            {
              "pitch": 60,
              "velocity": 57,
              "position": 9,
              "duration": 0.11041666666666666
            },
            {
              "pitch": 60,
              "velocity": 57,
              "position": 10.5,
              "duration": 0.11458333333333333
            },
            {
              "pitch": 60,
              "velocity": 57,
              "position": 13,
              "duration": 0.12083333333333333
            },
            {
              "pitch": 60,
              "velocity": 57,
              "position": 14.5,
              "duration": 0.9145833333333333
            },
            {
              "pitch": 60,
              "velocity": 57,
              "position": 15.5,
              "duration": 0.06875
            }
          ]
        },
        "4": {
          "ctab": {
            "srcChannel": 4,
            "name": "Brass rt",
            "accType": "PAD",
            "editable": false,
            "mutedNotes": [],
            "mutedChords": [
              "1+2+5",
              "sus4",
              "1+5",
              "1+8",
              "Maj7aug",
              "dim",
              "minMaj7(9)",
              "minMaj7",
              "min6",
              "min",
              "aug",
              "Maj7(9)",
              "Maj7#11",
              "Maj7",
              "Maj6",
              "Maj"
            ],
            "autoStart": false,
            "sourceChordNote": 0,
            "sourceChordType": "Maj7",
            "ctb2Low": null,
            "ctb2Main": {
              "ntr": "ROOT_TRANSPOSITION",
              "ntt": "MELODY",
              "bassOn": false,
              "chordRootUpperLimit": 10,
              "noteLowLimit": 0,
              "noteHighLimit": 74,
              "rtr": "PITCH_SHIFT"
            },
            "ctb2High": null
          },
          "notes": [
            {
              "pitch": 60,
              "velocity": 82,
              "position": 0.5,
              "duration": 0.45416666666666666
            },
            {
              "pitch": 60,
              "velocity": 82,
              "position": 1,
              "duration": 0.175
            },
            {
              "pitch": 60,
              "velocity": 82,
              "position": 4.510416666666667,
              "duration": 0.4583333333333333
            },
            {
              "pitch": 60,
              "velocity": 82,
              "position": 5.010416666666667,
              "duration": 0.17916666666666667
            },
            {
              "pitch": 60,
              "velocity": 82,
              "position": 8.5,
              "duration": 0.45625
            },
            {
              "pitch": 60,
              "velocity": 82,
              "position": 9,
              "duration": 0.17916666666666667
            },
            {
              "pitch": 60,
              "velocity": 82,
              "position": 12.5,
              "duration": 0.45625
            },
            {
              "pitch": 60,
              "velocity": 82,
              "position": 13,
              "duration": 0.17916666666666667
            }
          ]
        },
        "7": {
          "ctab": {
            "srcChannel": 7,
            "name": "Org Glis",
            "accType": "CHORD2",
            "editable": false,
            "mutedNotes": [],
            "mutedChords": [],
            "autoStart": false,
            "sourceChordNote": 0,
            "sourceChordType": "Maj7",
            "ctb2Low": null,
            "ctb2Main": {
              "ntr": "ROOT_FIXED",
              "ntt": "BYPASS",
              "bassOn": false,
              "chordRootUpperLimit": 6,
              "noteLowLimit": 0,
              "noteHighLimit": 127,
              "rtr": "PITCH_SHIFT"
            },
            "ctb2High": null
          },
          "notes": []
        },
        "8": {
          "ctab": {
            "srcChannel": 8,
            "name": "AddDrum",
            "accType": "SUBRHYTHM",
            "editable": false,
            "mutedNotes": [],
            "mutedChords": [],
            "autoStart": true,
            "sourceChordNote": 0,
            "sourceChordType": "Maj7",
            "ctb2Low": null,
            "ctb2Main": {
              "ntr": "ROOT_FIXED",
              "ntt": "BYPASS",
              "bassOn": false,
              "chordRootUpperLimit": 6,
              "noteLowLimit": 0,
              "noteHighLimit": 127,
              "rtr": "PITCH_SHIFT"
            },
            "ctb2High": null
          },
          "notes": [
            {
              "pitch": 56,
              "velocity": 103,
              "position": 0,
              "duration": 0.00625
            },
            {
              "pitch": 56,
              "velocity": 101,
              "position": 1,
              "duration": 0.00625
            },
            {
              "pitch": 56,
              "velocity": 100,
              "position": 2,
              "duration": 0.00625
            },
            {
              "pitch": 56,
              "velocity": 105,
              "position": 3.002083333333333,
              "duration": 0.00625
            },
            {
              "pitch": 56,
              "velocity": 99,
              "position": 3.995833333333333,
              "duration": 0.00625
            },
            {
              "pitch": 56,
              "velocity": 100,
              "position": 5,
              "duration": 0.00625
            },
            {
              "pitch": 56,
              "velocity": 103,
              "position": 6,
              "duration": 0.00625
            },
            {
              "pitch": 56,
              "velocity": 104,
              "position": 6.997916666666667,
              "duration": 0.00625
            },
            {
              "pitch": 56,
              "velocity": 96,
              "position": 7.997916666666667,
              "duration": 0.00625
            },
            {
              "pitch": 56,
              "velocity": 105,
              "position": 9,
              "duration": 0.00625
            },
            {
              "pitch": 56,
              "velocity": 103,
              "position": 9.995833333333334,
              "duration": 0.00625
            },
            {
              "pitch": 56,
              "velocity": 106,
              "position": 10.995833333333334,
              "duration": 0.00625
            },
            {
              "pitch": 56,
              "velocity": 101,
              "position": 12.002083333333333,
              "duration": 0.00625
            },
            {
              "pitch": 56,
              "velocity": 100,
              "position": 13,
              "duration": 0.00625
            },
            {
              "pitch": 56,
              "velocity": 99,
              "position": 13.997916666666667,
              "duration": 0.00625
            },
            {
              "pitch": 56,
              "velocity": 100,
              "position": 15,
              "duration": 0.00625
            }
          ]
        },
        "9": {
          "ctab": {
            "srcChannel": 9,
            "name": "MainDrum",
            "accType": "RHYTHM",
            "editable": false,
            "mutedNotes": [],
            "mutedChords": [],
            "autoStart": true,
            "sourceChordNote": 0,
            "sourceChordType": "Maj7",
            "ctb2Low": null,
            "ctb2Main": {
              "ntr": "ROOT_FIXED",
              "ntt": "BYPASS",
              "bassOn": false,
              "chordRootUpperLimit": 6,
              "noteLowLimit": 0,
              "noteHighLimit": 127,
              "rtr": "PITCH_SHIFT"
            },
            "ctb2High": null
          },
          "notes": [
            {
              "pitch": 23,
              "velocity": 117,
              "position": 0,
              "duration": 0.00625
            },
            {
              "pitch": 53,
              "velocity": 58,
              "position": 0,
              "duration": 0.00625
            },
            {
              "pitch": 73,
              "velocity": 59,
              "position": 0,
              "duration": 0.00625
            },
            {
              "pitch": 22,
              "velocity": 86,
              "position": 0.5,
              "duration": 0.00625
            },
            {
              "pitch": 73,
              "velocity": 25,
              "position": 0.5,
              "duration": 0.00625
            },
            {
              "pitch": 26,
              "velocity": 103,
              "position": 1,
              "duration": 0.00625
            },
            {
              "pitch": 53,
              "velocity": 57,
              "position": 1,
              "duration": 0.00625
            },
            {
              "pitch": 73,
              "velocity": 100,
              "position": 1,
              "duration": 0.00625
            },
            {
              "pitch": 31,
              "velocity": 76,
              "position": 1.5,
              "duration": 0.00625
            },
            {
              "pitch": 73,
              "velocity": 28,
              "position": 1.5,
              "duration": 0.00625
            },
            {
              "pitch": 31,
              "velocity": 116,
              "position": 2,
              "duration": 0.00625
            },
            {
              "pitch": 53,
              "velocity": 50,
              "position": 2,
              "duration": 0.00625
            },
            {
              "pitch": 73,
              "velocity": 61,
              "position": 2,
              "duration": 0.00625
            },
            {
              "pitch": 23,
              "velocity": 103,
              "position": 2.5,
              "duration": 0.00625
            },
            {
              "pitch": 73,
              "velocity": 29,
              "position": 2.5,
              "duration": 0.00625
            },
            {
              "pitch": 53,
              "velocity": 65,
              "position": 2.99375,
              "duration": 0.00625
            },
            {
              "pitch": 24,
              "velocity": 88,
              "position": 3,
              "duration": 0.00625
            },
            {
              "pitch": 73,
              "velocity": 100,
              "position": 3,
              "duration": 0.00625
            },
            {
              "pitch": 25,
              "velocity": 127,
              "position": 3.5,
              "duration": 0.00625
            },
            {
              "pitch": 73,
              "velocity": 29,
              "position": 3.5,
              "duration": 0.00625
            },
            {
              "pitch": 23,
              "velocity": 117,
              "position": 4,
              "duration": 0.00625
            },
            {
              "pitch": 53,
              "velocity": 56,
              "position": 4,
              "duration": 0.00625
            },
            {
              "pitch": 73,
              "velocity": 63,
              "position": 4,
              "duration": 0.00625
            },
            {
              "pitch": 22,
              "velocity": 86,
              "position": 4.5,
              "duration": 0.00625
            },
            {
              "pitch": 73,
              "velocity": 25,
              "position": 4.5,
              "duration": 0.00625
            },
            {
              "pitch": 26,
              "velocity": 103,
              "position": 5,
              "duration": 0.00625
            },
            {
              "pitch": 53,
              "velocity": 54,
              "position": 5,
              "duration": 0.00625
            },
            {
              "pitch": 73,
              "velocity": 100,
              "position": 5,
              "duration": 0.00625
            },
            {
              "pitch": 31,
              "velocity": 76,
              "position": 5.5,
              "duration": 0.00625
            },
            {
              "pitch": 73,
              "velocity": 23,
              "position": 5.5,
              "duration": 0.00625
            },
            {
              "pitch": 31,
              "velocity": 116,
              "position": 6,
              "duration": 0.00625
            },
            {
              "pitch": 53,
              "velocity": 52,
              "position": 6,
              "duration": 0.00625
            },
            {
              "pitch": 73,
              "velocity": 66,
              "position": 6,
              "duration": 0.00625
            },
            {
              "pitch": 23,
              "velocity": 103,
              "position": 6.5,
              "duration": 0.00625
            },
            {
              "pitch": 73,
              "velocity": 23,
              "position": 6.5,
              "duration": 0.00625
            },
            {
              "pitch": 24,
              "velocity": 88,
              "position": 7,
              "duration": 0.00625
            },
            {
              "pitch": 53,
              "velocity": 55,
              "position": 7,
              "duration": 0.00625
            },
            {
              "pitch": 73,
              "velocity": 100,
              "position": 7,
              "duration": 0.00625
            },
            {
              "pitch": 25,
              "velocity": 127,
              "position": 7.5,
              "duration": 0.00625
            },
            {
              "pitch": 73,
              "velocity": 22,
              "position": 7.5,
              "duration": 0.00625
            },
            {
              "pitch": 53,
              "velocity": 54,
              "position": 7.99375,
              "duration": 0.00625
            },
            {
              "pitch": 23,
              "velocity": 117,
              "position": 8,
              "duration": 0.00625
            },
            {
              "pitch": 73,
              "velocity": 59,
              "position": 8,
              "duration": 0.00625
            },
            {
              "pitch": 22,
              "velocity": 86,
              "position": 8.5,
              "duration": 0.00625
            },
            {
              "pitch": 73,
              "velocity": 25,
              "position": 8.5,
              "duration": 0.00625
            },
            {
              "pitch": 53,
              "velocity": 57,
              "position": 8.99375,
              "duration": 0.00625
            },
            {
              "pitch": 26,
              "velocity": 103,
              "position": 9,
              "duration": 0.00625
            },
            {
              "pitch": 73,
              "velocity": 100,
              "position": 9,
              "duration": 0.00625
            },
            {
              "pitch": 31,
              "velocity": 76,
              "position": 9.5,
              "duration": 0.00625
            },
            {
              "pitch": 73,
              "velocity": 28,
              "position": 9.5,
              "duration": 0.00625
            },
            {
              "pitch": 53,
              "velocity": 55,
              "position": 9.991666666666667,
              "duration": 0.00625
            },
            {
              "pitch": 31,
              "velocity": 116,
              "position": 10,
              "duration": 0.00625
            },
            {
              "pitch": 73,
              "velocity": 61,
              "position": 10,
              "duration": 0.00625
            },
            {
              "pitch": 23,
              "velocity": 103,
              "position": 10.5,
              "duration": 0.00625
            },
            {
              "pitch": 73,
              "velocity": 29,
              "position": 10.5,
              "duration": 0.00625
            },
            {
              "pitch": 24,
              "velocity": 88,
              "position": 11,
              "duration": 0.00625
            },
            {
              "pitch": 53,
              "velocity": 52,
              "position": 11,
              "duration": 0.00625
            },
            {
              "pitch": 73,
              "velocity": 100,
              "position": 11,
              "duration": 0.00625
            },
            {
              "pitch": 25,
              "velocity": 127,
              "position": 11.5,
              "duration": 0.00625
            },
            {
              "pitch": 73,
              "velocity": 29,
              "position": 11.5,
              "duration": 0.00625
            },
            {
              "pitch": 53,
              "velocity": 58,
              "position": 11.99375,
              "duration": 0.00625
            },
            {
              "pitch": 23,
              "velocity": 117,
              "position": 12,
              "duration": 0.00625
            },
            {
              "pitch": 73,
              "velocity": 63,
              "position": 12,
              "duration": 0.00625
            },
            {
              "pitch": 22,
              "velocity": 86,
              "position": 12.5,
              "duration": 0.00625
            },
            {
              "pitch": 73,
              "velocity": 25,
              "position": 12.5,
              "duration": 0.00625
            },
            {
              "pitch": 53,
              "velocity": 57,
              "position": 12.99375,
              "duration": 0.00625
            },
            {
              "pitch": 26,
              "velocity": 103,
              "position": 13,
              "duration": 0.00625
            },
            {
              "pitch": 73,
              "velocity": 100,
              "position": 13,
              "duration": 0.00625
            },
            {
              "pitch": 31,
              "velocity": 76,
              "position": 13.5,
              "duration": 0.00625
            },
            {
              "pitch": 73,
              "velocity": 23,
              "position": 13.5,
              "duration": 0.00625
            },
            {
              "pitch": 53,
              "velocity": 56,
              "position": 13.991666666666667,
              "duration": 0.00625
            },
            {
              "pitch": 31,
              "velocity": 116,
              "position": 14,
              "duration": 0.00625
            },
            {
              "pitch": 73,
              "velocity": 66,
              "position": 14,
              "duration": 0.00625
            },
            {
              "pitch": 23,
              "velocity": 103,
              "position": 14.5,
              "duration": 0.00625
            },
            {
              "pitch": 73,
              "velocity": 23,
              "position": 14.5,
              "duration": 0.00625
            },
            {
              "pitch": 24,
              "velocity": 88,
              "position": 15,
              "duration": 0.00625
            },
            {
              "pitch": 53,
              "velocity": 59,
              "position": 15,
              "duration": 0.00625
            },
            {
              "pitch": 73,
              "velocity": 100,
              "position": 15,
              "duration": 0.00625
            },
            {
              "pitch": 25,
              "velocity": 127,
              "position": 15.5,
              "duration": 0.00625
            },
            {
              "pitch": 73,
              "velocity": 22,
              "position": 15.5,
              "duration": 0.00625
            }
          ]
        },
        "10": {
          "ctab": {
            "srcChannel": 10,
            "name": "Bass",
            "accType": "BASS",
            "editable": false,
            "mutedNotes": [],
            "mutedChords": [],
            "autoStart": false,
            "sourceChordNote": 0,
            "sourceChordType": "Maj7",
            "ctb2Low": null,
            "ctb2Main": {
              "ntr": "ROOT_TRANSPOSITION",
              "ntt": "MELODY",
              "bassOn": true,
              "chordRootUpperLimit": 4,
              "noteLowLimit": 28,
              "noteHighLimit": 127,
              "rtr": "PITCH_SHIFT_TO_ROOT"
            },
            "ctb2High": null
          },
          "notes": [
            {
              "pitch": 24,
              "velocity": 60,
              "position": 0,
              "duration": 0.975
            },
            {
              "pitch": 24,
              "velocity": 95,
              "position": 1,
              "duration": 0.058333333333333334
            },
            {
              "pitch": 31,
              "velocity": 50,
              "position": 1.5,
              "duration": 0.475
            },
            {
              "pitch": 31,
              "velocity": 60,
              "position": 2,
              "duration": 0.975
            },
            {
              "pitch": 31,
              "velocity": 100,
              "position": 3,
              "duration": 0.058333333333333334
            },
            {
              "pitch": 24,
              "velocity": 50,
              "position": 3.5,
              "duration": 0.475
            },
            {
              "pitch": 24,
              "velocity": 60,
              "position": 4,
              "duration": 0.975
            },
            {
              "pitch": 24,
              "velocity": 100,
              "position": 5,
              "duration": 0.058333333333333334
            },
            {
              "pitch": 24,
              "velocity": 60,
              "position": 5.5,
              "duration": 0.14166666666666666
            },
            {
              "pitch": 31,
              "velocity": 60,
              "position": 6,
              "duration": 0.9541666666666667
            },
            {
              "pitch": 31,
              "velocity": 60,
              "position": 7,
              "duration": 0.975
            },
            {
              "pitch": 24,
              "velocity": 60,
              "position": 8,
              "duration": 0.975
            },
            {
              "pitch": 24,
              "velocity": 95,
              "position": 9,
              "duration": 0.058333333333333334
            },
            {
              "pitch": 31,
              "velocity": 50,
              "position": 9.5,
              "duration": 0.475
            },
            {
              "pitch": 31,
              "velocity": 60,
              "position": 10,
              "duration": 0.975
            },
            {
              "pitch": 31,
              "velocity": 100,
              "position": 11,
              "duration": 0.058333333333333334
            },
            {
              "pitch": 24,
              "velocity": 50,
              "position": 11.5,
              "duration": 0.475
            },
            {
              "pitch": 24,
              "velocity": 60,
              "position": 12,
              "duration": 0.975
            },
            {
              "pitch": 24,
              "velocity": 100,
              "position": 13,
              "duration": 0.058333333333333334
            },
            {
              "pitch": 24,
              "velocity": 59,
              "position": 13.5,
              "duration": 0.14166666666666666
            },
            {
              "pitch": 31,
              "velocity": 60,
              "position": 14,
              "duration": 0.9541666666666667
            },
            {
              "pitch": 31,
              "velocity": 59,
              "position": 15,
              "duration": 0.975
            }
          ]
        },
        "11": {
          "ctab": {
            "srcChannel": 11,
            "name": "E.Guitar",
            "accType": "CHORD1",
            "editable": false,
            "mutedNotes": [],
            "mutedChords": [],
            "autoStart": false,
            "sourceChordNote": 0,
            "sourceChordType": "Maj7",
            "ctb2Low": null,
            "ctb2Main": {
              "ntr": "ROOT_FIXED",
              "ntt": "MELODY",
              "bassOn": false,
              "chordRootUpperLimit": 7,
              "noteLowLimit": 0,
              "noteHighLimit": 127,
              "rtr": "PITCH_SHIFT"
            },
            "ctb2High": null
          },
          "notes": [
            {
              "pitch": 59,
              "velocity": 88,
              "position": 0,
              "duration": 0.24166666666666667
            },
            {
              "pitch": 59,
              "velocity": 86,
              "position": 1,
              "duration": 0.24166666666666667
            },
            {
              "pitch": 59,
              "velocity": 88,
              "position": 2,
              "duration": 0.4125
            },
            {
              "pitch": 59,
              "velocity": 71,
              "position": 2.5,
              "duration": 0.49166666666666664
            },
            {
              "pitch": 59,
              "velocity": 90,
              "position": 3,
              "duration": 0.08125
            },
            {
              "pitch": 59,
              "velocity": 88,
              "position": 4,
              "duration": 0.24166666666666667
            },
            {
              "pitch": 59,
              "velocity": 86,
              "position": 5,
              "duration": 0.24166666666666667
            },
            {
              "pitch": 59,
              "velocity": 70,
              "position": 5.75,
              "duration": 0.24166666666666667
            },
            {
              "pitch": 59,
              "velocity": 90,
              "position": 6,
              "duration": 0.4125
            },
            {
              "pitch": 59,
              "velocity": 71,
              "position": 6.5,
              "duration": 0.49166666666666664
            },
            {
              "pitch": 59,
              "velocity": 90,
              "position": 7,
              "duration": 0.08125
            },
            {
              "pitch": 59,
              "velocity": 88,
              "position": 8,
              "duration": 0.24166666666666667
            },
            {
              "pitch": 59,
              "velocity": 86,
              "position": 9,
              "duration": 0.24166666666666667
            },
            {
              "pitch": 59,
              "velocity": 88,
              "position": 10,
              "duration": 0.4125
            },
            {
              "pitch": 59,
              "velocity": 71,
              "position": 10.5,
              "duration": 0.49166666666666664
            },
            {
              "pitch": 59,
              "velocity": 90,
              "position": 11,
              "duration": 0.08125
            },
            {
              "pitch": 59,
              "velocity": 88,
              "position": 12,
              "duration": 0.24166666666666667
            },
            {
              "pitch": 59,
              "velocity": 86,
              "position": 13,
              "duration": 0.24166666666666667
            },
            {
              "pitch": 59,
              "velocity": 70,
              "position": 13.75,
              "duration": 0.24166666666666667
            },
            {
              "pitch": 59,
              "velocity": 90,
              "position": 14,
              "duration": 0.4125
            },
            {
              "pitch": 59,
              "velocity": 71,
              "position": 14.5,
              "duration": 0.49166666666666664
            },
            {
              "pitch": 59,
              "velocity": 90,
              "position": 15,
              "duration": 0.08125
            }
          ]
        },
        "12": {
          "ctab": {
            "srcChannel": 12,
            "name": "Organ",
            "accType": "CHORD2",
            "editable": false,
            "mutedNotes": [],
            "mutedChords": [],
            "autoStart": false,
            "sourceChordNote": 0,
            "sourceChordType": "Maj7",
            "ctb2Low": null,
            "ctb2Main": {
              "ntr": "ROOT_FIXED",
              "ntt": "CHORD",
              "bassOn": false,
              "chordRootUpperLimit": 6,
              "noteLowLimit": 60,
              "noteHighLimit": 127,
              "rtr": "PITCH_SHIFT"
            },
            "ctb2High": null
          },
          "notes": [
            {
              "pitch": 59,
              "velocity": 92,
              "position": 1,
              "duration": 0.09375
            },
            {
              "pitch": 64,
              "velocity": 92,
              "position": 1,
              "duration": 0.1
            },
            {
              "pitch": 67,
              "velocity": 92,
              "position": 1,
              "duration": 0.10416666666666667
            },
            {
              "pitch": 59,
              "velocity": 92,
              "position": 2.5,
              "duration": 0.11041666666666666
            },
            {
              "pitch": 64,
              "velocity": 92,
              "position": 2.5,
              "duration": 0.125
            },
            {
              "pitch": 67,
              "velocity": 92,
              "position": 2.5,
              "duration": 0.13125
            },
            {
              "pitch": 59,
              "velocity": 92,
              "position": 5,
              "duration": 0.11041666666666666
            },
            {
              "pitch": 64,
              "velocity": 92,
              "position": 5,
              "duration": 0.1125
            },
            {
              "pitch": 67,
              "velocity": 92,
              "position": 5,
              "duration": 0.12291666666666666
            },
            {
              "pitch": 64,
              "velocity": 82,
              "position": 6.5,
              "duration": 0.8833333333333333
            },
            {
              "pitch": 67,
              "velocity": 82,
              "position": 6.5,
              "duration": 0.8833333333333333
            },
            {
              "pitch": 59,
              "velocity": 82,
              "position": 6.5,
              "duration": 0.9020833333333333
            },
            {
              "pitch": 67,
              "velocity": 92,
              "position": 7.5,
              "duration": 0.07916666666666666
            },
            {
              "pitch": 59,
              "velocity": 92,
              "position": 7.5,
              "duration": 0.08333333333333333
            },
            {
              "pitch": 64,
              "velocity": 92,
              "position": 7.5,
              "duration": 0.08958333333333333
            },
            {
              "pitch": 59,
              "velocity": 92,
              "position": 9,
              "duration": 0.09375
            },
            {
              "pitch": 64,
              "velocity": 92,
              "position": 9,
              "duration": 0.1
            },
            {
              "pitch": 67,
              "velocity": 92,
              "position": 9,
              "duration": 0.10416666666666667
            },
            {
              "pitch": 59,
              "velocity": 92,
              "position": 10.5,
              "duration": 0.11041666666666666
            },
            {
              "pitch": 64,
              "velocity": 92,
              "position": 10.5,
              "duration": 0.125
            },
            {
              "pitch": 67,
              "velocity": 92,
              "position": 10.5,
              "duration": 0.13125
            },
            {
              "pitch": 59,
              "velocity": 92,
              "position": 13,
              "duration": 0.11041666666666666
            },
            {
              "pitch": 64,
              "velocity": 92,
              "position": 13,
              "duration": 0.1125
            },
            {
              "pitch": 67,
              "velocity": 92,
              "position": 13,
              "duration": 0.12291666666666666
            },
            {
              "pitch": 64,
              "velocity": 82,
              "position": 14.5,
              "duration": 0.8833333333333333
            },
            {
              "pitch": 67,
              "velocity": 82,
              "position": 14.5,
              "duration": 0.8833333333333333
            },
            {
              "pitch": 59,
              "velocity": 82,
              "position": 14.5,
              "duration": 0.9020833333333333
            },
            {
              "pitch": 67,
              "velocity": 92,
              "position": 15.5,
              "duration": 0.07916666666666666
            },
            {
              "pitch": 59,
              "velocity": 92,
              "position": 15.5,
              "duration": 0.08333333333333333
            },
            {
              "pitch": 64,
              "velocity": 92,
              "position": 15.5,
              "duration": 0.08958333333333333
            }
          ]
        },
        "13": {
          "ctab": {
            "srcChannel": 13,
            "name": "Brass",
            "accType": "PAD",
            "editable": false,
            "mutedNotes": [],
            "mutedChords": [],
            "autoStart": false,
            "sourceChordNote": 0,
            "sourceChordType": "Maj7",
            "ctb2Low": null,
            "ctb2Main": {
              "ntr": "ROOT_FIXED",
              "ntt": "CHORD",
              "bassOn": false,
              "chordRootUpperLimit": 7,
              "noteLowLimit": 0,
              "noteHighLimit": 127,
              "rtr": "PITCH_SHIFT"
            },
            "ctb2High": null
          },
          "notes": [
            {
              "pitch": 59,
              "velocity": 79,
              "position": 0.5020833333333333,
              "duration": 0.45416666666666666
            },
            {
              "pitch": 67,
              "velocity": 111,
              "position": 0.49583333333333335,
              "duration": 0.46458333333333335
            },
            {
              "pitch": 64,
              "velocity": 111,
              "position": 0.5020833333333333,
              "duration": 0.4666666666666667
            },
            {
              "pitch": 59,
              "velocity": 82,
              "position": 0.9958333333333333,
              "duration": 0.175
            },
            {
              "pitch": 67,
              "velocity": 112,
              "position": 1.0020833333333334,
              "duration": 0.18541666666666667
            },
            {
              "pitch": 64,
              "velocity": 111,
              "position": 1,
              "duration": 0.19375
            },
            {
              "pitch": 59,
              "velocity": 81,
              "position": 4.5125,
              "duration": 0.4583333333333333
            },
            {
              "pitch": 64,
              "velocity": 109,
              "position": 4.510416666666667,
              "duration": 0.4708333333333333
            },
            {
              "pitch": 67,
              "velocity": 109,
              "position": 4.5125,
              "duration": 0.46875
            },
            {
              "pitch": 59,
              "velocity": 81,
              "position": 5.010416666666667,
              "duration": 0.17916666666666667
            },
            {
              "pitch": 67,
              "velocity": 111,
              "position": 5.00625,
              "duration": 0.18958333333333333
            },
            {
              "pitch": 64,
              "velocity": 109,
              "position": 5.00625,
              "duration": 0.19375
            },
            {
              "pitch": 59,
              "velocity": 79,
              "position": 8.497916666666667,
              "duration": 0.45625
            },
            {
              "pitch": 67,
              "velocity": 111,
              "position": 8.497916666666667,
              "duration": 0.46875
            },
            {
              "pitch": 64,
              "velocity": 111,
              "position": 8.497916666666667,
              "duration": 0.4708333333333333
            },
            {
              "pitch": 59,
              "velocity": 82,
              "position": 8.997916666666667,
              "duration": 0.17916666666666667
            },
            {
              "pitch": 64,
              "velocity": 111,
              "position": 8.997916666666667,
              "duration": 0.19375
            },
            {
              "pitch": 67,
              "velocity": 112,
              "position": 9.002083333333333,
              "duration": 0.18958333333333333
            },
            {
              "pitch": 59,
              "velocity": 81,
              "position": 12.502083333333333,
              "duration": 0.45625
            },
            {
              "pitch": 64,
              "velocity": 109,
              "position": 12.495833333333334,
              "duration": 0.4708333333333333
            },
            {
              "pitch": 67,
              "velocity": 109,
              "position": 12.497916666666667,
              "duration": 0.46875
            },
            {
              "pitch": 59,
              "velocity": 81,
              "position": 13,
              "duration": 0.17916666666666667
            },
            {
              "pitch": 67,
              "velocity": 111,
              "position": 13,
              "duration": 0.18958333333333333
            },
            {
              "pitch": 64,
              "velocity": 109,
              "position": 13,
              "duration": 0.19375
            }
          ]
        },
        "14": {
          "ctab": {
            "srcChannel": 14,
            "name": "Sax",
            "accType": "PHRASE1",
            "editable": false,
            "mutedNotes": [],
            "mutedChords": [],
            "autoStart": false,
            "sourceChordNote": 0,
            "sourceChordType": "Maj7",
            "ctb2Low": null,
            "ctb2Main": {
              "ntr": "ROOT_TRANSPOSITION",
              "ntt": "MELODY",
              "bassOn": false,
              "chordRootUpperLimit": 6,
              "noteLowLimit": 48,
              "noteHighLimit": 59,
              "rtr": "PITCH_SHIFT"
            },
            "ctb2High": null
          },
          "notes": []
        },
        "15": {
          "ctab": {
            "srcChannel": 15,
            "name": "Vib",
            "accType": "PHRASE2",
            "editable": false,
            "mutedNotes": [],
            "mutedChords": [],
            "autoStart": false,
            "sourceChordNote": 0,
            "sourceChordType": "Maj7",
            "ctb2Low": null,
            "ctb2Main": {
              "ntr": "ROOT_TRANSPOSITION",
              "ntt": "CHORD",
              "bassOn": false,
              "chordRootUpperLimit": 7,
              "noteLowLimit": 60,
              "noteHighLimit": 71,
              "rtr": "PITCH_SHIFT"
            },
            "ctb2High": null
          },
          "notes": []
        }
      }
    },
    "Main_B": {
      "type": "Main_B",
      "sizeInBeats": 16,
      "channels": {
        "3": {
          "ctab": {
            "srcChannel": 3,
            "name": "Organ rt",
            "accType": "CHORD2",
            "editable": true,
            "mutedNotes": [],
            "mutedChords": [
              "1+2+5",
              "sus4",
              "1+5",
              "1+8",
              "Maj7aug",
              "dim",
              "minMaj7(9)",
              "minMaj7",
              "min6",
              "min",
              "aug",
              "Maj7(9)",
              "Maj7#11",
              "Maj7",
              "Maj6",
              "Maj"
            ],
            "autoStart": false,
            "sourceChordNote": 0,
            "sourceChordType": "Maj7",
            "ctb2Low": null,
            "ctb2Main": {
              "ntr": "ROOT_TRANSPOSITION",
              "ntt": "MELODY",
              "bassOn": false,
              "chordRootUpperLimit": 10,
              "noteLowLimit": 60,
              "noteHighLimit": 74,
              "rtr": "PITCH_SHIFT"
            },
            "ctb2High": null
          },
          "notes": [
            {
              "pitch": 60,
              "velocity": 57,
              "position": 2,
              "duration": 0.43333333333333335
            },
            {
              "pitch": 60,
              "velocity": 46,
              "position": 2.5,
              "duration": 0.13333333333333333
            },
            {
              "pitch": 60,
              "velocity": 75,
              "position": 3,
              "duration": 0.09166666666666666
            },
            {
              "pitch": 60,
              "velocity": 22,
              "position": 5.75,
              "duration": 0.07291666666666667
            },
            {
              "pitch": 60,
              "velocity": 64,
              "position": 6,
              "duration": 0.4125
            },
            {
              "pitch": 60,
              "velocity": 47,
              "position": 6.5,
              "duration": 0.15625
            },
            {
              "pitch": 60,
              "velocity": 74,
              "position": 7,
              "duration": 0.10416666666666667
            },
            {
              "pitch": 60,
              "velocity": 57,
              "position": 10,
              "duration": 0.43333333333333335
            },
            {
              "pitch": 60,
              "velocity": 46,
              "position": 10.5,
              "duration": 0.13333333333333333
            },
            {
              "pitch": 60,
              "velocity": 75,
              "position": 11,
              "duration": 0.09166666666666666
            },
            {
              "pitch": 60,
              "velocity": 22,
              "position": 13.75,
              "duration": 0.07291666666666667
            },
            {
              "pitch": 60,
              "velocity": 64,
              "position": 14,
              "duration": 0.4125
            },
            {
              "pitch": 60,
              "velocity": 47,
              "position": 14.5,
              "duration": 0.15625
            },
            {
              "pitch": 60,
              "velocity": 74,
              "position": 15,
              "duration": 0.10416666666666667
            }
          ]
        },
        "4": {
          "ctab": {
            "srcChannel": 4,
            "name": "Brass rt",
            "accType": "PAD",
            "editable": false,
            "mutedNotes": [],
            "mutedChords": [
              "1+2+5",
              "sus4",
              "1+5",
              "1+8",
              "Maj7aug",
              "dim",
              "minMaj7(9)",
              "minMaj7",
              "min6",
              "min",
              "aug",
              "Maj7(9)",
              "Maj7#11",
              "Maj7",
              "Maj6",
              "Maj"
            ],
            "autoStart": false,
            "sourceChordNote": 0,
            "sourceChordType": "Maj7",
            "ctb2Low": null,
            "ctb2Main": {
              "ntr": "ROOT_TRANSPOSITION",
              "ntt": "MELODY",
              "bassOn": false,
              "chordRootUpperLimit": 10,
              "noteLowLimit": 0,
              "noteHighLimit": 74,
              "rtr": "PITCH_SHIFT"
            },
            "ctb2High": null
          },
          "notes": [
            {
              "pitch": 60,
              "velocity": 84,
              "position": 0,
              "duration": 0.24375
            },
            {
              "pitch": 60,
              "velocity": 84,
              "position": 1,
              "duration": 0.24375
            },
            {
              "pitch": 60,
              "velocity": 84,
              "position": 4,
              "duration": 0.24375
            },
            {
              "pitch": 60,
              "velocity": 84,
              "position": 4.99375,
              "duration": 0.25
            },
            {
              "pitch": 60,
              "velocity": 84,
              "position": 8,
              "duration": 0.24375
            },
            {
              "pitch": 60,
              "velocity": 84,
              "position": 9,
              "duration": 0.24375
            },
            {
              "pitch": 60,
              "velocity": 84,
              "position": 12,
              "duration": 0.24375
            },
            {
              "pitch": 60,
              "velocity": 84,
              "position": 12.99375,
              "duration": 0.25
            }
          ]
        },
        "7": {
          "ctab": {
            "srcChannel": 7,
            "name": "Org Glis",
            "accType": "CHORD2",
            "editable": false,
            "mutedNotes": [],
            "mutedChords": [],
            "autoStart": false,
            "sourceChordNote": 0,
            "sourceChordType": "Maj7",
            "ctb2Low": null,
            "ctb2Main": {
              "ntr": "ROOT_FIXED",
              "ntt": "BYPASS",
              "bassOn": false,
              "chordRootUpperLimit": 6,
              "noteLowLimit": 0,
              "noteHighLimit": 127,
              "rtr": "PITCH_SHIFT"
            },
            "ctb2High": null
          },
          "notes": []
        },
        "8": {
          "ctab": {
            "srcChannel": 8,
            "name": "AddDrum",
            "accType": "SUBRHYTHM",
            "editable": false,
            "mutedNotes": [],
            "mutedChords": [],
            "autoStart": true,
            "sourceChordNote": 0,
            "sourceChordType": "Maj7",
            "ctb2Low": null,
            "ctb2Main": {
              "ntr": "ROOT_FIXED",
              "ntt": "BYPASS",
              "bassOn": false,
              "chordRootUpperLimit": 6,
              "noteLowLimit": 0,
              "noteHighLimit": 127,
              "rtr": "PITCH_SHIFT"
            },
            "ctb2High": null
          },
          "notes": [
            {
              "pitch": 56,
              "velocity": 99,
              "position": 0,
              "duration": 0.00625
            },
            {
              "pitch": 56,
              "velocity": 102,
              "position": 1,
              "duration": 0.00625
            },
            {
              "pitch": 56,
              "velocity": 100,
              "position": 2,
              "duration": 0.00625
            },
            {
              "pitch": 56,
              "velocity": 63,
              "position": 2.5,
              "duration": 0.00625
            },
            {
              "pitch": 56,
              "velocity": 102,
              "position": 3,
              "duration": 0.00625
            },
            {
              "pitch": 56,
              "velocity": 99,
              "position": 4,
              "duration": 0.00625
            },
            {
              "pitch": 56,
              "velocity": 102,
              "position": 5,
              "duration": 0.00625
            },
            {
              "pitch": 56,
              "velocity": 100,
              "position": 6,
              "duration": 0.00625
            },
            {
              "pitch": 56,
              "velocity": 62,
              "position": 6.5,
              "duration": 0.00625
            },
            {
              "pitch": 56,
              "velocity": 102,
              "position": 7,
              "duration": 0.00625
            },
            {
              "pitch": 56,
              "velocity": 99,
              "position": 8,
              "duration": 0.00625
            },
            {
              "pitch": 56,
              "velocity": 102,
              "position": 9,
              "duration": 0.00625
            },
            {
              "pitch": 56,
              "velocity": 100,
              "position": 10,
              "duration": 0.00625
            },
            {
              "pitch": 56,
              "velocity": 66,
              "position": 10.5,
              "duration": 0.00625
            },
            {
              "pitch": 56,
              "velocity": 102,
              "position": 11,
              "duration": 0.00625
            },
            {
              "pitch": 56,
              "velocity": 99,
              "position": 12,
              "duration": 0.00625
            },
            {
              "pitch": 56,
              "velocity": 102,
              "position": 13,
              "duration": 0.00625
            },
            {
              "pitch": 56,
              "velocity": 100,
              "position": 14,
              "duration": 0.00625
            },
            {
              "pitch": 56,
              "velocity": 62,
              "position": 14.5,
              "duration": 0.00625
            },
            {
              "pitch": 56,
              "velocity": 102,
              "position": 15,
              "duration": 0.00625
            }
          ]
        },
        "9": {
          "ctab": {
            "srcChannel": 9,
            "name": "MainDrum",
            "accType": "RHYTHM",
            "editable": false,
            "mutedNotes": [],
            "mutedChords": [],
            "autoStart": true,
            "sourceChordNote": 0,
            "sourceChordType": "Maj7",
            "ctb2Low": null,
            "ctb2Main": {
              "ntr": "ROOT_FIXED",
              "ntt": "BYPASS",
              "bassOn": false,
              "chordRootUpperLimit": 6,
              "noteLowLimit": 0,
              "noteHighLimit": 127,
              "rtr": "PITCH_SHIFT"
            },
            "ctb2High": null
          },
          "notes": [
            {
              "pitch": 23,
              "velocity": 117,
              "position": 0,
              "duration": 0.004166666666666667
            },
            {
              "pitch": 73,
              "velocity": 69,
              "position": 0,
              "duration": 0.004166666666666667
            },
            {
              "pitch": 53,
              "velocity": 71,
              "position": 0,
              "duration": 0.00625
            },
            {
              "pitch": 22,
              "velocity": 86,
              "position": 0.5,
              "duration": 0.004166666666666667
            },
            {
              "pitch": 73,
              "velocity": 35,
              "position": 0.5,
              "duration": 0.004166666666666667
            },
            {
              "pitch": 26,
              "velocity": 103,
              "position": 1,
              "duration": 0.004166666666666667
            },
            {
              "pitch": 73,
              "velocity": 100,
              "position": 1,
              "duration": 0.004166666666666667
            },
            {
              "pitch": 53,
              "velocity": 72,
              "position": 1.0104166666666667,
              "duration": 0.00625
            },
            {
              "pitch": 31,
              "velocity": 76,
              "position": 1.5,
              "duration": 0.004166666666666667
            },
            {
              "pitch": 73,
              "velocity": 38,
              "position": 1.5,
              "duration": 0.004166666666666667
            },
            {
              "pitch": 31,
              "velocity": 116,
              "position": 2,
              "duration": 0.004166666666666667
            },
            {
              "pitch": 73,
              "velocity": 71,
              "position": 2,
              "duration": 0.004166666666666667
            },
            {
              "pitch": 53,
              "velocity": 70,
              "position": 2,
              "duration": 0.00625
            },
            {
              "pitch": 53,
              "velocity": 62,
              "position": 2.4895833333333335,
              "duration": 0.00625
            },
            {
              "pitch": 23,
              "velocity": 103,
              "position": 2.5,
              "duration": 0.00625
            },
            {
              "pitch": 73,
              "velocity": 39,
              "position": 2.5,
              "duration": 0.00625
            },
            {
              "pitch": 53,
              "velocity": 71,
              "position": 2.9895833333333335,
              "duration": 0.00625
            },
            {
              "pitch": 24,
              "velocity": 88,
              "position": 3,
              "duration": 0.00625
            },
            {
              "pitch": 73,
              "velocity": 100,
              "position": 3,
              "duration": 0.00625
            },
            {
              "pitch": 25,
              "velocity": 127,
              "position": 3.5,
              "duration": 0.00625
            },
            {
              "pitch": 73,
              "velocity": 39,
              "position": 3.5,
              "duration": 0.00625
            },
            {
              "pitch": 53,
              "velocity": 71,
              "position": 3.9895833333333335,
              "duration": 0.00625
            },
            {
              "pitch": 23,
              "velocity": 117,
              "position": 4,
              "duration": 0.00625
            },
            {
              "pitch": 73,
              "velocity": 73,
              "position": 4,
              "duration": 0.00625
            },
            {
              "pitch": 22,
              "velocity": 86,
              "position": 4.5,
              "duration": 0.00625
            },
            {
              "pitch": 73,
              "velocity": 35,
              "position": 4.5,
              "duration": 0.00625
            },
            {
              "pitch": 26,
              "velocity": 103,
              "position": 5,
              "duration": 0.00625
            },
            {
              "pitch": 53,
              "velocity": 71,
              "position": 5,
              "duration": 0.00625
            },
            {
              "pitch": 73,
              "velocity": 100,
              "position": 5,
              "duration": 0.00625
            },
            {
              "pitch": 31,
              "velocity": 76,
              "position": 5.5,
              "duration": 0.00625
            },
            {
              "pitch": 73,
              "velocity": 33,
              "position": 5.5,
              "duration": 0.00625
            },
            {
              "pitch": 31,
              "velocity": 116,
              "position": 6,
              "duration": 0.00625
            },
            {
              "pitch": 53,
              "velocity": 72,
              "position": 6,
              "duration": 0.00625
            },
            {
              "pitch": 73,
              "velocity": 76,
              "position": 6,
              "duration": 0.00625
            },
            {
              "pitch": 53,
              "velocity": 60,
              "position": 6.491666666666666,
              "duration": 0.00625
            },
            {
              "pitch": 23,
              "velocity": 103,
              "position": 6.5,
              "duration": 0.00625
            },
            {
              "pitch": 73,
              "velocity": 33,
              "position": 6.5,
              "duration": 0.00625
            },
            {
              "pitch": 24,
              "velocity": 88,
              "position": 7,
              "duration": 0.00625
            },
            {
              "pitch": 53,
              "velocity": 66,
              "position": 7,
              "duration": 0.00625
            },
            {
              "pitch": 73,
              "velocity": 100,
              "position": 7,
              "duration": 0.00625
            },
            {
              "pitch": 25,
              "velocity": 127,
              "position": 7.5,
              "duration": 0.00625
            },
            {
              "pitch": 73,
              "velocity": 32,
              "position": 7.5,
              "duration": 0.00625
            },
            {
              "pitch": 53,
              "velocity": 68,
              "position": 7.99375,
              "duration": 0.00625
            },
            {
              "pitch": 23,
              "velocity": 117,
              "position": 8,
              "duration": 0.00625
            },
            {
              "pitch": 73,
              "velocity": 69,
              "position": 8,
              "duration": 0.00625
            },
            {
              "pitch": 22,
              "velocity": 86,
              "position": 8.5,
              "duration": 0.00625
            },
            {
              "pitch": 73,
              "velocity": 35,
              "position": 8.5,
              "duration": 0.00625
            },
            {
              "pitch": 26,
              "velocity": 103,
              "position": 9,
              "duration": 0.00625
            },
            {
              "pitch": 53,
              "velocity": 75,
              "position": 9,
              "duration": 0.00625
            },
            {
              "pitch": 73,
              "velocity": 100,
              "position": 9,
              "duration": 0.00625
            },
            {
              "pitch": 31,
              "velocity": 76,
              "position": 9.5,
              "duration": 0.00625
            },
            {
              "pitch": 73,
              "velocity": 38,
              "position": 9.5,
              "duration": 0.00625
            },
            {
              "pitch": 31,
              "velocity": 116,
              "position": 10,
              "duration": 0.00625
            },
            {
              "pitch": 53,
              "velocity": 78,
              "position": 10,
              "duration": 0.00625
            },
            {
              "pitch": 73,
              "velocity": 71,
              "position": 10,
              "duration": 0.00625
            },
            {
              "pitch": 23,
              "velocity": 103,
              "position": 10.5,
              "duration": 0.00625
            },
            {
              "pitch": 53,
              "velocity": 57,
              "position": 10.5,
              "duration": 0.00625
            },
            {
              "pitch": 73,
              "velocity": 39,
              "position": 10.5,
              "duration": 0.00625
            },
            {
              "pitch": 24,
              "velocity": 88,
              "position": 11,
              "duration": 0.00625
            },
            {
              "pitch": 73,
              "velocity": 100,
              "position": 11,
              "duration": 0.00625
            },
            {
              "pitch": 53,
              "velocity": 68,
              "position": 11.002083333333333,
              "duration": 0.00625
            },
            {
              "pitch": 25,
              "velocity": 127,
              "position": 11.5,
              "duration": 0.00625
            },
            {
              "pitch": 73,
              "velocity": 39,
              "position": 11.5,
              "duration": 0.00625
            },
            {
              "pitch": 23,
              "velocity": 117,
              "position": 12,
              "duration": 0.00625
            },
            {
              "pitch": 53,
              "velocity": 71,
              "position": 12,
              "duration": 0.00625
            },
            {
              "pitch": 73,
              "velocity": 73,
              "position": 12,
              "duration": 0.00625
            },
            {
              "pitch": 22,
              "velocity": 86,
              "position": 12.5,
              "duration": 0.00625
            },
            {
              "pitch": 73,
              "velocity": 35,
              "position": 12.5,
              "duration": 0.00625
            },
            {
              "pitch": 26,
              "velocity": 103,
              "position": 13,
              "duration": 0.00625
            },
            {
              "pitch": 53,
              "velocity": 70,
              "position": 13,
              "duration": 0.00625
            },
            {
              "pitch": 73,
              "velocity": 100,
              "position": 13,
              "duration": 0.00625
            },
            {
              "pitch": 31,
              "velocity": 76,
              "position": 13.5,
              "duration": 0.00625
            },
            {
              "pitch": 73,
              "velocity": 33,
              "position": 13.5,
              "duration": 0.00625
            },
            {
              "pitch": 31,
              "velocity": 116,
              "position": 14,
              "duration": 0.00625
            },
            {
              "pitch": 53,
              "velocity": 60,
              "position": 14,
              "duration": 0.00625
            },
            {
              "pitch": 73,
              "velocity": 76,
              "position": 14,
              "duration": 0.00625
            },
            {
              "pitch": 23,
              "velocity": 103,
              "position": 14.5,
              "duration": 0.00625
            },
            {
              "pitch": 53,
              "velocity": 64,
              "position": 14.5,
              "duration": 0.00625
            },
            {
              "pitch": 73,
              "velocity": 33,
              "position": 14.5,
              "duration": 0.00625
            },
            {
              "pitch": 24,
              "velocity": 88,
              "position": 15,
              "duration": 0.00625
            },
            {
              "pitch": 53,
              "velocity": 74,
              "position": 15,
              "duration": 0.00625
            },
            {
              "pitch": 73,
              "velocity": 100,
              "position": 15,
              "duration": 0.00625
            },
            {
              "pitch": 25,
              "velocity": 127,
              "position": 15.5,
              "duration": 0.00625
            },
            {
              "pitch": 73,
              "velocity": 32,
              "position": 15.5,
              "duration": 0.00625
            }
          ]
        },
        "10": {
          "ctab": {
            "srcChannel": 10,
            "name": "Bass",
            "accType": "BASS",
            "editable": false,
            "mutedNotes": [],
            "mutedChords": [],
            "autoStart": false,
            "sourceChordNote": 0,
            "sourceChordType": "Maj7",
            "ctb2Low": null,
            "ctb2Main": {
              "ntr": "ROOT_TRANSPOSITION",
              "ntt": "MELODY",
              "bassOn": true,
              "chordRootUpperLimit": 4,
              "noteLowLimit": 28,
              "noteHighLimit": 127,
              "rtr": "PITCH_SHIFT_TO_ROOT"
            },
            "ctb2High": null
          },
          "notes": [
            {
              "pitch": 24,
              "velocity": 60,
              "position": 0,
              "duration": 0.975
            },
            {
              "pitch": 24,
              "velocity": 95,
              "position": 1,
              "duration": 0.058333333333333334
            },
            {
              "pitch": 24,
              "velocity": 50,
              "position": 1.5,
              "duration": 0.475
            },
            {
              "pitch": 31,
              "velocity": 60,
              "position": 2,
              "duration": 0.975
            },
            {
              "pitch": 31,
              "velocity": 100,
              "position": 3,
              "duration": 0.058333333333333334
            },
            {
              "pitch": 31,
              "velocity": 50,
              "position": 3.5,
              "duration": 0.475
            },
            {
              "pitch": 24,
              "velocity": 60,
              "position": 4,
              "duration": 0.975
            },
            {
              "pitch": 24,
              "velocity": 100,
              "position": 5,
              "duration": 0.058333333333333334
            },
            {
              "pitch": 24,
              "velocity": 59,
              "position": 5.5,
              "duration": 0.14166666666666666
            },
            {
              "pitch": 31,
              "velocity": 60,
              "position": 6,
              "duration": 0.9541666666666667
            },
            {
              "pitch": 31,
              "velocity": 59,
              "position": 7,
              "duration": 0.975
            },
            {
              "pitch": 24,
              "velocity": 60,
              "position": 8,
              "duration": 0.975
            },
            {
              "pitch": 24,
              "velocity": 95,
              "position": 9,
              "duration": 0.058333333333333334
            },
            {
              "pitch": 24,
              "velocity": 50,
              "position": 9.5,
              "duration": 0.475
            },
            {
              "pitch": 31,
              "velocity": 60,
              "position": 10,
              "duration": 0.975
            },
            {
              "pitch": 31,
              "velocity": 100,
              "position": 11,
              "duration": 0.058333333333333334
            },
            {
              "pitch": 31,
              "velocity": 50,
              "position": 11.5,
              "duration": 0.475
            },
            {
              "pitch": 24,
              "velocity": 60,
              "position": 12,
              "duration": 0.975
            },
            {
              "pitch": 24,
              "velocity": 100,
              "position": 13,
              "duration": 0.058333333333333334
            },
            {
              "pitch": 24,
              "velocity": 59,
              "position": 13.5,
              "duration": 0.48541666666666666
            },
            {
              "pitch": 31,
              "velocity": 60,
              "position": 14,
              "duration": 0.9541666666666667
            },
            {
              "pitch": 31,
              "velocity": 60,
              "position": 15,
              "duration": 0.975
            }
          ]
        },
        "11": {
          "ctab": {
            "srcChannel": 11,
            "name": "E.Guitar",
            "accType": "CHORD1",
            "editable": false,
            "mutedNotes": [],
            "mutedChords": [],
            "autoStart": false,
            "sourceChordNote": 0,
            "sourceChordType": "Maj7",
            "ctb2Low": null,
            "ctb2Main": {
              "ntr": "ROOT_FIXED",
              "ntt": "MELODY",
              "bassOn": false,
              "chordRootUpperLimit": 7,
              "noteLowLimit": 0,
              "noteHighLimit": 127,
              "rtr": "PITCH_SHIFT"
            },
            "ctb2High": null
          },
          "notes": [
            {
              "pitch": 59,
              "velocity": 88,
              "position": 0,
              "duration": 0.24166666666666667
            },
            {
              "pitch": 59,
              "velocity": 86,
              "position": 1,
              "duration": 0.24166666666666667
            },
            {
              "pitch": 59,
              "velocity": 88,
              "position": 2,
              "duration": 0.4125
            },
            {
              "pitch": 59,
              "velocity": 71,
              "position": 2.5,
              "duration": 0.49166666666666664
            },
            {
              "pitch": 59,
              "velocity": 90,
              "position": 3,
              "duration": 0.08125
            },
            {
              "pitch": 59,
              "velocity": 88,
              "position": 4,
              "duration": 0.24166666666666667
            },
            {
              "pitch": 59,
              "velocity": 86,
              "position": 5,
              "duration": 0.24166666666666667
            },
            {
              "pitch": 59,
              "velocity": 70,
              "position": 5.75,
              "duration": 0.24166666666666667
            },
            {
              "pitch": 59,
              "velocity": 90,
              "position": 6,
              "duration": 0.4125
            },
            {
              "pitch": 59,
              "velocity": 71,
              "position": 6.5,
              "duration": 0.49166666666666664
            },
            {
              "pitch": 59,
              "velocity": 90,
              "position": 7,
              "duration": 0.08125
            },
            {
              "pitch": 59,
              "velocity": 88,
              "position": 8,
              "duration": 0.24166666666666667
            },
            {
              "pitch": 59,
              "velocity": 86,
              "position": 9,
              "duration": 0.24166666666666667
            },
            {
              "pitch": 59,
              "velocity": 88,
              "position": 10,
              "duration": 0.4125
            },
            {
              "pitch": 59,
              "velocity": 71,
              "position": 10.5,
              "duration": 0.49166666666666664
            },
            {
              "pitch": 59,
              "velocity": 90,
              "position": 11,
              "duration": 0.08125
            },
            {
              "pitch": 59,
              "velocity": 88,
              "position": 12,
              "duration": 0.24166666666666667
            },
            {
              "pitch": 59,
              "velocity": 86,
              "position": 13,
              "duration": 0.24166666666666667
            },
            {
              "pitch": 59,
              "velocity": 70,
              "position": 13.75,
              "duration": 0.24166666666666667
            },
            {
              "pitch": 59,
              "velocity": 90,
              "position": 14,
              "duration": 0.4125
            },
            {
              "pitch": 59,
              "velocity": 71,
              "position": 14.5,
              "duration": 0.49166666666666664
            },
            {
              "pitch": 59,
              "velocity": 90,
              "position": 15,
              "duration": 0.08125
            }
          ]
        },
        "12": {
          "ctab": {
            "srcChannel": 12,
            "name": "Organ",
            "accType": "CHORD2",
            "editable": false,
            "mutedNotes": [],
            "mutedChords": [],
            "autoStart": false,
            "sourceChordNote": 0,
            "sourceChordType": "Maj7",
            "ctb2Low": null,
            "ctb2Main": {
              "ntr": "ROOT_FIXED",
              "ntt": "CHORD",
              "bassOn": false,
              "chordRootUpperLimit": 6,
              "noteLowLimit": 60,
              "noteHighLimit": 127,
              "rtr": "PITCH_SHIFT"
            },
            "ctb2High": null
          },
          "notes": [
            {
              "pitch": 67,
              "velocity": 73,
              "position": 2,
              "duration": 0.43333333333333335
            },
            {
              "pitch": 59,
              "velocity": 73,
              "position": 2,
              "duration": 0.44375
            },
            {
              "pitch": 64,
              "velocity": 73,
              "position": 2,
              "duration": 0.45416666666666666
            },
            {
              "pitch": 64,
              "velocity": 62,
              "position": 2.5,
              "duration": 0.10416666666666667
            },
            {
              "pitch": 59,
              "velocity": 62,
              "position": 2.5,
              "duration": 0.11041666666666666
            },
            {
              "pitch": 67,
              "velocity": 62,
              "position": 2.5,
              "duration": 0.13333333333333333
            },
            {
              "pitch": 59,
              "velocity": 91,
              "position": 3,
              "duration": 0.08333333333333333
            },
            {
              "pitch": 64,
              "velocity": 91,
              "position": 3,
              "duration": 0.08958333333333333
            },
            {
              "pitch": 67,
              "velocity": 91,
              "position": 3,
              "duration": 0.09166666666666666
            },
            {
              "pitch": 67,
              "velocity": 38,
              "position": 5.75,
              "duration": 0.07291666666666667
            },
            {
              "pitch": 64,
              "velocity": 38,
              "position": 5.75,
              "duration": 0.08125
            },
            {
              "pitch": 59,
              "velocity": 50,
              "position": 5.75,
              "duration": 0.09166666666666666
            },
            {
              "pitch": 64,
              "velocity": 80,
              "position": 6,
              "duration": 0.4041666666666667
            },
            {
              "pitch": 67,
              "velocity": 80,
              "position": 6,
              "duration": 0.4125
            },
            {
              "pitch": 59,
              "velocity": 80,
              "position": 6,
              "duration": 0.4375
            },
            {
              "pitch": 67,
              "velocity": 63,
              "position": 6.5,
              "duration": 0.15625
            },
            {
              "pitch": 64,
              "velocity": 63,
              "position": 6.5,
              "duration": 0.1625
            },
            {
              "pitch": 59,
              "velocity": 63,
              "position": 6.5,
              "duration": 0.16458333333333333
            },
            {
              "pitch": 64,
              "velocity": 90,
              "position": 7,
              "duration": 0.07916666666666666
            },
            {
              "pitch": 59,
              "velocity": 90,
              "position": 7,
              "duration": 0.08958333333333333
            },
            {
              "pitch": 67,
              "velocity": 90,
              "position": 7,
              "duration": 0.10416666666666667
            },
            {
              "pitch": 67,
              "velocity": 73,
              "position": 10,
              "duration": 0.43333333333333335
            },
            {
              "pitch": 59,
              "velocity": 73,
              "position": 10,
              "duration": 0.44375
            },
            {
              "pitch": 64,
              "velocity": 73,
              "position": 10,
              "duration": 0.45416666666666666
            },
            {
              "pitch": 64,
              "velocity": 62,
              "position": 10.5,
              "duration": 0.10416666666666667
            },
            {
              "pitch": 59,
              "velocity": 62,
              "position": 10.5,
              "duration": 0.11041666666666666
            },
            {
              "pitch": 67,
              "velocity": 62,
              "position": 10.5,
              "duration": 0.13333333333333333
            },
            {
              "pitch": 59,
              "velocity": 91,
              "position": 11,
              "duration": 0.08333333333333333
            },
            {
              "pitch": 64,
              "velocity": 91,
              "position": 11,
              "duration": 0.08958333333333333
            },
            {
              "pitch": 67,
              "velocity": 91,
              "position": 11,
              "duration": 0.09166666666666666
            },
            {
              "pitch": 67,
              "velocity": 38,
              "position": 13.75,
              "duration": 0.07291666666666667
            },
            {
              "pitch": 64,
              "velocity": 38,
              "position": 13.75,
              "duration": 0.08125
            },
            {
              "pitch": 59,
              "velocity": 50,
              "position": 13.75,
              "duration": 0.09166666666666666
            },
            {
              "pitch": 64,
              "velocity": 80,
              "position": 14,
              "duration": 0.4041666666666667
            },
            {
              "pitch": 67,
              "velocity": 80,
              "position": 14,
              "duration": 0.4125
            },
            {
              "pitch": 59,
              "velocity": 80,
              "position": 14,
              "duration": 0.4375
            },
            {
              "pitch": 67,
              "velocity": 63,
              "position": 14.5,
              "duration": 0.15625
            },
            {
              "pitch": 64,
              "velocity": 63,
              "position": 14.5,
              "duration": 0.1625
            },
            {
              "pitch": 59,
              "velocity": 63,
              "position": 14.5,
              "duration": 0.16458333333333333
            },
            {
              "pitch": 64,
              "velocity": 90,
              "position": 15,
              "duration": 0.07916666666666666
            },
            {
              "pitch": 59,
              "velocity": 90,
              "position": 15,
              "duration": 0.08958333333333333
            },
            {
              "pitch": 67,
              "velocity": 90,
              "position": 15,
              "duration": 0.10416666666666667
            }
          ]
        },
        "13": {
          "ctab": {
            "srcChannel": 13,
            "name": "Brass",
            "accType": "PAD",
            "editable": false,
            "mutedNotes": [],
            "mutedChords": [],
            "autoStart": false,
            "sourceChordNote": 0,
            "sourceChordType": "Maj7",
            "ctb2Low": null,
            "ctb2Main": {
              "ntr": "ROOT_FIXED",
              "ntt": "CHORD",
              "bassOn": false,
              "chordRootUpperLimit": 7,
              "noteLowLimit": 0,
              "noteHighLimit": 127,
              "rtr": "PITCH_SHIFT"
            },
            "ctb2High": null
          },
          "notes": [
            {
              "pitch": 64,
              "velocity": 114,
              "position": 0,
              "duration": 0.21875
            },
            {
              "pitch": 67,
              "velocity": 108,
              "position": 0,
              "duration": 0.23333333333333334
            },
            {
              "pitch": 59,
              "velocity": 82,
              "position": 0,
              "duration": 0.24375
            },
            {
              "pitch": 64,
              "velocity": 111,
              "position": 0.9958333333333333,
              "duration": 0.21875
            },
            {
              "pitch": 67,
              "velocity": 114,
              "position": 1,
              "duration": 0.23333333333333334
            },
            {
              "pitch": 59,
              "velocity": 82,
              "position": 0.9958333333333333,
              "duration": 0.24375
            },
            {
              "pitch": 64,
              "velocity": 114,
              "position": 4,
              "duration": 0.21875
            },
            {
              "pitch": 67,
              "velocity": 108,
              "position": 3.997916666666667,
              "duration": 0.23333333333333334
            },
            {
              "pitch": 59,
              "velocity": 82,
              "position": 4,
              "duration": 0.24375
            },
            {
              "pitch": 64,
              "velocity": 111,
              "position": 4.983333333333333,
              "duration": 0.22083333333333333
            },
            {
              "pitch": 67,
              "velocity": 114,
              "position": 4.991666666666666,
              "duration": 0.23958333333333334
            },
            {
              "pitch": 59,
              "velocity": 82,
              "position": 4.99375,
              "duration": 0.25
            },
            {
              "pitch": 64,
              "velocity": 114,
              "position": 8.002083333333333,
              "duration": 0.21875
            },
            {
              "pitch": 67,
              "velocity": 109,
              "position": 8.002083333333333,
              "duration": 0.23333333333333334
            },
            {
              "pitch": 59,
              "velocity": 82,
              "position": 7.997916666666667,
              "duration": 0.24375
            },
            {
              "pitch": 64,
              "velocity": 111,
              "position": 8.99375,
              "duration": 0.21875
            },
            {
              "pitch": 67,
              "velocity": 114,
              "position": 8.997916666666667,
              "duration": 0.23333333333333334
            },
            {
              "pitch": 59,
              "velocity": 82,
              "position": 8.997916666666667,
              "duration": 0.24375
            },
            {
              "pitch": 64,
              "velocity": 114,
              "position": 11.995833333333334,
              "duration": 0.21875
            },
            {
              "pitch": 67,
              "velocity": 108,
              "position": 12,
              "duration": 0.23333333333333334
            },
            {
              "pitch": 59,
              "velocity": 82,
              "position": 12,
              "duration": 0.24375
            },
            {
              "pitch": 64,
              "velocity": 111,
              "position": 12.9875,
              "duration": 0.22083333333333333
            },
            {
              "pitch": 67,
              "velocity": 114,
              "position": 12.991666666666667,
              "duration": 0.23958333333333334
            },
            {
              "pitch": 59,
              "velocity": 82,
              "position": 12.99375,
              "duration": 0.25
            }
          ]
        },
        "14": {
          "ctab": {
            "srcChannel": 14,
            "name": "Sax",
            "accType": "PHRASE1",
            "editable": false,
            "mutedNotes": [],
            "mutedChords": [],
            "autoStart": false,
            "sourceChordNote": 0,
            "sourceChordType": "Maj7",
            "ctb2Low": null,
            "ctb2Main": {
              "ntr": "ROOT_TRANSPOSITION",
              "ntt": "MELODY",
              "bassOn": false,
              "chordRootUpperLimit": 6,
              "noteLowLimit": 48,
              "noteHighLimit": 59,
              "rtr": "PITCH_SHIFT"
            },
            "ctb2High": null
          },
          "notes": []
        },
        "15": {
          "ctab": {
            "srcChannel": 15,
            "name": "Vib",
            "accType": "PHRASE2",
            "editable": false,
            "mutedNotes": [],
            "mutedChords": [],
            "autoStart": false,
            "sourceChordNote": 0,
            "sourceChordType": "Maj7",
            "ctb2Low": null,
            "ctb2Main": {
              "ntr": "ROOT_TRANSPOSITION",
              "ntt": "CHORD",
              "bassOn": false,
              "chordRootUpperLimit": 7,
              "noteLowLimit": 60,
              "noteHighLimit": 71,
              "rtr": "PITCH_SHIFT"
            },
            "ctb2High": null
          },
          "notes": []
        }
      }
    },
    "Main_C": {
      "type": "Main_C",
      "sizeInBeats": 16,
      "channels": {
        "3": {
          "ctab": {
            "srcChannel": 3,
            "name": "Organ rt",
            "accType": "CHORD2",
            "editable": true,
            "mutedNotes": [],
            "mutedChords": [
              "1+2+5",
              "sus4",
              "1+5",
              "1+8",
              "Maj7aug",
              "dim",
              "minMaj7(9)",
              "minMaj7",
              "min6",
              "min",
              "aug",
              "Maj7(9)",
              "Maj7#11",
              "Maj7",
              "Maj6",
              "Maj"
            ],
            "autoStart": false,
            "sourceChordNote": 0,
            "sourceChordType": "Maj7",
            "ctb2Low": null,
            "ctb2Main": {
              "ntr": "ROOT_TRANSPOSITION",
              "ntt": "MELODY",
              "bassOn": false,
              "chordRootUpperLimit": 10,
              "noteLowLimit": 60,
              "noteHighLimit": 74,
              "rtr": "PITCH_SHIFT"
            },
            "ctb2High": null
          },
          "notes": [
            {
              "pitch": 60,
              "velocity": 50,
              "position": 1,
              "duration": 0.9854166666666667
            },
            {
              "pitch": 60,
              "velocity": 50,
              "position": 2,
              "duration": 0.45416666666666666
            },
            {
              "pitch": 60,
              "velocity": 39,
              "position": 2.5,
              "duration": 0.10416666666666667
            },
            {
              "pitch": 60,
              "velocity": 49,
              "position": 3,
              "duration": 0.08958333333333333
            },
            {
              "pitch": 60,
              "velocity": 50,
              "position": 5,
              "duration": 0.7041666666666667
            },
            {
              "pitch": 60,
              "velocity": 15,
              "position": 5.770833333333333,
              "duration": 0.08333333333333333
            },
            {
              "pitch": 60,
              "velocity": 57,
              "position": 6,
              "duration": 0.4041666666666667
            },
            {
              "pitch": 60,
              "velocity": 40,
              "position": 6.5,
              "duration": 0.1625
            },
            {
              "pitch": 60,
              "velocity": 55,
              "position": 7,
              "duration": 0.07916666666666666
            },
            {
              "pitch": 60,
              "velocity": 50,
              "position": 9,
              "duration": 0.9854166666666667
            },
            {
              "pitch": 60,
              "velocity": 50,
              "position": 10,
              "duration": 0.45416666666666666
            },
            {
              "pitch": 60,
              "velocity": 39,
              "position": 10.5,
              "duration": 0.10416666666666667
            },
            {
              "pitch": 60,
              "velocity": 49,
              "position": 11,
              "duration": 0.08958333333333333
            },
            {
              "pitch": 60,
              "velocity": 50,
              "position": 13,
              "duration": 0.7041666666666667
            },
            {
              "pitch": 60,
              "velocity": 15,
              "position": 13.770833333333334,
              "duration": 0.08333333333333333
            },
            {
              "pitch": 60,
              "velocity": 57,
              "position": 14,
              "duration": 0.4041666666666667
            },
            {
              "pitch": 60,
              "velocity": 40,
              "position": 14.5,
              "duration": 0.1625
            },
            {
              "pitch": 60,
              "velocity": 55,
              "position": 15,
              "duration": 0.07916666666666666
            }
          ]
        },
        "4": {
          "ctab": {
            "srcChannel": 4,
            "name": "Brass rt",
            "accType": "PAD",
            "editable": false,
            "mutedNotes": [],
            "mutedChords": [
              "1+2+5",
              "sus4",
              "1+5",
              "1+8",
              "Maj7aug",
              "dim",
              "minMaj7(9)",
              "minMaj7",
              "min6",
              "min",
              "aug",
              "Maj7(9)",
              "Maj7#11",
              "Maj7",
              "Maj6",
              "Maj"
            ],
            "autoStart": false,
            "sourceChordNote": 0,
            "sourceChordType": "Maj7",
            "ctb2Low": null,
            "ctb2Main": {
              "ntr": "ROOT_TRANSPOSITION",
              "ntt": "MELODY",
              "bassOn": false,
              "chordRootUpperLimit": 10,
              "noteLowLimit": 0,
              "noteHighLimit": 74,
              "rtr": "PITCH_SHIFT"
            },
            "ctb2High": null
          },
          "notes": [
            {
              "pitch": 72,
              "velocity": 85,
              "position": 0.5,
              "duration": 0.45416666666666666
            },
            {
              "pitch": 72,
              "velocity": 85,
              "position": 1,
              "duration": 0.175
            },
            {
              "pitch": 72,
              "velocity": 85,
              "position": 4.5,
              "duration": 0.45416666666666666
            },
            {
              "pitch": 72,
              "velocity": 85,
              "position": 5,
              "duration": 0.175
            },
            {
              "pitch": 72,
              "velocity": 85,
              "position": 6,
              "duration": 0.15208333333333332
            },
            {
              "pitch": 72,
              "velocity": 84,
              "position": 6.5,
              "duration": 0.13125
            },
            {
              "pitch": 72,
              "velocity": 85,
              "position": 7,
              "duration": 0.23541666666666666
            },
            {
              "pitch": 72,
              "velocity": 85,
              "position": 8.5,
              "duration": 0.45416666666666666
            },
            {
              "pitch": 72,
              "velocity": 85,
              "position": 9,
              "duration": 0.175
            },
            {
              "pitch": 72,
              "velocity": 85,
              "position": 12.5,
              "duration": 0.45416666666666666
            },
            {
              "pitch": 72,
              "velocity": 85,
              "position": 13,
              "duration": 0.175
            },
            {
              "pitch": 72,
              "velocity": 85,
              "position": 14,
              "duration": 0.15208333333333332
            },
            {
              "pitch": 72,
              "velocity": 84,
              "position": 14.5,
              "duration": 0.13125
            },
            {
              "pitch": 72,
              "velocity": 85,
              "position": 15,
              "duration": 0.23541666666666666
            }
          ]
        },
        "7": {
          "ctab": {
            "srcChannel": 7,
            "name": "Org Glis",
            "accType": "CHORD2",
            "editable": false,
            "mutedNotes": [],
            "mutedChords": [],
            "autoStart": false,
            "sourceChordNote": 0,
            "sourceChordType": "Maj7",
            "ctb2Low": null,
            "ctb2Main": {
              "ntr": "ROOT_FIXED",
              "ntt": "BYPASS",
              "bassOn": false,
              "chordRootUpperLimit": 6,
              "noteLowLimit": 0,
              "noteHighLimit": 127,
              "rtr": "PITCH_SHIFT"
            },
            "ctb2High": null
          },
          "notes": []
        },
        "8": {
          "ctab": {
            "srcChannel": 8,
            "name": "AddDrum",
            "accType": "SUBRHYTHM",
            "editable": false,
            "mutedNotes": [],
            "mutedChords": [],
            "autoStart": true,
            "sourceChordNote": 0,
            "sourceChordType": "Maj7",
            "ctb2Low": null,
            "ctb2Main": {
              "ntr": "ROOT_FIXED",
              "ntt": "BYPASS",
              "bassOn": false,
              "chordRootUpperLimit": 6,
              "noteLowLimit": 0,
              "noteHighLimit": 127,
              "rtr": "PITCH_SHIFT"
            },
            "ctb2High": null
          },
          "notes": [
            {
              "pitch": 56,
              "velocity": 87,
              "position": 0,
              "duration": 0.00625
            },
            {
              "pitch": 56,
              "velocity": 118,
              "position": 1,
              "duration": 0.00625
            },
            {
              "pitch": 56,
              "velocity": 99,
              "position": 2,
              "duration": 0.00625
            },
            {
              "pitch": 56,
              "velocity": 63,
              "position": 2.5,
              "duration": 0.00625
            },
            {
              "pitch": 56,
              "velocity": 120,
              "position": 3,
              "duration": 0.00625
            },
            {
              "pitch": 56,
              "velocity": 86,
              "position": 4,
              "duration": 0.00625
            },
            {
              "pitch": 56,
              "velocity": 120,
              "position": 5,
              "duration": 0.00625
            },
            {
              "pitch": 56,
              "velocity": 99,
              "position": 6,
              "duration": 0.00625
            },
            {
              "pitch": 56,
              "velocity": 63,
              "position": 6.5,
              "duration": 0.00625
            },
            {
              "pitch": 56,
              "velocity": 120,
              "position": 7,
              "duration": 0.00625
            },
            {
              "pitch": 56,
              "velocity": 87,
              "position": 8,
              "duration": 0.00625
            },
            {
              "pitch": 56,
              "velocity": 118,
              "position": 9,
              "duration": 0.00625
            },
            {
              "pitch": 56,
              "velocity": 99,
              "position": 10,
              "duration": 0.00625
            },
            {
              "pitch": 56,
              "velocity": 63,
              "position": 10.5,
              "duration": 0.00625
            },
            {
              "pitch": 56,
              "velocity": 120,
              "position": 11,
              "duration": 0.00625
            },
            {
              "pitch": 56,
              "velocity": 86,
              "position": 12,
              "duration": 0.00625
            },
            {
              "pitch": 56,
              "velocity": 120,
              "position": 13,
              "duration": 0.00625
            },
            {
              "pitch": 56,
              "velocity": 99,
              "position": 14,
              "duration": 0.00625
            },
            {
              "pitch": 56,
              "velocity": 46,
              "position": 14.5,
              "duration": 0.00625
            },
            {
              "pitch": 56,
              "velocity": 120,
              "position": 15,
              "duration": 0.00625
            }
          ]
        },
        "9": {
          "ctab": {
            "srcChannel": 9,
            "name": "MainDrum",
            "accType": "RHYTHM",
            "editable": false,
            "mutedNotes": [],
            "mutedChords": [],
            "autoStart": true,
            "sourceChordNote": 0,
            "sourceChordType": "Maj7",
            "ctb2Low": null,
            "ctb2Main": {
              "ntr": "ROOT_FIXED",
              "ntt": "BYPASS",
              "bassOn": false,
              "chordRootUpperLimit": 6,
              "noteLowLimit": 0,
              "noteHighLimit": 127,
              "rtr": "PITCH_SHIFT"
            },
            "ctb2High": null
          },
          "notes": [
            {
              "pitch": 23,
              "velocity": 117,
              "position": 0,
              "duration": 0.00625
            },
            {
              "pitch": 53,
              "velocity": 67,
              "position": 0,
              "duration": 0.00625
            },
            {
              "pitch": 73,
              "velocity": 69,
              "position": 0,
              "duration": 0.00625
            },
            {
              "pitch": 22,
              "velocity": 86,
              "position": 0.5,
              "duration": 0.00625
            },
            {
              "pitch": 73,
              "velocity": 35,
              "position": 0.5,
              "duration": 0.00625
            },
            {
              "pitch": 65,
              "velocity": 50,
              "position": 0,
              "duration": 0.9958333333333333
            },
            {
              "pitch": 26,
              "velocity": 103,
              "position": 1,
              "duration": 0.00625
            },
            {
              "pitch": 64,
              "velocity": 75,
              "position": 1,
              "duration": 0.00625
            },
            {
              "pitch": 73,
              "velocity": 100,
              "position": 1,
              "duration": 0.00625
            },
            {
              "pitch": 53,
              "velocity": 61,
              "position": 1.0104166666666667,
              "duration": 0.00625
            },
            {
              "pitch": 31,
              "velocity": 76,
              "position": 1.5,
              "duration": 0.00625
            },
            {
              "pitch": 64,
              "velocity": 76,
              "position": 1.5,
              "duration": 0.00625
            },
            {
              "pitch": 73,
              "velocity": 38,
              "position": 1.5,
              "duration": 0.00625
            },
            {
              "pitch": 31,
              "velocity": 116,
              "position": 2,
              "duration": 0.00625
            },
            {
              "pitch": 53,
              "velocity": 55,
              "position": 2,
              "duration": 0.00625
            },
            {
              "pitch": 73,
              "velocity": 71,
              "position": 2,
              "duration": 0.00625
            },
            {
              "pitch": 23,
              "velocity": 103,
              "position": 2.5,
              "duration": 0.00625
            },
            {
              "pitch": 53,
              "velocity": 57,
              "position": 2.5,
              "duration": 0.00625
            },
            {
              "pitch": 73,
              "velocity": 39,
              "position": 2.5,
              "duration": 0.00625
            },
            {
              "pitch": 65,
              "velocity": 50,
              "position": 2,
              "duration": 0.9958333333333333
            },
            {
              "pitch": 24,
              "velocity": 88,
              "position": 3,
              "duration": 0.00625
            },
            {
              "pitch": 64,
              "velocity": 68,
              "position": 3,
              "duration": 0.00625
            },
            {
              "pitch": 73,
              "velocity": 100,
              "position": 3,
              "duration": 0.00625
            },
            {
              "pitch": 53,
              "velocity": 51,
              "position": 3.002083333333333,
              "duration": 0.00625
            },
            {
              "pitch": 25,
              "velocity": 127,
              "position": 3.5,
              "duration": 0.00625
            },
            {
              "pitch": 64,
              "velocity": 76,
              "position": 3.5,
              "duration": 0.00625
            },
            {
              "pitch": 73,
              "velocity": 39,
              "position": 3.5,
              "duration": 0.00625
            },
            {
              "pitch": 23,
              "velocity": 117,
              "position": 4,
              "duration": 0.00625
            },
            {
              "pitch": 53,
              "velocity": 57,
              "position": 4,
              "duration": 0.00625
            },
            {
              "pitch": 73,
              "velocity": 73,
              "position": 4,
              "duration": 0.00625
            },
            {
              "pitch": 22,
              "velocity": 86,
              "position": 4.5,
              "duration": 0.00625
            },
            {
              "pitch": 73,
              "velocity": 35,
              "position": 4.5,
              "duration": 0.00625
            },
            {
              "pitch": 65,
              "velocity": 50,
              "position": 4,
              "duration": 0.9958333333333333
            },
            {
              "pitch": 53,
              "velocity": 68,
              "position": 4.991666666666666,
              "duration": 0.00625
            },
            {
              "pitch": 26,
              "velocity": 103,
              "position": 5,
              "duration": 0.00625
            },
            {
              "pitch": 64,
              "velocity": 67,
              "position": 5,
              "duration": 0.00625
            },
            {
              "pitch": 73,
              "velocity": 100,
              "position": 5,
              "duration": 0.00625
            },
            {
              "pitch": 31,
              "velocity": 76,
              "position": 5.5,
              "duration": 0.00625
            },
            {
              "pitch": 64,
              "velocity": 76,
              "position": 5.5,
              "duration": 0.00625
            },
            {
              "pitch": 73,
              "velocity": 33,
              "position": 5.5,
              "duration": 0.00625
            },
            {
              "pitch": 53,
              "velocity": 65,
              "position": 5.991666666666666,
              "duration": 0.00625
            },
            {
              "pitch": 31,
              "velocity": 116,
              "position": 6,
              "duration": 0.00625
            },
            {
              "pitch": 73,
              "velocity": 76,
              "position": 6,
              "duration": 0.00625
            },
            {
              "pitch": 23,
              "velocity": 103,
              "position": 6.5,
              "duration": 0.00625
            },
            {
              "pitch": 53,
              "velocity": 53,
              "position": 6.5,
              "duration": 0.00625
            },
            {
              "pitch": 73,
              "velocity": 33,
              "position": 6.5,
              "duration": 0.00625
            },
            {
              "pitch": 65,
              "velocity": 50,
              "position": 6,
              "duration": 0.9958333333333333
            },
            {
              "pitch": 24,
              "velocity": 88,
              "position": 7,
              "duration": 0.00625
            },
            {
              "pitch": 64,
              "velocity": 67,
              "position": 7,
              "duration": 0.00625
            },
            {
              "pitch": 73,
              "velocity": 100,
              "position": 7,
              "duration": 0.00625
            },
            {
              "pitch": 53,
              "velocity": 57,
              "position": 7.010416666666667,
              "duration": 0.00625
            },
            {
              "pitch": 25,
              "velocity": 127,
              "position": 7.5,
              "duration": 0.00625
            },
            {
              "pitch": 64,
              "velocity": 76,
              "position": 7.5,
              "duration": 0.00625
            },
            {
              "pitch": 73,
              "velocity": 32,
              "position": 7.5,
              "duration": 0.00625
            },
            {
              "pitch": 23,
              "velocity": 117,
              "position": 8,
              "duration": 0.00625
            },
            {
              "pitch": 53,
              "velocity": 64,
              "position": 8,
              "duration": 0.00625
            },
            {
              "pitch": 73,
              "velocity": 69,
              "position": 8,
              "duration": 0.00625
            },
            {
              "pitch": 22,
              "velocity": 86,
              "position": 8.5,
              "duration": 0.00625
            },
            {
              "pitch": 73,
              "velocity": 35,
              "position": 8.5,
              "duration": 0.00625
            },
            {
              "pitch": 65,
              "velocity": 50,
              "position": 8,
              "duration": 0.9958333333333333
            },
            {
              "pitch": 26,
              "velocity": 103,
              "position": 9,
              "duration": 0.00625
            },
            {
              "pitch": 53,
              "velocity": 63,
              "position": 9,
              "duration": 0.00625
            },
            {
              "pitch": 64,
              "velocity": 66,
              "position": 9,
              "duration": 0.00625
            },
            {
              "pitch": 73,
              "velocity": 100,
              "position": 9,
              "duration": 0.00625
            },
            {
              "pitch": 31,
              "velocity": 76,
              "position": 9.5,
              "duration": 0.00625
            },
            {
              "pitch": 64,
              "velocity": 76,
              "position": 9.5,
              "duration": 0.00625
            },
            {
              "pitch": 73,
              "velocity": 38,
              "position": 9.5,
              "duration": 0.00625
            },
            {
              "pitch": 31,
              "velocity": 116,
              "position": 10,
              "duration": 0.00625
            },
            {
              "pitch": 73,
              "velocity": 71,
              "position": 10,
              "duration": 0.00625
            },
            {
              "pitch": 53,
              "velocity": 57,
              "position": 10.004166666666666,
              "duration": 0.00625
            },
            {
              "pitch": 23,
              "velocity": 103,
              "position": 10.5,
              "duration": 0.00625
            },
            {
              "pitch": 73,
              "velocity": 39,
              "position": 10.5,
              "duration": 0.00625
            },
            {
              "pitch": 53,
              "velocity": 49,
              "position": 10.502083333333333,
              "duration": 0.00625
            },
            {
              "pitch": 65,
              "velocity": 50,
              "position": 10,
              "duration": 0.9958333333333333
            },
            {
              "pitch": 24,
              "velocity": 88,
              "position": 11,
              "duration": 0.00625
            },
            {
              "pitch": 64,
              "velocity": 67,
              "position": 11,
              "duration": 0.00625
            },
            {
              "pitch": 73,
              "velocity": 100,
              "position": 11,
              "duration": 0.00625
            },
            {
              "pitch": 53,
              "velocity": 54,
              "position": 11.002083333333333,
              "duration": 0.00625
            },
            {
              "pitch": 25,
              "velocity": 127,
              "position": 11.5,
              "duration": 0.00625
            },
            {
              "pitch": 64,
              "velocity": 76,
              "position": 11.5,
              "duration": 0.00625
            },
            {
              "pitch": 73,
              "velocity": 39,
              "position": 11.5,
              "duration": 0.00625
            },
            {
              "pitch": 23,
              "velocity": 117,
              "position": 12,
              "duration": 0.00625
            },
            {
              "pitch": 73,
              "velocity": 73,
              "position": 12,
              "duration": 0.00625
            },
            {
              "pitch": 53,
              "velocity": 60,
              "position": 12.004166666666666,
              "duration": 0.00625
            },
            {
              "pitch": 22,
              "velocity": 86,
              "position": 12.5,
              "duration": 0.00625
            },
            {
              "pitch": 73,
              "velocity": 35,
              "position": 12.5,
              "duration": 0.00625
            },
            {
              "pitch": 65,
              "velocity": 50,
              "position": 12,
              "duration": 0.9958333333333333
            },
            {
              "pitch": 26,
              "velocity": 103,
              "position": 13,
              "duration": 0.00625
            },
            {
              "pitch": 64,
              "velocity": 67,
              "position": 13,
              "duration": 0.00625
            },
            {
              "pitch": 73,
              "velocity": 100,
              "position": 13,
              "duration": 0.00625
            },
            {
              "pitch": 53,
              "velocity": 57,
              "position": 13.002083333333333,
              "duration": 0.00625
            },
            {
              "pitch": 31,
              "velocity": 76,
              "position": 13.5,
              "duration": 0.00625
            },
            {
              "pitch": 64,
              "velocity": 76,
              "position": 13.5,
              "duration": 0.00625
            },
            {
              "pitch": 73,
              "velocity": 33,
              "position": 13.5,
              "duration": 0.00625
            },
            {
              "pitch": 31,
              "velocity": 116,
              "position": 14,
              "duration": 0.00625
            },
            {
              "pitch": 73,
              "velocity": 76,
              "position": 14,
              "duration": 0.00625
            },
            {
              "pitch": 53,
              "velocity": 61,
              "position": 14.002083333333333,
              "duration": 0.00625
            },
            {
              "pitch": 23,
              "velocity": 103,
              "position": 14.5,
              "duration": 0.00625
            },
            {
              "pitch": 73,
              "velocity": 33,
              "position": 14.5,
              "duration": 0.00625
            },
            {
              "pitch": 53,
              "velocity": 52,
              "position": 14.502083333333333,
              "duration": 0.00625
            },
            {
              "pitch": 65,
              "velocity": 50,
              "position": 14,
              "duration": 0.9958333333333333
            },
            {
              "pitch": 24,
              "velocity": 88,
              "position": 15,
              "duration": 0.00625
            },
            {
              "pitch": 73,
              "velocity": 100,
              "position": 15,
              "duration": 0.00625
            },
            {
              "pitch": 53,
              "velocity": 60,
              "position": 15.004166666666666,
              "duration": 0.00625
            },
            {
              "pitch": 25,
              "velocity": 127,
              "position": 15.5,
              "duration": 0.00625
            },
            {
              "pitch": 73,
              "velocity": 32,
              "position": 15.5,
              "duration": 0.00625
            }
          ]
        },
        "10": {
          "ctab": {
            "srcChannel": 10,
            "name": "Bass",
            "accType": "BASS",
            "editable": false,
            "mutedNotes": [],
            "mutedChords": [],
            "autoStart": false,
            "sourceChordNote": 0,
            "sourceChordType": "Maj7",
            "ctb2Low": null,
            "ctb2Main": {
              "ntr": "ROOT_TRANSPOSITION",
              "ntt": "MELODY",
              "bassOn": true,
              "chordRootUpperLimit": 4,
              "noteLowLimit": 28,
              "noteHighLimit": 127,
              "rtr": "PITCH_SHIFT_TO_ROOT"
            },
            "ctb2High": null
          },
          "notes": [
            {
              "pitch": 24,
              "velocity": 60,
              "position": 0,
              "duration": 0.975
            },
            {
              "pitch": 24,
              "velocity": 95,
              "position": 1,
              "duration": 0.058333333333333334
            },
            {
              "pitch": 31,
              "velocity": 50,
              "position": 1.5,
              "duration": 0.475
            },
            {
              "pitch": 31,
              "velocity": 60,
              "position": 2,
              "duration": 0.975
            },
            {
              "pitch": 31,
              "velocity": 100,
              "position": 3,
              "duration": 0.058333333333333334
            },
            {
              "pitch": 24,
              "velocity": 50,
              "position": 3.5,
              "duration": 0.475
            },
            {
              "pitch": 24,
              "velocity": 60,
              "position": 4,
              "duration": 0.975
            },
            {
              "pitch": 24,
              "velocity": 100,
              "position": 5,
              "duration": 0.058333333333333334
            },
            {
              "pitch": 24,
              "velocity": 60,
              "position": 5.5,
              "duration": 0.48541666666666666
            },
            {
              "pitch": 31,
              "velocity": 60,
              "position": 6,
              "duration": 0.9541666666666667
            },
            {
              "pitch": 31,
              "velocity": 60,
              "position": 7,
              "duration": 0.975
            },
            {
              "pitch": 24,
              "velocity": 60,
              "position": 8,
              "duration": 0.975
            },
            {
              "pitch": 24,
              "velocity": 95,
              "position": 9,
              "duration": 0.058333333333333334
            },
            {
              "pitch": 31,
              "velocity": 50,
              "position": 9.5,
              "duration": 0.475
            },
            {
              "pitch": 31,
              "velocity": 60,
              "position": 10,
              "duration": 0.975
            },
            {
              "pitch": 31,
              "velocity": 100,
              "position": 11,
              "duration": 0.058333333333333334
            },
            {
              "pitch": 24,
              "velocity": 50,
              "position": 11.5,
              "duration": 0.475
            },
            {
              "pitch": 24,
              "velocity": 60,
              "position": 12,
              "duration": 0.975
            },
            {
              "pitch": 24,
              "velocity": 100,
              "position": 13,
              "duration": 0.058333333333333334
            },
            {
              "pitch": 24,
              "velocity": 60,
              "position": 13.5,
              "duration": 0.14166666666666666
            },
            {
              "pitch": 31,
              "velocity": 60,
              "position": 14,
              "duration": 0.9541666666666667
            },
            {
              "pitch": 31,
              "velocity": 60,
              "position": 15,
              "duration": 0.975
            }
          ]
        },
        "11": {
          "ctab": {
            "srcChannel": 11,
            "name": "E.Guitar",
            "accType": "CHORD1",
            "editable": false,
            "mutedNotes": [],
            "mutedChords": [],
            "autoStart": false,
            "sourceChordNote": 0,
            "sourceChordType": "Maj7",
            "ctb2Low": null,
            "ctb2Main": {
              "ntr": "ROOT_FIXED",
              "ntt": "MELODY",
              "bassOn": false,
              "chordRootUpperLimit": 7,
              "noteLowLimit": 0,
              "noteHighLimit": 127,
              "rtr": "PITCH_SHIFT"
            },
            "ctb2High": null
          },
          "notes": [
            {
              "pitch": 59,
              "velocity": 88,
              "position": 0,
              "duration": 0.24166666666666667
            },
            {
              "pitch": 59,
              "velocity": 86,
              "position": 1,
              "duration": 0.24166666666666667
            },
            {
              "pitch": 59,
              "velocity": 88,
              "position": 2,
              "duration": 0.4125
            },
            {
              "pitch": 59,
              "velocity": 71,
              "position": 2.5,
              "duration": 0.49166666666666664
            },
            {
              "pitch": 59,
              "velocity": 90,
              "position": 3,
              "duration": 0.08125
            },
            {
              "pitch": 59,
              "velocity": 88,
              "position": 4,
              "duration": 0.24166666666666667
            },
            {
              "pitch": 59,
              "velocity": 86,
              "position": 5,
              "duration": 0.24166666666666667
            },
            {
              "pitch": 59,
              "velocity": 70,
              "position": 5.75,
              "duration": 0.24166666666666667
            },
            {
              "pitch": 59,
              "velocity": 90,
              "position": 6,
              "duration": 0.4125
            },
            {
              "pitch": 59,
              "velocity": 71,
              "position": 6.5,
              "duration": 0.49166666666666664
            },
            {
              "pitch": 59,
              "velocity": 90,
              "position": 7,
              "duration": 0.08125
            },
            {
              "pitch": 59,
              "velocity": 88,
              "position": 8,
              "duration": 0.24166666666666667
            },
            {
              "pitch": 59,
              "velocity": 86,
              "position": 9,
              "duration": 0.24166666666666667
            },
            {
              "pitch": 59,
              "velocity": 88,
              "position": 10,
              "duration": 0.4125
            },
            {
              "pitch": 59,
              "velocity": 71,
              "position": 10.5,
              "duration": 0.49166666666666664
            },
            {
              "pitch": 59,
              "velocity": 90,
              "position": 11,
              "duration": 0.08125
            },
            {
              "pitch": 59,
              "velocity": 88,
              "position": 12,
              "duration": 0.24166666666666667
            },
            {
              "pitch": 59,
              "velocity": 86,
              "position": 13,
              "duration": 0.24166666666666667
            },
            {
              "pitch": 59,
              "velocity": 70,
              "position": 13.75,
              "duration": 0.24166666666666667
            },
            {
              "pitch": 59,
              "velocity": 90,
              "position": 14,
              "duration": 0.4125
            },
            {
              "pitch": 59,
              "velocity": 71,
              "position": 14.5,
              "duration": 0.49166666666666664
            },
            {
              "pitch": 59,
              "velocity": 90,
              "position": 15,
              "duration": 0.08125
            }
          ]
        },
        "12": {
          "ctab": {
            "srcChannel": 12,
            "name": "Organ",
            "accType": "CHORD2",
            "editable": false,
            "mutedNotes": [],
            "mutedChords": [],
            "autoStart": false,
            "sourceChordNote": 0,
            "sourceChordType": "Maj7",
            "ctb2Low": null,
            "ctb2Main": {
              "ntr": "ROOT_FIXED",
              "ntt": "CHORD",
              "bassOn": false,
              "chordRootUpperLimit": 6,
              "noteLowLimit": 60,
              "noteHighLimit": 127,
              "rtr": "PITCH_SHIFT"
            },
            "ctb2High": null
          },
          "notes": [
            {
              "pitch": 64,
              "velocity": 85,
              "position": 1,
              "duration": 0.9645833333333333
            },
            {
              "pitch": 67,
              "velocity": 85,
              "position": 1,
              "duration": 0.975
            },
            {
              "pitch": 59,
              "velocity": 85,
              "position": 1,
              "duration": 0.9854166666666667
            },
            {
              "pitch": 64,
              "velocity": 85,
              "position": 2,
              "duration": 0.43333333333333335
            },
            {
              "pitch": 67,
              "velocity": 85,
              "position": 2,
              "duration": 0.44375
            },
            {
              "pitch": 59,
              "velocity": 85,
              "position": 2,
              "duration": 0.45416666666666666
            },
            {
              "pitch": 59,
              "velocity": 74,
              "position": 2.5,
              "duration": 0.10416666666666667
            },
            {
              "pitch": 67,
              "velocity": 74,
              "position": 2.5,
              "duration": 0.11041666666666666
            },
            {
              "pitch": 64,
              "velocity": 74,
              "position": 2.5,
              "duration": 0.13333333333333333
            },
            {
              "pitch": 67,
              "velocity": 91,
              "position": 3,
              "duration": 0.08333333333333333
            },
            {
              "pitch": 59,
              "velocity": 84,
              "position": 3,
              "duration": 0.08958333333333333
            },
            {
              "pitch": 64,
              "velocity": 94,
              "position": 3,
              "duration": 0.09166666666666666
            },
            {
              "pitch": 64,
              "velocity": 85,
              "position": 5,
              "duration": 0.6854166666666667
            },
            {
              "pitch": 67,
              "velocity": 85,
              "position": 5,
              "duration": 0.69375
            },
            {
              "pitch": 59,
              "velocity": 85,
              "position": 5,
              "duration": 0.7041666666666667
            },
            {
              "pitch": 64,
              "velocity": 50,
              "position": 5.770833333333333,
              "duration": 0.07916666666666666
            },
            {
              "pitch": 59,
              "velocity": 50,
              "position": 5.770833333333333,
              "duration": 0.08333333333333333
            },
            {
              "pitch": 67,
              "velocity": 62,
              "position": 5.770833333333333,
              "duration": 0.09375
            },
            {
              "pitch": 59,
              "velocity": 92,
              "position": 6,
              "duration": 0.4041666666666667
            },
            {
              "pitch": 64,
              "velocity": 92,
              "position": 6,
              "duration": 0.4125
            },
            {
              "pitch": 67,
              "velocity": 92,
              "position": 6,
              "duration": 0.4375
            },
            {
              "pitch": 64,
              "velocity": 75,
              "position": 6.5,
              "duration": 0.15625
            },
            {
              "pitch": 59,
              "velocity": 75,
              "position": 6.5,
              "duration": 0.1625
            },
            {
              "pitch": 67,
              "velocity": 75,
              "position": 6.5,
              "duration": 0.16458333333333333
            },
            {
              "pitch": 59,
              "velocity": 90,
              "position": 7,
              "duration": 0.07916666666666666
            },
            {
              "pitch": 67,
              "velocity": 90,
              "position": 7,
              "duration": 0.08958333333333333
            },
            {
              "pitch": 64,
              "velocity": 90,
              "position": 7,
              "duration": 0.10416666666666667
            },
            {
              "pitch": 64,
              "velocity": 85,
              "position": 9,
              "duration": 0.9645833333333333
            },
            {
              "pitch": 67,
              "velocity": 85,
              "position": 9,
              "duration": 0.975
            },
            {
              "pitch": 59,
              "velocity": 85,
              "position": 9,
              "duration": 0.9854166666666667
            },
            {
              "pitch": 64,
              "velocity": 85,
              "position": 10,
              "duration": 0.43333333333333335
            },
            {
              "pitch": 67,
              "velocity": 85,
              "position": 10,
              "duration": 0.44375
            },
            {
              "pitch": 59,
              "velocity": 85,
              "position": 10,
              "duration": 0.45416666666666666
            },
            {
              "pitch": 59,
              "velocity": 74,
              "position": 10.5,
              "duration": 0.10416666666666667
            },
            {
              "pitch": 67,
              "velocity": 74,
              "position": 10.5,
              "duration": 0.11041666666666666
            },
            {
              "pitch": 64,
              "velocity": 74,
              "position": 10.5,
              "duration": 0.13333333333333333
            },
            {
              "pitch": 67,
              "velocity": 91,
              "position": 11,
              "duration": 0.08333333333333333
            },
            {
              "pitch": 59,
              "velocity": 84,
              "position": 11,
              "duration": 0.08958333333333333
            },
            {
              "pitch": 64,
              "velocity": 94,
              "position": 11,
              "duration": 0.09166666666666666
            },
            {
              "pitch": 64,
              "velocity": 85,
              "position": 13,
              "duration": 0.6854166666666667
            },
            {
              "pitch": 67,
              "velocity": 85,
              "position": 13,
              "duration": 0.69375
            },
            {
              "pitch": 59,
              "velocity": 85,
              "position": 13,
              "duration": 0.7041666666666667
            },
            {
              "pitch": 64,
              "velocity": 50,
              "position": 13.770833333333334,
              "duration": 0.07916666666666666
            },
            {
              "pitch": 59,
              "velocity": 50,
              "position": 13.770833333333334,
              "duration": 0.08333333333333333
            },
            {
              "pitch": 67,
              "velocity": 62,
              "position": 13.770833333333334,
              "duration": 0.09375
            },
            {
              "pitch": 59,
              "velocity": 92,
              "position": 14,
              "duration": 0.4041666666666667
            },
            {
              "pitch": 64,
              "velocity": 92,
              "position": 14,
              "duration": 0.4125
            },
            {
              "pitch": 67,
              "velocity": 92,
              "position": 14,
              "duration": 0.4375
            },
            {
              "pitch": 64,
              "velocity": 75,
              "position": 14.5,
              "duration": 0.15625
            },
            {
              "pitch": 59,
              "velocity": 75,
              "position": 14.5,
              "duration": 0.1625
            },
            {
              "pitch": 67,
              "velocity": 75,
              "position": 14.5,
              "duration": 0.16458333333333333
            },
            {
              "pitch": 59,
              "velocity": 90,
              "position": 15,
              "duration": 0.07916666666666666
            },
            {
              "pitch": 67,
              "velocity": 90,
              "position": 15,
              "duration": 0.08958333333333333
            },
            {
              "pitch": 64,
              "velocity": 90,
              "position": 15,
              "duration": 0.10416666666666667
            }
          ]
        },
        "13": {
          "ctab": {
            "srcChannel": 13,
            "name": "Brass",
            "accType": "PAD",
            "editable": false,
            "mutedNotes": [],
            "mutedChords": [],
            "autoStart": false,
            "sourceChordNote": 0,
            "sourceChordType": "Maj7",
            "ctb2Low": null,
            "ctb2Main": {
              "ntr": "ROOT_FIXED",
              "ntt": "CHORD",
              "bassOn": false,
              "chordRootUpperLimit": 7,
              "noteLowLimit": 0,
              "noteHighLimit": 127,
              "rtr": "PITCH_SHIFT"
            },
            "ctb2High": null
          },
          "notes": [
            {
              "pitch": 71,
              "velocity": 79,
              "position": 0.4979166666666667,
              "duration": 0.45416666666666666
            },
            {
              "pitch": 67,
              "velocity": 49,
              "position": 0.5,
              "duration": 0.4625
            },
            {
              "pitch": 64,
              "velocity": 51,
              "position": 0.5,
              "duration": 0.4708333333333333
            },
            {
              "pitch": 71,
              "velocity": 82,
              "position": 0.9979166666666667,
              "duration": 0.16875
            },
            {
              "pitch": 67,
              "velocity": 111,
              "position": 1.0041666666666667,
              "duration": 0.18541666666666667
            },
            {
              "pitch": 64,
              "velocity": 112,
              "position": 1.0020833333333334,
              "duration": 0.19583333333333333
            },
            {
              "pitch": 71,
              "velocity": 81,
              "position": 4.497916666666667,
              "duration": 0.45416666666666666
            },
            {
              "pitch": 64,
              "velocity": 49,
              "position": 4.5,
              "duration": 0.4625
            },
            {
              "pitch": 67,
              "velocity": 51,
              "position": 4.5,
              "duration": 0.4666666666666667
            },
            {
              "pitch": 71,
              "velocity": 84,
              "position": 4.997916666666667,
              "duration": 0.175
            },
            {
              "pitch": 67,
              "velocity": 112,
              "position": 4.997916666666667,
              "duration": 0.18333333333333332
            },
            {
              "pitch": 64,
              "velocity": 114,
              "position": 5,
              "duration": 0.19583333333333333
            },
            {
              "pitch": 71,
              "velocity": 79,
              "position": 6,
              "duration": 0.15
            },
            {
              "pitch": 67,
              "velocity": 55,
              "position": 6,
              "duration": 0.15208333333333332
            },
            {
              "pitch": 64,
              "velocity": 48,
              "position": 6.002083333333333,
              "duration": 0.16666666666666666
            },
            {
              "pitch": 64,
              "velocity": 55,
              "position": 6.497916666666667,
              "duration": 0.1
            },
            {
              "pitch": 67,
              "velocity": 55,
              "position": 6.497916666666667,
              "duration": 0.11666666666666667
            },
            {
              "pitch": 71,
              "velocity": 81,
              "position": 6.5,
              "duration": 0.12916666666666668
            },
            {
              "pitch": 67,
              "velocity": 111,
              "position": 7,
              "duration": 0.23333333333333334
            },
            {
              "pitch": 64,
              "velocity": 112,
              "position": 7,
              "duration": 0.23958333333333334
            },
            {
              "pitch": 71,
              "velocity": 81,
              "position": 7.002083333333333,
              "duration": 0.23958333333333334
            },
            {
              "pitch": 71,
              "velocity": 79,
              "position": 8.504166666666666,
              "duration": 0.45416666666666666
            },
            {
              "pitch": 64,
              "velocity": 49,
              "position": 8.502083333333333,
              "duration": 0.4625
            },
            {
              "pitch": 67,
              "velocity": 49,
              "position": 8.502083333333333,
              "duration": 0.4625
            },
            {
              "pitch": 71,
              "velocity": 84,
              "position": 9.002083333333333,
              "duration": 0.175
            },
            {
              "pitch": 67,
              "velocity": 114,
              "position": 8.995833333333334,
              "duration": 0.18958333333333333
            },
            {
              "pitch": 64,
              "velocity": 114,
              "position": 8.997916666666667,
              "duration": 0.19583333333333333
            },
            {
              "pitch": 71,
              "velocity": 78,
              "position": 12.504166666666666,
              "duration": 0.4583333333333333
            },
            {
              "pitch": 64,
              "velocity": 49,
              "position": 12.5,
              "duration": 0.46458333333333335
            },
            {
              "pitch": 67,
              "velocity": 49,
              "position": 12.502083333333333,
              "duration": 0.4666666666666667
            },
            {
              "pitch": 71,
              "velocity": 82,
              "position": 12.997916666666667,
              "duration": 0.17083333333333334
            },
            {
              "pitch": 67,
              "velocity": 112,
              "position": 13,
              "duration": 0.18541666666666667
            },
            {
              "pitch": 64,
              "velocity": 112,
              "position": 12.995833333333334,
              "duration": 0.19166666666666668
            },
            {
              "pitch": 71,
              "velocity": 84,
              "position": 14,
              "duration": 0.15
            },
            {
              "pitch": 67,
              "velocity": 54,
              "position": 13.995833333333334,
              "duration": 0.15625
            },
            {
              "pitch": 64,
              "velocity": 49,
              "position": 14,
              "duration": 0.16666666666666666
            },
            {
              "pitch": 64,
              "velocity": 57,
              "position": 14.504166666666666,
              "duration": 0.1
            },
            {
              "pitch": 71,
              "velocity": 79,
              "position": 14.5,
              "duration": 0.125
            },
            {
              "pitch": 67,
              "velocity": 57,
              "position": 14.504166666666666,
              "duration": 0.12291666666666666
            },
            {
              "pitch": 71,
              "velocity": 81,
              "position": 14.995833333333334,
              "duration": 0.2375
            },
            {
              "pitch": 67,
              "velocity": 112,
              "position": 15,
              "duration": 0.23541666666666666
            },
            {
              "pitch": 64,
              "velocity": 114,
              "position": 15.004166666666666,
              "duration": 0.23541666666666666
            }
          ]
        },
        "14": {
          "ctab": {
            "srcChannel": 14,
            "name": "Sax",
            "accType": "PHRASE1",
            "editable": false,
            "mutedNotes": [],
            "mutedChords": [],
            "autoStart": false,
            "sourceChordNote": 0,
            "sourceChordType": "Maj7",
            "ctb2Low": null,
            "ctb2Main": {
              "ntr": "ROOT_TRANSPOSITION",
              "ntt": "MELODY",
              "bassOn": false,
              "chordRootUpperLimit": 6,
              "noteLowLimit": 48,
              "noteHighLimit": 59,
              "rtr": "PITCH_SHIFT"
            },
            "ctb2High": null
          },
          "notes": []
        },
        "15": {
          "ctab": {
            "srcChannel": 15,
            "name": "Vib",
            "accType": "PHRASE2",
            "editable": false,
            "mutedNotes": [],
            "mutedChords": [],
            "autoStart": false,
            "sourceChordNote": 0,
            "sourceChordType": "Maj7",
            "ctb2Low": null,
            "ctb2Main": {
              "ntr": "ROOT_TRANSPOSITION",
              "ntt": "CHORD",
              "bassOn": false,
              "chordRootUpperLimit": 7,
              "noteLowLimit": 60,
              "noteHighLimit": 71,
              "rtr": "PITCH_SHIFT"
            },
            "ctb2High": null
          },
          "notes": [
            {
              "pitch": 67,
              "velocity": 62,
              "position": 0.00625,
              "duration": 3.8958333333333335
            },
            {
              "pitch": 71,
              "velocity": 62,
              "position": 0.00625,
              "duration": 3.933333333333333
            },
            {
              "pitch": 64,
              "velocity": 62,
              "position": 0.00625,
              "duration": 3.94375
            },
            {
              "pitch": 64,
              "velocity": 62,
              "position": 4.5,
              "duration": 3.3958333333333335
            },
            {
              "pitch": 67,
              "velocity": 62,
              "position": 4.5,
              "duration": 3.3958333333333335
            },
            {
              "pitch": 71,
              "velocity": 62,
              "position": 4.5,
              "duration": 3.4125
            },
            {
              "pitch": 64,
              "velocity": 62,
              "position": 8,
              "duration": 3.872916666666667
            },
            {
              "pitch": 67,
              "velocity": 62,
              "position": 8,
              "duration": 3.8958333333333335
            },
            {
              "pitch": 71,
              "velocity": 62,
              "position": 8,
              "duration": 3.94375
            },
            {
              "pitch": 67,
              "velocity": 62,
              "position": 12.5,
              "duration": 3.3625
            },
            {
              "pitch": 71,
              "velocity": 62,
              "position": 12.5,
              "duration": 3.3625
            },
            {
              "pitch": 64,
              "velocity": 62,
              "position": 12.5,
              "duration": 3.372916666666667
            }
          ]
        }
      }
    },
    "Main_D": {
      "type": "Main_D",
      "sizeInBeats": 16,
      "channels": {
        "3": {
          "ctab": {
            "srcChannel": 3,
            "name": "Organ rt",
            "accType": "CHORD2",
            "editable": true,
            "mutedNotes": [],
            "mutedChords": [
              "1+2+5",
              "sus4",
              "1+5",
              "1+8",
              "Maj7aug",
              "dim",
              "minMaj7(9)",
              "minMaj7",
              "min6",
              "min",
              "aug",
              "Maj7(9)",
              "Maj7#11",
              "Maj7",
              "Maj6",
              "Maj"
            ],
            "autoStart": false,
            "sourceChordNote": 0,
            "sourceChordType": "Maj7",
            "ctb2Low": null,
            "ctb2Main": {
              "ntr": "ROOT_TRANSPOSITION",
              "ntt": "MELODY",
              "bassOn": false,
              "chordRootUpperLimit": 10,
              "noteLowLimit": 60,
              "noteHighLimit": 74,
              "rtr": "PITCH_SHIFT"
            },
            "ctb2High": null
          },
          "notes": [
            {
              "pitch": 60,
              "velocity": 51,
              "position": 1,
              "duration": 0.475
            },
            {
              "pitch": 60,
              "velocity": 32,
              "position": 1.5,
              "duration": 0.11041666666666666
            },
            {
              "pitch": 60,
              "velocity": 31,
              "position": 2.5,
              "duration": 0.13125
            },
            {
              "pitch": 60,
              "velocity": 52,
              "position": 3,
              "duration": 0.475
            },
            {
              "pitch": 60,
              "velocity": 33,
              "position": 3.5,
              "duration": 0.11041666666666666
            },
            {
              "pitch": 60,
              "velocity": 52,
              "position": 5,
              "duration": 0.475
            },
            {
              "pitch": 60,
              "velocity": 21,
              "position": 5.5,
              "duration": 0.11041666666666666
            },
            {
              "pitch": 60,
              "velocity": 39,
              "position": 6,
              "duration": 0.44375
            },
            {
              "pitch": 60,
              "velocity": 39,
              "position": 6.5,
              "duration": 0.11041666666666666
            },
            {
              "pitch": 60,
              "velocity": 40,
              "position": 7,
              "duration": 0.11041666666666666
            },
            {
              "pitch": 60,
              "velocity": 51,
              "position": 9,
              "duration": 0.475
            },
            {
              "pitch": 60,
              "velocity": 32,
              "position": 9.5,
              "duration": 0.11041666666666666
            },
            {
              "pitch": 60,
              "velocity": 31,
              "position": 10.5,
              "duration": 0.13125
            },
            {
              "pitch": 60,
              "velocity": 52,
              "position": 11,
              "duration": 0.475
            },
            {
              "pitch": 60,
              "velocity": 33,
              "position": 11.5,
              "duration": 0.11041666666666666
            },
            {
              "pitch": 60,
              "velocity": 52,
              "position": 13,
              "duration": 0.7145833333333333
            },
            {
              "pitch": 60,
              "velocity": 21,
              "position": 13.75,
              "duration": 0.11041666666666666
            },
            {
              "pitch": 60,
              "velocity": 52,
              "position": 14,
              "duration": 0.44375
            },
            {
              "pitch": 60,
              "velocity": 37,
              "position": 14.5,
              "duration": 0.11041666666666666
            },
            {
              "pitch": 60,
              "velocity": 42,
              "position": 15,
              "duration": 0.11041666666666666
            }
          ]
        },
        "4": {
          "ctab": {
            "srcChannel": 4,
            "name": "Brass rt",
            "accType": "PAD",
            "editable": false,
            "mutedNotes": [],
            "mutedChords": [
              "1+2+5",
              "sus4",
              "1+5",
              "1+8",
              "Maj7aug",
              "dim",
              "minMaj7(9)",
              "minMaj7",
              "min6",
              "min",
              "aug",
              "Maj7(9)",
              "Maj7#11",
              "Maj7",
              "Maj6",
              "Maj"
            ],
            "autoStart": false,
            "sourceChordNote": 0,
            "sourceChordType": "Maj7",
            "ctb2Low": null,
            "ctb2Main": {
              "ntr": "ROOT_TRANSPOSITION",
              "ntt": "MELODY",
              "bassOn": false,
              "chordRootUpperLimit": 10,
              "noteLowLimit": 0,
              "noteHighLimit": 74,
              "rtr": "PITCH_SHIFT"
            },
            "ctb2High": null
          },
          "notes": [
            {
              "pitch": 72,
              "velocity": 108,
              "position": 0.5,
              "duration": 0.45416666666666666
            },
            {
              "pitch": 72,
              "velocity": 84,
              "position": 1,
              "duration": 0.175
            },
            {
              "pitch": 72,
              "velocity": 108,
              "position": 2.5,
              "duration": 0.45416666666666666
            },
            {
              "pitch": 72,
              "velocity": 84,
              "position": 3,
              "duration": 0.19375
            },
            {
              "pitch": 72,
              "velocity": 99,
              "position": 4.5,
              "duration": 0.45416666666666666
            },
            {
              "pitch": 72,
              "velocity": 84,
              "position": 5,
              "duration": 0.19375
            },
            {
              "pitch": 72,
              "velocity": 108,
              "position": 8.5,
              "duration": 0.45416666666666666
            },
            {
              "pitch": 72,
              "velocity": 84,
              "position": 9,
              "duration": 0.175
            },
            {
              "pitch": 72,
              "velocity": 108,
              "position": 10.5,
              "duration": 0.45416666666666666
            },
            {
              "pitch": 72,
              "velocity": 84,
              "position": 11,
              "duration": 0.19375
            },
            {
              "pitch": 72,
              "velocity": 99,
              "position": 12.5,
              "duration": 0.45416666666666666
            },
            {
              "pitch": 72,
              "velocity": 84,
              "position": 13,
              "duration": 0.19375
            }
          ]
        },
        "7": {
          "ctab": {
            "srcChannel": 7,
            "name": "Org Glis",
            "accType": "CHORD2",
            "editable": false,
            "mutedNotes": [],
            "mutedChords": [],
            "autoStart": false,
            "sourceChordNote": 0,
            "sourceChordType": "Maj7",
            "ctb2Low": null,
            "ctb2Main": {
              "ntr": "ROOT_FIXED",
              "ntt": "BYPASS",
              "bassOn": false,
              "chordRootUpperLimit": 6,
              "noteLowLimit": 0,
              "noteHighLimit": 127,
              "rtr": "PITCH_SHIFT"
            },
            "ctb2High": null
          },
          "notes": []
        },
        "8": {
          "ctab": {
            "srcChannel": 8,
            "name": "AddDrum",
            "accType": "SUBRHYTHM",
            "editable": false,
            "mutedNotes": [],
            "mutedChords": [],
            "autoStart": true,
            "sourceChordNote": 0,
            "sourceChordType": "Maj7",
            "ctb2Low": null,
            "ctb2Main": {
              "ntr": "ROOT_FIXED",
              "ntt": "BYPASS",
              "bassOn": false,
              "chordRootUpperLimit": 6,
              "noteLowLimit": 0,
              "noteHighLimit": 127,
              "rtr": "PITCH_SHIFT"
            },
            "ctb2High": null
          },
          "notes": [
            {
              "pitch": 76,
              "velocity": 63,
              "position": 0,
              "duration": 0.00625
            },
            {
              "pitch": 56,
              "velocity": 87,
              "position": 0.00625,
              "duration": 0.004166666666666667
            },
            {
              "pitch": 56,
              "velocity": 118,
              "position": 1,
              "duration": 0.00625
            },
            {
              "pitch": 76,
              "velocity": 84,
              "position": 1,
              "duration": 0.00625
            },
            {
              "pitch": 56,
              "velocity": 86,
              "position": 2,
              "duration": 0.00625
            },
            {
              "pitch": 76,
              "velocity": 83,
              "position": 2,
              "duration": 0.00625
            },
            {
              "pitch": 56,
              "velocity": 63,
              "position": 2.5,
              "duration": 0.00625
            },
            {
              "pitch": 76,
              "velocity": 53,
              "position": 2.5,
              "duration": 0.00625
            },
            {
              "pitch": 56,
              "velocity": 120,
              "position": 3,
              "duration": 0.00625
            },
            {
              "pitch": 76,
              "velocity": 82,
              "position": 3,
              "duration": 0.00625
            },
            {
              "pitch": 56,
              "velocity": 86,
              "position": 4,
              "duration": 0.00625
            },
            {
              "pitch": 76,
              "velocity": 60,
              "position": 4,
              "duration": 0.00625
            },
            {
              "pitch": 56,
              "velocity": 120,
              "position": 5,
              "duration": 0.00625
            },
            {
              "pitch": 76,
              "velocity": 83,
              "position": 5,
              "duration": 0.00625
            },
            {
              "pitch": 56,
              "velocity": 44,
              "position": 5.75,
              "duration": 0.00625
            },
            {
              "pitch": 77,
              "velocity": 42,
              "position": 5.75,
              "duration": 0.00625
            },
            {
              "pitch": 56,
              "velocity": 99,
              "position": 6,
              "duration": 0.00625
            },
            {
              "pitch": 76,
              "velocity": 84,
              "position": 6,
              "duration": 0.00625
            },
            {
              "pitch": 56,
              "velocity": 70,
              "position": 6.5,
              "duration": 0.00625
            },
            {
              "pitch": 76,
              "velocity": 47,
              "position": 6.5,
              "duration": 0.00625
            },
            {
              "pitch": 56,
              "velocity": 120,
              "position": 7,
              "duration": 0.00625
            },
            {
              "pitch": 76,
              "velocity": 83,
              "position": 7,
              "duration": 0.00625
            },
            {
              "pitch": 56,
              "velocity": 87,
              "position": 8,
              "duration": 0.00625
            },
            {
              "pitch": 76,
              "velocity": 60,
              "position": 8,
              "duration": 0.00625
            },
            {
              "pitch": 56,
              "velocity": 118,
              "position": 9,
              "duration": 0.00625
            },
            {
              "pitch": 76,
              "velocity": 84,
              "position": 9,
              "duration": 0.00625
            },
            {
              "pitch": 56,
              "velocity": 86,
              "position": 10,
              "duration": 0.00625
            },
            {
              "pitch": 76,
              "velocity": 84,
              "position": 10,
              "duration": 0.00625
            },
            {
              "pitch": 56,
              "velocity": 68,
              "position": 10.5,
              "duration": 0.00625
            },
            {
              "pitch": 76,
              "velocity": 44,
              "position": 10.5,
              "duration": 0.00625
            },
            {
              "pitch": 56,
              "velocity": 120,
              "position": 11,
              "duration": 0.00625
            },
            {
              "pitch": 76,
              "velocity": 85,
              "position": 11,
              "duration": 0.00625
            },
            {
              "pitch": 56,
              "velocity": 86,
              "position": 12,
              "duration": 0.00625
            },
            {
              "pitch": 76,
              "velocity": 63,
              "position": 12,
              "duration": 0.00625
            },
            {
              "pitch": 56,
              "velocity": 120,
              "position": 13,
              "duration": 0.00625
            },
            {
              "pitch": 76,
              "velocity": 85,
              "position": 13,
              "duration": 0.00625
            },
            {
              "pitch": 56,
              "velocity": 44,
              "position": 13.75,
              "duration": 0.00625
            },
            {
              "pitch": 77,
              "velocity": 43,
              "position": 13.75,
              "duration": 0.00625
            },
            {
              "pitch": 56,
              "velocity": 99,
              "position": 14,
              "duration": 0.00625
            },
            {
              "pitch": 76,
              "velocity": 85,
              "position": 14,
              "duration": 0.00625
            },
            {
              "pitch": 56,
              "velocity": 70,
              "position": 14.5,
              "duration": 0.00625
            },
            {
              "pitch": 76,
              "velocity": 54,
              "position": 14.5,
              "duration": 0.00625
            },
            {
              "pitch": 56,
              "velocity": 120,
              "position": 15,
              "duration": 0.00625
            },
            {
              "pitch": 76,
              "velocity": 85,
              "position": 15,
              "duration": 0.00625
            }
          ]
        },
        "9": {
          "ctab": {
            "srcChannel": 9,
            "name": "MainDrum",
            "accType": "RHYTHM",
            "editable": false,
            "mutedNotes": [],
            "mutedChords": [],
            "autoStart": true,
            "sourceChordNote": 0,
            "sourceChordType": "Maj7",
            "ctb2Low": null,
            "ctb2Main": {
              "ntr": "ROOT_FIXED",
              "ntt": "BYPASS",
              "bassOn": false,
              "chordRootUpperLimit": 6,
              "noteLowLimit": 0,
              "noteHighLimit": 127,
              "rtr": "PITCH_SHIFT"
            },
            "ctb2High": null
          },
          "notes": [
            {
              "pitch": 24,
              "velocity": 105,
              "position": 0,
              "duration": 0.00625
            },
            {
              "pitch": 73,
              "velocity": 69,
              "position": 0,
              "duration": 0.00625
            },
            {
              "pitch": 26,
              "velocity": 40,
              "position": 0.5,
              "duration": 0.00625
            },
            {
              "pitch": 73,
              "velocity": 35,
              "position": 0.5,
              "duration": 0.00625
            },
            {
              "pitch": 27,
              "velocity": 98,
              "position": 1,
              "duration": 0.00625
            },
            {
              "pitch": 64,
              "velocity": 75,
              "position": 1,
              "duration": 0.00625
            },
            {
              "pitch": 65,
              "velocity": 66,
              "position": 0,
              "duration": 1.00625
            },
            {
              "pitch": 73,
              "velocity": 100,
              "position": 1,
              "duration": 0.00625
            },
            {
              "pitch": 53,
              "velocity": 76,
              "position": 1.0104166666666667,
              "duration": 0.00625
            },
            {
              "pitch": 24,
              "velocity": 50,
              "position": 1.5,
              "duration": 0.00625
            },
            {
              "pitch": 64,
              "velocity": 76,
              "position": 1.5,
              "duration": 0.00625
            },
            {
              "pitch": 73,
              "velocity": 38,
              "position": 1.5,
              "duration": 0.00625
            },
            {
              "pitch": 24,
              "velocity": 102,
              "position": 2,
              "duration": 0.00625
            },
            {
              "pitch": 53,
              "velocity": 75,
              "position": 2,
              "duration": 0.00625
            },
            {
              "pitch": 73,
              "velocity": 71,
              "position": 2,
              "duration": 0.00625
            },
            {
              "pitch": 53,
              "velocity": 59,
              "position": 2.4916666666666667,
              "duration": 0.00625
            },
            {
              "pitch": 22,
              "velocity": 48,
              "position": 2.5,
              "duration": 0.00625
            },
            {
              "pitch": 73,
              "velocity": 39,
              "position": 2.5,
              "duration": 0.00625
            },
            {
              "pitch": 65,
              "velocity": 66,
              "position": 2,
              "duration": 0.9854166666666667
            },
            {
              "pitch": 53,
              "velocity": 70,
              "position": 2.9895833333333335,
              "duration": 0.00625
            },
            {
              "pitch": 31,
              "velocity": 79,
              "position": 3,
              "duration": 0.00625
            },
            {
              "pitch": 64,
              "velocity": 68,
              "position": 3,
              "duration": 0.00625
            },
            {
              "pitch": 73,
              "velocity": 100,
              "position": 3,
              "duration": 0.00625
            },
            {
              "pitch": 31,
              "velocity": 114,
              "position": 3.5,
              "duration": 0.00625
            },
            {
              "pitch": 64,
              "velocity": 76,
              "position": 3.5,
              "duration": 0.00625
            },
            {
              "pitch": 73,
              "velocity": 39,
              "position": 3.5,
              "duration": 0.00625
            },
            {
              "pitch": 53,
              "velocity": 61,
              "position": 3.9916666666666667,
              "duration": 0.00625
            },
            {
              "pitch": 23,
              "velocity": 58,
              "position": 4,
              "duration": 0.00625
            },
            {
              "pitch": 73,
              "velocity": 73,
              "position": 4,
              "duration": 0.00625
            },
            {
              "pitch": 26,
              "velocity": 39,
              "position": 4.5,
              "duration": 0.00625
            },
            {
              "pitch": 73,
              "velocity": 35,
              "position": 4.5,
              "duration": 0.00625
            },
            {
              "pitch": 65,
              "velocity": 66,
              "position": 4,
              "duration": 0.9958333333333333
            },
            {
              "pitch": 53,
              "velocity": 66,
              "position": 4.99375,
              "duration": 0.00625
            },
            {
              "pitch": 27,
              "velocity": 101,
              "position": 5,
              "duration": 0.00625
            },
            {
              "pitch": 64,
              "velocity": 67,
              "position": 5,
              "duration": 0.00625
            },
            {
              "pitch": 73,
              "velocity": 100,
              "position": 5,
              "duration": 0.00625
            },
            {
              "pitch": 24,
              "velocity": 77,
              "position": 5.5,
              "duration": 0.00625
            },
            {
              "pitch": 64,
              "velocity": 76,
              "position": 5.5,
              "duration": 0.00625
            },
            {
              "pitch": 73,
              "velocity": 33,
              "position": 5.5,
              "duration": 0.00625
            },
            {
              "pitch": 53,
              "velocity": 71,
              "position": 5.99375,
              "duration": 0.00625
            },
            {
              "pitch": 24,
              "velocity": 105,
              "position": 6,
              "duration": 0.00625
            },
            {
              "pitch": 73,
              "velocity": 76,
              "position": 6,
              "duration": 0.00625
            },
            {
              "pitch": 53,
              "velocity": 65,
              "position": 6.489583333333333,
              "duration": 0.00625
            },
            {
              "pitch": 22,
              "velocity": 74,
              "position": 6.5,
              "duration": 0.00625
            },
            {
              "pitch": 73,
              "velocity": 33,
              "position": 6.5,
              "duration": 0.00625
            },
            {
              "pitch": 65,
              "velocity": 66,
              "position": 6,
              "duration": 0.9875
            },
            {
              "pitch": 31,
              "velocity": 52,
              "position": 7,
              "duration": 0.00625
            },
            {
              "pitch": 53,
              "velocity": 70,
              "position": 7,
              "duration": 0.00625
            },
            {
              "pitch": 64,
              "velocity": 67,
              "position": 7,
              "duration": 0.00625
            },
            {
              "pitch": 73,
              "velocity": 100,
              "position": 7,
              "duration": 0.00625
            },
            {
              "pitch": 31,
              "velocity": 108,
              "position": 7.5,
              "duration": 0.00625
            },
            {
              "pitch": 59,
              "velocity": 43,
              "position": 7.5,
              "duration": 0.00625
            },
            {
              "pitch": 64,
              "velocity": 76,
              "position": 7.5,
              "duration": 0.00625
            },
            {
              "pitch": 73,
              "velocity": 32,
              "position": 7.5,
              "duration": 0.00625
            },
            {
              "pitch": 53,
              "velocity": 48,
              "position": 7.741666666666666,
              "duration": 0.00625
            },
            {
              "pitch": 23,
              "velocity": 93,
              "position": 8,
              "duration": 0.00625
            },
            {
              "pitch": 73,
              "velocity": 69,
              "position": 8,
              "duration": 0.00625
            },
            {
              "pitch": 53,
              "velocity": 68,
              "position": 8.002083333333333,
              "duration": 0.00625
            },
            {
              "pitch": 26,
              "velocity": 40,
              "position": 8.5,
              "duration": 0.00625
            },
            {
              "pitch": 73,
              "velocity": 35,
              "position": 8.5,
              "duration": 0.00625
            },
            {
              "pitch": 27,
              "velocity": 98,
              "position": 9,
              "duration": 0.00625
            },
            {
              "pitch": 64,
              "velocity": 66,
              "position": 9,
              "duration": 0.00625
            },
            {
              "pitch": 73,
              "velocity": 100,
              "position": 9,
              "duration": 0.00625
            },
            {
              "pitch": 65,
              "velocity": 66,
              "position": 8,
              "duration": 1.0104166666666667
            },
            {
              "pitch": 53,
              "velocity": 83,
              "position": 9.010416666666666,
              "duration": 0.00625
            },
            {
              "pitch": 24,
              "velocity": 50,
              "position": 9.5,
              "duration": 0.00625
            },
            {
              "pitch": 64,
              "velocity": 76,
              "position": 9.5,
              "duration": 0.00625
            },
            {
              "pitch": 73,
              "velocity": 38,
              "position": 9.5,
              "duration": 0.00625
            },
            {
              "pitch": 24,
              "velocity": 102,
              "position": 10,
              "duration": 0.00625
            },
            {
              "pitch": 73,
              "velocity": 71,
              "position": 10,
              "duration": 0.00625
            },
            {
              "pitch": 53,
              "velocity": 72,
              "position": 10.010416666666666,
              "duration": 0.00625
            },
            {
              "pitch": 22,
              "velocity": 48,
              "position": 10.5,
              "duration": 0.00625
            },
            {
              "pitch": 73,
              "velocity": 39,
              "position": 10.5,
              "duration": 0.00625
            },
            {
              "pitch": 53,
              "velocity": 70,
              "position": 10.502083333333333,
              "duration": 0.00625
            },
            {
              "pitch": 65,
              "velocity": 66,
              "position": 10,
              "duration": 0.9958333333333333
            },
            {
              "pitch": 31,
              "velocity": 79,
              "position": 11,
              "duration": 0.00625
            },
            {
              "pitch": 64,
              "velocity": 67,
              "position": 11,
              "duration": 0.00625
            },
            {
              "pitch": 73,
              "velocity": 100,
              "position": 11,
              "duration": 0.00625
            },
            {
              "pitch": 53,
              "velocity": 76,
              "position": 11.002083333333333,
              "duration": 0.00625
            },
            {
              "pitch": 31,
              "velocity": 114,
              "position": 11.5,
              "duration": 0.00625
            },
            {
              "pitch": 64,
              "velocity": 76,
              "position": 11.5,
              "duration": 0.00625
            },
            {
              "pitch": 73,
              "velocity": 39,
              "position": 11.5,
              "duration": 0.00625
            },
            {
              "pitch": 23,
              "velocity": 58,
              "position": 12,
              "duration": 0.00625
            },
            {
              "pitch": 73,
              "velocity": 73,
              "position": 12,
              "duration": 0.00625
            },
            {
              "pitch": 53,
              "velocity": 80,
              "position": 12.002083333333333,
              "duration": 0.00625
            },
            {
              "pitch": 26,
              "velocity": 39,
              "position": 12.5,
              "duration": 0.00625
            },
            {
              "pitch": 73,
              "velocity": 35,
              "position": 12.5,
              "duration": 0.00625
            },
            {
              "pitch": 65,
              "velocity": 66,
              "position": 12,
              "duration": 0.9854166666666667
            },
            {
              "pitch": 27,
              "velocity": 101,
              "position": 13,
              "duration": 0.00625
            },
            {
              "pitch": 64,
              "velocity": 67,
              "position": 13,
              "duration": 0.00625
            },
            {
              "pitch": 73,
              "velocity": 100,
              "position": 13,
              "duration": 0.00625
            },
            {
              "pitch": 53,
              "velocity": 86,
              "position": 13.010416666666666,
              "duration": 0.00625
            },
            {
              "pitch": 24,
              "velocity": 77,
              "position": 13.5,
              "duration": 0.00625
            },
            {
              "pitch": 64,
              "velocity": 76,
              "position": 13.5,
              "duration": 0.00625
            },
            {
              "pitch": 73,
              "velocity": 33,
              "position": 13.5,
              "duration": 0.00625
            },
            {
              "pitch": 24,
              "velocity": 105,
              "position": 14,
              "duration": 0.00625
            },
            {
              "pitch": 73,
              "velocity": 76,
              "position": 14,
              "duration": 0.00625
            },
            {
              "pitch": 53,
              "velocity": 86,
              "position": 14.010416666666666,
              "duration": 0.00625
            },
            {
              "pitch": 22,
              "velocity": 74,
              "position": 14.5,
              "duration": 0.00625
            },
            {
              "pitch": 73,
              "velocity": 33,
              "position": 14.5,
              "duration": 0.00625
            },
            {
              "pitch": 53,
              "velocity": 57,
              "position": 14.5125,
              "duration": 0.00625
            },
            {
              "pitch": 65,
              "velocity": 66,
              "position": 14,
              "duration": 0.9958333333333333
            },
            {
              "pitch": 31,
              "velocity": 52,
              "position": 15,
              "duration": 0.00625
            },
            {
              "pitch": 64,
              "velocity": 66,
              "position": 15,
              "duration": 0.00625
            },
            {
              "pitch": 73,
              "velocity": 100,
              "position": 15,
              "duration": 0.00625
            },
            {
              "pitch": 53,
              "velocity": 84,
              "position": 15.010416666666666,
              "duration": 0.00625
            },
            {
              "pitch": 31,
              "velocity": 108,
              "position": 15.5,
              "duration": 0.00625
            },
            {
              "pitch": 53,
              "velocity": 75,
              "position": 15.5,
              "duration": 0.00625
            },
            {
              "pitch": 64,
              "velocity": 76,
              "position": 15.5,
              "duration": 0.00625
            },
            {
              "pitch": 73,
              "velocity": 32,
              "position": 15.5,
              "duration": 0.00625
            },
            {
              "pitch": 59,
              "velocity": 39,
              "position": 15.75,
              "duration": 0.00625
            }
          ]
        },
        "10": {
          "ctab": {
            "srcChannel": 10,
            "name": "Bass",
            "accType": "BASS",
            "editable": false,
            "mutedNotes": [],
            "mutedChords": [],
            "autoStart": false,
            "sourceChordNote": 0,
            "sourceChordType": "Maj7",
            "ctb2Low": null,
            "ctb2Main": {
              "ntr": "ROOT_TRANSPOSITION",
              "ntt": "MELODY",
              "bassOn": true,
              "chordRootUpperLimit": 4,
              "noteLowLimit": 28,
              "noteHighLimit": 127,
              "rtr": "PITCH_SHIFT_TO_ROOT"
            },
            "ctb2High": null
          },
          "notes": [
            {
              "pitch": 24,
              "velocity": 60,
              "position": 0,
              "duration": 0.975
            },
            {
              "pitch": 24,
              "velocity": 95,
              "position": 1,
              "duration": 0.058333333333333334
            },
            {
              "pitch": 24,
              "velocity": 50,
              "position": 1.5,
              "duration": 0.475
            },
            {
              "pitch": 31,
              "velocity": 60,
              "position": 2,
              "duration": 0.975
            },
            {
              "pitch": 31,
              "velocity": 100,
              "position": 3,
              "duration": 0.058333333333333334
            },
            {
              "pitch": 31,
              "velocity": 50,
              "position": 3.5,
              "duration": 0.475
            },
            {
              "pitch": 24,
              "velocity": 60,
              "position": 4,
              "duration": 0.975
            },
            {
              "pitch": 24,
              "velocity": 100,
              "position": 5,
              "duration": 0.058333333333333334
            },
            {
              "pitch": 24,
              "velocity": 60,
              "position": 5.5,
              "duration": 0.14166666666666666
            },
            {
              "pitch": 31,
              "velocity": 60,
              "position": 6,
              "duration": 0.9541666666666667
            },
            {
              "pitch": 31,
              "velocity": 60,
              "position": 7,
              "duration": 0.975
            },
            {
              "pitch": 24,
              "velocity": 60,
              "position": 8,
              "duration": 0.975
            },
            {
              "pitch": 24,
              "velocity": 95,
              "position": 9,
              "duration": 0.058333333333333334
            },
            {
              "pitch": 24,
              "velocity": 50,
              "position": 9.5,
              "duration": 0.475
            },
            {
              "pitch": 31,
              "velocity": 60,
              "position": 10,
              "duration": 0.975
            },
            {
              "pitch": 31,
              "velocity": 100,
              "position": 11,
              "duration": 0.058333333333333334
            },
            {
              "pitch": 31,
              "velocity": 50,
              "position": 11.5,
              "duration": 0.475
            },
            {
              "pitch": 24,
              "velocity": 60,
              "position": 12,
              "duration": 0.975
            },
            {
              "pitch": 24,
              "velocity": 100,
              "position": 13,
              "duration": 0.058333333333333334
            },
            {
              "pitch": 24,
              "velocity": 59,
              "position": 13.5,
              "duration": 0.48541666666666666
            },
            {
              "pitch": 31,
              "velocity": 60,
              "position": 14,
              "duration": 0.9541666666666667
            },
            {
              "pitch": 31,
              "velocity": 60,
              "position": 15,
              "duration": 0.975
            }
          ]
        },
        "11": {
          "ctab": {
            "srcChannel": 11,
            "name": "E.Guitar",
            "accType": "CHORD1",
            "editable": false,
            "mutedNotes": [],
            "mutedChords": [],
            "autoStart": false,
            "sourceChordNote": 0,
            "sourceChordType": "Maj7",
            "ctb2Low": null,
            "ctb2Main": {
              "ntr": "ROOT_FIXED",
              "ntt": "MELODY",
              "bassOn": false,
              "chordRootUpperLimit": 7,
              "noteLowLimit": 0,
              "noteHighLimit": 127,
              "rtr": "PITCH_SHIFT"
            },
            "ctb2High": null
          },
          "notes": [
            {
              "pitch": 59,
              "velocity": 88,
              "position": 0,
              "duration": 0.24166666666666667
            },
            {
              "pitch": 59,
              "velocity": 86,
              "position": 1,
              "duration": 0.24166666666666667
            },
            {
              "pitch": 55,
              "velocity": 86,
              "position": 1.5,
              "duration": 0.24166666666666667
            },
            {
              "pitch": 59,
              "velocity": 88,
              "position": 2,
              "duration": 0.4125
            },
            {
              "pitch": 59,
              "velocity": 71,
              "position": 2.5,
              "duration": 0.49166666666666664
            },
            {
              "pitch": 59,
              "velocity": 90,
              "position": 3,
              "duration": 0.08125
            },
            {
              "pitch": 59,
              "velocity": 88,
              "position": 4,
              "duration": 0.24166666666666667
            },
            {
              "pitch": 59,
              "velocity": 86,
              "position": 5,
              "duration": 0.24166666666666667
            },
            {
              "pitch": 59,
              "velocity": 70,
              "position": 5.75,
              "duration": 0.24166666666666667
            },
            {
              "pitch": 59,
              "velocity": 90,
              "position": 6,
              "duration": 0.4125
            },
            {
              "pitch": 59,
              "velocity": 71,
              "position": 6.5,
              "duration": 0.49166666666666664
            },
            {
              "pitch": 59,
              "velocity": 90,
              "position": 7,
              "duration": 0.08125
            },
            {
              "pitch": 59,
              "velocity": 88,
              "position": 8,
              "duration": 0.24166666666666667
            },
            {
              "pitch": 59,
              "velocity": 86,
              "position": 9,
              "duration": 0.24166666666666667
            },
            {
              "pitch": 55,
              "velocity": 86,
              "position": 9.5,
              "duration": 0.24166666666666667
            },
            {
              "pitch": 59,
              "velocity": 88,
              "position": 10,
              "duration": 0.4125
            },
            {
              "pitch": 59,
              "velocity": 71,
              "position": 10.5,
              "duration": 0.49166666666666664
            },
            {
              "pitch": 59,
              "velocity": 90,
              "position": 11,
              "duration": 0.08125
            },
            {
              "pitch": 59,
              "velocity": 88,
              "position": 12,
              "duration": 0.24166666666666667
            },
            {
              "pitch": 59,
              "velocity": 86,
              "position": 13,
              "duration": 0.24166666666666667
            },
            {
              "pitch": 59,
              "velocity": 70,
              "position": 13.75,
              "duration": 0.24166666666666667
            },
            {
              "pitch": 59,
              "velocity": 90,
              "position": 14,
              "duration": 0.4125
            },
            {
              "pitch": 59,
              "velocity": 71,
              "position": 14.5,
              "duration": 0.49166666666666664
            },
            {
              "pitch": 59,
              "velocity": 90,
              "position": 15,
              "duration": 0.08125
            }
          ]
        },
        "12": {
          "ctab": {
            "srcChannel": 12,
            "name": "Organ",
            "accType": "CHORD2",
            "editable": false,
            "mutedNotes": [],
            "mutedChords": [],
            "autoStart": false,
            "sourceChordNote": 0,
            "sourceChordType": "Maj7",
            "ctb2Low": null,
            "ctb2Main": {
              "ntr": "ROOT_FIXED",
              "ntt": "CHORD",
              "bassOn": false,
              "chordRootUpperLimit": 6,
              "noteLowLimit": 60,
              "noteHighLimit": 127,
              "rtr": "PITCH_SHIFT"
            },
            "ctb2High": null
          },
          "notes": [
            {
              "pitch": 67,
              "velocity": 67,
              "position": 1,
              "duration": 0.4666666666666667
            },
            {
              "pitch": 59,
              "velocity": 67,
              "position": 1,
              "duration": 0.475
            },
            {
              "pitch": 64,
              "velocity": 67,
              "position": 1,
              "duration": 0.475
            },
            {
              "pitch": 59,
              "velocity": 48,
              "position": 1.5,
              "duration": 0.10416666666666667
            },
            {
              "pitch": 67,
              "velocity": 48,
              "position": 1.5,
              "duration": 0.10416666666666667
            },
            {
              "pitch": 64,
              "velocity": 48,
              "position": 1.5,
              "duration": 0.11041666666666666
            },
            {
              "pitch": 59,
              "velocity": 47,
              "position": 2.5,
              "duration": 0.13125
            },
            {
              "pitch": 64,
              "velocity": 47,
              "position": 2.5,
              "duration": 0.13125
            },
            {
              "pitch": 67,
              "velocity": 47,
              "position": 2.5,
              "duration": 0.13125
            },
            {
              "pitch": 67,
              "velocity": 68,
              "position": 3,
              "duration": 0.4666666666666667
            },
            {
              "pitch": 59,
              "velocity": 68,
              "position": 3,
              "duration": 0.475
            },
            {
              "pitch": 64,
              "velocity": 68,
              "position": 3,
              "duration": 0.475
            },
            {
              "pitch": 59,
              "velocity": 49,
              "position": 3.5,
              "duration": 0.10416666666666667
            },
            {
              "pitch": 67,
              "velocity": 49,
              "position": 3.5,
              "duration": 0.10416666666666667
            },
            {
              "pitch": 64,
              "velocity": 49,
              "position": 3.5,
              "duration": 0.11041666666666666
            },
            {
              "pitch": 67,
              "velocity": 68,
              "position": 5,
              "duration": 0.4666666666666667
            },
            {
              "pitch": 59,
              "velocity": 68,
              "position": 5,
              "duration": 0.475
            },
            {
              "pitch": 64,
              "velocity": 68,
              "position": 5,
              "duration": 0.475
            },
            {
              "pitch": 59,
              "velocity": 37,
              "position": 5.5,
              "duration": 0.10416666666666667
            },
            {
              "pitch": 67,
              "velocity": 37,
              "position": 5.5,
              "duration": 0.10416666666666667
            },
            {
              "pitch": 64,
              "velocity": 37,
              "position": 5.5,
              "duration": 0.11041666666666666
            },
            {
              "pitch": 59,
              "velocity": 55,
              "position": 6,
              "duration": 0.44375
            },
            {
              "pitch": 64,
              "velocity": 55,
              "position": 6,
              "duration": 0.44375
            },
            {
              "pitch": 67,
              "velocity": 55,
              "position": 6,
              "duration": 0.44375
            },
            {
              "pitch": 59,
              "velocity": 55,
              "position": 6.5,
              "duration": 0.10416666666666667
            },
            {
              "pitch": 67,
              "velocity": 55,
              "position": 6.5,
              "duration": 0.10416666666666667
            },
            {
              "pitch": 64,
              "velocity": 55,
              "position": 6.5,
              "duration": 0.11041666666666666
            },
            {
              "pitch": 59,
              "velocity": 56,
              "position": 7,
              "duration": 0.10416666666666667
            },
            {
              "pitch": 67,
              "velocity": 56,
              "position": 7,
              "duration": 0.10416666666666667
            },
            {
              "pitch": 64,
              "velocity": 56,
              "position": 7,
              "duration": 0.11041666666666666
            },
            {
              "pitch": 67,
              "velocity": 67,
              "position": 9,
              "duration": 0.4666666666666667
            },
            {
              "pitch": 59,
              "velocity": 67,
              "position": 9,
              "duration": 0.475
            },
            {
              "pitch": 64,
              "velocity": 67,
              "position": 9,
              "duration": 0.475
            },
            {
              "pitch": 59,
              "velocity": 48,
              "position": 9.5,
              "duration": 0.10416666666666667
            },
            {
              "pitch": 67,
              "velocity": 48,
              "position": 9.5,
              "duration": 0.10416666666666667
            },
            {
              "pitch": 64,
              "velocity": 48,
              "position": 9.5,
              "duration": 0.11041666666666666
            },
            {
              "pitch": 59,
              "velocity": 47,
              "position": 10.5,
              "duration": 0.13125
            },
            {
              "pitch": 64,
              "velocity": 47,
              "position": 10.5,
              "duration": 0.13125
            },
            {
              "pitch": 67,
              "velocity": 47,
              "position": 10.5,
              "duration": 0.13125
            },
            {
              "pitch": 67,
              "velocity": 68,
              "position": 11,
              "duration": 0.4666666666666667
            },
            {
              "pitch": 59,
              "velocity": 68,
              "position": 11,
              "duration": 0.475
            },
            {
              "pitch": 64,
              "velocity": 68,
              "position": 11,
              "duration": 0.475
            },
            {
              "pitch": 59,
              "velocity": 49,
              "position": 11.5,
              "duration": 0.10416666666666667
            },
            {
              "pitch": 67,
              "velocity": 49,
              "position": 11.5,
              "duration": 0.10416666666666667
            },
            {
              "pitch": 64,
              "velocity": 49,
              "position": 11.5,
              "duration": 0.11041666666666666
            },
            {
              "pitch": 67,
              "velocity": 68,
              "position": 13,
              "duration": 0.7083333333333334
            },
            {
              "pitch": 59,
              "velocity": 68,
              "position": 13,
              "duration": 0.7145833333333333
            },
            {
              "pitch": 64,
              "velocity": 68,
              "position": 13,
              "duration": 0.7145833333333333
            },
            {
              "pitch": 59,
              "velocity": 37,
              "position": 13.75,
              "duration": 0.10416666666666667
            },
            {
              "pitch": 67,
              "velocity": 37,
              "position": 13.75,
              "duration": 0.10416666666666667
            },
            {
              "pitch": 64,
              "velocity": 37,
              "position": 13.75,
              "duration": 0.11041666666666666
            },
            {
              "pitch": 59,
              "velocity": 66,
              "position": 14,
              "duration": 0.44375
            },
            {
              "pitch": 64,
              "velocity": 68,
              "position": 14,
              "duration": 0.44375
            },
            {
              "pitch": 67,
              "velocity": 67,
              "position": 14,
              "duration": 0.44375
            },
            {
              "pitch": 59,
              "velocity": 53,
              "position": 14.5,
              "duration": 0.10416666666666667
            },
            {
              "pitch": 67,
              "velocity": 53,
              "position": 14.5,
              "duration": 0.10416666666666667
            },
            {
              "pitch": 64,
              "velocity": 53,
              "position": 14.5,
              "duration": 0.11041666666666666
            },
            {
              "pitch": 59,
              "velocity": 58,
              "position": 15,
              "duration": 0.10416666666666667
            },
            {
              "pitch": 67,
              "velocity": 58,
              "position": 15,
              "duration": 0.10416666666666667
            },
            {
              "pitch": 64,
              "velocity": 58,
              "position": 15,
              "duration": 0.11041666666666666
            }
          ]
        },
        "13": {
          "ctab": {
            "srcChannel": 13,
            "name": "Brass",
            "accType": "PAD",
            "editable": false,
            "mutedNotes": [],
            "mutedChords": [],
            "autoStart": false,
            "sourceChordNote": 0,
            "sourceChordType": "Maj7",
            "ctb2Low": null,
            "ctb2Main": {
              "ntr": "ROOT_FIXED",
              "ntt": "CHORD",
              "bassOn": false,
              "chordRootUpperLimit": 7,
              "noteLowLimit": 0,
              "noteHighLimit": 127,
              "rtr": "PITCH_SHIFT"
            },
            "ctb2High": null
          },
          "notes": [
            {
              "pitch": 71,
              "velocity": 81,
              "position": 0.4979166666666667,
              "duration": 0.45416666666666666
            },
            {
              "pitch": 64,
              "velocity": 109,
              "position": 0.5,
              "duration": 0.4625
            },
            {
              "pitch": 67,
              "velocity": 111,
              "position": 0.5,
              "duration": 0.4666666666666667
            },
            {
              "pitch": 71,
              "velocity": 84,
              "position": 0.9979166666666667,
              "duration": 0.175
            },
            {
              "pitch": 67,
              "velocity": 109,
              "position": 0.9979166666666667,
              "duration": 0.18333333333333332
            },
            {
              "pitch": 64,
              "velocity": 111,
              "position": 1,
              "duration": 0.19583333333333333
            },
            {
              "pitch": 71,
              "velocity": 75,
              "position": 2.495833333333333,
              "duration": 0.45625
            },
            {
              "pitch": 67,
              "velocity": 111,
              "position": 2.495833333333333,
              "duration": 0.46458333333333335
            },
            {
              "pitch": 64,
              "velocity": 111,
              "position": 2.502083333333333,
              "duration": 0.4625
            },
            {
              "pitch": 67,
              "velocity": 111,
              "position": 3,
              "duration": 0.18541666666666667
            },
            {
              "pitch": 64,
              "velocity": 112,
              "position": 2.995833333333333,
              "duration": 0.19583333333333333
            },
            {
              "pitch": 71,
              "velocity": 84,
              "position": 2.997916666666667,
              "duration": 0.19375
            },
            {
              "pitch": 71,
              "velocity": 73,
              "position": 4.497916666666667,
              "duration": 0.45
            },
            {
              "pitch": 67,
              "velocity": 102,
              "position": 4.497916666666667,
              "duration": 0.46041666666666664
            },
            {
              "pitch": 64,
              "velocity": 102,
              "position": 4.502083333333333,
              "duration": 0.4708333333333333
            },
            {
              "pitch": 71,
              "velocity": 84,
              "position": 5,
              "duration": 0.18958333333333333
            },
            {
              "pitch": 67,
              "velocity": 111,
              "position": 5.002083333333333,
              "duration": 0.18958333333333333
            },
            {
              "pitch": 64,
              "velocity": 112,
              "position": 4.997916666666667,
              "duration": 0.19583333333333333
            },
            {
              "pitch": 71,
              "velocity": 73,
              "position": 8.5,
              "duration": 0.45208333333333334
            },
            {
              "pitch": 64,
              "velocity": 111,
              "position": 8.495833333333334,
              "duration": 0.46041666666666664
            },
            {
              "pitch": 67,
              "velocity": 111,
              "position": 8.502083333333333,
              "duration": 0.46875
            },
            {
              "pitch": 71,
              "velocity": 84,
              "position": 8.997916666666667,
              "duration": 0.16875
            },
            {
              "pitch": 67,
              "velocity": 111,
              "position": 9.004166666666666,
              "duration": 0.18125
            },
            {
              "pitch": 64,
              "velocity": 112,
              "position": 8.997916666666667,
              "duration": 0.19583333333333333
            },
            {
              "pitch": 71,
              "velocity": 75,
              "position": 10.502083333333333,
              "duration": 0.45208333333333334
            },
            {
              "pitch": 67,
              "velocity": 111,
              "position": 10.495833333333334,
              "duration": 0.4666666666666667
            },
            {
              "pitch": 64,
              "velocity": 111,
              "position": 10.502083333333333,
              "duration": 0.46875
            },
            {
              "pitch": 67,
              "velocity": 111,
              "position": 11,
              "duration": 0.1875
            },
            {
              "pitch": 64,
              "velocity": 112,
              "position": 10.997916666666667,
              "duration": 0.19166666666666668
            },
            {
              "pitch": 71,
              "velocity": 84,
              "position": 10.997916666666667,
              "duration": 0.19166666666666668
            },
            {
              "pitch": 71,
              "velocity": 73,
              "position": 12.502083333333333,
              "duration": 0.45416666666666666
            },
            {
              "pitch": 67,
              "velocity": 102,
              "position": 12.497916666666667,
              "duration": 0.46458333333333335
            },
            {
              "pitch": 64,
              "velocity": 102,
              "position": 12.5,
              "duration": 0.4708333333333333
            },
            {
              "pitch": 67,
              "velocity": 111,
              "position": 13,
              "duration": 0.18541666666666667
            },
            {
              "pitch": 64,
              "velocity": 112,
              "position": 13,
              "duration": 0.19375
            },
            {
              "pitch": 71,
              "velocity": 84,
              "position": 13.002083333333333,
              "duration": 0.19583333333333333
            }
          ]
        },
        "14": {
          "ctab": {
            "srcChannel": 14,
            "name": "Sax",
            "accType": "PHRASE1",
            "editable": false,
            "mutedNotes": [],
            "mutedChords": [],
            "autoStart": false,
            "sourceChordNote": 0,
            "sourceChordType": "Maj7",
            "ctb2Low": null,
            "ctb2Main": {
              "ntr": "ROOT_TRANSPOSITION",
              "ntt": "MELODY",
              "bassOn": false,
              "chordRootUpperLimit": 6,
              "noteLowLimit": 48,
              "noteHighLimit": 59,
              "rtr": "PITCH_SHIFT"
            },
            "ctb2High": null
          },
          "notes": []
        },
        "15": {
          "ctab": {
            "srcChannel": 15,
            "name": "Vib",
            "accType": "PHRASE2",
            "editable": false,
            "mutedNotes": [],
            "mutedChords": [],
            "autoStart": false,
            "sourceChordNote": 0,
            "sourceChordType": "Maj7",
            "ctb2Low": null,
            "ctb2Main": {
              "ntr": "ROOT_TRANSPOSITION",
              "ntt": "CHORD",
              "bassOn": false,
              "chordRootUpperLimit": 7,
              "noteLowLimit": 60,
              "noteHighLimit": 71,
              "rtr": "PITCH_SHIFT"
            },
            "ctb2High": null
          },
          "notes": [
            {
              "pitch": 64,
              "velocity": 82,
              "position": 0,
              "duration": 0.11458333333333333
            },
            {
              "pitch": 67,
              "velocity": 82,
              "position": 0,
              "duration": 0.14375
            },
            {
              "pitch": 64,
              "velocity": 79,
              "position": 1,
              "duration": 1.3916666666666666
            },
            {
              "pitch": 67,
              "velocity": 78,
              "position": 1,
              "duration": 1.4020833333333333
            },
            {
              "pitch": 64,
              "velocity": 83,
              "position": 2.5,
              "duration": 0.07916666666666666
            },
            {
              "pitch": 67,
              "velocity": 80,
              "position": 2.5,
              "duration": 0.08958333333333333
            },
            {
              "pitch": 64,
              "velocity": 82,
              "position": 3.5,
              "duration": 0.09375
            },
            {
              "pitch": 67,
              "velocity": 80,
              "position": 3.5,
              "duration": 0.11041666666666666
            },
            {
              "pitch": 67,
              "velocity": 88,
              "position": 4.5,
              "duration": 0.4583333333333333
            },
            {
              "pitch": 64,
              "velocity": 88,
              "position": 4.5,
              "duration": 0.5604166666666667
            },
            {
              "pitch": 67,
              "velocity": 64,
              "position": 5.066666666666666,
              "duration": 0.16458333333333333
            },
            {
              "pitch": 64,
              "velocity": 65,
              "position": 5.208333333333333,
              "duration": 0.12291666666666666
            },
            {
              "pitch": 67,
              "velocity": 64,
              "position": 5.354166666666667,
              "duration": 0.13541666666666666
            },
            {
              "pitch": 64,
              "velocity": 66,
              "position": 5.489583333333333,
              "duration": 0.09583333333333334
            },
            {
              "pitch": 67,
              "velocity": 65,
              "position": 5.604166666666667,
              "duration": 0.12708333333333333
            },
            {
              "pitch": 64,
              "velocity": 69,
              "position": 5.739583333333333,
              "duration": 0.06041666666666667
            },
            {
              "pitch": 64,
              "velocity": 94,
              "position": 6,
              "duration": 0.46458333333333335
            },
            {
              "pitch": 67,
              "velocity": 94,
              "position": 6,
              "duration": 0.4666666666666667
            },
            {
              "pitch": 64,
              "velocity": 82,
              "position": 6.510416666666667,
              "duration": 0.11666666666666667
            },
            {
              "pitch": 67,
              "velocity": 82,
              "position": 6.510416666666667,
              "duration": 0.13333333333333333
            },
            {
              "pitch": 64,
              "velocity": 96,
              "position": 7,
              "duration": 0.11041666666666666
            },
            {
              "pitch": 67,
              "velocity": 96,
              "position": 7,
              "duration": 0.13125
            },
            {
              "pitch": 64,
              "velocity": 82,
              "position": 8,
              "duration": 0.11458333333333333
            },
            {
              "pitch": 67,
              "velocity": 82,
              "position": 8,
              "duration": 0.14375
            },
            {
              "pitch": 64,
              "velocity": 80,
              "position": 9,
              "duration": 1.3916666666666666
            },
            {
              "pitch": 67,
              "velocity": 79,
              "position": 9,
              "duration": 1.4020833333333333
            },
            {
              "pitch": 64,
              "velocity": 83,
              "position": 10.5,
              "duration": 0.07916666666666666
            },
            {
              "pitch": 67,
              "velocity": 80,
              "position": 10.5,
              "duration": 0.08958333333333333
            },
            {
              "pitch": 64,
              "velocity": 82,
              "position": 11.5,
              "duration": 0.09375
            },
            {
              "pitch": 67,
              "velocity": 80,
              "position": 11.5,
              "duration": 0.11041666666666666
            },
            {
              "pitch": 67,
              "velocity": 88,
              "position": 12.5,
              "duration": 0.4583333333333333
            },
            {
              "pitch": 64,
              "velocity": 88,
              "position": 12.5,
              "duration": 0.5604166666666667
            },
            {
              "pitch": 67,
              "velocity": 64,
              "position": 13.066666666666666,
              "duration": 0.16458333333333333
            },
            {
              "pitch": 64,
              "velocity": 65,
              "position": 13.208333333333334,
              "duration": 0.12291666666666666
            },
            {
              "pitch": 67,
              "velocity": 64,
              "position": 13.354166666666666,
              "duration": 0.13541666666666666
            },
            {
              "pitch": 64,
              "velocity": 64,
              "position": 13.489583333333334,
              "duration": 0.09583333333333334
            },
            {
              "pitch": 67,
              "velocity": 62,
              "position": 13.604166666666666,
              "duration": 0.12708333333333333
            },
            {
              "pitch": 64,
              "velocity": 68,
              "position": 13.739583333333334,
              "duration": 0.06041666666666667
            },
            {
              "pitch": 64,
              "velocity": 94,
              "position": 14,
              "duration": 0.46458333333333335
            },
            {
              "pitch": 67,
              "velocity": 94,
              "position": 14,
              "duration": 0.4666666666666667
            },
            {
              "pitch": 64,
              "velocity": 82,
              "position": 14.510416666666666,
              "duration": 0.11666666666666667
            },
            {
              "pitch": 67,
              "velocity": 82,
              "position": 14.510416666666666,
              "duration": 0.13333333333333333
            },
            {
              "pitch": 64,
              "velocity": 96,
              "position": 15,
              "duration": 0.11041666666666666
            },
            {
              "pitch": 67,
              "velocity": 96,
              "position": 15,
              "duration": 0.13125
            }
          ]
        }
      }
    },
    "Fill_In_AA": {
      "type": "Fill_In_AA",
      "sizeInBeats": 4,
      "channels": {
        "3": {
          "ctab": {
            "srcChannel": 3,
            "name": "Organ rt",
            "accType": "CHORD2",
            "editable": true,
            "mutedNotes": [],
            "mutedChords": [
              "1+2+5",
              "sus4",
              "1+5",
              "1+8",
              "Maj7aug",
              "dim",
              "minMaj7(9)",
              "minMaj7",
              "min6",
              "min",
              "aug",
              "Maj7(9)",
              "Maj7#11",
              "Maj7",
              "Maj6",
              "Maj"
            ],
            "autoStart": false,
            "sourceChordNote": 0,
            "sourceChordType": "Maj7",
            "ctb2Low": null,
            "ctb2Main": {
              "ntr": "ROOT_TRANSPOSITION",
              "ntt": "MELODY",
              "bassOn": false,
              "chordRootUpperLimit": 10,
              "noteLowLimit": 60,
              "noteHighLimit": 74,
              "rtr": "PITCH_SHIFT"
            },
            "ctb2High": null
          },
          "notes": [
            {
              "pitch": 60,
              "velocity": 49,
              "position": 1,
              "duration": 0.1
            },
            {
              "pitch": 60,
              "velocity": 49,
              "position": 2.5,
              "duration": 0.125
            }
          ]
        },
        "4": {
          "ctab": {
            "srcChannel": 4,
            "name": "Brass rt",
            "accType": "PAD",
            "editable": false,
            "mutedNotes": [],
            "mutedChords": [
              "1+2+5",
              "sus4",
              "1+5",
              "1+8",
              "Maj7aug",
              "dim",
              "minMaj7(9)",
              "minMaj7",
              "min6",
              "min",
              "aug",
              "Maj7(9)",
              "Maj7#11",
              "Maj7",
              "Maj6",
              "Maj"
            ],
            "autoStart": false,
            "sourceChordNote": 0,
            "sourceChordType": "Maj7",
            "ctb2Low": null,
            "ctb2Main": {
              "ntr": "ROOT_TRANSPOSITION",
              "ntt": "MELODY",
              "bassOn": false,
              "chordRootUpperLimit": 10,
              "noteLowLimit": 0,
              "noteHighLimit": 74,
              "rtr": "PITCH_SHIFT"
            },
            "ctb2High": null
          },
          "notes": [
            {
              "pitch": 60,
              "velocity": 84,
              "position": 2,
              "duration": 0.16458333333333333
            },
            {
              "pitch": 60,
              "velocity": 84,
              "position": 2.5,
              "duration": 0.16458333333333333
            }
          ]
        },
        "7": {
          "ctab": {
            "srcChannel": 7,
            "name": "Org Glis",
            "accType": "CHORD2",
            "editable": false,
            "mutedNotes": [],
            "mutedChords": [],
            "autoStart": false,
            "sourceChordNote": 0,
            "sourceChordType": "Maj7",
            "ctb2Low": null,
            "ctb2Main": {
              "ntr": "ROOT_FIXED",
              "ntt": "BYPASS",
              "bassOn": false,
              "chordRootUpperLimit": 6,
              "noteLowLimit": 0,
              "noteHighLimit": 127,
              "rtr": "PITCH_SHIFT"
            },
            "ctb2High": null
          },
          "notes": []
        },
        "8": {
          "ctab": {
            "srcChannel": 8,
            "name": "AddDrum",
            "accType": "SUBRHYTHM",
            "editable": false,
            "mutedNotes": [],
            "mutedChords": [],
            "autoStart": true,
            "sourceChordNote": 0,
            "sourceChordType": "Maj7",
            "ctb2Low": null,
            "ctb2Main": {
              "ntr": "ROOT_FIXED",
              "ntt": "BYPASS",
              "bassOn": false,
              "chordRootUpperLimit": 6,
              "noteLowLimit": 0,
              "noteHighLimit": 127,
              "rtr": "PITCH_SHIFT"
            },
            "ctb2High": null
          },
          "notes": [
            {
              "pitch": 56,
              "velocity": 99,
              "position": 0,
              "duration": 0.00625
            },
            {
              "pitch": 56,
              "velocity": 63,
              "position": 1,
              "duration": 0.00625
            },
            {
              "pitch": 56,
              "velocity": 100,
              "position": 2,
              "duration": 0.00625
            },
            {
              "pitch": 56,
              "velocity": 63,
              "position": 3,
              "duration": 0.00625
            }
          ]
        },
        "9": {
          "ctab": {
            "srcChannel": 9,
            "name": "MainDrum",
            "accType": "RHYTHM",
            "editable": false,
            "mutedNotes": [],
            "mutedChords": [],
            "autoStart": true,
            "sourceChordNote": 0,
            "sourceChordType": "Maj7",
            "ctb2Low": null,
            "ctb2Main": {
              "ntr": "ROOT_FIXED",
              "ntt": "BYPASS",
              "bassOn": false,
              "chordRootUpperLimit": 6,
              "noteLowLimit": 0,
              "noteHighLimit": 127,
              "rtr": "PITCH_SHIFT"
            },
            "ctb2High": null
          },
          "notes": [
            {
              "pitch": 23,
              "velocity": 117,
              "position": 0,
              "duration": 0.004166666666666667
            },
            {
              "pitch": 53,
              "velocity": 58,
              "position": 0,
              "duration": 0.004166666666666667
            },
            {
              "pitch": 73,
              "velocity": 59,
              "position": 0,
              "duration": 0.004166666666666667
            },
            {
              "pitch": 22,
              "velocity": 86,
              "position": 0.5,
              "duration": 0.004166666666666667
            },
            {
              "pitch": 73,
              "velocity": 25,
              "position": 0.5,
              "duration": 0.004166666666666667
            },
            {
              "pitch": 26,
              "velocity": 103,
              "position": 1,
              "duration": 0.00625
            },
            {
              "pitch": 53,
              "velocity": 57,
              "position": 1,
              "duration": 0.00625
            },
            {
              "pitch": 73,
              "velocity": 100,
              "position": 1,
              "duration": 0.00625
            },
            {
              "pitch": 31,
              "velocity": 76,
              "position": 1.5,
              "duration": 0.00625
            },
            {
              "pitch": 73,
              "velocity": 28,
              "position": 1.5,
              "duration": 0.00625
            },
            {
              "pitch": 53,
              "velocity": 52,
              "position": 1.75,
              "duration": 0.00625
            },
            {
              "pitch": 31,
              "velocity": 116,
              "position": 2,
              "duration": 0.00625
            },
            {
              "pitch": 53,
              "velocity": 97,
              "position": 2,
              "duration": 0.00625
            },
            {
              "pitch": 73,
              "velocity": 61,
              "position": 2,
              "duration": 0.00625
            },
            {
              "pitch": 23,
              "velocity": 103,
              "position": 2.5,
              "duration": 0.00625
            },
            {
              "pitch": 53,
              "velocity": 69,
              "position": 2.5,
              "duration": 0.00625
            },
            {
              "pitch": 73,
              "velocity": 29,
              "position": 2.5,
              "duration": 0.00625
            },
            {
              "pitch": 53,
              "velocity": 109,
              "position": 2.99375,
              "duration": 0.00625
            },
            {
              "pitch": 24,
              "velocity": 88,
              "position": 3,
              "duration": 0.00625
            },
            {
              "pitch": 73,
              "velocity": 100,
              "position": 3,
              "duration": 0.00625
            },
            {
              "pitch": 25,
              "velocity": 127,
              "position": 3.5,
              "duration": 0.00625
            },
            {
              "pitch": 73,
              "velocity": 29,
              "position": 3.5,
              "duration": 0.00625
            }
          ]
        },
        "10": {
          "ctab": {
            "srcChannel": 10,
            "name": "Bass",
            "accType": "BASS",
            "editable": false,
            "mutedNotes": [],
            "mutedChords": [],
            "autoStart": false,
            "sourceChordNote": 0,
            "sourceChordType": "Maj7",
            "ctb2Low": null,
            "ctb2Main": {
              "ntr": "ROOT_TRANSPOSITION",
              "ntt": "MELODY",
              "bassOn": true,
              "chordRootUpperLimit": 4,
              "noteLowLimit": 28,
              "noteHighLimit": 127,
              "rtr": "PITCH_SHIFT_TO_ROOT"
            },
            "ctb2High": null
          },
          "notes": [
            {
              "pitch": 24,
              "velocity": 60,
              "position": 0,
              "duration": 0.975
            },
            {
              "pitch": 24,
              "velocity": 95,
              "position": 1,
              "duration": 0.058333333333333334
            },
            {
              "pitch": 24,
              "velocity": 60,
              "position": 3.5,
              "duration": 0.4125
            }
          ]
        },
        "11": {
          "ctab": {
            "srcChannel": 11,
            "name": "E.Guitar",
            "accType": "CHORD1",
            "editable": false,
            "mutedNotes": [],
            "mutedChords": [],
            "autoStart": false,
            "sourceChordNote": 0,
            "sourceChordType": "Maj7",
            "ctb2Low": null,
            "ctb2Main": {
              "ntr": "ROOT_FIXED",
              "ntt": "MELODY",
              "bassOn": false,
              "chordRootUpperLimit": 7,
              "noteLowLimit": 0,
              "noteHighLimit": 127,
              "rtr": "PITCH_SHIFT"
            },
            "ctb2High": null
          },
          "notes": [
            {
              "pitch": 59,
              "velocity": 88,
              "position": 0,
              "duration": 0.24166666666666667
            },
            {
              "pitch": 59,
              "velocity": 86,
              "position": 1,
              "duration": 0.24166666666666667
            }
          ]
        },
        "12": {
          "ctab": {
            "srcChannel": 12,
            "name": "Organ",
            "accType": "CHORD2",
            "editable": false,
            "mutedNotes": [],
            "mutedChords": [],
            "autoStart": false,
            "sourceChordNote": 0,
            "sourceChordType": "Maj7",
            "ctb2Low": null,
            "ctb2Main": {
              "ntr": "ROOT_FIXED",
              "ntt": "CHORD",
              "bassOn": false,
              "chordRootUpperLimit": 6,
              "noteLowLimit": 60,
              "noteHighLimit": 127,
              "rtr": "PITCH_SHIFT"
            },
            "ctb2High": null
          },
          "notes": [
            {
              "pitch": 59,
              "velocity": 84,
              "position": 1,
              "duration": 0.09375
            },
            {
              "pitch": 64,
              "velocity": 84,
              "position": 1,
              "duration": 0.1
            },
            {
              "pitch": 67,
              "velocity": 84,
              "position": 1,
              "duration": 0.10416666666666667
            },
            {
              "pitch": 59,
              "velocity": 84,
              "position": 2.5,
              "duration": 0.11041666666666666
            },
            {
              "pitch": 64,
              "velocity": 84,
              "position": 2.5,
              "duration": 0.125
            },
            {
              "pitch": 67,
              "velocity": 84,
              "position": 2.5,
              "duration": 0.13125
            }
          ]
        },
        "13": {
          "ctab": {
            "srcChannel": 13,
            "name": "Brass",
            "accType": "PAD",
            "editable": false,
            "mutedNotes": [],
            "mutedChords": [],
            "autoStart": false,
            "sourceChordNote": 0,
            "sourceChordType": "Maj7",
            "ctb2Low": null,
            "ctb2Main": {
              "ntr": "ROOT_FIXED",
              "ntt": "CHORD",
              "bassOn": false,
              "chordRootUpperLimit": 7,
              "noteLowLimit": 0,
              "noteHighLimit": 127,
              "rtr": "PITCH_SHIFT"
            },
            "ctb2High": null
          },
          "notes": [
            {
              "pitch": 59,
              "velocity": 82,
              "position": 2,
              "duration": 0.21458333333333332
            },
            {
              "pitch": 64,
              "velocity": 109,
              "position": 2,
              "duration": 0.21458333333333332
            },
            {
              "pitch": 67,
              "velocity": 109,
              "position": 2,
              "duration": 0.21458333333333332
            },
            {
              "pitch": 59,
              "velocity": 82,
              "position": 2.5,
              "duration": 0.21458333333333332
            },
            {
              "pitch": 64,
              "velocity": 114,
              "position": 2.5,
              "duration": 0.21458333333333332
            },
            {
              "pitch": 67,
              "velocity": 114,
              "position": 2.5,
              "duration": 0.21458333333333332
            },
            {
              "pitch": 59,
              "velocity": 84,
              "position": 3,
              "duration": 0.21458333333333332
            },
            {
              "pitch": 64,
              "velocity": 115,
              "position": 3,
              "duration": 0.21458333333333332
            },
            {
              "pitch": 67,
              "velocity": 115,
              "position": 3,
              "duration": 0.21458333333333332
            }
          ]
        },
        "14": {
          "ctab": {
            "srcChannel": 14,
            "name": "Sax",
            "accType": "PHRASE1",
            "editable": false,
            "mutedNotes": [],
            "mutedChords": [],
            "autoStart": false,
            "sourceChordNote": 0,
            "sourceChordType": "Maj7",
            "ctb2Low": null,
            "ctb2Main": {
              "ntr": "ROOT_TRANSPOSITION",
              "ntt": "MELODY",
              "bassOn": false,
              "chordRootUpperLimit": 6,
              "noteLowLimit": 48,
              "noteHighLimit": 59,
              "rtr": "PITCH_SHIFT"
            },
            "ctb2High": null
          },
          "notes": []
        },
        "15": {
          "ctab": {
            "srcChannel": 15,
            "name": "Vib",
            "accType": "PHRASE2",
            "editable": false,
            "mutedNotes": [],
            "mutedChords": [],
            "autoStart": false,
            "sourceChordNote": 0,
            "sourceChordType": "Maj7",
            "ctb2Low": null,
            "ctb2Main": {
              "ntr": "ROOT_TRANSPOSITION",
              "ntt": "CHORD",
              "bassOn": false,
              "chordRootUpperLimit": 7,
              "noteLowLimit": 60,
              "noteHighLimit": 71,
              "rtr": "PITCH_SHIFT"
            },
            "ctb2High": null
          },
          "notes": []
        }
      }
    },
    "Fill_In_BB": {
      "type": "Fill_In_BB",
      "sizeInBeats": 4,
      "channels": {
        "3": {
          "ctab": {
            "srcChannel": 3,
            "name": "Organ rt",
            "accType": "CHORD2",
            "editable": true,
            "mutedNotes": [],
            "mutedChords": [
              "1+2+5",
              "sus4",
              "1+5",
              "1+8",
              "Maj7aug",
              "dim",
              "minMaj7(9)",
              "minMaj7",
              "min6",
              "min",
              "aug",
              "Maj7(9)",
              "Maj7#11",
              "Maj7",
              "Maj6",
              "Maj"
            ],
            "autoStart": false,
            "sourceChordNote": 0,
            "sourceChordType": "Maj7",
            "ctb2Low": null,
            "ctb2Main": {
              "ntr": "ROOT_TRANSPOSITION",
              "ntt": "MELODY",
              "bassOn": false,
              "chordRootUpperLimit": 10,
              "noteLowLimit": 60,
              "noteHighLimit": 74,
              "rtr": "PITCH_SHIFT"
            },
            "ctb2High": null
          },
          "notes": [
            {
              "pitch": 60,
              "velocity": 72,
              "position": 2.495833333333333,
              "duration": 0.09375
            },
            {
              "pitch": 60,
              "velocity": 72,
              "position": 2.7354166666666666,
              "duration": 0.11458333333333333
            },
            {
              "pitch": 60,
              "velocity": 61,
              "position": 2.9895833333333335,
              "duration": 0.2125
            },
            {
              "pitch": 60,
              "velocity": 24,
              "position": 3.2375,
              "duration": 0.225
            },
            {
              "pitch": 60,
              "velocity": 80,
              "position": 3.475,
              "duration": 0.13125
            }
          ]
        },
        "4": {
          "ctab": {
            "srcChannel": 4,
            "name": "Brass rt",
            "accType": "PAD",
            "editable": false,
            "mutedNotes": [],
            "mutedChords": [
              "1+2+5",
              "sus4",
              "1+5",
              "1+8",
              "Maj7aug",
              "dim",
              "minMaj7(9)",
              "minMaj7",
              "min6",
              "min",
              "aug",
              "Maj7(9)",
              "Maj7#11",
              "Maj7",
              "Maj6",
              "Maj"
            ],
            "autoStart": false,
            "sourceChordNote": 0,
            "sourceChordType": "Maj7",
            "ctb2Low": null,
            "ctb2Main": {
              "ntr": "ROOT_TRANSPOSITION",
              "ntt": "MELODY",
              "bassOn": false,
              "chordRootUpperLimit": 10,
              "noteLowLimit": 0,
              "noteHighLimit": 74,
              "rtr": "PITCH_SHIFT"
            },
            "ctb2High": null
          },
          "notes": [
            {
              "pitch": 60,
              "velocity": 82,
              "position": 0.010416666666666666,
              "duration": 0.3125
            }
          ]
        },
        "7": {
          "ctab": {
            "srcChannel": 7,
            "name": "Org Glis",
            "accType": "CHORD2",
            "editable": false,
            "mutedNotes": [],
            "mutedChords": [],
            "autoStart": false,
            "sourceChordNote": 0,
            "sourceChordType": "Maj7",
            "ctb2Low": null,
            "ctb2Main": {
              "ntr": "ROOT_FIXED",
              "ntt": "BYPASS",
              "bassOn": false,
              "chordRootUpperLimit": 6,
              "noteLowLimit": 0,
              "noteHighLimit": 127,
              "rtr": "PITCH_SHIFT"
            },
            "ctb2High": null
          },
          "notes": []
        },
        "8": {
          "ctab": {
            "srcChannel": 8,
            "name": "AddDrum",
            "accType": "SUBRHYTHM",
            "editable": false,
            "mutedNotes": [],
            "mutedChords": [],
            "autoStart": true,
            "sourceChordNote": 0,
            "sourceChordType": "Maj7",
            "ctb2Low": null,
            "ctb2Main": {
              "ntr": "ROOT_FIXED",
              "ntt": "BYPASS",
              "bassOn": false,
              "chordRootUpperLimit": 6,
              "noteLowLimit": 0,
              "noteHighLimit": 127,
              "rtr": "PITCH_SHIFT"
            },
            "ctb2High": null
          },
          "notes": [
            {
              "pitch": 56,
              "velocity": 99,
              "position": 0,
              "duration": 0.00625
            },
            {
              "pitch": 56,
              "velocity": 102,
              "position": 1,
              "duration": 0.00625
            },
            {
              "pitch": 65,
              "velocity": 96,
              "position": 1.53125,
              "duration": 0.00625
            },
            {
              "pitch": 65,
              "velocity": 66,
              "position": 1.625,
              "duration": 0.00625
            },
            {
              "pitch": 65,
              "velocity": 47,
              "position": 1.71875,
              "duration": 0.00625
            },
            {
              "pitch": 65,
              "velocity": 51,
              "position": 1.8541666666666667,
              "duration": 0.00625
            },
            {
              "pitch": 56,
              "velocity": 100,
              "position": 2,
              "duration": 0.00625
            },
            {
              "pitch": 65,
              "velocity": 105,
              "position": 2,
              "duration": 0.00625
            },
            {
              "pitch": 65,
              "velocity": 92,
              "position": 2.4895833333333335,
              "duration": 0.00625
            },
            {
              "pitch": 56,
              "velocity": 63,
              "position": 2.5,
              "duration": 0.00625
            },
            {
              "pitch": 65,
              "velocity": 105,
              "position": 2.9895833333333335,
              "duration": 0.00625
            },
            {
              "pitch": 56,
              "velocity": 102,
              "position": 3,
              "duration": 0.00625
            }
          ]
        },
        "9": {
          "ctab": {
            "srcChannel": 9,
            "name": "MainDrum",
            "accType": "RHYTHM",
            "editable": false,
            "mutedNotes": [],
            "mutedChords": [],
            "autoStart": true,
            "sourceChordNote": 0,
            "sourceChordType": "Maj7",
            "ctb2Low": null,
            "ctb2Main": {
              "ntr": "ROOT_FIXED",
              "ntt": "BYPASS",
              "bassOn": false,
              "chordRootUpperLimit": 6,
              "noteLowLimit": 0,
              "noteHighLimit": 127,
              "rtr": "PITCH_SHIFT"
            },
            "ctb2High": null
          },
          "notes": [
            {
              "pitch": 23,
              "velocity": 117,
              "position": 0,
              "duration": 0.00625
            },
            {
              "pitch": 53,
              "velocity": 50,
              "position": 0,
              "duration": 0.00625
            },
            {
              "pitch": 73,
              "velocity": 69,
              "position": 0,
              "duration": 0.00625
            },
            {
              "pitch": 22,
              "velocity": 86,
              "position": 0.5,
              "duration": 0.00625
            },
            {
              "pitch": 73,
              "velocity": 35,
              "position": 0.5,
              "duration": 0.00625
            },
            {
              "pitch": 26,
              "velocity": 103,
              "position": 1,
              "duration": 0.00625
            },
            {
              "pitch": 73,
              "velocity": 100,
              "position": 1,
              "duration": 0.00625
            },
            {
              "pitch": 53,
              "velocity": 72,
              "position": 1.0104166666666667,
              "duration": 0.00625
            },
            {
              "pitch": 31,
              "velocity": 116,
              "position": 2,
              "duration": 0.00625
            },
            {
              "pitch": 53,
              "velocity": 70,
              "position": 2,
              "duration": 0.00625
            },
            {
              "pitch": 73,
              "velocity": 71,
              "position": 2,
              "duration": 0.00625
            },
            {
              "pitch": 53,
              "velocity": 62,
              "position": 2.4895833333333335,
              "duration": 0.00625
            },
            {
              "pitch": 23,
              "velocity": 103,
              "position": 2.5,
              "duration": 0.00625
            },
            {
              "pitch": 73,
              "velocity": 39,
              "position": 2.5,
              "duration": 0.00625
            },
            {
              "pitch": 53,
              "velocity": 71,
              "position": 2.9895833333333335,
              "duration": 0.00625
            },
            {
              "pitch": 24,
              "velocity": 88,
              "position": 3,
              "duration": 0.00625
            },
            {
              "pitch": 73,
              "velocity": 100,
              "position": 3,
              "duration": 0.00625
            }
          ]
        },
        "10": {
          "ctab": {
            "srcChannel": 10,
            "name": "Bass",
            "accType": "BASS",
            "editable": false,
            "mutedNotes": [],
            "mutedChords": [],
            "autoStart": false,
            "sourceChordNote": 0,
            "sourceChordType": "Maj7",
            "ctb2Low": null,
            "ctb2Main": {
              "ntr": "ROOT_TRANSPOSITION",
              "ntt": "MELODY",
              "bassOn": true,
              "chordRootUpperLimit": 4,
              "noteLowLimit": 28,
              "noteHighLimit": 127,
              "rtr": "PITCH_SHIFT_TO_ROOT"
            },
            "ctb2High": null
          },
          "notes": [
            {
              "pitch": 24,
              "velocity": 60,
              "position": 0,
              "duration": 0.975
            },
            {
              "pitch": 24,
              "velocity": 95,
              "position": 1,
              "duration": 0.058333333333333334
            },
            {
              "pitch": 31,
              "velocity": 50,
              "position": 1.5,
              "duration": 0.475
            },
            {
              "pitch": 31,
              "velocity": 60,
              "position": 2,
              "duration": 0.975
            },
            {
              "pitch": 31,
              "velocity": 100,
              "position": 3,
              "duration": 0.058333333333333334
            },
            {
              "pitch": 24,
              "velocity": 50,
              "position": 3.5,
              "duration": 0.475
            }
          ]
        },
        "11": {
          "ctab": {
            "srcChannel": 11,
            "name": "E.Guitar",
            "accType": "CHORD1",
            "editable": false,
            "mutedNotes": [],
            "mutedChords": [],
            "autoStart": false,
            "sourceChordNote": 0,
            "sourceChordType": "Maj7",
            "ctb2Low": null,
            "ctb2Main": {
              "ntr": "ROOT_FIXED",
              "ntt": "MELODY",
              "bassOn": false,
              "chordRootUpperLimit": 7,
              "noteLowLimit": 0,
              "noteHighLimit": 127,
              "rtr": "PITCH_SHIFT"
            },
            "ctb2High": null
          },
          "notes": [
            {
              "pitch": 59,
              "velocity": 88,
              "position": 0,
              "duration": 0.24166666666666667
            },
            {
              "pitch": 59,
              "velocity": 86,
              "position": 1,
              "duration": 0.24166666666666667
            },
            {
              "pitch": 59,
              "velocity": 88,
              "position": 2,
              "duration": 0.4125
            },
            {
              "pitch": 59,
              "velocity": 71,
              "position": 2.5,
              "duration": 0.49166666666666664
            },
            {
              "pitch": 59,
              "velocity": 90,
              "position": 3,
              "duration": 0.08125
            }
          ]
        },
        "12": {
          "ctab": {
            "srcChannel": 12,
            "name": "Organ",
            "accType": "CHORD2",
            "editable": false,
            "mutedNotes": [],
            "mutedChords": [],
            "autoStart": false,
            "sourceChordNote": 0,
            "sourceChordType": "Maj7",
            "ctb2Low": null,
            "ctb2Main": {
              "ntr": "ROOT_FIXED",
              "ntt": "CHORD",
              "bassOn": false,
              "chordRootUpperLimit": 6,
              "noteLowLimit": 60,
              "noteHighLimit": 127,
              "rtr": "PITCH_SHIFT"
            },
            "ctb2High": null
          },
          "notes": [
            {
              "pitch": 59,
              "velocity": 88,
              "position": 2.5,
              "duration": 0.05416666666666667
            },
            {
              "pitch": 67,
              "velocity": 88,
              "position": 2.5,
              "duration": 0.08958333333333333
            },
            {
              "pitch": 64,
              "velocity": 88,
              "position": 2.5,
              "duration": 0.09375
            },
            {
              "pitch": 59,
              "velocity": 88,
              "position": 2.7416666666666667,
              "duration": 0.08333333333333333
            },
            {
              "pitch": 67,
              "velocity": 88,
              "position": 2.7395833333333335,
              "duration": 0.1
            },
            {
              "pitch": 64,
              "velocity": 88,
              "position": 2.7395833333333335,
              "duration": 0.11458333333333333
            },
            {
              "pitch": 59,
              "velocity": 40,
              "position": 2.9916666666666667,
              "duration": 0.20833333333333334
            },
            {
              "pitch": 64,
              "velocity": 77,
              "position": 2.99375,
              "duration": 0.2125
            },
            {
              "pitch": 67,
              "velocity": 77,
              "position": 2.9895833333333335,
              "duration": 0.23125
            },
            {
              "pitch": 59,
              "velocity": 40,
              "position": 3.2395833333333335,
              "duration": 0.20833333333333334
            },
            {
              "pitch": 67,
              "velocity": 40,
              "position": 3.2395833333333335,
              "duration": 0.21041666666666667
            },
            {
              "pitch": 64,
              "velocity": 40,
              "position": 3.2416666666666667,
              "duration": 0.225
            },
            {
              "pitch": 59,
              "velocity": 97,
              "position": 3.48125,
              "duration": 0.1125
            },
            {
              "pitch": 67,
              "velocity": 97,
              "position": 3.4833333333333334,
              "duration": 0.12291666666666666
            },
            {
              "pitch": 64,
              "velocity": 96,
              "position": 3.4791666666666665,
              "duration": 0.13125
            }
          ]
        },
        "13": {
          "ctab": {
            "srcChannel": 13,
            "name": "Brass",
            "accType": "PAD",
            "editable": false,
            "mutedNotes": [],
            "mutedChords": [],
            "autoStart": false,
            "sourceChordNote": 0,
            "sourceChordType": "Maj7",
            "ctb2Low": null,
            "ctb2Main": {
              "ntr": "ROOT_FIXED",
              "ntt": "CHORD",
              "bassOn": false,
              "chordRootUpperLimit": 7,
              "noteLowLimit": 0,
              "noteHighLimit": 127,
              "rtr": "PITCH_SHIFT"
            },
            "ctb2High": null
          },
          "notes": [
            {
              "pitch": 59,
              "velocity": 84,
              "position": 0.010416666666666666,
              "duration": 0.3125
            },
            {
              "pitch": 67,
              "velocity": 112,
              "position": 0.010416666666666666,
              "duration": 0.3125
            },
            {
              "pitch": 64,
              "velocity": 108,
              "position": 0.010416666666666666,
              "duration": 0.3229166666666667
            }
          ]
        },
        "14": {
          "ctab": {
            "srcChannel": 14,
            "name": "Sax",
            "accType": "PHRASE1",
            "editable": false,
            "mutedNotes": [],
            "mutedChords": [],
            "autoStart": false,
            "sourceChordNote": 0,
            "sourceChordType": "Maj7",
            "ctb2Low": null,
            "ctb2Main": {
              "ntr": "ROOT_TRANSPOSITION",
              "ntt": "MELODY",
              "bassOn": false,
              "chordRootUpperLimit": 6,
              "noteLowLimit": 48,
              "noteHighLimit": 59,
              "rtr": "PITCH_SHIFT"
            },
            "ctb2High": null
          },
          "notes": []
        },
        "15": {
          "ctab": {
            "srcChannel": 15,
            "name": "Vib",
            "accType": "PHRASE2",
            "editable": false,
            "mutedNotes": [],
            "mutedChords": [],
            "autoStart": false,
            "sourceChordNote": 0,
            "sourceChordType": "Maj7",
            "ctb2Low": null,
            "ctb2Main": {
              "ntr": "ROOT_TRANSPOSITION",
              "ntt": "CHORD",
              "bassOn": false,
              "chordRootUpperLimit": 7,
              "noteLowLimit": 60,
              "noteHighLimit": 71,
              "rtr": "PITCH_SHIFT"
            },
            "ctb2High": null
          },
          "notes": []
        }
      }
    },
    "Fill_In_CC": {
      "type": "Fill_In_CC",
      "sizeInBeats": 4,
      "channels": {
        "3": {
          "ctab": {
            "srcChannel": 3,
            "name": "Organ rt",
            "accType": "CHORD2",
            "editable": true,
            "mutedNotes": [],
            "mutedChords": [
              "1+2+5",
              "sus4",
              "1+5",
              "1+8",
              "Maj7aug",
              "dim",
              "minMaj7(9)",
              "minMaj7",
              "min6",
              "min",
              "aug",
              "Maj7(9)",
              "Maj7#11",
              "Maj7",
              "Maj6",
              "Maj"
            ],
            "autoStart": false,
            "sourceChordNote": 0,
            "sourceChordType": "Maj7",
            "ctb2Low": null,
            "ctb2Main": {
              "ntr": "ROOT_TRANSPOSITION",
              "ntt": "MELODY",
              "bassOn": false,
              "chordRootUpperLimit": 10,
              "noteLowLimit": 60,
              "noteHighLimit": 74,
              "rtr": "PITCH_SHIFT"
            },
            "ctb2High": null
          },
          "notes": [
            {
              "pitch": 60,
              "velocity": 73,
              "position": 2,
              "duration": 0.3625
            },
            {
              "pitch": 60,
              "velocity": 76,
              "position": 2.5,
              "duration": 0.19791666666666666
            },
            {
              "pitch": 60,
              "velocity": 81,
              "position": 3,
              "duration": 0.5583333333333333
            }
          ]
        },
        "4": {
          "ctab": {
            "srcChannel": 4,
            "name": "Brass rt",
            "accType": "PAD",
            "editable": false,
            "mutedNotes": [],
            "mutedChords": [
              "1+2+5",
              "sus4",
              "1+5",
              "1+8",
              "Maj7aug",
              "dim",
              "minMaj7(9)",
              "minMaj7",
              "min6",
              "min",
              "aug",
              "Maj7(9)",
              "Maj7#11",
              "Maj7",
              "Maj6",
              "Maj"
            ],
            "autoStart": false,
            "sourceChordNote": 0,
            "sourceChordType": "Maj7",
            "ctb2Low": null,
            "ctb2Main": {
              "ntr": "ROOT_TRANSPOSITION",
              "ntt": "MELODY",
              "bassOn": false,
              "chordRootUpperLimit": 10,
              "noteLowLimit": 0,
              "noteHighLimit": 74,
              "rtr": "PITCH_SHIFT"
            },
            "ctb2High": null
          },
          "notes": [
            {
              "pitch": 72,
              "velocity": 85,
              "position": 3.4916666666666667,
              "duration": 0.49375
            }
          ]
        },
        "7": {
          "ctab": {
            "srcChannel": 7,
            "name": "Org Glis",
            "accType": "CHORD2",
            "editable": false,
            "mutedNotes": [],
            "mutedChords": [],
            "autoStart": false,
            "sourceChordNote": 0,
            "sourceChordType": "Maj7",
            "ctb2Low": null,
            "ctb2Main": {
              "ntr": "ROOT_FIXED",
              "ntt": "BYPASS",
              "bassOn": false,
              "chordRootUpperLimit": 6,
              "noteLowLimit": 0,
              "noteHighLimit": 127,
              "rtr": "PITCH_SHIFT"
            },
            "ctb2High": null
          },
          "notes": [
            {
              "pitch": 71,
              "velocity": 99,
              "position": 3.5104166666666665,
              "duration": 0.11041666666666666
            },
            {
              "pitch": 69,
              "velocity": 97,
              "position": 3.5833333333333335,
              "duration": 0.1
            },
            {
              "pitch": 67,
              "velocity": 96,
              "position": 3.6354166666666665,
              "duration": 0.09166666666666666
            },
            {
              "pitch": 65,
              "velocity": 94,
              "position": 3.6770833333333335,
              "duration": 0.10416666666666667
            },
            {
              "pitch": 64,
              "velocity": 93,
              "position": 3.71875,
              "duration": 0.10208333333333333
            },
            {
              "pitch": 62,
              "velocity": 91,
              "position": 3.7604166666666665,
              "duration": 0.08333333333333333
            },
            {
              "pitch": 60,
              "velocity": 90,
              "position": 3.8020833333333335,
              "duration": 0.06875
            },
            {
              "pitch": 59,
              "velocity": 88,
              "position": 3.845833333333333,
              "duration": 0.05
            },
            {
              "pitch": 57,
              "velocity": 87,
              "position": 3.8875,
              "duration": 0.041666666666666664
            }
          ]
        },
        "8": {
          "ctab": {
            "srcChannel": 8,
            "name": "AddDrum",
            "accType": "SUBRHYTHM",
            "editable": false,
            "mutedNotes": [],
            "mutedChords": [],
            "autoStart": true,
            "sourceChordNote": 0,
            "sourceChordType": "Maj7",
            "ctb2Low": null,
            "ctb2Main": {
              "ntr": "ROOT_FIXED",
              "ntt": "BYPASS",
              "bassOn": false,
              "chordRootUpperLimit": 6,
              "noteLowLimit": 0,
              "noteHighLimit": 127,
              "rtr": "PITCH_SHIFT"
            },
            "ctb2High": null
          },
          "notes": [
            {
              "pitch": 56,
              "velocity": 87,
              "position": 0,
              "duration": 0.00625
            },
            {
              "pitch": 65,
              "velocity": 92,
              "position": 0,
              "duration": 0.00625
            },
            {
              "pitch": 65,
              "velocity": 62,
              "position": 0.11666666666666667,
              "duration": 0.00625
            },
            {
              "pitch": 65,
              "velocity": 44,
              "position": 0.23333333333333334,
              "duration": 0.00625
            },
            {
              "pitch": 65,
              "velocity": 34,
              "position": 0.3229166666666667,
              "duration": 0.00625
            },
            {
              "pitch": 65,
              "velocity": 53,
              "position": 0.4083333333333333,
              "duration": 0.00625
            },
            {
              "pitch": 65,
              "velocity": 105,
              "position": 0.5,
              "duration": 0.00625
            },
            {
              "pitch": 65,
              "velocity": 65,
              "position": 0.75,
              "duration": 0.00625
            },
            {
              "pitch": 56,
              "velocity": 118,
              "position": 1,
              "duration": 0.00625
            },
            {
              "pitch": 65,
              "velocity": 72,
              "position": 1,
              "duration": 0.00625
            },
            {
              "pitch": 65,
              "velocity": 91,
              "position": 1.25,
              "duration": 0.00625
            },
            {
              "pitch": 66,
              "velocity": 62,
              "position": 1.4583333333333333,
              "duration": 0.00625
            },
            {
              "pitch": 66,
              "velocity": 105,
              "position": 1.5,
              "duration": 0.00625
            },
            {
              "pitch": 56,
              "velocity": 99,
              "position": 2,
              "duration": 0.00625
            },
            {
              "pitch": 49,
              "velocity": 71,
              "position": 3.502083333333333,
              "duration": 0.20416666666666666
            }
          ]
        },
        "9": {
          "ctab": {
            "srcChannel": 9,
            "name": "MainDrum",
            "accType": "RHYTHM",
            "editable": false,
            "mutedNotes": [],
            "mutedChords": [],
            "autoStart": true,
            "sourceChordNote": 0,
            "sourceChordType": "Maj7",
            "ctb2Low": null,
            "ctb2Main": {
              "ntr": "ROOT_FIXED",
              "ntt": "BYPASS",
              "bassOn": false,
              "chordRootUpperLimit": 6,
              "noteLowLimit": 0,
              "noteHighLimit": 127,
              "rtr": "PITCH_SHIFT"
            },
            "ctb2High": null
          },
          "notes": [
            {
              "pitch": 23,
              "velocity": 117,
              "position": 0,
              "duration": 0.00625
            },
            {
              "pitch": 53,
              "velocity": 67,
              "position": 0,
              "duration": 0.00625
            },
            {
              "pitch": 73,
              "velocity": 69,
              "position": 0,
              "duration": 0.00625
            },
            {
              "pitch": 22,
              "velocity": 86,
              "position": 0.5,
              "duration": 0.00625
            },
            {
              "pitch": 73,
              "velocity": 35,
              "position": 0.5,
              "duration": 0.00625
            },
            {
              "pitch": 26,
              "velocity": 103,
              "position": 1,
              "duration": 0.00625
            },
            {
              "pitch": 53,
              "velocity": 61,
              "position": 1,
              "duration": 0.00625
            },
            {
              "pitch": 73,
              "velocity": 100,
              "position": 1,
              "duration": 0.00625
            },
            {
              "pitch": 31,
              "velocity": 76,
              "position": 1.5,
              "duration": 0.00625
            },
            {
              "pitch": 73,
              "velocity": 38,
              "position": 1.5,
              "duration": 0.00625
            },
            {
              "pitch": 24,
              "velocity": 60,
              "position": 1.9916666666666667,
              "duration": 0.00625
            },
            {
              "pitch": 31,
              "velocity": 116,
              "position": 2,
              "duration": 0.00625
            },
            {
              "pitch": 53,
              "velocity": 55,
              "position": 2,
              "duration": 0.00625
            },
            {
              "pitch": 73,
              "velocity": 71,
              "position": 2,
              "duration": 0.00625
            },
            {
              "pitch": 31,
              "velocity": 51,
              "position": 2.160416666666667,
              "duration": 0.00625
            },
            {
              "pitch": 24,
              "velocity": 35,
              "position": 2.3354166666666667,
              "duration": 0.00625
            },
            {
              "pitch": 31,
              "velocity": 28,
              "position": 2.4895833333333335,
              "duration": 0.00625
            },
            {
              "pitch": 24,
              "velocity": 38,
              "position": 2.625,
              "duration": 0.00625
            },
            {
              "pitch": 31,
              "velocity": 44,
              "position": 2.7604166666666665,
              "duration": 0.00625
            },
            {
              "pitch": 24,
              "velocity": 52,
              "position": 2.8854166666666665,
              "duration": 0.00625
            },
            {
              "pitch": 31,
              "velocity": 58,
              "position": 3.0208333333333335,
              "duration": 0.00625
            },
            {
              "pitch": 24,
              "velocity": 68,
              "position": 3.1354166666666665,
              "duration": 0.00625
            },
            {
              "pitch": 31,
              "velocity": 78,
              "position": 3.2708333333333335,
              "duration": 0.00625
            },
            {
              "pitch": 24,
              "velocity": 92,
              "position": 3.3854166666666665,
              "duration": 0.00625
            },
            {
              "pitch": 31,
              "velocity": 110,
              "position": 3.504166666666667,
              "duration": 0.00625
            },
            {
              "pitch": 24,
              "velocity": 99,
              "position": 3.629166666666667,
              "duration": 0.00625
            },
            {
              "pitch": 31,
              "velocity": 77,
              "position": 3.75,
              "duration": 0.00625
            },
            {
              "pitch": 24,
              "velocity": 65,
              "position": 3.8854166666666665,
              "duration": 0.00625
            }
          ]
        },
        "10": {
          "ctab": {
            "srcChannel": 10,
            "name": "Bass",
            "accType": "BASS",
            "editable": false,
            "mutedNotes": [],
            "mutedChords": [],
            "autoStart": false,
            "sourceChordNote": 0,
            "sourceChordType": "Maj7",
            "ctb2Low": null,
            "ctb2Main": {
              "ntr": "ROOT_TRANSPOSITION",
              "ntt": "MELODY",
              "bassOn": true,
              "chordRootUpperLimit": 4,
              "noteLowLimit": 28,
              "noteHighLimit": 127,
              "rtr": "PITCH_SHIFT_TO_ROOT"
            },
            "ctb2High": null
          },
          "notes": [
            {
              "pitch": 24,
              "velocity": 60,
              "position": 0,
              "duration": 0.975
            },
            {
              "pitch": 24,
              "velocity": 95,
              "position": 1,
              "duration": 0.058333333333333334
            },
            {
              "pitch": 24,
              "velocity": 50,
              "position": 1.5,
              "duration": 0.475
            },
            {
              "pitch": 24,
              "velocity": 60,
              "position": 2,
              "duration": 0.975
            },
            {
              "pitch": 24,
              "velocity": 100,
              "position": 3,
              "duration": 0.058333333333333334
            },
            {
              "pitch": 24,
              "velocity": 50,
              "position": 3.5,
              "duration": 0.475
            }
          ]
        },
        "11": {
          "ctab": {
            "srcChannel": 11,
            "name": "E.Guitar",
            "accType": "CHORD1",
            "editable": false,
            "mutedNotes": [],
            "mutedChords": [],
            "autoStart": false,
            "sourceChordNote": 0,
            "sourceChordType": "Maj7",
            "ctb2Low": null,
            "ctb2Main": {
              "ntr": "ROOT_FIXED",
              "ntt": "MELODY",
              "bassOn": false,
              "chordRootUpperLimit": 7,
              "noteLowLimit": 0,
              "noteHighLimit": 127,
              "rtr": "PITCH_SHIFT"
            },
            "ctb2High": null
          },
          "notes": [
            {
              "pitch": 59,
              "velocity": 88,
              "position": 2,
              "duration": 0.4125
            },
            {
              "pitch": 59,
              "velocity": 71,
              "position": 2.5,
              "duration": 0.49166666666666664
            },
            {
              "pitch": 59,
              "velocity": 90,
              "position": 3,
              "duration": 0.08125
            }
          ]
        },
        "12": {
          "ctab": {
            "srcChannel": 12,
            "name": "Organ",
            "accType": "CHORD2",
            "editable": false,
            "mutedNotes": [],
            "mutedChords": [],
            "autoStart": false,
            "sourceChordNote": 0,
            "sourceChordType": "Maj7",
            "ctb2Low": null,
            "ctb2Main": {
              "ntr": "ROOT_FIXED",
              "ntt": "CHORD",
              "bassOn": false,
              "chordRootUpperLimit": 6,
              "noteLowLimit": 60,
              "noteHighLimit": 127,
              "rtr": "PITCH_SHIFT"
            },
            "ctb2High": null
          },
          "notes": [
            {
              "pitch": 67,
              "velocity": 93,
              "position": 2,
              "duration": 0.33125
            },
            {
              "pitch": 64,
              "velocity": 93,
              "position": 2,
              "duration": 0.35
            },
            {
              "pitch": 59,
              "velocity": 93,
              "position": 2,
              "duration": 0.3625
            },
            {
              "pitch": 64,
              "velocity": 96,
              "position": 2.5,
              "duration": 0.19375
            },
            {
              "pitch": 59,
              "velocity": 96,
              "position": 2.5,
              "duration": 0.19791666666666666
            },
            {
              "pitch": 67,
              "velocity": 96,
              "position": 2.5,
              "duration": 0.20416666666666666
            },
            {
              "pitch": 64,
              "velocity": 104,
              "position": 3,
              "duration": 0.46458333333333335
            },
            {
              "pitch": 59,
              "velocity": 101,
              "position": 3,
              "duration": 0.49583333333333335
            },
            {
              "pitch": 67,
              "velocity": 104,
              "position": 3,
              "duration": 0.5520833333333334
            }
          ]
        },
        "13": {
          "ctab": {
            "srcChannel": 13,
            "name": "Brass",
            "accType": "PAD",
            "editable": false,
            "mutedNotes": [],
            "mutedChords": [],
            "autoStart": false,
            "sourceChordNote": 0,
            "sourceChordType": "Maj7",
            "ctb2Low": null,
            "ctb2Main": {
              "ntr": "ROOT_FIXED",
              "ntt": "CHORD",
              "bassOn": false,
              "chordRootUpperLimit": 7,
              "noteLowLimit": 0,
              "noteHighLimit": 127,
              "rtr": "PITCH_SHIFT"
            },
            "ctb2High": null
          },
          "notes": [
            {
              "pitch": 64,
              "velocity": 109,
              "position": 3.4916666666666667,
              "duration": 0.49375
            },
            {
              "pitch": 71,
              "velocity": 84,
              "position": 3.4916666666666667,
              "duration": 0.49375
            },
            {
              "pitch": 67,
              "velocity": 109,
              "position": 3.4916666666666667,
              "duration": 0.4979166666666667
            }
          ]
        },
        "14": {
          "ctab": {
            "srcChannel": 14,
            "name": "Sax",
            "accType": "PHRASE1",
            "editable": false,
            "mutedNotes": [],
            "mutedChords": [],
            "autoStart": false,
            "sourceChordNote": 0,
            "sourceChordType": "Maj7",
            "ctb2Low": null,
            "ctb2Main": {
              "ntr": "ROOT_TRANSPOSITION",
              "ntt": "MELODY",
              "bassOn": false,
              "chordRootUpperLimit": 6,
              "noteLowLimit": 48,
              "noteHighLimit": 59,
              "rtr": "PITCH_SHIFT"
            },
            "ctb2High": null
          },
          "notes": []
        },
        "15": {
          "ctab": {
            "srcChannel": 15,
            "name": "Vib",
            "accType": "PHRASE2",
            "editable": false,
            "mutedNotes": [],
            "mutedChords": [],
            "autoStart": false,
            "sourceChordNote": 0,
            "sourceChordType": "Maj7",
            "ctb2Low": null,
            "ctb2Main": {
              "ntr": "ROOT_TRANSPOSITION",
              "ntt": "CHORD",
              "bassOn": false,
              "chordRootUpperLimit": 7,
              "noteLowLimit": 60,
              "noteHighLimit": 71,
              "rtr": "PITCH_SHIFT"
            },
            "ctb2High": null
          },
          "notes": []
        }
      }
    },
    "Intro_A": {
      "type": "Intro_A",
      "sizeInBeats": 4,
      "channels": {
        "3": {
          "ctab": {
            "srcChannel": 3,
            "name": "Organ rt",
            "accType": "CHORD2",
            "editable": true,
            "mutedNotes": [],
            "mutedChords": [
              "1+2+5",
              "sus4",
              "1+5",
              "1+8",
              "Maj7aug",
              "dim",
              "minMaj7(9)",
              "minMaj7",
              "min6",
              "min",
              "aug",
              "Maj7(9)",
              "Maj7#11",
              "Maj7",
              "Maj6",
              "Maj"
            ],
            "autoStart": false,
            "sourceChordNote": 0,
            "sourceChordType": "Maj7",
            "ctb2Low": null,
            "ctb2Main": {
              "ntr": "ROOT_TRANSPOSITION",
              "ntt": "MELODY",
              "bassOn": false,
              "chordRootUpperLimit": 10,
              "noteLowLimit": 60,
              "noteHighLimit": 74,
              "rtr": "PITCH_SHIFT"
            },
            "ctb2High": null
          },
          "notes": []
        },
        "4": {
          "ctab": {
            "srcChannel": 4,
            "name": "Brass rt",
            "accType": "PAD",
            "editable": false,
            "mutedNotes": [],
            "mutedChords": [
              "1+2+5",
              "sus4",
              "1+5",
              "1+8",
              "Maj7aug",
              "dim",
              "minMaj7(9)",
              "minMaj7",
              "min6",
              "min",
              "aug",
              "Maj7(9)",
              "Maj7#11",
              "Maj7",
              "Maj6",
              "Maj"
            ],
            "autoStart": false,
            "sourceChordNote": 0,
            "sourceChordType": "Maj7",
            "ctb2Low": null,
            "ctb2Main": {
              "ntr": "ROOT_TRANSPOSITION",
              "ntt": "MELODY",
              "bassOn": false,
              "chordRootUpperLimit": 10,
              "noteLowLimit": 0,
              "noteHighLimit": 74,
              "rtr": "PITCH_SHIFT"
            },
            "ctb2High": null
          },
          "notes": []
        },
        "7": {
          "ctab": {
            "srcChannel": 7,
            "name": "Org Glis",
            "accType": "CHORD2",
            "editable": false,
            "mutedNotes": [],
            "mutedChords": [],
            "autoStart": false,
            "sourceChordNote": 0,
            "sourceChordType": "Maj7",
            "ctb2Low": null,
            "ctb2Main": {
              "ntr": "ROOT_FIXED",
              "ntt": "BYPASS",
              "bassOn": false,
              "chordRootUpperLimit": 6,
              "noteLowLimit": 0,
              "noteHighLimit": 127,
              "rtr": "PITCH_SHIFT"
            },
            "ctb2High": null
          },
          "notes": []
        },
        "8": {
          "ctab": {
            "srcChannel": 8,
            "name": "AddDrum",
            "accType": "SUBRHYTHM",
            "editable": false,
            "mutedNotes": [],
            "mutedChords": [],
            "autoStart": true,
            "sourceChordNote": 0,
            "sourceChordType": "Maj7",
            "ctb2Low": null,
            "ctb2Main": {
              "ntr": "ROOT_FIXED",
              "ntt": "BYPASS",
              "bassOn": false,
              "chordRootUpperLimit": 6,
              "noteLowLimit": 0,
              "noteHighLimit": 127,
              "rtr": "PITCH_SHIFT"
            },
            "ctb2High": null
          },
          "notes": [
            {
              "pitch": 56,
              "velocity": 86,
              "position": 0,
              "duration": 0.00625
            },
            {
              "pitch": 56,
              "velocity": 120,
              "position": 1,
              "duration": 0.00625
            },
            {
              "pitch": 56,
              "velocity": 24,
              "position": 1.7604166666666667,
              "duration": 0.00625
            },
            {
              "pitch": 56,
              "velocity": 108,
              "position": 2,
              "duration": 0.00625
            },
            {
              "pitch": 56,
              "velocity": 51,
              "position": 2.5,
              "duration": 0.00625
            },
            {
              "pitch": 56,
              "velocity": 120,
              "position": 3,
              "duration": 0.00625
            }
          ]
        },
        "9": {
          "ctab": {
            "srcChannel": 9,
            "name": "MainDrum",
            "accType": "RHYTHM",
            "editable": false,
            "mutedNotes": [],
            "mutedChords": [],
            "autoStart": true,
            "sourceChordNote": 0,
            "sourceChordType": "Maj7",
            "ctb2Low": null,
            "ctb2Main": {
              "ntr": "ROOT_FIXED",
              "ntt": "BYPASS",
              "bassOn": false,
              "chordRootUpperLimit": 6,
              "noteLowLimit": 0,
              "noteHighLimit": 127,
              "rtr": "PITCH_SHIFT"
            },
            "ctb2High": null
          },
          "notes": []
        },
        "10": {
          "ctab": {
            "srcChannel": 10,
            "name": "Bass",
            "accType": "BASS",
            "editable": false,
            "mutedNotes": [],
            "mutedChords": [],
            "autoStart": false,
            "sourceChordNote": 0,
            "sourceChordType": "Maj7",
            "ctb2Low": null,
            "ctb2Main": {
              "ntr": "ROOT_TRANSPOSITION",
              "ntt": "MELODY",
              "bassOn": true,
              "chordRootUpperLimit": 4,
              "noteLowLimit": 28,
              "noteHighLimit": 127,
              "rtr": "PITCH_SHIFT_TO_ROOT"
            },
            "ctb2High": null
          },
          "notes": []
        },
        "11": {
          "ctab": {
            "srcChannel": 11,
            "name": "E.Guitar",
            "accType": "CHORD1",
            "editable": false,
            "mutedNotes": [],
            "mutedChords": [],
            "autoStart": false,
            "sourceChordNote": 0,
            "sourceChordType": "Maj7",
            "ctb2Low": null,
            "ctb2Main": {
              "ntr": "ROOT_FIXED",
              "ntt": "MELODY",
              "bassOn": false,
              "chordRootUpperLimit": 7,
              "noteLowLimit": 0,
              "noteHighLimit": 127,
              "rtr": "PITCH_SHIFT"
            },
            "ctb2High": null
          },
          "notes": []
        },
        "12": {
          "ctab": {
            "srcChannel": 12,
            "name": "Organ",
            "accType": "CHORD2",
            "editable": false,
            "mutedNotes": [],
            "mutedChords": [],
            "autoStart": false,
            "sourceChordNote": 0,
            "sourceChordType": "Maj7",
            "ctb2Low": null,
            "ctb2Main": {
              "ntr": "ROOT_FIXED",
              "ntt": "CHORD",
              "bassOn": false,
              "chordRootUpperLimit": 6,
              "noteLowLimit": 60,
              "noteHighLimit": 127,
              "rtr": "PITCH_SHIFT"
            },
            "ctb2High": null
          },
          "notes": []
        },
        "13": {
          "ctab": {
            "srcChannel": 13,
            "name": "Brass",
            "accType": "PAD",
            "editable": false,
            "mutedNotes": [],
            "mutedChords": [],
            "autoStart": false,
            "sourceChordNote": 0,
            "sourceChordType": "Maj7",
            "ctb2Low": null,
            "ctb2Main": {
              "ntr": "ROOT_FIXED",
              "ntt": "CHORD",
              "bassOn": false,
              "chordRootUpperLimit": 7,
              "noteLowLimit": 0,
              "noteHighLimit": 127,
              "rtr": "PITCH_SHIFT"
            },
            "ctb2High": null
          },
          "notes": []
        },
        "14": {
          "ctab": {
            "srcChannel": 14,
            "name": "Sax",
            "accType": "PHRASE1",
            "editable": false,
            "mutedNotes": [],
            "mutedChords": [],
            "autoStart": false,
            "sourceChordNote": 0,
            "sourceChordType": "Maj7",
            "ctb2Low": null,
            "ctb2Main": {
              "ntr": "ROOT_TRANSPOSITION",
              "ntt": "MELODY",
              "bassOn": false,
              "chordRootUpperLimit": 6,
              "noteLowLimit": 48,
              "noteHighLimit": 59,
              "rtr": "PITCH_SHIFT"
            },
            "ctb2High": null
          },
          "notes": []
        },
        "15": {
          "ctab": {
            "srcChannel": 15,
            "name": "Vib",
            "accType": "PHRASE2",
            "editable": false,
            "mutedNotes": [],
            "mutedChords": [],
            "autoStart": false,
            "sourceChordNote": 0,
            "sourceChordType": "Maj7",
            "ctb2Low": null,
            "ctb2Main": {
              "ntr": "ROOT_TRANSPOSITION",
              "ntt": "CHORD",
              "bassOn": false,
              "chordRootUpperLimit": 7,
              "noteLowLimit": 60,
              "noteHighLimit": 71,
              "rtr": "PITCH_SHIFT"
            },
            "ctb2High": null
          },
          "notes": []
        }
      }
    },
    "Fill_In_BA": {
      "type": "Fill_In_BA",
      "sizeInBeats": 4,
      "channels": {
        "3": {
          "ctab": {
            "srcChannel": 3,
            "name": "Organ rt",
            "accType": "CHORD2",
            "editable": true,
            "mutedNotes": [],
            "mutedChords": [
              "1+2+5",
              "sus4",
              "1+5",
              "1+8",
              "Maj7aug",
              "dim",
              "minMaj7(9)",
              "minMaj7",
              "min6",
              "min",
              "aug",
              "Maj7(9)",
              "Maj7#11",
              "Maj7",
              "Maj6",
              "Maj"
            ],
            "autoStart": false,
            "sourceChordNote": 0,
            "sourceChordType": "Maj7",
            "ctb2Low": null,
            "ctb2Main": {
              "ntr": "ROOT_TRANSPOSITION",
              "ntt": "MELODY",
              "bassOn": false,
              "chordRootUpperLimit": 10,
              "noteLowLimit": 60,
              "noteHighLimit": 74,
              "rtr": "PITCH_SHIFT"
            },
            "ctb2High": null
          },
          "notes": [
            {
              "pitch": 60,
              "velocity": 61,
              "position": 0.0125,
              "duration": 0.5583333333333333
            }
          ]
        },
        "4": {
          "ctab": {
            "srcChannel": 4,
            "name": "Brass rt",
            "accType": "PAD",
            "editable": false,
            "mutedNotes": [],
            "mutedChords": [
              "1+2+5",
              "sus4",
              "1+5",
              "1+8",
              "Maj7aug",
              "dim",
              "minMaj7(9)",
              "minMaj7",
              "min6",
              "min",
              "aug",
              "Maj7(9)",
              "Maj7#11",
              "Maj7",
              "Maj6",
              "Maj"
            ],
            "autoStart": false,
            "sourceChordNote": 0,
            "sourceChordType": "Maj7",
            "ctb2Low": null,
            "ctb2Main": {
              "ntr": "ROOT_TRANSPOSITION",
              "ntt": "MELODY",
              "bassOn": false,
              "chordRootUpperLimit": 10,
              "noteLowLimit": 0,
              "noteHighLimit": 74,
              "rtr": "PITCH_SHIFT"
            },
            "ctb2High": null
          },
          "notes": []
        },
        "7": {
          "ctab": {
            "srcChannel": 7,
            "name": "Org Glis",
            "accType": "CHORD2",
            "editable": false,
            "mutedNotes": [],
            "mutedChords": [],
            "autoStart": false,
            "sourceChordNote": 0,
            "sourceChordType": "Maj7",
            "ctb2Low": null,
            "ctb2Main": {
              "ntr": "ROOT_FIXED",
              "ntt": "BYPASS",
              "bassOn": false,
              "chordRootUpperLimit": 6,
              "noteLowLimit": 0,
              "noteHighLimit": 127,
              "rtr": "PITCH_SHIFT"
            },
            "ctb2High": null
          },
          "notes": [
            {
              "pitch": 65,
              "velocity": 65,
              "position": 0.5729166666666666,
              "duration": 0.0375
            },
            {
              "pitch": 64,
              "velocity": 92,
              "position": 0.6270833333333333,
              "duration": 0.035416666666666666
            },
            {
              "pitch": 62,
              "velocity": 79,
              "position": 0.68125,
              "duration": 0.03958333333333333
            }
          ]
        },
        "8": {
          "ctab": {
            "srcChannel": 8,
            "name": "AddDrum",
            "accType": "SUBRHYTHM",
            "editable": false,
            "mutedNotes": [],
            "mutedChords": [],
            "autoStart": true,
            "sourceChordNote": 0,
            "sourceChordType": "Maj7",
            "ctb2Low": null,
            "ctb2Main": {
              "ntr": "ROOT_FIXED",
              "ntt": "BYPASS",
              "bassOn": false,
              "chordRootUpperLimit": 6,
              "noteLowLimit": 0,
              "noteHighLimit": 127,
              "rtr": "PITCH_SHIFT"
            },
            "ctb2High": null
          },
          "notes": [
            {
              "pitch": 56,
              "velocity": 100,
              "position": 1,
              "duration": 0.00625
            },
            {
              "pitch": 56,
              "velocity": 63,
              "position": 1.5,
              "duration": 0.00625
            },
            {
              "pitch": 56,
              "velocity": 102,
              "position": 2,
              "duration": 0.00625
            },
            {
              "pitch": 65,
              "velocity": 80,
              "position": 2.7416666666666667,
              "duration": 0.00625
            },
            {
              "pitch": 65,
              "velocity": 26,
              "position": 2.8229166666666665,
              "duration": 0.00625
            },
            {
              "pitch": 65,
              "velocity": 64,
              "position": 2.8958333333333335,
              "duration": 0.00625
            },
            {
              "pitch": 65,
              "velocity": 105,
              "position": 3,
              "duration": 0.00625
            }
          ]
        },
        "9": {
          "ctab": {
            "srcChannel": 9,
            "name": "MainDrum",
            "accType": "RHYTHM",
            "editable": false,
            "mutedNotes": [],
            "mutedChords": [],
            "autoStart": true,
            "sourceChordNote": 0,
            "sourceChordType": "Maj7",
            "ctb2Low": null,
            "ctb2Main": {
              "ntr": "ROOT_FIXED",
              "ntt": "BYPASS",
              "bassOn": false,
              "chordRootUpperLimit": 6,
              "noteLowLimit": 0,
              "noteHighLimit": 127,
              "rtr": "PITCH_SHIFT"
            },
            "ctb2High": null
          },
          "notes": [
            {
              "pitch": 53,
              "velocity": 86,
              "position": 1,
              "duration": 0.00625
            },
            {
              "pitch": 64,
              "velocity": 67,
              "position": 1,
              "duration": 0.00625
            },
            {
              "pitch": 73,
              "velocity": 100,
              "position": 1,
              "duration": 0.00625
            },
            {
              "pitch": 53,
              "velocity": 86,
              "position": 1.5,
              "duration": 0.00625
            },
            {
              "pitch": 64,
              "velocity": 76,
              "position": 1.5,
              "duration": 0.00625
            },
            {
              "pitch": 73,
              "velocity": 33,
              "position": 1.5,
              "duration": 0.00625
            },
            {
              "pitch": 53,
              "velocity": 113,
              "position": 2,
              "duration": 0.00625
            },
            {
              "pitch": 64,
              "velocity": 72,
              "position": 2,
              "duration": 0.00625
            },
            {
              "pitch": 73,
              "velocity": 76,
              "position": 2,
              "duration": 0.00625
            }
          ]
        },
        "10": {
          "ctab": {
            "srcChannel": 10,
            "name": "Bass",
            "accType": "BASS",
            "editable": false,
            "mutedNotes": [],
            "mutedChords": [],
            "autoStart": false,
            "sourceChordNote": 0,
            "sourceChordType": "Maj7",
            "ctb2Low": null,
            "ctb2Main": {
              "ntr": "ROOT_TRANSPOSITION",
              "ntt": "MELODY",
              "bassOn": true,
              "chordRootUpperLimit": 4,
              "noteLowLimit": 28,
              "noteHighLimit": 127,
              "rtr": "PITCH_SHIFT_TO_ROOT"
            },
            "ctb2High": null
          },
          "notes": [
            {
              "pitch": 24,
              "velocity": 60,
              "position": 0,
              "duration": 0.975
            },
            {
              "pitch": 24,
              "velocity": 95,
              "position": 1,
              "duration": 0.058333333333333334
            },
            {
              "pitch": 97,
              "velocity": 80,
              "position": 2.49375,
              "duration": 1.4854166666666666
            }
          ]
        },
        "11": {
          "ctab": {
            "srcChannel": 11,
            "name": "E.Guitar",
            "accType": "CHORD1",
            "editable": false,
            "mutedNotes": [],
            "mutedChords": [],
            "autoStart": false,
            "sourceChordNote": 0,
            "sourceChordType": "Maj7",
            "ctb2Low": null,
            "ctb2Main": {
              "ntr": "ROOT_FIXED",
              "ntt": "MELODY",
              "bassOn": false,
              "chordRootUpperLimit": 7,
              "noteLowLimit": 0,
              "noteHighLimit": 127,
              "rtr": "PITCH_SHIFT"
            },
            "ctb2High": null
          },
          "notes": []
        },
        "12": {
          "ctab": {
            "srcChannel": 12,
            "name": "Organ",
            "accType": "CHORD2",
            "editable": false,
            "mutedNotes": [],
            "mutedChords": [],
            "autoStart": false,
            "sourceChordNote": 0,
            "sourceChordType": "Maj7",
            "ctb2Low": null,
            "ctb2Main": {
              "ntr": "ROOT_FIXED",
              "ntt": "CHORD",
              "bassOn": false,
              "chordRootUpperLimit": 6,
              "noteLowLimit": 60,
              "noteHighLimit": 127,
              "rtr": "PITCH_SHIFT"
            },
            "ctb2High": null
          },
          "notes": [
            {
              "pitch": 59,
              "velocity": 87,
              "position": 0.0125,
              "duration": 0.5583333333333333
            },
            {
              "pitch": 64,
              "velocity": 87,
              "position": 0.0125,
              "duration": 0.5916666666666667
            },
            {
              "pitch": 67,
              "velocity": 87,
              "position": 0.0125,
              "duration": 0.63125
            }
          ]
        },
        "13": {
          "ctab": {
            "srcChannel": 13,
            "name": "Brass",
            "accType": "PAD",
            "editable": false,
            "mutedNotes": [],
            "mutedChords": [],
            "autoStart": false,
            "sourceChordNote": 0,
            "sourceChordType": "Maj7",
            "ctb2Low": null,
            "ctb2Main": {
              "ntr": "ROOT_FIXED",
              "ntt": "CHORD",
              "bassOn": false,
              "chordRootUpperLimit": 7,
              "noteLowLimit": 0,
              "noteHighLimit": 127,
              "rtr": "PITCH_SHIFT"
            },
            "ctb2High": null
          },
          "notes": []
        },
        "14": {
          "ctab": {
            "srcChannel": 14,
            "name": "Sax",
            "accType": "PHRASE1",
            "editable": false,
            "mutedNotes": [],
            "mutedChords": [],
            "autoStart": false,
            "sourceChordNote": 0,
            "sourceChordType": "Maj7",
            "ctb2Low": null,
            "ctb2Main": {
              "ntr": "ROOT_TRANSPOSITION",
              "ntt": "MELODY",
              "bassOn": false,
              "chordRootUpperLimit": 6,
              "noteLowLimit": 48,
              "noteHighLimit": 59,
              "rtr": "PITCH_SHIFT"
            },
            "ctb2High": null
          },
          "notes": []
        },
        "15": {
          "ctab": {
            "srcChannel": 15,
            "name": "Vib",
            "accType": "PHRASE2",
            "editable": false,
            "mutedNotes": [],
            "mutedChords": [],
            "autoStart": false,
            "sourceChordNote": 0,
            "sourceChordType": "Maj7",
            "ctb2Low": null,
            "ctb2Main": {
              "ntr": "ROOT_TRANSPOSITION",
              "ntt": "CHORD",
              "bassOn": false,
              "chordRootUpperLimit": 7,
              "noteLowLimit": 60,
              "noteHighLimit": 71,
              "rtr": "PITCH_SHIFT"
            },
            "ctb2High": null
          },
          "notes": []
        }
      }
    },
    "Fill_In_DD": {
      "type": "Fill_In_DD",
      "sizeInBeats": 4,
      "channels": {
        "3": {
          "ctab": {
            "srcChannel": 3,
            "name": "Organ rt",
            "accType": "CHORD2",
            "editable": false,
            "mutedNotes": [],
            "mutedChords": [
              "1+2+5",
              "sus4",
              "1+5",
              "1+8",
              "Maj7aug",
              "dim",
              "minMaj7(9)",
              "minMaj7",
              "min6",
              "min",
              "aug",
              "Maj7(9)",
              "Maj7#11",
              "Maj7",
              "Maj6",
              "Maj"
            ],
            "autoStart": false,
            "sourceChordNote": 0,
            "sourceChordType": "Maj7",
            "ctb2Low": null,
            "ctb2Main": {
              "ntr": "ROOT_TRANSPOSITION",
              "ntt": "MELODY",
              "bassOn": false,
              "chordRootUpperLimit": 10,
              "noteLowLimit": 0,
              "noteHighLimit": 74,
              "rtr": "PITCH_SHIFT"
            },
            "ctb2High": null
          },
          "notes": [
            {
              "pitch": 72,
              "velocity": 75,
              "position": 2.002083333333333,
              "duration": 0.4666666666666667
            },
            {
              "pitch": 72,
              "velocity": 76,
              "position": 2.5,
              "duration": 0.24583333333333332
            },
            {
              "pitch": 72,
              "velocity": 77,
              "position": 3,
              "duration": 0.40625
            }
          ]
        },
        "7": {
          "ctab": {
            "srcChannel": 7,
            "name": "Org Glis",
            "accType": "CHORD2",
            "editable": false,
            "mutedNotes": [],
            "mutedChords": [],
            "autoStart": false,
            "sourceChordNote": 0,
            "sourceChordType": "Maj7",
            "ctb2Low": null,
            "ctb2Main": {
              "ntr": "ROOT_FIXED",
              "ntt": "BYPASS",
              "bassOn": false,
              "chordRootUpperLimit": 6,
              "noteLowLimit": 0,
              "noteHighLimit": 127,
              "rtr": "PITCH_SHIFT"
            },
            "ctb2High": null
          },
          "notes": [
            {
              "pitch": 60,
              "velocity": 65,
              "position": 1.5729166666666667,
              "duration": 0.12083333333333333
            },
            {
              "pitch": 62,
              "velocity": 68,
              "position": 1.65,
              "duration": 0.11875
            },
            {
              "pitch": 64,
              "velocity": 72,
              "position": 1.7291666666666667,
              "duration": 0.12083333333333333
            },
            {
              "pitch": 65,
              "velocity": 90,
              "position": 1.79375,
              "duration": 0.09791666666666667
            },
            {
              "pitch": 67,
              "velocity": 92,
              "position": 1.8583333333333334,
              "duration": 0.1
            },
            {
              "pitch": 69,
              "velocity": 93,
              "position": 1.9166666666666667,
              "duration": 0.11666666666666667
            },
            {
              "pitch": 74,
              "velocity": 66,
              "position": 3.40625,
              "duration": 0.1
            },
            {
              "pitch": 71,
              "velocity": 98,
              "position": 3.5,
              "duration": 0.03333333333333333
            },
            {
              "pitch": 72,
              "velocity": 99,
              "position": 3.4583333333333335,
              "duration": 0.08125
            },
            {
              "pitch": 69,
              "velocity": 97,
              "position": 3.53125,
              "duration": 0.027083333333333334
            },
            {
              "pitch": 67,
              "velocity": 95,
              "position": 3.566666666666667,
              "duration": 0.025
            },
            {
              "pitch": 65,
              "velocity": 94,
              "position": 3.6041666666666665,
              "duration": 0.029166666666666667
            },
            {
              "pitch": 69,
              "velocity": 92,
              "position": 3.627083333333333,
              "duration": 0.052083333333333336
            },
            {
              "pitch": 64,
              "velocity": 92,
              "position": 3.6395833333333334,
              "duration": 0.04375
            },
            {
              "pitch": 67,
              "velocity": 91,
              "position": 3.6708333333333334,
              "duration": 0.05
            },
            {
              "pitch": 62,
              "velocity": 90,
              "position": 3.6875,
              "duration": 0.03958333333333333
            },
            {
              "pitch": 65,
              "velocity": 89,
              "position": 3.7083333333333335,
              "duration": 0.04791666666666667
            }
          ]
        },
        "8": {
          "ctab": {
            "srcChannel": 8,
            "name": "AddDrum",
            "accType": "SUBRHYTHM",
            "editable": false,
            "mutedNotes": [],
            "mutedChords": [],
            "autoStart": true,
            "sourceChordNote": 0,
            "sourceChordType": "Maj7",
            "ctb2Low": null,
            "ctb2Main": {
              "ntr": "ROOT_FIXED",
              "ntt": "BYPASS",
              "bassOn": false,
              "chordRootUpperLimit": 6,
              "noteLowLimit": 0,
              "noteHighLimit": 127,
              "rtr": "PITCH_SHIFT"
            },
            "ctb2High": null
          },
          "notes": [
            {
              "pitch": 76,
              "velocity": 85,
              "position": 0,
              "duration": 0.00625
            },
            {
              "pitch": 56,
              "velocity": 87,
              "position": 0.00625,
              "duration": 0.004166666666666667
            },
            {
              "pitch": 56,
              "velocity": 118,
              "position": 1,
              "duration": 0.00625
            },
            {
              "pitch": 76,
              "velocity": 85,
              "position": 1,
              "duration": 0.00625
            },
            {
              "pitch": 65,
              "velocity": 105,
              "position": 1.53125,
              "duration": 0.00625
            },
            {
              "pitch": 65,
              "velocity": 83,
              "position": 1.75,
              "duration": 0.00625
            },
            {
              "pitch": 65,
              "velocity": 68,
              "position": 1.9479166666666667,
              "duration": 0.00625
            },
            {
              "pitch": 56,
              "velocity": 86,
              "position": 2,
              "duration": 0.00625
            },
            {
              "pitch": 76,
              "velocity": 85,
              "position": 2,
              "duration": 0.00625
            },
            {
              "pitch": 65,
              "velocity": 105,
              "position": 2.004166666666667,
              "duration": 0.00625
            },
            {
              "pitch": 65,
              "velocity": 67,
              "position": 2.4583333333333335,
              "duration": 0.00625
            },
            {
              "pitch": 65,
              "velocity": 105,
              "position": 2.49375,
              "duration": 0.00625
            },
            {
              "pitch": 56,
              "velocity": 63,
              "position": 2.5,
              "duration": 0.00625
            },
            {
              "pitch": 76,
              "velocity": 71,
              "position": 2.5,
              "duration": 0.00625
            },
            {
              "pitch": 65,
              "velocity": 74,
              "position": 2.9604166666666667,
              "duration": 0.00625
            },
            {
              "pitch": 56,
              "velocity": 120,
              "position": 3,
              "duration": 0.00625
            },
            {
              "pitch": 65,
              "velocity": 105,
              "position": 3,
              "duration": 0.00625
            },
            {
              "pitch": 76,
              "velocity": 85,
              "position": 3,
              "duration": 0.00625
            }
          ]
        },
        "9": {
          "ctab": {
            "srcChannel": 9,
            "name": "MainDrum",
            "accType": "RHYTHM",
            "editable": false,
            "mutedNotes": [],
            "mutedChords": [],
            "autoStart": true,
            "sourceChordNote": 0,
            "sourceChordType": "Maj7",
            "ctb2Low": null,
            "ctb2Main": {
              "ntr": "ROOT_FIXED",
              "ntt": "BYPASS",
              "bassOn": false,
              "chordRootUpperLimit": 6,
              "noteLowLimit": 0,
              "noteHighLimit": 127,
              "rtr": "PITCH_SHIFT"
            },
            "ctb2High": null
          },
          "notes": [
            {
              "pitch": 24,
              "velocity": 105,
              "position": 0,
              "duration": 0.00625
            },
            {
              "pitch": 73,
              "velocity": 69,
              "position": 0,
              "duration": 0.00625
            },
            {
              "pitch": 31,
              "velocity": 51,
              "position": 0.16666666666666666,
              "duration": 0.00625
            },
            {
              "pitch": 24,
              "velocity": 35,
              "position": 0.34375,
              "duration": 0.00625
            },
            {
              "pitch": 31,
              "velocity": 28,
              "position": 0.4895833333333333,
              "duration": 0.00625
            },
            {
              "pitch": 73,
              "velocity": 35,
              "position": 0.5,
              "duration": 0.00625
            },
            {
              "pitch": 24,
              "velocity": 38,
              "position": 0.6270833333333333,
              "duration": 0.00625
            },
            {
              "pitch": 31,
              "velocity": 44,
              "position": 0.7625,
              "duration": 0.00625
            },
            {
              "pitch": 24,
              "velocity": 52,
              "position": 0.8854166666666666,
              "duration": 0.00625
            },
            {
              "pitch": 73,
              "velocity": 100,
              "position": 1,
              "duration": 0.00625
            },
            {
              "pitch": 53,
              "velocity": 76,
              "position": 1.0104166666666667,
              "duration": 0.00625
            },
            {
              "pitch": 31,
              "velocity": 58,
              "position": 1.0208333333333333,
              "duration": 0.00625
            },
            {
              "pitch": 24,
              "velocity": 68,
              "position": 1.1354166666666667,
              "duration": 0.00625
            },
            {
              "pitch": 31,
              "velocity": 78,
              "position": 1.2708333333333333,
              "duration": 0.00625
            },
            {
              "pitch": 24,
              "velocity": 92,
              "position": 1.3854166666666667,
              "duration": 0.00625
            },
            {
              "pitch": 73,
              "velocity": 38,
              "position": 1.5,
              "duration": 0.00625
            },
            {
              "pitch": 31,
              "velocity": 110,
              "position": 1.5104166666666667,
              "duration": 0.00625
            },
            {
              "pitch": 24,
              "velocity": 99,
              "position": 1.6354166666666667,
              "duration": 0.00625
            },
            {
              "pitch": 31,
              "velocity": 77,
              "position": 1.75,
              "duration": 0.00625
            },
            {
              "pitch": 24,
              "velocity": 65,
              "position": 1.8854166666666667,
              "duration": 0.00625
            },
            {
              "pitch": 24,
              "velocity": 60,
              "position": 2,
              "duration": 0.00625
            },
            {
              "pitch": 53,
              "velocity": 75,
              "position": 2,
              "duration": 0.00625
            },
            {
              "pitch": 73,
              "velocity": 71,
              "position": 2,
              "duration": 0.00625
            },
            {
              "pitch": 64,
              "velocity": 70,
              "position": 3.5,
              "duration": 0.00625
            },
            {
              "pitch": 73,
              "velocity": 39,
              "position": 3.5,
              "duration": 0.00625
            },
            {
              "pitch": 31,
              "velocity": 110,
              "position": 3.5145833333333334,
              "duration": 0.00625
            },
            {
              "pitch": 53,
              "velocity": 61,
              "position": 3.9916666666666667,
              "duration": 0.004166666666666667
            }
          ]
        },
        "10": {
          "ctab": {
            "srcChannel": 10,
            "name": "Bass",
            "accType": "BASS",
            "editable": false,
            "mutedNotes": [],
            "mutedChords": [],
            "autoStart": false,
            "sourceChordNote": 0,
            "sourceChordType": "Maj7",
            "ctb2Low": null,
            "ctb2Main": {
              "ntr": "ROOT_TRANSPOSITION",
              "ntt": "MELODY",
              "bassOn": true,
              "chordRootUpperLimit": 4,
              "noteLowLimit": 28,
              "noteHighLimit": 127,
              "rtr": "PITCH_SHIFT_TO_ROOT"
            },
            "ctb2High": null
          },
          "notes": [
            {
              "pitch": 24,
              "velocity": 60,
              "position": 0,
              "duration": 0.975
            },
            {
              "pitch": 24,
              "velocity": 95,
              "position": 1,
              "duration": 0.058333333333333334
            },
            {
              "pitch": 31,
              "velocity": 50,
              "position": 1.5,
              "duration": 0.475
            },
            {
              "pitch": 36,
              "velocity": 60,
              "position": 2,
              "duration": 0.48541666666666666
            },
            {
              "pitch": 36,
              "velocity": 100,
              "position": 2.5,
              "duration": 0.058333333333333334
            },
            {
              "pitch": 101,
              "velocity": 100,
              "position": 3,
              "duration": 0.9854166666666667
            }
          ]
        },
        "11": {
          "ctab": {
            "srcChannel": 11,
            "name": "E.Guitar",
            "accType": "CHORD1",
            "editable": false,
            "mutedNotes": [],
            "mutedChords": [],
            "autoStart": false,
            "sourceChordNote": 0,
            "sourceChordType": "Maj7",
            "ctb2Low": null,
            "ctb2Main": {
              "ntr": "ROOT_FIXED",
              "ntt": "CHORD",
              "bassOn": false,
              "chordRootUpperLimit": 7,
              "noteLowLimit": 0,
              "noteHighLimit": 127,
              "rtr": "PITCH_SHIFT"
            },
            "ctb2High": null
          },
          "notes": [
            {
              "pitch": 59,
              "velocity": 88,
              "position": 0,
              "duration": 0.24166666666666667
            },
            {
              "pitch": 59,
              "velocity": 86,
              "position": 1,
              "duration": 0.24166666666666667
            },
            {
              "pitch": 59,
              "velocity": 88,
              "position": 2,
              "duration": 0.4125
            },
            {
              "pitch": 59,
              "velocity": 71,
              "position": 2.5,
              "duration": 0.49166666666666664
            },
            {
              "pitch": 59,
              "velocity": 90,
              "position": 3,
              "duration": 0.08125
            }
          ]
        },
        "12": {
          "ctab": {
            "srcChannel": 12,
            "name": "Organ",
            "accType": "CHORD2",
            "editable": false,
            "mutedNotes": [],
            "mutedChords": [],
            "autoStart": false,
            "sourceChordNote": 0,
            "sourceChordType": "Maj7",
            "ctb2Low": null,
            "ctb2Main": {
              "ntr": "ROOT_FIXED",
              "ntt": "CHORD",
              "bassOn": false,
              "chordRootUpperLimit": 6,
              "noteLowLimit": 0,
              "noteHighLimit": 127,
              "rtr": "PITCH_SHIFT"
            },
            "ctb2High": null
          },
          "notes": [
            {
              "pitch": 67,
              "velocity": 84,
              "position": 2.002083333333333,
              "duration": 0.4666666666666667
            },
            {
              "pitch": 64,
              "velocity": 84,
              "position": 2.002083333333333,
              "duration": 0.47291666666666665
            },
            {
              "pitch": 71,
              "velocity": 84,
              "position": 2.002083333333333,
              "duration": 0.475
            },
            {
              "pitch": 67,
              "velocity": 85,
              "position": 2.5,
              "duration": 0.24583333333333332
            },
            {
              "pitch": 71,
              "velocity": 85,
              "position": 2.5,
              "duration": 0.24583333333333332
            },
            {
              "pitch": 64,
              "velocity": 85,
              "position": 2.5,
              "duration": 0.26666666666666666
            },
            {
              "pitch": 64,
              "velocity": 86,
              "position": 3,
              "duration": 0.40625
            },
            {
              "pitch": 67,
              "velocity": 86,
              "position": 3,
              "duration": 0.4583333333333333
            },
            {
              "pitch": 71,
              "velocity": 86,
              "position": 3,
              "duration": 0.46875
            }
          ]
        },
        "13": {
          "ctab": {
            "srcChannel": 13,
            "name": "Brass",
            "accType": "PAD",
            "editable": false,
            "mutedNotes": [],
            "mutedChords": [],
            "autoStart": false,
            "sourceChordNote": 0,
            "sourceChordType": "Maj7",
            "ctb2Low": null,
            "ctb2Main": {
              "ntr": "ROOT_TRANSPOSITION",
              "ntt": "MELODY",
              "bassOn": false,
              "chordRootUpperLimit": 7,
              "noteLowLimit": 0,
              "noteHighLimit": 127,
              "rtr": "PITCH_SHIFT"
            },
            "ctb2High": null
          },
          "notes": [
            {
              "pitch": 60,
              "velocity": 118,
              "position": 0.5,
              "duration": 2.50625
            }
          ]
        },
        "14": {
          "ctab": {
            "srcChannel": 14,
            "name": "Sax",
            "accType": "PHRASE1",
            "editable": false,
            "mutedNotes": [],
            "mutedChords": [],
            "autoStart": false,
            "sourceChordNote": 0,
            "sourceChordType": "Maj7",
            "ctb2Low": null,
            "ctb2Main": {
              "ntr": "ROOT_TRANSPOSITION",
              "ntt": "MELODY",
              "bassOn": false,
              "chordRootUpperLimit": 6,
              "noteLowLimit": 48,
              "noteHighLimit": 59,
              "rtr": "PITCH_SHIFT"
            },
            "ctb2High": null
          },
          "notes": []
        },
        "15": {
          "ctab": {
            "srcChannel": 15,
            "name": "Vib",
            "accType": "PHRASE2",
            "editable": false,
            "mutedNotes": [],
            "mutedChords": [],
            "autoStart": false,
            "sourceChordNote": 0,
            "sourceChordType": "Maj7",
            "ctb2Low": null,
            "ctb2Main": {
              "ntr": "ROOT_TRANSPOSITION",
              "ntt": "CHORD",
              "bassOn": false,
              "chordRootUpperLimit": 7,
              "noteLowLimit": 60,
              "noteHighLimit": 71,
              "rtr": "PITCH_SHIFT"
            },
            "ctb2High": null
          },
          "notes": [
            {
              "pitch": 64,
              "velocity": 82,
              "position": 0,
              "duration": 0.11458333333333333
            },
            {
              "pitch": 67,
              "velocity": 82,
              "position": 0,
              "duration": 0.14375
            },
            {
              "pitch": 64,
              "velocity": 81,
              "position": 1,
              "duration": 1.3916666666666666
            },
            {
              "pitch": 67,
              "velocity": 79,
              "position": 1,
              "duration": 1.4020833333333333
            },
            {
              "pitch": 64,
              "velocity": 83,
              "position": 2.5,
              "duration": 0.07916666666666666
            },
            {
              "pitch": 67,
              "velocity": 80,
              "position": 2.5,
              "duration": 0.08958333333333333
            },
            {
              "pitch": 64,
              "velocity": 82,
              "position": 3.5,
              "duration": 0.09375
            },
            {
              "pitch": 67,
              "velocity": 80,
              "position": 3.5,
              "duration": 0.11041666666666666
            }
          ]
        }
      }
    },
    "Ending_A": {
      "type": "Ending_A",
      "sizeInBeats": 4,
      "channels": {
        "3": {
          "ctab": {
            "srcChannel": 3,
            "name": "Organ rt",
            "accType": "CHORD2",
            "editable": false,
            "mutedNotes": [],
            "mutedChords": [
              "1+2+5",
              "sus4",
              "1+5",
              "1+8",
              "Maj7aug",
              "dim",
              "minMaj7(9)",
              "minMaj7",
              "min6",
              "min",
              "aug",
              "Maj7(9)",
              "Maj7#11",
              "Maj7",
              "Maj6",
              "Maj"
            ],
            "autoStart": false,
            "sourceChordNote": 0,
            "sourceChordType": "Maj7",
            "ctb2Low": null,
            "ctb2Main": {
              "ntr": "ROOT_TRANSPOSITION",
              "ntt": "MELODY",
              "bassOn": false,
              "chordRootUpperLimit": 10,
              "noteLowLimit": 0,
              "noteHighLimit": 74,
              "rtr": "PITCH_SHIFT"
            },
            "ctb2High": null
          },
          "notes": [
            {
              "pitch": 60,
              "velocity": 54,
              "position": 0.010416666666666666,
              "duration": 0.48541666666666666
            },
            {
              "pitch": 60,
              "velocity": 54,
              "position": 0.5,
              "duration": 0.25833333333333336
            },
            {
              "pitch": 60,
              "velocity": 55,
              "position": 0.99375,
              "duration": 0.4395833333333333
            }
          ]
        },
        "7": {
          "ctab": {
            "srcChannel": 7,
            "name": "Org Glis",
            "accType": "CHORD2",
            "editable": false,
            "mutedNotes": [],
            "mutedChords": [],
            "autoStart": false,
            "sourceChordNote": 0,
            "sourceChordType": "Maj7",
            "ctb2Low": null,
            "ctb2Main": {
              "ntr": "ROOT_FIXED",
              "ntt": "BYPASS",
              "bassOn": false,
              "chordRootUpperLimit": 6,
              "noteLowLimit": 0,
              "noteHighLimit": 127,
              "rtr": "PITCH_SHIFT"
            },
            "ctb2High": null
          },
          "notes": [
            {
              "pitch": 65,
              "velocity": 81,
              "position": 1.4916666666666667,
              "duration": 0.12916666666666668
            },
            {
              "pitch": 64,
              "velocity": 75,
              "position": 1.5770833333333334,
              "duration": 0.09166666666666666
            },
            {
              "pitch": 62,
              "velocity": 70,
              "position": 1.6291666666666667,
              "duration": 0.08958333333333333
            },
            {
              "pitch": 60,
              "velocity": 67,
              "position": 1.6770833333333333,
              "duration": 0.10416666666666667
            },
            {
              "pitch": 59,
              "velocity": 63,
              "position": 1.7291666666666667,
              "duration": 0.08125
            },
            {
              "pitch": 57,
              "velocity": 60,
              "position": 1.775,
              "duration": 0.09791666666666667
            },
            {
              "pitch": 55,
              "velocity": 57,
              "position": 1.8229166666666667,
              "duration": 0.10416666666666667
            },
            {
              "pitch": 53,
              "velocity": 53,
              "position": 1.8645833333333333,
              "duration": 0.10625
            },
            {
              "pitch": 52,
              "velocity": 49,
              "position": 1.9270833333333333,
              "duration": 0.09166666666666666
            },
            {
              "pitch": 50,
              "velocity": 44,
              "position": 1.9916666666666667,
              "duration": 0.052083333333333336
            }
          ]
        },
        "8": {
          "ctab": {
            "srcChannel": 8,
            "name": "AddDrum",
            "accType": "SUBRHYTHM",
            "editable": false,
            "mutedNotes": [],
            "mutedChords": [],
            "autoStart": true,
            "sourceChordNote": 0,
            "sourceChordType": "Maj7",
            "ctb2Low": null,
            "ctb2Main": {
              "ntr": "ROOT_FIXED",
              "ntt": "BYPASS",
              "bassOn": false,
              "chordRootUpperLimit": 6,
              "noteLowLimit": 0,
              "noteHighLimit": 127,
              "rtr": "PITCH_SHIFT"
            },
            "ctb2High": null
          },
          "notes": [
            {
              "pitch": 56,
              "velocity": 60,
              "position": 0.5,
              "duration": 0.00625
            },
            {
              "pitch": 56,
              "velocity": 120,
              "position": 0.9979166666666667,
              "duration": 0.00625
            }
          ]
        },
        "9": {
          "ctab": {
            "srcChannel": 9,
            "name": "MainDrum",
            "accType": "RHYTHM",
            "editable": false,
            "mutedNotes": [],
            "mutedChords": [],
            "autoStart": true,
            "sourceChordNote": 0,
            "sourceChordType": "Maj7",
            "ctb2Low": null,
            "ctb2Main": {
              "ntr": "ROOT_FIXED",
              "ntt": "BYPASS",
              "bassOn": false,
              "chordRootUpperLimit": 6,
              "noteLowLimit": 0,
              "noteHighLimit": 127,
              "rtr": "PITCH_SHIFT"
            },
            "ctb2High": null
          },
          "notes": [
            {
              "pitch": 23,
              "velocity": 117,
              "position": 0,
              "duration": 0.00625
            },
            {
              "pitch": 73,
              "velocity": 97,
              "position": 0,
              "duration": 0.00625
            },
            {
              "pitch": 53,
              "velocity": 73,
              "position": 0.0020833333333333333,
              "duration": 0.00625
            },
            {
              "pitch": 65,
              "velocity": 66,
              "position": 0,
              "duration": 0.45416666666666666
            },
            {
              "pitch": 22,
              "velocity": 42,
              "position": 0.5,
              "duration": 0.00625
            },
            {
              "pitch": 64,
              "velocity": 77,
              "position": 0.5,
              "duration": 0.00625
            },
            {
              "pitch": 73,
              "velocity": 46,
              "position": 0.5,
              "duration": 0.00625
            },
            {
              "pitch": 53,
              "velocity": 86,
              "position": 0.5020833333333333,
              "duration": 0.00625
            },
            {
              "pitch": 26,
              "velocity": 112,
              "position": 1,
              "duration": 0.00625
            },
            {
              "pitch": 64,
              "velocity": 102,
              "position": 1,
              "duration": 0.00625
            },
            {
              "pitch": 73,
              "velocity": 100,
              "position": 1,
              "duration": 0.00625
            },
            {
              "pitch": 53,
              "velocity": 117,
              "position": 1.0020833333333334,
              "duration": 0.00625
            }
          ]
        },
        "10": {
          "ctab": {
            "srcChannel": 10,
            "name": "Bass",
            "accType": "BASS",
            "editable": false,
            "mutedNotes": [],
            "mutedChords": [],
            "autoStart": false,
            "sourceChordNote": 0,
            "sourceChordType": "Maj7",
            "ctb2Low": null,
            "ctb2Main": {
              "ntr": "ROOT_TRANSPOSITION",
              "ntt": "MELODY",
              "bassOn": true,
              "chordRootUpperLimit": 4,
              "noteLowLimit": 28,
              "noteHighLimit": 127,
              "rtr": "PITCH_SHIFT_TO_ROOT"
            },
            "ctb2High": null
          },
          "notes": [
            {
              "pitch": 36,
              "velocity": 60,
              "position": 0,
              "duration": 0.46458333333333335
            },
            {
              "pitch": 36,
              "velocity": 53,
              "position": 0.5,
              "duration": 0.46458333333333335
            },
            {
              "pitch": 36,
              "velocity": 62,
              "position": 1,
              "duration": 0.24583333333333332
            }
          ]
        },
        "11": {
          "ctab": {
            "srcChannel": 11,
            "name": "E.Guitar",
            "accType": "CHORD1",
            "editable": false,
            "mutedNotes": [],
            "mutedChords": [],
            "autoStart": false,
            "sourceChordNote": 0,
            "sourceChordType": "Maj7",
            "ctb2Low": null,
            "ctb2Main": {
              "ntr": "ROOT_FIXED",
              "ntt": "CHORD",
              "bassOn": false,
              "chordRootUpperLimit": 7,
              "noteLowLimit": 0,
              "noteHighLimit": 127,
              "rtr": "PITCH_SHIFT"
            },
            "ctb2High": null
          },
          "notes": [
            {
              "pitch": 60,
              "velocity": 46,
              "position": 0,
              "duration": 0.24166666666666667
            },
            {
              "pitch": 60,
              "velocity": 32,
              "position": 0.5,
              "duration": 0.46458333333333335
            },
            {
              "pitch": 60,
              "velocity": 45,
              "position": 1,
              "duration": 0.24166666666666667
            }
          ]
        },
        "12": {
          "ctab": {
            "srcChannel": 12,
            "name": "Organ",
            "accType": "CHORD2",
            "editable": false,
            "mutedNotes": [],
            "mutedChords": [],
            "autoStart": false,
            "sourceChordNote": 0,
            "sourceChordType": "Maj7",
            "ctb2Low": null,
            "ctb2Main": {
              "ntr": "ROOT_FIXED",
              "ntt": "CHORD",
              "bassOn": false,
              "chordRootUpperLimit": 6,
              "noteLowLimit": 0,
              "noteHighLimit": 127,
              "rtr": "PITCH_SHIFT"
            },
            "ctb2High": null
          },
          "notes": [
            {
              "pitch": 67,
              "velocity": 87,
              "position": 0.014583333333333334,
              "duration": 0.425
            },
            {
              "pitch": 59,
              "velocity": 87,
              "position": 0.014583333333333334,
              "duration": 0.4354166666666667
            },
            {
              "pitch": 64,
              "velocity": 87,
              "position": 0.014583333333333334,
              "duration": 0.44583333333333336
            },
            {
              "pitch": 67,
              "velocity": 87,
              "position": 0.5104166666666666,
              "duration": 0.23958333333333334
            },
            {
              "pitch": 59,
              "velocity": 87,
              "position": 0.5104166666666666,
              "duration": 0.24791666666666667
            },
            {
              "pitch": 64,
              "velocity": 87,
              "position": 0.5104166666666666,
              "duration": 0.25625
            },
            {
              "pitch": 64,
              "velocity": 87,
              "position": 1.0020833333333334,
              "duration": 0.4166666666666667
            },
            {
              "pitch": 59,
              "velocity": 87,
              "position": 1,
              "duration": 0.46458333333333335
            },
            {
              "pitch": 67,
              "velocity": 87,
              "position": 1,
              "duration": 0.5479166666666667
            }
          ]
        },
        "13": {
          "ctab": {
            "srcChannel": 13,
            "name": "Brass",
            "accType": "PAD",
            "editable": false,
            "mutedNotes": [],
            "mutedChords": [],
            "autoStart": false,
            "sourceChordNote": 0,
            "sourceChordType": "Maj7",
            "ctb2Low": null,
            "ctb2Main": {
              "ntr": "ROOT_TRANSPOSITION",
              "ntt": "MELODY",
              "bassOn": false,
              "chordRootUpperLimit": 7,
              "noteLowLimit": 0,
              "noteHighLimit": 127,
              "rtr": "PITCH_SHIFT"
            },
            "ctb2High": null
          },
          "notes": [
            {
              "pitch": 72,
              "velocity": 88,
              "position": 0,
              "duration": 0.4875
            },
            {
              "pitch": 72,
              "velocity": 84,
              "position": 0.5,
              "duration": 0.20416666666666666
            }
          ]
        },
        "14": {
          "ctab": {
            "srcChannel": 14,
            "name": "Sax",
            "accType": "PHRASE1",
            "editable": false,
            "mutedNotes": [],
            "mutedChords": [],
            "autoStart": false,
            "sourceChordNote": 0,
            "sourceChordType": "Maj7",
            "ctb2Low": null,
            "ctb2Main": {
              "ntr": "ROOT_TRANSPOSITION",
              "ntt": "MELODY",
              "bassOn": false,
              "chordRootUpperLimit": 6,
              "noteLowLimit": 48,
              "noteHighLimit": 59,
              "rtr": "PITCH_SHIFT"
            },
            "ctb2High": null
          },
          "notes": [
            {
              "pitch": 48,
              "velocity": 82,
              "position": 0,
              "duration": 0.4875
            },
            {
              "pitch": 48,
              "velocity": 79,
              "position": 0.5,
              "duration": 0.11041666666666666
            },
            {
              "pitch": 48,
              "velocity": 82,
              "position": 1,
              "duration": 0.48541666666666666
            }
          ]
        },
        "15": {
          "ctab": {
            "srcChannel": 15,
            "name": "Vib",
            "accType": "PHRASE2",
            "editable": false,
            "mutedNotes": [],
            "mutedChords": [],
            "autoStart": false,
            "sourceChordNote": 0,
            "sourceChordType": "Maj7",
            "ctb2Low": null,
            "ctb2Main": {
              "ntr": "ROOT_TRANSPOSITION",
              "ntt": "CHORD",
              "bassOn": false,
              "chordRootUpperLimit": 7,
              "noteLowLimit": 60,
              "noteHighLimit": 71,
              "rtr": "PITCH_SHIFT"
            },
            "ctb2High": null
          },
          "notes": [
            {
              "pitch": 60,
              "velocity": 115,
              "position": 0,
              "duration": 0.3958333333333333
            },
            {
              "pitch": 60,
              "velocity": 100,
              "position": 0.5,
              "duration": 0.42291666666666666
            },
            {
              "pitch": 60,
              "velocity": 119,
              "position": 1,
              "duration": 0.15208333333333332
            }
          ]
        }
      }
    },
    "Intro_B": {
      "type": "Intro_B",
      "sizeInBeats": 16,
      "channels": {
        "1": {
          "ctab": {
            "srcChannel": 1,
            "name": "Bass",
            "accType": "BASS",
            "editable": false,
            "mutedNotes": [],
            "mutedChords": [
              "1+2+5",
              "sus4",
              "1+5",
              "1+8",
              "7aug",
              "Maj7aug",
              "7(#9)",
              "7(b13)",
              "7(b9)",
              "7(13)",
              "7#11",
              "7(9)",
              "7b5",
              "7sus4",
              "7th",
              "aug",
              "Maj6(9)",
              "Maj7(9)",
              "Maj(9)",
              "Maj7#11",
              "Maj7",
              "Maj6",
              "Maj"
            ],
            "autoStart": false,
            "sourceChordNote": 0,
            "sourceChordType": "min",
            "ctb2Low": null,
            "ctb2Main": {
              "ntr": "ROOT_TRANSPOSITION",
              "ntt": "BYPASS",
              "bassOn": false,
              "chordRootUpperLimit": 3,
              "noteLowLimit": 28,
              "noteHighLimit": 127,
              "rtr": "PITCH_SHIFT"
            },
            "ctb2High": null
          },
          "notes": [
            {
              "pitch": 38,
              "velocity": 60,
              "position": 0,
              "duration": 0.9645833333333333
            },
            {
              "pitch": 38,
              "velocity": 111,
              "position": 1,
              "duration": 0.0375
            },
            {
              "pitch": 44,
              "velocity": 60,
              "position": 1.5,
              "duration": 0.39166666666666666
            },
            {
              "pitch": 43,
              "velocity": 60,
              "position": 2,
              "duration": 0.9645833333333333
            },
            {
              "pitch": 43,
              "velocity": 100,
              "position": 2.9916666666666667,
              "duration": 0.058333333333333334
            },
            {
              "pitch": 38,
              "velocity": 60,
              "position": 3.5,
              "duration": 0.6416666666666667
            },
            {
              "pitch": 44,
              "velocity": 60,
              "position": 5.5,
              "duration": 0.48541666666666666
            },
            {
              "pitch": 43,
              "velocity": 60,
              "position": 6,
              "duration": 0.46458333333333335
            },
            {
              "pitch": 43,
              "velocity": 100,
              "position": 6.5,
              "duration": 0.08958333333333333
            },
            {
              "pitch": 43,
              "velocity": 60,
              "position": 7,
              "duration": 0.475
            },
            {
              "pitch": 43,
              "velocity": 100,
              "position": 7.5,
              "duration": 0.07916666666666666
            },
            {
              "pitch": 36,
              "velocity": 60,
              "position": 8,
              "duration": 0.46458333333333335
            },
            {
              "pitch": 36,
              "velocity": 57,
              "position": 8.5,
              "duration": 0.46458333333333335
            },
            {
              "pitch": 36,
              "velocity": 61,
              "position": 9,
              "duration": 0.5375
            },
            {
              "pitch": 99,
              "velocity": 80,
              "position": 14.5,
              "duration": 1.4895833333333333
            }
          ]
        },
        "2": {
          "ctab": {
            "srcChannel": 2,
            "name": "E.Guitar",
            "accType": "CHORD1",
            "editable": false,
            "mutedNotes": [],
            "mutedChords": [
              "1+2+5",
              "sus4",
              "1+5",
              "1+8",
              "7aug",
              "Maj7aug",
              "7(#9)",
              "7(b13)",
              "7(b9)",
              "7(13)",
              "7#11",
              "7(9)",
              "7b5",
              "7sus4",
              "7th",
              "aug",
              "Maj6(9)",
              "Maj7(9)",
              "Maj(9)",
              "Maj7#11",
              "Maj7",
              "Maj6",
              "Maj"
            ],
            "autoStart": false,
            "sourceChordNote": 0,
            "sourceChordType": "min",
            "ctb2Low": null,
            "ctb2Main": {
              "ntr": "ROOT_TRANSPOSITION",
              "ntt": "BYPASS",
              "bassOn": false,
              "chordRootUpperLimit": 6,
              "noteLowLimit": 0,
              "noteHighLimit": 79,
              "rtr": "PITCH_SHIFT"
            },
            "ctb2High": null
          },
          "notes": [
            {
              "pitch": 50,
              "velocity": 51,
              "position": 0,
              "duration": 0.5583333333333333
            },
            {
              "pitch": 53,
              "velocity": 118,
              "position": 1,
              "duration": 0.5166666666666667
            },
            {
              "pitch": 56,
              "velocity": 55,
              "position": 1.5,
              "duration": 0.48541666666666666
            },
            {
              "pitch": 55,
              "velocity": 51,
              "position": 2,
              "duration": 0.38125
            },
            {
              "pitch": 120,
              "velocity": 35,
              "position": 2.75,
              "duration": 0.5583333333333333
            },
            {
              "pitch": 50,
              "velocity": 50,
              "position": 3.5,
              "duration": 0.4125
            },
            {
              "pitch": 53,
              "velocity": 119,
              "position": 4.5,
              "duration": 0.48541666666666666
            },
            {
              "pitch": 56,
              "velocity": 48,
              "position": 5.5,
              "duration": 0.43333333333333335
            },
            {
              "pitch": 55,
              "velocity": 49,
              "position": 6,
              "duration": 0.46458333333333335
            },
            {
              "pitch": 55,
              "velocity": 68,
              "position": 6.5,
              "duration": 0.13125
            },
            {
              "pitch": 55,
              "velocity": 47,
              "position": 7,
              "duration": 0.46458333333333335
            },
            {
              "pitch": 55,
              "velocity": 68,
              "position": 7.5,
              "duration": 0.12083333333333333
            },
            {
              "pitch": 60,
              "velocity": 46,
              "position": 8,
              "duration": 0.46458333333333335
            },
            {
              "pitch": 60,
              "velocity": 32,
              "position": 8.5,
              "duration": 0.46458333333333335
            },
            {
              "pitch": 60,
              "velocity": 47,
              "position": 9,
              "duration": 0.14166666666666666
            }
          ]
        },
        "3": {
          "ctab": {
            "srcChannel": 3,
            "name": "Organ",
            "accType": "CHORD2",
            "editable": false,
            "mutedNotes": [],
            "mutedChords": [
              "1+2+5",
              "sus4",
              "1+5",
              "1+8",
              "7aug",
              "Maj7aug",
              "7(#9)",
              "7(b13)",
              "7(b9)",
              "7(13)",
              "7#11",
              "7(9)",
              "7b5",
              "7sus4",
              "7th",
              "aug",
              "Maj6(9)",
              "Maj7(9)",
              "Maj(9)",
              "Maj7#11",
              "Maj7",
              "Maj6",
              "Maj"
            ],
            "autoStart": false,
            "sourceChordNote": 0,
            "sourceChordType": "min",
            "ctb2Low": null,
            "ctb2Main": {
              "ntr": "ROOT_TRANSPOSITION",
              "ntt": "BYPASS",
              "bassOn": false,
              "chordRootUpperLimit": 4,
              "noteLowLimit": 0,
              "noteHighLimit": 72,
              "rtr": "PITCH_SHIFT"
            },
            "ctb2High": null
          },
          "notes": [
            {
              "pitch": 65,
              "velocity": 110,
              "position": 0.05625,
              "duration": 0.3333333333333333
            },
            {
              "pitch": 68,
              "velocity": 110,
              "position": 0.05625,
              "duration": 0.34375
            },
            {
              "pitch": 72,
              "velocity": 110,
              "position": 0.05625,
              "duration": 0.36041666666666666
            },
            {
              "pitch": 74,
              "velocity": 110,
              "position": 0.05625,
              "duration": 0.36041666666666666
            },
            {
              "pitch": 68,
              "velocity": 110,
              "position": 1.0104166666666667,
              "duration": 0.2625
            },
            {
              "pitch": 74,
              "velocity": 110,
              "position": 1.0104166666666667,
              "duration": 0.26666666666666666
            },
            {
              "pitch": 65,
              "velocity": 110,
              "position": 1.0104166666666667,
              "duration": 0.28125
            },
            {
              "pitch": 72,
              "velocity": 110,
              "position": 1.0104166666666667,
              "duration": 0.28125
            },
            {
              "pitch": 65,
              "velocity": 110,
              "position": 2.0208333333333335,
              "duration": 0.4166666666666667
            },
            {
              "pitch": 67,
              "velocity": 110,
              "position": 2.0208333333333335,
              "duration": 0.42291666666666666
            },
            {
              "pitch": 71,
              "velocity": 110,
              "position": 2.0208333333333335,
              "duration": 0.43333333333333335
            },
            {
              "pitch": 74,
              "velocity": 110,
              "position": 2.0104166666666665,
              "duration": 0.475
            },
            {
              "pitch": 67,
              "velocity": 110,
              "position": 2.535416666666667,
              "duration": 0.12291666666666666
            },
            {
              "pitch": 71,
              "velocity": 110,
              "position": 2.535416666666667,
              "duration": 0.13333333333333333
            },
            {
              "pitch": 65,
              "velocity": 110,
              "position": 2.53125,
              "duration": 0.14583333333333334
            },
            {
              "pitch": 74,
              "velocity": 110,
              "position": 2.535416666666667,
              "duration": 0.175
            },
            {
              "pitch": 65,
              "velocity": 111,
              "position": 3.5416666666666665,
              "duration": 0.20833333333333334
            },
            {
              "pitch": 68,
              "velocity": 111,
              "position": 3.533333333333333,
              "duration": 0.22916666666666666
            },
            {
              "pitch": 72,
              "velocity": 111,
              "position": 3.5416666666666665,
              "duration": 0.22916666666666666
            },
            {
              "pitch": 74,
              "velocity": 111,
              "position": 3.533333333333333,
              "duration": 0.25625
            },
            {
              "pitch": 65,
              "velocity": 111,
              "position": 4.533333333333333,
              "duration": 0.925
            },
            {
              "pitch": 68,
              "velocity": 111,
              "position": 4.53125,
              "duration": 0.9458333333333333
            },
            {
              "pitch": 74,
              "velocity": 111,
              "position": 4.535416666666666,
              "duration": 0.9458333333333333
            },
            {
              "pitch": 72,
              "velocity": 111,
              "position": 4.53125,
              "duration": 0.9541666666666667
            },
            {
              "pitch": 65,
              "velocity": 110,
              "position": 5.520833333333333,
              "duration": 0.14166666666666666
            },
            {
              "pitch": 68,
              "velocity": 110,
              "position": 5.520833333333333,
              "duration": 0.14166666666666666
            },
            {
              "pitch": 72,
              "velocity": 110,
              "position": 5.520833333333333,
              "duration": 0.16666666666666666
            },
            {
              "pitch": 74,
              "velocity": 110,
              "position": 5.5125,
              "duration": 0.20833333333333334
            },
            {
              "pitch": 67,
              "velocity": 109,
              "position": 5.99375,
              "duration": 0.47291666666666665
            },
            {
              "pitch": 71,
              "velocity": 109,
              "position": 5.99375,
              "duration": 0.47291666666666665
            },
            {
              "pitch": 74,
              "velocity": 109,
              "position": 5.989583333333333,
              "duration": 0.47708333333333336
            },
            {
              "pitch": 65,
              "velocity": 109,
              "position": 5.99375,
              "duration": 0.48333333333333334
            },
            {
              "pitch": 74,
              "velocity": 109,
              "position": 6.489583333333333,
              "duration": 0.15208333333333332
            },
            {
              "pitch": 65,
              "velocity": 109,
              "position": 6.5,
              "duration": 0.15416666666666667
            },
            {
              "pitch": 67,
              "velocity": 109,
              "position": 6.49375,
              "duration": 0.16041666666666668
            },
            {
              "pitch": 71,
              "velocity": 109,
              "position": 6.49375,
              "duration": 0.16041666666666668
            },
            {
              "pitch": 41,
              "velocity": 48,
              "position": 7.385416666666667,
              "duration": 0.09583333333333334
            },
            {
              "pitch": 74,
              "velocity": 109,
              "position": 7,
              "duration": 0.5208333333333334
            },
            {
              "pitch": 67,
              "velocity": 109,
              "position": 7.004166666666666,
              "duration": 0.5229166666666667
            },
            {
              "pitch": 65,
              "velocity": 109,
              "position": 7.010416666666667,
              "duration": 0.5270833333333333
            },
            {
              "pitch": 71,
              "velocity": 109,
              "position": 7.010416666666667,
              "duration": 0.5270833333333333
            },
            {
              "pitch": 43,
              "velocity": 54,
              "position": 7.4375,
              "duration": 0.10416666666666667
            },
            {
              "pitch": 45,
              "velocity": 59,
              "position": 7.489583333333333,
              "duration": 0.1
            },
            {
              "pitch": 47,
              "velocity": 66,
              "position": 7.541666666666667,
              "duration": 0.1
            },
            {
              "pitch": 48,
              "velocity": 70,
              "position": 7.583333333333333,
              "duration": 0.10208333333333333
            },
            {
              "pitch": 50,
              "velocity": 75,
              "position": 7.629166666666666,
              "duration": 0.10833333333333334
            },
            {
              "pitch": 52,
              "velocity": 81,
              "position": 7.679166666666666,
              "duration": 0.10833333333333334
            },
            {
              "pitch": 53,
              "velocity": 86,
              "position": 7.729166666666667,
              "duration": 0.14166666666666666
            },
            {
              "pitch": 55,
              "velocity": 91,
              "position": 7.772916666666666,
              "duration": 0.1875
            },
            {
              "pitch": 57,
              "velocity": 97,
              "position": 7.822916666666667,
              "duration": 0.2
            },
            {
              "pitch": 59,
              "velocity": 103,
              "position": 7.879166666666666,
              "duration": 0.15416666666666667
            },
            {
              "pitch": 69,
              "velocity": 111,
              "position": 7.979166666666667,
              "duration": 0.3645833333333333
            },
            {
              "pitch": 67,
              "velocity": 110,
              "position": 7.972916666666666,
              "duration": 0.38333333333333336
            },
            {
              "pitch": 72,
              "velocity": 111,
              "position": 7.979166666666667,
              "duration": 0.39166666666666666
            },
            {
              "pitch": 63,
              "velocity": 110,
              "position": 7.979166666666667,
              "duration": 0.3958333333333333
            },
            {
              "pitch": 67,
              "velocity": 112,
              "position": 8.510416666666666,
              "duration": 0.23958333333333334
            },
            {
              "pitch": 69,
              "velocity": 112,
              "position": 8.510416666666666,
              "duration": 0.24791666666666667
            },
            {
              "pitch": 72,
              "velocity": 112,
              "position": 8.5,
              "duration": 0.25833333333333336
            },
            {
              "pitch": 63,
              "velocity": 112,
              "position": 8.510416666666666,
              "duration": 0.25625
            },
            {
              "pitch": 63,
              "velocity": 113,
              "position": 9.002083333333333,
              "duration": 0.4166666666666667
            },
            {
              "pitch": 72,
              "velocity": 113,
              "position": 8.99375,
              "duration": 0.4395833333333333
            },
            {
              "pitch": 69,
              "velocity": 113,
              "position": 9,
              "duration": 0.46458333333333335
            },
            {
              "pitch": 67,
              "velocity": 113,
              "position": 9,
              "duration": 0.5479166666666667
            },
            {
              "pitch": 65,
              "velocity": 99,
              "position": 9.491666666666667,
              "duration": 0.12916666666666668
            },
            {
              "pitch": 64,
              "velocity": 93,
              "position": 9.577083333333333,
              "duration": 0.09166666666666666
            },
            {
              "pitch": 62,
              "velocity": 88,
              "position": 9.629166666666666,
              "duration": 0.08958333333333333
            },
            {
              "pitch": 60,
              "velocity": 85,
              "position": 9.677083333333334,
              "duration": 0.10416666666666667
            },
            {
              "pitch": 59,
              "velocity": 81,
              "position": 9.729166666666666,
              "duration": 0.08125
            },
            {
              "pitch": 57,
              "velocity": 78,
              "position": 9.775,
              "duration": 0.09791666666666667
            },
            {
              "pitch": 55,
              "velocity": 75,
              "position": 9.822916666666666,
              "duration": 0.10416666666666667
            },
            {
              "pitch": 53,
              "velocity": 71,
              "position": 9.864583333333334,
              "duration": 0.10625
            },
            {
              "pitch": 52,
              "velocity": 67,
              "position": 9.927083333333334,
              "duration": 0.09166666666666666
            },
            {
              "pitch": 50,
              "velocity": 62,
              "position": 9.991666666666667,
              "duration": 0.052083333333333336
            },
            {
              "pitch": 87,
              "velocity": 92,
              "position": 12.989583333333334,
              "duration": 0.17291666666666666
            },
            {
              "pitch": 91,
              "velocity": 92,
              "position": 12.989583333333334,
              "duration": 0.17291666666666666
            },
            {
              "pitch": 93,
              "velocity": 93,
              "position": 13,
              "duration": 0.17291666666666666
            },
            {
              "pitch": 96,
              "velocity": 93,
              "position": 13,
              "duration": 0.17291666666666666
            },
            {
              "pitch": 87,
              "velocity": 94,
              "position": 13.239583333333334,
              "duration": 0.12083333333333333
            },
            {
              "pitch": 91,
              "velocity": 94,
              "position": 13.239583333333334,
              "duration": 0.12083333333333333
            },
            {
              "pitch": 93,
              "velocity": 94,
              "position": 13.25,
              "duration": 0.12083333333333333
            },
            {
              "pitch": 96,
              "velocity": 94,
              "position": 13.25,
              "duration": 0.12083333333333333
            },
            {
              "pitch": 87,
              "velocity": 97,
              "position": 13.489583333333334,
              "duration": 0.1125
            },
            {
              "pitch": 91,
              "velocity": 97,
              "position": 13.489583333333334,
              "duration": 0.1125
            },
            {
              "pitch": 93,
              "velocity": 97,
              "position": 13.5,
              "duration": 0.1125
            },
            {
              "pitch": 96,
              "velocity": 97,
              "position": 13.5,
              "duration": 0.1125
            },
            {
              "pitch": 87,
              "velocity": 98,
              "position": 13.739583333333334,
              "duration": 0.15208333333333332
            },
            {
              "pitch": 91,
              "velocity": 98,
              "position": 13.739583333333334,
              "duration": 0.15208333333333332
            },
            {
              "pitch": 93,
              "velocity": 99,
              "position": 13.75,
              "duration": 0.14583333333333334
            },
            {
              "pitch": 96,
              "velocity": 99,
              "position": 13.75,
              "duration": 0.14583333333333334
            },
            {
              "pitch": 87,
              "velocity": 100,
              "position": 13.989583333333334,
              "duration": 0.40208333333333335
            },
            {
              "pitch": 91,
              "velocity": 100,
              "position": 13.989583333333334,
              "duration": 0.40208333333333335
            },
            {
              "pitch": 93,
              "velocity": 100,
              "position": 14,
              "duration": 0.40208333333333335
            },
            {
              "pitch": 96,
              "velocity": 100,
              "position": 14,
              "duration": 0.40208333333333335
            },
            {
              "pitch": 87,
              "velocity": 104,
              "position": 14.489583333333334,
              "duration": 0.17291666666666666
            },
            {
              "pitch": 91,
              "velocity": 104,
              "position": 14.489583333333334,
              "duration": 0.17291666666666666
            },
            {
              "pitch": 93,
              "velocity": 104,
              "position": 14.5,
              "duration": 0.17291666666666666
            },
            {
              "pitch": 96,
              "velocity": 104,
              "position": 14.5,
              "duration": 0.17291666666666666
            },
            {
              "pitch": 87,
              "velocity": 108,
              "position": 14.989583333333334,
              "duration": 0.25625
            },
            {
              "pitch": 91,
              "velocity": 108,
              "position": 14.989583333333334,
              "duration": 0.25625
            },
            {
              "pitch": 93,
              "velocity": 108,
              "position": 15,
              "duration": 0.25625
            },
            {
              "pitch": 96,
              "velocity": 108,
              "position": 15,
              "duration": 0.25625
            }
          ]
        },
        "4": {
          "ctab": {
            "srcChannel": 4,
            "name": "Brass",
            "accType": "PAD",
            "editable": false,
            "mutedNotes": [],
            "mutedChords": [
              "1+2+5",
              "sus4",
              "1+5",
              "1+8",
              "7aug",
              "Maj7aug",
              "7(#9)",
              "7(b13)",
              "7(b9)",
              "7(13)",
              "7#11",
              "7(9)",
              "7b5",
              "7sus4",
              "7th",
              "aug",
              "Maj6(9)",
              "Maj7(9)",
              "Maj(9)",
              "Maj7#11",
              "Maj7",
              "Maj6",
              "Maj"
            ],
            "autoStart": false,
            "sourceChordNote": 0,
            "sourceChordType": "min",
            "ctb2Low": null,
            "ctb2Main": {
              "ntr": "ROOT_TRANSPOSITION",
              "ntt": "BYPASS",
              "bassOn": false,
              "chordRootUpperLimit": 9,
              "noteLowLimit": 36,
              "noteHighLimit": 82,
              "rtr": "PITCH_SHIFT"
            },
            "ctb2High": null
          },
          "notes": [
            {
              "pitch": 62,
              "velocity": 90,
              "position": 0.0020833333333333333,
              "duration": 0.38125
            },
            {
              "pitch": 65,
              "velocity": 90,
              "position": 1,
              "duration": 0.4666666666666667
            },
            {
              "pitch": 68,
              "velocity": 90,
              "position": 1.5,
              "duration": 0.50625
            },
            {
              "pitch": 62,
              "velocity": 90,
              "position": 3.5,
              "duration": 0.2916666666666667
            },
            {
              "pitch": 68,
              "velocity": 90,
              "position": 5.502083333333333,
              "duration": 0.11875
            },
            {
              "pitch": 67,
              "velocity": 90,
              "position": 6,
              "duration": 0.4875
            },
            {
              "pitch": 67,
              "velocity": 85,
              "position": 6.5,
              "duration": 0.29375
            },
            {
              "pitch": 67,
              "velocity": 90,
              "position": 7,
              "duration": 0.3
            },
            {
              "pitch": 72,
              "velocity": 87,
              "position": 8,
              "duration": 0.4875
            },
            {
              "pitch": 72,
              "velocity": 85,
              "position": 8.5,
              "duration": 0.25625
            },
            {
              "pitch": 48,
              "velocity": 118,
              "position": 9.927083333333334,
              "duration": 5.977083333333334
            }
          ]
        },
        "5": {
          "ctab": {
            "srcChannel": 5,
            "name": "Sax",
            "accType": "PHRASE1",
            "editable": false,
            "mutedNotes": [],
            "mutedChords": [
              "1+2+5",
              "sus4",
              "1+5",
              "1+8",
              "7aug",
              "Maj7aug",
              "7(#9)",
              "7(b13)",
              "7(b9)",
              "7(13)",
              "7#11",
              "7(9)",
              "7b5",
              "7sus4",
              "7th",
              "aug",
              "Maj6(9)",
              "Maj7(9)",
              "Maj(9)",
              "Maj7#11",
              "Maj7",
              "Maj6",
              "Maj"
            ],
            "autoStart": false,
            "sourceChordNote": 0,
            "sourceChordType": "min",
            "ctb2Low": null,
            "ctb2Main": {
              "ntr": "ROOT_TRANSPOSITION",
              "ntt": "BYPASS",
              "bassOn": false,
              "chordRootUpperLimit": 9,
              "noteLowLimit": 0,
              "noteHighLimit": 127,
              "rtr": "PITCH_SHIFT"
            },
            "ctb2High": null
          },
          "notes": [
            {
              "pitch": 50,
              "velocity": 88,
              "position": 0,
              "duration": 0.34375
            },
            {
              "pitch": 53,
              "velocity": 84,
              "position": 1,
              "duration": 0.46875
            },
            {
              "pitch": 56,
              "velocity": 114,
              "position": 1.5,
              "duration": 0.49583333333333335
            },
            {
              "pitch": 50,
              "velocity": 88,
              "position": 3.5,
              "duration": 0.30833333333333335
            },
            {
              "pitch": 53,
              "velocity": 84,
              "position": 4.5,
              "duration": 1.00625
            },
            {
              "pitch": 56,
              "velocity": 118,
              "position": 5.5,
              "duration": 0.32916666666666666
            },
            {
              "pitch": 55,
              "velocity": 84,
              "position": 6,
              "duration": 0.45625
            },
            {
              "pitch": 55,
              "velocity": 108,
              "position": 6.5,
              "duration": 0.18333333333333332
            },
            {
              "pitch": 55,
              "velocity": 84,
              "position": 6.966666666666667,
              "duration": 0.36875
            },
            {
              "pitch": 60,
              "velocity": 49,
              "position": 8,
              "duration": 0.4583333333333333
            },
            {
              "pitch": 60,
              "velocity": 79,
              "position": 8.5,
              "duration": 0.46458333333333335
            }
          ]
        },
        "6": {
          "ctab": {
            "srcChannel": 6,
            "name": "Vib",
            "accType": "PHRASE2",
            "editable": false,
            "mutedNotes": [],
            "mutedChords": [
              "1+2+5",
              "sus4",
              "1+5",
              "1+8",
              "7aug",
              "Maj7aug",
              "7(#9)",
              "7(b13)",
              "7(b9)",
              "7(13)",
              "7#11",
              "7(9)",
              "7b5",
              "7sus4",
              "7th",
              "aug",
              "Maj6(9)",
              "Maj7(9)",
              "Maj(9)",
              "Maj7#11",
              "Maj7",
              "Maj6",
              "Maj"
            ],
            "autoStart": false,
            "sourceChordNote": 0,
            "sourceChordType": "min",
            "ctb2Low": null,
            "ctb2Main": {
              "ntr": "ROOT_TRANSPOSITION",
              "ntt": "BYPASS",
              "bassOn": false,
              "chordRootUpperLimit": 9,
              "noteLowLimit": 0,
              "noteHighLimit": 127,
              "rtr": "PITCH_SHIFT"
            },
            "ctb2High": null
          },
          "notes": [
            {
              "pitch": 62,
              "velocity": 107,
              "position": 0,
              "duration": 0.39166666666666666
            },
            {
              "pitch": 65,
              "velocity": 110,
              "position": 1,
              "duration": 0.47708333333333336
            },
            {
              "pitch": 68,
              "velocity": 109,
              "position": 1.5,
              "duration": 0.38125
            },
            {
              "pitch": 67,
              "velocity": 111,
              "position": 2,
              "duration": 0.32916666666666666
            },
            {
              "pitch": 62,
              "velocity": 107,
              "position": 3.5,
              "duration": 0.31875
            },
            {
              "pitch": 65,
              "velocity": 106,
              "position": 4.5,
              "duration": 0.27708333333333335
            },
            {
              "pitch": 68,
              "velocity": 105,
              "position": 5.5,
              "duration": 0.3625
            },
            {
              "pitch": 67,
              "velocity": 111,
              "position": 6,
              "duration": 0.45416666666666666
            },
            {
              "pitch": 67,
              "velocity": 97,
              "position": 6.5,
              "duration": 0.19583333333333333
            },
            {
              "pitch": 67,
              "velocity": 112,
              "position": 7,
              "duration": 0.46458333333333335
            },
            {
              "pitch": 72,
              "velocity": 115,
              "position": 8,
              "duration": 0.3958333333333333
            },
            {
              "pitch": 72,
              "velocity": 100,
              "position": 8.5,
              "duration": 0.42291666666666666
            },
            {
              "pitch": 72,
              "velocity": 119,
              "position": 9,
              "duration": 0.15208333333333332
            }
          ]
        },
        "8": {
          "ctab": {
            "srcChannel": 8,
            "name": "AddDrum",
            "accType": "SUBRHYTHM",
            "editable": false,
            "mutedNotes": [],
            "mutedChords": [],
            "autoStart": true,
            "sourceChordNote": 0,
            "sourceChordType": "Maj7",
            "ctb2Low": null,
            "ctb2Main": {
              "ntr": "ROOT_FIXED",
              "ntt": "BYPASS",
              "bassOn": false,
              "chordRootUpperLimit": 6,
              "noteLowLimit": 0,
              "noteHighLimit": 127,
              "rtr": "PITCH_SHIFT"
            },
            "ctb2High": null
          },
          "notes": [
            {
              "pitch": 56,
              "velocity": 87,
              "position": 0,
              "duration": 0.00625
            },
            {
              "pitch": 56,
              "velocity": 118,
              "position": 1,
              "duration": 0.00625
            },
            {
              "pitch": 56,
              "velocity": 86,
              "position": 2,
              "duration": 0.00625
            },
            {
              "pitch": 56,
              "velocity": 120,
              "position": 3,
              "duration": 0.00625
            },
            {
              "pitch": 56,
              "velocity": 86,
              "position": 4,
              "duration": 0.00625
            },
            {
              "pitch": 56,
              "velocity": 120,
              "position": 5,
              "duration": 0.00625
            },
            {
              "pitch": 56,
              "velocity": 24,
              "position": 5.760416666666667,
              "duration": 0.00625
            },
            {
              "pitch": 56,
              "velocity": 108,
              "position": 6,
              "duration": 0.00625
            },
            {
              "pitch": 56,
              "velocity": 51,
              "position": 6.5,
              "duration": 0.00625
            },
            {
              "pitch": 65,
              "velocity": 89,
              "position": 6.5625,
              "duration": 0.00625
            },
            {
              "pitch": 65,
              "velocity": 52,
              "position": 6.666666666666667,
              "duration": 0.00625
            },
            {
              "pitch": 65,
              "velocity": 60,
              "position": 6.791666666666667,
              "duration": 0.00625
            },
            {
              "pitch": 65,
              "velocity": 87,
              "position": 6.8875,
              "duration": 0.00625
            },
            {
              "pitch": 56,
              "velocity": 116,
              "position": 7,
              "duration": 0.00625
            },
            {
              "pitch": 65,
              "velocity": 105,
              "position": 7,
              "duration": 0.00625
            },
            {
              "pitch": 65,
              "velocity": 82,
              "position": 7.25,
              "duration": 0.00625
            },
            {
              "pitch": 66,
              "velocity": 93,
              "position": 7.5,
              "duration": 0.00625
            },
            {
              "pitch": 56,
              "velocity": 116,
              "position": 7.995833333333334,
              "duration": 0.00625
            },
            {
              "pitch": 56,
              "velocity": 116,
              "position": 8.489583333333334,
              "duration": 0.00625
            },
            {
              "pitch": 56,
              "velocity": 116,
              "position": 8.985416666666667,
              "duration": 0.00625
            }
          ]
        },
        "9": {
          "ctab": {
            "srcChannel": 9,
            "name": "MainDrum",
            "accType": "RHYTHM",
            "editable": false,
            "mutedNotes": [],
            "mutedChords": [],
            "autoStart": true,
            "sourceChordNote": 0,
            "sourceChordType": "Maj7",
            "ctb2Low": null,
            "ctb2Main": {
              "ntr": "ROOT_FIXED",
              "ntt": "BYPASS",
              "bassOn": false,
              "chordRootUpperLimit": 6,
              "noteLowLimit": 0,
              "noteHighLimit": 127,
              "rtr": "PITCH_SHIFT"
            },
            "ctb2High": null
          },
          "notes": [
            {
              "pitch": 23,
              "velocity": 117,
              "position": 0,
              "duration": 0.00625
            },
            {
              "pitch": 73,
              "velocity": 59,
              "position": 0,
              "duration": 0.00625
            },
            {
              "pitch": 73,
              "velocity": 25,
              "position": 0.5,
              "duration": 0.00625
            },
            {
              "pitch": 22,
              "velocity": 42,
              "position": 0.5104166666666666,
              "duration": 0.00625
            },
            {
              "pitch": 65,
              "velocity": 66,
              "position": 0,
              "duration": 0.975
            },
            {
              "pitch": 26,
              "velocity": 112,
              "position": 1,
              "duration": 0.00625
            },
            {
              "pitch": 73,
              "velocity": 100,
              "position": 1,
              "duration": 0.00625
            },
            {
              "pitch": 64,
              "velocity": 75,
              "position": 1.0125,
              "duration": 0.00625
            },
            {
              "pitch": 73,
              "velocity": 28,
              "position": 1.5,
              "duration": 0.00625
            },
            {
              "pitch": 31,
              "velocity": 63,
              "position": 1.5104166666666667,
              "duration": 0.00625
            },
            {
              "pitch": 64,
              "velocity": 76,
              "position": 1.5104166666666667,
              "duration": 0.00625
            },
            {
              "pitch": 31,
              "velocity": 116,
              "position": 2,
              "duration": 0.00625
            },
            {
              "pitch": 73,
              "velocity": 61,
              "position": 2,
              "duration": 0.00625
            },
            {
              "pitch": 73,
              "velocity": 29,
              "position": 2.5,
              "duration": 0.00625
            },
            {
              "pitch": 23,
              "velocity": 44,
              "position": 2.5104166666666665,
              "duration": 0.00625
            },
            {
              "pitch": 65,
              "velocity": 66,
              "position": 2,
              "duration": 0.9958333333333333
            },
            {
              "pitch": 24,
              "velocity": 87,
              "position": 3,
              "duration": 0.00625
            },
            {
              "pitch": 64,
              "velocity": 82,
              "position": 3,
              "duration": 0.00625
            },
            {
              "pitch": 73,
              "velocity": 100,
              "position": 3,
              "duration": 0.00625
            },
            {
              "pitch": 64,
              "velocity": 76,
              "position": 3.5,
              "duration": 0.00625
            },
            {
              "pitch": 73,
              "velocity": 29,
              "position": 3.5,
              "duration": 0.00625
            },
            {
              "pitch": 25,
              "velocity": 127,
              "position": 3.5104166666666665,
              "duration": 0.00625
            },
            {
              "pitch": 23,
              "velocity": 116,
              "position": 4,
              "duration": 0.00625
            },
            {
              "pitch": 73,
              "velocity": 63,
              "position": 4,
              "duration": 0.00625
            },
            {
              "pitch": 73,
              "velocity": 25,
              "position": 4.5,
              "duration": 0.00625
            },
            {
              "pitch": 22,
              "velocity": 37,
              "position": 4.510416666666667,
              "duration": 0.00625
            },
            {
              "pitch": 65,
              "velocity": 66,
              "position": 4,
              "duration": 0.9875
            },
            {
              "pitch": 26,
              "velocity": 112,
              "position": 5,
              "duration": 0.00625
            },
            {
              "pitch": 73,
              "velocity": 100,
              "position": 5,
              "duration": 0.00625
            },
            {
              "pitch": 64,
              "velocity": 81,
              "position": 5.010416666666667,
              "duration": 0.00625
            },
            {
              "pitch": 73,
              "velocity": 23,
              "position": 5.5,
              "duration": 0.00625
            },
            {
              "pitch": 22,
              "velocity": 36,
              "position": 5.510416666666667,
              "duration": 0.00625
            },
            {
              "pitch": 64,
              "velocity": 76,
              "position": 5.510416666666667,
              "duration": 0.00625
            },
            {
              "pitch": 23,
              "velocity": 99,
              "position": 6,
              "duration": 0.00625
            },
            {
              "pitch": 73,
              "velocity": 66,
              "position": 6,
              "duration": 0.00625
            },
            {
              "pitch": 73,
              "velocity": 23,
              "position": 6.5,
              "duration": 0.00625
            },
            {
              "pitch": 22,
              "velocity": 28,
              "position": 6.510416666666667,
              "duration": 0.00625
            },
            {
              "pitch": 24,
              "velocity": 79,
              "position": 7,
              "duration": 0.00625
            },
            {
              "pitch": 65,
              "velocity": 66,
              "position": 6,
              "duration": 1.00625
            },
            {
              "pitch": 73,
              "velocity": 100,
              "position": 7,
              "duration": 0.00625
            },
            {
              "pitch": 64,
              "velocity": 91,
              "position": 7.002083333333333,
              "duration": 0.00625
            },
            {
              "pitch": 73,
              "velocity": 22,
              "position": 7.5,
              "duration": 0.00625
            },
            {
              "pitch": 64,
              "velocity": 76,
              "position": 7.504166666666666,
              "duration": 0.00625
            },
            {
              "pitch": 25,
              "velocity": 127,
              "position": 7.510416666666667,
              "duration": 0.00625
            },
            {
              "pitch": 23,
              "velocity": 117,
              "position": 8,
              "duration": 0.00625
            },
            {
              "pitch": 73,
              "velocity": 97,
              "position": 8,
              "duration": 0.00625
            },
            {
              "pitch": 53,
              "velocity": 73,
              "position": 8.045833333333333,
              "duration": 0.00625
            },
            {
              "pitch": 65,
              "velocity": 66,
              "position": 8,
              "duration": 0.49583333333333335
            },
            {
              "pitch": 64,
              "velocity": 77,
              "position": 8.5,
              "duration": 0.00625
            },
            {
              "pitch": 73,
              "velocity": 46,
              "position": 8.5,
              "duration": 0.00625
            },
            {
              "pitch": 22,
              "velocity": 42,
              "position": 8.510416666666666,
              "duration": 0.00625
            },
            {
              "pitch": 53,
              "velocity": 86,
              "position": 8.54375,
              "duration": 0.00625
            },
            {
              "pitch": 26,
              "velocity": 112,
              "position": 9,
              "duration": 0.00625
            },
            {
              "pitch": 64,
              "velocity": 76,
              "position": 9,
              "duration": 0.00625
            },
            {
              "pitch": 73,
              "velocity": 100,
              "position": 9,
              "duration": 0.00625
            },
            {
              "pitch": 53,
              "velocity": 117,
              "position": 9.04375,
              "duration": 0.00625
            },
            {
              "pitch": 23,
              "velocity": 44,
              "position": 10.510416666666666,
              "duration": 0.00625
            },
            {
              "pitch": 24,
              "velocity": 87,
              "position": 11,
              "duration": 0.00625
            },
            {
              "pitch": 24,
              "velocity": 60,
              "position": 13,
              "duration": 0.00625
            },
            {
              "pitch": 31,
              "velocity": 51,
              "position": 13.166666666666666,
              "duration": 0.00625
            },
            {
              "pitch": 24,
              "velocity": 35,
              "position": 13.34375,
              "duration": 0.00625
            },
            {
              "pitch": 31,
              "velocity": 28,
              "position": 13.491666666666667,
              "duration": 0.00625
            },
            {
              "pitch": 35,
              "velocity": 120,
              "position": 11.5,
              "duration": 2.120833333333333
            },
            {
              "pitch": 24,
              "velocity": 38,
              "position": 13.635416666666666,
              "duration": 0.00625
            },
            {
              "pitch": 31,
              "velocity": 44,
              "position": 13.770833333333334,
              "duration": 0.00625
            },
            {
              "pitch": 24,
              "velocity": 52,
              "position": 13.889583333333333,
              "duration": 0.00625
            },
            {
              "pitch": 31,
              "velocity": 58,
              "position": 14.022916666666667,
              "duration": 0.00625
            },
            {
              "pitch": 24,
              "velocity": 68,
              "position": 14.139583333333333,
              "duration": 0.00625
            },
            {
              "pitch": 31,
              "velocity": 78,
              "position": 14.275,
              "duration": 0.00625
            },
            {
              "pitch": 24,
              "velocity": 92,
              "position": 14.3875,
              "duration": 0.00625
            },
            {
              "pitch": 31,
              "velocity": 110,
              "position": 14.5125,
              "duration": 0.00625
            },
            {
              "pitch": 24,
              "velocity": 99,
              "position": 14.6375,
              "duration": 0.00625
            },
            {
              "pitch": 31,
              "velocity": 77,
              "position": 14.752083333333333,
              "duration": 0.00625
            },
            {
              "pitch": 24,
              "velocity": 65,
              "position": 14.889583333333333,
              "duration": 0.00625
            },
            {
              "pitch": 31,
              "velocity": 50,
              "position": 15.022916666666667,
              "duration": 0.00625
            },
            {
              "pitch": 24,
              "velocity": 44,
              "position": 15.15,
              "duration": 0.00625
            },
            {
              "pitch": 31,
              "velocity": 34,
              "position": 15.264583333333333,
              "duration": 0.00625
            },
            {
              "pitch": 24,
              "velocity": 30,
              "position": 15.395833333333334,
              "duration": 0.00625
            },
            {
              "pitch": 31,
              "velocity": 26,
              "position": 15.541666666666666,
              "duration": 0.00625
            },
            {
              "pitch": 24,
              "velocity": 21,
              "position": 15.729166666666666,
              "duration": 0.00625
            }
          ]
        },
        "10": {
          "ctab": {
            "srcChannel": 10,
            "name": "Bass",
            "accType": "BASS",
            "editable": false,
            "mutedNotes": [],
            "mutedChords": [
              "dim7",
              "dim",
              "minMaj7(9)",
              "minMaj7",
              "min7(11)",
              "min7(9)",
              "min(9)",
              "m7b5",
              "min7",
              "min6",
              "min"
            ],
            "autoStart": false,
            "sourceChordNote": 0,
            "sourceChordType": "Maj",
            "ctb2Low": null,
            "ctb2Main": {
              "ntr": "ROOT_TRANSPOSITION",
              "ntt": "BYPASS",
              "bassOn": false,
              "chordRootUpperLimit": 3,
              "noteLowLimit": 28,
              "noteHighLimit": 127,
              "rtr": "PITCH_SHIFT"
            },
            "ctb2High": null
          },
          "notes": [
            {
              "pitch": 26,
              "velocity": 60,
              "position": 0,
              "duration": 0.9645833333333333
            },
            {
              "pitch": 26,
              "velocity": 111,
              "position": 1,
              "duration": 0.0375
            },
            {
              "pitch": 33,
              "velocity": 58,
              "position": 1.5,
              "duration": 0.48541666666666666
            },
            {
              "pitch": 31,
              "velocity": 60,
              "position": 2,
              "duration": 0.9645833333333333
            },
            {
              "pitch": 31,
              "velocity": 108,
              "position": 2.9916666666666667,
              "duration": 0.058333333333333334
            },
            {
              "pitch": 26,
              "velocity": 60,
              "position": 3.5,
              "duration": 1.4645833333333333
            },
            {
              "pitch": 26,
              "velocity": 111,
              "position": 5,
              "duration": 0.0375
            },
            {
              "pitch": 33,
              "velocity": 77,
              "position": 5.5,
              "duration": 0.48541666666666666
            },
            {
              "pitch": 31,
              "velocity": 60,
              "position": 6,
              "duration": 0.46458333333333335
            },
            {
              "pitch": 31,
              "velocity": 108,
              "position": 6.5,
              "duration": 0.0375
            },
            {
              "pitch": 31,
              "velocity": 71,
              "position": 7,
              "duration": 0.475
            },
            {
              "pitch": 31,
              "velocity": 108,
              "position": 7.5,
              "duration": 0.016666666666666666
            },
            {
              "pitch": 24,
              "velocity": 60,
              "position": 8,
              "duration": 0.46458333333333335
            },
            {
              "pitch": 24,
              "velocity": 57,
              "position": 8.5,
              "duration": 0.46458333333333335
            },
            {
              "pitch": 24,
              "velocity": 79,
              "position": 9,
              "duration": 0.5375
            },
            {
              "pitch": 99,
              "velocity": 80,
              "position": 14.5,
              "duration": 1.4895833333333333
            }
          ]
        },
        "11": {
          "ctab": {
            "srcChannel": 11,
            "name": "E.Guitar",
            "accType": "CHORD1",
            "editable": false,
            "mutedNotes": [],
            "mutedChords": [
              "dim7",
              "dim",
              "minMaj7(9)",
              "minMaj7",
              "min7(11)",
              "min7(9)",
              "min(9)",
              "m7b5",
              "min7",
              "min6",
              "min"
            ],
            "autoStart": false,
            "sourceChordNote": 0,
            "sourceChordType": "Maj",
            "ctb2Low": null,
            "ctb2Main": {
              "ntr": "ROOT_TRANSPOSITION",
              "ntt": "BYPASS",
              "bassOn": false,
              "chordRootUpperLimit": 6,
              "noteLowLimit": 0,
              "noteHighLimit": 79,
              "rtr": "PITCH_SHIFT"
            },
            "ctb2High": null
          },
          "notes": [
            {
              "pitch": 50,
              "velocity": 51,
              "position": 0,
              "duration": 0.5583333333333333
            },
            {
              "pitch": 53,
              "velocity": 118,
              "position": 1,
              "duration": 0.5166666666666667
            },
            {
              "pitch": 57,
              "velocity": 55,
              "position": 1.5,
              "duration": 0.48541666666666666
            },
            {
              "pitch": 55,
              "velocity": 51,
              "position": 2,
              "duration": 0.38125
            },
            {
              "pitch": 120,
              "velocity": 35,
              "position": 2.75,
              "duration": 0.5583333333333333
            },
            {
              "pitch": 50,
              "velocity": 50,
              "position": 3.5,
              "duration": 0.4125
            },
            {
              "pitch": 53,
              "velocity": 119,
              "position": 4.5,
              "duration": 0.9854166666666667
            },
            {
              "pitch": 57,
              "velocity": 48,
              "position": 5.5,
              "duration": 0.43333333333333335
            },
            {
              "pitch": 55,
              "velocity": 49,
              "position": 6,
              "duration": 0.46458333333333335
            },
            {
              "pitch": 55,
              "velocity": 68,
              "position": 6.5,
              "duration": 0.13125
            },
            {
              "pitch": 55,
              "velocity": 47,
              "position": 7,
              "duration": 0.46458333333333335
            },
            {
              "pitch": 55,
              "velocity": 68,
              "position": 7.5,
              "duration": 0.12083333333333333
            },
            {
              "pitch": 60,
              "velocity": 50,
              "position": 8,
              "duration": 0.46458333333333335
            },
            {
              "pitch": 60,
              "velocity": 36,
              "position": 8.5,
              "duration": 0.46458333333333335
            },
            {
              "pitch": 60,
              "velocity": 52,
              "position": 9,
              "duration": 0.24583333333333332
            },
            {
              "pitch": 122,
              "velocity": 35,
              "position": 9.5,
              "duration": 0.5583333333333333
            }
          ]
        },
        "12": {
          "ctab": {
            "srcChannel": 12,
            "name": "Organ",
            "accType": "CHORD2",
            "editable": false,
            "mutedNotes": [],
            "mutedChords": [
              "dim7",
              "dim",
              "minMaj7(9)",
              "minMaj7",
              "min7(11)",
              "min7(9)",
              "min(9)",
              "m7b5",
              "min7",
              "min6",
              "min"
            ],
            "autoStart": false,
            "sourceChordNote": 0,
            "sourceChordType": "Maj",
            "ctb2Low": null,
            "ctb2Main": {
              "ntr": "ROOT_TRANSPOSITION",
              "ntt": "BYPASS",
              "bassOn": false,
              "chordRootUpperLimit": 4,
              "noteLowLimit": 0,
              "noteHighLimit": 72,
              "rtr": "PITCH_SHIFT"
            },
            "ctb2High": null
          },
          "notes": [
            {
              "pitch": 65,
              "velocity": 110,
              "position": 0.03333333333333333,
              "duration": 0.3333333333333333
            },
            {
              "pitch": 69,
              "velocity": 110,
              "position": 0.03333333333333333,
              "duration": 0.34375
            },
            {
              "pitch": 72,
              "velocity": 110,
              "position": 0.03333333333333333,
              "duration": 0.36041666666666666
            },
            {
              "pitch": 74,
              "velocity": 110,
              "position": 0.03333333333333333,
              "duration": 0.36041666666666666
            },
            {
              "pitch": 69,
              "velocity": 110,
              "position": 1.0104166666666667,
              "duration": 0.2625
            },
            {
              "pitch": 74,
              "velocity": 110,
              "position": 1.0104166666666667,
              "duration": 0.26666666666666666
            },
            {
              "pitch": 65,
              "velocity": 110,
              "position": 1.0104166666666667,
              "duration": 0.28125
            },
            {
              "pitch": 72,
              "velocity": 110,
              "position": 1.0104166666666667,
              "duration": 0.28125
            },
            {
              "pitch": 65,
              "velocity": 110,
              "position": 2.0208333333333335,
              "duration": 0.4166666666666667
            },
            {
              "pitch": 67,
              "velocity": 110,
              "position": 2.0208333333333335,
              "duration": 0.42291666666666666
            },
            {
              "pitch": 71,
              "velocity": 110,
              "position": 2.0208333333333335,
              "duration": 0.43333333333333335
            },
            {
              "pitch": 74,
              "velocity": 110,
              "position": 2.0104166666666665,
              "duration": 0.475
            },
            {
              "pitch": 67,
              "velocity": 110,
              "position": 2.535416666666667,
              "duration": 0.12291666666666666
            },
            {
              "pitch": 71,
              "velocity": 110,
              "position": 2.535416666666667,
              "duration": 0.13333333333333333
            },
            {
              "pitch": 65,
              "velocity": 110,
              "position": 2.53125,
              "duration": 0.14583333333333334
            },
            {
              "pitch": 74,
              "velocity": 110,
              "position": 2.535416666666667,
              "duration": 0.175
            },
            {
              "pitch": 65,
              "velocity": 111,
              "position": 3.5416666666666665,
              "duration": 0.20833333333333334
            },
            {
              "pitch": 69,
              "velocity": 111,
              "position": 3.533333333333333,
              "duration": 0.22916666666666666
            },
            {
              "pitch": 72,
              "velocity": 111,
              "position": 3.5416666666666665,
              "duration": 0.22916666666666666
            },
            {
              "pitch": 74,
              "velocity": 111,
              "position": 3.533333333333333,
              "duration": 0.25625
            },
            {
              "pitch": 65,
              "velocity": 111,
              "position": 4.533333333333333,
              "duration": 0.925
            },
            {
              "pitch": 69,
              "velocity": 111,
              "position": 4.53125,
              "duration": 0.9458333333333333
            },
            {
              "pitch": 74,
              "velocity": 111,
              "position": 4.535416666666666,
              "duration": 0.9458333333333333
            },
            {
              "pitch": 72,
              "velocity": 111,
              "position": 4.53125,
              "duration": 0.9541666666666667
            },
            {
              "pitch": 65,
              "velocity": 110,
              "position": 5.520833333333333,
              "duration": 0.14166666666666666
            },
            {
              "pitch": 69,
              "velocity": 110,
              "position": 5.520833333333333,
              "duration": 0.14166666666666666
            },
            {
              "pitch": 72,
              "velocity": 110,
              "position": 5.520833333333333,
              "duration": 0.16666666666666666
            },
            {
              "pitch": 74,
              "velocity": 110,
              "position": 5.5125,
              "duration": 0.20833333333333334
            },
            {
              "pitch": 67,
              "velocity": 109,
              "position": 5.99375,
              "duration": 0.47291666666666665
            },
            {
              "pitch": 71,
              "velocity": 109,
              "position": 5.99375,
              "duration": 0.47291666666666665
            },
            {
              "pitch": 74,
              "velocity": 109,
              "position": 5.989583333333333,
              "duration": 0.47708333333333336
            },
            {
              "pitch": 65,
              "velocity": 109,
              "position": 5.99375,
              "duration": 0.48333333333333334
            },
            {
              "pitch": 67,
              "velocity": 109,
              "position": 6.49375,
              "duration": 0.16041666666666668
            },
            {
              "pitch": 71,
              "velocity": 109,
              "position": 6.49375,
              "duration": 0.16041666666666668
            },
            {
              "pitch": 74,
              "velocity": 109,
              "position": 6.489583333333333,
              "duration": 0.16458333333333333
            },
            {
              "pitch": 65,
              "velocity": 109,
              "position": 6.5,
              "duration": 0.16458333333333333
            },
            {
              "pitch": 74,
              "velocity": 109,
              "position": 7,
              "duration": 0.4354166666666667
            },
            {
              "pitch": 41,
              "velocity": 48,
              "position": 7.385416666666667,
              "duration": 0.09583333333333334
            },
            {
              "pitch": 67,
              "velocity": 109,
              "position": 7.004166666666666,
              "duration": 0.5229166666666667
            },
            {
              "pitch": 65,
              "velocity": 109,
              "position": 7.010416666666667,
              "duration": 0.5270833333333333
            },
            {
              "pitch": 71,
              "velocity": 109,
              "position": 7.010416666666667,
              "duration": 0.5270833333333333
            },
            {
              "pitch": 43,
              "velocity": 54,
              "position": 7.4375,
              "duration": 0.10416666666666667
            },
            {
              "pitch": 45,
              "velocity": 59,
              "position": 7.489583333333333,
              "duration": 0.1
            },
            {
              "pitch": 47,
              "velocity": 66,
              "position": 7.541666666666667,
              "duration": 0.1
            },
            {
              "pitch": 48,
              "velocity": 70,
              "position": 7.583333333333333,
              "duration": 0.10208333333333333
            },
            {
              "pitch": 50,
              "velocity": 75,
              "position": 7.629166666666666,
              "duration": 0.10833333333333334
            },
            {
              "pitch": 52,
              "velocity": 81,
              "position": 7.679166666666666,
              "duration": 0.10833333333333334
            },
            {
              "pitch": 53,
              "velocity": 86,
              "position": 7.729166666666667,
              "duration": 0.14166666666666666
            },
            {
              "pitch": 55,
              "velocity": 91,
              "position": 7.772916666666666,
              "duration": 0.1875
            },
            {
              "pitch": 57,
              "velocity": 97,
              "position": 7.822916666666667,
              "duration": 0.2
            },
            {
              "pitch": 59,
              "velocity": 103,
              "position": 7.879166666666666,
              "duration": 0.15416666666666667
            },
            {
              "pitch": 69,
              "velocity": 111,
              "position": 7.979166666666667,
              "duration": 0.3645833333333333
            },
            {
              "pitch": 62,
              "velocity": 112,
              "position": 7.98125,
              "duration": 0.37083333333333335
            },
            {
              "pitch": 67,
              "velocity": 110,
              "position": 7.972916666666666,
              "duration": 0.38333333333333336
            },
            {
              "pitch": 72,
              "velocity": 111,
              "position": 7.979166666666667,
              "duration": 0.39166666666666666
            },
            {
              "pitch": 64,
              "velocity": 110,
              "position": 7.979166666666667,
              "duration": 0.3958333333333333
            },
            {
              "pitch": 62,
              "velocity": 112,
              "position": 8.510416666666666,
              "duration": 0.23958333333333334
            },
            {
              "pitch": 67,
              "velocity": 112,
              "position": 8.510416666666666,
              "duration": 0.23958333333333334
            },
            {
              "pitch": 69,
              "velocity": 112,
              "position": 8.510416666666666,
              "duration": 0.24791666666666667
            },
            {
              "pitch": 72,
              "velocity": 112,
              "position": 8.5,
              "duration": 0.25833333333333336
            },
            {
              "pitch": 64,
              "velocity": 112,
              "position": 8.510416666666666,
              "duration": 0.25625
            },
            {
              "pitch": 62,
              "velocity": 113,
              "position": 9.004166666666666,
              "duration": 0.39791666666666664
            },
            {
              "pitch": 64,
              "velocity": 113,
              "position": 9.002083333333333,
              "duration": 0.4166666666666667
            },
            {
              "pitch": 72,
              "velocity": 113,
              "position": 8.99375,
              "duration": 0.4395833333333333
            },
            {
              "pitch": 69,
              "velocity": 113,
              "position": 9,
              "duration": 0.46458333333333335
            },
            {
              "pitch": 67,
              "velocity": 113,
              "position": 9,
              "duration": 0.5479166666666667
            },
            {
              "pitch": 65,
              "velocity": 99,
              "position": 9.491666666666667,
              "duration": 0.12916666666666668
            },
            {
              "pitch": 64,
              "velocity": 93,
              "position": 9.577083333333333,
              "duration": 0.09166666666666666
            },
            {
              "pitch": 62,
              "velocity": 88,
              "position": 9.629166666666666,
              "duration": 0.08958333333333333
            },
            {
              "pitch": 60,
              "velocity": 85,
              "position": 9.677083333333334,
              "duration": 0.10416666666666667
            },
            {
              "pitch": 59,
              "velocity": 81,
              "position": 9.729166666666666,
              "duration": 0.08125
            },
            {
              "pitch": 57,
              "velocity": 78,
              "position": 9.775,
              "duration": 0.09791666666666667
            },
            {
              "pitch": 55,
              "velocity": 75,
              "position": 9.822916666666666,
              "duration": 0.10416666666666667
            },
            {
              "pitch": 53,
              "velocity": 71,
              "position": 9.864583333333334,
              "duration": 0.10625
            },
            {
              "pitch": 52,
              "velocity": 67,
              "position": 9.927083333333334,
              "duration": 0.09166666666666666
            },
            {
              "pitch": 50,
              "velocity": 62,
              "position": 9.991666666666667,
              "duration": 0.052083333333333336
            },
            {
              "pitch": 88,
              "velocity": 92,
              "position": 12.989583333333334,
              "duration": 0.17291666666666666
            },
            {
              "pitch": 91,
              "velocity": 92,
              "position": 12.989583333333334,
              "duration": 0.17291666666666666
            },
            {
              "pitch": 93,
              "velocity": 93,
              "position": 13,
              "duration": 0.17291666666666666
            },
            {
              "pitch": 96,
              "velocity": 93,
              "position": 13,
              "duration": 0.17291666666666666
            },
            {
              "pitch": 88,
              "velocity": 94,
              "position": 13.239583333333334,
              "duration": 0.12083333333333333
            },
            {
              "pitch": 91,
              "velocity": 94,
              "position": 13.239583333333334,
              "duration": 0.12083333333333333
            },
            {
              "pitch": 93,
              "velocity": 94,
              "position": 13.25,
              "duration": 0.12083333333333333
            },
            {
              "pitch": 96,
              "velocity": 94,
              "position": 13.25,
              "duration": 0.12083333333333333
            },
            {
              "pitch": 88,
              "velocity": 97,
              "position": 13.489583333333334,
              "duration": 0.1125
            },
            {
              "pitch": 91,
              "velocity": 97,
              "position": 13.489583333333334,
              "duration": 0.1125
            },
            {
              "pitch": 93,
              "velocity": 97,
              "position": 13.5,
              "duration": 0.1125
            },
            {
              "pitch": 96,
              "velocity": 97,
              "position": 13.5,
              "duration": 0.1125
            },
            {
              "pitch": 88,
              "velocity": 98,
              "position": 13.739583333333334,
              "duration": 0.15208333333333332
            },
            {
              "pitch": 91,
              "velocity": 98,
              "position": 13.739583333333334,
              "duration": 0.15208333333333332
            },
            {
              "pitch": 93,
              "velocity": 99,
              "position": 13.75,
              "duration": 0.14583333333333334
            },
            {
              "pitch": 96,
              "velocity": 99,
              "position": 13.75,
              "duration": 0.14583333333333334
            },
            {
              "pitch": 88,
              "velocity": 100,
              "position": 13.989583333333334,
              "duration": 0.40208333333333335
            },
            {
              "pitch": 91,
              "velocity": 100,
              "position": 13.989583333333334,
              "duration": 0.40208333333333335
            },
            {
              "pitch": 93,
              "velocity": 100,
              "position": 14,
              "duration": 0.40208333333333335
            },
            {
              "pitch": 96,
              "velocity": 100,
              "position": 14,
              "duration": 0.40208333333333335
            },
            {
              "pitch": 88,
              "velocity": 104,
              "position": 14.489583333333334,
              "duration": 0.17291666666666666
            },
            {
              "pitch": 91,
              "velocity": 104,
              "position": 14.489583333333334,
              "duration": 0.17291666666666666
            },
            {
              "pitch": 93,
              "velocity": 104,
              "position": 14.5,
              "duration": 0.17291666666666666
            },
            {
              "pitch": 96,
              "velocity": 104,
              "position": 14.5,
              "duration": 0.17291666666666666
            },
            {
              "pitch": 88,
              "velocity": 108,
              "position": 14.989583333333334,
              "duration": 0.25625
            },
            {
              "pitch": 91,
              "velocity": 108,
              "position": 14.989583333333334,
              "duration": 0.25625
            },
            {
              "pitch": 93,
              "velocity": 108,
              "position": 15,
              "duration": 0.25625
            },
            {
              "pitch": 96,
              "velocity": 108,
              "position": 15,
              "duration": 0.25625
            }
          ]
        },
        "13": {
          "ctab": {
            "srcChannel": 13,
            "name": "Brass",
            "accType": "PAD",
            "editable": false,
            "mutedNotes": [],
            "mutedChords": [
              "dim7",
              "dim",
              "minMaj7(9)",
              "minMaj7",
              "min7(11)",
              "min7(9)",
              "min(9)",
              "m7b5",
              "min7",
              "min6",
              "min"
            ],
            "autoStart": false,
            "sourceChordNote": 0,
            "sourceChordType": "Maj",
            "ctb2Low": null,
            "ctb2Main": {
              "ntr": "ROOT_TRANSPOSITION",
              "ntt": "BYPASS",
              "bassOn": false,
              "chordRootUpperLimit": 9,
              "noteLowLimit": 36,
              "noteHighLimit": 82,
              "rtr": "PITCH_SHIFT"
            },
            "ctb2High": null
          },
          "notes": [
            {
              "pitch": 62,
              "velocity": 90,
              "position": 0.0020833333333333333,
              "duration": 0.37083333333333335
            },
            {
              "pitch": 65,
              "velocity": 90,
              "position": 1,
              "duration": 0.4666666666666667
            },
            {
              "pitch": 69,
              "velocity": 90,
              "position": 1.5,
              "duration": 0.50625
            },
            {
              "pitch": 62,
              "velocity": 90,
              "position": 3.5,
              "duration": 0.37083333333333335
            },
            {
              "pitch": 69,
              "velocity": 90,
              "position": 5.502083333333333,
              "duration": 0.19375
            },
            {
              "pitch": 67,
              "velocity": 90,
              "position": 6,
              "duration": 0.4875
            },
            {
              "pitch": 67,
              "velocity": 90,
              "position": 6.5,
              "duration": 0.2125
            },
            {
              "pitch": 67,
              "velocity": 90,
              "position": 7,
              "duration": 0.3020833333333333
            },
            {
              "pitch": 72,
              "velocity": 88,
              "position": 8,
              "duration": 0.48541666666666666
            },
            {
              "pitch": 72,
              "velocity": 88,
              "position": 8.5,
              "duration": 0.20416666666666666
            },
            {
              "pitch": 48,
              "velocity": 118,
              "position": 9.927083333333334,
              "duration": 5.977083333333334
            }
          ]
        },
        "14": {
          "ctab": {
            "srcChannel": 14,
            "name": "Sax",
            "accType": "PHRASE1",
            "editable": false,
            "mutedNotes": [],
            "mutedChords": [
              "dim7",
              "dim",
              "minMaj7(9)",
              "minMaj7",
              "min7(11)",
              "min7(9)",
              "min(9)",
              "m7b5",
              "min7",
              "min6",
              "min"
            ],
            "autoStart": false,
            "sourceChordNote": 0,
            "sourceChordType": "Maj",
            "ctb2Low": null,
            "ctb2Main": {
              "ntr": "ROOT_TRANSPOSITION",
              "ntt": "BYPASS",
              "bassOn": false,
              "chordRootUpperLimit": 9,
              "noteLowLimit": 0,
              "noteHighLimit": 127,
              "rtr": "PITCH_SHIFT"
            },
            "ctb2High": null
          },
          "notes": [
            {
              "pitch": 50,
              "velocity": 88,
              "position": 0,
              "duration": 0.34375
            },
            {
              "pitch": 53,
              "velocity": 84,
              "position": 1,
              "duration": 0.46875
            },
            {
              "pitch": 57,
              "velocity": 114,
              "position": 1.5,
              "duration": 0.49583333333333335
            },
            {
              "pitch": 50,
              "velocity": 88,
              "position": 3.5,
              "duration": 0.30833333333333335
            },
            {
              "pitch": 53,
              "velocity": 84,
              "position": 4.5,
              "duration": 1.00625
            },
            {
              "pitch": 57,
              "velocity": 118,
              "position": 5.5,
              "duration": 0.32916666666666666
            },
            {
              "pitch": 55,
              "velocity": 84,
              "position": 6,
              "duration": 0.45625
            },
            {
              "pitch": 55,
              "velocity": 108,
              "position": 6.5,
              "duration": 0.18333333333333332
            },
            {
              "pitch": 55,
              "velocity": 84,
              "position": 6.966666666666667,
              "duration": 0.36875
            },
            {
              "pitch": 60,
              "velocity": 51,
              "position": 8,
              "duration": 0.4583333333333333
            },
            {
              "pitch": 60,
              "velocity": 79,
              "position": 8.5,
              "duration": 0.46458333333333335
            }
          ]
        },
        "15": {
          "ctab": {
            "srcChannel": 15,
            "name": "Vib",
            "accType": "PHRASE2",
            "editable": false,
            "mutedNotes": [],
            "mutedChords": [
              "dim7",
              "dim",
              "minMaj7(9)",
              "minMaj7",
              "min7(11)",
              "min7(9)",
              "min(9)",
              "m7b5",
              "min7",
              "min6",
              "min"
            ],
            "autoStart": false,
            "sourceChordNote": 0,
            "sourceChordType": "Maj",
            "ctb2Low": null,
            "ctb2Main": {
              "ntr": "ROOT_TRANSPOSITION",
              "ntt": "BYPASS",
              "bassOn": false,
              "chordRootUpperLimit": 9,
              "noteLowLimit": 0,
              "noteHighLimit": 127,
              "rtr": "PITCH_SHIFT"
            },
            "ctb2High": null
          },
          "notes": [
            {
              "pitch": 62,
              "velocity": 107,
              "position": 0,
              "duration": 0.39166666666666666
            },
            {
              "pitch": 65,
              "velocity": 110,
              "position": 1,
              "duration": 0.47708333333333336
            },
            {
              "pitch": 69,
              "velocity": 109,
              "position": 1.5,
              "duration": 0.38125
            },
            {
              "pitch": 67,
              "velocity": 111,
              "position": 2,
              "duration": 0.32916666666666666
            },
            {
              "pitch": 62,
              "velocity": 107,
              "position": 3.5,
              "duration": 0.31875
            },
            {
              "pitch": 65,
              "velocity": 106,
              "position": 4.5,
              "duration": 0.27708333333333335
            },
            {
              "pitch": 69,
              "velocity": 105,
              "position": 5.5,
              "duration": 0.3625
            },
            {
              "pitch": 67,
              "velocity": 111,
              "position": 6,
              "duration": 0.45416666666666666
            },
            {
              "pitch": 67,
              "velocity": 97,
              "position": 6.5,
              "duration": 0.19583333333333333
            },
            {
              "pitch": 67,
              "velocity": 112,
              "position": 7,
              "duration": 0.46458333333333335
            },
            {
              "pitch": 72,
              "velocity": 115,
              "position": 8,
              "duration": 0.3958333333333333
            },
            {
              "pitch": 72,
              "velocity": 100,
              "position": 8.5,
              "duration": 0.42291666666666666
            },
            {
              "pitch": 72,
              "velocity": 119,
              "position": 9,
              "duration": 0.15208333333333332
            }
          ]
        }
      }
    },
    "Ending_B": {
      "type": "Ending_B",
      "sizeInBeats": 12,
      "channels": {
        "1": {
          "ctab": {
            "srcChannel": 1,
            "name": "Bass",
            "accType": "BASS",
            "editable": false,
            "mutedNotes": [],
            "mutedChords": [
              "1+2+5",
              "sus4",
              "1+5",
              "1+8",
              "7aug",
              "Maj7aug",
              "7(#9)",
              "7(b13)",
              "7(b9)",
              "7(13)",
              "7#11",
              "7(9)",
              "7b5",
              "7sus4",
              "7th",
              "aug",
              "Maj6(9)",
              "Maj7(9)",
              "Maj(9)",
              "Maj7#11",
              "Maj7",
              "Maj6",
              "Maj"
            ],
            "autoStart": false,
            "sourceChordNote": 0,
            "sourceChordType": "min",
            "ctb2Low": null,
            "ctb2Main": {
              "ntr": "ROOT_TRANSPOSITION",
              "ntt": "BYPASS",
              "bassOn": false,
              "chordRootUpperLimit": 3,
              "noteLowLimit": 28,
              "noteHighLimit": 127,
              "rtr": "PITCH_SHIFT"
            },
            "ctb2High": null
          },
          "notes": [
            {
              "pitch": 38,
              "velocity": 60,
              "position": 0,
              "duration": 0.9645833333333333
            },
            {
              "pitch": 38,
              "velocity": 108,
              "position": 1,
              "duration": 0.0375
            },
            {
              "pitch": 44,
              "velocity": 60,
              "position": 1.5,
              "duration": 0.48541666666666666
            },
            {
              "pitch": 43,
              "velocity": 60,
              "position": 2,
              "duration": 0.9645833333333333
            },
            {
              "pitch": 43,
              "velocity": 108,
              "position": 2.9916666666666667,
              "duration": 0.058333333333333334
            },
            {
              "pitch": 38,
              "velocity": 60,
              "position": 3.5,
              "duration": 0.6416666666666667
            },
            {
              "pitch": 44,
              "velocity": 60,
              "position": 5.5,
              "duration": 0.48541666666666666
            },
            {
              "pitch": 43,
              "velocity": 60,
              "position": 6,
              "duration": 0.46458333333333335
            },
            {
              "pitch": 43,
              "velocity": 108,
              "position": 6.5,
              "duration": 0.08958333333333333
            },
            {
              "pitch": 43,
              "velocity": 60,
              "position": 7,
              "duration": 0.475
            },
            {
              "pitch": 43,
              "velocity": 108,
              "position": 7.5,
              "duration": 0.07916666666666666
            },
            {
              "pitch": 36,
              "velocity": 60,
              "position": 8,
              "duration": 0.46458333333333335
            },
            {
              "pitch": 36,
              "velocity": 57,
              "position": 8.5,
              "duration": 0.46458333333333335
            },
            {
              "pitch": 36,
              "velocity": 61,
              "position": 9,
              "duration": 0.5375
            }
          ]
        },
        "2": {
          "ctab": {
            "srcChannel": 2,
            "name": "E.Guitar",
            "accType": "CHORD1",
            "editable": false,
            "mutedNotes": [],
            "mutedChords": [
              "1+2+5",
              "sus4",
              "1+5",
              "1+8",
              "7aug",
              "Maj7aug",
              "7(#9)",
              "7(b13)",
              "7(b9)",
              "7(13)",
              "7#11",
              "7(9)",
              "7b5",
              "7sus4",
              "7th",
              "aug",
              "Maj6(9)",
              "Maj7(9)",
              "Maj(9)",
              "Maj7#11",
              "Maj7",
              "Maj6",
              "Maj"
            ],
            "autoStart": false,
            "sourceChordNote": 0,
            "sourceChordType": "min",
            "ctb2Low": null,
            "ctb2Main": {
              "ntr": "ROOT_TRANSPOSITION",
              "ntt": "BYPASS",
              "bassOn": false,
              "chordRootUpperLimit": 6,
              "noteLowLimit": 0,
              "noteHighLimit": 79,
              "rtr": "PITCH_SHIFT"
            },
            "ctb2High": null
          },
          "notes": [
            {
              "pitch": 50,
              "velocity": 51,
              "position": 0,
              "duration": 0.5583333333333333
            },
            {
              "pitch": 53,
              "velocity": 118,
              "position": 1,
              "duration": 0.5166666666666667
            },
            {
              "pitch": 56,
              "velocity": 55,
              "position": 1.5,
              "duration": 0.48541666666666666
            },
            {
              "pitch": 55,
              "velocity": 51,
              "position": 2,
              "duration": 0.38125
            },
            {
              "pitch": 120,
              "velocity": 35,
              "position": 2.75,
              "duration": 0.5583333333333333
            },
            {
              "pitch": 50,
              "velocity": 50,
              "position": 3.5,
              "duration": 0.4125
            },
            {
              "pitch": 53,
              "velocity": 119,
              "position": 4.5,
              "duration": 0.9854166666666667
            },
            {
              "pitch": 56,
              "velocity": 48,
              "position": 5.5,
              "duration": 0.43333333333333335
            },
            {
              "pitch": 55,
              "velocity": 49,
              "position": 6,
              "duration": 0.46458333333333335
            },
            {
              "pitch": 55,
              "velocity": 68,
              "position": 6.5,
              "duration": 0.13125
            },
            {
              "pitch": 55,
              "velocity": 47,
              "position": 7,
              "duration": 0.46458333333333335
            },
            {
              "pitch": 55,
              "velocity": 68,
              "position": 7.5,
              "duration": 0.12083333333333333
            },
            {
              "pitch": 60,
              "velocity": 52,
              "position": 8,
              "duration": 0.46458333333333335
            },
            {
              "pitch": 60,
              "velocity": 38,
              "position": 8.5,
              "duration": 0.46458333333333335
            },
            {
              "pitch": 60,
              "velocity": 52,
              "position": 9,
              "duration": 0.14166666666666666
            }
          ]
        },
        "3": {
          "ctab": {
            "srcChannel": 3,
            "name": "Organ",
            "accType": "CHORD2",
            "editable": false,
            "mutedNotes": [],
            "mutedChords": [
              "1+2+5",
              "sus4",
              "1+5",
              "1+8",
              "7aug",
              "Maj7aug",
              "7(#9)",
              "7(b13)",
              "7(b9)",
              "7(13)",
              "7#11",
              "7(9)",
              "7b5",
              "7sus4",
              "7th",
              "aug",
              "Maj6(9)",
              "Maj7(9)",
              "Maj(9)",
              "Maj7#11",
              "Maj7",
              "Maj6",
              "Maj"
            ],
            "autoStart": false,
            "sourceChordNote": 0,
            "sourceChordType": "min",
            "ctb2Low": null,
            "ctb2Main": {
              "ntr": "ROOT_TRANSPOSITION",
              "ntt": "BYPASS",
              "bassOn": false,
              "chordRootUpperLimit": 4,
              "noteLowLimit": 0,
              "noteHighLimit": 72,
              "rtr": "PITCH_SHIFT"
            },
            "ctb2High": null
          },
          "notes": [
            {
              "pitch": 65,
              "velocity": 100,
              "position": 0.03333333333333333,
              "duration": 0.3333333333333333
            },
            {
              "pitch": 68,
              "velocity": 100,
              "position": 0.03333333333333333,
              "duration": 0.34375
            },
            {
              "pitch": 72,
              "velocity": 100,
              "position": 0.03333333333333333,
              "duration": 0.36041666666666666
            },
            {
              "pitch": 74,
              "velocity": 100,
              "position": 0.03333333333333333,
              "duration": 0.36041666666666666
            },
            {
              "pitch": 68,
              "velocity": 100,
              "position": 1.0104166666666667,
              "duration": 0.2625
            },
            {
              "pitch": 74,
              "velocity": 100,
              "position": 1.0104166666666667,
              "duration": 0.26666666666666666
            },
            {
              "pitch": 65,
              "velocity": 100,
              "position": 1.0104166666666667,
              "duration": 0.28125
            },
            {
              "pitch": 72,
              "velocity": 100,
              "position": 1.0104166666666667,
              "duration": 0.28125
            },
            {
              "pitch": 65,
              "velocity": 100,
              "position": 2.0208333333333335,
              "duration": 0.4166666666666667
            },
            {
              "pitch": 67,
              "velocity": 100,
              "position": 2.0208333333333335,
              "duration": 0.42291666666666666
            },
            {
              "pitch": 71,
              "velocity": 100,
              "position": 2.0208333333333335,
              "duration": 0.43333333333333335
            },
            {
              "pitch": 74,
              "velocity": 100,
              "position": 2.0104166666666665,
              "duration": 0.475
            },
            {
              "pitch": 67,
              "velocity": 100,
              "position": 2.535416666666667,
              "duration": 0.12291666666666666
            },
            {
              "pitch": 71,
              "velocity": 100,
              "position": 2.535416666666667,
              "duration": 0.13333333333333333
            },
            {
              "pitch": 65,
              "velocity": 100,
              "position": 2.53125,
              "duration": 0.14583333333333334
            },
            {
              "pitch": 74,
              "velocity": 100,
              "position": 2.535416666666667,
              "duration": 0.175
            },
            {
              "pitch": 65,
              "velocity": 101,
              "position": 3.5416666666666665,
              "duration": 0.20833333333333334
            },
            {
              "pitch": 68,
              "velocity": 101,
              "position": 3.533333333333333,
              "duration": 0.22916666666666666
            },
            {
              "pitch": 72,
              "velocity": 101,
              "position": 3.5416666666666665,
              "duration": 0.22916666666666666
            },
            {
              "pitch": 74,
              "velocity": 101,
              "position": 3.533333333333333,
              "duration": 0.25625
            },
            {
              "pitch": 65,
              "velocity": 101,
              "position": 4.533333333333333,
              "duration": 0.925
            },
            {
              "pitch": 68,
              "velocity": 101,
              "position": 4.53125,
              "duration": 0.9458333333333333
            },
            {
              "pitch": 74,
              "velocity": 101,
              "position": 4.535416666666666,
              "duration": 0.9458333333333333
            },
            {
              "pitch": 72,
              "velocity": 101,
              "position": 4.53125,
              "duration": 0.9541666666666667
            },
            {
              "pitch": 65,
              "velocity": 100,
              "position": 5.520833333333333,
              "duration": 0.14166666666666666
            },
            {
              "pitch": 68,
              "velocity": 100,
              "position": 5.520833333333333,
              "duration": 0.14166666666666666
            },
            {
              "pitch": 72,
              "velocity": 100,
              "position": 5.520833333333333,
              "duration": 0.16666666666666666
            },
            {
              "pitch": 74,
              "velocity": 100,
              "position": 5.5125,
              "duration": 0.20833333333333334
            },
            {
              "pitch": 65,
              "velocity": 99,
              "position": 5.99375,
              "duration": 0.325
            },
            {
              "pitch": 67,
              "velocity": 99,
              "position": 5.99375,
              "duration": 0.3416666666666667
            },
            {
              "pitch": 71,
              "velocity": 99,
              "position": 5.99375,
              "duration": 0.3416666666666667
            },
            {
              "pitch": 74,
              "velocity": 99,
              "position": 5.989583333333333,
              "duration": 0.3645833333333333
            },
            {
              "pitch": 65,
              "velocity": 99,
              "position": 6.5,
              "duration": 0.225
            },
            {
              "pitch": 67,
              "velocity": 99,
              "position": 6.49375,
              "duration": 0.24791666666666667
            },
            {
              "pitch": 71,
              "velocity": 99,
              "position": 6.49375,
              "duration": 0.27291666666666664
            },
            {
              "pitch": 74,
              "velocity": 99,
              "position": 6.489583333333333,
              "duration": 0.2875
            },
            {
              "pitch": 74,
              "velocity": 99,
              "position": 7,
              "duration": 0.4354166666666667
            },
            {
              "pitch": 41,
              "velocity": 38,
              "position": 7.385416666666667,
              "duration": 0.09583333333333334
            },
            {
              "pitch": 67,
              "velocity": 99,
              "position": 7.004166666666666,
              "duration": 0.5229166666666667
            },
            {
              "pitch": 65,
              "velocity": 99,
              "position": 7.010416666666667,
              "duration": 0.5270833333333333
            },
            {
              "pitch": 71,
              "velocity": 99,
              "position": 7.010416666666667,
              "duration": 0.5270833333333333
            },
            {
              "pitch": 43,
              "velocity": 44,
              "position": 7.4375,
              "duration": 0.10416666666666667
            },
            {
              "pitch": 45,
              "velocity": 49,
              "position": 7.489583333333333,
              "duration": 0.1
            },
            {
              "pitch": 47,
              "velocity": 56,
              "position": 7.541666666666667,
              "duration": 0.1
            },
            {
              "pitch": 48,
              "velocity": 60,
              "position": 7.583333333333333,
              "duration": 0.10208333333333333
            },
            {
              "pitch": 50,
              "velocity": 65,
              "position": 7.629166666666666,
              "duration": 0.10833333333333334
            },
            {
              "pitch": 52,
              "velocity": 71,
              "position": 7.679166666666666,
              "duration": 0.10833333333333334
            },
            {
              "pitch": 53,
              "velocity": 76,
              "position": 7.729166666666667,
              "duration": 0.14166666666666666
            },
            {
              "pitch": 55,
              "velocity": 81,
              "position": 7.772916666666666,
              "duration": 0.1875
            },
            {
              "pitch": 57,
              "velocity": 87,
              "position": 7.822916666666667,
              "duration": 0.2
            },
            {
              "pitch": 59,
              "velocity": 93,
              "position": 7.879166666666666,
              "duration": 0.15416666666666667
            },
            {
              "pitch": 69,
              "velocity": 101,
              "position": 7.979166666666667,
              "duration": 0.3645833333333333
            },
            {
              "pitch": 67,
              "velocity": 100,
              "position": 7.972916666666666,
              "duration": 0.38333333333333336
            },
            {
              "pitch": 72,
              "velocity": 101,
              "position": 7.979166666666667,
              "duration": 0.39166666666666666
            },
            {
              "pitch": 63,
              "velocity": 100,
              "position": 7.979166666666667,
              "duration": 0.3958333333333333
            },
            {
              "pitch": 67,
              "velocity": 102,
              "position": 8.510416666666666,
              "duration": 0.23958333333333334
            },
            {
              "pitch": 69,
              "velocity": 102,
              "position": 8.510416666666666,
              "duration": 0.24791666666666667
            },
            {
              "pitch": 72,
              "velocity": 102,
              "position": 8.5,
              "duration": 0.25833333333333336
            },
            {
              "pitch": 63,
              "velocity": 102,
              "position": 8.510416666666666,
              "duration": 0.25625
            },
            {
              "pitch": 63,
              "velocity": 103,
              "position": 9.002083333333333,
              "duration": 0.4166666666666667
            },
            {
              "pitch": 72,
              "velocity": 103,
              "position": 8.99375,
              "duration": 0.4395833333333333
            },
            {
              "pitch": 69,
              "velocity": 103,
              "position": 9,
              "duration": 0.46458333333333335
            },
            {
              "pitch": 67,
              "velocity": 103,
              "position": 9,
              "duration": 0.5479166666666667
            },
            {
              "pitch": 65,
              "velocity": 89,
              "position": 9.491666666666667,
              "duration": 0.12916666666666668
            },
            {
              "pitch": 64,
              "velocity": 83,
              "position": 9.577083333333333,
              "duration": 0.09166666666666666
            },
            {
              "pitch": 62,
              "velocity": 78,
              "position": 9.629166666666666,
              "duration": 0.08958333333333333
            },
            {
              "pitch": 60,
              "velocity": 75,
              "position": 9.677083333333334,
              "duration": 0.10416666666666667
            },
            {
              "pitch": 59,
              "velocity": 71,
              "position": 9.729166666666666,
              "duration": 0.08125
            },
            {
              "pitch": 57,
              "velocity": 68,
              "position": 9.775,
              "duration": 0.09791666666666667
            },
            {
              "pitch": 55,
              "velocity": 65,
              "position": 9.822916666666666,
              "duration": 0.10416666666666667
            },
            {
              "pitch": 53,
              "velocity": 61,
              "position": 9.864583333333334,
              "duration": 0.10625
            },
            {
              "pitch": 52,
              "velocity": 57,
              "position": 9.927083333333334,
              "duration": 0.09166666666666666
            },
            {
              "pitch": 50,
              "velocity": 52,
              "position": 9.991666666666667,
              "duration": 0.052083333333333336
            }
          ]
        },
        "4": {
          "ctab": {
            "srcChannel": 4,
            "name": "Brass",
            "accType": "PAD",
            "editable": false,
            "mutedNotes": [],
            "mutedChords": [
              "1+2+5",
              "sus4",
              "1+5",
              "1+8",
              "7aug",
              "Maj7aug",
              "7(#9)",
              "7(b13)",
              "7(b9)",
              "7(13)",
              "7#11",
              "7(9)",
              "7b5",
              "7sus4",
              "7th",
              "aug",
              "Maj6(9)",
              "Maj7(9)",
              "Maj(9)",
              "Maj7#11",
              "Maj7",
              "Maj6",
              "Maj"
            ],
            "autoStart": false,
            "sourceChordNote": 0,
            "sourceChordType": "min",
            "ctb2Low": null,
            "ctb2Main": {
              "ntr": "ROOT_TRANSPOSITION",
              "ntt": "BYPASS",
              "bassOn": false,
              "chordRootUpperLimit": 9,
              "noteLowLimit": 36,
              "noteHighLimit": 82,
              "rtr": "PITCH_SHIFT"
            },
            "ctb2High": null
          },
          "notes": [
            {
              "pitch": 62,
              "velocity": 90,
              "position": 0,
              "duration": 0.38125
            },
            {
              "pitch": 65,
              "velocity": 90,
              "position": 1,
              "duration": 0.4666666666666667
            },
            {
              "pitch": 68,
              "velocity": 90,
              "position": 1.5,
              "duration": 0.50625
            },
            {
              "pitch": 62,
              "velocity": 90,
              "position": 3.5,
              "duration": 0.2916666666666667
            },
            {
              "pitch": 68,
              "velocity": 90,
              "position": 5.502083333333333,
              "duration": 0.11875
            },
            {
              "pitch": 67,
              "velocity": 90,
              "position": 6,
              "duration": 0.4875
            },
            {
              "pitch": 67,
              "velocity": 85,
              "position": 6.5,
              "duration": 0.29375
            },
            {
              "pitch": 67,
              "velocity": 90,
              "position": 7,
              "duration": 0.3
            },
            {
              "pitch": 72,
              "velocity": 87,
              "position": 8,
              "duration": 0.4875
            },
            {
              "pitch": 72,
              "velocity": 85,
              "position": 8.5,
              "duration": 0.25625
            }
          ]
        },
        "5": {
          "ctab": {
            "srcChannel": 5,
            "name": "Sax",
            "accType": "PHRASE1",
            "editable": false,
            "mutedNotes": [],
            "mutedChords": [
              "1+2+5",
              "sus4",
              "1+5",
              "1+8",
              "7aug",
              "Maj7aug",
              "7(#9)",
              "7(b13)",
              "7(b9)",
              "7(13)",
              "7#11",
              "7(9)",
              "7b5",
              "7sus4",
              "7th",
              "aug",
              "Maj6(9)",
              "Maj7(9)",
              "Maj(9)",
              "Maj7#11",
              "Maj7",
              "Maj6",
              "Maj"
            ],
            "autoStart": false,
            "sourceChordNote": 0,
            "sourceChordType": "min",
            "ctb2Low": null,
            "ctb2Main": {
              "ntr": "ROOT_TRANSPOSITION",
              "ntt": "BYPASS",
              "bassOn": false,
              "chordRootUpperLimit": 9,
              "noteLowLimit": 0,
              "noteHighLimit": 127,
              "rtr": "PITCH_SHIFT"
            },
            "ctb2High": null
          },
          "notes": [
            {
              "pitch": 50,
              "velocity": 88,
              "position": 0,
              "duration": 0.34375
            },
            {
              "pitch": 53,
              "velocity": 84,
              "position": 1,
              "duration": 0.46875
            },
            {
              "pitch": 56,
              "velocity": 114,
              "position": 1.5,
              "duration": 0.49583333333333335
            },
            {
              "pitch": 50,
              "velocity": 88,
              "position": 3.5,
              "duration": 0.30833333333333335
            },
            {
              "pitch": 53,
              "velocity": 84,
              "position": 4.5,
              "duration": 1.00625
            },
            {
              "pitch": 56,
              "velocity": 118,
              "position": 5.5,
              "duration": 0.32916666666666666
            },
            {
              "pitch": 55,
              "velocity": 84,
              "position": 6,
              "duration": 0.45625
            },
            {
              "pitch": 55,
              "velocity": 108,
              "position": 6.5,
              "duration": 0.18333333333333332
            },
            {
              "pitch": 55,
              "velocity": 84,
              "position": 6.966666666666667,
              "duration": 0.36875
            },
            {
              "pitch": 60,
              "velocity": 51,
              "position": 8,
              "duration": 0.4583333333333333
            },
            {
              "pitch": 60,
              "velocity": 79,
              "position": 8.5,
              "duration": 0.46458333333333335
            }
          ]
        },
        "6": {
          "ctab": {
            "srcChannel": 6,
            "name": "Vib",
            "accType": "PHRASE2",
            "editable": false,
            "mutedNotes": [],
            "mutedChords": [
              "1+2+5",
              "sus4",
              "1+5",
              "1+8",
              "7aug",
              "Maj7aug",
              "7(#9)",
              "7(b13)",
              "7(b9)",
              "7(13)",
              "7#11",
              "7(9)",
              "7b5",
              "7sus4",
              "7th",
              "aug",
              "Maj6(9)",
              "Maj7(9)",
              "Maj(9)",
              "Maj7#11",
              "Maj7",
              "Maj6",
              "Maj"
            ],
            "autoStart": false,
            "sourceChordNote": 0,
            "sourceChordType": "min",
            "ctb2Low": null,
            "ctb2Main": {
              "ntr": "ROOT_TRANSPOSITION",
              "ntt": "BYPASS",
              "bassOn": false,
              "chordRootUpperLimit": 9,
              "noteLowLimit": 0,
              "noteHighLimit": 127,
              "rtr": "PITCH_SHIFT"
            },
            "ctb2High": null
          },
          "notes": [
            {
              "pitch": 62,
              "velocity": 107,
              "position": 0,
              "duration": 0.39166666666666666
            },
            {
              "pitch": 65,
              "velocity": 110,
              "position": 1,
              "duration": 0.47708333333333336
            },
            {
              "pitch": 68,
              "velocity": 109,
              "position": 1.5,
              "duration": 0.38125
            },
            {
              "pitch": 67,
              "velocity": 111,
              "position": 2,
              "duration": 0.32916666666666666
            },
            {
              "pitch": 62,
              "velocity": 107,
              "position": 3.5,
              "duration": 0.31875
            },
            {
              "pitch": 65,
              "velocity": 106,
              "position": 4.5,
              "duration": 0.27708333333333335
            },
            {
              "pitch": 68,
              "velocity": 105,
              "position": 5.5,
              "duration": 0.3625
            },
            {
              "pitch": 67,
              "velocity": 111,
              "position": 6,
              "duration": 0.45416666666666666
            },
            {
              "pitch": 67,
              "velocity": 97,
              "position": 6.5,
              "duration": 0.19583333333333333
            },
            {
              "pitch": 67,
              "velocity": 112,
              "position": 7,
              "duration": 0.46458333333333335
            },
            {
              "pitch": 72,
              "velocity": 115,
              "position": 8,
              "duration": 0.3958333333333333
            },
            {
              "pitch": 72,
              "velocity": 100,
              "position": 8.5,
              "duration": 0.42291666666666666
            },
            {
              "pitch": 72,
              "velocity": 119,
              "position": 9,
              "duration": 0.15208333333333332
            }
          ]
        },
        "8": {
          "ctab": {
            "srcChannel": 8,
            "name": "AddDrum",
            "accType": "SUBRHYTHM",
            "editable": false,
            "mutedNotes": [],
            "mutedChords": [],
            "autoStart": true,
            "sourceChordNote": 0,
            "sourceChordType": "Maj7",
            "ctb2Low": null,
            "ctb2Main": {
              "ntr": "ROOT_FIXED",
              "ntt": "BYPASS",
              "bassOn": false,
              "chordRootUpperLimit": 6,
              "noteLowLimit": 0,
              "noteHighLimit": 127,
              "rtr": "PITCH_SHIFT"
            },
            "ctb2High": null
          },
          "notes": [
            {
              "pitch": 56,
              "velocity": 87,
              "position": 0,
              "duration": 0.00625
            },
            {
              "pitch": 56,
              "velocity": 118,
              "position": 1,
              "duration": 0.00625
            },
            {
              "pitch": 56,
              "velocity": 86,
              "position": 2,
              "duration": 0.00625
            },
            {
              "pitch": 65,
              "velocity": 87,
              "position": 2.5,
              "duration": 0.00625
            },
            {
              "pitch": 56,
              "velocity": 120,
              "position": 3,
              "duration": 0.00625
            },
            {
              "pitch": 65,
              "velocity": 105,
              "position": 3,
              "duration": 0.00625
            },
            {
              "pitch": 55,
              "velocity": 79,
              "position": 3.5,
              "duration": 0.00625
            },
            {
              "pitch": 56,
              "velocity": 86,
              "position": 4,
              "duration": 0.00625
            },
            {
              "pitch": 56,
              "velocity": 120,
              "position": 5,
              "duration": 0.00625
            },
            {
              "pitch": 56,
              "velocity": 24,
              "position": 5.760416666666667,
              "duration": 0.00625
            },
            {
              "pitch": 56,
              "velocity": 108,
              "position": 6,
              "duration": 0.00625
            },
            {
              "pitch": 56,
              "velocity": 51,
              "position": 6.5,
              "duration": 0.00625
            },
            {
              "pitch": 65,
              "velocity": 89,
              "position": 6.552083333333333,
              "duration": 0.00625
            },
            {
              "pitch": 65,
              "velocity": 52,
              "position": 6.65625,
              "duration": 0.00625
            },
            {
              "pitch": 65,
              "velocity": 60,
              "position": 6.791666666666667,
              "duration": 0.00625
            },
            {
              "pitch": 65,
              "velocity": 87,
              "position": 6.8875,
              "duration": 0.00625
            },
            {
              "pitch": 56,
              "velocity": 120,
              "position": 7,
              "duration": 0.00625
            },
            {
              "pitch": 65,
              "velocity": 105,
              "position": 7,
              "duration": 0.00625
            },
            {
              "pitch": 65,
              "velocity": 95,
              "position": 7.25,
              "duration": 0.00625
            },
            {
              "pitch": 66,
              "velocity": 105,
              "position": 7.5,
              "duration": 0.00625
            },
            {
              "pitch": 56,
              "velocity": 118,
              "position": 7.995833333333334,
              "duration": 0.00625
            },
            {
              "pitch": 49,
              "velocity": 47,
              "position": 8,
              "duration": 0.00625
            },
            {
              "pitch": 56,
              "velocity": 118,
              "position": 8.489583333333334,
              "duration": 0.00625
            },
            {
              "pitch": 49,
              "velocity": 56,
              "position": 8.5,
              "duration": 0.00625
            },
            {
              "pitch": 56,
              "velocity": 118,
              "position": 8.985416666666667,
              "duration": 0.00625
            },
            {
              "pitch": 49,
              "velocity": 74,
              "position": 9,
              "duration": 0.00625
            }
          ]
        },
        "9": {
          "ctab": {
            "srcChannel": 9,
            "name": "MainDrum",
            "accType": "RHYTHM",
            "editable": false,
            "mutedNotes": [],
            "mutedChords": [],
            "autoStart": true,
            "sourceChordNote": 0,
            "sourceChordType": "Maj7",
            "ctb2Low": null,
            "ctb2Main": {
              "ntr": "ROOT_FIXED",
              "ntt": "BYPASS",
              "bassOn": false,
              "chordRootUpperLimit": 6,
              "noteLowLimit": 0,
              "noteHighLimit": 127,
              "rtr": "PITCH_SHIFT"
            },
            "ctb2High": null
          },
          "notes": [
            {
              "pitch": 23,
              "velocity": 117,
              "position": 0,
              "duration": 0.00625
            },
            {
              "pitch": 73,
              "velocity": 59,
              "position": 0,
              "duration": 0.00625
            },
            {
              "pitch": 73,
              "velocity": 25,
              "position": 0.5,
              "duration": 0.00625
            },
            {
              "pitch": 22,
              "velocity": 42,
              "position": 0.5104166666666666,
              "duration": 0.00625
            },
            {
              "pitch": 65,
              "velocity": 66,
              "position": 0,
              "duration": 0.7666666666666667
            },
            {
              "pitch": 26,
              "velocity": 112,
              "position": 1,
              "duration": 0.00625
            },
            {
              "pitch": 73,
              "velocity": 100,
              "position": 1,
              "duration": 0.00625
            },
            {
              "pitch": 64,
              "velocity": 75,
              "position": 1.0125,
              "duration": 0.00625
            },
            {
              "pitch": 73,
              "velocity": 28,
              "position": 1.5,
              "duration": 0.00625
            },
            {
              "pitch": 31,
              "velocity": 63,
              "position": 1.5104166666666667,
              "duration": 0.00625
            },
            {
              "pitch": 64,
              "velocity": 76,
              "position": 1.5104166666666667,
              "duration": 0.00625
            },
            {
              "pitch": 31,
              "velocity": 116,
              "position": 2,
              "duration": 0.00625
            },
            {
              "pitch": 73,
              "velocity": 61,
              "position": 2,
              "duration": 0.00625
            },
            {
              "pitch": 73,
              "velocity": 29,
              "position": 2.5,
              "duration": 0.00625
            },
            {
              "pitch": 23,
              "velocity": 44,
              "position": 2.5104166666666665,
              "duration": 0.00625
            },
            {
              "pitch": 65,
              "velocity": 66,
              "position": 2,
              "duration": 0.7354166666666667
            },
            {
              "pitch": 24,
              "velocity": 87,
              "position": 3,
              "duration": 0.00625
            },
            {
              "pitch": 64,
              "velocity": 82,
              "position": 3,
              "duration": 0.00625
            },
            {
              "pitch": 73,
              "velocity": 100,
              "position": 3,
              "duration": 0.00625
            },
            {
              "pitch": 64,
              "velocity": 76,
              "position": 3.5,
              "duration": 0.00625
            },
            {
              "pitch": 73,
              "velocity": 29,
              "position": 3.5,
              "duration": 0.00625
            },
            {
              "pitch": 25,
              "velocity": 127,
              "position": 3.5104166666666665,
              "duration": 0.00625
            },
            {
              "pitch": 23,
              "velocity": 116,
              "position": 4,
              "duration": 0.00625
            },
            {
              "pitch": 73,
              "velocity": 63,
              "position": 4,
              "duration": 0.00625
            },
            {
              "pitch": 73,
              "velocity": 25,
              "position": 4.5,
              "duration": 0.00625
            },
            {
              "pitch": 22,
              "velocity": 37,
              "position": 4.510416666666667,
              "duration": 0.00625
            },
            {
              "pitch": 65,
              "velocity": 66,
              "position": 4,
              "duration": 0.8333333333333334
            },
            {
              "pitch": 26,
              "velocity": 112,
              "position": 5,
              "duration": 0.00625
            },
            {
              "pitch": 73,
              "velocity": 100,
              "position": 5,
              "duration": 0.00625
            },
            {
              "pitch": 64,
              "velocity": 81,
              "position": 5.010416666666667,
              "duration": 0.00625
            },
            {
              "pitch": 73,
              "velocity": 23,
              "position": 5.5,
              "duration": 0.00625
            },
            {
              "pitch": 22,
              "velocity": 36,
              "position": 5.510416666666667,
              "duration": 0.00625
            },
            {
              "pitch": 64,
              "velocity": 76,
              "position": 5.510416666666667,
              "duration": 0.00625
            },
            {
              "pitch": 23,
              "velocity": 99,
              "position": 6,
              "duration": 0.00625
            },
            {
              "pitch": 73,
              "velocity": 66,
              "position": 6,
              "duration": 0.00625
            },
            {
              "pitch": 73,
              "velocity": 23,
              "position": 6.5,
              "duration": 0.00625
            },
            {
              "pitch": 22,
              "velocity": 28,
              "position": 6.510416666666667,
              "duration": 0.00625
            },
            {
              "pitch": 65,
              "velocity": 66,
              "position": 6,
              "duration": 0.9583333333333334
            },
            {
              "pitch": 24,
              "velocity": 79,
              "position": 7,
              "duration": 0.00625
            },
            {
              "pitch": 73,
              "velocity": 100,
              "position": 7,
              "duration": 0.00625
            },
            {
              "pitch": 64,
              "velocity": 91,
              "position": 7.002083333333333,
              "duration": 0.00625
            },
            {
              "pitch": 73,
              "velocity": 22,
              "position": 7.5,
              "duration": 0.00625
            },
            {
              "pitch": 64,
              "velocity": 76,
              "position": 7.504166666666666,
              "duration": 0.00625
            },
            {
              "pitch": 25,
              "velocity": 127,
              "position": 7.510416666666667,
              "duration": 0.00625
            },
            {
              "pitch": 23,
              "velocity": 117,
              "position": 8,
              "duration": 0.00625
            },
            {
              "pitch": 73,
              "velocity": 97,
              "position": 8,
              "duration": 0.00625
            },
            {
              "pitch": 53,
              "velocity": 73,
              "position": 8.045833333333333,
              "duration": 0.00625
            },
            {
              "pitch": 65,
              "velocity": 66,
              "position": 8,
              "duration": 0.45416666666666666
            },
            {
              "pitch": 64,
              "velocity": 77,
              "position": 8.5,
              "duration": 0.00625
            },
            {
              "pitch": 73,
              "velocity": 46,
              "position": 8.5,
              "duration": 0.00625
            },
            {
              "pitch": 22,
              "velocity": 42,
              "position": 8.510416666666666,
              "duration": 0.00625
            },
            {
              "pitch": 53,
              "velocity": 86,
              "position": 8.54375,
              "duration": 0.00625
            },
            {
              "pitch": 26,
              "velocity": 112,
              "position": 9,
              "duration": 0.00625
            },
            {
              "pitch": 64,
              "velocity": 76,
              "position": 9,
              "duration": 0.00625
            },
            {
              "pitch": 73,
              "velocity": 100,
              "position": 9,
              "duration": 0.00625
            },
            {
              "pitch": 53,
              "velocity": 117,
              "position": 9.04375,
              "duration": 0.00625
            }
          ]
        },
        "10": {
          "ctab": {
            "srcChannel": 10,
            "name": "Bass",
            "accType": "BASS",
            "editable": false,
            "mutedNotes": [],
            "mutedChords": [
              "dim7",
              "dim",
              "minMaj7(9)",
              "minMaj7",
              "min7(11)",
              "min7(9)",
              "min(9)",
              "m7b5",
              "min7",
              "min6",
              "min"
            ],
            "autoStart": false,
            "sourceChordNote": 0,
            "sourceChordType": "Maj",
            "ctb2Low": null,
            "ctb2Main": {
              "ntr": "ROOT_TRANSPOSITION",
              "ntt": "BYPASS",
              "bassOn": false,
              "chordRootUpperLimit": 3,
              "noteLowLimit": 28,
              "noteHighLimit": 127,
              "rtr": "PITCH_SHIFT"
            },
            "ctb2High": null
          },
          "notes": [
            {
              "pitch": 38,
              "velocity": 60,
              "position": 0,
              "duration": 0.9645833333333333
            },
            {
              "pitch": 38,
              "velocity": 111,
              "position": 1,
              "duration": 0.0375
            },
            {
              "pitch": 45,
              "velocity": 58,
              "position": 1.5,
              "duration": 0.39166666666666666
            },
            {
              "pitch": 43,
              "velocity": 60,
              "position": 2,
              "duration": 0.9645833333333333
            },
            {
              "pitch": 43,
              "velocity": 107,
              "position": 2.9916666666666667,
              "duration": 0.058333333333333334
            },
            {
              "pitch": 38,
              "velocity": 60,
              "position": 3.5,
              "duration": 1.0166666666666666
            },
            {
              "pitch": 45,
              "velocity": 60,
              "position": 5.5,
              "duration": 0.48541666666666666
            },
            {
              "pitch": 43,
              "velocity": 60,
              "position": 6,
              "duration": 0.46458333333333335
            },
            {
              "pitch": 43,
              "velocity": 108,
              "position": 6.5,
              "duration": 0.08958333333333333
            },
            {
              "pitch": 43,
              "velocity": 60,
              "position": 7,
              "duration": 0.475
            },
            {
              "pitch": 43,
              "velocity": 108,
              "position": 7.5,
              "duration": 0.07916666666666666
            },
            {
              "pitch": 36,
              "velocity": 60,
              "position": 8,
              "duration": 0.46458333333333335
            },
            {
              "pitch": 36,
              "velocity": 57,
              "position": 8.5,
              "duration": 0.46458333333333335
            },
            {
              "pitch": 36,
              "velocity": 60,
              "position": 9,
              "duration": 0.5375
            }
          ]
        },
        "11": {
          "ctab": {
            "srcChannel": 11,
            "name": "E.Guitar",
            "accType": "CHORD1",
            "editable": false,
            "mutedNotes": [],
            "mutedChords": [
              "dim7",
              "dim",
              "minMaj7(9)",
              "minMaj7",
              "min7(11)",
              "min7(9)",
              "min(9)",
              "m7b5",
              "min7",
              "min6",
              "min"
            ],
            "autoStart": false,
            "sourceChordNote": 0,
            "sourceChordType": "Maj",
            "ctb2Low": null,
            "ctb2Main": {
              "ntr": "ROOT_TRANSPOSITION",
              "ntt": "BYPASS",
              "bassOn": false,
              "chordRootUpperLimit": 6,
              "noteLowLimit": 0,
              "noteHighLimit": 79,
              "rtr": "PITCH_SHIFT"
            },
            "ctb2High": null
          },
          "notes": [
            {
              "pitch": 50,
              "velocity": 51,
              "position": 0,
              "duration": 0.5583333333333333
            },
            {
              "pitch": 53,
              "velocity": 118,
              "position": 1,
              "duration": 0.5166666666666667
            },
            {
              "pitch": 57,
              "velocity": 55,
              "position": 1.5,
              "duration": 0.48541666666666666
            },
            {
              "pitch": 55,
              "velocity": 51,
              "position": 2,
              "duration": 0.38125
            },
            {
              "pitch": 120,
              "velocity": 35,
              "position": 2.75,
              "duration": 0.5583333333333333
            },
            {
              "pitch": 50,
              "velocity": 50,
              "position": 3.5,
              "duration": 0.4125
            },
            {
              "pitch": 53,
              "velocity": 119,
              "position": 4.5,
              "duration": 0.9854166666666667
            },
            {
              "pitch": 57,
              "velocity": 48,
              "position": 5.5,
              "duration": 0.43333333333333335
            },
            {
              "pitch": 55,
              "velocity": 49,
              "position": 6,
              "duration": 0.46458333333333335
            },
            {
              "pitch": 55,
              "velocity": 68,
              "position": 6.5,
              "duration": 0.13125
            },
            {
              "pitch": 55,
              "velocity": 47,
              "position": 7,
              "duration": 0.46458333333333335
            },
            {
              "pitch": 60,
              "velocity": 52,
              "position": 8,
              "duration": 0.46458333333333335
            },
            {
              "pitch": 60,
              "velocity": 38,
              "position": 8.5,
              "duration": 0.46458333333333335
            },
            {
              "pitch": 60,
              "velocity": 52,
              "position": 9,
              "duration": 0.14166666666666666
            }
          ]
        },
        "12": {
          "ctab": {
            "srcChannel": 12,
            "name": "Organ",
            "accType": "CHORD2",
            "editable": false,
            "mutedNotes": [],
            "mutedChords": [
              "dim7",
              "dim",
              "minMaj7(9)",
              "minMaj7",
              "min7(11)",
              "min7(9)",
              "min(9)",
              "m7b5",
              "min7",
              "min6",
              "min"
            ],
            "autoStart": false,
            "sourceChordNote": 0,
            "sourceChordType": "Maj",
            "ctb2Low": null,
            "ctb2Main": {
              "ntr": "ROOT_TRANSPOSITION",
              "ntt": "BYPASS",
              "bassOn": false,
              "chordRootUpperLimit": 4,
              "noteLowLimit": 0,
              "noteHighLimit": 72,
              "rtr": "PITCH_SHIFT"
            },
            "ctb2High": null
          },
          "notes": [
            {
              "pitch": 65,
              "velocity": 101,
              "position": 0.03333333333333333,
              "duration": 0.3333333333333333
            },
            {
              "pitch": 69,
              "velocity": 101,
              "position": 0.03333333333333333,
              "duration": 0.34375
            },
            {
              "pitch": 72,
              "velocity": 101,
              "position": 0.03333333333333333,
              "duration": 0.36041666666666666
            },
            {
              "pitch": 74,
              "velocity": 101,
              "position": 0.03333333333333333,
              "duration": 0.36041666666666666
            },
            {
              "pitch": 69,
              "velocity": 101,
              "position": 1.0104166666666667,
              "duration": 0.2625
            },
            {
              "pitch": 74,
              "velocity": 101,
              "position": 1.0104166666666667,
              "duration": 0.26666666666666666
            },
            {
              "pitch": 65,
              "velocity": 101,
              "position": 1.0104166666666667,
              "duration": 0.28125
            },
            {
              "pitch": 72,
              "velocity": 101,
              "position": 1.0104166666666667,
              "duration": 0.28125
            },
            {
              "pitch": 65,
              "velocity": 101,
              "position": 2.004166666666667,
              "duration": 0.41875
            },
            {
              "pitch": 67,
              "velocity": 101,
              "position": 2.004166666666667,
              "duration": 0.425
            },
            {
              "pitch": 71,
              "velocity": 101,
              "position": 2.004166666666667,
              "duration": 0.4354166666666667
            },
            {
              "pitch": 74,
              "velocity": 101,
              "position": 2.002083333333333,
              "duration": 0.47291666666666665
            },
            {
              "pitch": 67,
              "velocity": 101,
              "position": 2.5104166666666665,
              "duration": 0.125
            },
            {
              "pitch": 71,
              "velocity": 101,
              "position": 2.5104166666666665,
              "duration": 0.13541666666666666
            },
            {
              "pitch": 65,
              "velocity": 101,
              "position": 2.5104166666666665,
              "duration": 0.14583333333333334
            },
            {
              "pitch": 74,
              "velocity": 101,
              "position": 2.5104166666666665,
              "duration": 0.175
            },
            {
              "pitch": 65,
              "velocity": 102,
              "position": 3.5125,
              "duration": 0.2125
            },
            {
              "pitch": 69,
              "velocity": 102,
              "position": 3.5104166666666665,
              "duration": 0.22916666666666666
            },
            {
              "pitch": 72,
              "velocity": 102,
              "position": 3.5125,
              "duration": 0.23333333333333334
            },
            {
              "pitch": 74,
              "velocity": 102,
              "position": 3.5104166666666665,
              "duration": 0.25625
            },
            {
              "pitch": 65,
              "velocity": 102,
              "position": 4.510416666666667,
              "duration": 0.9229166666666667
            },
            {
              "pitch": 69,
              "velocity": 102,
              "position": 4.510416666666667,
              "duration": 0.9458333333333333
            },
            {
              "pitch": 74,
              "velocity": 102,
              "position": 4.510416666666667,
              "duration": 0.9458333333333333
            },
            {
              "pitch": 72,
              "velocity": 102,
              "position": 4.510416666666667,
              "duration": 0.9541666666666667
            },
            {
              "pitch": 65,
              "velocity": 101,
              "position": 5.504166666666666,
              "duration": 0.14375
            },
            {
              "pitch": 69,
              "velocity": 101,
              "position": 5.504166666666666,
              "duration": 0.14375
            },
            {
              "pitch": 72,
              "velocity": 101,
              "position": 5.504166666666666,
              "duration": 0.16875
            },
            {
              "pitch": 74,
              "velocity": 101,
              "position": 5.502083333333333,
              "duration": 0.20625
            },
            {
              "pitch": 65,
              "velocity": 100,
              "position": 5.99375,
              "duration": 0.325
            },
            {
              "pitch": 67,
              "velocity": 100,
              "position": 5.99375,
              "duration": 0.3416666666666667
            },
            {
              "pitch": 71,
              "velocity": 100,
              "position": 5.99375,
              "duration": 0.3416666666666667
            },
            {
              "pitch": 74,
              "velocity": 100,
              "position": 5.991666666666666,
              "duration": 0.3645833333333333
            },
            {
              "pitch": 65,
              "velocity": 100,
              "position": 6.5,
              "duration": 0.22083333333333333
            },
            {
              "pitch": 67,
              "velocity": 100,
              "position": 6.49375,
              "duration": 0.24791666666666667
            },
            {
              "pitch": 71,
              "velocity": 100,
              "position": 6.49375,
              "duration": 0.27291666666666664
            },
            {
              "pitch": 74,
              "velocity": 100,
              "position": 6.491666666666666,
              "duration": 0.28958333333333336
            },
            {
              "pitch": 74,
              "velocity": 100,
              "position": 7,
              "duration": 0.43333333333333335
            },
            {
              "pitch": 67,
              "velocity": 100,
              "position": 7,
              "duration": 0.5208333333333334
            },
            {
              "pitch": 71,
              "velocity": 100,
              "position": 7,
              "duration": 0.5229166666666667
            },
            {
              "pitch": 65,
              "velocity": 100,
              "position": 7,
              "duration": 0.5270833333333333
            },
            {
              "pitch": 69,
              "velocity": 102,
              "position": 7.979166666666667,
              "duration": 0.3645833333333333
            },
            {
              "pitch": 62,
              "velocity": 103,
              "position": 7.98125,
              "duration": 0.37083333333333335
            },
            {
              "pitch": 67,
              "velocity": 101,
              "position": 7.972916666666666,
              "duration": 0.38333333333333336
            },
            {
              "pitch": 72,
              "velocity": 102,
              "position": 7.979166666666667,
              "duration": 0.39166666666666666
            },
            {
              "pitch": 64,
              "velocity": 101,
              "position": 7.979166666666667,
              "duration": 0.3958333333333333
            },
            {
              "pitch": 62,
              "velocity": 103,
              "position": 8.510416666666666,
              "duration": 0.23958333333333334
            },
            {
              "pitch": 67,
              "velocity": 103,
              "position": 8.510416666666666,
              "duration": 0.23958333333333334
            },
            {
              "pitch": 69,
              "velocity": 103,
              "position": 8.510416666666666,
              "duration": 0.24791666666666667
            },
            {
              "pitch": 72,
              "velocity": 103,
              "position": 8.5,
              "duration": 0.25833333333333336
            },
            {
              "pitch": 64,
              "velocity": 103,
              "position": 8.510416666666666,
              "duration": 0.25625
            },
            {
              "pitch": 62,
              "velocity": 104,
              "position": 9.004166666666666,
              "duration": 0.39791666666666664
            },
            {
              "pitch": 64,
              "velocity": 104,
              "position": 9.002083333333333,
              "duration": 0.4166666666666667
            },
            {
              "pitch": 72,
              "velocity": 104,
              "position": 8.99375,
              "duration": 0.4395833333333333
            },
            {
              "pitch": 69,
              "velocity": 104,
              "position": 9,
              "duration": 0.46458333333333335
            },
            {
              "pitch": 67,
              "velocity": 104,
              "position": 9,
              "duration": 0.5479166666666667
            },
            {
              "pitch": 65,
              "velocity": 90,
              "position": 9.491666666666667,
              "duration": 0.12916666666666668
            },
            {
              "pitch": 64,
              "velocity": 84,
              "position": 9.577083333333333,
              "duration": 0.09166666666666666
            },
            {
              "pitch": 62,
              "velocity": 79,
              "position": 9.629166666666666,
              "duration": 0.08958333333333333
            },
            {
              "pitch": 60,
              "velocity": 76,
              "position": 9.677083333333334,
              "duration": 0.10416666666666667
            },
            {
              "pitch": 59,
              "velocity": 72,
              "position": 9.729166666666666,
              "duration": 0.08125
            },
            {
              "pitch": 57,
              "velocity": 69,
              "position": 9.775,
              "duration": 0.09791666666666667
            },
            {
              "pitch": 55,
              "velocity": 66,
              "position": 9.822916666666666,
              "duration": 0.10416666666666667
            },
            {
              "pitch": 53,
              "velocity": 62,
              "position": 9.864583333333334,
              "duration": 0.10625
            },
            {
              "pitch": 52,
              "velocity": 58,
              "position": 9.927083333333334,
              "duration": 0.09166666666666666
            },
            {
              "pitch": 50,
              "velocity": 53,
              "position": 9.991666666666667,
              "duration": 0.052083333333333336
            }
          ]
        },
        "13": {
          "ctab": {
            "srcChannel": 13,
            "name": "Brass",
            "accType": "PAD",
            "editable": false,
            "mutedNotes": [],
            "mutedChords": [
              "dim7",
              "dim",
              "minMaj7(9)",
              "minMaj7",
              "min7(11)",
              "min7(9)",
              "min(9)",
              "m7b5",
              "min7",
              "min6",
              "min"
            ],
            "autoStart": false,
            "sourceChordNote": 0,
            "sourceChordType": "Maj",
            "ctb2Low": null,
            "ctb2Main": {
              "ntr": "ROOT_TRANSPOSITION",
              "ntt": "BYPASS",
              "bassOn": false,
              "chordRootUpperLimit": 9,
              "noteLowLimit": 36,
              "noteHighLimit": 82,
              "rtr": "PITCH_SHIFT"
            },
            "ctb2High": null
          },
          "notes": [
            {
              "pitch": 62,
              "velocity": 90,
              "position": 0,
              "duration": 0.37083333333333335
            },
            {
              "pitch": 65,
              "velocity": 90,
              "position": 1,
              "duration": 0.4666666666666667
            },
            {
              "pitch": 69,
              "velocity": 90,
              "position": 1.5,
              "duration": 0.50625
            },
            {
              "pitch": 62,
              "velocity": 90,
              "position": 3.5,
              "duration": 0.37083333333333335
            },
            {
              "pitch": 69,
              "velocity": 90,
              "position": 5.502083333333333,
              "duration": 0.19375
            },
            {
              "pitch": 67,
              "velocity": 90,
              "position": 6,
              "duration": 0.3458333333333333
            },
            {
              "pitch": 67,
              "velocity": 90,
              "position": 6.5,
              "duration": 0.2125
            },
            {
              "pitch": 67,
              "velocity": 90,
              "position": 7,
              "duration": 0.3020833333333333
            },
            {
              "pitch": 72,
              "velocity": 88,
              "position": 8,
              "duration": 0.48541666666666666
            },
            {
              "pitch": 72,
              "velocity": 88,
              "position": 8.5,
              "duration": 0.20416666666666666
            }
          ]
        },
        "14": {
          "ctab": {
            "srcChannel": 14,
            "name": "Sax",
            "accType": "PHRASE1",
            "editable": false,
            "mutedNotes": [],
            "mutedChords": [
              "dim7",
              "dim",
              "minMaj7(9)",
              "minMaj7",
              "min7(11)",
              "min7(9)",
              "min(9)",
              "m7b5",
              "min7",
              "min6",
              "min"
            ],
            "autoStart": false,
            "sourceChordNote": 0,
            "sourceChordType": "Maj",
            "ctb2Low": null,
            "ctb2Main": {
              "ntr": "ROOT_TRANSPOSITION",
              "ntt": "BYPASS",
              "bassOn": false,
              "chordRootUpperLimit": 9,
              "noteLowLimit": 0,
              "noteHighLimit": 127,
              "rtr": "PITCH_SHIFT"
            },
            "ctb2High": null
          },
          "notes": [
            {
              "pitch": 50,
              "velocity": 88,
              "position": 0,
              "duration": 0.34375
            },
            {
              "pitch": 53,
              "velocity": 84,
              "position": 1,
              "duration": 0.46875
            },
            {
              "pitch": 57,
              "velocity": 114,
              "position": 1.5,
              "duration": 0.49583333333333335
            },
            {
              "pitch": 50,
              "velocity": 88,
              "position": 3.5,
              "duration": 0.30833333333333335
            },
            {
              "pitch": 53,
              "velocity": 84,
              "position": 4.5,
              "duration": 1.00625
            },
            {
              "pitch": 57,
              "velocity": 118,
              "position": 5.5,
              "duration": 0.32916666666666666
            },
            {
              "pitch": 55,
              "velocity": 84,
              "position": 6,
              "duration": 0.45625
            },
            {
              "pitch": 55,
              "velocity": 108,
              "position": 6.5,
              "duration": 0.18333333333333332
            },
            {
              "pitch": 55,
              "velocity": 84,
              "position": 6.966666666666667,
              "duration": 0.36875
            },
            {
              "pitch": 60,
              "velocity": 51,
              "position": 8,
              "duration": 0.4583333333333333
            },
            {
              "pitch": 60,
              "velocity": 79,
              "position": 8.5,
              "duration": 0.46458333333333335
            }
          ]
        },
        "15": {
          "ctab": {
            "srcChannel": 15,
            "name": "Vib",
            "accType": "PHRASE2",
            "editable": false,
            "mutedNotes": [],
            "mutedChords": [
              "dim7",
              "dim",
              "minMaj7(9)",
              "minMaj7",
              "min7(11)",
              "min7(9)",
              "min(9)",
              "m7b5",
              "min7",
              "min6",
              "min"
            ],
            "autoStart": false,
            "sourceChordNote": 0,
            "sourceChordType": "Maj",
            "ctb2Low": null,
            "ctb2Main": {
              "ntr": "ROOT_TRANSPOSITION",
              "ntt": "BYPASS",
              "bassOn": false,
              "chordRootUpperLimit": 9,
              "noteLowLimit": 0,
              "noteHighLimit": 127,
              "rtr": "PITCH_SHIFT"
            },
            "ctb2High": null
          },
          "notes": [
            {
              "pitch": 62,
              "velocity": 107,
              "position": 0,
              "duration": 0.39166666666666666
            },
            {
              "pitch": 65,
              "velocity": 110,
              "position": 1,
              "duration": 0.47708333333333336
            },
            {
              "pitch": 69,
              "velocity": 109,
              "position": 1.5,
              "duration": 0.38125
            },
            {
              "pitch": 67,
              "velocity": 111,
              "position": 2,
              "duration": 0.32916666666666666
            },
            {
              "pitch": 62,
              "velocity": 107,
              "position": 3.5,
              "duration": 0.31875
            },
            {
              "pitch": 65,
              "velocity": 106,
              "position": 4.5,
              "duration": 0.27708333333333335
            },
            {
              "pitch": 69,
              "velocity": 105,
              "position": 5.5,
              "duration": 0.3625
            },
            {
              "pitch": 67,
              "velocity": 111,
              "position": 6,
              "duration": 0.45416666666666666
            },
            {
              "pitch": 67,
              "velocity": 97,
              "position": 6.5,
              "duration": 0.19583333333333333
            },
            {
              "pitch": 67,
              "velocity": 112,
              "position": 7,
              "duration": 0.46458333333333335
            },
            {
              "pitch": 72,
              "velocity": 115,
              "position": 8,
              "duration": 0.3958333333333333
            },
            {
              "pitch": 72,
              "velocity": 100,
              "position": 8.5,
              "duration": 0.42291666666666666
            },
            {
              "pitch": 72,
              "velocity": 119,
              "position": 9,
              "duration": 0.15208333333333332
            }
          ]
        }
      }
    },
    "Intro_C": {
      "type": "Intro_C",
      "sizeInBeats": 36,
      "channels": {
        "1": {
          "ctab": {
            "srcChannel": 1,
            "name": "Bass",
            "accType": "BASS",
            "editable": false,
            "mutedNotes": [],
            "mutedChords": [
              "1+2+5",
              "sus4",
              "1+5",
              "1+8",
              "7aug",
              "Maj7aug",
              "7(#9)",
              "7(b13)",
              "7(b9)",
              "7(13)",
              "7#11",
              "7(9)",
              "7b5",
              "7sus4",
              "7th",
              "aug",
              "Maj6(9)",
              "Maj7(9)",
              "Maj(9)",
              "Maj7#11",
              "Maj7",
              "Maj6",
              "Maj"
            ],
            "autoStart": false,
            "sourceChordNote": 0,
            "sourceChordType": "min",
            "ctb2Low": null,
            "ctb2Main": {
              "ntr": "ROOT_TRANSPOSITION",
              "ntt": "BYPASS",
              "bassOn": false,
              "chordRootUpperLimit": 3,
              "noteLowLimit": 28,
              "noteHighLimit": 127,
              "rtr": "PITCH_SHIFT"
            },
            "ctb2High": null
          },
          "notes": [
            {
              "pitch": 101,
              "velocity": 97,
              "position": 3,
              "duration": 0.9645833333333333
            },
            {
              "pitch": 29,
              "velocity": 60,
              "position": 4,
              "duration": 0.975
            },
            {
              "pitch": 29,
              "velocity": 95,
              "position": 5,
              "duration": 0.058333333333333334
            },
            {
              "pitch": 29,
              "velocity": 60,
              "position": 5.5,
              "duration": 0.475
            },
            {
              "pitch": 31,
              "velocity": 60,
              "position": 6,
              "duration": 0.975
            },
            {
              "pitch": 31,
              "velocity": 60,
              "position": 7,
              "duration": 0.058333333333333334
            },
            {
              "pitch": 31,
              "velocity": 60,
              "position": 7.5,
              "duration": 0.475
            },
            {
              "pitch": 24,
              "velocity": 60,
              "position": 8,
              "duration": 0.975
            },
            {
              "pitch": 24,
              "velocity": 100,
              "position": 9,
              "duration": 0.058333333333333334
            },
            {
              "pitch": 24,
              "velocity": 60,
              "position": 9.5,
              "duration": 0.14166666666666666
            },
            {
              "pitch": 34,
              "velocity": 60,
              "position": 10,
              "duration": 0.475
            },
            {
              "pitch": 34,
              "velocity": 100,
              "position": 10.5,
              "duration": 0.058333333333333334
            },
            {
              "pitch": 34,
              "velocity": 60,
              "position": 11,
              "duration": 0.975
            },
            {
              "pitch": 29,
              "velocity": 60,
              "position": 12,
              "duration": 0.975
            },
            {
              "pitch": 29,
              "velocity": 95,
              "position": 13,
              "duration": 0.058333333333333334
            },
            {
              "pitch": 29,
              "velocity": 60,
              "position": 13.5,
              "duration": 0.475
            },
            {
              "pitch": 31,
              "velocity": 60,
              "position": 14,
              "duration": 0.975
            },
            {
              "pitch": 31,
              "velocity": 60,
              "position": 15,
              "duration": 0.058333333333333334
            },
            {
              "pitch": 31,
              "velocity": 60,
              "position": 15.5,
              "duration": 0.475
            },
            {
              "pitch": 24,
              "velocity": 60,
              "position": 16,
              "duration": 0.975
            },
            {
              "pitch": 24,
              "velocity": 100,
              "position": 17,
              "duration": 0.058333333333333334
            },
            {
              "pitch": 31,
              "velocity": 60,
              "position": 17.5,
              "duration": 0.48541666666666666
            },
            {
              "pitch": 34,
              "velocity": 60,
              "position": 18,
              "duration": 0.475
            },
            {
              "pitch": 34,
              "velocity": 100,
              "position": 18.5,
              "duration": 0.058333333333333334
            },
            {
              "pitch": 34,
              "velocity": 60,
              "position": 19,
              "duration": 0.975
            },
            {
              "pitch": 29,
              "velocity": 60,
              "position": 20,
              "duration": 0.975
            },
            {
              "pitch": 29,
              "velocity": 95,
              "position": 21,
              "duration": 0.058333333333333334
            },
            {
              "pitch": 29,
              "velocity": 60,
              "position": 21.5,
              "duration": 0.475
            },
            {
              "pitch": 31,
              "velocity": 60,
              "position": 22,
              "duration": 0.975
            },
            {
              "pitch": 31,
              "velocity": 60,
              "position": 23,
              "duration": 0.058333333333333334
            },
            {
              "pitch": 31,
              "velocity": 60,
              "position": 23.5,
              "duration": 0.475
            },
            {
              "pitch": 24,
              "velocity": 60,
              "position": 24,
              "duration": 0.975
            },
            {
              "pitch": 24,
              "velocity": 100,
              "position": 25,
              "duration": 0.058333333333333334
            },
            {
              "pitch": 24,
              "velocity": 60,
              "position": 25.5,
              "duration": 0.14166666666666666
            },
            {
              "pitch": 34,
              "velocity": 60,
              "position": 26,
              "duration": 0.475
            },
            {
              "pitch": 34,
              "velocity": 100,
              "position": 26.5,
              "duration": 0.058333333333333334
            },
            {
              "pitch": 34,
              "velocity": 60,
              "position": 27,
              "duration": 0.975
            },
            {
              "pitch": 26,
              "velocity": 60,
              "position": 28,
              "duration": 0.44375
            },
            {
              "pitch": 26,
              "velocity": 47,
              "position": 28.5,
              "duration": 0.42291666666666666
            },
            {
              "pitch": 26,
              "velocity": 50,
              "position": 29,
              "duration": 0.45416666666666666
            },
            {
              "pitch": 31,
              "velocity": 60,
              "position": 29.46875,
              "duration": 2.0166666666666666
            },
            {
              "pitch": 24,
              "velocity": 60,
              "position": 31.5,
              "duration": 0.475
            }
          ]
        },
        "2": {
          "ctab": {
            "srcChannel": 2,
            "name": "E.Guitar",
            "accType": "CHORD1",
            "editable": false,
            "mutedNotes": [],
            "mutedChords": [
              "1+2+5",
              "sus4",
              "1+5",
              "1+8",
              "7aug",
              "Maj7aug",
              "7(#9)",
              "7(b13)",
              "7(b9)",
              "7(13)",
              "7#11",
              "7(9)",
              "7b5",
              "7sus4",
              "7th",
              "aug",
              "Maj6(9)",
              "Maj7(9)",
              "Maj(9)",
              "Maj7#11",
              "Maj7",
              "Maj6",
              "Maj"
            ],
            "autoStart": false,
            "sourceChordNote": 0,
            "sourceChordType": "min",
            "ctb2Low": null,
            "ctb2Main": {
              "ntr": "ROOT_TRANSPOSITION",
              "ntt": "BYPASS",
              "bassOn": false,
              "chordRootUpperLimit": 6,
              "noteLowLimit": 0,
              "noteHighLimit": 127,
              "rtr": "PITCH_SHIFT"
            },
            "ctb2High": null
          },
          "notes": [
            {
              "pitch": 56,
              "velocity": 50,
              "position": 3.9791666666666665,
              "duration": 1.9958333333333333
            },
            {
              "pitch": 55,
              "velocity": 95,
              "position": 5.989583333333333,
              "duration": 0.49583333333333335
            },
            {
              "pitch": 59,
              "velocity": 45,
              "position": 6.5,
              "duration": 0.475
            },
            {
              "pitch": 62,
              "velocity": 114,
              "position": 7.002083333333333,
              "duration": 0.5166666666666667
            },
            {
              "pitch": 59,
              "velocity": 96,
              "position": 7.489583333333333,
              "duration": 0.42291666666666666
            },
            {
              "pitch": 60,
              "velocity": 116,
              "position": 7.96875,
              "duration": 1.9958333333333333
            },
            {
              "pitch": 56,
              "velocity": 49,
              "position": 12,
              "duration": 1.9958333333333333
            },
            {
              "pitch": 55,
              "velocity": 95,
              "position": 14,
              "duration": 0.49583333333333335
            },
            {
              "pitch": 59,
              "velocity": 45,
              "position": 14.541666666666666,
              "duration": 0.475
            },
            {
              "pitch": 62,
              "velocity": 114,
              "position": 15.045833333333333,
              "duration": 0.5166666666666667
            },
            {
              "pitch": 59,
              "velocity": 96,
              "position": 15.53125,
              "duration": 0.42291666666666666
            },
            {
              "pitch": 62,
              "velocity": 116,
              "position": 15.96875,
              "duration": 1.9958333333333333
            },
            {
              "pitch": 60,
              "velocity": 53,
              "position": 17.979166666666668,
              "duration": 1.9958333333333333
            },
            {
              "pitch": 56,
              "velocity": 49,
              "position": 20,
              "duration": 1.9958333333333333
            },
            {
              "pitch": 55,
              "velocity": 115,
              "position": 22.010416666666668,
              "duration": 0.49583333333333335
            },
            {
              "pitch": 59,
              "velocity": 45,
              "position": 22.510416666666668,
              "duration": 0.475
            },
            {
              "pitch": 62,
              "velocity": 52,
              "position": 23.0125,
              "duration": 0.5166666666666667
            },
            {
              "pitch": 59,
              "velocity": 96,
              "position": 23.5,
              "duration": 0.4125
            },
            {
              "pitch": 62,
              "velocity": 116,
              "position": 23.96875,
              "duration": 1.9958333333333333
            },
            {
              "pitch": 60,
              "velocity": 53,
              "position": 25.96875,
              "duration": 1.6520833333333333
            },
            {
              "pitch": 56,
              "velocity": 49,
              "position": 28,
              "duration": 0.48541666666666666
            },
            {
              "pitch": 56,
              "velocity": 71,
              "position": 28.5,
              "duration": 0.225
            },
            {
              "pitch": 56,
              "velocity": 52,
              "position": 29,
              "duration": 0.45416666666666666
            },
            {
              "pitch": 55,
              "velocity": 49,
              "position": 30.5,
              "duration": 0.48541666666666666
            },
            {
              "pitch": 55,
              "velocity": 71,
              "position": 31,
              "duration": 0.225
            },
            {
              "pitch": 60,
              "velocity": 52,
              "position": 31.5,
              "duration": 0.4625
            }
          ]
        },
        "3": {
          "ctab": {
            "srcChannel": 3,
            "name": "Organ",
            "accType": "CHORD2",
            "editable": false,
            "mutedNotes": [],
            "mutedChords": [
              "1+2+5",
              "sus4",
              "1+5",
              "1+8",
              "7aug",
              "Maj7aug",
              "7(#9)",
              "7(b13)",
              "7(b9)",
              "7(13)",
              "7#11",
              "7(9)",
              "7b5",
              "7sus4",
              "7th",
              "aug",
              "Maj6(9)",
              "Maj7(9)",
              "Maj(9)",
              "Maj7#11",
              "Maj7",
              "Maj6",
              "Maj"
            ],
            "autoStart": false,
            "sourceChordNote": 0,
            "sourceChordType": "min",
            "ctb2Low": null,
            "ctb2Main": {
              "ntr": "ROOT_TRANSPOSITION",
              "ntt": "BYPASS",
              "bassOn": false,
              "chordRootUpperLimit": 3,
              "noteLowLimit": 58,
              "noteHighLimit": 127,
              "rtr": "PITCH_SHIFT"
            },
            "ctb2High": null
          },
          "notes": [
            {
              "pitch": 68,
              "velocity": 104,
              "position": 4.958333333333333,
              "duration": 0.4354166666666667
            },
            {
              "pitch": 65,
              "velocity": 106,
              "position": 4.96875,
              "duration": 0.44375
            },
            {
              "pitch": 72,
              "velocity": 108,
              "position": 4.958333333333333,
              "duration": 0.475
            },
            {
              "pitch": 74,
              "velocity": 102,
              "position": 4.96875,
              "duration": 0.475
            },
            {
              "pitch": 65,
              "velocity": 110,
              "position": 5.983333333333333,
              "duration": 0.3729166666666667
            },
            {
              "pitch": 71,
              "velocity": 111,
              "position": 5.958333333333333,
              "duration": 0.4041666666666667
            },
            {
              "pitch": 67,
              "velocity": 87,
              "position": 5.979166666666667,
              "duration": 0.3854166666666667
            },
            {
              "pitch": 74,
              "velocity": 111,
              "position": 5.96875,
              "duration": 0.4083333333333333
            },
            {
              "pitch": 71,
              "velocity": 100,
              "position": 6.520833333333333,
              "duration": 0.17291666666666666
            },
            {
              "pitch": 67,
              "velocity": 83,
              "position": 6.502083333333333,
              "duration": 0.19791666666666666
            },
            {
              "pitch": 65,
              "velocity": 106,
              "position": 6.504166666666666,
              "duration": 0.20208333333333334
            },
            {
              "pitch": 74,
              "velocity": 100,
              "position": 6.5125,
              "duration": 0.20625
            },
            {
              "pitch": 67,
              "velocity": 109,
              "position": 8.572916666666666,
              "duration": 0.3125
            },
            {
              "pitch": 63,
              "velocity": 114,
              "position": 8.564583333333333,
              "duration": 0.3416666666666667
            },
            {
              "pitch": 72,
              "velocity": 112,
              "position": 8.564583333333333,
              "duration": 0.36875
            },
            {
              "pitch": 63,
              "velocity": 103,
              "position": 9.5,
              "duration": 0.3
            },
            {
              "pitch": 67,
              "velocity": 108,
              "position": 9.502083333333333,
              "duration": 0.3
            },
            {
              "pitch": 72,
              "velocity": 109,
              "position": 9.489583333333334,
              "duration": 0.33541666666666664
            },
            {
              "pitch": 63,
              "velocity": 95,
              "position": 9.95,
              "duration": 0.3854166666666667
            },
            {
              "pitch": 70,
              "velocity": 93,
              "position": 9.96875,
              "duration": 0.3958333333333333
            },
            {
              "pitch": 67,
              "velocity": 101,
              "position": 9.9625,
              "duration": 0.4083333333333333
            },
            {
              "pitch": 60,
              "velocity": 96,
              "position": 9.972916666666666,
              "duration": 0.4125
            },
            {
              "pitch": 63,
              "velocity": 94,
              "position": 10.502083333333333,
              "duration": 0.28958333333333336
            },
            {
              "pitch": 60,
              "velocity": 64,
              "position": 10.49375,
              "duration": 0.3104166666666667
            },
            {
              "pitch": 67,
              "velocity": 94,
              "position": 10.491666666666667,
              "duration": 0.3125
            },
            {
              "pitch": 70,
              "velocity": 81,
              "position": 10.48125,
              "duration": 0.34375
            },
            {
              "pitch": 63,
              "velocity": 94,
              "position": 10.98125,
              "duration": 0.3125
            },
            {
              "pitch": 60,
              "velocity": 100,
              "position": 10.989583333333334,
              "duration": 0.30833333333333335
            },
            {
              "pitch": 67,
              "velocity": 104,
              "position": 10.983333333333333,
              "duration": 0.3416666666666667
            },
            {
              "pitch": 70,
              "velocity": 87,
              "position": 10.96875,
              "duration": 0.4041666666666667
            },
            {
              "pitch": 65,
              "velocity": 101,
              "position": 11.9375,
              "duration": 0.39166666666666666
            },
            {
              "pitch": 68,
              "velocity": 101,
              "position": 11.91875,
              "duration": 0.42083333333333334
            },
            {
              "pitch": 72,
              "velocity": 103,
              "position": 11.9375,
              "duration": 0.42291666666666666
            },
            {
              "pitch": 74,
              "velocity": 103,
              "position": 11.9375,
              "duration": 0.44375
            },
            {
              "pitch": 68,
              "velocity": 102,
              "position": 12.960416666666667,
              "duration": 0.34375
            },
            {
              "pitch": 72,
              "velocity": 104,
              "position": 12.96875,
              "duration": 0.3541666666666667
            },
            {
              "pitch": 65,
              "velocity": 106,
              "position": 12.970833333333333,
              "duration": 0.3541666666666667
            },
            {
              "pitch": 74,
              "velocity": 101,
              "position": 12.958333333333334,
              "duration": 0.4041666666666667
            },
            {
              "pitch": 65,
              "velocity": 108,
              "position": 14,
              "duration": 0.43333333333333335
            },
            {
              "pitch": 67,
              "velocity": 88,
              "position": 13.989583333333334,
              "duration": 0.4583333333333333
            },
            {
              "pitch": 71,
              "velocity": 107,
              "position": 14,
              "duration": 0.45625
            },
            {
              "pitch": 74,
              "velocity": 106,
              "position": 14.002083333333333,
              "duration": 0.4583333333333333
            },
            {
              "pitch": 71,
              "velocity": 100,
              "position": 14.583333333333334,
              "duration": 0.22916666666666666
            },
            {
              "pitch": 74,
              "velocity": 98,
              "position": 14.583333333333334,
              "duration": 0.23125
            },
            {
              "pitch": 67,
              "velocity": 94,
              "position": 14.566666666666666,
              "duration": 0.2520833333333333
            },
            {
              "pitch": 65,
              "velocity": 106,
              "position": 14.577083333333333,
              "duration": 0.24583333333333332
            },
            {
              "pitch": 75,
              "velocity": 103,
              "position": 16.5625,
              "duration": 0.375
            },
            {
              "pitch": 72,
              "velocity": 114,
              "position": 16.572916666666668,
              "duration": 0.3729166666666667
            },
            {
              "pitch": 67,
              "velocity": 110,
              "position": 16.5625,
              "duration": 0.3854166666666667
            },
            {
              "pitch": 75,
              "velocity": 101,
              "position": 17.541666666666668,
              "duration": 0.27708333333333335
            },
            {
              "pitch": 67,
              "velocity": 106,
              "position": 17.53125,
              "duration": 0.29791666666666666
            },
            {
              "pitch": 72,
              "velocity": 117,
              "position": 17.541666666666668,
              "duration": 0.2875
            },
            {
              "pitch": 70,
              "velocity": 98,
              "position": 17.989583333333332,
              "duration": 0.3645833333333333
            },
            {
              "pitch": 67,
              "velocity": 96,
              "position": 17.98125,
              "duration": 0.375
            },
            {
              "pitch": 75,
              "velocity": 85,
              "position": 17.9625,
              "duration": 0.4
            },
            {
              "pitch": 72,
              "velocity": 88,
              "position": 17.96875,
              "duration": 0.40208333333333335
            },
            {
              "pitch": 70,
              "velocity": 91,
              "position": 18.5,
              "duration": 0.325
            },
            {
              "pitch": 67,
              "velocity": 90,
              "position": 18.522916666666667,
              "duration": 0.3104166666666667
            },
            {
              "pitch": 72,
              "velocity": 75,
              "position": 18.5125,
              "duration": 0.3333333333333333
            },
            {
              "pitch": 75,
              "velocity": 92,
              "position": 18.514583333333334,
              "duration": 0.33125
            },
            {
              "pitch": 70,
              "velocity": 94,
              "position": 19,
              "duration": 0.3229166666666667
            },
            {
              "pitch": 67,
              "velocity": 93,
              "position": 19.010416666666668,
              "duration": 0.32916666666666666
            },
            {
              "pitch": 72,
              "velocity": 83,
              "position": 18.989583333333332,
              "duration": 0.36041666666666666
            },
            {
              "pitch": 75,
              "velocity": 96,
              "position": 18.989583333333332,
              "duration": 0.37083333333333335
            },
            {
              "pitch": 70,
              "velocity": 95,
              "position": 19.483333333333334,
              "duration": 0.30416666666666664
            },
            {
              "pitch": 67,
              "velocity": 94,
              "position": 19.5,
              "duration": 0.2916666666666667
            },
            {
              "pitch": 75,
              "velocity": 85,
              "position": 19.472916666666666,
              "duration": 0.38125
            },
            {
              "pitch": 72,
              "velocity": 82,
              "position": 19.489583333333332,
              "duration": 0.38125
            },
            {
              "pitch": 65,
              "velocity": 114,
              "position": 20.010416666666668,
              "duration": 0.3125
            },
            {
              "pitch": 68,
              "velocity": 103,
              "position": 20.014583333333334,
              "duration": 0.31666666666666665
            },
            {
              "pitch": 72,
              "velocity": 87,
              "position": 19.989583333333332,
              "duration": 0.35625
            },
            {
              "pitch": 74,
              "velocity": 111,
              "position": 20.004166666666666,
              "duration": 0.35
            },
            {
              "pitch": 65,
              "velocity": 109,
              "position": 21.014583333333334,
              "duration": 0.31666666666666665
            },
            {
              "pitch": 68,
              "velocity": 110,
              "position": 21,
              "duration": 0.3541666666666667
            },
            {
              "pitch": 72,
              "velocity": 108,
              "position": 21.010416666666668,
              "duration": 0.35
            },
            {
              "pitch": 74,
              "velocity": 108,
              "position": 21.0125,
              "duration": 0.36041666666666666
            },
            {
              "pitch": 71,
              "velocity": 110,
              "position": 21.972916666666666,
              "duration": 0.43333333333333335
            },
            {
              "pitch": 67,
              "velocity": 104,
              "position": 21.970833333333335,
              "duration": 0.4625
            },
            {
              "pitch": 65,
              "velocity": 103,
              "position": 21.958333333333332,
              "duration": 0.47708333333333336
            },
            {
              "pitch": 74,
              "velocity": 102,
              "position": 21.970833333333335,
              "duration": 0.4666666666666667
            },
            {
              "pitch": 71,
              "velocity": 100,
              "position": 22.541666666666668,
              "duration": 0.22916666666666666
            },
            {
              "pitch": 67,
              "velocity": 94,
              "position": 22.53125,
              "duration": 0.24583333333333332
            },
            {
              "pitch": 65,
              "velocity": 97,
              "position": 22.53125,
              "duration": 0.24791666666666667
            },
            {
              "pitch": 74,
              "velocity": 98,
              "position": 22.541666666666668,
              "duration": 0.24791666666666667
            },
            {
              "pitch": 63,
              "velocity": 103,
              "position": 24.585416666666667,
              "duration": 0.34375
            },
            {
              "pitch": 67,
              "velocity": 110,
              "position": 24.583333333333332,
              "duration": 0.375
            },
            {
              "pitch": 72,
              "velocity": 104,
              "position": 24.572916666666668,
              "duration": 0.3958333333333333
            },
            {
              "pitch": 63,
              "velocity": 102,
              "position": 25.522916666666667,
              "duration": 0.2604166666666667
            },
            {
              "pitch": 67,
              "velocity": 114,
              "position": 25.510416666666668,
              "duration": 0.29791666666666666
            },
            {
              "pitch": 72,
              "velocity": 107,
              "position": 25.520833333333332,
              "duration": 0.3125
            },
            {
              "pitch": 63,
              "velocity": 98,
              "position": 25.989583333333332,
              "duration": 0.36041666666666666
            },
            {
              "pitch": 67,
              "velocity": 106,
              "position": 26,
              "duration": 0.36041666666666666
            },
            {
              "pitch": 70,
              "velocity": 97,
              "position": 26,
              "duration": 0.3645833333333333
            },
            {
              "pitch": 63,
              "velocity": 97,
              "position": 26.510416666666668,
              "duration": 0.3229166666666667
            },
            {
              "pitch": 67,
              "velocity": 92,
              "position": 26.5,
              "duration": 0.35
            },
            {
              "pitch": 70,
              "velocity": 90,
              "position": 26.510416666666668,
              "duration": 0.36666666666666664
            },
            {
              "pitch": 63,
              "velocity": 100,
              "position": 27.020833333333332,
              "duration": 0.35208333333333336
            },
            {
              "pitch": 67,
              "velocity": 96,
              "position": 27.022916666666667,
              "duration": 0.37916666666666665
            },
            {
              "pitch": 70,
              "velocity": 88,
              "position": 27.020833333333332,
              "duration": 0.41458333333333336
            },
            {
              "pitch": 65,
              "velocity": 113,
              "position": 28.020833333333332,
              "duration": 0.36041666666666666
            },
            {
              "pitch": 68,
              "velocity": 114,
              "position": 28.004166666666666,
              "duration": 0.4083333333333333
            },
            {
              "pitch": 72,
              "velocity": 112,
              "position": 28.014583333333334,
              "duration": 0.4
            },
            {
              "pitch": 74,
              "velocity": 117,
              "position": 28.0125,
              "duration": 0.40625
            },
            {
              "pitch": 65,
              "velocity": 106,
              "position": 28.520833333333332,
              "duration": 0.3125
            },
            {
              "pitch": 68,
              "velocity": 89,
              "position": 28.520833333333332,
              "duration": 0.33541666666666664
            },
            {
              "pitch": 74,
              "velocity": 106,
              "position": 28.533333333333335,
              "duration": 0.32916666666666666
            },
            {
              "pitch": 72,
              "velocity": 87,
              "position": 28.53125,
              "duration": 0.33541666666666664
            },
            {
              "pitch": 65,
              "velocity": 111,
              "position": 29.020833333333332,
              "duration": 0.3333333333333333
            },
            {
              "pitch": 68,
              "velocity": 113,
              "position": 29.020833333333332,
              "duration": 0.33958333333333335
            },
            {
              "pitch": 72,
              "velocity": 102,
              "position": 29.020833333333332,
              "duration": 0.3541666666666667
            },
            {
              "pitch": 74,
              "velocity": 92,
              "position": 29.03125,
              "duration": 0.35
            },
            {
              "pitch": 65,
              "velocity": 112,
              "position": 30.48125,
              "duration": 0.34375
            },
            {
              "pitch": 67,
              "velocity": 91,
              "position": 30.479166666666668,
              "duration": 0.3645833333333333
            },
            {
              "pitch": 74,
              "velocity": 106,
              "position": 30.472916666666666,
              "duration": 0.37916666666666665
            },
            {
              "pitch": 71,
              "velocity": 112,
              "position": 30.479166666666668,
              "duration": 0.38125
            },
            {
              "pitch": 67,
              "velocity": 96,
              "position": 31.0125,
              "duration": 0.32083333333333336
            },
            {
              "pitch": 65,
              "velocity": 99,
              "position": 31.010416666666668,
              "duration": 0.3333333333333333
            },
            {
              "pitch": 71,
              "velocity": 96,
              "position": 31,
              "duration": 0.36041666666666666
            },
            {
              "pitch": 74,
              "velocity": 91,
              "position": 31.010416666666668,
              "duration": 0.36041666666666666
            },
            {
              "pitch": 75,
              "velocity": 117,
              "position": 31.54375,
              "duration": 0.39166666666666666
            },
            {
              "pitch": 67,
              "velocity": 110,
              "position": 31.564583333333335,
              "duration": 0.38125
            },
            {
              "pitch": 72,
              "velocity": 115,
              "position": 31.554166666666667,
              "duration": 0.3958333333333333
            },
            {
              "pitch": 75,
              "velocity": 85,
              "position": 33.03541666666667,
              "duration": 0.3625
            },
            {
              "pitch": 72,
              "velocity": 80,
              "position": 33.02291666666667,
              "duration": 0.3854166666666667
            },
            {
              "pitch": 67,
              "velocity": 69,
              "position": 33.045833333333334,
              "duration": 0.37083333333333335
            },
            {
              "pitch": 67,
              "velocity": 83,
              "position": 33.525,
              "duration": 0.33958333333333335
            },
            {
              "pitch": 75,
              "velocity": 73,
              "position": 33.520833333333336,
              "duration": 0.35208333333333336
            },
            {
              "pitch": 72,
              "velocity": 76,
              "position": 33.514583333333334,
              "duration": 0.3770833333333333
            },
            {
              "pitch": 75,
              "velocity": 104,
              "position": 34.03541666666667,
              "duration": 0.30416666666666664
            },
            {
              "pitch": 67,
              "velocity": 99,
              "position": 34.041666666666664,
              "duration": 0.3
            },
            {
              "pitch": 72,
              "velocity": 83,
              "position": 34.025,
              "duration": 0.31875
            }
          ]
        },
        "4": {
          "ctab": {
            "srcChannel": 4,
            "name": "Brass",
            "accType": "PAD",
            "editable": false,
            "mutedNotes": [],
            "mutedChords": [
              "1+2+5",
              "sus4",
              "1+5",
              "1+8",
              "7aug",
              "Maj7aug",
              "7(#9)",
              "7(b13)",
              "7(b9)",
              "7(13)",
              "7#11",
              "7(9)",
              "7b5",
              "7sus4",
              "7th",
              "aug",
              "Maj6(9)",
              "Maj7(9)",
              "Maj(9)",
              "Maj7#11",
              "Maj7",
              "Maj6",
              "Maj"
            ],
            "autoStart": false,
            "sourceChordNote": 0,
            "sourceChordType": "min",
            "ctb2Low": null,
            "ctb2Main": {
              "ntr": "ROOT_TRANSPOSITION",
              "ntt": "BYPASS",
              "bassOn": false,
              "chordRootUpperLimit": 9,
              "noteLowLimit": 36,
              "noteHighLimit": 82,
              "rtr": "PITCH_SHIFT"
            },
            "ctb2High": null
          },
          "notes": [
            {
              "pitch": 55,
              "velocity": 112,
              "position": 6,
              "duration": 1.9354166666666666
            },
            {
              "pitch": 60,
              "velocity": 112,
              "position": 8.5,
              "duration": 1.5208333333333333
            },
            {
              "pitch": 58,
              "velocity": 112,
              "position": 10,
              "duration": 1.9895833333333333
            },
            {
              "pitch": 55,
              "velocity": 109,
              "position": 13.979166666666666,
              "duration": 1.7354166666666666
            },
            {
              "pitch": 55,
              "velocity": 112,
              "position": 22,
              "duration": 1.9395833333333334
            },
            {
              "pitch": 62,
              "velocity": 114,
              "position": 24.614583333333332,
              "duration": 1.4166666666666667
            },
            {
              "pitch": 63,
              "velocity": 87,
              "position": 33,
              "duration": 0.4875
            },
            {
              "pitch": 67,
              "velocity": 114,
              "position": 33,
              "duration": 0.4875
            },
            {
              "pitch": 69,
              "velocity": 85,
              "position": 33,
              "duration": 0.4875
            },
            {
              "pitch": 72,
              "velocity": 85,
              "position": 33,
              "duration": 0.4875
            },
            {
              "pitch": 67,
              "velocity": 85,
              "position": 33.5,
              "duration": 0.16875
            },
            {
              "pitch": 63,
              "velocity": 112,
              "position": 33.5,
              "duration": 0.17291666666666666
            },
            {
              "pitch": 69,
              "velocity": 112,
              "position": 33.5,
              "duration": 0.17916666666666667
            },
            {
              "pitch": 72,
              "velocity": 84,
              "position": 33.5,
              "duration": 0.2
            }
          ]
        },
        "5": {
          "ctab": {
            "srcChannel": 5,
            "name": "Sax",
            "accType": "PHRASE1",
            "editable": false,
            "mutedNotes": [],
            "mutedChords": [
              "1+2+5",
              "sus4",
              "1+5",
              "1+8",
              "7aug",
              "Maj7aug",
              "7(#9)",
              "7(b13)",
              "7(b9)",
              "7(13)",
              "7#11",
              "7(9)",
              "7b5",
              "7sus4",
              "7th",
              "aug",
              "Maj6(9)",
              "Maj7(9)",
              "Maj(9)",
              "Maj7#11",
              "Maj7",
              "Maj6",
              "Maj"
            ],
            "autoStart": false,
            "sourceChordNote": 0,
            "sourceChordType": "min",
            "ctb2Low": null,
            "ctb2Main": {
              "ntr": "ROOT_TRANSPOSITION",
              "ntt": "BYPASS",
              "bassOn": false,
              "chordRootUpperLimit": 9,
              "noteLowLimit": 0,
              "noteHighLimit": 127,
              "rtr": "PITCH_SHIFT"
            },
            "ctb2High": null
          },
          "notes": [
            {
              "pitch": 56,
              "velocity": 57,
              "position": 4,
              "duration": 2.0083333333333333
            },
            {
              "pitch": 55,
              "velocity": 114,
              "position": 6,
              "duration": 1.9354166666666666
            },
            {
              "pitch": 60,
              "velocity": 57,
              "position": 8.5,
              "duration": 1.5208333333333333
            },
            {
              "pitch": 58,
              "velocity": 114,
              "position": 10,
              "duration": 1.975
            },
            {
              "pitch": 56,
              "velocity": 57,
              "position": 12,
              "duration": 2.0083333333333333
            },
            {
              "pitch": 55,
              "velocity": 114,
              "position": 14,
              "duration": 1.9354166666666666
            },
            {
              "pitch": 62,
              "velocity": 57,
              "position": 16.5,
              "duration": 1.5208333333333333
            },
            {
              "pitch": 60,
              "velocity": 114,
              "position": 18,
              "duration": 1.7875
            },
            {
              "pitch": 56,
              "velocity": 57,
              "position": 20,
              "duration": 2.0125
            },
            {
              "pitch": 55,
              "velocity": 114,
              "position": 22,
              "duration": 1.9395833333333334
            },
            {
              "pitch": 62,
              "velocity": 57,
              "position": 24.5,
              "duration": 1.5229166666666667
            },
            {
              "pitch": 60,
              "velocity": 114,
              "position": 26,
              "duration": 1.9791666666666667
            },
            {
              "pitch": 43,
              "velocity": 81,
              "position": 29.5,
              "duration": 1.9875
            },
            {
              "pitch": 48,
              "velocity": 81,
              "position": 31.5,
              "duration": 0.48541666666666666
            },
            {
              "pitch": 60,
              "velocity": 114,
              "position": 33.5,
              "duration": 0.3770833333333333
            }
          ]
        },
        "6": {
          "ctab": {
            "srcChannel": 6,
            "name": "Vib",
            "accType": "PHRASE2",
            "editable": false,
            "mutedNotes": [],
            "mutedChords": [
              "1+2+5",
              "sus4",
              "1+5",
              "1+8",
              "7aug",
              "Maj7aug",
              "7(#9)",
              "7(b13)",
              "7(b9)",
              "7(13)",
              "7#11",
              "7(9)",
              "7b5",
              "7sus4",
              "7th",
              "aug",
              "Maj6(9)",
              "Maj7(9)",
              "Maj(9)",
              "Maj7#11",
              "Maj7",
              "Maj6",
              "Maj"
            ],
            "autoStart": false,
            "sourceChordNote": 0,
            "sourceChordType": "min",
            "ctb2Low": null,
            "ctb2Main": {
              "ntr": "ROOT_TRANSPOSITION",
              "ntt": "BYPASS",
              "bassOn": false,
              "chordRootUpperLimit": 2,
              "noteLowLimit": 60,
              "noteHighLimit": 81,
              "rtr": "PITCH_SHIFT"
            },
            "ctb2High": null
          },
          "notes": [
            {
              "pitch": 74,
              "velocity": 106,
              "position": 5,
              "duration": 0.14166666666666666
            },
            {
              "pitch": 71,
              "velocity": 108,
              "position": 6,
              "duration": 0.26666666666666666
            },
            {
              "pitch": 71,
              "velocity": 100,
              "position": 6.5,
              "duration": 0.19375
            },
            {
              "pitch": 74,
              "velocity": 110,
              "position": 8.5,
              "duration": 0.23541666666666666
            },
            {
              "pitch": 74,
              "velocity": 108,
              "position": 9.5,
              "duration": 0.31875
            },
            {
              "pitch": 70,
              "velocity": 105,
              "position": 10,
              "duration": 0.33958333333333335
            },
            {
              "pitch": 70,
              "velocity": 95,
              "position": 10.5,
              "duration": 0.23541666666666666
            },
            {
              "pitch": 70,
              "velocity": 112,
              "position": 11,
              "duration": 0.19375
            },
            {
              "pitch": 74,
              "velocity": 111,
              "position": 12,
              "duration": 0.3229166666666667
            },
            {
              "pitch": 74,
              "velocity": 109,
              "position": 13,
              "duration": 0.33958333333333335
            },
            {
              "pitch": 71,
              "velocity": 110,
              "position": 14,
              "duration": 0.2875
            },
            {
              "pitch": 71,
              "velocity": 93,
              "position": 14.5,
              "duration": 0.20416666666666666
            },
            {
              "pitch": 74,
              "velocity": 113,
              "position": 16.5,
              "duration": 0.20625
            },
            {
              "pitch": 74,
              "velocity": 108,
              "position": 17.5,
              "duration": 0.1625
            },
            {
              "pitch": 72,
              "velocity": 110,
              "position": 18,
              "duration": 0.25
            },
            {
              "pitch": 72,
              "velocity": 91,
              "position": 18.5,
              "duration": 0.17291666666666666
            },
            {
              "pitch": 72,
              "velocity": 111,
              "position": 19,
              "duration": 0.13125
            },
            {
              "pitch": 72,
              "velocity": 111,
              "position": 19.5,
              "duration": 0.13125
            },
            {
              "pitch": 74,
              "velocity": 110,
              "position": 20,
              "duration": 0.2708333333333333
            },
            {
              "pitch": 74,
              "velocity": 107,
              "position": 21,
              "duration": 0.18333333333333332
            },
            {
              "pitch": 71,
              "velocity": 110,
              "position": 22,
              "duration": 0.23541666666666666
            },
            {
              "pitch": 71,
              "velocity": 86,
              "position": 22.5,
              "duration": 0.19375
            },
            {
              "pitch": 74,
              "velocity": 112,
              "position": 24.5,
              "duration": 0.18541666666666667
            },
            {
              "pitch": 74,
              "velocity": 111,
              "position": 25.5,
              "duration": 0.3625
            },
            {
              "pitch": 70,
              "velocity": 108,
              "position": 26,
              "duration": 0.23541666666666666
            },
            {
              "pitch": 70,
              "velocity": 93,
              "position": 26.5,
              "duration": 0.19583333333333333
            },
            {
              "pitch": 70,
              "velocity": 112,
              "position": 27,
              "duration": 0.21458333333333332
            },
            {
              "pitch": 74,
              "velocity": 111,
              "position": 28,
              "duration": 0.32916666666666666
            },
            {
              "pitch": 74,
              "velocity": 99,
              "position": 28.5,
              "duration": 0.21458333333333332
            },
            {
              "pitch": 74,
              "velocity": 108,
              "position": 29,
              "duration": 0.22916666666666666
            },
            {
              "pitch": 71,
              "velocity": 109,
              "position": 30.5,
              "duration": 0.225
            },
            {
              "pitch": 71,
              "velocity": 108,
              "position": 31,
              "duration": 0.2875
            },
            {
              "pitch": 72,
              "velocity": 115,
              "position": 31.5,
              "duration": 0.20416666666666666
            }
          ]
        },
        "8": {
          "ctab": {
            "srcChannel": 8,
            "name": "AddDrum",
            "accType": "SUBRHYTHM",
            "editable": false,
            "mutedNotes": [],
            "mutedChords": [],
            "autoStart": true,
            "sourceChordNote": 0,
            "sourceChordType": "Maj7",
            "ctb2Low": null,
            "ctb2Main": {
              "ntr": "ROOT_FIXED",
              "ntt": "BYPASS",
              "bassOn": false,
              "chordRootUpperLimit": 6,
              "noteLowLimit": 0,
              "noteHighLimit": 127,
              "rtr": "PITCH_SHIFT"
            },
            "ctb2High": null
          },
          "notes": [
            {
              "pitch": 32,
              "velocity": 80,
              "position": 0,
              "duration": 0.00625
            },
            {
              "pitch": 32,
              "velocity": 73,
              "position": 1,
              "duration": 0.00625
            },
            {
              "pitch": 49,
              "velocity": 79,
              "position": 4,
              "duration": 0.004166666666666667
            },
            {
              "pitch": 56,
              "velocity": 87,
              "position": 4,
              "duration": 0.00625
            },
            {
              "pitch": 76,
              "velocity": 85,
              "position": 4.041666666666667,
              "duration": 0.00625
            },
            {
              "pitch": 76,
              "velocity": 85,
              "position": 4.99375,
              "duration": 0.00625
            },
            {
              "pitch": 56,
              "velocity": 118,
              "position": 5,
              "duration": 0.00625
            },
            {
              "pitch": 76,
              "velocity": 85,
              "position": 5.99375,
              "duration": 0.00625
            },
            {
              "pitch": 56,
              "velocity": 86,
              "position": 6,
              "duration": 0.00625
            },
            {
              "pitch": 56,
              "velocity": 63,
              "position": 6.5,
              "duration": 0.00625
            },
            {
              "pitch": 77,
              "velocity": 73,
              "position": 6.970833333333333,
              "duration": 0.00625
            },
            {
              "pitch": 56,
              "velocity": 120,
              "position": 7,
              "duration": 0.00625
            },
            {
              "pitch": 77,
              "velocity": 38,
              "position": 7.483333333333333,
              "duration": 0.00625
            },
            {
              "pitch": 76,
              "velocity": 85,
              "position": 7.989583333333333,
              "duration": 0.00625
            },
            {
              "pitch": 56,
              "velocity": 86,
              "position": 8,
              "duration": 0.00625
            },
            {
              "pitch": 76,
              "velocity": 85,
              "position": 8.989583333333334,
              "duration": 0.00625
            },
            {
              "pitch": 56,
              "velocity": 120,
              "position": 9,
              "duration": 0.00625
            },
            {
              "pitch": 56,
              "velocity": 44,
              "position": 9.75,
              "duration": 0.00625
            },
            {
              "pitch": 77,
              "velocity": 45,
              "position": 9.772916666666667,
              "duration": 0.00625
            },
            {
              "pitch": 56,
              "velocity": 99,
              "position": 10,
              "duration": 0.00625
            },
            {
              "pitch": 76,
              "velocity": 85,
              "position": 10.020833333333334,
              "duration": 0.00625
            },
            {
              "pitch": 56,
              "velocity": 70,
              "position": 10.5,
              "duration": 0.00625
            },
            {
              "pitch": 76,
              "velocity": 70,
              "position": 10.520833333333334,
              "duration": 0.00625
            },
            {
              "pitch": 56,
              "velocity": 120,
              "position": 11,
              "duration": 0.00625
            },
            {
              "pitch": 76,
              "velocity": 85,
              "position": 11.020833333333334,
              "duration": 0.00625
            },
            {
              "pitch": 56,
              "velocity": 87,
              "position": 12,
              "duration": 0.00625
            },
            {
              "pitch": 76,
              "velocity": 82,
              "position": 12.010416666666666,
              "duration": 0.00625
            },
            {
              "pitch": 56,
              "velocity": 118,
              "position": 13,
              "duration": 0.00625
            },
            {
              "pitch": 76,
              "velocity": 84,
              "position": 13.03125,
              "duration": 0.00625
            },
            {
              "pitch": 56,
              "velocity": 86,
              "position": 14,
              "duration": 0.00625
            },
            {
              "pitch": 76,
              "velocity": 85,
              "position": 14.0125,
              "duration": 0.00625
            },
            {
              "pitch": 56,
              "velocity": 68,
              "position": 14.5,
              "duration": 0.00625
            },
            {
              "pitch": 56,
              "velocity": 120,
              "position": 15,
              "duration": 0.00625
            },
            {
              "pitch": 77,
              "velocity": 73,
              "position": 15.010416666666666,
              "duration": 0.00625
            },
            {
              "pitch": 77,
              "velocity": 37,
              "position": 15.510416666666666,
              "duration": 0.00625
            },
            {
              "pitch": 56,
              "velocity": 86,
              "position": 16,
              "duration": 0.00625
            },
            {
              "pitch": 76,
              "velocity": 85,
              "position": 16,
              "duration": 0.00625
            },
            {
              "pitch": 56,
              "velocity": 120,
              "position": 17,
              "duration": 0.00625
            },
            {
              "pitch": 76,
              "velocity": 85,
              "position": 17.020833333333332,
              "duration": 0.00625
            },
            {
              "pitch": 56,
              "velocity": 44,
              "position": 17.75,
              "duration": 0.00625
            },
            {
              "pitch": 77,
              "velocity": 77,
              "position": 17.772916666666667,
              "duration": 0.00625
            },
            {
              "pitch": 65,
              "velocity": 89,
              "position": 17.991666666666667,
              "duration": 0.00625
            },
            {
              "pitch": 56,
              "velocity": 99,
              "position": 18,
              "duration": 0.00625
            },
            {
              "pitch": 76,
              "velocity": 80,
              "position": 18.022916666666667,
              "duration": 0.00625
            },
            {
              "pitch": 65,
              "velocity": 58,
              "position": 18.083333333333332,
              "duration": 0.00625
            },
            {
              "pitch": 65,
              "velocity": 34,
              "position": 18.189583333333335,
              "duration": 0.00625
            },
            {
              "pitch": 65,
              "velocity": 39,
              "position": 18.29375,
              "duration": 0.00625
            },
            {
              "pitch": 65,
              "velocity": 61,
              "position": 18.40625,
              "duration": 0.00625
            },
            {
              "pitch": 56,
              "velocity": 70,
              "position": 18.5,
              "duration": 0.00625
            },
            {
              "pitch": 65,
              "velocity": 105,
              "position": 18.5,
              "duration": 0.00625
            },
            {
              "pitch": 76,
              "velocity": 85,
              "position": 18.520833333333332,
              "duration": 0.00625
            },
            {
              "pitch": 65,
              "velocity": 73,
              "position": 18.75,
              "duration": 0.00625
            },
            {
              "pitch": 56,
              "velocity": 120,
              "position": 19,
              "duration": 0.00625
            },
            {
              "pitch": 65,
              "velocity": 105,
              "position": 19,
              "duration": 0.00625
            },
            {
              "pitch": 76,
              "velocity": 85,
              "position": 19.010416666666668,
              "duration": 0.00625
            },
            {
              "pitch": 65,
              "velocity": 96,
              "position": 19.25,
              "duration": 0.00625
            },
            {
              "pitch": 66,
              "velocity": 105,
              "position": 19.5,
              "duration": 0.00625
            },
            {
              "pitch": 77,
              "velocity": 35,
              "position": 19.520833333333332,
              "duration": 0.00625
            },
            {
              "pitch": 77,
              "velocity": 68,
              "position": 19.754166666666666,
              "duration": 0.00625
            },
            {
              "pitch": 49,
              "velocity": 79,
              "position": 20,
              "duration": 0.00625
            },
            {
              "pitch": 56,
              "velocity": 87,
              "position": 20,
              "duration": 0.00625
            },
            {
              "pitch": 76,
              "velocity": 85,
              "position": 20.0125,
              "duration": 0.00625
            },
            {
              "pitch": 56,
              "velocity": 118,
              "position": 21,
              "duration": 0.00625
            },
            {
              "pitch": 76,
              "velocity": 85,
              "position": 21,
              "duration": 0.00625
            },
            {
              "pitch": 56,
              "velocity": 86,
              "position": 22,
              "duration": 0.00625
            },
            {
              "pitch": 76,
              "velocity": 85,
              "position": 22.010416666666668,
              "duration": 0.00625
            },
            {
              "pitch": 56,
              "velocity": 63,
              "position": 22.5,
              "duration": 0.00625
            },
            {
              "pitch": 56,
              "velocity": 120,
              "position": 23,
              "duration": 0.00625
            },
            {
              "pitch": 77,
              "velocity": 77,
              "position": 23.010416666666668,
              "duration": 0.00625
            },
            {
              "pitch": 77,
              "velocity": 51,
              "position": 23.49375,
              "duration": 0.00625
            },
            {
              "pitch": 56,
              "velocity": 86,
              "position": 24,
              "duration": 0.00625
            },
            {
              "pitch": 76,
              "velocity": 85,
              "position": 24.533333333333335,
              "duration": 0.00625
            },
            {
              "pitch": 56,
              "velocity": 120,
              "position": 25,
              "duration": 0.00625
            },
            {
              "pitch": 76,
              "velocity": 56,
              "position": 25.522916666666667,
              "duration": 0.00625
            },
            {
              "pitch": 56,
              "velocity": 44,
              "position": 25.75,
              "duration": 0.00625
            },
            {
              "pitch": 56,
              "velocity": 99,
              "position": 26,
              "duration": 0.00625
            },
            {
              "pitch": 76,
              "velocity": 85,
              "position": 26.020833333333332,
              "duration": 0.00625
            },
            {
              "pitch": 56,
              "velocity": 70,
              "position": 26.5,
              "duration": 0.00625
            },
            {
              "pitch": 76,
              "velocity": 49,
              "position": 26.502083333333335,
              "duration": 0.00625
            },
            {
              "pitch": 56,
              "velocity": 120,
              "position": 27,
              "duration": 0.00625
            },
            {
              "pitch": 76,
              "velocity": 85,
              "position": 27.020833333333332,
              "duration": 0.00625
            },
            {
              "pitch": 56,
              "velocity": 87,
              "position": 28,
              "duration": 0.00625
            },
            {
              "pitch": 76,
              "velocity": 85,
              "position": 28,
              "duration": 0.00625
            },
            {
              "pitch": 76,
              "velocity": 57,
              "position": 28.5,
              "duration": 0.00625
            },
            {
              "pitch": 56,
              "velocity": 118,
              "position": 29,
              "duration": 0.00625
            },
            {
              "pitch": 76,
              "velocity": 85,
              "position": 29,
              "duration": 0.00625
            },
            {
              "pitch": 57,
              "velocity": 84,
              "position": 29.5,
              "duration": 0.00625
            },
            {
              "pitch": 65,
              "velocity": 105,
              "position": 30.5,
              "duration": 0.00625
            },
            {
              "pitch": 65,
              "velocity": 97,
              "position": 31,
              "duration": 0.00625
            },
            {
              "pitch": 56,
              "velocity": 118,
              "position": 31.5,
              "duration": 0.00625
            },
            {
              "pitch": 66,
              "velocity": 105,
              "position": 31.5,
              "duration": 0.00625
            },
            {
              "pitch": 56,
              "velocity": 120,
              "position": 33,
              "duration": 0.00625
            },
            {
              "pitch": 56,
              "velocity": 44,
              "position": 33.5,
              "duration": 0.00625
            },
            {
              "pitch": 56,
              "velocity": 99,
              "position": 34,
              "duration": 0.00625
            },
            {
              "pitch": 65,
              "velocity": 86,
              "position": 34.83541666666667,
              "duration": 0.00625
            },
            {
              "pitch": 65,
              "velocity": 105,
              "position": 35,
              "duration": 0.00625
            }
          ]
        },
        "9": {
          "ctab": {
            "srcChannel": 9,
            "name": "MainDrum",
            "accType": "RHYTHM",
            "editable": false,
            "mutedNotes": [],
            "mutedChords": [],
            "autoStart": true,
            "sourceChordNote": 0,
            "sourceChordType": "Maj7",
            "ctb2Low": null,
            "ctb2Main": {
              "ntr": "ROOT_FIXED",
              "ntt": "BYPASS",
              "bassOn": false,
              "chordRootUpperLimit": 6,
              "noteLowLimit": 0,
              "noteHighLimit": 127,
              "rtr": "PITCH_SHIFT"
            },
            "ctb2High": null
          },
          "notes": [
            {
              "pitch": 53,
              "velocity": 100,
              "position": 1.4479166666666667,
              "duration": 0.00625
            },
            {
              "pitch": 53,
              "velocity": 52,
              "position": 1.5770833333333334,
              "duration": 0.00625
            },
            {
              "pitch": 53,
              "velocity": 37,
              "position": 1.7083333333333333,
              "duration": 0.00625
            },
            {
              "pitch": 53,
              "velocity": 66,
              "position": 1.8541666666666667,
              "duration": 0.00625
            },
            {
              "pitch": 53,
              "velocity": 93,
              "position": 2,
              "duration": 0.00625
            },
            {
              "pitch": 53,
              "velocity": 42,
              "position": 2.3333333333333335,
              "duration": 0.00625
            },
            {
              "pitch": 53,
              "velocity": 57,
              "position": 2.6666666666666665,
              "duration": 0.00625
            },
            {
              "pitch": 53,
              "velocity": 103,
              "position": 3,
              "duration": 0.00625
            },
            {
              "pitch": 53,
              "velocity": 37,
              "position": 3.3333333333333335,
              "duration": 0.00625
            },
            {
              "pitch": 53,
              "velocity": 89,
              "position": 3.6666666666666665,
              "duration": 0.00625
            },
            {
              "pitch": 24,
              "velocity": 105,
              "position": 4,
              "duration": 0.004166666666666667
            },
            {
              "pitch": 73,
              "velocity": 69,
              "position": 4,
              "duration": 0.004166666666666667
            },
            {
              "pitch": 26,
              "velocity": 40,
              "position": 4.5,
              "duration": 0.004166666666666667
            },
            {
              "pitch": 73,
              "velocity": 35,
              "position": 4.5,
              "duration": 0.004166666666666667
            },
            {
              "pitch": 27,
              "velocity": 98,
              "position": 5,
              "duration": 0.004166666666666667
            },
            {
              "pitch": 64,
              "velocity": 74,
              "position": 5,
              "duration": 0.004166666666666667
            },
            {
              "pitch": 73,
              "velocity": 100,
              "position": 5,
              "duration": 0.004166666666666667
            },
            {
              "pitch": 65,
              "velocity": 66,
              "position": 4,
              "duration": 1.00625
            },
            {
              "pitch": 53,
              "velocity": 76,
              "position": 5.010416666666667,
              "duration": 0.00625
            },
            {
              "pitch": 24,
              "velocity": 50,
              "position": 5.5,
              "duration": 0.004166666666666667
            },
            {
              "pitch": 64,
              "velocity": 76,
              "position": 5.5,
              "duration": 0.004166666666666667
            },
            {
              "pitch": 73,
              "velocity": 38,
              "position": 5.5,
              "duration": 0.004166666666666667
            },
            {
              "pitch": 24,
              "velocity": 102,
              "position": 6,
              "duration": 0.004166666666666667
            },
            {
              "pitch": 73,
              "velocity": 71,
              "position": 6,
              "duration": 0.004166666666666667
            },
            {
              "pitch": 53,
              "velocity": 75,
              "position": 6,
              "duration": 0.00625
            },
            {
              "pitch": 53,
              "velocity": 59,
              "position": 6.491666666666666,
              "duration": 0.00625
            },
            {
              "pitch": 22,
              "velocity": 48,
              "position": 6.5,
              "duration": 0.004166666666666667
            },
            {
              "pitch": 73,
              "velocity": 39,
              "position": 6.5,
              "duration": 0.004166666666666667
            },
            {
              "pitch": 65,
              "velocity": 66,
              "position": 6,
              "duration": 0.9854166666666667
            },
            {
              "pitch": 53,
              "velocity": 70,
              "position": 6.989583333333333,
              "duration": 0.00625
            },
            {
              "pitch": 31,
              "velocity": 79,
              "position": 7,
              "duration": 0.004166666666666667
            },
            {
              "pitch": 64,
              "velocity": 68,
              "position": 7,
              "duration": 0.004166666666666667
            },
            {
              "pitch": 73,
              "velocity": 100,
              "position": 7,
              "duration": 0.004166666666666667
            },
            {
              "pitch": 31,
              "velocity": 114,
              "position": 7.5,
              "duration": 0.004166666666666667
            },
            {
              "pitch": 64,
              "velocity": 76,
              "position": 7.5,
              "duration": 0.004166666666666667
            },
            {
              "pitch": 73,
              "velocity": 39,
              "position": 7.5,
              "duration": 0.004166666666666667
            },
            {
              "pitch": 53,
              "velocity": 61,
              "position": 7.991666666666666,
              "duration": 0.00625
            },
            {
              "pitch": 23,
              "velocity": 58,
              "position": 8,
              "duration": 0.004166666666666667
            },
            {
              "pitch": 73,
              "velocity": 73,
              "position": 8,
              "duration": 0.004166666666666667
            },
            {
              "pitch": 26,
              "velocity": 39,
              "position": 8.5,
              "duration": 0.004166666666666667
            },
            {
              "pitch": 73,
              "velocity": 35,
              "position": 8.5,
              "duration": 0.004166666666666667
            },
            {
              "pitch": 65,
              "velocity": 66,
              "position": 8,
              "duration": 0.9958333333333333
            },
            {
              "pitch": 53,
              "velocity": 66,
              "position": 8.99375,
              "duration": 0.00625
            },
            {
              "pitch": 27,
              "velocity": 101,
              "position": 9,
              "duration": 0.004166666666666667
            },
            {
              "pitch": 64,
              "velocity": 67,
              "position": 9,
              "duration": 0.004166666666666667
            },
            {
              "pitch": 73,
              "velocity": 100,
              "position": 9,
              "duration": 0.004166666666666667
            },
            {
              "pitch": 24,
              "velocity": 77,
              "position": 9.5,
              "duration": 0.004166666666666667
            },
            {
              "pitch": 64,
              "velocity": 76,
              "position": 9.5,
              "duration": 0.004166666666666667
            },
            {
              "pitch": 73,
              "velocity": 33,
              "position": 9.5,
              "duration": 0.004166666666666667
            },
            {
              "pitch": 53,
              "velocity": 71,
              "position": 9.99375,
              "duration": 0.00625
            },
            {
              "pitch": 24,
              "velocity": 105,
              "position": 10,
              "duration": 0.004166666666666667
            },
            {
              "pitch": 73,
              "velocity": 76,
              "position": 10,
              "duration": 0.004166666666666667
            },
            {
              "pitch": 53,
              "velocity": 65,
              "position": 10.489583333333334,
              "duration": 0.00625
            },
            {
              "pitch": 22,
              "velocity": 74,
              "position": 10.5,
              "duration": 0.004166666666666667
            },
            {
              "pitch": 73,
              "velocity": 33,
              "position": 10.5,
              "duration": 0.004166666666666667
            },
            {
              "pitch": 65,
              "velocity": 66,
              "position": 10,
              "duration": 0.9875
            },
            {
              "pitch": 31,
              "velocity": 52,
              "position": 11,
              "duration": 0.004166666666666667
            },
            {
              "pitch": 64,
              "velocity": 67,
              "position": 11,
              "duration": 0.004166666666666667
            },
            {
              "pitch": 73,
              "velocity": 100,
              "position": 11,
              "duration": 0.004166666666666667
            },
            {
              "pitch": 53,
              "velocity": 70,
              "position": 11,
              "duration": 0.00625
            },
            {
              "pitch": 31,
              "velocity": 108,
              "position": 11.5,
              "duration": 0.004166666666666667
            },
            {
              "pitch": 59,
              "velocity": 43,
              "position": 11.5,
              "duration": 0.004166666666666667
            },
            {
              "pitch": 64,
              "velocity": 76,
              "position": 11.5,
              "duration": 0.004166666666666667
            },
            {
              "pitch": 73,
              "velocity": 32,
              "position": 11.5,
              "duration": 0.004166666666666667
            },
            {
              "pitch": 53,
              "velocity": 48,
              "position": 11.741666666666667,
              "duration": 0.00625
            },
            {
              "pitch": 23,
              "velocity": 93,
              "position": 12,
              "duration": 0.004166666666666667
            },
            {
              "pitch": 73,
              "velocity": 69,
              "position": 12,
              "duration": 0.004166666666666667
            },
            {
              "pitch": 53,
              "velocity": 68,
              "position": 12.002083333333333,
              "duration": 0.00625
            },
            {
              "pitch": 26,
              "velocity": 40,
              "position": 12.5,
              "duration": 0.004166666666666667
            },
            {
              "pitch": 73,
              "velocity": 35,
              "position": 12.5,
              "duration": 0.004166666666666667
            },
            {
              "pitch": 27,
              "velocity": 98,
              "position": 13,
              "duration": 0.00625
            },
            {
              "pitch": 64,
              "velocity": 66,
              "position": 13,
              "duration": 0.00625
            },
            {
              "pitch": 73,
              "velocity": 100,
              "position": 13,
              "duration": 0.00625
            },
            {
              "pitch": 65,
              "velocity": 66,
              "position": 12,
              "duration": 1.0104166666666667
            },
            {
              "pitch": 53,
              "velocity": 83,
              "position": 13.010416666666666,
              "duration": 0.00625
            },
            {
              "pitch": 24,
              "velocity": 50,
              "position": 13.5,
              "duration": 0.00625
            },
            {
              "pitch": 64,
              "velocity": 76,
              "position": 13.5,
              "duration": 0.00625
            },
            {
              "pitch": 73,
              "velocity": 38,
              "position": 13.5,
              "duration": 0.00625
            },
            {
              "pitch": 24,
              "velocity": 102,
              "position": 14,
              "duration": 0.00625
            },
            {
              "pitch": 73,
              "velocity": 71,
              "position": 14,
              "duration": 0.00625
            },
            {
              "pitch": 53,
              "velocity": 72,
              "position": 14.010416666666666,
              "duration": 0.00625
            },
            {
              "pitch": 22,
              "velocity": 48,
              "position": 14.5,
              "duration": 0.00625
            },
            {
              "pitch": 73,
              "velocity": 39,
              "position": 14.5,
              "duration": 0.00625
            },
            {
              "pitch": 53,
              "velocity": 70,
              "position": 14.502083333333333,
              "duration": 0.00625
            },
            {
              "pitch": 65,
              "velocity": 66,
              "position": 14,
              "duration": 0.9958333333333333
            },
            {
              "pitch": 31,
              "velocity": 79,
              "position": 15,
              "duration": 0.00625
            },
            {
              "pitch": 64,
              "velocity": 67,
              "position": 15,
              "duration": 0.00625
            },
            {
              "pitch": 73,
              "velocity": 100,
              "position": 15,
              "duration": 0.00625
            },
            {
              "pitch": 53,
              "velocity": 76,
              "position": 15.002083333333333,
              "duration": 0.00625
            },
            {
              "pitch": 31,
              "velocity": 114,
              "position": 15.5,
              "duration": 0.00625
            },
            {
              "pitch": 64,
              "velocity": 76,
              "position": 15.5,
              "duration": 0.00625
            },
            {
              "pitch": 73,
              "velocity": 39,
              "position": 15.5,
              "duration": 0.00625
            },
            {
              "pitch": 23,
              "velocity": 58,
              "position": 16,
              "duration": 0.00625
            },
            {
              "pitch": 73,
              "velocity": 73,
              "position": 16,
              "duration": 0.00625
            },
            {
              "pitch": 53,
              "velocity": 80,
              "position": 16.002083333333335,
              "duration": 0.00625
            },
            {
              "pitch": 26,
              "velocity": 39,
              "position": 16.5,
              "duration": 0.00625
            },
            {
              "pitch": 73,
              "velocity": 35,
              "position": 16.5,
              "duration": 0.00625
            },
            {
              "pitch": 65,
              "velocity": 66,
              "position": 16,
              "duration": 0.9854166666666667
            },
            {
              "pitch": 27,
              "velocity": 101,
              "position": 17,
              "duration": 0.00625
            },
            {
              "pitch": 64,
              "velocity": 67,
              "position": 17,
              "duration": 0.00625
            },
            {
              "pitch": 73,
              "velocity": 100,
              "position": 17,
              "duration": 0.00625
            },
            {
              "pitch": 53,
              "velocity": 86,
              "position": 17.010416666666668,
              "duration": 0.00625
            },
            {
              "pitch": 24,
              "velocity": 77,
              "position": 17.5,
              "duration": 0.00625
            },
            {
              "pitch": 64,
              "velocity": 76,
              "position": 17.5,
              "duration": 0.00625
            },
            {
              "pitch": 73,
              "velocity": 33,
              "position": 17.5,
              "duration": 0.00625
            },
            {
              "pitch": 24,
              "velocity": 105,
              "position": 18,
              "duration": 0.00625
            },
            {
              "pitch": 73,
              "velocity": 76,
              "position": 18,
              "duration": 0.00625
            },
            {
              "pitch": 22,
              "velocity": 74,
              "position": 18.5,
              "duration": 0.00625
            },
            {
              "pitch": 73,
              "velocity": 33,
              "position": 18.5,
              "duration": 0.00625
            },
            {
              "pitch": 65,
              "velocity": 66,
              "position": 18,
              "duration": 0.9958333333333333
            },
            {
              "pitch": 31,
              "velocity": 52,
              "position": 19,
              "duration": 0.00625
            },
            {
              "pitch": 64,
              "velocity": 66,
              "position": 19,
              "duration": 0.00625
            },
            {
              "pitch": 73,
              "velocity": 100,
              "position": 19,
              "duration": 0.00625
            },
            {
              "pitch": 31,
              "velocity": 108,
              "position": 19.5,
              "duration": 0.00625
            },
            {
              "pitch": 64,
              "velocity": 76,
              "position": 19.5,
              "duration": 0.00625
            },
            {
              "pitch": 73,
              "velocity": 32,
              "position": 19.5,
              "duration": 0.00625
            },
            {
              "pitch": 59,
              "velocity": 39,
              "position": 19.75,
              "duration": 0.00625
            },
            {
              "pitch": 24,
              "velocity": 105,
              "position": 20,
              "duration": 0.00625
            },
            {
              "pitch": 73,
              "velocity": 69,
              "position": 20,
              "duration": 0.00625
            },
            {
              "pitch": 26,
              "velocity": 40,
              "position": 20.5,
              "duration": 0.00625
            },
            {
              "pitch": 73,
              "velocity": 35,
              "position": 20.5,
              "duration": 0.00625
            },
            {
              "pitch": 27,
              "velocity": 98,
              "position": 21,
              "duration": 0.00625
            },
            {
              "pitch": 64,
              "velocity": 74,
              "position": 21,
              "duration": 0.00625
            },
            {
              "pitch": 65,
              "velocity": 66,
              "position": 20,
              "duration": 1.00625
            },
            {
              "pitch": 73,
              "velocity": 100,
              "position": 21,
              "duration": 0.00625
            },
            {
              "pitch": 53,
              "velocity": 76,
              "position": 21.010416666666668,
              "duration": 0.00625
            },
            {
              "pitch": 24,
              "velocity": 50,
              "position": 21.5,
              "duration": 0.00625
            },
            {
              "pitch": 64,
              "velocity": 76,
              "position": 21.5,
              "duration": 0.00625
            },
            {
              "pitch": 73,
              "velocity": 38,
              "position": 21.5,
              "duration": 0.00625
            },
            {
              "pitch": 24,
              "velocity": 102,
              "position": 22,
              "duration": 0.00625
            },
            {
              "pitch": 53,
              "velocity": 75,
              "position": 22,
              "duration": 0.00625
            },
            {
              "pitch": 73,
              "velocity": 71,
              "position": 22,
              "duration": 0.00625
            },
            {
              "pitch": 53,
              "velocity": 59,
              "position": 22.491666666666667,
              "duration": 0.00625
            },
            {
              "pitch": 22,
              "velocity": 48,
              "position": 22.5,
              "duration": 0.00625
            },
            {
              "pitch": 73,
              "velocity": 39,
              "position": 22.5,
              "duration": 0.00625
            },
            {
              "pitch": 65,
              "velocity": 66,
              "position": 22,
              "duration": 0.9854166666666667
            },
            {
              "pitch": 53,
              "velocity": 70,
              "position": 22.989583333333332,
              "duration": 0.00625
            },
            {
              "pitch": 31,
              "velocity": 79,
              "position": 23,
              "duration": 0.00625
            },
            {
              "pitch": 64,
              "velocity": 68,
              "position": 23,
              "duration": 0.00625
            },
            {
              "pitch": 73,
              "velocity": 100,
              "position": 23,
              "duration": 0.00625
            },
            {
              "pitch": 31,
              "velocity": 114,
              "position": 23.5,
              "duration": 0.00625
            },
            {
              "pitch": 64,
              "velocity": 76,
              "position": 23.5,
              "duration": 0.00625
            },
            {
              "pitch": 73,
              "velocity": 39,
              "position": 23.5,
              "duration": 0.00625
            },
            {
              "pitch": 53,
              "velocity": 61,
              "position": 23.991666666666667,
              "duration": 0.00625
            },
            {
              "pitch": 23,
              "velocity": 58,
              "position": 24,
              "duration": 0.00625
            },
            {
              "pitch": 73,
              "velocity": 73,
              "position": 24,
              "duration": 0.00625
            },
            {
              "pitch": 26,
              "velocity": 39,
              "position": 24.5,
              "duration": 0.00625
            },
            {
              "pitch": 73,
              "velocity": 35,
              "position": 24.5,
              "duration": 0.00625
            },
            {
              "pitch": 65,
              "velocity": 66,
              "position": 24,
              "duration": 0.9958333333333333
            },
            {
              "pitch": 53,
              "velocity": 66,
              "position": 24.99375,
              "duration": 0.00625
            },
            {
              "pitch": 27,
              "velocity": 101,
              "position": 25,
              "duration": 0.00625
            },
            {
              "pitch": 64,
              "velocity": 67,
              "position": 25,
              "duration": 0.00625
            },
            {
              "pitch": 73,
              "velocity": 100,
              "position": 25,
              "duration": 0.00625
            },
            {
              "pitch": 24,
              "velocity": 77,
              "position": 25.5,
              "duration": 0.00625
            },
            {
              "pitch": 64,
              "velocity": 76,
              "position": 25.5,
              "duration": 0.00625
            },
            {
              "pitch": 73,
              "velocity": 33,
              "position": 25.5,
              "duration": 0.00625
            },
            {
              "pitch": 53,
              "velocity": 71,
              "position": 25.99375,
              "duration": 0.00625
            },
            {
              "pitch": 24,
              "velocity": 105,
              "position": 26,
              "duration": 0.00625
            },
            {
              "pitch": 73,
              "velocity": 76,
              "position": 26,
              "duration": 0.00625
            },
            {
              "pitch": 53,
              "velocity": 65,
              "position": 26.489583333333332,
              "duration": 0.00625
            },
            {
              "pitch": 22,
              "velocity": 74,
              "position": 26.5,
              "duration": 0.00625
            },
            {
              "pitch": 73,
              "velocity": 33,
              "position": 26.5,
              "duration": 0.00625
            },
            {
              "pitch": 65,
              "velocity": 66,
              "position": 26,
              "duration": 0.9875
            },
            {
              "pitch": 31,
              "velocity": 52,
              "position": 27,
              "duration": 0.00625
            },
            {
              "pitch": 53,
              "velocity": 70,
              "position": 27,
              "duration": 0.00625
            },
            {
              "pitch": 64,
              "velocity": 67,
              "position": 27,
              "duration": 0.00625
            },
            {
              "pitch": 73,
              "velocity": 100,
              "position": 27,
              "duration": 0.00625
            },
            {
              "pitch": 31,
              "velocity": 108,
              "position": 27.5,
              "duration": 0.00625
            },
            {
              "pitch": 59,
              "velocity": 43,
              "position": 27.5,
              "duration": 0.00625
            },
            {
              "pitch": 64,
              "velocity": 76,
              "position": 27.5,
              "duration": 0.00625
            },
            {
              "pitch": 73,
              "velocity": 32,
              "position": 27.5,
              "duration": 0.00625
            },
            {
              "pitch": 53,
              "velocity": 48,
              "position": 27.741666666666667,
              "duration": 0.00625
            },
            {
              "pitch": 23,
              "velocity": 93,
              "position": 28,
              "duration": 0.00625
            },
            {
              "pitch": 73,
              "velocity": 69,
              "position": 28,
              "duration": 0.00625
            },
            {
              "pitch": 53,
              "velocity": 68,
              "position": 28.002083333333335,
              "duration": 0.00625
            },
            {
              "pitch": 26,
              "velocity": 40,
              "position": 28.5,
              "duration": 0.00625
            },
            {
              "pitch": 73,
              "velocity": 35,
              "position": 28.5,
              "duration": 0.00625
            },
            {
              "pitch": 27,
              "velocity": 98,
              "position": 29,
              "duration": 0.00625
            },
            {
              "pitch": 64,
              "velocity": 66,
              "position": 29,
              "duration": 0.00625
            },
            {
              "pitch": 73,
              "velocity": 100,
              "position": 29,
              "duration": 0.00625
            },
            {
              "pitch": 65,
              "velocity": 66,
              "position": 28,
              "duration": 1.0104166666666667
            },
            {
              "pitch": 53,
              "velocity": 83,
              "position": 29.010416666666668,
              "duration": 0.00625
            },
            {
              "pitch": 53,
              "velocity": 100,
              "position": 29.45,
              "duration": 0.00625
            },
            {
              "pitch": 53,
              "velocity": 52,
              "position": 29.583333333333332,
              "duration": 0.00625
            },
            {
              "pitch": 53,
              "velocity": 37,
              "position": 29.7125,
              "duration": 0.00625
            },
            {
              "pitch": 53,
              "velocity": 66,
              "position": 29.854166666666668,
              "duration": 0.00625
            },
            {
              "pitch": 53,
              "velocity": 93,
              "position": 29.98125,
              "duration": 0.00625
            },
            {
              "pitch": 53,
              "velocity": 42,
              "position": 30.314583333333335,
              "duration": 0.00625
            },
            {
              "pitch": 53,
              "velocity": 57,
              "position": 30.647916666666667,
              "duration": 0.00625
            },
            {
              "pitch": 53,
              "velocity": 76,
              "position": 30.9375,
              "duration": 0.00625
            },
            {
              "pitch": 53,
              "velocity": 89,
              "position": 31.5,
              "duration": 0.00625
            },
            {
              "pitch": 64,
              "velocity": 67,
              "position": 31.5,
              "duration": 0.00625
            },
            {
              "pitch": 73,
              "velocity": 39,
              "position": 31.5,
              "duration": 0.00625
            },
            {
              "pitch": 53,
              "velocity": 86,
              "position": 33,
              "duration": 0.00625
            },
            {
              "pitch": 64,
              "velocity": 67,
              "position": 33,
              "duration": 0.00625
            },
            {
              "pitch": 73,
              "velocity": 100,
              "position": 33,
              "duration": 0.00625
            },
            {
              "pitch": 53,
              "velocity": 86,
              "position": 33.5,
              "duration": 0.00625
            },
            {
              "pitch": 64,
              "velocity": 76,
              "position": 33.5,
              "duration": 0.00625
            },
            {
              "pitch": 73,
              "velocity": 33,
              "position": 33.5,
              "duration": 0.00625
            },
            {
              "pitch": 53,
              "velocity": 113,
              "position": 34,
              "duration": 0.00625
            },
            {
              "pitch": 64,
              "velocity": 72,
              "position": 34,
              "duration": 0.00625
            },
            {
              "pitch": 73,
              "velocity": 76,
              "position": 34,
              "duration": 0.00625
            }
          ]
        },
        "10": {
          "ctab": {
            "srcChannel": 10,
            "name": "Bass",
            "accType": "BASS",
            "editable": false,
            "mutedNotes": [],
            "mutedChords": [
              "dim7",
              "dim",
              "minMaj7(9)",
              "minMaj7",
              "min7(11)",
              "min7(9)",
              "min(9)",
              "m7b5",
              "min7",
              "min6",
              "min"
            ],
            "autoStart": false,
            "sourceChordNote": 0,
            "sourceChordType": "Maj",
            "ctb2Low": null,
            "ctb2Main": {
              "ntr": "ROOT_TRANSPOSITION",
              "ntt": "BYPASS",
              "bassOn": false,
              "chordRootUpperLimit": 3,
              "noteLowLimit": 28,
              "noteHighLimit": 127,
              "rtr": "PITCH_SHIFT"
            },
            "ctb2High": null
          },
          "notes": [
            {
              "pitch": 101,
              "velocity": 97,
              "position": 3,
              "duration": 0.9645833333333333
            },
            {
              "pitch": 26,
              "velocity": 60,
              "position": 4,
              "duration": 0.975
            },
            {
              "pitch": 26,
              "velocity": 95,
              "position": 5,
              "duration": 0.058333333333333334
            },
            {
              "pitch": 26,
              "velocity": 50,
              "position": 5.5,
              "duration": 0.475
            },
            {
              "pitch": 31,
              "velocity": 60,
              "position": 6,
              "duration": 0.975
            },
            {
              "pitch": 31,
              "velocity": 100,
              "position": 7,
              "duration": 0.058333333333333334
            },
            {
              "pitch": 31,
              "velocity": 50,
              "position": 7.5,
              "duration": 0.475
            },
            {
              "pitch": 24,
              "velocity": 60,
              "position": 8,
              "duration": 0.975
            },
            {
              "pitch": 24,
              "velocity": 100,
              "position": 9,
              "duration": 0.058333333333333334
            },
            {
              "pitch": 24,
              "velocity": 60,
              "position": 9.5,
              "duration": 0.14166666666666666
            },
            {
              "pitch": 33,
              "velocity": 60,
              "position": 10,
              "duration": 0.475
            },
            {
              "pitch": 33,
              "velocity": 100,
              "position": 10.5,
              "duration": 0.058333333333333334
            },
            {
              "pitch": 33,
              "velocity": 60,
              "position": 11,
              "duration": 0.975
            },
            {
              "pitch": 26,
              "velocity": 60,
              "position": 12,
              "duration": 0.975
            },
            {
              "pitch": 26,
              "velocity": 95,
              "position": 13,
              "duration": 0.058333333333333334
            },
            {
              "pitch": 26,
              "velocity": 50,
              "position": 13.5,
              "duration": 0.475
            },
            {
              "pitch": 31,
              "velocity": 60,
              "position": 14,
              "duration": 0.975
            },
            {
              "pitch": 31,
              "velocity": 100,
              "position": 15,
              "duration": 0.058333333333333334
            },
            {
              "pitch": 24,
              "velocity": 50,
              "position": 15.5,
              "duration": 0.475
            },
            {
              "pitch": 24,
              "velocity": 60,
              "position": 16,
              "duration": 0.975
            },
            {
              "pitch": 24,
              "velocity": 100,
              "position": 17,
              "duration": 0.058333333333333334
            },
            {
              "pitch": 24,
              "velocity": 60,
              "position": 17.5,
              "duration": 0.14166666666666666
            },
            {
              "pitch": 24,
              "velocity": 60,
              "position": 18,
              "duration": 0.475
            },
            {
              "pitch": 24,
              "velocity": 100,
              "position": 18.5,
              "duration": 0.058333333333333334
            },
            {
              "pitch": 24,
              "velocity": 60,
              "position": 19,
              "duration": 0.975
            },
            {
              "pitch": 26,
              "velocity": 60,
              "position": 20,
              "duration": 0.975
            },
            {
              "pitch": 26,
              "velocity": 95,
              "position": 21,
              "duration": 0.058333333333333334
            },
            {
              "pitch": 26,
              "velocity": 50,
              "position": 21.5,
              "duration": 0.475
            },
            {
              "pitch": 31,
              "velocity": 60,
              "position": 22,
              "duration": 0.975
            },
            {
              "pitch": 31,
              "velocity": 100,
              "position": 23,
              "duration": 0.058333333333333334
            },
            {
              "pitch": 31,
              "velocity": 50,
              "position": 23.5,
              "duration": 0.475
            },
            {
              "pitch": 24,
              "velocity": 60,
              "position": 24,
              "duration": 0.975
            },
            {
              "pitch": 24,
              "velocity": 100,
              "position": 25,
              "duration": 0.058333333333333334
            },
            {
              "pitch": 24,
              "velocity": 60,
              "position": 25.5,
              "duration": 0.14166666666666666
            },
            {
              "pitch": 33,
              "velocity": 60,
              "position": 26,
              "duration": 0.475
            },
            {
              "pitch": 33,
              "velocity": 100,
              "position": 26.5,
              "duration": 0.058333333333333334
            },
            {
              "pitch": 33,
              "velocity": 60,
              "position": 27,
              "duration": 0.975
            },
            {
              "pitch": 26,
              "velocity": 60,
              "position": 28,
              "duration": 0.44375
            },
            {
              "pitch": 26,
              "velocity": 60,
              "position": 28.5,
              "duration": 0.42291666666666666
            },
            {
              "pitch": 26,
              "velocity": 50,
              "position": 29,
              "duration": 0.45416666666666666
            },
            {
              "pitch": 31,
              "velocity": 60,
              "position": 29.46875,
              "duration": 2.058333333333333
            },
            {
              "pitch": 24,
              "velocity": 60,
              "position": 31.5,
              "duration": 0.475
            }
          ]
        },
        "11": {
          "ctab": {
            "srcChannel": 11,
            "name": "E.Guitar",
            "accType": "CHORD1",
            "editable": false,
            "mutedNotes": [],
            "mutedChords": [
              "dim7",
              "dim",
              "minMaj7(9)",
              "minMaj7",
              "min7(11)",
              "min7(9)",
              "min(9)",
              "m7b5",
              "min7",
              "min6",
              "min"
            ],
            "autoStart": false,
            "sourceChordNote": 0,
            "sourceChordType": "Maj",
            "ctb2Low": null,
            "ctb2Main": {
              "ntr": "ROOT_TRANSPOSITION",
              "ntt": "BYPASS",
              "bassOn": false,
              "chordRootUpperLimit": 6,
              "noteLowLimit": 0,
              "noteHighLimit": 127,
              "rtr": "PITCH_SHIFT"
            },
            "ctb2High": null
          },
          "notes": [
            {
              "pitch": 57,
              "velocity": 120,
              "position": 10,
              "duration": 0.475
            },
            {
              "pitch": 60,
              "velocity": 90,
              "position": 10.5,
              "duration": 0.14166666666666666
            },
            {
              "pitch": 64,
              "velocity": 90,
              "position": 11,
              "duration": 0.21458333333333332
            },
            {
              "pitch": 60,
              "velocity": 90,
              "position": 11.5,
              "duration": 0.13125
            },
            {
              "pitch": 62,
              "velocity": 90,
              "position": 12,
              "duration": 0.12083333333333333
            },
            {
              "pitch": 61,
              "velocity": 50,
              "position": 18,
              "duration": 0.43333333333333335
            },
            {
              "pitch": 61,
              "velocity": 75,
              "position": 18.5,
              "duration": 0.1
            },
            {
              "pitch": 61,
              "velocity": 50,
              "position": 19,
              "duration": 0.4125
            },
            {
              "pitch": 61,
              "velocity": 72,
              "position": 19.5,
              "duration": 0.08958333333333333
            },
            {
              "pitch": 57,
              "velocity": 120,
              "position": 26,
              "duration": 0.40208333333333335
            },
            {
              "pitch": 60,
              "velocity": 90,
              "position": 26.5,
              "duration": 0.1875
            },
            {
              "pitch": 64,
              "velocity": 90,
              "position": 27,
              "duration": 0.38125
            },
            {
              "pitch": 60,
              "velocity": 90,
              "position": 27.5,
              "duration": 0.13125
            },
            {
              "pitch": 62,
              "velocity": 50,
              "position": 28,
              "duration": 0.48541666666666666
            },
            {
              "pitch": 62,
              "velocity": 72,
              "position": 28.5,
              "duration": 0.225
            },
            {
              "pitch": 62,
              "velocity": 53,
              "position": 29,
              "duration": 0.45416666666666666
            },
            {
              "pitch": 60,
              "velocity": 50,
              "position": 30.5,
              "duration": 0.48541666666666666
            },
            {
              "pitch": 60,
              "velocity": 72,
              "position": 31,
              "duration": 0.225
            },
            {
              "pitch": 60,
              "velocity": 53,
              "position": 31.5,
              "duration": 0.45416666666666666
            }
          ]
        },
        "12": {
          "ctab": {
            "srcChannel": 12,
            "name": "Organ",
            "accType": "CHORD2",
            "editable": false,
            "mutedNotes": [],
            "mutedChords": [
              "dim7",
              "dim",
              "minMaj7(9)",
              "minMaj7",
              "min7(11)",
              "min7(9)",
              "min(9)",
              "m7b5",
              "min7",
              "min6",
              "min"
            ],
            "autoStart": false,
            "sourceChordNote": 0,
            "sourceChordType": "Maj",
            "ctb2Low": null,
            "ctb2Main": {
              "ntr": "ROOT_TRANSPOSITION",
              "ntt": "BYPASS",
              "bassOn": false,
              "chordRootUpperLimit": 3,
              "noteLowLimit": 58,
              "noteHighLimit": 79,
              "rtr": "PITCH_SHIFT"
            },
            "ctb2High": null
          },
          "notes": [
            {
              "pitch": 62,
              "velocity": 110,
              "position": 4.041666666666667,
              "duration": 0.3729166666666667
            },
            {
              "pitch": 65,
              "velocity": 115,
              "position": 4.041666666666667,
              "duration": 0.3729166666666667
            },
            {
              "pitch": 69,
              "velocity": 110,
              "position": 4.041666666666667,
              "duration": 0.38125
            },
            {
              "pitch": 72,
              "velocity": 102,
              "position": 4.041666666666667,
              "duration": 0.39375
            },
            {
              "pitch": 69,
              "velocity": 105,
              "position": 5,
              "duration": 0.6833333333333333
            },
            {
              "pitch": 72,
              "velocity": 100,
              "position": 5,
              "duration": 0.8229166666666666
            },
            {
              "pitch": 62,
              "velocity": 103,
              "position": 5,
              "duration": 0.8416666666666667
            },
            {
              "pitch": 65,
              "velocity": 111,
              "position": 5,
              "duration": 0.8604166666666667
            },
            {
              "pitch": 67,
              "velocity": 88,
              "position": 6,
              "duration": 0.39166666666666666
            },
            {
              "pitch": 65,
              "velocity": 88,
              "position": 6,
              "duration": 0.425
            },
            {
              "pitch": 62,
              "velocity": 88,
              "position": 6,
              "duration": 0.43333333333333335
            },
            {
              "pitch": 71,
              "velocity": 88,
              "position": 6,
              "duration": 0.44375
            },
            {
              "pitch": 65,
              "velocity": 104,
              "position": 6.5,
              "duration": 0.15208333333333332
            },
            {
              "pitch": 67,
              "velocity": 104,
              "position": 6.5,
              "duration": 0.16666666666666666
            },
            {
              "pitch": 62,
              "velocity": 104,
              "position": 6.5,
              "duration": 0.18541666666666667
            },
            {
              "pitch": 71,
              "velocity": 104,
              "position": 6.5,
              "duration": 0.18541666666666667
            },
            {
              "pitch": 67,
              "velocity": 103,
              "position": 7.5,
              "duration": 0.30833333333333335
            },
            {
              "pitch": 64,
              "velocity": 101,
              "position": 7.5,
              "duration": 0.31875
            },
            {
              "pitch": 71,
              "velocity": 97,
              "position": 7.5,
              "duration": 0.32083333333333336
            },
            {
              "pitch": 74,
              "velocity": 98,
              "position": 7.5,
              "duration": 0.33958333333333335
            },
            {
              "pitch": 71,
              "velocity": 94,
              "position": 8.5,
              "duration": 0.9145833333333333
            },
            {
              "pitch": 64,
              "velocity": 99,
              "position": 8.5,
              "duration": 0.9229166666666667
            },
            {
              "pitch": 67,
              "velocity": 101,
              "position": 8.5,
              "duration": 0.9229166666666667
            },
            {
              "pitch": 74,
              "velocity": 96,
              "position": 8.5,
              "duration": 0.9229166666666667
            },
            {
              "pitch": 64,
              "velocity": 81,
              "position": 9.5,
              "duration": 0.12291666666666666
            },
            {
              "pitch": 67,
              "velocity": 93,
              "position": 9.5,
              "duration": 0.13125
            },
            {
              "pitch": 74,
              "velocity": 78,
              "position": 9.5,
              "duration": 0.14375
            },
            {
              "pitch": 71,
              "velocity": 89,
              "position": 9.5,
              "duration": 0.14583333333333334
            },
            {
              "pitch": 67,
              "velocity": 93,
              "position": 10,
              "duration": 0.4125
            },
            {
              "pitch": 72,
              "velocity": 87,
              "position": 10,
              "duration": 0.41458333333333336
            },
            {
              "pitch": 69,
              "velocity": 101,
              "position": 10,
              "duration": 0.42291666666666666
            },
            {
              "pitch": 64,
              "velocity": 94,
              "position": 10,
              "duration": 0.43333333333333335
            },
            {
              "pitch": 67,
              "velocity": 85,
              "position": 10.5,
              "duration": 0.14166666666666666
            },
            {
              "pitch": 64,
              "velocity": 81,
              "position": 10.5,
              "duration": 0.1625
            },
            {
              "pitch": 69,
              "velocity": 85,
              "position": 10.5,
              "duration": 0.1625
            },
            {
              "pitch": 72,
              "velocity": 77,
              "position": 10.5,
              "duration": 0.16458333333333333
            },
            {
              "pitch": 67,
              "velocity": 98,
              "position": 11,
              "duration": 0.18333333333333332
            },
            {
              "pitch": 69,
              "velocity": 99,
              "position": 11,
              "duration": 0.19375
            },
            {
              "pitch": 72,
              "velocity": 89,
              "position": 11,
              "duration": 0.20416666666666666
            },
            {
              "pitch": 64,
              "velocity": 102,
              "position": 11,
              "duration": 0.20625
            },
            {
              "pitch": 65,
              "velocity": 100,
              "position": 11.972916666666666,
              "duration": 0.32083333333333336
            },
            {
              "pitch": 62,
              "velocity": 89,
              "position": 11.989583333333334,
              "duration": 0.30833333333333335
            },
            {
              "pitch": 69,
              "velocity": 98,
              "position": 11.983333333333333,
              "duration": 0.3145833333333333
            },
            {
              "pitch": 72,
              "velocity": 80,
              "position": 11.989583333333334,
              "duration": 0.3125
            },
            {
              "pitch": 69,
              "velocity": 99,
              "position": 13.022916666666667,
              "duration": 0.8104166666666667
            },
            {
              "pitch": 62,
              "velocity": 99,
              "position": 13.022916666666667,
              "duration": 0.8604166666666667
            },
            {
              "pitch": 65,
              "velocity": 99,
              "position": 13.020833333333334,
              "duration": 0.8729166666666667
            },
            {
              "pitch": 72,
              "velocity": 99,
              "position": 13.03125,
              "duration": 0.8770833333333333
            },
            {
              "pitch": 62,
              "velocity": 100,
              "position": 14.020833333333334,
              "duration": 0.39375
            },
            {
              "pitch": 67,
              "velocity": 100,
              "position": 14.010416666666666,
              "duration": 0.40625
            },
            {
              "pitch": 65,
              "velocity": 100,
              "position": 14.020833333333334,
              "duration": 0.40208333333333335
            },
            {
              "pitch": 71,
              "velocity": 100,
              "position": 14.020833333333334,
              "duration": 0.4041666666666667
            },
            {
              "pitch": 67,
              "velocity": 100,
              "position": 14.53125,
              "duration": 0.22916666666666666
            },
            {
              "pitch": 65,
              "velocity": 100,
              "position": 14.541666666666666,
              "duration": 0.22708333333333333
            },
            {
              "pitch": 71,
              "velocity": 100,
              "position": 14.541666666666666,
              "duration": 0.23541666666666666
            },
            {
              "pitch": 62,
              "velocity": 100,
              "position": 14.541666666666666,
              "duration": 0.2625
            },
            {
              "pitch": 64,
              "velocity": 103,
              "position": 15.55625,
              "duration": 0.28958333333333336
            },
            {
              "pitch": 67,
              "velocity": 96,
              "position": 15.545833333333333,
              "duration": 0.30625
            },
            {
              "pitch": 60,
              "velocity": 98,
              "position": 15.55625,
              "duration": 0.29791666666666666
            },
            {
              "pitch": 60,
              "velocity": 94,
              "position": 16.53125,
              "duration": 0.7666666666666667
            },
            {
              "pitch": 67,
              "velocity": 98,
              "position": 16.525,
              "duration": 0.7875
            },
            {
              "pitch": 64,
              "velocity": 100,
              "position": 16.53125,
              "duration": 0.7979166666666667
            },
            {
              "pitch": 60,
              "velocity": 92,
              "position": 17.552083333333332,
              "duration": 0.13125
            },
            {
              "pitch": 64,
              "velocity": 92,
              "position": 17.533333333333335,
              "duration": 0.16666666666666666
            },
            {
              "pitch": 67,
              "velocity": 92,
              "position": 17.522916666666667,
              "duration": 0.18333333333333332
            },
            {
              "pitch": 61,
              "velocity": 127,
              "position": 18.03125,
              "duration": 1.1333333333333333
            },
            {
              "pitch": 64,
              "velocity": 127,
              "position": 18.004166666666666,
              "duration": 1.1604166666666667
            },
            {
              "pitch": 67,
              "velocity": 127,
              "position": 18.03125,
              "duration": 1.1333333333333333
            },
            {
              "pitch": 70,
              "velocity": 127,
              "position": 18.014583333333334,
              "duration": 1.15
            },
            {
              "pitch": 61,
              "velocity": 127,
              "position": 19.18125,
              "duration": 0.7604166666666666
            },
            {
              "pitch": 64,
              "velocity": 127,
              "position": 19.18125,
              "duration": 0.7854166666666667
            },
            {
              "pitch": 70,
              "velocity": 127,
              "position": 19.18125,
              "duration": 0.7854166666666667
            },
            {
              "pitch": 67,
              "velocity": 127,
              "position": 19.18125,
              "duration": 0.80625
            },
            {
              "pitch": 69,
              "velocity": 105,
              "position": 20.014583333333334,
              "duration": 0.26875
            },
            {
              "pitch": 65,
              "velocity": 105,
              "position": 20.002083333333335,
              "duration": 0.29583333333333334
            },
            {
              "pitch": 62,
              "velocity": 105,
              "position": 20.0125,
              "duration": 0.2916666666666667
            },
            {
              "pitch": 72,
              "velocity": 105,
              "position": 20.025,
              "duration": 0.29583333333333334
            },
            {
              "pitch": 72,
              "velocity": 88,
              "position": 21,
              "duration": 0.75625
            },
            {
              "pitch": 69,
              "velocity": 95,
              "position": 21,
              "duration": 0.76875
            },
            {
              "pitch": 62,
              "velocity": 89,
              "position": 21,
              "duration": 0.8083333333333333
            },
            {
              "pitch": 65,
              "velocity": 94,
              "position": 21,
              "duration": 0.81875
            },
            {
              "pitch": 71,
              "velocity": 91,
              "position": 22,
              "duration": 0.4125
            },
            {
              "pitch": 62,
              "velocity": 75,
              "position": 22,
              "duration": 0.43333333333333335
            },
            {
              "pitch": 65,
              "velocity": 65,
              "position": 22,
              "duration": 0.46458333333333335
            },
            {
              "pitch": 67,
              "velocity": 91,
              "position": 22,
              "duration": 0.46458333333333335
            },
            {
              "pitch": 62,
              "velocity": 79,
              "position": 22.5,
              "duration": 0.1625
            },
            {
              "pitch": 65,
              "velocity": 83,
              "position": 22.5,
              "duration": 0.1625
            },
            {
              "pitch": 67,
              "velocity": 83,
              "position": 22.5,
              "duration": 0.17708333333333334
            },
            {
              "pitch": 71,
              "velocity": 90,
              "position": 22.5,
              "duration": 0.20833333333333334
            },
            {
              "pitch": 71,
              "velocity": 85,
              "position": 23.5,
              "duration": 0.23541666666666666
            },
            {
              "pitch": 64,
              "velocity": 89,
              "position": 23.5,
              "duration": 0.23958333333333334
            },
            {
              "pitch": 67,
              "velocity": 93,
              "position": 23.5,
              "duration": 0.24583333333333332
            },
            {
              "pitch": 74,
              "velocity": 89,
              "position": 23.5,
              "duration": 0.25833333333333336
            },
            {
              "pitch": 74,
              "velocity": 99,
              "position": 24.5,
              "duration": 0.7770833333333333
            },
            {
              "pitch": 64,
              "velocity": 99,
              "position": 24.5,
              "duration": 0.8083333333333333
            },
            {
              "pitch": 71,
              "velocity": 99,
              "position": 24.5,
              "duration": 0.8083333333333333
            },
            {
              "pitch": 67,
              "velocity": 99,
              "position": 24.5,
              "duration": 0.8104166666666667
            },
            {
              "pitch": 71,
              "velocity": 93,
              "position": 25.5,
              "duration": 0.17291666666666666
            },
            {
              "pitch": 74,
              "velocity": 93,
              "position": 25.5,
              "duration": 0.18333333333333332
            },
            {
              "pitch": 67,
              "velocity": 93,
              "position": 25.5,
              "duration": 0.19375
            },
            {
              "pitch": 64,
              "velocity": 93,
              "position": 25.5,
              "duration": 0.19791666666666666
            },
            {
              "pitch": 69,
              "velocity": 97,
              "position": 26,
              "duration": 0.12083333333333333
            },
            {
              "pitch": 67,
              "velocity": 97,
              "position": 26,
              "duration": 0.125
            },
            {
              "pitch": 64,
              "velocity": 97,
              "position": 25.991666666666667,
              "duration": 0.14583333333333334
            },
            {
              "pitch": 72,
              "velocity": 97,
              "position": 25.991666666666667,
              "duration": 0.16666666666666666
            },
            {
              "pitch": 69,
              "velocity": 98,
              "position": 26.25,
              "duration": 0.12083333333333333
            },
            {
              "pitch": 67,
              "velocity": 98,
              "position": 26.25,
              "duration": 0.12708333333333333
            },
            {
              "pitch": 64,
              "velocity": 97,
              "position": 26.24375,
              "duration": 0.15
            },
            {
              "pitch": 72,
              "velocity": 98,
              "position": 26.5,
              "duration": 0.1
            },
            {
              "pitch": 67,
              "velocity": 99,
              "position": 26.49375,
              "duration": 0.1125
            },
            {
              "pitch": 69,
              "velocity": 99,
              "position": 26.49375,
              "duration": 0.1125
            },
            {
              "pitch": 64,
              "velocity": 99,
              "position": 26.489583333333332,
              "duration": 0.13333333333333333
            },
            {
              "pitch": 69,
              "velocity": 100,
              "position": 26.73125,
              "duration": 0.11041666666666666
            },
            {
              "pitch": 67,
              "velocity": 100,
              "position": 26.73125,
              "duration": 0.125
            },
            {
              "pitch": 64,
              "velocity": 100,
              "position": 26.729166666666668,
              "duration": 0.1375
            },
            {
              "pitch": 69,
              "velocity": 104,
              "position": 26.96875,
              "duration": 0.12291666666666666
            },
            {
              "pitch": 67,
              "velocity": 104,
              "position": 26.96875,
              "duration": 0.12708333333333333
            },
            {
              "pitch": 64,
              "velocity": 104,
              "position": 26.96875,
              "duration": 0.13541666666666666
            },
            {
              "pitch": 72,
              "velocity": 104,
              "position": 26.96875,
              "duration": 0.15416666666666667
            },
            {
              "pitch": 72,
              "velocity": 122,
              "position": 28,
              "duration": 0.4125
            },
            {
              "pitch": 62,
              "velocity": 125,
              "position": 28,
              "duration": 0.41458333333333336
            },
            {
              "pitch": 65,
              "velocity": 127,
              "position": 28,
              "duration": 0.4166666666666667
            },
            {
              "pitch": 69,
              "velocity": 127,
              "position": 28,
              "duration": 0.43333333333333335
            },
            {
              "pitch": 62,
              "velocity": 106,
              "position": 28.5,
              "duration": 0.225
            },
            {
              "pitch": 65,
              "velocity": 101,
              "position": 28.5,
              "duration": 0.25625
            },
            {
              "pitch": 72,
              "velocity": 110,
              "position": 28.5,
              "duration": 0.2604166666666667
            },
            {
              "pitch": 69,
              "velocity": 103,
              "position": 28.5,
              "duration": 0.2875
            },
            {
              "pitch": 62,
              "velocity": 119,
              "position": 29,
              "duration": 0.3104166666666667
            },
            {
              "pitch": 69,
              "velocity": 118,
              "position": 29,
              "duration": 0.31875
            },
            {
              "pitch": 65,
              "velocity": 121,
              "position": 29,
              "duration": 0.3541666666666667
            },
            {
              "pitch": 72,
              "velocity": 120,
              "position": 29,
              "duration": 0.40208333333333335
            },
            {
              "pitch": 69,
              "velocity": 108,
              "position": 30.5,
              "duration": 0.4479166666666667
            },
            {
              "pitch": 67,
              "velocity": 111,
              "position": 30.5,
              "duration": 0.45416666666666666
            },
            {
              "pitch": 72,
              "velocity": 96,
              "position": 30.5,
              "duration": 0.45416666666666666
            },
            {
              "pitch": 64,
              "velocity": 107,
              "position": 30.49375,
              "duration": 0.48125
            },
            {
              "pitch": 69,
              "velocity": 98,
              "position": 31,
              "duration": 0.36041666666666666
            },
            {
              "pitch": 67,
              "velocity": 78,
              "position": 31,
              "duration": 0.3625
            },
            {
              "pitch": 64,
              "velocity": 98,
              "position": 31,
              "duration": 0.375
            },
            {
              "pitch": 72,
              "velocity": 93,
              "position": 31,
              "duration": 0.39166666666666666
            },
            {
              "pitch": 67,
              "velocity": 98,
              "position": 31.504166666666666,
              "duration": 0.2791666666666667
            },
            {
              "pitch": 69,
              "velocity": 116,
              "position": 31.504166666666666,
              "duration": 0.2833333333333333
            },
            {
              "pitch": 64,
              "velocity": 102,
              "position": 31.502083333333335,
              "duration": 0.3
            },
            {
              "pitch": 72,
              "velocity": 99,
              "position": 31.5,
              "duration": 0.33125
            },
            {
              "pitch": 84,
              "velocity": 116,
              "position": 33,
              "duration": 0.425
            },
            {
              "pitch": 81,
              "velocity": 116,
              "position": 33,
              "duration": 0.4375
            },
            {
              "pitch": 76,
              "velocity": 116,
              "position": 33,
              "duration": 0.44375
            },
            {
              "pitch": 79,
              "velocity": 116,
              "position": 33,
              "duration": 0.44375
            },
            {
              "pitch": 76,
              "velocity": 104,
              "position": 33.5,
              "duration": 0.2875
            },
            {
              "pitch": 79,
              "velocity": 104,
              "position": 33.5,
              "duration": 0.2875
            },
            {
              "pitch": 81,
              "velocity": 104,
              "position": 33.5,
              "duration": 0.29791666666666666
            },
            {
              "pitch": 84,
              "velocity": 104,
              "position": 33.5,
              "duration": 0.3020833333333333
            },
            {
              "pitch": 79,
              "velocity": 127,
              "position": 34,
              "duration": 0.2791666666666667
            },
            {
              "pitch": 76,
              "velocity": 127,
              "position": 34,
              "duration": 0.2875
            },
            {
              "pitch": 81,
              "velocity": 127,
              "position": 34,
              "duration": 0.2916666666666667
            },
            {
              "pitch": 84,
              "velocity": 127,
              "position": 34,
              "duration": 0.31875
            }
          ]
        },
        "13": {
          "ctab": {
            "srcChannel": 13,
            "name": "Brass",
            "accType": "PAD",
            "editable": false,
            "mutedNotes": [],
            "mutedChords": [
              "dim7",
              "dim",
              "minMaj7(9)",
              "minMaj7",
              "min7(11)",
              "min7(9)",
              "min(9)",
              "m7b5",
              "min7",
              "min6",
              "min"
            ],
            "autoStart": false,
            "sourceChordNote": 0,
            "sourceChordType": "Maj",
            "ctb2Low": null,
            "ctb2Main": {
              "ntr": "ROOT_TRANSPOSITION",
              "ntt": "BYPASS",
              "bassOn": false,
              "chordRootUpperLimit": 9,
              "noteLowLimit": 36,
              "noteHighLimit": 82,
              "rtr": "PITCH_SHIFT"
            },
            "ctb2High": null
          },
          "notes": [
            {
              "pitch": 59,
              "velocity": 109,
              "position": 6,
              "duration": 1.9354166666666666
            },
            {
              "pitch": 55,
              "velocity": 106,
              "position": 8.5,
              "duration": 1.5208333333333333
            },
            {
              "pitch": 57,
              "velocity": 109,
              "position": 10,
              "duration": 1.9895833333333333
            },
            {
              "pitch": 59,
              "velocity": 109,
              "position": 13.979166666666666,
              "duration": 1.7354166666666666
            },
            {
              "pitch": 59,
              "velocity": 112,
              "position": 22,
              "duration": 1.9395833333333334
            },
            {
              "pitch": 55,
              "velocity": 114,
              "position": 24.59375,
              "duration": 1.4166666666666667
            },
            {
              "pitch": 64,
              "velocity": 111,
              "position": 33,
              "duration": 0.4875
            },
            {
              "pitch": 67,
              "velocity": 112,
              "position": 33,
              "duration": 0.4875
            },
            {
              "pitch": 69,
              "velocity": 111,
              "position": 33,
              "duration": 0.4875
            },
            {
              "pitch": 72,
              "velocity": 87,
              "position": 33,
              "duration": 0.4875
            },
            {
              "pitch": 67,
              "velocity": 112,
              "position": 33.5,
              "duration": 0.16875
            },
            {
              "pitch": 64,
              "velocity": 111,
              "position": 33.5,
              "duration": 0.17291666666666666
            },
            {
              "pitch": 69,
              "velocity": 111,
              "position": 33.5,
              "duration": 0.17916666666666667
            },
            {
              "pitch": 72,
              "velocity": 85,
              "position": 33.5,
              "duration": 0.2
            }
          ]
        },
        "14": {
          "ctab": {
            "srcChannel": 14,
            "name": "Sax",
            "accType": "PHRASE1",
            "editable": false,
            "mutedNotes": [],
            "mutedChords": [
              "dim7",
              "dim",
              "minMaj7(9)",
              "minMaj7",
              "min7(11)",
              "min7(9)",
              "min(9)",
              "m7b5",
              "min7",
              "min6",
              "min"
            ],
            "autoStart": false,
            "sourceChordNote": 0,
            "sourceChordType": "Maj",
            "ctb2Low": null,
            "ctb2Main": {
              "ntr": "ROOT_TRANSPOSITION",
              "ntt": "BYPASS",
              "bassOn": false,
              "chordRootUpperLimit": 9,
              "noteLowLimit": 0,
              "noteHighLimit": 127,
              "rtr": "PITCH_SHIFT"
            },
            "ctb2High": null
          },
          "notes": [
            {
              "pitch": 60,
              "velocity": 57,
              "position": 4,
              "duration": 2.0083333333333333
            },
            {
              "pitch": 59,
              "velocity": 114,
              "position": 6,
              "duration": 1.9354166666666666
            },
            {
              "pitch": 55,
              "velocity": 57,
              "position": 8.5,
              "duration": 1.5208333333333333
            },
            {
              "pitch": 57,
              "velocity": 114,
              "position": 10,
              "duration": 1.975
            },
            {
              "pitch": 60,
              "velocity": 57,
              "position": 12,
              "duration": 2.0083333333333333
            },
            {
              "pitch": 59,
              "velocity": 114,
              "position": 14,
              "duration": 1.9354166666666666
            },
            {
              "pitch": 62,
              "velocity": 57,
              "position": 16.5,
              "duration": 1.5208333333333333
            },
            {
              "pitch": 61,
              "velocity": 114,
              "position": 18,
              "duration": 1.7875
            },
            {
              "pitch": 60,
              "velocity": 57,
              "position": 20,
              "duration": 2.0125
            },
            {
              "pitch": 59,
              "velocity": 114,
              "position": 22,
              "duration": 1.9395833333333334
            },
            {
              "pitch": 55,
              "velocity": 54,
              "position": 24.5,
              "duration": 1.5229166666666667
            },
            {
              "pitch": 57,
              "velocity": 114,
              "position": 26,
              "duration": 1.9791666666666667
            },
            {
              "pitch": 43,
              "velocity": 81,
              "position": 29.5,
              "duration": 1.9875
            },
            {
              "pitch": 48,
              "velocity": 81,
              "position": 31.5,
              "duration": 0.48541666666666666
            },
            {
              "pitch": 60,
              "velocity": 112,
              "position": 33.5,
              "duration": 0.3770833333333333
            }
          ]
        },
        "15": {
          "ctab": {
            "srcChannel": 15,
            "name": "Vib",
            "accType": "PHRASE2",
            "editable": false,
            "mutedNotes": [],
            "mutedChords": [
              "dim7",
              "dim",
              "minMaj7(9)",
              "minMaj7",
              "min7(11)",
              "min7(9)",
              "min(9)",
              "m7b5",
              "min7",
              "min6",
              "min"
            ],
            "autoStart": false,
            "sourceChordNote": 0,
            "sourceChordType": "Maj",
            "ctb2Low": null,
            "ctb2Main": {
              "ntr": "ROOT_TRANSPOSITION",
              "ntt": "BYPASS",
              "bassOn": false,
              "chordRootUpperLimit": 7,
              "noteLowLimit": 60,
              "noteHighLimit": 72,
              "rtr": "PITCH_SHIFT"
            },
            "ctb2High": null
          },
          "notes": [
            {
              "pitch": 82,
              "velocity": 112,
              "position": 4,
              "duration": 0.16666666666666666
            },
            {
              "pitch": 82,
              "velocity": 106,
              "position": 5,
              "duration": 0.14166666666666666
            },
            {
              "pitch": 82,
              "velocity": 108,
              "position": 6,
              "duration": 0.26666666666666666
            },
            {
              "pitch": 82,
              "velocity": 100,
              "position": 6.5,
              "duration": 0.19375
            },
            {
              "pitch": 82,
              "velocity": 108,
              "position": 7.46875,
              "duration": 0.15833333333333333
            },
            {
              "pitch": 81,
              "velocity": 110,
              "position": 8.5,
              "duration": 0.23541666666666666
            },
            {
              "pitch": 81,
              "velocity": 108,
              "position": 9.5,
              "duration": 0.31875
            },
            {
              "pitch": 81,
              "velocity": 105,
              "position": 10,
              "duration": 0.33958333333333335
            },
            {
              "pitch": 81,
              "velocity": 95,
              "position": 10.5,
              "duration": 0.23541666666666666
            },
            {
              "pitch": 81,
              "velocity": 112,
              "position": 11,
              "duration": 0.19375
            },
            {
              "pitch": 82,
              "velocity": 111,
              "position": 12,
              "duration": 0.3229166666666667
            },
            {
              "pitch": 82,
              "velocity": 109,
              "position": 13,
              "duration": 0.33958333333333335
            },
            {
              "pitch": 82,
              "velocity": 110,
              "position": 14,
              "duration": 0.2875
            },
            {
              "pitch": 82,
              "velocity": 93,
              "position": 14.5,
              "duration": 0.20416666666666666
            },
            {
              "pitch": 84,
              "velocity": 113,
              "position": 15.5,
              "duration": 0.19375
            },
            {
              "pitch": 84,
              "velocity": 113,
              "position": 16.5,
              "duration": 0.20625
            },
            {
              "pitch": 84,
              "velocity": 108,
              "position": 17.5,
              "duration": 0.1625
            },
            {
              "pitch": 84,
              "velocity": 110,
              "position": 18,
              "duration": 0.25
            },
            {
              "pitch": 84,
              "velocity": 91,
              "position": 18.5,
              "duration": 0.17291666666666666
            },
            {
              "pitch": 84,
              "velocity": 111,
              "position": 19,
              "duration": 0.13125
            },
            {
              "pitch": 82,
              "velocity": 110,
              "position": 20,
              "duration": 0.2708333333333333
            },
            {
              "pitch": 82,
              "velocity": 107,
              "position": 21,
              "duration": 0.18333333333333332
            },
            {
              "pitch": 82,
              "velocity": 110,
              "position": 22,
              "duration": 0.23541666666666666
            },
            {
              "pitch": 82,
              "velocity": 86,
              "position": 22.5,
              "duration": 0.19375
            },
            {
              "pitch": 82,
              "velocity": 112,
              "position": 23.491666666666667,
              "duration": 0.18125
            },
            {
              "pitch": 81,
              "velocity": 112,
              "position": 24.5,
              "duration": 0.18541666666666667
            },
            {
              "pitch": 81,
              "velocity": 111,
              "position": 25.5,
              "duration": 0.3625
            },
            {
              "pitch": 81,
              "velocity": 108,
              "position": 26,
              "duration": 0.23541666666666666
            },
            {
              "pitch": 81,
              "velocity": 93,
              "position": 26.5,
              "duration": 0.19583333333333333
            },
            {
              "pitch": 81,
              "velocity": 112,
              "position": 27,
              "duration": 0.21458333333333332
            },
            {
              "pitch": 82,
              "velocity": 112,
              "position": 28,
              "duration": 0.31875
            },
            {
              "pitch": 82,
              "velocity": 98,
              "position": 28.5,
              "duration": 0.19375
            },
            {
              "pitch": 82,
              "velocity": 118,
              "position": 29,
              "duration": 0.14583333333333334
            },
            {
              "pitch": 82,
              "velocity": 110,
              "position": 30.5,
              "duration": 0.39166666666666666
            },
            {
              "pitch": 82,
              "velocity": 100,
              "position": 31,
              "duration": 0.38333333333333336
            },
            {
              "pitch": 82,
              "velocity": 119,
              "position": 31.5,
              "duration": 0.18541666666666667
            }
          ]
        }
      }
    },
    "Ending_C": {
      "type": "Ending_C",
      "sizeInBeats": 16,
      "channels": {
        "1": {
          "ctab": {
            "srcChannel": 1,
            "name": "Bass",
            "accType": "BASS",
            "editable": false,
            "mutedNotes": [],
            "mutedChords": [
              "1+2+5",
              "sus4",
              "1+5",
              "1+8",
              "7aug",
              "Maj7aug",
              "7(#9)",
              "7(b13)",
              "7(b9)",
              "7(13)",
              "7#11",
              "7(9)",
              "7b5",
              "7sus4",
              "7th",
              "aug",
              "Maj6(9)",
              "Maj7(9)",
              "Maj(9)",
              "Maj7#11",
              "Maj7",
              "Maj6",
              "Maj"
            ],
            "autoStart": false,
            "sourceChordNote": 0,
            "sourceChordType": "min",
            "ctb2Low": null,
            "ctb2Main": {
              "ntr": "ROOT_TRANSPOSITION",
              "ntt": "BYPASS",
              "bassOn": false,
              "chordRootUpperLimit": 3,
              "noteLowLimit": 28,
              "noteHighLimit": 127,
              "rtr": "PITCH_SHIFT"
            },
            "ctb2High": null
          },
          "notes": [
            {
              "pitch": 29,
              "velocity": 60,
              "position": 0,
              "duration": 0.975
            },
            {
              "pitch": 29,
              "velocity": 95,
              "position": 1,
              "duration": 0.058333333333333334
            },
            {
              "pitch": 29,
              "velocity": 60,
              "position": 1.5,
              "duration": 0.475
            },
            {
              "pitch": 31,
              "velocity": 60,
              "position": 2,
              "duration": 0.975
            },
            {
              "pitch": 31,
              "velocity": 60,
              "position": 3,
              "duration": 0.058333333333333334
            },
            {
              "pitch": 31,
              "velocity": 60,
              "position": 3.5,
              "duration": 0.475
            },
            {
              "pitch": 24,
              "velocity": 60,
              "position": 4,
              "duration": 0.975
            },
            {
              "pitch": 24,
              "velocity": 100,
              "position": 5,
              "duration": 0.058333333333333334
            },
            {
              "pitch": 24,
              "velocity": 60,
              "position": 5.5,
              "duration": 0.48541666666666666
            },
            {
              "pitch": 34,
              "velocity": 60,
              "position": 6,
              "duration": 0.475
            },
            {
              "pitch": 34,
              "velocity": 100,
              "position": 6.5,
              "duration": 0.058333333333333334
            },
            {
              "pitch": 34,
              "velocity": 60,
              "position": 7,
              "duration": 0.975
            },
            {
              "pitch": 29,
              "velocity": 60,
              "position": 8,
              "duration": 0.44375
            },
            {
              "pitch": 29,
              "velocity": 50,
              "position": 8.5,
              "duration": 0.48541666666666666
            },
            {
              "pitch": 29,
              "velocity": 50,
              "position": 9,
              "duration": 0.45416666666666666
            },
            {
              "pitch": 31,
              "velocity": 60,
              "position": 9.46875,
              "duration": 2.0166666666666666
            },
            {
              "pitch": 24,
              "velocity": 60,
              "position": 11.5,
              "duration": 0.475
            },
            {
              "pitch": 24,
              "velocity": 61,
              "position": 13,
              "duration": 0.475
            },
            {
              "pitch": 24,
              "velocity": 50,
              "position": 13.5,
              "duration": 0.475
            },
            {
              "pitch": 24,
              "velocity": 61,
              "position": 14,
              "duration": 0.475
            }
          ]
        },
        "2": {
          "ctab": {
            "srcChannel": 2,
            "name": "E.Guitar",
            "accType": "CHORD1",
            "editable": false,
            "mutedNotes": [],
            "mutedChords": [
              "1+2+5",
              "sus4",
              "1+5",
              "1+8",
              "7aug",
              "Maj7aug",
              "7(#9)",
              "7(b13)",
              "7(b9)",
              "7(13)",
              "7#11",
              "7(9)",
              "7b5",
              "7sus4",
              "7th",
              "aug",
              "Maj6(9)",
              "Maj7(9)",
              "Maj(9)",
              "Maj7#11",
              "Maj7",
              "Maj6",
              "Maj"
            ],
            "autoStart": false,
            "sourceChordNote": 0,
            "sourceChordType": "min",
            "ctb2Low": null,
            "ctb2Main": {
              "ntr": "ROOT_TRANSPOSITION",
              "ntt": "BYPASS",
              "bassOn": false,
              "chordRootUpperLimit": 6,
              "noteLowLimit": 0,
              "noteHighLimit": 127,
              "rtr": "PITCH_SHIFT"
            },
            "ctb2High": null
          },
          "notes": [
            {
              "pitch": 56,
              "velocity": 50,
              "position": 0,
              "duration": 1.9958333333333333
            },
            {
              "pitch": 55,
              "velocity": 95,
              "position": 1.9895833333333333,
              "duration": 0.49583333333333335
            },
            {
              "pitch": 59,
              "velocity": 45,
              "position": 2.5,
              "duration": 0.475
            },
            {
              "pitch": 62,
              "velocity": 114,
              "position": 3.002083333333333,
              "duration": 0.5166666666666667
            },
            {
              "pitch": 59,
              "velocity": 96,
              "position": 3.4895833333333335,
              "duration": 0.42291666666666666
            },
            {
              "pitch": 60,
              "velocity": 116,
              "position": 3.96875,
              "duration": 1.9958333333333333
            },
            {
              "pitch": 60,
              "velocity": 87,
              "position": 6.5,
              "duration": 0.18333333333333332
            },
            {
              "pitch": 63,
              "velocity": 87,
              "position": 7,
              "duration": 0.38125
            },
            {
              "pitch": 60,
              "velocity": 87,
              "position": 7.5,
              "duration": 0.13125
            },
            {
              "pitch": 62,
              "velocity": 47,
              "position": 8,
              "duration": 0.48541666666666666
            },
            {
              "pitch": 62,
              "velocity": 69,
              "position": 8.5,
              "duration": 0.225
            },
            {
              "pitch": 62,
              "velocity": 50,
              "position": 9,
              "duration": 0.45416666666666666
            },
            {
              "pitch": 59,
              "velocity": 47,
              "position": 10.5,
              "duration": 0.48541666666666666
            },
            {
              "pitch": 59,
              "velocity": 69,
              "position": 11,
              "duration": 0.225
            },
            {
              "pitch": 60,
              "velocity": 50,
              "position": 11.5,
              "duration": 0.45416666666666666
            }
          ]
        },
        "3": {
          "ctab": {
            "srcChannel": 3,
            "name": "Organ",
            "accType": "CHORD2",
            "editable": false,
            "mutedNotes": [],
            "mutedChords": [
              "1+2+5",
              "sus4",
              "1+5",
              "1+8",
              "7aug",
              "Maj7aug",
              "7(#9)",
              "7(b13)",
              "7(b9)",
              "7(13)",
              "7#11",
              "7(9)",
              "7b5",
              "7sus4",
              "7th",
              "aug",
              "Maj6(9)",
              "Maj7(9)",
              "Maj(9)",
              "Maj7#11",
              "Maj7",
              "Maj6",
              "Maj"
            ],
            "autoStart": false,
            "sourceChordNote": 0,
            "sourceChordType": "min",
            "ctb2Low": null,
            "ctb2Main": {
              "ntr": "ROOT_TRANSPOSITION",
              "ntt": "BYPASS",
              "bassOn": false,
              "chordRootUpperLimit": 3,
              "noteLowLimit": 58,
              "noteHighLimit": 127,
              "rtr": "PITCH_SHIFT"
            },
            "ctb2High": null
          },
          "notes": [
            {
              "pitch": 65,
              "velocity": 104,
              "position": 0.052083333333333336,
              "duration": 0.3125
            },
            {
              "pitch": 68,
              "velocity": 93,
              "position": 0.05625,
              "duration": 0.31666666666666665
            },
            {
              "pitch": 74,
              "velocity": 101,
              "position": 0.04583333333333333,
              "duration": 0.35
            },
            {
              "pitch": 65,
              "velocity": 99,
              "position": 1.0145833333333334,
              "duration": 0.31666666666666665
            },
            {
              "pitch": 68,
              "velocity": 100,
              "position": 1,
              "duration": 0.3541666666666667
            },
            {
              "pitch": 72,
              "velocity": 98,
              "position": 1.0104166666666667,
              "duration": 0.35
            },
            {
              "pitch": 74,
              "velocity": 98,
              "position": 1.0125,
              "duration": 0.36041666666666666
            },
            {
              "pitch": 71,
              "velocity": 100,
              "position": 1.9729166666666667,
              "duration": 0.43333333333333335
            },
            {
              "pitch": 67,
              "velocity": 94,
              "position": 1.9708333333333334,
              "duration": 0.4625
            },
            {
              "pitch": 65,
              "velocity": 93,
              "position": 1.9583333333333333,
              "duration": 0.47708333333333336
            },
            {
              "pitch": 74,
              "velocity": 92,
              "position": 1.9708333333333334,
              "duration": 0.4666666666666667
            },
            {
              "pitch": 71,
              "velocity": 90,
              "position": 2.5416666666666665,
              "duration": 0.22916666666666666
            },
            {
              "pitch": 67,
              "velocity": 84,
              "position": 2.53125,
              "duration": 0.24583333333333332
            },
            {
              "pitch": 65,
              "velocity": 87,
              "position": 2.53125,
              "duration": 0.24791666666666667
            },
            {
              "pitch": 74,
              "velocity": 88,
              "position": 2.5416666666666665,
              "duration": 0.24791666666666667
            },
            {
              "pitch": 63,
              "velocity": 93,
              "position": 4.585416666666666,
              "duration": 0.34375
            },
            {
              "pitch": 67,
              "velocity": 100,
              "position": 4.583333333333333,
              "duration": 0.375
            },
            {
              "pitch": 72,
              "velocity": 94,
              "position": 4.572916666666667,
              "duration": 0.3958333333333333
            },
            {
              "pitch": 63,
              "velocity": 92,
              "position": 5.522916666666666,
              "duration": 0.2604166666666667
            },
            {
              "pitch": 67,
              "velocity": 104,
              "position": 5.510416666666667,
              "duration": 0.29791666666666666
            },
            {
              "pitch": 72,
              "velocity": 97,
              "position": 5.520833333333333,
              "duration": 0.3125
            },
            {
              "pitch": 63,
              "velocity": 88,
              "position": 5.989583333333333,
              "duration": 0.36041666666666666
            },
            {
              "pitch": 67,
              "velocity": 96,
              "position": 6,
              "duration": 0.36041666666666666
            },
            {
              "pitch": 70,
              "velocity": 87,
              "position": 6,
              "duration": 0.3645833333333333
            },
            {
              "pitch": 63,
              "velocity": 87,
              "position": 6.510416666666667,
              "duration": 0.3229166666666667
            },
            {
              "pitch": 67,
              "velocity": 82,
              "position": 6.5,
              "duration": 0.35
            },
            {
              "pitch": 70,
              "velocity": 80,
              "position": 6.510416666666667,
              "duration": 0.36666666666666664
            },
            {
              "pitch": 63,
              "velocity": 90,
              "position": 7.020833333333333,
              "duration": 0.35208333333333336
            },
            {
              "pitch": 67,
              "velocity": 86,
              "position": 7.022916666666666,
              "duration": 0.37916666666666665
            },
            {
              "pitch": 70,
              "velocity": 78,
              "position": 7.020833333333333,
              "duration": 0.41458333333333336
            },
            {
              "pitch": 65,
              "velocity": 124,
              "position": 8.020833333333334,
              "duration": 0.36041666666666666
            },
            {
              "pitch": 68,
              "velocity": 125,
              "position": 8.004166666666666,
              "duration": 0.4083333333333333
            },
            {
              "pitch": 72,
              "velocity": 123,
              "position": 8.014583333333333,
              "duration": 0.4
            },
            {
              "pitch": 74,
              "velocity": 127,
              "position": 8.0125,
              "duration": 0.40625
            },
            {
              "pitch": 65,
              "velocity": 117,
              "position": 8.520833333333334,
              "duration": 0.3125
            },
            {
              "pitch": 68,
              "velocity": 100,
              "position": 8.520833333333334,
              "duration": 0.33541666666666664
            },
            {
              "pitch": 74,
              "velocity": 117,
              "position": 8.533333333333333,
              "duration": 0.32916666666666666
            },
            {
              "pitch": 72,
              "velocity": 98,
              "position": 8.53125,
              "duration": 0.33541666666666664
            },
            {
              "pitch": 65,
              "velocity": 122,
              "position": 9.020833333333334,
              "duration": 0.3333333333333333
            },
            {
              "pitch": 68,
              "velocity": 124,
              "position": 9.020833333333334,
              "duration": 0.33958333333333335
            },
            {
              "pitch": 72,
              "velocity": 113,
              "position": 9.020833333333334,
              "duration": 0.3541666666666667
            },
            {
              "pitch": 74,
              "velocity": 103,
              "position": 9.03125,
              "duration": 0.35
            },
            {
              "pitch": 65,
              "velocity": 123,
              "position": 10.48125,
              "duration": 0.34375
            },
            {
              "pitch": 67,
              "velocity": 102,
              "position": 10.479166666666666,
              "duration": 0.3645833333333333
            },
            {
              "pitch": 74,
              "velocity": 117,
              "position": 10.472916666666666,
              "duration": 0.37916666666666665
            },
            {
              "pitch": 71,
              "velocity": 123,
              "position": 10.479166666666666,
              "duration": 0.38125
            },
            {
              "pitch": 67,
              "velocity": 107,
              "position": 11.0125,
              "duration": 0.32083333333333336
            },
            {
              "pitch": 65,
              "velocity": 110,
              "position": 11.010416666666666,
              "duration": 0.3333333333333333
            },
            {
              "pitch": 71,
              "velocity": 107,
              "position": 11,
              "duration": 0.36041666666666666
            },
            {
              "pitch": 74,
              "velocity": 102,
              "position": 11.010416666666666,
              "duration": 0.36041666666666666
            },
            {
              "pitch": 75,
              "velocity": 127,
              "position": 11.54375,
              "duration": 0.39166666666666666
            },
            {
              "pitch": 67,
              "velocity": 121,
              "position": 11.564583333333333,
              "duration": 0.38125
            },
            {
              "pitch": 72,
              "velocity": 126,
              "position": 11.554166666666667,
              "duration": 0.3958333333333333
            },
            {
              "pitch": 75,
              "velocity": 109,
              "position": 13.035416666666666,
              "duration": 0.43333333333333335
            },
            {
              "pitch": 72,
              "velocity": 104,
              "position": 13.022916666666667,
              "duration": 0.45625
            },
            {
              "pitch": 67,
              "velocity": 93,
              "position": 13.045833333333333,
              "duration": 0.44166666666666665
            },
            {
              "pitch": 67,
              "velocity": 107,
              "position": 13.525,
              "duration": 0.15625
            },
            {
              "pitch": 75,
              "velocity": 97,
              "position": 13.520833333333334,
              "duration": 0.16875
            },
            {
              "pitch": 72,
              "velocity": 100,
              "position": 13.514583333333333,
              "duration": 0.19375
            },
            {
              "pitch": 75,
              "velocity": 127,
              "position": 14.035416666666666,
              "duration": 0.30416666666666664
            },
            {
              "pitch": 67,
              "velocity": 127,
              "position": 14.041666666666666,
              "duration": 0.3
            },
            {
              "pitch": 72,
              "velocity": 127,
              "position": 14.025,
              "duration": 0.31875
            }
          ]
        },
        "4": {
          "ctab": {
            "srcChannel": 4,
            "name": "Brass",
            "accType": "PAD",
            "editable": false,
            "mutedNotes": [],
            "mutedChords": [
              "1+2+5",
              "sus4",
              "1+5",
              "1+8",
              "7aug",
              "Maj7aug",
              "7(#9)",
              "7(b13)",
              "7(b9)",
              "7(13)",
              "7#11",
              "7(9)",
              "7b5",
              "7sus4",
              "7th",
              "aug",
              "Maj6(9)",
              "Maj7(9)",
              "Maj(9)",
              "Maj7#11",
              "Maj7",
              "Maj6",
              "Maj"
            ],
            "autoStart": false,
            "sourceChordNote": 0,
            "sourceChordType": "min",
            "ctb2Low": null,
            "ctb2Main": {
              "ntr": "ROOT_TRANSPOSITION",
              "ntt": "BYPASS",
              "bassOn": false,
              "chordRootUpperLimit": 9,
              "noteLowLimit": 36,
              "noteHighLimit": 82,
              "rtr": "PITCH_SHIFT"
            },
            "ctb2High": null
          },
          "notes": [
            {
              "pitch": 55,
              "velocity": 109,
              "position": 2,
              "duration": 1.9395833333333334
            },
            {
              "pitch": 62,
              "velocity": 111,
              "position": 4.614583333333333,
              "duration": 1.4166666666666667
            },
            {
              "pitch": 63,
              "velocity": 87,
              "position": 13,
              "duration": 0.4875
            },
            {
              "pitch": 67,
              "velocity": 114,
              "position": 13,
              "duration": 0.4875
            },
            {
              "pitch": 69,
              "velocity": 85,
              "position": 13,
              "duration": 0.4875
            },
            {
              "pitch": 72,
              "velocity": 85,
              "position": 13,
              "duration": 0.4875
            },
            {
              "pitch": 67,
              "velocity": 85,
              "position": 13.5,
              "duration": 0.16875
            },
            {
              "pitch": 63,
              "velocity": 112,
              "position": 13.5,
              "duration": 0.17291666666666666
            },
            {
              "pitch": 69,
              "velocity": 112,
              "position": 13.5,
              "duration": 0.17916666666666667
            },
            {
              "pitch": 72,
              "velocity": 84,
              "position": 13.5,
              "duration": 0.2
            }
          ]
        },
        "5": {
          "ctab": {
            "srcChannel": 5,
            "name": "Sax",
            "accType": "PHRASE1",
            "editable": false,
            "mutedNotes": [],
            "mutedChords": [
              "1+2+5",
              "sus4",
              "1+5",
              "1+8",
              "7aug",
              "Maj7aug",
              "7(#9)",
              "7(b13)",
              "7(b9)",
              "7(13)",
              "7#11",
              "7(9)",
              "7b5",
              "7sus4",
              "7th",
              "aug",
              "Maj6(9)",
              "Maj7(9)",
              "Maj(9)",
              "Maj7#11",
              "Maj7",
              "Maj6",
              "Maj"
            ],
            "autoStart": false,
            "sourceChordNote": 0,
            "sourceChordType": "min",
            "ctb2Low": null,
            "ctb2Main": {
              "ntr": "ROOT_TRANSPOSITION",
              "ntt": "BYPASS",
              "bassOn": false,
              "chordRootUpperLimit": 9,
              "noteLowLimit": 0,
              "noteHighLimit": 127,
              "rtr": "PITCH_SHIFT"
            },
            "ctb2High": null
          },
          "notes": [
            {
              "pitch": 56,
              "velocity": 57,
              "position": 0,
              "duration": 2.0125
            },
            {
              "pitch": 55,
              "velocity": 114,
              "position": 2,
              "duration": 1.9395833333333334
            },
            {
              "pitch": 62,
              "velocity": 57,
              "position": 4.5,
              "duration": 1.5229166666666667
            },
            {
              "pitch": 60,
              "velocity": 114,
              "position": 6,
              "duration": 1.9791666666666667
            },
            {
              "pitch": 43,
              "velocity": 81,
              "position": 9.5,
              "duration": 1.9875
            },
            {
              "pitch": 48,
              "velocity": 81,
              "position": 11.5,
              "duration": 0.48541666666666666
            },
            {
              "pitch": 60,
              "velocity": 114,
              "position": 13.5,
              "duration": 0.3770833333333333
            }
          ]
        },
        "6": {
          "ctab": {
            "srcChannel": 6,
            "name": "Vib",
            "accType": "PHRASE2",
            "editable": false,
            "mutedNotes": [],
            "mutedChords": [
              "1+2+5",
              "sus4",
              "1+5",
              "1+8",
              "7aug",
              "Maj7aug",
              "7(#9)",
              "7(b13)",
              "7(b9)",
              "7(13)",
              "7#11",
              "7(9)",
              "7b5",
              "7sus4",
              "7th",
              "aug",
              "Maj6(9)",
              "Maj7(9)",
              "Maj(9)",
              "Maj7#11",
              "Maj7",
              "Maj6",
              "Maj"
            ],
            "autoStart": false,
            "sourceChordNote": 0,
            "sourceChordType": "min",
            "ctb2Low": null,
            "ctb2Main": {
              "ntr": "ROOT_TRANSPOSITION",
              "ntt": "BYPASS",
              "bassOn": false,
              "chordRootUpperLimit": 2,
              "noteLowLimit": 60,
              "noteHighLimit": 81,
              "rtr": "PITCH_SHIFT"
            },
            "ctb2High": null
          },
          "notes": [
            {
              "pitch": 74,
              "velocity": 110,
              "position": 0.020833333333333332,
              "duration": 0.2708333333333333
            },
            {
              "pitch": 72,
              "velocity": 107,
              "position": 1,
              "duration": 0.18333333333333332
            },
            {
              "pitch": 71,
              "velocity": 110,
              "position": 2,
              "duration": 0.23541666666666666
            },
            {
              "pitch": 71,
              "velocity": 86,
              "position": 2.5,
              "duration": 0.19375
            },
            {
              "pitch": 71,
              "velocity": 112,
              "position": 3.4916666666666667,
              "duration": 0.18125
            },
            {
              "pitch": 74,
              "velocity": 112,
              "position": 4.5,
              "duration": 0.18541666666666667
            },
            {
              "pitch": 74,
              "velocity": 111,
              "position": 5.5,
              "duration": 0.3625
            },
            {
              "pitch": 72,
              "velocity": 108,
              "position": 6,
              "duration": 0.23541666666666666
            },
            {
              "pitch": 72,
              "velocity": 93,
              "position": 6.5,
              "duration": 0.19583333333333333
            },
            {
              "pitch": 72,
              "velocity": 112,
              "position": 7,
              "duration": 0.21458333333333332
            },
            {
              "pitch": 74,
              "velocity": 111,
              "position": 8,
              "duration": 0.32916666666666666
            },
            {
              "pitch": 74,
              "velocity": 99,
              "position": 8.5,
              "duration": 0.21458333333333332
            },
            {
              "pitch": 74,
              "velocity": 108,
              "position": 9,
              "duration": 0.22916666666666666
            },
            {
              "pitch": 71,
              "velocity": 109,
              "position": 10.5,
              "duration": 0.225
            },
            {
              "pitch": 71,
              "velocity": 108,
              "position": 11,
              "duration": 0.2875
            },
            {
              "pitch": 72,
              "velocity": 115,
              "position": 11.5,
              "duration": 0.20416666666666666
            }
          ]
        },
        "8": {
          "ctab": {
            "srcChannel": 8,
            "name": "AddDrum",
            "accType": "SUBRHYTHM",
            "editable": false,
            "mutedNotes": [],
            "mutedChords": [],
            "autoStart": true,
            "sourceChordNote": 0,
            "sourceChordType": "Maj7",
            "ctb2Low": null,
            "ctb2Main": {
              "ntr": "ROOT_FIXED",
              "ntt": "BYPASS",
              "bassOn": false,
              "chordRootUpperLimit": 6,
              "noteLowLimit": 0,
              "noteHighLimit": 127,
              "rtr": "PITCH_SHIFT"
            },
            "ctb2High": null
          },
          "notes": [
            {
              "pitch": 49,
              "velocity": 79,
              "position": 0,
              "duration": 0.00625
            },
            {
              "pitch": 56,
              "velocity": 87,
              "position": 0,
              "duration": 0.00625
            },
            {
              "pitch": 76,
              "velocity": 85,
              "position": 0.0125,
              "duration": 0.00625
            },
            {
              "pitch": 56,
              "velocity": 118,
              "position": 1,
              "duration": 0.00625
            },
            {
              "pitch": 76,
              "velocity": 85,
              "position": 1,
              "duration": 0.00625
            },
            {
              "pitch": 56,
              "velocity": 86,
              "position": 2,
              "duration": 0.00625
            },
            {
              "pitch": 76,
              "velocity": 85,
              "position": 2.0104166666666665,
              "duration": 0.00625
            },
            {
              "pitch": 56,
              "velocity": 63,
              "position": 2.5,
              "duration": 0.00625
            },
            {
              "pitch": 56,
              "velocity": 120,
              "position": 3,
              "duration": 0.00625
            },
            {
              "pitch": 77,
              "velocity": 77,
              "position": 3.0104166666666665,
              "duration": 0.00625
            },
            {
              "pitch": 77,
              "velocity": 51,
              "position": 3.49375,
              "duration": 0.00625
            },
            {
              "pitch": 56,
              "velocity": 86,
              "position": 4,
              "duration": 0.00625
            },
            {
              "pitch": 76,
              "velocity": 85,
              "position": 4.533333333333333,
              "duration": 0.00625
            },
            {
              "pitch": 56,
              "velocity": 120,
              "position": 5,
              "duration": 0.00625
            },
            {
              "pitch": 76,
              "velocity": 56,
              "position": 5.522916666666666,
              "duration": 0.00625
            },
            {
              "pitch": 56,
              "velocity": 44,
              "position": 5.75,
              "duration": 0.00625
            },
            {
              "pitch": 56,
              "velocity": 99,
              "position": 6,
              "duration": 0.00625
            },
            {
              "pitch": 76,
              "velocity": 85,
              "position": 6.020833333333333,
              "duration": 0.00625
            },
            {
              "pitch": 56,
              "velocity": 70,
              "position": 6.5,
              "duration": 0.00625
            },
            {
              "pitch": 76,
              "velocity": 49,
              "position": 6.502083333333333,
              "duration": 0.00625
            },
            {
              "pitch": 56,
              "velocity": 120,
              "position": 7,
              "duration": 0.00625
            },
            {
              "pitch": 76,
              "velocity": 85,
              "position": 7.020833333333333,
              "duration": 0.00625
            },
            {
              "pitch": 56,
              "velocity": 87,
              "position": 8,
              "duration": 0.00625
            },
            {
              "pitch": 76,
              "velocity": 85,
              "position": 8.022916666666667,
              "duration": 0.00625
            },
            {
              "pitch": 76,
              "velocity": 57,
              "position": 8.510416666666666,
              "duration": 0.00625
            },
            {
              "pitch": 56,
              "velocity": 118,
              "position": 9,
              "duration": 0.00625
            },
            {
              "pitch": 76,
              "velocity": 85,
              "position": 9.010416666666666,
              "duration": 0.00625
            },
            {
              "pitch": 57,
              "velocity": 71,
              "position": 9.5,
              "duration": 0.00625
            },
            {
              "pitch": 65,
              "velocity": 105,
              "position": 10.5,
              "duration": 0.00625
            },
            {
              "pitch": 65,
              "velocity": 95,
              "position": 11,
              "duration": 0.00625
            },
            {
              "pitch": 56,
              "velocity": 118,
              "position": 11.5,
              "duration": 0.00625
            },
            {
              "pitch": 66,
              "velocity": 105,
              "position": 11.5,
              "duration": 0.00625
            },
            {
              "pitch": 56,
              "velocity": 120,
              "position": 13,
              "duration": 0.00625
            },
            {
              "pitch": 56,
              "velocity": 44,
              "position": 13.5,
              "duration": 0.00625
            },
            {
              "pitch": 56,
              "velocity": 99,
              "position": 14,
              "duration": 0.00625
            }
          ]
        },
        "9": {
          "ctab": {
            "srcChannel": 9,
            "name": "MainDrum",
            "accType": "RHYTHM",
            "editable": false,
            "mutedNotes": [],
            "mutedChords": [],
            "autoStart": true,
            "sourceChordNote": 0,
            "sourceChordType": "Maj7",
            "ctb2Low": null,
            "ctb2Main": {
              "ntr": "ROOT_FIXED",
              "ntt": "BYPASS",
              "bassOn": false,
              "chordRootUpperLimit": 6,
              "noteLowLimit": 0,
              "noteHighLimit": 127,
              "rtr": "PITCH_SHIFT"
            },
            "ctb2High": null
          },
          "notes": [
            {
              "pitch": 24,
              "velocity": 105,
              "position": 0,
              "duration": 0.00625
            },
            {
              "pitch": 73,
              "velocity": 69,
              "position": 0,
              "duration": 0.00625
            },
            {
              "pitch": 26,
              "velocity": 40,
              "position": 0.5,
              "duration": 0.00625
            },
            {
              "pitch": 73,
              "velocity": 35,
              "position": 0.5,
              "duration": 0.00625
            },
            {
              "pitch": 27,
              "velocity": 98,
              "position": 1,
              "duration": 0.00625
            },
            {
              "pitch": 64,
              "velocity": 74,
              "position": 1,
              "duration": 0.00625
            },
            {
              "pitch": 65,
              "velocity": 66,
              "position": 0,
              "duration": 1.00625
            },
            {
              "pitch": 73,
              "velocity": 100,
              "position": 1,
              "duration": 0.00625
            },
            {
              "pitch": 53,
              "velocity": 76,
              "position": 1.0104166666666667,
              "duration": 0.00625
            },
            {
              "pitch": 24,
              "velocity": 50,
              "position": 1.5,
              "duration": 0.00625
            },
            {
              "pitch": 64,
              "velocity": 76,
              "position": 1.5,
              "duration": 0.00625
            },
            {
              "pitch": 73,
              "velocity": 38,
              "position": 1.5,
              "duration": 0.00625
            },
            {
              "pitch": 24,
              "velocity": 102,
              "position": 2,
              "duration": 0.00625
            },
            {
              "pitch": 53,
              "velocity": 75,
              "position": 2,
              "duration": 0.00625
            },
            {
              "pitch": 73,
              "velocity": 71,
              "position": 2,
              "duration": 0.00625
            },
            {
              "pitch": 53,
              "velocity": 59,
              "position": 2.4916666666666667,
              "duration": 0.00625
            },
            {
              "pitch": 22,
              "velocity": 48,
              "position": 2.5,
              "duration": 0.00625
            },
            {
              "pitch": 73,
              "velocity": 39,
              "position": 2.5,
              "duration": 0.00625
            },
            {
              "pitch": 65,
              "velocity": 66,
              "position": 2,
              "duration": 0.9854166666666667
            },
            {
              "pitch": 53,
              "velocity": 70,
              "position": 2.9895833333333335,
              "duration": 0.00625
            },
            {
              "pitch": 31,
              "velocity": 79,
              "position": 3,
              "duration": 0.00625
            },
            {
              "pitch": 64,
              "velocity": 68,
              "position": 3,
              "duration": 0.00625
            },
            {
              "pitch": 73,
              "velocity": 100,
              "position": 3,
              "duration": 0.00625
            },
            {
              "pitch": 31,
              "velocity": 114,
              "position": 3.5,
              "duration": 0.00625
            },
            {
              "pitch": 64,
              "velocity": 76,
              "position": 3.5,
              "duration": 0.00625
            },
            {
              "pitch": 73,
              "velocity": 39,
              "position": 3.5,
              "duration": 0.00625
            },
            {
              "pitch": 53,
              "velocity": 61,
              "position": 3.9916666666666667,
              "duration": 0.00625
            },
            {
              "pitch": 23,
              "velocity": 58,
              "position": 4,
              "duration": 0.00625
            },
            {
              "pitch": 73,
              "velocity": 73,
              "position": 4,
              "duration": 0.00625
            },
            {
              "pitch": 26,
              "velocity": 39,
              "position": 4.5,
              "duration": 0.00625
            },
            {
              "pitch": 73,
              "velocity": 35,
              "position": 4.5,
              "duration": 0.00625
            },
            {
              "pitch": 65,
              "velocity": 66,
              "position": 4,
              "duration": 0.9958333333333333
            },
            {
              "pitch": 53,
              "velocity": 66,
              "position": 4.99375,
              "duration": 0.00625
            },
            {
              "pitch": 27,
              "velocity": 101,
              "position": 5,
              "duration": 0.00625
            },
            {
              "pitch": 64,
              "velocity": 67,
              "position": 5,
              "duration": 0.00625
            },
            {
              "pitch": 73,
              "velocity": 100,
              "position": 5,
              "duration": 0.00625
            },
            {
              "pitch": 24,
              "velocity": 77,
              "position": 5.5,
              "duration": 0.00625
            },
            {
              "pitch": 64,
              "velocity": 76,
              "position": 5.5,
              "duration": 0.00625
            },
            {
              "pitch": 73,
              "velocity": 33,
              "position": 5.5,
              "duration": 0.00625
            },
            {
              "pitch": 53,
              "velocity": 71,
              "position": 5.99375,
              "duration": 0.00625
            },
            {
              "pitch": 24,
              "velocity": 105,
              "position": 6,
              "duration": 0.00625
            },
            {
              "pitch": 73,
              "velocity": 76,
              "position": 6,
              "duration": 0.00625
            },
            {
              "pitch": 53,
              "velocity": 65,
              "position": 6.489583333333333,
              "duration": 0.00625
            },
            {
              "pitch": 22,
              "velocity": 74,
              "position": 6.5,
              "duration": 0.00625
            },
            {
              "pitch": 73,
              "velocity": 33,
              "position": 6.5,
              "duration": 0.00625
            },
            {
              "pitch": 65,
              "velocity": 66,
              "position": 6,
              "duration": 0.9875
            },
            {
              "pitch": 31,
              "velocity": 52,
              "position": 7,
              "duration": 0.00625
            },
            {
              "pitch": 53,
              "velocity": 70,
              "position": 7,
              "duration": 0.00625
            },
            {
              "pitch": 64,
              "velocity": 67,
              "position": 7,
              "duration": 0.00625
            },
            {
              "pitch": 73,
              "velocity": 100,
              "position": 7,
              "duration": 0.00625
            },
            {
              "pitch": 31,
              "velocity": 108,
              "position": 7.5,
              "duration": 0.00625
            },
            {
              "pitch": 59,
              "velocity": 43,
              "position": 7.5,
              "duration": 0.00625
            },
            {
              "pitch": 64,
              "velocity": 76,
              "position": 7.5,
              "duration": 0.00625
            },
            {
              "pitch": 73,
              "velocity": 32,
              "position": 7.5,
              "duration": 0.00625
            },
            {
              "pitch": 53,
              "velocity": 48,
              "position": 7.741666666666666,
              "duration": 0.00625
            },
            {
              "pitch": 23,
              "velocity": 93,
              "position": 8,
              "duration": 0.00625
            },
            {
              "pitch": 73,
              "velocity": 69,
              "position": 8,
              "duration": 0.00625
            },
            {
              "pitch": 53,
              "velocity": 68,
              "position": 8.002083333333333,
              "duration": 0.00625
            },
            {
              "pitch": 26,
              "velocity": 40,
              "position": 8.5,
              "duration": 0.00625
            },
            {
              "pitch": 73,
              "velocity": 35,
              "position": 8.5,
              "duration": 0.00625
            },
            {
              "pitch": 27,
              "velocity": 98,
              "position": 9,
              "duration": 0.00625
            },
            {
              "pitch": 64,
              "velocity": 76,
              "position": 9,
              "duration": 0.00625
            },
            {
              "pitch": 73,
              "velocity": 100,
              "position": 9,
              "duration": 0.00625
            },
            {
              "pitch": 65,
              "velocity": 66,
              "position": 8,
              "duration": 1.0104166666666667
            },
            {
              "pitch": 53,
              "velocity": 83,
              "position": 9.010416666666666,
              "duration": 0.00625
            },
            {
              "pitch": 53,
              "velocity": 100,
              "position": 9.45,
              "duration": 0.00625
            },
            {
              "pitch": 53,
              "velocity": 52,
              "position": 9.583333333333334,
              "duration": 0.00625
            },
            {
              "pitch": 53,
              "velocity": 37,
              "position": 9.7125,
              "duration": 0.00625
            },
            {
              "pitch": 53,
              "velocity": 66,
              "position": 9.854166666666666,
              "duration": 0.00625
            },
            {
              "pitch": 53,
              "velocity": 93,
              "position": 10,
              "duration": 0.00625
            },
            {
              "pitch": 53,
              "velocity": 42,
              "position": 10.333333333333334,
              "duration": 0.00625
            },
            {
              "pitch": 53,
              "velocity": 57,
              "position": 10.666666666666666,
              "duration": 0.00625
            },
            {
              "pitch": 53,
              "velocity": 76,
              "position": 10.95,
              "duration": 0.00625
            },
            {
              "pitch": 53,
              "velocity": 89,
              "position": 11.5,
              "duration": 0.00625
            },
            {
              "pitch": 64,
              "velocity": 67,
              "position": 11.5,
              "duration": 0.00625
            },
            {
              "pitch": 73,
              "velocity": 39,
              "position": 11.5,
              "duration": 0.00625
            },
            {
              "pitch": 53,
              "velocity": 86,
              "position": 13,
              "duration": 0.00625
            },
            {
              "pitch": 64,
              "velocity": 67,
              "position": 13,
              "duration": 0.00625
            },
            {
              "pitch": 73,
              "velocity": 100,
              "position": 13,
              "duration": 0.00625
            },
            {
              "pitch": 53,
              "velocity": 86,
              "position": 13.5,
              "duration": 0.00625
            },
            {
              "pitch": 64,
              "velocity": 76,
              "position": 13.5,
              "duration": 0.00625
            },
            {
              "pitch": 73,
              "velocity": 33,
              "position": 13.5,
              "duration": 0.00625
            },
            {
              "pitch": 53,
              "velocity": 113,
              "position": 14,
              "duration": 0.00625
            },
            {
              "pitch": 64,
              "velocity": 72,
              "position": 14,
              "duration": 0.00625
            },
            {
              "pitch": 73,
              "velocity": 76,
              "position": 14,
              "duration": 0.00625
            }
          ]
        },
        "10": {
          "ctab": {
            "srcChannel": 10,
            "name": "Bass",
            "accType": "BASS",
            "editable": false,
            "mutedNotes": [],
            "mutedChords": [
              "dim7",
              "dim",
              "minMaj7(9)",
              "minMaj7",
              "min7(11)",
              "min7(9)",
              "min(9)",
              "m7b5",
              "min7",
              "min6",
              "min"
            ],
            "autoStart": false,
            "sourceChordNote": 0,
            "sourceChordType": "Maj",
            "ctb2Low": null,
            "ctb2Main": {
              "ntr": "ROOT_TRANSPOSITION",
              "ntt": "BYPASS",
              "bassOn": false,
              "chordRootUpperLimit": 3,
              "noteLowLimit": 28,
              "noteHighLimit": 127,
              "rtr": "PITCH_SHIFT"
            },
            "ctb2High": null
          },
          "notes": [
            {
              "pitch": 26,
              "velocity": 60,
              "position": 0,
              "duration": 0.975
            },
            {
              "pitch": 26,
              "velocity": 95,
              "position": 1,
              "duration": 0.058333333333333334
            },
            {
              "pitch": 26,
              "velocity": 50,
              "position": 1.5,
              "duration": 0.475
            },
            {
              "pitch": 31,
              "velocity": 60,
              "position": 2,
              "duration": 0.975
            },
            {
              "pitch": 31,
              "velocity": 100,
              "position": 3,
              "duration": 0.058333333333333334
            },
            {
              "pitch": 31,
              "velocity": 50,
              "position": 3.5,
              "duration": 0.475
            },
            {
              "pitch": 24,
              "velocity": 60,
              "position": 4,
              "duration": 0.975
            },
            {
              "pitch": 24,
              "velocity": 100,
              "position": 5,
              "duration": 0.058333333333333334
            },
            {
              "pitch": 24,
              "velocity": 60,
              "position": 5.5,
              "duration": 0.14166666666666666
            },
            {
              "pitch": 33,
              "velocity": 60,
              "position": 6,
              "duration": 0.475
            },
            {
              "pitch": 33,
              "velocity": 100,
              "position": 6.5,
              "duration": 0.058333333333333334
            },
            {
              "pitch": 33,
              "velocity": 60,
              "position": 7,
              "duration": 0.975
            },
            {
              "pitch": 26,
              "velocity": 60,
              "position": 8,
              "duration": 0.48541666666666666
            },
            {
              "pitch": 26,
              "velocity": 49,
              "position": 8.5,
              "duration": 0.48541666666666666
            },
            {
              "pitch": 26,
              "velocity": 70,
              "position": 9,
              "duration": 0.45416666666666666
            },
            {
              "pitch": 31,
              "velocity": 60,
              "position": 9.46875,
              "duration": 2.0166666666666666
            },
            {
              "pitch": 24,
              "velocity": 60,
              "position": 11.5,
              "duration": 0.45208333333333334
            },
            {
              "pitch": 24,
              "velocity": 61,
              "position": 13,
              "duration": 0.475
            },
            {
              "pitch": 24,
              "velocity": 50,
              "position": 13.5,
              "duration": 0.475
            },
            {
              "pitch": 24,
              "velocity": 61,
              "position": 14,
              "duration": 0.475
            }
          ]
        },
        "11": {
          "ctab": {
            "srcChannel": 11,
            "name": "E.Guitar",
            "accType": "CHORD1",
            "editable": false,
            "mutedNotes": [],
            "mutedChords": [
              "dim7",
              "dim",
              "minMaj7(9)",
              "minMaj7",
              "min7(11)",
              "min7(9)",
              "min(9)",
              "m7b5",
              "min7",
              "min6",
              "min"
            ],
            "autoStart": false,
            "sourceChordNote": 0,
            "sourceChordType": "Maj",
            "ctb2Low": null,
            "ctb2Main": {
              "ntr": "ROOT_TRANSPOSITION",
              "ntt": "BYPASS",
              "bassOn": false,
              "chordRootUpperLimit": 6,
              "noteLowLimit": 0,
              "noteHighLimit": 127,
              "rtr": "PITCH_SHIFT"
            },
            "ctb2High": null
          },
          "notes": [
            {
              "pitch": 57,
              "velocity": 120,
              "position": 6,
              "duration": 0.48541666666666666
            },
            {
              "pitch": 60,
              "velocity": 90,
              "position": 6.5,
              "duration": 0.18333333333333332
            },
            {
              "pitch": 64,
              "velocity": 90,
              "position": 7,
              "duration": 0.38125
            },
            {
              "pitch": 60,
              "velocity": 90,
              "position": 7.5,
              "duration": 0.13125
            },
            {
              "pitch": 62,
              "velocity": 50,
              "position": 8,
              "duration": 0.48541666666666666
            },
            {
              "pitch": 62,
              "velocity": 72,
              "position": 8.5,
              "duration": 0.225
            },
            {
              "pitch": 62,
              "velocity": 53,
              "position": 9,
              "duration": 0.45416666666666666
            },
            {
              "pitch": 60,
              "velocity": 50,
              "position": 10.5,
              "duration": 0.48541666666666666
            },
            {
              "pitch": 60,
              "velocity": 72,
              "position": 11,
              "duration": 0.225
            },
            {
              "pitch": 60,
              "velocity": 53,
              "position": 11.5,
              "duration": 0.45416666666666666
            }
          ]
        },
        "12": {
          "ctab": {
            "srcChannel": 12,
            "name": "Organ",
            "accType": "CHORD2",
            "editable": false,
            "mutedNotes": [],
            "mutedChords": [
              "dim7",
              "dim",
              "minMaj7(9)",
              "minMaj7",
              "min7(11)",
              "min7(9)",
              "min(9)",
              "m7b5",
              "min7",
              "min6",
              "min"
            ],
            "autoStart": false,
            "sourceChordNote": 0,
            "sourceChordType": "Maj",
            "ctb2Low": null,
            "ctb2Main": {
              "ntr": "ROOT_TRANSPOSITION",
              "ntt": "BYPASS",
              "bassOn": false,
              "chordRootUpperLimit": 3,
              "noteLowLimit": 58,
              "noteHighLimit": 79,
              "rtr": "PITCH_SHIFT"
            },
            "ctb2High": null
          },
          "notes": [
            {
              "pitch": 69,
              "velocity": 104,
              "position": 0.0625,
              "duration": 0.29583333333333334
            },
            {
              "pitch": 65,
              "velocity": 104,
              "position": 0.05,
              "duration": 0.3229166666666667
            },
            {
              "pitch": 62,
              "velocity": 97,
              "position": 0.06041666666666667,
              "duration": 0.31875
            },
            {
              "pitch": 72,
              "velocity": 91,
              "position": 0.07291666666666667,
              "duration": 0.3229166666666667
            },
            {
              "pitch": 72,
              "velocity": 94,
              "position": 1,
              "duration": 0.75625
            },
            {
              "pitch": 69,
              "velocity": 101,
              "position": 1,
              "duration": 0.76875
            },
            {
              "pitch": 62,
              "velocity": 95,
              "position": 1,
              "duration": 0.8083333333333333
            },
            {
              "pitch": 65,
              "velocity": 100,
              "position": 1,
              "duration": 0.81875
            },
            {
              "pitch": 71,
              "velocity": 97,
              "position": 2,
              "duration": 0.4125
            },
            {
              "pitch": 62,
              "velocity": 81,
              "position": 2,
              "duration": 0.43333333333333335
            },
            {
              "pitch": 65,
              "velocity": 71,
              "position": 2,
              "duration": 0.46458333333333335
            },
            {
              "pitch": 67,
              "velocity": 97,
              "position": 2,
              "duration": 0.46458333333333335
            },
            {
              "pitch": 62,
              "velocity": 85,
              "position": 2.5,
              "duration": 0.1625
            },
            {
              "pitch": 65,
              "velocity": 89,
              "position": 2.5,
              "duration": 0.1625
            },
            {
              "pitch": 67,
              "velocity": 89,
              "position": 2.5,
              "duration": 0.17708333333333334
            },
            {
              "pitch": 71,
              "velocity": 96,
              "position": 2.5,
              "duration": 0.20833333333333334
            },
            {
              "pitch": 71,
              "velocity": 91,
              "position": 3.5,
              "duration": 0.23541666666666666
            },
            {
              "pitch": 64,
              "velocity": 95,
              "position": 3.5,
              "duration": 0.23958333333333334
            },
            {
              "pitch": 67,
              "velocity": 99,
              "position": 3.5,
              "duration": 0.24583333333333332
            },
            {
              "pitch": 74,
              "velocity": 95,
              "position": 3.5,
              "duration": 0.25833333333333336
            },
            {
              "pitch": 74,
              "velocity": 98,
              "position": 4.5,
              "duration": 0.7770833333333333
            },
            {
              "pitch": 64,
              "velocity": 98,
              "position": 4.5,
              "duration": 0.8083333333333333
            },
            {
              "pitch": 71,
              "velocity": 98,
              "position": 4.5,
              "duration": 0.8083333333333333
            },
            {
              "pitch": 67,
              "velocity": 98,
              "position": 4.5,
              "duration": 0.8104166666666667
            },
            {
              "pitch": 71,
              "velocity": 99,
              "position": 5.5,
              "duration": 0.17291666666666666
            },
            {
              "pitch": 74,
              "velocity": 99,
              "position": 5.5,
              "duration": 0.18333333333333332
            },
            {
              "pitch": 67,
              "velocity": 99,
              "position": 5.5,
              "duration": 0.19375
            },
            {
              "pitch": 64,
              "velocity": 99,
              "position": 5.5,
              "duration": 0.19791666666666666
            },
            {
              "pitch": 69,
              "velocity": 103,
              "position": 6,
              "duration": 0.12083333333333333
            },
            {
              "pitch": 67,
              "velocity": 103,
              "position": 6,
              "duration": 0.125
            },
            {
              "pitch": 64,
              "velocity": 103,
              "position": 5.991666666666666,
              "duration": 0.14583333333333334
            },
            {
              "pitch": 72,
              "velocity": 103,
              "position": 5.991666666666666,
              "duration": 0.16666666666666666
            },
            {
              "pitch": 69,
              "velocity": 105,
              "position": 6.25,
              "duration": 0.12083333333333333
            },
            {
              "pitch": 67,
              "velocity": 105,
              "position": 6.25,
              "duration": 0.12708333333333333
            },
            {
              "pitch": 64,
              "velocity": 105,
              "position": 6.24375,
              "duration": 0.15
            },
            {
              "pitch": 72,
              "velocity": 107,
              "position": 6.5,
              "duration": 0.1
            },
            {
              "pitch": 67,
              "velocity": 107,
              "position": 6.49375,
              "duration": 0.1125
            },
            {
              "pitch": 69,
              "velocity": 107,
              "position": 6.49375,
              "duration": 0.1125
            },
            {
              "pitch": 64,
              "velocity": 107,
              "position": 6.489583333333333,
              "duration": 0.13333333333333333
            },
            {
              "pitch": 69,
              "velocity": 108,
              "position": 6.73125,
              "duration": 0.11041666666666666
            },
            {
              "pitch": 67,
              "velocity": 108,
              "position": 6.73125,
              "duration": 0.125
            },
            {
              "pitch": 64,
              "velocity": 108,
              "position": 6.729166666666667,
              "duration": 0.1375
            },
            {
              "pitch": 69,
              "velocity": 110,
              "position": 6.96875,
              "duration": 0.12291666666666666
            },
            {
              "pitch": 67,
              "velocity": 110,
              "position": 6.96875,
              "duration": 0.12708333333333333
            },
            {
              "pitch": 64,
              "velocity": 110,
              "position": 6.96875,
              "duration": 0.13541666666666666
            },
            {
              "pitch": 72,
              "velocity": 110,
              "position": 6.96875,
              "duration": 0.15416666666666667
            },
            {
              "pitch": 72,
              "velocity": 102,
              "position": 8,
              "duration": 0.4125
            },
            {
              "pitch": 62,
              "velocity": 105,
              "position": 8,
              "duration": 0.41458333333333336
            },
            {
              "pitch": 65,
              "velocity": 109,
              "position": 8,
              "duration": 0.4166666666666667
            },
            {
              "pitch": 69,
              "velocity": 107,
              "position": 8,
              "duration": 0.43333333333333335
            },
            {
              "pitch": 62,
              "velocity": 86,
              "position": 8.5,
              "duration": 0.225
            },
            {
              "pitch": 65,
              "velocity": 81,
              "position": 8.5,
              "duration": 0.25625
            },
            {
              "pitch": 72,
              "velocity": 90,
              "position": 8.5,
              "duration": 0.2604166666666667
            },
            {
              "pitch": 69,
              "velocity": 83,
              "position": 8.5,
              "duration": 0.2875
            },
            {
              "pitch": 62,
              "velocity": 99,
              "position": 9,
              "duration": 0.3104166666666667
            },
            {
              "pitch": 69,
              "velocity": 98,
              "position": 9,
              "duration": 0.31875
            },
            {
              "pitch": 65,
              "velocity": 101,
              "position": 9,
              "duration": 0.3541666666666667
            },
            {
              "pitch": 72,
              "velocity": 100,
              "position": 9,
              "duration": 0.40208333333333335
            },
            {
              "pitch": 69,
              "velocity": 108,
              "position": 10.5,
              "duration": 0.4479166666666667
            },
            {
              "pitch": 67,
              "velocity": 111,
              "position": 10.5,
              "duration": 0.45416666666666666
            },
            {
              "pitch": 72,
              "velocity": 96,
              "position": 10.5,
              "duration": 0.45416666666666666
            },
            {
              "pitch": 64,
              "velocity": 107,
              "position": 10.49375,
              "duration": 0.48125
            },
            {
              "pitch": 69,
              "velocity": 98,
              "position": 11,
              "duration": 0.36041666666666666
            },
            {
              "pitch": 67,
              "velocity": 78,
              "position": 11,
              "duration": 0.3625
            },
            {
              "pitch": 64,
              "velocity": 98,
              "position": 11,
              "duration": 0.375
            },
            {
              "pitch": 72,
              "velocity": 93,
              "position": 11,
              "duration": 0.39166666666666666
            },
            {
              "pitch": 67,
              "velocity": 98,
              "position": 11.504166666666666,
              "duration": 0.2791666666666667
            },
            {
              "pitch": 69,
              "velocity": 116,
              "position": 11.504166666666666,
              "duration": 0.2833333333333333
            },
            {
              "pitch": 64,
              "velocity": 102,
              "position": 11.502083333333333,
              "duration": 0.3
            },
            {
              "pitch": 72,
              "velocity": 99,
              "position": 11.5,
              "duration": 0.33125
            },
            {
              "pitch": 69,
              "velocity": 110,
              "position": 13,
              "duration": 0.3229166666666667
            },
            {
              "pitch": 67,
              "velocity": 121,
              "position": 13,
              "duration": 0.32916666666666666
            },
            {
              "pitch": 72,
              "velocity": 112,
              "position": 13,
              "duration": 0.32916666666666666
            },
            {
              "pitch": 64,
              "velocity": 121,
              "position": 13,
              "duration": 0.3333333333333333
            },
            {
              "pitch": 69,
              "velocity": 112,
              "position": 13.5,
              "duration": 0.23541666666666666
            },
            {
              "pitch": 67,
              "velocity": 105,
              "position": 13.5,
              "duration": 0.23958333333333334
            },
            {
              "pitch": 72,
              "velocity": 112,
              "position": 13.5,
              "duration": 0.25625
            },
            {
              "pitch": 64,
              "velocity": 112,
              "position": 13.5,
              "duration": 0.25833333333333336
            },
            {
              "pitch": 72,
              "velocity": 106,
              "position": 14,
              "duration": 0.5395833333333333
            },
            {
              "pitch": 69,
              "velocity": 116,
              "position": 14,
              "duration": 0.5604166666666667
            },
            {
              "pitch": 64,
              "velocity": 123,
              "position": 14,
              "duration": 0.58125
            },
            {
              "pitch": 67,
              "velocity": 113,
              "position": 14,
              "duration": 0.6354166666666666
            }
          ]
        },
        "13": {
          "ctab": {
            "srcChannel": 13,
            "name": "Brass",
            "accType": "PAD",
            "editable": false,
            "mutedNotes": [],
            "mutedChords": [
              "dim7",
              "dim",
              "minMaj7(9)",
              "minMaj7",
              "min7(11)",
              "min7(9)",
              "min(9)",
              "m7b5",
              "min7",
              "min6",
              "min"
            ],
            "autoStart": false,
            "sourceChordNote": 0,
            "sourceChordType": "Maj",
            "ctb2Low": null,
            "ctb2Main": {
              "ntr": "ROOT_TRANSPOSITION",
              "ntt": "BYPASS",
              "bassOn": false,
              "chordRootUpperLimit": 9,
              "noteLowLimit": 36,
              "noteHighLimit": 82,
              "rtr": "PITCH_SHIFT"
            },
            "ctb2High": null
          },
          "notes": [
            {
              "pitch": 59,
              "velocity": 109,
              "position": 2,
              "duration": 1.9395833333333334
            },
            {
              "pitch": 55,
              "velocity": 111,
              "position": 4.458333333333333,
              "duration": 1.5208333333333333
            },
            {
              "pitch": 64,
              "velocity": 111,
              "position": 13,
              "duration": 0.4875
            },
            {
              "pitch": 67,
              "velocity": 112,
              "position": 13,
              "duration": 0.4875
            },
            {
              "pitch": 69,
              "velocity": 111,
              "position": 13,
              "duration": 0.4875
            },
            {
              "pitch": 72,
              "velocity": 87,
              "position": 13,
              "duration": 0.4875
            },
            {
              "pitch": 67,
              "velocity": 112,
              "position": 13.5,
              "duration": 0.16875
            },
            {
              "pitch": 64,
              "velocity": 111,
              "position": 13.5,
              "duration": 0.17291666666666666
            },
            {
              "pitch": 69,
              "velocity": 111,
              "position": 13.5,
              "duration": 0.17916666666666667
            },
            {
              "pitch": 72,
              "velocity": 85,
              "position": 13.5,
              "duration": 0.2
            }
          ]
        },
        "14": {
          "ctab": {
            "srcChannel": 14,
            "name": "Sax",
            "accType": "PHRASE1",
            "editable": false,
            "mutedNotes": [],
            "mutedChords": [
              "dim7",
              "dim",
              "minMaj7(9)",
              "minMaj7",
              "min7(11)",
              "min7(9)",
              "min(9)",
              "m7b5",
              "min7",
              "min6",
              "min"
            ],
            "autoStart": false,
            "sourceChordNote": 0,
            "sourceChordType": "Maj",
            "ctb2Low": null,
            "ctb2Main": {
              "ntr": "ROOT_TRANSPOSITION",
              "ntt": "BYPASS",
              "bassOn": false,
              "chordRootUpperLimit": 9,
              "noteLowLimit": 0,
              "noteHighLimit": 127,
              "rtr": "PITCH_SHIFT"
            },
            "ctb2High": null
          },
          "notes": [
            {
              "pitch": 60,
              "velocity": 57,
              "position": 0,
              "duration": 2.0125
            },
            {
              "pitch": 59,
              "velocity": 114,
              "position": 2,
              "duration": 1.9395833333333334
            },
            {
              "pitch": 55,
              "velocity": 57,
              "position": 4.5,
              "duration": 1.5229166666666667
            },
            {
              "pitch": 57,
              "velocity": 114,
              "position": 6,
              "duration": 1.9791666666666667
            },
            {
              "pitch": 43,
              "velocity": 81,
              "position": 9.5,
              "duration": 1.9875
            },
            {
              "pitch": 48,
              "velocity": 81,
              "position": 11.5,
              "duration": 0.48541666666666666
            },
            {
              "pitch": 60,
              "velocity": 112,
              "position": 13.5,
              "duration": 0.3770833333333333
            }
          ]
        },
        "15": {
          "ctab": {
            "srcChannel": 15,
            "name": "Vib",
            "accType": "PHRASE2",
            "editable": false,
            "mutedNotes": [],
            "mutedChords": [
              "dim7",
              "dim",
              "minMaj7(9)",
              "minMaj7",
              "min7(11)",
              "min7(9)",
              "min(9)",
              "m7b5",
              "min7",
              "min6",
              "min"
            ],
            "autoStart": false,
            "sourceChordNote": 0,
            "sourceChordType": "Maj",
            "ctb2Low": null,
            "ctb2Main": {
              "ntr": "ROOT_TRANSPOSITION",
              "ntt": "BYPASS",
              "bassOn": false,
              "chordRootUpperLimit": 7,
              "noteLowLimit": 60,
              "noteHighLimit": 72,
              "rtr": "PITCH_SHIFT"
            },
            "ctb2High": null
          },
          "notes": [
            {
              "pitch": 82,
              "velocity": 110,
              "position": 0.020833333333333332,
              "duration": 0.2708333333333333
            },
            {
              "pitch": 82,
              "velocity": 107,
              "position": 1,
              "duration": 0.18333333333333332
            },
            {
              "pitch": 82,
              "velocity": 110,
              "position": 2,
              "duration": 0.23541666666666666
            },
            {
              "pitch": 82,
              "velocity": 86,
              "position": 2.5,
              "duration": 0.19375
            },
            {
              "pitch": 82,
              "velocity": 112,
              "position": 3.4916666666666667,
              "duration": 0.18125
            },
            {
              "pitch": 81,
              "velocity": 112,
              "position": 4.5,
              "duration": 0.18541666666666667
            },
            {
              "pitch": 81,
              "velocity": 111,
              "position": 5.5,
              "duration": 0.3625
            },
            {
              "pitch": 81,
              "velocity": 108,
              "position": 6,
              "duration": 0.23541666666666666
            },
            {
              "pitch": 81,
              "velocity": 93,
              "position": 6.5,
              "duration": 0.19583333333333333
            },
            {
              "pitch": 81,
              "velocity": 112,
              "position": 7,
              "duration": 0.21458333333333332
            },
            {
              "pitch": 82,
              "velocity": 112,
              "position": 8,
              "duration": 0.31875
            },
            {
              "pitch": 82,
              "velocity": 98,
              "position": 8.5,
              "duration": 0.19375
            },
            {
              "pitch": 82,
              "velocity": 118,
              "position": 9,
              "duration": 0.14583333333333334
            },
            {
              "pitch": 82,
              "velocity": 110,
              "position": 10.5,
              "duration": 0.39166666666666666
            },
            {
              "pitch": 82,
              "velocity": 100,
              "position": 11,
              "duration": 0.38333333333333336
            },
            {
              "pitch": 82,
              "velocity": 119,
              "position": 11.5,
              "duration": 0.18541666666666667
            }
          ]
        }
      }
    }
  }
}