{
  "name": "CoolBossa.S850.STY",
  "tempo": 168,
  "timeSignature": "4/4",
  "ticksPerQuarter": 1920,
  "sffType": "SFF1",
  "division": "BINARY",
  "parts": {
    "Main_A": {
      "type": "Main_A",
      "sizeInBeats": 16,
      "channels": {
        "2": {
          "ctab": {
            "srcChannel": 2,
            "name": "Gt B",
            "accType": "CHORD1",
            "editable": false,
            "mutedNotes": [],
            "mutedChords": [
              "7#11",
              "7b5",
              "7sus4",
              "minMaj7",
              "m7b5",
              "min",
              "Maj7#11",
              "Maj7",
              "Maj"
            ],
            "autoStart": false,
            "sourceChordNote": 0,
            "sourceChordType": "Maj7",
            "ctb2Low": null,
            "ctb2Main": {
              "ntr": "ROOT_FIXED",
              "ntt": "CHORD",
              "bassOn": false,
              "chordRootUpperLimit": 7,
              "noteLowLimit": 0,
              "noteHighLimit": 127,
              "rtr": "PITCH_SHIFT"
            },
            "ctb2High": null
          },
          "notes": [
            {
              "pitch": 55,
              "velocity": 53,
              "position": 0,
              "duration": 0.26666666666666666
            },
            {
              "pitch": 64,
              "velocity": 49,
              "position": 0,
              "duration": 0.26666666666666666
            },
            {
              "pitch": 59,
              "velocity": 53,
              "position": 0,
              "duration": 0.2875
            },
            {
              "pitch": 64,
              "velocity": 65,
              "position": 1,
              "duration": 1.4645833333333333
            },
            {
              "pitch": 59,
              "velocity": 63,
              "position": 1,
              "duration": 1.475
            },
            {
              "pitch": 55,
              "velocity": 61,
              "position": 1,
              "duration": 1.4854166666666666
            },
            {
              "pitch": 55,
              "velocity": 49,
              "position": 2.5,
              "duration": 0.26666666666666666
            },
            {
              "pitch": 59,
              "velocity": 50,
              "position": 2.5,
              "duration": 0.26666666666666666
            },
            {
              "pitch": 64,
              "velocity": 44,
              "position": 2.5,
              "duration": 0.27708333333333335
            },
            {
              "pitch": 55,
              "velocity": 49,
              "position": 3.5,
              "duration": 0.26666666666666666
            },
            {
              "pitch": 59,
              "velocity": 47,
              "position": 3.5,
              "duration": 0.27708333333333335
            },
            {
              "pitch": 64,
              "velocity": 49,
              "position": 3.5,
              "duration": 0.27708333333333335
            },
            {
              "pitch": 64,
              "velocity": 61,
              "position": 4.5,
              "duration": 1.4645833333333333
            },
            {
              "pitch": 59,
              "velocity": 63,
              "position": 4.5,
              "duration": 1.475
            },
            {
              "pitch": 55,
              "velocity": 62,
              "position": 4.5,
              "duration": 1.4854166666666666
            },
            {
              "pitch": 64,
              "velocity": 61,
              "position": 6,
              "duration": 0.26666666666666666
            },
            {
              "pitch": 55,
              "velocity": 57,
              "position": 6,
              "duration": 0.27708333333333335
            },
            {
              "pitch": 59,
              "velocity": 65,
              "position": 6,
              "duration": 0.27708333333333335
            },
            {
              "pitch": 55,
              "velocity": 53,
              "position": 7,
              "duration": 0.27708333333333335
            },
            {
              "pitch": 59,
              "velocity": 49,
              "position": 7,
              "duration": 0.27708333333333335
            },
            {
              "pitch": 64,
              "velocity": 49,
              "position": 7,
              "duration": 0.27708333333333335
            },
            {
              "pitch": 59,
              "velocity": 49,
              "position": 8,
              "duration": 0.27708333333333335
            },
            {
              "pitch": 64,
              "velocity": 45,
              "position": 8,
              "duration": 0.27708333333333335
            },
            {
              "pitch": 55,
              "velocity": 52,
              "position": 8,
              "duration": 0.2875
            },
            {
              "pitch": 64,
              "velocity": 65,
              "position": 9,
              "duration": 1.4645833333333333
            },
            {
              "pitch": 59,
              "velocity": 62,
              "position": 9,
              "duration": 1.475
            },
            {
              "pitch": 55,
              "velocity": 62,
              "position": 9,
              "duration": 1.4854166666666666
            },
            {
              "pitch": 55,
              "velocity": 44,
              "position": 10.5,
              "duration": 0.27708333333333335
            },
            {
              "pitch": 59,
              "velocity": 53,
              "position": 10.5,
              "duration": 0.27708333333333335
            },
            {
              "pitch": 64,
              "velocity": 47,
              "position": 10.5,
              "duration": 0.27708333333333335
            },
            {
              "pitch": 59,
              "velocity": 52,
              "position": 11.5,
              "duration": 0.26666666666666666
            },
            {
              "pitch": 64,
              "velocity": 47,
              "position": 11.5,
              "duration": 0.26666666666666666
            },
            {
              "pitch": 55,
              "velocity": 49,
              "position": 11.5,
              "duration": 0.27708333333333335
            },
            {
              "pitch": 64,
              "velocity": 61,
              "position": 12.5,
              "duration": 1.4645833333333333
            },
            {
              "pitch": 59,
              "velocity": 61,
              "position": 12.5,
              "duration": 1.475
            },
            {
              "pitch": 55,
              "velocity": 65,
              "position": 12.5,
              "duration": 1.4854166666666666
            },
            {
              "pitch": 59,
              "velocity": 57,
              "position": 14,
              "duration": 0.26666666666666666
            },
            {
              "pitch": 64,
              "velocity": 61,
              "position": 14,
              "duration": 0.26666666666666666
            },
            {
              "pitch": 55,
              "velocity": 62,
              "position": 14,
              "duration": 0.27708333333333335
            },
            {
              "pitch": 55,
              "velocity": 51,
              "position": 15,
              "duration": 0.27708333333333335
            },
            {
              "pitch": 59,
              "velocity": 44,
              "position": 15,
              "duration": 0.27708333333333335
            },
            {
              "pitch": 64,
              "velocity": 53,
              "position": 15,
              "duration": 0.27708333333333335
            }
          ]
        },
        "3": {
          "ctab": {
            "srcChannel": 3,
            "name": "Pno B",
            "accType": "CHORD2",
            "editable": false,
            "mutedNotes": [],
            "mutedChords": [
              "7#11",
              "7b5",
              "7sus4",
              "minMaj7",
              "m7b5",
              "min",
              "Maj7#11",
              "Maj7",
              "Maj"
            ],
            "autoStart": false,
            "sourceChordNote": 0,
            "sourceChordType": "Maj7",
            "ctb2Low": null,
            "ctb2Main": {
              "ntr": "ROOT_TRANSPOSITION",
              "ntt": "CHORD",
              "bassOn": false,
              "chordRootUpperLimit": 2,
              "noteLowLimit": 54,
              "noteHighLimit": 79,
              "rtr": "PITCH_SHIFT"
            },
            "ctb2High": null
          },
          "notes": [
            {
              "pitch": 43,
              "velocity": 54,
              "position": 0,
              "duration": 0.22916666666666666
            },
            {
              "pitch": 47,
              "velocity": 54,
              "position": 0,
              "duration": 0.22916666666666666
            },
            {
              "pitch": 52,
              "velocity": 54,
              "position": 0,
              "duration": 0.22916666666666666
            },
            {
              "pitch": 43,
              "velocity": 54,
              "position": 1.5,
              "duration": 0.22916666666666666
            },
            {
              "pitch": 47,
              "velocity": 54,
              "position": 1.5,
              "duration": 0.22916666666666666
            },
            {
              "pitch": 52,
              "velocity": 54,
              "position": 1.5,
              "duration": 0.22916666666666666
            },
            {
              "pitch": 43,
              "velocity": 54,
              "position": 3,
              "duration": 3.7291666666666665
            },
            {
              "pitch": 47,
              "velocity": 54,
              "position": 3,
              "duration": 3.7291666666666665
            },
            {
              "pitch": 52,
              "velocity": 54,
              "position": 3,
              "duration": 3.7291666666666665
            },
            {
              "pitch": 43,
              "velocity": 33,
              "position": 7,
              "duration": 0.22916666666666666
            },
            {
              "pitch": 47,
              "velocity": 33,
              "position": 7,
              "duration": 0.22916666666666666
            },
            {
              "pitch": 52,
              "velocity": 33,
              "position": 7,
              "duration": 0.22916666666666666
            },
            {
              "pitch": 43,
              "velocity": 54,
              "position": 8,
              "duration": 0.22916666666666666
            },
            {
              "pitch": 47,
              "velocity": 54,
              "position": 8,
              "duration": 0.22916666666666666
            },
            {
              "pitch": 52,
              "velocity": 54,
              "position": 8,
              "duration": 0.22916666666666666
            },
            {
              "pitch": 43,
              "velocity": 54,
              "position": 9.5,
              "duration": 0.22916666666666666
            },
            {
              "pitch": 47,
              "velocity": 54,
              "position": 9.5,
              "duration": 0.22916666666666666
            },
            {
              "pitch": 52,
              "velocity": 54,
              "position": 9.5,
              "duration": 0.22916666666666666
            },
            {
              "pitch": 43,
              "velocity": 54,
              "position": 11,
              "duration": 1.7291666666666667
            },
            {
              "pitch": 47,
              "velocity": 54,
              "position": 11,
              "duration": 1.7291666666666667
            },
            {
              "pitch": 52,
              "velocity": 54,
              "position": 11,
              "duration": 1.7291666666666667
            },
            {
              "pitch": 43,
              "velocity": 54,
              "position": 13,
              "duration": 0.22916666666666666
            },
            {
              "pitch": 47,
              "velocity": 54,
              "position": 13,
              "duration": 0.22916666666666666
            },
            {
              "pitch": 52,
              "velocity": 54,
              "position": 13,
              "duration": 0.22916666666666666
            },
            {
              "pitch": 43,
              "velocity": 54,
              "position": 14.5,
              "duration": 0.22916666666666666
            },
            {
              "pitch": 47,
              "velocity": 54,
              "position": 14.5,
              "duration": 0.22916666666666666
            },
            {
              "pitch": 52,
              "velocity": 54,
              "position": 14.5,
              "duration": 0.22916666666666666
            }
          ]
        },
        "4": {
          "ctab": {
            "srcChannel": 4,
            "name": "Str B",
            "accType": "PAD",
            "editable": false,
            "mutedNotes": [],
            "mutedChords": [
              "7#11",
              "7b5",
              "7sus4",
              "minMaj7",
              "m7b5",
              "min",
              "Maj7#11",
              "Maj7",
              "Maj"
            ],
            "autoStart": false,
            "sourceChordNote": 0,
            "sourceChordType": "Maj7",
            "ctb2Low": null,
            "ctb2Main": {
              "ntr": "ROOT_FIXED",
              "ntt": "CHORD",
              "bassOn": false,
              "chordRootUpperLimit": 7,
              "noteLowLimit": 0,
              "noteHighLimit": 127,
              "rtr": "PITCH_SHIFT"
            },
            "ctb2High": null
          },
          "notes": []
        },
        "7": {
          "ctab": {
            "srcChannel": 7,
            "name": "CC_Crash",
            "accType": "RHYTHM",
            "editable": true,
            "mutedNotes": [],
            "mutedChords": [
              "1+2+5",
              "sus4",
              "1+5",
              "1+8",
              "7aug",
              "Maj7aug",
              "7(#9)",
              "7(b13)",
              "7(b9)",
              "7(13)",
              "7#11",
              "7(9)",
              "7b5",
              "7sus4",
              "7th",
              "dim7",
              "dim",
              "minMaj7(9)",
              "minMaj7",
              "min7(11)",
              "min7(9)",
              "min(9)",
              "m7b5",
              "min7",
              "min6",
              "min",
              "aug",
              "Maj6(9)",
              "Maj7(9)",
              "Maj(9)",
              "Maj7#11",
              "Maj7",
              "Maj6",
              "Maj"
            ],
            "autoStart": true,
            "sourceChordNote": 0,
            "sourceChordType": "Maj",
            "ctb2Low": null,
            "ctb2Main": {
              "ntr": "ROOT_FIXED",
              "ntt": "BYPASS",
              "bassOn": false,
              "chordRootUpperLimit": 0,
              "noteLowLimit": 0,
              "noteHighLimit": 127,
              "rtr": "RETRIGGER"
            },
            "ctb2High": null
          },
          "notes": []
        },
        "8": {
          "ctab": {
            "srcChannel": 8,
            "name": "Perc",
            "accType": "SUBRHYTHM",
            "editable": false,
            "mutedNotes": [],
            "mutedChords": [],
            "autoStart": true,
            "sourceChordNote": 0,
            "sourceChordType": "Maj7",
            "ctb2Low": null,
            "ctb2Main": {
              "ntr": "ROOT_FIXED",
              "ntt": "BYPASS",
              "bassOn": false,
              "chordRootUpperLimit": 6,
              "noteLowLimit": 0,
              "noteHighLimit": 127,
              "rtr": "PITCH_SHIFT"
            },
            "ctb2High": null
          },
          "notes": []
        },
        "9": {
          "ctab": {
            "srcChannel": 9,
            "name": "Drums",
            "accType": "RHYTHM",
            "editable": false,
            "mutedNotes": [],
            "mutedChords": [],
            "autoStart": true,
            "sourceChordNote": 0,
            "sourceChordType": "Maj7",
            "ctb2Low": null,
            "ctb2Main": {
              "ntr": "ROOT_FIXED",
              "ntt": "BYPASS",
              "bassOn": false,
              "chordRootUpperLimit": 6,
              "noteLowLimit": 0,
              "noteHighLimit": 127,
              "rtr": "PITCH_SHIFT"
            },
            "ctb2High": null
          },
          "notes": [
            {
              "pitch": 33,
              "velocity": 72,
              "position": 0,
              "duration": 0.00625
            },
            {
              "pitch": 37,
              "velocity": 80,
              "position": 0,
              "duration": 0.00625
            },
            {
              "pitch": 42,
              "velocity": 90,
              "position": 0,
              "duration": 0.00625
            },
            {
              "pitch": 42,
              "velocity": 30,
              "position": 0.5,
              "duration": 0.00625
            },
            {
              "pitch": 42,
              "velocity": 90,
              "position": 1,
              "duration": 0.00625
            },
            {
              "pitch": 33,
              "velocity": 36,
              "position": 1.5,
              "duration": 0.00625
            },
            {
              "pitch": 37,
              "velocity": 80,
              "position": 1.5,
              "duration": 0.00625
            },
            {
              "pitch": 42,
              "velocity": 30,
              "position": 1.5,
              "duration": 0.00625
            },
            {
              "pitch": 33,
              "velocity": 72,
              "position": 2,
              "duration": 0.00625
            },
            {
              "pitch": 42,
              "velocity": 30,
              "position": 2,
              "duration": 0.00625
            },
            {
              "pitch": 42,
              "velocity": 90,
              "position": 2.5,
              "duration": 0.00625
            },
            {
              "pitch": 37,
              "velocity": 80,
              "position": 3,
              "duration": 0.00625
            },
            {
              "pitch": 42,
              "velocity": 30,
              "position": 3,
              "duration": 0.00625
            },
            {
              "pitch": 33,
              "velocity": 36,
              "position": 3.5,
              "duration": 0.00625
            },
            {
              "pitch": 42,
              "velocity": 90,
              "position": 3.5,
              "duration": 0.00625
            },
            {
              "pitch": 33,
              "velocity": 72,
              "position": 4,
              "duration": 0.00625
            },
            {
              "pitch": 42,
              "velocity": 30,
              "position": 4,
              "duration": 0.00625
            },
            {
              "pitch": 42,
              "velocity": 90,
              "position": 4.5,
              "duration": 0.00625
            },
            {
              "pitch": 37,
              "velocity": 80,
              "position": 5,
              "duration": 0.00625
            },
            {
              "pitch": 42,
              "velocity": 30,
              "position": 5,
              "duration": 0.00625
            },
            {
              "pitch": 33,
              "velocity": 36,
              "position": 5.5,
              "duration": 0.00625
            },
            {
              "pitch": 42,
              "velocity": 30,
              "position": 5.5,
              "duration": 0.00625
            },
            {
              "pitch": 33,
              "velocity": 72,
              "position": 6,
              "duration": 0.00625
            },
            {
              "pitch": 42,
              "velocity": 90,
              "position": 6,
              "duration": 0.00625
            },
            {
              "pitch": 37,
              "velocity": 80,
              "position": 6.5,
              "duration": 0.00625
            },
            {
              "pitch": 42,
              "velocity": 30,
              "position": 6.5,
              "duration": 0.00625
            },
            {
              "pitch": 42,
              "velocity": 90,
              "position": 7,
              "duration": 0.00625
            },
            {
              "pitch": 33,
              "velocity": 36,
              "position": 7.5,
              "duration": 0.00625
            },
            {
              "pitch": 42,
              "velocity": 30,
              "position": 7.5,
              "duration": 0.00625
            },
            {
              "pitch": 33,
              "velocity": 72,
              "position": 8,
              "duration": 0.00625
            },
            {
              "pitch": 37,
              "velocity": 80,
              "position": 8,
              "duration": 0.00625
            },
            {
              "pitch": 42,
              "velocity": 90,
              "position": 8,
              "duration": 0.00625
            },
            {
              "pitch": 42,
              "velocity": 30,
              "position": 8.5,
              "duration": 0.00625
            },
            {
              "pitch": 42,
              "velocity": 90,
              "position": 9,
              "duration": 0.00625
            },
            {
              "pitch": 33,
              "velocity": 36,
              "position": 9.5,
              "duration": 0.00625
            },
            {
              "pitch": 37,
              "velocity": 80,
              "position": 9.5,
              "duration": 0.00625
            },
            {
              "pitch": 42,
              "velocity": 30,
              "position": 9.5,
              "duration": 0.00625
            },
            {
              "pitch": 33,
              "velocity": 72,
              "position": 10,
              "duration": 0.00625
            },
            {
              "pitch": 42,
              "velocity": 30,
              "position": 10,
              "duration": 0.00625
            },
            {
              "pitch": 42,
              "velocity": 90,
              "position": 10.5,
              "duration": 0.00625
            },
            {
              "pitch": 37,
              "velocity": 80,
              "position": 11,
              "duration": 0.00625
            },
            {
              "pitch": 42,
              "velocity": 30,
              "position": 11,
              "duration": 0.00625
            },
            {
              "pitch": 33,
              "velocity": 36,
              "position": 11.5,
              "duration": 0.00625
            },
            {
              "pitch": 42,
              "velocity": 90,
              "position": 11.5,
              "duration": 0.00625
            },
            {
              "pitch": 33,
              "velocity": 72,
              "position": 12,
              "duration": 0.00625
            },
            {
              "pitch": 42,
              "velocity": 30,
              "position": 12,
              "duration": 0.00625
            },
            {
              "pitch": 42,
              "velocity": 90,
              "position": 12.5,
              "duration": 0.00625
            },
            {
              "pitch": 37,
              "velocity": 80,
              "position": 13,
              "duration": 0.00625
            },
            {
              "pitch": 42,
              "velocity": 30,
              "position": 13,
              "duration": 0.00625
            },
            {
              "pitch": 33,
              "velocity": 36,
              "position": 13.5,
              "duration": 0.00625
            },
            {
              "pitch": 42,
              "velocity": 30,
              "position": 13.5,
              "duration": 0.00625
            },
            {
              "pitch": 33,
              "velocity": 72,
              "position": 14,
              "duration": 0.00625
            },
            {
              "pitch": 42,
              "velocity": 90,
              "position": 14,
              "duration": 0.00625
            },
            {
              "pitch": 37,
              "velocity": 80,
              "position": 14.5,
              "duration": 0.00625
            },
            {
              "pitch": 42,
              "velocity": 30,
              "position": 14.5,
              "duration": 0.00625
            },
            {
              "pitch": 42,
              "velocity": 90,
              "position": 15,
              "duration": 0.00625
            },
            {
              "pitch": 33,
              "velocity": 36,
              "position": 15.5,
              "duration": 0.00625
            },
            {
              "pitch": 42,
              "velocity": 30,
              "position": 15.5,
              "duration": 0.00625
            }
          ]
        },
        "10": {
          "ctab": {
            "srcChannel": 10,
            "name": "Bass",
            "accType": "BASS",
            "editable": false,
            "mutedNotes": [],
            "mutedChords": [],
            "autoStart": false,
            "sourceChordNote": 0,
            "sourceChordType": "Maj7",
            "ctb2Low": null,
            "ctb2Main": {
              "ntr": "ROOT_TRANSPOSITION",
              "ntt": "MELODY",
              "bassOn": true,
              "chordRootUpperLimit": 8,
              "noteLowLimit": 28,
              "noteHighLimit": 127,
              "rtr": "PITCH_SHIFT_TO_ROOT"
            },
            "ctb2High": null
          },
          "notes": [
            {
              "pitch": 24,
              "velocity": 98,
              "position": 0,
              "duration": 1.1104166666666666
            },
            {
              "pitch": 31,
              "velocity": 72,
              "position": 1.5,
              "duration": 0.11041666666666666
            },
            {
              "pitch": 31,
              "velocity": 98,
              "position": 2,
              "duration": 1.1104166666666666
            },
            {
              "pitch": 24,
              "velocity": 72,
              "position": 3.5,
              "duration": 0.11041666666666666
            },
            {
              "pitch": 24,
              "velocity": 98,
              "position": 4,
              "duration": 1.1104166666666666
            },
            {
              "pitch": 31,
              "velocity": 72,
              "position": 5.5,
              "duration": 0.11041666666666666
            },
            {
              "pitch": 31,
              "velocity": 98,
              "position": 6,
              "duration": 1.1104166666666666
            },
            {
              "pitch": 24,
              "velocity": 72,
              "position": 7.5,
              "duration": 0.11041666666666666
            },
            {
              "pitch": 24,
              "velocity": 98,
              "position": 8,
              "duration": 1.1104166666666666
            },
            {
              "pitch": 31,
              "velocity": 72,
              "position": 9.5,
              "duration": 0.11041666666666666
            },
            {
              "pitch": 31,
              "velocity": 98,
              "position": 10,
              "duration": 1.1104166666666666
            },
            {
              "pitch": 24,
              "velocity": 72,
              "position": 11.5,
              "duration": 0.11041666666666666
            },
            {
              "pitch": 24,
              "velocity": 98,
              "position": 12,
              "duration": 1.1104166666666666
            },
            {
              "pitch": 31,
              "velocity": 72,
              "position": 13.5,
              "duration": 0.11041666666666666
            },
            {
              "pitch": 31,
              "velocity": 98,
              "position": 14,
              "duration": 1.1104166666666666
            },
            {
              "pitch": 24,
              "velocity": 72,
              "position": 15.5,
              "duration": 0.11041666666666666
            }
          ]
        },
        "11": {
          "ctab": {
            "srcChannel": 11,
            "name": "Gt A",
            "accType": "CHORD1",
            "editable": false,
            "mutedNotes": [],
            "mutedChords": [
              "1+2+5",
              "sus4",
              "1+5",
              "1+8",
              "7aug",
              "Maj7aug",
              "7(#9)",
              "7(b13)",
              "7(b9)",
              "7(13)",
              "7(9)",
              "7th",
              "dim7",
              "dim",
              "minMaj7(9)",
              "min7(11)",
              "min7(9)",
              "min(9)",
              "min7",
              "min6",
              "aug",
              "Maj6(9)",
              "Maj7(9)",
              "Maj(9)",
              "Maj6"
            ],
            "autoStart": false,
            "sourceChordNote": 0,
            "sourceChordType": "min7",
            "ctb2Low": null,
            "ctb2Main": {
              "ntr": "ROOT_TRANSPOSITION",
              "ntt": "CHORD",
              "bassOn": false,
              "chordRootUpperLimit": 7,
              "noteLowLimit": 54,
              "noteHighLimit": 65,
              "rtr": "PITCH_SHIFT"
            },
            "ctb2High": null
          },
          "notes": [
            {
              "pitch": 60,
              "velocity": 36,
              "position": 0,
              "duration": 0.26666666666666666
            },
            {
              "pitch": 63,
              "velocity": 53,
              "position": 0,
              "duration": 0.26666666666666666
            },
            {
              "pitch": 67,
              "velocity": 57,
              "position": 0,
              "duration": 0.26666666666666666
            },
            {
              "pitch": 57,
              "velocity": 57,
              "position": 0,
              "duration": 0.2875
            },
            {
              "pitch": 60,
              "velocity": 47,
              "position": 1,
              "duration": 1.4645833333333333
            },
            {
              "pitch": 63,
              "velocity": 69,
              "position": 1,
              "duration": 1.4645833333333333
            },
            {
              "pitch": 57,
              "velocity": 67,
              "position": 1,
              "duration": 1.475
            },
            {
              "pitch": 67,
              "velocity": 65,
              "position": 1,
              "duration": 1.4854166666666666
            },
            {
              "pitch": 57,
              "velocity": 54,
              "position": 2.5,
              "duration": 0.26666666666666666
            },
            {
              "pitch": 67,
              "velocity": 53,
              "position": 2.5,
              "duration": 0.26666666666666666
            },
            {
              "pitch": 60,
              "velocity": 48,
              "position": 2.5,
              "duration": 0.27708333333333335
            },
            {
              "pitch": 63,
              "velocity": 48,
              "position": 2.5,
              "duration": 0.27708333333333335
            },
            {
              "pitch": 67,
              "velocity": 53,
              "position": 3.5,
              "duration": 0.26666666666666666
            },
            {
              "pitch": 57,
              "velocity": 51,
              "position": 3.5,
              "duration": 0.27708333333333335
            },
            {
              "pitch": 60,
              "velocity": 36,
              "position": 3.5,
              "duration": 0.27708333333333335
            },
            {
              "pitch": 63,
              "velocity": 53,
              "position": 3.5,
              "duration": 0.27708333333333335
            },
            {
              "pitch": 60,
              "velocity": 45,
              "position": 4.5,
              "duration": 1.4645833333333333
            },
            {
              "pitch": 63,
              "velocity": 65,
              "position": 4.5,
              "duration": 1.4645833333333333
            },
            {
              "pitch": 57,
              "velocity": 67,
              "position": 4.5,
              "duration": 1.475
            },
            {
              "pitch": 67,
              "velocity": 66,
              "position": 4.5,
              "duration": 1.4854166666666666
            },
            {
              "pitch": 62,
              "velocity": 65,
              "position": 6,
              "duration": 0.26666666666666666
            },
            {
              "pitch": 63,
              "velocity": 65,
              "position": 6,
              "duration": 0.26666666666666666
            },
            {
              "pitch": 58,
              "velocity": 69,
              "position": 6,
              "duration": 0.27708333333333335
            },
            {
              "pitch": 67,
              "velocity": 61,
              "position": 6,
              "duration": 0.27708333333333335
            },
            {
              "pitch": 58,
              "velocity": 53,
              "position": 7,
              "duration": 0.27708333333333335
            },
            {
              "pitch": 62,
              "velocity": 53,
              "position": 7,
              "duration": 0.27708333333333335
            },
            {
              "pitch": 63,
              "velocity": 53,
              "position": 7,
              "duration": 0.27708333333333335
            },
            {
              "pitch": 67,
              "velocity": 57,
              "position": 7,
              "duration": 0.27708333333333335
            },
            {
              "pitch": 57,
              "velocity": 53,
              "position": 8,
              "duration": 0.27708333333333335
            },
            {
              "pitch": 60,
              "velocity": 33,
              "position": 8,
              "duration": 0.27708333333333335
            },
            {
              "pitch": 63,
              "velocity": 49,
              "position": 8,
              "duration": 0.27708333333333335
            },
            {
              "pitch": 67,
              "velocity": 56,
              "position": 8,
              "duration": 0.2875
            },
            {
              "pitch": 60,
              "velocity": 47,
              "position": 9,
              "duration": 1.4645833333333333
            },
            {
              "pitch": 63,
              "velocity": 69,
              "position": 9,
              "duration": 1.4645833333333333
            },
            {
              "pitch": 57,
              "velocity": 66,
              "position": 9,
              "duration": 1.475
            },
            {
              "pitch": 67,
              "velocity": 66,
              "position": 9,
              "duration": 1.4854166666666666
            },
            {
              "pitch": 57,
              "velocity": 57,
              "position": 10.5,
              "duration": 0.27708333333333335
            },
            {
              "pitch": 60,
              "velocity": 51,
              "position": 10.5,
              "duration": 0.27708333333333335
            },
            {
              "pitch": 63,
              "velocity": 51,
              "position": 10.5,
              "duration": 0.27708333333333335
            },
            {
              "pitch": 67,
              "velocity": 48,
              "position": 10.5,
              "duration": 0.27708333333333335
            },
            {
              "pitch": 57,
              "velocity": 56,
              "position": 11.5,
              "duration": 0.26666666666666666
            },
            {
              "pitch": 60,
              "velocity": 34,
              "position": 11.5,
              "duration": 0.26666666666666666
            },
            {
              "pitch": 63,
              "velocity": 51,
              "position": 11.5,
              "duration": 0.26666666666666666
            },
            {
              "pitch": 67,
              "velocity": 53,
              "position": 11.5,
              "duration": 0.27708333333333335
            },
            {
              "pitch": 60,
              "velocity": 44,
              "position": 12.5,
              "duration": 1.4645833333333333
            },
            {
              "pitch": 63,
              "velocity": 65,
              "position": 12.5,
              "duration": 1.4645833333333333
            },
            {
              "pitch": 57,
              "velocity": 65,
              "position": 12.5,
              "duration": 1.475
            },
            {
              "pitch": 67,
              "velocity": 69,
              "position": 12.5,
              "duration": 1.4854166666666666
            },
            {
              "pitch": 58,
              "velocity": 61,
              "position": 14,
              "duration": 0.26666666666666666
            },
            {
              "pitch": 62,
              "velocity": 65,
              "position": 14,
              "duration": 0.26666666666666666
            },
            {
              "pitch": 63,
              "velocity": 65,
              "position": 14,
              "duration": 0.26666666666666666
            },
            {
              "pitch": 67,
              "velocity": 66,
              "position": 14,
              "duration": 0.27708333333333335
            },
            {
              "pitch": 58,
              "velocity": 48,
              "position": 15,
              "duration": 0.27708333333333335
            },
            {
              "pitch": 62,
              "velocity": 57,
              "position": 15,
              "duration": 0.27708333333333335
            },
            {
              "pitch": 63,
              "velocity": 57,
              "position": 15,
              "duration": 0.27708333333333335
            },
            {
              "pitch": 67,
              "velocity": 55,
              "position": 15,
              "duration": 0.27708333333333335
            }
          ]
        },
        "12": {
          "ctab": {
            "srcChannel": 12,
            "name": "Pno A",
            "accType": "CHORD2",
            "editable": false,
            "mutedNotes": [],
            "mutedChords": [
              "1+2+5",
              "sus4",
              "1+5",
              "1+8",
              "7aug",
              "Maj7aug",
              "7(#9)",
              "7(b13)",
              "7(b9)",
              "7(13)",
              "7(9)",
              "7th",
              "dim7",
              "dim",
              "minMaj7(9)",
              "min7(11)",
              "min7(9)",
              "min(9)",
              "min7",
              "min6",
              "aug",
              "Maj6(9)",
              "Maj7(9)",
              "Maj(9)",
              "Maj6"
            ],
            "autoStart": false,
            "sourceChordNote": 0,
            "sourceChordType": "min7",
            "ctb2Low": null,
            "ctb2Main": {
              "ntr": "ROOT_TRANSPOSITION",
              "ntt": "CHORD",
              "bassOn": false,
              "chordRootUpperLimit": 2,
              "noteLowLimit": 54,
              "noteHighLimit": 79,
              "rtr": "PITCH_SHIFT"
            },
            "ctb2High": null
          },
          "notes": [
            {
              "pitch": 45,
              "velocity": 54,
              "position": 0,
              "duration": 0.22916666666666666
            },
            {
              "pitch": 48,
              "velocity": 54,
              "position": 0,
              "duration": 0.22916666666666666
            },
            {
              "pitch": 51,
              "velocity": 54,
              "position": 0,
              "duration": 0.22916666666666666
            },
            {
              "pitch": 55,
              "velocity": 54,
              "position": 0,
              "duration": 0.22916666666666666
            },
            {
              "pitch": 45,
              "velocity": 54,
              "position": 1.5,
              "duration": 0.22916666666666666
            },
            {
              "pitch": 48,
              "velocity": 54,
              "position": 1.5,
              "duration": 0.22916666666666666
            },
            {
              "pitch": 51,
              "velocity": 54,
              "position": 1.5,
              "duration": 0.22916666666666666
            },
            {
              "pitch": 55,
              "velocity": 54,
              "position": 1.5,
              "duration": 0.22916666666666666
            },
            {
              "pitch": 45,
              "velocity": 54,
              "position": 3,
              "duration": 3.7291666666666665
            },
            {
              "pitch": 48,
              "velocity": 54,
              "position": 3,
              "duration": 3.7291666666666665
            },
            {
              "pitch": 51,
              "velocity": 54,
              "position": 3,
              "duration": 3.7291666666666665
            },
            {
              "pitch": 55,
              "velocity": 54,
              "position": 3,
              "duration": 3.7291666666666665
            },
            {
              "pitch": 46,
              "velocity": 33,
              "position": 7,
              "duration": 0.22916666666666666
            },
            {
              "pitch": 50,
              "velocity": 33,
              "position": 7,
              "duration": 0.22916666666666666
            },
            {
              "pitch": 51,
              "velocity": 33,
              "position": 7,
              "duration": 0.22916666666666666
            },
            {
              "pitch": 55,
              "velocity": 33,
              "position": 7,
              "duration": 0.22916666666666666
            },
            {
              "pitch": 45,
              "velocity": 54,
              "position": 8,
              "duration": 0.22916666666666666
            },
            {
              "pitch": 48,
              "velocity": 54,
              "position": 8,
              "duration": 0.22916666666666666
            },
            {
              "pitch": 51,
              "velocity": 54,
              "position": 8,
              "duration": 0.22916666666666666
            },
            {
              "pitch": 55,
              "velocity": 54,
              "position": 8,
              "duration": 0.22916666666666666
            },
            {
              "pitch": 45,
              "velocity": 54,
              "position": 9.5,
              "duration": 0.22916666666666666
            },
            {
              "pitch": 48,
              "velocity": 54,
              "position": 9.5,
              "duration": 0.22916666666666666
            },
            {
              "pitch": 51,
              "velocity": 54,
              "position": 9.5,
              "duration": 0.22916666666666666
            },
            {
              "pitch": 55,
              "velocity": 54,
              "position": 9.5,
              "duration": 0.22916666666666666
            },
            {
              "pitch": 45,
              "velocity": 54,
              "position": 11,
              "duration": 1.7291666666666667
            },
            {
              "pitch": 48,
              "velocity": 54,
              "position": 11,
              "duration": 1.7291666666666667
            },
            {
              "pitch": 51,
              "velocity": 54,
              "position": 11,
              "duration": 1.7291666666666667
            },
            {
              "pitch": 55,
              "velocity": 54,
              "position": 11,
              "duration": 1.7291666666666667
            },
            {
              "pitch": 45,
              "velocity": 54,
              "position": 13,
              "duration": 0.22916666666666666
            },
            {
              "pitch": 48,
              "velocity": 54,
              "position": 13,
              "duration": 0.22916666666666666
            },
            {
              "pitch": 51,
              "velocity": 54,
              "position": 13,
              "duration": 0.22916666666666666
            },
            {
              "pitch": 55,
              "velocity": 54,
              "position": 13,
              "duration": 0.22916666666666666
            },
            {
              "pitch": 46,
              "velocity": 54,
              "position": 14.5,
              "duration": 0.22916666666666666
            },
            {
              "pitch": 50,
              "velocity": 54,
              "position": 14.5,
              "duration": 0.22916666666666666
            },
            {
              "pitch": 51,
              "velocity": 54,
              "position": 14.5,
              "duration": 0.22916666666666666
            },
            {
              "pitch": 55,
              "velocity": 54,
              "position": 14.5,
              "duration": 0.22916666666666666
            }
          ]
        },
        "13": {
          "ctab": {
            "srcChannel": 13,
            "name": "Str A",
            "accType": "PAD",
            "editable": false,
            "mutedNotes": [],
            "mutedChords": [
              "1+2+5",
              "sus4",
              "1+5",
              "1+8",
              "7aug",
              "Maj7aug",
              "7(#9)",
              "7(b13)",
              "7(b9)",
              "7(13)",
              "7(9)",
              "7th",
              "dim7",
              "dim",
              "minMaj7(9)",
              "min7(11)",
              "min7(9)",
              "min(9)",
              "min7",
              "min6",
              "aug",
              "Maj6(9)",
              "Maj7(9)",
              "Maj(9)",
              "Maj6"
            ],
            "autoStart": false,
            "sourceChordNote": 0,
            "sourceChordType": "min7",
            "ctb2Low": null,
            "ctb2Main": {
              "ntr": "ROOT_TRANSPOSITION",
              "ntt": "CHORD",
              "bassOn": false,
              "chordRootUpperLimit": 7,
              "noteLowLimit": 54,
              "noteHighLimit": 65,
              "rtr": "PITCH_SHIFT"
            },
            "ctb2High": null
          },
          "notes": []
        }
      }
    },
    "Main_B": {
      "type": "Main_B",
      "sizeInBeats": 16,
      "channels": {
        "2": {
          "ctab": {
            "srcChannel": 2,
            "name": "Gt B",
            "accType": "CHORD1",
            "editable": false,
            "mutedNotes": [],
            "mutedChords": [
              "7#11",
              "7b5",
              "7sus4",
              "minMaj7",
              "m7b5",
              "min",
              "Maj7#11",
              "Maj7",
              "Maj"
            ],
            "autoStart": false,
            "sourceChordNote": 0,
            "sourceChordType": "Maj7",
            "ctb2Low": null,
            "ctb2Main": {
              "ntr": "ROOT_FIXED",
              "ntt": "CHORD",
              "bassOn": false,
              "chordRootUpperLimit": 7,
              "noteLowLimit": 0,
              "noteHighLimit": 127,
              "rtr": "PITCH_SHIFT"
            },
            "ctb2High": null
          },
          "notes": [
            {
              "pitch": 55,
              "velocity": 53,
              "position": 0,
              "duration": 0.27708333333333335
            },
            {
              "pitch": 59,
              "velocity": 53,
              "position": 0,
              "duration": 0.27708333333333335
            },
            {
              "pitch": 64,
              "velocity": 53,
              "position": 0,
              "duration": 0.27708333333333335
            },
            {
              "pitch": 55,
              "velocity": 36,
              "position": 1,
              "duration": 0.45416666666666666
            },
            {
              "pitch": 64,
              "velocity": 34,
              "position": 1,
              "duration": 0.46458333333333335
            },
            {
              "pitch": 59,
              "velocity": 27,
              "position": 1,
              "duration": 0.48541666666666666
            },
            {
              "pitch": 55,
              "velocity": 69,
              "position": 1.5,
              "duration": 0.225
            },
            {
              "pitch": 59,
              "velocity": 63,
              "position": 1.5,
              "duration": 0.23541666666666666
            },
            {
              "pitch": 64,
              "velocity": 65,
              "position": 1.5,
              "duration": 0.23541666666666666
            },
            {
              "pitch": 59,
              "velocity": 55,
              "position": 2.5,
              "duration": 0.26666666666666666
            },
            {
              "pitch": 64,
              "velocity": 52,
              "position": 2.5,
              "duration": 0.27708333333333335
            },
            {
              "pitch": 55,
              "velocity": 58,
              "position": 2.5,
              "duration": 0.2875
            },
            {
              "pitch": 59,
              "velocity": 60,
              "position": 3.5,
              "duration": 0.26666666666666666
            },
            {
              "pitch": 55,
              "velocity": 60,
              "position": 3.5,
              "duration": 0.27708333333333335
            },
            {
              "pitch": 64,
              "velocity": 53,
              "position": 3.5,
              "duration": 0.27708333333333335
            },
            {
              "pitch": 55,
              "velocity": 65,
              "position": 4.5,
              "duration": 0.225
            },
            {
              "pitch": 64,
              "velocity": 65,
              "position": 4.5,
              "duration": 0.225
            },
            {
              "pitch": 59,
              "velocity": 68,
              "position": 4.5,
              "duration": 0.23541666666666666
            },
            {
              "pitch": 55,
              "velocity": 36,
              "position": 5.5,
              "duration": 0.4895833333333333
            },
            {
              "pitch": 59,
              "velocity": 29,
              "position": 5.5,
              "duration": 0.4895833333333333
            },
            {
              "pitch": 64,
              "velocity": 36,
              "position": 5.5,
              "duration": 0.4895833333333333
            },
            {
              "pitch": 55,
              "velocity": 69,
              "position": 6,
              "duration": 0.27708333333333335
            },
            {
              "pitch": 59,
              "velocity": 65,
              "position": 6,
              "duration": 0.27708333333333335
            },
            {
              "pitch": 64,
              "velocity": 65,
              "position": 6,
              "duration": 0.27708333333333335
            },
            {
              "pitch": 55,
              "velocity": 57,
              "position": 7,
              "duration": 0.26666666666666666
            },
            {
              "pitch": 59,
              "velocity": 57,
              "position": 7,
              "duration": 0.26666666666666666
            },
            {
              "pitch": 64,
              "velocity": 53,
              "position": 7,
              "duration": 0.2875
            },
            {
              "pitch": 55,
              "velocity": 58,
              "position": 8,
              "duration": 0.27708333333333335
            },
            {
              "pitch": 59,
              "velocity": 60,
              "position": 8,
              "duration": 0.27708333333333335
            },
            {
              "pitch": 64,
              "velocity": 53,
              "position": 8,
              "duration": 0.27708333333333335
            },
            {
              "pitch": 55,
              "velocity": 27,
              "position": 9,
              "duration": 0.4895833333333333
            },
            {
              "pitch": 59,
              "velocity": 31,
              "position": 9,
              "duration": 0.4895833333333333
            },
            {
              "pitch": 64,
              "velocity": 29,
              "position": 9,
              "duration": 0.4895833333333333
            },
            {
              "pitch": 59,
              "velocity": 64,
              "position": 9.5,
              "duration": 0.225
            },
            {
              "pitch": 55,
              "velocity": 69,
              "position": 9.5,
              "duration": 0.23541666666666666
            },
            {
              "pitch": 64,
              "velocity": 69,
              "position": 9.5,
              "duration": 0.23541666666666666
            },
            {
              "pitch": 55,
              "velocity": 55,
              "position": 10.5,
              "duration": 0.26666666666666666
            },
            {
              "pitch": 64,
              "velocity": 53,
              "position": 10.5,
              "duration": 0.26666666666666666
            },
            {
              "pitch": 59,
              "velocity": 53,
              "position": 10.5,
              "duration": 0.27708333333333335
            },
            {
              "pitch": 64,
              "velocity": 60,
              "position": 11.5,
              "duration": 0.26666666666666666
            },
            {
              "pitch": 55,
              "velocity": 53,
              "position": 11.5,
              "duration": 0.27708333333333335
            },
            {
              "pitch": 59,
              "velocity": 55,
              "position": 11.5,
              "duration": 0.27708333333333335
            },
            {
              "pitch": 55,
              "velocity": 65,
              "position": 12.5,
              "duration": 0.45416666666666666
            },
            {
              "pitch": 64,
              "velocity": 70,
              "position": 12.5,
              "duration": 0.46458333333333335
            },
            {
              "pitch": 59,
              "velocity": 69,
              "position": 12.5,
              "duration": 0.48541666666666666
            },
            {
              "pitch": 55,
              "velocity": 27,
              "position": 13,
              "duration": 0.12083333333333333
            },
            {
              "pitch": 59,
              "velocity": 17,
              "position": 13,
              "duration": 0.12083333333333333
            },
            {
              "pitch": 64,
              "velocity": 30,
              "position": 13,
              "duration": 0.13125
            },
            {
              "pitch": 55,
              "velocity": 38,
              "position": 13.5,
              "duration": 0.12083333333333333
            },
            {
              "pitch": 59,
              "velocity": 36,
              "position": 13.5,
              "duration": 0.12083333333333333
            },
            {
              "pitch": 64,
              "velocity": 28,
              "position": 13.5,
              "duration": 0.13125
            },
            {
              "pitch": 55,
              "velocity": 69,
              "position": 14,
              "duration": 0.26666666666666666
            },
            {
              "pitch": 59,
              "velocity": 69,
              "position": 14,
              "duration": 0.27708333333333335
            },
            {
              "pitch": 64,
              "velocity": 69,
              "position": 14,
              "duration": 0.27708333333333335
            },
            {
              "pitch": 59,
              "velocity": 58,
              "position": 15,
              "duration": 0.26666666666666666
            },
            {
              "pitch": 55,
              "velocity": 57,
              "position": 15,
              "duration": 0.27708333333333335
            },
            {
              "pitch": 64,
              "velocity": 55,
              "position": 15,
              "duration": 0.27708333333333335
            }
          ]
        },
        "3": {
          "ctab": {
            "srcChannel": 3,
            "name": "Pno B",
            "accType": "CHORD2",
            "editable": false,
            "mutedNotes": [],
            "mutedChords": [
              "7#11",
              "7b5",
              "7sus4",
              "minMaj7",
              "m7b5",
              "min",
              "Maj7#11",
              "Maj7",
              "Maj"
            ],
            "autoStart": false,
            "sourceChordNote": 0,
            "sourceChordType": "Maj7",
            "ctb2Low": null,
            "ctb2Main": {
              "ntr": "ROOT_TRANSPOSITION",
              "ntt": "CHORD",
              "bassOn": false,
              "chordRootUpperLimit": 2,
              "noteLowLimit": 54,
              "noteHighLimit": 79,
              "rtr": "PITCH_SHIFT"
            },
            "ctb2High": null
          },
          "notes": [
            {
              "pitch": 43,
              "velocity": 56,
              "position": 0,
              "duration": 0.22916666666666666
            },
            {
              "pitch": 47,
              "velocity": 56,
              "position": 0,
              "duration": 0.22916666666666666
            },
            {
              "pitch": 52,
              "velocity": 56,
              "position": 0,
              "duration": 0.22916666666666666
            },
            {
              "pitch": 83,
              "velocity": 61,
              "position": 0,
              "duration": 0.22916666666666666
            },
            {
              "pitch": 88,
              "velocity": 61,
              "position": 0,
              "duration": 0.22916666666666666
            },
            {
              "pitch": 91,
              "velocity": 61,
              "position": 0,
              "duration": 0.22916666666666666
            },
            {
              "pitch": 43,
              "velocity": 50,
              "position": 1.5,
              "duration": 0.22916666666666666
            },
            {
              "pitch": 47,
              "velocity": 50,
              "position": 1.5,
              "duration": 0.22916666666666666
            },
            {
              "pitch": 52,
              "velocity": 50,
              "position": 1.5,
              "duration": 0.22916666666666666
            },
            {
              "pitch": 83,
              "velocity": 55,
              "position": 1.5,
              "duration": 0.22916666666666666
            },
            {
              "pitch": 88,
              "velocity": 55,
              "position": 1.5,
              "duration": 0.22916666666666666
            },
            {
              "pitch": 91,
              "velocity": 55,
              "position": 1.5,
              "duration": 0.22916666666666666
            },
            {
              "pitch": 43,
              "velocity": 56,
              "position": 3,
              "duration": 1.4895833333333333
            },
            {
              "pitch": 47,
              "velocity": 56,
              "position": 3,
              "duration": 1.4895833333333333
            },
            {
              "pitch": 52,
              "velocity": 56,
              "position": 3,
              "duration": 1.4895833333333333
            },
            {
              "pitch": 83,
              "velocity": 61,
              "position": 3,
              "duration": 1.4895833333333333
            },
            {
              "pitch": 88,
              "velocity": 61,
              "position": 3,
              "duration": 1.4895833333333333
            },
            {
              "pitch": 91,
              "velocity": 61,
              "position": 3,
              "duration": 1.4895833333333333
            },
            {
              "pitch": 43,
              "velocity": 56,
              "position": 5,
              "duration": 0.22916666666666666
            },
            {
              "pitch": 47,
              "velocity": 56,
              "position": 5,
              "duration": 0.22916666666666666
            },
            {
              "pitch": 52,
              "velocity": 56,
              "position": 5,
              "duration": 0.22916666666666666
            },
            {
              "pitch": 83,
              "velocity": 61,
              "position": 5,
              "duration": 0.22916666666666666
            },
            {
              "pitch": 88,
              "velocity": 61,
              "position": 5,
              "duration": 0.22916666666666666
            },
            {
              "pitch": 91,
              "velocity": 61,
              "position": 5,
              "duration": 0.22916666666666666
            },
            {
              "pitch": 43,
              "velocity": 48,
              "position": 6.5,
              "duration": 0.22916666666666666
            },
            {
              "pitch": 47,
              "velocity": 48,
              "position": 6.5,
              "duration": 0.22916666666666666
            },
            {
              "pitch": 52,
              "velocity": 48,
              "position": 6.5,
              "duration": 0.22916666666666666
            },
            {
              "pitch": 83,
              "velocity": 53,
              "position": 6.5,
              "duration": 0.22916666666666666
            },
            {
              "pitch": 88,
              "velocity": 53,
              "position": 6.5,
              "duration": 0.22916666666666666
            },
            {
              "pitch": 91,
              "velocity": 53,
              "position": 6.5,
              "duration": 0.22916666666666666
            },
            {
              "pitch": 43,
              "velocity": 56,
              "position": 8,
              "duration": 0.22916666666666666
            },
            {
              "pitch": 47,
              "velocity": 56,
              "position": 8,
              "duration": 0.22916666666666666
            },
            {
              "pitch": 52,
              "velocity": 56,
              "position": 8,
              "duration": 0.22916666666666666
            },
            {
              "pitch": 83,
              "velocity": 61,
              "position": 8,
              "duration": 0.22916666666666666
            },
            {
              "pitch": 88,
              "velocity": 61,
              "position": 8,
              "duration": 0.22916666666666666
            },
            {
              "pitch": 91,
              "velocity": 61,
              "position": 8,
              "duration": 0.22916666666666666
            },
            {
              "pitch": 43,
              "velocity": 54,
              "position": 9.5,
              "duration": 0.22916666666666666
            },
            {
              "pitch": 47,
              "velocity": 54,
              "position": 9.5,
              "duration": 0.22916666666666666
            },
            {
              "pitch": 52,
              "velocity": 54,
              "position": 9.5,
              "duration": 0.22916666666666666
            },
            {
              "pitch": 83,
              "velocity": 59,
              "position": 9.5,
              "duration": 0.22916666666666666
            },
            {
              "pitch": 88,
              "velocity": 59,
              "position": 9.5,
              "duration": 0.22916666666666666
            },
            {
              "pitch": 91,
              "velocity": 59,
              "position": 9.5,
              "duration": 0.22916666666666666
            },
            {
              "pitch": 43,
              "velocity": 56,
              "position": 11,
              "duration": 0.21875
            },
            {
              "pitch": 47,
              "velocity": 56,
              "position": 11,
              "duration": 0.21875
            },
            {
              "pitch": 52,
              "velocity": 56,
              "position": 11,
              "duration": 0.21875
            },
            {
              "pitch": 83,
              "velocity": 61,
              "position": 11,
              "duration": 0.21875
            },
            {
              "pitch": 88,
              "velocity": 61,
              "position": 11,
              "duration": 0.21875
            },
            {
              "pitch": 91,
              "velocity": 61,
              "position": 11,
              "duration": 0.21875
            },
            {
              "pitch": 43,
              "velocity": 56,
              "position": 13,
              "duration": 0.22916666666666666
            },
            {
              "pitch": 47,
              "velocity": 56,
              "position": 13,
              "duration": 0.22916666666666666
            },
            {
              "pitch": 52,
              "velocity": 56,
              "position": 13,
              "duration": 0.22916666666666666
            },
            {
              "pitch": 83,
              "velocity": 61,
              "position": 13,
              "duration": 0.22916666666666666
            },
            {
              "pitch": 88,
              "velocity": 61,
              "position": 13,
              "duration": 0.22916666666666666
            },
            {
              "pitch": 91,
              "velocity": 61,
              "position": 13,
              "duration": 0.22916666666666666
            },
            {
              "pitch": 43,
              "velocity": 53,
              "position": 14.5,
              "duration": 0.22916666666666666
            },
            {
              "pitch": 47,
              "velocity": 53,
              "position": 14.5,
              "duration": 0.22916666666666666
            },
            {
              "pitch": 52,
              "velocity": 53,
              "position": 14.5,
              "duration": 0.22916666666666666
            },
            {
              "pitch": 83,
              "velocity": 58,
              "position": 14.5,
              "duration": 0.22916666666666666
            },
            {
              "pitch": 88,
              "velocity": 58,
              "position": 14.5,
              "duration": 0.22916666666666666
            },
            {
              "pitch": 91,
              "velocity": 58,
              "position": 14.5,
              "duration": 0.22916666666666666
            }
          ]
        },
        "4": {
          "ctab": {
            "srcChannel": 4,
            "name": "Str B",
            "accType": "PAD",
            "editable": false,
            "mutedNotes": [],
            "mutedChords": [
              "7#11",
              "7b5",
              "7sus4",
              "minMaj7",
              "m7b5",
              "min",
              "Maj7#11",
              "Maj7",
              "Maj"
            ],
            "autoStart": false,
            "sourceChordNote": 0,
            "sourceChordType": "Maj7",
            "ctb2Low": null,
            "ctb2Main": {
              "ntr": "ROOT_FIXED",
              "ntt": "CHORD",
              "bassOn": false,
              "chordRootUpperLimit": 7,
              "noteLowLimit": 0,
              "noteHighLimit": 127,
              "rtr": "PITCH_SHIFT"
            },
            "ctb2High": null
          },
          "notes": [
            {
              "pitch": 55,
              "velocity": 63,
              "position": 0,
              "duration": 15.985416666666667
            },
            {
              "pitch": 59,
              "velocity": 63,
              "position": 0,
              "duration": 15.985416666666667
            },
            {
              "pitch": 64,
              "velocity": 63,
              "position": 0,
              "duration": 15.985416666666667
            }
          ]
        },
        "7": {
          "ctab": {
            "srcChannel": 7,
            "name": "CC_Crash",
            "accType": "RHYTHM",
            "editable": true,
            "mutedNotes": [],
            "mutedChords": [
              "1+2+5",
              "sus4",
              "1+5",
              "1+8",
              "7aug",
              "Maj7aug",
              "7(#9)",
              "7(b13)",
              "7(b9)",
              "7(13)",
              "7#11",
              "7(9)",
              "7b5",
              "7sus4",
              "7th",
              "dim7",
              "dim",
              "minMaj7(9)",
              "minMaj7",
              "min7(11)",
              "min7(9)",
              "min(9)",
              "m7b5",
              "min7",
              "min6",
              "min",
              "aug",
              "Maj6(9)",
              "Maj7(9)",
              "Maj(9)",
              "Maj7#11",
              "Maj7",
              "Maj6",
              "Maj"
            ],
            "autoStart": true,
            "sourceChordNote": 0,
            "sourceChordType": "Maj",
            "ctb2Low": null,
            "ctb2Main": {
              "ntr": "ROOT_FIXED",
              "ntt": "BYPASS",
              "bassOn": false,
              "chordRootUpperLimit": 0,
              "noteLowLimit": 0,
              "noteHighLimit": 127,
              "rtr": "RETRIGGER"
            },
            "ctb2High": null
          },
          "notes": []
        },
        "8": {
          "ctab": {
            "srcChannel": 8,
            "name": "Perc",
            "accType": "SUBRHYTHM",
            "editable": false,
            "mutedNotes": [],
            "mutedChords": [],
            "autoStart": true,
            "sourceChordNote": 0,
            "sourceChordType": "Maj7",
            "ctb2Low": null,
            "ctb2Main": {
              "ntr": "ROOT_FIXED",
              "ntt": "BYPASS",
              "bassOn": false,
              "chordRootUpperLimit": 6,
              "noteLowLimit": 0,
              "noteHighLimit": 127,
              "rtr": "PITCH_SHIFT"
            },
            "ctb2High": null
          },
          "notes": [
            {
              "pitch": 70,
              "velocity": 56,
              "position": 0,
              "duration": 0.00625
            },
            {
              "pitch": 70,
              "velocity": 26,
              "position": 0.5,
              "duration": 0.00625
            },
            {
              "pitch": 70,
              "velocity": 72,
              "position": 1,
              "duration": 0.00625
            },
            {
              "pitch": 70,
              "velocity": 26,
              "position": 1.5,
              "duration": 0.00625
            },
            {
              "pitch": 70,
              "velocity": 56,
              "position": 2,
              "duration": 0.00625
            },
            {
              "pitch": 70,
              "velocity": 26,
              "position": 2.5,
              "duration": 0.00625
            },
            {
              "pitch": 70,
              "velocity": 72,
              "position": 3,
              "duration": 0.00625
            },
            {
              "pitch": 70,
              "velocity": 26,
              "position": 3.5,
              "duration": 0.00625
            },
            {
              "pitch": 70,
              "velocity": 56,
              "position": 4,
              "duration": 0.00625
            },
            {
              "pitch": 70,
              "velocity": 26,
              "position": 4.5,
              "duration": 0.00625
            },
            {
              "pitch": 70,
              "velocity": 72,
              "position": 5,
              "duration": 0.00625
            },
            {
              "pitch": 70,
              "velocity": 26,
              "position": 5.5,
              "duration": 0.00625
            },
            {
              "pitch": 70,
              "velocity": 56,
              "position": 6,
              "duration": 0.00625
            },
            {
              "pitch": 70,
              "velocity": 26,
              "position": 6.5,
              "duration": 0.00625
            },
            {
              "pitch": 70,
              "velocity": 72,
              "position": 7,
              "duration": 0.00625
            },
            {
              "pitch": 70,
              "velocity": 26,
              "position": 7.5,
              "duration": 0.00625
            },
            {
              "pitch": 70,
              "velocity": 56,
              "position": 8,
              "duration": 0.00625
            },
            {
              "pitch": 70,
              "velocity": 26,
              "position": 8.5,
              "duration": 0.00625
            },
            {
              "pitch": 70,
              "velocity": 72,
              "position": 9,
              "duration": 0.00625
            },
            {
              "pitch": 70,
              "velocity": 26,
              "position": 9.5,
              "duration": 0.00625
            },
            {
              "pitch": 70,
              "velocity": 56,
              "position": 10,
              "duration": 0.00625
            },
            {
              "pitch": 70,
              "velocity": 26,
              "position": 10.5,
              "duration": 0.00625
            },
            {
              "pitch": 70,
              "velocity": 72,
              "position": 11,
              "duration": 0.00625
            },
            {
              "pitch": 70,
              "velocity": 26,
              "position": 11.5,
              "duration": 0.00625
            },
            {
              "pitch": 70,
              "velocity": 56,
              "position": 12,
              "duration": 0.00625
            },
            {
              "pitch": 70,
              "velocity": 26,
              "position": 12.5,
              "duration": 0.00625
            },
            {
              "pitch": 70,
              "velocity": 72,
              "position": 13,
              "duration": 0.00625
            },
            {
              "pitch": 70,
              "velocity": 26,
              "position": 13.5,
              "duration": 0.00625
            },
            {
              "pitch": 70,
              "velocity": 56,
              "position": 14,
              "duration": 0.00625
            },
            {
              "pitch": 70,
              "velocity": 26,
              "position": 14.5,
              "duration": 0.00625
            },
            {
              "pitch": 70,
              "velocity": 72,
              "position": 15,
              "duration": 0.00625
            },
            {
              "pitch": 70,
              "velocity": 26,
              "position": 15.5,
              "duration": 0.00625
            }
          ]
        },
        "9": {
          "ctab": {
            "srcChannel": 9,
            "name": "Drums",
            "accType": "RHYTHM",
            "editable": false,
            "mutedNotes": [],
            "mutedChords": [],
            "autoStart": true,
            "sourceChordNote": 0,
            "sourceChordType": "Maj7",
            "ctb2Low": null,
            "ctb2Main": {
              "ntr": "ROOT_FIXED",
              "ntt": "BYPASS",
              "bassOn": false,
              "chordRootUpperLimit": 6,
              "noteLowLimit": 0,
              "noteHighLimit": 127,
              "rtr": "PITCH_SHIFT"
            },
            "ctb2High": null
          },
          "notes": [
            {
              "pitch": 33,
              "velocity": 72,
              "position": 0,
              "duration": 0.00625
            },
            {
              "pitch": 42,
              "velocity": 90,
              "position": 0,
              "duration": 0.00625
            },
            {
              "pitch": 37,
              "velocity": 20,
              "position": 0.5,
              "duration": 0.00625
            },
            {
              "pitch": 46,
              "velocity": 48,
              "position": 0.5,
              "duration": 0.00625
            },
            {
              "pitch": 37,
              "velocity": 90,
              "position": 1,
              "duration": 0.00625
            },
            {
              "pitch": 42,
              "velocity": 90,
              "position": 1,
              "duration": 0.00625
            },
            {
              "pitch": 33,
              "velocity": 36,
              "position": 1.5,
              "duration": 0.00625
            },
            {
              "pitch": 42,
              "velocity": 30,
              "position": 1.5,
              "duration": 0.00625
            },
            {
              "pitch": 33,
              "velocity": 72,
              "position": 2,
              "duration": 0.00625
            },
            {
              "pitch": 37,
              "velocity": 20,
              "position": 2,
              "duration": 0.00625
            },
            {
              "pitch": 46,
              "velocity": 48,
              "position": 2,
              "duration": 0.00625
            },
            {
              "pitch": 37,
              "velocity": 90,
              "position": 2.5,
              "duration": 0.00625
            },
            {
              "pitch": 46,
              "velocity": 38,
              "position": 2.5,
              "duration": 0.00625
            },
            {
              "pitch": 42,
              "velocity": 30,
              "position": 3,
              "duration": 0.00625
            },
            {
              "pitch": 33,
              "velocity": 36,
              "position": 3.5,
              "duration": 0.00625
            },
            {
              "pitch": 37,
              "velocity": 20,
              "position": 3.5,
              "duration": 0.00625
            },
            {
              "pitch": 42,
              "velocity": 90,
              "position": 3.5,
              "duration": 0.00625
            },
            {
              "pitch": 33,
              "velocity": 72,
              "position": 4,
              "duration": 0.00625
            },
            {
              "pitch": 37,
              "velocity": 90,
              "position": 4,
              "duration": 0.00625
            },
            {
              "pitch": 42,
              "velocity": 30,
              "position": 4,
              "duration": 0.00625
            },
            {
              "pitch": 46,
              "velocity": 48,
              "position": 4.5,
              "duration": 0.00625
            },
            {
              "pitch": 37,
              "velocity": 20,
              "position": 5,
              "duration": 0.00625
            },
            {
              "pitch": 42,
              "velocity": 30,
              "position": 5,
              "duration": 0.00625
            },
            {
              "pitch": 33,
              "velocity": 36,
              "position": 5.5,
              "duration": 0.00625
            },
            {
              "pitch": 37,
              "velocity": 90,
              "position": 5.5,
              "duration": 0.00625
            },
            {
              "pitch": 42,
              "velocity": 30,
              "position": 5.5,
              "duration": 0.00625
            },
            {
              "pitch": 33,
              "velocity": 72,
              "position": 6,
              "duration": 0.00625
            },
            {
              "pitch": 46,
              "velocity": 48,
              "position": 6,
              "duration": 0.00625
            },
            {
              "pitch": 37,
              "velocity": 20,
              "position": 6.5,
              "duration": 0.00625
            },
            {
              "pitch": 46,
              "velocity": 38,
              "position": 6.5,
              "duration": 0.00625
            },
            {
              "pitch": 37,
              "velocity": 90,
              "position": 7,
              "duration": 0.00625
            },
            {
              "pitch": 42,
              "velocity": 90,
              "position": 7,
              "duration": 0.00625
            },
            {
              "pitch": 33,
              "velocity": 36,
              "position": 7.5,
              "duration": 0.00625
            },
            {
              "pitch": 37,
              "velocity": 20,
              "position": 7.5,
              "duration": 0.00625
            },
            {
              "pitch": 42,
              "velocity": 30,
              "position": 7.5,
              "duration": 0.00625
            },
            {
              "pitch": 33,
              "velocity": 72,
              "position": 8,
              "duration": 0.00625
            },
            {
              "pitch": 37,
              "velocity": 20,
              "position": 8,
              "duration": 0.00625
            },
            {
              "pitch": 42,
              "velocity": 90,
              "position": 8,
              "duration": 0.00625
            },
            {
              "pitch": 37,
              "velocity": 90,
              "position": 8.5,
              "duration": 0.00625
            },
            {
              "pitch": 46,
              "velocity": 48,
              "position": 8.5,
              "duration": 0.00625
            },
            {
              "pitch": 42,
              "velocity": 90,
              "position": 9,
              "duration": 0.00625
            },
            {
              "pitch": 33,
              "velocity": 36,
              "position": 9.5,
              "duration": 0.00625
            },
            {
              "pitch": 37,
              "velocity": 20,
              "position": 9.5,
              "duration": 0.00625
            },
            {
              "pitch": 42,
              "velocity": 30,
              "position": 9.5,
              "duration": 0.00625
            },
            {
              "pitch": 33,
              "velocity": 72,
              "position": 10,
              "duration": 0.00625
            },
            {
              "pitch": 37,
              "velocity": 90,
              "position": 10,
              "duration": 0.00625
            },
            {
              "pitch": 46,
              "velocity": 48,
              "position": 10,
              "duration": 0.00625
            },
            {
              "pitch": 46,
              "velocity": 38,
              "position": 10.5,
              "duration": 0.00625
            },
            {
              "pitch": 37,
              "velocity": 20,
              "position": 11,
              "duration": 0.00625
            },
            {
              "pitch": 42,
              "velocity": 30,
              "position": 11,
              "duration": 0.00625
            },
            {
              "pitch": 33,
              "velocity": 36,
              "position": 11.5,
              "duration": 0.00625
            },
            {
              "pitch": 37,
              "velocity": 90,
              "position": 11.5,
              "duration": 0.00625
            },
            {
              "pitch": 42,
              "velocity": 90,
              "position": 11.5,
              "duration": 0.00625
            },
            {
              "pitch": 33,
              "velocity": 72,
              "position": 12,
              "duration": 0.00625
            },
            {
              "pitch": 37,
              "velocity": 20,
              "position": 12,
              "duration": 0.00625
            },
            {
              "pitch": 42,
              "velocity": 30,
              "position": 12,
              "duration": 0.00625
            },
            {
              "pitch": 37,
              "velocity": 90,
              "position": 12.5,
              "duration": 0.00625
            },
            {
              "pitch": 46,
              "velocity": 48,
              "position": 12.5,
              "duration": 0.00625
            },
            {
              "pitch": 42,
              "velocity": 30,
              "position": 13,
              "duration": 0.00625
            },
            {
              "pitch": 33,
              "velocity": 36,
              "position": 13.5,
              "duration": 0.00625
            },
            {
              "pitch": 37,
              "velocity": 20,
              "position": 13.5,
              "duration": 0.00625
            },
            {
              "pitch": 42,
              "velocity": 30,
              "position": 13.5,
              "duration": 0.00625
            },
            {
              "pitch": 33,
              "velocity": 72,
              "position": 14,
              "duration": 0.00625
            },
            {
              "pitch": 37,
              "velocity": 90,
              "position": 14,
              "duration": 0.00625
            },
            {
              "pitch": 46,
              "velocity": 48,
              "position": 14,
              "duration": 0.00625
            },
            {
              "pitch": 37,
              "velocity": 20,
              "position": 14.5,
              "duration": 0.00625
            },
            {
              "pitch": 46,
              "velocity": 38,
              "position": 14.5,
              "duration": 0.00625
            },
            {
              "pitch": 37,
              "velocity": 90,
              "position": 15,
              "duration": 0.00625
            },
            {
              "pitch": 42,
              "velocity": 90,
              "position": 15,
              "duration": 0.00625
            },
            {
              "pitch": 33,
              "velocity": 36,
              "position": 15.5,
              "duration": 0.00625
            },
            {
              "pitch": 37,
              "velocity": 20,
              "position": 15.5,
              "duration": 0.00625
            },
            {
              "pitch": 46,
              "velocity": 48,
              "position": 15.5,
              "duration": 0.00625
            }
          ]
        },
        "10": {
          "ctab": {
            "srcChannel": 10,
            "name": "Bass",
            "accType": "BASS",
            "editable": false,
            "mutedNotes": [],
            "mutedChords": [],
            "autoStart": false,
            "sourceChordNote": 0,
            "sourceChordType": "Maj7",
            "ctb2Low": null,
            "ctb2Main": {
              "ntr": "ROOT_TRANSPOSITION",
              "ntt": "MELODY",
              "bassOn": true,
              "chordRootUpperLimit": 8,
              "noteLowLimit": 28,
              "noteHighLimit": 127,
              "rtr": "PITCH_SHIFT_TO_ROOT"
            },
            "ctb2High": null
          },
          "notes": [
            {
              "pitch": 24,
              "velocity": 98,
              "position": 0,
              "duration": 1.1104166666666666
            },
            {
              "pitch": 31,
              "velocity": 72,
              "position": 1.5,
              "duration": 0.11041666666666666
            },
            {
              "pitch": 31,
              "velocity": 98,
              "position": 2,
              "duration": 1.1104166666666666
            },
            {
              "pitch": 36,
              "velocity": 72,
              "position": 3.5,
              "duration": 0.11041666666666666
            },
            {
              "pitch": 36,
              "velocity": 98,
              "position": 4,
              "duration": 1.1104166666666666
            },
            {
              "pitch": 31,
              "velocity": 72,
              "position": 5.5,
              "duration": 0.11041666666666666
            },
            {
              "pitch": 31,
              "velocity": 98,
              "position": 6,
              "duration": 1.1104166666666666
            },
            {
              "pitch": 24,
              "velocity": 72,
              "position": 7.5,
              "duration": 0.11041666666666666
            },
            {
              "pitch": 24,
              "velocity": 98,
              "position": 8,
              "duration": 1.1104166666666666
            },
            {
              "pitch": 31,
              "velocity": 72,
              "position": 9.5,
              "duration": 0.11041666666666666
            },
            {
              "pitch": 31,
              "velocity": 98,
              "position": 10,
              "duration": 1.1104166666666666
            },
            {
              "pitch": 36,
              "velocity": 72,
              "position": 11.5,
              "duration": 0.11041666666666666
            },
            {
              "pitch": 36,
              "velocity": 98,
              "position": 12,
              "duration": 1.1104166666666666
            },
            {
              "pitch": 31,
              "velocity": 72,
              "position": 13.5,
              "duration": 0.11041666666666666
            },
            {
              "pitch": 31,
              "velocity": 98,
              "position": 14,
              "duration": 1.1104166666666666
            },
            {
              "pitch": 24,
              "velocity": 72,
              "position": 15.5,
              "duration": 0.11041666666666666
            }
          ]
        },
        "11": {
          "ctab": {
            "srcChannel": 11,
            "name": "Gt A",
            "accType": "CHORD1",
            "editable": false,
            "mutedNotes": [],
            "mutedChords": [
              "1+2+5",
              "sus4",
              "1+5",
              "1+8",
              "7aug",
              "Maj7aug",
              "7(#9)",
              "7(b13)",
              "7(b9)",
              "7(13)",
              "7(9)",
              "7th",
              "dim7",
              "dim",
              "minMaj7(9)",
              "min7(11)",
              "min7(9)",
              "min(9)",
              "min7",
              "min6",
              "aug",
              "Maj6(9)",
              "Maj7(9)",
              "Maj(9)",
              "Maj6"
            ],
            "autoStart": false,
            "sourceChordNote": 0,
            "sourceChordType": "min7",
            "ctb2Low": null,
            "ctb2Main": {
              "ntr": "ROOT_TRANSPOSITION",
              "ntt": "CHORD",
              "bassOn": false,
              "chordRootUpperLimit": 7,
              "noteLowLimit": 54,
              "noteHighLimit": 65,
              "rtr": "PITCH_SHIFT"
            },
            "ctb2High": null
          },
          "notes": [
            {
              "pitch": 57,
              "velocity": 53,
              "position": 0,
              "duration": 0.27708333333333335
            },
            {
              "pitch": 63,
              "velocity": 53,
              "position": 0,
              "duration": 0.27708333333333335
            },
            {
              "pitch": 67,
              "velocity": 53,
              "position": 0,
              "duration": 0.27708333333333335
            },
            {
              "pitch": 60,
              "velocity": 47,
              "position": 0,
              "duration": 0.2875
            },
            {
              "pitch": 57,
              "velocity": 27,
              "position": 1,
              "duration": 0.4895833333333333
            },
            {
              "pitch": 60,
              "velocity": 30,
              "position": 1,
              "duration": 0.4895833333333333
            },
            {
              "pitch": 63,
              "velocity": 34,
              "position": 1,
              "duration": 0.4895833333333333
            },
            {
              "pitch": 67,
              "velocity": 36,
              "position": 1,
              "duration": 0.4895833333333333
            },
            {
              "pitch": 62,
              "velocity": 60,
              "position": 1.5,
              "duration": 0.225
            },
            {
              "pitch": 67,
              "velocity": 69,
              "position": 1.5,
              "duration": 0.225
            },
            {
              "pitch": 58,
              "velocity": 63,
              "position": 1.5,
              "duration": 0.23541666666666666
            },
            {
              "pitch": 63,
              "velocity": 65,
              "position": 1.5,
              "duration": 0.23541666666666666
            },
            {
              "pitch": 58,
              "velocity": 55,
              "position": 2.5,
              "duration": 0.26666666666666666
            },
            {
              "pitch": 62,
              "velocity": 49,
              "position": 2.5,
              "duration": 0.26666666666666666
            },
            {
              "pitch": 63,
              "velocity": 52,
              "position": 2.5,
              "duration": 0.27708333333333335
            },
            {
              "pitch": 67,
              "velocity": 58,
              "position": 2.5,
              "duration": 0.2875
            },
            {
              "pitch": 57,
              "velocity": 60,
              "position": 3.5,
              "duration": 0.26666666666666666
            },
            {
              "pitch": 60,
              "velocity": 49,
              "position": 3.5,
              "duration": 0.26666666666666666
            },
            {
              "pitch": 63,
              "velocity": 53,
              "position": 3.5,
              "duration": 0.27708333333333335
            },
            {
              "pitch": 67,
              "velocity": 60,
              "position": 3.5,
              "duration": 0.27708333333333335
            },
            {
              "pitch": 60,
              "velocity": 63,
              "position": 4.5,
              "duration": 0.225
            },
            {
              "pitch": 63,
              "velocity": 65,
              "position": 4.5,
              "duration": 0.225
            },
            {
              "pitch": 67,
              "velocity": 65,
              "position": 4.5,
              "duration": 0.225
            },
            {
              "pitch": 57,
              "velocity": 68,
              "position": 4.5,
              "duration": 0.23541666666666666
            },
            {
              "pitch": 57,
              "velocity": 29,
              "position": 5.5,
              "duration": 0.4895833333333333
            },
            {
              "pitch": 60,
              "velocity": 24,
              "position": 5.5,
              "duration": 0.4895833333333333
            },
            {
              "pitch": 63,
              "velocity": 36,
              "position": 5.5,
              "duration": 0.4895833333333333
            },
            {
              "pitch": 67,
              "velocity": 36,
              "position": 5.5,
              "duration": 0.4895833333333333
            },
            {
              "pitch": 62,
              "velocity": 65,
              "position": 6,
              "duration": 0.26666666666666666
            },
            {
              "pitch": 58,
              "velocity": 65,
              "position": 6,
              "duration": 0.27708333333333335
            },
            {
              "pitch": 63,
              "velocity": 65,
              "position": 6,
              "duration": 0.27708333333333335
            },
            {
              "pitch": 67,
              "velocity": 69,
              "position": 6,
              "duration": 0.27708333333333335
            },
            {
              "pitch": 58,
              "velocity": 57,
              "position": 7,
              "duration": 0.26666666666666666
            },
            {
              "pitch": 67,
              "velocity": 57,
              "position": 7,
              "duration": 0.26666666666666666
            },
            {
              "pitch": 62,
              "velocity": 54,
              "position": 7,
              "duration": 0.27708333333333335
            },
            {
              "pitch": 63,
              "velocity": 53,
              "position": 7,
              "duration": 0.2875
            },
            {
              "pitch": 57,
              "velocity": 60,
              "position": 8,
              "duration": 0.27708333333333335
            },
            {
              "pitch": 60,
              "velocity": 55,
              "position": 8,
              "duration": 0.27708333333333335
            },
            {
              "pitch": 63,
              "velocity": 53,
              "position": 8,
              "duration": 0.27708333333333335
            },
            {
              "pitch": 67,
              "velocity": 58,
              "position": 8,
              "duration": 0.27708333333333335
            },
            {
              "pitch": 57,
              "velocity": 31,
              "position": 9,
              "duration": 0.4895833333333333
            },
            {
              "pitch": 60,
              "velocity": 34,
              "position": 9,
              "duration": 0.4895833333333333
            },
            {
              "pitch": 63,
              "velocity": 29,
              "position": 9,
              "duration": 0.4895833333333333
            },
            {
              "pitch": 67,
              "velocity": 27,
              "position": 9,
              "duration": 0.4895833333333333
            },
            {
              "pitch": 58,
              "velocity": 64,
              "position": 9.5,
              "duration": 0.225
            },
            {
              "pitch": 62,
              "velocity": 60,
              "position": 9.5,
              "duration": 0.23541666666666666
            },
            {
              "pitch": 63,
              "velocity": 69,
              "position": 9.5,
              "duration": 0.23541666666666666
            },
            {
              "pitch": 67,
              "velocity": 69,
              "position": 9.5,
              "duration": 0.23541666666666666
            },
            {
              "pitch": 62,
              "velocity": 55,
              "position": 10.5,
              "duration": 0.26666666666666666
            },
            {
              "pitch": 63,
              "velocity": 53,
              "position": 10.5,
              "duration": 0.26666666666666666
            },
            {
              "pitch": 67,
              "velocity": 55,
              "position": 10.5,
              "duration": 0.26666666666666666
            },
            {
              "pitch": 58,
              "velocity": 53,
              "position": 10.5,
              "duration": 0.27708333333333335
            },
            {
              "pitch": 63,
              "velocity": 60,
              "position": 11.5,
              "duration": 0.26666666666666666
            },
            {
              "pitch": 57,
              "velocity": 55,
              "position": 11.5,
              "duration": 0.27708333333333335
            },
            {
              "pitch": 60,
              "velocity": 55,
              "position": 11.5,
              "duration": 0.27708333333333335
            },
            {
              "pitch": 67,
              "velocity": 53,
              "position": 11.5,
              "duration": 0.27708333333333335
            },
            {
              "pitch": 67,
              "velocity": 65,
              "position": 12.5,
              "duration": 0.45416666666666666
            },
            {
              "pitch": 63,
              "velocity": 70,
              "position": 12.5,
              "duration": 0.46458333333333335
            },
            {
              "pitch": 60,
              "velocity": 65,
              "position": 12.5,
              "duration": 0.475
            },
            {
              "pitch": 57,
              "velocity": 69,
              "position": 12.5,
              "duration": 0.48541666666666666
            },
            {
              "pitch": 57,
              "velocity": 17,
              "position": 13,
              "duration": 0.12083333333333333
            },
            {
              "pitch": 67,
              "velocity": 27,
              "position": 13,
              "duration": 0.12083333333333333
            },
            {
              "pitch": 60,
              "velocity": 27,
              "position": 13,
              "duration": 0.13125
            },
            {
              "pitch": 63,
              "velocity": 30,
              "position": 13,
              "duration": 0.13125
            },
            {
              "pitch": 57,
              "velocity": 36,
              "position": 13.5,
              "duration": 0.12083333333333333
            },
            {
              "pitch": 67,
              "velocity": 38,
              "position": 13.5,
              "duration": 0.12083333333333333
            },
            {
              "pitch": 60,
              "velocity": 24,
              "position": 13.5,
              "duration": 0.13125
            },
            {
              "pitch": 63,
              "velocity": 28,
              "position": 13.5,
              "duration": 0.13125
            },
            {
              "pitch": 62,
              "velocity": 65,
              "position": 14,
              "duration": 0.26666666666666666
            },
            {
              "pitch": 67,
              "velocity": 69,
              "position": 14,
              "duration": 0.26666666666666666
            },
            {
              "pitch": 58,
              "velocity": 69,
              "position": 14,
              "duration": 0.27708333333333335
            },
            {
              "pitch": 63,
              "velocity": 69,
              "position": 14,
              "duration": 0.27708333333333335
            },
            {
              "pitch": 58,
              "velocity": 58,
              "position": 15,
              "duration": 0.26666666666666666
            },
            {
              "pitch": 62,
              "velocity": 54,
              "position": 15,
              "duration": 0.27708333333333335
            },
            {
              "pitch": 63,
              "velocity": 55,
              "position": 15,
              "duration": 0.27708333333333335
            },
            {
              "pitch": 67,
              "velocity": 57,
              "position": 15,
              "duration": 0.27708333333333335
            }
          ]
        },
        "12": {
          "ctab": {
            "srcChannel": 12,
            "name": "Pno A",
            "accType": "CHORD2",
            "editable": false,
            "mutedNotes": [],
            "mutedChords": [
              "1+2+5",
              "sus4",
              "1+5",
              "1+8",
              "7aug",
              "Maj7aug",
              "7(#9)",
              "7(b13)",
              "7(b9)",
              "7(13)",
              "7(9)",
              "7th",
              "dim7",
              "dim",
              "minMaj7(9)",
              "min7(11)",
              "min7(9)",
              "min(9)",
              "min7",
              "min6",
              "aug",
              "Maj6(9)",
              "Maj7(9)",
              "Maj(9)",
              "Maj6"
            ],
            "autoStart": false,
            "sourceChordNote": 0,
            "sourceChordType": "min7",
            "ctb2Low": null,
            "ctb2Main": {
              "ntr": "ROOT_TRANSPOSITION",
              "ntt": "CHORD",
              "bassOn": false,
              "chordRootUpperLimit": 2,
              "noteLowLimit": 54,
              "noteHighLimit": 79,
              "rtr": "PITCH_SHIFT"
            },
            "ctb2High": null
          },
          "notes": [
            {
              "pitch": 48,
              "velocity": 56,
              "position": 0,
              "duration": 0.22916666666666666
            },
            {
              "pitch": 51,
              "velocity": 56,
              "position": 0,
              "duration": 0.22916666666666666
            },
            {
              "pitch": 57,
              "velocity": 56,
              "position": 0,
              "duration": 0.22916666666666666
            },
            {
              "pitch": 79,
              "velocity": 54,
              "position": 0,
              "duration": 0.22916666666666666
            },
            {
              "pitch": 86,
              "velocity": 54,
              "position": 0,
              "duration": 0.22916666666666666
            },
            {
              "pitch": 91,
              "velocity": 54,
              "position": 0,
              "duration": 0.22916666666666666
            },
            {
              "pitch": 46,
              "velocity": 49,
              "position": 1.5,
              "duration": 0.22916666666666666
            },
            {
              "pitch": 51,
              "velocity": 49,
              "position": 1.5,
              "duration": 0.22916666666666666
            },
            {
              "pitch": 55,
              "velocity": 49,
              "position": 1.5,
              "duration": 0.22916666666666666
            },
            {
              "pitch": 79,
              "velocity": 47,
              "position": 1.5,
              "duration": 0.22916666666666666
            },
            {
              "pitch": 86,
              "velocity": 47,
              "position": 1.5,
              "duration": 0.22916666666666666
            },
            {
              "pitch": 91,
              "velocity": 47,
              "position": 1.5,
              "duration": 0.22916666666666666
            },
            {
              "pitch": 48,
              "velocity": 56,
              "position": 3,
              "duration": 1.4895833333333333
            },
            {
              "pitch": 51,
              "velocity": 56,
              "position": 3,
              "duration": 1.4895833333333333
            },
            {
              "pitch": 57,
              "velocity": 56,
              "position": 3,
              "duration": 1.4895833333333333
            },
            {
              "pitch": 79,
              "velocity": 54,
              "position": 3,
              "duration": 1.4895833333333333
            },
            {
              "pitch": 86,
              "velocity": 54,
              "position": 3,
              "duration": 1.4895833333333333
            },
            {
              "pitch": 91,
              "velocity": 54,
              "position": 3,
              "duration": 1.4895833333333333
            },
            {
              "pitch": 48,
              "velocity": 56,
              "position": 5,
              "duration": 0.3020833333333333
            },
            {
              "pitch": 51,
              "velocity": 56,
              "position": 5,
              "duration": 0.3020833333333333
            },
            {
              "pitch": 57,
              "velocity": 56,
              "position": 5,
              "duration": 0.3020833333333333
            },
            {
              "pitch": 79,
              "velocity": 54,
              "position": 5,
              "duration": 0.3020833333333333
            },
            {
              "pitch": 86,
              "velocity": 54,
              "position": 5,
              "duration": 0.3020833333333333
            },
            {
              "pitch": 91,
              "velocity": 54,
              "position": 5,
              "duration": 0.3020833333333333
            },
            {
              "pitch": 46,
              "velocity": 49,
              "position": 6.5,
              "duration": 0.22916666666666666
            },
            {
              "pitch": 51,
              "velocity": 49,
              "position": 6.5,
              "duration": 0.22916666666666666
            },
            {
              "pitch": 55,
              "velocity": 49,
              "position": 6.5,
              "duration": 0.22916666666666666
            },
            {
              "pitch": 79,
              "velocity": 47,
              "position": 6.5,
              "duration": 0.22916666666666666
            },
            {
              "pitch": 86,
              "velocity": 47,
              "position": 6.5,
              "duration": 0.22916666666666666
            },
            {
              "pitch": 91,
              "velocity": 47,
              "position": 6.5,
              "duration": 0.22916666666666666
            },
            {
              "pitch": 48,
              "velocity": 56,
              "position": 8,
              "duration": 0.22916666666666666
            },
            {
              "pitch": 51,
              "velocity": 56,
              "position": 8,
              "duration": 0.22916666666666666
            },
            {
              "pitch": 57,
              "velocity": 56,
              "position": 8,
              "duration": 0.22916666666666666
            },
            {
              "pitch": 79,
              "velocity": 54,
              "position": 8,
              "duration": 0.22916666666666666
            },
            {
              "pitch": 86,
              "velocity": 54,
              "position": 8,
              "duration": 0.22916666666666666
            },
            {
              "pitch": 91,
              "velocity": 54,
              "position": 8,
              "duration": 0.22916666666666666
            },
            {
              "pitch": 46,
              "velocity": 49,
              "position": 9.5,
              "duration": 0.22916666666666666
            },
            {
              "pitch": 51,
              "velocity": 49,
              "position": 9.5,
              "duration": 0.22916666666666666
            },
            {
              "pitch": 55,
              "velocity": 49,
              "position": 9.5,
              "duration": 0.22916666666666666
            },
            {
              "pitch": 79,
              "velocity": 47,
              "position": 9.5,
              "duration": 0.22916666666666666
            },
            {
              "pitch": 86,
              "velocity": 47,
              "position": 9.5,
              "duration": 0.22916666666666666
            },
            {
              "pitch": 91,
              "velocity": 47,
              "position": 9.5,
              "duration": 0.22916666666666666
            },
            {
              "pitch": 48,
              "velocity": 56,
              "position": 11,
              "duration": 0.21875
            },
            {
              "pitch": 51,
              "velocity": 56,
              "position": 11,
              "duration": 0.21875
            },
            {
              "pitch": 57,
              "velocity": 56,
              "position": 11,
              "duration": 0.21875
            },
            {
              "pitch": 79,
              "velocity": 54,
              "position": 11,
              "duration": 0.21875
            },
            {
              "pitch": 86,
              "velocity": 54,
              "position": 11,
              "duration": 0.21875
            },
            {
              "pitch": 91,
              "velocity": 54,
              "position": 11,
              "duration": 0.21875
            },
            {
              "pitch": 48,
              "velocity": 53,
              "position": 13,
              "duration": 0.22916666666666666
            },
            {
              "pitch": 51,
              "velocity": 53,
              "position": 13,
              "duration": 0.22916666666666666
            },
            {
              "pitch": 57,
              "velocity": 53,
              "position": 13,
              "duration": 0.22916666666666666
            },
            {
              "pitch": 79,
              "velocity": 51,
              "position": 13,
              "duration": 0.22916666666666666
            },
            {
              "pitch": 86,
              "velocity": 51,
              "position": 13,
              "duration": 0.22916666666666666
            },
            {
              "pitch": 91,
              "velocity": 51,
              "position": 13,
              "duration": 0.22916666666666666
            },
            {
              "pitch": 46,
              "velocity": 56,
              "position": 14.5,
              "duration": 0.22916666666666666
            },
            {
              "pitch": 51,
              "velocity": 56,
              "position": 14.5,
              "duration": 0.22916666666666666
            },
            {
              "pitch": 55,
              "velocity": 56,
              "position": 14.5,
              "duration": 0.22916666666666666
            },
            {
              "pitch": 79,
              "velocity": 54,
              "position": 14.5,
              "duration": 0.22916666666666666
            },
            {
              "pitch": 86,
              "velocity": 54,
              "position": 14.5,
              "duration": 0.22916666666666666
            },
            {
              "pitch": 91,
              "velocity": 54,
              "position": 14.5,
              "duration": 0.22916666666666666
            }
          ]
        },
        "13": {
          "ctab": {
            "srcChannel": 13,
            "name": "Str A",
            "accType": "PAD",
            "editable": false,
            "mutedNotes": [],
            "mutedChords": [
              "1+2+5",
              "sus4",
              "1+5",
              "1+8",
              "7aug",
              "Maj7aug",
              "7(#9)",
              "7(b13)",
              "7(b9)",
              "7(13)",
              "7(9)",
              "7th",
              "dim7",
              "dim",
              "minMaj7(9)",
              "min7(11)",
              "min7(9)",
              "min(9)",
              "min7",
              "min6",
              "aug",
              "Maj6(9)",
              "Maj7(9)",
              "Maj(9)",
              "Maj6"
            ],
            "autoStart": false,
            "sourceChordNote": 0,
            "sourceChordType": "min7",
            "ctb2Low": null,
            "ctb2Main": {
              "ntr": "ROOT_TRANSPOSITION",
              "ntt": "CHORD",
              "bassOn": false,
              "chordRootUpperLimit": 7,
              "noteLowLimit": 54,
              "noteHighLimit": 65,
              "rtr": "PITCH_SHIFT"
            },
            "ctb2High": null
          },
          "notes": [
            {
              "pitch": 57,
              "velocity": 63,
              "position": 0,
              "duration": 1.4958333333333333
            },
            {
              "pitch": 60,
              "velocity": 63,
              "position": 0,
              "duration": 1.4958333333333333
            },
            {
              "pitch": 58,
              "velocity": 63,
              "position": 1.5,
              "duration": 1.4958333333333333
            },
            {
              "pitch": 62,
              "velocity": 63,
              "position": 1.5,
              "duration": 1.4958333333333333
            },
            {
              "pitch": 57,
              "velocity": 63,
              "position": 3,
              "duration": 2.995833333333333
            },
            {
              "pitch": 60,
              "velocity": 63,
              "position": 3,
              "duration": 2.995833333333333
            },
            {
              "pitch": 58,
              "velocity": 63,
              "position": 6,
              "duration": 1.9854166666666666
            },
            {
              "pitch": 62,
              "velocity": 63,
              "position": 6,
              "duration": 1.9854166666666666
            },
            {
              "pitch": 57,
              "velocity": 63,
              "position": 8,
              "duration": 1.4958333333333333
            },
            {
              "pitch": 60,
              "velocity": 63,
              "position": 8,
              "duration": 1.4958333333333333
            },
            {
              "pitch": 58,
              "velocity": 63,
              "position": 9.5,
              "duration": 1.4958333333333333
            },
            {
              "pitch": 62,
              "velocity": 63,
              "position": 9.5,
              "duration": 1.4958333333333333
            },
            {
              "pitch": 57,
              "velocity": 63,
              "position": 11,
              "duration": 2.995833333333333
            },
            {
              "pitch": 60,
              "velocity": 63,
              "position": 11,
              "duration": 2.995833333333333
            },
            {
              "pitch": 58,
              "velocity": 63,
              "position": 14,
              "duration": 1.9854166666666666
            },
            {
              "pitch": 62,
              "velocity": 63,
              "position": 14,
              "duration": 1.9854166666666666
            },
            {
              "pitch": 63,
              "velocity": 63,
              "position": 0,
              "duration": 15.985416666666667
            },
            {
              "pitch": 67,
              "velocity": 63,
              "position": 0,
              "duration": 15.985416666666667
            }
          ]
        }
      }
    },
    "Main_C": {
      "type": "Main_C",
      "sizeInBeats": 16,
      "channels": {
        "2": {
          "ctab": {
            "srcChannel": 2,
            "name": "Gt B",
            "accType": "CHORD1",
            "editable": false,
            "mutedNotes": [],
            "mutedChords": [
              "7#11",
              "7b5",
              "7sus4",
              "minMaj7",
              "m7b5",
              "min",
              "Maj7#11",
              "Maj7",
              "Maj"
            ],
            "autoStart": false,
            "sourceChordNote": 0,
            "sourceChordType": "Maj7",
            "ctb2Low": null,
            "ctb2Main": {
              "ntr": "ROOT_FIXED",
              "ntt": "CHORD",
              "bassOn": false,
              "chordRootUpperLimit": 7,
              "noteLowLimit": 0,
              "noteHighLimit": 127,
              "rtr": "PITCH_SHIFT"
            },
            "ctb2High": null
          },
          "notes": [
            {
              "pitch": 59,
              "velocity": 73,
              "position": 0,
              "duration": 0.49583333333333335
            },
            {
              "pitch": 59,
              "velocity": 41,
              "position": 0.5,
              "duration": 0.975
            },
            {
              "pitch": 64,
              "velocity": 73,
              "position": 0,
              "duration": 1.475
            },
            {
              "pitch": 64,
              "velocity": 65,
              "position": 1.5,
              "duration": 0.49583333333333335
            },
            {
              "pitch": 55,
              "velocity": 69,
              "position": 1,
              "duration": 1.475
            },
            {
              "pitch": 59,
              "velocity": 65,
              "position": 1.5,
              "duration": 1.4958333333333333
            },
            {
              "pitch": 59,
              "velocity": 41,
              "position": 3,
              "duration": 0.475
            },
            {
              "pitch": 64,
              "velocity": 42,
              "position": 2,
              "duration": 1.475
            },
            {
              "pitch": 55,
              "velocity": 69,
              "position": 2.5,
              "duration": 1.975
            },
            {
              "pitch": 59,
              "velocity": 65,
              "position": 3.5,
              "duration": 1.4958333333333333
            },
            {
              "pitch": 59,
              "velocity": 41,
              "position": 5,
              "duration": 0.475
            },
            {
              "pitch": 64,
              "velocity": 65,
              "position": 3.5,
              "duration": 1.975
            },
            {
              "pitch": 64,
              "velocity": 61,
              "position": 5.5,
              "duration": 0.49583333333333335
            },
            {
              "pitch": 59,
              "velocity": 61,
              "position": 5.5,
              "duration": 0.9958333333333333
            },
            {
              "pitch": 55,
              "velocity": 69,
              "position": 4.5,
              "duration": 2.475
            },
            {
              "pitch": 59,
              "velocity": 41,
              "position": 6.5,
              "duration": 1.475
            },
            {
              "pitch": 64,
              "velocity": 42,
              "position": 6,
              "duration": 1.975
            },
            {
              "pitch": 59,
              "velocity": 73,
              "position": 8,
              "duration": 0.49583333333333335
            },
            {
              "pitch": 55,
              "velocity": 53,
              "position": 7,
              "duration": 1.9854166666666666
            },
            {
              "pitch": 59,
              "velocity": 41,
              "position": 8.5,
              "duration": 0.975
            },
            {
              "pitch": 64,
              "velocity": 73,
              "position": 8,
              "duration": 1.475
            },
            {
              "pitch": 64,
              "velocity": 65,
              "position": 9.5,
              "duration": 0.49583333333333335
            },
            {
              "pitch": 55,
              "velocity": 69,
              "position": 9,
              "duration": 1.475
            },
            {
              "pitch": 59,
              "velocity": 65,
              "position": 9.5,
              "duration": 1.4958333333333333
            },
            {
              "pitch": 59,
              "velocity": 41,
              "position": 11,
              "duration": 0.475
            },
            {
              "pitch": 64,
              "velocity": 49,
              "position": 10,
              "duration": 1.475
            },
            {
              "pitch": 55,
              "velocity": 69,
              "position": 10.5,
              "duration": 1.975
            },
            {
              "pitch": 59,
              "velocity": 65,
              "position": 11.5,
              "duration": 1.4958333333333333
            },
            {
              "pitch": 59,
              "velocity": 41,
              "position": 13,
              "duration": 0.475
            },
            {
              "pitch": 64,
              "velocity": 65,
              "position": 11.5,
              "duration": 1.975
            },
            {
              "pitch": 64,
              "velocity": 61,
              "position": 13.5,
              "duration": 0.49583333333333335
            },
            {
              "pitch": 59,
              "velocity": 61,
              "position": 13.5,
              "duration": 0.9958333333333333
            },
            {
              "pitch": 55,
              "velocity": 69,
              "position": 12.5,
              "duration": 2.475
            },
            {
              "pitch": 55,
              "velocity": 49,
              "position": 15,
              "duration": 0.975
            },
            {
              "pitch": 59,
              "velocity": 37,
              "position": 14.5,
              "duration": 1.475
            },
            {
              "pitch": 64,
              "velocity": 42,
              "position": 14,
              "duration": 1.975
            }
          ]
        },
        "3": {
          "ctab": {
            "srcChannel": 3,
            "name": "Pno B",
            "accType": "CHORD2",
            "editable": false,
            "mutedNotes": [],
            "mutedChords": [
              "7#11",
              "7b5",
              "7sus4",
              "minMaj7",
              "m7b5",
              "min",
              "Maj7#11",
              "Maj7",
              "Maj"
            ],
            "autoStart": false,
            "sourceChordNote": 0,
            "sourceChordType": "Maj7",
            "ctb2Low": null,
            "ctb2Main": {
              "ntr": "ROOT_TRANSPOSITION",
              "ntt": "CHORD",
              "bassOn": false,
              "chordRootUpperLimit": 2,
              "noteLowLimit": 54,
              "noteHighLimit": 79,
              "rtr": "PITCH_SHIFT"
            },
            "ctb2High": null
          },
          "notes": [
            {
              "pitch": 43,
              "velocity": 69,
              "position": 0,
              "duration": 0.9479166666666666
            },
            {
              "pitch": 52,
              "velocity": 68,
              "position": 0,
              "duration": 0.9583333333333334
            },
            {
              "pitch": 47,
              "velocity": 67,
              "position": 0,
              "duration": 0.96875
            },
            {
              "pitch": 43,
              "velocity": 67,
              "position": 1.5,
              "duration": 0.22916666666666666
            },
            {
              "pitch": 47,
              "velocity": 67,
              "position": 1.5,
              "duration": 0.22916666666666666
            },
            {
              "pitch": 52,
              "velocity": 64,
              "position": 1.5,
              "duration": 0.22916666666666666
            },
            {
              "pitch": 43,
              "velocity": 56,
              "position": 2.5,
              "duration": 0.2708333333333333
            },
            {
              "pitch": 52,
              "velocity": 57,
              "position": 2.5,
              "duration": 0.2708333333333333
            },
            {
              "pitch": 47,
              "velocity": 55,
              "position": 2.5,
              "duration": 0.28125
            },
            {
              "pitch": 43,
              "velocity": 64,
              "position": 3.5,
              "duration": 2.2708333333333335
            },
            {
              "pitch": 47,
              "velocity": 64,
              "position": 3.5,
              "duration": 2.2708333333333335
            },
            {
              "pitch": 52,
              "velocity": 64,
              "position": 3.5,
              "duration": 2.2708333333333335
            },
            {
              "pitch": 52,
              "velocity": 68,
              "position": 6,
              "duration": 0.21875
            },
            {
              "pitch": 43,
              "velocity": 66,
              "position": 6,
              "duration": 0.22916666666666666
            },
            {
              "pitch": 47,
              "velocity": 67,
              "position": 6,
              "duration": 0.22916666666666666
            },
            {
              "pitch": 43,
              "velocity": 55,
              "position": 7,
              "duration": 0.2604166666666667
            },
            {
              "pitch": 47,
              "velocity": 56,
              "position": 7,
              "duration": 0.2708333333333333
            },
            {
              "pitch": 52,
              "velocity": 56,
              "position": 7,
              "duration": 0.2708333333333333
            },
            {
              "pitch": 43,
              "velocity": 64,
              "position": 8,
              "duration": 0.9479166666666666
            },
            {
              "pitch": 52,
              "velocity": 64,
              "position": 8,
              "duration": 0.9583333333333334
            },
            {
              "pitch": 47,
              "velocity": 66,
              "position": 8,
              "duration": 0.96875
            },
            {
              "pitch": 43,
              "velocity": 64,
              "position": 9.5,
              "duration": 0.21875
            },
            {
              "pitch": 47,
              "velocity": 61,
              "position": 9.5,
              "duration": 0.21875
            },
            {
              "pitch": 52,
              "velocity": 67,
              "position": 9.5,
              "duration": 0.22916666666666666
            },
            {
              "pitch": 52,
              "velocity": 55,
              "position": 10.5,
              "duration": 0.2604166666666667
            },
            {
              "pitch": 43,
              "velocity": 60,
              "position": 10.5,
              "duration": 0.2708333333333333
            },
            {
              "pitch": 47,
              "velocity": 57,
              "position": 10.5,
              "duration": 0.2708333333333333
            },
            {
              "pitch": 43,
              "velocity": 67,
              "position": 11.5,
              "duration": 2.2708333333333335
            },
            {
              "pitch": 47,
              "velocity": 64,
              "position": 11.5,
              "duration": 2.2708333333333335
            },
            {
              "pitch": 52,
              "velocity": 69,
              "position": 11.5,
              "duration": 2.2708333333333335
            },
            {
              "pitch": 47,
              "velocity": 67,
              "position": 14,
              "duration": 0.21875
            },
            {
              "pitch": 52,
              "velocity": 67,
              "position": 14,
              "duration": 0.22916666666666666
            },
            {
              "pitch": 43,
              "velocity": 64,
              "position": 14,
              "duration": 0.23958333333333334
            },
            {
              "pitch": 47,
              "velocity": 55,
              "position": 15,
              "duration": 0.2604166666666667
            },
            {
              "pitch": 52,
              "velocity": 54,
              "position": 15,
              "duration": 0.2604166666666667
            },
            {
              "pitch": 43,
              "velocity": 54,
              "position": 15,
              "duration": 0.2708333333333333
            }
          ]
        },
        "4": {
          "ctab": {
            "srcChannel": 4,
            "name": "Str B",
            "accType": "PAD",
            "editable": false,
            "mutedNotes": [],
            "mutedChords": [
              "7#11",
              "7b5",
              "7sus4",
              "minMaj7",
              "m7b5",
              "min",
              "Maj7#11",
              "Maj7",
              "Maj"
            ],
            "autoStart": false,
            "sourceChordNote": 0,
            "sourceChordType": "Maj7",
            "ctb2Low": null,
            "ctb2Main": {
              "ntr": "ROOT_FIXED",
              "ntt": "CHORD",
              "bassOn": false,
              "chordRootUpperLimit": 7,
              "noteLowLimit": 0,
              "noteHighLimit": 127,
              "rtr": "PITCH_SHIFT"
            },
            "ctb2High": null
          },
          "notes": [
            {
              "pitch": 55,
              "velocity": 65,
              "position": 0,
              "duration": 15.985416666666667
            },
            {
              "pitch": 59,
              "velocity": 65,
              "position": 0,
              "duration": 15.985416666666667
            },
            {
              "pitch": 64,
              "velocity": 65,
              "position": 0,
              "duration": 15.985416666666667
            }
          ]
        },
        "7": {
          "ctab": {
            "srcChannel": 7,
            "name": "CC_Crash",
            "accType": "RHYTHM",
            "editable": true,
            "mutedNotes": [],
            "mutedChords": [
              "1+2+5",
              "sus4",
              "1+5",
              "1+8",
              "7aug",
              "Maj7aug",
              "7(#9)",
              "7(b13)",
              "7(b9)",
              "7(13)",
              "7#11",
              "7(9)",
              "7b5",
              "7sus4",
              "7th",
              "dim7",
              "dim",
              "minMaj7(9)",
              "minMaj7",
              "min7(11)",
              "min7(9)",
              "min(9)",
              "m7b5",
              "min7",
              "min6",
              "min",
              "aug",
              "Maj6(9)",
              "Maj7(9)",
              "Maj(9)",
              "Maj7#11",
              "Maj7",
              "Maj6",
              "Maj"
            ],
            "autoStart": true,
            "sourceChordNote": 0,
            "sourceChordType": "Maj",
            "ctb2Low": null,
            "ctb2Main": {
              "ntr": "ROOT_FIXED",
              "ntt": "BYPASS",
              "bassOn": false,
              "chordRootUpperLimit": 0,
              "noteLowLimit": 0,
              "noteHighLimit": 127,
              "rtr": "RETRIGGER"
            },
            "ctb2High": null
          },
          "notes": []
        },
        "8": {
          "ctab": {
            "srcChannel": 8,
            "name": "Perc",
            "accType": "SUBRHYTHM",
            "editable": false,
            "mutedNotes": [],
            "mutedChords": [],
            "autoStart": true,
            "sourceChordNote": 0,
            "sourceChordType": "Maj7",
            "ctb2Low": null,
            "ctb2Main": {
              "ntr": "ROOT_FIXED",
              "ntt": "BYPASS",
              "bassOn": false,
              "chordRootUpperLimit": 6,
              "noteLowLimit": 0,
              "noteHighLimit": 127,
              "rtr": "PITCH_SHIFT"
            },
            "ctb2High": null
          },
          "notes": [
            {
              "pitch": 69,
              "velocity": 42,
              "position": 0,
              "duration": 0.00625
            },
            {
              "pitch": 81,
              "velocity": 40,
              "position": 0,
              "duration": 0.00625
            },
            {
              "pitch": 69,
              "velocity": 18,
              "position": 0.5,
              "duration": 0.00625
            },
            {
              "pitch": 81,
              "velocity": 20,
              "position": 0.5,
              "duration": 0.00625
            },
            {
              "pitch": 69,
              "velocity": 74,
              "position": 1,
              "duration": 0.00625
            },
            {
              "pitch": 80,
              "velocity": 30,
              "position": 1,
              "duration": 0.00625
            },
            {
              "pitch": 69,
              "velocity": 18,
              "position": 1.5,
              "duration": 0.00625
            },
            {
              "pitch": 80,
              "velocity": 30,
              "position": 1.5,
              "duration": 0.00625
            },
            {
              "pitch": 69,
              "velocity": 42,
              "position": 2,
              "duration": 0.00625
            },
            {
              "pitch": 81,
              "velocity": 40,
              "position": 2,
              "duration": 0.00625
            },
            {
              "pitch": 69,
              "velocity": 18,
              "position": 2.5,
              "duration": 0.00625
            },
            {
              "pitch": 81,
              "velocity": 20,
              "position": 2.5,
              "duration": 0.00625
            },
            {
              "pitch": 69,
              "velocity": 74,
              "position": 3,
              "duration": 0.00625
            },
            {
              "pitch": 80,
              "velocity": 30,
              "position": 3,
              "duration": 0.00625
            },
            {
              "pitch": 69,
              "velocity": 18,
              "position": 3.5,
              "duration": 0.00625
            },
            {
              "pitch": 81,
              "velocity": 10,
              "position": 3.5,
              "duration": 0.00625
            },
            {
              "pitch": 69,
              "velocity": 42,
              "position": 4,
              "duration": 0.00625
            },
            {
              "pitch": 81,
              "velocity": 40,
              "position": 4,
              "duration": 0.00625
            },
            {
              "pitch": 69,
              "velocity": 18,
              "position": 4.5,
              "duration": 0.00625
            },
            {
              "pitch": 81,
              "velocity": 20,
              "position": 4.5,
              "duration": 0.00625
            },
            {
              "pitch": 69,
              "velocity": 74,
              "position": 5,
              "duration": 0.00625
            },
            {
              "pitch": 80,
              "velocity": 30,
              "position": 5,
              "duration": 0.00625
            },
            {
              "pitch": 69,
              "velocity": 18,
              "position": 5.5,
              "duration": 0.00625
            },
            {
              "pitch": 80,
              "velocity": 30,
              "position": 5.5,
              "duration": 0.00625
            },
            {
              "pitch": 69,
              "velocity": 42,
              "position": 6,
              "duration": 0.00625
            },
            {
              "pitch": 81,
              "velocity": 40,
              "position": 6,
              "duration": 0.00625
            },
            {
              "pitch": 69,
              "velocity": 18,
              "position": 6.5,
              "duration": 0.00625
            },
            {
              "pitch": 81,
              "velocity": 20,
              "position": 6.5,
              "duration": 0.00625
            },
            {
              "pitch": 69,
              "velocity": 74,
              "position": 7,
              "duration": 0.00625
            },
            {
              "pitch": 80,
              "velocity": 30,
              "position": 7,
              "duration": 0.00625
            },
            {
              "pitch": 69,
              "velocity": 18,
              "position": 7.5,
              "duration": 0.00625
            },
            {
              "pitch": 81,
              "velocity": 10,
              "position": 7.5,
              "duration": 0.00625
            },
            {
              "pitch": 69,
              "velocity": 42,
              "position": 8,
              "duration": 0.00625
            },
            {
              "pitch": 81,
              "velocity": 40,
              "position": 8,
              "duration": 0.00625
            },
            {
              "pitch": 69,
              "velocity": 18,
              "position": 8.5,
              "duration": 0.00625
            },
            {
              "pitch": 81,
              "velocity": 20,
              "position": 8.5,
              "duration": 0.00625
            },
            {
              "pitch": 69,
              "velocity": 74,
              "position": 9,
              "duration": 0.00625
            },
            {
              "pitch": 80,
              "velocity": 30,
              "position": 9,
              "duration": 0.00625
            },
            {
              "pitch": 69,
              "velocity": 18,
              "position": 9.5,
              "duration": 0.00625
            },
            {
              "pitch": 80,
              "velocity": 30,
              "position": 9.5,
              "duration": 0.00625
            },
            {
              "pitch": 69,
              "velocity": 42,
              "position": 10,
              "duration": 0.00625
            },
            {
              "pitch": 81,
              "velocity": 40,
              "position": 10,
              "duration": 0.00625
            },
            {
              "pitch": 69,
              "velocity": 18,
              "position": 10.5,
              "duration": 0.00625
            },
            {
              "pitch": 81,
              "velocity": 20,
              "position": 10.5,
              "duration": 0.00625
            },
            {
              "pitch": 69,
              "velocity": 74,
              "position": 11,
              "duration": 0.00625
            },
            {
              "pitch": 80,
              "velocity": 30,
              "position": 11,
              "duration": 0.00625
            },
            {
              "pitch": 69,
              "velocity": 18,
              "position": 11.5,
              "duration": 0.00625
            },
            {
              "pitch": 81,
              "velocity": 10,
              "position": 11.5,
              "duration": 0.00625
            },
            {
              "pitch": 69,
              "velocity": 42,
              "position": 12,
              "duration": 0.00625
            },
            {
              "pitch": 81,
              "velocity": 40,
              "position": 12,
              "duration": 0.00625
            },
            {
              "pitch": 69,
              "velocity": 18,
              "position": 12.5,
              "duration": 0.00625
            },
            {
              "pitch": 81,
              "velocity": 20,
              "position": 12.5,
              "duration": 0.00625
            },
            {
              "pitch": 69,
              "velocity": 74,
              "position": 13,
              "duration": 0.00625
            },
            {
              "pitch": 80,
              "velocity": 30,
              "position": 13,
              "duration": 0.00625
            },
            {
              "pitch": 69,
              "velocity": 18,
              "position": 13.5,
              "duration": 0.00625
            },
            {
              "pitch": 80,
              "velocity": 30,
              "position": 13.5,
              "duration": 0.00625
            },
            {
              "pitch": 69,
              "velocity": 42,
              "position": 14,
              "duration": 0.00625
            },
            {
              "pitch": 81,
              "velocity": 40,
              "position": 14,
              "duration": 0.00625
            },
            {
              "pitch": 69,
              "velocity": 18,
              "position": 14.5,
              "duration": 0.00625
            },
            {
              "pitch": 81,
              "velocity": 20,
              "position": 14.5,
              "duration": 0.00625
            },
            {
              "pitch": 69,
              "velocity": 74,
              "position": 15,
              "duration": 0.00625
            },
            {
              "pitch": 80,
              "velocity": 30,
              "position": 15,
              "duration": 0.00625
            },
            {
              "pitch": 69,
              "velocity": 18,
              "position": 15.5,
              "duration": 0.00625
            },
            {
              "pitch": 81,
              "velocity": 10,
              "position": 15.5,
              "duration": 0.00625
            }
          ]
        },
        "9": {
          "ctab": {
            "srcChannel": 9,
            "name": "Drums",
            "accType": "RHYTHM",
            "editable": false,
            "mutedNotes": [],
            "mutedChords": [],
            "autoStart": true,
            "sourceChordNote": 0,
            "sourceChordType": "Maj7",
            "ctb2Low": null,
            "ctb2Main": {
              "ntr": "ROOT_FIXED",
              "ntt": "BYPASS",
              "bassOn": false,
              "chordRootUpperLimit": 6,
              "noteLowLimit": 0,
              "noteHighLimit": 127,
              "rtr": "PITCH_SHIFT"
            },
            "ctb2High": null
          },
          "notes": [
            {
              "pitch": 33,
              "velocity": 72,
              "position": 0,
              "duration": 0.00625
            },
            {
              "pitch": 51,
              "velocity": 90,
              "position": 0,
              "duration": 0.00625
            },
            {
              "pitch": 37,
              "velocity": 20,
              "position": 0.5,
              "duration": 0.00625
            },
            {
              "pitch": 51,
              "velocity": 30,
              "position": 0.5,
              "duration": 0.00625
            },
            {
              "pitch": 37,
              "velocity": 90,
              "position": 1,
              "duration": 0.00625
            },
            {
              "pitch": 44,
              "velocity": 62,
              "position": 1,
              "duration": 0.00625
            },
            {
              "pitch": 51,
              "velocity": 90,
              "position": 1,
              "duration": 0.00625
            },
            {
              "pitch": 33,
              "velocity": 36,
              "position": 1.5,
              "duration": 0.00625
            },
            {
              "pitch": 51,
              "velocity": 30,
              "position": 1.5,
              "duration": 0.00625
            },
            {
              "pitch": 33,
              "velocity": 72,
              "position": 2,
              "duration": 0.00625
            },
            {
              "pitch": 37,
              "velocity": 20,
              "position": 2,
              "duration": 0.00625
            },
            {
              "pitch": 51,
              "velocity": 30,
              "position": 2,
              "duration": 0.00625
            },
            {
              "pitch": 37,
              "velocity": 90,
              "position": 2.5,
              "duration": 0.00625
            },
            {
              "pitch": 51,
              "velocity": 90,
              "position": 2.5,
              "duration": 0.00625
            },
            {
              "pitch": 44,
              "velocity": 62,
              "position": 3,
              "duration": 0.00625
            },
            {
              "pitch": 51,
              "velocity": 30,
              "position": 3,
              "duration": 0.00625
            },
            {
              "pitch": 33,
              "velocity": 36,
              "position": 3.5,
              "duration": 0.00625
            },
            {
              "pitch": 37,
              "velocity": 20,
              "position": 3.5,
              "duration": 0.00625
            },
            {
              "pitch": 51,
              "velocity": 90,
              "position": 3.5,
              "duration": 0.00625
            },
            {
              "pitch": 33,
              "velocity": 72,
              "position": 4,
              "duration": 0.00625
            },
            {
              "pitch": 37,
              "velocity": 90,
              "position": 4,
              "duration": 0.00625
            },
            {
              "pitch": 51,
              "velocity": 30,
              "position": 4,
              "duration": 0.00625
            },
            {
              "pitch": 51,
              "velocity": 90,
              "position": 4.5,
              "duration": 0.00625
            },
            {
              "pitch": 37,
              "velocity": 20,
              "position": 5,
              "duration": 0.00625
            },
            {
              "pitch": 44,
              "velocity": 62,
              "position": 5,
              "duration": 0.00625
            },
            {
              "pitch": 51,
              "velocity": 30,
              "position": 5,
              "duration": 0.00625
            },
            {
              "pitch": 33,
              "velocity": 36,
              "position": 5.5,
              "duration": 0.00625
            },
            {
              "pitch": 37,
              "velocity": 90,
              "position": 5.5,
              "duration": 0.00625
            },
            {
              "pitch": 51,
              "velocity": 30,
              "position": 5.5,
              "duration": 0.00625
            },
            {
              "pitch": 33,
              "velocity": 72,
              "position": 6,
              "duration": 0.00625
            },
            {
              "pitch": 51,
              "velocity": 90,
              "position": 6,
              "duration": 0.00625
            },
            {
              "pitch": 37,
              "velocity": 20,
              "position": 6.5,
              "duration": 0.00625
            },
            {
              "pitch": 51,
              "velocity": 30,
              "position": 6.5,
              "duration": 0.00625
            },
            {
              "pitch": 37,
              "velocity": 90,
              "position": 7,
              "duration": 0.00625
            },
            {
              "pitch": 44,
              "velocity": 62,
              "position": 7,
              "duration": 0.00625
            },
            {
              "pitch": 51,
              "velocity": 90,
              "position": 7,
              "duration": 0.00625
            },
            {
              "pitch": 33,
              "velocity": 36,
              "position": 7.5,
              "duration": 0.00625
            },
            {
              "pitch": 37,
              "velocity": 20,
              "position": 7.5,
              "duration": 0.00625
            },
            {
              "pitch": 51,
              "velocity": 30,
              "position": 7.5,
              "duration": 0.00625
            },
            {
              "pitch": 33,
              "velocity": 72,
              "position": 8,
              "duration": 0.00625
            },
            {
              "pitch": 37,
              "velocity": 20,
              "position": 8,
              "duration": 0.00625
            },
            {
              "pitch": 51,
              "velocity": 90,
              "position": 8,
              "duration": 0.00625
            },
            {
              "pitch": 37,
              "velocity": 90,
              "position": 8.5,
              "duration": 0.00625
            },
            {
              "pitch": 51,
              "velocity": 30,
              "position": 8.5,
              "duration": 0.00625
            },
            {
              "pitch": 44,
              "velocity": 62,
              "position": 9,
              "duration": 0.00625
            },
            {
              "pitch": 51,
              "velocity": 90,
              "position": 9,
              "duration": 0.00625
            },
            {
              "pitch": 33,
              "velocity": 36,
              "position": 9.5,
              "duration": 0.00625
            },
            {
              "pitch": 37,
              "velocity": 20,
              "position": 9.5,
              "duration": 0.00625
            },
            {
              "pitch": 51,
              "velocity": 30,
              "position": 9.5,
              "duration": 0.00625
            },
            {
              "pitch": 33,
              "velocity": 72,
              "position": 10,
              "duration": 0.00625
            },
            {
              "pitch": 37,
              "velocity": 90,
              "position": 10,
              "duration": 0.00625
            },
            {
              "pitch": 51,
              "velocity": 30,
              "position": 10,
              "duration": 0.00625
            },
            {
              "pitch": 51,
              "velocity": 90,
              "position": 10.5,
              "duration": 0.00625
            },
            {
              "pitch": 37,
              "velocity": 20,
              "position": 11,
              "duration": 0.00625
            },
            {
              "pitch": 44,
              "velocity": 62,
              "position": 11,
              "duration": 0.00625
            },
            {
              "pitch": 51,
              "velocity": 30,
              "position": 11,
              "duration": 0.00625
            },
            {
              "pitch": 33,
              "velocity": 36,
              "position": 11.5,
              "duration": 0.00625
            },
            {
              "pitch": 37,
              "velocity": 90,
              "position": 11.5,
              "duration": 0.00625
            },
            {
              "pitch": 51,
              "velocity": 90,
              "position": 11.5,
              "duration": 0.00625
            },
            {
              "pitch": 33,
              "velocity": 72,
              "position": 12,
              "duration": 0.00625
            },
            {
              "pitch": 37,
              "velocity": 20,
              "position": 12,
              "duration": 0.00625
            },
            {
              "pitch": 51,
              "velocity": 30,
              "position": 12,
              "duration": 0.00625
            },
            {
              "pitch": 37,
              "velocity": 90,
              "position": 12.5,
              "duration": 0.00625
            },
            {
              "pitch": 51,
              "velocity": 90,
              "position": 12.5,
              "duration": 0.00625
            },
            {
              "pitch": 44,
              "velocity": 62,
              "position": 13,
              "duration": 0.00625
            },
            {
              "pitch": 51,
              "velocity": 30,
              "position": 13,
              "duration": 0.00625
            },
            {
              "pitch": 33,
              "velocity": 36,
              "position": 13.5,
              "duration": 0.00625
            },
            {
              "pitch": 37,
              "velocity": 20,
              "position": 13.5,
              "duration": 0.00625
            },
            {
              "pitch": 51,
              "velocity": 30,
              "position": 13.5,
              "duration": 0.00625
            },
            {
              "pitch": 33,
              "velocity": 72,
              "position": 14,
              "duration": 0.00625
            },
            {
              "pitch": 37,
              "velocity": 90,
              "position": 14,
              "duration": 0.00625
            },
            {
              "pitch": 51,
              "velocity": 90,
              "position": 14,
              "duration": 0.00625
            },
            {
              "pitch": 37,
              "velocity": 20,
              "position": 14.5,
              "duration": 0.00625
            },
            {
              "pitch": 51,
              "velocity": 30,
              "position": 14.5,
              "duration": 0.00625
            },
            {
              "pitch": 37,
              "velocity": 90,
              "position": 15,
              "duration": 0.00625
            },
            {
              "pitch": 44,
              "velocity": 62,
              "position": 15,
              "duration": 0.00625
            },
            {
              "pitch": 51,
              "velocity": 90,
              "position": 15,
              "duration": 0.00625
            },
            {
              "pitch": 33,
              "velocity": 36,
              "position": 15.5,
              "duration": 0.00625
            },
            {
              "pitch": 37,
              "velocity": 20,
              "position": 15.5,
              "duration": 0.00625
            },
            {
              "pitch": 51,
              "velocity": 30,
              "position": 15.5,
              "duration": 0.00625
            }
          ]
        },
        "10": {
          "ctab": {
            "srcChannel": 10,
            "name": "Bass",
            "accType": "BASS",
            "editable": false,
            "mutedNotes": [],
            "mutedChords": [],
            "autoStart": false,
            "sourceChordNote": 0,
            "sourceChordType": "Maj7",
            "ctb2Low": null,
            "ctb2Main": {
              "ntr": "ROOT_TRANSPOSITION",
              "ntt": "MELODY",
              "bassOn": true,
              "chordRootUpperLimit": 8,
              "noteLowLimit": 28,
              "noteHighLimit": 127,
              "rtr": "PITCH_SHIFT_TO_ROOT"
            },
            "ctb2High": null
          },
          "notes": [
            {
              "pitch": 24,
              "velocity": 98,
              "position": 0,
              "duration": 1.3916666666666666
            },
            {
              "pitch": 31,
              "velocity": 54,
              "position": 1.5,
              "duration": 0.39166666666666666
            },
            {
              "pitch": 31,
              "velocity": 98,
              "position": 2,
              "duration": 1.3916666666666666
            },
            {
              "pitch": 36,
              "velocity": 54,
              "position": 3.5,
              "duration": 0.39166666666666666
            },
            {
              "pitch": 36,
              "velocity": 98,
              "position": 4,
              "duration": 1.3916666666666666
            },
            {
              "pitch": 31,
              "velocity": 54,
              "position": 5.5,
              "duration": 0.39166666666666666
            },
            {
              "pitch": 31,
              "velocity": 98,
              "position": 6,
              "duration": 1.3916666666666666
            },
            {
              "pitch": 24,
              "velocity": 54,
              "position": 7.5,
              "duration": 0.39166666666666666
            },
            {
              "pitch": 24,
              "velocity": 98,
              "position": 8,
              "duration": 1.3916666666666666
            },
            {
              "pitch": 31,
              "velocity": 54,
              "position": 9.5,
              "duration": 0.39166666666666666
            },
            {
              "pitch": 31,
              "velocity": 98,
              "position": 10,
              "duration": 1.3916666666666666
            },
            {
              "pitch": 36,
              "velocity": 54,
              "position": 11.5,
              "duration": 0.39166666666666666
            },
            {
              "pitch": 36,
              "velocity": 98,
              "position": 12,
              "duration": 1.3916666666666666
            },
            {
              "pitch": 31,
              "velocity": 54,
              "position": 13.5,
              "duration": 0.39166666666666666
            },
            {
              "pitch": 31,
              "velocity": 98,
              "position": 14,
              "duration": 1.3916666666666666
            },
            {
              "pitch": 24,
              "velocity": 54,
              "position": 15.5,
              "duration": 0.39166666666666666
            }
          ]
        },
        "11": {
          "ctab": {
            "srcChannel": 11,
            "name": "Gt A",
            "accType": "CHORD1",
            "editable": false,
            "mutedNotes": [],
            "mutedChords": [
              "1+2+5",
              "sus4",
              "1+5",
              "1+8",
              "7aug",
              "Maj7aug",
              "7(#9)",
              "7(b13)",
              "7(b9)",
              "7(13)",
              "7(9)",
              "7th",
              "dim7",
              "dim",
              "minMaj7(9)",
              "min7(11)",
              "min7(9)",
              "min(9)",
              "min7",
              "min6",
              "aug",
              "Maj6(9)",
              "Maj7(9)",
              "Maj(9)",
              "Maj6"
            ],
            "autoStart": false,
            "sourceChordNote": 0,
            "sourceChordType": "min7",
            "ctb2Low": null,
            "ctb2Main": {
              "ntr": "ROOT_TRANSPOSITION",
              "ntt": "CHORD",
              "bassOn": false,
              "chordRootUpperLimit": 7,
              "noteLowLimit": 54,
              "noteHighLimit": 65,
              "rtr": "PITCH_SHIFT"
            },
            "ctb2High": null
          },
          "notes": [
            {
              "pitch": 57,
              "velocity": 74,
              "position": 0,
              "duration": 0.49583333333333335
            },
            {
              "pitch": 57,
              "velocity": 42,
              "position": 0.5,
              "duration": 0.975
            },
            {
              "pitch": 63,
              "velocity": 74,
              "position": 0,
              "duration": 1.475
            },
            {
              "pitch": 62,
              "velocity": 64,
              "position": 1.5,
              "duration": 0.49583333333333335
            },
            {
              "pitch": 67,
              "velocity": 70,
              "position": 1,
              "duration": 1.475
            },
            {
              "pitch": 58,
              "velocity": 66,
              "position": 1.5,
              "duration": 1.4958333333333333
            },
            {
              "pitch": 58,
              "velocity": 42,
              "position": 3,
              "duration": 0.475
            },
            {
              "pitch": 62,
              "velocity": 49,
              "position": 2,
              "duration": 1.475
            },
            {
              "pitch": 67,
              "velocity": 70,
              "position": 2.5,
              "duration": 1.975
            },
            {
              "pitch": 57,
              "velocity": 66,
              "position": 3.5,
              "duration": 1.4958333333333333
            },
            {
              "pitch": 57,
              "velocity": 42,
              "position": 5,
              "duration": 0.475
            },
            {
              "pitch": 63,
              "velocity": 66,
              "position": 3.5,
              "duration": 1.975
            },
            {
              "pitch": 62,
              "velocity": 60,
              "position": 5.5,
              "duration": 0.49583333333333335
            },
            {
              "pitch": 58,
              "velocity": 62,
              "position": 5.5,
              "duration": 0.9958333333333333
            },
            {
              "pitch": 67,
              "velocity": 70,
              "position": 4.5,
              "duration": 2.475
            },
            {
              "pitch": 58,
              "velocity": 42,
              "position": 6.5,
              "duration": 1.475
            },
            {
              "pitch": 62,
              "velocity": 49,
              "position": 6,
              "duration": 1.975
            },
            {
              "pitch": 57,
              "velocity": 74,
              "position": 8,
              "duration": 0.49583333333333335
            },
            {
              "pitch": 67,
              "velocity": 54,
              "position": 7,
              "duration": 1.9854166666666666
            },
            {
              "pitch": 57,
              "velocity": 42,
              "position": 8.5,
              "duration": 0.975
            },
            {
              "pitch": 63,
              "velocity": 74,
              "position": 8,
              "duration": 1.475
            },
            {
              "pitch": 62,
              "velocity": 64,
              "position": 9.5,
              "duration": 0.49583333333333335
            },
            {
              "pitch": 67,
              "velocity": 70,
              "position": 9,
              "duration": 1.475
            },
            {
              "pitch": 58,
              "velocity": 66,
              "position": 9.5,
              "duration": 1.4958333333333333
            },
            {
              "pitch": 58,
              "velocity": 42,
              "position": 11,
              "duration": 0.475
            },
            {
              "pitch": 62,
              "velocity": 53,
              "position": 10,
              "duration": 1.475
            },
            {
              "pitch": 67,
              "velocity": 70,
              "position": 10.5,
              "duration": 1.975
            },
            {
              "pitch": 57,
              "velocity": 66,
              "position": 11.5,
              "duration": 1.4958333333333333
            },
            {
              "pitch": 57,
              "velocity": 42,
              "position": 13,
              "duration": 0.475
            },
            {
              "pitch": 63,
              "velocity": 66,
              "position": 11.5,
              "duration": 1.975
            },
            {
              "pitch": 62,
              "velocity": 60,
              "position": 13.5,
              "duration": 0.49583333333333335
            },
            {
              "pitch": 58,
              "velocity": 62,
              "position": 13.5,
              "duration": 0.9958333333333333
            },
            {
              "pitch": 67,
              "velocity": 70,
              "position": 12.5,
              "duration": 2.475
            },
            {
              "pitch": 58,
              "velocity": 42,
              "position": 14.5,
              "duration": 1.475
            },
            {
              "pitch": 62,
              "velocity": 49,
              "position": 14,
              "duration": 1.975
            },
            {
              "pitch": 67,
              "velocity": 54,
              "position": 15,
              "duration": 0.975
            }
          ]
        },
        "12": {
          "ctab": {
            "srcChannel": 12,
            "name": "Pno A",
            "accType": "CHORD2",
            "editable": false,
            "mutedNotes": [],
            "mutedChords": [
              "1+2+5",
              "sus4",
              "1+5",
              "1+8",
              "7aug",
              "Maj7aug",
              "7(#9)",
              "7(b13)",
              "7(b9)",
              "7(13)",
              "7(9)",
              "7th",
              "dim7",
              "dim",
              "minMaj7(9)",
              "min7(11)",
              "min7(9)",
              "min(9)",
              "min7",
              "min6",
              "aug",
              "Maj6(9)",
              "Maj7(9)",
              "Maj(9)",
              "Maj6"
            ],
            "autoStart": false,
            "sourceChordNote": 0,
            "sourceChordType": "min7",
            "ctb2Low": null,
            "ctb2Main": {
              "ntr": "ROOT_TRANSPOSITION",
              "ntt": "CHORD",
              "bassOn": false,
              "chordRootUpperLimit": 2,
              "noteLowLimit": 54,
              "noteHighLimit": 79,
              "rtr": "PITCH_SHIFT"
            },
            "ctb2High": null
          },
          "notes": [
            {
              "pitch": 55,
              "velocity": 67,
              "position": 0,
              "duration": 0.9479166666666666
            },
            {
              "pitch": 51,
              "velocity": 66,
              "position": 0,
              "duration": 0.9583333333333334
            },
            {
              "pitch": 45,
              "velocity": 65,
              "position": 0,
              "duration": 0.96875
            },
            {
              "pitch": 48,
              "velocity": 60,
              "position": 0,
              "duration": 0.96875
            },
            {
              "pitch": 46,
              "velocity": 61,
              "position": 1.5,
              "duration": 0.22916666666666666
            },
            {
              "pitch": 50,
              "velocity": 64,
              "position": 1.5,
              "duration": 0.22916666666666666
            },
            {
              "pitch": 51,
              "velocity": 61,
              "position": 1.5,
              "duration": 0.22916666666666666
            },
            {
              "pitch": 55,
              "velocity": 65,
              "position": 1.5,
              "duration": 0.22916666666666666
            },
            {
              "pitch": 46,
              "velocity": 52,
              "position": 2.5,
              "duration": 0.2604166666666667
            },
            {
              "pitch": 51,
              "velocity": 55,
              "position": 2.5,
              "duration": 0.2708333333333333
            },
            {
              "pitch": 55,
              "velocity": 54,
              "position": 2.5,
              "duration": 0.2708333333333333
            },
            {
              "pitch": 50,
              "velocity": 53,
              "position": 2.5,
              "duration": 0.28125
            },
            {
              "pitch": 45,
              "velocity": 61,
              "position": 3.5,
              "duration": 2.2708333333333335
            },
            {
              "pitch": 48,
              "velocity": 66,
              "position": 3.5,
              "duration": 2.2708333333333335
            },
            {
              "pitch": 51,
              "velocity": 61,
              "position": 3.5,
              "duration": 2.2708333333333335
            },
            {
              "pitch": 55,
              "velocity": 61,
              "position": 3.5,
              "duration": 2.2708333333333335
            },
            {
              "pitch": 51,
              "velocity": 66,
              "position": 6,
              "duration": 0.21875
            },
            {
              "pitch": 46,
              "velocity": 62,
              "position": 6,
              "duration": 0.22916666666666666
            },
            {
              "pitch": 50,
              "velocity": 65,
              "position": 6,
              "duration": 0.22916666666666666
            },
            {
              "pitch": 55,
              "velocity": 64,
              "position": 6,
              "duration": 0.22916666666666666
            },
            {
              "pitch": 55,
              "velocity": 53,
              "position": 7,
              "duration": 0.2604166666666667
            },
            {
              "pitch": 46,
              "velocity": 54,
              "position": 7,
              "duration": 0.2708333333333333
            },
            {
              "pitch": 50,
              "velocity": 54,
              "position": 7,
              "duration": 0.2708333333333333
            },
            {
              "pitch": 51,
              "velocity": 54,
              "position": 7,
              "duration": 0.2708333333333333
            },
            {
              "pitch": 55,
              "velocity": 61,
              "position": 8,
              "duration": 0.9479166666666666
            },
            {
              "pitch": 51,
              "velocity": 61,
              "position": 8,
              "duration": 0.9583333333333334
            },
            {
              "pitch": 45,
              "velocity": 64,
              "position": 8,
              "duration": 0.96875
            },
            {
              "pitch": 48,
              "velocity": 61,
              "position": 8,
              "duration": 0.96875
            },
            {
              "pitch": 46,
              "velocity": 61,
              "position": 9.5,
              "duration": 0.21875
            },
            {
              "pitch": 50,
              "velocity": 59,
              "position": 9.5,
              "duration": 0.21875
            },
            {
              "pitch": 55,
              "velocity": 61,
              "position": 9.5,
              "duration": 0.21875
            },
            {
              "pitch": 51,
              "velocity": 64,
              "position": 9.5,
              "duration": 0.22916666666666666
            },
            {
              "pitch": 51,
              "velocity": 53,
              "position": 10.5,
              "duration": 0.2604166666666667
            },
            {
              "pitch": 46,
              "velocity": 53,
              "position": 10.5,
              "duration": 0.2708333333333333
            },
            {
              "pitch": 50,
              "velocity": 55,
              "position": 10.5,
              "duration": 0.2708333333333333
            },
            {
              "pitch": 55,
              "velocity": 57,
              "position": 10.5,
              "duration": 0.2708333333333333
            },
            {
              "pitch": 48,
              "velocity": 64,
              "position": 11.5,
              "duration": 2.2604166666666665
            },
            {
              "pitch": 45,
              "velocity": 62,
              "position": 11.5,
              "duration": 2.2708333333333335
            },
            {
              "pitch": 51,
              "velocity": 67,
              "position": 11.5,
              "duration": 2.2708333333333335
            },
            {
              "pitch": 55,
              "velocity": 65,
              "position": 11.5,
              "duration": 2.2708333333333335
            },
            {
              "pitch": 50,
              "velocity": 64,
              "position": 14,
              "duration": 0.21875
            },
            {
              "pitch": 46,
              "velocity": 64,
              "position": 14,
              "duration": 0.22916666666666666
            },
            {
              "pitch": 51,
              "velocity": 64,
              "position": 14,
              "duration": 0.22916666666666666
            },
            {
              "pitch": 55,
              "velocity": 62,
              "position": 14,
              "duration": 0.23958333333333334
            },
            {
              "pitch": 46,
              "velocity": 55,
              "position": 15,
              "duration": 0.2604166666666667
            },
            {
              "pitch": 50,
              "velocity": 53,
              "position": 15,
              "duration": 0.2604166666666667
            },
            {
              "pitch": 51,
              "velocity": 52,
              "position": 15,
              "duration": 0.2604166666666667
            },
            {
              "pitch": 55,
              "velocity": 51,
              "position": 15,
              "duration": 0.2708333333333333
            }
          ]
        },
        "13": {
          "ctab": {
            "srcChannel": 13,
            "name": "Str A",
            "accType": "PAD",
            "editable": false,
            "mutedNotes": [],
            "mutedChords": [
              "1+2+5",
              "sus4",
              "1+5",
              "1+8",
              "7aug",
              "Maj7aug",
              "7(#9)",
              "7(b13)",
              "7(b9)",
              "7(13)",
              "7(9)",
              "7th",
              "dim7",
              "dim",
              "minMaj7(9)",
              "min7(11)",
              "min7(9)",
              "min(9)",
              "min7",
              "min6",
              "aug",
              "Maj6(9)",
              "Maj7(9)",
              "Maj(9)",
              "Maj6"
            ],
            "autoStart": false,
            "sourceChordNote": 0,
            "sourceChordType": "min7",
            "ctb2Low": null,
            "ctb2Main": {
              "ntr": "ROOT_TRANSPOSITION",
              "ntt": "CHORD",
              "bassOn": false,
              "chordRootUpperLimit": 7,
              "noteLowLimit": 54,
              "noteHighLimit": 65,
              "rtr": "PITCH_SHIFT"
            },
            "ctb2High": null
          },
          "notes": [
            {
              "pitch": 57,
              "velocity": 67,
              "position": 0,
              "duration": 1.4958333333333333
            },
            {
              "pitch": 60,
              "velocity": 67,
              "position": 0,
              "duration": 1.4958333333333333
            },
            {
              "pitch": 58,
              "velocity": 67,
              "position": 1.5,
              "duration": 2.495833333333333
            },
            {
              "pitch": 62,
              "velocity": 67,
              "position": 1.5,
              "duration": 2.495833333333333
            },
            {
              "pitch": 57,
              "velocity": 67,
              "position": 4,
              "duration": 1.9854166666666666
            },
            {
              "pitch": 60,
              "velocity": 67,
              "position": 4,
              "duration": 1.9854166666666666
            },
            {
              "pitch": 58,
              "velocity": 67,
              "position": 6,
              "duration": 1.9854166666666666
            },
            {
              "pitch": 62,
              "velocity": 67,
              "position": 6,
              "duration": 1.9854166666666666
            },
            {
              "pitch": 57,
              "velocity": 67,
              "position": 8,
              "duration": 1.4958333333333333
            },
            {
              "pitch": 60,
              "velocity": 67,
              "position": 8,
              "duration": 1.4958333333333333
            },
            {
              "pitch": 58,
              "velocity": 67,
              "position": 9.5,
              "duration": 2.495833333333333
            },
            {
              "pitch": 62,
              "velocity": 67,
              "position": 9.5,
              "duration": 2.495833333333333
            },
            {
              "pitch": 57,
              "velocity": 67,
              "position": 12,
              "duration": 1.9854166666666666
            },
            {
              "pitch": 60,
              "velocity": 67,
              "position": 12,
              "duration": 1.9854166666666666
            },
            {
              "pitch": 58,
              "velocity": 67,
              "position": 14,
              "duration": 1.9708333333333334
            },
            {
              "pitch": 62,
              "velocity": 67,
              "position": 14,
              "duration": 1.9708333333333334
            },
            {
              "pitch": 63,
              "velocity": 67,
              "position": 0,
              "duration": 15.985416666666667
            },
            {
              "pitch": 67,
              "velocity": 67,
              "position": 0,
              "duration": 15.985416666666667
            }
          ]
        }
      }
    },
    "Main_D": {
      "type": "Main_D",
      "sizeInBeats": 16,
      "channels": {
        "2": {
          "ctab": {
            "srcChannel": 2,
            "name": "Gt B",
            "accType": "CHORD1",
            "editable": false,
            "mutedNotes": [],
            "mutedChords": [
              "7#11",
              "7b5",
              "7sus4",
              "minMaj7",
              "m7b5",
              "min",
              "Maj7#11",
              "Maj7",
              "Maj"
            ],
            "autoStart": false,
            "sourceChordNote": 0,
            "sourceChordType": "Maj7",
            "ctb2Low": null,
            "ctb2Main": {
              "ntr": "ROOT_FIXED",
              "ntt": "CHORD",
              "bassOn": false,
              "chordRootUpperLimit": 7,
              "noteLowLimit": 0,
              "noteHighLimit": 127,
              "rtr": "PITCH_SHIFT"
            },
            "ctb2High": null
          },
          "notes": [
            {
              "pitch": 55,
              "velocity": 30,
              "position": 0,
              "duration": 0.45416666666666666
            },
            {
              "pitch": 64,
              "velocity": 38,
              "position": 0,
              "duration": 0.46458333333333335
            },
            {
              "pitch": 59,
              "velocity": 39,
              "position": 0,
              "duration": 0.475
            },
            {
              "pitch": 55,
              "velocity": 50,
              "position": 0.5,
              "duration": 0.45416666666666666
            },
            {
              "pitch": 64,
              "velocity": 55,
              "position": 0.5,
              "duration": 0.46458333333333335
            },
            {
              "pitch": 59,
              "velocity": 60,
              "position": 0.5,
              "duration": 0.475
            },
            {
              "pitch": 64,
              "velocity": 68,
              "position": 1,
              "duration": 0.027083333333333334
            },
            {
              "pitch": 55,
              "velocity": 66,
              "position": 1,
              "duration": 0.0375
            },
            {
              "pitch": 59,
              "velocity": 68,
              "position": 1,
              "duration": 0.0375
            },
            {
              "pitch": 59,
              "velocity": 69,
              "position": 1.5,
              "duration": 0.027083333333333334
            },
            {
              "pitch": 64,
              "velocity": 69,
              "position": 1.5,
              "duration": 0.027083333333333334
            },
            {
              "pitch": 55,
              "velocity": 68,
              "position": 2,
              "duration": 0.20416666666666666
            },
            {
              "pitch": 64,
              "velocity": 72,
              "position": 2,
              "duration": 0.225
            },
            {
              "pitch": 59,
              "velocity": 72,
              "position": 2,
              "duration": 0.23541666666666666
            },
            {
              "pitch": 55,
              "velocity": 60,
              "position": 3,
              "duration": 0.20416666666666666
            },
            {
              "pitch": 64,
              "velocity": 64,
              "position": 3,
              "duration": 0.225
            },
            {
              "pitch": 59,
              "velocity": 63,
              "position": 3,
              "duration": 0.23541666666666666
            },
            {
              "pitch": 64,
              "velocity": 72,
              "position": 3.5,
              "duration": 0.016666666666666666
            },
            {
              "pitch": 59,
              "velocity": 69,
              "position": 3.5,
              "duration": 0.027083333333333334
            },
            {
              "pitch": 55,
              "velocity": 72,
              "position": 4,
              "duration": 0.45416666666666666
            },
            {
              "pitch": 64,
              "velocity": 74,
              "position": 4,
              "duration": 0.46458333333333335
            },
            {
              "pitch": 59,
              "velocity": 67,
              "position": 4,
              "duration": 0.48541666666666666
            },
            {
              "pitch": 55,
              "velocity": 43,
              "position": 4.5,
              "duration": 0.45416666666666666
            },
            {
              "pitch": 64,
              "velocity": 31,
              "position": 4.5,
              "duration": 0.46458333333333335
            },
            {
              "pitch": 59,
              "velocity": 40,
              "position": 4.5,
              "duration": 0.475
            },
            {
              "pitch": 55,
              "velocity": 71,
              "position": 5,
              "duration": 0.027083333333333334
            },
            {
              "pitch": 59,
              "velocity": 72,
              "position": 5,
              "duration": 0.0375
            },
            {
              "pitch": 64,
              "velocity": 69,
              "position": 5,
              "duration": 0.0375
            },
            {
              "pitch": 55,
              "velocity": 68,
              "position": 5.5,
              "duration": 0.20416666666666666
            },
            {
              "pitch": 64,
              "velocity": 72,
              "position": 5.5,
              "duration": 0.225
            },
            {
              "pitch": 59,
              "velocity": 72,
              "position": 5.5,
              "duration": 0.23541666666666666
            },
            {
              "pitch": 55,
              "velocity": 68,
              "position": 6.5,
              "duration": 0.20416666666666666
            },
            {
              "pitch": 64,
              "velocity": 72,
              "position": 6.5,
              "duration": 0.225
            },
            {
              "pitch": 59,
              "velocity": 72,
              "position": 6.5,
              "duration": 0.23541666666666666
            },
            {
              "pitch": 55,
              "velocity": 72,
              "position": 7.5,
              "duration": 0.45416666666666666
            },
            {
              "pitch": 64,
              "velocity": 68,
              "position": 7.5,
              "duration": 0.46458333333333335
            },
            {
              "pitch": 59,
              "velocity": 72,
              "position": 7.5,
              "duration": 0.48541666666666666
            },
            {
              "pitch": 55,
              "velocity": 30,
              "position": 8,
              "duration": 0.45416666666666666
            },
            {
              "pitch": 64,
              "velocity": 38,
              "position": 8,
              "duration": 0.46458333333333335
            },
            {
              "pitch": 59,
              "velocity": 39,
              "position": 8,
              "duration": 0.475
            },
            {
              "pitch": 55,
              "velocity": 50,
              "position": 8.5,
              "duration": 0.45416666666666666
            },
            {
              "pitch": 64,
              "velocity": 55,
              "position": 8.5,
              "duration": 0.46458333333333335
            },
            {
              "pitch": 59,
              "velocity": 60,
              "position": 8.5,
              "duration": 0.475
            },
            {
              "pitch": 64,
              "velocity": 68,
              "position": 9,
              "duration": 0.027083333333333334
            },
            {
              "pitch": 55,
              "velocity": 66,
              "position": 9,
              "duration": 0.0375
            },
            {
              "pitch": 59,
              "velocity": 68,
              "position": 9,
              "duration": 0.0375
            },
            {
              "pitch": 59,
              "velocity": 69,
              "position": 9.5,
              "duration": 0.027083333333333334
            },
            {
              "pitch": 64,
              "velocity": 69,
              "position": 9.5,
              "duration": 0.027083333333333334
            },
            {
              "pitch": 55,
              "velocity": 68,
              "position": 10,
              "duration": 0.20416666666666666
            },
            {
              "pitch": 64,
              "velocity": 72,
              "position": 10,
              "duration": 0.225
            },
            {
              "pitch": 59,
              "velocity": 72,
              "position": 10,
              "duration": 0.23541666666666666
            },
            {
              "pitch": 55,
              "velocity": 60,
              "position": 11,
              "duration": 0.20416666666666666
            },
            {
              "pitch": 64,
              "velocity": 64,
              "position": 11,
              "duration": 0.225
            },
            {
              "pitch": 59,
              "velocity": 63,
              "position": 11,
              "duration": 0.23541666666666666
            },
            {
              "pitch": 64,
              "velocity": 72,
              "position": 11.5,
              "duration": 0.016666666666666666
            },
            {
              "pitch": 59,
              "velocity": 69,
              "position": 11.5,
              "duration": 0.027083333333333334
            },
            {
              "pitch": 55,
              "velocity": 72,
              "position": 12,
              "duration": 0.45416666666666666
            },
            {
              "pitch": 64,
              "velocity": 74,
              "position": 12,
              "duration": 0.46458333333333335
            },
            {
              "pitch": 59,
              "velocity": 67,
              "position": 12,
              "duration": 0.48541666666666666
            },
            {
              "pitch": 55,
              "velocity": 43,
              "position": 12.5,
              "duration": 0.45416666666666666
            },
            {
              "pitch": 64,
              "velocity": 31,
              "position": 12.5,
              "duration": 0.46458333333333335
            },
            {
              "pitch": 59,
              "velocity": 40,
              "position": 12.5,
              "duration": 0.475
            },
            {
              "pitch": 55,
              "velocity": 71,
              "position": 13,
              "duration": 0.027083333333333334
            },
            {
              "pitch": 59,
              "velocity": 72,
              "position": 13,
              "duration": 0.0375
            },
            {
              "pitch": 64,
              "velocity": 69,
              "position": 13,
              "duration": 0.0375
            },
            {
              "pitch": 55,
              "velocity": 68,
              "position": 13.5,
              "duration": 0.20416666666666666
            },
            {
              "pitch": 64,
              "velocity": 72,
              "position": 13.5,
              "duration": 0.225
            },
            {
              "pitch": 59,
              "velocity": 72,
              "position": 13.5,
              "duration": 0.23541666666666666
            },
            {
              "pitch": 55,
              "velocity": 68,
              "position": 14.5,
              "duration": 0.20416666666666666
            },
            {
              "pitch": 64,
              "velocity": 72,
              "position": 14.5,
              "duration": 0.225
            },
            {
              "pitch": 59,
              "velocity": 72,
              "position": 14.5,
              "duration": 0.23541666666666666
            },
            {
              "pitch": 55,
              "velocity": 72,
              "position": 15.5,
              "duration": 0.45416666666666666
            },
            {
              "pitch": 64,
              "velocity": 68,
              "position": 15.5,
              "duration": 0.46458333333333335
            },
            {
              "pitch": 59,
              "velocity": 72,
              "position": 15.5,
              "duration": 0.48541666666666666
            }
          ]
        },
        "3": {
          "ctab": {
            "srcChannel": 3,
            "name": "Pno B",
            "accType": "CHORD2",
            "editable": false,
            "mutedNotes": [],
            "mutedChords": [
              "7#11",
              "7b5",
              "7sus4",
              "minMaj7",
              "m7b5",
              "min",
              "Maj7#11",
              "Maj7",
              "Maj"
            ],
            "autoStart": false,
            "sourceChordNote": 0,
            "sourceChordType": "Maj7",
            "ctb2Low": null,
            "ctb2Main": {
              "ntr": "ROOT_TRANSPOSITION",
              "ntt": "CHORD",
              "bassOn": false,
              "chordRootUpperLimit": 2,
              "noteLowLimit": 54,
              "noteHighLimit": 79,
              "rtr": "PITCH_SHIFT"
            },
            "ctb2High": null
          },
          "notes": [
            {
              "pitch": 43,
              "velocity": 56,
              "position": 0.5,
              "duration": 0.19791666666666666
            },
            {
              "pitch": 47,
              "velocity": 54,
              "position": 0.5,
              "duration": 0.19791666666666666
            },
            {
              "pitch": 52,
              "velocity": 59,
              "position": 0.5,
              "duration": 0.19791666666666666
            },
            {
              "pitch": 76,
              "velocity": 65,
              "position": 1,
              "duration": 0.19791666666666666
            },
            {
              "pitch": 79,
              "velocity": 65,
              "position": 1,
              "duration": 0.19791666666666666
            },
            {
              "pitch": 83,
              "velocity": 65,
              "position": 1,
              "duration": 0.19791666666666666
            },
            {
              "pitch": 47,
              "velocity": 67,
              "position": 2,
              "duration": 0.21875
            },
            {
              "pitch": 52,
              "velocity": 67,
              "position": 2,
              "duration": 0.22916666666666666
            },
            {
              "pitch": 43,
              "velocity": 64,
              "position": 2,
              "duration": 0.23958333333333334
            },
            {
              "pitch": 76,
              "velocity": 65,
              "position": 2.5,
              "duration": 0.19791666666666666
            },
            {
              "pitch": 79,
              "velocity": 65,
              "position": 2.5,
              "duration": 0.19791666666666666
            },
            {
              "pitch": 83,
              "velocity": 65,
              "position": 2.5,
              "duration": 0.19791666666666666
            },
            {
              "pitch": 47,
              "velocity": 55,
              "position": 3,
              "duration": 0.2604166666666667
            },
            {
              "pitch": 52,
              "velocity": 54,
              "position": 3,
              "duration": 0.2604166666666667
            },
            {
              "pitch": 43,
              "velocity": 54,
              "position": 3,
              "duration": 0.2708333333333333
            },
            {
              "pitch": 76,
              "velocity": 65,
              "position": 4,
              "duration": 0.19791666666666666
            },
            {
              "pitch": 79,
              "velocity": 65,
              "position": 4,
              "duration": 0.19791666666666666
            },
            {
              "pitch": 83,
              "velocity": 65,
              "position": 4,
              "duration": 0.19791666666666666
            },
            {
              "pitch": 43,
              "velocity": 69,
              "position": 4,
              "duration": 0.9479166666666666
            },
            {
              "pitch": 52,
              "velocity": 68,
              "position": 4,
              "duration": 0.9583333333333334
            },
            {
              "pitch": 47,
              "velocity": 67,
              "position": 4,
              "duration": 0.96875
            },
            {
              "pitch": 76,
              "velocity": 65,
              "position": 5.5,
              "duration": 0.19791666666666666
            },
            {
              "pitch": 79,
              "velocity": 65,
              "position": 5.5,
              "duration": 0.19791666666666666
            },
            {
              "pitch": 83,
              "velocity": 65,
              "position": 5.5,
              "duration": 0.19791666666666666
            },
            {
              "pitch": 43,
              "velocity": 67,
              "position": 5.5,
              "duration": 0.22916666666666666
            },
            {
              "pitch": 47,
              "velocity": 67,
              "position": 5.5,
              "duration": 0.22916666666666666
            },
            {
              "pitch": 52,
              "velocity": 64,
              "position": 5.5,
              "duration": 0.22916666666666666
            },
            {
              "pitch": 43,
              "velocity": 56,
              "position": 6.5,
              "duration": 0.2708333333333333
            },
            {
              "pitch": 52,
              "velocity": 57,
              "position": 6.5,
              "duration": 0.2708333333333333
            },
            {
              "pitch": 47,
              "velocity": 55,
              "position": 6.5,
              "duration": 0.28125
            },
            {
              "pitch": 76,
              "velocity": 65,
              "position": 7,
              "duration": 0.19791666666666666
            },
            {
              "pitch": 79,
              "velocity": 65,
              "position": 7,
              "duration": 0.19791666666666666
            },
            {
              "pitch": 83,
              "velocity": 65,
              "position": 7,
              "duration": 0.19791666666666666
            },
            {
              "pitch": 43,
              "velocity": 64,
              "position": 7.5,
              "duration": 0.19791666666666666
            },
            {
              "pitch": 47,
              "velocity": 64,
              "position": 7.5,
              "duration": 0.19791666666666666
            },
            {
              "pitch": 52,
              "velocity": 64,
              "position": 7.5,
              "duration": 0.19791666666666666
            },
            {
              "pitch": 43,
              "velocity": 53,
              "position": 8.5,
              "duration": 0.19791666666666666
            },
            {
              "pitch": 47,
              "velocity": 53,
              "position": 8.5,
              "duration": 0.19791666666666666
            },
            {
              "pitch": 52,
              "velocity": 53,
              "position": 8.5,
              "duration": 0.19791666666666666
            },
            {
              "pitch": 76,
              "velocity": 65,
              "position": 9,
              "duration": 0.19791666666666666
            },
            {
              "pitch": 79,
              "velocity": 65,
              "position": 9,
              "duration": 0.19791666666666666
            },
            {
              "pitch": 83,
              "velocity": 65,
              "position": 9,
              "duration": 0.19791666666666666
            },
            {
              "pitch": 52,
              "velocity": 68,
              "position": 10,
              "duration": 0.21875
            },
            {
              "pitch": 43,
              "velocity": 66,
              "position": 10,
              "duration": 0.22916666666666666
            },
            {
              "pitch": 47,
              "velocity": 67,
              "position": 10,
              "duration": 0.22916666666666666
            },
            {
              "pitch": 76,
              "velocity": 65,
              "position": 10.5,
              "duration": 0.19791666666666666
            },
            {
              "pitch": 79,
              "velocity": 65,
              "position": 10.5,
              "duration": 0.19791666666666666
            },
            {
              "pitch": 83,
              "velocity": 65,
              "position": 10.5,
              "duration": 0.19791666666666666
            },
            {
              "pitch": 43,
              "velocity": 55,
              "position": 11,
              "duration": 0.2604166666666667
            },
            {
              "pitch": 47,
              "velocity": 56,
              "position": 11,
              "duration": 0.2708333333333333
            },
            {
              "pitch": 52,
              "velocity": 56,
              "position": 11,
              "duration": 0.2708333333333333
            },
            {
              "pitch": 76,
              "velocity": 65,
              "position": 12,
              "duration": 0.19791666666666666
            },
            {
              "pitch": 79,
              "velocity": 65,
              "position": 12,
              "duration": 0.19791666666666666
            },
            {
              "pitch": 83,
              "velocity": 65,
              "position": 12,
              "duration": 0.19791666666666666
            },
            {
              "pitch": 43,
              "velocity": 64,
              "position": 12,
              "duration": 0.9479166666666666
            },
            {
              "pitch": 52,
              "velocity": 64,
              "position": 12,
              "duration": 0.9583333333333334
            },
            {
              "pitch": 47,
              "velocity": 66,
              "position": 12,
              "duration": 0.96875
            },
            {
              "pitch": 76,
              "velocity": 65,
              "position": 13.5,
              "duration": 0.19791666666666666
            },
            {
              "pitch": 79,
              "velocity": 65,
              "position": 13.5,
              "duration": 0.19791666666666666
            },
            {
              "pitch": 83,
              "velocity": 65,
              "position": 13.5,
              "duration": 0.19791666666666666
            },
            {
              "pitch": 43,
              "velocity": 64,
              "position": 13.5,
              "duration": 0.21875
            },
            {
              "pitch": 47,
              "velocity": 61,
              "position": 13.5,
              "duration": 0.21875
            },
            {
              "pitch": 52,
              "velocity": 67,
              "position": 13.5,
              "duration": 0.22916666666666666
            },
            {
              "pitch": 52,
              "velocity": 55,
              "position": 14.5,
              "duration": 0.2604166666666667
            },
            {
              "pitch": 43,
              "velocity": 60,
              "position": 14.5,
              "duration": 0.2708333333333333
            },
            {
              "pitch": 47,
              "velocity": 57,
              "position": 14.5,
              "duration": 0.2708333333333333
            },
            {
              "pitch": 76,
              "velocity": 65,
              "position": 15,
              "duration": 0.19791666666666666
            },
            {
              "pitch": 79,
              "velocity": 65,
              "position": 15,
              "duration": 0.19791666666666666
            },
            {
              "pitch": 83,
              "velocity": 65,
              "position": 15,
              "duration": 0.19791666666666666
            },
            {
              "pitch": 43,
              "velocity": 67,
              "position": 15.5,
              "duration": 0.19791666666666666
            },
            {
              "pitch": 47,
              "velocity": 64,
              "position": 15.5,
              "duration": 0.19791666666666666
            },
            {
              "pitch": 52,
              "velocity": 69,
              "position": 15.5,
              "duration": 0.19791666666666666
            }
          ]
        },
        "4": {
          "ctab": {
            "srcChannel": 4,
            "name": "Str B",
            "accType": "PAD",
            "editable": false,
            "mutedNotes": [],
            "mutedChords": [
              "7#11",
              "7b5",
              "7sus4",
              "minMaj7",
              "m7b5",
              "min",
              "Maj7#11",
              "Maj7",
              "Maj"
            ],
            "autoStart": false,
            "sourceChordNote": 0,
            "sourceChordType": "Maj7",
            "ctb2Low": null,
            "ctb2Main": {
              "ntr": "ROOT_FIXED",
              "ntt": "CHORD",
              "bassOn": false,
              "chordRootUpperLimit": 7,
              "noteLowLimit": 0,
              "noteHighLimit": 127,
              "rtr": "PITCH_SHIFT"
            },
            "ctb2High": null
          },
          "notes": [
            {
              "pitch": 55,
              "velocity": 85,
              "position": 0,
              "duration": 15.985416666666667
            },
            {
              "pitch": 59,
              "velocity": 85,
              "position": 0,
              "duration": 15.985416666666667
            },
            {
              "pitch": 64,
              "velocity": 85,
              "position": 0,
              "duration": 15.985416666666667
            }
          ]
        },
        "7": {
          "ctab": {
            "srcChannel": 7,
            "name": "CC_Crash",
            "accType": "RHYTHM",
            "editable": true,
            "mutedNotes": [],
            "mutedChords": [
              "1+2+5",
              "sus4",
              "1+5",
              "1+8",
              "7aug",
              "Maj7aug",
              "7(#9)",
              "7(b13)",
              "7(b9)",
              "7(13)",
              "7#11",
              "7(9)",
              "7b5",
              "7sus4",
              "7th",
              "dim7",
              "dim",
              "minMaj7(9)",
              "minMaj7",
              "min7(11)",
              "min7(9)",
              "min(9)",
              "m7b5",
              "min7",
              "min6",
              "min",
              "aug",
              "Maj6(9)",
              "Maj7(9)",
              "Maj(9)",
              "Maj7#11",
              "Maj7",
              "Maj6",
              "Maj"
            ],
            "autoStart": true,
            "sourceChordNote": 0,
            "sourceChordType": "Maj",
            "ctb2Low": null,
            "ctb2Main": {
              "ntr": "ROOT_FIXED",
              "ntt": "BYPASS",
              "bassOn": false,
              "chordRootUpperLimit": 0,
              "noteLowLimit": 0,
              "noteHighLimit": 127,
              "rtr": "RETRIGGER"
            },
            "ctb2High": null
          },
          "notes": []
        },
        "8": {
          "ctab": {
            "srcChannel": 8,
            "name": "Perc",
            "accType": "SUBRHYTHM",
            "editable": false,
            "mutedNotes": [],
            "mutedChords": [],
            "autoStart": true,
            "sourceChordNote": 0,
            "sourceChordType": "Maj7",
            "ctb2Low": null,
            "ctb2Main": {
              "ntr": "ROOT_FIXED",
              "ntt": "BYPASS",
              "bassOn": false,
              "chordRootUpperLimit": 6,
              "noteLowLimit": 0,
              "noteHighLimit": 127,
              "rtr": "PITCH_SHIFT"
            },
            "ctb2High": null
          },
          "notes": [
            {
              "pitch": 82,
              "velocity": 56,
              "position": 0,
              "duration": 0.00625
            },
            {
              "pitch": 82,
              "velocity": 38,
              "position": 0.25,
              "duration": 0.00625
            },
            {
              "pitch": 78,
              "velocity": 42,
              "position": 0.5,
              "duration": 0.00625
            },
            {
              "pitch": 82,
              "velocity": 32,
              "position": 0.5,
              "duration": 0.00625
            },
            {
              "pitch": 82,
              "velocity": 32,
              "position": 0.75,
              "duration": 0.00625
            },
            {
              "pitch": 82,
              "velocity": 88,
              "position": 1,
              "duration": 0.00625
            },
            {
              "pitch": 82,
              "velocity": 32,
              "position": 1.5,
              "duration": 0.00625
            },
            {
              "pitch": 82,
              "velocity": 56,
              "position": 2,
              "duration": 0.00625
            },
            {
              "pitch": 82,
              "velocity": 32,
              "position": 2.5,
              "duration": 0.00625
            },
            {
              "pitch": 82,
              "velocity": 88,
              "position": 3,
              "duration": 0.00625
            },
            {
              "pitch": 82,
              "velocity": 32,
              "position": 3.5,
              "duration": 0.00625
            },
            {
              "pitch": 82,
              "velocity": 56,
              "position": 4,
              "duration": 0.00625
            },
            {
              "pitch": 82,
              "velocity": 32,
              "position": 4.5,
              "duration": 0.00625
            },
            {
              "pitch": 82,
              "velocity": 88,
              "position": 5,
              "duration": 0.00625
            },
            {
              "pitch": 82,
              "velocity": 32,
              "position": 5.5,
              "duration": 0.00625
            },
            {
              "pitch": 82,
              "velocity": 56,
              "position": 6,
              "duration": 0.00625
            },
            {
              "pitch": 78,
              "velocity": 42,
              "position": 6.5,
              "duration": 0.00625
            },
            {
              "pitch": 82,
              "velocity": 32,
              "position": 6.5,
              "duration": 0.00625
            },
            {
              "pitch": 82,
              "velocity": 88,
              "position": 7,
              "duration": 0.00625
            },
            {
              "pitch": 82,
              "velocity": 32,
              "position": 7.5,
              "duration": 0.00625
            },
            {
              "pitch": 82,
              "velocity": 56,
              "position": 8,
              "duration": 0.00625
            },
            {
              "pitch": 82,
              "velocity": 38,
              "position": 8.25,
              "duration": 0.00625
            },
            {
              "pitch": 78,
              "velocity": 42,
              "position": 8.5,
              "duration": 0.00625
            },
            {
              "pitch": 82,
              "velocity": 32,
              "position": 8.5,
              "duration": 0.00625
            },
            {
              "pitch": 82,
              "velocity": 32,
              "position": 8.75,
              "duration": 0.00625
            },
            {
              "pitch": 82,
              "velocity": 88,
              "position": 9,
              "duration": 0.00625
            },
            {
              "pitch": 82,
              "velocity": 32,
              "position": 9.5,
              "duration": 0.00625
            },
            {
              "pitch": 82,
              "velocity": 56,
              "position": 10,
              "duration": 0.00625
            },
            {
              "pitch": 82,
              "velocity": 32,
              "position": 10.5,
              "duration": 0.00625
            },
            {
              "pitch": 82,
              "velocity": 88,
              "position": 11,
              "duration": 0.00625
            },
            {
              "pitch": 82,
              "velocity": 32,
              "position": 11.5,
              "duration": 0.00625
            },
            {
              "pitch": 82,
              "velocity": 56,
              "position": 12,
              "duration": 0.00625
            },
            {
              "pitch": 82,
              "velocity": 32,
              "position": 12.5,
              "duration": 0.00625
            },
            {
              "pitch": 82,
              "velocity": 88,
              "position": 13,
              "duration": 0.00625
            },
            {
              "pitch": 82,
              "velocity": 32,
              "position": 13.5,
              "duration": 0.00625
            },
            {
              "pitch": 82,
              "velocity": 56,
              "position": 14,
              "duration": 0.00625
            },
            {
              "pitch": 78,
              "velocity": 42,
              "position": 14.5,
              "duration": 0.00625
            },
            {
              "pitch": 82,
              "velocity": 32,
              "position": 14.5,
              "duration": 0.00625
            },
            {
              "pitch": 82,
              "velocity": 88,
              "position": 15,
              "duration": 0.00625
            },
            {
              "pitch": 82,
              "velocity": 32,
              "position": 15.5,
              "duration": 0.00625
            }
          ]
        },
        "9": {
          "ctab": {
            "srcChannel": 9,
            "name": "Drums",
            "accType": "RHYTHM",
            "editable": false,
            "mutedNotes": [],
            "mutedChords": [],
            "autoStart": true,
            "sourceChordNote": 0,
            "sourceChordType": "Maj7",
            "ctb2Low": null,
            "ctb2Main": {
              "ntr": "ROOT_FIXED",
              "ntt": "BYPASS",
              "bassOn": false,
              "chordRootUpperLimit": 6,
              "noteLowLimit": 0,
              "noteHighLimit": 127,
              "rtr": "PITCH_SHIFT"
            },
            "ctb2High": null
          },
          "notes": [
            {
              "pitch": 33,
              "velocity": 72,
              "position": 0,
              "duration": 0.00625
            },
            {
              "pitch": 44,
              "velocity": 32,
              "position": 0,
              "duration": 0.00625
            },
            {
              "pitch": 59,
              "velocity": 90,
              "position": 0,
              "duration": 0.00625
            },
            {
              "pitch": 38,
              "velocity": 72,
              "position": 0.5,
              "duration": 0.00625
            },
            {
              "pitch": 59,
              "velocity": 41,
              "position": 0.5,
              "duration": 0.00625
            },
            {
              "pitch": 44,
              "velocity": 62,
              "position": 1,
              "duration": 0.00625
            },
            {
              "pitch": 59,
              "velocity": 90,
              "position": 1,
              "duration": 0.00625
            },
            {
              "pitch": 33,
              "velocity": 36,
              "position": 1.5,
              "duration": 0.00625
            },
            {
              "pitch": 59,
              "velocity": 41,
              "position": 1.5,
              "duration": 0.00625
            },
            {
              "pitch": 33,
              "velocity": 72,
              "position": 2,
              "duration": 0.00625
            },
            {
              "pitch": 41,
              "velocity": 64,
              "position": 2,
              "duration": 0.00625
            },
            {
              "pitch": 44,
              "velocity": 32,
              "position": 2,
              "duration": 0.00625
            },
            {
              "pitch": 59,
              "velocity": 90,
              "position": 2,
              "duration": 0.00625
            },
            {
              "pitch": 59,
              "velocity": 41,
              "position": 2.5,
              "duration": 0.00625
            },
            {
              "pitch": 44,
              "velocity": 62,
              "position": 3,
              "duration": 0.00625
            },
            {
              "pitch": 59,
              "velocity": 41,
              "position": 3,
              "duration": 0.00625
            },
            {
              "pitch": 33,
              "velocity": 36,
              "position": 3.5,
              "duration": 0.00625
            },
            {
              "pitch": 38,
              "velocity": 48,
              "position": 3.5,
              "duration": 0.00625
            },
            {
              "pitch": 59,
              "velocity": 90,
              "position": 3.5,
              "duration": 0.00625
            },
            {
              "pitch": 38,
              "velocity": 36,
              "position": 3.6666666666666665,
              "duration": 0.00625
            },
            {
              "pitch": 38,
              "velocity": 24,
              "position": 3.8333333333333335,
              "duration": 0.00625
            },
            {
              "pitch": 33,
              "velocity": 72,
              "position": 4,
              "duration": 0.00625
            },
            {
              "pitch": 44,
              "velocity": 32,
              "position": 4,
              "duration": 0.00625
            },
            {
              "pitch": 59,
              "velocity": 41,
              "position": 4,
              "duration": 0.00625
            },
            {
              "pitch": 38,
              "velocity": 72,
              "position": 4.5,
              "duration": 0.00625
            },
            {
              "pitch": 59,
              "velocity": 90,
              "position": 4.5,
              "duration": 0.00625
            },
            {
              "pitch": 44,
              "velocity": 62,
              "position": 5,
              "duration": 0.00625
            },
            {
              "pitch": 59,
              "velocity": 41,
              "position": 5,
              "duration": 0.00625
            },
            {
              "pitch": 33,
              "velocity": 36,
              "position": 5.5,
              "duration": 0.00625
            },
            {
              "pitch": 59,
              "velocity": 90,
              "position": 5.5,
              "duration": 0.00625
            },
            {
              "pitch": 33,
              "velocity": 72,
              "position": 6,
              "duration": 0.00625
            },
            {
              "pitch": 41,
              "velocity": 64,
              "position": 6,
              "duration": 0.00625
            },
            {
              "pitch": 44,
              "velocity": 32,
              "position": 6,
              "duration": 0.00625
            },
            {
              "pitch": 59,
              "velocity": 41,
              "position": 6,
              "duration": 0.00625
            },
            {
              "pitch": 59,
              "velocity": 41,
              "position": 6.5,
              "duration": 0.00625
            },
            {
              "pitch": 44,
              "velocity": 62,
              "position": 7,
              "duration": 0.00625
            },
            {
              "pitch": 59,
              "velocity": 90,
              "position": 7,
              "duration": 0.00625
            },
            {
              "pitch": 33,
              "velocity": 36,
              "position": 7.5,
              "duration": 0.00625
            },
            {
              "pitch": 38,
              "velocity": 48,
              "position": 7.5,
              "duration": 0.00625
            },
            {
              "pitch": 59,
              "velocity": 41,
              "position": 7.5,
              "duration": 0.00625
            },
            {
              "pitch": 33,
              "velocity": 72,
              "position": 8,
              "duration": 0.00625
            },
            {
              "pitch": 44,
              "velocity": 32,
              "position": 8,
              "duration": 0.00625
            },
            {
              "pitch": 59,
              "velocity": 90,
              "position": 8,
              "duration": 0.00625
            },
            {
              "pitch": 38,
              "velocity": 72,
              "position": 8.5,
              "duration": 0.00625
            },
            {
              "pitch": 59,
              "velocity": 41,
              "position": 8.5,
              "duration": 0.00625
            },
            {
              "pitch": 44,
              "velocity": 62,
              "position": 9,
              "duration": 0.00625
            },
            {
              "pitch": 59,
              "velocity": 90,
              "position": 9,
              "duration": 0.00625
            },
            {
              "pitch": 33,
              "velocity": 36,
              "position": 9.5,
              "duration": 0.00625
            },
            {
              "pitch": 59,
              "velocity": 41,
              "position": 9.5,
              "duration": 0.00625
            },
            {
              "pitch": 33,
              "velocity": 72,
              "position": 10,
              "duration": 0.00625
            },
            {
              "pitch": 41,
              "velocity": 64,
              "position": 10,
              "duration": 0.00625
            },
            {
              "pitch": 44,
              "velocity": 32,
              "position": 10,
              "duration": 0.00625
            },
            {
              "pitch": 59,
              "velocity": 90,
              "position": 10,
              "duration": 0.00625
            },
            {
              "pitch": 41,
              "velocity": 44,
              "position": 10.5,
              "duration": 0.00625
            },
            {
              "pitch": 59,
              "velocity": 41,
              "position": 10.5,
              "duration": 0.00625
            },
            {
              "pitch": 44,
              "velocity": 62,
              "position": 11,
              "duration": 0.00625
            },
            {
              "pitch": 59,
              "velocity": 41,
              "position": 11,
              "duration": 0.00625
            },
            {
              "pitch": 33,
              "velocity": 36,
              "position": 11.5,
              "duration": 0.00625
            },
            {
              "pitch": 41,
              "velocity": 44,
              "position": 11.5,
              "duration": 0.00625
            },
            {
              "pitch": 59,
              "velocity": 90,
              "position": 11.5,
              "duration": 0.00625
            },
            {
              "pitch": 33,
              "velocity": 72,
              "position": 12,
              "duration": 0.00625
            },
            {
              "pitch": 44,
              "velocity": 32,
              "position": 12,
              "duration": 0.00625
            },
            {
              "pitch": 59,
              "velocity": 41,
              "position": 12,
              "duration": 0.00625
            },
            {
              "pitch": 38,
              "velocity": 72,
              "position": 12.5,
              "duration": 0.00625
            },
            {
              "pitch": 59,
              "velocity": 90,
              "position": 12.5,
              "duration": 0.00625
            },
            {
              "pitch": 44,
              "velocity": 62,
              "position": 13,
              "duration": 0.00625
            },
            {
              "pitch": 59,
              "velocity": 41,
              "position": 13,
              "duration": 0.00625
            },
            {
              "pitch": 33,
              "velocity": 36,
              "position": 13.5,
              "duration": 0.00625
            },
            {
              "pitch": 59,
              "velocity": 90,
              "position": 13.5,
              "duration": 0.00625
            },
            {
              "pitch": 33,
              "velocity": 72,
              "position": 14,
              "duration": 0.00625
            },
            {
              "pitch": 41,
              "velocity": 64,
              "position": 14,
              "duration": 0.00625
            },
            {
              "pitch": 44,
              "velocity": 32,
              "position": 14,
              "duration": 0.00625
            },
            {
              "pitch": 59,
              "velocity": 41,
              "position": 14,
              "duration": 0.00625
            },
            {
              "pitch": 59,
              "velocity": 41,
              "position": 14.5,
              "duration": 0.00625
            },
            {
              "pitch": 44,
              "velocity": 62,
              "position": 15,
              "duration": 0.00625
            },
            {
              "pitch": 59,
              "velocity": 90,
              "position": 15,
              "duration": 0.00625
            },
            {
              "pitch": 33,
              "velocity": 36,
              "position": 15.5,
              "duration": 0.00625
            },
            {
              "pitch": 38,
              "velocity": 72,
              "position": 15.5,
              "duration": 0.00625
            },
            {
              "pitch": 59,
              "velocity": 41,
              "position": 15.5,
              "duration": 0.00625
            }
          ]
        },
        "10": {
          "ctab": {
            "srcChannel": 10,
            "name": "Bass",
            "accType": "BASS",
            "editable": false,
            "mutedNotes": [],
            "mutedChords": [],
            "autoStart": false,
            "sourceChordNote": 0,
            "sourceChordType": "Maj7",
            "ctb2Low": null,
            "ctb2Main": {
              "ntr": "ROOT_TRANSPOSITION",
              "ntt": "MELODY",
              "bassOn": true,
              "chordRootUpperLimit": 8,
              "noteLowLimit": 28,
              "noteHighLimit": 127,
              "rtr": "PITCH_SHIFT_TO_ROOT"
            },
            "ctb2High": null
          },
          "notes": [
            {
              "pitch": 24,
              "velocity": 98,
              "position": 0,
              "duration": 0.27708333333333335
            },
            {
              "pitch": 24,
              "velocity": 72,
              "position": 1.5,
              "duration": 0.11041666666666666
            },
            {
              "pitch": 31,
              "velocity": 98,
              "position": 2,
              "duration": 1.7770833333333333
            },
            {
              "pitch": 24,
              "velocity": 98,
              "position": 4,
              "duration": 0.27708333333333335
            },
            {
              "pitch": 24,
              "velocity": 72,
              "position": 5.5,
              "duration": 0.11041666666666666
            },
            {
              "pitch": 31,
              "velocity": 98,
              "position": 6,
              "duration": 1.7770833333333333
            },
            {
              "pitch": 24,
              "velocity": 98,
              "position": 8,
              "duration": 0.27708333333333335
            },
            {
              "pitch": 24,
              "velocity": 72,
              "position": 9.5,
              "duration": 0.11041666666666666
            },
            {
              "pitch": 31,
              "velocity": 98,
              "position": 10,
              "duration": 1.81875
            },
            {
              "pitch": 24,
              "velocity": 98,
              "position": 12,
              "duration": 0.27708333333333335
            },
            {
              "pitch": 24,
              "velocity": 72,
              "position": 13.5,
              "duration": 0.11041666666666666
            },
            {
              "pitch": 31,
              "velocity": 98,
              "position": 14,
              "duration": 0.9854166666666667
            },
            {
              "pitch": 31,
              "velocity": 98,
              "position": 15,
              "duration": 0.9854166666666667
            }
          ]
        },
        "11": {
          "ctab": {
            "srcChannel": 11,
            "name": "Gt A",
            "accType": "CHORD1",
            "editable": false,
            "mutedNotes": [],
            "mutedChords": [
              "1+2+5",
              "sus4",
              "1+5",
              "1+8",
              "7aug",
              "Maj7aug",
              "7(#9)",
              "7(b13)",
              "7(b9)",
              "7(13)",
              "7(9)",
              "7th",
              "dim7",
              "dim",
              "minMaj7(9)",
              "min7(11)",
              "min7(9)",
              "min(9)",
              "min7",
              "min6",
              "aug",
              "Maj6(9)",
              "Maj7(9)",
              "Maj(9)",
              "Maj6"
            ],
            "autoStart": false,
            "sourceChordNote": 0,
            "sourceChordType": "min7",
            "ctb2Low": null,
            "ctb2Main": {
              "ntr": "ROOT_TRANSPOSITION",
              "ntt": "CHORD",
              "bassOn": false,
              "chordRootUpperLimit": 7,
              "noteLowLimit": 54,
              "noteHighLimit": 65,
              "rtr": "PITCH_SHIFT"
            },
            "ctb2High": null
          },
          "notes": [
            {
              "pitch": 67,
              "velocity": 33,
              "position": 0,
              "duration": 0.45416666666666666
            },
            {
              "pitch": 63,
              "velocity": 41,
              "position": 0,
              "duration": 0.46458333333333335
            },
            {
              "pitch": 57,
              "velocity": 42,
              "position": 0,
              "duration": 0.475
            },
            {
              "pitch": 67,
              "velocity": 53,
              "position": 0.5,
              "duration": 0.45416666666666666
            },
            {
              "pitch": 63,
              "velocity": 58,
              "position": 0.5,
              "duration": 0.46458333333333335
            },
            {
              "pitch": 57,
              "velocity": 63,
              "position": 0.5,
              "duration": 0.475
            },
            {
              "pitch": 63,
              "velocity": 71,
              "position": 1,
              "duration": 0.027083333333333334
            },
            {
              "pitch": 57,
              "velocity": 71,
              "position": 1,
              "duration": 0.0375
            },
            {
              "pitch": 67,
              "velocity": 69,
              "position": 1,
              "duration": 0.0375
            },
            {
              "pitch": 57,
              "velocity": 72,
              "position": 1.5,
              "duration": 0.027083333333333334
            },
            {
              "pitch": 63,
              "velocity": 72,
              "position": 1.5,
              "duration": 0.027083333333333334
            },
            {
              "pitch": 67,
              "velocity": 71,
              "position": 2,
              "duration": 0.20416666666666666
            },
            {
              "pitch": 63,
              "velocity": 75,
              "position": 2,
              "duration": 0.225
            },
            {
              "pitch": 58,
              "velocity": 75,
              "position": 2,
              "duration": 0.23541666666666666
            },
            {
              "pitch": 67,
              "velocity": 63,
              "position": 3,
              "duration": 0.20416666666666666
            },
            {
              "pitch": 63,
              "velocity": 67,
              "position": 3,
              "duration": 0.225
            },
            {
              "pitch": 58,
              "velocity": 66,
              "position": 3,
              "duration": 0.23541666666666666
            },
            {
              "pitch": 63,
              "velocity": 75,
              "position": 3.5,
              "duration": 0.016666666666666666
            },
            {
              "pitch": 57,
              "velocity": 72,
              "position": 3.5,
              "duration": 0.027083333333333334
            },
            {
              "pitch": 67,
              "velocity": 75,
              "position": 4,
              "duration": 0.45416666666666666
            },
            {
              "pitch": 63,
              "velocity": 77,
              "position": 4,
              "duration": 0.46458333333333335
            },
            {
              "pitch": 57,
              "velocity": 70,
              "position": 4,
              "duration": 0.48541666666666666
            },
            {
              "pitch": 67,
              "velocity": 46,
              "position": 4.5,
              "duration": 0.45416666666666666
            },
            {
              "pitch": 63,
              "velocity": 34,
              "position": 4.5,
              "duration": 0.46458333333333335
            },
            {
              "pitch": 57,
              "velocity": 43,
              "position": 4.5,
              "duration": 0.475
            },
            {
              "pitch": 67,
              "velocity": 74,
              "position": 5,
              "duration": 0.027083333333333334
            },
            {
              "pitch": 57,
              "velocity": 75,
              "position": 5,
              "duration": 0.0375
            },
            {
              "pitch": 63,
              "velocity": 72,
              "position": 5,
              "duration": 0.0375
            },
            {
              "pitch": 67,
              "velocity": 71,
              "position": 5.5,
              "duration": 0.20416666666666666
            },
            {
              "pitch": 63,
              "velocity": 75,
              "position": 5.5,
              "duration": 0.225
            },
            {
              "pitch": 58,
              "velocity": 75,
              "position": 5.5,
              "duration": 0.23541666666666666
            },
            {
              "pitch": 67,
              "velocity": 71,
              "position": 6.5,
              "duration": 0.20416666666666666
            },
            {
              "pitch": 63,
              "velocity": 75,
              "position": 6.5,
              "duration": 0.225
            },
            {
              "pitch": 58,
              "velocity": 75,
              "position": 6.5,
              "duration": 0.23541666666666666
            },
            {
              "pitch": 67,
              "velocity": 75,
              "position": 7.5,
              "duration": 0.45416666666666666
            },
            {
              "pitch": 63,
              "velocity": 71,
              "position": 7.5,
              "duration": 0.46458333333333335
            },
            {
              "pitch": 57,
              "velocity": 75,
              "position": 7.5,
              "duration": 0.48541666666666666
            },
            {
              "pitch": 67,
              "velocity": 33,
              "position": 8,
              "duration": 0.45416666666666666
            },
            {
              "pitch": 63,
              "velocity": 41,
              "position": 8,
              "duration": 0.46458333333333335
            },
            {
              "pitch": 57,
              "velocity": 42,
              "position": 8,
              "duration": 0.475
            },
            {
              "pitch": 67,
              "velocity": 53,
              "position": 8.5,
              "duration": 0.45416666666666666
            },
            {
              "pitch": 63,
              "velocity": 58,
              "position": 8.5,
              "duration": 0.46458333333333335
            },
            {
              "pitch": 57,
              "velocity": 63,
              "position": 8.5,
              "duration": 0.475
            },
            {
              "pitch": 63,
              "velocity": 71,
              "position": 9,
              "duration": 0.027083333333333334
            },
            {
              "pitch": 57,
              "velocity": 71,
              "position": 9,
              "duration": 0.0375
            },
            {
              "pitch": 67,
              "velocity": 69,
              "position": 9,
              "duration": 0.0375
            },
            {
              "pitch": 57,
              "velocity": 72,
              "position": 9.5,
              "duration": 0.027083333333333334
            },
            {
              "pitch": 63,
              "velocity": 72,
              "position": 9.5,
              "duration": 0.027083333333333334
            },
            {
              "pitch": 67,
              "velocity": 71,
              "position": 10,
              "duration": 0.20416666666666666
            },
            {
              "pitch": 63,
              "velocity": 75,
              "position": 10,
              "duration": 0.225
            },
            {
              "pitch": 58,
              "velocity": 75,
              "position": 10,
              "duration": 0.23541666666666666
            },
            {
              "pitch": 67,
              "velocity": 63,
              "position": 11,
              "duration": 0.20416666666666666
            },
            {
              "pitch": 63,
              "velocity": 67,
              "position": 11,
              "duration": 0.225
            },
            {
              "pitch": 58,
              "velocity": 66,
              "position": 11,
              "duration": 0.23541666666666666
            },
            {
              "pitch": 63,
              "velocity": 75,
              "position": 11.5,
              "duration": 0.016666666666666666
            },
            {
              "pitch": 58,
              "velocity": 72,
              "position": 11.5,
              "duration": 0.027083333333333334
            },
            {
              "pitch": 67,
              "velocity": 75,
              "position": 12,
              "duration": 0.45416666666666666
            },
            {
              "pitch": 63,
              "velocity": 77,
              "position": 12,
              "duration": 0.46458333333333335
            },
            {
              "pitch": 57,
              "velocity": 70,
              "position": 12,
              "duration": 0.48541666666666666
            },
            {
              "pitch": 67,
              "velocity": 46,
              "position": 12.5,
              "duration": 0.45416666666666666
            },
            {
              "pitch": 63,
              "velocity": 34,
              "position": 12.5,
              "duration": 0.46458333333333335
            },
            {
              "pitch": 57,
              "velocity": 43,
              "position": 12.5,
              "duration": 0.475
            },
            {
              "pitch": 67,
              "velocity": 74,
              "position": 13,
              "duration": 0.027083333333333334
            },
            {
              "pitch": 57,
              "velocity": 75,
              "position": 13,
              "duration": 0.0375
            },
            {
              "pitch": 63,
              "velocity": 72,
              "position": 13,
              "duration": 0.0375
            },
            {
              "pitch": 67,
              "velocity": 71,
              "position": 13.5,
              "duration": 0.20416666666666666
            },
            {
              "pitch": 63,
              "velocity": 75,
              "position": 13.5,
              "duration": 0.225
            },
            {
              "pitch": 58,
              "velocity": 75,
              "position": 13.5,
              "duration": 0.23541666666666666
            },
            {
              "pitch": 67,
              "velocity": 71,
              "position": 14.5,
              "duration": 0.20416666666666666
            },
            {
              "pitch": 63,
              "velocity": 75,
              "position": 14.5,
              "duration": 0.225
            },
            {
              "pitch": 58,
              "velocity": 75,
              "position": 14.5,
              "duration": 0.23541666666666666
            },
            {
              "pitch": 67,
              "velocity": 75,
              "position": 15.5,
              "duration": 0.45416666666666666
            },
            {
              "pitch": 63,
              "velocity": 71,
              "position": 15.5,
              "duration": 0.46458333333333335
            },
            {
              "pitch": 57,
              "velocity": 75,
              "position": 15.5,
              "duration": 0.48541666666666666
            }
          ]
        },
        "12": {
          "ctab": {
            "srcChannel": 12,
            "name": "Pno A",
            "accType": "CHORD2",
            "editable": false,
            "mutedNotes": [],
            "mutedChords": [
              "1+2+5",
              "sus4",
              "1+5",
              "1+8",
              "7aug",
              "Maj7aug",
              "7(#9)",
              "7(b13)",
              "7(b9)",
              "7(13)",
              "7(9)",
              "7th",
              "dim7",
              "dim",
              "minMaj7(9)",
              "min7(11)",
              "min7(9)",
              "min(9)",
              "min7",
              "min6",
              "aug",
              "Maj6(9)",
              "Maj7(9)",
              "Maj(9)",
              "Maj6"
            ],
            "autoStart": false,
            "sourceChordNote": 0,
            "sourceChordType": "min7",
            "ctb2Low": null,
            "ctb2Main": {
              "ntr": "ROOT_TRANSPOSITION",
              "ntt": "CHORD",
              "bassOn": false,
              "chordRootUpperLimit": 2,
              "noteLowLimit": 54,
              "noteHighLimit": 79,
              "rtr": "PITCH_SHIFT"
            },
            "ctb2High": null
          },
          "notes": [
            {
              "pitch": 48,
              "velocity": 52,
              "position": 0.5,
              "duration": 0.1875
            },
            {
              "pitch": 45,
              "velocity": 50,
              "position": 0.5,
              "duration": 0.19791666666666666
            },
            {
              "pitch": 51,
              "velocity": 55,
              "position": 0.5,
              "duration": 0.19791666666666666
            },
            {
              "pitch": 55,
              "velocity": 54,
              "position": 0.5,
              "duration": 0.19791666666666666
            },
            {
              "pitch": 72,
              "velocity": 53,
              "position": 1,
              "duration": 0.19791666666666666
            },
            {
              "pitch": 79,
              "velocity": 58,
              "position": 1,
              "duration": 0.19791666666666666
            },
            {
              "pitch": 84,
              "velocity": 58,
              "position": 1,
              "duration": 0.19791666666666666
            },
            {
              "pitch": 50,
              "velocity": 64,
              "position": 2,
              "duration": 0.21875
            },
            {
              "pitch": 46,
              "velocity": 64,
              "position": 2,
              "duration": 0.22916666666666666
            },
            {
              "pitch": 51,
              "velocity": 64,
              "position": 2,
              "duration": 0.22916666666666666
            },
            {
              "pitch": 55,
              "velocity": 61,
              "position": 2,
              "duration": 0.23958333333333334
            },
            {
              "pitch": 72,
              "velocity": 53,
              "position": 2.5,
              "duration": 0.19791666666666666
            },
            {
              "pitch": 79,
              "velocity": 58,
              "position": 2.5,
              "duration": 0.19791666666666666
            },
            {
              "pitch": 84,
              "velocity": 58,
              "position": 2.5,
              "duration": 0.19791666666666666
            },
            {
              "pitch": 46,
              "velocity": 54,
              "position": 3,
              "duration": 0.2604166666666667
            },
            {
              "pitch": 50,
              "velocity": 52,
              "position": 3,
              "duration": 0.2604166666666667
            },
            {
              "pitch": 51,
              "velocity": 51,
              "position": 3,
              "duration": 0.2604166666666667
            },
            {
              "pitch": 55,
              "velocity": 50,
              "position": 3,
              "duration": 0.2708333333333333
            },
            {
              "pitch": 55,
              "velocity": 66,
              "position": 4,
              "duration": 0.9479166666666666
            },
            {
              "pitch": 51,
              "velocity": 65,
              "position": 4,
              "duration": 0.9583333333333334
            },
            {
              "pitch": 45,
              "velocity": 64,
              "position": 4,
              "duration": 0.96875
            },
            {
              "pitch": 48,
              "velocity": 60,
              "position": 4,
              "duration": 0.96875
            },
            {
              "pitch": 72,
              "velocity": 53,
              "position": 4,
              "duration": 0.9895833333333334
            },
            {
              "pitch": 79,
              "velocity": 58,
              "position": 4,
              "duration": 0.9895833333333334
            },
            {
              "pitch": 84,
              "velocity": 58,
              "position": 4,
              "duration": 0.9895833333333334
            },
            {
              "pitch": 72,
              "velocity": 53,
              "position": 5.5,
              "duration": 0.19791666666666666
            },
            {
              "pitch": 79,
              "velocity": 58,
              "position": 5.5,
              "duration": 0.19791666666666666
            },
            {
              "pitch": 84,
              "velocity": 58,
              "position": 5.5,
              "duration": 0.19791666666666666
            },
            {
              "pitch": 46,
              "velocity": 60,
              "position": 5.5,
              "duration": 0.22916666666666666
            },
            {
              "pitch": 50,
              "velocity": 64,
              "position": 5.5,
              "duration": 0.22916666666666666
            },
            {
              "pitch": 51,
              "velocity": 60,
              "position": 5.5,
              "duration": 0.22916666666666666
            },
            {
              "pitch": 55,
              "velocity": 64,
              "position": 5.5,
              "duration": 0.22916666666666666
            },
            {
              "pitch": 46,
              "velocity": 51,
              "position": 6.5,
              "duration": 0.2604166666666667
            },
            {
              "pitch": 51,
              "velocity": 54,
              "position": 6.5,
              "duration": 0.2708333333333333
            },
            {
              "pitch": 55,
              "velocity": 54,
              "position": 6.5,
              "duration": 0.2708333333333333
            },
            {
              "pitch": 50,
              "velocity": 52,
              "position": 6.5,
              "duration": 0.28125
            },
            {
              "pitch": 72,
              "velocity": 53,
              "position": 7,
              "duration": 0.19791666666666666
            },
            {
              "pitch": 79,
              "velocity": 58,
              "position": 7,
              "duration": 0.19791666666666666
            },
            {
              "pitch": 84,
              "velocity": 58,
              "position": 7,
              "duration": 0.19791666666666666
            },
            {
              "pitch": 45,
              "velocity": 60,
              "position": 7.5,
              "duration": 0.19791666666666666
            },
            {
              "pitch": 48,
              "velocity": 65,
              "position": 7.5,
              "duration": 0.19791666666666666
            },
            {
              "pitch": 51,
              "velocity": 60,
              "position": 7.5,
              "duration": 0.19791666666666666
            },
            {
              "pitch": 55,
              "velocity": 60,
              "position": 7.5,
              "duration": 0.19791666666666666
            },
            {
              "pitch": 45,
              "velocity": 49,
              "position": 8.5,
              "duration": 0.19791666666666666
            },
            {
              "pitch": 48,
              "velocity": 54,
              "position": 8.5,
              "duration": 0.19791666666666666
            },
            {
              "pitch": 51,
              "velocity": 49,
              "position": 8.5,
              "duration": 0.19791666666666666
            },
            {
              "pitch": 55,
              "velocity": 49,
              "position": 8.5,
              "duration": 0.19791666666666666
            },
            {
              "pitch": 72,
              "velocity": 53,
              "position": 9,
              "duration": 0.19791666666666666
            },
            {
              "pitch": 79,
              "velocity": 58,
              "position": 9,
              "duration": 0.19791666666666666
            },
            {
              "pitch": 84,
              "velocity": 58,
              "position": 9,
              "duration": 0.19791666666666666
            },
            {
              "pitch": 51,
              "velocity": 65,
              "position": 10,
              "duration": 0.21875
            },
            {
              "pitch": 46,
              "velocity": 61,
              "position": 10,
              "duration": 0.22916666666666666
            },
            {
              "pitch": 50,
              "velocity": 64,
              "position": 10,
              "duration": 0.22916666666666666
            },
            {
              "pitch": 55,
              "velocity": 63,
              "position": 10,
              "duration": 0.22916666666666666
            },
            {
              "pitch": 72,
              "velocity": 53,
              "position": 10.5,
              "duration": 0.19791666666666666
            },
            {
              "pitch": 79,
              "velocity": 58,
              "position": 10.5,
              "duration": 0.19791666666666666
            },
            {
              "pitch": 84,
              "velocity": 58,
              "position": 10.5,
              "duration": 0.19791666666666666
            },
            {
              "pitch": 55,
              "velocity": 52,
              "position": 11,
              "duration": 0.2604166666666667
            },
            {
              "pitch": 46,
              "velocity": 53,
              "position": 11,
              "duration": 0.2708333333333333
            },
            {
              "pitch": 50,
              "velocity": 54,
              "position": 11,
              "duration": 0.2708333333333333
            },
            {
              "pitch": 51,
              "velocity": 54,
              "position": 11,
              "duration": 0.2708333333333333
            },
            {
              "pitch": 55,
              "velocity": 60,
              "position": 12,
              "duration": 0.9479166666666666
            },
            {
              "pitch": 51,
              "velocity": 60,
              "position": 12,
              "duration": 0.9583333333333334
            },
            {
              "pitch": 45,
              "velocity": 63,
              "position": 12,
              "duration": 0.96875
            },
            {
              "pitch": 48,
              "velocity": 60,
              "position": 12,
              "duration": 0.96875
            },
            {
              "pitch": 72,
              "velocity": 53,
              "position": 12,
              "duration": 0.9895833333333334
            },
            {
              "pitch": 79,
              "velocity": 58,
              "position": 12,
              "duration": 0.9895833333333334
            },
            {
              "pitch": 84,
              "velocity": 58,
              "position": 12,
              "duration": 0.9895833333333334
            },
            {
              "pitch": 72,
              "velocity": 53,
              "position": 13.5,
              "duration": 0.19791666666666666
            },
            {
              "pitch": 79,
              "velocity": 58,
              "position": 13.5,
              "duration": 0.19791666666666666
            },
            {
              "pitch": 84,
              "velocity": 58,
              "position": 13.5,
              "duration": 0.19791666666666666
            },
            {
              "pitch": 46,
              "velocity": 60,
              "position": 13.5,
              "duration": 0.21875
            },
            {
              "pitch": 50,
              "velocity": 57,
              "position": 13.5,
              "duration": 0.21875
            },
            {
              "pitch": 55,
              "velocity": 60,
              "position": 13.5,
              "duration": 0.21875
            },
            {
              "pitch": 51,
              "velocity": 64,
              "position": 13.5,
              "duration": 0.22916666666666666
            },
            {
              "pitch": 51,
              "velocity": 52,
              "position": 14.5,
              "duration": 0.2604166666666667
            },
            {
              "pitch": 46,
              "velocity": 52,
              "position": 14.5,
              "duration": 0.2708333333333333
            },
            {
              "pitch": 50,
              "velocity": 54,
              "position": 14.5,
              "duration": 0.2708333333333333
            },
            {
              "pitch": 55,
              "velocity": 56,
              "position": 14.5,
              "duration": 0.2708333333333333
            },
            {
              "pitch": 72,
              "velocity": 53,
              "position": 15,
              "duration": 0.19791666666666666
            },
            {
              "pitch": 79,
              "velocity": 58,
              "position": 15,
              "duration": 0.19791666666666666
            },
            {
              "pitch": 84,
              "velocity": 58,
              "position": 15,
              "duration": 0.19791666666666666
            },
            {
              "pitch": 48,
              "velocity": 63,
              "position": 15.5,
              "duration": 0.1875
            },
            {
              "pitch": 45,
              "velocity": 61,
              "position": 15.5,
              "duration": 0.19791666666666666
            },
            {
              "pitch": 51,
              "velocity": 66,
              "position": 15.5,
              "duration": 0.19791666666666666
            },
            {
              "pitch": 55,
              "velocity": 64,
              "position": 15.5,
              "duration": 0.19791666666666666
            }
          ]
        },
        "13": {
          "ctab": {
            "srcChannel": 13,
            "name": "Str A",
            "accType": "PAD",
            "editable": false,
            "mutedNotes": [],
            "mutedChords": [
              "1+2+5",
              "sus4",
              "1+5",
              "1+8",
              "7aug",
              "Maj7aug",
              "7(#9)",
              "7(b13)",
              "7(b9)",
              "7(13)",
              "7(9)",
              "7th",
              "dim7",
              "dim",
              "minMaj7(9)",
              "min7(11)",
              "min7(9)",
              "min(9)",
              "min7",
              "min6",
              "aug",
              "Maj6(9)",
              "Maj7(9)",
              "Maj(9)",
              "Maj6"
            ],
            "autoStart": false,
            "sourceChordNote": 0,
            "sourceChordType": "min7",
            "ctb2Low": null,
            "ctb2Main": {
              "ntr": "ROOT_TRANSPOSITION",
              "ntt": "CHORD",
              "bassOn": false,
              "chordRootUpperLimit": 7,
              "noteLowLimit": 54,
              "noteHighLimit": 65,
              "rtr": "PITCH_SHIFT"
            },
            "ctb2High": null
          },
          "notes": [
            {
              "pitch": 57,
              "velocity": 85,
              "position": 0,
              "duration": 1.9854166666666666
            },
            {
              "pitch": 60,
              "velocity": 85,
              "position": 0,
              "duration": 1.9854166666666666
            },
            {
              "pitch": 58,
              "velocity": 85,
              "position": 2,
              "duration": 1.9854166666666666
            },
            {
              "pitch": 62,
              "velocity": 85,
              "position": 2,
              "duration": 1.9854166666666666
            },
            {
              "pitch": 57,
              "velocity": 85,
              "position": 4,
              "duration": 1.4958333333333333
            },
            {
              "pitch": 60,
              "velocity": 85,
              "position": 4,
              "duration": 1.4958333333333333
            },
            {
              "pitch": 58,
              "velocity": 85,
              "position": 5.5,
              "duration": 1.9854166666666666
            },
            {
              "pitch": 62,
              "velocity": 85,
              "position": 5.5,
              "duration": 1.9854166666666666
            },
            {
              "pitch": 57,
              "velocity": 85,
              "position": 7.5,
              "duration": 2.495833333333333
            },
            {
              "pitch": 60,
              "velocity": 85,
              "position": 7.5,
              "duration": 2.495833333333333
            },
            {
              "pitch": 58,
              "velocity": 85,
              "position": 10,
              "duration": 1.9854166666666666
            },
            {
              "pitch": 62,
              "velocity": 85,
              "position": 10,
              "duration": 1.9854166666666666
            },
            {
              "pitch": 57,
              "velocity": 85,
              "position": 12,
              "duration": 1.4958333333333333
            },
            {
              "pitch": 60,
              "velocity": 85,
              "position": 12,
              "duration": 1.4958333333333333
            },
            {
              "pitch": 58,
              "velocity": 85,
              "position": 13.5,
              "duration": 1.9854166666666666
            },
            {
              "pitch": 62,
              "velocity": 85,
              "position": 13.5,
              "duration": 1.9854166666666666
            },
            {
              "pitch": 57,
              "velocity": 86,
              "position": 15.5,
              "duration": 0.48541666666666666
            },
            {
              "pitch": 60,
              "velocity": 86,
              "position": 15.5,
              "duration": 0.48541666666666666
            },
            {
              "pitch": 63,
              "velocity": 85,
              "position": 0,
              "duration": 15.985416666666667
            },
            {
              "pitch": 67,
              "velocity": 85,
              "position": 0,
              "duration": 15.985416666666667
            }
          ]
        }
      }
    },
    "Fill_In_AA": {
      "type": "Fill_In_AA",
      "sizeInBeats": 4,
      "channels": {
        "2": {
          "ctab": {
            "srcChannel": 2,
            "name": "Gt B",
            "accType": "CHORD1",
            "editable": false,
            "mutedNotes": [],
            "mutedChords": [
              "7#11",
              "7b5",
              "7sus4",
              "minMaj7",
              "m7b5",
              "min",
              "Maj7#11",
              "Maj7",
              "Maj"
            ],
            "autoStart": false,
            "sourceChordNote": 0,
            "sourceChordType": "Maj7",
            "ctb2Low": null,
            "ctb2Main": {
              "ntr": "ROOT_FIXED",
              "ntt": "CHORD",
              "bassOn": false,
              "chordRootUpperLimit": 7,
              "noteLowLimit": 0,
              "noteHighLimit": 127,
              "rtr": "PITCH_SHIFT"
            },
            "ctb2High": null
          },
          "notes": [
            {
              "pitch": 67,
              "velocity": 53,
              "position": 0.5,
              "duration": 0.27708333333333335
            },
            {
              "pitch": 59,
              "velocity": 47,
              "position": 0.5104166666666666,
              "duration": 0.27708333333333335
            },
            {
              "pitch": 64,
              "velocity": 53,
              "position": 0.5208333333333334,
              "duration": 0.27708333333333335
            },
            {
              "pitch": 59,
              "velocity": 61,
              "position": 1.5104166666666667,
              "duration": 0.27708333333333335
            },
            {
              "pitch": 67,
              "velocity": 55,
              "position": 1.5,
              "duration": 0.2875
            },
            {
              "pitch": 64,
              "velocity": 63,
              "position": 1.5208333333333333,
              "duration": 0.27708333333333335
            },
            {
              "pitch": 67,
              "velocity": 58,
              "position": 2.5,
              "duration": 1.2770833333333333
            },
            {
              "pitch": 59,
              "velocity": 57,
              "position": 2.5104166666666665,
              "duration": 1.2770833333333333
            },
            {
              "pitch": 64,
              "velocity": 55,
              "position": 2.5208333333333335,
              "duration": 1.2770833333333333
            }
          ]
        },
        "3": {
          "ctab": {
            "srcChannel": 3,
            "name": "Pno B",
            "accType": "CHORD2",
            "editable": false,
            "mutedNotes": [],
            "mutedChords": [
              "7#11",
              "7b5",
              "7sus4",
              "minMaj7",
              "m7b5",
              "min",
              "Maj7#11",
              "Maj7",
              "Maj"
            ],
            "autoStart": false,
            "sourceChordNote": 0,
            "sourceChordType": "Maj7",
            "ctb2Low": null,
            "ctb2Main": {
              "ntr": "ROOT_TRANSPOSITION",
              "ntt": "CHORD",
              "bassOn": false,
              "chordRootUpperLimit": 2,
              "noteLowLimit": 54,
              "noteHighLimit": 79,
              "rtr": "PITCH_SHIFT"
            },
            "ctb2High": null
          },
          "notes": [
            {
              "pitch": 43,
              "velocity": 55,
              "position": 1.5,
              "duration": 0.22916666666666666
            },
            {
              "pitch": 47,
              "velocity": 55,
              "position": 1.5,
              "duration": 0.22916666666666666
            },
            {
              "pitch": 52,
              "velocity": 55,
              "position": 1.5,
              "duration": 0.22916666666666666
            },
            {
              "pitch": 43,
              "velocity": 47,
              "position": 2.5,
              "duration": 1.2291666666666667
            },
            {
              "pitch": 47,
              "velocity": 47,
              "position": 2.5,
              "duration": 1.2291666666666667
            },
            {
              "pitch": 52,
              "velocity": 47,
              "position": 2.5,
              "duration": 1.2291666666666667
            }
          ]
        },
        "4": {
          "ctab": {
            "srcChannel": 4,
            "name": "Str B",
            "accType": "PAD",
            "editable": false,
            "mutedNotes": [],
            "mutedChords": [
              "7#11",
              "7b5",
              "7sus4",
              "minMaj7",
              "m7b5",
              "min",
              "Maj7#11",
              "Maj7",
              "Maj"
            ],
            "autoStart": false,
            "sourceChordNote": 0,
            "sourceChordType": "Maj7",
            "ctb2Low": null,
            "ctb2Main": {
              "ntr": "ROOT_FIXED",
              "ntt": "CHORD",
              "bassOn": false,
              "chordRootUpperLimit": 7,
              "noteLowLimit": 0,
              "noteHighLimit": 127,
              "rtr": "PITCH_SHIFT"
            },
            "ctb2High": null
          },
          "notes": []
        },
        "7": {
          "ctab": {
            "srcChannel": 7,
            "name": "CC_Crash",
            "accType": "RHYTHM",
            "editable": true,
            "mutedNotes": [],
            "mutedChords": [
              "1+2+5",
              "sus4",
              "1+5",
              "1+8",
              "7aug",
              "Maj7aug",
              "7(#9)",
              "7(b13)",
              "7(b9)",
              "7(13)",
              "7#11",
              "7(9)",
              "7b5",
              "7sus4",
              "7th",
              "dim7",
              "dim",
              "minMaj7(9)",
              "minMaj7",
              "min7(11)",
              "min7(9)",
              "min(9)",
              "m7b5",
              "min7",
              "min6",
              "min",
              "aug",
              "Maj6(9)",
              "Maj7(9)",
              "Maj(9)",
              "Maj7#11",
              "Maj7",
              "Maj6",
              "Maj"
            ],
            "autoStart": true,
            "sourceChordNote": 0,
            "sourceChordType": "Maj",
            "ctb2Low": null,
            "ctb2Main": {
              "ntr": "ROOT_FIXED",
              "ntt": "BYPASS",
              "bassOn": false,
              "chordRootUpperLimit": 0,
              "noteLowLimit": 0,
              "noteHighLimit": 127,
              "rtr": "RETRIGGER"
            },
            "ctb2High": null
          },
          "notes": []
        },
        "8": {
          "ctab": {
            "srcChannel": 8,
            "name": "Perc",
            "accType": "SUBRHYTHM",
            "editable": false,
            "mutedNotes": [],
            "mutedChords": [],
            "autoStart": true,
            "sourceChordNote": 0,
            "sourceChordType": "Maj7",
            "ctb2Low": null,
            "ctb2Main": {
              "ntr": "ROOT_FIXED",
              "ntt": "BYPASS",
              "bassOn": false,
              "chordRootUpperLimit": 6,
              "noteLowLimit": 0,
              "noteHighLimit": 127,
              "rtr": "PITCH_SHIFT"
            },
            "ctb2High": null
          },
          "notes": []
        },
        "9": {
          "ctab": {
            "srcChannel": 9,
            "name": "Drums",
            "accType": "RHYTHM",
            "editable": false,
            "mutedNotes": [],
            "mutedChords": [],
            "autoStart": true,
            "sourceChordNote": 0,
            "sourceChordType": "Maj7",
            "ctb2Low": null,
            "ctb2Main": {
              "ntr": "ROOT_FIXED",
              "ntt": "BYPASS",
              "bassOn": false,
              "chordRootUpperLimit": 6,
              "noteLowLimit": 0,
              "noteHighLimit": 127,
              "rtr": "PITCH_SHIFT"
            },
            "ctb2High": null
          },
          "notes": [
            {
              "pitch": 33,
              "velocity": 72,
              "position": 0,
              "duration": 0.00625
            },
            {
              "pitch": 42,
              "velocity": 30,
              "position": 0,
              "duration": 0.00625
            },
            {
              "pitch": 42,
              "velocity": 90,
              "position": 0.5,
              "duration": 0.00625
            },
            {
              "pitch": 37,
              "velocity": 80,
              "position": 1,
              "duration": 0.00625
            },
            {
              "pitch": 42,
              "velocity": 30,
              "position": 1,
              "duration": 0.00625
            },
            {
              "pitch": 33,
              "velocity": 72,
              "position": 1.5,
              "duration": 0.00625
            },
            {
              "pitch": 46,
              "velocity": 68,
              "position": 1.5,
              "duration": 0.00625
            },
            {
              "pitch": 44,
              "velocity": 3,
              "position": 2,
              "duration": 0.00625
            },
            {
              "pitch": 33,
              "velocity": 72,
              "position": 2.5,
              "duration": 0.00625
            },
            {
              "pitch": 46,
              "velocity": 68,
              "position": 2.5,
              "duration": 0.00625
            },
            {
              "pitch": 47,
              "velocity": 51,
              "position": 3,
              "duration": 0.00625
            },
            {
              "pitch": 33,
              "velocity": 36,
              "position": 3.5,
              "duration": 0.00625
            },
            {
              "pitch": 49,
              "velocity": 60,
              "position": 3.9895833333333335,
              "duration": 0.00625
            }
          ]
        },
        "10": {
          "ctab": {
            "srcChannel": 10,
            "name": "Bass",
            "accType": "BASS",
            "editable": false,
            "mutedNotes": [],
            "mutedChords": [],
            "autoStart": false,
            "sourceChordNote": 0,
            "sourceChordType": "Maj7",
            "ctb2Low": null,
            "ctb2Main": {
              "ntr": "ROOT_TRANSPOSITION",
              "ntt": "MELODY",
              "bassOn": true,
              "chordRootUpperLimit": 8,
              "noteLowLimit": 28,
              "noteHighLimit": 127,
              "rtr": "PITCH_SHIFT_TO_ROOT"
            },
            "ctb2High": null
          },
          "notes": [
            {
              "pitch": 24,
              "velocity": 98,
              "position": 0,
              "duration": 1.1104166666666666
            },
            {
              "pitch": 31,
              "velocity": 98,
              "position": 1.5,
              "duration": 0.36041666666666666
            },
            {
              "pitch": 31,
              "velocity": 98,
              "position": 2.5,
              "duration": 0.8604166666666667
            },
            {
              "pitch": 31,
              "velocity": 72,
              "position": 3.5,
              "duration": 0.11041666666666666
            }
          ]
        },
        "11": {
          "ctab": {
            "srcChannel": 11,
            "name": "Gt A",
            "accType": "CHORD1",
            "editable": false,
            "mutedNotes": [],
            "mutedChords": [
              "1+2+5",
              "sus4",
              "1+5",
              "1+8",
              "7aug",
              "Maj7aug",
              "7(#9)",
              "7(b13)",
              "7(b9)",
              "7(13)",
              "7(9)",
              "7th",
              "dim7",
              "dim",
              "minMaj7(9)",
              "min7(11)",
              "min7(9)",
              "min(9)",
              "min7",
              "min6",
              "aug",
              "Maj6(9)",
              "Maj7(9)",
              "Maj(9)",
              "Maj6"
            ],
            "autoStart": false,
            "sourceChordNote": 0,
            "sourceChordType": "min7",
            "ctb2Low": null,
            "ctb2Main": {
              "ntr": "ROOT_TRANSPOSITION",
              "ntt": "CHORD",
              "bassOn": false,
              "chordRootUpperLimit": 7,
              "noteLowLimit": 54,
              "noteHighLimit": 65,
              "rtr": "PITCH_SHIFT"
            },
            "ctb2High": null
          },
          "notes": [
            {
              "pitch": 67,
              "velocity": 57,
              "position": 0.5,
              "duration": 0.27708333333333335
            },
            {
              "pitch": 57,
              "velocity": 51,
              "position": 0.5104166666666666,
              "duration": 0.27708333333333335
            },
            {
              "pitch": 60,
              "velocity": 38,
              "position": 0.5208333333333334,
              "duration": 0.27708333333333335
            },
            {
              "pitch": 63,
              "velocity": 57,
              "position": 0.5208333333333334,
              "duration": 0.27708333333333335
            },
            {
              "pitch": 58,
              "velocity": 65,
              "position": 1.5104166666666667,
              "duration": 0.27708333333333335
            },
            {
              "pitch": 67,
              "velocity": 59,
              "position": 1.5,
              "duration": 0.2875
            },
            {
              "pitch": 62,
              "velocity": 67,
              "position": 1.5208333333333333,
              "duration": 0.27708333333333335
            },
            {
              "pitch": 63,
              "velocity": 67,
              "position": 1.5208333333333333,
              "duration": 0.27708333333333335
            },
            {
              "pitch": 67,
              "velocity": 62,
              "position": 2.5,
              "duration": 1.2770833333333333
            },
            {
              "pitch": 58,
              "velocity": 61,
              "position": 2.5104166666666665,
              "duration": 1.2770833333333333
            },
            {
              "pitch": 62,
              "velocity": 59,
              "position": 2.5208333333333335,
              "duration": 1.2770833333333333
            },
            {
              "pitch": 63,
              "velocity": 59,
              "position": 2.5208333333333335,
              "duration": 1.2770833333333333
            }
          ]
        },
        "12": {
          "ctab": {
            "srcChannel": 12,
            "name": "Pno A",
            "accType": "CHORD2",
            "editable": false,
            "mutedNotes": [],
            "mutedChords": [
              "1+2+5",
              "sus4",
              "1+5",
              "1+8",
              "7aug",
              "Maj7aug",
              "7(#9)",
              "7(b13)",
              "7(b9)",
              "7(13)",
              "7(9)",
              "7th",
              "dim7",
              "dim",
              "minMaj7(9)",
              "min7(11)",
              "min7(9)",
              "min(9)",
              "min7",
              "min6",
              "aug",
              "Maj6(9)",
              "Maj7(9)",
              "Maj(9)",
              "Maj6"
            ],
            "autoStart": false,
            "sourceChordNote": 0,
            "sourceChordType": "min7",
            "ctb2Low": null,
            "ctb2Main": {
              "ntr": "ROOT_TRANSPOSITION",
              "ntt": "CHORD",
              "bassOn": false,
              "chordRootUpperLimit": 2,
              "noteLowLimit": 54,
              "noteHighLimit": 79,
              "rtr": "PITCH_SHIFT"
            },
            "ctb2High": null
          },
          "notes": [
            {
              "pitch": 45,
              "velocity": 47,
              "position": 1.5,
              "duration": 0.22916666666666666
            },
            {
              "pitch": 48,
              "velocity": 55,
              "position": 1.5,
              "duration": 0.22916666666666666
            },
            {
              "pitch": 51,
              "velocity": 55,
              "position": 1.5,
              "duration": 0.22916666666666666
            },
            {
              "pitch": 55,
              "velocity": 55,
              "position": 1.5,
              "duration": 0.22916666666666666
            },
            {
              "pitch": 45,
              "velocity": 40,
              "position": 2.5,
              "duration": 1.2291666666666667
            },
            {
              "pitch": 48,
              "velocity": 47,
              "position": 2.5,
              "duration": 1.2291666666666667
            },
            {
              "pitch": 51,
              "velocity": 47,
              "position": 2.5,
              "duration": 1.2291666666666667
            },
            {
              "pitch": 55,
              "velocity": 47,
              "position": 2.5,
              "duration": 1.2291666666666667
            }
          ]
        },
        "13": {
          "ctab": {
            "srcChannel": 13,
            "name": "Str A",
            "accType": "PAD",
            "editable": false,
            "mutedNotes": [],
            "mutedChords": [
              "1+2+5",
              "sus4",
              "1+5",
              "1+8",
              "7aug",
              "Maj7aug",
              "7(#9)",
              "7(b13)",
              "7(b9)",
              "7(13)",
              "7(9)",
              "7th",
              "dim7",
              "dim",
              "minMaj7(9)",
              "min7(11)",
              "min7(9)",
              "min(9)",
              "min7",
              "min6",
              "aug",
              "Maj6(9)",
              "Maj7(9)",
              "Maj(9)",
              "Maj6"
            ],
            "autoStart": false,
            "sourceChordNote": 0,
            "sourceChordType": "min7",
            "ctb2Low": null,
            "ctb2Main": {
              "ntr": "ROOT_TRANSPOSITION",
              "ntt": "CHORD",
              "bassOn": false,
              "chordRootUpperLimit": 7,
              "noteLowLimit": 54,
              "noteHighLimit": 65,
              "rtr": "PITCH_SHIFT"
            },
            "ctb2High": null
          },
          "notes": []
        }
      }
    },
    "Fill_In_BB": {
      "type": "Fill_In_BB",
      "sizeInBeats": 4,
      "channels": {
        "2": {
          "ctab": {
            "srcChannel": 2,
            "name": "Gt B",
            "accType": "CHORD1",
            "editable": false,
            "mutedNotes": [],
            "mutedChords": [
              "7#11",
              "7b5",
              "7sus4",
              "minMaj7",
              "m7b5",
              "min",
              "Maj7#11",
              "Maj7",
              "Maj"
            ],
            "autoStart": false,
            "sourceChordNote": 0,
            "sourceChordType": "Maj7",
            "ctb2Low": null,
            "ctb2Main": {
              "ntr": "ROOT_FIXED",
              "ntt": "CHORD",
              "bassOn": false,
              "chordRootUpperLimit": 7,
              "noteLowLimit": 0,
              "noteHighLimit": 127,
              "rtr": "PITCH_SHIFT"
            },
            "ctb2High": null
          },
          "notes": [
            {
              "pitch": 59,
              "velocity": 65,
              "position": 0.5,
              "duration": 0.475
            },
            {
              "pitch": 64,
              "velocity": 73,
              "position": 0.5208333333333334,
              "duration": 0.46458333333333335
            },
            {
              "pitch": 67,
              "velocity": 71,
              "position": 0.53125,
              "duration": 0.45416666666666666
            },
            {
              "pitch": 59,
              "velocity": 36,
              "position": 1,
              "duration": 0.475
            },
            {
              "pitch": 64,
              "velocity": 28,
              "position": 1.0208333333333333,
              "duration": 0.46458333333333335
            },
            {
              "pitch": 67,
              "velocity": 28,
              "position": 1.03125,
              "duration": 0.45416666666666666
            },
            {
              "pitch": 59,
              "velocity": 40,
              "position": 1.5,
              "duration": 0.48541666666666666
            },
            {
              "pitch": 64,
              "velocity": 40,
              "position": 1.5208333333333333,
              "duration": 0.46458333333333335
            },
            {
              "pitch": 67,
              "velocity": 42,
              "position": 1.53125,
              "duration": 0.45416666666666666
            },
            {
              "pitch": 59,
              "velocity": 69,
              "position": 2,
              "duration": 0.475
            },
            {
              "pitch": 64,
              "velocity": 63,
              "position": 2.0208333333333335,
              "duration": 0.46458333333333335
            },
            {
              "pitch": 67,
              "velocity": 68,
              "position": 2.03125,
              "duration": 0.45416666666666666
            },
            {
              "pitch": 59,
              "velocity": 52,
              "position": 2.5,
              "duration": 0.475
            },
            {
              "pitch": 64,
              "velocity": 53,
              "position": 2.5208333333333335,
              "duration": 0.46458333333333335
            },
            {
              "pitch": 67,
              "velocity": 48,
              "position": 2.53125,
              "duration": 0.45416666666666666
            },
            {
              "pitch": 59,
              "velocity": 55,
              "position": 3,
              "duration": 0.027083333333333334
            },
            {
              "pitch": 64,
              "velocity": 52,
              "position": 3.0208333333333335,
              "duration": 0.027083333333333334
            },
            {
              "pitch": 67,
              "velocity": 48,
              "position": 3.03125,
              "duration": 0.0375
            },
            {
              "pitch": 59,
              "velocity": 31,
              "position": 3.5,
              "duration": 0.48541666666666666
            },
            {
              "pitch": 64,
              "velocity": 36,
              "position": 3.5208333333333335,
              "duration": 0.46458333333333335
            },
            {
              "pitch": 67,
              "velocity": 35,
              "position": 3.53125,
              "duration": 0.45416666666666666
            }
          ]
        },
        "3": {
          "ctab": {
            "srcChannel": 3,
            "name": "Pno B",
            "accType": "CHORD2",
            "editable": false,
            "mutedNotes": [],
            "mutedChords": [
              "7#11",
              "7b5",
              "7sus4",
              "minMaj7",
              "m7b5",
              "min",
              "Maj7#11",
              "Maj7",
              "Maj"
            ],
            "autoStart": false,
            "sourceChordNote": 0,
            "sourceChordType": "Maj7",
            "ctb2Low": null,
            "ctb2Main": {
              "ntr": "ROOT_TRANSPOSITION",
              "ntt": "CHORD",
              "bassOn": false,
              "chordRootUpperLimit": 2,
              "noteLowLimit": 54,
              "noteHighLimit": 79,
              "rtr": "PITCH_SHIFT"
            },
            "ctb2High": null
          },
          "notes": [
            {
              "pitch": 43,
              "velocity": 36,
              "position": 0.5,
              "duration": 0.22916666666666666
            },
            {
              "pitch": 47,
              "velocity": 46,
              "position": 0.5,
              "duration": 0.22916666666666666
            },
            {
              "pitch": 52,
              "velocity": 46,
              "position": 0.5,
              "duration": 0.22916666666666666
            },
            {
              "pitch": 83,
              "velocity": 51,
              "position": 0.5,
              "duration": 0.22916666666666666
            },
            {
              "pitch": 88,
              "velocity": 51,
              "position": 0.5,
              "duration": 0.22916666666666666
            },
            {
              "pitch": 91,
              "velocity": 51,
              "position": 0.5,
              "duration": 0.22916666666666666
            },
            {
              "pitch": 43,
              "velocity": 51,
              "position": 1.5,
              "duration": 0.22916666666666666
            },
            {
              "pitch": 47,
              "velocity": 60,
              "position": 1.5,
              "duration": 0.22916666666666666
            },
            {
              "pitch": 52,
              "velocity": 60,
              "position": 1.5,
              "duration": 0.22916666666666666
            },
            {
              "pitch": 83,
              "velocity": 65,
              "position": 1.5,
              "duration": 0.22916666666666666
            },
            {
              "pitch": 88,
              "velocity": 65,
              "position": 1.5,
              "duration": 0.22916666666666666
            },
            {
              "pitch": 91,
              "velocity": 65,
              "position": 1.5,
              "duration": 0.22916666666666666
            },
            {
              "pitch": 43,
              "velocity": 43,
              "position": 2.5,
              "duration": 1.2291666666666667
            },
            {
              "pitch": 47,
              "velocity": 51,
              "position": 2.5,
              "duration": 1.2291666666666667
            },
            {
              "pitch": 52,
              "velocity": 51,
              "position": 2.5,
              "duration": 1.2291666666666667
            },
            {
              "pitch": 83,
              "velocity": 56,
              "position": 2.5,
              "duration": 1.2291666666666667
            },
            {
              "pitch": 88,
              "velocity": 56,
              "position": 2.5,
              "duration": 1.2291666666666667
            },
            {
              "pitch": 91,
              "velocity": 56,
              "position": 2.5,
              "duration": 1.2291666666666667
            }
          ]
        },
        "4": {
          "ctab": {
            "srcChannel": 4,
            "name": "Str B",
            "accType": "PAD",
            "editable": false,
            "mutedNotes": [],
            "mutedChords": [
              "7#11",
              "7b5",
              "7sus4",
              "minMaj7",
              "m7b5",
              "min",
              "Maj7#11",
              "Maj7",
              "Maj"
            ],
            "autoStart": false,
            "sourceChordNote": 0,
            "sourceChordType": "Maj7",
            "ctb2Low": null,
            "ctb2Main": {
              "ntr": "ROOT_FIXED",
              "ntt": "CHORD",
              "bassOn": false,
              "chordRootUpperLimit": 7,
              "noteLowLimit": 0,
              "noteHighLimit": 127,
              "rtr": "PITCH_SHIFT"
            },
            "ctb2High": null
          },
          "notes": [
            {
              "pitch": 55,
              "velocity": 50,
              "position": 0,
              "duration": 3.9854166666666666
            },
            {
              "pitch": 59,
              "velocity": 50,
              "position": 0,
              "duration": 3.9854166666666666
            },
            {
              "pitch": 64,
              "velocity": 50,
              "position": 0,
              "duration": 3.9854166666666666
            }
          ]
        },
        "7": {
          "ctab": {
            "srcChannel": 7,
            "name": "CC_Crash",
            "accType": "RHYTHM",
            "editable": true,
            "mutedNotes": [],
            "mutedChords": [
              "1+2+5",
              "sus4",
              "1+5",
              "1+8",
              "7aug",
              "Maj7aug",
              "7(#9)",
              "7(b13)",
              "7(b9)",
              "7(13)",
              "7#11",
              "7(9)",
              "7b5",
              "7sus4",
              "7th",
              "dim7",
              "dim",
              "minMaj7(9)",
              "minMaj7",
              "min7(11)",
              "min7(9)",
              "min(9)",
              "m7b5",
              "min7",
              "min6",
              "min",
              "aug",
              "Maj6(9)",
              "Maj7(9)",
              "Maj(9)",
              "Maj7#11",
              "Maj7",
              "Maj6",
              "Maj"
            ],
            "autoStart": true,
            "sourceChordNote": 0,
            "sourceChordType": "Maj",
            "ctb2Low": null,
            "ctb2Main": {
              "ntr": "ROOT_FIXED",
              "ntt": "BYPASS",
              "bassOn": false,
              "chordRootUpperLimit": 0,
              "noteLowLimit": 0,
              "noteHighLimit": 127,
              "rtr": "RETRIGGER"
            },
            "ctb2High": null
          },
          "notes": []
        },
        "8": {
          "ctab": {
            "srcChannel": 8,
            "name": "Perc",
            "accType": "SUBRHYTHM",
            "editable": false,
            "mutedNotes": [],
            "mutedChords": [],
            "autoStart": true,
            "sourceChordNote": 0,
            "sourceChordType": "Maj7",
            "ctb2Low": null,
            "ctb2Main": {
              "ntr": "ROOT_FIXED",
              "ntt": "BYPASS",
              "bassOn": false,
              "chordRootUpperLimit": 6,
              "noteLowLimit": 0,
              "noteHighLimit": 127,
              "rtr": "PITCH_SHIFT"
            },
            "ctb2High": null
          },
          "notes": [
            {
              "pitch": 70,
              "velocity": 56,
              "position": 0,
              "duration": 0.00625
            },
            {
              "pitch": 70,
              "velocity": 26,
              "position": 0.5,
              "duration": 0.00625
            },
            {
              "pitch": 70,
              "velocity": 72,
              "position": 1,
              "duration": 0.00625
            },
            {
              "pitch": 70,
              "velocity": 26,
              "position": 1.5,
              "duration": 0.00625
            },
            {
              "pitch": 70,
              "velocity": 56,
              "position": 2,
              "duration": 0.00625
            },
            {
              "pitch": 70,
              "velocity": 26,
              "position": 2.5,
              "duration": 0.00625
            },
            {
              "pitch": 70,
              "velocity": 72,
              "position": 3,
              "duration": 0.00625
            },
            {
              "pitch": 70,
              "velocity": 26,
              "position": 3.5,
              "duration": 0.00625
            }
          ]
        },
        "9": {
          "ctab": {
            "srcChannel": 9,
            "name": "Drums",
            "accType": "RHYTHM",
            "editable": false,
            "mutedNotes": [],
            "mutedChords": [],
            "autoStart": true,
            "sourceChordNote": 0,
            "sourceChordType": "Maj7",
            "ctb2Low": null,
            "ctb2Main": {
              "ntr": "ROOT_FIXED",
              "ntt": "BYPASS",
              "bassOn": false,
              "chordRootUpperLimit": 6,
              "noteLowLimit": 0,
              "noteHighLimit": 127,
              "rtr": "PITCH_SHIFT"
            },
            "ctb2High": null
          },
          "notes": [
            {
              "pitch": 33,
              "velocity": 72,
              "position": 0,
              "duration": 0.00625
            },
            {
              "pitch": 37,
              "velocity": 20,
              "position": 0,
              "duration": 0.00625
            },
            {
              "pitch": 42,
              "velocity": 30,
              "position": 0,
              "duration": 0.00625
            },
            {
              "pitch": 37,
              "velocity": 90,
              "position": 0.5,
              "duration": 0.00625
            },
            {
              "pitch": 46,
              "velocity": 48,
              "position": 0.5,
              "duration": 0.00625
            },
            {
              "pitch": 47,
              "velocity": 75,
              "position": 0.5,
              "duration": 0.00625
            },
            {
              "pitch": 42,
              "velocity": 30,
              "position": 1,
              "duration": 0.00625
            },
            {
              "pitch": 33,
              "velocity": 36,
              "position": 1.5,
              "duration": 0.00625
            },
            {
              "pitch": 37,
              "velocity": 20,
              "position": 1.5,
              "duration": 0.00625
            },
            {
              "pitch": 42,
              "velocity": 30,
              "position": 1.5,
              "duration": 0.00625
            },
            {
              "pitch": 33,
              "velocity": 72,
              "position": 2,
              "duration": 0.00625
            },
            {
              "pitch": 37,
              "velocity": 90,
              "position": 2,
              "duration": 0.00625
            },
            {
              "pitch": 45,
              "velocity": 75,
              "position": 2,
              "duration": 0.00625
            },
            {
              "pitch": 46,
              "velocity": 48,
              "position": 2,
              "duration": 0.00625
            },
            {
              "pitch": 37,
              "velocity": 20,
              "position": 2.5,
              "duration": 0.00625
            },
            {
              "pitch": 46,
              "velocity": 38,
              "position": 2.5,
              "duration": 0.00625
            },
            {
              "pitch": 38,
              "velocity": 50,
              "position": 3,
              "duration": 0.00625
            },
            {
              "pitch": 42,
              "velocity": 90,
              "position": 3,
              "duration": 0.00625
            },
            {
              "pitch": 33,
              "velocity": 36,
              "position": 3.5,
              "duration": 0.00625
            },
            {
              "pitch": 38,
              "velocity": 72,
              "position": 3.5,
              "duration": 0.00625
            },
            {
              "pitch": 46,
              "velocity": 48,
              "position": 3.5,
              "duration": 0.00625
            },
            {
              "pitch": 49,
              "velocity": 60,
              "position": 3.9895833333333335,
              "duration": 0.00625
            }
          ]
        },
        "10": {
          "ctab": {
            "srcChannel": 10,
            "name": "Bass",
            "accType": "BASS",
            "editable": false,
            "mutedNotes": [],
            "mutedChords": [],
            "autoStart": false,
            "sourceChordNote": 0,
            "sourceChordType": "Maj7",
            "ctb2Low": null,
            "ctb2Main": {
              "ntr": "ROOT_TRANSPOSITION",
              "ntt": "MELODY",
              "bassOn": true,
              "chordRootUpperLimit": 8,
              "noteLowLimit": 28,
              "noteHighLimit": 127,
              "rtr": "PITCH_SHIFT_TO_ROOT"
            },
            "ctb2High": null
          },
          "notes": [
            {
              "pitch": 36,
              "velocity": 98,
              "position": 0,
              "duration": 0.8604166666666667
            },
            {
              "pitch": 36,
              "velocity": 72,
              "position": 1,
              "duration": 0.11041666666666666
            },
            {
              "pitch": 31,
              "velocity": 98,
              "position": 1.5,
              "duration": 0.8604166666666667
            },
            {
              "pitch": 31,
              "velocity": 72,
              "position": 2.5,
              "duration": 0.11041666666666666
            },
            {
              "pitch": 28,
              "velocity": 98,
              "position": 3,
              "duration": 0.48541666666666666
            },
            {
              "pitch": 31,
              "velocity": 73,
              "position": 3.5,
              "duration": 0.48541666666666666
            }
          ]
        },
        "11": {
          "ctab": {
            "srcChannel": 11,
            "name": "Gt A",
            "accType": "CHORD1",
            "editable": false,
            "mutedNotes": [],
            "mutedChords": [
              "1+2+5",
              "sus4",
              "1+5",
              "1+8",
              "7aug",
              "Maj7aug",
              "7(#9)",
              "7(b13)",
              "7(b9)",
              "7(13)",
              "7(9)",
              "7th",
              "dim7",
              "dim",
              "minMaj7(9)",
              "min7(11)",
              "min7(9)",
              "min(9)",
              "min7",
              "min6",
              "aug",
              "Maj6(9)",
              "Maj7(9)",
              "Maj(9)",
              "Maj6"
            ],
            "autoStart": false,
            "sourceChordNote": 0,
            "sourceChordType": "min7",
            "ctb2Low": null,
            "ctb2Main": {
              "ntr": "ROOT_TRANSPOSITION",
              "ntt": "CHORD",
              "bassOn": false,
              "chordRootUpperLimit": 7,
              "noteLowLimit": 54,
              "noteHighLimit": 65,
              "rtr": "PITCH_SHIFT"
            },
            "ctb2High": null
          },
          "notes": [
            {
              "pitch": 57,
              "velocity": 65,
              "position": 0.5,
              "duration": 0.475
            },
            {
              "pitch": 60,
              "velocity": 60,
              "position": 0.5104166666666666,
              "duration": 0.475
            },
            {
              "pitch": 63,
              "velocity": 73,
              "position": 0.5208333333333334,
              "duration": 0.46458333333333335
            },
            {
              "pitch": 67,
              "velocity": 71,
              "position": 0.53125,
              "duration": 0.45416666666666666
            },
            {
              "pitch": 57,
              "velocity": 36,
              "position": 1,
              "duration": 0.475
            },
            {
              "pitch": 60,
              "velocity": 30,
              "position": 1.0104166666666667,
              "duration": 0.475
            },
            {
              "pitch": 63,
              "velocity": 28,
              "position": 1.0208333333333333,
              "duration": 0.46458333333333335
            },
            {
              "pitch": 67,
              "velocity": 28,
              "position": 1.03125,
              "duration": 0.45416666666666666
            },
            {
              "pitch": 58,
              "velocity": 69,
              "position": 1.5,
              "duration": 0.475
            },
            {
              "pitch": 62,
              "velocity": 63,
              "position": 1.5104166666666667,
              "duration": 0.475
            },
            {
              "pitch": 63,
              "velocity": 63,
              "position": 1.5208333333333333,
              "duration": 0.46458333333333335
            },
            {
              "pitch": 67,
              "velocity": 68,
              "position": 1.53125,
              "duration": 0.45416666666666666
            },
            {
              "pitch": 58,
              "velocity": 36,
              "position": 2,
              "duration": 0.475
            },
            {
              "pitch": 62,
              "velocity": 30,
              "position": 2.0104166666666665,
              "duration": 0.475
            },
            {
              "pitch": 63,
              "velocity": 28,
              "position": 2.0208333333333335,
              "duration": 0.46458333333333335
            },
            {
              "pitch": 67,
              "velocity": 28,
              "position": 2.03125,
              "duration": 0.45416666666666666
            },
            {
              "pitch": 58,
              "velocity": 52,
              "position": 2.5,
              "duration": 0.475
            },
            {
              "pitch": 62,
              "velocity": 46,
              "position": 2.5104166666666665,
              "duration": 0.475
            },
            {
              "pitch": 63,
              "velocity": 53,
              "position": 2.5208333333333335,
              "duration": 0.46458333333333335
            },
            {
              "pitch": 67,
              "velocity": 48,
              "position": 2.53125,
              "duration": 0.45416666666666666
            },
            {
              "pitch": 58,
              "velocity": 55,
              "position": 3,
              "duration": 0.027083333333333334
            },
            {
              "pitch": 62,
              "velocity": 43,
              "position": 3.0104166666666665,
              "duration": 0.016666666666666666
            },
            {
              "pitch": 63,
              "velocity": 52,
              "position": 3.0208333333333335,
              "duration": 0.027083333333333334
            },
            {
              "pitch": 67,
              "velocity": 48,
              "position": 3.03125,
              "duration": 0.0375
            },
            {
              "pitch": 58,
              "velocity": 31,
              "position": 3.5,
              "duration": 0.48541666666666666
            },
            {
              "pitch": 62,
              "velocity": 30,
              "position": 3.5104166666666665,
              "duration": 0.475
            },
            {
              "pitch": 63,
              "velocity": 36,
              "position": 3.5208333333333335,
              "duration": 0.46458333333333335
            },
            {
              "pitch": 67,
              "velocity": 35,
              "position": 3.53125,
              "duration": 0.45416666666666666
            }
          ]
        },
        "12": {
          "ctab": {
            "srcChannel": 12,
            "name": "Pno A",
            "accType": "CHORD2",
            "editable": false,
            "mutedNotes": [],
            "mutedChords": [
              "1+2+5",
              "sus4",
              "1+5",
              "1+8",
              "7aug",
              "Maj7aug",
              "7(#9)",
              "7(b13)",
              "7(b9)",
              "7(13)",
              "7(9)",
              "7th",
              "dim7",
              "dim",
              "minMaj7(9)",
              "min7(11)",
              "min7(9)",
              "min(9)",
              "min7",
              "min6",
              "aug",
              "Maj6(9)",
              "Maj7(9)",
              "Maj(9)",
              "Maj6"
            ],
            "autoStart": false,
            "sourceChordNote": 0,
            "sourceChordType": "min7",
            "ctb2Low": null,
            "ctb2Main": {
              "ntr": "ROOT_TRANSPOSITION",
              "ntt": "CHORD",
              "bassOn": false,
              "chordRootUpperLimit": 2,
              "noteLowLimit": 54,
              "noteHighLimit": 79,
              "rtr": "PITCH_SHIFT"
            },
            "ctb2High": null
          },
          "notes": [
            {
              "pitch": 48,
              "velocity": 46,
              "position": 0.5,
              "duration": 0.22916666666666666
            },
            {
              "pitch": 51,
              "velocity": 46,
              "position": 0.5,
              "duration": 0.22916666666666666
            },
            {
              "pitch": 57,
              "velocity": 36,
              "position": 0.5,
              "duration": 0.22916666666666666
            },
            {
              "pitch": 79,
              "velocity": 44,
              "position": 0.5,
              "duration": 0.22916666666666666
            },
            {
              "pitch": 86,
              "velocity": 44,
              "position": 0.5,
              "duration": 0.22916666666666666
            },
            {
              "pitch": 91,
              "velocity": 44,
              "position": 0.5,
              "duration": 0.22916666666666666
            },
            {
              "pitch": 46,
              "velocity": 60,
              "position": 1.5,
              "duration": 0.22916666666666666
            },
            {
              "pitch": 51,
              "velocity": 60,
              "position": 1.5,
              "duration": 0.22916666666666666
            },
            {
              "pitch": 55,
              "velocity": 51,
              "position": 1.5,
              "duration": 0.22916666666666666
            },
            {
              "pitch": 79,
              "velocity": 58,
              "position": 1.5,
              "duration": 0.22916666666666666
            },
            {
              "pitch": 86,
              "velocity": 58,
              "position": 1.5,
              "duration": 0.22916666666666666
            },
            {
              "pitch": 91,
              "velocity": 58,
              "position": 1.5,
              "duration": 0.22916666666666666
            },
            {
              "pitch": 46,
              "velocity": 51,
              "position": 2.5,
              "duration": 1.2291666666666667
            },
            {
              "pitch": 51,
              "velocity": 51,
              "position": 2.5,
              "duration": 1.2291666666666667
            },
            {
              "pitch": 55,
              "velocity": 43,
              "position": 2.5,
              "duration": 1.2291666666666667
            },
            {
              "pitch": 79,
              "velocity": 49,
              "position": 2.5,
              "duration": 1.2291666666666667
            },
            {
              "pitch": 86,
              "velocity": 49,
              "position": 2.5,
              "duration": 1.2291666666666667
            },
            {
              "pitch": 91,
              "velocity": 49,
              "position": 2.5,
              "duration": 1.2291666666666667
            }
          ]
        },
        "13": {
          "ctab": {
            "srcChannel": 13,
            "name": "Str A",
            "accType": "PAD",
            "editable": false,
            "mutedNotes": [],
            "mutedChords": [
              "1+2+5",
              "sus4",
              "1+5",
              "1+8",
              "7aug",
              "Maj7aug",
              "7(#9)",
              "7(b13)",
              "7(b9)",
              "7(13)",
              "7(9)",
              "7th",
              "dim7",
              "dim",
              "minMaj7(9)",
              "min7(11)",
              "min7(9)",
              "min(9)",
              "min7",
              "min6",
              "aug",
              "Maj6(9)",
              "Maj7(9)",
              "Maj(9)",
              "Maj6"
            ],
            "autoStart": false,
            "sourceChordNote": 0,
            "sourceChordType": "min7",
            "ctb2Low": null,
            "ctb2Main": {
              "ntr": "ROOT_TRANSPOSITION",
              "ntt": "CHORD",
              "bassOn": false,
              "chordRootUpperLimit": 7,
              "noteLowLimit": 54,
              "noteHighLimit": 65,
              "rtr": "PITCH_SHIFT"
            },
            "ctb2High": null
          },
          "notes": [
            {
              "pitch": 58,
              "velocity": 50,
              "position": 0,
              "duration": 1.9854166666666666
            },
            {
              "pitch": 62,
              "velocity": 50,
              "position": 0,
              "duration": 1.9854166666666666
            },
            {
              "pitch": 57,
              "velocity": 50,
              "position": 2,
              "duration": 1.9854166666666666
            },
            {
              "pitch": 60,
              "velocity": 50,
              "position": 2,
              "duration": 1.9854166666666666
            },
            {
              "pitch": 63,
              "velocity": 50,
              "position": 0,
              "duration": 3.9854166666666666
            },
            {
              "pitch": 67,
              "velocity": 50,
              "position": 0,
              "duration": 3.9854166666666666
            }
          ]
        }
      }
    },
    "Fill_In_CC": {
      "type": "Fill_In_CC",
      "sizeInBeats": 4,
      "channels": {
        "2": {
          "ctab": {
            "srcChannel": 2,
            "name": "Gt B",
            "accType": "CHORD1",
            "editable": false,
            "mutedNotes": [],
            "mutedChords": [
              "7#11",
              "7b5",
              "7sus4",
              "minMaj7",
              "m7b5",
              "min",
              "Maj7#11",
              "Maj7",
              "Maj"
            ],
            "autoStart": false,
            "sourceChordNote": 0,
            "sourceChordType": "Maj7",
            "ctb2Low": null,
            "ctb2Main": {
              "ntr": "ROOT_FIXED",
              "ntt": "CHORD",
              "bassOn": false,
              "chordRootUpperLimit": 7,
              "noteLowLimit": 0,
              "noteHighLimit": 127,
              "rtr": "PITCH_SHIFT"
            },
            "ctb2High": null
          },
          "notes": [
            {
              "pitch": 59,
              "velocity": 63,
              "position": 0.5,
              "duration": 0.225
            },
            {
              "pitch": 64,
              "velocity": 63,
              "position": 0.5,
              "duration": 0.225
            },
            {
              "pitch": 67,
              "velocity": 63,
              "position": 0.5,
              "duration": 0.225
            },
            {
              "pitch": 59,
              "velocity": 69,
              "position": 1.5,
              "duration": 0.225
            },
            {
              "pitch": 64,
              "velocity": 69,
              "position": 1.5,
              "duration": 0.225
            },
            {
              "pitch": 67,
              "velocity": 69,
              "position": 1.5,
              "duration": 0.225
            },
            {
              "pitch": 59,
              "velocity": 63,
              "position": 2.5,
              "duration": 1.225
            },
            {
              "pitch": 64,
              "velocity": 63,
              "position": 2.5,
              "duration": 1.225
            },
            {
              "pitch": 67,
              "velocity": 63,
              "position": 2.5,
              "duration": 1.225
            }
          ]
        },
        "3": {
          "ctab": {
            "srcChannel": 3,
            "name": "Pno B",
            "accType": "CHORD2",
            "editable": false,
            "mutedNotes": [],
            "mutedChords": [
              "7#11",
              "7b5",
              "7sus4",
              "minMaj7",
              "m7b5",
              "min",
              "Maj7#11",
              "Maj7",
              "Maj"
            ],
            "autoStart": false,
            "sourceChordNote": 0,
            "sourceChordType": "Maj7",
            "ctb2Low": null,
            "ctb2Main": {
              "ntr": "ROOT_TRANSPOSITION",
              "ntt": "CHORD",
              "bassOn": false,
              "chordRootUpperLimit": 2,
              "noteLowLimit": 54,
              "noteHighLimit": 79,
              "rtr": "PITCH_SHIFT"
            },
            "ctb2High": null
          },
          "notes": [
            {
              "pitch": 47,
              "velocity": 57,
              "position": 0.5,
              "duration": 0.2604166666666667
            },
            {
              "pitch": 52,
              "velocity": 54,
              "position": 0.5,
              "duration": 0.2604166666666667
            },
            {
              "pitch": 43,
              "velocity": 54,
              "position": 0.5,
              "duration": 0.2708333333333333
            },
            {
              "pitch": 47,
              "velocity": 67,
              "position": 1.5,
              "duration": 0.21875
            },
            {
              "pitch": 52,
              "velocity": 67,
              "position": 1.5,
              "duration": 0.22916666666666666
            },
            {
              "pitch": 43,
              "velocity": 64,
              "position": 1.5,
              "duration": 0.23958333333333334
            },
            {
              "pitch": 47,
              "velocity": 55,
              "position": 2.5,
              "duration": 1.2604166666666667
            },
            {
              "pitch": 52,
              "velocity": 54,
              "position": 2.5,
              "duration": 1.2604166666666667
            },
            {
              "pitch": 43,
              "velocity": 54,
              "position": 2.5,
              "duration": 1.2708333333333333
            }
          ]
        },
        "4": {
          "ctab": {
            "srcChannel": 4,
            "name": "Str B",
            "accType": "PAD",
            "editable": false,
            "mutedNotes": [],
            "mutedChords": [
              "7#11",
              "7b5",
              "7sus4",
              "minMaj7",
              "m7b5",
              "min",
              "Maj7#11",
              "Maj7",
              "Maj"
            ],
            "autoStart": false,
            "sourceChordNote": 0,
            "sourceChordType": "Maj7",
            "ctb2Low": null,
            "ctb2Main": {
              "ntr": "ROOT_FIXED",
              "ntt": "CHORD",
              "bassOn": false,
              "chordRootUpperLimit": 7,
              "noteLowLimit": 0,
              "noteHighLimit": 127,
              "rtr": "PITCH_SHIFT"
            },
            "ctb2High": null
          },
          "notes": [
            {
              "pitch": 55,
              "velocity": 65,
              "position": 0,
              "duration": 3.9854166666666666
            },
            {
              "pitch": 59,
              "velocity": 65,
              "position": 0,
              "duration": 3.9854166666666666
            },
            {
              "pitch": 64,
              "velocity": 65,
              "position": 0,
              "duration": 3.9854166666666666
            }
          ]
        },
        "7": {
          "ctab": {
            "srcChannel": 7,
            "name": "CC_Crash",
            "accType": "RHYTHM",
            "editable": true,
            "mutedNotes": [],
            "mutedChords": [
              "1+2+5",
              "sus4",
              "1+5",
              "1+8",
              "7aug",
              "Maj7aug",
              "7(#9)",
              "7(b13)",
              "7(b9)",
              "7(13)",
              "7#11",
              "7(9)",
              "7b5",
              "7sus4",
              "7th",
              "dim7",
              "dim",
              "minMaj7(9)",
              "minMaj7",
              "min7(11)",
              "min7(9)",
              "min(9)",
              "m7b5",
              "min7",
              "min6",
              "min",
              "aug",
              "Maj6(9)",
              "Maj7(9)",
              "Maj(9)",
              "Maj7#11",
              "Maj7",
              "Maj6",
              "Maj"
            ],
            "autoStart": true,
            "sourceChordNote": 0,
            "sourceChordType": "Maj",
            "ctb2Low": null,
            "ctb2Main": {
              "ntr": "ROOT_FIXED",
              "ntt": "BYPASS",
              "bassOn": false,
              "chordRootUpperLimit": 0,
              "noteLowLimit": 0,
              "noteHighLimit": 127,
              "rtr": "RETRIGGER"
            },
            "ctb2High": null
          },
          "notes": []
        },
        "8": {
          "ctab": {
            "srcChannel": 8,
            "name": "Perc",
            "accType": "SUBRHYTHM",
            "editable": false,
            "mutedNotes": [],
            "mutedChords": [],
            "autoStart": true,
            "sourceChordNote": 0,
            "sourceChordType": "Maj7",
            "ctb2Low": null,
            "ctb2Main": {
              "ntr": "ROOT_FIXED",
              "ntt": "BYPASS",
              "bassOn": false,
              "chordRootUpperLimit": 6,
              "noteLowLimit": 0,
              "noteHighLimit": 127,
              "rtr": "PITCH_SHIFT"
            },
            "ctb2High": null
          },
          "notes": [
            {
              "pitch": 69,
              "velocity": 42,
              "position": 0,
              "duration": 0.00625
            },
            {
              "pitch": 81,
              "velocity": 40,
              "position": 0,
              "duration": 0.00625
            },
            {
              "pitch": 69,
              "velocity": 18,
              "position": 0.5,
              "duration": 0.00625
            },
            {
              "pitch": 81,
              "velocity": 20,
              "position": 0.5,
              "duration": 0.00625
            },
            {
              "pitch": 69,
              "velocity": 74,
              "position": 1,
              "duration": 0.00625
            },
            {
              "pitch": 80,
              "velocity": 30,
              "position": 1,
              "duration": 0.00625
            },
            {
              "pitch": 69,
              "velocity": 18,
              "position": 1.5,
              "duration": 0.00625
            },
            {
              "pitch": 80,
              "velocity": 30,
              "position": 1.5,
              "duration": 0.00625
            },
            {
              "pitch": 69,
              "velocity": 42,
              "position": 2,
              "duration": 0.00625
            },
            {
              "pitch": 81,
              "velocity": 40,
              "position": 2,
              "duration": 0.00625
            },
            {
              "pitch": 69,
              "velocity": 18,
              "position": 2.5,
              "duration": 0.00625
            },
            {
              "pitch": 81,
              "velocity": 20,
              "position": 2.5,
              "duration": 0.00625
            },
            {
              "pitch": 69,
              "velocity": 74,
              "position": 3,
              "duration": 0.00625
            },
            {
              "pitch": 80,
              "velocity": 30,
              "position": 3,
              "duration": 0.00625
            },
            {
              "pitch": 69,
              "velocity": 18,
              "position": 3.5,
              "duration": 0.00625
            },
            {
              "pitch": 81,
              "velocity": 10,
              "position": 3.5,
              "duration": 0.00625
            }
          ]
        },
        "9": {
          "ctab": {
            "srcChannel": 9,
            "name": "Drums",
            "accType": "RHYTHM",
            "editable": false,
            "mutedNotes": [],
            "mutedChords": [],
            "autoStart": true,
            "sourceChordNote": 0,
            "sourceChordType": "Maj7",
            "ctb2Low": null,
            "ctb2Main": {
              "ntr": "ROOT_FIXED",
              "ntt": "BYPASS",
              "bassOn": false,
              "chordRootUpperLimit": 6,
              "noteLowLimit": 0,
              "noteHighLimit": 127,
              "rtr": "PITCH_SHIFT"
            },
            "ctb2High": null
          },
          "notes": [
            {
              "pitch": 33,
              "velocity": 72,
              "position": 0,
              "duration": 0.00625
            },
            {
              "pitch": 51,
              "velocity": 30,
              "position": 0,
              "duration": 0.00625
            },
            {
              "pitch": 38,
              "velocity": 72,
              "position": 0.5,
              "duration": 0.00625
            },
            {
              "pitch": 51,
              "velocity": 90,
              "position": 0.5,
              "duration": 0.00625
            },
            {
              "pitch": 38,
              "velocity": 36,
              "position": 0.75,
              "duration": 0.00625
            },
            {
              "pitch": 44,
              "velocity": 62,
              "position": 1,
              "duration": 0.00625
            },
            {
              "pitch": 51,
              "velocity": 30,
              "position": 1,
              "duration": 0.00625
            },
            {
              "pitch": 33,
              "velocity": 36,
              "position": 1.5,
              "duration": 0.00625
            },
            {
              "pitch": 47,
              "velocity": 60,
              "position": 1.5,
              "duration": 0.00625
            },
            {
              "pitch": 51,
              "velocity": 30,
              "position": 1.5,
              "duration": 0.00625
            },
            {
              "pitch": 33,
              "velocity": 72,
              "position": 2,
              "duration": 0.00625
            },
            {
              "pitch": 51,
              "velocity": 90,
              "position": 2,
              "duration": 0.00625
            },
            {
              "pitch": 45,
              "velocity": 30,
              "position": 2.5,
              "duration": 0.00625
            },
            {
              "pitch": 51,
              "velocity": 30,
              "position": 2.5,
              "duration": 0.00625
            },
            {
              "pitch": 44,
              "velocity": 62,
              "position": 3,
              "duration": 0.00625
            },
            {
              "pitch": 45,
              "velocity": 60,
              "position": 3,
              "duration": 0.00625
            },
            {
              "pitch": 51,
              "velocity": 90,
              "position": 3,
              "duration": 0.00625
            },
            {
              "pitch": 33,
              "velocity": 36,
              "position": 3.5,
              "duration": 0.00625
            },
            {
              "pitch": 51,
              "velocity": 30,
              "position": 3.5,
              "duration": 0.00625
            },
            {
              "pitch": 49,
              "velocity": 60,
              "position": 3.9895833333333335,
              "duration": 0.00625
            }
          ]
        },
        "10": {
          "ctab": {
            "srcChannel": 10,
            "name": "Bass",
            "accType": "BASS",
            "editable": false,
            "mutedNotes": [],
            "mutedChords": [],
            "autoStart": false,
            "sourceChordNote": 0,
            "sourceChordType": "Maj7",
            "ctb2Low": null,
            "ctb2Main": {
              "ntr": "ROOT_TRANSPOSITION",
              "ntt": "MELODY",
              "bassOn": true,
              "chordRootUpperLimit": 8,
              "noteLowLimit": 28,
              "noteHighLimit": 127,
              "rtr": "PITCH_SHIFT_TO_ROOT"
            },
            "ctb2High": null
          },
          "notes": [
            {
              "pitch": 24,
              "velocity": 98,
              "position": 0,
              "duration": 1.3916666666666666
            },
            {
              "pitch": 31,
              "velocity": 54,
              "position": 1.5,
              "duration": 0.39166666666666666
            },
            {
              "pitch": 31,
              "velocity": 98,
              "position": 2,
              "duration": 0.9854166666666667
            },
            {
              "pitch": 36,
              "velocity": 98,
              "position": 3,
              "duration": 0.48541666666666666
            },
            {
              "pitch": 31,
              "velocity": 54,
              "position": 3.5,
              "duration": 0.48541666666666666
            }
          ]
        },
        "11": {
          "ctab": {
            "srcChannel": 11,
            "name": "Gt A",
            "accType": "CHORD1",
            "editable": false,
            "mutedNotes": [],
            "mutedChords": [
              "1+2+5",
              "sus4",
              "1+5",
              "1+8",
              "7aug",
              "Maj7aug",
              "7(#9)",
              "7(b13)",
              "7(b9)",
              "7(13)",
              "7(9)",
              "7th",
              "dim7",
              "dim",
              "minMaj7(9)",
              "min7(11)",
              "min7(9)",
              "min(9)",
              "min7",
              "min6",
              "aug",
              "Maj6(9)",
              "Maj7(9)",
              "Maj(9)",
              "Maj6"
            ],
            "autoStart": false,
            "sourceChordNote": 0,
            "sourceChordType": "min7",
            "ctb2Low": null,
            "ctb2Main": {
              "ntr": "ROOT_TRANSPOSITION",
              "ntt": "CHORD",
              "bassOn": false,
              "chordRootUpperLimit": 7,
              "noteLowLimit": 54,
              "noteHighLimit": 65,
              "rtr": "PITCH_SHIFT"
            },
            "ctb2High": null
          },
          "notes": [
            {
              "pitch": 57,
              "velocity": 64,
              "position": 0.5,
              "duration": 0.225
            },
            {
              "pitch": 63,
              "velocity": 64,
              "position": 0.5,
              "duration": 0.225
            },
            {
              "pitch": 67,
              "velocity": 64,
              "position": 0.5,
              "duration": 0.225
            },
            {
              "pitch": 58,
              "velocity": 70,
              "position": 1.5,
              "duration": 0.225
            },
            {
              "pitch": 62,
              "velocity": 49,
              "position": 1.5,
              "duration": 0.225
            },
            {
              "pitch": 67,
              "velocity": 70,
              "position": 1.5,
              "duration": 0.225
            },
            {
              "pitch": 58,
              "velocity": 64,
              "position": 2.5,
              "duration": 1.225
            },
            {
              "pitch": 62,
              "velocity": 45,
              "position": 2.5,
              "duration": 1.225
            },
            {
              "pitch": 67,
              "velocity": 64,
              "position": 2.5,
              "duration": 1.225
            }
          ]
        },
        "12": {
          "ctab": {
            "srcChannel": 12,
            "name": "Pno A",
            "accType": "CHORD2",
            "editable": false,
            "mutedNotes": [],
            "mutedChords": [
              "1+2+5",
              "sus4",
              "1+5",
              "1+8",
              "7aug",
              "Maj7aug",
              "7(#9)",
              "7(b13)",
              "7(b9)",
              "7(13)",
              "7(9)",
              "7th",
              "dim7",
              "dim",
              "minMaj7(9)",
              "min7(11)",
              "min7(9)",
              "min(9)",
              "min7",
              "min6",
              "aug",
              "Maj6(9)",
              "Maj7(9)",
              "Maj(9)",
              "Maj6"
            ],
            "autoStart": false,
            "sourceChordNote": 0,
            "sourceChordType": "min7",
            "ctb2Low": null,
            "ctb2Main": {
              "ntr": "ROOT_TRANSPOSITION",
              "ntt": "CHORD",
              "bassOn": false,
              "chordRootUpperLimit": 2,
              "noteLowLimit": 54,
              "noteHighLimit": 79,
              "rtr": "PITCH_SHIFT"
            },
            "ctb2High": null
          },
          "notes": [
            {
              "pitch": 45,
              "velocity": 56,
              "position": 0.5,
              "duration": 0.2604166666666667
            },
            {
              "pitch": 48,
              "velocity": 54,
              "position": 0.5,
              "duration": 0.2604166666666667
            },
            {
              "pitch": 51,
              "velocity": 54,
              "position": 0.5,
              "duration": 0.2604166666666667
            },
            {
              "pitch": 55,
              "velocity": 53,
              "position": 0.5,
              "duration": 0.2708333333333333
            },
            {
              "pitch": 50,
              "velocity": 66,
              "position": 1.5,
              "duration": 0.21875
            },
            {
              "pitch": 46,
              "velocity": 66,
              "position": 1.5,
              "duration": 0.22916666666666666
            },
            {
              "pitch": 51,
              "velocity": 66,
              "position": 1.5,
              "duration": 0.22916666666666666
            },
            {
              "pitch": 55,
              "velocity": 64,
              "position": 1.5,
              "duration": 0.23958333333333334
            },
            {
              "pitch": 46,
              "velocity": 56,
              "position": 2.5,
              "duration": 1.2604166666666667
            },
            {
              "pitch": 50,
              "velocity": 54,
              "position": 2.5,
              "duration": 1.2604166666666667
            },
            {
              "pitch": 51,
              "velocity": 54,
              "position": 2.5,
              "duration": 1.2604166666666667
            },
            {
              "pitch": 55,
              "velocity": 53,
              "position": 2.5,
              "duration": 1.2708333333333333
            }
          ]
        },
        "13": {
          "ctab": {
            "srcChannel": 13,
            "name": "Str A",
            "accType": "PAD",
            "editable": false,
            "mutedNotes": [],
            "mutedChords": [
              "1+2+5",
              "sus4",
              "1+5",
              "1+8",
              "7aug",
              "Maj7aug",
              "7(#9)",
              "7(b13)",
              "7(b9)",
              "7(13)",
              "7(9)",
              "7th",
              "dim7",
              "dim",
              "minMaj7(9)",
              "min7(11)",
              "min7(9)",
              "min(9)",
              "min7",
              "min6",
              "aug",
              "Maj6(9)",
              "Maj7(9)",
              "Maj(9)",
              "Maj6"
            ],
            "autoStart": false,
            "sourceChordNote": 0,
            "sourceChordType": "min7",
            "ctb2Low": null,
            "ctb2Main": {
              "ntr": "ROOT_TRANSPOSITION",
              "ntt": "CHORD",
              "bassOn": false,
              "chordRootUpperLimit": 7,
              "noteLowLimit": 54,
              "noteHighLimit": 65,
              "rtr": "PITCH_SHIFT"
            },
            "ctb2High": null
          },
          "notes": [
            {
              "pitch": 58,
              "velocity": 67,
              "position": 0,
              "duration": 1.9854166666666666
            },
            {
              "pitch": 62,
              "velocity": 67,
              "position": 0,
              "duration": 1.9854166666666666
            },
            {
              "pitch": 57,
              "velocity": 67,
              "position": 2,
              "duration": 1.9854166666666666
            },
            {
              "pitch": 60,
              "velocity": 67,
              "position": 2,
              "duration": 1.9854166666666666
            },
            {
              "pitch": 63,
              "velocity": 67,
              "position": 0,
              "duration": 3.9854166666666666
            },
            {
              "pitch": 67,
              "velocity": 67,
              "position": 0,
              "duration": 3.9854166666666666
            }
          ]
        }
      }
    },
    "Fill_In_DD": {
      "type": "Fill_In_DD",
      "sizeInBeats": 4,
      "channels": {
        "2": {
          "ctab": {
            "srcChannel": 2,
            "name": "Gt B",
            "accType": "CHORD1",
            "editable": false,
            "mutedNotes": [],
            "mutedChords": [
              "7#11",
              "7b5",
              "7sus4",
              "minMaj7",
              "m7b5",
              "min",
              "Maj7#11",
              "Maj7",
              "Maj"
            ],
            "autoStart": false,
            "sourceChordNote": 0,
            "sourceChordType": "Maj7",
            "ctb2Low": null,
            "ctb2Main": {
              "ntr": "ROOT_FIXED",
              "ntt": "CHORD",
              "bassOn": false,
              "chordRootUpperLimit": 7,
              "noteLowLimit": 0,
              "noteHighLimit": 127,
              "rtr": "PITCH_SHIFT"
            },
            "ctb2High": null
          },
          "notes": [
            {
              "pitch": 59,
              "velocity": 44,
              "position": 0,
              "duration": 0.48541666666666666
            },
            {
              "pitch": 64,
              "velocity": 46,
              "position": 0.020833333333333332,
              "duration": 0.46458333333333335
            },
            {
              "pitch": 67,
              "velocity": 46,
              "position": 0.03125,
              "duration": 0.45416666666666666
            },
            {
              "pitch": 59,
              "velocity": 51,
              "position": 0.5,
              "duration": 0.48541666666666666
            },
            {
              "pitch": 64,
              "velocity": 49,
              "position": 0.5208333333333334,
              "duration": 0.46458333333333335
            },
            {
              "pitch": 67,
              "velocity": 51,
              "position": 0.53125,
              "duration": 0.45416666666666666
            },
            {
              "pitch": 59,
              "velocity": 74,
              "position": 1,
              "duration": 0.027083333333333334
            },
            {
              "pitch": 64,
              "velocity": 68,
              "position": 1.0208333333333333,
              "duration": 0.0375
            },
            {
              "pitch": 67,
              "velocity": 72,
              "position": 1.03125,
              "duration": 0.0375
            },
            {
              "pitch": 59,
              "velocity": 73,
              "position": 1.5,
              "duration": 0.48541666666666666
            },
            {
              "pitch": 64,
              "velocity": 72,
              "position": 1.5104166666666667,
              "duration": 0.475
            },
            {
              "pitch": 67,
              "velocity": 68,
              "position": 1.53125,
              "duration": 0.45416666666666666
            },
            {
              "pitch": 59,
              "velocity": 46,
              "position": 2,
              "duration": 0.475
            },
            {
              "pitch": 64,
              "velocity": 39,
              "position": 2.0104166666666665,
              "duration": 0.475
            },
            {
              "pitch": 67,
              "velocity": 37,
              "position": 2.03125,
              "duration": 0.45416666666666666
            },
            {
              "pitch": 59,
              "velocity": 50,
              "position": 2.5,
              "duration": 0.48541666666666666
            },
            {
              "pitch": 64,
              "velocity": 51,
              "position": 2.5104166666666665,
              "duration": 0.475
            },
            {
              "pitch": 67,
              "velocity": 51,
              "position": 2.53125,
              "duration": 0.45416666666666666
            },
            {
              "pitch": 59,
              "velocity": 72,
              "position": 3,
              "duration": 0.027083333333333334
            },
            {
              "pitch": 64,
              "velocity": 68,
              "position": 3.0104166666666665,
              "duration": 0.0375
            },
            {
              "pitch": 67,
              "velocity": 68,
              "position": 3.03125,
              "duration": 0.0375
            },
            {
              "pitch": 59,
              "velocity": 68,
              "position": 3.5,
              "duration": 0.48541666666666666
            },
            {
              "pitch": 64,
              "velocity": 72,
              "position": 3.5208333333333335,
              "duration": 0.46458333333333335
            },
            {
              "pitch": 67,
              "velocity": 72,
              "position": 3.53125,
              "duration": 0.45416666666666666
            }
          ]
        },
        "3": {
          "ctab": {
            "srcChannel": 3,
            "name": "Pno B",
            "accType": "CHORD2",
            "editable": false,
            "mutedNotes": [],
            "mutedChords": [
              "7#11",
              "7b5",
              "7sus4",
              "minMaj7",
              "m7b5",
              "min",
              "Maj7#11",
              "Maj7",
              "Maj"
            ],
            "autoStart": false,
            "sourceChordNote": 0,
            "sourceChordType": "Maj7",
            "ctb2Low": null,
            "ctb2Main": {
              "ntr": "ROOT_TRANSPOSITION",
              "ntt": "CHORD",
              "bassOn": false,
              "chordRootUpperLimit": 2,
              "noteLowLimit": 54,
              "noteHighLimit": 79,
              "rtr": "PITCH_SHIFT"
            },
            "ctb2High": null
          },
          "notes": [
            {
              "pitch": 76,
              "velocity": 65,
              "position": 0,
              "duration": 0.19791666666666666
            },
            {
              "pitch": 79,
              "velocity": 65,
              "position": 0,
              "duration": 0.19791666666666666
            },
            {
              "pitch": 83,
              "velocity": 65,
              "position": 0,
              "duration": 0.19791666666666666
            },
            {
              "pitch": 47,
              "velocity": 57,
              "position": 0.5,
              "duration": 0.2604166666666667
            },
            {
              "pitch": 52,
              "velocity": 54,
              "position": 0.5,
              "duration": 0.2604166666666667
            },
            {
              "pitch": 43,
              "velocity": 54,
              "position": 0.5,
              "duration": 0.2708333333333333
            },
            {
              "pitch": 76,
              "velocity": 65,
              "position": 1.5,
              "duration": 0.19791666666666666
            },
            {
              "pitch": 79,
              "velocity": 65,
              "position": 1.5,
              "duration": 0.19791666666666666
            },
            {
              "pitch": 83,
              "velocity": 65,
              "position": 1.5,
              "duration": 0.19791666666666666
            },
            {
              "pitch": 47,
              "velocity": 67,
              "position": 1.5,
              "duration": 0.21875
            },
            {
              "pitch": 52,
              "velocity": 67,
              "position": 1.5,
              "duration": 0.22916666666666666
            },
            {
              "pitch": 43,
              "velocity": 64,
              "position": 1.5,
              "duration": 0.23958333333333334
            },
            {
              "pitch": 76,
              "velocity": 65,
              "position": 3,
              "duration": 0.19791666666666666
            },
            {
              "pitch": 79,
              "velocity": 65,
              "position": 3,
              "duration": 0.19791666666666666
            },
            {
              "pitch": 83,
              "velocity": 65,
              "position": 3,
              "duration": 0.19791666666666666
            },
            {
              "pitch": 47,
              "velocity": 55,
              "position": 2.5,
              "duration": 1.2604166666666667
            },
            {
              "pitch": 52,
              "velocity": 54,
              "position": 2.5,
              "duration": 1.2604166666666667
            },
            {
              "pitch": 43,
              "velocity": 54,
              "position": 2.5,
              "duration": 1.2708333333333333
            }
          ]
        },
        "4": {
          "ctab": {
            "srcChannel": 4,
            "name": "Str B",
            "accType": "PAD",
            "editable": false,
            "mutedNotes": [],
            "mutedChords": [
              "7#11",
              "7b5",
              "7sus4",
              "minMaj7",
              "m7b5",
              "min",
              "Maj7#11",
              "Maj7",
              "Maj"
            ],
            "autoStart": false,
            "sourceChordNote": 0,
            "sourceChordType": "Maj7",
            "ctb2Low": null,
            "ctb2Main": {
              "ntr": "ROOT_FIXED",
              "ntt": "CHORD",
              "bassOn": false,
              "chordRootUpperLimit": 7,
              "noteLowLimit": 0,
              "noteHighLimit": 127,
              "rtr": "PITCH_SHIFT"
            },
            "ctb2High": null
          },
          "notes": [
            {
              "pitch": 55,
              "velocity": 85,
              "position": 0,
              "duration": 3.9854166666666666
            },
            {
              "pitch": 59,
              "velocity": 85,
              "position": 0,
              "duration": 3.9854166666666666
            },
            {
              "pitch": 64,
              "velocity": 85,
              "position": 0,
              "duration": 3.9854166666666666
            }
          ]
        },
        "7": {
          "ctab": {
            "srcChannel": 7,
            "name": "CC_Crash",
            "accType": "RHYTHM",
            "editable": true,
            "mutedNotes": [],
            "mutedChords": [
              "1+2+5",
              "sus4",
              "1+5",
              "1+8",
              "7aug",
              "Maj7aug",
              "7(#9)",
              "7(b13)",
              "7(b9)",
              "7(13)",
              "7#11",
              "7(9)",
              "7b5",
              "7sus4",
              "7th",
              "dim7",
              "dim",
              "minMaj7(9)",
              "minMaj7",
              "min7(11)",
              "min7(9)",
              "min(9)",
              "m7b5",
              "min7",
              "min6",
              "min",
              "aug",
              "Maj6(9)",
              "Maj7(9)",
              "Maj(9)",
              "Maj7#11",
              "Maj7",
              "Maj6",
              "Maj"
            ],
            "autoStart": true,
            "sourceChordNote": 0,
            "sourceChordType": "Maj",
            "ctb2Low": null,
            "ctb2Main": {
              "ntr": "ROOT_FIXED",
              "ntt": "BYPASS",
              "bassOn": false,
              "chordRootUpperLimit": 0,
              "noteLowLimit": 0,
              "noteHighLimit": 127,
              "rtr": "RETRIGGER"
            },
            "ctb2High": null
          },
          "notes": []
        },
        "8": {
          "ctab": {
            "srcChannel": 8,
            "name": "Perc",
            "accType": "SUBRHYTHM",
            "editable": false,
            "mutedNotes": [],
            "mutedChords": [],
            "autoStart": true,
            "sourceChordNote": 0,
            "sourceChordType": "Maj7",
            "ctb2Low": null,
            "ctb2Main": {
              "ntr": "ROOT_FIXED",
              "ntt": "BYPASS",
              "bassOn": false,
              "chordRootUpperLimit": 6,
              "noteLowLimit": 0,
              "noteHighLimit": 127,
              "rtr": "PITCH_SHIFT"
            },
            "ctb2High": null
          },
          "notes": [
            {
              "pitch": 82,
              "velocity": 56,
              "position": 0,
              "duration": 0.00625
            },
            {
              "pitch": 82,
              "velocity": 32,
              "position": 0.5,
              "duration": 0.00625
            },
            {
              "pitch": 82,
              "velocity": 88,
              "position": 1,
              "duration": 0.00625
            },
            {
              "pitch": 82,
              "velocity": 32,
              "position": 1.5,
              "duration": 0.00625
            },
            {
              "pitch": 82,
              "velocity": 56,
              "position": 2,
              "duration": 0.00625
            },
            {
              "pitch": 78,
              "velocity": 42,
              "position": 2.5,
              "duration": 0.00625
            },
            {
              "pitch": 82,
              "velocity": 32,
              "position": 2.5,
              "duration": 0.00625
            },
            {
              "pitch": 82,
              "velocity": 88,
              "position": 3,
              "duration": 0.00625
            },
            {
              "pitch": 82,
              "velocity": 32,
              "position": 3.5,
              "duration": 0.00625
            }
          ]
        },
        "9": {
          "ctab": {
            "srcChannel": 9,
            "name": "Drums",
            "accType": "RHYTHM",
            "editable": false,
            "mutedNotes": [],
            "mutedChords": [],
            "autoStart": true,
            "sourceChordNote": 0,
            "sourceChordType": "Maj7",
            "ctb2Low": null,
            "ctb2Main": {
              "ntr": "ROOT_FIXED",
              "ntt": "BYPASS",
              "bassOn": false,
              "chordRootUpperLimit": 6,
              "noteLowLimit": 0,
              "noteHighLimit": 127,
              "rtr": "PITCH_SHIFT"
            },
            "ctb2High": null
          },
          "notes": [
            {
              "pitch": 33,
              "velocity": 72,
              "position": 0,
              "duration": 0.00625
            },
            {
              "pitch": 44,
              "velocity": 32,
              "position": 0,
              "duration": 0.00625
            },
            {
              "pitch": 59,
              "velocity": 41,
              "position": 0,
              "duration": 0.00625
            },
            {
              "pitch": 38,
              "velocity": 48,
              "position": 0.5,
              "duration": 0.00625
            },
            {
              "pitch": 59,
              "velocity": 90,
              "position": 0.5,
              "duration": 0.00625
            },
            {
              "pitch": 38,
              "velocity": 72,
              "position": 1,
              "duration": 0.00625
            },
            {
              "pitch": 44,
              "velocity": 62,
              "position": 1,
              "duration": 0.00625
            },
            {
              "pitch": 59,
              "velocity": 41,
              "position": 1,
              "duration": 0.00625
            },
            {
              "pitch": 33,
              "velocity": 36,
              "position": 1.5,
              "duration": 0.00625
            },
            {
              "pitch": 47,
              "velocity": 30,
              "position": 1.5,
              "duration": 0.00625
            },
            {
              "pitch": 33,
              "velocity": 72,
              "position": 2,
              "duration": 0.00625
            },
            {
              "pitch": 44,
              "velocity": 32,
              "position": 2,
              "duration": 0.00625
            },
            {
              "pitch": 47,
              "velocity": 60,
              "position": 2,
              "duration": 0.00625
            },
            {
              "pitch": 45,
              "velocity": 30,
              "position": 2.5,
              "duration": 0.00625
            },
            {
              "pitch": 44,
              "velocity": 62,
              "position": 3,
              "duration": 0.00625
            },
            {
              "pitch": 45,
              "velocity": 60,
              "position": 3,
              "duration": 0.00625
            },
            {
              "pitch": 33,
              "velocity": 36,
              "position": 3.5,
              "duration": 0.00625
            },
            {
              "pitch": 38,
              "velocity": 57,
              "position": 3.5,
              "duration": 0.00625
            },
            {
              "pitch": 46,
              "velocity": 68,
              "position": 3.5,
              "duration": 0.00625
            },
            {
              "pitch": 49,
              "velocity": 60,
              "position": 3.9895833333333335,
              "duration": 0.00625
            }
          ]
        },
        "10": {
          "ctab": {
            "srcChannel": 10,
            "name": "Bass",
            "accType": "BASS",
            "editable": false,
            "mutedNotes": [],
            "mutedChords": [],
            "autoStart": false,
            "sourceChordNote": 0,
            "sourceChordType": "Maj7",
            "ctb2Low": null,
            "ctb2Main": {
              "ntr": "ROOT_TRANSPOSITION",
              "ntt": "MELODY",
              "bassOn": true,
              "chordRootUpperLimit": 8,
              "noteLowLimit": 28,
              "noteHighLimit": 127,
              "rtr": "PITCH_SHIFT_TO_ROOT"
            },
            "ctb2High": null
          },
          "notes": [
            {
              "pitch": 24,
              "velocity": 98,
              "position": 0,
              "duration": 0.39166666666666666
            },
            {
              "pitch": 24,
              "velocity": 98,
              "position": 0.5,
              "duration": 0.27708333333333335
            },
            {
              "pitch": 24,
              "velocity": 72,
              "position": 1.5,
              "duration": 0.11041666666666666
            },
            {
              "pitch": 31,
              "velocity": 72,
              "position": 2,
              "duration": 0.11041666666666666
            },
            {
              "pitch": 31,
              "velocity": 98,
              "position": 2.5,
              "duration": 0.7354166666666667
            },
            {
              "pitch": 24,
              "velocity": 72,
              "position": 3.5,
              "duration": 0.11041666666666666
            }
          ]
        },
        "11": {
          "ctab": {
            "srcChannel": 11,
            "name": "Gt A",
            "accType": "CHORD1",
            "editable": false,
            "mutedNotes": [],
            "mutedChords": [
              "1+2+5",
              "sus4",
              "1+5",
              "1+8",
              "7aug",
              "Maj7aug",
              "7(#9)",
              "7(b13)",
              "7(b9)",
              "7(13)",
              "7(9)",
              "7th",
              "dim7",
              "dim",
              "minMaj7(9)",
              "min7(11)",
              "min7(9)",
              "min(9)",
              "min7",
              "min6",
              "aug",
              "Maj6(9)",
              "Maj7(9)",
              "Maj(9)",
              "Maj6"
            ],
            "autoStart": false,
            "sourceChordNote": 0,
            "sourceChordType": "min7",
            "ctb2Low": null,
            "ctb2Main": {
              "ntr": "ROOT_TRANSPOSITION",
              "ntt": "CHORD",
              "bassOn": false,
              "chordRootUpperLimit": 7,
              "noteLowLimit": 54,
              "noteHighLimit": 65,
              "rtr": "PITCH_SHIFT"
            },
            "ctb2High": null
          },
          "notes": [
            {
              "pitch": 57,
              "velocity": 47,
              "position": 0,
              "duration": 0.48541666666666666
            },
            {
              "pitch": 63,
              "velocity": 49,
              "position": 0.020833333333333332,
              "duration": 0.46458333333333335
            },
            {
              "pitch": 67,
              "velocity": 49,
              "position": 0.03125,
              "duration": 0.45416666666666666
            },
            {
              "pitch": 57,
              "velocity": 54,
              "position": 0.5,
              "duration": 0.48541666666666666
            },
            {
              "pitch": 63,
              "velocity": 52,
              "position": 0.5208333333333334,
              "duration": 0.46458333333333335
            },
            {
              "pitch": 67,
              "velocity": 54,
              "position": 0.53125,
              "duration": 0.45416666666666666
            },
            {
              "pitch": 57,
              "velocity": 77,
              "position": 1,
              "duration": 0.027083333333333334
            },
            {
              "pitch": 63,
              "velocity": 71,
              "position": 1.0208333333333333,
              "duration": 0.0375
            },
            {
              "pitch": 67,
              "velocity": 75,
              "position": 1.03125,
              "duration": 0.0375
            },
            {
              "pitch": 58,
              "velocity": 76,
              "position": 1.5,
              "duration": 0.48541666666666666
            },
            {
              "pitch": 63,
              "velocity": 75,
              "position": 1.5104166666666667,
              "duration": 0.475
            },
            {
              "pitch": 67,
              "velocity": 71,
              "position": 1.53125,
              "duration": 0.45416666666666666
            },
            {
              "pitch": 58,
              "velocity": 49,
              "position": 2,
              "duration": 0.475
            },
            {
              "pitch": 63,
              "velocity": 42,
              "position": 2.0104166666666665,
              "duration": 0.475
            },
            {
              "pitch": 67,
              "velocity": 40,
              "position": 2.03125,
              "duration": 0.45416666666666666
            },
            {
              "pitch": 58,
              "velocity": 53,
              "position": 2.5,
              "duration": 0.48541666666666666
            },
            {
              "pitch": 63,
              "velocity": 54,
              "position": 2.5104166666666665,
              "duration": 0.475
            },
            {
              "pitch": 67,
              "velocity": 54,
              "position": 2.53125,
              "duration": 0.45416666666666666
            },
            {
              "pitch": 58,
              "velocity": 75,
              "position": 3,
              "duration": 0.027083333333333334
            },
            {
              "pitch": 63,
              "velocity": 71,
              "position": 3.0104166666666665,
              "duration": 0.0375
            },
            {
              "pitch": 67,
              "velocity": 71,
              "position": 3.03125,
              "duration": 0.0375
            },
            {
              "pitch": 57,
              "velocity": 71,
              "position": 3.5,
              "duration": 0.48541666666666666
            },
            {
              "pitch": 63,
              "velocity": 75,
              "position": 3.5208333333333335,
              "duration": 0.46458333333333335
            },
            {
              "pitch": 67,
              "velocity": 75,
              "position": 3.53125,
              "duration": 0.45416666666666666
            }
          ]
        },
        "12": {
          "ctab": {
            "srcChannel": 12,
            "name": "Pno A",
            "accType": "CHORD2",
            "editable": false,
            "mutedNotes": [],
            "mutedChords": [
              "1+2+5",
              "sus4",
              "1+5",
              "1+8",
              "7aug",
              "Maj7aug",
              "7(#9)",
              "7(b13)",
              "7(b9)",
              "7(13)",
              "7(9)",
              "7th",
              "dim7",
              "dim",
              "minMaj7(9)",
              "min7(11)",
              "min7(9)",
              "min(9)",
              "min7",
              "min6",
              "aug",
              "Maj6(9)",
              "Maj7(9)",
              "Maj(9)",
              "Maj6"
            ],
            "autoStart": false,
            "sourceChordNote": 0,
            "sourceChordType": "min7",
            "ctb2Low": null,
            "ctb2Main": {
              "ntr": "ROOT_TRANSPOSITION",
              "ntt": "CHORD",
              "bassOn": false,
              "chordRootUpperLimit": 2,
              "noteLowLimit": 54,
              "noteHighLimit": 79,
              "rtr": "PITCH_SHIFT"
            },
            "ctb2High": null
          },
          "notes": [
            {
              "pitch": 72,
              "velocity": 53,
              "position": 0,
              "duration": 0.19791666666666666
            },
            {
              "pitch": 79,
              "velocity": 58,
              "position": 0,
              "duration": 0.19791666666666666
            },
            {
              "pitch": 84,
              "velocity": 58,
              "position": 0,
              "duration": 0.19791666666666666
            },
            {
              "pitch": 45,
              "velocity": 56,
              "position": 0.5,
              "duration": 0.2604166666666667
            },
            {
              "pitch": 48,
              "velocity": 54,
              "position": 0.5,
              "duration": 0.2604166666666667
            },
            {
              "pitch": 51,
              "velocity": 54,
              "position": 0.5,
              "duration": 0.2604166666666667
            },
            {
              "pitch": 55,
              "velocity": 53,
              "position": 0.5,
              "duration": 0.2708333333333333
            },
            {
              "pitch": 72,
              "velocity": 53,
              "position": 1.5,
              "duration": 0.19791666666666666
            },
            {
              "pitch": 79,
              "velocity": 58,
              "position": 1.5,
              "duration": 0.19791666666666666
            },
            {
              "pitch": 84,
              "velocity": 58,
              "position": 1.5,
              "duration": 0.19791666666666666
            },
            {
              "pitch": 50,
              "velocity": 66,
              "position": 1.5,
              "duration": 0.21875
            },
            {
              "pitch": 46,
              "velocity": 66,
              "position": 1.5,
              "duration": 0.22916666666666666
            },
            {
              "pitch": 51,
              "velocity": 66,
              "position": 1.5,
              "duration": 0.22916666666666666
            },
            {
              "pitch": 55,
              "velocity": 64,
              "position": 1.5,
              "duration": 0.23958333333333334
            },
            {
              "pitch": 72,
              "velocity": 53,
              "position": 3,
              "duration": 0.19791666666666666
            },
            {
              "pitch": 79,
              "velocity": 58,
              "position": 3,
              "duration": 0.19791666666666666
            },
            {
              "pitch": 84,
              "velocity": 58,
              "position": 3,
              "duration": 0.19791666666666666
            },
            {
              "pitch": 46,
              "velocity": 56,
              "position": 2.5,
              "duration": 1.2604166666666667
            },
            {
              "pitch": 50,
              "velocity": 54,
              "position": 2.5,
              "duration": 1.2604166666666667
            },
            {
              "pitch": 51,
              "velocity": 54,
              "position": 2.5,
              "duration": 1.2604166666666667
            },
            {
              "pitch": 55,
              "velocity": 53,
              "position": 2.5,
              "duration": 1.2708333333333333
            }
          ]
        },
        "13": {
          "ctab": {
            "srcChannel": 13,
            "name": "Str A",
            "accType": "PAD",
            "editable": false,
            "mutedNotes": [],
            "mutedChords": [
              "1+2+5",
              "sus4",
              "1+5",
              "1+8",
              "7aug",
              "Maj7aug",
              "7(#9)",
              "7(b13)",
              "7(b9)",
              "7(13)",
              "7(9)",
              "7th",
              "dim7",
              "dim",
              "minMaj7(9)",
              "min7(11)",
              "min7(9)",
              "min(9)",
              "min7",
              "min6",
              "aug",
              "Maj6(9)",
              "Maj7(9)",
              "Maj(9)",
              "Maj6"
            ],
            "autoStart": false,
            "sourceChordNote": 0,
            "sourceChordType": "min7",
            "ctb2Low": null,
            "ctb2Main": {
              "ntr": "ROOT_TRANSPOSITION",
              "ntt": "CHORD",
              "bassOn": false,
              "chordRootUpperLimit": 7,
              "noteLowLimit": 54,
              "noteHighLimit": 65,
              "rtr": "PITCH_SHIFT"
            },
            "ctb2High": null
          },
          "notes": [
            {
              "pitch": 58,
              "velocity": 85,
              "position": 0,
              "duration": 1.9854166666666666
            },
            {
              "pitch": 62,
              "velocity": 85,
              "position": 0,
              "duration": 1.9854166666666666
            },
            {
              "pitch": 57,
              "velocity": 85,
              "position": 2,
              "duration": 1.9854166666666666
            },
            {
              "pitch": 60,
              "velocity": 85,
              "position": 2,
              "duration": 1.9854166666666666
            },
            {
              "pitch": 63,
              "velocity": 85,
              "position": 0,
              "duration": 3.9854166666666666
            },
            {
              "pitch": 67,
              "velocity": 85,
              "position": 0,
              "duration": 3.9854166666666666
            }
          ]
        }
      }
    },
    "Intro_A": {
      "type": "Intro_A",
      "sizeInBeats": 8,
      "channels": {
        "2": {
          "ctab": {
            "srcChannel": 2,
            "name": "Gt B",
            "accType": "CHORD1",
            "editable": false,
            "mutedNotes": [],
            "mutedChords": [
              "7#11",
              "7b5",
              "7sus4",
              "minMaj7",
              "m7b5",
              "min",
              "Maj7#11",
              "Maj7",
              "Maj"
            ],
            "autoStart": false,
            "sourceChordNote": 0,
            "sourceChordType": "Maj7",
            "ctb2Low": null,
            "ctb2Main": {
              "ntr": "ROOT_FIXED",
              "ntt": "CHORD",
              "bassOn": false,
              "chordRootUpperLimit": 7,
              "noteLowLimit": 0,
              "noteHighLimit": 127,
              "rtr": "PITCH_SHIFT"
            },
            "ctb2High": null
          },
          "notes": []
        },
        "3": {
          "ctab": {
            "srcChannel": 3,
            "name": "Pno B",
            "accType": "CHORD2",
            "editable": false,
            "mutedNotes": [],
            "mutedChords": [
              "7#11",
              "7b5",
              "7sus4",
              "minMaj7",
              "m7b5",
              "min",
              "Maj7#11",
              "Maj7",
              "Maj"
            ],
            "autoStart": false,
            "sourceChordNote": 0,
            "sourceChordType": "Maj7",
            "ctb2Low": null,
            "ctb2Main": {
              "ntr": "ROOT_TRANSPOSITION",
              "ntt": "CHORD",
              "bassOn": false,
              "chordRootUpperLimit": 2,
              "noteLowLimit": 54,
              "noteHighLimit": 79,
              "rtr": "PITCH_SHIFT"
            },
            "ctb2High": null
          },
          "notes": []
        },
        "4": {
          "ctab": {
            "srcChannel": 4,
            "name": "Str B",
            "accType": "PAD",
            "editable": false,
            "mutedNotes": [],
            "mutedChords": [
              "7#11",
              "7b5",
              "7sus4",
              "minMaj7",
              "m7b5",
              "min",
              "Maj7#11",
              "Maj7",
              "Maj"
            ],
            "autoStart": false,
            "sourceChordNote": 0,
            "sourceChordType": "Maj7",
            "ctb2Low": null,
            "ctb2Main": {
              "ntr": "ROOT_FIXED",
              "ntt": "CHORD",
              "bassOn": false,
              "chordRootUpperLimit": 7,
              "noteLowLimit": 0,
              "noteHighLimit": 127,
              "rtr": "PITCH_SHIFT"
            },
            "ctb2High": null
          },
          "notes": []
        },
        "7": {
          "ctab": {
            "srcChannel": 7,
            "name": "CC_Crash",
            "accType": "RHYTHM",
            "editable": true,
            "mutedNotes": [],
            "mutedChords": [
              "1+2+5",
              "sus4",
              "1+5",
              "1+8",
              "7aug",
              "Maj7aug",
              "7(#9)",
              "7(b13)",
              "7(b9)",
              "7(13)",
              "7#11",
              "7(9)",
              "7b5",
              "7sus4",
              "7th",
              "dim7",
              "dim",
              "minMaj7(9)",
              "minMaj7",
              "min7(11)",
              "min7(9)",
              "min(9)",
              "m7b5",
              "min7",
              "min6",
              "min",
              "aug",
              "Maj6(9)",
              "Maj7(9)",
              "Maj(9)",
              "Maj7#11",
              "Maj7",
              "Maj6",
              "Maj"
            ],
            "autoStart": true,
            "sourceChordNote": 0,
            "sourceChordType": "Maj",
            "ctb2Low": null,
            "ctb2Main": {
              "ntr": "ROOT_FIXED",
              "ntt": "BYPASS",
              "bassOn": false,
              "chordRootUpperLimit": 0,
              "noteLowLimit": 0,
              "noteHighLimit": 127,
              "rtr": "RETRIGGER"
            },
            "ctb2High": null
          },
          "notes": []
        },
        "8": {
          "ctab": {
            "srcChannel": 8,
            "name": "Perc",
            "accType": "SUBRHYTHM",
            "editable": false,
            "mutedNotes": [],
            "mutedChords": [],
            "autoStart": true,
            "sourceChordNote": 0,
            "sourceChordType": "Maj7",
            "ctb2Low": null,
            "ctb2Main": {
              "ntr": "ROOT_FIXED",
              "ntt": "BYPASS",
              "bassOn": false,
              "chordRootUpperLimit": 6,
              "noteLowLimit": 0,
              "noteHighLimit": 127,
              "rtr": "PITCH_SHIFT"
            },
            "ctb2High": null
          },
          "notes": []
        },
        "9": {
          "ctab": {
            "srcChannel": 9,
            "name": "Drums",
            "accType": "RHYTHM",
            "editable": false,
            "mutedNotes": [],
            "mutedChords": [],
            "autoStart": true,
            "sourceChordNote": 0,
            "sourceChordType": "Maj7",
            "ctb2Low": null,
            "ctb2Main": {
              "ntr": "ROOT_FIXED",
              "ntt": "BYPASS",
              "bassOn": false,
              "chordRootUpperLimit": 6,
              "noteLowLimit": 0,
              "noteHighLimit": 127,
              "rtr": "PITCH_SHIFT"
            },
            "ctb2High": null
          },
          "notes": [
            {
              "pitch": 44,
              "velocity": 62,
              "position": 0,
              "duration": 0.00625
            },
            {
              "pitch": 44,
              "velocity": 62,
              "position": 2,
              "duration": 0.00625
            },
            {
              "pitch": 44,
              "velocity": 62,
              "position": 4,
              "duration": 0.00625
            },
            {
              "pitch": 31,
              "velocity": 10,
              "position": 4.5,
              "duration": 0.00625
            },
            {
              "pitch": 38,
              "velocity": 24,
              "position": 5,
              "duration": 0.00625
            },
            {
              "pitch": 44,
              "velocity": 62,
              "position": 5,
              "duration": 0.00625
            },
            {
              "pitch": 38,
              "velocity": 72,
              "position": 5.5,
              "duration": 0.00625
            },
            {
              "pitch": 44,
              "velocity": 62,
              "position": 6,
              "duration": 0.00625
            },
            {
              "pitch": 47,
              "velocity": 30,
              "position": 6.5,
              "duration": 0.00625
            },
            {
              "pitch": 44,
              "velocity": 62,
              "position": 7,
              "duration": 0.00625
            },
            {
              "pitch": 47,
              "velocity": 70,
              "position": 7,
              "duration": 0.00625
            },
            {
              "pitch": 33,
              "velocity": 36,
              "position": 7.5,
              "duration": 0.00625
            },
            {
              "pitch": 46,
              "velocity": 44,
              "position": 7.5,
              "duration": 0.00625
            },
            {
              "pitch": 49,
              "velocity": 60,
              "position": 7.989583333333333,
              "duration": 0.00625
            }
          ]
        },
        "10": {
          "ctab": {
            "srcChannel": 10,
            "name": "Bass",
            "accType": "BASS",
            "editable": false,
            "mutedNotes": [],
            "mutedChords": [],
            "autoStart": false,
            "sourceChordNote": 0,
            "sourceChordType": "Maj7",
            "ctb2Low": null,
            "ctb2Main": {
              "ntr": "ROOT_TRANSPOSITION",
              "ntt": "MELODY",
              "bassOn": true,
              "chordRootUpperLimit": 8,
              "noteLowLimit": 28,
              "noteHighLimit": 127,
              "rtr": "PITCH_SHIFT_TO_ROOT"
            },
            "ctb2High": null
          },
          "notes": []
        },
        "11": {
          "ctab": {
            "srcChannel": 11,
            "name": "Gt A",
            "accType": "CHORD1",
            "editable": false,
            "mutedNotes": [],
            "mutedChords": [
              "1+2+5",
              "sus4",
              "1+5",
              "1+8",
              "7aug",
              "Maj7aug",
              "7(#9)",
              "7(b13)",
              "7(b9)",
              "7(13)",
              "7(9)",
              "7th",
              "dim7",
              "dim",
              "minMaj7(9)",
              "min7(11)",
              "min7(9)",
              "min(9)",
              "min7",
              "min6",
              "aug",
              "Maj6(9)",
              "Maj7(9)",
              "Maj(9)",
              "Maj6"
            ],
            "autoStart": false,
            "sourceChordNote": 0,
            "sourceChordType": "min7",
            "ctb2Low": null,
            "ctb2Main": {
              "ntr": "ROOT_TRANSPOSITION",
              "ntt": "CHORD",
              "bassOn": false,
              "chordRootUpperLimit": 7,
              "noteLowLimit": 54,
              "noteHighLimit": 65,
              "rtr": "PITCH_SHIFT"
            },
            "ctb2High": null
          },
          "notes": []
        },
        "12": {
          "ctab": {
            "srcChannel": 12,
            "name": "Pno A",
            "accType": "CHORD2",
            "editable": false,
            "mutedNotes": [],
            "mutedChords": [
              "1+2+5",
              "sus4",
              "1+5",
              "1+8",
              "7aug",
              "Maj7aug",
              "7(#9)",
              "7(b13)",
              "7(b9)",
              "7(13)",
              "7(9)",
              "7th",
              "dim7",
              "dim",
              "minMaj7(9)",
              "min7(11)",
              "min7(9)",
              "min(9)",
              "min7",
              "min6",
              "aug",
              "Maj6(9)",
              "Maj7(9)",
              "Maj(9)",
              "Maj6"
            ],
            "autoStart": false,
            "sourceChordNote": 0,
            "sourceChordType": "min7",
            "ctb2Low": null,
            "ctb2Main": {
              "ntr": "ROOT_TRANSPOSITION",
              "ntt": "CHORD",
              "bassOn": false,
              "chordRootUpperLimit": 2,
              "noteLowLimit": 54,
              "noteHighLimit": 79,
              "rtr": "PITCH_SHIFT"
            },
            "ctb2High": null
          },
          "notes": []
        },
        "13": {
          "ctab": {
            "srcChannel": 13,
            "name": "Str A",
            "accType": "PAD",
            "editable": false,
            "mutedNotes": [],
            "mutedChords": [
              "1+2+5",
              "sus4",
              "1+5",
              "1+8",
              "7aug",
              "Maj7aug",
              "7(#9)",
              "7(b13)",
              "7(b9)",
              "7(13)",
              "7(9)",
              "7th",
              "dim7",
              "dim",
              "minMaj7(9)",
              "min7(11)",
              "min7(9)",
              "min(9)",
              "min7",
              "min6",
              "aug",
              "Maj6(9)",
              "Maj7(9)",
              "Maj(9)",
              "Maj6"
            ],
            "autoStart": false,
            "sourceChordNote": 0,
            "sourceChordType": "min7",
            "ctb2Low": null,
            "ctb2Main": {
              "ntr": "ROOT_TRANSPOSITION",
              "ntt": "CHORD",
              "bassOn": false,
              "chordRootUpperLimit": 7,
              "noteLowLimit": 54,
              "noteHighLimit": 65,
              "rtr": "PITCH_SHIFT"
            },
            "ctb2High": null
          },
          "notes": []
        }
      }
    },
    "Ending_A": {
      "type": "Ending_A",
      "sizeInBeats": 12,
      "channels": {
        "2": {
          "ctab": {
            "srcChannel": 2,
            "name": "Gt B",
            "accType": "CHORD1",
            "editable": false,
            "mutedNotes": [],
            "mutedChords": [
              "7#11",
              "7b5",
              "7sus4",
              "minMaj7",
              "m7b5",
              "min",
              "Maj7#11",
              "Maj7",
              "Maj"
            ],
            "autoStart": false,
            "sourceChordNote": 0,
            "sourceChordType": "Maj7",
            "ctb2Low": null,
            "ctb2Main": {
              "ntr": "ROOT_FIXED",
              "ntt": "CHORD",
              "bassOn": false,
              "chordRootUpperLimit": 7,
              "noteLowLimit": 0,
              "noteHighLimit": 127,
              "rtr": "PITCH_SHIFT"
            },
            "ctb2High": null
          },
          "notes": [
            {
              "pitch": 59,
              "velocity": 65,
              "position": 0,
              "duration": 11.985416666666667
            },
            {
              "pitch": 64,
              "velocity": 62,
              "position": 0.010416666666666666,
              "duration": 11.975
            },
            {
              "pitch": 67,
              "velocity": 65,
              "position": 0.020833333333333332,
              "duration": 11.964583333333334
            }
          ]
        },
        "3": {
          "ctab": {
            "srcChannel": 3,
            "name": "Pno B",
            "accType": "CHORD2",
            "editable": false,
            "mutedNotes": [],
            "mutedChords": [
              "7#11",
              "7b5",
              "7sus4",
              "minMaj7",
              "m7b5",
              "min",
              "Maj7#11",
              "Maj7",
              "Maj"
            ],
            "autoStart": false,
            "sourceChordNote": 0,
            "sourceChordType": "Maj7",
            "ctb2Low": null,
            "ctb2Main": {
              "ntr": "ROOT_TRANSPOSITION",
              "ntt": "CHORD",
              "bassOn": false,
              "chordRootUpperLimit": 2,
              "noteLowLimit": 54,
              "noteHighLimit": 79,
              "rtr": "PITCH_SHIFT"
            },
            "ctb2High": null
          },
          "notes": [
            {
              "pitch": 43,
              "velocity": 62,
              "position": 0,
              "duration": 11.979166666666666
            },
            {
              "pitch": 47,
              "velocity": 62,
              "position": 0,
              "duration": 11.979166666666666
            },
            {
              "pitch": 52,
              "velocity": 62,
              "position": 0,
              "duration": 11.979166666666666
            }
          ]
        },
        "4": {
          "ctab": {
            "srcChannel": 4,
            "name": "Str B",
            "accType": "PAD",
            "editable": false,
            "mutedNotes": [],
            "mutedChords": [
              "7#11",
              "7b5",
              "7sus4",
              "minMaj7",
              "m7b5",
              "min",
              "Maj7#11",
              "Maj7",
              "Maj"
            ],
            "autoStart": false,
            "sourceChordNote": 0,
            "sourceChordType": "Maj7",
            "ctb2Low": null,
            "ctb2Main": {
              "ntr": "ROOT_FIXED",
              "ntt": "CHORD",
              "bassOn": false,
              "chordRootUpperLimit": 7,
              "noteLowLimit": 0,
              "noteHighLimit": 127,
              "rtr": "PITCH_SHIFT"
            },
            "ctb2High": null
          },
          "notes": [
            {
              "pitch": 55,
              "velocity": 72,
              "position": 0,
              "duration": 11.985416666666667
            },
            {
              "pitch": 59,
              "velocity": 72,
              "position": 0,
              "duration": 11.985416666666667
            },
            {
              "pitch": 64,
              "velocity": 72,
              "position": 0,
              "duration": 11.985416666666667
            }
          ]
        },
        "7": {
          "ctab": {
            "srcChannel": 7,
            "name": "CC_Crash",
            "accType": "RHYTHM",
            "editable": true,
            "mutedNotes": [],
            "mutedChords": [
              "1+2+5",
              "sus4",
              "1+5",
              "1+8",
              "7aug",
              "Maj7aug",
              "7(#9)",
              "7(b13)",
              "7(b9)",
              "7(13)",
              "7#11",
              "7(9)",
              "7b5",
              "7sus4",
              "7th",
              "dim7",
              "dim",
              "minMaj7(9)",
              "minMaj7",
              "min7(11)",
              "min7(9)",
              "min(9)",
              "m7b5",
              "min7",
              "min6",
              "min",
              "aug",
              "Maj6(9)",
              "Maj7(9)",
              "Maj(9)",
              "Maj7#11",
              "Maj7",
              "Maj6",
              "Maj"
            ],
            "autoStart": true,
            "sourceChordNote": 0,
            "sourceChordType": "Maj",
            "ctb2Low": null,
            "ctb2Main": {
              "ntr": "ROOT_FIXED",
              "ntt": "BYPASS",
              "bassOn": false,
              "chordRootUpperLimit": 0,
              "noteLowLimit": 0,
              "noteHighLimit": 127,
              "rtr": "RETRIGGER"
            },
            "ctb2High": null
          },
          "notes": []
        },
        "8": {
          "ctab": {
            "srcChannel": 8,
            "name": "Perc",
            "accType": "SUBRHYTHM",
            "editable": false,
            "mutedNotes": [],
            "mutedChords": [],
            "autoStart": true,
            "sourceChordNote": 0,
            "sourceChordType": "Maj7",
            "ctb2Low": null,
            "ctb2Main": {
              "ntr": "ROOT_FIXED",
              "ntt": "BYPASS",
              "bassOn": false,
              "chordRootUpperLimit": 6,
              "noteLowLimit": 0,
              "noteHighLimit": 127,
              "rtr": "PITCH_SHIFT"
            },
            "ctb2High": null
          },
          "notes": [
            {
              "pitch": 82,
              "velocity": 56,
              "position": 0,
              "duration": 0.00625
            }
          ]
        },
        "9": {
          "ctab": {
            "srcChannel": 9,
            "name": "Drums",
            "accType": "RHYTHM",
            "editable": false,
            "mutedNotes": [],
            "mutedChords": [],
            "autoStart": true,
            "sourceChordNote": 0,
            "sourceChordType": "Maj7",
            "ctb2Low": null,
            "ctb2Main": {
              "ntr": "ROOT_FIXED",
              "ntt": "BYPASS",
              "bassOn": false,
              "chordRootUpperLimit": 6,
              "noteLowLimit": 0,
              "noteHighLimit": 127,
              "rtr": "PITCH_SHIFT"
            },
            "ctb2High": null
          },
          "notes": [
            {
              "pitch": 33,
              "velocity": 72,
              "position": 0,
              "duration": 0.00625
            }
          ]
        },
        "10": {
          "ctab": {
            "srcChannel": 10,
            "name": "Bass",
            "accType": "BASS",
            "editable": false,
            "mutedNotes": [],
            "mutedChords": [],
            "autoStart": false,
            "sourceChordNote": 0,
            "sourceChordType": "Maj7",
            "ctb2Low": null,
            "ctb2Main": {
              "ntr": "ROOT_TRANSPOSITION",
              "ntt": "MELODY",
              "bassOn": true,
              "chordRootUpperLimit": 8,
              "noteLowLimit": 28,
              "noteHighLimit": 127,
              "rtr": "PITCH_SHIFT_TO_ROOT"
            },
            "ctb2High": null
          },
          "notes": [
            {
              "pitch": 24,
              "velocity": 98,
              "position": 0,
              "duration": 11.985416666666667
            }
          ]
        },
        "11": {
          "ctab": {
            "srcChannel": 11,
            "name": "Gt A",
            "accType": "CHORD1",
            "editable": false,
            "mutedNotes": [],
            "mutedChords": [
              "1+2+5",
              "sus4",
              "1+5",
              "1+8",
              "7aug",
              "Maj7aug",
              "7(#9)",
              "7(b13)",
              "7(b9)",
              "7(13)",
              "7(9)",
              "7th",
              "dim7",
              "dim",
              "minMaj7(9)",
              "min7(11)",
              "min7(9)",
              "min(9)",
              "min7",
              "min6",
              "aug",
              "Maj6(9)",
              "Maj7(9)",
              "Maj(9)",
              "Maj6"
            ],
            "autoStart": false,
            "sourceChordNote": 0,
            "sourceChordType": "min7",
            "ctb2Low": null,
            "ctb2Main": {
              "ntr": "ROOT_TRANSPOSITION",
              "ntt": "CHORD",
              "bassOn": false,
              "chordRootUpperLimit": 7,
              "noteLowLimit": 54,
              "noteHighLimit": 65,
              "rtr": "PITCH_SHIFT"
            },
            "ctb2High": null
          },
          "notes": [
            {
              "pitch": 58,
              "velocity": 65,
              "position": 0,
              "duration": 11.985416666666667
            },
            {
              "pitch": 63,
              "velocity": 62,
              "position": 0.010416666666666666,
              "duration": 11.975
            },
            {
              "pitch": 67,
              "velocity": 65,
              "position": 0.020833333333333332,
              "duration": 11.964583333333334
            }
          ]
        },
        "12": {
          "ctab": {
            "srcChannel": 12,
            "name": "Pno A",
            "accType": "CHORD2",
            "editable": false,
            "mutedNotes": [],
            "mutedChords": [
              "1+2+5",
              "sus4",
              "1+5",
              "1+8",
              "7aug",
              "Maj7aug",
              "7(#9)",
              "7(b13)",
              "7(b9)",
              "7(13)",
              "7(9)",
              "7th",
              "dim7",
              "dim",
              "minMaj7(9)",
              "min7(11)",
              "min7(9)",
              "min(9)",
              "min7",
              "min6",
              "aug",
              "Maj6(9)",
              "Maj7(9)",
              "Maj(9)",
              "Maj6"
            ],
            "autoStart": false,
            "sourceChordNote": 0,
            "sourceChordType": "min7",
            "ctb2Low": null,
            "ctb2Main": {
              "ntr": "ROOT_TRANSPOSITION",
              "ntt": "CHORD",
              "bassOn": false,
              "chordRootUpperLimit": 2,
              "noteLowLimit": 54,
              "noteHighLimit": 79,
              "rtr": "PITCH_SHIFT"
            },
            "ctb2High": null
          },
          "notes": [
            {
              "pitch": 46,
              "velocity": 62,
              "position": 0,
              "duration": 11.979166666666666
            },
            {
              "pitch": 51,
              "velocity": 62,
              "position": 0,
              "duration": 11.979166666666666
            },
            {
              "pitch": 55,
              "velocity": 62,
              "position": 0,
              "duration": 11.979166666666666
            }
          ]
        },
        "13": {
          "ctab": {
            "srcChannel": 13,
            "name": "Str A",
            "accType": "PAD",
            "editable": false,
            "mutedNotes": [],
            "mutedChords": [
              "1+2+5",
              "sus4",
              "1+5",
              "1+8",
              "7aug",
              "Maj7aug",
              "7(#9)",
              "7(b13)",
              "7(b9)",
              "7(13)",
              "7(9)",
              "7th",
              "dim7",
              "dim",
              "minMaj7(9)",
              "min7(11)",
              "min7(9)",
              "min(9)",
              "min7",
              "min6",
              "aug",
              "Maj6(9)",
              "Maj7(9)",
              "Maj(9)",
              "Maj6"
            ],
            "autoStart": false,
            "sourceChordNote": 0,
            "sourceChordType": "min7",
            "ctb2Low": null,
            "ctb2Main": {
              "ntr": "ROOT_TRANSPOSITION",
              "ntt": "CHORD",
              "bassOn": false,
              "chordRootUpperLimit": 7,
              "noteLowLimit": 54,
              "noteHighLimit": 65,
              "rtr": "PITCH_SHIFT"
            },
            "ctb2High": null
          },
          "notes": [
            {
              "pitch": 58,
              "velocity": 72,
              "position": 0,
              "duration": 11.985416666666667
            },
            {
              "pitch": 63,
              "velocity": 72,
              "position": 0,
              "duration": 11.985416666666667
            },
            {
              "pitch": 67,
              "velocity": 72,
              "position": 0,
              "duration": 11.985416666666667
            }
          ]
        }
      }
    },
    "Fill_In_BA": {
      "type": "Fill_In_BA",
      "sizeInBeats": 4,
      "channels": {
        "2": {
          "ctab": {
            "srcChannel": 2,
            "name": "Gt B",
            "accType": "CHORD1",
            "editable": false,
            "mutedNotes": [],
            "mutedChords": [
              "7#11",
              "7b5",
              "7sus4",
              "minMaj7",
              "m7b5",
              "min",
              "Maj7#11",
              "Maj7",
              "Maj"
            ],
            "autoStart": false,
            "sourceChordNote": 0,
            "sourceChordType": "Maj7",
            "ctb2Low": null,
            "ctb2Main": {
              "ntr": "ROOT_FIXED",
              "ntt": "CHORD",
              "bassOn": false,
              "chordRootUpperLimit": 7,
              "noteLowLimit": 0,
              "noteHighLimit": 127,
              "rtr": "PITCH_SHIFT"
            },
            "ctb2High": null
          },
          "notes": [
            {
              "pitch": 59,
              "velocity": 22,
              "position": 0,
              "duration": 0.475
            },
            {
              "pitch": 64,
              "velocity": 22,
              "position": 0.020833333333333332,
              "duration": 0.46458333333333335
            },
            {
              "pitch": 67,
              "velocity": 32,
              "position": 0.03125,
              "duration": 0.45416666666666666
            },
            {
              "pitch": 59,
              "velocity": 44,
              "position": 0.5,
              "duration": 0.48541666666666666
            },
            {
              "pitch": 64,
              "velocity": 50,
              "position": 0.5208333333333334,
              "duration": 0.46458333333333335
            },
            {
              "pitch": 67,
              "velocity": 50,
              "position": 0.53125,
              "duration": 0.45416666666666666
            },
            {
              "pitch": 59,
              "velocity": 61,
              "position": 1,
              "duration": 0.5375
            },
            {
              "pitch": 64,
              "velocity": 65,
              "position": 1.0208333333333333,
              "duration": 0.5270833333333333
            },
            {
              "pitch": 67,
              "velocity": 65,
              "position": 1.03125,
              "duration": 0.5375
            }
          ]
        },
        "3": {
          "ctab": {
            "srcChannel": 3,
            "name": "Pno B",
            "accType": "CHORD2",
            "editable": false,
            "mutedNotes": [],
            "mutedChords": [
              "7#11",
              "7b5",
              "7sus4",
              "minMaj7",
              "m7b5",
              "min",
              "Maj7#11",
              "Maj7",
              "Maj"
            ],
            "autoStart": false,
            "sourceChordNote": 0,
            "sourceChordType": "Maj7",
            "ctb2Low": null,
            "ctb2Main": {
              "ntr": "ROOT_TRANSPOSITION",
              "ntt": "CHORD",
              "bassOn": false,
              "chordRootUpperLimit": 2,
              "noteLowLimit": 54,
              "noteHighLimit": 79,
              "rtr": "PITCH_SHIFT"
            },
            "ctb2High": null
          },
          "notes": []
        },
        "4": {
          "ctab": {
            "srcChannel": 4,
            "name": "Str B",
            "accType": "PAD",
            "editable": false,
            "mutedNotes": [],
            "mutedChords": [
              "7#11",
              "7b5",
              "7sus4",
              "minMaj7",
              "m7b5",
              "min",
              "Maj7#11",
              "Maj7",
              "Maj"
            ],
            "autoStart": false,
            "sourceChordNote": 0,
            "sourceChordType": "Maj7",
            "ctb2Low": null,
            "ctb2Main": {
              "ntr": "ROOT_FIXED",
              "ntt": "CHORD",
              "bassOn": false,
              "chordRootUpperLimit": 7,
              "noteLowLimit": 0,
              "noteHighLimit": 127,
              "rtr": "PITCH_SHIFT"
            },
            "ctb2High": null
          },
          "notes": [
            {
              "pitch": 55,
              "velocity": 85,
              "position": 0,
              "duration": 0.9854166666666667
            },
            {
              "pitch": 59,
              "velocity": 85,
              "position": 0,
              "duration": 0.9854166666666667
            },
            {
              "pitch": 64,
              "velocity": 85,
              "position": 0,
              "duration": 0.9854166666666667
            }
          ]
        },
        "7": {
          "ctab": {
            "srcChannel": 7,
            "name": "CC_Crash",
            "accType": "RHYTHM",
            "editable": true,
            "mutedNotes": [],
            "mutedChords": [
              "1+2+5",
              "sus4",
              "1+5",
              "1+8",
              "7aug",
              "Maj7aug",
              "7(#9)",
              "7(b13)",
              "7(b9)",
              "7(13)",
              "7#11",
              "7(9)",
              "7b5",
              "7sus4",
              "7th",
              "dim7",
              "dim",
              "minMaj7(9)",
              "minMaj7",
              "min7(11)",
              "min7(9)",
              "min(9)",
              "m7b5",
              "min7",
              "min6",
              "min",
              "aug",
              "Maj6(9)",
              "Maj7(9)",
              "Maj(9)",
              "Maj7#11",
              "Maj7",
              "Maj6",
              "Maj"
            ],
            "autoStart": true,
            "sourceChordNote": 0,
            "sourceChordType": "Maj",
            "ctb2Low": null,
            "ctb2Main": {
              "ntr": "ROOT_FIXED",
              "ntt": "BYPASS",
              "bassOn": false,
              "chordRootUpperLimit": 0,
              "noteLowLimit": 0,
              "noteHighLimit": 127,
              "rtr": "RETRIGGER"
            },
            "ctb2High": null
          },
          "notes": []
        },
        "8": {
          "ctab": {
            "srcChannel": 8,
            "name": "Perc",
            "accType": "SUBRHYTHM",
            "editable": false,
            "mutedNotes": [],
            "mutedChords": [],
            "autoStart": true,
            "sourceChordNote": 0,
            "sourceChordType": "Maj7",
            "ctb2Low": null,
            "ctb2Main": {
              "ntr": "ROOT_FIXED",
              "ntt": "BYPASS",
              "bassOn": false,
              "chordRootUpperLimit": 6,
              "noteLowLimit": 0,
              "noteHighLimit": 127,
              "rtr": "PITCH_SHIFT"
            },
            "ctb2High": null
          },
          "notes": [
            {
              "pitch": 82,
              "velocity": 56,
              "position": 0,
              "duration": 0.00625
            },
            {
              "pitch": 82,
              "velocity": 32,
              "position": 0.5,
              "duration": 0.00625
            },
            {
              "pitch": 82,
              "velocity": 88,
              "position": 1,
              "duration": 0.00625
            }
          ]
        },
        "9": {
          "ctab": {
            "srcChannel": 9,
            "name": "Drums",
            "accType": "RHYTHM",
            "editable": false,
            "mutedNotes": [],
            "mutedChords": [],
            "autoStart": true,
            "sourceChordNote": 0,
            "sourceChordType": "Maj7",
            "ctb2Low": null,
            "ctb2Main": {
              "ntr": "ROOT_FIXED",
              "ntt": "BYPASS",
              "bassOn": false,
              "chordRootUpperLimit": 6,
              "noteLowLimit": 0,
              "noteHighLimit": 127,
              "rtr": "PITCH_SHIFT"
            },
            "ctb2High": null
          },
          "notes": [
            {
              "pitch": 33,
              "velocity": 72,
              "position": 0,
              "duration": 0.00625
            },
            {
              "pitch": 44,
              "velocity": 32,
              "position": 0,
              "duration": 0.00625
            },
            {
              "pitch": 59,
              "velocity": 41,
              "position": 0,
              "duration": 0.00625
            },
            {
              "pitch": 59,
              "velocity": 90,
              "position": 0.5,
              "duration": 0.00625
            },
            {
              "pitch": 33,
              "velocity": 72,
              "position": 1,
              "duration": 0.00625
            },
            {
              "pitch": 44,
              "velocity": 62,
              "position": 1,
              "duration": 0.00625
            },
            {
              "pitch": 59,
              "velocity": 41,
              "position": 1,
              "duration": 0.00625
            },
            {
              "pitch": 38,
              "velocity": 72,
              "position": 1.5,
              "duration": 0.00625
            },
            {
              "pitch": 38,
              "velocity": 36,
              "position": 1.6666666666666667,
              "duration": 0.00625
            },
            {
              "pitch": 38,
              "velocity": 24,
              "position": 1.8333333333333333,
              "duration": 0.00625
            },
            {
              "pitch": 44,
              "velocity": 32,
              "position": 2,
              "duration": 0.00625
            },
            {
              "pitch": 45,
              "velocity": 30,
              "position": 2.5,
              "duration": 0.00625
            },
            {
              "pitch": 44,
              "velocity": 62,
              "position": 3,
              "duration": 0.00625
            },
            {
              "pitch": 45,
              "velocity": 72,
              "position": 3,
              "duration": 0.00625
            },
            {
              "pitch": 33,
              "velocity": 36,
              "position": 3.5,
              "duration": 0.00625
            },
            {
              "pitch": 46,
              "velocity": 68,
              "position": 3.5,
              "duration": 0.00625
            },
            {
              "pitch": 49,
              "velocity": 60,
              "position": 3.9895833333333335,
              "duration": 0.00625
            }
          ]
        },
        "10": {
          "ctab": {
            "srcChannel": 10,
            "name": "Bass",
            "accType": "BASS",
            "editable": false,
            "mutedNotes": [],
            "mutedChords": [],
            "autoStart": false,
            "sourceChordNote": 0,
            "sourceChordType": "Maj7",
            "ctb2Low": null,
            "ctb2Main": {
              "ntr": "ROOT_TRANSPOSITION",
              "ntt": "MELODY",
              "bassOn": true,
              "chordRootUpperLimit": 8,
              "noteLowLimit": 28,
              "noteHighLimit": 127,
              "rtr": "PITCH_SHIFT_TO_ROOT"
            },
            "ctb2High": null
          },
          "notes": [
            {
              "pitch": 24,
              "velocity": 98,
              "position": 0,
              "duration": 0.9854166666666667
            },
            {
              "pitch": 24,
              "velocity": 98,
              "position": 1,
              "duration": 0.5270833333333333
            }
          ]
        },
        "11": {
          "ctab": {
            "srcChannel": 11,
            "name": "Gt A",
            "accType": "CHORD1",
            "editable": false,
            "mutedNotes": [],
            "mutedChords": [
              "1+2+5",
              "sus4",
              "1+5",
              "1+8",
              "7aug",
              "Maj7aug",
              "7(#9)",
              "7(b13)",
              "7(b9)",
              "7(13)",
              "7(9)",
              "7th",
              "dim7",
              "dim",
              "minMaj7(9)",
              "min7(11)",
              "min7(9)",
              "min(9)",
              "min7",
              "min6",
              "aug",
              "Maj6(9)",
              "Maj7(9)",
              "Maj(9)",
              "Maj6"
            ],
            "autoStart": false,
            "sourceChordNote": 0,
            "sourceChordType": "min7",
            "ctb2Low": null,
            "ctb2Main": {
              "ntr": "ROOT_TRANSPOSITION",
              "ntt": "CHORD",
              "bassOn": false,
              "chordRootUpperLimit": 7,
              "noteLowLimit": 54,
              "noteHighLimit": 65,
              "rtr": "PITCH_SHIFT"
            },
            "ctb2High": null
          },
          "notes": [
            {
              "pitch": 57,
              "velocity": 32,
              "position": 0,
              "duration": 0.475
            },
            {
              "pitch": 63,
              "velocity": 32,
              "position": 0.020833333333333332,
              "duration": 0.46458333333333335
            },
            {
              "pitch": 67,
              "velocity": 42,
              "position": 0.03125,
              "duration": 0.45416666666666666
            },
            {
              "pitch": 57,
              "velocity": 54,
              "position": 0.5,
              "duration": 0.48541666666666666
            },
            {
              "pitch": 63,
              "velocity": 60,
              "position": 0.5208333333333334,
              "duration": 0.46458333333333335
            },
            {
              "pitch": 67,
              "velocity": 60,
              "position": 0.53125,
              "duration": 0.45416666666666666
            },
            {
              "pitch": 57,
              "velocity": 71,
              "position": 1,
              "duration": 0.5375
            },
            {
              "pitch": 63,
              "velocity": 75,
              "position": 1.0208333333333333,
              "duration": 0.5270833333333333
            },
            {
              "pitch": 67,
              "velocity": 75,
              "position": 1.03125,
              "duration": 0.5375
            }
          ]
        },
        "12": {
          "ctab": {
            "srcChannel": 12,
            "name": "Pno A",
            "accType": "CHORD2",
            "editable": false,
            "mutedNotes": [],
            "mutedChords": [
              "1+2+5",
              "sus4",
              "1+5",
              "1+8",
              "7aug",
              "Maj7aug",
              "7(#9)",
              "7(b13)",
              "7(b9)",
              "7(13)",
              "7(9)",
              "7th",
              "dim7",
              "dim",
              "minMaj7(9)",
              "min7(11)",
              "min7(9)",
              "min(9)",
              "min7",
              "min6",
              "aug",
              "Maj6(9)",
              "Maj7(9)",
              "Maj(9)",
              "Maj6"
            ],
            "autoStart": false,
            "sourceChordNote": 0,
            "sourceChordType": "min7",
            "ctb2Low": null,
            "ctb2Main": {
              "ntr": "ROOT_TRANSPOSITION",
              "ntt": "CHORD",
              "bassOn": false,
              "chordRootUpperLimit": 2,
              "noteLowLimit": 54,
              "noteHighLimit": 79,
              "rtr": "PITCH_SHIFT"
            },
            "ctb2High": null
          },
          "notes": []
        },
        "13": {
          "ctab": {
            "srcChannel": 13,
            "name": "Str A",
            "accType": "PAD",
            "editable": false,
            "mutedNotes": [],
            "mutedChords": [
              "1+2+5",
              "sus4",
              "1+5",
              "1+8",
              "7aug",
              "Maj7aug",
              "7(#9)",
              "7(b13)",
              "7(b9)",
              "7(13)",
              "7(9)",
              "7th",
              "dim7",
              "dim",
              "minMaj7(9)",
              "min7(11)",
              "min7(9)",
              "min(9)",
              "min7",
              "min6",
              "aug",
              "Maj6(9)",
              "Maj7(9)",
              "Maj(9)",
              "Maj6"
            ],
            "autoStart": false,
            "sourceChordNote": 0,
            "sourceChordType": "min7",
            "ctb2Low": null,
            "ctb2Main": {
              "ntr": "ROOT_TRANSPOSITION",
              "ntt": "CHORD",
              "bassOn": false,
              "chordRootUpperLimit": 7,
              "noteLowLimit": 54,
              "noteHighLimit": 65,
              "rtr": "PITCH_SHIFT"
            },
            "ctb2High": null
          },
          "notes": [
            {
              "pitch": 58,
              "velocity": 85,
              "position": 0,
              "duration": 0.9854166666666667
            },
            {
              "pitch": 62,
              "velocity": 85,
              "position": 0,
              "duration": 0.9854166666666667
            },
            {
              "pitch": 63,
              "velocity": 85,
              "position": 0,
              "duration": 0.9854166666666667
            },
            {
              "pitch": 67,
              "velocity": 85,
              "position": 0,
              "duration": 0.9854166666666667
            }
          ]
        }
      }
    },
    "Intro_B": {
      "type": "Intro_B",
      "sizeInBeats": 16,
      "channels": {
        "1": {
          "ctab": {
            "srcChannel": 1,
            "name": "Bass",
            "accType": "BASS",
            "editable": false,
            "mutedNotes": [],
            "mutedChords": [
              "1+2+5",
              "sus4",
              "1+5",
              "1+8",
              "7aug",
              "Maj7aug",
              "7(#9)",
              "7(b13)",
              "7(b9)",
              "7(13)",
              "7#11",
              "7(9)",
              "7b5",
              "7sus4",
              "7th",
              "aug",
              "Maj6(9)",
              "Maj7(9)",
              "Maj(9)",
              "Maj7#11",
              "Maj7",
              "Maj6",
              "Maj"
            ],
            "autoStart": false,
            "sourceChordNote": 0,
            "sourceChordType": "min",
            "ctb2Low": null,
            "ctb2Main": {
              "ntr": "ROOT_TRANSPOSITION",
              "ntt": "BYPASS",
              "bassOn": false,
              "chordRootUpperLimit": 8,
              "noteLowLimit": 28,
              "noteHighLimit": 127,
              "rtr": "PITCH_SHIFT"
            },
            "ctb2High": null
          },
          "notes": [
            {
              "pitch": 24,
              "velocity": 98,
              "position": 0,
              "duration": 1.1104166666666666
            },
            {
              "pitch": 31,
              "velocity": 72,
              "position": 1.5,
              "duration": 0.11041666666666666
            },
            {
              "pitch": 31,
              "velocity": 98,
              "position": 2,
              "duration": 1.1104166666666666
            },
            {
              "pitch": 29,
              "velocity": 72,
              "position": 3.5,
              "duration": 0.11041666666666666
            },
            {
              "pitch": 29,
              "velocity": 98,
              "position": 4,
              "duration": 1.1104166666666666
            },
            {
              "pitch": 29,
              "velocity": 72,
              "position": 5.5,
              "duration": 0.11041666666666666
            },
            {
              "pitch": 29,
              "velocity": 98,
              "position": 6,
              "duration": 1.1104166666666666
            },
            {
              "pitch": 24,
              "velocity": 72,
              "position": 7.5,
              "duration": 0.11041666666666666
            },
            {
              "pitch": 24,
              "velocity": 98,
              "position": 8,
              "duration": 1.1104166666666666
            },
            {
              "pitch": 24,
              "velocity": 72,
              "position": 9.5,
              "duration": 0.11041666666666666
            },
            {
              "pitch": 29,
              "velocity": 98,
              "position": 10,
              "duration": 0.48541666666666666
            },
            {
              "pitch": 29,
              "velocity": 80,
              "position": 10.5,
              "duration": 0.36041666666666666
            },
            {
              "pitch": 29,
              "velocity": 98,
              "position": 11.5,
              "duration": 0.36041666666666666
            },
            {
              "pitch": 29,
              "velocity": 80,
              "position": 12.5,
              "duration": 0.36041666666666666
            },
            {
              "pitch": 31,
              "velocity": 98,
              "position": 13.5,
              "duration": 1.6104166666666666
            },
            {
              "pitch": 24,
              "velocity": 72,
              "position": 15.5,
              "duration": 0.11041666666666666
            }
          ]
        },
        "2": {
          "ctab": {
            "srcChannel": 2,
            "name": "Gt A",
            "accType": "CHORD1",
            "editable": false,
            "mutedNotes": [
              10,
              9,
              8,
              7,
              6,
              5
            ],
            "mutedChords": [
              "1+2+5",
              "sus4",
              "1+5",
              "1+8",
              "7aug",
              "Maj7aug",
              "7(#9)",
              "7(b13)",
              "7(b9)",
              "7(13)",
              "7#11",
              "7(9)",
              "7b5",
              "7sus4",
              "7th",
              "aug",
              "Maj6(9)",
              "Maj7(9)",
              "Maj(9)",
              "Maj7#11",
              "Maj7",
              "Maj6",
              "Maj"
            ],
            "autoStart": false,
            "sourceChordNote": 0,
            "sourceChordType": "min",
            "ctb2Low": null,
            "ctb2Main": {
              "ntr": "ROOT_TRANSPOSITION",
              "ntt": "BYPASS",
              "bassOn": false,
              "chordRootUpperLimit": 7,
              "noteLowLimit": 0,
              "noteHighLimit": 127,
              "rtr": "PITCH_SHIFT"
            },
            "ctb2High": null
          },
          "notes": [
            {
              "pitch": 58,
              "velocity": 69,
              "position": 0,
              "duration": 0.49583333333333335
            },
            {
              "pitch": 58,
              "velocity": 37,
              "position": 0.5,
              "duration": 0.975
            },
            {
              "pitch": 62,
              "velocity": 69,
              "position": 0,
              "duration": 1.475
            },
            {
              "pitch": 51,
              "velocity": 69,
              "position": 0,
              "duration": 1.4958333333333333
            },
            {
              "pitch": 62,
              "velocity": 61,
              "position": 1.5,
              "duration": 0.49583333333333335
            },
            {
              "pitch": 67,
              "velocity": 65,
              "position": 1,
              "duration": 1.475
            },
            {
              "pitch": 58,
              "velocity": 61,
              "position": 1.5,
              "duration": 1.4958333333333333
            },
            {
              "pitch": 58,
              "velocity": 37,
              "position": 3,
              "duration": 0.475
            },
            {
              "pitch": 62,
              "velocity": 38,
              "position": 2,
              "duration": 1.475
            },
            {
              "pitch": 51,
              "velocity": 61,
              "position": 1.5,
              "duration": 1.9958333333333333
            },
            {
              "pitch": 67,
              "velocity": 65,
              "position": 2.5,
              "duration": 1.975
            },
            {
              "pitch": 57,
              "velocity": 61,
              "position": 3.5,
              "duration": 1.4958333333333333
            },
            {
              "pitch": 57,
              "velocity": 37,
              "position": 5,
              "duration": 0.475
            },
            {
              "pitch": 62,
              "velocity": 61,
              "position": 3.5,
              "duration": 1.975
            },
            {
              "pitch": 51,
              "velocity": 61,
              "position": 3.5,
              "duration": 1.9958333333333333
            },
            {
              "pitch": 62,
              "velocity": 57,
              "position": 5.5,
              "duration": 0.49583333333333335
            },
            {
              "pitch": 57,
              "velocity": 57,
              "position": 5.5,
              "duration": 0.9958333333333333
            },
            {
              "pitch": 67,
              "velocity": 65,
              "position": 4.5,
              "duration": 2.475
            },
            {
              "pitch": 57,
              "velocity": 37,
              "position": 6.5,
              "duration": 1.475
            },
            {
              "pitch": 62,
              "velocity": 38,
              "position": 6,
              "duration": 1.975
            },
            {
              "pitch": 51,
              "velocity": 57,
              "position": 5.5,
              "duration": 2.495833333333333
            },
            {
              "pitch": 58,
              "velocity": 69,
              "position": 8,
              "duration": 0.49583333333333335
            },
            {
              "pitch": 67,
              "velocity": 49,
              "position": 7,
              "duration": 1.9854166666666666
            },
            {
              "pitch": 58,
              "velocity": 37,
              "position": 8.5,
              "duration": 0.975
            },
            {
              "pitch": 62,
              "velocity": 69,
              "position": 8,
              "duration": 1.475
            },
            {
              "pitch": 51,
              "velocity": 69,
              "position": 8,
              "duration": 1.4958333333333333
            },
            {
              "pitch": 62,
              "velocity": 61,
              "position": 9.5,
              "duration": 0.49583333333333335
            },
            {
              "pitch": 67,
              "velocity": 65,
              "position": 9,
              "duration": 1.475
            },
            {
              "pitch": 58,
              "velocity": 61,
              "position": 9.5,
              "duration": 1.4958333333333333
            },
            {
              "pitch": 58,
              "velocity": 37,
              "position": 11,
              "duration": 0.475
            },
            {
              "pitch": 62,
              "velocity": 45,
              "position": 10,
              "duration": 1.475
            },
            {
              "pitch": 67,
              "velocity": 65,
              "position": 10.5,
              "duration": 0.975
            },
            {
              "pitch": 51,
              "velocity": 61,
              "position": 9.5,
              "duration": 1.9958333333333333
            },
            {
              "pitch": 57,
              "velocity": 56,
              "position": 11.5,
              "duration": 0.26666666666666666
            },
            {
              "pitch": 60,
              "velocity": 51,
              "position": 11.510416666666666,
              "duration": 0.26666666666666666
            },
            {
              "pitch": 53,
              "velocity": 51,
              "position": 11.520833333333334,
              "duration": 0.26666666666666666
            },
            {
              "pitch": 67,
              "velocity": 53,
              "position": 11.53125,
              "duration": 0.27708333333333335
            },
            {
              "pitch": 57,
              "velocity": 40,
              "position": 12.5,
              "duration": 0.26666666666666666
            },
            {
              "pitch": 60,
              "velocity": 36,
              "position": 12.510416666666666,
              "duration": 0.26666666666666666
            },
            {
              "pitch": 53,
              "velocity": 34,
              "position": 12.520833333333334,
              "duration": 0.26666666666666666
            },
            {
              "pitch": 67,
              "velocity": 36,
              "position": 12.53125,
              "duration": 0.27708333333333335
            },
            {
              "pitch": 57,
              "velocity": 65,
              "position": 13.5,
              "duration": 2.225
            },
            {
              "pitch": 60,
              "velocity": 66,
              "position": 13.510416666666666,
              "duration": 2.225
            },
            {
              "pitch": 53,
              "velocity": 65,
              "position": 13.520833333333334,
              "duration": 2.225
            },
            {
              "pitch": 67,
              "velocity": 69,
              "position": 13.53125,
              "duration": 2.2354166666666666
            }
          ]
        },
        "3": {
          "ctab": {
            "srcChannel": 3,
            "name": "Pno",
            "accType": "CHORD2",
            "editable": false,
            "mutedNotes": [],
            "mutedChords": [
              "1+2+5",
              "sus4",
              "1+5",
              "1+8",
              "7aug",
              "Maj7aug",
              "7(#9)",
              "7(b13)",
              "7(b9)",
              "7(13)",
              "7#11",
              "7(9)",
              "7b5",
              "7sus4",
              "7th",
              "aug",
              "Maj6(9)",
              "Maj7(9)",
              "Maj(9)",
              "Maj7#11",
              "Maj7",
              "Maj6",
              "Maj"
            ],
            "autoStart": false,
            "sourceChordNote": 0,
            "sourceChordType": "min",
            "ctb2Low": null,
            "ctb2Main": {
              "ntr": "ROOT_TRANSPOSITION",
              "ntt": "BYPASS",
              "bassOn": false,
              "chordRootUpperLimit": 5,
              "noteLowLimit": 54,
              "noteHighLimit": 79,
              "rtr": "PITCH_SHIFT"
            },
            "ctb2High": null
          },
          "notes": [
            {
              "pitch": 43,
              "velocity": 64,
              "position": 0,
              "duration": 0.22916666666666666
            },
            {
              "pitch": 46,
              "velocity": 64,
              "position": 0,
              "duration": 0.22916666666666666
            },
            {
              "pitch": 50,
              "velocity": 64,
              "position": 0,
              "duration": 0.22916666666666666
            },
            {
              "pitch": 51,
              "velocity": 64,
              "position": 0,
              "duration": 0.22916666666666666
            },
            {
              "pitch": 79,
              "velocity": 67,
              "position": 1,
              "duration": 0.21875
            },
            {
              "pitch": 86,
              "velocity": 67,
              "position": 1,
              "duration": 0.21875
            },
            {
              "pitch": 91,
              "velocity": 67,
              "position": 1,
              "duration": 0.21875
            },
            {
              "pitch": 43,
              "velocity": 64,
              "position": 1.5,
              "duration": 0.22916666666666666
            },
            {
              "pitch": 46,
              "velocity": 64,
              "position": 1.5,
              "duration": 0.22916666666666666
            },
            {
              "pitch": 50,
              "velocity": 64,
              "position": 1.5,
              "duration": 0.22916666666666666
            },
            {
              "pitch": 51,
              "velocity": 64,
              "position": 1.5,
              "duration": 0.22916666666666666
            },
            {
              "pitch": 79,
              "velocity": 67,
              "position": 2.5,
              "duration": 0.21875
            },
            {
              "pitch": 86,
              "velocity": 67,
              "position": 2.5,
              "duration": 0.21875
            },
            {
              "pitch": 91,
              "velocity": 67,
              "position": 2.5,
              "duration": 0.21875
            },
            {
              "pitch": 43,
              "velocity": 64,
              "position": 3,
              "duration": 0.22916666666666666
            },
            {
              "pitch": 45,
              "velocity": 64,
              "position": 3,
              "duration": 0.22916666666666666
            },
            {
              "pitch": 50,
              "velocity": 64,
              "position": 3,
              "duration": 0.22916666666666666
            },
            {
              "pitch": 51,
              "velocity": 64,
              "position": 3,
              "duration": 0.22916666666666666
            },
            {
              "pitch": 79,
              "velocity": 67,
              "position": 4,
              "duration": 0.21875
            },
            {
              "pitch": 86,
              "velocity": 67,
              "position": 4,
              "duration": 0.21875
            },
            {
              "pitch": 91,
              "velocity": 67,
              "position": 4,
              "duration": 0.21875
            },
            {
              "pitch": 43,
              "velocity": 64,
              "position": 5,
              "duration": 0.22916666666666666
            },
            {
              "pitch": 45,
              "velocity": 64,
              "position": 5,
              "duration": 0.22916666666666666
            },
            {
              "pitch": 50,
              "velocity": 64,
              "position": 5,
              "duration": 0.22916666666666666
            },
            {
              "pitch": 51,
              "velocity": 64,
              "position": 5,
              "duration": 0.22916666666666666
            },
            {
              "pitch": 79,
              "velocity": 67,
              "position": 5.5,
              "duration": 0.21875
            },
            {
              "pitch": 86,
              "velocity": 67,
              "position": 5.5,
              "duration": 0.21875
            },
            {
              "pitch": 91,
              "velocity": 67,
              "position": 5.5,
              "duration": 0.21875
            },
            {
              "pitch": 43,
              "velocity": 64,
              "position": 6.5,
              "duration": 0.22916666666666666
            },
            {
              "pitch": 45,
              "velocity": 64,
              "position": 6.5,
              "duration": 0.22916666666666666
            },
            {
              "pitch": 50,
              "velocity": 64,
              "position": 6.5,
              "duration": 0.22916666666666666
            },
            {
              "pitch": 51,
              "velocity": 64,
              "position": 6.5,
              "duration": 0.22916666666666666
            },
            {
              "pitch": 79,
              "velocity": 67,
              "position": 7,
              "duration": 0.21875
            },
            {
              "pitch": 86,
              "velocity": 67,
              "position": 7,
              "duration": 0.21875
            },
            {
              "pitch": 91,
              "velocity": 67,
              "position": 7,
              "duration": 0.21875
            },
            {
              "pitch": 43,
              "velocity": 64,
              "position": 8,
              "duration": 0.22916666666666666
            },
            {
              "pitch": 46,
              "velocity": 64,
              "position": 8,
              "duration": 0.22916666666666666
            },
            {
              "pitch": 50,
              "velocity": 64,
              "position": 8,
              "duration": 0.22916666666666666
            },
            {
              "pitch": 51,
              "velocity": 64,
              "position": 8,
              "duration": 0.22916666666666666
            },
            {
              "pitch": 79,
              "velocity": 67,
              "position": 9,
              "duration": 0.21875
            },
            {
              "pitch": 86,
              "velocity": 67,
              "position": 9,
              "duration": 0.21875
            },
            {
              "pitch": 91,
              "velocity": 67,
              "position": 9,
              "duration": 0.21875
            },
            {
              "pitch": 43,
              "velocity": 64,
              "position": 9.5,
              "duration": 0.22916666666666666
            },
            {
              "pitch": 46,
              "velocity": 64,
              "position": 9.5,
              "duration": 0.22916666666666666
            },
            {
              "pitch": 50,
              "velocity": 64,
              "position": 9.5,
              "duration": 0.22916666666666666
            },
            {
              "pitch": 51,
              "velocity": 64,
              "position": 9.5,
              "duration": 0.22916666666666666
            },
            {
              "pitch": 79,
              "velocity": 67,
              "position": 10.5,
              "duration": 0.21875
            },
            {
              "pitch": 86,
              "velocity": 67,
              "position": 10.5,
              "duration": 0.21875
            },
            {
              "pitch": 91,
              "velocity": 67,
              "position": 10.5,
              "duration": 0.21875
            },
            {
              "pitch": 45,
              "velocity": 64,
              "position": 11,
              "duration": 0.22916666666666666
            },
            {
              "pitch": 50,
              "velocity": 64,
              "position": 11,
              "duration": 0.22916666666666666
            },
            {
              "pitch": 53,
              "velocity": 64,
              "position": 11,
              "duration": 0.22916666666666666
            },
            {
              "pitch": 45,
              "velocity": 40,
              "position": 12.5,
              "duration": 0.22916666666666666
            },
            {
              "pitch": 50,
              "velocity": 40,
              "position": 12.5,
              "duration": 0.22916666666666666
            },
            {
              "pitch": 53,
              "velocity": 40,
              "position": 12.5,
              "duration": 0.22916666666666666
            },
            {
              "pitch": 45,
              "velocity": 64,
              "position": 13.5,
              "duration": 2.4791666666666665
            },
            {
              "pitch": 50,
              "velocity": 64,
              "position": 13.5,
              "duration": 2.4791666666666665
            },
            {
              "pitch": 53,
              "velocity": 64,
              "position": 13.5,
              "duration": 2.4791666666666665
            },
            {
              "pitch": 67,
              "velocity": 55,
              "position": 13.5,
              "duration": 2.4791666666666665
            }
          ]
        },
        "4": {
          "ctab": {
            "srcChannel": 4,
            "name": "Str",
            "accType": "PAD",
            "editable": false,
            "mutedNotes": [],
            "mutedChords": [
              "1+2+5",
              "sus4",
              "1+5",
              "1+8",
              "7aug",
              "Maj7aug",
              "7(#9)",
              "7(b13)",
              "7(b9)",
              "7(13)",
              "7#11",
              "7(9)",
              "7b5",
              "7sus4",
              "7th",
              "aug",
              "Maj6(9)",
              "Maj7(9)",
              "Maj(9)",
              "Maj7#11",
              "Maj7",
              "Maj6",
              "Maj"
            ],
            "autoStart": false,
            "sourceChordNote": 0,
            "sourceChordType": "min",
            "ctb2Low": null,
            "ctb2Main": {
              "ntr": "ROOT_TRANSPOSITION",
              "ntt": "BYPASS",
              "bassOn": false,
              "chordRootUpperLimit": 8,
              "noteLowLimit": 54,
              "noteHighLimit": 127,
              "rtr": "PITCH_SHIFT"
            },
            "ctb2High": null
          },
          "notes": [
            {
              "pitch": 46,
              "velocity": 94,
              "position": 0.010416666666666666,
              "duration": 3.975
            },
            {
              "pitch": 45,
              "velocity": 94,
              "position": 4,
              "duration": 3.9854166666666666
            },
            {
              "pitch": 46,
              "velocity": 94,
              "position": 8,
              "duration": 3.9854166666666666
            },
            {
              "pitch": 50,
              "velocity": 94,
              "position": 0.010416666666666666,
              "duration": 11.975
            },
            {
              "pitch": 51,
              "velocity": 94,
              "position": 0.010416666666666666,
              "duration": 11.975
            },
            {
              "pitch": 43,
              "velocity": 94,
              "position": 0.010416666666666666,
              "duration": 15.975
            },
            {
              "pitch": 45,
              "velocity": 94,
              "position": 12,
              "duration": 3.9854166666666666
            },
            {
              "pitch": 48,
              "velocity": 94,
              "position": 12,
              "duration": 3.9854166666666666
            },
            {
              "pitch": 53,
              "velocity": 94,
              "position": 12,
              "duration": 3.9854166666666666
            },
            {
              "pitch": 79,
              "velocity": 74,
              "position": 0.010416666666666666,
              "duration": 15.975
            }
          ]
        },
        "5": {
          "ctab": {
            "srcChannel": 5,
            "name": "Gt B",
            "accType": "CHORD1",
            "editable": false,
            "mutedNotes": [
              11,
              4,
              3,
              2,
              1,
              0
            ],
            "mutedChords": [
              "1+2+5",
              "sus4",
              "1+5",
              "1+8",
              "7aug",
              "Maj7aug",
              "7(#9)",
              "7(b13)",
              "7(b9)",
              "7(13)",
              "7#11",
              "7(9)",
              "7b5",
              "7sus4",
              "7th",
              "aug",
              "Maj6(9)",
              "Maj7(9)",
              "Maj(9)",
              "Maj7#11",
              "Maj7",
              "Maj6",
              "Maj"
            ],
            "autoStart": false,
            "sourceChordNote": 0,
            "sourceChordType": "min",
            "ctb2Low": null,
            "ctb2Main": {
              "ntr": "ROOT_TRANSPOSITION",
              "ntt": "BYPASS",
              "bassOn": false,
              "chordRootUpperLimit": 0,
              "noteLowLimit": 0,
              "noteHighLimit": 127,
              "rtr": "PITCH_SHIFT"
            },
            "ctb2High": null
          },
          "notes": [
            {
              "pitch": 55,
              "velocity": 69,
              "position": 0,
              "duration": 0.49583333333333335
            },
            {
              "pitch": 55,
              "velocity": 37,
              "position": 0.5,
              "duration": 0.975
            },
            {
              "pitch": 70,
              "velocity": 69,
              "position": 0,
              "duration": 1.475
            },
            {
              "pitch": 63,
              "velocity": 69,
              "position": 0,
              "duration": 1.4958333333333333
            },
            {
              "pitch": 70,
              "velocity": 61,
              "position": 1.5,
              "duration": 0.49583333333333335
            },
            {
              "pitch": 74,
              "velocity": 65,
              "position": 1,
              "duration": 1.475
            },
            {
              "pitch": 55,
              "velocity": 61,
              "position": 1.5,
              "duration": 1.4958333333333333
            },
            {
              "pitch": 55,
              "velocity": 37,
              "position": 3,
              "duration": 0.475
            },
            {
              "pitch": 70,
              "velocity": 38,
              "position": 2,
              "duration": 1.475
            },
            {
              "pitch": 63,
              "velocity": 61,
              "position": 1.5,
              "duration": 1.9958333333333333
            },
            {
              "pitch": 74,
              "velocity": 65,
              "position": 2.5,
              "duration": 1.975
            },
            {
              "pitch": 55,
              "velocity": 61,
              "position": 3.5,
              "duration": 1.4958333333333333
            },
            {
              "pitch": 55,
              "velocity": 37,
              "position": 5,
              "duration": 0.475
            },
            {
              "pitch": 69,
              "velocity": 61,
              "position": 3.5,
              "duration": 1.975
            },
            {
              "pitch": 63,
              "velocity": 61,
              "position": 3.5,
              "duration": 1.9958333333333333
            },
            {
              "pitch": 69,
              "velocity": 57,
              "position": 5.5,
              "duration": 0.49583333333333335
            },
            {
              "pitch": 55,
              "velocity": 57,
              "position": 5.5,
              "duration": 0.9958333333333333
            },
            {
              "pitch": 74,
              "velocity": 65,
              "position": 4.5,
              "duration": 2.475
            },
            {
              "pitch": 55,
              "velocity": 37,
              "position": 6.5,
              "duration": 1.475
            },
            {
              "pitch": 69,
              "velocity": 38,
              "position": 6,
              "duration": 1.975
            },
            {
              "pitch": 63,
              "velocity": 57,
              "position": 5.5,
              "duration": 2.495833333333333
            },
            {
              "pitch": 55,
              "velocity": 69,
              "position": 8,
              "duration": 0.49583333333333335
            },
            {
              "pitch": 74,
              "velocity": 49,
              "position": 7,
              "duration": 1.9854166666666666
            },
            {
              "pitch": 55,
              "velocity": 37,
              "position": 8.5,
              "duration": 0.975
            },
            {
              "pitch": 70,
              "velocity": 69,
              "position": 8,
              "duration": 1.475
            },
            {
              "pitch": 63,
              "velocity": 69,
              "position": 8,
              "duration": 1.4958333333333333
            },
            {
              "pitch": 70,
              "velocity": 61,
              "position": 9.5,
              "duration": 0.49583333333333335
            },
            {
              "pitch": 74,
              "velocity": 65,
              "position": 9,
              "duration": 1.475
            },
            {
              "pitch": 55,
              "velocity": 61,
              "position": 9.5,
              "duration": 1.4958333333333333
            },
            {
              "pitch": 55,
              "velocity": 37,
              "position": 11,
              "duration": 0.475
            },
            {
              "pitch": 70,
              "velocity": 45,
              "position": 10,
              "duration": 1.475
            },
            {
              "pitch": 74,
              "velocity": 65,
              "position": 10.5,
              "duration": 0.975
            },
            {
              "pitch": 63,
              "velocity": 61,
              "position": 9.5,
              "duration": 1.9958333333333333
            },
            {
              "pitch": 69,
              "velocity": 49,
              "position": 11.5,
              "duration": 0.26666666666666666
            },
            {
              "pitch": 72,
              "velocity": 44,
              "position": 11.510416666666666,
              "duration": 0.26666666666666666
            },
            {
              "pitch": 65,
              "velocity": 44,
              "position": 11.520833333333334,
              "duration": 0.26666666666666666
            },
            {
              "pitch": 55,
              "velocity": 46,
              "position": 11.53125,
              "duration": 0.27708333333333335
            },
            {
              "pitch": 69,
              "velocity": 35,
              "position": 12.5,
              "duration": 0.26666666666666666
            },
            {
              "pitch": 72,
              "velocity": 31,
              "position": 12.510416666666666,
              "duration": 0.26666666666666666
            },
            {
              "pitch": 65,
              "velocity": 30,
              "position": 12.520833333333334,
              "duration": 0.26666666666666666
            },
            {
              "pitch": 55,
              "velocity": 31,
              "position": 12.53125,
              "duration": 0.27708333333333335
            },
            {
              "pitch": 69,
              "velocity": 57,
              "position": 13.5,
              "duration": 2.225
            },
            {
              "pitch": 72,
              "velocity": 58,
              "position": 13.510416666666666,
              "duration": 2.225
            },
            {
              "pitch": 65,
              "velocity": 56,
              "position": 13.520833333333334,
              "duration": 2.225
            },
            {
              "pitch": 55,
              "velocity": 59,
              "position": 13.53125,
              "duration": 2.2354166666666666
            }
          ]
        },
        "8": {
          "ctab": {
            "srcChannel": 8,
            "name": "Perc",
            "accType": "SUBRHYTHM",
            "editable": false,
            "mutedNotes": [],
            "mutedChords": [],
            "autoStart": true,
            "sourceChordNote": 0,
            "sourceChordType": "Maj7",
            "ctb2Low": null,
            "ctb2Main": {
              "ntr": "ROOT_FIXED",
              "ntt": "BYPASS",
              "bassOn": false,
              "chordRootUpperLimit": 6,
              "noteLowLimit": 0,
              "noteHighLimit": 127,
              "rtr": "PITCH_SHIFT"
            },
            "ctb2High": null
          },
          "notes": []
        },
        "9": {
          "ctab": {
            "srcChannel": 9,
            "name": "Drums",
            "accType": "RHYTHM",
            "editable": false,
            "mutedNotes": [],
            "mutedChords": [],
            "autoStart": true,
            "sourceChordNote": 0,
            "sourceChordType": "Maj7",
            "ctb2Low": null,
            "ctb2Main": {
              "ntr": "ROOT_FIXED",
              "ntt": "BYPASS",
              "bassOn": false,
              "chordRootUpperLimit": 6,
              "noteLowLimit": 0,
              "noteHighLimit": 127,
              "rtr": "PITCH_SHIFT"
            },
            "ctb2High": null
          },
          "notes": [
            {
              "pitch": 33,
              "velocity": 72,
              "position": 0,
              "duration": 0.00625
            },
            {
              "pitch": 37,
              "velocity": 90,
              "position": 0,
              "duration": 0.00625
            },
            {
              "pitch": 42,
              "velocity": 90,
              "position": 0,
              "duration": 0.00625
            },
            {
              "pitch": 42,
              "velocity": 30,
              "position": 0.5,
              "duration": 0.00625
            },
            {
              "pitch": 42,
              "velocity": 90,
              "position": 1,
              "duration": 0.00625
            },
            {
              "pitch": 33,
              "velocity": 36,
              "position": 1.5,
              "duration": 0.00625
            },
            {
              "pitch": 37,
              "velocity": 90,
              "position": 1.5,
              "duration": 0.00625
            },
            {
              "pitch": 42,
              "velocity": 30,
              "position": 1.5,
              "duration": 0.00625
            },
            {
              "pitch": 33,
              "velocity": 72,
              "position": 2,
              "duration": 0.00625
            },
            {
              "pitch": 42,
              "velocity": 30,
              "position": 2,
              "duration": 0.00625
            },
            {
              "pitch": 42,
              "velocity": 90,
              "position": 2.5,
              "duration": 0.00625
            },
            {
              "pitch": 37,
              "velocity": 90,
              "position": 3,
              "duration": 0.00625
            },
            {
              "pitch": 42,
              "velocity": 30,
              "position": 3,
              "duration": 0.00625
            },
            {
              "pitch": 33,
              "velocity": 36,
              "position": 3.5,
              "duration": 0.00625
            },
            {
              "pitch": 42,
              "velocity": 90,
              "position": 3.5,
              "duration": 0.00625
            },
            {
              "pitch": 33,
              "velocity": 72,
              "position": 4,
              "duration": 0.00625
            },
            {
              "pitch": 42,
              "velocity": 30,
              "position": 4,
              "duration": 0.00625
            },
            {
              "pitch": 42,
              "velocity": 90,
              "position": 4.5,
              "duration": 0.00625
            },
            {
              "pitch": 37,
              "velocity": 90,
              "position": 5,
              "duration": 0.00625
            },
            {
              "pitch": 42,
              "velocity": 30,
              "position": 5,
              "duration": 0.00625
            },
            {
              "pitch": 33,
              "velocity": 36,
              "position": 5.5,
              "duration": 0.00625
            },
            {
              "pitch": 42,
              "velocity": 30,
              "position": 5.5,
              "duration": 0.00625
            },
            {
              "pitch": 33,
              "velocity": 72,
              "position": 6,
              "duration": 0.00625
            },
            {
              "pitch": 42,
              "velocity": 90,
              "position": 6,
              "duration": 0.00625
            },
            {
              "pitch": 37,
              "velocity": 90,
              "position": 6.5,
              "duration": 0.00625
            },
            {
              "pitch": 42,
              "velocity": 30,
              "position": 6.5,
              "duration": 0.00625
            },
            {
              "pitch": 42,
              "velocity": 90,
              "position": 7,
              "duration": 0.00625
            },
            {
              "pitch": 33,
              "velocity": 36,
              "position": 7.5,
              "duration": 0.00625
            },
            {
              "pitch": 42,
              "velocity": 30,
              "position": 7.5,
              "duration": 0.00625
            },
            {
              "pitch": 33,
              "velocity": 72,
              "position": 8,
              "duration": 0.00625
            },
            {
              "pitch": 37,
              "velocity": 90,
              "position": 8,
              "duration": 0.00625
            },
            {
              "pitch": 42,
              "velocity": 90,
              "position": 8,
              "duration": 0.00625
            },
            {
              "pitch": 42,
              "velocity": 30,
              "position": 8.5,
              "duration": 0.00625
            },
            {
              "pitch": 42,
              "velocity": 90,
              "position": 9,
              "duration": 0.00625
            },
            {
              "pitch": 33,
              "velocity": 36,
              "position": 9.5,
              "duration": 0.00625
            },
            {
              "pitch": 37,
              "velocity": 90,
              "position": 9.5,
              "duration": 0.00625
            },
            {
              "pitch": 42,
              "velocity": 30,
              "position": 9.5,
              "duration": 0.00625
            },
            {
              "pitch": 33,
              "velocity": 72,
              "position": 10,
              "duration": 0.00625
            },
            {
              "pitch": 42,
              "velocity": 30,
              "position": 10,
              "duration": 0.00625
            },
            {
              "pitch": 42,
              "velocity": 90,
              "position": 10.5,
              "duration": 0.00625
            },
            {
              "pitch": 37,
              "velocity": 90,
              "position": 11,
              "duration": 0.00625
            },
            {
              "pitch": 42,
              "velocity": 30,
              "position": 11,
              "duration": 0.00625
            },
            {
              "pitch": 33,
              "velocity": 36,
              "position": 11.5,
              "duration": 0.00625
            },
            {
              "pitch": 42,
              "velocity": 90,
              "position": 11.5,
              "duration": 0.00625
            },
            {
              "pitch": 33,
              "velocity": 72,
              "position": 12,
              "duration": 0.00625
            },
            {
              "pitch": 46,
              "velocity": 48,
              "position": 12,
              "duration": 0.00625
            },
            {
              "pitch": 37,
              "velocity": 30,
              "position": 12.5,
              "duration": 0.00625
            },
            {
              "pitch": 42,
              "velocity": 20,
              "position": 12.5,
              "duration": 0.00625
            },
            {
              "pitch": 37,
              "velocity": 90,
              "position": 13,
              "duration": 0.00625
            },
            {
              "pitch": 42,
              "velocity": 30,
              "position": 13,
              "duration": 0.00625
            },
            {
              "pitch": 33,
              "velocity": 72,
              "position": 13.5,
              "duration": 0.00625
            },
            {
              "pitch": 51,
              "velocity": 90,
              "position": 13.5,
              "duration": 0.00625
            },
            {
              "pitch": 38,
              "velocity": 48,
              "position": 14.5,
              "duration": 0.00625
            },
            {
              "pitch": 38,
              "velocity": 72,
              "position": 15,
              "duration": 0.00625
            },
            {
              "pitch": 33,
              "velocity": 36,
              "position": 15.5,
              "duration": 0.00625
            },
            {
              "pitch": 45,
              "velocity": 29,
              "position": 15.5,
              "duration": 0.00625
            },
            {
              "pitch": 49,
              "velocity": 60,
              "position": 15.989583333333334,
              "duration": 0.00625
            }
          ]
        },
        "10": {
          "ctab": {
            "srcChannel": 10,
            "name": "Bass",
            "accType": "BASS",
            "editable": false,
            "mutedNotes": [],
            "mutedChords": [
              "dim7",
              "dim",
              "minMaj7(9)",
              "minMaj7",
              "min7(11)",
              "min7(9)",
              "min(9)",
              "m7b5",
              "min7",
              "min6",
              "min"
            ],
            "autoStart": false,
            "sourceChordNote": 0,
            "sourceChordType": "Maj",
            "ctb2Low": null,
            "ctb2Main": {
              "ntr": "ROOT_TRANSPOSITION",
              "ntt": "BYPASS",
              "bassOn": false,
              "chordRootUpperLimit": 8,
              "noteLowLimit": 28,
              "noteHighLimit": 127,
              "rtr": "PITCH_SHIFT"
            },
            "ctb2High": null
          },
          "notes": [
            {
              "pitch": 24,
              "velocity": 98,
              "position": 0,
              "duration": 1.1104166666666666
            },
            {
              "pitch": 31,
              "velocity": 72,
              "position": 1.5,
              "duration": 0.11041666666666666
            },
            {
              "pitch": 31,
              "velocity": 98,
              "position": 2,
              "duration": 1.1104166666666666
            },
            {
              "pitch": 29,
              "velocity": 72,
              "position": 3.5,
              "duration": 0.11041666666666666
            },
            {
              "pitch": 29,
              "velocity": 98,
              "position": 4,
              "duration": 1.1104166666666666
            },
            {
              "pitch": 36,
              "velocity": 72,
              "position": 5.5,
              "duration": 0.11041666666666666
            },
            {
              "pitch": 36,
              "velocity": 98,
              "position": 6,
              "duration": 1.1104166666666666
            },
            {
              "pitch": 24,
              "velocity": 72,
              "position": 7.5,
              "duration": 0.11041666666666666
            },
            {
              "pitch": 24,
              "velocity": 98,
              "position": 8,
              "duration": 1.1104166666666666
            },
            {
              "pitch": 28,
              "velocity": 72,
              "position": 9.5,
              "duration": 0.11041666666666666
            },
            {
              "pitch": 28,
              "velocity": 98,
              "position": 10,
              "duration": 0.48541666666666666
            },
            {
              "pitch": 29,
              "velocity": 80,
              "position": 10.5,
              "duration": 0.36041666666666666
            },
            {
              "pitch": 31,
              "velocity": 98,
              "position": 11.5,
              "duration": 0.36041666666666666
            },
            {
              "pitch": 31,
              "velocity": 80,
              "position": 12.5,
              "duration": 0.36041666666666666
            },
            {
              "pitch": 31,
              "velocity": 98,
              "position": 13.5,
              "duration": 1.6104166666666666
            },
            {
              "pitch": 24,
              "velocity": 72,
              "position": 15.5,
              "duration": 0.11041666666666666
            }
          ]
        },
        "11": {
          "ctab": {
            "srcChannel": 11,
            "name": "Gt A",
            "accType": "CHORD1",
            "editable": false,
            "mutedNotes": [
              10,
              9,
              8,
              7,
              6,
              5
            ],
            "mutedChords": [
              "dim7",
              "dim",
              "minMaj7(9)",
              "minMaj7",
              "min7(11)",
              "min7(9)",
              "min(9)",
              "m7b5",
              "min7",
              "min6",
              "min"
            ],
            "autoStart": false,
            "sourceChordNote": 0,
            "sourceChordType": "Maj",
            "ctb2Low": null,
            "ctb2Main": {
              "ntr": "ROOT_TRANSPOSITION",
              "ntt": "BYPASS",
              "bassOn": false,
              "chordRootUpperLimit": 7,
              "noteLowLimit": 0,
              "noteHighLimit": 127,
              "rtr": "PITCH_SHIFT"
            },
            "ctb2High": null
          },
          "notes": [
            {
              "pitch": 59,
              "velocity": 69,
              "position": 0,
              "duration": 0.49583333333333335
            },
            {
              "pitch": 59,
              "velocity": 37,
              "position": 0.5,
              "duration": 0.975
            },
            {
              "pitch": 62,
              "velocity": 69,
              "position": 0,
              "duration": 1.475
            },
            {
              "pitch": 52,
              "velocity": 69,
              "position": 0,
              "duration": 1.4958333333333333
            },
            {
              "pitch": 62,
              "velocity": 61,
              "position": 1.5,
              "duration": 0.49583333333333335
            },
            {
              "pitch": 67,
              "velocity": 65,
              "position": 1,
              "duration": 1.475
            },
            {
              "pitch": 57,
              "velocity": 61,
              "position": 1.5,
              "duration": 1.4958333333333333
            },
            {
              "pitch": 57,
              "velocity": 37,
              "position": 3,
              "duration": 0.475
            },
            {
              "pitch": 62,
              "velocity": 38,
              "position": 2,
              "duration": 1.475
            },
            {
              "pitch": 52,
              "velocity": 61,
              "position": 1.5,
              "duration": 1.9958333333333333
            },
            {
              "pitch": 67,
              "velocity": 65,
              "position": 2.5,
              "duration": 1.975
            },
            {
              "pitch": 57,
              "velocity": 61,
              "position": 3.5,
              "duration": 1.4958333333333333
            },
            {
              "pitch": 57,
              "velocity": 37,
              "position": 5,
              "duration": 0.475
            },
            {
              "pitch": 62,
              "velocity": 61,
              "position": 3.5,
              "duration": 1.975
            },
            {
              "pitch": 51,
              "velocity": 61,
              "position": 3.5,
              "duration": 1.9958333333333333
            },
            {
              "pitch": 62,
              "velocity": 57,
              "position": 5.5,
              "duration": 0.49583333333333335
            },
            {
              "pitch": 57,
              "velocity": 57,
              "position": 5.5,
              "duration": 0.9958333333333333
            },
            {
              "pitch": 67,
              "velocity": 65,
              "position": 4.5,
              "duration": 2.475
            },
            {
              "pitch": 57,
              "velocity": 37,
              "position": 6.5,
              "duration": 1.475
            },
            {
              "pitch": 62,
              "velocity": 38,
              "position": 6,
              "duration": 1.975
            },
            {
              "pitch": 51,
              "velocity": 57,
              "position": 5.5,
              "duration": 2.495833333333333
            },
            {
              "pitch": 59,
              "velocity": 69,
              "position": 8,
              "duration": 0.49583333333333335
            },
            {
              "pitch": 67,
              "velocity": 49,
              "position": 7,
              "duration": 1.9854166666666666
            },
            {
              "pitch": 59,
              "velocity": 37,
              "position": 8.5,
              "duration": 0.975
            },
            {
              "pitch": 62,
              "velocity": 69,
              "position": 8,
              "duration": 1.475
            },
            {
              "pitch": 52,
              "velocity": 69,
              "position": 8,
              "duration": 1.4958333333333333
            },
            {
              "pitch": 62,
              "velocity": 61,
              "position": 9.5,
              "duration": 0.49583333333333335
            },
            {
              "pitch": 67,
              "velocity": 65,
              "position": 9,
              "duration": 1.475
            },
            {
              "pitch": 57,
              "velocity": 61,
              "position": 9.5,
              "duration": 1.4958333333333333
            },
            {
              "pitch": 57,
              "velocity": 37,
              "position": 11,
              "duration": 0.475
            },
            {
              "pitch": 62,
              "velocity": 45,
              "position": 10,
              "duration": 1.475
            },
            {
              "pitch": 67,
              "velocity": 65,
              "position": 10.5,
              "duration": 0.975
            },
            {
              "pitch": 52,
              "velocity": 61,
              "position": 9.5,
              "duration": 1.9958333333333333
            },
            {
              "pitch": 57,
              "velocity": 56,
              "position": 11.5,
              "duration": 0.26666666666666666
            },
            {
              "pitch": 60,
              "velocity": 51,
              "position": 11.510416666666666,
              "duration": 0.26666666666666666
            },
            {
              "pitch": 53,
              "velocity": 51,
              "position": 11.520833333333334,
              "duration": 0.26666666666666666
            },
            {
              "pitch": 67,
              "velocity": 53,
              "position": 11.53125,
              "duration": 0.27708333333333335
            },
            {
              "pitch": 57,
              "velocity": 40,
              "position": 12.5,
              "duration": 0.26666666666666666
            },
            {
              "pitch": 60,
              "velocity": 36,
              "position": 12.510416666666666,
              "duration": 0.26666666666666666
            },
            {
              "pitch": 53,
              "velocity": 34,
              "position": 12.520833333333334,
              "duration": 0.26666666666666666
            },
            {
              "pitch": 67,
              "velocity": 36,
              "position": 12.53125,
              "duration": 0.27708333333333335
            },
            {
              "pitch": 57,
              "velocity": 65,
              "position": 13.5,
              "duration": 2.225
            },
            {
              "pitch": 60,
              "velocity": 66,
              "position": 13.510416666666666,
              "duration": 2.225
            },
            {
              "pitch": 53,
              "velocity": 65,
              "position": 13.520833333333334,
              "duration": 2.225
            },
            {
              "pitch": 67,
              "velocity": 69,
              "position": 13.53125,
              "duration": 2.2354166666666666
            }
          ]
        },
        "12": {
          "ctab": {
            "srcChannel": 12,
            "name": "Pno",
            "accType": "CHORD2",
            "editable": false,
            "mutedNotes": [],
            "mutedChords": [
              "dim7",
              "dim",
              "minMaj7(9)",
              "minMaj7",
              "min7(11)",
              "min7(9)",
              "min(9)",
              "m7b5",
              "min7",
              "min6",
              "min"
            ],
            "autoStart": false,
            "sourceChordNote": 0,
            "sourceChordType": "Maj",
            "ctb2Low": null,
            "ctb2Main": {
              "ntr": "ROOT_TRANSPOSITION",
              "ntt": "BYPASS",
              "bassOn": false,
              "chordRootUpperLimit": 5,
              "noteLowLimit": 54,
              "noteHighLimit": 79,
              "rtr": "PITCH_SHIFT"
            },
            "ctb2High": null
          },
          "notes": [
            {
              "pitch": 43,
              "velocity": 69,
              "position": 0,
              "duration": 0.22916666666666666
            },
            {
              "pitch": 47,
              "velocity": 69,
              "position": 0,
              "duration": 0.22916666666666666
            },
            {
              "pitch": 50,
              "velocity": 69,
              "position": 0,
              "duration": 0.22916666666666666
            },
            {
              "pitch": 52,
              "velocity": 69,
              "position": 0,
              "duration": 0.22916666666666666
            },
            {
              "pitch": 79,
              "velocity": 67,
              "position": 1,
              "duration": 0.21875
            },
            {
              "pitch": 86,
              "velocity": 67,
              "position": 1,
              "duration": 0.21875
            },
            {
              "pitch": 91,
              "velocity": 67,
              "position": 1,
              "duration": 0.21875
            },
            {
              "pitch": 43,
              "velocity": 69,
              "position": 1.5,
              "duration": 0.22916666666666666
            },
            {
              "pitch": 47,
              "velocity": 69,
              "position": 1.5,
              "duration": 0.22916666666666666
            },
            {
              "pitch": 50,
              "velocity": 69,
              "position": 1.5,
              "duration": 0.22916666666666666
            },
            {
              "pitch": 52,
              "velocity": 69,
              "position": 1.5,
              "duration": 0.22916666666666666
            },
            {
              "pitch": 79,
              "velocity": 67,
              "position": 2.5,
              "duration": 0.21875
            },
            {
              "pitch": 86,
              "velocity": 67,
              "position": 2.5,
              "duration": 0.21875
            },
            {
              "pitch": 91,
              "velocity": 67,
              "position": 2.5,
              "duration": 0.21875
            },
            {
              "pitch": 43,
              "velocity": 69,
              "position": 3,
              "duration": 0.22916666666666666
            },
            {
              "pitch": 47,
              "velocity": 69,
              "position": 3,
              "duration": 0.22916666666666666
            },
            {
              "pitch": 50,
              "velocity": 69,
              "position": 3,
              "duration": 0.22916666666666666
            },
            {
              "pitch": 52,
              "velocity": 69,
              "position": 3,
              "duration": 0.22916666666666666
            },
            {
              "pitch": 79,
              "velocity": 67,
              "position": 4,
              "duration": 0.21875
            },
            {
              "pitch": 86,
              "velocity": 67,
              "position": 4,
              "duration": 0.21875
            },
            {
              "pitch": 91,
              "velocity": 67,
              "position": 4,
              "duration": 0.21875
            },
            {
              "pitch": 43,
              "velocity": 69,
              "position": 5,
              "duration": 0.22916666666666666
            },
            {
              "pitch": 45,
              "velocity": 69,
              "position": 5,
              "duration": 0.22916666666666666
            },
            {
              "pitch": 50,
              "velocity": 69,
              "position": 5,
              "duration": 0.22916666666666666
            },
            {
              "pitch": 51,
              "velocity": 69,
              "position": 5,
              "duration": 0.22916666666666666
            },
            {
              "pitch": 79,
              "velocity": 67,
              "position": 5.5,
              "duration": 0.21875
            },
            {
              "pitch": 86,
              "velocity": 67,
              "position": 5.5,
              "duration": 0.21875
            },
            {
              "pitch": 91,
              "velocity": 67,
              "position": 5.5,
              "duration": 0.21875
            },
            {
              "pitch": 43,
              "velocity": 69,
              "position": 6.5,
              "duration": 0.22916666666666666
            },
            {
              "pitch": 45,
              "velocity": 69,
              "position": 6.5,
              "duration": 0.22916666666666666
            },
            {
              "pitch": 50,
              "velocity": 69,
              "position": 6.5,
              "duration": 0.22916666666666666
            },
            {
              "pitch": 51,
              "velocity": 69,
              "position": 6.5,
              "duration": 0.22916666666666666
            },
            {
              "pitch": 79,
              "velocity": 67,
              "position": 7,
              "duration": 0.21875
            },
            {
              "pitch": 86,
              "velocity": 67,
              "position": 7,
              "duration": 0.21875
            },
            {
              "pitch": 91,
              "velocity": 67,
              "position": 7,
              "duration": 0.21875
            },
            {
              "pitch": 43,
              "velocity": 69,
              "position": 8,
              "duration": 0.22916666666666666
            },
            {
              "pitch": 47,
              "velocity": 69,
              "position": 8,
              "duration": 0.22916666666666666
            },
            {
              "pitch": 50,
              "velocity": 69,
              "position": 8,
              "duration": 0.22916666666666666
            },
            {
              "pitch": 52,
              "velocity": 69,
              "position": 8,
              "duration": 0.22916666666666666
            },
            {
              "pitch": 79,
              "velocity": 67,
              "position": 9,
              "duration": 0.21875
            },
            {
              "pitch": 86,
              "velocity": 67,
              "position": 9,
              "duration": 0.21875
            },
            {
              "pitch": 91,
              "velocity": 67,
              "position": 9,
              "duration": 0.21875
            },
            {
              "pitch": 43,
              "velocity": 69,
              "position": 9.5,
              "duration": 0.22916666666666666
            },
            {
              "pitch": 47,
              "velocity": 69,
              "position": 9.5,
              "duration": 0.22916666666666666
            },
            {
              "pitch": 50,
              "velocity": 69,
              "position": 9.5,
              "duration": 0.22916666666666666
            },
            {
              "pitch": 52,
              "velocity": 69,
              "position": 9.5,
              "duration": 0.22916666666666666
            },
            {
              "pitch": 79,
              "velocity": 67,
              "position": 10.5,
              "duration": 0.21875
            },
            {
              "pitch": 86,
              "velocity": 67,
              "position": 10.5,
              "duration": 0.21875
            },
            {
              "pitch": 91,
              "velocity": 67,
              "position": 10.5,
              "duration": 0.21875
            },
            {
              "pitch": 43,
              "velocity": 69,
              "position": 11,
              "duration": 0.22916666666666666
            },
            {
              "pitch": 47,
              "velocity": 69,
              "position": 11,
              "duration": 0.22916666666666666
            },
            {
              "pitch": 50,
              "velocity": 69,
              "position": 11,
              "duration": 0.22916666666666666
            },
            {
              "pitch": 52,
              "velocity": 69,
              "position": 11,
              "duration": 0.22916666666666666
            },
            {
              "pitch": 45,
              "velocity": 45,
              "position": 12.5,
              "duration": 0.22916666666666666
            },
            {
              "pitch": 50,
              "velocity": 45,
              "position": 12.5,
              "duration": 0.22916666666666666
            },
            {
              "pitch": 53,
              "velocity": 45,
              "position": 12.5,
              "duration": 0.22916666666666666
            },
            {
              "pitch": 45,
              "velocity": 69,
              "position": 13.5,
              "duration": 2.4791666666666665
            },
            {
              "pitch": 50,
              "velocity": 69,
              "position": 13.5,
              "duration": 2.4791666666666665
            },
            {
              "pitch": 53,
              "velocity": 69,
              "position": 13.5,
              "duration": 2.4791666666666665
            },
            {
              "pitch": 67,
              "velocity": 60,
              "position": 13.5,
              "duration": 2.4791666666666665
            }
          ]
        },
        "13": {
          "ctab": {
            "srcChannel": 13,
            "name": "Str",
            "accType": "PAD",
            "editable": false,
            "mutedNotes": [],
            "mutedChords": [
              "dim7",
              "dim",
              "minMaj7(9)",
              "minMaj7",
              "min7(11)",
              "min7(9)",
              "min(9)",
              "m7b5",
              "min7",
              "min6",
              "min"
            ],
            "autoStart": false,
            "sourceChordNote": 0,
            "sourceChordType": "Maj",
            "ctb2Low": null,
            "ctb2Main": {
              "ntr": "ROOT_TRANSPOSITION",
              "ntt": "BYPASS",
              "bassOn": false,
              "chordRootUpperLimit": 8,
              "noteLowLimit": 54,
              "noteHighLimit": 127,
              "rtr": "PITCH_SHIFT"
            },
            "ctb2High": null
          },
          "notes": [
            {
              "pitch": 47,
              "velocity": 94,
              "position": 0.010416666666666666,
              "duration": 3.975
            },
            {
              "pitch": 52,
              "velocity": 94,
              "position": 0.010416666666666666,
              "duration": 3.975
            },
            {
              "pitch": 45,
              "velocity": 94,
              "position": 4,
              "duration": 3.9854166666666666
            },
            {
              "pitch": 51,
              "velocity": 94,
              "position": 4,
              "duration": 3.9854166666666666
            },
            {
              "pitch": 47,
              "velocity": 94,
              "position": 8,
              "duration": 3.9854166666666666
            },
            {
              "pitch": 50,
              "velocity": 94,
              "position": 0.010416666666666666,
              "duration": 11.975
            },
            {
              "pitch": 52,
              "velocity": 94,
              "position": 8,
              "duration": 3.9854166666666666
            },
            {
              "pitch": 43,
              "velocity": 94,
              "position": 0.010416666666666666,
              "duration": 15.975
            },
            {
              "pitch": 45,
              "velocity": 94,
              "position": 12,
              "duration": 3.9854166666666666
            },
            {
              "pitch": 48,
              "velocity": 94,
              "position": 12,
              "duration": 3.9854166666666666
            },
            {
              "pitch": 53,
              "velocity": 94,
              "position": 12,
              "duration": 3.9854166666666666
            },
            {
              "pitch": 79,
              "velocity": 70,
              "position": 0.010416666666666666,
              "duration": 15.975
            }
          ]
        },
        "14": {
          "ctab": {
            "srcChannel": 14,
            "name": "Gt B",
            "accType": "CHORD1",
            "editable": false,
            "mutedNotes": [
              11,
              4,
              3,
              2,
              1,
              0
            ],
            "mutedChords": [
              "dim7",
              "dim",
              "minMaj7(9)",
              "minMaj7",
              "min7(11)",
              "min7(9)",
              "min(9)",
              "m7b5",
              "min7",
              "min6",
              "min"
            ],
            "autoStart": false,
            "sourceChordNote": 0,
            "sourceChordType": "Maj",
            "ctb2Low": null,
            "ctb2Main": {
              "ntr": "ROOT_TRANSPOSITION",
              "ntt": "BYPASS",
              "bassOn": false,
              "chordRootUpperLimit": 0,
              "noteLowLimit": 0,
              "noteHighLimit": 127,
              "rtr": "PITCH_SHIFT"
            },
            "ctb2High": null
          },
          "notes": [
            {
              "pitch": 55,
              "velocity": 69,
              "position": 0,
              "duration": 0.49583333333333335
            },
            {
              "pitch": 55,
              "velocity": 37,
              "position": 0.5,
              "duration": 0.975
            },
            {
              "pitch": 71,
              "velocity": 69,
              "position": 0,
              "duration": 1.475
            },
            {
              "pitch": 64,
              "velocity": 69,
              "position": 0,
              "duration": 1.4958333333333333
            },
            {
              "pitch": 71,
              "velocity": 61,
              "position": 1.5,
              "duration": 0.49583333333333335
            },
            {
              "pitch": 74,
              "velocity": 65,
              "position": 1,
              "duration": 1.475
            },
            {
              "pitch": 55,
              "velocity": 61,
              "position": 1.5,
              "duration": 1.4958333333333333
            },
            {
              "pitch": 55,
              "velocity": 37,
              "position": 3,
              "duration": 0.475
            },
            {
              "pitch": 71,
              "velocity": 38,
              "position": 2,
              "duration": 1.475
            },
            {
              "pitch": 64,
              "velocity": 61,
              "position": 1.5,
              "duration": 1.9958333333333333
            },
            {
              "pitch": 74,
              "velocity": 65,
              "position": 2.5,
              "duration": 1.975
            },
            {
              "pitch": 55,
              "velocity": 61,
              "position": 3.5,
              "duration": 1.4958333333333333
            },
            {
              "pitch": 55,
              "velocity": 37,
              "position": 5,
              "duration": 0.475
            },
            {
              "pitch": 69,
              "velocity": 61,
              "position": 3.5,
              "duration": 1.975
            },
            {
              "pitch": 63,
              "velocity": 61,
              "position": 3.5,
              "duration": 1.9958333333333333
            },
            {
              "pitch": 69,
              "velocity": 57,
              "position": 5.5,
              "duration": 0.49583333333333335
            },
            {
              "pitch": 55,
              "velocity": 57,
              "position": 5.5,
              "duration": 0.9958333333333333
            },
            {
              "pitch": 74,
              "velocity": 65,
              "position": 4.5,
              "duration": 2.475
            },
            {
              "pitch": 55,
              "velocity": 37,
              "position": 6.5,
              "duration": 1.475
            },
            {
              "pitch": 69,
              "velocity": 38,
              "position": 6,
              "duration": 1.975
            },
            {
              "pitch": 63,
              "velocity": 57,
              "position": 5.5,
              "duration": 2.495833333333333
            },
            {
              "pitch": 55,
              "velocity": 69,
              "position": 8,
              "duration": 0.49583333333333335
            },
            {
              "pitch": 74,
              "velocity": 49,
              "position": 7,
              "duration": 1.9854166666666666
            },
            {
              "pitch": 55,
              "velocity": 37,
              "position": 8.5,
              "duration": 0.975
            },
            {
              "pitch": 71,
              "velocity": 69,
              "position": 8,
              "duration": 1.475
            },
            {
              "pitch": 64,
              "velocity": 69,
              "position": 8,
              "duration": 1.4958333333333333
            },
            {
              "pitch": 71,
              "velocity": 61,
              "position": 9.5,
              "duration": 0.49583333333333335
            },
            {
              "pitch": 74,
              "velocity": 65,
              "position": 9,
              "duration": 1.475
            },
            {
              "pitch": 55,
              "velocity": 61,
              "position": 9.5,
              "duration": 1.4958333333333333
            },
            {
              "pitch": 55,
              "velocity": 37,
              "position": 11,
              "duration": 0.475
            },
            {
              "pitch": 71,
              "velocity": 45,
              "position": 10,
              "duration": 1.475
            },
            {
              "pitch": 74,
              "velocity": 65,
              "position": 10.5,
              "duration": 0.975
            },
            {
              "pitch": 64,
              "velocity": 61,
              "position": 9.5,
              "duration": 1.9958333333333333
            },
            {
              "pitch": 69,
              "velocity": 49,
              "position": 11.5,
              "duration": 0.26666666666666666
            },
            {
              "pitch": 72,
              "velocity": 44,
              "position": 11.510416666666666,
              "duration": 0.26666666666666666
            },
            {
              "pitch": 65,
              "velocity": 44,
              "position": 11.520833333333334,
              "duration": 0.26666666666666666
            },
            {
              "pitch": 55,
              "velocity": 46,
              "position": 11.53125,
              "duration": 0.27708333333333335
            },
            {
              "pitch": 69,
              "velocity": 35,
              "position": 12.5,
              "duration": 0.26666666666666666
            },
            {
              "pitch": 72,
              "velocity": 31,
              "position": 12.510416666666666,
              "duration": 0.26666666666666666
            },
            {
              "pitch": 65,
              "velocity": 30,
              "position": 12.520833333333334,
              "duration": 0.26666666666666666
            },
            {
              "pitch": 55,
              "velocity": 31,
              "position": 12.53125,
              "duration": 0.27708333333333335
            },
            {
              "pitch": 69,
              "velocity": 57,
              "position": 13.5,
              "duration": 2.225
            },
            {
              "pitch": 72,
              "velocity": 58,
              "position": 13.510416666666666,
              "duration": 2.225
            },
            {
              "pitch": 65,
              "velocity": 56,
              "position": 13.520833333333334,
              "duration": 2.225
            },
            {
              "pitch": 55,
              "velocity": 59,
              "position": 13.53125,
              "duration": 2.2354166666666666
            }
          ]
        }
      }
    },
    "Intro_C": {
      "type": "Intro_C",
      "sizeInBeats": 32,
      "channels": {
        "1": {
          "ctab": {
            "srcChannel": 1,
            "name": "Bass",
            "accType": "BASS",
            "editable": false,
            "mutedNotes": [],
            "mutedChords": [
              "1+2+5",
              "sus4",
              "1+5",
              "1+8",
              "7aug",
              "Maj7aug",
              "7(#9)",
              "7(b13)",
              "7(b9)",
              "7(13)",
              "7#11",
              "7(9)",
              "7b5",
              "7sus4",
              "7th",
              "aug",
              "Maj6(9)",
              "Maj7(9)",
              "Maj(9)",
              "Maj7#11",
              "Maj7",
              "Maj6",
              "Maj"
            ],
            "autoStart": false,
            "sourceChordNote": 0,
            "sourceChordType": "min",
            "ctb2Low": null,
            "ctb2Main": {
              "ntr": "ROOT_TRANSPOSITION",
              "ntt": "BYPASS",
              "bassOn": false,
              "chordRootUpperLimit": 8,
              "noteLowLimit": 28,
              "noteHighLimit": 127,
              "rtr": "PITCH_SHIFT"
            },
            "ctb2High": null
          },
          "notes": [
            {
              "pitch": 24,
              "velocity": 98,
              "position": 0,
              "duration": 0.27708333333333335
            },
            {
              "pitch": 24,
              "velocity": 72,
              "position": 1.5,
              "duration": 0.11041666666666666
            },
            {
              "pitch": 31,
              "velocity": 98,
              "position": 2,
              "duration": 1.7770833333333333
            },
            {
              "pitch": 24,
              "velocity": 98,
              "position": 4,
              "duration": 0.27708333333333335
            },
            {
              "pitch": 24,
              "velocity": 72,
              "position": 5.5,
              "duration": 0.11041666666666666
            },
            {
              "pitch": 31,
              "velocity": 98,
              "position": 6,
              "duration": 1.7770833333333333
            },
            {
              "pitch": 34,
              "velocity": 98,
              "position": 8,
              "duration": 0.27708333333333335
            },
            {
              "pitch": 34,
              "velocity": 72,
              "position": 9.5,
              "duration": 0.11041666666666666
            },
            {
              "pitch": 29,
              "velocity": 98,
              "position": 10,
              "duration": 1.81875
            },
            {
              "pitch": 34,
              "velocity": 98,
              "position": 12,
              "duration": 0.27708333333333335
            },
            {
              "pitch": 34,
              "velocity": 72,
              "position": 13.5,
              "duration": 0.11041666666666666
            },
            {
              "pitch": 29,
              "velocity": 98,
              "position": 14,
              "duration": 0.9854166666666667
            },
            {
              "pitch": 29,
              "velocity": 98,
              "position": 15,
              "duration": 0.9854166666666667
            },
            {
              "pitch": 24,
              "velocity": 98,
              "position": 16,
              "duration": 0.27708333333333335
            },
            {
              "pitch": 24,
              "velocity": 72,
              "position": 17.5,
              "duration": 0.11041666666666666
            },
            {
              "pitch": 31,
              "velocity": 98,
              "position": 18,
              "duration": 1.7770833333333333
            },
            {
              "pitch": 24,
              "velocity": 98,
              "position": 20,
              "duration": 0.27708333333333335
            },
            {
              "pitch": 24,
              "velocity": 72,
              "position": 21.5,
              "duration": 0.11041666666666666
            },
            {
              "pitch": 31,
              "velocity": 98,
              "position": 22,
              "duration": 1.7770833333333333
            },
            {
              "pitch": 31,
              "velocity": 98,
              "position": 24.5,
              "duration": 0.27708333333333335
            },
            {
              "pitch": 31,
              "velocity": 98,
              "position": 26,
              "duration": 1.2354166666666666
            },
            {
              "pitch": 31,
              "velocity": 98,
              "position": 27.5,
              "duration": 4.485416666666667
            }
          ]
        },
        "2": {
          "ctab": {
            "srcChannel": 2,
            "name": "Gt A",
            "accType": "CHORD1",
            "editable": false,
            "mutedNotes": [
              10,
              9,
              8,
              7,
              6,
              5
            ],
            "mutedChords": [
              "1+2+5",
              "sus4",
              "1+5",
              "1+8",
              "7aug",
              "Maj7aug",
              "7(#9)",
              "7(b13)",
              "7(b9)",
              "7(13)",
              "7#11",
              "7(9)",
              "7b5",
              "7sus4",
              "7th",
              "aug",
              "Maj6(9)",
              "Maj7(9)",
              "Maj(9)",
              "Maj7#11",
              "Maj7",
              "Maj6",
              "Maj"
            ],
            "autoStart": false,
            "sourceChordNote": 0,
            "sourceChordType": "min",
            "ctb2Low": null,
            "ctb2Main": {
              "ntr": "ROOT_TRANSPOSITION",
              "ntt": "BYPASS",
              "bassOn": false,
              "chordRootUpperLimit": 7,
              "noteLowLimit": 0,
              "noteHighLimit": 127,
              "rtr": "PITCH_SHIFT"
            },
            "ctb2High": null
          },
          "notes": [
            {
              "pitch": 51,
              "velocity": 34,
              "position": 0,
              "duration": 0.48541666666666666
            },
            {
              "pitch": 58,
              "velocity": 35,
              "position": 0.010416666666666666,
              "duration": 0.475
            },
            {
              "pitch": 62,
              "velocity": 26,
              "position": 0.020833333333333332,
              "duration": 0.46458333333333335
            },
            {
              "pitch": 67,
              "velocity": 27,
              "position": 0.03125,
              "duration": 0.45416666666666666
            },
            {
              "pitch": 51,
              "velocity": 41,
              "position": 0.5,
              "duration": 0.48541666666666666
            },
            {
              "pitch": 58,
              "velocity": 46,
              "position": 0.5104166666666666,
              "duration": 0.475
            },
            {
              "pitch": 62,
              "velocity": 44,
              "position": 0.5208333333333334,
              "duration": 0.46458333333333335
            },
            {
              "pitch": 67,
              "velocity": 37,
              "position": 0.53125,
              "duration": 0.45416666666666666
            },
            {
              "pitch": 62,
              "velocity": 56,
              "position": 1.0208333333333333,
              "duration": 0.027083333333333334
            },
            {
              "pitch": 67,
              "velocity": 51,
              "position": 1.03125,
              "duration": 0.0375
            },
            {
              "pitch": 51,
              "velocity": 53,
              "position": 1.5,
              "duration": 0.04791666666666667
            },
            {
              "pitch": 58,
              "velocity": 53,
              "position": 1.5104166666666667,
              "duration": 0.0375
            },
            {
              "pitch": 51,
              "velocity": 53,
              "position": 2,
              "duration": 0.48541666666666666
            },
            {
              "pitch": 57,
              "velocity": 56,
              "position": 2.0104166666666665,
              "duration": 0.475
            },
            {
              "pitch": 60,
              "velocity": 57,
              "position": 2.0208333333333335,
              "duration": 0.46458333333333335
            },
            {
              "pitch": 67,
              "velocity": 53,
              "position": 2.03125,
              "duration": 0.45416666666666666
            },
            {
              "pitch": 51,
              "velocity": 53,
              "position": 3,
              "duration": 0.48541666666666666
            },
            {
              "pitch": 57,
              "velocity": 56,
              "position": 3.0104166666666665,
              "duration": 0.475
            },
            {
              "pitch": 60,
              "velocity": 57,
              "position": 3.0208333333333335,
              "duration": 0.46458333333333335
            },
            {
              "pitch": 67,
              "velocity": 53,
              "position": 3.03125,
              "duration": 0.45416666666666666
            },
            {
              "pitch": 51,
              "velocity": 51,
              "position": 4,
              "duration": 0.48541666666666666
            },
            {
              "pitch": 58,
              "velocity": 59,
              "position": 4.010416666666667,
              "duration": 0.475
            },
            {
              "pitch": 62,
              "velocity": 58,
              "position": 4.020833333333333,
              "duration": 0.46458333333333335
            },
            {
              "pitch": 67,
              "velocity": 56,
              "position": 4.03125,
              "duration": 0.45416666666666666
            },
            {
              "pitch": 51,
              "velocity": 37,
              "position": 4.5,
              "duration": 0.48541666666666666
            },
            {
              "pitch": 58,
              "velocity": 44,
              "position": 4.510416666666667,
              "duration": 0.475
            },
            {
              "pitch": 62,
              "velocity": 45,
              "position": 4.520833333333333,
              "duration": 0.46458333333333335
            },
            {
              "pitch": 67,
              "velocity": 46,
              "position": 4.53125,
              "duration": 0.45416666666666666
            },
            {
              "pitch": 58,
              "velocity": 56,
              "position": 5.010416666666667,
              "duration": 0.0375
            },
            {
              "pitch": 62,
              "velocity": 53,
              "position": 5.020833333333333,
              "duration": 0.027083333333333334
            },
            {
              "pitch": 51,
              "velocity": 54,
              "position": 5,
              "duration": 0.058333333333333334
            },
            {
              "pitch": 67,
              "velocity": 55,
              "position": 5.03125,
              "duration": 0.027083333333333334
            },
            {
              "pitch": 51,
              "velocity": 58,
              "position": 5.5,
              "duration": 0.48541666666666666
            },
            {
              "pitch": 57,
              "velocity": 53,
              "position": 5.510416666666667,
              "duration": 0.475
            },
            {
              "pitch": 60,
              "velocity": 59,
              "position": 5.520833333333333,
              "duration": 0.46458333333333335
            },
            {
              "pitch": 67,
              "velocity": 51,
              "position": 5.53125,
              "duration": 0.45416666666666666
            },
            {
              "pitch": 51,
              "velocity": 40,
              "position": 6.5,
              "duration": 0.48541666666666666
            },
            {
              "pitch": 57,
              "velocity": 42,
              "position": 6.510416666666667,
              "duration": 0.475
            },
            {
              "pitch": 60,
              "velocity": 41,
              "position": 6.520833333333333,
              "duration": 0.46458333333333335
            },
            {
              "pitch": 67,
              "velocity": 45,
              "position": 6.53125,
              "duration": 0.45416666666666666
            },
            {
              "pitch": 57,
              "velocity": 51,
              "position": 7.010416666666667,
              "duration": 0.0375
            },
            {
              "pitch": 51,
              "velocity": 54,
              "position": 7,
              "duration": 0.058333333333333334
            },
            {
              "pitch": 60,
              "velocity": 56,
              "position": 7.020833333333333,
              "duration": 0.0375
            },
            {
              "pitch": 67,
              "velocity": 52,
              "position": 7.03125,
              "duration": 0.027083333333333334
            },
            {
              "pitch": 51,
              "velocity": 56,
              "position": 7.5,
              "duration": 0.48541666666666666
            },
            {
              "pitch": 56,
              "velocity": 57,
              "position": 7.510416666666667,
              "duration": 0.475
            },
            {
              "pitch": 60,
              "velocity": 59,
              "position": 7.520833333333333,
              "duration": 0.46458333333333335
            },
            {
              "pitch": 67,
              "velocity": 56,
              "position": 7.53125,
              "duration": 0.45416666666666666
            },
            {
              "pitch": 51,
              "velocity": 25,
              "position": 8,
              "duration": 0.48541666666666666
            },
            {
              "pitch": 56,
              "velocity": 31,
              "position": 8.010416666666666,
              "duration": 0.475
            },
            {
              "pitch": 60,
              "velocity": 30,
              "position": 8.020833333333334,
              "duration": 0.46458333333333335
            },
            {
              "pitch": 67,
              "velocity": 26,
              "position": 8.03125,
              "duration": 0.45416666666666666
            },
            {
              "pitch": 51,
              "velocity": 42,
              "position": 8.5,
              "duration": 0.48541666666666666
            },
            {
              "pitch": 56,
              "velocity": 41,
              "position": 8.510416666666666,
              "duration": 0.475
            },
            {
              "pitch": 60,
              "velocity": 38,
              "position": 8.520833333333334,
              "duration": 0.46458333333333335
            },
            {
              "pitch": 67,
              "velocity": 44,
              "position": 8.53125,
              "duration": 0.45416666666666666
            },
            {
              "pitch": 60,
              "velocity": 59,
              "position": 9.020833333333334,
              "duration": 0.027083333333333334
            },
            {
              "pitch": 67,
              "velocity": 59,
              "position": 9.03125,
              "duration": 0.027083333333333334
            },
            {
              "pitch": 56,
              "velocity": 57,
              "position": 9.510416666666666,
              "duration": 0.027083333333333334
            },
            {
              "pitch": 51,
              "velocity": 55,
              "position": 9.5,
              "duration": 0.04791666666666667
            },
            {
              "pitch": 50,
              "velocity": 54,
              "position": 10,
              "duration": 0.475
            },
            {
              "pitch": 56,
              "velocity": 52,
              "position": 10.010416666666666,
              "duration": 0.475
            },
            {
              "pitch": 60,
              "velocity": 51,
              "position": 10.020833333333334,
              "duration": 0.46458333333333335
            },
            {
              "pitch": 65,
              "velocity": 51,
              "position": 10.03125,
              "duration": 0.45416666666666666
            },
            {
              "pitch": 50,
              "velocity": 54,
              "position": 11,
              "duration": 0.475
            },
            {
              "pitch": 56,
              "velocity": 52,
              "position": 11.010416666666666,
              "duration": 0.475
            },
            {
              "pitch": 60,
              "velocity": 51,
              "position": 11.020833333333334,
              "duration": 0.46458333333333335
            },
            {
              "pitch": 65,
              "velocity": 51,
              "position": 11.03125,
              "duration": 0.45416666666666666
            },
            {
              "pitch": 51,
              "velocity": 56,
              "position": 12,
              "duration": 0.48541666666666666
            },
            {
              "pitch": 56,
              "velocity": 57,
              "position": 12.010416666666666,
              "duration": 0.475
            },
            {
              "pitch": 60,
              "velocity": 59,
              "position": 12.020833333333334,
              "duration": 0.46458333333333335
            },
            {
              "pitch": 67,
              "velocity": 56,
              "position": 12.03125,
              "duration": 0.45416666666666666
            },
            {
              "pitch": 51,
              "velocity": 42,
              "position": 12.5,
              "duration": 0.48541666666666666
            },
            {
              "pitch": 56,
              "velocity": 41,
              "position": 12.510416666666666,
              "duration": 0.475
            },
            {
              "pitch": 60,
              "velocity": 38,
              "position": 12.520833333333334,
              "duration": 0.46458333333333335
            },
            {
              "pitch": 67,
              "velocity": 44,
              "position": 12.53125,
              "duration": 0.45416666666666666
            },
            {
              "pitch": 51,
              "velocity": 55,
              "position": 13,
              "duration": 0.027083333333333334
            },
            {
              "pitch": 56,
              "velocity": 57,
              "position": 13.010416666666666,
              "duration": 0.027083333333333334
            },
            {
              "pitch": 60,
              "velocity": 59,
              "position": 13.020833333333334,
              "duration": 0.027083333333333334
            },
            {
              "pitch": 67,
              "velocity": 59,
              "position": 13.03125,
              "duration": 0.027083333333333334
            },
            {
              "pitch": 50,
              "velocity": 54,
              "position": 13.5,
              "duration": 0.475
            },
            {
              "pitch": 56,
              "velocity": 52,
              "position": 13.510416666666666,
              "duration": 0.475
            },
            {
              "pitch": 60,
              "velocity": 51,
              "position": 13.520833333333334,
              "duration": 0.46458333333333335
            },
            {
              "pitch": 65,
              "velocity": 51,
              "position": 13.53125,
              "duration": 0.45416666666666666
            },
            {
              "pitch": 50,
              "velocity": 44,
              "position": 14.5,
              "duration": 0.48541666666666666
            },
            {
              "pitch": 56,
              "velocity": 41,
              "position": 14.510416666666666,
              "duration": 0.475
            },
            {
              "pitch": 60,
              "velocity": 42,
              "position": 14.520833333333334,
              "duration": 0.46458333333333335
            },
            {
              "pitch": 65,
              "velocity": 44,
              "position": 14.53125,
              "duration": 0.45416666666666666
            },
            {
              "pitch": 50,
              "velocity": 55,
              "position": 15,
              "duration": 0.027083333333333334
            },
            {
              "pitch": 56,
              "velocity": 54,
              "position": 15.010416666666666,
              "duration": 0.0375
            },
            {
              "pitch": 60,
              "velocity": 53,
              "position": 15.020833333333334,
              "duration": 0.0375
            },
            {
              "pitch": 65,
              "velocity": 56,
              "position": 15.03125,
              "duration": 0.027083333333333334
            },
            {
              "pitch": 51,
              "velocity": 51,
              "position": 15.5,
              "duration": 0.48541666666666666
            },
            {
              "pitch": 58,
              "velocity": 59,
              "position": 15.510416666666666,
              "duration": 0.475
            },
            {
              "pitch": 62,
              "velocity": 58,
              "position": 15.520833333333334,
              "duration": 0.46458333333333335
            },
            {
              "pitch": 67,
              "velocity": 56,
              "position": 15.53125,
              "duration": 0.45416666666666666
            },
            {
              "pitch": 51,
              "velocity": 34,
              "position": 16,
              "duration": 0.48541666666666666
            },
            {
              "pitch": 58,
              "velocity": 35,
              "position": 16.010416666666668,
              "duration": 0.475
            },
            {
              "pitch": 62,
              "velocity": 26,
              "position": 16.020833333333332,
              "duration": 0.46458333333333335
            },
            {
              "pitch": 67,
              "velocity": 27,
              "position": 16.03125,
              "duration": 0.45416666666666666
            },
            {
              "pitch": 51,
              "velocity": 41,
              "position": 16.5,
              "duration": 0.48541666666666666
            },
            {
              "pitch": 58,
              "velocity": 46,
              "position": 16.510416666666668,
              "duration": 0.475
            },
            {
              "pitch": 62,
              "velocity": 44,
              "position": 16.520833333333332,
              "duration": 0.46458333333333335
            },
            {
              "pitch": 67,
              "velocity": 37,
              "position": 16.53125,
              "duration": 0.45416666666666666
            },
            {
              "pitch": 62,
              "velocity": 56,
              "position": 17.020833333333332,
              "duration": 0.027083333333333334
            },
            {
              "pitch": 67,
              "velocity": 51,
              "position": 17.03125,
              "duration": 0.0375
            },
            {
              "pitch": 51,
              "velocity": 53,
              "position": 17.5,
              "duration": 0.027083333333333334
            },
            {
              "pitch": 58,
              "velocity": 53,
              "position": 17.510416666666668,
              "duration": 0.0375
            },
            {
              "pitch": 51,
              "velocity": 53,
              "position": 18,
              "duration": 0.48541666666666666
            },
            {
              "pitch": 57,
              "velocity": 56,
              "position": 18.010416666666668,
              "duration": 0.475
            },
            {
              "pitch": 60,
              "velocity": 57,
              "position": 18.020833333333332,
              "duration": 0.46458333333333335
            },
            {
              "pitch": 67,
              "velocity": 53,
              "position": 18.03125,
              "duration": 0.45416666666666666
            },
            {
              "pitch": 51,
              "velocity": 53,
              "position": 19,
              "duration": 0.48541666666666666
            },
            {
              "pitch": 57,
              "velocity": 56,
              "position": 19.010416666666668,
              "duration": 0.475
            },
            {
              "pitch": 60,
              "velocity": 57,
              "position": 19.020833333333332,
              "duration": 0.46458333333333335
            },
            {
              "pitch": 67,
              "velocity": 53,
              "position": 19.03125,
              "duration": 0.45416666666666666
            },
            {
              "pitch": 51,
              "velocity": 51,
              "position": 20,
              "duration": 0.48541666666666666
            },
            {
              "pitch": 58,
              "velocity": 59,
              "position": 20.010416666666668,
              "duration": 0.475
            },
            {
              "pitch": 62,
              "velocity": 58,
              "position": 20.020833333333332,
              "duration": 0.46458333333333335
            },
            {
              "pitch": 67,
              "velocity": 56,
              "position": 20.03125,
              "duration": 0.45416666666666666
            },
            {
              "pitch": 51,
              "velocity": 37,
              "position": 20.5,
              "duration": 0.48541666666666666
            },
            {
              "pitch": 58,
              "velocity": 44,
              "position": 20.510416666666668,
              "duration": 0.475
            },
            {
              "pitch": 62,
              "velocity": 45,
              "position": 20.520833333333332,
              "duration": 0.46458333333333335
            },
            {
              "pitch": 67,
              "velocity": 46,
              "position": 20.53125,
              "duration": 0.45416666666666666
            },
            {
              "pitch": 51,
              "velocity": 54,
              "position": 21,
              "duration": 0.0375
            },
            {
              "pitch": 58,
              "velocity": 56,
              "position": 21.010416666666668,
              "duration": 0.0375
            },
            {
              "pitch": 62,
              "velocity": 53,
              "position": 21.020833333333332,
              "duration": 0.027083333333333334
            },
            {
              "pitch": 67,
              "velocity": 55,
              "position": 21.03125,
              "duration": 0.027083333333333334
            },
            {
              "pitch": 51,
              "velocity": 58,
              "position": 21.5,
              "duration": 0.48541666666666666
            },
            {
              "pitch": 57,
              "velocity": 53,
              "position": 21.510416666666668,
              "duration": 0.475
            },
            {
              "pitch": 60,
              "velocity": 59,
              "position": 21.520833333333332,
              "duration": 0.46458333333333335
            },
            {
              "pitch": 67,
              "velocity": 51,
              "position": 21.53125,
              "duration": 0.45416666666666666
            },
            {
              "pitch": 51,
              "velocity": 40,
              "position": 22.5,
              "duration": 0.48541666666666666
            },
            {
              "pitch": 57,
              "velocity": 42,
              "position": 22.510416666666668,
              "duration": 0.475
            },
            {
              "pitch": 60,
              "velocity": 41,
              "position": 22.520833333333332,
              "duration": 0.46458333333333335
            },
            {
              "pitch": 67,
              "velocity": 45,
              "position": 22.53125,
              "duration": 0.45416666666666666
            },
            {
              "pitch": 51,
              "velocity": 54,
              "position": 23,
              "duration": 0.0375
            },
            {
              "pitch": 57,
              "velocity": 51,
              "position": 23.010416666666668,
              "duration": 0.0375
            },
            {
              "pitch": 60,
              "velocity": 56,
              "position": 23.020833333333332,
              "duration": 0.0375
            },
            {
              "pitch": 67,
              "velocity": 52,
              "position": 23.03125,
              "duration": 0.027083333333333334
            },
            {
              "pitch": 53,
              "velocity": 56,
              "position": 23.5,
              "duration": 0.48541666666666666
            },
            {
              "pitch": 57,
              "velocity": 59,
              "position": 23.510416666666668,
              "duration": 0.475
            },
            {
              "pitch": 60,
              "velocity": 58,
              "position": 23.520833333333332,
              "duration": 0.46458333333333335
            },
            {
              "pitch": 67,
              "velocity": 56,
              "position": 23.53125,
              "duration": 0.45416666666666666
            },
            {
              "pitch": 53,
              "velocity": 27,
              "position": 24,
              "duration": 0.48541666666666666
            },
            {
              "pitch": 57,
              "velocity": 35,
              "position": 24.010416666666668,
              "duration": 0.475
            },
            {
              "pitch": 60,
              "velocity": 26,
              "position": 24.020833333333332,
              "duration": 0.46458333333333335
            },
            {
              "pitch": 67,
              "velocity": 27,
              "position": 24.03125,
              "duration": 0.45416666666666666
            },
            {
              "pitch": 53,
              "velocity": 37,
              "position": 24.5,
              "duration": 0.48541666666666666
            },
            {
              "pitch": 57,
              "velocity": 46,
              "position": 24.510416666666668,
              "duration": 0.475
            },
            {
              "pitch": 60,
              "velocity": 44,
              "position": 24.520833333333332,
              "duration": 0.46458333333333335
            },
            {
              "pitch": 67,
              "velocity": 37,
              "position": 24.53125,
              "duration": 0.45416666666666666
            },
            {
              "pitch": 60,
              "velocity": 56,
              "position": 25.020833333333332,
              "duration": 0.027083333333333334
            },
            {
              "pitch": 67,
              "velocity": 51,
              "position": 25.03125,
              "duration": 0.0375
            },
            {
              "pitch": 53,
              "velocity": 51,
              "position": 25.5,
              "duration": 0.0375
            },
            {
              "pitch": 57,
              "velocity": 53,
              "position": 25.510416666666668,
              "duration": 0.0375
            },
            {
              "pitch": 53,
              "velocity": 56,
              "position": 26,
              "duration": 0.48541666666666666
            },
            {
              "pitch": 57,
              "velocity": 59,
              "position": 26.010416666666668,
              "duration": 0.475
            },
            {
              "pitch": 60,
              "velocity": 58,
              "position": 26.020833333333332,
              "duration": 0.46458333333333335
            },
            {
              "pitch": 67,
              "velocity": 56,
              "position": 26.03125,
              "duration": 0.45416666666666666
            },
            {
              "pitch": 53,
              "velocity": 37,
              "position": 26.5,
              "duration": 0.48541666666666666
            },
            {
              "pitch": 57,
              "velocity": 46,
              "position": 26.510416666666668,
              "duration": 0.475
            },
            {
              "pitch": 60,
              "velocity": 44,
              "position": 26.520833333333332,
              "duration": 0.46458333333333335
            },
            {
              "pitch": 67,
              "velocity": 37,
              "position": 26.53125,
              "duration": 0.45416666666666666
            },
            {
              "pitch": 53,
              "velocity": 51,
              "position": 27,
              "duration": 0.0375
            },
            {
              "pitch": 57,
              "velocity": 53,
              "position": 27.010416666666668,
              "duration": 0.0375
            },
            {
              "pitch": 60,
              "velocity": 56,
              "position": 27.020833333333332,
              "duration": 0.027083333333333334
            },
            {
              "pitch": 67,
              "velocity": 51,
              "position": 27.03125,
              "duration": 0.0375
            },
            {
              "pitch": 53,
              "velocity": 58,
              "position": 27.5,
              "duration": 4.475
            },
            {
              "pitch": 56,
              "velocity": 58,
              "position": 27.510416666666668,
              "duration": 4.475
            },
            {
              "pitch": 59,
              "velocity": 58,
              "position": 27.520833333333332,
              "duration": 4.464583333333334
            },
            {
              "pitch": 63,
              "velocity": 59,
              "position": 27.53125,
              "duration": 4.454166666666667
            }
          ]
        },
        "3": {
          "ctab": {
            "srcChannel": 3,
            "name": "Pno",
            "accType": "CHORD2",
            "editable": false,
            "mutedNotes": [],
            "mutedChords": [
              "1+2+5",
              "sus4",
              "1+5",
              "1+8",
              "7aug",
              "Maj7aug",
              "7(#9)",
              "7(b13)",
              "7(b9)",
              "7(13)",
              "7#11",
              "7(9)",
              "7b5",
              "7sus4",
              "7th",
              "aug",
              "Maj6(9)",
              "Maj7(9)",
              "Maj(9)",
              "Maj7#11",
              "Maj7",
              "Maj6",
              "Maj"
            ],
            "autoStart": false,
            "sourceChordNote": 0,
            "sourceChordType": "min",
            "ctb2Low": null,
            "ctb2Main": {
              "ntr": "ROOT_TRANSPOSITION",
              "ntt": "BYPASS",
              "bassOn": false,
              "chordRootUpperLimit": 5,
              "noteLowLimit": 54,
              "noteHighLimit": 79,
              "rtr": "PITCH_SHIFT"
            },
            "ctb2High": null
          },
          "notes": [
            {
              "pitch": 43,
              "velocity": 72,
              "position": 0.5,
              "duration": 1.15625
            },
            {
              "pitch": 46,
              "velocity": 72,
              "position": 0.5,
              "duration": 1.15625
            },
            {
              "pitch": 50,
              "velocity": 72,
              "position": 0.5,
              "duration": 1.15625
            },
            {
              "pitch": 51,
              "velocity": 72,
              "position": 0.5,
              "duration": 1.15625
            },
            {
              "pitch": 43,
              "velocity": 72,
              "position": 2,
              "duration": 0.15625
            },
            {
              "pitch": 45,
              "velocity": 72,
              "position": 2,
              "duration": 0.15625
            },
            {
              "pitch": 48,
              "velocity": 72,
              "position": 2,
              "duration": 0.15625
            },
            {
              "pitch": 51,
              "velocity": 72,
              "position": 2,
              "duration": 0.15625
            },
            {
              "pitch": 43,
              "velocity": 48,
              "position": 3,
              "duration": 0.15625
            },
            {
              "pitch": 45,
              "velocity": 48,
              "position": 3,
              "duration": 0.15625
            },
            {
              "pitch": 48,
              "velocity": 48,
              "position": 3,
              "duration": 0.15625
            },
            {
              "pitch": 51,
              "velocity": 48,
              "position": 3,
              "duration": 0.15625
            },
            {
              "pitch": 43,
              "velocity": 48,
              "position": 4,
              "duration": 0.15625
            },
            {
              "pitch": 46,
              "velocity": 48,
              "position": 4,
              "duration": 0.15625
            },
            {
              "pitch": 50,
              "velocity": 48,
              "position": 4,
              "duration": 0.15625
            },
            {
              "pitch": 51,
              "velocity": 48,
              "position": 4,
              "duration": 0.15625
            },
            {
              "pitch": 67,
              "velocity": 100,
              "position": 4.5,
              "duration": 0.4479166666666667
            },
            {
              "pitch": 69,
              "velocity": 73,
              "position": 5,
              "duration": 0.4791666666666667
            },
            {
              "pitch": 70,
              "velocity": 73,
              "position": 5.5,
              "duration": 0.4791666666666667
            },
            {
              "pitch": 43,
              "velocity": 72,
              "position": 5,
              "duration": 0.9895833333333334
            },
            {
              "pitch": 46,
              "velocity": 72,
              "position": 5,
              "duration": 0.9895833333333334
            },
            {
              "pitch": 50,
              "velocity": 72,
              "position": 5,
              "duration": 0.9895833333333334
            },
            {
              "pitch": 51,
              "velocity": 72,
              "position": 5,
              "duration": 0.9895833333333334
            },
            {
              "pitch": 72,
              "velocity": 73,
              "position": 6,
              "duration": 0.4791666666666667
            },
            {
              "pitch": 43,
              "velocity": 49,
              "position": 6.5,
              "duration": 0.15625
            },
            {
              "pitch": 45,
              "velocity": 49,
              "position": 6.5,
              "duration": 0.15625
            },
            {
              "pitch": 48,
              "velocity": 49,
              "position": 6.5,
              "duration": 0.15625
            },
            {
              "pitch": 51,
              "velocity": 49,
              "position": 6.5,
              "duration": 0.15625
            },
            {
              "pitch": 74,
              "velocity": 100,
              "position": 6.5,
              "duration": 0.4791666666666667
            },
            {
              "pitch": 75,
              "velocity": 94,
              "position": 7,
              "duration": 0.4791666666666667
            },
            {
              "pitch": 43,
              "velocity": 61,
              "position": 7.5,
              "duration": 0.15625
            },
            {
              "pitch": 44,
              "velocity": 61,
              "position": 7.5,
              "duration": 0.15625
            },
            {
              "pitch": 48,
              "velocity": 61,
              "position": 7.5,
              "duration": 0.15625
            },
            {
              "pitch": 51,
              "velocity": 61,
              "position": 7.5,
              "duration": 0.15625
            },
            {
              "pitch": 77,
              "velocity": 79,
              "position": 7.5,
              "duration": 0.4791666666666667
            },
            {
              "pitch": 79,
              "velocity": 100,
              "position": 8,
              "duration": 0.5833333333333334
            },
            {
              "pitch": 79,
              "velocity": 88,
              "position": 9,
              "duration": 0.4791666666666667
            },
            {
              "pitch": 43,
              "velocity": 72,
              "position": 8.5,
              "duration": 1.15625
            },
            {
              "pitch": 44,
              "velocity": 72,
              "position": 8.5,
              "duration": 1.15625
            },
            {
              "pitch": 48,
              "velocity": 72,
              "position": 8.5,
              "duration": 1.15625
            },
            {
              "pitch": 51,
              "velocity": 72,
              "position": 8.5,
              "duration": 1.15625
            },
            {
              "pitch": 44,
              "velocity": 72,
              "position": 10,
              "duration": 0.15625
            },
            {
              "pitch": 48,
              "velocity": 72,
              "position": 10,
              "duration": 0.15625
            },
            {
              "pitch": 50,
              "velocity": 72,
              "position": 10,
              "duration": 0.15625
            },
            {
              "pitch": 53,
              "velocity": 72,
              "position": 10,
              "duration": 0.15625
            },
            {
              "pitch": 44,
              "velocity": 48,
              "position": 11,
              "duration": 0.15625
            },
            {
              "pitch": 48,
              "velocity": 48,
              "position": 11,
              "duration": 0.15625
            },
            {
              "pitch": 50,
              "velocity": 48,
              "position": 11,
              "duration": 0.15625
            },
            {
              "pitch": 53,
              "velocity": 48,
              "position": 11,
              "duration": 0.15625
            },
            {
              "pitch": 72,
              "velocity": 73,
              "position": 9.5,
              "duration": 2.6354166666666665
            },
            {
              "pitch": 43,
              "velocity": 48,
              "position": 12,
              "duration": 0.15625
            },
            {
              "pitch": 44,
              "velocity": 48,
              "position": 12,
              "duration": 0.15625
            },
            {
              "pitch": 48,
              "velocity": 48,
              "position": 12,
              "duration": 0.15625
            },
            {
              "pitch": 51,
              "velocity": 48,
              "position": 12,
              "duration": 0.15625
            },
            {
              "pitch": 74,
              "velocity": 88,
              "position": 12.5,
              "duration": 0.4791666666666667
            },
            {
              "pitch": 75,
              "velocity": 82,
              "position": 13,
              "duration": 0.4791666666666667
            },
            {
              "pitch": 77,
              "velocity": 82,
              "position": 13.5,
              "duration": 0.4583333333333333
            },
            {
              "pitch": 43,
              "velocity": 72,
              "position": 13,
              "duration": 0.9895833333333334
            },
            {
              "pitch": 44,
              "velocity": 72,
              "position": 13,
              "duration": 0.9895833333333334
            },
            {
              "pitch": 48,
              "velocity": 72,
              "position": 13,
              "duration": 0.9895833333333334
            },
            {
              "pitch": 51,
              "velocity": 72,
              "position": 13,
              "duration": 0.9895833333333334
            },
            {
              "pitch": 79,
              "velocity": 73,
              "position": 14,
              "duration": 0.4791666666666667
            },
            {
              "pitch": 44,
              "velocity": 49,
              "position": 14.5,
              "duration": 0.15625
            },
            {
              "pitch": 48,
              "velocity": 49,
              "position": 14.5,
              "duration": 0.15625
            },
            {
              "pitch": 50,
              "velocity": 49,
              "position": 14.5,
              "duration": 0.15625
            },
            {
              "pitch": 53,
              "velocity": 49,
              "position": 14.5,
              "duration": 0.15625
            },
            {
              "pitch": 80,
              "velocity": 91,
              "position": 14.5,
              "duration": 0.4791666666666667
            },
            {
              "pitch": 82,
              "velocity": 96,
              "position": 15,
              "duration": 0.3958333333333333
            },
            {
              "pitch": 43,
              "velocity": 61,
              "position": 15.5,
              "duration": 0.15625
            },
            {
              "pitch": 46,
              "velocity": 61,
              "position": 15.5,
              "duration": 0.15625
            },
            {
              "pitch": 50,
              "velocity": 61,
              "position": 15.5,
              "duration": 0.15625
            },
            {
              "pitch": 51,
              "velocity": 61,
              "position": 15.5,
              "duration": 0.15625
            },
            {
              "pitch": 84,
              "velocity": 73,
              "position": 15.5,
              "duration": 0.4791666666666667
            },
            {
              "pitch": 86,
              "velocity": 80,
              "position": 16,
              "duration": 0.59375
            },
            {
              "pitch": 86,
              "velocity": 88,
              "position": 17,
              "duration": 0.4791666666666667
            },
            {
              "pitch": 43,
              "velocity": 72,
              "position": 16.5,
              "duration": 1.15625
            },
            {
              "pitch": 46,
              "velocity": 72,
              "position": 16.5,
              "duration": 1.15625
            },
            {
              "pitch": 50,
              "velocity": 72,
              "position": 16.5,
              "duration": 1.15625
            },
            {
              "pitch": 51,
              "velocity": 72,
              "position": 16.5,
              "duration": 1.15625
            },
            {
              "pitch": 43,
              "velocity": 72,
              "position": 18,
              "duration": 0.15625
            },
            {
              "pitch": 45,
              "velocity": 72,
              "position": 18,
              "duration": 0.15625
            },
            {
              "pitch": 48,
              "velocity": 72,
              "position": 18,
              "duration": 0.15625
            },
            {
              "pitch": 51,
              "velocity": 72,
              "position": 18,
              "duration": 0.15625
            },
            {
              "pitch": 43,
              "velocity": 48,
              "position": 19,
              "duration": 0.15625
            },
            {
              "pitch": 45,
              "velocity": 48,
              "position": 19,
              "duration": 0.15625
            },
            {
              "pitch": 48,
              "velocity": 48,
              "position": 19,
              "duration": 0.15625
            },
            {
              "pitch": 51,
              "velocity": 48,
              "position": 19,
              "duration": 0.15625
            },
            {
              "pitch": 79,
              "velocity": 74,
              "position": 17.5,
              "duration": 2.6354166666666665
            },
            {
              "pitch": 43,
              "velocity": 48,
              "position": 20,
              "duration": 0.15625
            },
            {
              "pitch": 46,
              "velocity": 48,
              "position": 20,
              "duration": 0.15625
            },
            {
              "pitch": 50,
              "velocity": 48,
              "position": 20,
              "duration": 0.15625
            },
            {
              "pitch": 51,
              "velocity": 48,
              "position": 20,
              "duration": 0.15625
            },
            {
              "pitch": 81,
              "velocity": 100,
              "position": 20.5,
              "duration": 0.4479166666666667
            },
            {
              "pitch": 82,
              "velocity": 73,
              "position": 21,
              "duration": 0.4791666666666667
            },
            {
              "pitch": 84,
              "velocity": 73,
              "position": 21.5,
              "duration": 0.4791666666666667
            },
            {
              "pitch": 43,
              "velocity": 72,
              "position": 21,
              "duration": 0.9895833333333334
            },
            {
              "pitch": 46,
              "velocity": 72,
              "position": 21,
              "duration": 0.9895833333333334
            },
            {
              "pitch": 50,
              "velocity": 72,
              "position": 21,
              "duration": 0.9895833333333334
            },
            {
              "pitch": 51,
              "velocity": 72,
              "position": 21,
              "duration": 0.9895833333333334
            },
            {
              "pitch": 86,
              "velocity": 73,
              "position": 22,
              "duration": 0.4791666666666667
            },
            {
              "pitch": 43,
              "velocity": 49,
              "position": 22.5,
              "duration": 0.15625
            },
            {
              "pitch": 45,
              "velocity": 49,
              "position": 22.5,
              "duration": 0.15625
            },
            {
              "pitch": 48,
              "velocity": 49,
              "position": 22.5,
              "duration": 0.15625
            },
            {
              "pitch": 51,
              "velocity": 49,
              "position": 22.5,
              "duration": 0.15625
            },
            {
              "pitch": 87,
              "velocity": 92,
              "position": 22.5,
              "duration": 0.4791666666666667
            },
            {
              "pitch": 89,
              "velocity": 82,
              "position": 23,
              "duration": 0.4791666666666667
            },
            {
              "pitch": 45,
              "velocity": 61,
              "position": 23.5,
              "duration": 0.15625
            },
            {
              "pitch": 48,
              "velocity": 61,
              "position": 23.5,
              "duration": 0.15625
            },
            {
              "pitch": 53,
              "velocity": 61,
              "position": 23.5,
              "duration": 0.15625
            },
            {
              "pitch": 91,
              "velocity": 100,
              "position": 23.5,
              "duration": 0.9791666666666666
            },
            {
              "pitch": 45,
              "velocity": 72,
              "position": 24.5,
              "duration": 0.15625
            },
            {
              "pitch": 48,
              "velocity": 72,
              "position": 24.5,
              "duration": 0.15625
            },
            {
              "pitch": 53,
              "velocity": 72,
              "position": 24.5,
              "duration": 0.15625
            },
            {
              "pitch": 87,
              "velocity": 86,
              "position": 24.5,
              "duration": 0.9791666666666666
            },
            {
              "pitch": 84,
              "velocity": 73,
              "position": 25.5,
              "duration": 0.9791666666666666
            },
            {
              "pitch": 45,
              "velocity": 72,
              "position": 26,
              "duration": 0.9895833333333334
            },
            {
              "pitch": 48,
              "velocity": 72,
              "position": 26,
              "duration": 0.9895833333333334
            },
            {
              "pitch": 53,
              "velocity": 72,
              "position": 26,
              "duration": 0.9895833333333334
            },
            {
              "pitch": 81,
              "velocity": 88,
              "position": 26.5,
              "duration": 0.9791666666666666
            },
            {
              "pitch": 80,
              "velocity": 100,
              "position": 27.5,
              "duration": 0.9791666666666666
            },
            {
              "pitch": 75,
              "velocity": 86,
              "position": 28.5,
              "duration": 0.9791666666666666
            },
            {
              "pitch": 71,
              "velocity": 73,
              "position": 29.5,
              "duration": 0.9791666666666666
            },
            {
              "pitch": 68,
              "velocity": 73,
              "position": 30.5,
              "duration": 1.3229166666666667
            },
            {
              "pitch": 41,
              "velocity": 72,
              "position": 27.5,
              "duration": 4.479166666666667
            },
            {
              "pitch": 44,
              "velocity": 72,
              "position": 27.5,
              "duration": 4.479166666666667
            },
            {
              "pitch": 47,
              "velocity": 72,
              "position": 27.5,
              "duration": 4.479166666666667
            },
            {
              "pitch": 51,
              "velocity": 72,
              "position": 27.5,
              "duration": 4.479166666666667
            }
          ]
        },
        "4": {
          "ctab": {
            "srcChannel": 4,
            "name": "Str",
            "accType": "PAD",
            "editable": false,
            "mutedNotes": [],
            "mutedChords": [
              "1+2+5",
              "sus4",
              "1+5",
              "1+8",
              "7aug",
              "Maj7aug",
              "7(#9)",
              "7(b13)",
              "7(b9)",
              "7(13)",
              "7#11",
              "7(9)",
              "7b5",
              "7sus4",
              "7th",
              "aug",
              "Maj6(9)",
              "Maj7(9)",
              "Maj(9)",
              "Maj7#11",
              "Maj7",
              "Maj6",
              "Maj"
            ],
            "autoStart": false,
            "sourceChordNote": 0,
            "sourceChordType": "min",
            "ctb2Low": null,
            "ctb2Main": {
              "ntr": "ROOT_TRANSPOSITION",
              "ntt": "BYPASS",
              "bassOn": false,
              "chordRootUpperLimit": 8,
              "noteLowLimit": 54,
              "noteHighLimit": 127,
              "rtr": "PITCH_SHIFT"
            },
            "ctb2High": null
          },
          "notes": [
            {
              "pitch": 46,
              "velocity": 85,
              "position": 0.010416666666666666,
              "duration": 1.9854166666666666
            },
            {
              "pitch": 50,
              "velocity": 85,
              "position": 0.010416666666666666,
              "duration": 1.9854166666666666
            },
            {
              "pitch": 45,
              "velocity": 85,
              "position": 2,
              "duration": 1.9854166666666666
            },
            {
              "pitch": 48,
              "velocity": 85,
              "position": 2,
              "duration": 1.9854166666666666
            },
            {
              "pitch": 46,
              "velocity": 85,
              "position": 4,
              "duration": 1.9854166666666666
            },
            {
              "pitch": 50,
              "velocity": 85,
              "position": 4,
              "duration": 1.9854166666666666
            },
            {
              "pitch": 45,
              "velocity": 85,
              "position": 6,
              "duration": 1.9854166666666666
            },
            {
              "pitch": 43,
              "velocity": 85,
              "position": 0.010416666666666666,
              "duration": 9.985416666666667
            },
            {
              "pitch": 51,
              "velocity": 85,
              "position": 0.010416666666666666,
              "duration": 9.985416666666667
            },
            {
              "pitch": 50,
              "velocity": 85,
              "position": 10,
              "duration": 1.9854166666666666
            },
            {
              "pitch": 53,
              "velocity": 85,
              "position": 10,
              "duration": 1.9854166666666666
            },
            {
              "pitch": 43,
              "velocity": 85,
              "position": 12,
              "duration": 1.9854166666666666
            },
            {
              "pitch": 51,
              "velocity": 85,
              "position": 12,
              "duration": 1.9854166666666666
            },
            {
              "pitch": 44,
              "velocity": 85,
              "position": 8,
              "duration": 7.985416666666667
            },
            {
              "pitch": 48,
              "velocity": 85,
              "position": 6,
              "duration": 9.985416666666667
            },
            {
              "pitch": 53,
              "velocity": 85,
              "position": 14,
              "duration": 1.9854166666666666
            },
            {
              "pitch": 46,
              "velocity": 85,
              "position": 16,
              "duration": 1.9854166666666666
            },
            {
              "pitch": 50,
              "velocity": 85,
              "position": 14,
              "duration": 3.9854166666666666
            },
            {
              "pitch": 45,
              "velocity": 85,
              "position": 18,
              "duration": 1.9854166666666666
            },
            {
              "pitch": 48,
              "velocity": 85,
              "position": 18,
              "duration": 1.9854166666666666
            },
            {
              "pitch": 46,
              "velocity": 85,
              "position": 20,
              "duration": 1.9854166666666666
            },
            {
              "pitch": 50,
              "velocity": 85,
              "position": 20,
              "duration": 1.9854166666666666
            },
            {
              "pitch": 43,
              "velocity": 85,
              "position": 16,
              "duration": 7.485416666666667
            },
            {
              "pitch": 51,
              "velocity": 85,
              "position": 16,
              "duration": 7.485416666666667
            },
            {
              "pitch": 45,
              "velocity": 85,
              "position": 22,
              "duration": 5.485416666666667
            },
            {
              "pitch": 48,
              "velocity": 85,
              "position": 22,
              "duration": 5.485416666666667
            },
            {
              "pitch": 53,
              "velocity": 85,
              "position": 23.5,
              "duration": 3.9854166666666666
            },
            {
              "pitch": 44,
              "velocity": 85,
              "position": 27.5,
              "duration": 4.485416666666667
            },
            {
              "pitch": 47,
              "velocity": 85,
              "position": 27.5,
              "duration": 4.485416666666667
            },
            {
              "pitch": 51,
              "velocity": 85,
              "position": 27.5,
              "duration": 4.485416666666667
            },
            {
              "pitch": 79,
              "velocity": 75,
              "position": 0.010416666666666666,
              "duration": 31.985416666666666
            }
          ]
        },
        "5": {
          "ctab": {
            "srcChannel": 5,
            "name": "Gt B",
            "accType": "CHORD1",
            "editable": false,
            "mutedNotes": [
              11,
              4,
              3,
              2,
              1,
              0
            ],
            "mutedChords": [
              "1+2+5",
              "sus4",
              "1+5",
              "1+8",
              "7aug",
              "Maj7aug",
              "7(#9)",
              "7(b13)",
              "7(b9)",
              "7(13)",
              "7#11",
              "7(9)",
              "7b5",
              "7sus4",
              "7th",
              "aug",
              "Maj6(9)",
              "Maj7(9)",
              "Maj(9)",
              "Maj7#11",
              "Maj7",
              "Maj6",
              "Maj"
            ],
            "autoStart": false,
            "sourceChordNote": 0,
            "sourceChordType": "min",
            "ctb2Low": null,
            "ctb2Main": {
              "ntr": "ROOT_TRANSPOSITION",
              "ntt": "BYPASS",
              "bassOn": false,
              "chordRootUpperLimit": 0,
              "noteLowLimit": 0,
              "noteHighLimit": 127,
              "rtr": "PITCH_SHIFT"
            },
            "ctb2High": null
          },
          "notes": [
            {
              "pitch": 58,
              "velocity": 35,
              "position": 0,
              "duration": 0.475
            },
            {
              "pitch": 63,
              "velocity": 34,
              "position": 0.010416666666666666,
              "duration": 0.475
            },
            {
              "pitch": 67,
              "velocity": 27,
              "position": 0.020833333333333332,
              "duration": 0.46458333333333335
            },
            {
              "pitch": 74,
              "velocity": 26,
              "position": 0.03125,
              "duration": 0.45416666666666666
            },
            {
              "pitch": 58,
              "velocity": 46,
              "position": 0.5,
              "duration": 0.475
            },
            {
              "pitch": 63,
              "velocity": 41,
              "position": 0.5104166666666666,
              "duration": 0.475
            },
            {
              "pitch": 67,
              "velocity": 37,
              "position": 0.5208333333333334,
              "duration": 0.46458333333333335
            },
            {
              "pitch": 74,
              "velocity": 44,
              "position": 0.53125,
              "duration": 0.45416666666666666
            },
            {
              "pitch": 67,
              "velocity": 51,
              "position": 1.0208333333333333,
              "duration": 0.0375
            },
            {
              "pitch": 74,
              "velocity": 56,
              "position": 1.03125,
              "duration": 0.027083333333333334
            },
            {
              "pitch": 58,
              "velocity": 53,
              "position": 1.5,
              "duration": 0.0375
            },
            {
              "pitch": 63,
              "velocity": 53,
              "position": 1.5104166666666667,
              "duration": 0.04791666666666667
            },
            {
              "pitch": 57,
              "velocity": 56,
              "position": 2,
              "duration": 0.48541666666666666
            },
            {
              "pitch": 63,
              "velocity": 53,
              "position": 2.0104166666666665,
              "duration": 0.475
            },
            {
              "pitch": 67,
              "velocity": 53,
              "position": 2.0208333333333335,
              "duration": 0.46458333333333335
            },
            {
              "pitch": 72,
              "velocity": 57,
              "position": 2.03125,
              "duration": 0.45416666666666666
            },
            {
              "pitch": 57,
              "velocity": 56,
              "position": 3,
              "duration": 0.48541666666666666
            },
            {
              "pitch": 63,
              "velocity": 53,
              "position": 3.0104166666666665,
              "duration": 0.475
            },
            {
              "pitch": 67,
              "velocity": 53,
              "position": 3.0208333333333335,
              "duration": 0.46458333333333335
            },
            {
              "pitch": 72,
              "velocity": 57,
              "position": 3.03125,
              "duration": 0.45416666666666666
            },
            {
              "pitch": 58,
              "velocity": 59,
              "position": 4,
              "duration": 0.475
            },
            {
              "pitch": 63,
              "velocity": 51,
              "position": 4.010416666666667,
              "duration": 0.475
            },
            {
              "pitch": 67,
              "velocity": 56,
              "position": 4.020833333333333,
              "duration": 0.46458333333333335
            },
            {
              "pitch": 74,
              "velocity": 58,
              "position": 4.03125,
              "duration": 0.45416666666666666
            },
            {
              "pitch": 58,
              "velocity": 44,
              "position": 4.5,
              "duration": 0.475
            },
            {
              "pitch": 63,
              "velocity": 37,
              "position": 4.510416666666667,
              "duration": 0.475
            },
            {
              "pitch": 67,
              "velocity": 46,
              "position": 4.520833333333333,
              "duration": 0.46458333333333335
            },
            {
              "pitch": 74,
              "velocity": 45,
              "position": 4.53125,
              "duration": 0.45416666666666666
            },
            {
              "pitch": 58,
              "velocity": 56,
              "position": 5,
              "duration": 0.0375
            },
            {
              "pitch": 67,
              "velocity": 55,
              "position": 5.020833333333333,
              "duration": 0.027083333333333334
            },
            {
              "pitch": 74,
              "velocity": 53,
              "position": 5.03125,
              "duration": 0.027083333333333334
            },
            {
              "pitch": 63,
              "velocity": 54,
              "position": 5.010416666666667,
              "duration": 0.058333333333333334
            },
            {
              "pitch": 57,
              "velocity": 53,
              "position": 5.5,
              "duration": 0.475
            },
            {
              "pitch": 63,
              "velocity": 58,
              "position": 5.510416666666667,
              "duration": 0.475
            },
            {
              "pitch": 67,
              "velocity": 51,
              "position": 5.520833333333333,
              "duration": 0.46458333333333335
            },
            {
              "pitch": 72,
              "velocity": 59,
              "position": 5.53125,
              "duration": 0.45416666666666666
            },
            {
              "pitch": 57,
              "velocity": 42,
              "position": 6.5,
              "duration": 0.48541666666666666
            },
            {
              "pitch": 63,
              "velocity": 40,
              "position": 6.510416666666667,
              "duration": 0.475
            },
            {
              "pitch": 67,
              "velocity": 45,
              "position": 6.520833333333333,
              "duration": 0.46458333333333335
            },
            {
              "pitch": 72,
              "velocity": 41,
              "position": 6.53125,
              "duration": 0.45416666666666666
            },
            {
              "pitch": 57,
              "velocity": 51,
              "position": 7,
              "duration": 0.0375
            },
            {
              "pitch": 67,
              "velocity": 52,
              "position": 7.020833333333333,
              "duration": 0.027083333333333334
            },
            {
              "pitch": 63,
              "velocity": 54,
              "position": 7.010416666666667,
              "duration": 0.058333333333333334
            },
            {
              "pitch": 72,
              "velocity": 56,
              "position": 7.03125,
              "duration": 0.0375
            },
            {
              "pitch": 56,
              "velocity": 57,
              "position": 7.5,
              "duration": 0.475
            },
            {
              "pitch": 63,
              "velocity": 56,
              "position": 7.510416666666667,
              "duration": 0.475
            },
            {
              "pitch": 67,
              "velocity": 56,
              "position": 7.520833333333333,
              "duration": 0.46458333333333335
            },
            {
              "pitch": 72,
              "velocity": 59,
              "position": 7.53125,
              "duration": 0.45416666666666666
            },
            {
              "pitch": 56,
              "velocity": 31,
              "position": 8,
              "duration": 0.48541666666666666
            },
            {
              "pitch": 63,
              "velocity": 25,
              "position": 8.010416666666666,
              "duration": 0.475
            },
            {
              "pitch": 67,
              "velocity": 26,
              "position": 8.020833333333334,
              "duration": 0.46458333333333335
            },
            {
              "pitch": 72,
              "velocity": 30,
              "position": 8.03125,
              "duration": 0.45416666666666666
            },
            {
              "pitch": 56,
              "velocity": 41,
              "position": 8.5,
              "duration": 0.48541666666666666
            },
            {
              "pitch": 63,
              "velocity": 42,
              "position": 8.510416666666666,
              "duration": 0.475
            },
            {
              "pitch": 67,
              "velocity": 44,
              "position": 8.520833333333334,
              "duration": 0.46458333333333335
            },
            {
              "pitch": 72,
              "velocity": 38,
              "position": 8.53125,
              "duration": 0.45416666666666666
            },
            {
              "pitch": 67,
              "velocity": 59,
              "position": 9.020833333333334,
              "duration": 0.027083333333333334
            },
            {
              "pitch": 72,
              "velocity": 59,
              "position": 9.03125,
              "duration": 0.027083333333333334
            },
            {
              "pitch": 56,
              "velocity": 57,
              "position": 9.5,
              "duration": 0.027083333333333334
            },
            {
              "pitch": 63,
              "velocity": 55,
              "position": 9.510416666666666,
              "duration": 0.04791666666666667
            },
            {
              "pitch": 56,
              "velocity": 52,
              "position": 10,
              "duration": 0.48541666666666666
            },
            {
              "pitch": 62,
              "velocity": 54,
              "position": 10.010416666666666,
              "duration": 0.475
            },
            {
              "pitch": 65,
              "velocity": 51,
              "position": 10.020833333333334,
              "duration": 0.46458333333333335
            },
            {
              "pitch": 72,
              "velocity": 51,
              "position": 10.03125,
              "duration": 0.45416666666666666
            },
            {
              "pitch": 56,
              "velocity": 52,
              "position": 11,
              "duration": 0.48541666666666666
            },
            {
              "pitch": 62,
              "velocity": 54,
              "position": 11.010416666666666,
              "duration": 0.475
            },
            {
              "pitch": 65,
              "velocity": 51,
              "position": 11.020833333333334,
              "duration": 0.46458333333333335
            },
            {
              "pitch": 72,
              "velocity": 51,
              "position": 11.03125,
              "duration": 0.45416666666666666
            },
            {
              "pitch": 56,
              "velocity": 57,
              "position": 12,
              "duration": 0.475
            },
            {
              "pitch": 63,
              "velocity": 56,
              "position": 12.010416666666666,
              "duration": 0.475
            },
            {
              "pitch": 67,
              "velocity": 56,
              "position": 12.020833333333334,
              "duration": 0.46458333333333335
            },
            {
              "pitch": 72,
              "velocity": 59,
              "position": 12.03125,
              "duration": 0.45416666666666666
            },
            {
              "pitch": 56,
              "velocity": 41,
              "position": 12.5,
              "duration": 0.48541666666666666
            },
            {
              "pitch": 63,
              "velocity": 42,
              "position": 12.510416666666666,
              "duration": 0.475
            },
            {
              "pitch": 67,
              "velocity": 44,
              "position": 12.520833333333334,
              "duration": 0.46458333333333335
            },
            {
              "pitch": 72,
              "velocity": 38,
              "position": 12.53125,
              "duration": 0.45416666666666666
            },
            {
              "pitch": 56,
              "velocity": 57,
              "position": 13,
              "duration": 0.027083333333333334
            },
            {
              "pitch": 63,
              "velocity": 55,
              "position": 13.010416666666666,
              "duration": 0.027083333333333334
            },
            {
              "pitch": 67,
              "velocity": 59,
              "position": 13.020833333333334,
              "duration": 0.027083333333333334
            },
            {
              "pitch": 72,
              "velocity": 59,
              "position": 13.03125,
              "duration": 0.027083333333333334
            },
            {
              "pitch": 56,
              "velocity": 52,
              "position": 13.5,
              "duration": 0.48541666666666666
            },
            {
              "pitch": 62,
              "velocity": 54,
              "position": 13.510416666666666,
              "duration": 0.475
            },
            {
              "pitch": 65,
              "velocity": 51,
              "position": 13.520833333333334,
              "duration": 0.46458333333333335
            },
            {
              "pitch": 72,
              "velocity": 51,
              "position": 13.53125,
              "duration": 0.45416666666666666
            },
            {
              "pitch": 56,
              "velocity": 41,
              "position": 14.5,
              "duration": 0.475
            },
            {
              "pitch": 62,
              "velocity": 44,
              "position": 14.510416666666666,
              "duration": 0.475
            },
            {
              "pitch": 65,
              "velocity": 44,
              "position": 14.520833333333334,
              "duration": 0.46458333333333335
            },
            {
              "pitch": 72,
              "velocity": 42,
              "position": 14.53125,
              "duration": 0.45416666666666666
            },
            {
              "pitch": 56,
              "velocity": 54,
              "position": 15,
              "duration": 0.0375
            },
            {
              "pitch": 62,
              "velocity": 55,
              "position": 15.010416666666666,
              "duration": 0.027083333333333334
            },
            {
              "pitch": 65,
              "velocity": 56,
              "position": 15.020833333333334,
              "duration": 0.027083333333333334
            },
            {
              "pitch": 72,
              "velocity": 53,
              "position": 15.03125,
              "duration": 0.0375
            },
            {
              "pitch": 58,
              "velocity": 59,
              "position": 15.5,
              "duration": 0.475
            },
            {
              "pitch": 63,
              "velocity": 51,
              "position": 15.510416666666666,
              "duration": 0.475
            },
            {
              "pitch": 67,
              "velocity": 56,
              "position": 15.520833333333334,
              "duration": 0.46458333333333335
            },
            {
              "pitch": 74,
              "velocity": 58,
              "position": 15.53125,
              "duration": 0.45416666666666666
            },
            {
              "pitch": 58,
              "velocity": 35,
              "position": 16,
              "duration": 0.475
            },
            {
              "pitch": 63,
              "velocity": 34,
              "position": 16.010416666666668,
              "duration": 0.475
            },
            {
              "pitch": 67,
              "velocity": 27,
              "position": 16.020833333333332,
              "duration": 0.46458333333333335
            },
            {
              "pitch": 74,
              "velocity": 26,
              "position": 16.03125,
              "duration": 0.45416666666666666
            },
            {
              "pitch": 58,
              "velocity": 46,
              "position": 16.5,
              "duration": 0.475
            },
            {
              "pitch": 63,
              "velocity": 41,
              "position": 16.510416666666668,
              "duration": 0.475
            },
            {
              "pitch": 67,
              "velocity": 37,
              "position": 16.520833333333332,
              "duration": 0.46458333333333335
            },
            {
              "pitch": 74,
              "velocity": 44,
              "position": 16.53125,
              "duration": 0.45416666666666666
            },
            {
              "pitch": 67,
              "velocity": 51,
              "position": 17.020833333333332,
              "duration": 0.0375
            },
            {
              "pitch": 74,
              "velocity": 56,
              "position": 17.03125,
              "duration": 0.027083333333333334
            },
            {
              "pitch": 58,
              "velocity": 53,
              "position": 17.5,
              "duration": 0.0375
            },
            {
              "pitch": 63,
              "velocity": 53,
              "position": 17.510416666666668,
              "duration": 0.027083333333333334
            },
            {
              "pitch": 57,
              "velocity": 56,
              "position": 18,
              "duration": 0.48541666666666666
            },
            {
              "pitch": 63,
              "velocity": 53,
              "position": 18.010416666666668,
              "duration": 0.475
            },
            {
              "pitch": 67,
              "velocity": 53,
              "position": 18.020833333333332,
              "duration": 0.46458333333333335
            },
            {
              "pitch": 72,
              "velocity": 57,
              "position": 18.03125,
              "duration": 0.45416666666666666
            },
            {
              "pitch": 57,
              "velocity": 56,
              "position": 19,
              "duration": 0.48541666666666666
            },
            {
              "pitch": 63,
              "velocity": 53,
              "position": 19.010416666666668,
              "duration": 0.475
            },
            {
              "pitch": 67,
              "velocity": 53,
              "position": 19.020833333333332,
              "duration": 0.46458333333333335
            },
            {
              "pitch": 72,
              "velocity": 57,
              "position": 19.03125,
              "duration": 0.45416666666666666
            },
            {
              "pitch": 58,
              "velocity": 59,
              "position": 20,
              "duration": 0.475
            },
            {
              "pitch": 63,
              "velocity": 51,
              "position": 20.010416666666668,
              "duration": 0.475
            },
            {
              "pitch": 67,
              "velocity": 56,
              "position": 20.020833333333332,
              "duration": 0.46458333333333335
            },
            {
              "pitch": 74,
              "velocity": 58,
              "position": 20.03125,
              "duration": 0.45416666666666666
            },
            {
              "pitch": 58,
              "velocity": 44,
              "position": 20.5,
              "duration": 0.475
            },
            {
              "pitch": 63,
              "velocity": 37,
              "position": 20.510416666666668,
              "duration": 0.475
            },
            {
              "pitch": 67,
              "velocity": 46,
              "position": 20.520833333333332,
              "duration": 0.46458333333333335
            },
            {
              "pitch": 74,
              "velocity": 45,
              "position": 20.53125,
              "duration": 0.45416666666666666
            },
            {
              "pitch": 58,
              "velocity": 56,
              "position": 21,
              "duration": 0.0375
            },
            {
              "pitch": 63,
              "velocity": 54,
              "position": 21.010416666666668,
              "duration": 0.0375
            },
            {
              "pitch": 67,
              "velocity": 55,
              "position": 21.020833333333332,
              "duration": 0.027083333333333334
            },
            {
              "pitch": 74,
              "velocity": 53,
              "position": 21.03125,
              "duration": 0.027083333333333334
            },
            {
              "pitch": 57,
              "velocity": 53,
              "position": 21.5,
              "duration": 0.475
            },
            {
              "pitch": 63,
              "velocity": 58,
              "position": 21.510416666666668,
              "duration": 0.475
            },
            {
              "pitch": 67,
              "velocity": 51,
              "position": 21.520833333333332,
              "duration": 0.46458333333333335
            },
            {
              "pitch": 72,
              "velocity": 59,
              "position": 21.53125,
              "duration": 0.45416666666666666
            },
            {
              "pitch": 57,
              "velocity": 42,
              "position": 22.5,
              "duration": 0.48541666666666666
            },
            {
              "pitch": 63,
              "velocity": 40,
              "position": 22.510416666666668,
              "duration": 0.475
            },
            {
              "pitch": 67,
              "velocity": 45,
              "position": 22.520833333333332,
              "duration": 0.46458333333333335
            },
            {
              "pitch": 72,
              "velocity": 41,
              "position": 22.53125,
              "duration": 0.45416666666666666
            },
            {
              "pitch": 57,
              "velocity": 51,
              "position": 23,
              "duration": 0.0375
            },
            {
              "pitch": 63,
              "velocity": 54,
              "position": 23.010416666666668,
              "duration": 0.0375
            },
            {
              "pitch": 67,
              "velocity": 52,
              "position": 23.020833333333332,
              "duration": 0.027083333333333334
            },
            {
              "pitch": 72,
              "velocity": 56,
              "position": 23.03125,
              "duration": 0.0375
            },
            {
              "pitch": 57,
              "velocity": 59,
              "position": 23.5,
              "duration": 0.475
            },
            {
              "pitch": 65,
              "velocity": 56,
              "position": 23.510416666666668,
              "duration": 0.475
            },
            {
              "pitch": 67,
              "velocity": 56,
              "position": 23.520833333333332,
              "duration": 0.46458333333333335
            },
            {
              "pitch": 72,
              "velocity": 58,
              "position": 23.53125,
              "duration": 0.45416666666666666
            },
            {
              "pitch": 57,
              "velocity": 35,
              "position": 24,
              "duration": 0.475
            },
            {
              "pitch": 65,
              "velocity": 27,
              "position": 24.010416666666668,
              "duration": 0.475
            },
            {
              "pitch": 67,
              "velocity": 27,
              "position": 24.020833333333332,
              "duration": 0.46458333333333335
            },
            {
              "pitch": 72,
              "velocity": 26,
              "position": 24.03125,
              "duration": 0.45416666666666666
            },
            {
              "pitch": 57,
              "velocity": 46,
              "position": 24.5,
              "duration": 0.475
            },
            {
              "pitch": 65,
              "velocity": 37,
              "position": 24.510416666666668,
              "duration": 0.475
            },
            {
              "pitch": 67,
              "velocity": 37,
              "position": 24.520833333333332,
              "duration": 0.46458333333333335
            },
            {
              "pitch": 72,
              "velocity": 44,
              "position": 24.53125,
              "duration": 0.45416666666666666
            },
            {
              "pitch": 67,
              "velocity": 51,
              "position": 25.020833333333332,
              "duration": 0.0375
            },
            {
              "pitch": 72,
              "velocity": 56,
              "position": 25.03125,
              "duration": 0.027083333333333334
            },
            {
              "pitch": 57,
              "velocity": 53,
              "position": 25.5,
              "duration": 0.0375
            },
            {
              "pitch": 65,
              "velocity": 51,
              "position": 25.510416666666668,
              "duration": 0.0375
            },
            {
              "pitch": 57,
              "velocity": 59,
              "position": 26,
              "duration": 0.475
            },
            {
              "pitch": 65,
              "velocity": 56,
              "position": 26.010416666666668,
              "duration": 0.475
            },
            {
              "pitch": 67,
              "velocity": 56,
              "position": 26.020833333333332,
              "duration": 0.46458333333333335
            },
            {
              "pitch": 72,
              "velocity": 58,
              "position": 26.03125,
              "duration": 0.45416666666666666
            },
            {
              "pitch": 57,
              "velocity": 46,
              "position": 26.5,
              "duration": 0.475
            },
            {
              "pitch": 65,
              "velocity": 37,
              "position": 26.510416666666668,
              "duration": 0.475
            },
            {
              "pitch": 67,
              "velocity": 37,
              "position": 26.520833333333332,
              "duration": 0.46458333333333335
            },
            {
              "pitch": 72,
              "velocity": 44,
              "position": 26.53125,
              "duration": 0.45416666666666666
            },
            {
              "pitch": 57,
              "velocity": 53,
              "position": 27,
              "duration": 0.0375
            },
            {
              "pitch": 65,
              "velocity": 51,
              "position": 27.010416666666668,
              "duration": 0.0375
            },
            {
              "pitch": 67,
              "velocity": 51,
              "position": 27.020833333333332,
              "duration": 0.0375
            },
            {
              "pitch": 72,
              "velocity": 56,
              "position": 27.03125,
              "duration": 0.027083333333333334
            },
            {
              "pitch": 59,
              "velocity": 58,
              "position": 27.5,
              "duration": 4.475
            },
            {
              "pitch": 65,
              "velocity": 58,
              "position": 27.510416666666668,
              "duration": 4.475
            },
            {
              "pitch": 68,
              "velocity": 58,
              "position": 27.520833333333332,
              "duration": 4.464583333333334
            },
            {
              "pitch": 75,
              "velocity": 59,
              "position": 27.53125,
              "duration": 4.454166666666667
            }
          ]
        },
        "8": {
          "ctab": {
            "srcChannel": 8,
            "name": "Perc",
            "accType": "SUBRHYTHM",
            "editable": false,
            "mutedNotes": [],
            "mutedChords": [],
            "autoStart": true,
            "sourceChordNote": 0,
            "sourceChordType": "Maj7",
            "ctb2Low": null,
            "ctb2Main": {
              "ntr": "ROOT_FIXED",
              "ntt": "BYPASS",
              "bassOn": false,
              "chordRootUpperLimit": 6,
              "noteLowLimit": 0,
              "noteHighLimit": 127,
              "rtr": "PITCH_SHIFT"
            },
            "ctb2High": null
          },
          "notes": [
            {
              "pitch": 82,
              "velocity": 56,
              "position": 0,
              "duration": 0.00625
            },
            {
              "pitch": 82,
              "velocity": 38,
              "position": 0.25,
              "duration": 0.00625
            },
            {
              "pitch": 82,
              "velocity": 32,
              "position": 0.5,
              "duration": 0.00625
            },
            {
              "pitch": 82,
              "velocity": 32,
              "position": 0.75,
              "duration": 0.00625
            },
            {
              "pitch": 82,
              "velocity": 88,
              "position": 1,
              "duration": 0.00625
            },
            {
              "pitch": 82,
              "velocity": 32,
              "position": 1.5,
              "duration": 0.00625
            },
            {
              "pitch": 82,
              "velocity": 56,
              "position": 2,
              "duration": 0.00625
            },
            {
              "pitch": 82,
              "velocity": 32,
              "position": 2.5,
              "duration": 0.00625
            },
            {
              "pitch": 82,
              "velocity": 88,
              "position": 3,
              "duration": 0.00625
            },
            {
              "pitch": 82,
              "velocity": 32,
              "position": 3.5,
              "duration": 0.00625
            },
            {
              "pitch": 82,
              "velocity": 56,
              "position": 4,
              "duration": 0.00625
            },
            {
              "pitch": 82,
              "velocity": 32,
              "position": 4.5,
              "duration": 0.00625
            },
            {
              "pitch": 82,
              "velocity": 88,
              "position": 5,
              "duration": 0.00625
            },
            {
              "pitch": 82,
              "velocity": 32,
              "position": 5.5,
              "duration": 0.00625
            },
            {
              "pitch": 82,
              "velocity": 56,
              "position": 6,
              "duration": 0.00625
            },
            {
              "pitch": 82,
              "velocity": 32,
              "position": 6.5,
              "duration": 0.00625
            },
            {
              "pitch": 82,
              "velocity": 88,
              "position": 7,
              "duration": 0.00625
            },
            {
              "pitch": 82,
              "velocity": 32,
              "position": 7.5,
              "duration": 0.00625
            },
            {
              "pitch": 82,
              "velocity": 56,
              "position": 8,
              "duration": 0.00625
            },
            {
              "pitch": 82,
              "velocity": 38,
              "position": 8.25,
              "duration": 0.00625
            },
            {
              "pitch": 82,
              "velocity": 32,
              "position": 8.5,
              "duration": 0.00625
            },
            {
              "pitch": 82,
              "velocity": 32,
              "position": 8.75,
              "duration": 0.00625
            },
            {
              "pitch": 82,
              "velocity": 88,
              "position": 9,
              "duration": 0.00625
            },
            {
              "pitch": 82,
              "velocity": 32,
              "position": 9.5,
              "duration": 0.00625
            },
            {
              "pitch": 82,
              "velocity": 56,
              "position": 10,
              "duration": 0.00625
            },
            {
              "pitch": 82,
              "velocity": 32,
              "position": 10.5,
              "duration": 0.00625
            },
            {
              "pitch": 82,
              "velocity": 88,
              "position": 11,
              "duration": 0.00625
            },
            {
              "pitch": 82,
              "velocity": 32,
              "position": 11.5,
              "duration": 0.00625
            },
            {
              "pitch": 82,
              "velocity": 56,
              "position": 12,
              "duration": 0.00625
            },
            {
              "pitch": 82,
              "velocity": 32,
              "position": 12.5,
              "duration": 0.00625
            },
            {
              "pitch": 82,
              "velocity": 88,
              "position": 13,
              "duration": 0.00625
            },
            {
              "pitch": 82,
              "velocity": 32,
              "position": 13.5,
              "duration": 0.00625
            },
            {
              "pitch": 82,
              "velocity": 56,
              "position": 14,
              "duration": 0.00625
            },
            {
              "pitch": 82,
              "velocity": 32,
              "position": 14.5,
              "duration": 0.00625
            },
            {
              "pitch": 82,
              "velocity": 88,
              "position": 15,
              "duration": 0.00625
            },
            {
              "pitch": 82,
              "velocity": 32,
              "position": 15.5,
              "duration": 0.00625
            },
            {
              "pitch": 82,
              "velocity": 56,
              "position": 16,
              "duration": 0.00625
            },
            {
              "pitch": 82,
              "velocity": 38,
              "position": 16.25,
              "duration": 0.00625
            },
            {
              "pitch": 82,
              "velocity": 32,
              "position": 16.5,
              "duration": 0.00625
            },
            {
              "pitch": 82,
              "velocity": 32,
              "position": 16.75,
              "duration": 0.00625
            },
            {
              "pitch": 82,
              "velocity": 88,
              "position": 17,
              "duration": 0.00625
            },
            {
              "pitch": 82,
              "velocity": 32,
              "position": 17.5,
              "duration": 0.00625
            },
            {
              "pitch": 82,
              "velocity": 56,
              "position": 18,
              "duration": 0.00625
            },
            {
              "pitch": 82,
              "velocity": 32,
              "position": 18.5,
              "duration": 0.00625
            },
            {
              "pitch": 82,
              "velocity": 88,
              "position": 19,
              "duration": 0.00625
            },
            {
              "pitch": 82,
              "velocity": 32,
              "position": 19.5,
              "duration": 0.00625
            },
            {
              "pitch": 82,
              "velocity": 56,
              "position": 20,
              "duration": 0.00625
            },
            {
              "pitch": 82,
              "velocity": 32,
              "position": 20.5,
              "duration": 0.00625
            },
            {
              "pitch": 82,
              "velocity": 88,
              "position": 21,
              "duration": 0.00625
            },
            {
              "pitch": 82,
              "velocity": 32,
              "position": 21.5,
              "duration": 0.00625
            },
            {
              "pitch": 82,
              "velocity": 56,
              "position": 22,
              "duration": 0.00625
            },
            {
              "pitch": 82,
              "velocity": 32,
              "position": 22.5,
              "duration": 0.00625
            },
            {
              "pitch": 82,
              "velocity": 88,
              "position": 23,
              "duration": 0.00625
            },
            {
              "pitch": 82,
              "velocity": 32,
              "position": 23.5,
              "duration": 0.00625
            },
            {
              "pitch": 82,
              "velocity": 56,
              "position": 24,
              "duration": 0.00625
            },
            {
              "pitch": 82,
              "velocity": 32,
              "position": 24.5,
              "duration": 0.00625
            },
            {
              "pitch": 82,
              "velocity": 88,
              "position": 25,
              "duration": 0.00625
            },
            {
              "pitch": 82,
              "velocity": 32,
              "position": 25.5,
              "duration": 0.00625
            },
            {
              "pitch": 82,
              "velocity": 56,
              "position": 26,
              "duration": 0.00625
            },
            {
              "pitch": 82,
              "velocity": 32,
              "position": 26.5,
              "duration": 0.00625
            },
            {
              "pitch": 82,
              "velocity": 88,
              "position": 27,
              "duration": 0.00625
            },
            {
              "pitch": 82,
              "velocity": 32,
              "position": 27.5,
              "duration": 0.00625
            }
          ]
        },
        "9": {
          "ctab": {
            "srcChannel": 9,
            "name": "Drums",
            "accType": "RHYTHM",
            "editable": false,
            "mutedNotes": [],
            "mutedChords": [],
            "autoStart": true,
            "sourceChordNote": 0,
            "sourceChordType": "Maj7",
            "ctb2Low": null,
            "ctb2Main": {
              "ntr": "ROOT_FIXED",
              "ntt": "BYPASS",
              "bassOn": false,
              "chordRootUpperLimit": 6,
              "noteLowLimit": 0,
              "noteHighLimit": 127,
              "rtr": "PITCH_SHIFT"
            },
            "ctb2High": null
          },
          "notes": [
            {
              "pitch": 33,
              "velocity": 72,
              "position": 0,
              "duration": 0.00625
            },
            {
              "pitch": 44,
              "velocity": 32,
              "position": 0,
              "duration": 0.00625
            },
            {
              "pitch": 59,
              "velocity": 90,
              "position": 0,
              "duration": 0.00625
            },
            {
              "pitch": 38,
              "velocity": 72,
              "position": 0.5,
              "duration": 0.00625
            },
            {
              "pitch": 59,
              "velocity": 41,
              "position": 0.5,
              "duration": 0.00625
            },
            {
              "pitch": 44,
              "velocity": 62,
              "position": 1,
              "duration": 0.00625
            },
            {
              "pitch": 59,
              "velocity": 90,
              "position": 1,
              "duration": 0.00625
            },
            {
              "pitch": 33,
              "velocity": 36,
              "position": 1.5,
              "duration": 0.00625
            },
            {
              "pitch": 59,
              "velocity": 41,
              "position": 1.5,
              "duration": 0.00625
            },
            {
              "pitch": 33,
              "velocity": 72,
              "position": 2,
              "duration": 0.00625
            },
            {
              "pitch": 41,
              "velocity": 64,
              "position": 2,
              "duration": 0.00625
            },
            {
              "pitch": 44,
              "velocity": 32,
              "position": 2,
              "duration": 0.00625
            },
            {
              "pitch": 59,
              "velocity": 90,
              "position": 2,
              "duration": 0.00625
            },
            {
              "pitch": 59,
              "velocity": 41,
              "position": 2.5,
              "duration": 0.00625
            },
            {
              "pitch": 44,
              "velocity": 62,
              "position": 3,
              "duration": 0.00625
            },
            {
              "pitch": 59,
              "velocity": 41,
              "position": 3,
              "duration": 0.00625
            },
            {
              "pitch": 33,
              "velocity": 36,
              "position": 3.5,
              "duration": 0.00625
            },
            {
              "pitch": 38,
              "velocity": 48,
              "position": 3.5,
              "duration": 0.00625
            },
            {
              "pitch": 59,
              "velocity": 90,
              "position": 3.5,
              "duration": 0.00625
            },
            {
              "pitch": 38,
              "velocity": 36,
              "position": 3.6666666666666665,
              "duration": 0.00625
            },
            {
              "pitch": 38,
              "velocity": 24,
              "position": 3.8333333333333335,
              "duration": 0.00625
            },
            {
              "pitch": 33,
              "velocity": 72,
              "position": 4,
              "duration": 0.00625
            },
            {
              "pitch": 44,
              "velocity": 32,
              "position": 4,
              "duration": 0.00625
            },
            {
              "pitch": 59,
              "velocity": 41,
              "position": 4,
              "duration": 0.00625
            },
            {
              "pitch": 38,
              "velocity": 72,
              "position": 4.5,
              "duration": 0.00625
            },
            {
              "pitch": 59,
              "velocity": 90,
              "position": 4.5,
              "duration": 0.00625
            },
            {
              "pitch": 44,
              "velocity": 62,
              "position": 5,
              "duration": 0.00625
            },
            {
              "pitch": 59,
              "velocity": 41,
              "position": 5,
              "duration": 0.00625
            },
            {
              "pitch": 33,
              "velocity": 36,
              "position": 5.5,
              "duration": 0.00625
            },
            {
              "pitch": 59,
              "velocity": 90,
              "position": 5.5,
              "duration": 0.00625
            },
            {
              "pitch": 33,
              "velocity": 72,
              "position": 6,
              "duration": 0.00625
            },
            {
              "pitch": 41,
              "velocity": 64,
              "position": 6,
              "duration": 0.00625
            },
            {
              "pitch": 44,
              "velocity": 32,
              "position": 6,
              "duration": 0.00625
            },
            {
              "pitch": 59,
              "velocity": 41,
              "position": 6,
              "duration": 0.00625
            },
            {
              "pitch": 59,
              "velocity": 41,
              "position": 6.5,
              "duration": 0.00625
            },
            {
              "pitch": 44,
              "velocity": 62,
              "position": 7,
              "duration": 0.00625
            },
            {
              "pitch": 59,
              "velocity": 90,
              "position": 7,
              "duration": 0.00625
            },
            {
              "pitch": 33,
              "velocity": 36,
              "position": 7.5,
              "duration": 0.00625
            },
            {
              "pitch": 38,
              "velocity": 48,
              "position": 7.5,
              "duration": 0.00625
            },
            {
              "pitch": 59,
              "velocity": 41,
              "position": 7.5,
              "duration": 0.00625
            },
            {
              "pitch": 33,
              "velocity": 72,
              "position": 8,
              "duration": 0.00625
            },
            {
              "pitch": 44,
              "velocity": 32,
              "position": 8,
              "duration": 0.00625
            },
            {
              "pitch": 59,
              "velocity": 90,
              "position": 8,
              "duration": 0.00625
            },
            {
              "pitch": 38,
              "velocity": 72,
              "position": 8.5,
              "duration": 0.00625
            },
            {
              "pitch": 59,
              "velocity": 41,
              "position": 8.5,
              "duration": 0.00625
            },
            {
              "pitch": 44,
              "velocity": 62,
              "position": 9,
              "duration": 0.00625
            },
            {
              "pitch": 59,
              "velocity": 90,
              "position": 9,
              "duration": 0.00625
            },
            {
              "pitch": 33,
              "velocity": 36,
              "position": 9.5,
              "duration": 0.00625
            },
            {
              "pitch": 59,
              "velocity": 41,
              "position": 9.5,
              "duration": 0.00625
            },
            {
              "pitch": 33,
              "velocity": 72,
              "position": 10,
              "duration": 0.00625
            },
            {
              "pitch": 41,
              "velocity": 64,
              "position": 10,
              "duration": 0.00625
            },
            {
              "pitch": 44,
              "velocity": 32,
              "position": 10,
              "duration": 0.00625
            },
            {
              "pitch": 59,
              "velocity": 90,
              "position": 10,
              "duration": 0.00625
            },
            {
              "pitch": 41,
              "velocity": 44,
              "position": 10.5,
              "duration": 0.00625
            },
            {
              "pitch": 59,
              "velocity": 41,
              "position": 10.5,
              "duration": 0.00625
            },
            {
              "pitch": 44,
              "velocity": 62,
              "position": 11,
              "duration": 0.00625
            },
            {
              "pitch": 59,
              "velocity": 41,
              "position": 11,
              "duration": 0.00625
            },
            {
              "pitch": 33,
              "velocity": 36,
              "position": 11.5,
              "duration": 0.00625
            },
            {
              "pitch": 41,
              "velocity": 44,
              "position": 11.5,
              "duration": 0.00625
            },
            {
              "pitch": 59,
              "velocity": 90,
              "position": 11.5,
              "duration": 0.00625
            },
            {
              "pitch": 33,
              "velocity": 72,
              "position": 12,
              "duration": 0.00625
            },
            {
              "pitch": 44,
              "velocity": 32,
              "position": 12,
              "duration": 0.00625
            },
            {
              "pitch": 59,
              "velocity": 41,
              "position": 12,
              "duration": 0.00625
            },
            {
              "pitch": 38,
              "velocity": 78,
              "position": 12.5,
              "duration": 0.00625
            },
            {
              "pitch": 59,
              "velocity": 90,
              "position": 12.5,
              "duration": 0.00625
            },
            {
              "pitch": 44,
              "velocity": 62,
              "position": 13,
              "duration": 0.00625
            },
            {
              "pitch": 59,
              "velocity": 41,
              "position": 13,
              "duration": 0.00625
            },
            {
              "pitch": 33,
              "velocity": 36,
              "position": 13.5,
              "duration": 0.00625
            },
            {
              "pitch": 59,
              "velocity": 90,
              "position": 13.5,
              "duration": 0.00625
            },
            {
              "pitch": 33,
              "velocity": 72,
              "position": 14,
              "duration": 0.00625
            },
            {
              "pitch": 41,
              "velocity": 64,
              "position": 14,
              "duration": 0.00625
            },
            {
              "pitch": 44,
              "velocity": 32,
              "position": 14,
              "duration": 0.00625
            },
            {
              "pitch": 59,
              "velocity": 41,
              "position": 14,
              "duration": 0.00625
            },
            {
              "pitch": 59,
              "velocity": 41,
              "position": 14.5,
              "duration": 0.00625
            },
            {
              "pitch": 44,
              "velocity": 62,
              "position": 15,
              "duration": 0.00625
            },
            {
              "pitch": 59,
              "velocity": 90,
              "position": 15,
              "duration": 0.00625
            },
            {
              "pitch": 33,
              "velocity": 36,
              "position": 15.5,
              "duration": 0.00625
            },
            {
              "pitch": 38,
              "velocity": 72,
              "position": 15.5,
              "duration": 0.00625
            },
            {
              "pitch": 59,
              "velocity": 41,
              "position": 15.5,
              "duration": 0.00625
            },
            {
              "pitch": 33,
              "velocity": 72,
              "position": 16,
              "duration": 0.00625
            },
            {
              "pitch": 44,
              "velocity": 32,
              "position": 16,
              "duration": 0.00625
            },
            {
              "pitch": 59,
              "velocity": 90,
              "position": 16,
              "duration": 0.00625
            },
            {
              "pitch": 38,
              "velocity": 72,
              "position": 16.5,
              "duration": 0.00625
            },
            {
              "pitch": 59,
              "velocity": 41,
              "position": 16.5,
              "duration": 0.00625
            },
            {
              "pitch": 44,
              "velocity": 62,
              "position": 17,
              "duration": 0.00625
            },
            {
              "pitch": 59,
              "velocity": 90,
              "position": 17,
              "duration": 0.00625
            },
            {
              "pitch": 33,
              "velocity": 36,
              "position": 17.5,
              "duration": 0.00625
            },
            {
              "pitch": 59,
              "velocity": 41,
              "position": 17.5,
              "duration": 0.00625
            },
            {
              "pitch": 33,
              "velocity": 72,
              "position": 18,
              "duration": 0.00625
            },
            {
              "pitch": 41,
              "velocity": 64,
              "position": 18,
              "duration": 0.00625
            },
            {
              "pitch": 44,
              "velocity": 32,
              "position": 18,
              "duration": 0.00625
            },
            {
              "pitch": 59,
              "velocity": 90,
              "position": 18,
              "duration": 0.00625
            },
            {
              "pitch": 59,
              "velocity": 41,
              "position": 18.5,
              "duration": 0.00625
            },
            {
              "pitch": 44,
              "velocity": 62,
              "position": 19,
              "duration": 0.00625
            },
            {
              "pitch": 59,
              "velocity": 41,
              "position": 19,
              "duration": 0.00625
            },
            {
              "pitch": 33,
              "velocity": 36,
              "position": 19.5,
              "duration": 0.00625
            },
            {
              "pitch": 38,
              "velocity": 48,
              "position": 19.5,
              "duration": 0.00625
            },
            {
              "pitch": 59,
              "velocity": 90,
              "position": 19.5,
              "duration": 0.00625
            },
            {
              "pitch": 38,
              "velocity": 36,
              "position": 19.666666666666668,
              "duration": 0.00625
            },
            {
              "pitch": 38,
              "velocity": 24,
              "position": 19.833333333333332,
              "duration": 0.00625
            },
            {
              "pitch": 33,
              "velocity": 72,
              "position": 20,
              "duration": 0.00625
            },
            {
              "pitch": 44,
              "velocity": 32,
              "position": 20,
              "duration": 0.00625
            },
            {
              "pitch": 59,
              "velocity": 41,
              "position": 20,
              "duration": 0.00625
            },
            {
              "pitch": 38,
              "velocity": 72,
              "position": 20.5,
              "duration": 0.00625
            },
            {
              "pitch": 59,
              "velocity": 90,
              "position": 20.5,
              "duration": 0.00625
            },
            {
              "pitch": 44,
              "velocity": 62,
              "position": 21,
              "duration": 0.00625
            },
            {
              "pitch": 59,
              "velocity": 41,
              "position": 21,
              "duration": 0.00625
            },
            {
              "pitch": 33,
              "velocity": 36,
              "position": 21.5,
              "duration": 0.00625
            },
            {
              "pitch": 59,
              "velocity": 90,
              "position": 21.5,
              "duration": 0.00625
            },
            {
              "pitch": 33,
              "velocity": 72,
              "position": 22,
              "duration": 0.00625
            },
            {
              "pitch": 41,
              "velocity": 64,
              "position": 22,
              "duration": 0.00625
            },
            {
              "pitch": 44,
              "velocity": 32,
              "position": 22,
              "duration": 0.00625
            },
            {
              "pitch": 59,
              "velocity": 41,
              "position": 22,
              "duration": 0.00625
            },
            {
              "pitch": 59,
              "velocity": 41,
              "position": 22.5,
              "duration": 0.00625
            },
            {
              "pitch": 44,
              "velocity": 62,
              "position": 23,
              "duration": 0.00625
            },
            {
              "pitch": 59,
              "velocity": 41,
              "position": 23,
              "duration": 0.00625
            },
            {
              "pitch": 33,
              "velocity": 36,
              "position": 23.5,
              "duration": 0.00625
            },
            {
              "pitch": 38,
              "velocity": 48,
              "position": 23.5,
              "duration": 0.00625
            },
            {
              "pitch": 59,
              "velocity": 90,
              "position": 23.5,
              "duration": 0.00625
            },
            {
              "pitch": 33,
              "velocity": 36,
              "position": 24,
              "duration": 0.00625
            },
            {
              "pitch": 44,
              "velocity": 32,
              "position": 24,
              "duration": 0.00625
            },
            {
              "pitch": 59,
              "velocity": 41,
              "position": 24,
              "duration": 0.00625
            },
            {
              "pitch": 33,
              "velocity": 72,
              "position": 24.5,
              "duration": 0.00625
            },
            {
              "pitch": 38,
              "velocity": 72,
              "position": 24.5,
              "duration": 0.00625
            },
            {
              "pitch": 59,
              "velocity": 46,
              "position": 24.5,
              "duration": 0.00625
            },
            {
              "pitch": 44,
              "velocity": 62,
              "position": 25,
              "duration": 0.00625
            },
            {
              "pitch": 59,
              "velocity": 41,
              "position": 25,
              "duration": 0.00625
            },
            {
              "pitch": 59,
              "velocity": 90,
              "position": 25.5,
              "duration": 0.00625
            },
            {
              "pitch": 33,
              "velocity": 72,
              "position": 26,
              "duration": 0.00625
            },
            {
              "pitch": 44,
              "velocity": 32,
              "position": 26,
              "duration": 0.00625
            },
            {
              "pitch": 59,
              "velocity": 46,
              "position": 26.5,
              "duration": 0.00625
            },
            {
              "pitch": 44,
              "velocity": 62,
              "position": 27,
              "duration": 0.00625
            },
            {
              "pitch": 33,
              "velocity": 72,
              "position": 27.5,
              "duration": 0.00625
            },
            {
              "pitch": 59,
              "velocity": 90,
              "position": 27.5,
              "duration": 0.00625
            },
            {
              "pitch": 44,
              "velocity": 32,
              "position": 28,
              "duration": 0.00625
            },
            {
              "pitch": 38,
              "velocity": 33,
              "position": 28.5,
              "duration": 0.00625
            },
            {
              "pitch": 38,
              "velocity": 76,
              "position": 29,
              "duration": 0.00625
            },
            {
              "pitch": 44,
              "velocity": 62,
              "position": 29,
              "duration": 0.00625
            },
            {
              "pitch": 33,
              "velocity": 72,
              "position": 29.5,
              "duration": 0.00625
            },
            {
              "pitch": 48,
              "velocity": 66,
              "position": 29.5,
              "duration": 0.00625
            },
            {
              "pitch": 44,
              "velocity": 32,
              "position": 30,
              "duration": 0.00625
            },
            {
              "pitch": 47,
              "velocity": 66,
              "position": 30.5,
              "duration": 0.00625
            },
            {
              "pitch": 38,
              "velocity": 36,
              "position": 31,
              "duration": 0.00625
            },
            {
              "pitch": 44,
              "velocity": 62,
              "position": 31,
              "duration": 0.00625
            },
            {
              "pitch": 38,
              "velocity": 72,
              "position": 31.5,
              "duration": 0.00625
            },
            {
              "pitch": 49,
              "velocity": 60,
              "position": 31.989583333333332,
              "duration": 0.00625
            }
          ]
        },
        "10": {
          "ctab": {
            "srcChannel": 10,
            "name": "Bass",
            "accType": "BASS",
            "editable": false,
            "mutedNotes": [],
            "mutedChords": [
              "dim7",
              "dim",
              "minMaj7(9)",
              "minMaj7",
              "min7(11)",
              "min7(9)",
              "min(9)",
              "m7b5",
              "min7",
              "min6",
              "min"
            ],
            "autoStart": false,
            "sourceChordNote": 0,
            "sourceChordType": "Maj",
            "ctb2Low": null,
            "ctb2Main": {
              "ntr": "ROOT_TRANSPOSITION",
              "ntt": "BYPASS",
              "bassOn": false,
              "chordRootUpperLimit": 8,
              "noteLowLimit": 28,
              "noteHighLimit": 127,
              "rtr": "PITCH_SHIFT"
            },
            "ctb2High": null
          },
          "notes": [
            {
              "pitch": 24,
              "velocity": 98,
              "position": 0.010416666666666666,
              "duration": 0.27708333333333335
            },
            {
              "pitch": 24,
              "velocity": 72,
              "position": 1.5,
              "duration": 0.11041666666666666
            },
            {
              "pitch": 31,
              "velocity": 98,
              "position": 2,
              "duration": 1.7770833333333333
            },
            {
              "pitch": 24,
              "velocity": 98,
              "position": 4,
              "duration": 0.27708333333333335
            },
            {
              "pitch": 24,
              "velocity": 72,
              "position": 5.5,
              "duration": 0.11041666666666666
            },
            {
              "pitch": 31,
              "velocity": 98,
              "position": 6,
              "duration": 1.7770833333333333
            },
            {
              "pitch": 34,
              "velocity": 98,
              "position": 8,
              "duration": 0.27708333333333335
            },
            {
              "pitch": 34,
              "velocity": 72,
              "position": 9.5,
              "duration": 0.11041666666666666
            },
            {
              "pitch": 29,
              "velocity": 98,
              "position": 10,
              "duration": 1.81875
            },
            {
              "pitch": 34,
              "velocity": 98,
              "position": 12,
              "duration": 0.27708333333333335
            },
            {
              "pitch": 34,
              "velocity": 72,
              "position": 13.5,
              "duration": 0.11041666666666666
            },
            {
              "pitch": 29,
              "velocity": 98,
              "position": 14,
              "duration": 0.9854166666666667
            },
            {
              "pitch": 29,
              "velocity": 98,
              "position": 15,
              "duration": 0.9854166666666667
            },
            {
              "pitch": 24,
              "velocity": 98,
              "position": 16,
              "duration": 0.27708333333333335
            },
            {
              "pitch": 24,
              "velocity": 72,
              "position": 17.5,
              "duration": 0.11041666666666666
            },
            {
              "pitch": 31,
              "velocity": 98,
              "position": 18,
              "duration": 1.7770833333333333
            },
            {
              "pitch": 24,
              "velocity": 98,
              "position": 20,
              "duration": 0.27708333333333335
            },
            {
              "pitch": 24,
              "velocity": 72,
              "position": 21.5,
              "duration": 0.11041666666666666
            },
            {
              "pitch": 31,
              "velocity": 98,
              "position": 22,
              "duration": 1.7770833333333333
            },
            {
              "pitch": 31,
              "velocity": 98,
              "position": 24.5,
              "duration": 0.27708333333333335
            },
            {
              "pitch": 31,
              "velocity": 98,
              "position": 26,
              "duration": 1.2354166666666666
            },
            {
              "pitch": 31,
              "velocity": 98,
              "position": 27.5,
              "duration": 4.485416666666667
            }
          ]
        },
        "11": {
          "ctab": {
            "srcChannel": 11,
            "name": "Gt A",
            "accType": "CHORD1",
            "editable": false,
            "mutedNotes": [
              10,
              9,
              8,
              7,
              6,
              5
            ],
            "mutedChords": [
              "dim7",
              "dim",
              "minMaj7(9)",
              "minMaj7",
              "min7(11)",
              "min7(9)",
              "min(9)",
              "m7b5",
              "min7",
              "min6",
              "min"
            ],
            "autoStart": false,
            "sourceChordNote": 0,
            "sourceChordType": "Maj",
            "ctb2Low": null,
            "ctb2Main": {
              "ntr": "ROOT_TRANSPOSITION",
              "ntt": "BYPASS",
              "bassOn": false,
              "chordRootUpperLimit": 7,
              "noteLowLimit": 0,
              "noteHighLimit": 127,
              "rtr": "PITCH_SHIFT"
            },
            "ctb2High": null
          },
          "notes": [
            {
              "pitch": 52,
              "velocity": 39,
              "position": 0,
              "duration": 0.48541666666666666
            },
            {
              "pitch": 59,
              "velocity": 40,
              "position": 0.010416666666666666,
              "duration": 0.475
            },
            {
              "pitch": 62,
              "velocity": 31,
              "position": 0.020833333333333332,
              "duration": 0.46458333333333335
            },
            {
              "pitch": 67,
              "velocity": 32,
              "position": 0.03125,
              "duration": 0.45416666666666666
            },
            {
              "pitch": 52,
              "velocity": 48,
              "position": 0.5,
              "duration": 0.48541666666666666
            },
            {
              "pitch": 59,
              "velocity": 53,
              "position": 0.5104166666666666,
              "duration": 0.475
            },
            {
              "pitch": 62,
              "velocity": 51,
              "position": 0.5208333333333334,
              "duration": 0.46458333333333335
            },
            {
              "pitch": 67,
              "velocity": 43,
              "position": 0.53125,
              "duration": 0.45416666666666666
            },
            {
              "pitch": 52,
              "velocity": 61,
              "position": 1,
              "duration": 0.04791666666666667
            },
            {
              "pitch": 59,
              "velocity": 61,
              "position": 1.0104166666666667,
              "duration": 0.0375
            },
            {
              "pitch": 62,
              "velocity": 65,
              "position": 1.0208333333333333,
              "duration": 0.027083333333333334
            },
            {
              "pitch": 67,
              "velocity": 59,
              "position": 1.03125,
              "duration": 0.0375
            },
            {
              "pitch": 52,
              "velocity": 61,
              "position": 1.5,
              "duration": 0.04791666666666667
            },
            {
              "pitch": 59,
              "velocity": 61,
              "position": 1.5104166666666667,
              "duration": 0.0375
            },
            {
              "pitch": 62,
              "velocity": 65,
              "position": 1.5208333333333333,
              "duration": 0.027083333333333334
            },
            {
              "pitch": 67,
              "velocity": 59,
              "position": 1.53125,
              "duration": 0.0375
            },
            {
              "pitch": 52,
              "velocity": 61,
              "position": 2,
              "duration": 0.48541666666666666
            },
            {
              "pitch": 57,
              "velocity": 65,
              "position": 2.0104166666666665,
              "duration": 0.475
            },
            {
              "pitch": 60,
              "velocity": 65,
              "position": 2.0208333333333335,
              "duration": 0.46458333333333335
            },
            {
              "pitch": 67,
              "velocity": 61,
              "position": 2.03125,
              "duration": 0.45416666666666666
            },
            {
              "pitch": 52,
              "velocity": 61,
              "position": 3,
              "duration": 0.48541666666666666
            },
            {
              "pitch": 57,
              "velocity": 65,
              "position": 3.0104166666666665,
              "duration": 0.475
            },
            {
              "pitch": 60,
              "velocity": 65,
              "position": 3.0208333333333335,
              "duration": 0.46458333333333335
            },
            {
              "pitch": 67,
              "velocity": 61,
              "position": 3.03125,
              "duration": 0.45416666666666666
            },
            {
              "pitch": 52,
              "velocity": 59,
              "position": 4,
              "duration": 0.48541666666666666
            },
            {
              "pitch": 59,
              "velocity": 67,
              "position": 4.010416666666667,
              "duration": 0.475
            },
            {
              "pitch": 62,
              "velocity": 66,
              "position": 4.020833333333333,
              "duration": 0.46458333333333335
            },
            {
              "pitch": 67,
              "velocity": 65,
              "position": 4.03125,
              "duration": 0.45416666666666666
            },
            {
              "pitch": 52,
              "velocity": 40,
              "position": 4.5,
              "duration": 0.48541666666666666
            },
            {
              "pitch": 59,
              "velocity": 32,
              "position": 4.510416666666667,
              "duration": 0.475
            },
            {
              "pitch": 62,
              "velocity": 39,
              "position": 4.520833333333333,
              "duration": 0.46458333333333335
            },
            {
              "pitch": 67,
              "velocity": 38,
              "position": 4.53125,
              "duration": 0.45416666666666666
            },
            {
              "pitch": 59,
              "velocity": 65,
              "position": 5.010416666666667,
              "duration": 0.0375
            },
            {
              "pitch": 62,
              "velocity": 61,
              "position": 5.020833333333333,
              "duration": 0.027083333333333334
            },
            {
              "pitch": 52,
              "velocity": 62,
              "position": 5,
              "duration": 0.058333333333333334
            },
            {
              "pitch": 67,
              "velocity": 64,
              "position": 5.03125,
              "duration": 0.027083333333333334
            },
            {
              "pitch": 52,
              "velocity": 66,
              "position": 5.5,
              "duration": 0.48541666666666666
            },
            {
              "pitch": 57,
              "velocity": 61,
              "position": 5.510416666666667,
              "duration": 0.475
            },
            {
              "pitch": 60,
              "velocity": 67,
              "position": 5.520833333333333,
              "duration": 0.46458333333333335
            },
            {
              "pitch": 67,
              "velocity": 59,
              "position": 5.53125,
              "duration": 0.45416666666666666
            },
            {
              "pitch": 52,
              "velocity": 46,
              "position": 6.5,
              "duration": 0.48541666666666666
            },
            {
              "pitch": 57,
              "velocity": 49,
              "position": 6.510416666666667,
              "duration": 0.475
            },
            {
              "pitch": 60,
              "velocity": 48,
              "position": 6.520833333333333,
              "duration": 0.46458333333333335
            },
            {
              "pitch": 67,
              "velocity": 51,
              "position": 6.53125,
              "duration": 0.45416666666666666
            },
            {
              "pitch": 57,
              "velocity": 59,
              "position": 7.010416666666667,
              "duration": 0.0375
            },
            {
              "pitch": 52,
              "velocity": 62,
              "position": 7,
              "duration": 0.058333333333333334
            },
            {
              "pitch": 60,
              "velocity": 65,
              "position": 7.020833333333333,
              "duration": 0.0375
            },
            {
              "pitch": 67,
              "velocity": 60,
              "position": 7.03125,
              "duration": 0.027083333333333334
            },
            {
              "pitch": 52,
              "velocity": 65,
              "position": 7.5,
              "duration": 0.48541666666666666
            },
            {
              "pitch": 56,
              "velocity": 65,
              "position": 7.510416666666667,
              "duration": 0.475
            },
            {
              "pitch": 60,
              "velocity": 67,
              "position": 7.520833333333333,
              "duration": 0.46458333333333335
            },
            {
              "pitch": 67,
              "velocity": 65,
              "position": 7.53125,
              "duration": 0.45416666666666666
            },
            {
              "pitch": 52,
              "velocity": 30,
              "position": 8,
              "duration": 0.48541666666666666
            },
            {
              "pitch": 56,
              "velocity": 36,
              "position": 8.010416666666666,
              "duration": 0.475
            },
            {
              "pitch": 60,
              "velocity": 34,
              "position": 8.020833333333334,
              "duration": 0.46458333333333335
            },
            {
              "pitch": 67,
              "velocity": 31,
              "position": 8.03125,
              "duration": 0.45416666666666666
            },
            {
              "pitch": 52,
              "velocity": 49,
              "position": 8.5,
              "duration": 0.48541666666666666
            },
            {
              "pitch": 56,
              "velocity": 48,
              "position": 8.510416666666666,
              "duration": 0.475
            },
            {
              "pitch": 60,
              "velocity": 44,
              "position": 8.520833333333334,
              "duration": 0.46458333333333335
            },
            {
              "pitch": 67,
              "velocity": 51,
              "position": 8.53125,
              "duration": 0.45416666666666666
            },
            {
              "pitch": 56,
              "velocity": 65,
              "position": 9.010416666666666,
              "duration": 0.027083333333333334
            },
            {
              "pitch": 52,
              "velocity": 64,
              "position": 9,
              "duration": 0.04791666666666667
            },
            {
              "pitch": 60,
              "velocity": 69,
              "position": 9.020833333333334,
              "duration": 0.027083333333333334
            },
            {
              "pitch": 67,
              "velocity": 67,
              "position": 9.03125,
              "duration": 0.027083333333333334
            },
            {
              "pitch": 56,
              "velocity": 65,
              "position": 9.510416666666666,
              "duration": 0.027083333333333334
            },
            {
              "pitch": 52,
              "velocity": 64,
              "position": 9.5,
              "duration": 0.04791666666666667
            },
            {
              "pitch": 60,
              "velocity": 69,
              "position": 9.520833333333334,
              "duration": 0.027083333333333334
            },
            {
              "pitch": 67,
              "velocity": 67,
              "position": 9.53125,
              "duration": 0.027083333333333334
            },
            {
              "pitch": 50,
              "velocity": 62,
              "position": 10,
              "duration": 0.475
            },
            {
              "pitch": 56,
              "velocity": 60,
              "position": 10.010416666666666,
              "duration": 0.475
            },
            {
              "pitch": 60,
              "velocity": 59,
              "position": 10.020833333333334,
              "duration": 0.46458333333333335
            },
            {
              "pitch": 65,
              "velocity": 59,
              "position": 10.03125,
              "duration": 0.45416666666666666
            },
            {
              "pitch": 50,
              "velocity": 62,
              "position": 11,
              "duration": 0.475
            },
            {
              "pitch": 56,
              "velocity": 60,
              "position": 11.010416666666666,
              "duration": 0.475
            },
            {
              "pitch": 60,
              "velocity": 59,
              "position": 11.020833333333334,
              "duration": 0.46458333333333335
            },
            {
              "pitch": 65,
              "velocity": 59,
              "position": 11.03125,
              "duration": 0.45416666666666666
            },
            {
              "pitch": 52,
              "velocity": 65,
              "position": 12,
              "duration": 0.48541666666666666
            },
            {
              "pitch": 56,
              "velocity": 65,
              "position": 12.010416666666666,
              "duration": 0.475
            },
            {
              "pitch": 60,
              "velocity": 67,
              "position": 12.020833333333334,
              "duration": 0.46458333333333335
            },
            {
              "pitch": 67,
              "velocity": 65,
              "position": 12.03125,
              "duration": 0.45416666666666666
            },
            {
              "pitch": 52,
              "velocity": 49,
              "position": 12.5,
              "duration": 0.48541666666666666
            },
            {
              "pitch": 56,
              "velocity": 48,
              "position": 12.510416666666666,
              "duration": 0.475
            },
            {
              "pitch": 60,
              "velocity": 44,
              "position": 12.520833333333334,
              "duration": 0.46458333333333335
            },
            {
              "pitch": 67,
              "velocity": 51,
              "position": 12.53125,
              "duration": 0.45416666666666666
            },
            {
              "pitch": 52,
              "velocity": 64,
              "position": 13,
              "duration": 0.027083333333333334
            },
            {
              "pitch": 56,
              "velocity": 65,
              "position": 13.010416666666666,
              "duration": 0.027083333333333334
            },
            {
              "pitch": 60,
              "velocity": 69,
              "position": 13.020833333333334,
              "duration": 0.027083333333333334
            },
            {
              "pitch": 67,
              "velocity": 67,
              "position": 13.03125,
              "duration": 0.027083333333333334
            },
            {
              "pitch": 50,
              "velocity": 62,
              "position": 13.5,
              "duration": 0.475
            },
            {
              "pitch": 56,
              "velocity": 60,
              "position": 13.510416666666666,
              "duration": 0.475
            },
            {
              "pitch": 60,
              "velocity": 59,
              "position": 13.520833333333334,
              "duration": 0.46458333333333335
            },
            {
              "pitch": 65,
              "velocity": 59,
              "position": 13.53125,
              "duration": 0.45416666666666666
            },
            {
              "pitch": 50,
              "velocity": 51,
              "position": 14.5,
              "duration": 0.48541666666666666
            },
            {
              "pitch": 56,
              "velocity": 48,
              "position": 14.510416666666666,
              "duration": 0.475
            },
            {
              "pitch": 60,
              "velocity": 49,
              "position": 14.520833333333334,
              "duration": 0.46458333333333335
            },
            {
              "pitch": 65,
              "velocity": 51,
              "position": 14.53125,
              "duration": 0.45416666666666666
            },
            {
              "pitch": 50,
              "velocity": 64,
              "position": 15,
              "duration": 0.027083333333333334
            },
            {
              "pitch": 56,
              "velocity": 62,
              "position": 15.010416666666666,
              "duration": 0.0375
            },
            {
              "pitch": 60,
              "velocity": 61,
              "position": 15.020833333333334,
              "duration": 0.0375
            },
            {
              "pitch": 65,
              "velocity": 65,
              "position": 15.03125,
              "duration": 0.027083333333333334
            },
            {
              "pitch": 52,
              "velocity": 59,
              "position": 15.5,
              "duration": 0.48541666666666666
            },
            {
              "pitch": 59,
              "velocity": 67,
              "position": 15.510416666666666,
              "duration": 0.475
            },
            {
              "pitch": 62,
              "velocity": 66,
              "position": 15.520833333333334,
              "duration": 0.46458333333333335
            },
            {
              "pitch": 67,
              "velocity": 65,
              "position": 15.53125,
              "duration": 0.45416666666666666
            },
            {
              "pitch": 52,
              "velocity": 39,
              "position": 16,
              "duration": 0.48541666666666666
            },
            {
              "pitch": 59,
              "velocity": 40,
              "position": 16.010416666666668,
              "duration": 0.475
            },
            {
              "pitch": 62,
              "velocity": 31,
              "position": 16.020833333333332,
              "duration": 0.46458333333333335
            },
            {
              "pitch": 67,
              "velocity": 32,
              "position": 16.03125,
              "duration": 0.45416666666666666
            },
            {
              "pitch": 52,
              "velocity": 48,
              "position": 16.5,
              "duration": 0.48541666666666666
            },
            {
              "pitch": 59,
              "velocity": 53,
              "position": 16.510416666666668,
              "duration": 0.475
            },
            {
              "pitch": 62,
              "velocity": 51,
              "position": 16.520833333333332,
              "duration": 0.46458333333333335
            },
            {
              "pitch": 67,
              "velocity": 43,
              "position": 16.53125,
              "duration": 0.45416666666666666
            },
            {
              "pitch": 52,
              "velocity": 61,
              "position": 17,
              "duration": 0.04791666666666667
            },
            {
              "pitch": 59,
              "velocity": 61,
              "position": 17.010416666666668,
              "duration": 0.0375
            },
            {
              "pitch": 62,
              "velocity": 65,
              "position": 17.020833333333332,
              "duration": 0.027083333333333334
            },
            {
              "pitch": 67,
              "velocity": 59,
              "position": 17.03125,
              "duration": 0.0375
            },
            {
              "pitch": 52,
              "velocity": 61,
              "position": 17.5,
              "duration": 0.04791666666666667
            },
            {
              "pitch": 59,
              "velocity": 61,
              "position": 17.510416666666668,
              "duration": 0.0375
            },
            {
              "pitch": 62,
              "velocity": 65,
              "position": 17.520833333333332,
              "duration": 0.027083333333333334
            },
            {
              "pitch": 67,
              "velocity": 59,
              "position": 17.53125,
              "duration": 0.0375
            },
            {
              "pitch": 52,
              "velocity": 61,
              "position": 18,
              "duration": 0.48541666666666666
            },
            {
              "pitch": 57,
              "velocity": 65,
              "position": 18.010416666666668,
              "duration": 0.475
            },
            {
              "pitch": 60,
              "velocity": 65,
              "position": 18.020833333333332,
              "duration": 0.46458333333333335
            },
            {
              "pitch": 67,
              "velocity": 61,
              "position": 18.03125,
              "duration": 0.45416666666666666
            },
            {
              "pitch": 52,
              "velocity": 61,
              "position": 19,
              "duration": 0.48541666666666666
            },
            {
              "pitch": 57,
              "velocity": 65,
              "position": 19.010416666666668,
              "duration": 0.475
            },
            {
              "pitch": 60,
              "velocity": 65,
              "position": 19.020833333333332,
              "duration": 0.46458333333333335
            },
            {
              "pitch": 67,
              "velocity": 61,
              "position": 19.03125,
              "duration": 0.45416666666666666
            },
            {
              "pitch": 52,
              "velocity": 59,
              "position": 20,
              "duration": 0.48541666666666666
            },
            {
              "pitch": 59,
              "velocity": 67,
              "position": 20.010416666666668,
              "duration": 0.475
            },
            {
              "pitch": 62,
              "velocity": 66,
              "position": 20.020833333333332,
              "duration": 0.46458333333333335
            },
            {
              "pitch": 67,
              "velocity": 65,
              "position": 20.03125,
              "duration": 0.45416666666666666
            },
            {
              "pitch": 52,
              "velocity": 40,
              "position": 20.5,
              "duration": 0.48541666666666666
            },
            {
              "pitch": 59,
              "velocity": 32,
              "position": 20.510416666666668,
              "duration": 0.475
            },
            {
              "pitch": 62,
              "velocity": 39,
              "position": 20.520833333333332,
              "duration": 0.46458333333333335
            },
            {
              "pitch": 67,
              "velocity": 38,
              "position": 20.53125,
              "duration": 0.45416666666666666
            },
            {
              "pitch": 59,
              "velocity": 65,
              "position": 21.010416666666668,
              "duration": 0.0375
            },
            {
              "pitch": 62,
              "velocity": 61,
              "position": 21.020833333333332,
              "duration": 0.027083333333333334
            },
            {
              "pitch": 52,
              "velocity": 62,
              "position": 21,
              "duration": 0.058333333333333334
            },
            {
              "pitch": 67,
              "velocity": 64,
              "position": 21.03125,
              "duration": 0.027083333333333334
            },
            {
              "pitch": 52,
              "velocity": 66,
              "position": 21.5,
              "duration": 0.48541666666666666
            },
            {
              "pitch": 57,
              "velocity": 61,
              "position": 21.510416666666668,
              "duration": 0.475
            },
            {
              "pitch": 60,
              "velocity": 67,
              "position": 21.520833333333332,
              "duration": 0.46458333333333335
            },
            {
              "pitch": 67,
              "velocity": 59,
              "position": 21.53125,
              "duration": 0.45416666666666666
            },
            {
              "pitch": 52,
              "velocity": 46,
              "position": 22.5,
              "duration": 0.48541666666666666
            },
            {
              "pitch": 57,
              "velocity": 49,
              "position": 22.510416666666668,
              "duration": 0.475
            },
            {
              "pitch": 60,
              "velocity": 48,
              "position": 22.520833333333332,
              "duration": 0.46458333333333335
            },
            {
              "pitch": 67,
              "velocity": 51,
              "position": 22.53125,
              "duration": 0.45416666666666666
            },
            {
              "pitch": 57,
              "velocity": 59,
              "position": 23.010416666666668,
              "duration": 0.0375
            },
            {
              "pitch": 52,
              "velocity": 62,
              "position": 23,
              "duration": 0.058333333333333334
            },
            {
              "pitch": 60,
              "velocity": 65,
              "position": 23.020833333333332,
              "duration": 0.0375
            },
            {
              "pitch": 67,
              "velocity": 60,
              "position": 23.03125,
              "duration": 0.027083333333333334
            },
            {
              "pitch": 52,
              "velocity": 65,
              "position": 23.5,
              "duration": 0.48541666666666666
            },
            {
              "pitch": 57,
              "velocity": 65,
              "position": 23.510416666666668,
              "duration": 0.475
            },
            {
              "pitch": 60,
              "velocity": 67,
              "position": 23.520833333333332,
              "duration": 0.46458333333333335
            },
            {
              "pitch": 67,
              "velocity": 65,
              "position": 23.53125,
              "duration": 0.45416666666666666
            },
            {
              "pitch": 53,
              "velocity": 32,
              "position": 24,
              "duration": 0.48541666666666666
            },
            {
              "pitch": 57,
              "velocity": 40,
              "position": 24.010416666666668,
              "duration": 0.475
            },
            {
              "pitch": 60,
              "velocity": 31,
              "position": 24.020833333333332,
              "duration": 0.46458333333333335
            },
            {
              "pitch": 67,
              "velocity": 32,
              "position": 24.03125,
              "duration": 0.45416666666666666
            },
            {
              "pitch": 53,
              "velocity": 43,
              "position": 24.5,
              "duration": 0.48541666666666666
            },
            {
              "pitch": 57,
              "velocity": 53,
              "position": 24.510416666666668,
              "duration": 0.475
            },
            {
              "pitch": 60,
              "velocity": 51,
              "position": 24.520833333333332,
              "duration": 0.46458333333333335
            },
            {
              "pitch": 67,
              "velocity": 43,
              "position": 24.53125,
              "duration": 0.45416666666666666
            },
            {
              "pitch": 53,
              "velocity": 59,
              "position": 25,
              "duration": 0.0375
            },
            {
              "pitch": 57,
              "velocity": 61,
              "position": 25.010416666666668,
              "duration": 0.0375
            },
            {
              "pitch": 60,
              "velocity": 65,
              "position": 25.020833333333332,
              "duration": 0.027083333333333334
            },
            {
              "pitch": 67,
              "velocity": 59,
              "position": 25.03125,
              "duration": 0.0375
            },
            {
              "pitch": 53,
              "velocity": 65,
              "position": 26,
              "duration": 0.48541666666666666
            },
            {
              "pitch": 57,
              "velocity": 67,
              "position": 26.010416666666668,
              "duration": 0.475
            },
            {
              "pitch": 60,
              "velocity": 66,
              "position": 26.020833333333332,
              "duration": 0.46458333333333335
            },
            {
              "pitch": 67,
              "velocity": 65,
              "position": 26.03125,
              "duration": 0.45416666666666666
            },
            {
              "pitch": 53,
              "velocity": 43,
              "position": 26.5,
              "duration": 0.48541666666666666
            },
            {
              "pitch": 57,
              "velocity": 53,
              "position": 26.510416666666668,
              "duration": 0.475
            },
            {
              "pitch": 60,
              "velocity": 51,
              "position": 26.520833333333332,
              "duration": 0.46458333333333335
            },
            {
              "pitch": 67,
              "velocity": 43,
              "position": 26.53125,
              "duration": 0.45416666666666666
            },
            {
              "pitch": 53,
              "velocity": 59,
              "position": 27,
              "duration": 0.0375
            },
            {
              "pitch": 57,
              "velocity": 61,
              "position": 27.010416666666668,
              "duration": 0.0375
            },
            {
              "pitch": 60,
              "velocity": 65,
              "position": 27.020833333333332,
              "duration": 0.027083333333333334
            },
            {
              "pitch": 67,
              "velocity": 59,
              "position": 27.03125,
              "duration": 0.0375
            },
            {
              "pitch": 53,
              "velocity": 66,
              "position": 27.5,
              "duration": 4.475
            },
            {
              "pitch": 56,
              "velocity": 66,
              "position": 27.510416666666668,
              "duration": 4.475
            },
            {
              "pitch": 59,
              "velocity": 66,
              "position": 27.520833333333332,
              "duration": 4.464583333333334
            },
            {
              "pitch": 64,
              "velocity": 67,
              "position": 27.53125,
              "duration": 4.454166666666667
            }
          ]
        },
        "12": {
          "ctab": {
            "srcChannel": 12,
            "name": "Pno",
            "accType": "CHORD2",
            "editable": false,
            "mutedNotes": [],
            "mutedChords": [
              "dim7",
              "dim",
              "minMaj7(9)",
              "minMaj7",
              "min7(11)",
              "min7(9)",
              "min(9)",
              "m7b5",
              "min7",
              "min6",
              "min"
            ],
            "autoStart": false,
            "sourceChordNote": 0,
            "sourceChordType": "Maj",
            "ctb2Low": null,
            "ctb2Main": {
              "ntr": "ROOT_TRANSPOSITION",
              "ntt": "BYPASS",
              "bassOn": false,
              "chordRootUpperLimit": 5,
              "noteLowLimit": 54,
              "noteHighLimit": 79,
              "rtr": "PITCH_SHIFT"
            },
            "ctb2High": null
          },
          "notes": [
            {
              "pitch": 43,
              "velocity": 72,
              "position": 0.5,
              "duration": 1.15625
            },
            {
              "pitch": 47,
              "velocity": 72,
              "position": 0.5,
              "duration": 1.15625
            },
            {
              "pitch": 50,
              "velocity": 72,
              "position": 0.5,
              "duration": 1.15625
            },
            {
              "pitch": 52,
              "velocity": 72,
              "position": 0.5,
              "duration": 1.15625
            },
            {
              "pitch": 43,
              "velocity": 72,
              "position": 2,
              "duration": 0.15625
            },
            {
              "pitch": 45,
              "velocity": 72,
              "position": 2,
              "duration": 0.15625
            },
            {
              "pitch": 50,
              "velocity": 72,
              "position": 2,
              "duration": 0.15625
            },
            {
              "pitch": 52,
              "velocity": 72,
              "position": 2,
              "duration": 0.15625
            },
            {
              "pitch": 43,
              "velocity": 48,
              "position": 3,
              "duration": 0.15625
            },
            {
              "pitch": 45,
              "velocity": 48,
              "position": 3,
              "duration": 0.15625
            },
            {
              "pitch": 50,
              "velocity": 48,
              "position": 3,
              "duration": 0.15625
            },
            {
              "pitch": 52,
              "velocity": 48,
              "position": 3,
              "duration": 0.15625
            },
            {
              "pitch": 43,
              "velocity": 48,
              "position": 4,
              "duration": 0.15625
            },
            {
              "pitch": 47,
              "velocity": 48,
              "position": 4,
              "duration": 0.15625
            },
            {
              "pitch": 50,
              "velocity": 48,
              "position": 4,
              "duration": 0.15625
            },
            {
              "pitch": 52,
              "velocity": 48,
              "position": 4,
              "duration": 0.15625
            },
            {
              "pitch": 67,
              "velocity": 100,
              "position": 4.5,
              "duration": 0.4479166666666667
            },
            {
              "pitch": 69,
              "velocity": 73,
              "position": 5,
              "duration": 0.4791666666666667
            },
            {
              "pitch": 71,
              "velocity": 74,
              "position": 5.5,
              "duration": 0.4791666666666667
            },
            {
              "pitch": 43,
              "velocity": 72,
              "position": 5,
              "duration": 0.9895833333333334
            },
            {
              "pitch": 47,
              "velocity": 72,
              "position": 5,
              "duration": 0.9895833333333334
            },
            {
              "pitch": 50,
              "velocity": 72,
              "position": 5,
              "duration": 0.9895833333333334
            },
            {
              "pitch": 52,
              "velocity": 72,
              "position": 5,
              "duration": 0.9895833333333334
            },
            {
              "pitch": 72,
              "velocity": 73,
              "position": 6,
              "duration": 0.4791666666666667
            },
            {
              "pitch": 43,
              "velocity": 49,
              "position": 6.5,
              "duration": 0.15625
            },
            {
              "pitch": 45,
              "velocity": 49,
              "position": 6.5,
              "duration": 0.15625
            },
            {
              "pitch": 50,
              "velocity": 49,
              "position": 6.5,
              "duration": 0.15625
            },
            {
              "pitch": 52,
              "velocity": 49,
              "position": 6.5,
              "duration": 0.15625
            },
            {
              "pitch": 74,
              "velocity": 100,
              "position": 6.5,
              "duration": 0.4791666666666667
            },
            {
              "pitch": 76,
              "velocity": 95,
              "position": 7,
              "duration": 0.4791666666666667
            },
            {
              "pitch": 43,
              "velocity": 61,
              "position": 7.5,
              "duration": 0.15625
            },
            {
              "pitch": 44,
              "velocity": 61,
              "position": 7.5,
              "duration": 0.15625
            },
            {
              "pitch": 50,
              "velocity": 61,
              "position": 7.5,
              "duration": 0.15625
            },
            {
              "pitch": 52,
              "velocity": 61,
              "position": 7.5,
              "duration": 0.15625
            },
            {
              "pitch": 77,
              "velocity": 80,
              "position": 7.5,
              "duration": 0.4791666666666667
            },
            {
              "pitch": 79,
              "velocity": 100,
              "position": 8,
              "duration": 0.5833333333333334
            },
            {
              "pitch": 79,
              "velocity": 89,
              "position": 9,
              "duration": 0.4791666666666667
            },
            {
              "pitch": 43,
              "velocity": 72,
              "position": 8.5,
              "duration": 1.15625
            },
            {
              "pitch": 44,
              "velocity": 72,
              "position": 8.5,
              "duration": 1.15625
            },
            {
              "pitch": 50,
              "velocity": 72,
              "position": 8.5,
              "duration": 1.15625
            },
            {
              "pitch": 52,
              "velocity": 72,
              "position": 8.5,
              "duration": 1.15625
            },
            {
              "pitch": 44,
              "velocity": 72,
              "position": 10,
              "duration": 0.15625
            },
            {
              "pitch": 50,
              "velocity": 72,
              "position": 10,
              "duration": 0.15625
            },
            {
              "pitch": 53,
              "velocity": 72,
              "position": 10,
              "duration": 0.15625
            },
            {
              "pitch": 44,
              "velocity": 48,
              "position": 11,
              "duration": 0.15625
            },
            {
              "pitch": 50,
              "velocity": 48,
              "position": 11,
              "duration": 0.15625
            },
            {
              "pitch": 53,
              "velocity": 48,
              "position": 11,
              "duration": 0.15625
            },
            {
              "pitch": 43,
              "velocity": 48,
              "position": 12,
              "duration": 0.15625
            },
            {
              "pitch": 44,
              "velocity": 48,
              "position": 12,
              "duration": 0.15625
            },
            {
              "pitch": 50,
              "velocity": 48,
              "position": 12,
              "duration": 0.15625
            },
            {
              "pitch": 52,
              "velocity": 48,
              "position": 12,
              "duration": 0.15625
            },
            {
              "pitch": 72,
              "velocity": 73,
              "position": 9.552083333333334,
              "duration": 2.6354166666666665
            },
            {
              "pitch": 74,
              "velocity": 89,
              "position": 12.5,
              "duration": 0.4791666666666667
            },
            {
              "pitch": 76,
              "velocity": 83,
              "position": 13,
              "duration": 0.4791666666666667
            },
            {
              "pitch": 77,
              "velocity": 83,
              "position": 13.5,
              "duration": 0.4583333333333333
            },
            {
              "pitch": 43,
              "velocity": 72,
              "position": 13,
              "duration": 0.9895833333333334
            },
            {
              "pitch": 44,
              "velocity": 72,
              "position": 13,
              "duration": 0.9895833333333334
            },
            {
              "pitch": 50,
              "velocity": 72,
              "position": 13,
              "duration": 0.9895833333333334
            },
            {
              "pitch": 52,
              "velocity": 72,
              "position": 13,
              "duration": 0.9895833333333334
            },
            {
              "pitch": 79,
              "velocity": 74,
              "position": 14,
              "duration": 0.4791666666666667
            },
            {
              "pitch": 44,
              "velocity": 49,
              "position": 14.5,
              "duration": 0.15625
            },
            {
              "pitch": 50,
              "velocity": 49,
              "position": 14.5,
              "duration": 0.15625
            },
            {
              "pitch": 53,
              "velocity": 49,
              "position": 14.5,
              "duration": 0.15625
            },
            {
              "pitch": 80,
              "velocity": 92,
              "position": 14.5,
              "duration": 0.4791666666666667
            },
            {
              "pitch": 83,
              "velocity": 97,
              "position": 15,
              "duration": 0.3958333333333333
            },
            {
              "pitch": 43,
              "velocity": 61,
              "position": 15.5,
              "duration": 0.15625
            },
            {
              "pitch": 47,
              "velocity": 61,
              "position": 15.5,
              "duration": 0.15625
            },
            {
              "pitch": 50,
              "velocity": 61,
              "position": 15.5,
              "duration": 0.15625
            },
            {
              "pitch": 52,
              "velocity": 61,
              "position": 15.5,
              "duration": 0.15625
            },
            {
              "pitch": 84,
              "velocity": 74,
              "position": 15.5,
              "duration": 0.4791666666666667
            },
            {
              "pitch": 86,
              "velocity": 81,
              "position": 16,
              "duration": 0.59375
            },
            {
              "pitch": 86,
              "velocity": 89,
              "position": 17,
              "duration": 0.4791666666666667
            },
            {
              "pitch": 43,
              "velocity": 72,
              "position": 16.5,
              "duration": 1.15625
            },
            {
              "pitch": 47,
              "velocity": 72,
              "position": 16.5,
              "duration": 1.15625
            },
            {
              "pitch": 50,
              "velocity": 72,
              "position": 16.5,
              "duration": 1.15625
            },
            {
              "pitch": 52,
              "velocity": 72,
              "position": 16.5,
              "duration": 1.15625
            },
            {
              "pitch": 43,
              "velocity": 72,
              "position": 18,
              "duration": 0.15625
            },
            {
              "pitch": 45,
              "velocity": 72,
              "position": 18,
              "duration": 0.15625
            },
            {
              "pitch": 50,
              "velocity": 72,
              "position": 18,
              "duration": 0.15625
            },
            {
              "pitch": 52,
              "velocity": 72,
              "position": 18,
              "duration": 0.15625
            },
            {
              "pitch": 43,
              "velocity": 48,
              "position": 19,
              "duration": 0.15625
            },
            {
              "pitch": 45,
              "velocity": 48,
              "position": 19,
              "duration": 0.15625
            },
            {
              "pitch": 50,
              "velocity": 48,
              "position": 19,
              "duration": 0.15625
            },
            {
              "pitch": 52,
              "velocity": 48,
              "position": 19,
              "duration": 0.15625
            },
            {
              "pitch": 79,
              "velocity": 75,
              "position": 17.5,
              "duration": 2.6354166666666665
            },
            {
              "pitch": 43,
              "velocity": 48,
              "position": 20,
              "duration": 0.15625
            },
            {
              "pitch": 47,
              "velocity": 48,
              "position": 20,
              "duration": 0.15625
            },
            {
              "pitch": 50,
              "velocity": 48,
              "position": 20,
              "duration": 0.15625
            },
            {
              "pitch": 52,
              "velocity": 48,
              "position": 20,
              "duration": 0.15625
            },
            {
              "pitch": 81,
              "velocity": 114,
              "position": 20.5,
              "duration": 0.4479166666666667
            },
            {
              "pitch": 83,
              "velocity": 73,
              "position": 21,
              "duration": 0.4791666666666667
            },
            {
              "pitch": 84,
              "velocity": 74,
              "position": 21.5,
              "duration": 0.4791666666666667
            },
            {
              "pitch": 43,
              "velocity": 72,
              "position": 21,
              "duration": 0.9895833333333334
            },
            {
              "pitch": 47,
              "velocity": 72,
              "position": 21,
              "duration": 0.9895833333333334
            },
            {
              "pitch": 50,
              "velocity": 72,
              "position": 21,
              "duration": 0.9895833333333334
            },
            {
              "pitch": 52,
              "velocity": 72,
              "position": 21,
              "duration": 0.9895833333333334
            },
            {
              "pitch": 86,
              "velocity": 73,
              "position": 22,
              "duration": 0.4791666666666667
            },
            {
              "pitch": 43,
              "velocity": 49,
              "position": 22.5,
              "duration": 0.15625
            },
            {
              "pitch": 45,
              "velocity": 49,
              "position": 22.5,
              "duration": 0.15625
            },
            {
              "pitch": 50,
              "velocity": 49,
              "position": 22.5,
              "duration": 0.15625
            },
            {
              "pitch": 52,
              "velocity": 49,
              "position": 22.5,
              "duration": 0.15625
            },
            {
              "pitch": 88,
              "velocity": 93,
              "position": 22.5,
              "duration": 0.4791666666666667
            },
            {
              "pitch": 89,
              "velocity": 83,
              "position": 23,
              "duration": 0.4791666666666667
            },
            {
              "pitch": 45,
              "velocity": 61,
              "position": 23.5,
              "duration": 0.15625
            },
            {
              "pitch": 50,
              "velocity": 61,
              "position": 23.5,
              "duration": 0.15625
            },
            {
              "pitch": 53,
              "velocity": 61,
              "position": 23.5,
              "duration": 0.15625
            },
            {
              "pitch": 91,
              "velocity": 104,
              "position": 23.5,
              "duration": 0.9791666666666666
            },
            {
              "pitch": 45,
              "velocity": 72,
              "position": 24.5,
              "duration": 0.15625
            },
            {
              "pitch": 50,
              "velocity": 72,
              "position": 24.5,
              "duration": 0.15625
            },
            {
              "pitch": 53,
              "velocity": 72,
              "position": 24.5,
              "duration": 0.15625
            },
            {
              "pitch": 88,
              "velocity": 87,
              "position": 24.5,
              "duration": 0.9791666666666666
            },
            {
              "pitch": 84,
              "velocity": 73,
              "position": 25.5,
              "duration": 0.9791666666666666
            },
            {
              "pitch": 45,
              "velocity": 72,
              "position": 26,
              "duration": 0.9895833333333334
            },
            {
              "pitch": 50,
              "velocity": 72,
              "position": 26,
              "duration": 0.9895833333333334
            },
            {
              "pitch": 53,
              "velocity": 72,
              "position": 26,
              "duration": 0.9895833333333334
            },
            {
              "pitch": 81,
              "velocity": 89,
              "position": 26.5,
              "duration": 0.9791666666666666
            },
            {
              "pitch": 80,
              "velocity": 100,
              "position": 27.5,
              "duration": 0.9791666666666666
            },
            {
              "pitch": 76,
              "velocity": 87,
              "position": 28.5,
              "duration": 0.9791666666666666
            },
            {
              "pitch": 71,
              "velocity": 73,
              "position": 29.5,
              "duration": 0.9791666666666666
            },
            {
              "pitch": 68,
              "velocity": 73,
              "position": 30.5,
              "duration": 1.3229166666666667
            },
            {
              "pitch": 41,
              "velocity": 72,
              "position": 27.5,
              "duration": 4.479166666666667
            },
            {
              "pitch": 44,
              "velocity": 72,
              "position": 27.5,
              "duration": 4.479166666666667
            },
            {
              "pitch": 47,
              "velocity": 72,
              "position": 27.5,
              "duration": 4.479166666666667
            },
            {
              "pitch": 52,
              "velocity": 72,
              "position": 27.5,
              "duration": 4.479166666666667
            }
          ]
        },
        "13": {
          "ctab": {
            "srcChannel": 13,
            "name": "Str",
            "accType": "PAD",
            "editable": false,
            "mutedNotes": [],
            "mutedChords": [
              "dim7",
              "dim",
              "minMaj7(9)",
              "minMaj7",
              "min7(11)",
              "min7(9)",
              "min(9)",
              "m7b5",
              "min7",
              "min6",
              "min"
            ],
            "autoStart": false,
            "sourceChordNote": 0,
            "sourceChordType": "Maj",
            "ctb2Low": null,
            "ctb2Main": {
              "ntr": "ROOT_TRANSPOSITION",
              "ntt": "BYPASS",
              "bassOn": false,
              "chordRootUpperLimit": 8,
              "noteLowLimit": 54,
              "noteHighLimit": 127,
              "rtr": "PITCH_SHIFT"
            },
            "ctb2High": null
          },
          "notes": [
            {
              "pitch": 47,
              "velocity": 85,
              "position": 0.010416666666666666,
              "duration": 1.975
            },
            {
              "pitch": 50,
              "velocity": 85,
              "position": 0.010416666666666666,
              "duration": 1.975
            },
            {
              "pitch": 45,
              "velocity": 85,
              "position": 2,
              "duration": 1.9854166666666666
            },
            {
              "pitch": 48,
              "velocity": 85,
              "position": 2,
              "duration": 1.9854166666666666
            },
            {
              "pitch": 47,
              "velocity": 85,
              "position": 4,
              "duration": 1.9854166666666666
            },
            {
              "pitch": 50,
              "velocity": 85,
              "position": 4,
              "duration": 1.9854166666666666
            },
            {
              "pitch": 45,
              "velocity": 85,
              "position": 6,
              "duration": 1.9854166666666666
            },
            {
              "pitch": 43,
              "velocity": 85,
              "position": 0.010416666666666666,
              "duration": 9.975
            },
            {
              "pitch": 52,
              "velocity": 85,
              "position": 0.010416666666666666,
              "duration": 9.975
            },
            {
              "pitch": 50,
              "velocity": 85,
              "position": 10,
              "duration": 1.9854166666666666
            },
            {
              "pitch": 53,
              "velocity": 85,
              "position": 10,
              "duration": 1.9854166666666666
            },
            {
              "pitch": 43,
              "velocity": 85,
              "position": 12,
              "duration": 1.9854166666666666
            },
            {
              "pitch": 52,
              "velocity": 85,
              "position": 12,
              "duration": 1.9854166666666666
            },
            {
              "pitch": 44,
              "velocity": 85,
              "position": 8,
              "duration": 7.985416666666667
            },
            {
              "pitch": 48,
              "velocity": 85,
              "position": 6,
              "duration": 9.985416666666667
            },
            {
              "pitch": 53,
              "velocity": 85,
              "position": 14,
              "duration": 1.9854166666666666
            },
            {
              "pitch": 47,
              "velocity": 85,
              "position": 16,
              "duration": 1.9854166666666666
            },
            {
              "pitch": 50,
              "velocity": 85,
              "position": 14,
              "duration": 3.9854166666666666
            },
            {
              "pitch": 45,
              "velocity": 85,
              "position": 18,
              "duration": 1.9854166666666666
            },
            {
              "pitch": 48,
              "velocity": 85,
              "position": 18,
              "duration": 1.9854166666666666
            },
            {
              "pitch": 47,
              "velocity": 85,
              "position": 20,
              "duration": 1.9854166666666666
            },
            {
              "pitch": 50,
              "velocity": 85,
              "position": 20,
              "duration": 1.9854166666666666
            },
            {
              "pitch": 43,
              "velocity": 85,
              "position": 16,
              "duration": 7.485416666666667
            },
            {
              "pitch": 52,
              "velocity": 85,
              "position": 16,
              "duration": 7.485416666666667
            },
            {
              "pitch": 45,
              "velocity": 85,
              "position": 22,
              "duration": 5.485416666666667
            },
            {
              "pitch": 48,
              "velocity": 85,
              "position": 22,
              "duration": 5.485416666666667
            },
            {
              "pitch": 53,
              "velocity": 85,
              "position": 23.5,
              "duration": 3.9854166666666666
            },
            {
              "pitch": 44,
              "velocity": 85,
              "position": 27.5,
              "duration": 4.485416666666667
            },
            {
              "pitch": 47,
              "velocity": 85,
              "position": 27.5,
              "duration": 4.485416666666667
            },
            {
              "pitch": 52,
              "velocity": 85,
              "position": 27.5,
              "duration": 4.485416666666667
            },
            {
              "pitch": 79,
              "velocity": 70,
              "position": 0.010416666666666666,
              "duration": 31.975
            }
          ]
        },
        "14": {
          "ctab": {
            "srcChannel": 14,
            "name": "Gt B",
            "accType": "CHORD1",
            "editable": false,
            "mutedNotes": [
              11,
              4,
              3,
              2,
              1,
              0
            ],
            "mutedChords": [
              "dim7",
              "dim",
              "minMaj7(9)",
              "minMaj7",
              "min7(11)",
              "min7(9)",
              "min(9)",
              "m7b5",
              "min7",
              "min6",
              "min"
            ],
            "autoStart": false,
            "sourceChordNote": 0,
            "sourceChordType": "Maj",
            "ctb2Low": null,
            "ctb2Main": {
              "ntr": "ROOT_TRANSPOSITION",
              "ntt": "BYPASS",
              "bassOn": false,
              "chordRootUpperLimit": 0,
              "noteLowLimit": 0,
              "noteHighLimit": 127,
              "rtr": "PITCH_SHIFT"
            },
            "ctb2High": null
          },
          "notes": [
            {
              "pitch": 59,
              "velocity": 35,
              "position": 0,
              "duration": 0.475
            },
            {
              "pitch": 64,
              "velocity": 34,
              "position": 0.010416666666666666,
              "duration": 0.475
            },
            {
              "pitch": 67,
              "velocity": 27,
              "position": 0.020833333333333332,
              "duration": 0.46458333333333335
            },
            {
              "pitch": 74,
              "velocity": 26,
              "position": 0.03125,
              "duration": 0.45416666666666666
            },
            {
              "pitch": 59,
              "velocity": 46,
              "position": 0.5,
              "duration": 0.475
            },
            {
              "pitch": 64,
              "velocity": 41,
              "position": 0.5104166666666666,
              "duration": 0.475
            },
            {
              "pitch": 67,
              "velocity": 37,
              "position": 0.5208333333333334,
              "duration": 0.46458333333333335
            },
            {
              "pitch": 74,
              "velocity": 44,
              "position": 0.53125,
              "duration": 0.45416666666666666
            },
            {
              "pitch": 67,
              "velocity": 51,
              "position": 1.0208333333333333,
              "duration": 0.0375
            },
            {
              "pitch": 74,
              "velocity": 56,
              "position": 1.03125,
              "duration": 0.027083333333333334
            },
            {
              "pitch": 59,
              "velocity": 53,
              "position": 1.5,
              "duration": 0.0375
            },
            {
              "pitch": 64,
              "velocity": 53,
              "position": 1.5104166666666667,
              "duration": 0.04791666666666667
            },
            {
              "pitch": 57,
              "velocity": 56,
              "position": 2,
              "duration": 0.48541666666666666
            },
            {
              "pitch": 64,
              "velocity": 53,
              "position": 2.0104166666666665,
              "duration": 0.475
            },
            {
              "pitch": 67,
              "velocity": 53,
              "position": 2.0208333333333335,
              "duration": 0.46458333333333335
            },
            {
              "pitch": 72,
              "velocity": 57,
              "position": 2.03125,
              "duration": 0.45416666666666666
            },
            {
              "pitch": 57,
              "velocity": 56,
              "position": 3,
              "duration": 0.48541666666666666
            },
            {
              "pitch": 64,
              "velocity": 53,
              "position": 3.0104166666666665,
              "duration": 0.475
            },
            {
              "pitch": 67,
              "velocity": 53,
              "position": 3.0208333333333335,
              "duration": 0.46458333333333335
            },
            {
              "pitch": 72,
              "velocity": 57,
              "position": 3.03125,
              "duration": 0.45416666666666666
            },
            {
              "pitch": 59,
              "velocity": 59,
              "position": 4,
              "duration": 0.475
            },
            {
              "pitch": 64,
              "velocity": 51,
              "position": 4.010416666666667,
              "duration": 0.475
            },
            {
              "pitch": 67,
              "velocity": 56,
              "position": 4.020833333333333,
              "duration": 0.46458333333333335
            },
            {
              "pitch": 74,
              "velocity": 58,
              "position": 4.03125,
              "duration": 0.45416666666666666
            },
            {
              "pitch": 59,
              "velocity": 44,
              "position": 4.5,
              "duration": 0.475
            },
            {
              "pitch": 64,
              "velocity": 37,
              "position": 4.510416666666667,
              "duration": 0.475
            },
            {
              "pitch": 67,
              "velocity": 46,
              "position": 4.520833333333333,
              "duration": 0.46458333333333335
            },
            {
              "pitch": 74,
              "velocity": 45,
              "position": 4.53125,
              "duration": 0.45416666666666666
            },
            {
              "pitch": 59,
              "velocity": 56,
              "position": 5,
              "duration": 0.0375
            },
            {
              "pitch": 67,
              "velocity": 55,
              "position": 5.020833333333333,
              "duration": 0.027083333333333334
            },
            {
              "pitch": 74,
              "velocity": 53,
              "position": 5.03125,
              "duration": 0.027083333333333334
            },
            {
              "pitch": 64,
              "velocity": 54,
              "position": 5.010416666666667,
              "duration": 0.058333333333333334
            },
            {
              "pitch": 57,
              "velocity": 53,
              "position": 5.5,
              "duration": 0.475
            },
            {
              "pitch": 64,
              "velocity": 58,
              "position": 5.510416666666667,
              "duration": 0.475
            },
            {
              "pitch": 67,
              "velocity": 51,
              "position": 5.520833333333333,
              "duration": 0.46458333333333335
            },
            {
              "pitch": 72,
              "velocity": 59,
              "position": 5.53125,
              "duration": 0.45416666666666666
            },
            {
              "pitch": 57,
              "velocity": 42,
              "position": 6.5,
              "duration": 0.48541666666666666
            },
            {
              "pitch": 64,
              "velocity": 40,
              "position": 6.510416666666667,
              "duration": 0.475
            },
            {
              "pitch": 67,
              "velocity": 45,
              "position": 6.520833333333333,
              "duration": 0.46458333333333335
            },
            {
              "pitch": 72,
              "velocity": 41,
              "position": 6.53125,
              "duration": 0.45416666666666666
            },
            {
              "pitch": 57,
              "velocity": 51,
              "position": 7,
              "duration": 0.0375
            },
            {
              "pitch": 67,
              "velocity": 52,
              "position": 7.020833333333333,
              "duration": 0.027083333333333334
            },
            {
              "pitch": 64,
              "velocity": 54,
              "position": 7.010416666666667,
              "duration": 0.058333333333333334
            },
            {
              "pitch": 72,
              "velocity": 56,
              "position": 7.03125,
              "duration": 0.0375
            },
            {
              "pitch": 56,
              "velocity": 57,
              "position": 7.5,
              "duration": 0.475
            },
            {
              "pitch": 64,
              "velocity": 56,
              "position": 7.510416666666667,
              "duration": 0.475
            },
            {
              "pitch": 67,
              "velocity": 56,
              "position": 7.520833333333333,
              "duration": 0.46458333333333335
            },
            {
              "pitch": 72,
              "velocity": 59,
              "position": 7.53125,
              "duration": 0.45416666666666666
            },
            {
              "pitch": 56,
              "velocity": 31,
              "position": 8,
              "duration": 0.48541666666666666
            },
            {
              "pitch": 64,
              "velocity": 25,
              "position": 8.010416666666666,
              "duration": 0.475
            },
            {
              "pitch": 67,
              "velocity": 26,
              "position": 8.020833333333334,
              "duration": 0.46458333333333335
            },
            {
              "pitch": 72,
              "velocity": 30,
              "position": 8.03125,
              "duration": 0.45416666666666666
            },
            {
              "pitch": 56,
              "velocity": 41,
              "position": 8.5,
              "duration": 0.48541666666666666
            },
            {
              "pitch": 64,
              "velocity": 42,
              "position": 8.510416666666666,
              "duration": 0.475
            },
            {
              "pitch": 67,
              "velocity": 44,
              "position": 8.520833333333334,
              "duration": 0.46458333333333335
            },
            {
              "pitch": 72,
              "velocity": 38,
              "position": 8.53125,
              "duration": 0.45416666666666666
            },
            {
              "pitch": 67,
              "velocity": 59,
              "position": 9.020833333333334,
              "duration": 0.027083333333333334
            },
            {
              "pitch": 72,
              "velocity": 59,
              "position": 9.03125,
              "duration": 0.027083333333333334
            },
            {
              "pitch": 56,
              "velocity": 57,
              "position": 9.5,
              "duration": 0.027083333333333334
            },
            {
              "pitch": 64,
              "velocity": 55,
              "position": 9.510416666666666,
              "duration": 0.04791666666666667
            },
            {
              "pitch": 56,
              "velocity": 52,
              "position": 10,
              "duration": 0.48541666666666666
            },
            {
              "pitch": 62,
              "velocity": 54,
              "position": 10.010416666666666,
              "duration": 0.475
            },
            {
              "pitch": 65,
              "velocity": 51,
              "position": 10.020833333333334,
              "duration": 0.46458333333333335
            },
            {
              "pitch": 72,
              "velocity": 51,
              "position": 10.03125,
              "duration": 0.45416666666666666
            },
            {
              "pitch": 56,
              "velocity": 52,
              "position": 11,
              "duration": 0.48541666666666666
            },
            {
              "pitch": 62,
              "velocity": 54,
              "position": 11.010416666666666,
              "duration": 0.475
            },
            {
              "pitch": 65,
              "velocity": 51,
              "position": 11.020833333333334,
              "duration": 0.46458333333333335
            },
            {
              "pitch": 72,
              "velocity": 51,
              "position": 11.03125,
              "duration": 0.45416666666666666
            },
            {
              "pitch": 56,
              "velocity": 57,
              "position": 12,
              "duration": 0.475
            },
            {
              "pitch": 64,
              "velocity": 56,
              "position": 12.010416666666666,
              "duration": 0.475
            },
            {
              "pitch": 67,
              "velocity": 56,
              "position": 12.020833333333334,
              "duration": 0.46458333333333335
            },
            {
              "pitch": 72,
              "velocity": 59,
              "position": 12.03125,
              "duration": 0.45416666666666666
            },
            {
              "pitch": 56,
              "velocity": 41,
              "position": 12.5,
              "duration": 0.48541666666666666
            },
            {
              "pitch": 64,
              "velocity": 42,
              "position": 12.510416666666666,
              "duration": 0.475
            },
            {
              "pitch": 67,
              "velocity": 44,
              "position": 12.520833333333334,
              "duration": 0.46458333333333335
            },
            {
              "pitch": 72,
              "velocity": 38,
              "position": 12.53125,
              "duration": 0.45416666666666666
            },
            {
              "pitch": 56,
              "velocity": 57,
              "position": 13,
              "duration": 0.027083333333333334
            },
            {
              "pitch": 64,
              "velocity": 55,
              "position": 13.010416666666666,
              "duration": 0.027083333333333334
            },
            {
              "pitch": 67,
              "velocity": 59,
              "position": 13.020833333333334,
              "duration": 0.027083333333333334
            },
            {
              "pitch": 72,
              "velocity": 59,
              "position": 13.03125,
              "duration": 0.027083333333333334
            },
            {
              "pitch": 56,
              "velocity": 52,
              "position": 13.5,
              "duration": 0.48541666666666666
            },
            {
              "pitch": 62,
              "velocity": 54,
              "position": 13.510416666666666,
              "duration": 0.475
            },
            {
              "pitch": 65,
              "velocity": 51,
              "position": 13.520833333333334,
              "duration": 0.46458333333333335
            },
            {
              "pitch": 72,
              "velocity": 51,
              "position": 13.53125,
              "duration": 0.45416666666666666
            },
            {
              "pitch": 56,
              "velocity": 41,
              "position": 14.5,
              "duration": 0.475
            },
            {
              "pitch": 62,
              "velocity": 44,
              "position": 14.510416666666666,
              "duration": 0.475
            },
            {
              "pitch": 65,
              "velocity": 44,
              "position": 14.520833333333334,
              "duration": 0.46458333333333335
            },
            {
              "pitch": 72,
              "velocity": 42,
              "position": 14.53125,
              "duration": 0.45416666666666666
            },
            {
              "pitch": 56,
              "velocity": 54,
              "position": 15,
              "duration": 0.0375
            },
            {
              "pitch": 62,
              "velocity": 55,
              "position": 15.010416666666666,
              "duration": 0.027083333333333334
            },
            {
              "pitch": 65,
              "velocity": 56,
              "position": 15.020833333333334,
              "duration": 0.027083333333333334
            },
            {
              "pitch": 72,
              "velocity": 53,
              "position": 15.03125,
              "duration": 0.0375
            },
            {
              "pitch": 59,
              "velocity": 59,
              "position": 15.5,
              "duration": 0.475
            },
            {
              "pitch": 64,
              "velocity": 51,
              "position": 15.510416666666666,
              "duration": 0.475
            },
            {
              "pitch": 67,
              "velocity": 56,
              "position": 15.520833333333334,
              "duration": 0.46458333333333335
            },
            {
              "pitch": 74,
              "velocity": 58,
              "position": 15.53125,
              "duration": 0.45416666666666666
            },
            {
              "pitch": 59,
              "velocity": 35,
              "position": 16,
              "duration": 0.475
            },
            {
              "pitch": 64,
              "velocity": 34,
              "position": 16.010416666666668,
              "duration": 0.475
            },
            {
              "pitch": 67,
              "velocity": 27,
              "position": 16.020833333333332,
              "duration": 0.46458333333333335
            },
            {
              "pitch": 74,
              "velocity": 26,
              "position": 16.03125,
              "duration": 0.45416666666666666
            },
            {
              "pitch": 59,
              "velocity": 46,
              "position": 16.5,
              "duration": 0.475
            },
            {
              "pitch": 64,
              "velocity": 41,
              "position": 16.510416666666668,
              "duration": 0.475
            },
            {
              "pitch": 67,
              "velocity": 37,
              "position": 16.520833333333332,
              "duration": 0.46458333333333335
            },
            {
              "pitch": 74,
              "velocity": 44,
              "position": 16.53125,
              "duration": 0.45416666666666666
            },
            {
              "pitch": 67,
              "velocity": 51,
              "position": 17.020833333333332,
              "duration": 0.0375
            },
            {
              "pitch": 74,
              "velocity": 56,
              "position": 17.03125,
              "duration": 0.027083333333333334
            },
            {
              "pitch": 59,
              "velocity": 53,
              "position": 17.5,
              "duration": 0.0375
            },
            {
              "pitch": 64,
              "velocity": 53,
              "position": 17.510416666666668,
              "duration": 0.04791666666666667
            },
            {
              "pitch": 57,
              "velocity": 56,
              "position": 18,
              "duration": 0.48541666666666666
            },
            {
              "pitch": 64,
              "velocity": 53,
              "position": 18.010416666666668,
              "duration": 0.475
            },
            {
              "pitch": 67,
              "velocity": 53,
              "position": 18.020833333333332,
              "duration": 0.46458333333333335
            },
            {
              "pitch": 72,
              "velocity": 57,
              "position": 18.03125,
              "duration": 0.45416666666666666
            },
            {
              "pitch": 57,
              "velocity": 56,
              "position": 19,
              "duration": 0.48541666666666666
            },
            {
              "pitch": 64,
              "velocity": 53,
              "position": 19.010416666666668,
              "duration": 0.475
            },
            {
              "pitch": 67,
              "velocity": 53,
              "position": 19.020833333333332,
              "duration": 0.46458333333333335
            },
            {
              "pitch": 72,
              "velocity": 57,
              "position": 19.03125,
              "duration": 0.45416666666666666
            },
            {
              "pitch": 59,
              "velocity": 59,
              "position": 20,
              "duration": 0.475
            },
            {
              "pitch": 64,
              "velocity": 51,
              "position": 20.010416666666668,
              "duration": 0.475
            },
            {
              "pitch": 67,
              "velocity": 56,
              "position": 20.020833333333332,
              "duration": 0.46458333333333335
            },
            {
              "pitch": 74,
              "velocity": 58,
              "position": 20.03125,
              "duration": 0.45416666666666666
            },
            {
              "pitch": 59,
              "velocity": 44,
              "position": 20.5,
              "duration": 0.475
            },
            {
              "pitch": 64,
              "velocity": 37,
              "position": 20.510416666666668,
              "duration": 0.475
            },
            {
              "pitch": 67,
              "velocity": 46,
              "position": 20.520833333333332,
              "duration": 0.46458333333333335
            },
            {
              "pitch": 74,
              "velocity": 45,
              "position": 20.53125,
              "duration": 0.45416666666666666
            },
            {
              "pitch": 59,
              "velocity": 56,
              "position": 21,
              "duration": 0.0375
            },
            {
              "pitch": 67,
              "velocity": 55,
              "position": 21.020833333333332,
              "duration": 0.027083333333333334
            },
            {
              "pitch": 74,
              "velocity": 53,
              "position": 21.03125,
              "duration": 0.027083333333333334
            },
            {
              "pitch": 64,
              "velocity": 54,
              "position": 21.010416666666668,
              "duration": 0.058333333333333334
            },
            {
              "pitch": 57,
              "velocity": 53,
              "position": 21.5,
              "duration": 0.475
            },
            {
              "pitch": 64,
              "velocity": 58,
              "position": 21.510416666666668,
              "duration": 0.475
            },
            {
              "pitch": 67,
              "velocity": 51,
              "position": 21.520833333333332,
              "duration": 0.46458333333333335
            },
            {
              "pitch": 72,
              "velocity": 59,
              "position": 21.53125,
              "duration": 0.45416666666666666
            },
            {
              "pitch": 57,
              "velocity": 42,
              "position": 22.5,
              "duration": 0.48541666666666666
            },
            {
              "pitch": 64,
              "velocity": 40,
              "position": 22.510416666666668,
              "duration": 0.475
            },
            {
              "pitch": 67,
              "velocity": 45,
              "position": 22.520833333333332,
              "duration": 0.46458333333333335
            },
            {
              "pitch": 72,
              "velocity": 41,
              "position": 22.53125,
              "duration": 0.45416666666666666
            },
            {
              "pitch": 57,
              "velocity": 51,
              "position": 23,
              "duration": 0.0375
            },
            {
              "pitch": 67,
              "velocity": 52,
              "position": 23.020833333333332,
              "duration": 0.027083333333333334
            },
            {
              "pitch": 64,
              "velocity": 54,
              "position": 23.010416666666668,
              "duration": 0.058333333333333334
            },
            {
              "pitch": 72,
              "velocity": 56,
              "position": 23.03125,
              "duration": 0.0375
            },
            {
              "pitch": 57,
              "velocity": 57,
              "position": 23.5,
              "duration": 0.475
            },
            {
              "pitch": 65,
              "velocity": 56,
              "position": 23.510416666666668,
              "duration": 0.475
            },
            {
              "pitch": 67,
              "velocity": 56,
              "position": 23.520833333333332,
              "duration": 0.46458333333333335
            },
            {
              "pitch": 72,
              "velocity": 59,
              "position": 23.53125,
              "duration": 0.45416666666666666
            },
            {
              "pitch": 57,
              "velocity": 35,
              "position": 24,
              "duration": 0.475
            },
            {
              "pitch": 65,
              "velocity": 27,
              "position": 24.010416666666668,
              "duration": 0.475
            },
            {
              "pitch": 67,
              "velocity": 27,
              "position": 24.020833333333332,
              "duration": 0.46458333333333335
            },
            {
              "pitch": 72,
              "velocity": 26,
              "position": 24.03125,
              "duration": 0.45416666666666666
            },
            {
              "pitch": 57,
              "velocity": 46,
              "position": 24.5,
              "duration": 0.475
            },
            {
              "pitch": 65,
              "velocity": 37,
              "position": 24.510416666666668,
              "duration": 0.475
            },
            {
              "pitch": 67,
              "velocity": 37,
              "position": 24.520833333333332,
              "duration": 0.46458333333333335
            },
            {
              "pitch": 72,
              "velocity": 44,
              "position": 24.53125,
              "duration": 0.45416666666666666
            },
            {
              "pitch": 57,
              "velocity": 53,
              "position": 25,
              "duration": 0.0375
            },
            {
              "pitch": 65,
              "velocity": 51,
              "position": 25.010416666666668,
              "duration": 0.0375
            },
            {
              "pitch": 67,
              "velocity": 51,
              "position": 25.020833333333332,
              "duration": 0.0375
            },
            {
              "pitch": 72,
              "velocity": 56,
              "position": 25.03125,
              "duration": 0.027083333333333334
            },
            {
              "pitch": 57,
              "velocity": 59,
              "position": 26,
              "duration": 0.475
            },
            {
              "pitch": 65,
              "velocity": 56,
              "position": 26.010416666666668,
              "duration": 0.475
            },
            {
              "pitch": 67,
              "velocity": 56,
              "position": 26.020833333333332,
              "duration": 0.46458333333333335
            },
            {
              "pitch": 72,
              "velocity": 58,
              "position": 26.03125,
              "duration": 0.45416666666666666
            },
            {
              "pitch": 57,
              "velocity": 46,
              "position": 26.5,
              "duration": 0.475
            },
            {
              "pitch": 65,
              "velocity": 37,
              "position": 26.510416666666668,
              "duration": 0.475
            },
            {
              "pitch": 67,
              "velocity": 37,
              "position": 26.520833333333332,
              "duration": 0.46458333333333335
            },
            {
              "pitch": 72,
              "velocity": 44,
              "position": 26.53125,
              "duration": 0.45416666666666666
            },
            {
              "pitch": 57,
              "velocity": 53,
              "position": 27,
              "duration": 0.0375
            },
            {
              "pitch": 65,
              "velocity": 51,
              "position": 27.010416666666668,
              "duration": 0.0375
            },
            {
              "pitch": 67,
              "velocity": 51,
              "position": 27.020833333333332,
              "duration": 0.0375
            },
            {
              "pitch": 72,
              "velocity": 56,
              "position": 27.03125,
              "duration": 0.027083333333333334
            },
            {
              "pitch": 59,
              "velocity": 58,
              "position": 27.5,
              "duration": 4.475
            },
            {
              "pitch": 65,
              "velocity": 58,
              "position": 27.510416666666668,
              "duration": 4.475
            },
            {
              "pitch": 68,
              "velocity": 58,
              "position": 27.520833333333332,
              "duration": 4.464583333333334
            },
            {
              "pitch": 76,
              "velocity": 59,
              "position": 27.53125,
              "duration": 4.454166666666667
            }
          ]
        }
      }
    },
    "Ending_C": {
      "type": "Ending_C",
      "sizeInBeats": 12,
      "channels": {
        "1": {
          "ctab": {
            "srcChannel": 1,
            "name": "Bass",
            "accType": "BASS",
            "editable": false,
            "mutedNotes": [],
            "mutedChords": [
              "1+2+5",
              "sus4",
              "1+5",
              "1+8",
              "7aug",
              "Maj7aug",
              "7(#9)",
              "7(b13)",
              "7(b9)",
              "7(13)",
              "7#11",
              "7(9)",
              "7b5",
              "7sus4",
              "7th",
              "aug",
              "Maj6(9)",
              "Maj7(9)",
              "Maj(9)",
              "Maj7#11",
              "Maj7",
              "Maj6",
              "Maj"
            ],
            "autoStart": false,
            "sourceChordNote": 0,
            "sourceChordType": "min",
            "ctb2Low": null,
            "ctb2Main": {
              "ntr": "ROOT_TRANSPOSITION",
              "ntt": "BYPASS",
              "bassOn": false,
              "chordRootUpperLimit": 8,
              "noteLowLimit": 28,
              "noteHighLimit": 127,
              "rtr": "PITCH_SHIFT"
            },
            "ctb2High": null
          },
          "notes": [
            {
              "pitch": 24,
              "velocity": 98,
              "position": 0.5,
              "duration": 0.5270833333333333
            },
            {
              "pitch": 34,
              "velocity": 98,
              "position": 2,
              "duration": 0.5270833333333333
            },
            {
              "pitch": 32,
              "velocity": 98,
              "position": 3.5,
              "duration": 1.7770833333333333
            },
            {
              "pitch": 31,
              "velocity": 98,
              "position": 5.5,
              "duration": 0.27708333333333335
            },
            {
              "pitch": 31,
              "velocity": 98,
              "position": 6.5,
              "duration": 1.2770833333333333
            },
            {
              "pitch": 24,
              "velocity": 98,
              "position": 8,
              "duration": 0.7770833333333333
            }
          ]
        },
        "2": {
          "ctab": {
            "srcChannel": 2,
            "name": "Gt A",
            "accType": "CHORD1",
            "editable": false,
            "mutedNotes": [
              10,
              9,
              8,
              7,
              6,
              5
            ],
            "mutedChords": [
              "1+2+5",
              "sus4",
              "1+5",
              "1+8",
              "7aug",
              "Maj7aug",
              "7(#9)",
              "7(b13)",
              "7(b9)",
              "7(13)",
              "7#11",
              "7(9)",
              "7b5",
              "7sus4",
              "7th",
              "aug",
              "Maj6(9)",
              "Maj7(9)",
              "Maj(9)",
              "Maj7#11",
              "Maj7",
              "Maj6",
              "Maj"
            ],
            "autoStart": false,
            "sourceChordNote": 0,
            "sourceChordType": "min",
            "ctb2Low": null,
            "ctb2Main": {
              "ntr": "ROOT_TRANSPOSITION",
              "ntt": "BYPASS",
              "bassOn": false,
              "chordRootUpperLimit": 7,
              "noteLowLimit": 0,
              "noteHighLimit": 127,
              "rtr": "PITCH_SHIFT"
            },
            "ctb2High": null
          },
          "notes": [
            {
              "pitch": 51,
              "velocity": 34,
              "position": 0,
              "duration": 0.48541666666666666
            },
            {
              "pitch": 58,
              "velocity": 35,
              "position": 0.010416666666666666,
              "duration": 0.475
            },
            {
              "pitch": 62,
              "velocity": 26,
              "position": 0.020833333333333332,
              "duration": 0.46458333333333335
            },
            {
              "pitch": 67,
              "velocity": 27,
              "position": 0.03125,
              "duration": 0.45416666666666666
            },
            {
              "pitch": 51,
              "velocity": 53,
              "position": 0.5,
              "duration": 0.48541666666666666
            },
            {
              "pitch": 58,
              "velocity": 56,
              "position": 0.5104166666666666,
              "duration": 0.475
            },
            {
              "pitch": 62,
              "velocity": 57,
              "position": 0.5208333333333334,
              "duration": 0.46458333333333335
            },
            {
              "pitch": 67,
              "velocity": 53,
              "position": 0.53125,
              "duration": 0.45416666666666666
            },
            {
              "pitch": 51,
              "velocity": 53,
              "position": 1,
              "duration": 0.04791666666666667
            },
            {
              "pitch": 58,
              "velocity": 53,
              "position": 1.0104166666666667,
              "duration": 0.0375
            },
            {
              "pitch": 62,
              "velocity": 56,
              "position": 1.0208333333333333,
              "duration": 0.027083333333333334
            },
            {
              "pitch": 67,
              "velocity": 51,
              "position": 1.03125,
              "duration": 0.0375
            },
            {
              "pitch": 56,
              "velocity": 57,
              "position": 2.0104166666666665,
              "duration": 0.475
            },
            {
              "pitch": 60,
              "velocity": 59,
              "position": 2.0208333333333335,
              "duration": 0.475
            },
            {
              "pitch": 51,
              "velocity": 56,
              "position": 2,
              "duration": 0.50625
            },
            {
              "pitch": 67,
              "velocity": 56,
              "position": 2.03125,
              "duration": 0.48541666666666666
            },
            {
              "pitch": 54,
              "velocity": 56,
              "position": 3.5,
              "duration": 1.4854166666666666
            },
            {
              "pitch": 58,
              "velocity": 57,
              "position": 3.5104166666666665,
              "duration": 1.475
            },
            {
              "pitch": 60,
              "velocity": 59,
              "position": 3.5208333333333335,
              "duration": 1.4645833333333333
            },
            {
              "pitch": 65,
              "velocity": 56,
              "position": 3.53125,
              "duration": 1.4541666666666666
            },
            {
              "pitch": 54,
              "velocity": 53,
              "position": 5.010416666666667,
              "duration": 0.0375
            },
            {
              "pitch": 58,
              "velocity": 56,
              "position": 5.020833333333333,
              "duration": 0.027083333333333334
            },
            {
              "pitch": 60,
              "velocity": 53,
              "position": 5,
              "duration": 0.04791666666666667
            },
            {
              "pitch": 65,
              "velocity": 51,
              "position": 5.03125,
              "duration": 0.0375
            },
            {
              "pitch": 59,
              "velocity": 57,
              "position": 5.510416666666667,
              "duration": 0.475
            },
            {
              "pitch": 63,
              "velocity": 59,
              "position": 5.520833333333333,
              "duration": 0.475
            },
            {
              "pitch": 53,
              "velocity": 56,
              "position": 5.5,
              "duration": 0.50625
            },
            {
              "pitch": 67,
              "velocity": 56,
              "position": 5.53125,
              "duration": 0.48541666666666666
            },
            {
              "pitch": 59,
              "velocity": 57,
              "position": 6.510416666666667,
              "duration": 1.225
            },
            {
              "pitch": 63,
              "velocity": 59,
              "position": 6.520833333333333,
              "duration": 1.225
            },
            {
              "pitch": 53,
              "velocity": 56,
              "position": 6.5,
              "duration": 1.25625
            },
            {
              "pitch": 67,
              "velocity": 56,
              "position": 6.53125,
              "duration": 1.2354166666666666
            },
            {
              "pitch": 60,
              "velocity": 57,
              "position": 8.010416666666666,
              "duration": 0.725
            },
            {
              "pitch": 55,
              "velocity": 59,
              "position": 8.020833333333334,
              "duration": 0.725
            },
            {
              "pitch": 51,
              "velocity": 56,
              "position": 8,
              "duration": 0.75625
            },
            {
              "pitch": 67,
              "velocity": 56,
              "position": 8.03125,
              "duration": 0.7354166666666667
            }
          ]
        },
        "3": {
          "ctab": {
            "srcChannel": 3,
            "name": "Pno",
            "accType": "CHORD2",
            "editable": false,
            "mutedNotes": [],
            "mutedChords": [
              "1+2+5",
              "sus4",
              "1+5",
              "1+8",
              "7aug",
              "Maj7aug",
              "7(#9)",
              "7(b13)",
              "7(b9)",
              "7(13)",
              "7#11",
              "7(9)",
              "7b5",
              "7sus4",
              "7th",
              "aug",
              "Maj6(9)",
              "Maj7(9)",
              "Maj(9)",
              "Maj7#11",
              "Maj7",
              "Maj6",
              "Maj"
            ],
            "autoStart": false,
            "sourceChordNote": 0,
            "sourceChordType": "min",
            "ctb2Low": null,
            "ctb2Main": {
              "ntr": "ROOT_TRANSPOSITION",
              "ntt": "BYPASS",
              "bassOn": false,
              "chordRootUpperLimit": 5,
              "noteLowLimit": 54,
              "noteHighLimit": 79,
              "rtr": "PITCH_SHIFT"
            },
            "ctb2High": null
          },
          "notes": [
            {
              "pitch": 43,
              "velocity": 72,
              "position": 0.5,
              "duration": 0.40625
            },
            {
              "pitch": 46,
              "velocity": 72,
              "position": 0.5,
              "duration": 0.40625
            },
            {
              "pitch": 50,
              "velocity": 72,
              "position": 0.5,
              "duration": 0.40625
            },
            {
              "pitch": 51,
              "velocity": 72,
              "position": 0.5,
              "duration": 0.40625
            },
            {
              "pitch": 79,
              "velocity": 76,
              "position": 0.5,
              "duration": 0.4479166666666667
            },
            {
              "pitch": 86,
              "velocity": 76,
              "position": 0.5,
              "duration": 0.4479166666666667
            },
            {
              "pitch": 91,
              "velocity": 76,
              "position": 0.5,
              "duration": 0.4479166666666667
            },
            {
              "pitch": 43,
              "velocity": 72,
              "position": 2,
              "duration": 0.3229166666666667
            },
            {
              "pitch": 44,
              "velocity": 72,
              "position": 2,
              "duration": 0.3229166666666667
            },
            {
              "pitch": 48,
              "velocity": 72,
              "position": 2,
              "duration": 0.3229166666666667
            },
            {
              "pitch": 50,
              "velocity": 72,
              "position": 2,
              "duration": 0.3229166666666667
            },
            {
              "pitch": 79,
              "velocity": 76,
              "position": 2,
              "duration": 0.3645833333333333
            },
            {
              "pitch": 84,
              "velocity": 76,
              "position": 2,
              "duration": 0.3645833333333333
            },
            {
              "pitch": 91,
              "velocity": 76,
              "position": 2,
              "duration": 0.3645833333333333
            },
            {
              "pitch": 77,
              "velocity": 76,
              "position": 3.5,
              "duration": 1.4479166666666667
            },
            {
              "pitch": 82,
              "velocity": 76,
              "position": 3.5,
              "duration": 1.4479166666666667
            },
            {
              "pitch": 89,
              "velocity": 76,
              "position": 3.5,
              "duration": 1.4479166666666667
            },
            {
              "pitch": 42,
              "velocity": 72,
              "position": 3.5,
              "duration": 1.90625
            },
            {
              "pitch": 46,
              "velocity": 72,
              "position": 3.5,
              "duration": 1.90625
            },
            {
              "pitch": 48,
              "velocity": 72,
              "position": 3.5,
              "duration": 1.90625
            },
            {
              "pitch": 53,
              "velocity": 72,
              "position": 3.5,
              "duration": 1.90625
            },
            {
              "pitch": 47,
              "velocity": 72,
              "position": 5.5,
              "duration": 0.15625
            },
            {
              "pitch": 51,
              "velocity": 72,
              "position": 5.5,
              "duration": 0.15625
            },
            {
              "pitch": 53,
              "velocity": 72,
              "position": 5.5,
              "duration": 0.15625
            },
            {
              "pitch": 75,
              "velocity": 76,
              "position": 5.5,
              "duration": 0.4479166666666667
            },
            {
              "pitch": 83,
              "velocity": 76,
              "position": 5.5,
              "duration": 0.4479166666666667
            },
            {
              "pitch": 87,
              "velocity": 76,
              "position": 5.5,
              "duration": 0.4479166666666667
            },
            {
              "pitch": 47,
              "velocity": 72,
              "position": 6.5,
              "duration": 1.15625
            },
            {
              "pitch": 51,
              "velocity": 72,
              "position": 6.5,
              "duration": 1.15625
            },
            {
              "pitch": 53,
              "velocity": 72,
              "position": 6.5,
              "duration": 1.15625
            },
            {
              "pitch": 75,
              "velocity": 76,
              "position": 6.5,
              "duration": 1.1979166666666667
            },
            {
              "pitch": 83,
              "velocity": 76,
              "position": 6.5,
              "duration": 1.1979166666666667
            },
            {
              "pitch": 87,
              "velocity": 76,
              "position": 6.5,
              "duration": 1.1979166666666667
            },
            {
              "pitch": 43,
              "velocity": 72,
              "position": 8,
              "duration": 0.65625
            },
            {
              "pitch": 48,
              "velocity": 72,
              "position": 8,
              "duration": 0.65625
            },
            {
              "pitch": 51,
              "velocity": 72,
              "position": 8,
              "duration": 0.65625
            },
            {
              "pitch": 84,
              "velocity": 76,
              "position": 8,
              "duration": 0.6979166666666666
            }
          ]
        },
        "4": {
          "ctab": {
            "srcChannel": 4,
            "name": "Str",
            "accType": "PAD",
            "editable": false,
            "mutedNotes": [],
            "mutedChords": [
              "1+2+5",
              "sus4",
              "1+5",
              "1+8",
              "7aug",
              "Maj7aug",
              "7(#9)",
              "7(b13)",
              "7(b9)",
              "7(13)",
              "7#11",
              "7(9)",
              "7b5",
              "7sus4",
              "7th",
              "aug",
              "Maj6(9)",
              "Maj7(9)",
              "Maj(9)",
              "Maj7#11",
              "Maj7",
              "Maj6",
              "Maj"
            ],
            "autoStart": false,
            "sourceChordNote": 0,
            "sourceChordType": "min",
            "ctb2Low": null,
            "ctb2Main": {
              "ntr": "ROOT_TRANSPOSITION",
              "ntt": "BYPASS",
              "bassOn": false,
              "chordRootUpperLimit": 8,
              "noteLowLimit": 54,
              "noteHighLimit": 127,
              "rtr": "PITCH_SHIFT"
            },
            "ctb2High": null
          },
          "notes": []
        },
        "5": {
          "ctab": {
            "srcChannel": 5,
            "name": "Gt B",
            "accType": "CHORD1",
            "editable": false,
            "mutedNotes": [
              11,
              4,
              3,
              2,
              1,
              0
            ],
            "mutedChords": [
              "1+2+5",
              "sus4",
              "1+5",
              "1+8",
              "7aug",
              "Maj7aug",
              "7(#9)",
              "7(b13)",
              "7(b9)",
              "7(13)",
              "7#11",
              "7(9)",
              "7b5",
              "7sus4",
              "7th",
              "aug",
              "Maj6(9)",
              "Maj7(9)",
              "Maj(9)",
              "Maj7#11",
              "Maj7",
              "Maj6",
              "Maj"
            ],
            "autoStart": false,
            "sourceChordNote": 0,
            "sourceChordType": "min",
            "ctb2Low": null,
            "ctb2Main": {
              "ntr": "ROOT_TRANSPOSITION",
              "ntt": "BYPASS",
              "bassOn": false,
              "chordRootUpperLimit": 0,
              "noteLowLimit": 0,
              "noteHighLimit": 127,
              "rtr": "PITCH_SHIFT"
            },
            "ctb2High": null
          },
          "notes": [
            {
              "pitch": 58,
              "velocity": 35,
              "position": 0,
              "duration": 0.475
            },
            {
              "pitch": 63,
              "velocity": 34,
              "position": 0.010416666666666666,
              "duration": 0.475
            },
            {
              "pitch": 67,
              "velocity": 27,
              "position": 0.020833333333333332,
              "duration": 0.46458333333333335
            },
            {
              "pitch": 74,
              "velocity": 26,
              "position": 0.03125,
              "duration": 0.45416666666666666
            },
            {
              "pitch": 58,
              "velocity": 53,
              "position": 0.5,
              "duration": 0.48541666666666666
            },
            {
              "pitch": 63,
              "velocity": 53,
              "position": 0.5104166666666666,
              "duration": 0.475
            },
            {
              "pitch": 67,
              "velocity": 51,
              "position": 0.5208333333333334,
              "duration": 0.46458333333333335
            },
            {
              "pitch": 74,
              "velocity": 56,
              "position": 0.53125,
              "duration": 0.45416666666666666
            },
            {
              "pitch": 58,
              "velocity": 53,
              "position": 1,
              "duration": 0.0375
            },
            {
              "pitch": 63,
              "velocity": 53,
              "position": 1.0104166666666667,
              "duration": 0.04791666666666667
            },
            {
              "pitch": 67,
              "velocity": 51,
              "position": 1.0208333333333333,
              "duration": 0.0375
            },
            {
              "pitch": 74,
              "velocity": 56,
              "position": 1.03125,
              "duration": 0.027083333333333334
            },
            {
              "pitch": 56,
              "velocity": 56,
              "position": 2,
              "duration": 0.48541666666666666
            },
            {
              "pitch": 67,
              "velocity": 53,
              "position": 2.0208333333333335,
              "duration": 0.48541666666666666
            },
            {
              "pitch": 72,
              "velocity": 57,
              "position": 2.03125,
              "duration": 0.475
            },
            {
              "pitch": 63,
              "velocity": 53,
              "position": 2.0104166666666665,
              "duration": 0.5166666666666667
            },
            {
              "pitch": 58,
              "velocity": 59,
              "position": 3.5,
              "duration": 1.4854166666666666
            },
            {
              "pitch": 66,
              "velocity": 56,
              "position": 3.5208333333333335,
              "duration": 1.4645833333333333
            },
            {
              "pitch": 72,
              "velocity": 58,
              "position": 3.53125,
              "duration": 1.4541666666666666
            },
            {
              "pitch": 58,
              "velocity": 56,
              "position": 5,
              "duration": 0.0375
            },
            {
              "pitch": 66,
              "velocity": 55,
              "position": 5.020833333333333,
              "duration": 0.027083333333333334
            },
            {
              "pitch": 72,
              "velocity": 53,
              "position": 5.03125,
              "duration": 0.027083333333333334
            },
            {
              "pitch": 55,
              "velocity": 53,
              "position": 5.5,
              "duration": 0.475
            },
            {
              "pitch": 67,
              "velocity": 51,
              "position": 5.520833333333333,
              "duration": 0.475
            },
            {
              "pitch": 71,
              "velocity": 59,
              "position": 5.53125,
              "duration": 0.48541666666666666
            },
            {
              "pitch": 63,
              "velocity": 58,
              "position": 5.510416666666667,
              "duration": 0.5166666666666667
            },
            {
              "pitch": 55,
              "velocity": 53,
              "position": 6.5,
              "duration": 1.225
            },
            {
              "pitch": 67,
              "velocity": 51,
              "position": 6.520833333333333,
              "duration": 1.225
            },
            {
              "pitch": 71,
              "velocity": 59,
              "position": 6.53125,
              "duration": 1.2354166666666666
            },
            {
              "pitch": 63,
              "velocity": 58,
              "position": 6.510416666666667,
              "duration": 1.2666666666666666
            },
            {
              "pitch": 55,
              "velocity": 53,
              "position": 8,
              "duration": 0.7354166666666667
            },
            {
              "pitch": 63,
              "velocity": 53,
              "position": 8.010416666666666,
              "duration": 0.725
            },
            {
              "pitch": 67,
              "velocity": 51,
              "position": 8.020833333333334,
              "duration": 0.7145833333333333
            },
            {
              "pitch": 72,
              "velocity": 56,
              "position": 8.03125,
              "duration": 0.7041666666666667
            }
          ]
        },
        "8": {
          "ctab": {
            "srcChannel": 8,
            "name": "Perc",
            "accType": "SUBRHYTHM",
            "editable": false,
            "mutedNotes": [],
            "mutedChords": [],
            "autoStart": true,
            "sourceChordNote": 0,
            "sourceChordType": "Maj7",
            "ctb2Low": null,
            "ctb2Main": {
              "ntr": "ROOT_FIXED",
              "ntt": "BYPASS",
              "bassOn": false,
              "chordRootUpperLimit": 6,
              "noteLowLimit": 0,
              "noteHighLimit": 127,
              "rtr": "PITCH_SHIFT"
            },
            "ctb2High": null
          },
          "notes": [
            {
              "pitch": 82,
              "velocity": 56,
              "position": 0,
              "duration": 0.00625
            },
            {
              "pitch": 82,
              "velocity": 38,
              "position": 0.25,
              "duration": 0.00625
            },
            {
              "pitch": 82,
              "velocity": 32,
              "position": 0.5,
              "duration": 0.00625
            },
            {
              "pitch": 82,
              "velocity": 32,
              "position": 0.75,
              "duration": 0.00625
            },
            {
              "pitch": 82,
              "velocity": 88,
              "position": 1,
              "duration": 0.00625
            },
            {
              "pitch": 82,
              "velocity": 32,
              "position": 1.5,
              "duration": 0.00625
            },
            {
              "pitch": 82,
              "velocity": 56,
              "position": 2,
              "duration": 0.00625
            },
            {
              "pitch": 82,
              "velocity": 32,
              "position": 2.5,
              "duration": 0.00625
            },
            {
              "pitch": 82,
              "velocity": 88,
              "position": 3,
              "duration": 0.00625
            },
            {
              "pitch": 82,
              "velocity": 32,
              "position": 3.5,
              "duration": 0.00625
            },
            {
              "pitch": 82,
              "velocity": 56,
              "position": 4,
              "duration": 0.00625
            },
            {
              "pitch": 82,
              "velocity": 32,
              "position": 4.5,
              "duration": 0.00625
            },
            {
              "pitch": 82,
              "velocity": 88,
              "position": 5,
              "duration": 0.00625
            },
            {
              "pitch": 82,
              "velocity": 32,
              "position": 5.5,
              "duration": 0.00625
            },
            {
              "pitch": 82,
              "velocity": 56,
              "position": 6,
              "duration": 0.00625
            },
            {
              "pitch": 82,
              "velocity": 32,
              "position": 6.5,
              "duration": 0.00625
            },
            {
              "pitch": 82,
              "velocity": 88,
              "position": 7,
              "duration": 0.00625
            },
            {
              "pitch": 82,
              "velocity": 32,
              "position": 7.5,
              "duration": 0.00625
            },
            {
              "pitch": 82,
              "velocity": 56,
              "position": 8,
              "duration": 0.00625
            }
          ]
        },
        "9": {
          "ctab": {
            "srcChannel": 9,
            "name": "Drums",
            "accType": "RHYTHM",
            "editable": false,
            "mutedNotes": [],
            "mutedChords": [],
            "autoStart": true,
            "sourceChordNote": 0,
            "sourceChordType": "Maj7",
            "ctb2Low": null,
            "ctb2Main": {
              "ntr": "ROOT_FIXED",
              "ntt": "BYPASS",
              "bassOn": false,
              "chordRootUpperLimit": 6,
              "noteLowLimit": 0,
              "noteHighLimit": 127,
              "rtr": "PITCH_SHIFT"
            },
            "ctb2High": null
          },
          "notes": [
            {
              "pitch": 44,
              "velocity": 32,
              "position": 0,
              "duration": 0.00625
            },
            {
              "pitch": 59,
              "velocity": 90,
              "position": 0,
              "duration": 0.00625
            },
            {
              "pitch": 33,
              "velocity": 72,
              "position": 0.5,
              "duration": 0.00625
            },
            {
              "pitch": 38,
              "velocity": 72,
              "position": 0.5,
              "duration": 0.00625
            },
            {
              "pitch": 59,
              "velocity": 41,
              "position": 0.5,
              "duration": 0.00625
            },
            {
              "pitch": 44,
              "velocity": 62,
              "position": 1,
              "duration": 0.00625
            },
            {
              "pitch": 59,
              "velocity": 90,
              "position": 1,
              "duration": 0.00625
            },
            {
              "pitch": 59,
              "velocity": 41,
              "position": 1.5,
              "duration": 0.00625
            },
            {
              "pitch": 33,
              "velocity": 72,
              "position": 2,
              "duration": 0.00625
            },
            {
              "pitch": 41,
              "velocity": 64,
              "position": 2,
              "duration": 0.00625
            },
            {
              "pitch": 44,
              "velocity": 32,
              "position": 2,
              "duration": 0.00625
            },
            {
              "pitch": 59,
              "velocity": 90,
              "position": 2,
              "duration": 0.00625
            },
            {
              "pitch": 59,
              "velocity": 41,
              "position": 2.5,
              "duration": 0.00625
            },
            {
              "pitch": 44,
              "velocity": 62,
              "position": 3,
              "duration": 0.00625
            },
            {
              "pitch": 59,
              "velocity": 41,
              "position": 3,
              "duration": 0.00625
            },
            {
              "pitch": 33,
              "velocity": 72,
              "position": 3.5,
              "duration": 0.00625
            },
            {
              "pitch": 38,
              "velocity": 48,
              "position": 3.5,
              "duration": 0.00625
            },
            {
              "pitch": 59,
              "velocity": 90,
              "position": 3.5,
              "duration": 0.00625
            },
            {
              "pitch": 38,
              "velocity": 36,
              "position": 3.6666666666666665,
              "duration": 0.00625
            },
            {
              "pitch": 38,
              "velocity": 24,
              "position": 3.8333333333333335,
              "duration": 0.00625
            },
            {
              "pitch": 44,
              "velocity": 32,
              "position": 4,
              "duration": 0.00625
            },
            {
              "pitch": 59,
              "velocity": 41,
              "position": 4,
              "duration": 0.00625
            },
            {
              "pitch": 38,
              "velocity": 48,
              "position": 4.5,
              "duration": 0.00625
            },
            {
              "pitch": 59,
              "velocity": 90,
              "position": 4.5,
              "duration": 0.00625
            },
            {
              "pitch": 38,
              "velocity": 72,
              "position": 5,
              "duration": 0.00625
            },
            {
              "pitch": 59,
              "velocity": 41,
              "position": 5,
              "duration": 0.00625
            },
            {
              "pitch": 33,
              "velocity": 72,
              "position": 5.5,
              "duration": 0.00625
            },
            {
              "pitch": 46,
              "velocity": 68,
              "position": 5.5,
              "duration": 0.00625
            },
            {
              "pitch": 59,
              "velocity": 90,
              "position": 5.5,
              "duration": 0.00625
            },
            {
              "pitch": 44,
              "velocity": 32,
              "position": 6,
              "duration": 0.00625
            },
            {
              "pitch": 59,
              "velocity": 41,
              "position": 6,
              "duration": 0.00625
            },
            {
              "pitch": 33,
              "velocity": 72,
              "position": 6.5,
              "duration": 0.00625
            },
            {
              "pitch": 46,
              "velocity": 68,
              "position": 6.5,
              "duration": 0.00625
            },
            {
              "pitch": 59,
              "velocity": 90,
              "position": 6.5,
              "duration": 0.00625
            },
            {
              "pitch": 38,
              "velocity": 48,
              "position": 7,
              "duration": 0.00625
            },
            {
              "pitch": 38,
              "velocity": 72,
              "position": 7.5,
              "duration": 0.00625
            },
            {
              "pitch": 33,
              "velocity": 72,
              "position": 8,
              "duration": 0.00625
            },
            {
              "pitch": 46,
              "velocity": 68,
              "position": 8,
              "duration": 0.00625
            },
            {
              "pitch": 44,
              "velocity": 3,
              "position": 8.5,
              "duration": 0.00625
            }
          ]
        },
        "10": {
          "ctab": {
            "srcChannel": 10,
            "name": "Bass",
            "accType": "BASS",
            "editable": false,
            "mutedNotes": [],
            "mutedChords": [
              "dim7",
              "dim",
              "minMaj7(9)",
              "minMaj7",
              "min7(11)",
              "min7(9)",
              "min(9)",
              "m7b5",
              "min7",
              "min6",
              "min"
            ],
            "autoStart": false,
            "sourceChordNote": 0,
            "sourceChordType": "Maj",
            "ctb2Low": null,
            "ctb2Main": {
              "ntr": "ROOT_TRANSPOSITION",
              "ntt": "BYPASS",
              "bassOn": false,
              "chordRootUpperLimit": 8,
              "noteLowLimit": 28,
              "noteHighLimit": 127,
              "rtr": "PITCH_SHIFT"
            },
            "ctb2High": null
          },
          "notes": [
            {
              "pitch": 24,
              "velocity": 98,
              "position": 0.5,
              "duration": 0.5270833333333333
            },
            {
              "pitch": 33,
              "velocity": 98,
              "position": 2,
              "duration": 0.5270833333333333
            },
            {
              "pitch": 32,
              "velocity": 98,
              "position": 3.5,
              "duration": 1.7770833333333333
            },
            {
              "pitch": 31,
              "velocity": 98,
              "position": 5.5,
              "duration": 0.27708333333333335
            },
            {
              "pitch": 31,
              "velocity": 98,
              "position": 6.5,
              "duration": 1.2770833333333333
            },
            {
              "pitch": 24,
              "velocity": 98,
              "position": 8,
              "duration": 0.7770833333333333
            }
          ]
        },
        "11": {
          "ctab": {
            "srcChannel": 11,
            "name": "Gt A",
            "accType": "CHORD1",
            "editable": false,
            "mutedNotes": [
              10,
              9,
              8,
              7,
              6,
              5
            ],
            "mutedChords": [
              "dim7",
              "dim",
              "minMaj7(9)",
              "minMaj7",
              "min7(11)",
              "min7(9)",
              "min(9)",
              "m7b5",
              "min7",
              "min6",
              "min"
            ],
            "autoStart": false,
            "sourceChordNote": 0,
            "sourceChordType": "Maj",
            "ctb2Low": null,
            "ctb2Main": {
              "ntr": "ROOT_TRANSPOSITION",
              "ntt": "BYPASS",
              "bassOn": false,
              "chordRootUpperLimit": 7,
              "noteLowLimit": 0,
              "noteHighLimit": 127,
              "rtr": "PITCH_SHIFT"
            },
            "ctb2High": null
          },
          "notes": [
            {
              "pitch": 52,
              "velocity": 39,
              "position": 0,
              "duration": 0.48541666666666666
            },
            {
              "pitch": 59,
              "velocity": 40,
              "position": 0.010416666666666666,
              "duration": 0.475
            },
            {
              "pitch": 62,
              "velocity": 31,
              "position": 0.020833333333333332,
              "duration": 0.46458333333333335
            },
            {
              "pitch": 67,
              "velocity": 32,
              "position": 0.03125,
              "duration": 0.45416666666666666
            },
            {
              "pitch": 52,
              "velocity": 61,
              "position": 0.5,
              "duration": 0.48541666666666666
            },
            {
              "pitch": 59,
              "velocity": 65,
              "position": 0.5104166666666666,
              "duration": 0.475
            },
            {
              "pitch": 62,
              "velocity": 65,
              "position": 0.5208333333333334,
              "duration": 0.46458333333333335
            },
            {
              "pitch": 67,
              "velocity": 61,
              "position": 0.53125,
              "duration": 0.45416666666666666
            },
            {
              "pitch": 52,
              "velocity": 61,
              "position": 1,
              "duration": 0.04791666666666667
            },
            {
              "pitch": 59,
              "velocity": 61,
              "position": 1.0104166666666667,
              "duration": 0.0375
            },
            {
              "pitch": 62,
              "velocity": 65,
              "position": 1.0208333333333333,
              "duration": 0.027083333333333334
            },
            {
              "pitch": 67,
              "velocity": 59,
              "position": 1.03125,
              "duration": 0.0375
            },
            {
              "pitch": 57,
              "velocity": 65,
              "position": 2.0104166666666665,
              "duration": 0.475
            },
            {
              "pitch": 60,
              "velocity": 67,
              "position": 2.0208333333333335,
              "duration": 0.475
            },
            {
              "pitch": 52,
              "velocity": 65,
              "position": 2,
              "duration": 0.50625
            },
            {
              "pitch": 67,
              "velocity": 65,
              "position": 2.03125,
              "duration": 0.48541666666666666
            },
            {
              "pitch": 54,
              "velocity": 65,
              "position": 3.5,
              "duration": 1.4854166666666666
            },
            {
              "pitch": 58,
              "velocity": 67,
              "position": 3.5208333333333335,
              "duration": 1.4645833333333333
            },
            {
              "pitch": 60,
              "velocity": 65,
              "position": 3.5104166666666665,
              "duration": 1.475
            },
            {
              "pitch": 65,
              "velocity": 65,
              "position": 3.53125,
              "duration": 1.4541666666666666
            },
            {
              "pitch": 54,
              "velocity": 61,
              "position": 5.010416666666667,
              "duration": 0.0375
            },
            {
              "pitch": 58,
              "velocity": 61,
              "position": 5,
              "duration": 0.04791666666666667
            },
            {
              "pitch": 60,
              "velocity": 65,
              "position": 5.020833333333333,
              "duration": 0.027083333333333334
            },
            {
              "pitch": 65,
              "velocity": 59,
              "position": 5.03125,
              "duration": 0.0375
            },
            {
              "pitch": 59,
              "velocity": 65,
              "position": 5.510416666666667,
              "duration": 0.475
            },
            {
              "pitch": 64,
              "velocity": 67,
              "position": 5.520833333333333,
              "duration": 0.475
            },
            {
              "pitch": 53,
              "velocity": 65,
              "position": 5.5,
              "duration": 0.50625
            },
            {
              "pitch": 67,
              "velocity": 65,
              "position": 5.53125,
              "duration": 0.48541666666666666
            },
            {
              "pitch": 59,
              "velocity": 65,
              "position": 6.510416666666667,
              "duration": 1.225
            },
            {
              "pitch": 64,
              "velocity": 67,
              "position": 6.520833333333333,
              "duration": 1.225
            },
            {
              "pitch": 53,
              "velocity": 65,
              "position": 6.5,
              "duration": 1.25625
            },
            {
              "pitch": 67,
              "velocity": 65,
              "position": 6.53125,
              "duration": 1.2354166666666666
            },
            {
              "pitch": 64,
              "velocity": 65,
              "position": 8.010416666666666,
              "duration": 0.725
            },
            {
              "pitch": 60,
              "velocity": 67,
              "position": 8.020833333333334,
              "duration": 0.725
            },
            {
              "pitch": 52,
              "velocity": 65,
              "position": 8,
              "duration": 0.75625
            },
            {
              "pitch": 67,
              "velocity": 65,
              "position": 8.03125,
              "duration": 0.7354166666666667
            }
          ]
        },
        "12": {
          "ctab": {
            "srcChannel": 12,
            "name": "Pno",
            "accType": "CHORD2",
            "editable": false,
            "mutedNotes": [],
            "mutedChords": [
              "dim7",
              "dim",
              "minMaj7(9)",
              "minMaj7",
              "min7(11)",
              "min7(9)",
              "min(9)",
              "m7b5",
              "min7",
              "min6",
              "min"
            ],
            "autoStart": false,
            "sourceChordNote": 0,
            "sourceChordType": "Maj",
            "ctb2Low": null,
            "ctb2Main": {
              "ntr": "ROOT_TRANSPOSITION",
              "ntt": "BYPASS",
              "bassOn": false,
              "chordRootUpperLimit": 5,
              "noteLowLimit": 54,
              "noteHighLimit": 79,
              "rtr": "PITCH_SHIFT"
            },
            "ctb2High": null
          },
          "notes": [
            {
              "pitch": 43,
              "velocity": 72,
              "position": 0.5,
              "duration": 0.40625
            },
            {
              "pitch": 47,
              "velocity": 72,
              "position": 0.5,
              "duration": 0.40625
            },
            {
              "pitch": 50,
              "velocity": 72,
              "position": 0.5,
              "duration": 0.40625
            },
            {
              "pitch": 52,
              "velocity": 72,
              "position": 0.5,
              "duration": 0.40625
            },
            {
              "pitch": 79,
              "velocity": 76,
              "position": 0.5,
              "duration": 0.4479166666666667
            },
            {
              "pitch": 86,
              "velocity": 76,
              "position": 0.5,
              "duration": 0.4479166666666667
            },
            {
              "pitch": 91,
              "velocity": 76,
              "position": 0.5,
              "duration": 0.4479166666666667
            },
            {
              "pitch": 43,
              "velocity": 72,
              "position": 2,
              "duration": 0.2708333333333333
            },
            {
              "pitch": 45,
              "velocity": 72,
              "position": 2,
              "duration": 0.2708333333333333
            },
            {
              "pitch": 50,
              "velocity": 72,
              "position": 2,
              "duration": 0.2708333333333333
            },
            {
              "pitch": 52,
              "velocity": 72,
              "position": 2,
              "duration": 0.2708333333333333
            },
            {
              "pitch": 79,
              "velocity": 76,
              "position": 2,
              "duration": 0.3125
            },
            {
              "pitch": 84,
              "velocity": 76,
              "position": 2,
              "duration": 0.3125
            },
            {
              "pitch": 91,
              "velocity": 76,
              "position": 2,
              "duration": 0.3125
            },
            {
              "pitch": 77,
              "velocity": 76,
              "position": 3.5,
              "duration": 1.4479166666666667
            },
            {
              "pitch": 82,
              "velocity": 76,
              "position": 3.5,
              "duration": 1.4479166666666667
            },
            {
              "pitch": 89,
              "velocity": 76,
              "position": 3.5,
              "duration": 1.4479166666666667
            },
            {
              "pitch": 42,
              "velocity": 72,
              "position": 3.5,
              "duration": 1.90625
            },
            {
              "pitch": 46,
              "velocity": 72,
              "position": 3.5,
              "duration": 1.90625
            },
            {
              "pitch": 50,
              "velocity": 72,
              "position": 3.5,
              "duration": 1.90625
            },
            {
              "pitch": 53,
              "velocity": 72,
              "position": 3.5,
              "duration": 1.90625
            },
            {
              "pitch": 47,
              "velocity": 72,
              "position": 5.5,
              "duration": 0.15625
            },
            {
              "pitch": 52,
              "velocity": 72,
              "position": 5.5,
              "duration": 0.15625
            },
            {
              "pitch": 53,
              "velocity": 72,
              "position": 5.5,
              "duration": 0.15625
            },
            {
              "pitch": 76,
              "velocity": 76,
              "position": 5.5,
              "duration": 0.4479166666666667
            },
            {
              "pitch": 83,
              "velocity": 76,
              "position": 5.5,
              "duration": 0.4479166666666667
            },
            {
              "pitch": 88,
              "velocity": 76,
              "position": 5.5,
              "duration": 0.4479166666666667
            },
            {
              "pitch": 47,
              "velocity": 72,
              "position": 6.5,
              "duration": 1.15625
            },
            {
              "pitch": 52,
              "velocity": 72,
              "position": 6.5,
              "duration": 1.15625
            },
            {
              "pitch": 53,
              "velocity": 72,
              "position": 6.5,
              "duration": 1.15625
            },
            {
              "pitch": 76,
              "velocity": 76,
              "position": 6.5,
              "duration": 1.1979166666666667
            },
            {
              "pitch": 83,
              "velocity": 76,
              "position": 6.5,
              "duration": 1.1979166666666667
            },
            {
              "pitch": 88,
              "velocity": 76,
              "position": 6.5,
              "duration": 1.1979166666666667
            },
            {
              "pitch": 43,
              "velocity": 72,
              "position": 8,
              "duration": 0.65625
            },
            {
              "pitch": 50,
              "velocity": 72,
              "position": 8,
              "duration": 0.65625
            },
            {
              "pitch": 52,
              "velocity": 72,
              "position": 8,
              "duration": 0.65625
            },
            {
              "pitch": 84,
              "velocity": 76,
              "position": 8,
              "duration": 0.6979166666666666
            }
          ]
        },
        "13": {
          "ctab": {
            "srcChannel": 13,
            "name": "Str",
            "accType": "PAD",
            "editable": false,
            "mutedNotes": [],
            "mutedChords": [
              "dim7",
              "dim",
              "minMaj7(9)",
              "minMaj7",
              "min7(11)",
              "min7(9)",
              "min(9)",
              "m7b5",
              "min7",
              "min6",
              "min"
            ],
            "autoStart": false,
            "sourceChordNote": 0,
            "sourceChordType": "Maj",
            "ctb2Low": null,
            "ctb2Main": {
              "ntr": "ROOT_TRANSPOSITION",
              "ntt": "BYPASS",
              "bassOn": false,
              "chordRootUpperLimit": 8,
              "noteLowLimit": 54,
              "noteHighLimit": 127,
              "rtr": "PITCH_SHIFT"
            },
            "ctb2High": null
          },
          "notes": []
        },
        "14": {
          "ctab": {
            "srcChannel": 14,
            "name": "Gt B",
            "accType": "CHORD1",
            "editable": false,
            "mutedNotes": [
              11,
              4,
              3,
              2,
              1,
              0
            ],
            "mutedChords": [
              "dim7",
              "dim",
              "minMaj7(9)",
              "minMaj7",
              "min7(11)",
              "min7(9)",
              "min(9)",
              "m7b5",
              "min7",
              "min6",
              "min"
            ],
            "autoStart": false,
            "sourceChordNote": 0,
            "sourceChordType": "Maj",
            "ctb2Low": null,
            "ctb2Main": {
              "ntr": "ROOT_TRANSPOSITION",
              "ntt": "BYPASS",
              "bassOn": false,
              "chordRootUpperLimit": 0,
              "noteLowLimit": 0,
              "noteHighLimit": 127,
              "rtr": "PITCH_SHIFT"
            },
            "ctb2High": null
          },
          "notes": [
            {
              "pitch": 59,
              "velocity": 35,
              "position": 0,
              "duration": 0.475
            },
            {
              "pitch": 64,
              "velocity": 34,
              "position": 0.010416666666666666,
              "duration": 0.475
            },
            {
              "pitch": 67,
              "velocity": 27,
              "position": 0.020833333333333332,
              "duration": 0.46458333333333335
            },
            {
              "pitch": 74,
              "velocity": 26,
              "position": 0.03125,
              "duration": 0.45416666666666666
            },
            {
              "pitch": 59,
              "velocity": 53,
              "position": 0.5,
              "duration": 0.48541666666666666
            },
            {
              "pitch": 64,
              "velocity": 53,
              "position": 0.5104166666666666,
              "duration": 0.475
            },
            {
              "pitch": 67,
              "velocity": 51,
              "position": 0.5208333333333334,
              "duration": 0.46458333333333335
            },
            {
              "pitch": 74,
              "velocity": 56,
              "position": 0.53125,
              "duration": 0.45416666666666666
            },
            {
              "pitch": 59,
              "velocity": 53,
              "position": 1,
              "duration": 0.0375
            },
            {
              "pitch": 64,
              "velocity": 53,
              "position": 1.0104166666666667,
              "duration": 0.04791666666666667
            },
            {
              "pitch": 67,
              "velocity": 51,
              "position": 1.0208333333333333,
              "duration": 0.0375
            },
            {
              "pitch": 74,
              "velocity": 56,
              "position": 1.03125,
              "duration": 0.027083333333333334
            },
            {
              "pitch": 57,
              "velocity": 56,
              "position": 2,
              "duration": 0.48541666666666666
            },
            {
              "pitch": 67,
              "velocity": 53,
              "position": 2.0208333333333335,
              "duration": 0.48541666666666666
            },
            {
              "pitch": 72,
              "velocity": 57,
              "position": 2.03125,
              "duration": 0.475
            },
            {
              "pitch": 64,
              "velocity": 53,
              "position": 2.0104166666666665,
              "duration": 0.5166666666666667
            },
            {
              "pitch": 56,
              "velocity": 59,
              "position": 3.5,
              "duration": 1.4854166666666666
            },
            {
              "pitch": 66,
              "velocity": 56,
              "position": 3.5208333333333335,
              "duration": 1.4645833333333333
            },
            {
              "pitch": 72,
              "velocity": 58,
              "position": 3.53125,
              "duration": 1.4541666666666666
            },
            {
              "pitch": 56,
              "velocity": 56,
              "position": 5,
              "duration": 0.0375
            },
            {
              "pitch": 66,
              "velocity": 55,
              "position": 5.020833333333333,
              "duration": 0.027083333333333334
            },
            {
              "pitch": 72,
              "velocity": 53,
              "position": 5.03125,
              "duration": 0.027083333333333334
            },
            {
              "pitch": 55,
              "velocity": 53,
              "position": 5.5,
              "duration": 0.475
            },
            {
              "pitch": 65,
              "velocity": 51,
              "position": 5.520833333333333,
              "duration": 0.475
            },
            {
              "pitch": 71,
              "velocity": 59,
              "position": 5.53125,
              "duration": 0.48541666666666666
            },
            {
              "pitch": 55,
              "velocity": 53,
              "position": 6.5,
              "duration": 1.225
            },
            {
              "pitch": 65,
              "velocity": 51,
              "position": 6.520833333333333,
              "duration": 1.225
            },
            {
              "pitch": 71,
              "velocity": 59,
              "position": 6.53125,
              "duration": 1.2354166666666666
            },
            {
              "pitch": 55,
              "velocity": 53,
              "position": 8,
              "duration": 0.7354166666666667
            },
            {
              "pitch": 64,
              "velocity": 53,
              "position": 8.010416666666666,
              "duration": 0.725
            },
            {
              "pitch": 67,
              "velocity": 51,
              "position": 8.020833333333334,
              "duration": 0.7145833333333333
            },
            {
              "pitch": 72,
              "velocity": 56,
              "position": 8.03125,
              "duration": 0.7041666666666667
            }
          ]
        }
      }
    },
    "Ending_B": {
      "type": "Ending_B",
      "sizeInBeats": 16,
      "channels": {
        "2": {
          "ctab": {
            "srcChannel": 2,
            "name": "Gt B",
            "accType": "CHORD1",
            "editable": false,
            "mutedNotes": [],
            "mutedChords": [
              "7#11",
              "7b5",
              "7sus4",
              "minMaj7",
              "m7b5",
              "min",
              "Maj7#11",
              "Maj7",
              "Maj"
            ],
            "autoStart": false,
            "sourceChordNote": 0,
            "sourceChordType": "Maj7",
            "ctb2Low": null,
            "ctb2Main": {
              "ntr": "ROOT_FIXED",
              "ntt": "CHORD",
              "bassOn": false,
              "chordRootUpperLimit": 7,
              "noteLowLimit": 0,
              "noteHighLimit": 127,
              "rtr": "PITCH_SHIFT"
            },
            "ctb2High": null
          },
          "notes": [
            {
              "pitch": 59,
              "velocity": 69,
              "position": 0,
              "duration": 0.49583333333333335
            },
            {
              "pitch": 59,
              "velocity": 37,
              "position": 0.5,
              "duration": 0.975
            },
            {
              "pitch": 64,
              "velocity": 69,
              "position": 0,
              "duration": 1.475
            },
            {
              "pitch": 64,
              "velocity": 61,
              "position": 1.5,
              "duration": 0.49583333333333335
            },
            {
              "pitch": 67,
              "velocity": 65,
              "position": 1,
              "duration": 1.475
            },
            {
              "pitch": 59,
              "velocity": 61,
              "position": 1.5,
              "duration": 1.4958333333333333
            },
            {
              "pitch": 59,
              "velocity": 37,
              "position": 3,
              "duration": 0.475
            },
            {
              "pitch": 64,
              "velocity": 38,
              "position": 2,
              "duration": 1.475
            },
            {
              "pitch": 67,
              "velocity": 65,
              "position": 2.5,
              "duration": 0.9854166666666667
            },
            {
              "pitch": 59,
              "velocity": 56,
              "position": 3.5,
              "duration": 12.485416666666667
            },
            {
              "pitch": 64,
              "velocity": 49,
              "position": 3.5208333333333335,
              "duration": 12.464583333333334
            },
            {
              "pitch": 67,
              "velocity": 56,
              "position": 3.53125,
              "duration": 12.454166666666667
            }
          ]
        },
        "3": {
          "ctab": {
            "srcChannel": 3,
            "name": "Pno B",
            "accType": "CHORD2",
            "editable": false,
            "mutedNotes": [],
            "mutedChords": [
              "7#11",
              "7b5",
              "7sus4",
              "minMaj7",
              "m7b5",
              "min",
              "Maj7#11",
              "Maj7",
              "Maj"
            ],
            "autoStart": false,
            "sourceChordNote": 0,
            "sourceChordType": "Maj7",
            "ctb2Low": null,
            "ctb2Main": {
              "ntr": "ROOT_TRANSPOSITION",
              "ntt": "CHORD",
              "bassOn": false,
              "chordRootUpperLimit": 2,
              "noteLowLimit": 54,
              "noteHighLimit": 127,
              "rtr": "PITCH_SHIFT"
            },
            "ctb2High": null
          },
          "notes": [
            {
              "pitch": 43,
              "velocity": 71,
              "position": 0,
              "duration": 0.9479166666666666
            },
            {
              "pitch": 52,
              "velocity": 70,
              "position": 0,
              "duration": 0.9583333333333334
            },
            {
              "pitch": 47,
              "velocity": 69,
              "position": 0,
              "duration": 0.96875
            },
            {
              "pitch": 43,
              "velocity": 69,
              "position": 1.5,
              "duration": 0.22916666666666666
            },
            {
              "pitch": 47,
              "velocity": 65,
              "position": 1.5,
              "duration": 0.22916666666666666
            },
            {
              "pitch": 52,
              "velocity": 65,
              "position": 1.5,
              "duration": 0.22916666666666666
            },
            {
              "pitch": 47,
              "velocity": 55,
              "position": 2.5,
              "duration": 0.2604166666666667
            },
            {
              "pitch": 43,
              "velocity": 59,
              "position": 2.5,
              "duration": 0.2708333333333333
            },
            {
              "pitch": 52,
              "velocity": 60,
              "position": 2.5,
              "duration": 0.2708333333333333
            },
            {
              "pitch": 43,
              "velocity": 71,
              "position": 3.5,
              "duration": 12.447916666666666
            },
            {
              "pitch": 52,
              "velocity": 70,
              "position": 3.5,
              "duration": 12.458333333333334
            },
            {
              "pitch": 47,
              "velocity": 69,
              "position": 3.5,
              "duration": 12.46875
            }
          ]
        },
        "4": {
          "ctab": {
            "srcChannel": 4,
            "name": "Str B",
            "accType": "PAD",
            "editable": false,
            "mutedNotes": [],
            "mutedChords": [
              "7#11",
              "7b5",
              "7sus4",
              "minMaj7",
              "m7b5",
              "min",
              "Maj7#11",
              "Maj7",
              "Maj"
            ],
            "autoStart": false,
            "sourceChordNote": 0,
            "sourceChordType": "Maj7",
            "ctb2Low": null,
            "ctb2Main": {
              "ntr": "ROOT_FIXED",
              "ntt": "CHORD",
              "bassOn": false,
              "chordRootUpperLimit": 7,
              "noteLowLimit": 0,
              "noteHighLimit": 127,
              "rtr": "PITCH_SHIFT"
            },
            "ctb2High": null
          },
          "notes": [
            {
              "pitch": 55,
              "velocity": 63,
              "position": 0.010416666666666666,
              "duration": 15.975
            },
            {
              "pitch": 59,
              "velocity": 63,
              "position": 0.010416666666666666,
              "duration": 15.975
            },
            {
              "pitch": 64,
              "velocity": 63,
              "position": 0.010416666666666666,
              "duration": 15.975
            }
          ]
        },
        "8": {
          "ctab": {
            "srcChannel": 8,
            "name": "Perc",
            "accType": "SUBRHYTHM",
            "editable": false,
            "mutedNotes": [],
            "mutedChords": [],
            "autoStart": true,
            "sourceChordNote": 0,
            "sourceChordType": "Maj7",
            "ctb2Low": null,
            "ctb2Main": {
              "ntr": "ROOT_FIXED",
              "ntt": "BYPASS",
              "bassOn": false,
              "chordRootUpperLimit": 6,
              "noteLowLimit": 0,
              "noteHighLimit": 127,
              "rtr": "PITCH_SHIFT"
            },
            "ctb2High": null
          },
          "notes": [
            {
              "pitch": 70,
              "velocity": 56,
              "position": 0,
              "duration": 0.00625
            },
            {
              "pitch": 70,
              "velocity": 26,
              "position": 0.5,
              "duration": 0.00625
            },
            {
              "pitch": 70,
              "velocity": 72,
              "position": 1,
              "duration": 0.00625
            },
            {
              "pitch": 70,
              "velocity": 56,
              "position": 1.5,
              "duration": 0.00625
            },
            {
              "pitch": 70,
              "velocity": 46,
              "position": 2.5,
              "duration": 0.00625
            },
            {
              "pitch": 70,
              "velocity": 56,
              "position": 3.5,
              "duration": 0.00625
            }
          ]
        },
        "9": {
          "ctab": {
            "srcChannel": 9,
            "name": "Drums",
            "accType": "RHYTHM",
            "editable": false,
            "mutedNotes": [],
            "mutedChords": [],
            "autoStart": true,
            "sourceChordNote": 0,
            "sourceChordType": "Maj7",
            "ctb2Low": null,
            "ctb2Main": {
              "ntr": "ROOT_FIXED",
              "ntt": "BYPASS",
              "bassOn": false,
              "chordRootUpperLimit": 6,
              "noteLowLimit": 0,
              "noteHighLimit": 127,
              "rtr": "PITCH_SHIFT"
            },
            "ctb2High": null
          },
          "notes": [
            {
              "pitch": 33,
              "velocity": 72,
              "position": 0,
              "duration": 0.00625
            },
            {
              "pitch": 42,
              "velocity": 90,
              "position": 0,
              "duration": 0.00625
            },
            {
              "pitch": 38,
              "velocity": 36,
              "position": 0.5,
              "duration": 0.00625
            },
            {
              "pitch": 46,
              "velocity": 48,
              "position": 0.5,
              "duration": 0.00625
            },
            {
              "pitch": 38,
              "velocity": 72,
              "position": 1,
              "duration": 0.00625
            },
            {
              "pitch": 42,
              "velocity": 90,
              "position": 1,
              "duration": 0.00625
            },
            {
              "pitch": 33,
              "velocity": 72,
              "position": 1.5,
              "duration": 0.00625
            },
            {
              "pitch": 46,
              "velocity": 48,
              "position": 1.5,
              "duration": 0.00625
            },
            {
              "pitch": 44,
              "velocity": 3,
              "position": 2,
              "duration": 0.00625
            },
            {
              "pitch": 33,
              "velocity": 36,
              "position": 2.5,
              "duration": 0.00625
            },
            {
              "pitch": 46,
              "velocity": 48,
              "position": 2.5,
              "duration": 0.00625
            },
            {
              "pitch": 44,
              "velocity": 3,
              "position": 3,
              "duration": 0.00625
            },
            {
              "pitch": 33,
              "velocity": 72,
              "position": 3.5,
              "duration": 0.00625
            },
            {
              "pitch": 49,
              "velocity": 60,
              "position": 3.5,
              "duration": 0.00625
            }
          ]
        },
        "10": {
          "ctab": {
            "srcChannel": 10,
            "name": "Bass",
            "accType": "BASS",
            "editable": false,
            "mutedNotes": [],
            "mutedChords": [],
            "autoStart": false,
            "sourceChordNote": 0,
            "sourceChordType": "Maj7",
            "ctb2Low": null,
            "ctb2Main": {
              "ntr": "ROOT_TRANSPOSITION",
              "ntt": "MELODY",
              "bassOn": true,
              "chordRootUpperLimit": 8,
              "noteLowLimit": 28,
              "noteHighLimit": 127,
              "rtr": "PITCH_SHIFT_TO_ROOT"
            },
            "ctb2High": null
          },
          "notes": [
            {
              "pitch": 24,
              "velocity": 98,
              "position": 0.010416666666666666,
              "duration": 0.85
            },
            {
              "pitch": 24,
              "velocity": 72,
              "position": 1,
              "duration": 0.11041666666666666
            },
            {
              "pitch": 31,
              "velocity": 98,
              "position": 1.5,
              "duration": 0.36041666666666666
            },
            {
              "pitch": 31,
              "velocity": 98,
              "position": 2.5,
              "duration": 0.36041666666666666
            },
            {
              "pitch": 36,
              "velocity": 98,
              "position": 3.5,
              "duration": 12.485416666666667
            }
          ]
        },
        "11": {
          "ctab": {
            "srcChannel": 11,
            "name": "Gt A",
            "accType": "CHORD1",
            "editable": false,
            "mutedNotes": [],
            "mutedChords": [
              "1+2+5",
              "sus4",
              "1+5",
              "1+8",
              "7aug",
              "Maj7aug",
              "7(#9)",
              "7(b13)",
              "7(b9)",
              "7(13)",
              "7(9)",
              "7th",
              "dim7",
              "dim",
              "minMaj7(9)",
              "min7(11)",
              "min7(9)",
              "min(9)",
              "min7",
              "min6",
              "aug",
              "Maj6(9)",
              "Maj7(9)",
              "Maj(9)",
              "Maj6"
            ],
            "autoStart": false,
            "sourceChordNote": 0,
            "sourceChordType": "min7",
            "ctb2Low": null,
            "ctb2Main": {
              "ntr": "ROOT_TRANSPOSITION",
              "ntt": "CHORD",
              "bassOn": false,
              "chordRootUpperLimit": 7,
              "noteLowLimit": 54,
              "noteHighLimit": 65,
              "rtr": "PITCH_SHIFT"
            },
            "ctb2High": null
          },
          "notes": [
            {
              "pitch": 57,
              "velocity": 69,
              "position": 0,
              "duration": 0.49583333333333335
            },
            {
              "pitch": 57,
              "velocity": 37,
              "position": 0.5,
              "duration": 0.975
            },
            {
              "pitch": 63,
              "velocity": 69,
              "position": 0,
              "duration": 1.475
            },
            {
              "pitch": 62,
              "velocity": 61,
              "position": 1.5,
              "duration": 0.49583333333333335
            },
            {
              "pitch": 67,
              "velocity": 65,
              "position": 1,
              "duration": 1.475
            },
            {
              "pitch": 58,
              "velocity": 61,
              "position": 1.5,
              "duration": 1.4958333333333333
            },
            {
              "pitch": 58,
              "velocity": 37,
              "position": 3,
              "duration": 0.475
            },
            {
              "pitch": 62,
              "velocity": 38,
              "position": 2,
              "duration": 1.475
            },
            {
              "pitch": 67,
              "velocity": 56,
              "position": 3.53125,
              "duration": 0.94375
            },
            {
              "pitch": 58,
              "velocity": 56,
              "position": 3.5,
              "duration": 12.485416666666667
            },
            {
              "pitch": 63,
              "velocity": 49,
              "position": 3.5208333333333335,
              "duration": 12.464583333333334
            }
          ]
        },
        "12": {
          "ctab": {
            "srcChannel": 12,
            "name": "Pno A",
            "accType": "CHORD2",
            "editable": false,
            "mutedNotes": [],
            "mutedChords": [
              "1+2+5",
              "sus4",
              "1+5",
              "1+8",
              "7aug",
              "Maj7aug",
              "7(#9)",
              "7(b13)",
              "7(b9)",
              "7(13)",
              "7(9)",
              "7th",
              "dim7",
              "dim",
              "minMaj7(9)",
              "min7(11)",
              "min7(9)",
              "min(9)",
              "min7",
              "min6",
              "aug",
              "Maj6(9)",
              "Maj7(9)",
              "Maj(9)",
              "Maj6"
            ],
            "autoStart": false,
            "sourceChordNote": 0,
            "sourceChordType": "min7",
            "ctb2Low": null,
            "ctb2Main": {
              "ntr": "ROOT_TRANSPOSITION",
              "ntt": "CHORD",
              "bassOn": false,
              "chordRootUpperLimit": 2,
              "noteLowLimit": 54,
              "noteHighLimit": 127,
              "rtr": "PITCH_SHIFT"
            },
            "ctb2High": null
          },
          "notes": [
            {
              "pitch": 55,
              "velocity": 75,
              "position": 0,
              "duration": 0.9479166666666666
            },
            {
              "pitch": 51,
              "velocity": 74,
              "position": 0,
              "duration": 0.9583333333333334
            },
            {
              "pitch": 45,
              "velocity": 73,
              "position": 0,
              "duration": 0.96875
            },
            {
              "pitch": 48,
              "velocity": 69,
              "position": 0,
              "duration": 0.96875
            },
            {
              "pitch": 46,
              "velocity": 69,
              "position": 1.5,
              "duration": 0.22916666666666666
            },
            {
              "pitch": 50,
              "velocity": 72,
              "position": 1.5,
              "duration": 0.22916666666666666
            },
            {
              "pitch": 51,
              "velocity": 69,
              "position": 1.5,
              "duration": 0.22916666666666666
            },
            {
              "pitch": 55,
              "velocity": 73,
              "position": 1.5,
              "duration": 0.22916666666666666
            },
            {
              "pitch": 46,
              "velocity": 60,
              "position": 2.5,
              "duration": 0.2604166666666667
            },
            {
              "pitch": 51,
              "velocity": 64,
              "position": 2.5,
              "duration": 0.2708333333333333
            },
            {
              "pitch": 55,
              "velocity": 62,
              "position": 2.5,
              "duration": 0.2708333333333333
            },
            {
              "pitch": 50,
              "velocity": 60,
              "position": 2.5,
              "duration": 0.28125
            },
            {
              "pitch": 55,
              "velocity": 75,
              "position": 3.5,
              "duration": 12.447916666666666
            },
            {
              "pitch": 51,
              "velocity": 74,
              "position": 3.5,
              "duration": 12.458333333333334
            },
            {
              "pitch": 46,
              "velocity": 73,
              "position": 3.5,
              "duration": 12.46875
            }
          ]
        },
        "13": {
          "ctab": {
            "srcChannel": 13,
            "name": "Str A",
            "accType": "PAD",
            "editable": false,
            "mutedNotes": [],
            "mutedChords": [
              "1+2+5",
              "sus4",
              "1+5",
              "1+8",
              "7aug",
              "Maj7aug",
              "7(#9)",
              "7(b13)",
              "7(b9)",
              "7(13)",
              "7(9)",
              "7th",
              "dim7",
              "dim",
              "minMaj7(9)",
              "min7(11)",
              "min7(9)",
              "min(9)",
              "min7",
              "min6",
              "aug",
              "Maj6(9)",
              "Maj7(9)",
              "Maj(9)",
              "Maj6"
            ],
            "autoStart": false,
            "sourceChordNote": 0,
            "sourceChordType": "min7",
            "ctb2Low": null,
            "ctb2Main": {
              "ntr": "ROOT_TRANSPOSITION",
              "ntt": "CHORD",
              "bassOn": false,
              "chordRootUpperLimit": 7,
              "noteLowLimit": 54,
              "noteHighLimit": 65,
              "rtr": "PITCH_SHIFT"
            },
            "ctb2High": null
          },
          "notes": [
            {
              "pitch": 58,
              "velocity": 63,
              "position": 0.010416666666666666,
              "duration": 1.975
            },
            {
              "pitch": 62,
              "velocity": 63,
              "position": 0.010416666666666666,
              "duration": 1.975
            },
            {
              "pitch": 57,
              "velocity": 63,
              "position": 2,
              "duration": 1.4854166666666666
            },
            {
              "pitch": 60,
              "velocity": 63,
              "position": 2,
              "duration": 1.4854166666666666
            },
            {
              "pitch": 58,
              "velocity": 63,
              "position": 3.5,
              "duration": 12.485416666666667
            },
            {
              "pitch": 63,
              "velocity": 63,
              "position": 0.010416666666666666,
              "duration": 15.975
            },
            {
              "pitch": 67,
              "velocity": 63,
              "position": 0.010416666666666666,
              "duration": 15.975
            }
          ]
        }
      }
    }
  }
}