{
  "name": "BrazilianSamba",
  "tempo": 96,
  "timeSignature": "4/4",
  "ticksPerQuarter": 1920,
  "sffType": "SFF1",
  "division": "BINARY",
  "parts": {
    "Main_A": {
      "type": "Main_A",
      "sizeInBeats": 16,
      "channels": {
        "2": {
          "ctab": {
            "srcChannel": 2,
            "name": "NGt Root",
            "accType": "CHORD1",
            "editable": false,
            "mutedNotes": [],
            "mutedChords": [
              "1+2+5",
              "sus4",
              "1+5",
              "1+8",
              "Maj7aug",
              "dim",
              "minMaj7(9)",
              "minMaj7",
              "min6",
              "min",
              "aug",
              "Maj7(9)",
              "Maj7#11",
              "Maj7",
              "Maj6",
              "Maj"
            ],
            "autoStart": false,
            "sourceChordNote": 0,
            "sourceChordType": "Maj7",
            "ctb2Low": null,
            "ctb2Main": {
              "ntr": "ROOT_TRANSPOSITION",
              "ntt": "CHORD",
              "bassOn": false,
              "chordRootUpperLimit": 6,
              "noteLowLimit": 0,
              "noteHighLimit": 127,
              "rtr": "PITCH_SHIFT"
            },
            "ctb2High": null
          },
          "notes": [
            {
              "pitch": 60,
              "velocity": 65,
              "position": 0,
              "duration": 0.09375
            },
            {
              "pitch": 60,
              "velocity": 78,
              "position": 0.5,
              "duration": 0.6041666666666666
            },
            {
              "pitch": 60,
              "velocity": 55,
              "position": 1.25,
              "duration": 0.11458333333333333
            },
            {
              "pitch": 60,
              "velocity": 63,
              "position": 1.75,
              "duration": 0.09375
            },
            {
              "pitch": 60,
              "velocity": 88,
              "position": 2.25,
              "duration": 0.59375
            },
            {
              "pitch": 60,
              "velocity": 84,
              "position": 3,
              "duration": 0.10416666666666667
            },
            {
              "pitch": 60,
              "velocity": 61,
              "position": 3.5,
              "duration": 0.10416666666666667
            },
            {
              "pitch": 60,
              "velocity": 65,
              "position": 4,
              "duration": 0.10416666666666667
            },
            {
              "pitch": 60,
              "velocity": 87,
              "position": 4.5,
              "duration": 0.6041666666666666
            },
            {
              "pitch": 60,
              "velocity": 51,
              "position": 5.25,
              "duration": 0.09375
            },
            {
              "pitch": 60,
              "velocity": 67,
              "position": 5.75,
              "duration": 0.09375
            },
            {
              "pitch": 60,
              "velocity": 85,
              "position": 6.25,
              "duration": 0.6041666666666666
            },
            {
              "pitch": 60,
              "velocity": 78,
              "position": 7,
              "duration": 0.10416666666666667
            },
            {
              "pitch": 60,
              "velocity": 66,
              "position": 7.5,
              "duration": 0.10416666666666667
            },
            {
              "pitch": 60,
              "velocity": 72,
              "position": 8,
              "duration": 0.09375
            },
            {
              "pitch": 60,
              "velocity": 78,
              "position": 8.5,
              "duration": 0.59375
            },
            {
              "pitch": 60,
              "velocity": 44,
              "position": 9.25,
              "duration": 0.11458333333333333
            },
            {
              "pitch": 60,
              "velocity": 74,
              "position": 9.75,
              "duration": 0.10416666666666667
            },
            {
              "pitch": 60,
              "velocity": 79,
              "position": 10.25,
              "duration": 0.6041666666666666
            },
            {
              "pitch": 60,
              "velocity": 91,
              "position": 11,
              "duration": 0.10416666666666667
            },
            {
              "pitch": 60,
              "velocity": 70,
              "position": 11.5,
              "duration": 0.09375
            },
            {
              "pitch": 60,
              "velocity": 63,
              "position": 12,
              "duration": 0.10416666666666667
            },
            {
              "pitch": 60,
              "velocity": 85,
              "position": 12.5,
              "duration": 0.59375
            },
            {
              "pitch": 60,
              "velocity": 57,
              "position": 13.25,
              "duration": 0.10416666666666667
            },
            {
              "pitch": 60,
              "velocity": 71,
              "position": 13.75,
              "duration": 0.10416666666666667
            },
            {
              "pitch": 60,
              "velocity": 78,
              "position": 14.25,
              "duration": 0.59375
            },
            {
              "pitch": 60,
              "velocity": 93,
              "position": 15,
              "duration": 0.10416666666666667
            },
            {
              "pitch": 60,
              "velocity": 61,
              "position": 15.5,
              "duration": 0.10416666666666667
            }
          ]
        },
        "4": {
          "ctab": {
            "srcChannel": 4,
            "name": "Str Root",
            "accType": "PAD",
            "editable": false,
            "mutedNotes": [],
            "mutedChords": [
              "1+2+5",
              "sus4",
              "1+5",
              "1+8",
              "Maj7aug",
              "dim",
              "minMaj7(9)",
              "minMaj7",
              "min6",
              "min",
              "aug",
              "Maj7(9)",
              "Maj7#11",
              "Maj7",
              "Maj6",
              "Maj"
            ],
            "autoStart": false,
            "sourceChordNote": 0,
            "sourceChordType": "Maj7",
            "ctb2Low": null,
            "ctb2Main": {
              "ntr": "ROOT_TRANSPOSITION",
              "ntt": "CHORD",
              "bassOn": false,
              "chordRootUpperLimit": 6,
              "noteLowLimit": 0,
              "noteHighLimit": 127,
              "rtr": "PITCH_SHIFT"
            },
            "ctb2High": null
          },
          "notes": [
            {
              "pitch": 60,
              "velocity": 46,
              "position": 0,
              "duration": 15.989583333333334
            }
          ]
        },
        "7": {
          "ctab": {
            "srcChannel": 7,
            "name": "CC_Crash",
            "accType": "RHYTHM",
            "editable": false,
            "mutedNotes": [],
            "mutedChords": [
              "1+2+5",
              "sus4",
              "1+5",
              "1+8",
              "7aug",
              "Maj7aug",
              "7(#9)",
              "7(b13)",
              "7(b9)",
              "7(13)",
              "7#11",
              "7(9)",
              "7b5",
              "7sus4",
              "7th",
              "dim7",
              "dim",
              "minMaj7(9)",
              "minMaj7",
              "min7(11)",
              "min7(9)",
              "min(9)",
              "m7b5",
              "min7",
              "min6",
              "min",
              "aug",
              "Maj6(9)",
              "Maj7(9)",
              "Maj(9)",
              "Maj7#11",
              "Maj7",
              "Maj6",
              "Maj"
            ],
            "autoStart": true,
            "sourceChordNote": 0,
            "sourceChordType": "Maj",
            "ctb2Low": null,
            "ctb2Main": {
              "ntr": "ROOT_FIXED",
              "ntt": "BYPASS",
              "bassOn": false,
              "chordRootUpperLimit": 0,
              "noteLowLimit": 0,
              "noteHighLimit": 127,
              "rtr": "RETRIGGER"
            },
            "ctb2High": null
          },
          "notes": []
        },
        "8": {
          "ctab": {
            "srcChannel": 8,
            "name": "Perc",
            "accType": "SUBRHYTHM",
            "editable": false,
            "mutedNotes": [],
            "mutedChords": [],
            "autoStart": true,
            "sourceChordNote": 0,
            "sourceChordType": "Maj7",
            "ctb2Low": null,
            "ctb2Main": {
              "ntr": "ROOT_FIXED",
              "ntt": "BYPASS",
              "bassOn": false,
              "chordRootUpperLimit": 6,
              "noteLowLimit": 0,
              "noteHighLimit": 127,
              "rtr": "PITCH_SHIFT"
            },
            "ctb2High": null
          },
          "notes": [
            {
              "pitch": 82,
              "velocity": 46,
              "position": 0,
              "duration": 0.010416666666666666
            },
            {
              "pitch": 82,
              "velocity": 29,
              "position": 0.2604166666666667,
              "duration": 0.010416666666666666
            },
            {
              "pitch": 82,
              "velocity": 46,
              "position": 0.4895833333333333,
              "duration": 0.010416666666666666
            },
            {
              "pitch": 82,
              "velocity": 63,
              "position": 0.7395833333333334,
              "duration": 0.010416666666666666
            },
            {
              "pitch": 82,
              "velocity": 46,
              "position": 0.9895833333333334,
              "duration": 0.010416666666666666
            },
            {
              "pitch": 82,
              "velocity": 29,
              "position": 1.2604166666666667,
              "duration": 0.010416666666666666
            },
            {
              "pitch": 82,
              "velocity": 46,
              "position": 1.4895833333333333,
              "duration": 0.010416666666666666
            },
            {
              "pitch": 82,
              "velocity": 63,
              "position": 1.7395833333333333,
              "duration": 0.010416666666666666
            },
            {
              "pitch": 82,
              "velocity": 46,
              "position": 1.9895833333333333,
              "duration": 0.010416666666666666
            },
            {
              "pitch": 82,
              "velocity": 29,
              "position": 2.2604166666666665,
              "duration": 0.010416666666666666
            },
            {
              "pitch": 82,
              "velocity": 46,
              "position": 2.4895833333333335,
              "duration": 0.010416666666666666
            },
            {
              "pitch": 82,
              "velocity": 63,
              "position": 2.7395833333333335,
              "duration": 0.010416666666666666
            },
            {
              "pitch": 82,
              "velocity": 46,
              "position": 2.9895833333333335,
              "duration": 0.010416666666666666
            },
            {
              "pitch": 82,
              "velocity": 29,
              "position": 3.2604166666666665,
              "duration": 0.010416666666666666
            },
            {
              "pitch": 82,
              "velocity": 46,
              "position": 3.4895833333333335,
              "duration": 0.010416666666666666
            },
            {
              "pitch": 82,
              "velocity": 63,
              "position": 3.7395833333333335,
              "duration": 0.010416666666666666
            },
            {
              "pitch": 82,
              "velocity": 46,
              "position": 4,
              "duration": 0.010416666666666666
            },
            {
              "pitch": 82,
              "velocity": 29,
              "position": 4.260416666666667,
              "duration": 0.010416666666666666
            },
            {
              "pitch": 82,
              "velocity": 46,
              "position": 4.489583333333333,
              "duration": 0.010416666666666666
            },
            {
              "pitch": 82,
              "velocity": 63,
              "position": 4.739583333333333,
              "duration": 0.010416666666666666
            },
            {
              "pitch": 82,
              "velocity": 46,
              "position": 4.989583333333333,
              "duration": 0.010416666666666666
            },
            {
              "pitch": 82,
              "velocity": 29,
              "position": 5.260416666666667,
              "duration": 0.010416666666666666
            },
            {
              "pitch": 82,
              "velocity": 46,
              "position": 5.489583333333333,
              "duration": 0.010416666666666666
            },
            {
              "pitch": 82,
              "velocity": 63,
              "position": 5.739583333333333,
              "duration": 0.010416666666666666
            },
            {
              "pitch": 82,
              "velocity": 46,
              "position": 5.989583333333333,
              "duration": 0.010416666666666666
            },
            {
              "pitch": 82,
              "velocity": 29,
              "position": 6.260416666666667,
              "duration": 0.010416666666666666
            },
            {
              "pitch": 82,
              "velocity": 46,
              "position": 6.489583333333333,
              "duration": 0.010416666666666666
            },
            {
              "pitch": 82,
              "velocity": 63,
              "position": 6.739583333333333,
              "duration": 0.010416666666666666
            },
            {
              "pitch": 82,
              "velocity": 46,
              "position": 6.989583333333333,
              "duration": 0.010416666666666666
            },
            {
              "pitch": 82,
              "velocity": 29,
              "position": 7.260416666666667,
              "duration": 0.010416666666666666
            },
            {
              "pitch": 82,
              "velocity": 46,
              "position": 7.489583333333333,
              "duration": 0.010416666666666666
            },
            {
              "pitch": 82,
              "velocity": 63,
              "position": 7.739583333333333,
              "duration": 0.010416666666666666
            },
            {
              "pitch": 82,
              "velocity": 46,
              "position": 8,
              "duration": 0.010416666666666666
            },
            {
              "pitch": 82,
              "velocity": 29,
              "position": 8.260416666666666,
              "duration": 0.010416666666666666
            },
            {
              "pitch": 82,
              "velocity": 46,
              "position": 8.489583333333334,
              "duration": 0.010416666666666666
            },
            {
              "pitch": 82,
              "velocity": 63,
              "position": 8.739583333333334,
              "duration": 0.010416666666666666
            },
            {
              "pitch": 82,
              "velocity": 46,
              "position": 8.989583333333334,
              "duration": 0.010416666666666666
            },
            {
              "pitch": 82,
              "velocity": 29,
              "position": 9.260416666666666,
              "duration": 0.010416666666666666
            },
            {
              "pitch": 82,
              "velocity": 46,
              "position": 9.489583333333334,
              "duration": 0.010416666666666666
            },
            {
              "pitch": 82,
              "velocity": 63,
              "position": 9.739583333333334,
              "duration": 0.010416666666666666
            },
            {
              "pitch": 82,
              "velocity": 46,
              "position": 9.989583333333334,
              "duration": 0.010416666666666666
            },
            {
              "pitch": 82,
              "velocity": 29,
              "position": 10.260416666666666,
              "duration": 0.010416666666666666
            },
            {
              "pitch": 82,
              "velocity": 46,
              "position": 10.489583333333334,
              "duration": 0.010416666666666666
            },
            {
              "pitch": 82,
              "velocity": 63,
              "position": 10.739583333333334,
              "duration": 0.010416666666666666
            },
            {
              "pitch": 82,
              "velocity": 46,
              "position": 10.989583333333334,
              "duration": 0.010416666666666666
            },
            {
              "pitch": 82,
              "velocity": 29,
              "position": 11.260416666666666,
              "duration": 0.010416666666666666
            },
            {
              "pitch": 82,
              "velocity": 46,
              "position": 11.489583333333334,
              "duration": 0.010416666666666666
            },
            {
              "pitch": 82,
              "velocity": 63,
              "position": 11.739583333333334,
              "duration": 0.010416666666666666
            },
            {
              "pitch": 82,
              "velocity": 46,
              "position": 12,
              "duration": 0.010416666666666666
            },
            {
              "pitch": 82,
              "velocity": 29,
              "position": 12.260416666666666,
              "duration": 0.010416666666666666
            },
            {
              "pitch": 82,
              "velocity": 46,
              "position": 12.489583333333334,
              "duration": 0.010416666666666666
            },
            {
              "pitch": 82,
              "velocity": 63,
              "position": 12.739583333333334,
              "duration": 0.010416666666666666
            },
            {
              "pitch": 82,
              "velocity": 46,
              "position": 12.989583333333334,
              "duration": 0.010416666666666666
            },
            {
              "pitch": 82,
              "velocity": 29,
              "position": 13.260416666666666,
              "duration": 0.010416666666666666
            },
            {
              "pitch": 82,
              "velocity": 46,
              "position": 13.489583333333334,
              "duration": 0.010416666666666666
            },
            {
              "pitch": 82,
              "velocity": 63,
              "position": 13.739583333333334,
              "duration": 0.010416666666666666
            },
            {
              "pitch": 82,
              "velocity": 46,
              "position": 13.989583333333334,
              "duration": 0.010416666666666666
            },
            {
              "pitch": 82,
              "velocity": 29,
              "position": 14.260416666666666,
              "duration": 0.010416666666666666
            },
            {
              "pitch": 82,
              "velocity": 46,
              "position": 14.489583333333334,
              "duration": 0.010416666666666666
            },
            {
              "pitch": 82,
              "velocity": 63,
              "position": 14.739583333333334,
              "duration": 0.010416666666666666
            },
            {
              "pitch": 82,
              "velocity": 46,
              "position": 14.989583333333334,
              "duration": 0.010416666666666666
            },
            {
              "pitch": 82,
              "velocity": 29,
              "position": 15.260416666666666,
              "duration": 0.010416666666666666
            },
            {
              "pitch": 82,
              "velocity": 46,
              "position": 15.489583333333334,
              "duration": 0.010416666666666666
            },
            {
              "pitch": 82,
              "velocity": 63,
              "position": 15.739583333333334,
              "duration": 0.010416666666666666
            }
          ]
        },
        "9": {
          "ctab": {
            "srcChannel": 9,
            "name": "Drs",
            "accType": "RHYTHM",
            "editable": false,
            "mutedNotes": [],
            "mutedChords": [],
            "autoStart": true,
            "sourceChordNote": 0,
            "sourceChordType": "Maj7",
            "ctb2Low": null,
            "ctb2Main": {
              "ntr": "ROOT_FIXED",
              "ntt": "BYPASS",
              "bassOn": false,
              "chordRootUpperLimit": 6,
              "noteLowLimit": 0,
              "noteHighLimit": 127,
              "rtr": "PITCH_SHIFT"
            },
            "ctb2High": null
          },
          "notes": [
            {
              "pitch": 35,
              "velocity": 93,
              "position": 0,
              "duration": 0.010416666666666666
            },
            {
              "pitch": 37,
              "velocity": 48,
              "position": 0,
              "duration": 0.010416666666666666
            },
            {
              "pitch": 42,
              "velocity": 80,
              "position": 0,
              "duration": 0.010416666666666666
            },
            {
              "pitch": 42,
              "velocity": 50,
              "position": 0.2604166666666667,
              "duration": 0.010416666666666666
            },
            {
              "pitch": 37,
              "velocity": 68,
              "position": 0.4895833333333333,
              "duration": 0.010416666666666666
            },
            {
              "pitch": 42,
              "velocity": 60,
              "position": 0.4895833333333333,
              "duration": 0.010416666666666666
            },
            {
              "pitch": 42,
              "velocity": 80,
              "position": 0.7395833333333334,
              "duration": 0.010416666666666666
            },
            {
              "pitch": 35,
              "velocity": 63,
              "position": 0.75,
              "duration": 0.010416666666666666
            },
            {
              "pitch": 42,
              "velocity": 80,
              "position": 0.9895833333333334,
              "duration": 0.010416666666666666
            },
            {
              "pitch": 35,
              "velocity": 93,
              "position": 1,
              "duration": 0.010416666666666666
            },
            {
              "pitch": 37,
              "velocity": 68,
              "position": 1.2604166666666667,
              "duration": 0.010416666666666666
            },
            {
              "pitch": 42,
              "velocity": 50,
              "position": 1.2604166666666667,
              "duration": 0.010416666666666666
            },
            {
              "pitch": 42,
              "velocity": 60,
              "position": 1.4895833333333333,
              "duration": 0.010416666666666666
            },
            {
              "pitch": 37,
              "velocity": 48,
              "position": 1.7395833333333333,
              "duration": 0.010416666666666666
            },
            {
              "pitch": 46,
              "velocity": 50,
              "position": 1.7395833333333333,
              "duration": 0.010416666666666666
            },
            {
              "pitch": 35,
              "velocity": 63,
              "position": 1.75,
              "duration": 0.010416666666666666
            },
            {
              "pitch": 42,
              "velocity": 80,
              "position": 1.9895833333333333,
              "duration": 0.010416666666666666
            },
            {
              "pitch": 35,
              "velocity": 93,
              "position": 2,
              "duration": 0.010416666666666666
            },
            {
              "pitch": 37,
              "velocity": 68,
              "position": 2.2604166666666665,
              "duration": 0.010416666666666666
            },
            {
              "pitch": 42,
              "velocity": 50,
              "position": 2.2604166666666665,
              "duration": 0.010416666666666666
            },
            {
              "pitch": 42,
              "velocity": 60,
              "position": 2.4895833333333335,
              "duration": 0.010416666666666666
            },
            {
              "pitch": 42,
              "velocity": 80,
              "position": 2.7395833333333335,
              "duration": 0.010416666666666666
            },
            {
              "pitch": 35,
              "velocity": 63,
              "position": 2.75,
              "duration": 0.010416666666666666
            },
            {
              "pitch": 37,
              "velocity": 68,
              "position": 2.9895833333333335,
              "duration": 0.010416666666666666
            },
            {
              "pitch": 42,
              "velocity": 80,
              "position": 2.9895833333333335,
              "duration": 0.010416666666666666
            },
            {
              "pitch": 35,
              "velocity": 93,
              "position": 3,
              "duration": 0.010416666666666666
            },
            {
              "pitch": 42,
              "velocity": 50,
              "position": 3.2604166666666665,
              "duration": 0.010416666666666666
            },
            {
              "pitch": 37,
              "velocity": 48,
              "position": 3.4895833333333335,
              "duration": 0.010416666666666666
            },
            {
              "pitch": 42,
              "velocity": 60,
              "position": 3.4895833333333335,
              "duration": 0.010416666666666666
            },
            {
              "pitch": 42,
              "velocity": 80,
              "position": 3.7395833333333335,
              "duration": 0.010416666666666666
            },
            {
              "pitch": 35,
              "velocity": 63,
              "position": 3.75,
              "duration": 0.010416666666666666
            },
            {
              "pitch": 35,
              "velocity": 93,
              "position": 4,
              "duration": 0.010416666666666666
            },
            {
              "pitch": 37,
              "velocity": 48,
              "position": 4,
              "duration": 0.010416666666666666
            },
            {
              "pitch": 42,
              "velocity": 80,
              "position": 4,
              "duration": 0.010416666666666666
            },
            {
              "pitch": 42,
              "velocity": 50,
              "position": 4.260416666666667,
              "duration": 0.010416666666666666
            },
            {
              "pitch": 37,
              "velocity": 68,
              "position": 4.489583333333333,
              "duration": 0.010416666666666666
            },
            {
              "pitch": 42,
              "velocity": 60,
              "position": 4.489583333333333,
              "duration": 0.010416666666666666
            },
            {
              "pitch": 42,
              "velocity": 80,
              "position": 4.739583333333333,
              "duration": 0.010416666666666666
            },
            {
              "pitch": 35,
              "velocity": 63,
              "position": 4.75,
              "duration": 0.010416666666666666
            },
            {
              "pitch": 42,
              "velocity": 80,
              "position": 4.989583333333333,
              "duration": 0.010416666666666666
            },
            {
              "pitch": 35,
              "velocity": 93,
              "position": 5,
              "duration": 0.010416666666666666
            },
            {
              "pitch": 37,
              "velocity": 68,
              "position": 5.260416666666667,
              "duration": 0.010416666666666666
            },
            {
              "pitch": 42,
              "velocity": 50,
              "position": 5.260416666666667,
              "duration": 0.010416666666666666
            },
            {
              "pitch": 42,
              "velocity": 60,
              "position": 5.489583333333333,
              "duration": 0.010416666666666666
            },
            {
              "pitch": 37,
              "velocity": 48,
              "position": 5.739583333333333,
              "duration": 0.010416666666666666
            },
            {
              "pitch": 42,
              "velocity": 80,
              "position": 5.739583333333333,
              "duration": 0.010416666666666666
            },
            {
              "pitch": 35,
              "velocity": 63,
              "position": 5.75,
              "duration": 0.010416666666666666
            },
            {
              "pitch": 42,
              "velocity": 80,
              "position": 5.989583333333333,
              "duration": 0.010416666666666666
            },
            {
              "pitch": 35,
              "velocity": 93,
              "position": 6,
              "duration": 0.010416666666666666
            },
            {
              "pitch": 37,
              "velocity": 68,
              "position": 6.260416666666667,
              "duration": 0.010416666666666666
            },
            {
              "pitch": 46,
              "velocity": 50,
              "position": 6.260416666666667,
              "duration": 0.010416666666666666
            },
            {
              "pitch": 42,
              "velocity": 60,
              "position": 6.489583333333333,
              "duration": 0.010416666666666666
            },
            {
              "pitch": 42,
              "velocity": 80,
              "position": 6.739583333333333,
              "duration": 0.010416666666666666
            },
            {
              "pitch": 35,
              "velocity": 63,
              "position": 6.75,
              "duration": 0.010416666666666666
            },
            {
              "pitch": 37,
              "velocity": 68,
              "position": 6.989583333333333,
              "duration": 0.010416666666666666
            },
            {
              "pitch": 42,
              "velocity": 80,
              "position": 6.989583333333333,
              "duration": 0.010416666666666666
            },
            {
              "pitch": 35,
              "velocity": 93,
              "position": 7,
              "duration": 0.010416666666666666
            },
            {
              "pitch": 42,
              "velocity": 50,
              "position": 7.260416666666667,
              "duration": 0.010416666666666666
            },
            {
              "pitch": 37,
              "velocity": 48,
              "position": 7.489583333333333,
              "duration": 0.010416666666666666
            },
            {
              "pitch": 42,
              "velocity": 60,
              "position": 7.489583333333333,
              "duration": 0.010416666666666666
            },
            {
              "pitch": 42,
              "velocity": 80,
              "position": 7.739583333333333,
              "duration": 0.010416666666666666
            },
            {
              "pitch": 35,
              "velocity": 63,
              "position": 7.75,
              "duration": 0.010416666666666666
            },
            {
              "pitch": 35,
              "velocity": 93,
              "position": 8,
              "duration": 0.010416666666666666
            },
            {
              "pitch": 37,
              "velocity": 48,
              "position": 8,
              "duration": 0.010416666666666666
            },
            {
              "pitch": 42,
              "velocity": 80,
              "position": 8,
              "duration": 0.010416666666666666
            },
            {
              "pitch": 42,
              "velocity": 50,
              "position": 8.260416666666666,
              "duration": 0.010416666666666666
            },
            {
              "pitch": 37,
              "velocity": 68,
              "position": 8.489583333333334,
              "duration": 0.010416666666666666
            },
            {
              "pitch": 42,
              "velocity": 60,
              "position": 8.489583333333334,
              "duration": 0.010416666666666666
            },
            {
              "pitch": 42,
              "velocity": 80,
              "position": 8.739583333333334,
              "duration": 0.010416666666666666
            },
            {
              "pitch": 35,
              "velocity": 63,
              "position": 8.75,
              "duration": 0.010416666666666666
            },
            {
              "pitch": 42,
              "velocity": 80,
              "position": 8.989583333333334,
              "duration": 0.010416666666666666
            },
            {
              "pitch": 35,
              "velocity": 93,
              "position": 9,
              "duration": 0.010416666666666666
            },
            {
              "pitch": 37,
              "velocity": 68,
              "position": 9.260416666666666,
              "duration": 0.010416666666666666
            },
            {
              "pitch": 42,
              "velocity": 50,
              "position": 9.260416666666666,
              "duration": 0.010416666666666666
            },
            {
              "pitch": 42,
              "velocity": 60,
              "position": 9.489583333333334,
              "duration": 0.010416666666666666
            },
            {
              "pitch": 37,
              "velocity": 48,
              "position": 9.739583333333334,
              "duration": 0.010416666666666666
            },
            {
              "pitch": 46,
              "velocity": 50,
              "position": 9.739583333333334,
              "duration": 0.010416666666666666
            },
            {
              "pitch": 35,
              "velocity": 63,
              "position": 9.75,
              "duration": 0.010416666666666666
            },
            {
              "pitch": 42,
              "velocity": 80,
              "position": 9.989583333333334,
              "duration": 0.010416666666666666
            },
            {
              "pitch": 35,
              "velocity": 93,
              "position": 10,
              "duration": 0.010416666666666666
            },
            {
              "pitch": 37,
              "velocity": 68,
              "position": 10.260416666666666,
              "duration": 0.010416666666666666
            },
            {
              "pitch": 42,
              "velocity": 50,
              "position": 10.260416666666666,
              "duration": 0.010416666666666666
            },
            {
              "pitch": 42,
              "velocity": 60,
              "position": 10.489583333333334,
              "duration": 0.010416666666666666
            },
            {
              "pitch": 42,
              "velocity": 80,
              "position": 10.739583333333334,
              "duration": 0.010416666666666666
            },
            {
              "pitch": 35,
              "velocity": 63,
              "position": 10.75,
              "duration": 0.010416666666666666
            },
            {
              "pitch": 37,
              "velocity": 68,
              "position": 10.989583333333334,
              "duration": 0.010416666666666666
            },
            {
              "pitch": 42,
              "velocity": 80,
              "position": 10.989583333333334,
              "duration": 0.010416666666666666
            },
            {
              "pitch": 35,
              "velocity": 93,
              "position": 11,
              "duration": 0.010416666666666666
            },
            {
              "pitch": 42,
              "velocity": 50,
              "position": 11.260416666666666,
              "duration": 0.010416666666666666
            },
            {
              "pitch": 37,
              "velocity": 48,
              "position": 11.489583333333334,
              "duration": 0.010416666666666666
            },
            {
              "pitch": 42,
              "velocity": 60,
              "position": 11.489583333333334,
              "duration": 0.010416666666666666
            },
            {
              "pitch": 42,
              "velocity": 80,
              "position": 11.739583333333334,
              "duration": 0.010416666666666666
            },
            {
              "pitch": 35,
              "velocity": 63,
              "position": 11.75,
              "duration": 0.010416666666666666
            },
            {
              "pitch": 35,
              "velocity": 93,
              "position": 12,
              "duration": 0.010416666666666666
            },
            {
              "pitch": 37,
              "velocity": 48,
              "position": 12,
              "duration": 0.010416666666666666
            },
            {
              "pitch": 42,
              "velocity": 80,
              "position": 12,
              "duration": 0.010416666666666666
            },
            {
              "pitch": 42,
              "velocity": 50,
              "position": 12.260416666666666,
              "duration": 0.010416666666666666
            },
            {
              "pitch": 37,
              "velocity": 68,
              "position": 12.489583333333334,
              "duration": 0.010416666666666666
            },
            {
              "pitch": 42,
              "velocity": 60,
              "position": 12.489583333333334,
              "duration": 0.010416666666666666
            },
            {
              "pitch": 42,
              "velocity": 80,
              "position": 12.739583333333334,
              "duration": 0.010416666666666666
            },
            {
              "pitch": 35,
              "velocity": 63,
              "position": 12.75,
              "duration": 0.010416666666666666
            },
            {
              "pitch": 42,
              "velocity": 80,
              "position": 12.989583333333334,
              "duration": 0.010416666666666666
            },
            {
              "pitch": 35,
              "velocity": 93,
              "position": 13,
              "duration": 0.010416666666666666
            },
            {
              "pitch": 37,
              "velocity": 68,
              "position": 13.260416666666666,
              "duration": 0.010416666666666666
            },
            {
              "pitch": 42,
              "velocity": 50,
              "position": 13.260416666666666,
              "duration": 0.010416666666666666
            },
            {
              "pitch": 42,
              "velocity": 60,
              "position": 13.489583333333334,
              "duration": 0.010416666666666666
            },
            {
              "pitch": 37,
              "velocity": 48,
              "position": 13.739583333333334,
              "duration": 0.010416666666666666
            },
            {
              "pitch": 42,
              "velocity": 80,
              "position": 13.739583333333334,
              "duration": 0.010416666666666666
            },
            {
              "pitch": 35,
              "velocity": 63,
              "position": 13.75,
              "duration": 0.010416666666666666
            },
            {
              "pitch": 42,
              "velocity": 80,
              "position": 13.989583333333334,
              "duration": 0.010416666666666666
            },
            {
              "pitch": 35,
              "velocity": 93,
              "position": 14,
              "duration": 0.010416666666666666
            },
            {
              "pitch": 37,
              "velocity": 68,
              "position": 14.260416666666666,
              "duration": 0.010416666666666666
            },
            {
              "pitch": 46,
              "velocity": 50,
              "position": 14.260416666666666,
              "duration": 0.010416666666666666
            },
            {
              "pitch": 42,
              "velocity": 60,
              "position": 14.489583333333334,
              "duration": 0.010416666666666666
            },
            {
              "pitch": 42,
              "velocity": 80,
              "position": 14.739583333333334,
              "duration": 0.010416666666666666
            },
            {
              "pitch": 35,
              "velocity": 63,
              "position": 14.75,
              "duration": 0.010416666666666666
            },
            {
              "pitch": 37,
              "velocity": 68,
              "position": 14.989583333333334,
              "duration": 0.010416666666666666
            },
            {
              "pitch": 42,
              "velocity": 80,
              "position": 14.989583333333334,
              "duration": 0.010416666666666666
            },
            {
              "pitch": 35,
              "velocity": 93,
              "position": 15,
              "duration": 0.010416666666666666
            },
            {
              "pitch": 42,
              "velocity": 50,
              "position": 15.260416666666666,
              "duration": 0.010416666666666666
            },
            {
              "pitch": 37,
              "velocity": 48,
              "position": 15.489583333333334,
              "duration": 0.010416666666666666
            },
            {
              "pitch": 42,
              "velocity": 60,
              "position": 15.489583333333334,
              "duration": 0.010416666666666666
            },
            {
              "pitch": 42,
              "velocity": 80,
              "position": 15.739583333333334,
              "duration": 0.010416666666666666
            },
            {
              "pitch": 35,
              "velocity": 63,
              "position": 15.75,
              "duration": 0.010416666666666666
            }
          ]
        },
        "10": {
          "ctab": {
            "srcChannel": 10,
            "name": "Bass",
            "accType": "BASS",
            "editable": false,
            "mutedNotes": [],
            "mutedChords": [],
            "autoStart": false,
            "sourceChordNote": 0,
            "sourceChordType": "Maj7",
            "ctb2Low": null,
            "ctb2Main": {
              "ntr": "ROOT_TRANSPOSITION",
              "ntt": "MELODY",
              "bassOn": true,
              "chordRootUpperLimit": 3,
              "noteLowLimit": 28,
              "noteHighLimit": 127,
              "rtr": "PITCH_SHIFT_TO_ROOT"
            },
            "ctb2High": null
          },
          "notes": [
            {
              "pitch": 24,
              "velocity": 98,
              "position": 0,
              "duration": 0.2604166666666667
            },
            {
              "pitch": 24,
              "velocity": 80,
              "position": 0.75,
              "duration": 0.09375
            },
            {
              "pitch": 31,
              "velocity": 98,
              "position": 1,
              "duration": 0.9895833333333334
            },
            {
              "pitch": 24,
              "velocity": 98,
              "position": 2,
              "duration": 0.2604166666666667
            },
            {
              "pitch": 24,
              "velocity": 80,
              "position": 2.75,
              "duration": 0.09375
            },
            {
              "pitch": 31,
              "velocity": 98,
              "position": 3,
              "duration": 0.9895833333333334
            },
            {
              "pitch": 24,
              "velocity": 98,
              "position": 4,
              "duration": 0.2604166666666667
            },
            {
              "pitch": 24,
              "velocity": 80,
              "position": 4.75,
              "duration": 0.09375
            },
            {
              "pitch": 31,
              "velocity": 98,
              "position": 5,
              "duration": 0.9895833333333334
            },
            {
              "pitch": 24,
              "velocity": 98,
              "position": 6,
              "duration": 0.2604166666666667
            },
            {
              "pitch": 24,
              "velocity": 80,
              "position": 6.75,
              "duration": 0.09375
            },
            {
              "pitch": 31,
              "velocity": 98,
              "position": 7,
              "duration": 0.9895833333333334
            },
            {
              "pitch": 24,
              "velocity": 98,
              "position": 8,
              "duration": 0.2604166666666667
            },
            {
              "pitch": 24,
              "velocity": 80,
              "position": 8.75,
              "duration": 0.09375
            },
            {
              "pitch": 31,
              "velocity": 98,
              "position": 9,
              "duration": 0.9895833333333334
            },
            {
              "pitch": 24,
              "velocity": 98,
              "position": 10,
              "duration": 0.2604166666666667
            },
            {
              "pitch": 24,
              "velocity": 80,
              "position": 10.75,
              "duration": 0.09375
            },
            {
              "pitch": 31,
              "velocity": 98,
              "position": 11,
              "duration": 0.9895833333333334
            },
            {
              "pitch": 24,
              "velocity": 98,
              "position": 12,
              "duration": 0.2604166666666667
            },
            {
              "pitch": 24,
              "velocity": 80,
              "position": 12.75,
              "duration": 0.09375
            },
            {
              "pitch": 31,
              "velocity": 98,
              "position": 13,
              "duration": 0.9895833333333334
            },
            {
              "pitch": 24,
              "velocity": 98,
              "position": 14,
              "duration": 0.2604166666666667
            },
            {
              "pitch": 24,
              "velocity": 80,
              "position": 14.75,
              "duration": 0.09375
            },
            {
              "pitch": 31,
              "velocity": 98,
              "position": 15,
              "duration": 0.4895833333333333
            },
            {
              "pitch": 31,
              "velocity": 98,
              "position": 15.5,
              "duration": 0.4895833333333333
            }
          ]
        },
        "11": {
          "ctab": {
            "srcChannel": 11,
            "name": "NGt",
            "accType": "CHORD1",
            "editable": false,
            "mutedNotes": [],
            "mutedChords": [],
            "autoStart": false,
            "sourceChordNote": 0,
            "sourceChordType": "Maj7",
            "ctb2Low": null,
            "ctb2Main": {
              "ntr": "ROOT_FIXED",
              "ntt": "CHORD",
              "bassOn": false,
              "chordRootUpperLimit": 7,
              "noteLowLimit": 0,
              "noteHighLimit": 127,
              "rtr": "PITCH_SHIFT"
            },
            "ctb2High": null
          },
          "notes": [
            {
              "pitch": 59,
              "velocity": 65,
              "position": 0,
              "duration": 0.09375
            },
            {
              "pitch": 64,
              "velocity": 67,
              "position": 0,
              "duration": 0.10416666666666667
            },
            {
              "pitch": 55,
              "velocity": 69,
              "position": 0,
              "duration": 0.11458333333333333
            },
            {
              "pitch": 55,
              "velocity": 80,
              "position": 0.5,
              "duration": 0.59375
            },
            {
              "pitch": 64,
              "velocity": 91,
              "position": 0.5,
              "duration": 0.59375
            },
            {
              "pitch": 59,
              "velocity": 78,
              "position": 0.5,
              "duration": 0.6041666666666666
            },
            {
              "pitch": 55,
              "velocity": 43,
              "position": 1.25,
              "duration": 0.10416666666666667
            },
            {
              "pitch": 64,
              "velocity": 52,
              "position": 1.25,
              "duration": 0.10416666666666667
            },
            {
              "pitch": 59,
              "velocity": 55,
              "position": 1.25,
              "duration": 0.11458333333333333
            },
            {
              "pitch": 59,
              "velocity": 63,
              "position": 1.75,
              "duration": 0.09375
            },
            {
              "pitch": 55,
              "velocity": 70,
              "position": 1.75,
              "duration": 0.10416666666666667
            },
            {
              "pitch": 64,
              "velocity": 61,
              "position": 1.75,
              "duration": 0.11458333333333333
            },
            {
              "pitch": 59,
              "velocity": 88,
              "position": 2.25,
              "duration": 0.59375
            },
            {
              "pitch": 64,
              "velocity": 88,
              "position": 2.25,
              "duration": 0.59375
            },
            {
              "pitch": 55,
              "velocity": 77,
              "position": 2.25,
              "duration": 0.6041666666666666
            },
            {
              "pitch": 55,
              "velocity": 79,
              "position": 3,
              "duration": 0.09375
            },
            {
              "pitch": 59,
              "velocity": 84,
              "position": 3,
              "duration": 0.10416666666666667
            },
            {
              "pitch": 64,
              "velocity": 78,
              "position": 3,
              "duration": 0.10416666666666667
            },
            {
              "pitch": 55,
              "velocity": 72,
              "position": 3.5,
              "duration": 0.10416666666666667
            },
            {
              "pitch": 59,
              "velocity": 61,
              "position": 3.5,
              "duration": 0.10416666666666667
            },
            {
              "pitch": 64,
              "velocity": 73,
              "position": 3.5,
              "duration": 0.11458333333333333
            },
            {
              "pitch": 55,
              "velocity": 71,
              "position": 4,
              "duration": 0.10416666666666667
            },
            {
              "pitch": 59,
              "velocity": 65,
              "position": 4,
              "duration": 0.10416666666666667
            },
            {
              "pitch": 64,
              "velocity": 71,
              "position": 4,
              "duration": 0.10416666666666667
            },
            {
              "pitch": 64,
              "velocity": 80,
              "position": 4.5,
              "duration": 0.59375
            },
            {
              "pitch": 55,
              "velocity": 81,
              "position": 4.5,
              "duration": 0.6041666666666666
            },
            {
              "pitch": 59,
              "velocity": 87,
              "position": 4.5,
              "duration": 0.6041666666666666
            },
            {
              "pitch": 59,
              "velocity": 51,
              "position": 5.25,
              "duration": 0.09375
            },
            {
              "pitch": 64,
              "velocity": 57,
              "position": 5.25,
              "duration": 0.09375
            },
            {
              "pitch": 55,
              "velocity": 45,
              "position": 5.25,
              "duration": 0.10416666666666667
            },
            {
              "pitch": 59,
              "velocity": 67,
              "position": 5.75,
              "duration": 0.09375
            },
            {
              "pitch": 55,
              "velocity": 70,
              "position": 5.75,
              "duration": 0.10416666666666667
            },
            {
              "pitch": 64,
              "velocity": 73,
              "position": 5.75,
              "duration": 0.10416666666666667
            },
            {
              "pitch": 55,
              "velocity": 83,
              "position": 6.25,
              "duration": 0.6041666666666666
            },
            {
              "pitch": 59,
              "velocity": 85,
              "position": 6.25,
              "duration": 0.6041666666666666
            },
            {
              "pitch": 64,
              "velocity": 83,
              "position": 6.25,
              "duration": 0.6041666666666666
            },
            {
              "pitch": 55,
              "velocity": 79,
              "position": 7,
              "duration": 0.09375
            },
            {
              "pitch": 64,
              "velocity": 92,
              "position": 7,
              "duration": 0.09375
            },
            {
              "pitch": 59,
              "velocity": 78,
              "position": 7,
              "duration": 0.10416666666666667
            },
            {
              "pitch": 55,
              "velocity": 63,
              "position": 7.5,
              "duration": 0.10416666666666667
            },
            {
              "pitch": 59,
              "velocity": 66,
              "position": 7.5,
              "duration": 0.10416666666666667
            },
            {
              "pitch": 64,
              "velocity": 63,
              "position": 7.5,
              "duration": 0.10416666666666667
            },
            {
              "pitch": 59,
              "velocity": 72,
              "position": 8,
              "duration": 0.09375
            },
            {
              "pitch": 55,
              "velocity": 73,
              "position": 8,
              "duration": 0.10416666666666667
            },
            {
              "pitch": 64,
              "velocity": 69,
              "position": 8,
              "duration": 0.11458333333333333
            },
            {
              "pitch": 59,
              "velocity": 78,
              "position": 8.5,
              "duration": 0.59375
            },
            {
              "pitch": 55,
              "velocity": 85,
              "position": 8.5,
              "duration": 0.6041666666666666
            },
            {
              "pitch": 64,
              "velocity": 78,
              "position": 8.5,
              "duration": 0.6041666666666666
            },
            {
              "pitch": 55,
              "velocity": 55,
              "position": 9.25,
              "duration": 0.10416666666666667
            },
            {
              "pitch": 64,
              "velocity": 58,
              "position": 9.25,
              "duration": 0.10416666666666667
            },
            {
              "pitch": 59,
              "velocity": 44,
              "position": 9.25,
              "duration": 0.11458333333333333
            },
            {
              "pitch": 55,
              "velocity": 64,
              "position": 9.75,
              "duration": 0.09375
            },
            {
              "pitch": 64,
              "velocity": 76,
              "position": 9.75,
              "duration": 0.09375
            },
            {
              "pitch": 59,
              "velocity": 74,
              "position": 9.75,
              "duration": 0.10416666666666667
            },
            {
              "pitch": 55,
              "velocity": 79,
              "position": 10.25,
              "duration": 0.59375
            },
            {
              "pitch": 64,
              "velocity": 93,
              "position": 10.25,
              "duration": 0.59375
            },
            {
              "pitch": 59,
              "velocity": 79,
              "position": 10.25,
              "duration": 0.6041666666666666
            },
            {
              "pitch": 55,
              "velocity": 80,
              "position": 11,
              "duration": 0.10416666666666667
            },
            {
              "pitch": 59,
              "velocity": 91,
              "position": 11,
              "duration": 0.10416666666666667
            },
            {
              "pitch": 64,
              "velocity": 90,
              "position": 11,
              "duration": 0.10416666666666667
            },
            {
              "pitch": 55,
              "velocity": 62,
              "position": 11.5,
              "duration": 0.09375
            },
            {
              "pitch": 59,
              "velocity": 70,
              "position": 11.5,
              "duration": 0.09375
            },
            {
              "pitch": 64,
              "velocity": 61,
              "position": 11.5,
              "duration": 0.10416666666666667
            },
            {
              "pitch": 55,
              "velocity": 65,
              "position": 12,
              "duration": 0.10416666666666667
            },
            {
              "pitch": 59,
              "velocity": 63,
              "position": 12,
              "duration": 0.10416666666666667
            },
            {
              "pitch": 64,
              "velocity": 67,
              "position": 12,
              "duration": 0.11458333333333333
            },
            {
              "pitch": 55,
              "velocity": 88,
              "position": 12.5,
              "duration": 0.59375
            },
            {
              "pitch": 59,
              "velocity": 85,
              "position": 12.5,
              "duration": 0.59375
            },
            {
              "pitch": 64,
              "velocity": 79,
              "position": 12.5,
              "duration": 0.6041666666666666
            },
            {
              "pitch": 55,
              "velocity": 50,
              "position": 13.25,
              "duration": 0.10416666666666667
            },
            {
              "pitch": 59,
              "velocity": 57,
              "position": 13.25,
              "duration": 0.10416666666666667
            },
            {
              "pitch": 64,
              "velocity": 52,
              "position": 13.25,
              "duration": 0.10416666666666667
            },
            {
              "pitch": 55,
              "velocity": 63,
              "position": 13.75,
              "duration": 0.09375
            },
            {
              "pitch": 59,
              "velocity": 71,
              "position": 13.75,
              "duration": 0.10416666666666667
            },
            {
              "pitch": 64,
              "velocity": 68,
              "position": 13.75,
              "duration": 0.10416666666666667
            },
            {
              "pitch": 55,
              "velocity": 83,
              "position": 14.25,
              "duration": 0.59375
            },
            {
              "pitch": 59,
              "velocity": 78,
              "position": 14.25,
              "duration": 0.59375
            },
            {
              "pitch": 64,
              "velocity": 82,
              "position": 14.25,
              "duration": 0.6041666666666666
            },
            {
              "pitch": 55,
              "velocity": 85,
              "position": 15,
              "duration": 0.09375
            },
            {
              "pitch": 59,
              "velocity": 93,
              "position": 15,
              "duration": 0.10416666666666667
            },
            {
              "pitch": 64,
              "velocity": 93,
              "position": 15,
              "duration": 0.10416666666666667
            },
            {
              "pitch": 55,
              "velocity": 63,
              "position": 15.5,
              "duration": 0.10416666666666667
            },
            {
              "pitch": 59,
              "velocity": 61,
              "position": 15.5,
              "duration": 0.10416666666666667
            },
            {
              "pitch": 64,
              "velocity": 67,
              "position": 15.5,
              "duration": 0.10416666666666667
            }
          ]
        },
        "12": {
          "ctab": {
            "srcChannel": 12,
            "name": "Pno",
            "accType": "CHORD2",
            "editable": false,
            "mutedNotes": [],
            "mutedChords": [],
            "autoStart": false,
            "sourceChordNote": 0,
            "sourceChordType": "Maj7",
            "ctb2Low": null,
            "ctb2Main": {
              "ntr": "ROOT_FIXED",
              "ntt": "CHORD",
              "bassOn": false,
              "chordRootUpperLimit": 7,
              "noteLowLimit": 0,
              "noteHighLimit": 127,
              "rtr": "PITCH_SHIFT"
            },
            "ctb2High": null
          },
          "notes": [
            {
              "pitch": 55,
              "velocity": 69,
              "position": 0,
              "duration": 3.5729166666666665
            },
            {
              "pitch": 64,
              "velocity": 74,
              "position": 0,
              "duration": 3.5729166666666665
            },
            {
              "pitch": 59,
              "velocity": 73,
              "position": 0,
              "duration": 3.59375
            },
            {
              "pitch": 59,
              "velocity": 58,
              "position": 4.5,
              "duration": 0.09375
            },
            {
              "pitch": 64,
              "velocity": 47,
              "position": 4.5,
              "duration": 0.10416666666666667
            },
            {
              "pitch": 55,
              "velocity": 58,
              "position": 4.5,
              "duration": 0.125
            },
            {
              "pitch": 55,
              "velocity": 75,
              "position": 5,
              "duration": 0.4270833333333333
            },
            {
              "pitch": 59,
              "velocity": 67,
              "position": 5,
              "duration": 0.4375
            },
            {
              "pitch": 64,
              "velocity": 75,
              "position": 5,
              "duration": 0.4375
            },
            {
              "pitch": 59,
              "velocity": 66,
              "position": 5.75,
              "duration": 0.8020833333333334
            },
            {
              "pitch": 55,
              "velocity": 70,
              "position": 5.75,
              "duration": 0.8333333333333334
            },
            {
              "pitch": 64,
              "velocity": 68,
              "position": 5.75,
              "duration": 0.8333333333333334
            },
            {
              "pitch": 59,
              "velocity": 61,
              "position": 6.75,
              "duration": 0.15625
            },
            {
              "pitch": 55,
              "velocity": 56,
              "position": 6.75,
              "duration": 0.17708333333333334
            },
            {
              "pitch": 64,
              "velocity": 60,
              "position": 6.75,
              "duration": 0.1875
            },
            {
              "pitch": 55,
              "velocity": 75,
              "position": 7.25,
              "duration": 0.1875
            },
            {
              "pitch": 59,
              "velocity": 68,
              "position": 7.25,
              "duration": 0.20833333333333334
            },
            {
              "pitch": 64,
              "velocity": 67,
              "position": 7.25,
              "duration": 0.23958333333333334
            },
            {
              "pitch": 59,
              "velocity": 74,
              "position": 8,
              "duration": 3.4479166666666665
            },
            {
              "pitch": 64,
              "velocity": 74,
              "position": 8,
              "duration": 3.4791666666666665
            },
            {
              "pitch": 55,
              "velocity": 74,
              "position": 8,
              "duration": 3.4895833333333335
            },
            {
              "pitch": 59,
              "velocity": 61,
              "position": 12.5,
              "duration": 0.14583333333333334
            },
            {
              "pitch": 64,
              "velocity": 49,
              "position": 12.5,
              "duration": 0.14583333333333334
            },
            {
              "pitch": 55,
              "velocity": 55,
              "position": 12.5,
              "duration": 0.16666666666666666
            },
            {
              "pitch": 55,
              "velocity": 63,
              "position": 13,
              "duration": 0.4895833333333333
            },
            {
              "pitch": 59,
              "velocity": 77,
              "position": 13,
              "duration": 0.53125
            },
            {
              "pitch": 64,
              "velocity": 70,
              "position": 13,
              "duration": 0.5520833333333334
            },
            {
              "pitch": 55,
              "velocity": 65,
              "position": 13.75,
              "duration": 1.3854166666666667
            },
            {
              "pitch": 59,
              "velocity": 63,
              "position": 13.75,
              "duration": 2.1145833333333335
            },
            {
              "pitch": 64,
              "velocity": 65,
              "position": 13.75,
              "duration": 2.1354166666666665
            },
            {
              "pitch": 55,
              "velocity": 49,
              "position": 15.25,
              "duration": 0.6875
            }
          ]
        },
        "13": {
          "ctab": {
            "srcChannel": 13,
            "name": "Str",
            "accType": "PAD",
            "editable": false,
            "mutedNotes": [],
            "mutedChords": [],
            "autoStart": false,
            "sourceChordNote": 0,
            "sourceChordType": "Maj7",
            "ctb2Low": null,
            "ctb2Main": {
              "ntr": "ROOT_FIXED",
              "ntt": "CHORD",
              "bassOn": false,
              "chordRootUpperLimit": 7,
              "noteLowLimit": 0,
              "noteHighLimit": 127,
              "rtr": "PITCH_SHIFT"
            },
            "ctb2High": null
          },
          "notes": [
            {
              "pitch": 55,
              "velocity": 46,
              "position": 0,
              "duration": 15.989583333333334
            },
            {
              "pitch": 59,
              "velocity": 46,
              "position": 0,
              "duration": 15.989583333333334
            },
            {
              "pitch": 64,
              "velocity": 46,
              "position": 0,
              "duration": 15.989583333333334
            }
          ]
        }
      }
    },
    "Main_B": {
      "type": "Main_B",
      "sizeInBeats": 16,
      "channels": {
        "2": {
          "ctab": {
            "srcChannel": 2,
            "name": "NGt Root",
            "accType": "CHORD1",
            "editable": false,
            "mutedNotes": [],
            "mutedChords": [
              "1+2+5",
              "sus4",
              "1+5",
              "1+8",
              "Maj7aug",
              "dim",
              "minMaj7(9)",
              "minMaj7",
              "min6",
              "min",
              "aug",
              "Maj7(9)",
              "Maj7#11",
              "Maj7",
              "Maj6",
              "Maj"
            ],
            "autoStart": false,
            "sourceChordNote": 0,
            "sourceChordType": "Maj7",
            "ctb2Low": null,
            "ctb2Main": {
              "ntr": "ROOT_TRANSPOSITION",
              "ntt": "CHORD",
              "bassOn": false,
              "chordRootUpperLimit": 6,
              "noteLowLimit": 0,
              "noteHighLimit": 127,
              "rtr": "PITCH_SHIFT"
            },
            "ctb2High": null
          },
          "notes": [
            {
              "pitch": 60,
              "velocity": 65,
              "position": 0,
              "duration": 0.09375
            },
            {
              "pitch": 60,
              "velocity": 78,
              "position": 0.5,
              "duration": 0.6041666666666666
            },
            {
              "pitch": 60,
              "velocity": 55,
              "position": 1.25,
              "duration": 0.11458333333333333
            },
            {
              "pitch": 60,
              "velocity": 63,
              "position": 1.75,
              "duration": 0.09375
            },
            {
              "pitch": 60,
              "velocity": 88,
              "position": 2.25,
              "duration": 0.59375
            },
            {
              "pitch": 60,
              "velocity": 69,
              "position": 3,
              "duration": 0.3958333333333333
            },
            {
              "pitch": 60,
              "velocity": 61,
              "position": 3.5,
              "duration": 0.125
            },
            {
              "pitch": 60,
              "velocity": 65,
              "position": 4,
              "duration": 0.10416666666666667
            },
            {
              "pitch": 60,
              "velocity": 87,
              "position": 4.5,
              "duration": 0.6041666666666666
            },
            {
              "pitch": 60,
              "velocity": 51,
              "position": 5.25,
              "duration": 0.09375
            },
            {
              "pitch": 60,
              "velocity": 67,
              "position": 5.75,
              "duration": 0.09375
            },
            {
              "pitch": 60,
              "velocity": 85,
              "position": 6.25,
              "duration": 0.6041666666666666
            },
            {
              "pitch": 60,
              "velocity": 64,
              "position": 7,
              "duration": 0.3958333333333333
            },
            {
              "pitch": 60,
              "velocity": 66,
              "position": 7.5,
              "duration": 0.125
            },
            {
              "pitch": 60,
              "velocity": 72,
              "position": 8,
              "duration": 0.09375
            },
            {
              "pitch": 60,
              "velocity": 78,
              "position": 8.5,
              "duration": 0.59375
            },
            {
              "pitch": 60,
              "velocity": 44,
              "position": 9.25,
              "duration": 0.11458333333333333
            },
            {
              "pitch": 60,
              "velocity": 74,
              "position": 9.75,
              "duration": 0.10416666666666667
            },
            {
              "pitch": 60,
              "velocity": 79,
              "position": 10.25,
              "duration": 0.6041666666666666
            },
            {
              "pitch": 60,
              "velocity": 75,
              "position": 11,
              "duration": 0.3958333333333333
            },
            {
              "pitch": 60,
              "velocity": 70,
              "position": 11.5,
              "duration": 0.11458333333333333
            },
            {
              "pitch": 60,
              "velocity": 63,
              "position": 12,
              "duration": 0.10416666666666667
            },
            {
              "pitch": 60,
              "velocity": 85,
              "position": 12.5,
              "duration": 0.59375
            },
            {
              "pitch": 60,
              "velocity": 57,
              "position": 13.25,
              "duration": 0.10416666666666667
            },
            {
              "pitch": 60,
              "velocity": 71,
              "position": 13.75,
              "duration": 0.10416666666666667
            },
            {
              "pitch": 60,
              "velocity": 78,
              "position": 14.25,
              "duration": 0.59375
            },
            {
              "pitch": 60,
              "velocity": 77,
              "position": 15,
              "duration": 0.3958333333333333
            },
            {
              "pitch": 60,
              "velocity": 61,
              "position": 15.5,
              "duration": 0.11458333333333333
            }
          ]
        },
        "4": {
          "ctab": {
            "srcChannel": 4,
            "name": "Str Root",
            "accType": "PAD",
            "editable": false,
            "mutedNotes": [],
            "mutedChords": [
              "1+2+5",
              "sus4",
              "1+5",
              "1+8",
              "Maj7aug",
              "dim",
              "minMaj7(9)",
              "minMaj7",
              "min6",
              "min",
              "aug",
              "Maj7(9)",
              "Maj7#11",
              "Maj7",
              "Maj6",
              "Maj"
            ],
            "autoStart": false,
            "sourceChordNote": 0,
            "sourceChordType": "Maj7",
            "ctb2Low": null,
            "ctb2Main": {
              "ntr": "ROOT_TRANSPOSITION",
              "ntt": "CHORD",
              "bassOn": false,
              "chordRootUpperLimit": 6,
              "noteLowLimit": 0,
              "noteHighLimit": 127,
              "rtr": "PITCH_SHIFT"
            },
            "ctb2High": null
          },
          "notes": [
            {
              "pitch": 60,
              "velocity": 46,
              "position": 0,
              "duration": 15.989583333333334
            }
          ]
        },
        "7": {
          "ctab": {
            "srcChannel": 7,
            "name": "CC_Crash",
            "accType": "RHYTHM",
            "editable": false,
            "mutedNotes": [],
            "mutedChords": [
              "1+2+5",
              "sus4",
              "1+5",
              "1+8",
              "7aug",
              "Maj7aug",
              "7(#9)",
              "7(b13)",
              "7(b9)",
              "7(13)",
              "7#11",
              "7(9)",
              "7b5",
              "7sus4",
              "7th",
              "dim7",
              "dim",
              "minMaj7(9)",
              "minMaj7",
              "min7(11)",
              "min7(9)",
              "min(9)",
              "m7b5",
              "min7",
              "min6",
              "min",
              "aug",
              "Maj6(9)",
              "Maj7(9)",
              "Maj(9)",
              "Maj7#11",
              "Maj7",
              "Maj6",
              "Maj"
            ],
            "autoStart": true,
            "sourceChordNote": 0,
            "sourceChordType": "Maj",
            "ctb2Low": null,
            "ctb2Main": {
              "ntr": "ROOT_FIXED",
              "ntt": "BYPASS",
              "bassOn": false,
              "chordRootUpperLimit": 0,
              "noteLowLimit": 0,
              "noteHighLimit": 127,
              "rtr": "RETRIGGER"
            },
            "ctb2High": null
          },
          "notes": []
        },
        "8": {
          "ctab": {
            "srcChannel": 8,
            "name": "Perc",
            "accType": "SUBRHYTHM",
            "editable": false,
            "mutedNotes": [],
            "mutedChords": [],
            "autoStart": true,
            "sourceChordNote": 0,
            "sourceChordType": "Maj7",
            "ctb2Low": null,
            "ctb2Main": {
              "ntr": "ROOT_FIXED",
              "ntt": "BYPASS",
              "bassOn": false,
              "chordRootUpperLimit": 6,
              "noteLowLimit": 0,
              "noteHighLimit": 127,
              "rtr": "PITCH_SHIFT"
            },
            "ctb2High": null
          },
          "notes": [
            {
              "pitch": 80,
              "velocity": 40,
              "position": 0,
              "duration": 0.010416666666666666
            },
            {
              "pitch": 82,
              "velocity": 46,
              "position": 0,
              "duration": 0.010416666666666666
            },
            {
              "pitch": 81,
              "velocity": 40,
              "position": 0.2604166666666667,
              "duration": 0.010416666666666666
            },
            {
              "pitch": 82,
              "velocity": 29,
              "position": 0.2604166666666667,
              "duration": 0.010416666666666666
            },
            {
              "pitch": 81,
              "velocity": 10,
              "position": 0.4895833333333333,
              "duration": 0.010416666666666666
            },
            {
              "pitch": 82,
              "velocity": 46,
              "position": 0.4895833333333333,
              "duration": 0.010416666666666666
            },
            {
              "pitch": 80,
              "velocity": 20,
              "position": 0.7395833333333334,
              "duration": 0.010416666666666666
            },
            {
              "pitch": 82,
              "velocity": 63,
              "position": 0.7395833333333334,
              "duration": 0.010416666666666666
            },
            {
              "pitch": 80,
              "velocity": 40,
              "position": 0.9895833333333334,
              "duration": 0.010416666666666666
            },
            {
              "pitch": 82,
              "velocity": 46,
              "position": 0.9895833333333334,
              "duration": 0.010416666666666666
            },
            {
              "pitch": 81,
              "velocity": 40,
              "position": 1.2604166666666667,
              "duration": 0.010416666666666666
            },
            {
              "pitch": 82,
              "velocity": 29,
              "position": 1.2604166666666667,
              "duration": 0.010416666666666666
            },
            {
              "pitch": 81,
              "velocity": 10,
              "position": 1.4895833333333333,
              "duration": 0.010416666666666666
            },
            {
              "pitch": 82,
              "velocity": 46,
              "position": 1.4895833333333333,
              "duration": 0.010416666666666666
            },
            {
              "pitch": 80,
              "velocity": 20,
              "position": 1.7395833333333333,
              "duration": 0.010416666666666666
            },
            {
              "pitch": 82,
              "velocity": 63,
              "position": 1.7395833333333333,
              "duration": 0.010416666666666666
            },
            {
              "pitch": 80,
              "velocity": 40,
              "position": 1.9895833333333333,
              "duration": 0.010416666666666666
            },
            {
              "pitch": 82,
              "velocity": 46,
              "position": 1.9895833333333333,
              "duration": 0.010416666666666666
            },
            {
              "pitch": 81,
              "velocity": 40,
              "position": 2.2604166666666665,
              "duration": 0.010416666666666666
            },
            {
              "pitch": 82,
              "velocity": 29,
              "position": 2.2604166666666665,
              "duration": 0.010416666666666666
            },
            {
              "pitch": 81,
              "velocity": 10,
              "position": 2.4895833333333335,
              "duration": 0.010416666666666666
            },
            {
              "pitch": 82,
              "velocity": 46,
              "position": 2.4895833333333335,
              "duration": 0.010416666666666666
            },
            {
              "pitch": 80,
              "velocity": 20,
              "position": 2.7395833333333335,
              "duration": 0.010416666666666666
            },
            {
              "pitch": 82,
              "velocity": 63,
              "position": 2.7395833333333335,
              "duration": 0.010416666666666666
            },
            {
              "pitch": 80,
              "velocity": 40,
              "position": 2.9895833333333335,
              "duration": 0.010416666666666666
            },
            {
              "pitch": 82,
              "velocity": 46,
              "position": 2.9895833333333335,
              "duration": 0.010416666666666666
            },
            {
              "pitch": 81,
              "velocity": 40,
              "position": 3.2604166666666665,
              "duration": 0.010416666666666666
            },
            {
              "pitch": 82,
              "velocity": 29,
              "position": 3.2604166666666665,
              "duration": 0.010416666666666666
            },
            {
              "pitch": 81,
              "velocity": 10,
              "position": 3.4895833333333335,
              "duration": 0.010416666666666666
            },
            {
              "pitch": 82,
              "velocity": 46,
              "position": 3.4895833333333335,
              "duration": 0.010416666666666666
            },
            {
              "pitch": 80,
              "velocity": 20,
              "position": 3.7395833333333335,
              "duration": 0.010416666666666666
            },
            {
              "pitch": 82,
              "velocity": 63,
              "position": 3.7395833333333335,
              "duration": 0.010416666666666666
            },
            {
              "pitch": 80,
              "velocity": 40,
              "position": 4,
              "duration": 0.010416666666666666
            },
            {
              "pitch": 82,
              "velocity": 46,
              "position": 4,
              "duration": 0.010416666666666666
            },
            {
              "pitch": 81,
              "velocity": 40,
              "position": 4.260416666666667,
              "duration": 0.010416666666666666
            },
            {
              "pitch": 82,
              "velocity": 29,
              "position": 4.260416666666667,
              "duration": 0.010416666666666666
            },
            {
              "pitch": 81,
              "velocity": 10,
              "position": 4.489583333333333,
              "duration": 0.010416666666666666
            },
            {
              "pitch": 82,
              "velocity": 46,
              "position": 4.489583333333333,
              "duration": 0.010416666666666666
            },
            {
              "pitch": 80,
              "velocity": 20,
              "position": 4.739583333333333,
              "duration": 0.010416666666666666
            },
            {
              "pitch": 82,
              "velocity": 63,
              "position": 4.739583333333333,
              "duration": 0.010416666666666666
            },
            {
              "pitch": 80,
              "velocity": 40,
              "position": 4.989583333333333,
              "duration": 0.010416666666666666
            },
            {
              "pitch": 82,
              "velocity": 46,
              "position": 4.989583333333333,
              "duration": 0.010416666666666666
            },
            {
              "pitch": 81,
              "velocity": 40,
              "position": 5.260416666666667,
              "duration": 0.010416666666666666
            },
            {
              "pitch": 82,
              "velocity": 29,
              "position": 5.260416666666667,
              "duration": 0.010416666666666666
            },
            {
              "pitch": 81,
              "velocity": 10,
              "position": 5.489583333333333,
              "duration": 0.010416666666666666
            },
            {
              "pitch": 82,
              "velocity": 46,
              "position": 5.489583333333333,
              "duration": 0.010416666666666666
            },
            {
              "pitch": 80,
              "velocity": 20,
              "position": 5.739583333333333,
              "duration": 0.010416666666666666
            },
            {
              "pitch": 82,
              "velocity": 63,
              "position": 5.739583333333333,
              "duration": 0.010416666666666666
            },
            {
              "pitch": 80,
              "velocity": 40,
              "position": 5.989583333333333,
              "duration": 0.010416666666666666
            },
            {
              "pitch": 82,
              "velocity": 46,
              "position": 5.989583333333333,
              "duration": 0.010416666666666666
            },
            {
              "pitch": 81,
              "velocity": 40,
              "position": 6.260416666666667,
              "duration": 0.010416666666666666
            },
            {
              "pitch": 82,
              "velocity": 29,
              "position": 6.260416666666667,
              "duration": 0.010416666666666666
            },
            {
              "pitch": 81,
              "velocity": 10,
              "position": 6.489583333333333,
              "duration": 0.010416666666666666
            },
            {
              "pitch": 82,
              "velocity": 46,
              "position": 6.489583333333333,
              "duration": 0.010416666666666666
            },
            {
              "pitch": 80,
              "velocity": 20,
              "position": 6.739583333333333,
              "duration": 0.010416666666666666
            },
            {
              "pitch": 82,
              "velocity": 63,
              "position": 6.739583333333333,
              "duration": 0.010416666666666666
            },
            {
              "pitch": 80,
              "velocity": 40,
              "position": 6.989583333333333,
              "duration": 0.010416666666666666
            },
            {
              "pitch": 82,
              "velocity": 46,
              "position": 6.989583333333333,
              "duration": 0.010416666666666666
            },
            {
              "pitch": 81,
              "velocity": 40,
              "position": 7.260416666666667,
              "duration": 0.010416666666666666
            },
            {
              "pitch": 82,
              "velocity": 29,
              "position": 7.260416666666667,
              "duration": 0.010416666666666666
            },
            {
              "pitch": 81,
              "velocity": 10,
              "position": 7.489583333333333,
              "duration": 0.010416666666666666
            },
            {
              "pitch": 82,
              "velocity": 46,
              "position": 7.489583333333333,
              "duration": 0.010416666666666666
            },
            {
              "pitch": 80,
              "velocity": 20,
              "position": 7.739583333333333,
              "duration": 0.010416666666666666
            },
            {
              "pitch": 82,
              "velocity": 63,
              "position": 7.739583333333333,
              "duration": 0.010416666666666666
            },
            {
              "pitch": 80,
              "velocity": 40,
              "position": 8,
              "duration": 0.010416666666666666
            },
            {
              "pitch": 82,
              "velocity": 46,
              "position": 8,
              "duration": 0.010416666666666666
            },
            {
              "pitch": 81,
              "velocity": 40,
              "position": 8.260416666666666,
              "duration": 0.010416666666666666
            },
            {
              "pitch": 82,
              "velocity": 29,
              "position": 8.260416666666666,
              "duration": 0.010416666666666666
            },
            {
              "pitch": 81,
              "velocity": 10,
              "position": 8.489583333333334,
              "duration": 0.010416666666666666
            },
            {
              "pitch": 82,
              "velocity": 46,
              "position": 8.489583333333334,
              "duration": 0.010416666666666666
            },
            {
              "pitch": 80,
              "velocity": 20,
              "position": 8.739583333333334,
              "duration": 0.010416666666666666
            },
            {
              "pitch": 82,
              "velocity": 63,
              "position": 8.739583333333334,
              "duration": 0.010416666666666666
            },
            {
              "pitch": 80,
              "velocity": 40,
              "position": 8.989583333333334,
              "duration": 0.010416666666666666
            },
            {
              "pitch": 82,
              "velocity": 46,
              "position": 8.989583333333334,
              "duration": 0.010416666666666666
            },
            {
              "pitch": 81,
              "velocity": 40,
              "position": 9.260416666666666,
              "duration": 0.010416666666666666
            },
            {
              "pitch": 82,
              "velocity": 29,
              "position": 9.260416666666666,
              "duration": 0.010416666666666666
            },
            {
              "pitch": 81,
              "velocity": 10,
              "position": 9.489583333333334,
              "duration": 0.010416666666666666
            },
            {
              "pitch": 82,
              "velocity": 46,
              "position": 9.489583333333334,
              "duration": 0.010416666666666666
            },
            {
              "pitch": 80,
              "velocity": 20,
              "position": 9.739583333333334,
              "duration": 0.010416666666666666
            },
            {
              "pitch": 82,
              "velocity": 63,
              "position": 9.739583333333334,
              "duration": 0.010416666666666666
            },
            {
              "pitch": 80,
              "velocity": 40,
              "position": 9.989583333333334,
              "duration": 0.010416666666666666
            },
            {
              "pitch": 82,
              "velocity": 46,
              "position": 9.989583333333334,
              "duration": 0.010416666666666666
            },
            {
              "pitch": 81,
              "velocity": 40,
              "position": 10.260416666666666,
              "duration": 0.010416666666666666
            },
            {
              "pitch": 82,
              "velocity": 29,
              "position": 10.260416666666666,
              "duration": 0.010416666666666666
            },
            {
              "pitch": 81,
              "velocity": 10,
              "position": 10.489583333333334,
              "duration": 0.010416666666666666
            },
            {
              "pitch": 82,
              "velocity": 46,
              "position": 10.489583333333334,
              "duration": 0.010416666666666666
            },
            {
              "pitch": 80,
              "velocity": 20,
              "position": 10.739583333333334,
              "duration": 0.010416666666666666
            },
            {
              "pitch": 82,
              "velocity": 63,
              "position": 10.739583333333334,
              "duration": 0.010416666666666666
            },
            {
              "pitch": 80,
              "velocity": 40,
              "position": 10.989583333333334,
              "duration": 0.010416666666666666
            },
            {
              "pitch": 82,
              "velocity": 46,
              "position": 10.989583333333334,
              "duration": 0.010416666666666666
            },
            {
              "pitch": 81,
              "velocity": 40,
              "position": 11.260416666666666,
              "duration": 0.010416666666666666
            },
            {
              "pitch": 82,
              "velocity": 29,
              "position": 11.260416666666666,
              "duration": 0.010416666666666666
            },
            {
              "pitch": 81,
              "velocity": 10,
              "position": 11.489583333333334,
              "duration": 0.010416666666666666
            },
            {
              "pitch": 82,
              "velocity": 46,
              "position": 11.489583333333334,
              "duration": 0.010416666666666666
            },
            {
              "pitch": 80,
              "velocity": 20,
              "position": 11.739583333333334,
              "duration": 0.010416666666666666
            },
            {
              "pitch": 82,
              "velocity": 63,
              "position": 11.739583333333334,
              "duration": 0.010416666666666666
            },
            {
              "pitch": 80,
              "velocity": 40,
              "position": 12,
              "duration": 0.010416666666666666
            },
            {
              "pitch": 82,
              "velocity": 46,
              "position": 12,
              "duration": 0.010416666666666666
            },
            {
              "pitch": 81,
              "velocity": 40,
              "position": 12.260416666666666,
              "duration": 0.010416666666666666
            },
            {
              "pitch": 82,
              "velocity": 29,
              "position": 12.260416666666666,
              "duration": 0.010416666666666666
            },
            {
              "pitch": 81,
              "velocity": 10,
              "position": 12.489583333333334,
              "duration": 0.010416666666666666
            },
            {
              "pitch": 82,
              "velocity": 46,
              "position": 12.489583333333334,
              "duration": 0.010416666666666666
            },
            {
              "pitch": 80,
              "velocity": 20,
              "position": 12.739583333333334,
              "duration": 0.010416666666666666
            },
            {
              "pitch": 82,
              "velocity": 63,
              "position": 12.739583333333334,
              "duration": 0.010416666666666666
            },
            {
              "pitch": 80,
              "velocity": 40,
              "position": 12.989583333333334,
              "duration": 0.010416666666666666
            },
            {
              "pitch": 82,
              "velocity": 46,
              "position": 12.989583333333334,
              "duration": 0.010416666666666666
            },
            {
              "pitch": 81,
              "velocity": 40,
              "position": 13.260416666666666,
              "duration": 0.010416666666666666
            },
            {
              "pitch": 82,
              "velocity": 29,
              "position": 13.260416666666666,
              "duration": 0.010416666666666666
            },
            {
              "pitch": 81,
              "velocity": 10,
              "position": 13.489583333333334,
              "duration": 0.010416666666666666
            },
            {
              "pitch": 82,
              "velocity": 46,
              "position": 13.489583333333334,
              "duration": 0.010416666666666666
            },
            {
              "pitch": 80,
              "velocity": 20,
              "position": 13.739583333333334,
              "duration": 0.010416666666666666
            },
            {
              "pitch": 82,
              "velocity": 63,
              "position": 13.739583333333334,
              "duration": 0.010416666666666666
            },
            {
              "pitch": 80,
              "velocity": 40,
              "position": 13.989583333333334,
              "duration": 0.010416666666666666
            },
            {
              "pitch": 82,
              "velocity": 46,
              "position": 13.989583333333334,
              "duration": 0.010416666666666666
            },
            {
              "pitch": 81,
              "velocity": 40,
              "position": 14.260416666666666,
              "duration": 0.010416666666666666
            },
            {
              "pitch": 82,
              "velocity": 29,
              "position": 14.260416666666666,
              "duration": 0.010416666666666666
            },
            {
              "pitch": 81,
              "velocity": 10,
              "position": 14.489583333333334,
              "duration": 0.010416666666666666
            },
            {
              "pitch": 82,
              "velocity": 46,
              "position": 14.489583333333334,
              "duration": 0.010416666666666666
            },
            {
              "pitch": 80,
              "velocity": 20,
              "position": 14.739583333333334,
              "duration": 0.010416666666666666
            },
            {
              "pitch": 82,
              "velocity": 63,
              "position": 14.739583333333334,
              "duration": 0.010416666666666666
            },
            {
              "pitch": 80,
              "velocity": 40,
              "position": 14.989583333333334,
              "duration": 0.010416666666666666
            },
            {
              "pitch": 82,
              "velocity": 46,
              "position": 14.989583333333334,
              "duration": 0.010416666666666666
            },
            {
              "pitch": 81,
              "velocity": 40,
              "position": 15.260416666666666,
              "duration": 0.010416666666666666
            },
            {
              "pitch": 82,
              "velocity": 29,
              "position": 15.260416666666666,
              "duration": 0.010416666666666666
            },
            {
              "pitch": 81,
              "velocity": 10,
              "position": 15.489583333333334,
              "duration": 0.010416666666666666
            },
            {
              "pitch": 82,
              "velocity": 46,
              "position": 15.489583333333334,
              "duration": 0.010416666666666666
            },
            {
              "pitch": 80,
              "velocity": 20,
              "position": 15.739583333333334,
              "duration": 0.010416666666666666
            },
            {
              "pitch": 82,
              "velocity": 63,
              "position": 15.739583333333334,
              "duration": 0.010416666666666666
            }
          ]
        },
        "9": {
          "ctab": {
            "srcChannel": 9,
            "name": "Drs",
            "accType": "RHYTHM",
            "editable": false,
            "mutedNotes": [],
            "mutedChords": [],
            "autoStart": true,
            "sourceChordNote": 0,
            "sourceChordType": "Maj7",
            "ctb2Low": null,
            "ctb2Main": {
              "ntr": "ROOT_FIXED",
              "ntt": "BYPASS",
              "bassOn": false,
              "chordRootUpperLimit": 6,
              "noteLowLimit": 0,
              "noteHighLimit": 127,
              "rtr": "PITCH_SHIFT"
            },
            "ctb2High": null
          },
          "notes": [
            {
              "pitch": 35,
              "velocity": 93,
              "position": 0,
              "duration": 0.010416666666666666
            },
            {
              "pitch": 42,
              "velocity": 80,
              "position": 0,
              "duration": 0.010416666666666666
            },
            {
              "pitch": 42,
              "velocity": 50,
              "position": 0.2604166666666667,
              "duration": 0.010416666666666666
            },
            {
              "pitch": 42,
              "velocity": 60,
              "position": 0.4895833333333333,
              "duration": 0.010416666666666666
            },
            {
              "pitch": 31,
              "velocity": 30,
              "position": 0.7395833333333334,
              "duration": 0.010416666666666666
            },
            {
              "pitch": 42,
              "velocity": 80,
              "position": 0.7395833333333334,
              "duration": 0.010416666666666666
            },
            {
              "pitch": 35,
              "velocity": 63,
              "position": 0.75,
              "duration": 0.010416666666666666
            },
            {
              "pitch": 42,
              "velocity": 80,
              "position": 0.9895833333333334,
              "duration": 0.010416666666666666
            },
            {
              "pitch": 43,
              "velocity": 50,
              "position": 0.9895833333333334,
              "duration": 0.010416666666666666
            },
            {
              "pitch": 35,
              "velocity": 93,
              "position": 1,
              "duration": 0.010416666666666666
            },
            {
              "pitch": 42,
              "velocity": 50,
              "position": 1.2604166666666667,
              "duration": 0.010416666666666666
            },
            {
              "pitch": 42,
              "velocity": 60,
              "position": 1.4895833333333333,
              "duration": 0.010416666666666666
            },
            {
              "pitch": 31,
              "velocity": 30,
              "position": 1.7395833333333333,
              "duration": 0.010416666666666666
            },
            {
              "pitch": 46,
              "velocity": 50,
              "position": 1.7395833333333333,
              "duration": 0.010416666666666666
            },
            {
              "pitch": 35,
              "velocity": 63,
              "position": 1.75,
              "duration": 0.010416666666666666
            },
            {
              "pitch": 42,
              "velocity": 80,
              "position": 1.9895833333333333,
              "duration": 0.010416666666666666
            },
            {
              "pitch": 35,
              "velocity": 93,
              "position": 2,
              "duration": 0.010416666666666666
            },
            {
              "pitch": 42,
              "velocity": 50,
              "position": 2.2604166666666665,
              "duration": 0.010416666666666666
            },
            {
              "pitch": 42,
              "velocity": 60,
              "position": 2.4895833333333335,
              "duration": 0.010416666666666666
            },
            {
              "pitch": 31,
              "velocity": 30,
              "position": 2.7395833333333335,
              "duration": 0.010416666666666666
            },
            {
              "pitch": 42,
              "velocity": 80,
              "position": 2.7395833333333335,
              "duration": 0.010416666666666666
            },
            {
              "pitch": 35,
              "velocity": 63,
              "position": 2.75,
              "duration": 0.010416666666666666
            },
            {
              "pitch": 42,
              "velocity": 80,
              "position": 2.9895833333333335,
              "duration": 0.010416666666666666
            },
            {
              "pitch": 43,
              "velocity": 50,
              "position": 2.9895833333333335,
              "duration": 0.010416666666666666
            },
            {
              "pitch": 35,
              "velocity": 93,
              "position": 3,
              "duration": 0.010416666666666666
            },
            {
              "pitch": 42,
              "velocity": 50,
              "position": 3.2604166666666665,
              "duration": 0.010416666666666666
            },
            {
              "pitch": 42,
              "velocity": 60,
              "position": 3.4895833333333335,
              "duration": 0.010416666666666666
            },
            {
              "pitch": 31,
              "velocity": 30,
              "position": 3.7395833333333335,
              "duration": 0.010416666666666666
            },
            {
              "pitch": 42,
              "velocity": 80,
              "position": 3.7395833333333335,
              "duration": 0.010416666666666666
            },
            {
              "pitch": 35,
              "velocity": 63,
              "position": 3.75,
              "duration": 0.010416666666666666
            },
            {
              "pitch": 35,
              "velocity": 93,
              "position": 4,
              "duration": 0.010416666666666666
            },
            {
              "pitch": 42,
              "velocity": 80,
              "position": 4,
              "duration": 0.010416666666666666
            },
            {
              "pitch": 42,
              "velocity": 50,
              "position": 4.260416666666667,
              "duration": 0.010416666666666666
            },
            {
              "pitch": 42,
              "velocity": 60,
              "position": 4.489583333333333,
              "duration": 0.010416666666666666
            },
            {
              "pitch": 31,
              "velocity": 30,
              "position": 4.739583333333333,
              "duration": 0.010416666666666666
            },
            {
              "pitch": 42,
              "velocity": 80,
              "position": 4.739583333333333,
              "duration": 0.010416666666666666
            },
            {
              "pitch": 35,
              "velocity": 63,
              "position": 4.75,
              "duration": 0.010416666666666666
            },
            {
              "pitch": 42,
              "velocity": 80,
              "position": 4.989583333333333,
              "duration": 0.010416666666666666
            },
            {
              "pitch": 43,
              "velocity": 50,
              "position": 4.989583333333333,
              "duration": 0.010416666666666666
            },
            {
              "pitch": 35,
              "velocity": 93,
              "position": 5,
              "duration": 0.010416666666666666
            },
            {
              "pitch": 42,
              "velocity": 50,
              "position": 5.260416666666667,
              "duration": 0.010416666666666666
            },
            {
              "pitch": 42,
              "velocity": 60,
              "position": 5.489583333333333,
              "duration": 0.010416666666666666
            },
            {
              "pitch": 31,
              "velocity": 30,
              "position": 5.739583333333333,
              "duration": 0.010416666666666666
            },
            {
              "pitch": 42,
              "velocity": 80,
              "position": 5.739583333333333,
              "duration": 0.010416666666666666
            },
            {
              "pitch": 35,
              "velocity": 63,
              "position": 5.75,
              "duration": 0.010416666666666666
            },
            {
              "pitch": 42,
              "velocity": 80,
              "position": 5.989583333333333,
              "duration": 0.010416666666666666
            },
            {
              "pitch": 35,
              "velocity": 93,
              "position": 6,
              "duration": 0.010416666666666666
            },
            {
              "pitch": 46,
              "velocity": 50,
              "position": 6.260416666666667,
              "duration": 0.010416666666666666
            },
            {
              "pitch": 42,
              "velocity": 60,
              "position": 6.489583333333333,
              "duration": 0.010416666666666666
            },
            {
              "pitch": 31,
              "velocity": 30,
              "position": 6.739583333333333,
              "duration": 0.010416666666666666
            },
            {
              "pitch": 42,
              "velocity": 80,
              "position": 6.739583333333333,
              "duration": 0.010416666666666666
            },
            {
              "pitch": 35,
              "velocity": 63,
              "position": 6.75,
              "duration": 0.010416666666666666
            },
            {
              "pitch": 42,
              "velocity": 80,
              "position": 6.989583333333333,
              "duration": 0.010416666666666666
            },
            {
              "pitch": 43,
              "velocity": 50,
              "position": 6.989583333333333,
              "duration": 0.010416666666666666
            },
            {
              "pitch": 35,
              "velocity": 93,
              "position": 7,
              "duration": 0.010416666666666666
            },
            {
              "pitch": 42,
              "velocity": 50,
              "position": 7.260416666666667,
              "duration": 0.010416666666666666
            },
            {
              "pitch": 42,
              "velocity": 60,
              "position": 7.489583333333333,
              "duration": 0.010416666666666666
            },
            {
              "pitch": 31,
              "velocity": 30,
              "position": 7.739583333333333,
              "duration": 0.010416666666666666
            },
            {
              "pitch": 42,
              "velocity": 80,
              "position": 7.739583333333333,
              "duration": 0.010416666666666666
            },
            {
              "pitch": 35,
              "velocity": 63,
              "position": 7.75,
              "duration": 0.010416666666666666
            },
            {
              "pitch": 35,
              "velocity": 93,
              "position": 8,
              "duration": 0.010416666666666666
            },
            {
              "pitch": 42,
              "velocity": 80,
              "position": 8,
              "duration": 0.010416666666666666
            },
            {
              "pitch": 42,
              "velocity": 50,
              "position": 8.260416666666666,
              "duration": 0.010416666666666666
            },
            {
              "pitch": 42,
              "velocity": 60,
              "position": 8.489583333333334,
              "duration": 0.010416666666666666
            },
            {
              "pitch": 31,
              "velocity": 30,
              "position": 8.739583333333334,
              "duration": 0.010416666666666666
            },
            {
              "pitch": 42,
              "velocity": 80,
              "position": 8.739583333333334,
              "duration": 0.010416666666666666
            },
            {
              "pitch": 35,
              "velocity": 63,
              "position": 8.75,
              "duration": 0.010416666666666666
            },
            {
              "pitch": 42,
              "velocity": 80,
              "position": 8.989583333333334,
              "duration": 0.010416666666666666
            },
            {
              "pitch": 43,
              "velocity": 50,
              "position": 8.989583333333334,
              "duration": 0.010416666666666666
            },
            {
              "pitch": 35,
              "velocity": 93,
              "position": 9,
              "duration": 0.010416666666666666
            },
            {
              "pitch": 42,
              "velocity": 50,
              "position": 9.260416666666666,
              "duration": 0.010416666666666666
            },
            {
              "pitch": 42,
              "velocity": 60,
              "position": 9.489583333333334,
              "duration": 0.010416666666666666
            },
            {
              "pitch": 31,
              "velocity": 30,
              "position": 9.739583333333334,
              "duration": 0.010416666666666666
            },
            {
              "pitch": 46,
              "velocity": 50,
              "position": 9.739583333333334,
              "duration": 0.010416666666666666
            },
            {
              "pitch": 35,
              "velocity": 63,
              "position": 9.75,
              "duration": 0.010416666666666666
            },
            {
              "pitch": 42,
              "velocity": 80,
              "position": 9.989583333333334,
              "duration": 0.010416666666666666
            },
            {
              "pitch": 35,
              "velocity": 93,
              "position": 10,
              "duration": 0.010416666666666666
            },
            {
              "pitch": 42,
              "velocity": 50,
              "position": 10.260416666666666,
              "duration": 0.010416666666666666
            },
            {
              "pitch": 42,
              "velocity": 60,
              "position": 10.489583333333334,
              "duration": 0.010416666666666666
            },
            {
              "pitch": 31,
              "velocity": 30,
              "position": 10.739583333333334,
              "duration": 0.010416666666666666
            },
            {
              "pitch": 42,
              "velocity": 80,
              "position": 10.739583333333334,
              "duration": 0.010416666666666666
            },
            {
              "pitch": 35,
              "velocity": 63,
              "position": 10.75,
              "duration": 0.010416666666666666
            },
            {
              "pitch": 42,
              "velocity": 80,
              "position": 10.989583333333334,
              "duration": 0.010416666666666666
            },
            {
              "pitch": 43,
              "velocity": 50,
              "position": 10.989583333333334,
              "duration": 0.010416666666666666
            },
            {
              "pitch": 35,
              "velocity": 93,
              "position": 11,
              "duration": 0.010416666666666666
            },
            {
              "pitch": 42,
              "velocity": 50,
              "position": 11.260416666666666,
              "duration": 0.010416666666666666
            },
            {
              "pitch": 42,
              "velocity": 60,
              "position": 11.489583333333334,
              "duration": 0.010416666666666666
            },
            {
              "pitch": 31,
              "velocity": 30,
              "position": 11.739583333333334,
              "duration": 0.010416666666666666
            },
            {
              "pitch": 42,
              "velocity": 80,
              "position": 11.739583333333334,
              "duration": 0.010416666666666666
            },
            {
              "pitch": 35,
              "velocity": 63,
              "position": 11.75,
              "duration": 0.010416666666666666
            },
            {
              "pitch": 35,
              "velocity": 93,
              "position": 12,
              "duration": 0.010416666666666666
            },
            {
              "pitch": 42,
              "velocity": 80,
              "position": 12,
              "duration": 0.010416666666666666
            },
            {
              "pitch": 42,
              "velocity": 50,
              "position": 12.260416666666666,
              "duration": 0.010416666666666666
            },
            {
              "pitch": 42,
              "velocity": 60,
              "position": 12.489583333333334,
              "duration": 0.010416666666666666
            },
            {
              "pitch": 31,
              "velocity": 30,
              "position": 12.739583333333334,
              "duration": 0.010416666666666666
            },
            {
              "pitch": 42,
              "velocity": 80,
              "position": 12.739583333333334,
              "duration": 0.010416666666666666
            },
            {
              "pitch": 35,
              "velocity": 63,
              "position": 12.75,
              "duration": 0.010416666666666666
            },
            {
              "pitch": 42,
              "velocity": 80,
              "position": 12.989583333333334,
              "duration": 0.010416666666666666
            },
            {
              "pitch": 43,
              "velocity": 50,
              "position": 12.989583333333334,
              "duration": 0.010416666666666666
            },
            {
              "pitch": 35,
              "velocity": 93,
              "position": 13,
              "duration": 0.010416666666666666
            },
            {
              "pitch": 42,
              "velocity": 50,
              "position": 13.260416666666666,
              "duration": 0.010416666666666666
            },
            {
              "pitch": 42,
              "velocity": 60,
              "position": 13.489583333333334,
              "duration": 0.010416666666666666
            },
            {
              "pitch": 31,
              "velocity": 30,
              "position": 13.739583333333334,
              "duration": 0.010416666666666666
            },
            {
              "pitch": 42,
              "velocity": 80,
              "position": 13.739583333333334,
              "duration": 0.010416666666666666
            },
            {
              "pitch": 35,
              "velocity": 63,
              "position": 13.75,
              "duration": 0.010416666666666666
            },
            {
              "pitch": 42,
              "velocity": 80,
              "position": 13.989583333333334,
              "duration": 0.010416666666666666
            },
            {
              "pitch": 35,
              "velocity": 93,
              "position": 14,
              "duration": 0.010416666666666666
            },
            {
              "pitch": 46,
              "velocity": 50,
              "position": 14.260416666666666,
              "duration": 0.010416666666666666
            },
            {
              "pitch": 42,
              "velocity": 60,
              "position": 14.489583333333334,
              "duration": 0.010416666666666666
            },
            {
              "pitch": 31,
              "velocity": 30,
              "position": 14.739583333333334,
              "duration": 0.010416666666666666
            },
            {
              "pitch": 42,
              "velocity": 80,
              "position": 14.739583333333334,
              "duration": 0.010416666666666666
            },
            {
              "pitch": 35,
              "velocity": 63,
              "position": 14.75,
              "duration": 0.010416666666666666
            },
            {
              "pitch": 42,
              "velocity": 80,
              "position": 14.989583333333334,
              "duration": 0.010416666666666666
            },
            {
              "pitch": 43,
              "velocity": 50,
              "position": 14.989583333333334,
              "duration": 0.010416666666666666
            },
            {
              "pitch": 35,
              "velocity": 93,
              "position": 15,
              "duration": 0.010416666666666666
            },
            {
              "pitch": 31,
              "velocity": 40,
              "position": 15.260416666666666,
              "duration": 0.010416666666666666
            },
            {
              "pitch": 42,
              "velocity": 50,
              "position": 15.260416666666666,
              "duration": 0.010416666666666666
            },
            {
              "pitch": 42,
              "velocity": 60,
              "position": 15.489583333333334,
              "duration": 0.010416666666666666
            },
            {
              "pitch": 29,
              "velocity": 40,
              "position": 15.260416666666666,
              "duration": 0.3854166666666667
            },
            {
              "pitch": 31,
              "velocity": 50,
              "position": 15.739583333333334,
              "duration": 0.010416666666666666
            },
            {
              "pitch": 42,
              "velocity": 80,
              "position": 15.739583333333334,
              "duration": 0.010416666666666666
            },
            {
              "pitch": 35,
              "velocity": 63,
              "position": 15.75,
              "duration": 0.010416666666666666
            }
          ]
        },
        "10": {
          "ctab": {
            "srcChannel": 10,
            "name": "Bass",
            "accType": "BASS",
            "editable": false,
            "mutedNotes": [],
            "mutedChords": [],
            "autoStart": false,
            "sourceChordNote": 0,
            "sourceChordType": "Maj7",
            "ctb2Low": null,
            "ctb2Main": {
              "ntr": "ROOT_TRANSPOSITION",
              "ntt": "MELODY",
              "bassOn": true,
              "chordRootUpperLimit": 3,
              "noteLowLimit": 28,
              "noteHighLimit": 127,
              "rtr": "PITCH_SHIFT_TO_ROOT"
            },
            "ctb2High": null
          },
          "notes": [
            {
              "pitch": 24,
              "velocity": 98,
              "position": 0,
              "duration": 0.2604166666666667
            },
            {
              "pitch": 24,
              "velocity": 80,
              "position": 0.75,
              "duration": 0.09375
            },
            {
              "pitch": 31,
              "velocity": 98,
              "position": 1,
              "duration": 0.9895833333333334
            },
            {
              "pitch": 24,
              "velocity": 98,
              "position": 2,
              "duration": 0.2604166666666667
            },
            {
              "pitch": 24,
              "velocity": 80,
              "position": 2.75,
              "duration": 0.09375
            },
            {
              "pitch": 31,
              "velocity": 98,
              "position": 3,
              "duration": 0.9895833333333334
            },
            {
              "pitch": 24,
              "velocity": 98,
              "position": 4,
              "duration": 0.2604166666666667
            },
            {
              "pitch": 24,
              "velocity": 80,
              "position": 4.75,
              "duration": 0.09375
            },
            {
              "pitch": 31,
              "velocity": 98,
              "position": 5,
              "duration": 0.9895833333333334
            },
            {
              "pitch": 24,
              "velocity": 98,
              "position": 6,
              "duration": 0.2604166666666667
            },
            {
              "pitch": 24,
              "velocity": 80,
              "position": 6.75,
              "duration": 0.09375
            },
            {
              "pitch": 31,
              "velocity": 98,
              "position": 7,
              "duration": 0.9895833333333334
            },
            {
              "pitch": 24,
              "velocity": 98,
              "position": 8,
              "duration": 0.2604166666666667
            },
            {
              "pitch": 24,
              "velocity": 80,
              "position": 8.75,
              "duration": 0.09375
            },
            {
              "pitch": 31,
              "velocity": 98,
              "position": 9,
              "duration": 0.9895833333333334
            },
            {
              "pitch": 24,
              "velocity": 98,
              "position": 10,
              "duration": 0.2604166666666667
            },
            {
              "pitch": 24,
              "velocity": 80,
              "position": 10.75,
              "duration": 0.09375
            },
            {
              "pitch": 31,
              "velocity": 98,
              "position": 11,
              "duration": 0.9895833333333334
            },
            {
              "pitch": 24,
              "velocity": 98,
              "position": 12,
              "duration": 0.2604166666666667
            },
            {
              "pitch": 24,
              "velocity": 80,
              "position": 12.75,
              "duration": 0.09375
            },
            {
              "pitch": 31,
              "velocity": 98,
              "position": 13,
              "duration": 0.9895833333333334
            },
            {
              "pitch": 24,
              "velocity": 98,
              "position": 14,
              "duration": 0.2604166666666667
            },
            {
              "pitch": 24,
              "velocity": 80,
              "position": 14.75,
              "duration": 0.09375
            },
            {
              "pitch": 31,
              "velocity": 98,
              "position": 15,
              "duration": 0.15625
            },
            {
              "pitch": 31,
              "velocity": 98,
              "position": 15.25,
              "duration": 0.4583333333333333
            },
            {
              "pitch": 31,
              "velocity": 98,
              "position": 15.75,
              "duration": 0.15625
            }
          ]
        },
        "11": {
          "ctab": {
            "srcChannel": 11,
            "name": "NGt",
            "accType": "CHORD1",
            "editable": false,
            "mutedNotes": [],
            "mutedChords": [],
            "autoStart": false,
            "sourceChordNote": 0,
            "sourceChordType": "Maj7",
            "ctb2Low": null,
            "ctb2Main": {
              "ntr": "ROOT_FIXED",
              "ntt": "CHORD",
              "bassOn": false,
              "chordRootUpperLimit": 7,
              "noteLowLimit": 0,
              "noteHighLimit": 127,
              "rtr": "PITCH_SHIFT"
            },
            "ctb2High": null
          },
          "notes": [
            {
              "pitch": 59,
              "velocity": 65,
              "position": 0,
              "duration": 0.09375
            },
            {
              "pitch": 64,
              "velocity": 67,
              "position": 0,
              "duration": 0.10416666666666667
            },
            {
              "pitch": 55,
              "velocity": 69,
              "position": 0,
              "duration": 0.11458333333333333
            },
            {
              "pitch": 55,
              "velocity": 80,
              "position": 0.5,
              "duration": 0.59375
            },
            {
              "pitch": 64,
              "velocity": 91,
              "position": 0.5,
              "duration": 0.59375
            },
            {
              "pitch": 59,
              "velocity": 78,
              "position": 0.5,
              "duration": 0.6041666666666666
            },
            {
              "pitch": 55,
              "velocity": 43,
              "position": 1.25,
              "duration": 0.10416666666666667
            },
            {
              "pitch": 64,
              "velocity": 52,
              "position": 1.25,
              "duration": 0.10416666666666667
            },
            {
              "pitch": 59,
              "velocity": 55,
              "position": 1.25,
              "duration": 0.11458333333333333
            },
            {
              "pitch": 59,
              "velocity": 63,
              "position": 1.75,
              "duration": 0.09375
            },
            {
              "pitch": 55,
              "velocity": 70,
              "position": 1.75,
              "duration": 0.10416666666666667
            },
            {
              "pitch": 64,
              "velocity": 61,
              "position": 1.75,
              "duration": 0.11458333333333333
            },
            {
              "pitch": 59,
              "velocity": 88,
              "position": 2.25,
              "duration": 0.59375
            },
            {
              "pitch": 64,
              "velocity": 88,
              "position": 2.25,
              "duration": 0.59375
            },
            {
              "pitch": 55,
              "velocity": 77,
              "position": 2.25,
              "duration": 0.6041666666666666
            },
            {
              "pitch": 55,
              "velocity": 65,
              "position": 3,
              "duration": 0.3854166666666667
            },
            {
              "pitch": 59,
              "velocity": 69,
              "position": 3,
              "duration": 0.3958333333333333
            },
            {
              "pitch": 64,
              "velocity": 64,
              "position": 3,
              "duration": 0.3958333333333333
            },
            {
              "pitch": 55,
              "velocity": 72,
              "position": 3.5,
              "duration": 0.125
            },
            {
              "pitch": 59,
              "velocity": 61,
              "position": 3.5,
              "duration": 0.125
            },
            {
              "pitch": 64,
              "velocity": 73,
              "position": 3.5,
              "duration": 0.125
            },
            {
              "pitch": 55,
              "velocity": 71,
              "position": 4,
              "duration": 0.10416666666666667
            },
            {
              "pitch": 59,
              "velocity": 65,
              "position": 4,
              "duration": 0.10416666666666667
            },
            {
              "pitch": 64,
              "velocity": 71,
              "position": 4,
              "duration": 0.10416666666666667
            },
            {
              "pitch": 64,
              "velocity": 80,
              "position": 4.5,
              "duration": 0.59375
            },
            {
              "pitch": 55,
              "velocity": 81,
              "position": 4.5,
              "duration": 0.6041666666666666
            },
            {
              "pitch": 59,
              "velocity": 87,
              "position": 4.5,
              "duration": 0.6041666666666666
            },
            {
              "pitch": 59,
              "velocity": 51,
              "position": 5.25,
              "duration": 0.09375
            },
            {
              "pitch": 64,
              "velocity": 57,
              "position": 5.25,
              "duration": 0.09375
            },
            {
              "pitch": 55,
              "velocity": 45,
              "position": 5.25,
              "duration": 0.10416666666666667
            },
            {
              "pitch": 59,
              "velocity": 67,
              "position": 5.75,
              "duration": 0.09375
            },
            {
              "pitch": 55,
              "velocity": 70,
              "position": 5.75,
              "duration": 0.10416666666666667
            },
            {
              "pitch": 64,
              "velocity": 73,
              "position": 5.75,
              "duration": 0.10416666666666667
            },
            {
              "pitch": 55,
              "velocity": 83,
              "position": 6.25,
              "duration": 0.6041666666666666
            },
            {
              "pitch": 59,
              "velocity": 85,
              "position": 6.25,
              "duration": 0.6041666666666666
            },
            {
              "pitch": 64,
              "velocity": 83,
              "position": 6.25,
              "duration": 0.6041666666666666
            },
            {
              "pitch": 55,
              "velocity": 65,
              "position": 7,
              "duration": 0.3854166666666667
            },
            {
              "pitch": 64,
              "velocity": 77,
              "position": 7,
              "duration": 0.3854166666666667
            },
            {
              "pitch": 59,
              "velocity": 64,
              "position": 7,
              "duration": 0.3958333333333333
            },
            {
              "pitch": 55,
              "velocity": 63,
              "position": 7.5,
              "duration": 0.125
            },
            {
              "pitch": 59,
              "velocity": 66,
              "position": 7.5,
              "duration": 0.125
            },
            {
              "pitch": 64,
              "velocity": 63,
              "position": 7.5,
              "duration": 0.125
            },
            {
              "pitch": 59,
              "velocity": 72,
              "position": 8,
              "duration": 0.09375
            },
            {
              "pitch": 55,
              "velocity": 73,
              "position": 8,
              "duration": 0.10416666666666667
            },
            {
              "pitch": 64,
              "velocity": 69,
              "position": 8,
              "duration": 0.11458333333333333
            },
            {
              "pitch": 59,
              "velocity": 78,
              "position": 8.5,
              "duration": 0.59375
            },
            {
              "pitch": 55,
              "velocity": 85,
              "position": 8.5,
              "duration": 0.6041666666666666
            },
            {
              "pitch": 64,
              "velocity": 78,
              "position": 8.5,
              "duration": 0.6041666666666666
            },
            {
              "pitch": 55,
              "velocity": 55,
              "position": 9.25,
              "duration": 0.10416666666666667
            },
            {
              "pitch": 64,
              "velocity": 58,
              "position": 9.25,
              "duration": 0.10416666666666667
            },
            {
              "pitch": 59,
              "velocity": 44,
              "position": 9.25,
              "duration": 0.11458333333333333
            },
            {
              "pitch": 55,
              "velocity": 64,
              "position": 9.75,
              "duration": 0.09375
            },
            {
              "pitch": 64,
              "velocity": 76,
              "position": 9.75,
              "duration": 0.09375
            },
            {
              "pitch": 59,
              "velocity": 74,
              "position": 9.75,
              "duration": 0.10416666666666667
            },
            {
              "pitch": 55,
              "velocity": 79,
              "position": 10.25,
              "duration": 0.59375
            },
            {
              "pitch": 64,
              "velocity": 93,
              "position": 10.25,
              "duration": 0.59375
            },
            {
              "pitch": 59,
              "velocity": 79,
              "position": 10.25,
              "duration": 0.6041666666666666
            },
            {
              "pitch": 55,
              "velocity": 65,
              "position": 11,
              "duration": 0.3854166666666667
            },
            {
              "pitch": 59,
              "velocity": 75,
              "position": 11,
              "duration": 0.3958333333333333
            },
            {
              "pitch": 64,
              "velocity": 74,
              "position": 11,
              "duration": 0.3958333333333333
            },
            {
              "pitch": 55,
              "velocity": 62,
              "position": 11.5,
              "duration": 0.11458333333333333
            },
            {
              "pitch": 59,
              "velocity": 70,
              "position": 11.5,
              "duration": 0.11458333333333333
            },
            {
              "pitch": 64,
              "velocity": 61,
              "position": 11.5,
              "duration": 0.125
            },
            {
              "pitch": 55,
              "velocity": 65,
              "position": 12,
              "duration": 0.10416666666666667
            },
            {
              "pitch": 59,
              "velocity": 63,
              "position": 12,
              "duration": 0.10416666666666667
            },
            {
              "pitch": 64,
              "velocity": 67,
              "position": 12,
              "duration": 0.11458333333333333
            },
            {
              "pitch": 55,
              "velocity": 88,
              "position": 12.5,
              "duration": 0.59375
            },
            {
              "pitch": 59,
              "velocity": 85,
              "position": 12.5,
              "duration": 0.59375
            },
            {
              "pitch": 64,
              "velocity": 79,
              "position": 12.5,
              "duration": 0.6041666666666666
            },
            {
              "pitch": 55,
              "velocity": 50,
              "position": 13.25,
              "duration": 0.10416666666666667
            },
            {
              "pitch": 59,
              "velocity": 57,
              "position": 13.25,
              "duration": 0.10416666666666667
            },
            {
              "pitch": 64,
              "velocity": 52,
              "position": 13.25,
              "duration": 0.10416666666666667
            },
            {
              "pitch": 55,
              "velocity": 63,
              "position": 13.75,
              "duration": 0.09375
            },
            {
              "pitch": 59,
              "velocity": 71,
              "position": 13.75,
              "duration": 0.10416666666666667
            },
            {
              "pitch": 64,
              "velocity": 68,
              "position": 13.75,
              "duration": 0.10416666666666667
            },
            {
              "pitch": 55,
              "velocity": 83,
              "position": 14.25,
              "duration": 0.59375
            },
            {
              "pitch": 59,
              "velocity": 78,
              "position": 14.25,
              "duration": 0.59375
            },
            {
              "pitch": 64,
              "velocity": 82,
              "position": 14.25,
              "duration": 0.6041666666666666
            },
            {
              "pitch": 55,
              "velocity": 70,
              "position": 15,
              "duration": 0.3854166666666667
            },
            {
              "pitch": 64,
              "velocity": 77,
              "position": 15,
              "duration": 0.3854166666666667
            },
            {
              "pitch": 59,
              "velocity": 77,
              "position": 15,
              "duration": 0.3958333333333333
            },
            {
              "pitch": 55,
              "velocity": 63,
              "position": 15.5,
              "duration": 0.11458333333333333
            },
            {
              "pitch": 59,
              "velocity": 61,
              "position": 15.5,
              "duration": 0.11458333333333333
            },
            {
              "pitch": 64,
              "velocity": 67,
              "position": 15.5,
              "duration": 0.125
            }
          ]
        },
        "12": {
          "ctab": {
            "srcChannel": 12,
            "name": "Pno",
            "accType": "CHORD2",
            "editable": false,
            "mutedNotes": [],
            "mutedChords": [],
            "autoStart": false,
            "sourceChordNote": 0,
            "sourceChordType": "Maj7",
            "ctb2Low": null,
            "ctb2Main": {
              "ntr": "ROOT_FIXED",
              "ntt": "CHORD",
              "bassOn": false,
              "chordRootUpperLimit": 7,
              "noteLowLimit": 0,
              "noteHighLimit": 127,
              "rtr": "PITCH_SHIFT"
            },
            "ctb2High": null
          },
          "notes": [
            {
              "pitch": 59,
              "velocity": 73,
              "position": 0,
              "duration": 0.08333333333333333
            },
            {
              "pitch": 55,
              "velocity": 65,
              "position": 0,
              "duration": 0.13541666666666666
            },
            {
              "pitch": 64,
              "velocity": 74,
              "position": 0,
              "duration": 0.13541666666666666
            },
            {
              "pitch": 59,
              "velocity": 51,
              "position": 1,
              "duration": 0.5416666666666666
            },
            {
              "pitch": 64,
              "velocity": 52,
              "position": 1,
              "duration": 0.5625
            },
            {
              "pitch": 55,
              "velocity": 47,
              "position": 1,
              "duration": 0.5729166666666666
            },
            {
              "pitch": 64,
              "velocity": 74,
              "position": 1.75,
              "duration": 1.8541666666666667
            },
            {
              "pitch": 59,
              "velocity": 65,
              "position": 1.75,
              "duration": 1.8958333333333333
            },
            {
              "pitch": 55,
              "velocity": 70,
              "position": 1.75,
              "duration": 1.9166666666666667
            },
            {
              "pitch": 64,
              "velocity": 66,
              "position": 4,
              "duration": 0.07291666666666667
            },
            {
              "pitch": 59,
              "velocity": 77,
              "position": 4,
              "duration": 0.08333333333333333
            },
            {
              "pitch": 55,
              "velocity": 72,
              "position": 4,
              "duration": 0.125
            },
            {
              "pitch": 59,
              "velocity": 50,
              "position": 4.5,
              "duration": 0.10416666666666667
            },
            {
              "pitch": 55,
              "velocity": 53,
              "position": 4.5,
              "duration": 0.11458333333333333
            },
            {
              "pitch": 64,
              "velocity": 48,
              "position": 4.5,
              "duration": 0.11458333333333333
            },
            {
              "pitch": 55,
              "velocity": 66,
              "position": 5,
              "duration": 0.5416666666666666
            },
            {
              "pitch": 64,
              "velocity": 69,
              "position": 5,
              "duration": 0.5520833333333334
            },
            {
              "pitch": 59,
              "velocity": 70,
              "position": 5,
              "duration": 0.5625
            },
            {
              "pitch": 55,
              "velocity": 66,
              "position": 5.75,
              "duration": 1.3958333333333333
            },
            {
              "pitch": 64,
              "velocity": 75,
              "position": 5.75,
              "duration": 1.96875
            },
            {
              "pitch": 59,
              "velocity": 66,
              "position": 5.75,
              "duration": 2.03125
            },
            {
              "pitch": 55,
              "velocity": 46,
              "position": 7.25,
              "duration": 0.6770833333333334
            },
            {
              "pitch": 59,
              "velocity": 65,
              "position": 8,
              "duration": 0.09375
            },
            {
              "pitch": 55,
              "velocity": 63,
              "position": 8,
              "duration": 0.125
            },
            {
              "pitch": 64,
              "velocity": 69,
              "position": 8,
              "duration": 0.125
            },
            {
              "pitch": 59,
              "velocity": 55,
              "position": 9,
              "duration": 0.5520833333333334
            },
            {
              "pitch": 64,
              "velocity": 47,
              "position": 9,
              "duration": 0.5520833333333334
            },
            {
              "pitch": 55,
              "velocity": 47,
              "position": 9,
              "duration": 0.5625
            },
            {
              "pitch": 64,
              "velocity": 63,
              "position": 9.75,
              "duration": 1.84375
            },
            {
              "pitch": 59,
              "velocity": 72,
              "position": 9.75,
              "duration": 1.8958333333333333
            },
            {
              "pitch": 55,
              "velocity": 67,
              "position": 9.75,
              "duration": 1.90625
            },
            {
              "pitch": 55,
              "velocity": 77,
              "position": 12,
              "duration": 0.08333333333333333
            },
            {
              "pitch": 59,
              "velocity": 69,
              "position": 12,
              "duration": 0.125
            },
            {
              "pitch": 64,
              "velocity": 72,
              "position": 12,
              "duration": 0.125
            },
            {
              "pitch": 55,
              "velocity": 48,
              "position": 13,
              "duration": 0.53125
            },
            {
              "pitch": 59,
              "velocity": 59,
              "position": 13,
              "duration": 0.5625
            },
            {
              "pitch": 64,
              "velocity": 60,
              "position": 13,
              "duration": 0.5625
            },
            {
              "pitch": 59,
              "velocity": 65,
              "position": 13.75,
              "duration": 0.4791666666666667
            },
            {
              "pitch": 64,
              "velocity": 73,
              "position": 13.75,
              "duration": 0.4895833333333333
            },
            {
              "pitch": 55,
              "velocity": 64,
              "position": 13.75,
              "duration": 0.65625
            },
            {
              "pitch": 59,
              "velocity": 46,
              "position": 14.75,
              "duration": 0.10416666666666667
            },
            {
              "pitch": 55,
              "velocity": 54,
              "position": 14.75,
              "duration": 0.125
            },
            {
              "pitch": 64,
              "velocity": 59,
              "position": 14.75,
              "duration": 0.15625
            },
            {
              "pitch": 59,
              "velocity": 71,
              "position": 15.25,
              "duration": 0.59375
            },
            {
              "pitch": 64,
              "velocity": 69,
              "position": 15.25,
              "duration": 0.6041666666666666
            },
            {
              "pitch": 55,
              "velocity": 70,
              "position": 15.25,
              "duration": 0.6458333333333334
            }
          ]
        },
        "13": {
          "ctab": {
            "srcChannel": 13,
            "name": "Str",
            "accType": "PAD",
            "editable": false,
            "mutedNotes": [],
            "mutedChords": [],
            "autoStart": false,
            "sourceChordNote": 0,
            "sourceChordType": "Maj7",
            "ctb2Low": null,
            "ctb2Main": {
              "ntr": "ROOT_FIXED",
              "ntt": "CHORD",
              "bassOn": false,
              "chordRootUpperLimit": 7,
              "noteLowLimit": 0,
              "noteHighLimit": 127,
              "rtr": "PITCH_SHIFT"
            },
            "ctb2High": null
          },
          "notes": [
            {
              "pitch": 55,
              "velocity": 46,
              "position": 0,
              "duration": 15.989583333333334
            },
            {
              "pitch": 59,
              "velocity": 46,
              "position": 0,
              "duration": 15.989583333333334
            },
            {
              "pitch": 64,
              "velocity": 46,
              "position": 0,
              "duration": 15.989583333333334
            }
          ]
        }
      }
    },
    "Main_C": {
      "type": "Main_C",
      "sizeInBeats": 16,
      "channels": {
        "2": {
          "ctab": {
            "srcChannel": 2,
            "name": "NGt Root",
            "accType": "CHORD1",
            "editable": false,
            "mutedNotes": [],
            "mutedChords": [
              "1+2+5",
              "sus4",
              "1+5",
              "1+8",
              "Maj7aug",
              "dim",
              "minMaj7(9)",
              "minMaj7",
              "min6",
              "min",
              "aug",
              "Maj7(9)",
              "Maj7#11",
              "Maj7",
              "Maj6",
              "Maj"
            ],
            "autoStart": false,
            "sourceChordNote": 0,
            "sourceChordType": "Maj7",
            "ctb2Low": null,
            "ctb2Main": {
              "ntr": "ROOT_TRANSPOSITION",
              "ntt": "CHORD",
              "bassOn": false,
              "chordRootUpperLimit": 6,
              "noteLowLimit": 0,
              "noteHighLimit": 127,
              "rtr": "PITCH_SHIFT"
            },
            "ctb2High": null
          },
          "notes": [
            {
              "pitch": 60,
              "velocity": 88,
              "position": 0.25,
              "duration": 0.59375
            },
            {
              "pitch": 60,
              "velocity": 84,
              "position": 1,
              "duration": 0.10416666666666667
            },
            {
              "pitch": 60,
              "velocity": 61,
              "position": 1.5,
              "duration": 0.10416666666666667
            },
            {
              "pitch": 60,
              "velocity": 65,
              "position": 2,
              "duration": 0.10416666666666667
            },
            {
              "pitch": 60,
              "velocity": 87,
              "position": 2.5,
              "duration": 0.6041666666666666
            },
            {
              "pitch": 60,
              "velocity": 51,
              "position": 3.25,
              "duration": 0.09375
            },
            {
              "pitch": 60,
              "velocity": 67,
              "position": 3.75,
              "duration": 0.09375
            },
            {
              "pitch": 60,
              "velocity": 85,
              "position": 4.25,
              "duration": 0.6041666666666666
            },
            {
              "pitch": 60,
              "velocity": 78,
              "position": 5,
              "duration": 0.10416666666666667
            },
            {
              "pitch": 60,
              "velocity": 66,
              "position": 5.5,
              "duration": 0.10416666666666667
            },
            {
              "pitch": 60,
              "velocity": 72,
              "position": 6,
              "duration": 0.09375
            },
            {
              "pitch": 60,
              "velocity": 78,
              "position": 6.5,
              "duration": 0.59375
            },
            {
              "pitch": 60,
              "velocity": 44,
              "position": 7.25,
              "duration": 0.11458333333333333
            },
            {
              "pitch": 60,
              "velocity": 74,
              "position": 7.75,
              "duration": 0.10416666666666667
            },
            {
              "pitch": 60,
              "velocity": 79,
              "position": 8.25,
              "duration": 0.6041666666666666
            },
            {
              "pitch": 60,
              "velocity": 91,
              "position": 9,
              "duration": 0.10416666666666667
            },
            {
              "pitch": 60,
              "velocity": 70,
              "position": 9.5,
              "duration": 0.09375
            },
            {
              "pitch": 60,
              "velocity": 63,
              "position": 10,
              "duration": 0.10416666666666667
            },
            {
              "pitch": 60,
              "velocity": 85,
              "position": 10.5,
              "duration": 0.59375
            },
            {
              "pitch": 60,
              "velocity": 57,
              "position": 11.25,
              "duration": 0.10416666666666667
            },
            {
              "pitch": 60,
              "velocity": 71,
              "position": 11.75,
              "duration": 0.10416666666666667
            },
            {
              "pitch": 60,
              "velocity": 78,
              "position": 12.25,
              "duration": 0.59375
            },
            {
              "pitch": 60,
              "velocity": 93,
              "position": 13,
              "duration": 0.10416666666666667
            },
            {
              "pitch": 60,
              "velocity": 61,
              "position": 13.5,
              "duration": 0.10416666666666667
            },
            {
              "pitch": 60,
              "velocity": 65,
              "position": 14,
              "duration": 0.09375
            },
            {
              "pitch": 60,
              "velocity": 78,
              "position": 14.5,
              "duration": 0.6041666666666666
            },
            {
              "pitch": 60,
              "velocity": 55,
              "position": 15.25,
              "duration": 0.11458333333333333
            },
            {
              "pitch": 60,
              "velocity": 63,
              "position": 15.75,
              "duration": 0.09375
            }
          ]
        },
        "4": {
          "ctab": {
            "srcChannel": 4,
            "name": "Str Root",
            "accType": "PAD",
            "editable": false,
            "mutedNotes": [],
            "mutedChords": [
              "1+2+5",
              "sus4",
              "1+5",
              "1+8",
              "Maj7aug",
              "dim",
              "minMaj7(9)",
              "minMaj7",
              "min6",
              "min",
              "aug",
              "Maj7(9)",
              "Maj7#11",
              "Maj7",
              "Maj6",
              "Maj"
            ],
            "autoStart": false,
            "sourceChordNote": 0,
            "sourceChordType": "Maj7",
            "ctb2Low": null,
            "ctb2Main": {
              "ntr": "ROOT_TRANSPOSITION",
              "ntt": "CHORD",
              "bassOn": false,
              "chordRootUpperLimit": 6,
              "noteLowLimit": 0,
              "noteHighLimit": 127,
              "rtr": "PITCH_SHIFT"
            },
            "ctb2High": null
          },
          "notes": [
            {
              "pitch": 60,
              "velocity": 46,
              "position": 0,
              "duration": 15.989583333333334
            }
          ]
        },
        "7": {
          "ctab": {
            "srcChannel": 7,
            "name": "CC_Crash",
            "accType": "RHYTHM",
            "editable": false,
            "mutedNotes": [],
            "mutedChords": [
              "1+2+5",
              "sus4",
              "1+5",
              "1+8",
              "7aug",
              "Maj7aug",
              "7(#9)",
              "7(b13)",
              "7(b9)",
              "7(13)",
              "7#11",
              "7(9)",
              "7b5",
              "7sus4",
              "7th",
              "dim7",
              "dim",
              "minMaj7(9)",
              "minMaj7",
              "min7(11)",
              "min7(9)",
              "min(9)",
              "m7b5",
              "min7",
              "min6",
              "min",
              "aug",
              "Maj6(9)",
              "Maj7(9)",
              "Maj(9)",
              "Maj7#11",
              "Maj7",
              "Maj6",
              "Maj"
            ],
            "autoStart": true,
            "sourceChordNote": 0,
            "sourceChordType": "Maj",
            "ctb2Low": null,
            "ctb2Main": {
              "ntr": "ROOT_FIXED",
              "ntt": "BYPASS",
              "bassOn": false,
              "chordRootUpperLimit": 0,
              "noteLowLimit": 0,
              "noteHighLimit": 127,
              "rtr": "RETRIGGER"
            },
            "ctb2High": null
          },
          "notes": []
        },
        "8": {
          "ctab": {
            "srcChannel": 8,
            "name": "Perc",
            "accType": "SUBRHYTHM",
            "editable": false,
            "mutedNotes": [],
            "mutedChords": [],
            "autoStart": true,
            "sourceChordNote": 0,
            "sourceChordType": "Maj7",
            "ctb2Low": null,
            "ctb2Main": {
              "ntr": "ROOT_FIXED",
              "ntt": "BYPASS",
              "bassOn": false,
              "chordRootUpperLimit": 6,
              "noteLowLimit": 0,
              "noteHighLimit": 127,
              "rtr": "PITCH_SHIFT"
            },
            "ctb2High": null
          },
          "notes": [
            {
              "pitch": 80,
              "velocity": 40,
              "position": 0,
              "duration": 0.010416666666666666
            },
            {
              "pitch": 82,
              "velocity": 46,
              "position": 0,
              "duration": 0.010416666666666666
            },
            {
              "pitch": 67,
              "velocity": 44,
              "position": 0.2604166666666667,
              "duration": 0.010416666666666666
            },
            {
              "pitch": 81,
              "velocity": 40,
              "position": 0.2604166666666667,
              "duration": 0.010416666666666666
            },
            {
              "pitch": 82,
              "velocity": 29,
              "position": 0.2604166666666667,
              "duration": 0.010416666666666666
            },
            {
              "pitch": 81,
              "velocity": 10,
              "position": 0.4895833333333333,
              "duration": 0.010416666666666666
            },
            {
              "pitch": 82,
              "velocity": 46,
              "position": 0.4895833333333333,
              "duration": 0.010416666666666666
            },
            {
              "pitch": 80,
              "velocity": 20,
              "position": 0.7395833333333334,
              "duration": 0.010416666666666666
            },
            {
              "pitch": 82,
              "velocity": 63,
              "position": 0.7395833333333334,
              "duration": 0.010416666666666666
            },
            {
              "pitch": 68,
              "velocity": 28,
              "position": 0.9895833333333334,
              "duration": 0.010416666666666666
            },
            {
              "pitch": 80,
              "velocity": 40,
              "position": 0.9895833333333334,
              "duration": 0.010416666666666666
            },
            {
              "pitch": 82,
              "velocity": 46,
              "position": 0.9895833333333334,
              "duration": 0.010416666666666666
            },
            {
              "pitch": 81,
              "velocity": 40,
              "position": 1.2604166666666667,
              "duration": 0.010416666666666666
            },
            {
              "pitch": 82,
              "velocity": 29,
              "position": 1.2604166666666667,
              "duration": 0.010416666666666666
            },
            {
              "pitch": 68,
              "velocity": 44,
              "position": 1.4895833333333333,
              "duration": 0.010416666666666666
            },
            {
              "pitch": 81,
              "velocity": 10,
              "position": 1.4895833333333333,
              "duration": 0.010416666666666666
            },
            {
              "pitch": 82,
              "velocity": 46,
              "position": 1.4895833333333333,
              "duration": 0.010416666666666666
            },
            {
              "pitch": 80,
              "velocity": 20,
              "position": 1.7395833333333333,
              "duration": 0.010416666666666666
            },
            {
              "pitch": 82,
              "velocity": 63,
              "position": 1.7395833333333333,
              "duration": 0.010416666666666666
            },
            {
              "pitch": 68,
              "velocity": 44,
              "position": 1.9895833333333333,
              "duration": 0.010416666666666666
            },
            {
              "pitch": 80,
              "velocity": 40,
              "position": 1.9895833333333333,
              "duration": 0.010416666666666666
            },
            {
              "pitch": 82,
              "velocity": 46,
              "position": 1.9895833333333333,
              "duration": 0.010416666666666666
            },
            {
              "pitch": 81,
              "velocity": 40,
              "position": 2.2604166666666665,
              "duration": 0.010416666666666666
            },
            {
              "pitch": 82,
              "velocity": 29,
              "position": 2.2604166666666665,
              "duration": 0.010416666666666666
            },
            {
              "pitch": 67,
              "velocity": 44,
              "position": 2.4895833333333335,
              "duration": 0.010416666666666666
            },
            {
              "pitch": 81,
              "velocity": 10,
              "position": 2.4895833333333335,
              "duration": 0.010416666666666666
            },
            {
              "pitch": 82,
              "velocity": 46,
              "position": 2.4895833333333335,
              "duration": 0.010416666666666666
            },
            {
              "pitch": 80,
              "velocity": 20,
              "position": 2.7395833333333335,
              "duration": 0.010416666666666666
            },
            {
              "pitch": 82,
              "velocity": 63,
              "position": 2.7395833333333335,
              "duration": 0.010416666666666666
            },
            {
              "pitch": 80,
              "velocity": 40,
              "position": 2.9895833333333335,
              "duration": 0.010416666666666666
            },
            {
              "pitch": 82,
              "velocity": 46,
              "position": 2.9895833333333335,
              "duration": 0.010416666666666666
            },
            {
              "pitch": 68,
              "velocity": 33,
              "position": 3.2604166666666665,
              "duration": 0.010416666666666666
            },
            {
              "pitch": 81,
              "velocity": 40,
              "position": 3.2604166666666665,
              "duration": 0.010416666666666666
            },
            {
              "pitch": 82,
              "velocity": 29,
              "position": 3.2604166666666665,
              "duration": 0.010416666666666666
            },
            {
              "pitch": 81,
              "velocity": 10,
              "position": 3.4895833333333335,
              "duration": 0.010416666666666666
            },
            {
              "pitch": 82,
              "velocity": 46,
              "position": 3.4895833333333335,
              "duration": 0.010416666666666666
            },
            {
              "pitch": 68,
              "velocity": 44,
              "position": 3.7395833333333335,
              "duration": 0.010416666666666666
            },
            {
              "pitch": 80,
              "velocity": 20,
              "position": 3.7395833333333335,
              "duration": 0.010416666666666666
            },
            {
              "pitch": 82,
              "velocity": 63,
              "position": 3.7395833333333335,
              "duration": 0.010416666666666666
            },
            {
              "pitch": 80,
              "velocity": 40,
              "position": 4,
              "duration": 0.010416666666666666
            },
            {
              "pitch": 82,
              "velocity": 46,
              "position": 4,
              "duration": 0.010416666666666666
            },
            {
              "pitch": 67,
              "velocity": 44,
              "position": 4.260416666666667,
              "duration": 0.010416666666666666
            },
            {
              "pitch": 81,
              "velocity": 40,
              "position": 4.260416666666667,
              "duration": 0.010416666666666666
            },
            {
              "pitch": 82,
              "velocity": 29,
              "position": 4.260416666666667,
              "duration": 0.010416666666666666
            },
            {
              "pitch": 81,
              "velocity": 10,
              "position": 4.489583333333333,
              "duration": 0.010416666666666666
            },
            {
              "pitch": 82,
              "velocity": 46,
              "position": 4.489583333333333,
              "duration": 0.010416666666666666
            },
            {
              "pitch": 80,
              "velocity": 20,
              "position": 4.739583333333333,
              "duration": 0.010416666666666666
            },
            {
              "pitch": 82,
              "velocity": 63,
              "position": 4.739583333333333,
              "duration": 0.010416666666666666
            },
            {
              "pitch": 68,
              "velocity": 37,
              "position": 4.989583333333333,
              "duration": 0.010416666666666666
            },
            {
              "pitch": 80,
              "velocity": 40,
              "position": 4.989583333333333,
              "duration": 0.010416666666666666
            },
            {
              "pitch": 82,
              "velocity": 46,
              "position": 4.989583333333333,
              "duration": 0.010416666666666666
            },
            {
              "pitch": 81,
              "velocity": 40,
              "position": 5.260416666666667,
              "duration": 0.010416666666666666
            },
            {
              "pitch": 82,
              "velocity": 29,
              "position": 5.260416666666667,
              "duration": 0.010416666666666666
            },
            {
              "pitch": 68,
              "velocity": 33,
              "position": 5.489583333333333,
              "duration": 0.010416666666666666
            },
            {
              "pitch": 81,
              "velocity": 10,
              "position": 5.489583333333333,
              "duration": 0.010416666666666666
            },
            {
              "pitch": 82,
              "velocity": 46,
              "position": 5.489583333333333,
              "duration": 0.010416666666666666
            },
            {
              "pitch": 80,
              "velocity": 20,
              "position": 5.739583333333333,
              "duration": 0.010416666666666666
            },
            {
              "pitch": 82,
              "velocity": 63,
              "position": 5.739583333333333,
              "duration": 0.010416666666666666
            },
            {
              "pitch": 68,
              "velocity": 44,
              "position": 5.989583333333333,
              "duration": 0.010416666666666666
            },
            {
              "pitch": 80,
              "velocity": 40,
              "position": 5.989583333333333,
              "duration": 0.010416666666666666
            },
            {
              "pitch": 82,
              "velocity": 46,
              "position": 5.989583333333333,
              "duration": 0.010416666666666666
            },
            {
              "pitch": 81,
              "velocity": 40,
              "position": 6.260416666666667,
              "duration": 0.010416666666666666
            },
            {
              "pitch": 82,
              "velocity": 29,
              "position": 6.260416666666667,
              "duration": 0.010416666666666666
            },
            {
              "pitch": 67,
              "velocity": 44,
              "position": 6.489583333333333,
              "duration": 0.010416666666666666
            },
            {
              "pitch": 81,
              "velocity": 10,
              "position": 6.489583333333333,
              "duration": 0.010416666666666666
            },
            {
              "pitch": 82,
              "velocity": 46,
              "position": 6.489583333333333,
              "duration": 0.010416666666666666
            },
            {
              "pitch": 80,
              "velocity": 20,
              "position": 6.739583333333333,
              "duration": 0.010416666666666666
            },
            {
              "pitch": 82,
              "velocity": 63,
              "position": 6.739583333333333,
              "duration": 0.010416666666666666
            },
            {
              "pitch": 80,
              "velocity": 40,
              "position": 6.989583333333333,
              "duration": 0.010416666666666666
            },
            {
              "pitch": 82,
              "velocity": 46,
              "position": 6.989583333333333,
              "duration": 0.010416666666666666
            },
            {
              "pitch": 68,
              "velocity": 33,
              "position": 7.260416666666667,
              "duration": 0.010416666666666666
            },
            {
              "pitch": 81,
              "velocity": 40,
              "position": 7.260416666666667,
              "duration": 0.010416666666666666
            },
            {
              "pitch": 82,
              "velocity": 29,
              "position": 7.260416666666667,
              "duration": 0.010416666666666666
            },
            {
              "pitch": 81,
              "velocity": 10,
              "position": 7.489583333333333,
              "duration": 0.010416666666666666
            },
            {
              "pitch": 82,
              "velocity": 46,
              "position": 7.489583333333333,
              "duration": 0.010416666666666666
            },
            {
              "pitch": 68,
              "velocity": 38,
              "position": 7.739583333333333,
              "duration": 0.010416666666666666
            },
            {
              "pitch": 80,
              "velocity": 20,
              "position": 7.739583333333333,
              "duration": 0.010416666666666666
            },
            {
              "pitch": 82,
              "velocity": 63,
              "position": 7.739583333333333,
              "duration": 0.010416666666666666
            },
            {
              "pitch": 80,
              "velocity": 40,
              "position": 8,
              "duration": 0.010416666666666666
            },
            {
              "pitch": 82,
              "velocity": 46,
              "position": 8,
              "duration": 0.010416666666666666
            },
            {
              "pitch": 67,
              "velocity": 44,
              "position": 8.260416666666666,
              "duration": 0.010416666666666666
            },
            {
              "pitch": 81,
              "velocity": 40,
              "position": 8.260416666666666,
              "duration": 0.010416666666666666
            },
            {
              "pitch": 82,
              "velocity": 29,
              "position": 8.260416666666666,
              "duration": 0.010416666666666666
            },
            {
              "pitch": 81,
              "velocity": 10,
              "position": 8.489583333333334,
              "duration": 0.010416666666666666
            },
            {
              "pitch": 82,
              "velocity": 46,
              "position": 8.489583333333334,
              "duration": 0.010416666666666666
            },
            {
              "pitch": 67,
              "velocity": 33,
              "position": 8.739583333333334,
              "duration": 0.010416666666666666
            },
            {
              "pitch": 80,
              "velocity": 20,
              "position": 8.739583333333334,
              "duration": 0.010416666666666666
            },
            {
              "pitch": 82,
              "velocity": 63,
              "position": 8.739583333333334,
              "duration": 0.010416666666666666
            },
            {
              "pitch": 67,
              "velocity": 33,
              "position": 8.989583333333334,
              "duration": 0.010416666666666666
            },
            {
              "pitch": 80,
              "velocity": 40,
              "position": 8.989583333333334,
              "duration": 0.010416666666666666
            },
            {
              "pitch": 82,
              "velocity": 46,
              "position": 8.989583333333334,
              "duration": 0.010416666666666666
            },
            {
              "pitch": 81,
              "velocity": 40,
              "position": 9.260416666666666,
              "duration": 0.010416666666666666
            },
            {
              "pitch": 82,
              "velocity": 29,
              "position": 9.260416666666666,
              "duration": 0.010416666666666666
            },
            {
              "pitch": 68,
              "velocity": 38,
              "position": 9.489583333333334,
              "duration": 0.010416666666666666
            },
            {
              "pitch": 81,
              "velocity": 10,
              "position": 9.489583333333334,
              "duration": 0.010416666666666666
            },
            {
              "pitch": 82,
              "velocity": 46,
              "position": 9.489583333333334,
              "duration": 0.010416666666666666
            },
            {
              "pitch": 80,
              "velocity": 20,
              "position": 9.739583333333334,
              "duration": 0.010416666666666666
            },
            {
              "pitch": 82,
              "velocity": 63,
              "position": 9.739583333333334,
              "duration": 0.010416666666666666
            },
            {
              "pitch": 68,
              "velocity": 44,
              "position": 9.989583333333334,
              "duration": 0.010416666666666666
            },
            {
              "pitch": 80,
              "velocity": 40,
              "position": 9.989583333333334,
              "duration": 0.010416666666666666
            },
            {
              "pitch": 82,
              "velocity": 46,
              "position": 9.989583333333334,
              "duration": 0.010416666666666666
            },
            {
              "pitch": 81,
              "velocity": 40,
              "position": 10.260416666666666,
              "duration": 0.010416666666666666
            },
            {
              "pitch": 82,
              "velocity": 29,
              "position": 10.260416666666666,
              "duration": 0.010416666666666666
            },
            {
              "pitch": 67,
              "velocity": 38,
              "position": 10.489583333333334,
              "duration": 0.010416666666666666
            },
            {
              "pitch": 81,
              "velocity": 10,
              "position": 10.489583333333334,
              "duration": 0.010416666666666666
            },
            {
              "pitch": 82,
              "velocity": 46,
              "position": 10.489583333333334,
              "duration": 0.010416666666666666
            },
            {
              "pitch": 80,
              "velocity": 20,
              "position": 10.739583333333334,
              "duration": 0.010416666666666666
            },
            {
              "pitch": 82,
              "velocity": 63,
              "position": 10.739583333333334,
              "duration": 0.010416666666666666
            },
            {
              "pitch": 80,
              "velocity": 40,
              "position": 10.989583333333334,
              "duration": 0.010416666666666666
            },
            {
              "pitch": 82,
              "velocity": 46,
              "position": 10.989583333333334,
              "duration": 0.010416666666666666
            },
            {
              "pitch": 68,
              "velocity": 38,
              "position": 11.260416666666666,
              "duration": 0.010416666666666666
            },
            {
              "pitch": 81,
              "velocity": 40,
              "position": 11.260416666666666,
              "duration": 0.010416666666666666
            },
            {
              "pitch": 82,
              "velocity": 29,
              "position": 11.260416666666666,
              "duration": 0.010416666666666666
            },
            {
              "pitch": 81,
              "velocity": 10,
              "position": 11.489583333333334,
              "duration": 0.010416666666666666
            },
            {
              "pitch": 82,
              "velocity": 46,
              "position": 11.489583333333334,
              "duration": 0.010416666666666666
            },
            {
              "pitch": 68,
              "velocity": 38,
              "position": 11.739583333333334,
              "duration": 0.010416666666666666
            },
            {
              "pitch": 80,
              "velocity": 20,
              "position": 11.739583333333334,
              "duration": 0.010416666666666666
            },
            {
              "pitch": 82,
              "velocity": 63,
              "position": 11.739583333333334,
              "duration": 0.010416666666666666
            },
            {
              "pitch": 80,
              "velocity": 40,
              "position": 12,
              "duration": 0.010416666666666666
            },
            {
              "pitch": 82,
              "velocity": 46,
              "position": 12,
              "duration": 0.010416666666666666
            },
            {
              "pitch": 67,
              "velocity": 50,
              "position": 12.260416666666666,
              "duration": 0.010416666666666666
            },
            {
              "pitch": 81,
              "velocity": 40,
              "position": 12.260416666666666,
              "duration": 0.010416666666666666
            },
            {
              "pitch": 82,
              "velocity": 29,
              "position": 12.260416666666666,
              "duration": 0.010416666666666666
            },
            {
              "pitch": 81,
              "velocity": 10,
              "position": 12.489583333333334,
              "duration": 0.010416666666666666
            },
            {
              "pitch": 82,
              "velocity": 46,
              "position": 12.489583333333334,
              "duration": 0.010416666666666666
            },
            {
              "pitch": 80,
              "velocity": 20,
              "position": 12.739583333333334,
              "duration": 0.010416666666666666
            },
            {
              "pitch": 82,
              "velocity": 63,
              "position": 12.739583333333334,
              "duration": 0.010416666666666666
            },
            {
              "pitch": 68,
              "velocity": 38,
              "position": 12.989583333333334,
              "duration": 0.010416666666666666
            },
            {
              "pitch": 80,
              "velocity": 40,
              "position": 12.989583333333334,
              "duration": 0.010416666666666666
            },
            {
              "pitch": 82,
              "velocity": 46,
              "position": 12.989583333333334,
              "duration": 0.010416666666666666
            },
            {
              "pitch": 81,
              "velocity": 40,
              "position": 13.260416666666666,
              "duration": 0.010416666666666666
            },
            {
              "pitch": 82,
              "velocity": 29,
              "position": 13.260416666666666,
              "duration": 0.010416666666666666
            },
            {
              "pitch": 68,
              "velocity": 37,
              "position": 13.489583333333334,
              "duration": 0.010416666666666666
            },
            {
              "pitch": 81,
              "velocity": 10,
              "position": 13.489583333333334,
              "duration": 0.010416666666666666
            },
            {
              "pitch": 82,
              "velocity": 46,
              "position": 13.489583333333334,
              "duration": 0.010416666666666666
            },
            {
              "pitch": 80,
              "velocity": 20,
              "position": 13.739583333333334,
              "duration": 0.010416666666666666
            },
            {
              "pitch": 82,
              "velocity": 63,
              "position": 13.739583333333334,
              "duration": 0.010416666666666666
            },
            {
              "pitch": 68,
              "velocity": 38,
              "position": 13.989583333333334,
              "duration": 0.010416666666666666
            },
            {
              "pitch": 80,
              "velocity": 40,
              "position": 13.989583333333334,
              "duration": 0.010416666666666666
            },
            {
              "pitch": 82,
              "velocity": 46,
              "position": 13.989583333333334,
              "duration": 0.010416666666666666
            },
            {
              "pitch": 81,
              "velocity": 40,
              "position": 14.260416666666666,
              "duration": 0.010416666666666666
            },
            {
              "pitch": 82,
              "velocity": 29,
              "position": 14.260416666666666,
              "duration": 0.010416666666666666
            },
            {
              "pitch": 67,
              "velocity": 44,
              "position": 14.489583333333334,
              "duration": 0.010416666666666666
            },
            {
              "pitch": 81,
              "velocity": 10,
              "position": 14.489583333333334,
              "duration": 0.010416666666666666
            },
            {
              "pitch": 82,
              "velocity": 46,
              "position": 14.489583333333334,
              "duration": 0.010416666666666666
            },
            {
              "pitch": 80,
              "velocity": 20,
              "position": 14.739583333333334,
              "duration": 0.010416666666666666
            },
            {
              "pitch": 82,
              "velocity": 63,
              "position": 14.739583333333334,
              "duration": 0.010416666666666666
            },
            {
              "pitch": 67,
              "velocity": 38,
              "position": 14.989583333333334,
              "duration": 0.010416666666666666
            },
            {
              "pitch": 80,
              "velocity": 40,
              "position": 14.989583333333334,
              "duration": 0.010416666666666666
            },
            {
              "pitch": 82,
              "velocity": 46,
              "position": 14.989583333333334,
              "duration": 0.010416666666666666
            },
            {
              "pitch": 68,
              "velocity": 44,
              "position": 15.260416666666666,
              "duration": 0.010416666666666666
            },
            {
              "pitch": 81,
              "velocity": 40,
              "position": 15.260416666666666,
              "duration": 0.010416666666666666
            },
            {
              "pitch": 82,
              "velocity": 29,
              "position": 15.260416666666666,
              "duration": 0.010416666666666666
            },
            {
              "pitch": 81,
              "velocity": 10,
              "position": 15.489583333333334,
              "duration": 0.010416666666666666
            },
            {
              "pitch": 82,
              "velocity": 46,
              "position": 15.489583333333334,
              "duration": 0.010416666666666666
            },
            {
              "pitch": 68,
              "velocity": 33,
              "position": 15.739583333333334,
              "duration": 0.010416666666666666
            },
            {
              "pitch": 80,
              "velocity": 20,
              "position": 15.739583333333334,
              "duration": 0.010416666666666666
            },
            {
              "pitch": 82,
              "velocity": 63,
              "position": 15.739583333333334,
              "duration": 0.010416666666666666
            }
          ]
        },
        "9": {
          "ctab": {
            "srcChannel": 9,
            "name": "Drs",
            "accType": "RHYTHM",
            "editable": false,
            "mutedNotes": [],
            "mutedChords": [],
            "autoStart": true,
            "sourceChordNote": 0,
            "sourceChordType": "Maj7",
            "ctb2Low": null,
            "ctb2Main": {
              "ntr": "ROOT_FIXED",
              "ntt": "BYPASS",
              "bassOn": false,
              "chordRootUpperLimit": 6,
              "noteLowLimit": 0,
              "noteHighLimit": 127,
              "rtr": "PITCH_SHIFT"
            },
            "ctb2High": null
          },
          "notes": [
            {
              "pitch": 35,
              "velocity": 93,
              "position": 0,
              "duration": 0.010416666666666666
            },
            {
              "pitch": 51,
              "velocity": 73,
              "position": 0.2604166666666667,
              "duration": 0.010416666666666666
            },
            {
              "pitch": 40,
              "velocity": 40,
              "position": 0.7395833333333334,
              "duration": 0.010416666666666666
            },
            {
              "pitch": 51,
              "velocity": 23,
              "position": 0.7395833333333334,
              "duration": 0.010416666666666666
            },
            {
              "pitch": 35,
              "velocity": 63,
              "position": 0.75,
              "duration": 0.010416666666666666
            },
            {
              "pitch": 43,
              "velocity": 43,
              "position": 0.9895833333333334,
              "duration": 0.010416666666666666
            },
            {
              "pitch": 51,
              "velocity": 52,
              "position": 0.9895833333333334,
              "duration": 0.010416666666666666
            },
            {
              "pitch": 35,
              "velocity": 93,
              "position": 1,
              "duration": 0.010416666666666666
            },
            {
              "pitch": 51,
              "velocity": 63,
              "position": 1.4895833333333333,
              "duration": 0.010416666666666666
            },
            {
              "pitch": 35,
              "velocity": 63,
              "position": 1.75,
              "duration": 0.010416666666666666
            },
            {
              "pitch": 51,
              "velocity": 63,
              "position": 1.9895833333333333,
              "duration": 0.010416666666666666
            },
            {
              "pitch": 35,
              "velocity": 93,
              "position": 2,
              "duration": 0.010416666666666666
            },
            {
              "pitch": 51,
              "velocity": 73,
              "position": 2.4895833333333335,
              "duration": 0.010416666666666666
            },
            {
              "pitch": 40,
              "velocity": 40,
              "position": 2.7395833333333335,
              "duration": 0.010416666666666666
            },
            {
              "pitch": 35,
              "velocity": 63,
              "position": 2.75,
              "duration": 0.010416666666666666
            },
            {
              "pitch": 43,
              "velocity": 43,
              "position": 2.9895833333333335,
              "duration": 0.010416666666666666
            },
            {
              "pitch": 51,
              "velocity": 23,
              "position": 2.9895833333333335,
              "duration": 0.010416666666666666
            },
            {
              "pitch": 35,
              "velocity": 93,
              "position": 3,
              "duration": 0.010416666666666666
            },
            {
              "pitch": 51,
              "velocity": 63,
              "position": 3.2604166666666665,
              "duration": 0.010416666666666666
            },
            {
              "pitch": 40,
              "velocity": 40,
              "position": 3.7395833333333335,
              "duration": 0.010416666666666666
            },
            {
              "pitch": 51,
              "velocity": 63,
              "position": 3.7395833333333335,
              "duration": 0.010416666666666666
            },
            {
              "pitch": 35,
              "velocity": 63,
              "position": 3.75,
              "duration": 0.010416666666666666
            },
            {
              "pitch": 35,
              "velocity": 93,
              "position": 4,
              "duration": 0.010416666666666666
            },
            {
              "pitch": 40,
              "velocity": 60,
              "position": 4.260416666666667,
              "duration": 0.010416666666666666
            },
            {
              "pitch": 51,
              "velocity": 73,
              "position": 4.260416666666667,
              "duration": 0.010416666666666666
            },
            {
              "pitch": 40,
              "velocity": 40,
              "position": 4.739583333333333,
              "duration": 0.010416666666666666
            },
            {
              "pitch": 51,
              "velocity": 23,
              "position": 4.739583333333333,
              "duration": 0.010416666666666666
            },
            {
              "pitch": 35,
              "velocity": 63,
              "position": 4.75,
              "duration": 0.010416666666666666
            },
            {
              "pitch": 43,
              "velocity": 43,
              "position": 4.989583333333333,
              "duration": 0.010416666666666666
            },
            {
              "pitch": 51,
              "velocity": 52,
              "position": 4.989583333333333,
              "duration": 0.010416666666666666
            },
            {
              "pitch": 35,
              "velocity": 93,
              "position": 5,
              "duration": 0.010416666666666666
            },
            {
              "pitch": 51,
              "velocity": 63,
              "position": 5.489583333333333,
              "duration": 0.010416666666666666
            },
            {
              "pitch": 40,
              "velocity": 22,
              "position": 5.739583333333333,
              "duration": 0.010416666666666666
            },
            {
              "pitch": 51,
              "velocity": 23,
              "position": 5.739583333333333,
              "duration": 0.010416666666666666
            },
            {
              "pitch": 35,
              "velocity": 63,
              "position": 5.75,
              "duration": 0.010416666666666666
            },
            {
              "pitch": 51,
              "velocity": 63,
              "position": 5.989583333333333,
              "duration": 0.010416666666666666
            },
            {
              "pitch": 35,
              "velocity": 93,
              "position": 6,
              "duration": 0.010416666666666666
            },
            {
              "pitch": 40,
              "velocity": 31,
              "position": 6.260416666666667,
              "duration": 0.010416666666666666
            },
            {
              "pitch": 51,
              "velocity": 73,
              "position": 6.489583333333333,
              "duration": 0.010416666666666666
            },
            {
              "pitch": 40,
              "velocity": 75,
              "position": 6.739583333333333,
              "duration": 0.010416666666666666
            },
            {
              "pitch": 35,
              "velocity": 63,
              "position": 6.75,
              "duration": 0.010416666666666666
            },
            {
              "pitch": 43,
              "velocity": 43,
              "position": 6.989583333333333,
              "duration": 0.010416666666666666
            },
            {
              "pitch": 51,
              "velocity": 23,
              "position": 6.989583333333333,
              "duration": 0.010416666666666666
            },
            {
              "pitch": 35,
              "velocity": 93,
              "position": 7,
              "duration": 0.010416666666666666
            },
            {
              "pitch": 51,
              "velocity": 63,
              "position": 7.260416666666667,
              "duration": 0.010416666666666666
            },
            {
              "pitch": 40,
              "velocity": 25,
              "position": 7.739583333333333,
              "duration": 0.010416666666666666
            },
            {
              "pitch": 51,
              "velocity": 63,
              "position": 7.739583333333333,
              "duration": 0.010416666666666666
            },
            {
              "pitch": 35,
              "velocity": 63,
              "position": 7.75,
              "duration": 0.010416666666666666
            },
            {
              "pitch": 35,
              "velocity": 93,
              "position": 8,
              "duration": 0.010416666666666666
            },
            {
              "pitch": 40,
              "velocity": 60,
              "position": 8.260416666666666,
              "duration": 0.010416666666666666
            },
            {
              "pitch": 51,
              "velocity": 73,
              "position": 8.260416666666666,
              "duration": 0.010416666666666666
            },
            {
              "pitch": 40,
              "velocity": 31,
              "position": 8.739583333333334,
              "duration": 0.010416666666666666
            },
            {
              "pitch": 51,
              "velocity": 23,
              "position": 8.739583333333334,
              "duration": 0.010416666666666666
            },
            {
              "pitch": 35,
              "velocity": 63,
              "position": 8.75,
              "duration": 0.010416666666666666
            },
            {
              "pitch": 43,
              "velocity": 43,
              "position": 8.989583333333334,
              "duration": 0.010416666666666666
            },
            {
              "pitch": 51,
              "velocity": 52,
              "position": 8.989583333333334,
              "duration": 0.010416666666666666
            },
            {
              "pitch": 35,
              "velocity": 93,
              "position": 9,
              "duration": 0.010416666666666666
            },
            {
              "pitch": 51,
              "velocity": 63,
              "position": 9.489583333333334,
              "duration": 0.010416666666666666
            },
            {
              "pitch": 35,
              "velocity": 63,
              "position": 9.75,
              "duration": 0.010416666666666666
            },
            {
              "pitch": 51,
              "velocity": 63,
              "position": 9.989583333333334,
              "duration": 0.010416666666666666
            },
            {
              "pitch": 35,
              "velocity": 93,
              "position": 10,
              "duration": 0.010416666666666666
            },
            {
              "pitch": 40,
              "velocity": 40,
              "position": 10.260416666666666,
              "duration": 0.010416666666666666
            },
            {
              "pitch": 51,
              "velocity": 73,
              "position": 10.489583333333334,
              "duration": 0.010416666666666666
            },
            {
              "pitch": 40,
              "velocity": 75,
              "position": 10.739583333333334,
              "duration": 0.010416666666666666
            },
            {
              "pitch": 35,
              "velocity": 63,
              "position": 10.75,
              "duration": 0.010416666666666666
            },
            {
              "pitch": 43,
              "velocity": 43,
              "position": 10.989583333333334,
              "duration": 0.010416666666666666
            },
            {
              "pitch": 51,
              "velocity": 23,
              "position": 10.989583333333334,
              "duration": 0.010416666666666666
            },
            {
              "pitch": 35,
              "velocity": 93,
              "position": 11,
              "duration": 0.010416666666666666
            },
            {
              "pitch": 51,
              "velocity": 63,
              "position": 11.260416666666666,
              "duration": 0.010416666666666666
            },
            {
              "pitch": 40,
              "velocity": 40,
              "position": 11.739583333333334,
              "duration": 0.010416666666666666
            },
            {
              "pitch": 51,
              "velocity": 63,
              "position": 11.739583333333334,
              "duration": 0.010416666666666666
            },
            {
              "pitch": 35,
              "velocity": 63,
              "position": 11.75,
              "duration": 0.010416666666666666
            },
            {
              "pitch": 35,
              "velocity": 93,
              "position": 12,
              "duration": 0.010416666666666666
            },
            {
              "pitch": 40,
              "velocity": 75,
              "position": 12.260416666666666,
              "duration": 0.010416666666666666
            },
            {
              "pitch": 51,
              "velocity": 73,
              "position": 12.260416666666666,
              "duration": 0.010416666666666666
            },
            {
              "pitch": 40,
              "velocity": 60,
              "position": 12.739583333333334,
              "duration": 0.010416666666666666
            },
            {
              "pitch": 51,
              "velocity": 23,
              "position": 12.739583333333334,
              "duration": 0.010416666666666666
            },
            {
              "pitch": 35,
              "velocity": 63,
              "position": 12.75,
              "duration": 0.010416666666666666
            },
            {
              "pitch": 43,
              "velocity": 43,
              "position": 12.989583333333334,
              "duration": 0.010416666666666666
            },
            {
              "pitch": 51,
              "velocity": 52,
              "position": 12.989583333333334,
              "duration": 0.010416666666666666
            },
            {
              "pitch": 35,
              "velocity": 93,
              "position": 13,
              "duration": 0.010416666666666666
            },
            {
              "pitch": 43,
              "velocity": 43,
              "position": 13.489583333333334,
              "duration": 0.010416666666666666
            },
            {
              "pitch": 51,
              "velocity": 63,
              "position": 13.489583333333334,
              "duration": 0.010416666666666666
            },
            {
              "pitch": 51,
              "velocity": 23,
              "position": 13.739583333333334,
              "duration": 0.010416666666666666
            },
            {
              "pitch": 35,
              "velocity": 63,
              "position": 13.75,
              "duration": 0.010416666666666666
            },
            {
              "pitch": 51,
              "velocity": 63,
              "position": 13.989583333333334,
              "duration": 0.010416666666666666
            },
            {
              "pitch": 35,
              "velocity": 93,
              "position": 14,
              "duration": 0.010416666666666666
            },
            {
              "pitch": 40,
              "velocity": 60,
              "position": 14.489583333333334,
              "duration": 0.010416666666666666
            },
            {
              "pitch": 51,
              "velocity": 73,
              "position": 14.489583333333334,
              "duration": 0.010416666666666666
            },
            {
              "pitch": 35,
              "velocity": 63,
              "position": 14.75,
              "duration": 0.010416666666666666
            },
            {
              "pitch": 43,
              "velocity": 43,
              "position": 14.989583333333334,
              "duration": 0.010416666666666666
            },
            {
              "pitch": 51,
              "velocity": 23,
              "position": 14.989583333333334,
              "duration": 0.010416666666666666
            },
            {
              "pitch": 35,
              "velocity": 93,
              "position": 15,
              "duration": 0.010416666666666666
            },
            {
              "pitch": 51,
              "velocity": 63,
              "position": 15.260416666666666,
              "duration": 0.010416666666666666
            },
            {
              "pitch": 51,
              "velocity": 63,
              "position": 15.739583333333334,
              "duration": 0.010416666666666666
            },
            {
              "pitch": 35,
              "velocity": 63,
              "position": 15.75,
              "duration": 0.010416666666666666
            }
          ]
        },
        "10": {
          "ctab": {
            "srcChannel": 10,
            "name": "Bass",
            "accType": "BASS",
            "editable": false,
            "mutedNotes": [],
            "mutedChords": [],
            "autoStart": false,
            "sourceChordNote": 0,
            "sourceChordType": "Maj7",
            "ctb2Low": null,
            "ctb2Main": {
              "ntr": "ROOT_TRANSPOSITION",
              "ntt": "MELODY",
              "bassOn": true,
              "chordRootUpperLimit": 3,
              "noteLowLimit": 28,
              "noteHighLimit": 127,
              "rtr": "PITCH_SHIFT_TO_ROOT"
            },
            "ctb2High": null
          },
          "notes": [
            {
              "pitch": 24,
              "velocity": 98,
              "position": 0,
              "duration": 0.6458333333333334
            },
            {
              "pitch": 24,
              "velocity": 80,
              "position": 0.75,
              "duration": 0.09375
            },
            {
              "pitch": 31,
              "velocity": 98,
              "position": 1,
              "duration": 0.9895833333333334
            },
            {
              "pitch": 24,
              "velocity": 98,
              "position": 2,
              "duration": 0.6458333333333334
            },
            {
              "pitch": 24,
              "velocity": 80,
              "position": 2.75,
              "duration": 0.09375
            },
            {
              "pitch": 31,
              "velocity": 98,
              "position": 3,
              "duration": 0.9895833333333334
            },
            {
              "pitch": 24,
              "velocity": 98,
              "position": 4,
              "duration": 0.6458333333333334
            },
            {
              "pitch": 24,
              "velocity": 80,
              "position": 4.75,
              "duration": 0.09375
            },
            {
              "pitch": 31,
              "velocity": 98,
              "position": 5,
              "duration": 0.9895833333333334
            },
            {
              "pitch": 24,
              "velocity": 98,
              "position": 6,
              "duration": 0.6458333333333334
            },
            {
              "pitch": 24,
              "velocity": 80,
              "position": 6.75,
              "duration": 0.09375
            },
            {
              "pitch": 31,
              "velocity": 98,
              "position": 7,
              "duration": 0.9895833333333334
            },
            {
              "pitch": 24,
              "velocity": 98,
              "position": 8,
              "duration": 0.6458333333333334
            },
            {
              "pitch": 24,
              "velocity": 80,
              "position": 8.75,
              "duration": 0.09375
            },
            {
              "pitch": 31,
              "velocity": 98,
              "position": 9,
              "duration": 0.9895833333333334
            },
            {
              "pitch": 24,
              "velocity": 98,
              "position": 10,
              "duration": 0.6458333333333334
            },
            {
              "pitch": 24,
              "velocity": 80,
              "position": 10.75,
              "duration": 0.09375
            },
            {
              "pitch": 31,
              "velocity": 98,
              "position": 11,
              "duration": 0.9895833333333334
            },
            {
              "pitch": 24,
              "velocity": 98,
              "position": 12,
              "duration": 0.6458333333333334
            },
            {
              "pitch": 24,
              "velocity": 80,
              "position": 12.75,
              "duration": 0.09375
            },
            {
              "pitch": 31,
              "velocity": 98,
              "position": 13,
              "duration": 0.4895833333333333
            },
            {
              "pitch": 31,
              "velocity": 98,
              "position": 13.5,
              "duration": 0.4895833333333333
            },
            {
              "pitch": 24,
              "velocity": 98,
              "position": 14,
              "duration": 0.6458333333333334
            },
            {
              "pitch": 24,
              "velocity": 80,
              "position": 14.75,
              "duration": 0.09375
            },
            {
              "pitch": 31,
              "velocity": 98,
              "position": 15,
              "duration": 0.9895833333333334
            }
          ]
        },
        "11": {
          "ctab": {
            "srcChannel": 11,
            "name": "NGt",
            "accType": "CHORD1",
            "editable": false,
            "mutedNotes": [],
            "mutedChords": [],
            "autoStart": false,
            "sourceChordNote": 0,
            "sourceChordType": "Maj7",
            "ctb2Low": null,
            "ctb2Main": {
              "ntr": "ROOT_FIXED",
              "ntt": "CHORD",
              "bassOn": false,
              "chordRootUpperLimit": 7,
              "noteLowLimit": 0,
              "noteHighLimit": 127,
              "rtr": "PITCH_SHIFT"
            },
            "ctb2High": null
          },
          "notes": [
            {
              "pitch": 59,
              "velocity": 88,
              "position": 0.25,
              "duration": 0.59375
            },
            {
              "pitch": 64,
              "velocity": 88,
              "position": 0.25,
              "duration": 0.59375
            },
            {
              "pitch": 55,
              "velocity": 77,
              "position": 0.25,
              "duration": 0.6041666666666666
            },
            {
              "pitch": 55,
              "velocity": 79,
              "position": 1,
              "duration": 0.09375
            },
            {
              "pitch": 59,
              "velocity": 84,
              "position": 1,
              "duration": 0.10416666666666667
            },
            {
              "pitch": 64,
              "velocity": 78,
              "position": 1,
              "duration": 0.10416666666666667
            },
            {
              "pitch": 55,
              "velocity": 72,
              "position": 1.5,
              "duration": 0.10416666666666667
            },
            {
              "pitch": 59,
              "velocity": 61,
              "position": 1.5,
              "duration": 0.10416666666666667
            },
            {
              "pitch": 64,
              "velocity": 73,
              "position": 1.5,
              "duration": 0.11458333333333333
            },
            {
              "pitch": 55,
              "velocity": 71,
              "position": 2,
              "duration": 0.10416666666666667
            },
            {
              "pitch": 59,
              "velocity": 65,
              "position": 2,
              "duration": 0.10416666666666667
            },
            {
              "pitch": 64,
              "velocity": 71,
              "position": 2,
              "duration": 0.10416666666666667
            },
            {
              "pitch": 64,
              "velocity": 80,
              "position": 2.5,
              "duration": 0.59375
            },
            {
              "pitch": 55,
              "velocity": 81,
              "position": 2.5,
              "duration": 0.6041666666666666
            },
            {
              "pitch": 59,
              "velocity": 87,
              "position": 2.5,
              "duration": 0.6041666666666666
            },
            {
              "pitch": 59,
              "velocity": 51,
              "position": 3.25,
              "duration": 0.09375
            },
            {
              "pitch": 64,
              "velocity": 57,
              "position": 3.25,
              "duration": 0.09375
            },
            {
              "pitch": 55,
              "velocity": 45,
              "position": 3.25,
              "duration": 0.10416666666666667
            },
            {
              "pitch": 59,
              "velocity": 67,
              "position": 3.75,
              "duration": 0.09375
            },
            {
              "pitch": 55,
              "velocity": 70,
              "position": 3.75,
              "duration": 0.10416666666666667
            },
            {
              "pitch": 64,
              "velocity": 73,
              "position": 3.75,
              "duration": 0.10416666666666667
            },
            {
              "pitch": 55,
              "velocity": 83,
              "position": 4.25,
              "duration": 0.6041666666666666
            },
            {
              "pitch": 59,
              "velocity": 85,
              "position": 4.25,
              "duration": 0.6041666666666666
            },
            {
              "pitch": 64,
              "velocity": 83,
              "position": 4.25,
              "duration": 0.6041666666666666
            },
            {
              "pitch": 55,
              "velocity": 79,
              "position": 5,
              "duration": 0.09375
            },
            {
              "pitch": 64,
              "velocity": 92,
              "position": 5,
              "duration": 0.09375
            },
            {
              "pitch": 59,
              "velocity": 78,
              "position": 5,
              "duration": 0.10416666666666667
            },
            {
              "pitch": 55,
              "velocity": 63,
              "position": 5.5,
              "duration": 0.10416666666666667
            },
            {
              "pitch": 59,
              "velocity": 66,
              "position": 5.5,
              "duration": 0.10416666666666667
            },
            {
              "pitch": 64,
              "velocity": 63,
              "position": 5.5,
              "duration": 0.10416666666666667
            },
            {
              "pitch": 59,
              "velocity": 72,
              "position": 6,
              "duration": 0.09375
            },
            {
              "pitch": 55,
              "velocity": 73,
              "position": 6,
              "duration": 0.10416666666666667
            },
            {
              "pitch": 64,
              "velocity": 69,
              "position": 6,
              "duration": 0.11458333333333333
            },
            {
              "pitch": 59,
              "velocity": 78,
              "position": 6.5,
              "duration": 0.59375
            },
            {
              "pitch": 55,
              "velocity": 85,
              "position": 6.5,
              "duration": 0.6041666666666666
            },
            {
              "pitch": 64,
              "velocity": 78,
              "position": 6.5,
              "duration": 0.6041666666666666
            },
            {
              "pitch": 55,
              "velocity": 55,
              "position": 7.25,
              "duration": 0.10416666666666667
            },
            {
              "pitch": 64,
              "velocity": 58,
              "position": 7.25,
              "duration": 0.10416666666666667
            },
            {
              "pitch": 59,
              "velocity": 44,
              "position": 7.25,
              "duration": 0.11458333333333333
            },
            {
              "pitch": 55,
              "velocity": 64,
              "position": 7.75,
              "duration": 0.09375
            },
            {
              "pitch": 64,
              "velocity": 76,
              "position": 7.75,
              "duration": 0.09375
            },
            {
              "pitch": 59,
              "velocity": 74,
              "position": 7.75,
              "duration": 0.10416666666666667
            },
            {
              "pitch": 55,
              "velocity": 79,
              "position": 8.25,
              "duration": 0.59375
            },
            {
              "pitch": 64,
              "velocity": 93,
              "position": 8.25,
              "duration": 0.59375
            },
            {
              "pitch": 59,
              "velocity": 79,
              "position": 8.25,
              "duration": 0.6041666666666666
            },
            {
              "pitch": 55,
              "velocity": 80,
              "position": 9,
              "duration": 0.10416666666666667
            },
            {
              "pitch": 59,
              "velocity": 91,
              "position": 9,
              "duration": 0.10416666666666667
            },
            {
              "pitch": 64,
              "velocity": 90,
              "position": 9,
              "duration": 0.10416666666666667
            },
            {
              "pitch": 55,
              "velocity": 62,
              "position": 9.5,
              "duration": 0.09375
            },
            {
              "pitch": 59,
              "velocity": 70,
              "position": 9.5,
              "duration": 0.09375
            },
            {
              "pitch": 64,
              "velocity": 61,
              "position": 9.5,
              "duration": 0.10416666666666667
            },
            {
              "pitch": 55,
              "velocity": 65,
              "position": 10,
              "duration": 0.10416666666666667
            },
            {
              "pitch": 59,
              "velocity": 63,
              "position": 10,
              "duration": 0.10416666666666667
            },
            {
              "pitch": 64,
              "velocity": 67,
              "position": 10,
              "duration": 0.11458333333333333
            },
            {
              "pitch": 55,
              "velocity": 88,
              "position": 10.5,
              "duration": 0.59375
            },
            {
              "pitch": 59,
              "velocity": 85,
              "position": 10.5,
              "duration": 0.59375
            },
            {
              "pitch": 64,
              "velocity": 79,
              "position": 10.5,
              "duration": 0.6041666666666666
            },
            {
              "pitch": 55,
              "velocity": 50,
              "position": 11.25,
              "duration": 0.10416666666666667
            },
            {
              "pitch": 59,
              "velocity": 57,
              "position": 11.25,
              "duration": 0.10416666666666667
            },
            {
              "pitch": 64,
              "velocity": 52,
              "position": 11.25,
              "duration": 0.10416666666666667
            },
            {
              "pitch": 55,
              "velocity": 63,
              "position": 11.75,
              "duration": 0.09375
            },
            {
              "pitch": 59,
              "velocity": 71,
              "position": 11.75,
              "duration": 0.10416666666666667
            },
            {
              "pitch": 64,
              "velocity": 68,
              "position": 11.75,
              "duration": 0.10416666666666667
            },
            {
              "pitch": 55,
              "velocity": 83,
              "position": 12.25,
              "duration": 0.59375
            },
            {
              "pitch": 59,
              "velocity": 78,
              "position": 12.25,
              "duration": 0.59375
            },
            {
              "pitch": 64,
              "velocity": 82,
              "position": 12.25,
              "duration": 0.6041666666666666
            },
            {
              "pitch": 55,
              "velocity": 85,
              "position": 13,
              "duration": 0.09375
            },
            {
              "pitch": 59,
              "velocity": 93,
              "position": 13,
              "duration": 0.10416666666666667
            },
            {
              "pitch": 64,
              "velocity": 93,
              "position": 13,
              "duration": 0.10416666666666667
            },
            {
              "pitch": 55,
              "velocity": 63,
              "position": 13.5,
              "duration": 0.10416666666666667
            },
            {
              "pitch": 59,
              "velocity": 61,
              "position": 13.5,
              "duration": 0.10416666666666667
            },
            {
              "pitch": 64,
              "velocity": 67,
              "position": 13.5,
              "duration": 0.10416666666666667
            },
            {
              "pitch": 59,
              "velocity": 65,
              "position": 14,
              "duration": 0.09375
            },
            {
              "pitch": 64,
              "velocity": 67,
              "position": 14,
              "duration": 0.10416666666666667
            },
            {
              "pitch": 55,
              "velocity": 69,
              "position": 14,
              "duration": 0.11458333333333333
            },
            {
              "pitch": 55,
              "velocity": 80,
              "position": 14.5,
              "duration": 0.59375
            },
            {
              "pitch": 64,
              "velocity": 91,
              "position": 14.5,
              "duration": 0.59375
            },
            {
              "pitch": 59,
              "velocity": 78,
              "position": 14.5,
              "duration": 0.6041666666666666
            },
            {
              "pitch": 55,
              "velocity": 43,
              "position": 15.25,
              "duration": 0.10416666666666667
            },
            {
              "pitch": 64,
              "velocity": 52,
              "position": 15.25,
              "duration": 0.10416666666666667
            },
            {
              "pitch": 59,
              "velocity": 55,
              "position": 15.25,
              "duration": 0.11458333333333333
            },
            {
              "pitch": 59,
              "velocity": 63,
              "position": 15.75,
              "duration": 0.09375
            },
            {
              "pitch": 55,
              "velocity": 70,
              "position": 15.75,
              "duration": 0.10416666666666667
            },
            {
              "pitch": 64,
              "velocity": 61,
              "position": 15.75,
              "duration": 0.11458333333333333
            }
          ]
        },
        "12": {
          "ctab": {
            "srcChannel": 12,
            "name": "Pno",
            "accType": "CHORD2",
            "editable": false,
            "mutedNotes": [],
            "mutedChords": [],
            "autoStart": false,
            "sourceChordNote": 0,
            "sourceChordType": "Maj7",
            "ctb2Low": null,
            "ctb2Main": {
              "ntr": "ROOT_FIXED",
              "ntt": "CHORD",
              "bassOn": false,
              "chordRootUpperLimit": 7,
              "noteLowLimit": 0,
              "noteHighLimit": 127,
              "rtr": "PITCH_SHIFT"
            },
            "ctb2High": null
          },
          "notes": [
            {
              "pitch": 64,
              "velocity": 75,
              "position": 0,
              "duration": 1.40625
            },
            {
              "pitch": 55,
              "velocity": 68,
              "position": 0,
              "duration": 1.4270833333333333
            },
            {
              "pitch": 59,
              "velocity": 66,
              "position": 0,
              "duration": 1.4270833333333333
            },
            {
              "pitch": 55,
              "velocity": 51,
              "position": 1.5,
              "duration": 0.3645833333333333
            },
            {
              "pitch": 64,
              "velocity": 61,
              "position": 1.5,
              "duration": 0.3645833333333333
            },
            {
              "pitch": 59,
              "velocity": 55,
              "position": 1.5,
              "duration": 0.3958333333333333
            },
            {
              "pitch": 55,
              "velocity": 69,
              "position": 2,
              "duration": 0.23958333333333334
            },
            {
              "pitch": 59,
              "velocity": 72,
              "position": 2,
              "duration": 0.2604166666666667
            },
            {
              "pitch": 64,
              "velocity": 73,
              "position": 2,
              "duration": 0.2708333333333333
            },
            {
              "pitch": 59,
              "velocity": 49,
              "position": 3.75,
              "duration": 0.16666666666666666
            },
            {
              "pitch": 64,
              "velocity": 53,
              "position": 3.75,
              "duration": 0.16666666666666666
            },
            {
              "pitch": 55,
              "velocity": 56,
              "position": 3.75,
              "duration": 0.1875
            },
            {
              "pitch": 55,
              "velocity": 70,
              "position": 4.25,
              "duration": 1.1458333333333333
            },
            {
              "pitch": 64,
              "velocity": 68,
              "position": 4.25,
              "duration": 1.1458333333333333
            },
            {
              "pitch": 59,
              "velocity": 69,
              "position": 4.25,
              "duration": 1.15625
            },
            {
              "pitch": 55,
              "velocity": 58,
              "position": 5.5,
              "duration": 0.3125
            },
            {
              "pitch": 64,
              "velocity": 46,
              "position": 5.5,
              "duration": 0.3333333333333333
            },
            {
              "pitch": 59,
              "velocity": 48,
              "position": 5.5,
              "duration": 0.3645833333333333
            },
            {
              "pitch": 64,
              "velocity": 71,
              "position": 6,
              "duration": 0.09375
            },
            {
              "pitch": 55,
              "velocity": 73,
              "position": 6,
              "duration": 0.11458333333333333
            },
            {
              "pitch": 59,
              "velocity": 70,
              "position": 6,
              "duration": 0.13541666666666666
            },
            {
              "pitch": 55,
              "velocity": 55,
              "position": 6.5,
              "duration": 0.11458333333333333
            },
            {
              "pitch": 64,
              "velocity": 58,
              "position": 6.5,
              "duration": 0.11458333333333333
            },
            {
              "pitch": 59,
              "velocity": 51,
              "position": 6.5,
              "duration": 0.16666666666666666
            },
            {
              "pitch": 64,
              "velocity": 69,
              "position": 7,
              "duration": 0.8854166666666666
            },
            {
              "pitch": 55,
              "velocity": 74,
              "position": 7,
              "duration": 0.9479166666666666
            },
            {
              "pitch": 59,
              "velocity": 65,
              "position": 7,
              "duration": 0.9479166666666666
            },
            {
              "pitch": 55,
              "velocity": 69,
              "position": 8,
              "duration": 1.3333333333333333
            },
            {
              "pitch": 64,
              "velocity": 73,
              "position": 8,
              "duration": 1.3333333333333333
            },
            {
              "pitch": 59,
              "velocity": 74,
              "position": 8,
              "duration": 1.3645833333333333
            },
            {
              "pitch": 55,
              "velocity": 54,
              "position": 9.5,
              "duration": 0.3229166666666667
            },
            {
              "pitch": 64,
              "velocity": 53,
              "position": 9.5,
              "duration": 0.3333333333333333
            },
            {
              "pitch": 59,
              "velocity": 54,
              "position": 9.5,
              "duration": 0.3541666666666667
            },
            {
              "pitch": 55,
              "velocity": 67,
              "position": 10,
              "duration": 0.16666666666666666
            },
            {
              "pitch": 59,
              "velocity": 65,
              "position": 10,
              "duration": 0.16666666666666666
            },
            {
              "pitch": 64,
              "velocity": 66,
              "position": 10,
              "duration": 0.16666666666666666
            },
            {
              "pitch": 64,
              "velocity": 77,
              "position": 11,
              "duration": 0.3854166666666667
            },
            {
              "pitch": 55,
              "velocity": 63,
              "position": 11,
              "duration": 0.3958333333333333
            },
            {
              "pitch": 59,
              "velocity": 74,
              "position": 11,
              "duration": 0.4270833333333333
            },
            {
              "pitch": 64,
              "velocity": 49,
              "position": 11.75,
              "duration": 0.11458333333333333
            },
            {
              "pitch": 55,
              "velocity": 50,
              "position": 11.75,
              "duration": 0.125
            },
            {
              "pitch": 59,
              "velocity": 51,
              "position": 11.75,
              "duration": 0.14583333333333334
            },
            {
              "pitch": 64,
              "velocity": 70,
              "position": 12.25,
              "duration": 1.5729166666666667
            },
            {
              "pitch": 59,
              "velocity": 76,
              "position": 12.25,
              "duration": 1.59375
            },
            {
              "pitch": 55,
              "velocity": 63,
              "position": 12.25,
              "duration": 1.6145833333333333
            },
            {
              "pitch": 64,
              "velocity": 76,
              "position": 14,
              "duration": 0.14583333333333334
            },
            {
              "pitch": 55,
              "velocity": 72,
              "position": 14,
              "duration": 0.17708333333333334
            },
            {
              "pitch": 59,
              "velocity": 69,
              "position": 14,
              "duration": 0.1875
            },
            {
              "pitch": 55,
              "velocity": 51,
              "position": 14.5,
              "duration": 0.13541666666666666
            },
            {
              "pitch": 64,
              "velocity": 46,
              "position": 14.5,
              "duration": 0.13541666666666666
            },
            {
              "pitch": 59,
              "velocity": 46,
              "position": 14.5,
              "duration": 0.15625
            },
            {
              "pitch": 64,
              "velocity": 69,
              "position": 15,
              "duration": 0.8854166666666666
            },
            {
              "pitch": 55,
              "velocity": 69,
              "position": 15,
              "duration": 0.8958333333333334
            },
            {
              "pitch": 59,
              "velocity": 63,
              "position": 15,
              "duration": 0.90625
            }
          ]
        },
        "13": {
          "ctab": {
            "srcChannel": 13,
            "name": "Str",
            "accType": "PAD",
            "editable": false,
            "mutedNotes": [],
            "mutedChords": [],
            "autoStart": false,
            "sourceChordNote": 0,
            "sourceChordType": "Maj7",
            "ctb2Low": null,
            "ctb2Main": {
              "ntr": "ROOT_FIXED",
              "ntt": "CHORD",
              "bassOn": false,
              "chordRootUpperLimit": 7,
              "noteLowLimit": 0,
              "noteHighLimit": 127,
              "rtr": "PITCH_SHIFT"
            },
            "ctb2High": null
          },
          "notes": [
            {
              "pitch": 55,
              "velocity": 46,
              "position": 0,
              "duration": 15.989583333333334
            },
            {
              "pitch": 59,
              "velocity": 46,
              "position": 0,
              "duration": 15.989583333333334
            },
            {
              "pitch": 64,
              "velocity": 46,
              "position": 0,
              "duration": 15.989583333333334
            },
            {
              "pitch": 72,
              "velocity": 46,
              "position": 0,
              "duration": 15.989583333333334
            }
          ]
        }
      }
    },
    "Main_D": {
      "type": "Main_D",
      "sizeInBeats": 16,
      "channels": {
        "2": {
          "ctab": {
            "srcChannel": 2,
            "name": "NGt Root",
            "accType": "CHORD1",
            "editable": false,
            "mutedNotes": [],
            "mutedChords": [
              "1+2+5",
              "sus4",
              "1+5",
              "1+8",
              "Maj7aug",
              "dim",
              "minMaj7(9)",
              "minMaj7",
              "min6",
              "min",
              "aug",
              "Maj7(9)",
              "Maj7#11",
              "Maj7",
              "Maj6",
              "Maj"
            ],
            "autoStart": false,
            "sourceChordNote": 0,
            "sourceChordType": "Maj7",
            "ctb2Low": null,
            "ctb2Main": {
              "ntr": "ROOT_TRANSPOSITION",
              "ntt": "CHORD",
              "bassOn": false,
              "chordRootUpperLimit": 6,
              "noteLowLimit": 0,
              "noteHighLimit": 127,
              "rtr": "PITCH_SHIFT"
            },
            "ctb2High": null
          },
          "notes": [
            {
              "pitch": 60,
              "velocity": 82,
              "position": 0,
              "duration": 0.125
            },
            {
              "pitch": 60,
              "velocity": 89,
              "position": 0.75,
              "duration": 0.6666666666666666
            },
            {
              "pitch": 60,
              "velocity": 85,
              "position": 2,
              "duration": 0.125
            },
            {
              "pitch": 60,
              "velocity": 84,
              "position": 2.75,
              "duration": 0.59375
            },
            {
              "pitch": 60,
              "velocity": 84,
              "position": 4,
              "duration": 0.08333333333333333
            },
            {
              "pitch": 60,
              "velocity": 79,
              "position": 4.75,
              "duration": 0.7604166666666666
            },
            {
              "pitch": 60,
              "velocity": 93,
              "position": 6,
              "duration": 0.59375
            },
            {
              "pitch": 60,
              "velocity": 70,
              "position": 6.75,
              "duration": 0.125
            },
            {
              "pitch": 60,
              "velocity": 78,
              "position": 7.25,
              "duration": 0.10416666666666667
            },
            {
              "pitch": 60,
              "velocity": 82,
              "position": 8,
              "duration": 0.08333333333333333
            },
            {
              "pitch": 60,
              "velocity": 85,
              "position": 8.75,
              "duration": 0.5729166666666666
            },
            {
              "pitch": 60,
              "velocity": 92,
              "position": 10,
              "duration": 0.07291666666666667
            },
            {
              "pitch": 60,
              "velocity": 81,
              "position": 10.75,
              "duration": 0.75
            },
            {
              "pitch": 60,
              "velocity": 79,
              "position": 12,
              "duration": 0.08333333333333333
            },
            {
              "pitch": 60,
              "velocity": 78,
              "position": 12.75,
              "duration": 0.8645833333333334
            },
            {
              "pitch": 60,
              "velocity": 93,
              "position": 14,
              "duration": 0.13541666666666666
            },
            {
              "pitch": 60,
              "velocity": 93,
              "position": 14.75,
              "duration": 0.8125
            }
          ]
        },
        "4": {
          "ctab": {
            "srcChannel": 4,
            "name": "Str Root",
            "accType": "PAD",
            "editable": false,
            "mutedNotes": [],
            "mutedChords": [
              "1+2+5",
              "sus4",
              "1+5",
              "1+8",
              "Maj7aug",
              "dim",
              "minMaj7(9)",
              "minMaj7",
              "min6",
              "min",
              "aug",
              "Maj7(9)",
              "Maj7#11",
              "Maj7",
              "Maj6",
              "Maj"
            ],
            "autoStart": false,
            "sourceChordNote": 0,
            "sourceChordType": "Maj7",
            "ctb2Low": null,
            "ctb2Main": {
              "ntr": "ROOT_TRANSPOSITION",
              "ntt": "CHORD",
              "bassOn": false,
              "chordRootUpperLimit": 6,
              "noteLowLimit": 0,
              "noteHighLimit": 127,
              "rtr": "PITCH_SHIFT"
            },
            "ctb2High": null
          },
          "notes": [
            {
              "pitch": 60,
              "velocity": 46,
              "position": 0,
              "duration": 15.989583333333334
            }
          ]
        },
        "7": {
          "ctab": {
            "srcChannel": 7,
            "name": "CC_Crash",
            "accType": "RHYTHM",
            "editable": false,
            "mutedNotes": [],
            "mutedChords": [
              "1+2+5",
              "sus4",
              "1+5",
              "1+8",
              "7aug",
              "Maj7aug",
              "7(#9)",
              "7(b13)",
              "7(b9)",
              "7(13)",
              "7#11",
              "7(9)",
              "7b5",
              "7sus4",
              "7th",
              "dim7",
              "dim",
              "minMaj7(9)",
              "minMaj7",
              "min7(11)",
              "min7(9)",
              "min(9)",
              "m7b5",
              "min7",
              "min6",
              "min",
              "aug",
              "Maj6(9)",
              "Maj7(9)",
              "Maj(9)",
              "Maj7#11",
              "Maj7",
              "Maj6",
              "Maj"
            ],
            "autoStart": true,
            "sourceChordNote": 0,
            "sourceChordType": "Maj",
            "ctb2Low": null,
            "ctb2Main": {
              "ntr": "ROOT_FIXED",
              "ntt": "BYPASS",
              "bassOn": false,
              "chordRootUpperLimit": 0,
              "noteLowLimit": 0,
              "noteHighLimit": 127,
              "rtr": "RETRIGGER"
            },
            "ctb2High": null
          },
          "notes": []
        },
        "8": {
          "ctab": {
            "srcChannel": 8,
            "name": "Perc",
            "accType": "SUBRHYTHM",
            "editable": false,
            "mutedNotes": [],
            "mutedChords": [],
            "autoStart": true,
            "sourceChordNote": 0,
            "sourceChordType": "Maj7",
            "ctb2Low": null,
            "ctb2Main": {
              "ntr": "ROOT_FIXED",
              "ntt": "BYPASS",
              "bassOn": false,
              "chordRootUpperLimit": 6,
              "noteLowLimit": 0,
              "noteHighLimit": 127,
              "rtr": "PITCH_SHIFT"
            },
            "ctb2High": null
          },
          "notes": [
            {
              "pitch": 80,
              "velocity": 24,
              "position": 0,
              "duration": 0.010416666666666666
            },
            {
              "pitch": 81,
              "velocity": 31,
              "position": 0.2604166666666667,
              "duration": 0.010416666666666666
            },
            {
              "pitch": 76,
              "velocity": 44,
              "position": 0.4895833333333333,
              "duration": 0.010416666666666666
            },
            {
              "pitch": 81,
              "velocity": 44,
              "position": 0.4895833333333333,
              "duration": 0.010416666666666666
            },
            {
              "pitch": 80,
              "velocity": 18,
              "position": 0.7395833333333334,
              "duration": 0.010416666666666666
            },
            {
              "pitch": 80,
              "velocity": 18,
              "position": 0.9895833333333334,
              "duration": 0.010416666666666666
            },
            {
              "pitch": 81,
              "velocity": 23,
              "position": 1.2604166666666667,
              "duration": 0.010416666666666666
            },
            {
              "pitch": 77,
              "velocity": 44,
              "position": 1.4895833333333333,
              "duration": 0.010416666666666666
            },
            {
              "pitch": 81,
              "velocity": 39,
              "position": 1.4895833333333333,
              "duration": 0.010416666666666666
            },
            {
              "pitch": 80,
              "velocity": 32,
              "position": 1.7395833333333333,
              "duration": 0.010416666666666666
            },
            {
              "pitch": 80,
              "velocity": 17,
              "position": 1.9895833333333333,
              "duration": 0.010416666666666666
            },
            {
              "pitch": 81,
              "velocity": 23,
              "position": 2.2604166666666665,
              "duration": 0.010416666666666666
            },
            {
              "pitch": 76,
              "velocity": 14,
              "position": 2.4895833333333335,
              "duration": 0.010416666666666666
            },
            {
              "pitch": 81,
              "velocity": 42,
              "position": 2.4895833333333335,
              "duration": 0.010416666666666666
            },
            {
              "pitch": 76,
              "velocity": 44,
              "position": 2.7395833333333335,
              "duration": 0.010416666666666666
            },
            {
              "pitch": 80,
              "velocity": 33,
              "position": 2.7395833333333335,
              "duration": 0.010416666666666666
            },
            {
              "pitch": 80,
              "velocity": 25,
              "position": 2.9895833333333335,
              "duration": 0.010416666666666666
            },
            {
              "pitch": 77,
              "velocity": 14,
              "position": 3.2604166666666665,
              "duration": 0.010416666666666666
            },
            {
              "pitch": 81,
              "velocity": 24,
              "position": 3.2604166666666665,
              "duration": 0.010416666666666666
            },
            {
              "pitch": 77,
              "velocity": 44,
              "position": 3.4895833333333335,
              "duration": 0.010416666666666666
            },
            {
              "pitch": 81,
              "velocity": 42,
              "position": 3.4895833333333335,
              "duration": 0.010416666666666666
            },
            {
              "pitch": 80,
              "velocity": 24,
              "position": 3.7395833333333335,
              "duration": 0.010416666666666666
            },
            {
              "pitch": 80,
              "velocity": 24,
              "position": 4,
              "duration": 0.010416666666666666
            },
            {
              "pitch": 81,
              "velocity": 31,
              "position": 4.260416666666667,
              "duration": 0.010416666666666666
            },
            {
              "pitch": 76,
              "velocity": 44,
              "position": 4.489583333333333,
              "duration": 0.010416666666666666
            },
            {
              "pitch": 81,
              "velocity": 45,
              "position": 4.489583333333333,
              "duration": 0.010416666666666666
            },
            {
              "pitch": 80,
              "velocity": 32,
              "position": 4.739583333333333,
              "duration": 0.010416666666666666
            },
            {
              "pitch": 80,
              "velocity": 15,
              "position": 4.989583333333333,
              "duration": 0.010416666666666666
            },
            {
              "pitch": 81,
              "velocity": 32,
              "position": 5.260416666666667,
              "duration": 0.010416666666666666
            },
            {
              "pitch": 77,
              "velocity": 44,
              "position": 5.489583333333333,
              "duration": 0.010416666666666666
            },
            {
              "pitch": 81,
              "velocity": 45,
              "position": 5.489583333333333,
              "duration": 0.010416666666666666
            },
            {
              "pitch": 80,
              "velocity": 20,
              "position": 5.739583333333333,
              "duration": 0.010416666666666666
            },
            {
              "pitch": 80,
              "velocity": 31,
              "position": 5.989583333333333,
              "duration": 0.010416666666666666
            },
            {
              "pitch": 81,
              "velocity": 25,
              "position": 6.260416666666667,
              "duration": 0.010416666666666666
            },
            {
              "pitch": 76,
              "velocity": 14,
              "position": 6.489583333333333,
              "duration": 0.010416666666666666
            },
            {
              "pitch": 81,
              "velocity": 45,
              "position": 6.489583333333333,
              "duration": 0.010416666666666666
            },
            {
              "pitch": 76,
              "velocity": 44,
              "position": 6.739583333333333,
              "duration": 0.010416666666666666
            },
            {
              "pitch": 80,
              "velocity": 28,
              "position": 6.739583333333333,
              "duration": 0.010416666666666666
            },
            {
              "pitch": 80,
              "velocity": 31,
              "position": 6.989583333333333,
              "duration": 0.010416666666666666
            },
            {
              "pitch": 77,
              "velocity": 14,
              "position": 7.260416666666667,
              "duration": 0.010416666666666666
            },
            {
              "pitch": 81,
              "velocity": 27,
              "position": 7.260416666666667,
              "duration": 0.010416666666666666
            },
            {
              "pitch": 77,
              "velocity": 44,
              "position": 7.489583333333333,
              "duration": 0.010416666666666666
            },
            {
              "pitch": 81,
              "velocity": 48,
              "position": 7.489583333333333,
              "duration": 0.010416666666666666
            },
            {
              "pitch": 80,
              "velocity": 19,
              "position": 7.739583333333333,
              "duration": 0.010416666666666666
            },
            {
              "pitch": 80,
              "velocity": 24,
              "position": 8,
              "duration": 0.010416666666666666
            },
            {
              "pitch": 81,
              "velocity": 31,
              "position": 8.260416666666666,
              "duration": 0.010416666666666666
            },
            {
              "pitch": 76,
              "velocity": 44,
              "position": 8.489583333333334,
              "duration": 0.010416666666666666
            },
            {
              "pitch": 81,
              "velocity": 44,
              "position": 8.489583333333334,
              "duration": 0.010416666666666666
            },
            {
              "pitch": 80,
              "velocity": 18,
              "position": 8.739583333333334,
              "duration": 0.010416666666666666
            },
            {
              "pitch": 80,
              "velocity": 18,
              "position": 8.989583333333334,
              "duration": 0.010416666666666666
            },
            {
              "pitch": 81,
              "velocity": 23,
              "position": 9.260416666666666,
              "duration": 0.010416666666666666
            },
            {
              "pitch": 77,
              "velocity": 44,
              "position": 9.489583333333334,
              "duration": 0.010416666666666666
            },
            {
              "pitch": 81,
              "velocity": 39,
              "position": 9.489583333333334,
              "duration": 0.010416666666666666
            },
            {
              "pitch": 80,
              "velocity": 32,
              "position": 9.739583333333334,
              "duration": 0.010416666666666666
            },
            {
              "pitch": 80,
              "velocity": 17,
              "position": 9.989583333333334,
              "duration": 0.010416666666666666
            },
            {
              "pitch": 81,
              "velocity": 23,
              "position": 10.260416666666666,
              "duration": 0.010416666666666666
            },
            {
              "pitch": 76,
              "velocity": 14,
              "position": 10.489583333333334,
              "duration": 0.010416666666666666
            },
            {
              "pitch": 81,
              "velocity": 42,
              "position": 10.489583333333334,
              "duration": 0.010416666666666666
            },
            {
              "pitch": 76,
              "velocity": 44,
              "position": 10.739583333333334,
              "duration": 0.010416666666666666
            },
            {
              "pitch": 80,
              "velocity": 33,
              "position": 10.739583333333334,
              "duration": 0.010416666666666666
            },
            {
              "pitch": 80,
              "velocity": 25,
              "position": 10.989583333333334,
              "duration": 0.010416666666666666
            },
            {
              "pitch": 77,
              "velocity": 14,
              "position": 11.260416666666666,
              "duration": 0.010416666666666666
            },
            {
              "pitch": 81,
              "velocity": 24,
              "position": 11.260416666666666,
              "duration": 0.010416666666666666
            },
            {
              "pitch": 77,
              "velocity": 44,
              "position": 11.489583333333334,
              "duration": 0.010416666666666666
            },
            {
              "pitch": 81,
              "velocity": 42,
              "position": 11.489583333333334,
              "duration": 0.010416666666666666
            },
            {
              "pitch": 80,
              "velocity": 24,
              "position": 11.739583333333334,
              "duration": 0.010416666666666666
            },
            {
              "pitch": 80,
              "velocity": 24,
              "position": 12,
              "duration": 0.010416666666666666
            },
            {
              "pitch": 81,
              "velocity": 31,
              "position": 12.260416666666666,
              "duration": 0.010416666666666666
            },
            {
              "pitch": 76,
              "velocity": 44,
              "position": 12.489583333333334,
              "duration": 0.010416666666666666
            },
            {
              "pitch": 81,
              "velocity": 45,
              "position": 12.489583333333334,
              "duration": 0.010416666666666666
            },
            {
              "pitch": 80,
              "velocity": 32,
              "position": 12.739583333333334,
              "duration": 0.010416666666666666
            },
            {
              "pitch": 80,
              "velocity": 15,
              "position": 12.989583333333334,
              "duration": 0.010416666666666666
            },
            {
              "pitch": 81,
              "velocity": 32,
              "position": 13.260416666666666,
              "duration": 0.010416666666666666
            },
            {
              "pitch": 77,
              "velocity": 44,
              "position": 13.489583333333334,
              "duration": 0.010416666666666666
            },
            {
              "pitch": 81,
              "velocity": 45,
              "position": 13.489583333333334,
              "duration": 0.010416666666666666
            },
            {
              "pitch": 80,
              "velocity": 20,
              "position": 13.739583333333334,
              "duration": 0.010416666666666666
            },
            {
              "pitch": 80,
              "velocity": 31,
              "position": 13.989583333333334,
              "duration": 0.010416666666666666
            },
            {
              "pitch": 81,
              "velocity": 25,
              "position": 14.260416666666666,
              "duration": 0.010416666666666666
            },
            {
              "pitch": 76,
              "velocity": 14,
              "position": 14.489583333333334,
              "duration": 0.010416666666666666
            },
            {
              "pitch": 81,
              "velocity": 45,
              "position": 14.489583333333334,
              "duration": 0.010416666666666666
            },
            {
              "pitch": 76,
              "velocity": 44,
              "position": 14.739583333333334,
              "duration": 0.010416666666666666
            },
            {
              "pitch": 80,
              "velocity": 28,
              "position": 14.739583333333334,
              "duration": 0.010416666666666666
            },
            {
              "pitch": 80,
              "velocity": 31,
              "position": 14.989583333333334,
              "duration": 0.010416666666666666
            },
            {
              "pitch": 77,
              "velocity": 14,
              "position": 15.260416666666666,
              "duration": 0.010416666666666666
            },
            {
              "pitch": 81,
              "velocity": 27,
              "position": 15.260416666666666,
              "duration": 0.010416666666666666
            },
            {
              "pitch": 77,
              "velocity": 44,
              "position": 15.489583333333334,
              "duration": 0.010416666666666666
            },
            {
              "pitch": 81,
              "velocity": 48,
              "position": 15.489583333333334,
              "duration": 0.010416666666666666
            },
            {
              "pitch": 80,
              "velocity": 19,
              "position": 15.739583333333334,
              "duration": 0.010416666666666666
            }
          ]
        },
        "9": {
          "ctab": {
            "srcChannel": 9,
            "name": "Drs",
            "accType": "RHYTHM",
            "editable": false,
            "mutedNotes": [],
            "mutedChords": [],
            "autoStart": true,
            "sourceChordNote": 0,
            "sourceChordType": "Maj7",
            "ctb2Low": null,
            "ctb2Main": {
              "ntr": "ROOT_FIXED",
              "ntt": "BYPASS",
              "bassOn": false,
              "chordRootUpperLimit": 6,
              "noteLowLimit": 0,
              "noteHighLimit": 127,
              "rtr": "PITCH_SHIFT"
            },
            "ctb2High": null
          },
          "notes": [
            {
              "pitch": 35,
              "velocity": 93,
              "position": 0,
              "duration": 0.010416666666666666
            },
            {
              "pitch": 42,
              "velocity": 80,
              "position": 0,
              "duration": 0.010416666666666666
            },
            {
              "pitch": 42,
              "velocity": 50,
              "position": 0.2604166666666667,
              "duration": 0.010416666666666666
            },
            {
              "pitch": 42,
              "velocity": 60,
              "position": 0.4895833333333333,
              "duration": 0.010416666666666666
            },
            {
              "pitch": 42,
              "velocity": 80,
              "position": 0.7395833333333334,
              "duration": 0.010416666666666666
            },
            {
              "pitch": 35,
              "velocity": 93,
              "position": 0.75,
              "duration": 0.010416666666666666
            },
            {
              "pitch": 42,
              "velocity": 80,
              "position": 0.9895833333333334,
              "duration": 0.010416666666666666
            },
            {
              "pitch": 42,
              "velocity": 50,
              "position": 1.2604166666666667,
              "duration": 0.010416666666666666
            },
            {
              "pitch": 42,
              "velocity": 60,
              "position": 1.4895833333333333,
              "duration": 0.010416666666666666
            },
            {
              "pitch": 46,
              "velocity": 50,
              "position": 1.7395833333333333,
              "duration": 0.010416666666666666
            },
            {
              "pitch": 42,
              "velocity": 80,
              "position": 1.9895833333333333,
              "duration": 0.010416666666666666
            },
            {
              "pitch": 35,
              "velocity": 93,
              "position": 2,
              "duration": 0.010416666666666666
            },
            {
              "pitch": 42,
              "velocity": 50,
              "position": 2.2604166666666665,
              "duration": 0.010416666666666666
            },
            {
              "pitch": 42,
              "velocity": 60,
              "position": 2.4895833333333335,
              "duration": 0.010416666666666666
            },
            {
              "pitch": 42,
              "velocity": 80,
              "position": 2.7395833333333335,
              "duration": 0.010416666666666666
            },
            {
              "pitch": 35,
              "velocity": 93,
              "position": 2.75,
              "duration": 0.010416666666666666
            },
            {
              "pitch": 42,
              "velocity": 80,
              "position": 2.9895833333333335,
              "duration": 0.010416666666666666
            },
            {
              "pitch": 42,
              "velocity": 50,
              "position": 3.2604166666666665,
              "duration": 0.010416666666666666
            },
            {
              "pitch": 42,
              "velocity": 60,
              "position": 3.4895833333333335,
              "duration": 0.010416666666666666
            },
            {
              "pitch": 42,
              "velocity": 80,
              "position": 3.7395833333333335,
              "duration": 0.010416666666666666
            },
            {
              "pitch": 35,
              "velocity": 93,
              "position": 4,
              "duration": 0.010416666666666666
            },
            {
              "pitch": 42,
              "velocity": 80,
              "position": 4,
              "duration": 0.010416666666666666
            },
            {
              "pitch": 42,
              "velocity": 50,
              "position": 4.260416666666667,
              "duration": 0.010416666666666666
            },
            {
              "pitch": 42,
              "velocity": 60,
              "position": 4.489583333333333,
              "duration": 0.010416666666666666
            },
            {
              "pitch": 42,
              "velocity": 80,
              "position": 4.739583333333333,
              "duration": 0.010416666666666666
            },
            {
              "pitch": 35,
              "velocity": 93,
              "position": 4.75,
              "duration": 0.010416666666666666
            },
            {
              "pitch": 42,
              "velocity": 80,
              "position": 4.989583333333333,
              "duration": 0.010416666666666666
            },
            {
              "pitch": 42,
              "velocity": 50,
              "position": 5.260416666666667,
              "duration": 0.010416666666666666
            },
            {
              "pitch": 42,
              "velocity": 60,
              "position": 5.489583333333333,
              "duration": 0.010416666666666666
            },
            {
              "pitch": 42,
              "velocity": 80,
              "position": 5.739583333333333,
              "duration": 0.010416666666666666
            },
            {
              "pitch": 42,
              "velocity": 80,
              "position": 5.989583333333333,
              "duration": 0.010416666666666666
            },
            {
              "pitch": 35,
              "velocity": 93,
              "position": 6,
              "duration": 0.010416666666666666
            },
            {
              "pitch": 46,
              "velocity": 50,
              "position": 6.260416666666667,
              "duration": 0.010416666666666666
            },
            {
              "pitch": 42,
              "velocity": 60,
              "position": 6.489583333333333,
              "duration": 0.010416666666666666
            },
            {
              "pitch": 42,
              "velocity": 80,
              "position": 6.739583333333333,
              "duration": 0.010416666666666666
            },
            {
              "pitch": 35,
              "velocity": 93,
              "position": 6.75,
              "duration": 0.010416666666666666
            },
            {
              "pitch": 42,
              "velocity": 80,
              "position": 6.989583333333333,
              "duration": 0.010416666666666666
            },
            {
              "pitch": 42,
              "velocity": 50,
              "position": 7.260416666666667,
              "duration": 0.010416666666666666
            },
            {
              "pitch": 42,
              "velocity": 60,
              "position": 7.489583333333333,
              "duration": 0.010416666666666666
            },
            {
              "pitch": 42,
              "velocity": 80,
              "position": 7.739583333333333,
              "duration": 0.010416666666666666
            },
            {
              "pitch": 35,
              "velocity": 93,
              "position": 8,
              "duration": 0.010416666666666666
            },
            {
              "pitch": 42,
              "velocity": 80,
              "position": 8,
              "duration": 0.010416666666666666
            },
            {
              "pitch": 42,
              "velocity": 50,
              "position": 8.260416666666666,
              "duration": 0.010416666666666666
            },
            {
              "pitch": 42,
              "velocity": 60,
              "position": 8.489583333333334,
              "duration": 0.010416666666666666
            },
            {
              "pitch": 42,
              "velocity": 80,
              "position": 8.739583333333334,
              "duration": 0.010416666666666666
            },
            {
              "pitch": 35,
              "velocity": 93,
              "position": 8.75,
              "duration": 0.010416666666666666
            },
            {
              "pitch": 42,
              "velocity": 80,
              "position": 8.989583333333334,
              "duration": 0.010416666666666666
            },
            {
              "pitch": 42,
              "velocity": 50,
              "position": 9.260416666666666,
              "duration": 0.010416666666666666
            },
            {
              "pitch": 42,
              "velocity": 60,
              "position": 9.489583333333334,
              "duration": 0.010416666666666666
            },
            {
              "pitch": 46,
              "velocity": 50,
              "position": 9.739583333333334,
              "duration": 0.010416666666666666
            },
            {
              "pitch": 42,
              "velocity": 80,
              "position": 9.989583333333334,
              "duration": 0.010416666666666666
            },
            {
              "pitch": 35,
              "velocity": 93,
              "position": 10,
              "duration": 0.010416666666666666
            },
            {
              "pitch": 42,
              "velocity": 50,
              "position": 10.260416666666666,
              "duration": 0.010416666666666666
            },
            {
              "pitch": 42,
              "velocity": 60,
              "position": 10.489583333333334,
              "duration": 0.010416666666666666
            },
            {
              "pitch": 42,
              "velocity": 80,
              "position": 10.739583333333334,
              "duration": 0.010416666666666666
            },
            {
              "pitch": 35,
              "velocity": 93,
              "position": 10.75,
              "duration": 0.010416666666666666
            },
            {
              "pitch": 42,
              "velocity": 80,
              "position": 10.989583333333334,
              "duration": 0.010416666666666666
            },
            {
              "pitch": 42,
              "velocity": 50,
              "position": 11.260416666666666,
              "duration": 0.010416666666666666
            },
            {
              "pitch": 42,
              "velocity": 60,
              "position": 11.489583333333334,
              "duration": 0.010416666666666666
            },
            {
              "pitch": 42,
              "velocity": 80,
              "position": 11.739583333333334,
              "duration": 0.010416666666666666
            },
            {
              "pitch": 35,
              "velocity": 93,
              "position": 12,
              "duration": 0.010416666666666666
            },
            {
              "pitch": 42,
              "velocity": 80,
              "position": 12,
              "duration": 0.010416666666666666
            },
            {
              "pitch": 42,
              "velocity": 50,
              "position": 12.260416666666666,
              "duration": 0.010416666666666666
            },
            {
              "pitch": 42,
              "velocity": 60,
              "position": 12.489583333333334,
              "duration": 0.010416666666666666
            },
            {
              "pitch": 42,
              "velocity": 80,
              "position": 12.739583333333334,
              "duration": 0.010416666666666666
            },
            {
              "pitch": 35,
              "velocity": 93,
              "position": 12.75,
              "duration": 0.010416666666666666
            },
            {
              "pitch": 42,
              "velocity": 80,
              "position": 12.989583333333334,
              "duration": 0.010416666666666666
            },
            {
              "pitch": 42,
              "velocity": 50,
              "position": 13.260416666666666,
              "duration": 0.010416666666666666
            },
            {
              "pitch": 42,
              "velocity": 60,
              "position": 13.489583333333334,
              "duration": 0.010416666666666666
            },
            {
              "pitch": 42,
              "velocity": 80,
              "position": 13.739583333333334,
              "duration": 0.010416666666666666
            },
            {
              "pitch": 42,
              "velocity": 80,
              "position": 13.989583333333334,
              "duration": 0.010416666666666666
            },
            {
              "pitch": 35,
              "velocity": 93,
              "position": 14,
              "duration": 0.010416666666666666
            },
            {
              "pitch": 46,
              "velocity": 50,
              "position": 14.260416666666666,
              "duration": 0.010416666666666666
            },
            {
              "pitch": 42,
              "velocity": 60,
              "position": 14.489583333333334,
              "duration": 0.010416666666666666
            },
            {
              "pitch": 42,
              "velocity": 80,
              "position": 14.739583333333334,
              "duration": 0.010416666666666666
            },
            {
              "pitch": 35,
              "velocity": 93,
              "position": 14.75,
              "duration": 0.010416666666666666
            },
            {
              "pitch": 42,
              "velocity": 80,
              "position": 14.989583333333334,
              "duration": 0.010416666666666666
            },
            {
              "pitch": 42,
              "velocity": 50,
              "position": 15.260416666666666,
              "duration": 0.010416666666666666
            },
            {
              "pitch": 42,
              "velocity": 60,
              "position": 15.489583333333334,
              "duration": 0.010416666666666666
            },
            {
              "pitch": 42,
              "velocity": 80,
              "position": 15.739583333333334,
              "duration": 0.010416666666666666
            }
          ]
        },
        "10": {
          "ctab": {
            "srcChannel": 10,
            "name": "Bass",
            "accType": "BASS",
            "editable": false,
            "mutedNotes": [],
            "mutedChords": [],
            "autoStart": false,
            "sourceChordNote": 0,
            "sourceChordType": "Maj7",
            "ctb2Low": null,
            "ctb2Main": {
              "ntr": "ROOT_TRANSPOSITION",
              "ntt": "MELODY",
              "bassOn": true,
              "chordRootUpperLimit": 3,
              "noteLowLimit": 28,
              "noteHighLimit": 127,
              "rtr": "PITCH_SHIFT_TO_ROOT"
            },
            "ctb2High": null
          },
          "notes": [
            {
              "pitch": 24,
              "velocity": 98,
              "position": 0,
              "duration": 0.71875
            },
            {
              "pitch": 31,
              "velocity": 98,
              "position": 0.75,
              "duration": 0.7291666666666666
            },
            {
              "pitch": 24,
              "velocity": 98,
              "position": 1.5,
              "duration": 1.1875
            },
            {
              "pitch": 31,
              "velocity": 98,
              "position": 2.75,
              "duration": 0.7291666666666666
            },
            {
              "pitch": 24,
              "velocity": 98,
              "position": 3.5,
              "duration": 1.2395833333333333
            },
            {
              "pitch": 31,
              "velocity": 98,
              "position": 4.75,
              "duration": 0.71875
            },
            {
              "pitch": 24,
              "velocity": 98,
              "position": 5.5,
              "duration": 1.1666666666666667
            },
            {
              "pitch": 31,
              "velocity": 98,
              "position": 6.75,
              "duration": 0.7395833333333334
            },
            {
              "pitch": 24,
              "velocity": 98,
              "position": 7.5,
              "duration": 1.2395833333333333
            },
            {
              "pitch": 31,
              "velocity": 98,
              "position": 8.75,
              "duration": 0.6979166666666666
            },
            {
              "pitch": 24,
              "velocity": 98,
              "position": 9.5,
              "duration": 1.2395833333333333
            },
            {
              "pitch": 31,
              "velocity": 98,
              "position": 10.75,
              "duration": 0.7083333333333334
            },
            {
              "pitch": 24,
              "velocity": 98,
              "position": 11.5,
              "duration": 1.2395833333333333
            },
            {
              "pitch": 31,
              "velocity": 98,
              "position": 12.75,
              "duration": 0.7395833333333334
            },
            {
              "pitch": 24,
              "velocity": 98,
              "position": 13.5,
              "duration": 1.2083333333333333
            },
            {
              "pitch": 31,
              "velocity": 98,
              "position": 14.75,
              "duration": 0.7395833333333334
            },
            {
              "pitch": 24,
              "velocity": 98,
              "position": 15.5,
              "duration": 0.23958333333333334
            },
            {
              "pitch": 31,
              "velocity": 63,
              "position": 15.75,
              "duration": 0.22916666666666666
            }
          ]
        },
        "11": {
          "ctab": {
            "srcChannel": 11,
            "name": "NGt",
            "accType": "CHORD1",
            "editable": false,
            "mutedNotes": [],
            "mutedChords": [],
            "autoStart": false,
            "sourceChordNote": 0,
            "sourceChordType": "Maj7",
            "ctb2Low": null,
            "ctb2Main": {
              "ntr": "ROOT_FIXED",
              "ntt": "CHORD",
              "bassOn": false,
              "chordRootUpperLimit": 7,
              "noteLowLimit": 0,
              "noteHighLimit": 127,
              "rtr": "PITCH_SHIFT"
            },
            "ctb2High": null
          },
          "notes": [
            {
              "pitch": 55,
              "velocity": 91,
              "position": 0,
              "duration": 0.08333333333333333
            },
            {
              "pitch": 59,
              "velocity": 82,
              "position": 0,
              "duration": 0.125
            },
            {
              "pitch": 64,
              "velocity": 77,
              "position": 0,
              "duration": 0.13541666666666666
            },
            {
              "pitch": 64,
              "velocity": 89,
              "position": 0.75,
              "duration": 0.625
            },
            {
              "pitch": 55,
              "velocity": 85,
              "position": 0.75,
              "duration": 0.65625
            },
            {
              "pitch": 59,
              "velocity": 89,
              "position": 0.75,
              "duration": 0.6666666666666666
            },
            {
              "pitch": 59,
              "velocity": 85,
              "position": 2,
              "duration": 0.125
            },
            {
              "pitch": 64,
              "velocity": 86,
              "position": 2,
              "duration": 0.125
            },
            {
              "pitch": 55,
              "velocity": 85,
              "position": 2,
              "duration": 0.13541666666666666
            },
            {
              "pitch": 64,
              "velocity": 80,
              "position": 2.75,
              "duration": 0.5625
            },
            {
              "pitch": 59,
              "velocity": 84,
              "position": 2.75,
              "duration": 0.59375
            },
            {
              "pitch": 55,
              "velocity": 84,
              "position": 2.75,
              "duration": 0.6145833333333334
            },
            {
              "pitch": 59,
              "velocity": 84,
              "position": 4,
              "duration": 0.08333333333333333
            },
            {
              "pitch": 55,
              "velocity": 83,
              "position": 4,
              "duration": 0.11458333333333333
            },
            {
              "pitch": 64,
              "velocity": 91,
              "position": 4,
              "duration": 0.125
            },
            {
              "pitch": 59,
              "velocity": 79,
              "position": 4.75,
              "duration": 0.7604166666666666
            },
            {
              "pitch": 64,
              "velocity": 88,
              "position": 4.75,
              "duration": 0.7604166666666666
            },
            {
              "pitch": 55,
              "velocity": 88,
              "position": 4.75,
              "duration": 0.7916666666666666
            },
            {
              "pitch": 64,
              "velocity": 91,
              "position": 6,
              "duration": 0.5729166666666666
            },
            {
              "pitch": 55,
              "velocity": 89,
              "position": 6,
              "duration": 0.5833333333333334
            },
            {
              "pitch": 59,
              "velocity": 93,
              "position": 6,
              "duration": 0.59375
            },
            {
              "pitch": 59,
              "velocity": 70,
              "position": 6.75,
              "duration": 0.125
            },
            {
              "pitch": 55,
              "velocity": 73,
              "position": 6.75,
              "duration": 0.13541666666666666
            },
            {
              "pitch": 64,
              "velocity": 69,
              "position": 6.75,
              "duration": 0.14583333333333334
            },
            {
              "pitch": 55,
              "velocity": 86,
              "position": 7.25,
              "duration": 0.10416666666666667
            },
            {
              "pitch": 59,
              "velocity": 78,
              "position": 7.25,
              "duration": 0.10416666666666667
            },
            {
              "pitch": 64,
              "velocity": 91,
              "position": 7.25,
              "duration": 0.11458333333333333
            },
            {
              "pitch": 59,
              "velocity": 82,
              "position": 8,
              "duration": 0.08333333333333333
            },
            {
              "pitch": 55,
              "velocity": 91,
              "position": 8,
              "duration": 0.10416666666666667
            },
            {
              "pitch": 64,
              "velocity": 80,
              "position": 8,
              "duration": 0.125
            },
            {
              "pitch": 64,
              "velocity": 92,
              "position": 8.75,
              "duration": 0.5625
            },
            {
              "pitch": 55,
              "velocity": 80,
              "position": 8.75,
              "duration": 0.5729166666666666
            },
            {
              "pitch": 59,
              "velocity": 85,
              "position": 8.75,
              "duration": 0.5729166666666666
            },
            {
              "pitch": 59,
              "velocity": 92,
              "position": 10,
              "duration": 0.07291666666666667
            },
            {
              "pitch": 55,
              "velocity": 86,
              "position": 10,
              "duration": 0.125
            },
            {
              "pitch": 64,
              "velocity": 92,
              "position": 10,
              "duration": 0.13541666666666666
            },
            {
              "pitch": 55,
              "velocity": 85,
              "position": 10.75,
              "duration": 0.6979166666666666
            },
            {
              "pitch": 64,
              "velocity": 79,
              "position": 10.75,
              "duration": 0.6979166666666666
            },
            {
              "pitch": 59,
              "velocity": 81,
              "position": 10.75,
              "duration": 0.75
            },
            {
              "pitch": 59,
              "velocity": 79,
              "position": 12,
              "duration": 0.08333333333333333
            },
            {
              "pitch": 55,
              "velocity": 79,
              "position": 12,
              "duration": 0.11458333333333333
            },
            {
              "pitch": 64,
              "velocity": 81,
              "position": 12,
              "duration": 0.13541666666666666
            },
            {
              "pitch": 55,
              "velocity": 91,
              "position": 12.75,
              "duration": 0.8125
            },
            {
              "pitch": 59,
              "velocity": 78,
              "position": 12.75,
              "duration": 0.8645833333333334
            },
            {
              "pitch": 64,
              "velocity": 88,
              "position": 12.75,
              "duration": 0.875
            },
            {
              "pitch": 64,
              "velocity": 91,
              "position": 14,
              "duration": 0.125
            },
            {
              "pitch": 59,
              "velocity": 93,
              "position": 14,
              "duration": 0.13541666666666666
            },
            {
              "pitch": 55,
              "velocity": 84,
              "position": 14,
              "duration": 0.1875
            },
            {
              "pitch": 59,
              "velocity": 93,
              "position": 14.75,
              "duration": 0.8125
            },
            {
              "pitch": 55,
              "velocity": 80,
              "position": 14.75,
              "duration": 0.8229166666666666
            },
            {
              "pitch": 64,
              "velocity": 87,
              "position": 14.75,
              "duration": 0.8541666666666666
            }
          ]
        },
        "12": {
          "ctab": {
            "srcChannel": 12,
            "name": "Pno",
            "accType": "CHORD2",
            "editable": false,
            "mutedNotes": [],
            "mutedChords": [],
            "autoStart": false,
            "sourceChordNote": 0,
            "sourceChordType": "Maj7",
            "ctb2Low": null,
            "ctb2Main": {
              "ntr": "ROOT_FIXED",
              "ntt": "CHORD",
              "bassOn": false,
              "chordRootUpperLimit": 7,
              "noteLowLimit": 0,
              "noteHighLimit": 127,
              "rtr": "PITCH_SHIFT"
            },
            "ctb2High": null
          },
          "notes": [
            {
              "pitch": 64,
              "velocity": 69,
              "position": 0,
              "duration": 3.9791666666666665
            },
            {
              "pitch": 55,
              "velocity": 77,
              "position": 0,
              "duration": 3.9895833333333335
            },
            {
              "pitch": 59,
              "velocity": 69,
              "position": 0,
              "duration": 3.9895833333333335
            },
            {
              "pitch": 55,
              "velocity": 73,
              "position": 4,
              "duration": 3.9791666666666665
            },
            {
              "pitch": 64,
              "velocity": 75,
              "position": 4,
              "duration": 3.9791666666666665
            },
            {
              "pitch": 59,
              "velocity": 65,
              "position": 4,
              "duration": 3.9895833333333335
            },
            {
              "pitch": 59,
              "velocity": 63,
              "position": 8,
              "duration": 3.9791666666666665
            },
            {
              "pitch": 55,
              "velocity": 73,
              "position": 8,
              "duration": 3.9895833333333335
            },
            {
              "pitch": 64,
              "velocity": 72,
              "position": 8,
              "duration": 3.9895833333333335
            },
            {
              "pitch": 55,
              "velocity": 73,
              "position": 12,
              "duration": 1.875
            },
            {
              "pitch": 64,
              "velocity": 67,
              "position": 12,
              "duration": 1.8958333333333333
            },
            {
              "pitch": 59,
              "velocity": 73,
              "position": 12,
              "duration": 1.9375
            },
            {
              "pitch": 64,
              "velocity": 70,
              "position": 14,
              "duration": 0.6145833333333334
            },
            {
              "pitch": 55,
              "velocity": 69,
              "position": 14,
              "duration": 0.625
            },
            {
              "pitch": 59,
              "velocity": 64,
              "position": 14,
              "duration": 0.625
            },
            {
              "pitch": 64,
              "velocity": 61,
              "position": 14.75,
              "duration": 0.13541666666666666
            },
            {
              "pitch": 59,
              "velocity": 53,
              "position": 14.75,
              "duration": 0.15625
            },
            {
              "pitch": 55,
              "velocity": 53,
              "position": 14.75,
              "duration": 0.16666666666666666
            },
            {
              "pitch": 55,
              "velocity": 63,
              "position": 15.25,
              "duration": 0.14583333333333334
            },
            {
              "pitch": 59,
              "velocity": 73,
              "position": 15.25,
              "duration": 0.14583333333333334
            },
            {
              "pitch": 64,
              "velocity": 74,
              "position": 15.25,
              "duration": 0.16666666666666666
            }
          ]
        },
        "13": {
          "ctab": {
            "srcChannel": 13,
            "name": "Str",
            "accType": "PAD",
            "editable": false,
            "mutedNotes": [],
            "mutedChords": [],
            "autoStart": false,
            "sourceChordNote": 0,
            "sourceChordType": "Maj7",
            "ctb2Low": null,
            "ctb2Main": {
              "ntr": "ROOT_FIXED",
              "ntt": "CHORD",
              "bassOn": false,
              "chordRootUpperLimit": 7,
              "noteLowLimit": 0,
              "noteHighLimit": 127,
              "rtr": "PITCH_SHIFT"
            },
            "ctb2High": null
          },
          "notes": [
            {
              "pitch": 55,
              "velocity": 46,
              "position": 0,
              "duration": 15.989583333333334
            },
            {
              "pitch": 59,
              "velocity": 46,
              "position": 0,
              "duration": 15.989583333333334
            },
            {
              "pitch": 64,
              "velocity": 46,
              "position": 0,
              "duration": 15.989583333333334
            },
            {
              "pitch": 72,
              "velocity": 46,
              "position": 0,
              "duration": 15.989583333333334
            }
          ]
        }
      }
    },
    "Fill_In_AA": {
      "type": "Fill_In_AA",
      "sizeInBeats": 4,
      "channels": {
        "2": {
          "ctab": {
            "srcChannel": 2,
            "name": "NGt Root",
            "accType": "CHORD1",
            "editable": false,
            "mutedNotes": [],
            "mutedChords": [
              "1+2+5",
              "sus4",
              "1+5",
              "1+8",
              "Maj7aug",
              "dim",
              "minMaj7(9)",
              "minMaj7",
              "min6",
              "min",
              "aug",
              "Maj7(9)",
              "Maj7#11",
              "Maj7",
              "Maj6",
              "Maj"
            ],
            "autoStart": false,
            "sourceChordNote": 0,
            "sourceChordType": "Maj7",
            "ctb2Low": null,
            "ctb2Main": {
              "ntr": "ROOT_TRANSPOSITION",
              "ntt": "CHORD",
              "bassOn": false,
              "chordRootUpperLimit": 6,
              "noteLowLimit": 0,
              "noteHighLimit": 127,
              "rtr": "PITCH_SHIFT"
            },
            "ctb2High": null
          },
          "notes": [
            {
              "pitch": 60,
              "velocity": 63,
              "position": 0,
              "duration": 0.10416666666666667
            },
            {
              "pitch": 60,
              "velocity": 85,
              "position": 0.5,
              "duration": 0.59375
            },
            {
              "pitch": 60,
              "velocity": 57,
              "position": 1.25,
              "duration": 0.10416666666666667
            },
            {
              "pitch": 60,
              "velocity": 71,
              "position": 1.75,
              "duration": 0.10416666666666667
            },
            {
              "pitch": 60,
              "velocity": 78,
              "position": 2.25,
              "duration": 0.59375
            },
            {
              "pitch": 60,
              "velocity": 93,
              "position": 3,
              "duration": 0.10416666666666667
            },
            {
              "pitch": 60,
              "velocity": 61,
              "position": 3.5,
              "duration": 0.10416666666666667
            }
          ]
        },
        "4": {
          "ctab": {
            "srcChannel": 4,
            "name": "Str Root",
            "accType": "PAD",
            "editable": false,
            "mutedNotes": [],
            "mutedChords": [
              "1+2+5",
              "sus4",
              "1+5",
              "1+8",
              "Maj7aug",
              "dim",
              "minMaj7(9)",
              "minMaj7",
              "min6",
              "min",
              "aug",
              "Maj7(9)",
              "Maj7#11",
              "Maj7",
              "Maj6",
              "Maj"
            ],
            "autoStart": false,
            "sourceChordNote": 0,
            "sourceChordType": "Maj7",
            "ctb2Low": null,
            "ctb2Main": {
              "ntr": "ROOT_TRANSPOSITION",
              "ntt": "CHORD",
              "bassOn": false,
              "chordRootUpperLimit": 6,
              "noteLowLimit": 0,
              "noteHighLimit": 127,
              "rtr": "PITCH_SHIFT"
            },
            "ctb2High": null
          },
          "notes": [
            {
              "pitch": 60,
              "velocity": 46,
              "position": 0,
              "duration": 3.9895833333333335
            }
          ]
        },
        "7": {
          "ctab": {
            "srcChannel": 7,
            "name": "CC_Crash",
            "accType": "RHYTHM",
            "editable": false,
            "mutedNotes": [],
            "mutedChords": [
              "1+2+5",
              "sus4",
              "1+5",
              "1+8",
              "7aug",
              "Maj7aug",
              "7(#9)",
              "7(b13)",
              "7(b9)",
              "7(13)",
              "7#11",
              "7(9)",
              "7b5",
              "7sus4",
              "7th",
              "dim7",
              "dim",
              "minMaj7(9)",
              "minMaj7",
              "min7(11)",
              "min7(9)",
              "min(9)",
              "m7b5",
              "min7",
              "min6",
              "min",
              "aug",
              "Maj6(9)",
              "Maj7(9)",
              "Maj(9)",
              "Maj7#11",
              "Maj7",
              "Maj6",
              "Maj"
            ],
            "autoStart": true,
            "sourceChordNote": 0,
            "sourceChordType": "Maj",
            "ctb2Low": null,
            "ctb2Main": {
              "ntr": "ROOT_FIXED",
              "ntt": "BYPASS",
              "bassOn": false,
              "chordRootUpperLimit": 0,
              "noteLowLimit": 0,
              "noteHighLimit": 127,
              "rtr": "RETRIGGER"
            },
            "ctb2High": null
          },
          "notes": []
        },
        "8": {
          "ctab": {
            "srcChannel": 8,
            "name": "Perc",
            "accType": "SUBRHYTHM",
            "editable": false,
            "mutedNotes": [],
            "mutedChords": [],
            "autoStart": true,
            "sourceChordNote": 0,
            "sourceChordType": "Maj7",
            "ctb2Low": null,
            "ctb2Main": {
              "ntr": "ROOT_FIXED",
              "ntt": "BYPASS",
              "bassOn": false,
              "chordRootUpperLimit": 6,
              "noteLowLimit": 0,
              "noteHighLimit": 127,
              "rtr": "PITCH_SHIFT"
            },
            "ctb2High": null
          },
          "notes": [
            {
              "pitch": 82,
              "velocity": 46,
              "position": 0,
              "duration": 0.010416666666666666
            },
            {
              "pitch": 82,
              "velocity": 29,
              "position": 0.2604166666666667,
              "duration": 0.010416666666666666
            },
            {
              "pitch": 82,
              "velocity": 46,
              "position": 0.4895833333333333,
              "duration": 0.010416666666666666
            },
            {
              "pitch": 82,
              "velocity": 63,
              "position": 0.7395833333333334,
              "duration": 0.010416666666666666
            },
            {
              "pitch": 82,
              "velocity": 46,
              "position": 0.9895833333333334,
              "duration": 0.010416666666666666
            },
            {
              "pitch": 82,
              "velocity": 29,
              "position": 1.2604166666666667,
              "duration": 0.010416666666666666
            },
            {
              "pitch": 82,
              "velocity": 46,
              "position": 1.4895833333333333,
              "duration": 0.010416666666666666
            },
            {
              "pitch": 82,
              "velocity": 63,
              "position": 1.7395833333333333,
              "duration": 0.010416666666666666
            },
            {
              "pitch": 82,
              "velocity": 46,
              "position": 1.9895833333333333,
              "duration": 0.010416666666666666
            },
            {
              "pitch": 82,
              "velocity": 29,
              "position": 2.2604166666666665,
              "duration": 0.010416666666666666
            },
            {
              "pitch": 82,
              "velocity": 46,
              "position": 2.4895833333333335,
              "duration": 0.010416666666666666
            },
            {
              "pitch": 82,
              "velocity": 63,
              "position": 2.7395833333333335,
              "duration": 0.010416666666666666
            },
            {
              "pitch": 82,
              "velocity": 46,
              "position": 2.9895833333333335,
              "duration": 0.010416666666666666
            },
            {
              "pitch": 82,
              "velocity": 29,
              "position": 3.2604166666666665,
              "duration": 0.010416666666666666
            },
            {
              "pitch": 82,
              "velocity": 46,
              "position": 3.4895833333333335,
              "duration": 0.010416666666666666
            },
            {
              "pitch": 82,
              "velocity": 63,
              "position": 3.7395833333333335,
              "duration": 0.010416666666666666
            }
          ]
        },
        "9": {
          "ctab": {
            "srcChannel": 9,
            "name": "Drs",
            "accType": "RHYTHM",
            "editable": false,
            "mutedNotes": [],
            "mutedChords": [],
            "autoStart": true,
            "sourceChordNote": 0,
            "sourceChordType": "Maj7",
            "ctb2Low": null,
            "ctb2Main": {
              "ntr": "ROOT_FIXED",
              "ntt": "BYPASS",
              "bassOn": false,
              "chordRootUpperLimit": 6,
              "noteLowLimit": 0,
              "noteHighLimit": 127,
              "rtr": "PITCH_SHIFT"
            },
            "ctb2High": null
          },
          "notes": [
            {
              "pitch": 35,
              "velocity": 93,
              "position": 0,
              "duration": 0.010416666666666666
            },
            {
              "pitch": 37,
              "velocity": 48,
              "position": 0,
              "duration": 0.010416666666666666
            },
            {
              "pitch": 42,
              "velocity": 80,
              "position": 0,
              "duration": 0.010416666666666666
            },
            {
              "pitch": 42,
              "velocity": 50,
              "position": 0.2604166666666667,
              "duration": 0.010416666666666666
            },
            {
              "pitch": 37,
              "velocity": 68,
              "position": 0.4895833333333333,
              "duration": 0.010416666666666666
            },
            {
              "pitch": 42,
              "velocity": 60,
              "position": 0.4895833333333333,
              "duration": 0.010416666666666666
            },
            {
              "pitch": 42,
              "velocity": 80,
              "position": 0.7395833333333334,
              "duration": 0.010416666666666666
            },
            {
              "pitch": 35,
              "velocity": 63,
              "position": 0.75,
              "duration": 0.010416666666666666
            },
            {
              "pitch": 42,
              "velocity": 80,
              "position": 0.9895833333333334,
              "duration": 0.010416666666666666
            },
            {
              "pitch": 35,
              "velocity": 93,
              "position": 1,
              "duration": 0.010416666666666666
            },
            {
              "pitch": 31,
              "velocity": 44,
              "position": 1.2604166666666667,
              "duration": 0.010416666666666666
            },
            {
              "pitch": 42,
              "velocity": 50,
              "position": 1.2604166666666667,
              "duration": 0.010416666666666666
            },
            {
              "pitch": 42,
              "velocity": 60,
              "position": 1.4895833333333333,
              "duration": 0.010416666666666666
            },
            {
              "pitch": 42,
              "velocity": 80,
              "position": 1.7395833333333333,
              "duration": 0.010416666666666666
            },
            {
              "pitch": 47,
              "velocity": 60,
              "position": 1.7395833333333333,
              "duration": 0.010416666666666666
            },
            {
              "pitch": 35,
              "velocity": 63,
              "position": 1.75,
              "duration": 0.010416666666666666
            },
            {
              "pitch": 42,
              "velocity": 80,
              "position": 1.9895833333333333,
              "duration": 0.010416666666666666
            },
            {
              "pitch": 35,
              "velocity": 93,
              "position": 2,
              "duration": 0.010416666666666666
            },
            {
              "pitch": 31,
              "velocity": 77,
              "position": 2.2604166666666665,
              "duration": 0.010416666666666666
            },
            {
              "pitch": 46,
              "velocity": 50,
              "position": 2.2604166666666665,
              "duration": 0.010416666666666666
            },
            {
              "pitch": 42,
              "velocity": 60,
              "position": 2.4895833333333335,
              "duration": 0.010416666666666666
            },
            {
              "pitch": 31,
              "velocity": 60,
              "position": 2.7395833333333335,
              "duration": 0.010416666666666666
            },
            {
              "pitch": 42,
              "velocity": 80,
              "position": 2.7395833333333335,
              "duration": 0.010416666666666666
            },
            {
              "pitch": 35,
              "velocity": 63,
              "position": 2.75,
              "duration": 0.010416666666666666
            },
            {
              "pitch": 42,
              "velocity": 80,
              "position": 2.9895833333333335,
              "duration": 0.010416666666666666
            },
            {
              "pitch": 35,
              "velocity": 93,
              "position": 3,
              "duration": 0.010416666666666666
            },
            {
              "pitch": 29,
              "velocity": 60,
              "position": 2.7395833333333335,
              "duration": 0.5
            },
            {
              "pitch": 31,
              "velocity": 33,
              "position": 3.2604166666666665,
              "duration": 0.010416666666666666
            },
            {
              "pitch": 42,
              "velocity": 50,
              "position": 3.2604166666666665,
              "duration": 0.010416666666666666
            },
            {
              "pitch": 40,
              "velocity": 37,
              "position": 3.4895833333333335,
              "duration": 0.010416666666666666
            },
            {
              "pitch": 42,
              "velocity": 60,
              "position": 3.4895833333333335,
              "duration": 0.010416666666666666
            },
            {
              "pitch": 40,
              "velocity": 60,
              "position": 3.7395833333333335,
              "duration": 0.010416666666666666
            },
            {
              "pitch": 42,
              "velocity": 80,
              "position": 3.7395833333333335,
              "duration": 0.010416666666666666
            },
            {
              "pitch": 35,
              "velocity": 63,
              "position": 3.75,
              "duration": 0.010416666666666666
            },
            {
              "pitch": 49,
              "velocity": 60,
              "position": 3.9895833333333335,
              "duration": 0.010416666666666666
            }
          ]
        },
        "10": {
          "ctab": {
            "srcChannel": 10,
            "name": "Bass",
            "accType": "BASS",
            "editable": false,
            "mutedNotes": [],
            "mutedChords": [],
            "autoStart": false,
            "sourceChordNote": 0,
            "sourceChordType": "Maj7",
            "ctb2Low": null,
            "ctb2Main": {
              "ntr": "ROOT_TRANSPOSITION",
              "ntt": "MELODY",
              "bassOn": true,
              "chordRootUpperLimit": 3,
              "noteLowLimit": 28,
              "noteHighLimit": 127,
              "rtr": "PITCH_SHIFT_TO_ROOT"
            },
            "ctb2High": null
          },
          "notes": [
            {
              "pitch": 24,
              "velocity": 98,
              "position": 0,
              "duration": 0.2604166666666667
            },
            {
              "pitch": 24,
              "velocity": 80,
              "position": 0.75,
              "duration": 0.09375
            },
            {
              "pitch": 31,
              "velocity": 98,
              "position": 1,
              "duration": 0.9895833333333334
            },
            {
              "pitch": 24,
              "velocity": 98,
              "position": 2,
              "duration": 0.2604166666666667
            },
            {
              "pitch": 24,
              "velocity": 80,
              "position": 2.75,
              "duration": 0.09375
            },
            {
              "pitch": 31,
              "velocity": 98,
              "position": 3,
              "duration": 0.4895833333333333
            },
            {
              "pitch": 31,
              "velocity": 98,
              "position": 3.5,
              "duration": 0.4895833333333333
            }
          ]
        },
        "11": {
          "ctab": {
            "srcChannel": 11,
            "name": "NGt",
            "accType": "CHORD1",
            "editable": false,
            "mutedNotes": [],
            "mutedChords": [],
            "autoStart": false,
            "sourceChordNote": 0,
            "sourceChordType": "Maj7",
            "ctb2Low": null,
            "ctb2Main": {
              "ntr": "ROOT_FIXED",
              "ntt": "CHORD",
              "bassOn": false,
              "chordRootUpperLimit": 7,
              "noteLowLimit": 0,
              "noteHighLimit": 127,
              "rtr": "PITCH_SHIFT"
            },
            "ctb2High": null
          },
          "notes": [
            {
              "pitch": 55,
              "velocity": 65,
              "position": 0,
              "duration": 0.10416666666666667
            },
            {
              "pitch": 59,
              "velocity": 63,
              "position": 0,
              "duration": 0.10416666666666667
            },
            {
              "pitch": 64,
              "velocity": 67,
              "position": 0,
              "duration": 0.11458333333333333
            },
            {
              "pitch": 55,
              "velocity": 88,
              "position": 0.5,
              "duration": 0.59375
            },
            {
              "pitch": 59,
              "velocity": 85,
              "position": 0.5,
              "duration": 0.59375
            },
            {
              "pitch": 64,
              "velocity": 79,
              "position": 0.5,
              "duration": 0.6041666666666666
            },
            {
              "pitch": 55,
              "velocity": 50,
              "position": 1.25,
              "duration": 0.10416666666666667
            },
            {
              "pitch": 59,
              "velocity": 57,
              "position": 1.25,
              "duration": 0.10416666666666667
            },
            {
              "pitch": 64,
              "velocity": 52,
              "position": 1.25,
              "duration": 0.10416666666666667
            },
            {
              "pitch": 55,
              "velocity": 63,
              "position": 1.75,
              "duration": 0.09375
            },
            {
              "pitch": 59,
              "velocity": 71,
              "position": 1.75,
              "duration": 0.10416666666666667
            },
            {
              "pitch": 64,
              "velocity": 68,
              "position": 1.75,
              "duration": 0.10416666666666667
            },
            {
              "pitch": 55,
              "velocity": 83,
              "position": 2.25,
              "duration": 0.59375
            },
            {
              "pitch": 59,
              "velocity": 78,
              "position": 2.25,
              "duration": 0.59375
            },
            {
              "pitch": 64,
              "velocity": 82,
              "position": 2.25,
              "duration": 0.6041666666666666
            },
            {
              "pitch": 55,
              "velocity": 85,
              "position": 3,
              "duration": 0.09375
            },
            {
              "pitch": 59,
              "velocity": 93,
              "position": 3,
              "duration": 0.10416666666666667
            },
            {
              "pitch": 64,
              "velocity": 93,
              "position": 3,
              "duration": 0.10416666666666667
            },
            {
              "pitch": 55,
              "velocity": 63,
              "position": 3.5,
              "duration": 0.10416666666666667
            },
            {
              "pitch": 59,
              "velocity": 61,
              "position": 3.5,
              "duration": 0.10416666666666667
            },
            {
              "pitch": 64,
              "velocity": 67,
              "position": 3.5,
              "duration": 0.10416666666666667
            }
          ]
        },
        "12": {
          "ctab": {
            "srcChannel": 12,
            "name": "Pno",
            "accType": "CHORD2",
            "editable": false,
            "mutedNotes": [],
            "mutedChords": [],
            "autoStart": false,
            "sourceChordNote": 0,
            "sourceChordType": "Maj7",
            "ctb2Low": null,
            "ctb2Main": {
              "ntr": "ROOT_FIXED",
              "ntt": "CHORD",
              "bassOn": false,
              "chordRootUpperLimit": 7,
              "noteLowLimit": 0,
              "noteHighLimit": 127,
              "rtr": "PITCH_SHIFT"
            },
            "ctb2High": null
          },
          "notes": [
            {
              "pitch": 59,
              "velocity": 61,
              "position": 0.5,
              "duration": 0.14583333333333334
            },
            {
              "pitch": 64,
              "velocity": 49,
              "position": 0.5,
              "duration": 0.14583333333333334
            },
            {
              "pitch": 55,
              "velocity": 55,
              "position": 0.5,
              "duration": 0.16666666666666666
            },
            {
              "pitch": 59,
              "velocity": 77,
              "position": 1,
              "duration": 0.13541666666666666
            },
            {
              "pitch": 64,
              "velocity": 70,
              "position": 1,
              "duration": 0.13541666666666666
            },
            {
              "pitch": 67,
              "velocity": 63,
              "position": 1,
              "duration": 0.13541666666666666
            },
            {
              "pitch": 55,
              "velocity": 47,
              "position": 1.75,
              "duration": 0.13541666666666666
            },
            {
              "pitch": 59,
              "velocity": 45,
              "position": 1.75,
              "duration": 0.13541666666666666
            },
            {
              "pitch": 64,
              "velocity": 47,
              "position": 1.75,
              "duration": 0.13541666666666666
            },
            {
              "pitch": 59,
              "velocity": 63,
              "position": 2.25,
              "duration": 0.13541666666666666
            },
            {
              "pitch": 64,
              "velocity": 65,
              "position": 2.25,
              "duration": 0.13541666666666666
            },
            {
              "pitch": 67,
              "velocity": 65,
              "position": 2.25,
              "duration": 0.13541666666666666
            },
            {
              "pitch": 55,
              "velocity": 47,
              "position": 3,
              "duration": 0.13541666666666666
            },
            {
              "pitch": 59,
              "velocity": 45,
              "position": 3,
              "duration": 0.13541666666666666
            },
            {
              "pitch": 64,
              "velocity": 47,
              "position": 3,
              "duration": 0.13541666666666666
            },
            {
              "pitch": 59,
              "velocity": 63,
              "position": 3.5,
              "duration": 0.13541666666666666
            },
            {
              "pitch": 64,
              "velocity": 65,
              "position": 3.5,
              "duration": 0.13541666666666666
            },
            {
              "pitch": 67,
              "velocity": 65,
              "position": 3.5,
              "duration": 0.13541666666666666
            }
          ]
        },
        "13": {
          "ctab": {
            "srcChannel": 13,
            "name": "Str",
            "accType": "PAD",
            "editable": false,
            "mutedNotes": [],
            "mutedChords": [],
            "autoStart": false,
            "sourceChordNote": 0,
            "sourceChordType": "Maj7",
            "ctb2Low": null,
            "ctb2Main": {
              "ntr": "ROOT_FIXED",
              "ntt": "CHORD",
              "bassOn": false,
              "chordRootUpperLimit": 7,
              "noteLowLimit": 0,
              "noteHighLimit": 127,
              "rtr": "PITCH_SHIFT"
            },
            "ctb2High": null
          },
          "notes": [
            {
              "pitch": 55,
              "velocity": 46,
              "position": 0,
              "duration": 3.9895833333333335
            },
            {
              "pitch": 59,
              "velocity": 46,
              "position": 0,
              "duration": 3.9895833333333335
            },
            {
              "pitch": 64,
              "velocity": 46,
              "position": 0,
              "duration": 3.9895833333333335
            }
          ]
        }
      }
    },
    "Fill_In_BB": {
      "type": "Fill_In_BB",
      "sizeInBeats": 4,
      "channels": {
        "2": {
          "ctab": {
            "srcChannel": 2,
            "name": "NGt Root",
            "accType": "CHORD1",
            "editable": false,
            "mutedNotes": [],
            "mutedChords": [
              "1+2+5",
              "sus4",
              "1+5",
              "1+8",
              "Maj7aug",
              "dim",
              "minMaj7(9)",
              "minMaj7",
              "min6",
              "min",
              "aug",
              "Maj7(9)",
              "Maj7#11",
              "Maj7",
              "Maj6",
              "Maj"
            ],
            "autoStart": false,
            "sourceChordNote": 0,
            "sourceChordType": "Maj7",
            "ctb2Low": null,
            "ctb2Main": {
              "ntr": "ROOT_TRANSPOSITION",
              "ntt": "CHORD",
              "bassOn": false,
              "chordRootUpperLimit": 6,
              "noteLowLimit": 0,
              "noteHighLimit": 127,
              "rtr": "PITCH_SHIFT"
            },
            "ctb2High": null
          },
          "notes": [
            {
              "pitch": 60,
              "velocity": 63,
              "position": 0,
              "duration": 0.10416666666666667
            },
            {
              "pitch": 60,
              "velocity": 85,
              "position": 0.5,
              "duration": 0.59375
            },
            {
              "pitch": 60,
              "velocity": 57,
              "position": 1.25,
              "duration": 0.10416666666666667
            },
            {
              "pitch": 60,
              "velocity": 71,
              "position": 1.75,
              "duration": 0.10416666666666667
            },
            {
              "pitch": 60,
              "velocity": 78,
              "position": 2.25,
              "duration": 0.59375
            },
            {
              "pitch": 60,
              "velocity": 77,
              "position": 3,
              "duration": 0.3958333333333333
            },
            {
              "pitch": 60,
              "velocity": 61,
              "position": 3.5,
              "duration": 0.11458333333333333
            }
          ]
        },
        "4": {
          "ctab": {
            "srcChannel": 4,
            "name": "Str Root",
            "accType": "PAD",
            "editable": false,
            "mutedNotes": [],
            "mutedChords": [
              "1+2+5",
              "sus4",
              "1+5",
              "1+8",
              "Maj7aug",
              "dim",
              "minMaj7(9)",
              "minMaj7",
              "min6",
              "min",
              "aug",
              "Maj7(9)",
              "Maj7#11",
              "Maj7",
              "Maj6",
              "Maj"
            ],
            "autoStart": false,
            "sourceChordNote": 0,
            "sourceChordType": "Maj7",
            "ctb2Low": null,
            "ctb2Main": {
              "ntr": "ROOT_TRANSPOSITION",
              "ntt": "CHORD",
              "bassOn": false,
              "chordRootUpperLimit": 6,
              "noteLowLimit": 0,
              "noteHighLimit": 127,
              "rtr": "PITCH_SHIFT"
            },
            "ctb2High": null
          },
          "notes": [
            {
              "pitch": 60,
              "velocity": 46,
              "position": 0,
              "duration": 3.9895833333333335
            }
          ]
        },
        "7": {
          "ctab": {
            "srcChannel": 7,
            "name": "CC_Crash",
            "accType": "RHYTHM",
            "editable": false,
            "mutedNotes": [],
            "mutedChords": [
              "1+2+5",
              "sus4",
              "1+5",
              "1+8",
              "7aug",
              "Maj7aug",
              "7(#9)",
              "7(b13)",
              "7(b9)",
              "7(13)",
              "7#11",
              "7(9)",
              "7b5",
              "7sus4",
              "7th",
              "dim7",
              "dim",
              "minMaj7(9)",
              "minMaj7",
              "min7(11)",
              "min7(9)",
              "min(9)",
              "m7b5",
              "min7",
              "min6",
              "min",
              "aug",
              "Maj6(9)",
              "Maj7(9)",
              "Maj(9)",
              "Maj7#11",
              "Maj7",
              "Maj6",
              "Maj"
            ],
            "autoStart": true,
            "sourceChordNote": 0,
            "sourceChordType": "Maj",
            "ctb2Low": null,
            "ctb2Main": {
              "ntr": "ROOT_FIXED",
              "ntt": "BYPASS",
              "bassOn": false,
              "chordRootUpperLimit": 0,
              "noteLowLimit": 0,
              "noteHighLimit": 127,
              "rtr": "RETRIGGER"
            },
            "ctb2High": null
          },
          "notes": []
        },
        "8": {
          "ctab": {
            "srcChannel": 8,
            "name": "Perc",
            "accType": "SUBRHYTHM",
            "editable": false,
            "mutedNotes": [],
            "mutedChords": [],
            "autoStart": true,
            "sourceChordNote": 0,
            "sourceChordType": "Maj7",
            "ctb2Low": null,
            "ctb2Main": {
              "ntr": "ROOT_FIXED",
              "ntt": "BYPASS",
              "bassOn": false,
              "chordRootUpperLimit": 6,
              "noteLowLimit": 0,
              "noteHighLimit": 127,
              "rtr": "PITCH_SHIFT"
            },
            "ctb2High": null
          },
          "notes": [
            {
              "pitch": 80,
              "velocity": 40,
              "position": 0,
              "duration": 0.010416666666666666
            },
            {
              "pitch": 82,
              "velocity": 46,
              "position": 0,
              "duration": 0.010416666666666666
            },
            {
              "pitch": 81,
              "velocity": 40,
              "position": 0.2604166666666667,
              "duration": 0.010416666666666666
            },
            {
              "pitch": 82,
              "velocity": 29,
              "position": 0.2604166666666667,
              "duration": 0.010416666666666666
            },
            {
              "pitch": 81,
              "velocity": 10,
              "position": 0.4895833333333333,
              "duration": 0.010416666666666666
            },
            {
              "pitch": 82,
              "velocity": 46,
              "position": 0.4895833333333333,
              "duration": 0.010416666666666666
            },
            {
              "pitch": 80,
              "velocity": 20,
              "position": 0.7395833333333334,
              "duration": 0.010416666666666666
            },
            {
              "pitch": 82,
              "velocity": 63,
              "position": 0.7395833333333334,
              "duration": 0.010416666666666666
            },
            {
              "pitch": 80,
              "velocity": 40,
              "position": 0.9895833333333334,
              "duration": 0.010416666666666666
            },
            {
              "pitch": 82,
              "velocity": 46,
              "position": 0.9895833333333334,
              "duration": 0.010416666666666666
            },
            {
              "pitch": 81,
              "velocity": 40,
              "position": 1.2604166666666667,
              "duration": 0.010416666666666666
            },
            {
              "pitch": 82,
              "velocity": 29,
              "position": 1.2604166666666667,
              "duration": 0.010416666666666666
            },
            {
              "pitch": 81,
              "velocity": 10,
              "position": 1.4895833333333333,
              "duration": 0.010416666666666666
            },
            {
              "pitch": 82,
              "velocity": 46,
              "position": 1.4895833333333333,
              "duration": 0.010416666666666666
            },
            {
              "pitch": 67,
              "velocity": 44,
              "position": 1.7395833333333333,
              "duration": 0.010416666666666666
            },
            {
              "pitch": 80,
              "velocity": 20,
              "position": 1.7395833333333333,
              "duration": 0.010416666666666666
            },
            {
              "pitch": 82,
              "velocity": 63,
              "position": 1.7395833333333333,
              "duration": 0.010416666666666666
            },
            {
              "pitch": 80,
              "velocity": 40,
              "position": 1.9895833333333333,
              "duration": 0.010416666666666666
            },
            {
              "pitch": 82,
              "velocity": 46,
              "position": 1.9895833333333333,
              "duration": 0.010416666666666666
            },
            {
              "pitch": 68,
              "velocity": 44,
              "position": 2.2604166666666665,
              "duration": 0.010416666666666666
            },
            {
              "pitch": 81,
              "velocity": 40,
              "position": 2.2604166666666665,
              "duration": 0.010416666666666666
            },
            {
              "pitch": 82,
              "velocity": 29,
              "position": 2.2604166666666665,
              "duration": 0.010416666666666666
            },
            {
              "pitch": 81,
              "velocity": 10,
              "position": 2.4895833333333335,
              "duration": 0.010416666666666666
            },
            {
              "pitch": 82,
              "velocity": 46,
              "position": 2.4895833333333335,
              "duration": 0.010416666666666666
            },
            {
              "pitch": 68,
              "velocity": 37,
              "position": 2.7395833333333335,
              "duration": 0.010416666666666666
            },
            {
              "pitch": 80,
              "velocity": 20,
              "position": 2.7395833333333335,
              "duration": 0.010416666666666666
            },
            {
              "pitch": 82,
              "velocity": 63,
              "position": 2.7395833333333335,
              "duration": 0.010416666666666666
            },
            {
              "pitch": 80,
              "velocity": 40,
              "position": 2.9895833333333335,
              "duration": 0.010416666666666666
            },
            {
              "pitch": 82,
              "velocity": 46,
              "position": 2.9895833333333335,
              "duration": 0.010416666666666666
            },
            {
              "pitch": 68,
              "velocity": 29,
              "position": 3.2604166666666665,
              "duration": 0.010416666666666666
            },
            {
              "pitch": 81,
              "velocity": 40,
              "position": 3.2604166666666665,
              "duration": 0.010416666666666666
            },
            {
              "pitch": 82,
              "velocity": 29,
              "position": 3.2604166666666665,
              "duration": 0.010416666666666666
            },
            {
              "pitch": 68,
              "velocity": 44,
              "position": 3.4895833333333335,
              "duration": 0.010416666666666666
            },
            {
              "pitch": 81,
              "velocity": 10,
              "position": 3.4895833333333335,
              "duration": 0.010416666666666666
            },
            {
              "pitch": 82,
              "velocity": 46,
              "position": 3.4895833333333335,
              "duration": 0.010416666666666666
            },
            {
              "pitch": 80,
              "velocity": 20,
              "position": 3.7395833333333335,
              "duration": 0.010416666666666666
            },
            {
              "pitch": 82,
              "velocity": 63,
              "position": 3.7395833333333335,
              "duration": 0.010416666666666666
            }
          ]
        },
        "9": {
          "ctab": {
            "srcChannel": 9,
            "name": "Drs",
            "accType": "RHYTHM",
            "editable": false,
            "mutedNotes": [],
            "mutedChords": [],
            "autoStart": true,
            "sourceChordNote": 0,
            "sourceChordType": "Maj7",
            "ctb2Low": null,
            "ctb2Main": {
              "ntr": "ROOT_FIXED",
              "ntt": "BYPASS",
              "bassOn": false,
              "chordRootUpperLimit": 6,
              "noteLowLimit": 0,
              "noteHighLimit": 127,
              "rtr": "PITCH_SHIFT"
            },
            "ctb2High": null
          },
          "notes": [
            {
              "pitch": 35,
              "velocity": 93,
              "position": 0,
              "duration": 0.010416666666666666
            },
            {
              "pitch": 42,
              "velocity": 80,
              "position": 0,
              "duration": 0.010416666666666666
            },
            {
              "pitch": 31,
              "velocity": 77,
              "position": 0.2604166666666667,
              "duration": 0.010416666666666666
            },
            {
              "pitch": 42,
              "velocity": 50,
              "position": 0.2604166666666667,
              "duration": 0.010416666666666666
            },
            {
              "pitch": 42,
              "velocity": 60,
              "position": 0.4895833333333333,
              "duration": 0.010416666666666666
            },
            {
              "pitch": 29,
              "velocity": 77,
              "position": 0.2604166666666667,
              "duration": 0.2708333333333333
            },
            {
              "pitch": 31,
              "velocity": 57,
              "position": 0.7395833333333334,
              "duration": 0.010416666666666666
            },
            {
              "pitch": 42,
              "velocity": 80,
              "position": 0.7395833333333334,
              "duration": 0.010416666666666666
            },
            {
              "pitch": 35,
              "velocity": 63,
              "position": 0.75,
              "duration": 0.010416666666666666
            },
            {
              "pitch": 42,
              "velocity": 80,
              "position": 0.9895833333333334,
              "duration": 0.010416666666666666
            },
            {
              "pitch": 43,
              "velocity": 50,
              "position": 0.9895833333333334,
              "duration": 0.010416666666666666
            },
            {
              "pitch": 35,
              "velocity": 93,
              "position": 1,
              "duration": 0.010416666666666666
            },
            {
              "pitch": 42,
              "velocity": 50,
              "position": 1.2604166666666667,
              "duration": 0.010416666666666666
            },
            {
              "pitch": 42,
              "velocity": 60,
              "position": 1.4895833333333333,
              "duration": 0.010416666666666666
            },
            {
              "pitch": 31,
              "velocity": 67,
              "position": 1.7395833333333333,
              "duration": 0.010416666666666666
            },
            {
              "pitch": 42,
              "velocity": 80,
              "position": 1.7395833333333333,
              "duration": 0.010416666666666666
            },
            {
              "pitch": 35,
              "velocity": 63,
              "position": 1.75,
              "duration": 0.010416666666666666
            },
            {
              "pitch": 42,
              "velocity": 80,
              "position": 1.9895833333333333,
              "duration": 0.010416666666666666
            },
            {
              "pitch": 35,
              "velocity": 93,
              "position": 2,
              "duration": 0.010416666666666666
            },
            {
              "pitch": 40,
              "velocity": 40,
              "position": 2.2604166666666665,
              "duration": 0.010416666666666666
            },
            {
              "pitch": 42,
              "velocity": 60,
              "position": 2.4895833333333335,
              "duration": 0.010416666666666666
            },
            {
              "pitch": 40,
              "velocity": 52,
              "position": 2.7395833333333335,
              "duration": 0.010416666666666666
            },
            {
              "pitch": 35,
              "velocity": 63,
              "position": 2.75,
              "duration": 0.010416666666666666
            },
            {
              "pitch": 42,
              "velocity": 80,
              "position": 2.9895833333333335,
              "duration": 0.010416666666666666
            },
            {
              "pitch": 35,
              "velocity": 93,
              "position": 3,
              "duration": 0.010416666666666666
            },
            {
              "pitch": 40,
              "velocity": 50,
              "position": 3.2604166666666665,
              "duration": 0.010416666666666666
            },
            {
              "pitch": 40,
              "velocity": 80,
              "position": 3.4895833333333335,
              "duration": 0.010416666666666666
            },
            {
              "pitch": 46,
              "velocity": 50,
              "position": 3.7395833333333335,
              "duration": 0.010416666666666666
            },
            {
              "pitch": 35,
              "velocity": 63,
              "position": 3.75,
              "duration": 0.010416666666666666
            },
            {
              "pitch": 49,
              "velocity": 60,
              "position": 3.9895833333333335,
              "duration": 0.010416666666666666
            }
          ]
        },
        "10": {
          "ctab": {
            "srcChannel": 10,
            "name": "Bass",
            "accType": "BASS",
            "editable": false,
            "mutedNotes": [],
            "mutedChords": [],
            "autoStart": false,
            "sourceChordNote": 0,
            "sourceChordType": "Maj7",
            "ctb2Low": null,
            "ctb2Main": {
              "ntr": "ROOT_TRANSPOSITION",
              "ntt": "MELODY",
              "bassOn": true,
              "chordRootUpperLimit": 3,
              "noteLowLimit": 28,
              "noteHighLimit": 127,
              "rtr": "PITCH_SHIFT_TO_ROOT"
            },
            "ctb2High": null
          },
          "notes": [
            {
              "pitch": 24,
              "velocity": 98,
              "position": 0,
              "duration": 0.2604166666666667
            },
            {
              "pitch": 24,
              "velocity": 80,
              "position": 0.75,
              "duration": 0.09375
            },
            {
              "pitch": 31,
              "velocity": 98,
              "position": 1,
              "duration": 0.9895833333333334
            },
            {
              "pitch": 24,
              "velocity": 98,
              "position": 2,
              "duration": 0.2604166666666667
            },
            {
              "pitch": 24,
              "velocity": 80,
              "position": 2.75,
              "duration": 0.09375
            },
            {
              "pitch": 31,
              "velocity": 98,
              "position": 3,
              "duration": 0.15625
            },
            {
              "pitch": 31,
              "velocity": 98,
              "position": 3.25,
              "duration": 0.4583333333333333
            },
            {
              "pitch": 31,
              "velocity": 98,
              "position": 3.75,
              "duration": 0.15625
            }
          ]
        },
        "11": {
          "ctab": {
            "srcChannel": 11,
            "name": "NGt",
            "accType": "CHORD1",
            "editable": false,
            "mutedNotes": [],
            "mutedChords": [],
            "autoStart": false,
            "sourceChordNote": 0,
            "sourceChordType": "Maj7",
            "ctb2Low": null,
            "ctb2Main": {
              "ntr": "ROOT_FIXED",
              "ntt": "CHORD",
              "bassOn": false,
              "chordRootUpperLimit": 7,
              "noteLowLimit": 0,
              "noteHighLimit": 127,
              "rtr": "PITCH_SHIFT"
            },
            "ctb2High": null
          },
          "notes": [
            {
              "pitch": 55,
              "velocity": 65,
              "position": 0,
              "duration": 0.10416666666666667
            },
            {
              "pitch": 59,
              "velocity": 63,
              "position": 0,
              "duration": 0.10416666666666667
            },
            {
              "pitch": 64,
              "velocity": 67,
              "position": 0,
              "duration": 0.11458333333333333
            },
            {
              "pitch": 55,
              "velocity": 88,
              "position": 0.5,
              "duration": 0.59375
            },
            {
              "pitch": 59,
              "velocity": 85,
              "position": 0.5,
              "duration": 0.59375
            },
            {
              "pitch": 64,
              "velocity": 79,
              "position": 0.5,
              "duration": 0.6041666666666666
            },
            {
              "pitch": 55,
              "velocity": 50,
              "position": 1.25,
              "duration": 0.10416666666666667
            },
            {
              "pitch": 59,
              "velocity": 57,
              "position": 1.25,
              "duration": 0.10416666666666667
            },
            {
              "pitch": 64,
              "velocity": 52,
              "position": 1.25,
              "duration": 0.10416666666666667
            },
            {
              "pitch": 55,
              "velocity": 63,
              "position": 1.75,
              "duration": 0.09375
            },
            {
              "pitch": 59,
              "velocity": 71,
              "position": 1.75,
              "duration": 0.10416666666666667
            },
            {
              "pitch": 64,
              "velocity": 68,
              "position": 1.75,
              "duration": 0.10416666666666667
            },
            {
              "pitch": 59,
              "velocity": 78,
              "position": 2.25,
              "duration": 0.59375
            },
            {
              "pitch": 67,
              "velocity": 83,
              "position": 2.25,
              "duration": 0.59375
            },
            {
              "pitch": 64,
              "velocity": 82,
              "position": 2.25,
              "duration": 0.6041666666666666
            },
            {
              "pitch": 64,
              "velocity": 77,
              "position": 3,
              "duration": 0.3854166666666667
            },
            {
              "pitch": 67,
              "velocity": 70,
              "position": 3,
              "duration": 0.3854166666666667
            },
            {
              "pitch": 59,
              "velocity": 77,
              "position": 3,
              "duration": 0.3958333333333333
            },
            {
              "pitch": 55,
              "velocity": 63,
              "position": 3.5,
              "duration": 0.11458333333333333
            },
            {
              "pitch": 59,
              "velocity": 61,
              "position": 3.5,
              "duration": 0.11458333333333333
            },
            {
              "pitch": 64,
              "velocity": 67,
              "position": 3.5,
              "duration": 0.125
            }
          ]
        },
        "12": {
          "ctab": {
            "srcChannel": 12,
            "name": "Pno",
            "accType": "CHORD2",
            "editable": false,
            "mutedNotes": [],
            "mutedChords": [],
            "autoStart": false,
            "sourceChordNote": 0,
            "sourceChordType": "Maj7",
            "ctb2Low": null,
            "ctb2Main": {
              "ntr": "ROOT_FIXED",
              "ntt": "CHORD",
              "bassOn": false,
              "chordRootUpperLimit": 7,
              "noteLowLimit": 0,
              "noteHighLimit": 127,
              "rtr": "PITCH_SHIFT"
            },
            "ctb2High": null
          },
          "notes": [
            {
              "pitch": 55,
              "velocity": 70,
              "position": 0,
              "duration": 0.07291666666666667
            },
            {
              "pitch": 64,
              "velocity": 69,
              "position": 0,
              "duration": 0.11458333333333333
            },
            {
              "pitch": 59,
              "velocity": 75,
              "position": 0,
              "duration": 0.125
            },
            {
              "pitch": 55,
              "velocity": 61,
              "position": 1,
              "duration": 0.6458333333333334
            },
            {
              "pitch": 59,
              "velocity": 61,
              "position": 1,
              "duration": 0.6458333333333334
            },
            {
              "pitch": 64,
              "velocity": 61,
              "position": 1,
              "duration": 0.6458333333333334
            },
            {
              "pitch": 55,
              "velocity": 72,
              "position": 1.75,
              "duration": 0.14583333333333334
            },
            {
              "pitch": 59,
              "velocity": 72,
              "position": 1.75,
              "duration": 0.14583333333333334
            },
            {
              "pitch": 64,
              "velocity": 73,
              "position": 1.75,
              "duration": 0.14583333333333334
            },
            {
              "pitch": 59,
              "velocity": 75,
              "position": 2.75,
              "duration": 0.09375
            },
            {
              "pitch": 55,
              "velocity": 73,
              "position": 2.75,
              "duration": 0.13541666666666666
            },
            {
              "pitch": 64,
              "velocity": 66,
              "position": 2.75,
              "duration": 0.15625
            },
            {
              "pitch": 59,
              "velocity": 75,
              "position": 3.25,
              "duration": 0.59375
            },
            {
              "pitch": 64,
              "velocity": 77,
              "position": 3.25,
              "duration": 0.6041666666666666
            },
            {
              "pitch": 55,
              "velocity": 70,
              "position": 3.25,
              "duration": 0.65625
            }
          ]
        },
        "13": {
          "ctab": {
            "srcChannel": 13,
            "name": "Str",
            "accType": "PAD",
            "editable": false,
            "mutedNotes": [],
            "mutedChords": [],
            "autoStart": false,
            "sourceChordNote": 0,
            "sourceChordType": "Maj7",
            "ctb2Low": null,
            "ctb2Main": {
              "ntr": "ROOT_FIXED",
              "ntt": "CHORD",
              "bassOn": false,
              "chordRootUpperLimit": 7,
              "noteLowLimit": 0,
              "noteHighLimit": 127,
              "rtr": "PITCH_SHIFT"
            },
            "ctb2High": null
          },
          "notes": [
            {
              "pitch": 55,
              "velocity": 46,
              "position": 0,
              "duration": 3.9895833333333335
            },
            {
              "pitch": 59,
              "velocity": 46,
              "position": 0,
              "duration": 3.9895833333333335
            },
            {
              "pitch": 64,
              "velocity": 46,
              "position": 0,
              "duration": 3.9895833333333335
            }
          ]
        }
      }
    },
    "Fill_In_CC": {
      "type": "Fill_In_CC",
      "sizeInBeats": 4,
      "channels": {
        "2": {
          "ctab": {
            "srcChannel": 2,
            "name": "NGt Root",
            "accType": "CHORD1",
            "editable": false,
            "mutedNotes": [],
            "mutedChords": [
              "1+2+5",
              "sus4",
              "1+5",
              "1+8",
              "Maj7aug",
              "dim",
              "minMaj7(9)",
              "minMaj7",
              "min6",
              "min",
              "aug",
              "Maj7(9)",
              "Maj7#11",
              "Maj7",
              "Maj6",
              "Maj"
            ],
            "autoStart": false,
            "sourceChordNote": 0,
            "sourceChordType": "Maj7",
            "ctb2Low": null,
            "ctb2Main": {
              "ntr": "ROOT_TRANSPOSITION",
              "ntt": "CHORD",
              "bassOn": false,
              "chordRootUpperLimit": 6,
              "noteLowLimit": 0,
              "noteHighLimit": 127,
              "rtr": "PITCH_SHIFT"
            },
            "ctb2High": null
          },
          "notes": [
            {
              "pitch": 60,
              "velocity": 78,
              "position": 0.25,
              "duration": 0.34375
            },
            {
              "pitch": 60,
              "velocity": 76,
              "position": 0.75,
              "duration": 0.23958333333333334
            },
            {
              "pitch": 60,
              "velocity": 43,
              "position": 1,
              "duration": 0.03125
            },
            {
              "pitch": 60,
              "velocity": 93,
              "position": 1.25,
              "duration": 0.3541666666666667
            },
            {
              "pitch": 60,
              "velocity": 76,
              "position": 1.75,
              "duration": 0.23958333333333334
            },
            {
              "pitch": 60,
              "velocity": 43,
              "position": 2,
              "duration": 0.03125
            },
            {
              "pitch": 60,
              "velocity": 93,
              "position": 2.25,
              "duration": 0.3541666666666667
            },
            {
              "pitch": 60,
              "velocity": 55,
              "position": 2.75,
              "duration": 0.23958333333333334
            },
            {
              "pitch": 60,
              "velocity": 61,
              "position": 3,
              "duration": 0.10416666666666667
            },
            {
              "pitch": 60,
              "velocity": 55,
              "position": 3.5,
              "duration": 0.11458333333333333
            },
            {
              "pitch": 60,
              "velocity": 63,
              "position": 3.75,
              "duration": 0.09375
            }
          ]
        },
        "4": {
          "ctab": {
            "srcChannel": 4,
            "name": "Str Root",
            "accType": "PAD",
            "editable": false,
            "mutedNotes": [],
            "mutedChords": [
              "1+2+5",
              "sus4",
              "1+5",
              "1+8",
              "Maj7aug",
              "dim",
              "minMaj7(9)",
              "minMaj7",
              "min6",
              "min",
              "aug",
              "Maj7(9)",
              "Maj7#11",
              "Maj7",
              "Maj6",
              "Maj"
            ],
            "autoStart": false,
            "sourceChordNote": 0,
            "sourceChordType": "Maj7",
            "ctb2Low": null,
            "ctb2Main": {
              "ntr": "ROOT_TRANSPOSITION",
              "ntt": "CHORD",
              "bassOn": false,
              "chordRootUpperLimit": 6,
              "noteLowLimit": 0,
              "noteHighLimit": 127,
              "rtr": "PITCH_SHIFT"
            },
            "ctb2High": null
          },
          "notes": [
            {
              "pitch": 60,
              "velocity": 46,
              "position": 0,
              "duration": 3.9895833333333335
            }
          ]
        },
        "7": {
          "ctab": {
            "srcChannel": 7,
            "name": "CC_Crash",
            "accType": "RHYTHM",
            "editable": false,
            "mutedNotes": [],
            "mutedChords": [
              "1+2+5",
              "sus4",
              "1+5",
              "1+8",
              "7aug",
              "Maj7aug",
              "7(#9)",
              "7(b13)",
              "7(b9)",
              "7(13)",
              "7#11",
              "7(9)",
              "7b5",
              "7sus4",
              "7th",
              "dim7",
              "dim",
              "minMaj7(9)",
              "minMaj7",
              "min7(11)",
              "min7(9)",
              "min(9)",
              "m7b5",
              "min7",
              "min6",
              "min",
              "aug",
              "Maj6(9)",
              "Maj7(9)",
              "Maj(9)",
              "Maj7#11",
              "Maj7",
              "Maj6",
              "Maj"
            ],
            "autoStart": true,
            "sourceChordNote": 0,
            "sourceChordType": "Maj",
            "ctb2Low": null,
            "ctb2Main": {
              "ntr": "ROOT_FIXED",
              "ntt": "BYPASS",
              "bassOn": false,
              "chordRootUpperLimit": 0,
              "noteLowLimit": 0,
              "noteHighLimit": 127,
              "rtr": "RETRIGGER"
            },
            "ctb2High": null
          },
          "notes": []
        },
        "8": {
          "ctab": {
            "srcChannel": 8,
            "name": "Perc",
            "accType": "SUBRHYTHM",
            "editable": false,
            "mutedNotes": [],
            "mutedChords": [],
            "autoStart": true,
            "sourceChordNote": 0,
            "sourceChordType": "Maj7",
            "ctb2Low": null,
            "ctb2Main": {
              "ntr": "ROOT_FIXED",
              "ntt": "BYPASS",
              "bassOn": false,
              "chordRootUpperLimit": 6,
              "noteLowLimit": 0,
              "noteHighLimit": 127,
              "rtr": "PITCH_SHIFT"
            },
            "ctb2High": null
          },
          "notes": [
            {
              "pitch": 80,
              "velocity": 40,
              "position": 0,
              "duration": 0.010416666666666666
            },
            {
              "pitch": 82,
              "velocity": 46,
              "position": 0,
              "duration": 0.010416666666666666
            },
            {
              "pitch": 67,
              "velocity": 50,
              "position": 0.2604166666666667,
              "duration": 0.010416666666666666
            },
            {
              "pitch": 81,
              "velocity": 40,
              "position": 0.2604166666666667,
              "duration": 0.010416666666666666
            },
            {
              "pitch": 82,
              "velocity": 29,
              "position": 0.2604166666666667,
              "duration": 0.010416666666666666
            },
            {
              "pitch": 81,
              "velocity": 10,
              "position": 0.4895833333333333,
              "duration": 0.010416666666666666
            },
            {
              "pitch": 82,
              "velocity": 46,
              "position": 0.4895833333333333,
              "duration": 0.010416666666666666
            },
            {
              "pitch": 80,
              "velocity": 20,
              "position": 0.7395833333333334,
              "duration": 0.010416666666666666
            },
            {
              "pitch": 82,
              "velocity": 63,
              "position": 0.7395833333333334,
              "duration": 0.010416666666666666
            },
            {
              "pitch": 68,
              "velocity": 38,
              "position": 0.9895833333333334,
              "duration": 0.010416666666666666
            },
            {
              "pitch": 80,
              "velocity": 40,
              "position": 0.9895833333333334,
              "duration": 0.010416666666666666
            },
            {
              "pitch": 82,
              "velocity": 46,
              "position": 0.9895833333333334,
              "duration": 0.010416666666666666
            },
            {
              "pitch": 81,
              "velocity": 40,
              "position": 1.2604166666666667,
              "duration": 0.010416666666666666
            },
            {
              "pitch": 82,
              "velocity": 29,
              "position": 1.2604166666666667,
              "duration": 0.010416666666666666
            },
            {
              "pitch": 68,
              "velocity": 37,
              "position": 1.4895833333333333,
              "duration": 0.010416666666666666
            },
            {
              "pitch": 81,
              "velocity": 10,
              "position": 1.4895833333333333,
              "duration": 0.010416666666666666
            },
            {
              "pitch": 82,
              "velocity": 46,
              "position": 1.4895833333333333,
              "duration": 0.010416666666666666
            },
            {
              "pitch": 80,
              "velocity": 20,
              "position": 1.7395833333333333,
              "duration": 0.010416666666666666
            },
            {
              "pitch": 82,
              "velocity": 63,
              "position": 1.7395833333333333,
              "duration": 0.010416666666666666
            },
            {
              "pitch": 68,
              "velocity": 38,
              "position": 1.9895833333333333,
              "duration": 0.010416666666666666
            },
            {
              "pitch": 80,
              "velocity": 40,
              "position": 1.9895833333333333,
              "duration": 0.010416666666666666
            },
            {
              "pitch": 82,
              "velocity": 46,
              "position": 1.9895833333333333,
              "duration": 0.010416666666666666
            },
            {
              "pitch": 81,
              "velocity": 40,
              "position": 2.2604166666666665,
              "duration": 0.010416666666666666
            },
            {
              "pitch": 82,
              "velocity": 29,
              "position": 2.2604166666666665,
              "duration": 0.010416666666666666
            },
            {
              "pitch": 67,
              "velocity": 44,
              "position": 2.4895833333333335,
              "duration": 0.010416666666666666
            },
            {
              "pitch": 81,
              "velocity": 10,
              "position": 2.4895833333333335,
              "duration": 0.010416666666666666
            },
            {
              "pitch": 82,
              "velocity": 46,
              "position": 2.4895833333333335,
              "duration": 0.010416666666666666
            },
            {
              "pitch": 80,
              "velocity": 20,
              "position": 2.7395833333333335,
              "duration": 0.010416666666666666
            },
            {
              "pitch": 82,
              "velocity": 63,
              "position": 2.7395833333333335,
              "duration": 0.010416666666666666
            },
            {
              "pitch": 67,
              "velocity": 38,
              "position": 2.9895833333333335,
              "duration": 0.010416666666666666
            },
            {
              "pitch": 80,
              "velocity": 40,
              "position": 2.9895833333333335,
              "duration": 0.010416666666666666
            },
            {
              "pitch": 82,
              "velocity": 46,
              "position": 2.9895833333333335,
              "duration": 0.010416666666666666
            },
            {
              "pitch": 68,
              "velocity": 44,
              "position": 3.2604166666666665,
              "duration": 0.010416666666666666
            },
            {
              "pitch": 81,
              "velocity": 40,
              "position": 3.2604166666666665,
              "duration": 0.010416666666666666
            },
            {
              "pitch": 82,
              "velocity": 29,
              "position": 3.2604166666666665,
              "duration": 0.010416666666666666
            },
            {
              "pitch": 81,
              "velocity": 10,
              "position": 3.4895833333333335,
              "duration": 0.010416666666666666
            },
            {
              "pitch": 82,
              "velocity": 46,
              "position": 3.4895833333333335,
              "duration": 0.010416666666666666
            },
            {
              "pitch": 68,
              "velocity": 33,
              "position": 3.7395833333333335,
              "duration": 0.010416666666666666
            },
            {
              "pitch": 80,
              "velocity": 20,
              "position": 3.7395833333333335,
              "duration": 0.010416666666666666
            },
            {
              "pitch": 82,
              "velocity": 63,
              "position": 3.7395833333333335,
              "duration": 0.010416666666666666
            }
          ]
        },
        "9": {
          "ctab": {
            "srcChannel": 9,
            "name": "Drs",
            "accType": "RHYTHM",
            "editable": false,
            "mutedNotes": [],
            "mutedChords": [],
            "autoStart": true,
            "sourceChordNote": 0,
            "sourceChordType": "Maj7",
            "ctb2Low": null,
            "ctb2Main": {
              "ntr": "ROOT_FIXED",
              "ntt": "BYPASS",
              "bassOn": false,
              "chordRootUpperLimit": 6,
              "noteLowLimit": 0,
              "noteHighLimit": 127,
              "rtr": "PITCH_SHIFT"
            },
            "ctb2High": null
          },
          "notes": [
            {
              "pitch": 35,
              "velocity": 93,
              "position": 0,
              "duration": 0.010416666666666666
            },
            {
              "pitch": 51,
              "velocity": 74,
              "position": 0.2604166666666667,
              "duration": 0.010416666666666666
            },
            {
              "pitch": 51,
              "velocity": 41,
              "position": 0.7395833333333334,
              "duration": 0.010416666666666666
            },
            {
              "pitch": 35,
              "velocity": 63,
              "position": 0.75,
              "duration": 0.010416666666666666
            },
            {
              "pitch": 51,
              "velocity": 46,
              "position": 0.9895833333333334,
              "duration": 0.010416666666666666
            },
            {
              "pitch": 35,
              "velocity": 93,
              "position": 1,
              "duration": 0.010416666666666666
            },
            {
              "pitch": 40,
              "velocity": 59,
              "position": 1.2604166666666667,
              "duration": 0.010416666666666666
            },
            {
              "pitch": 51,
              "velocity": 65,
              "position": 1.4895833333333333,
              "duration": 0.010416666666666666
            },
            {
              "pitch": 29,
              "velocity": 60,
              "position": 1.2604166666666667,
              "duration": 0.4479166666666667
            },
            {
              "pitch": 40,
              "velocity": 40,
              "position": 1.7395833333333333,
              "duration": 0.010416666666666666
            },
            {
              "pitch": 35,
              "velocity": 63,
              "position": 1.75,
              "duration": 0.010416666666666666
            },
            {
              "pitch": 40,
              "velocity": 60,
              "position": 1.9895833333333333,
              "duration": 0.010416666666666666
            },
            {
              "pitch": 51,
              "velocity": 64,
              "position": 1.9895833333333333,
              "duration": 0.010416666666666666
            },
            {
              "pitch": 35,
              "velocity": 93,
              "position": 2,
              "duration": 0.010416666666666666
            },
            {
              "pitch": 40,
              "velocity": 79,
              "position": 2.2604166666666665,
              "duration": 0.010416666666666666
            },
            {
              "pitch": 51,
              "velocity": 75,
              "position": 2.4895833333333335,
              "duration": 0.010416666666666666
            },
            {
              "pitch": 29,
              "velocity": 80,
              "position": 2.2604166666666665,
              "duration": 0.46875
            },
            {
              "pitch": 40,
              "velocity": 40,
              "position": 2.7395833333333335,
              "duration": 0.010416666666666666
            },
            {
              "pitch": 35,
              "velocity": 63,
              "position": 2.75,
              "duration": 0.010416666666666666
            },
            {
              "pitch": 40,
              "velocity": 60,
              "position": 2.9895833333333335,
              "duration": 0.010416666666666666
            },
            {
              "pitch": 51,
              "velocity": 38,
              "position": 2.9895833333333335,
              "duration": 0.010416666666666666
            },
            {
              "pitch": 35,
              "velocity": 93,
              "position": 3,
              "duration": 0.010416666666666666
            },
            {
              "pitch": 51,
              "velocity": 61,
              "position": 3.2604166666666665,
              "duration": 0.010416666666666666
            },
            {
              "pitch": 40,
              "velocity": 79,
              "position": 3.4895833333333335,
              "duration": 0.010416666666666666
            },
            {
              "pitch": 51,
              "velocity": 45,
              "position": 3.7395833333333335,
              "duration": 0.010416666666666666
            },
            {
              "pitch": 35,
              "velocity": 63,
              "position": 3.75,
              "duration": 0.010416666666666666
            },
            {
              "pitch": 49,
              "velocity": 60,
              "position": 3.9895833333333335,
              "duration": 0.010416666666666666
            }
          ]
        },
        "10": {
          "ctab": {
            "srcChannel": 10,
            "name": "Bass",
            "accType": "BASS",
            "editable": false,
            "mutedNotes": [],
            "mutedChords": [],
            "autoStart": false,
            "sourceChordNote": 0,
            "sourceChordType": "Maj7",
            "ctb2Low": null,
            "ctb2Main": {
              "ntr": "ROOT_TRANSPOSITION",
              "ntt": "MELODY",
              "bassOn": true,
              "chordRootUpperLimit": 3,
              "noteLowLimit": 28,
              "noteHighLimit": 127,
              "rtr": "PITCH_SHIFT_TO_ROOT"
            },
            "ctb2High": null
          },
          "notes": [
            {
              "pitch": 24,
              "velocity": 98,
              "position": 0,
              "duration": 0.6458333333333334
            },
            {
              "pitch": 24,
              "velocity": 80,
              "position": 0.75,
              "duration": 0.09375
            },
            {
              "pitch": 31,
              "velocity": 98,
              "position": 1,
              "duration": 0.4895833333333333
            },
            {
              "pitch": 31,
              "velocity": 98,
              "position": 1.5,
              "duration": 0.4895833333333333
            },
            {
              "pitch": 24,
              "velocity": 98,
              "position": 2,
              "duration": 0.6458333333333334
            },
            {
              "pitch": 24,
              "velocity": 80,
              "position": 2.75,
              "duration": 0.09375
            },
            {
              "pitch": 31,
              "velocity": 98,
              "position": 3,
              "duration": 0.9895833333333334
            }
          ]
        },
        "11": {
          "ctab": {
            "srcChannel": 11,
            "name": "NGt",
            "accType": "CHORD1",
            "editable": false,
            "mutedNotes": [],
            "mutedChords": [],
            "autoStart": false,
            "sourceChordNote": 0,
            "sourceChordType": "Maj7",
            "ctb2Low": null,
            "ctb2Main": {
              "ntr": "ROOT_FIXED",
              "ntt": "CHORD",
              "bassOn": false,
              "chordRootUpperLimit": 7,
              "noteLowLimit": 0,
              "noteHighLimit": 127,
              "rtr": "PITCH_SHIFT"
            },
            "ctb2High": null
          },
          "notes": [
            {
              "pitch": 55,
              "velocity": 83,
              "position": 0.25,
              "duration": 0.34375
            },
            {
              "pitch": 59,
              "velocity": 78,
              "position": 0.25,
              "duration": 0.34375
            },
            {
              "pitch": 64,
              "velocity": 82,
              "position": 0.25,
              "duration": 0.3541666666666667
            },
            {
              "pitch": 55,
              "velocity": 65,
              "position": 0.75,
              "duration": 0.23958333333333334
            },
            {
              "pitch": 59,
              "velocity": 76,
              "position": 0.75,
              "duration": 0.23958333333333334
            },
            {
              "pitch": 64,
              "velocity": 73,
              "position": 0.75,
              "duration": 0.23958333333333334
            },
            {
              "pitch": 55,
              "velocity": 45,
              "position": 1,
              "duration": 0.03125
            },
            {
              "pitch": 59,
              "velocity": 43,
              "position": 1,
              "duration": 0.03125
            },
            {
              "pitch": 64,
              "velocity": 50,
              "position": 1,
              "duration": 0.03125
            },
            {
              "pitch": 55,
              "velocity": 85,
              "position": 1.25,
              "duration": 0.34375
            },
            {
              "pitch": 59,
              "velocity": 93,
              "position": 1.25,
              "duration": 0.3541666666666667
            },
            {
              "pitch": 64,
              "velocity": 93,
              "position": 1.25,
              "duration": 0.3541666666666667
            },
            {
              "pitch": 55,
              "velocity": 65,
              "position": 1.75,
              "duration": 0.23958333333333334
            },
            {
              "pitch": 59,
              "velocity": 76,
              "position": 1.75,
              "duration": 0.23958333333333334
            },
            {
              "pitch": 64,
              "velocity": 73,
              "position": 1.75,
              "duration": 0.23958333333333334
            },
            {
              "pitch": 55,
              "velocity": 45,
              "position": 2,
              "duration": 0.03125
            },
            {
              "pitch": 59,
              "velocity": 43,
              "position": 2,
              "duration": 0.03125
            },
            {
              "pitch": 64,
              "velocity": 50,
              "position": 2,
              "duration": 0.03125
            },
            {
              "pitch": 55,
              "velocity": 85,
              "position": 2.25,
              "duration": 0.34375
            },
            {
              "pitch": 59,
              "velocity": 93,
              "position": 2.25,
              "duration": 0.3541666666666667
            },
            {
              "pitch": 64,
              "velocity": 93,
              "position": 2.25,
              "duration": 0.3541666666666667
            },
            {
              "pitch": 55,
              "velocity": 43,
              "position": 2.75,
              "duration": 0.23958333333333334
            },
            {
              "pitch": 59,
              "velocity": 55,
              "position": 2.75,
              "duration": 0.23958333333333334
            },
            {
              "pitch": 64,
              "velocity": 52,
              "position": 2.75,
              "duration": 0.23958333333333334
            },
            {
              "pitch": 55,
              "velocity": 63,
              "position": 3,
              "duration": 0.10416666666666667
            },
            {
              "pitch": 59,
              "velocity": 61,
              "position": 3,
              "duration": 0.10416666666666667
            },
            {
              "pitch": 64,
              "velocity": 67,
              "position": 3,
              "duration": 0.10416666666666667
            },
            {
              "pitch": 55,
              "velocity": 43,
              "position": 3.5,
              "duration": 0.10416666666666667
            },
            {
              "pitch": 64,
              "velocity": 52,
              "position": 3.5,
              "duration": 0.10416666666666667
            },
            {
              "pitch": 59,
              "velocity": 55,
              "position": 3.5,
              "duration": 0.11458333333333333
            },
            {
              "pitch": 59,
              "velocity": 63,
              "position": 3.75,
              "duration": 0.09375
            },
            {
              "pitch": 55,
              "velocity": 70,
              "position": 3.75,
              "duration": 0.10416666666666667
            },
            {
              "pitch": 64,
              "velocity": 61,
              "position": 3.75,
              "duration": 0.11458333333333333
            }
          ]
        },
        "12": {
          "ctab": {
            "srcChannel": 12,
            "name": "Pno",
            "accType": "CHORD2",
            "editable": false,
            "mutedNotes": [],
            "mutedChords": [],
            "autoStart": false,
            "sourceChordNote": 0,
            "sourceChordType": "Maj7",
            "ctb2Low": null,
            "ctb2Main": {
              "ntr": "ROOT_FIXED",
              "ntt": "CHORD",
              "bassOn": false,
              "chordRootUpperLimit": 7,
              "noteLowLimit": 0,
              "noteHighLimit": 127,
              "rtr": "PITCH_SHIFT"
            },
            "ctb2High": null
          },
          "notes": [
            {
              "pitch": 64,
              "velocity": 70,
              "position": 0.25,
              "duration": 0.11458333333333333
            },
            {
              "pitch": 67,
              "velocity": 63,
              "position": 0.25,
              "duration": 0.11458333333333333
            },
            {
              "pitch": 71,
              "velocity": 76,
              "position": 0.25,
              "duration": 0.11458333333333333
            },
            {
              "pitch": 59,
              "velocity": 76,
              "position": 1.25,
              "duration": 0.11458333333333333
            },
            {
              "pitch": 64,
              "velocity": 70,
              "position": 1.25,
              "duration": 0.11458333333333333
            },
            {
              "pitch": 67,
              "velocity": 63,
              "position": 1.25,
              "duration": 0.11458333333333333
            },
            {
              "pitch": 55,
              "velocity": 63,
              "position": 2.25,
              "duration": 0.10416666666666667
            },
            {
              "pitch": 59,
              "velocity": 76,
              "position": 2.25,
              "duration": 0.10416666666666667
            },
            {
              "pitch": 64,
              "velocity": 70,
              "position": 2.25,
              "duration": 0.10416666666666667
            },
            {
              "pitch": 55,
              "velocity": 63,
              "position": 3,
              "duration": 0.7395833333333334
            },
            {
              "pitch": 59,
              "velocity": 76,
              "position": 3,
              "duration": 0.7395833333333334
            },
            {
              "pitch": 64,
              "velocity": 70,
              "position": 3,
              "duration": 0.7395833333333334
            }
          ]
        },
        "13": {
          "ctab": {
            "srcChannel": 13,
            "name": "Str",
            "accType": "PAD",
            "editable": false,
            "mutedNotes": [],
            "mutedChords": [],
            "autoStart": false,
            "sourceChordNote": 0,
            "sourceChordType": "Maj7",
            "ctb2Low": null,
            "ctb2Main": {
              "ntr": "ROOT_FIXED",
              "ntt": "CHORD",
              "bassOn": false,
              "chordRootUpperLimit": 7,
              "noteLowLimit": 0,
              "noteHighLimit": 127,
              "rtr": "PITCH_SHIFT"
            },
            "ctb2High": null
          },
          "notes": [
            {
              "pitch": 55,
              "velocity": 46,
              "position": 0,
              "duration": 3.9895833333333335
            },
            {
              "pitch": 59,
              "velocity": 46,
              "position": 0,
              "duration": 3.9895833333333335
            },
            {
              "pitch": 64,
              "velocity": 46,
              "position": 0,
              "duration": 3.9895833333333335
            },
            {
              "pitch": 72,
              "velocity": 46,
              "position": 0,
              "duration": 3.9895833333333335
            }
          ]
        }
      }
    },
    "Fill_In_DD": {
      "type": "Fill_In_DD",
      "sizeInBeats": 4,
      "channels": {
        "2": {
          "ctab": {
            "srcChannel": 2,
            "name": "NGt Root",
            "accType": "CHORD1",
            "editable": false,
            "mutedNotes": [],
            "mutedChords": [
              "1+2+5",
              "sus4",
              "1+5",
              "1+8",
              "Maj7aug",
              "dim",
              "minMaj7(9)",
              "minMaj7",
              "min6",
              "min",
              "aug",
              "Maj7(9)",
              "Maj7#11",
              "Maj7",
              "Maj6",
              "Maj"
            ],
            "autoStart": false,
            "sourceChordNote": 0,
            "sourceChordType": "Maj7",
            "ctb2Low": null,
            "ctb2Main": {
              "ntr": "ROOT_TRANSPOSITION",
              "ntt": "CHORD",
              "bassOn": false,
              "chordRootUpperLimit": 6,
              "noteLowLimit": 0,
              "noteHighLimit": 127,
              "rtr": "PITCH_SHIFT"
            },
            "ctb2High": null
          },
          "notes": [
            {
              "pitch": 60,
              "velocity": 79,
              "position": 0,
              "duration": 0.08333333333333333
            },
            {
              "pitch": 60,
              "velocity": 78,
              "position": 0.75,
              "duration": 0.8645833333333334
            },
            {
              "pitch": 60,
              "velocity": 61,
              "position": 2.25,
              "duration": 0.13541666666666666
            },
            {
              "pitch": 60,
              "velocity": 93,
              "position": 2.75,
              "duration": 0.8125
            }
          ]
        },
        "4": {
          "ctab": {
            "srcChannel": 4,
            "name": "Str Root",
            "accType": "PAD",
            "editable": false,
            "mutedNotes": [],
            "mutedChords": [
              "1+2+5",
              "sus4",
              "1+5",
              "1+8",
              "Maj7aug",
              "dim",
              "minMaj7(9)",
              "minMaj7",
              "min6",
              "min",
              "aug",
              "Maj7(9)",
              "Maj7#11",
              "Maj7",
              "Maj6",
              "Maj"
            ],
            "autoStart": false,
            "sourceChordNote": 0,
            "sourceChordType": "Maj7",
            "ctb2Low": null,
            "ctb2Main": {
              "ntr": "ROOT_TRANSPOSITION",
              "ntt": "CHORD",
              "bassOn": false,
              "chordRootUpperLimit": 6,
              "noteLowLimit": 0,
              "noteHighLimit": 127,
              "rtr": "PITCH_SHIFT"
            },
            "ctb2High": null
          },
          "notes": [
            {
              "pitch": 60,
              "velocity": 46,
              "position": 0,
              "duration": 3.9895833333333335
            }
          ]
        },
        "7": {
          "ctab": {
            "srcChannel": 7,
            "name": "CC_Crash",
            "accType": "RHYTHM",
            "editable": false,
            "mutedNotes": [],
            "mutedChords": [
              "1+2+5",
              "sus4",
              "1+5",
              "1+8",
              "7aug",
              "Maj7aug",
              "7(#9)",
              "7(b13)",
              "7(b9)",
              "7(13)",
              "7#11",
              "7(9)",
              "7b5",
              "7sus4",
              "7th",
              "dim7",
              "dim",
              "minMaj7(9)",
              "minMaj7",
              "min7(11)",
              "min7(9)",
              "min(9)",
              "m7b5",
              "min7",
              "min6",
              "min",
              "aug",
              "Maj6(9)",
              "Maj7(9)",
              "Maj(9)",
              "Maj7#11",
              "Maj7",
              "Maj6",
              "Maj"
            ],
            "autoStart": true,
            "sourceChordNote": 0,
            "sourceChordType": "Maj",
            "ctb2Low": null,
            "ctb2Main": {
              "ntr": "ROOT_FIXED",
              "ntt": "BYPASS",
              "bassOn": false,
              "chordRootUpperLimit": 0,
              "noteLowLimit": 0,
              "noteHighLimit": 127,
              "rtr": "RETRIGGER"
            },
            "ctb2High": null
          },
          "notes": []
        },
        "8": {
          "ctab": {
            "srcChannel": 8,
            "name": "Perc",
            "accType": "SUBRHYTHM",
            "editable": false,
            "mutedNotes": [],
            "mutedChords": [],
            "autoStart": true,
            "sourceChordNote": 0,
            "sourceChordType": "Maj7",
            "ctb2Low": null,
            "ctb2Main": {
              "ntr": "ROOT_FIXED",
              "ntt": "BYPASS",
              "bassOn": false,
              "chordRootUpperLimit": 6,
              "noteLowLimit": 0,
              "noteHighLimit": 127,
              "rtr": "PITCH_SHIFT"
            },
            "ctb2High": null
          },
          "notes": [
            {
              "pitch": 80,
              "velocity": 24,
              "position": 0,
              "duration": 0.010416666666666666
            },
            {
              "pitch": 81,
              "velocity": 31,
              "position": 0.2604166666666667,
              "duration": 0.010416666666666666
            },
            {
              "pitch": 76,
              "velocity": 28,
              "position": 0.4895833333333333,
              "duration": 0.010416666666666666
            },
            {
              "pitch": 81,
              "velocity": 45,
              "position": 0.4895833333333333,
              "duration": 0.010416666666666666
            },
            {
              "pitch": 80,
              "velocity": 32,
              "position": 0.7395833333333334,
              "duration": 0.010416666666666666
            },
            {
              "pitch": 80,
              "velocity": 15,
              "position": 0.9895833333333334,
              "duration": 0.010416666666666666
            },
            {
              "pitch": 81,
              "velocity": 32,
              "position": 1.2604166666666667,
              "duration": 0.010416666666666666
            },
            {
              "pitch": 77,
              "velocity": 28,
              "position": 1.4895833333333333,
              "duration": 0.010416666666666666
            },
            {
              "pitch": 81,
              "velocity": 45,
              "position": 1.4895833333333333,
              "duration": 0.010416666666666666
            },
            {
              "pitch": 80,
              "velocity": 20,
              "position": 1.7395833333333333,
              "duration": 0.010416666666666666
            },
            {
              "pitch": 80,
              "velocity": 31,
              "position": 1.9895833333333333,
              "duration": 0.010416666666666666
            },
            {
              "pitch": 77,
              "velocity": 24,
              "position": 2.2604166666666665,
              "duration": 0.010416666666666666
            },
            {
              "pitch": 81,
              "velocity": 25,
              "position": 2.2604166666666665,
              "duration": 0.010416666666666666
            },
            {
              "pitch": 77,
              "velocity": 24,
              "position": 2.4895833333333335,
              "duration": 0.010416666666666666
            },
            {
              "pitch": 81,
              "velocity": 45,
              "position": 2.4895833333333335,
              "duration": 0.010416666666666666
            },
            {
              "pitch": 77,
              "velocity": 44,
              "position": 2.7395833333333335,
              "duration": 0.010416666666666666
            },
            {
              "pitch": 80,
              "velocity": 28,
              "position": 2.7395833333333335,
              "duration": 0.010416666666666666
            },
            {
              "pitch": 80,
              "velocity": 31,
              "position": 2.9895833333333335,
              "duration": 0.010416666666666666
            },
            {
              "pitch": 77,
              "velocity": 24,
              "position": 3.2604166666666665,
              "duration": 0.010416666666666666
            },
            {
              "pitch": 81,
              "velocity": 27,
              "position": 3.2604166666666665,
              "duration": 0.010416666666666666
            },
            {
              "pitch": 77,
              "velocity": 44,
              "position": 3.4895833333333335,
              "duration": 0.010416666666666666
            },
            {
              "pitch": 81,
              "velocity": 48,
              "position": 3.4895833333333335,
              "duration": 0.010416666666666666
            },
            {
              "pitch": 80,
              "velocity": 19,
              "position": 3.7395833333333335,
              "duration": 0.010416666666666666
            }
          ]
        },
        "9": {
          "ctab": {
            "srcChannel": 9,
            "name": "Drs",
            "accType": "RHYTHM",
            "editable": false,
            "mutedNotes": [],
            "mutedChords": [],
            "autoStart": true,
            "sourceChordNote": 0,
            "sourceChordType": "Maj7",
            "ctb2Low": null,
            "ctb2Main": {
              "ntr": "ROOT_FIXED",
              "ntt": "BYPASS",
              "bassOn": false,
              "chordRootUpperLimit": 6,
              "noteLowLimit": 0,
              "noteHighLimit": 127,
              "rtr": "PITCH_SHIFT"
            },
            "ctb2High": null
          },
          "notes": [
            {
              "pitch": 35,
              "velocity": 93,
              "position": 0,
              "duration": 0.010416666666666666
            },
            {
              "pitch": 42,
              "velocity": 80,
              "position": 0,
              "duration": 0.010416666666666666
            },
            {
              "pitch": 42,
              "velocity": 50,
              "position": 0.2604166666666667,
              "duration": 0.010416666666666666
            },
            {
              "pitch": 42,
              "velocity": 60,
              "position": 0.4895833333333333,
              "duration": 0.010416666666666666
            },
            {
              "pitch": 42,
              "velocity": 80,
              "position": 0.7395833333333334,
              "duration": 0.010416666666666666
            },
            {
              "pitch": 35,
              "velocity": 93,
              "position": 0.75,
              "duration": 0.010416666666666666
            },
            {
              "pitch": 42,
              "velocity": 80,
              "position": 0.9895833333333334,
              "duration": 0.010416666666666666
            },
            {
              "pitch": 40,
              "velocity": 37,
              "position": 1.2604166666666667,
              "duration": 0.010416666666666666
            },
            {
              "pitch": 42,
              "velocity": 50,
              "position": 1.2604166666666667,
              "duration": 0.010416666666666666
            },
            {
              "pitch": 40,
              "velocity": 52,
              "position": 1.4895833333333333,
              "duration": 0.010416666666666666
            },
            {
              "pitch": 42,
              "velocity": 60,
              "position": 1.4895833333333333,
              "duration": 0.010416666666666666
            },
            {
              "pitch": 40,
              "velocity": 77,
              "position": 1.7395833333333333,
              "duration": 0.010416666666666666
            },
            {
              "pitch": 42,
              "velocity": 80,
              "position": 1.7395833333333333,
              "duration": 0.010416666666666666
            },
            {
              "pitch": 42,
              "velocity": 80,
              "position": 1.9895833333333333,
              "duration": 0.010416666666666666
            },
            {
              "pitch": 35,
              "velocity": 93,
              "position": 2,
              "duration": 0.010416666666666666
            },
            {
              "pitch": 46,
              "velocity": 50,
              "position": 2.2604166666666665,
              "duration": 0.010416666666666666
            },
            {
              "pitch": 47,
              "velocity": 40,
              "position": 2.2604166666666665,
              "duration": 0.010416666666666666
            },
            {
              "pitch": 42,
              "velocity": 60,
              "position": 2.4895833333333335,
              "duration": 0.010416666666666666
            },
            {
              "pitch": 42,
              "velocity": 80,
              "position": 2.7395833333333335,
              "duration": 0.010416666666666666
            },
            {
              "pitch": 47,
              "velocity": 70,
              "position": 2.7395833333333335,
              "duration": 0.010416666666666666
            },
            {
              "pitch": 35,
              "velocity": 93,
              "position": 2.75,
              "duration": 0.010416666666666666
            },
            {
              "pitch": 42,
              "velocity": 80,
              "position": 2.9895833333333335,
              "duration": 0.010416666666666666
            },
            {
              "pitch": 42,
              "velocity": 50,
              "position": 3.2604166666666665,
              "duration": 0.010416666666666666
            },
            {
              "pitch": 45,
              "velocity": 40,
              "position": 3.2604166666666665,
              "duration": 0.010416666666666666
            },
            {
              "pitch": 42,
              "velocity": 60,
              "position": 3.4895833333333335,
              "duration": 0.010416666666666666
            },
            {
              "pitch": 45,
              "velocity": 70,
              "position": 3.4895833333333335,
              "duration": 0.010416666666666666
            },
            {
              "pitch": 42,
              "velocity": 80,
              "position": 3.7395833333333335,
              "duration": 0.010416666666666666
            },
            {
              "pitch": 49,
              "velocity": 60,
              "position": 3.9895833333333335,
              "duration": 0.010416666666666666
            }
          ]
        },
        "10": {
          "ctab": {
            "srcChannel": 10,
            "name": "Bass",
            "accType": "BASS",
            "editable": false,
            "mutedNotes": [],
            "mutedChords": [],
            "autoStart": false,
            "sourceChordNote": 0,
            "sourceChordType": "Maj7",
            "ctb2Low": null,
            "ctb2Main": {
              "ntr": "ROOT_TRANSPOSITION",
              "ntt": "MELODY",
              "bassOn": true,
              "chordRootUpperLimit": 3,
              "noteLowLimit": 28,
              "noteHighLimit": 127,
              "rtr": "PITCH_SHIFT_TO_ROOT"
            },
            "ctb2High": null
          },
          "notes": [
            {
              "pitch": 24,
              "velocity": 98,
              "position": 0,
              "duration": 0.71875
            },
            {
              "pitch": 31,
              "velocity": 98,
              "position": 0.75,
              "duration": 0.7395833333333334
            },
            {
              "pitch": 24,
              "velocity": 98,
              "position": 1.5,
              "duration": 1.2083333333333333
            },
            {
              "pitch": 31,
              "velocity": 98,
              "position": 2.75,
              "duration": 0.7395833333333334
            },
            {
              "pitch": 24,
              "velocity": 98,
              "position": 3.5,
              "duration": 0.23958333333333334
            },
            {
              "pitch": 31,
              "velocity": 63,
              "position": 3.75,
              "duration": 0.22916666666666666
            }
          ]
        },
        "11": {
          "ctab": {
            "srcChannel": 11,
            "name": "NGt",
            "accType": "CHORD1",
            "editable": false,
            "mutedNotes": [],
            "mutedChords": [],
            "autoStart": false,
            "sourceChordNote": 0,
            "sourceChordType": "Maj7",
            "ctb2Low": null,
            "ctb2Main": {
              "ntr": "ROOT_FIXED",
              "ntt": "CHORD",
              "bassOn": false,
              "chordRootUpperLimit": 7,
              "noteLowLimit": 0,
              "noteHighLimit": 127,
              "rtr": "PITCH_SHIFT"
            },
            "ctb2High": null
          },
          "notes": [
            {
              "pitch": 59,
              "velocity": 79,
              "position": 0,
              "duration": 0.08333333333333333
            },
            {
              "pitch": 55,
              "velocity": 79,
              "position": 0,
              "duration": 0.11458333333333333
            },
            {
              "pitch": 64,
              "velocity": 81,
              "position": 0,
              "duration": 0.13541666666666666
            },
            {
              "pitch": 55,
              "velocity": 91,
              "position": 0.75,
              "duration": 0.8125
            },
            {
              "pitch": 59,
              "velocity": 78,
              "position": 0.75,
              "duration": 0.8645833333333334
            },
            {
              "pitch": 64,
              "velocity": 88,
              "position": 0.75,
              "duration": 0.875
            },
            {
              "pitch": 64,
              "velocity": 59,
              "position": 2.25,
              "duration": 0.125
            },
            {
              "pitch": 59,
              "velocity": 61,
              "position": 2.25,
              "duration": 0.13541666666666666
            },
            {
              "pitch": 55,
              "velocity": 52,
              "position": 2.25,
              "duration": 0.1875
            },
            {
              "pitch": 59,
              "velocity": 93,
              "position": 2.75,
              "duration": 0.8125
            },
            {
              "pitch": 55,
              "velocity": 80,
              "position": 2.75,
              "duration": 0.8229166666666666
            },
            {
              "pitch": 64,
              "velocity": 87,
              "position": 2.75,
              "duration": 0.8541666666666666
            }
          ]
        },
        "12": {
          "ctab": {
            "srcChannel": 12,
            "name": "Pno",
            "accType": "CHORD2",
            "editable": false,
            "mutedNotes": [],
            "mutedChords": [],
            "autoStart": false,
            "sourceChordNote": 0,
            "sourceChordType": "Maj7",
            "ctb2Low": null,
            "ctb2Main": {
              "ntr": "ROOT_FIXED",
              "ntt": "CHORD",
              "bassOn": false,
              "chordRootUpperLimit": 7,
              "noteLowLimit": 0,
              "noteHighLimit": 127,
              "rtr": "PITCH_SHIFT"
            },
            "ctb2High": null
          },
          "notes": [
            {
              "pitch": 55,
              "velocity": 73,
              "position": 0,
              "duration": 1.875
            },
            {
              "pitch": 64,
              "velocity": 67,
              "position": 0,
              "duration": 1.8958333333333333
            },
            {
              "pitch": 59,
              "velocity": 73,
              "position": 0,
              "duration": 1.9375
            },
            {
              "pitch": 64,
              "velocity": 70,
              "position": 2,
              "duration": 0.6145833333333334
            },
            {
              "pitch": 55,
              "velocity": 69,
              "position": 2,
              "duration": 0.625
            },
            {
              "pitch": 59,
              "velocity": 64,
              "position": 2,
              "duration": 0.625
            },
            {
              "pitch": 64,
              "velocity": 61,
              "position": 2.75,
              "duration": 0.13541666666666666
            },
            {
              "pitch": 59,
              "velocity": 53,
              "position": 2.75,
              "duration": 0.15625
            },
            {
              "pitch": 55,
              "velocity": 53,
              "position": 2.75,
              "duration": 0.16666666666666666
            },
            {
              "pitch": 55,
              "velocity": 63,
              "position": 3.25,
              "duration": 0.14583333333333334
            },
            {
              "pitch": 59,
              "velocity": 73,
              "position": 3.25,
              "duration": 0.14583333333333334
            },
            {
              "pitch": 64,
              "velocity": 74,
              "position": 3.25,
              "duration": 0.16666666666666666
            }
          ]
        },
        "13": {
          "ctab": {
            "srcChannel": 13,
            "name": "Str",
            "accType": "PAD",
            "editable": false,
            "mutedNotes": [],
            "mutedChords": [],
            "autoStart": false,
            "sourceChordNote": 0,
            "sourceChordType": "Maj7",
            "ctb2Low": null,
            "ctb2Main": {
              "ntr": "ROOT_FIXED",
              "ntt": "CHORD",
              "bassOn": false,
              "chordRootUpperLimit": 7,
              "noteLowLimit": 0,
              "noteHighLimit": 127,
              "rtr": "PITCH_SHIFT"
            },
            "ctb2High": null
          },
          "notes": [
            {
              "pitch": 55,
              "velocity": 46,
              "position": 0,
              "duration": 3.9895833333333335
            },
            {
              "pitch": 59,
              "velocity": 46,
              "position": 0,
              "duration": 3.9895833333333335
            },
            {
              "pitch": 64,
              "velocity": 46,
              "position": 0,
              "duration": 3.9895833333333335
            },
            {
              "pitch": 72,
              "velocity": 46,
              "position": 0,
              "duration": 3.9895833333333335
            }
          ]
        }
      }
    },
    "Intro_A": {
      "type": "Intro_A",
      "sizeInBeats": 4,
      "channels": {
        "2": {
          "ctab": {
            "srcChannel": 2,
            "name": "NGt Root",
            "accType": "CHORD1",
            "editable": false,
            "mutedNotes": [],
            "mutedChords": [
              "1+2+5",
              "sus4",
              "1+5",
              "1+8",
              "Maj7aug",
              "dim",
              "minMaj7(9)",
              "minMaj7",
              "min6",
              "min",
              "aug",
              "Maj7(9)",
              "Maj7#11",
              "Maj7",
              "Maj6",
              "Maj"
            ],
            "autoStart": false,
            "sourceChordNote": 0,
            "sourceChordType": "Maj7",
            "ctb2Low": null,
            "ctb2Main": {
              "ntr": "ROOT_TRANSPOSITION",
              "ntt": "CHORD",
              "bassOn": false,
              "chordRootUpperLimit": 6,
              "noteLowLimit": 0,
              "noteHighLimit": 127,
              "rtr": "PITCH_SHIFT"
            },
            "ctb2High": null
          },
          "notes": []
        },
        "4": {
          "ctab": {
            "srcChannel": 4,
            "name": "Str Root",
            "accType": "PAD",
            "editable": false,
            "mutedNotes": [],
            "mutedChords": [
              "1+2+5",
              "sus4",
              "1+5",
              "1+8",
              "Maj7aug",
              "dim",
              "minMaj7(9)",
              "minMaj7",
              "min6",
              "min",
              "aug",
              "Maj7(9)",
              "Maj7#11",
              "Maj7",
              "Maj6",
              "Maj"
            ],
            "autoStart": false,
            "sourceChordNote": 0,
            "sourceChordType": "Maj7",
            "ctb2Low": null,
            "ctb2Main": {
              "ntr": "ROOT_TRANSPOSITION",
              "ntt": "CHORD",
              "bassOn": false,
              "chordRootUpperLimit": 6,
              "noteLowLimit": 0,
              "noteHighLimit": 127,
              "rtr": "PITCH_SHIFT"
            },
            "ctb2High": null
          },
          "notes": []
        },
        "7": {
          "ctab": {
            "srcChannel": 7,
            "name": "CC_Crash",
            "accType": "RHYTHM",
            "editable": false,
            "mutedNotes": [],
            "mutedChords": [
              "1+2+5",
              "sus4",
              "1+5",
              "1+8",
              "7aug",
              "Maj7aug",
              "7(#9)",
              "7(b13)",
              "7(b9)",
              "7(13)",
              "7#11",
              "7(9)",
              "7b5",
              "7sus4",
              "7th",
              "dim7",
              "dim",
              "minMaj7(9)",
              "minMaj7",
              "min7(11)",
              "min7(9)",
              "min(9)",
              "m7b5",
              "min7",
              "min6",
              "min",
              "aug",
              "Maj6(9)",
              "Maj7(9)",
              "Maj(9)",
              "Maj7#11",
              "Maj7",
              "Maj6",
              "Maj"
            ],
            "autoStart": true,
            "sourceChordNote": 0,
            "sourceChordType": "Maj",
            "ctb2Low": null,
            "ctb2Main": {
              "ntr": "ROOT_FIXED",
              "ntt": "BYPASS",
              "bassOn": false,
              "chordRootUpperLimit": 0,
              "noteLowLimit": 0,
              "noteHighLimit": 127,
              "rtr": "RETRIGGER"
            },
            "ctb2High": null
          },
          "notes": []
        },
        "8": {
          "ctab": {
            "srcChannel": 8,
            "name": "Perc",
            "accType": "SUBRHYTHM",
            "editable": false,
            "mutedNotes": [],
            "mutedChords": [],
            "autoStart": true,
            "sourceChordNote": 0,
            "sourceChordType": "Maj7",
            "ctb2Low": null,
            "ctb2Main": {
              "ntr": "ROOT_FIXED",
              "ntt": "BYPASS",
              "bassOn": false,
              "chordRootUpperLimit": 6,
              "noteLowLimit": 0,
              "noteHighLimit": 127,
              "rtr": "PITCH_SHIFT"
            },
            "ctb2High": null
          },
          "notes": [
            {
              "pitch": 67,
              "velocity": 63,
              "position": 0.2604166666666667,
              "duration": 0.010416666666666666
            },
            {
              "pitch": 77,
              "velocity": 54,
              "position": 0.2604166666666667,
              "duration": 0.010416666666666666
            },
            {
              "pitch": 72,
              "velocity": 30,
              "position": 0.2604166666666667,
              "duration": 0.20833333333333334
            },
            {
              "pitch": 67,
              "velocity": 33,
              "position": 0.7395833333333334,
              "duration": 0.010416666666666666
            },
            {
              "pitch": 77,
              "velocity": 24,
              "position": 0.7395833333333334,
              "duration": 0.010416666666666666
            },
            {
              "pitch": 72,
              "velocity": 40,
              "position": 0.7395833333333334,
              "duration": 0.0625
            },
            {
              "pitch": 67,
              "velocity": 53,
              "position": 0.9895833333333334,
              "duration": 0.010416666666666666
            },
            {
              "pitch": 77,
              "velocity": 44,
              "position": 0.9895833333333334,
              "duration": 0.010416666666666666
            },
            {
              "pitch": 72,
              "velocity": 50,
              "position": 0.9895833333333334,
              "duration": 0.08333333333333333
            },
            {
              "pitch": 67,
              "velocity": 93,
              "position": 1.2604166666666667,
              "duration": 0.010416666666666666
            },
            {
              "pitch": 77,
              "velocity": 84,
              "position": 1.2604166666666667,
              "duration": 0.010416666666666666
            },
            {
              "pitch": 72,
              "velocity": 30,
              "position": 1.2604166666666667,
              "duration": 0.20833333333333334
            },
            {
              "pitch": 67,
              "velocity": 33,
              "position": 1.7395833333333333,
              "duration": 0.010416666666666666
            },
            {
              "pitch": 77,
              "velocity": 24,
              "position": 1.7395833333333333,
              "duration": 0.010416666666666666
            },
            {
              "pitch": 72,
              "velocity": 40,
              "position": 1.7395833333333333,
              "duration": 0.0625
            },
            {
              "pitch": 67,
              "velocity": 53,
              "position": 1.9895833333333333,
              "duration": 0.010416666666666666
            },
            {
              "pitch": 77,
              "velocity": 44,
              "position": 1.9895833333333333,
              "duration": 0.010416666666666666
            },
            {
              "pitch": 72,
              "velocity": 50,
              "position": 1.9895833333333333,
              "duration": 1.7604166666666667
            }
          ]
        },
        "9": {
          "ctab": {
            "srcChannel": 9,
            "name": "Drs",
            "accType": "RHYTHM",
            "editable": false,
            "mutedNotes": [],
            "mutedChords": [],
            "autoStart": true,
            "sourceChordNote": 0,
            "sourceChordType": "Maj7",
            "ctb2Low": null,
            "ctb2Main": {
              "ntr": "ROOT_FIXED",
              "ntt": "BYPASS",
              "bassOn": false,
              "chordRootUpperLimit": 6,
              "noteLowLimit": 0,
              "noteHighLimit": 127,
              "rtr": "PITCH_SHIFT"
            },
            "ctb2High": null
          },
          "notes": [
            {
              "pitch": 42,
              "velocity": 80,
              "position": 0,
              "duration": 0.010416666666666666
            },
            {
              "pitch": 42,
              "velocity": 80,
              "position": 1,
              "duration": 0.010416666666666666
            },
            {
              "pitch": 42,
              "velocity": 80,
              "position": 2,
              "duration": 0.010416666666666666
            },
            {
              "pitch": 40,
              "velocity": 67,
              "position": 2.2395833333333335,
              "duration": 0.010416666666666666
            },
            {
              "pitch": 29,
              "velocity": 60,
              "position": 2.2395833333333335,
              "duration": 0.3020833333333333
            },
            {
              "pitch": 45,
              "velocity": 30,
              "position": 2.7395833333333335,
              "duration": 0.010416666666666666
            },
            {
              "pitch": 31,
              "velocity": 50,
              "position": 2.75,
              "duration": 0.010416666666666666
            },
            {
              "pitch": 45,
              "velocity": 50,
              "position": 2.9895833333333335,
              "duration": 0.010416666666666666
            },
            {
              "pitch": 45,
              "velocity": 30,
              "position": 3.2604166666666665,
              "duration": 0.010416666666666666
            },
            {
              "pitch": 45,
              "velocity": 40,
              "position": 3.7395833333333335,
              "duration": 0.010416666666666666
            },
            {
              "pitch": 35,
              "velocity": 63,
              "position": 3.75,
              "duration": 0.010416666666666666
            },
            {
              "pitch": 49,
              "velocity": 60,
              "position": 3.9895833333333335,
              "duration": 0.010416666666666666
            }
          ]
        },
        "10": {
          "ctab": {
            "srcChannel": 10,
            "name": "Bass",
            "accType": "BASS",
            "editable": false,
            "mutedNotes": [],
            "mutedChords": [],
            "autoStart": false,
            "sourceChordNote": 0,
            "sourceChordType": "Maj7",
            "ctb2Low": null,
            "ctb2Main": {
              "ntr": "ROOT_TRANSPOSITION",
              "ntt": "MELODY",
              "bassOn": true,
              "chordRootUpperLimit": 3,
              "noteLowLimit": 28,
              "noteHighLimit": 127,
              "rtr": "PITCH_SHIFT_TO_ROOT"
            },
            "ctb2High": null
          },
          "notes": []
        },
        "11": {
          "ctab": {
            "srcChannel": 11,
            "name": "NGt",
            "accType": "CHORD1",
            "editable": false,
            "mutedNotes": [],
            "mutedChords": [],
            "autoStart": false,
            "sourceChordNote": 0,
            "sourceChordType": "Maj7",
            "ctb2Low": null,
            "ctb2Main": {
              "ntr": "ROOT_FIXED",
              "ntt": "CHORD",
              "bassOn": false,
              "chordRootUpperLimit": 7,
              "noteLowLimit": 0,
              "noteHighLimit": 127,
              "rtr": "PITCH_SHIFT"
            },
            "ctb2High": null
          },
          "notes": []
        },
        "12": {
          "ctab": {
            "srcChannel": 12,
            "name": "Pno",
            "accType": "CHORD2",
            "editable": false,
            "mutedNotes": [],
            "mutedChords": [],
            "autoStart": false,
            "sourceChordNote": 0,
            "sourceChordType": "Maj7",
            "ctb2Low": null,
            "ctb2Main": {
              "ntr": "ROOT_FIXED",
              "ntt": "CHORD",
              "bassOn": false,
              "chordRootUpperLimit": 7,
              "noteLowLimit": 0,
              "noteHighLimit": 127,
              "rtr": "PITCH_SHIFT"
            },
            "ctb2High": null
          },
          "notes": []
        },
        "13": {
          "ctab": {
            "srcChannel": 13,
            "name": "Str",
            "accType": "PAD",
            "editable": false,
            "mutedNotes": [],
            "mutedChords": [],
            "autoStart": false,
            "sourceChordNote": 0,
            "sourceChordType": "Maj7",
            "ctb2Low": null,
            "ctb2Main": {
              "ntr": "ROOT_FIXED",
              "ntt": "CHORD",
              "bassOn": false,
              "chordRootUpperLimit": 7,
              "noteLowLimit": 0,
              "noteHighLimit": 127,
              "rtr": "PITCH_SHIFT"
            },
            "ctb2High": null
          },
          "notes": []
        }
      }
    },
    "Ending_A": {
      "type": "Ending_A",
      "sizeInBeats": 8,
      "channels": {
        "2": {
          "ctab": {
            "srcChannel": 2,
            "name": "NGt Root",
            "accType": "CHORD1",
            "editable": false,
            "mutedNotes": [],
            "mutedChords": [
              "1+2+5",
              "sus4",
              "1+5",
              "1+8",
              "Maj7aug",
              "dim",
              "minMaj7(9)",
              "minMaj7",
              "min6",
              "min",
              "aug",
              "Maj7(9)",
              "Maj7#11",
              "Maj7",
              "Maj6",
              "Maj"
            ],
            "autoStart": false,
            "sourceChordNote": 0,
            "sourceChordType": "Maj7",
            "ctb2Low": null,
            "ctb2Main": {
              "ntr": "ROOT_TRANSPOSITION",
              "ntt": "CHORD",
              "bassOn": false,
              "chordRootUpperLimit": 6,
              "noteLowLimit": 0,
              "noteHighLimit": 127,
              "rtr": "PITCH_SHIFT"
            },
            "ctb2High": null
          },
          "notes": [
            {
              "pitch": 60,
              "velocity": 92,
              "position": 0,
              "duration": 7.958333333333333
            }
          ]
        },
        "4": {
          "ctab": {
            "srcChannel": 4,
            "name": "Str Root",
            "accType": "PAD",
            "editable": false,
            "mutedNotes": [],
            "mutedChords": [
              "1+2+5",
              "sus4",
              "1+5",
              "1+8",
              "Maj7aug",
              "dim",
              "minMaj7(9)",
              "minMaj7",
              "min6",
              "min",
              "aug",
              "Maj7(9)",
              "Maj7#11",
              "Maj7",
              "Maj6",
              "Maj"
            ],
            "autoStart": false,
            "sourceChordNote": 0,
            "sourceChordType": "Maj7",
            "ctb2Low": null,
            "ctb2Main": {
              "ntr": "ROOT_TRANSPOSITION",
              "ntt": "CHORD",
              "bassOn": false,
              "chordRootUpperLimit": 6,
              "noteLowLimit": 0,
              "noteHighLimit": 127,
              "rtr": "PITCH_SHIFT"
            },
            "ctb2High": null
          },
          "notes": [
            {
              "pitch": 60,
              "velocity": 46,
              "position": 0,
              "duration": 7.979166666666667
            }
          ]
        },
        "7": {
          "ctab": {
            "srcChannel": 7,
            "name": "CC_Crash",
            "accType": "RHYTHM",
            "editable": false,
            "mutedNotes": [],
            "mutedChords": [
              "1+2+5",
              "sus4",
              "1+5",
              "1+8",
              "7aug",
              "Maj7aug",
              "7(#9)",
              "7(b13)",
              "7(b9)",
              "7(13)",
              "7#11",
              "7(9)",
              "7b5",
              "7sus4",
              "7th",
              "dim7",
              "dim",
              "minMaj7(9)",
              "minMaj7",
              "min7(11)",
              "min7(9)",
              "min(9)",
              "m7b5",
              "min7",
              "min6",
              "min",
              "aug",
              "Maj6(9)",
              "Maj7(9)",
              "Maj(9)",
              "Maj7#11",
              "Maj7",
              "Maj6",
              "Maj"
            ],
            "autoStart": true,
            "sourceChordNote": 0,
            "sourceChordType": "Maj",
            "ctb2Low": null,
            "ctb2Main": {
              "ntr": "ROOT_FIXED",
              "ntt": "BYPASS",
              "bassOn": false,
              "chordRootUpperLimit": 0,
              "noteLowLimit": 0,
              "noteHighLimit": 127,
              "rtr": "RETRIGGER"
            },
            "ctb2High": null
          },
          "notes": []
        },
        "8": {
          "ctab": {
            "srcChannel": 8,
            "name": "Perc",
            "accType": "SUBRHYTHM",
            "editable": false,
            "mutedNotes": [],
            "mutedChords": [],
            "autoStart": true,
            "sourceChordNote": 0,
            "sourceChordType": "Maj7",
            "ctb2Low": null,
            "ctb2Main": {
              "ntr": "ROOT_FIXED",
              "ntt": "BYPASS",
              "bassOn": false,
              "chordRootUpperLimit": 6,
              "noteLowLimit": 0,
              "noteHighLimit": 127,
              "rtr": "PITCH_SHIFT"
            },
            "ctb2High": null
          },
          "notes": []
        },
        "9": {
          "ctab": {
            "srcChannel": 9,
            "name": "Drs",
            "accType": "RHYTHM",
            "editable": false,
            "mutedNotes": [],
            "mutedChords": [],
            "autoStart": true,
            "sourceChordNote": 0,
            "sourceChordType": "Maj7",
            "ctb2Low": null,
            "ctb2Main": {
              "ntr": "ROOT_FIXED",
              "ntt": "BYPASS",
              "bassOn": false,
              "chordRootUpperLimit": 6,
              "noteLowLimit": 0,
              "noteHighLimit": 127,
              "rtr": "PITCH_SHIFT"
            },
            "ctb2High": null
          },
          "notes": [
            {
              "pitch": 35,
              "velocity": 93,
              "position": 0,
              "duration": 0.010416666666666666
            }
          ]
        },
        "10": {
          "ctab": {
            "srcChannel": 10,
            "name": "Bass",
            "accType": "BASS",
            "editable": false,
            "mutedNotes": [],
            "mutedChords": [],
            "autoStart": false,
            "sourceChordNote": 0,
            "sourceChordType": "Maj7",
            "ctb2Low": null,
            "ctb2Main": {
              "ntr": "ROOT_TRANSPOSITION",
              "ntt": "MELODY",
              "bassOn": true,
              "chordRootUpperLimit": 3,
              "noteLowLimit": 28,
              "noteHighLimit": 127,
              "rtr": "PITCH_SHIFT_TO_ROOT"
            },
            "ctb2High": null
          },
          "notes": [
            {
              "pitch": 24,
              "velocity": 98,
              "position": 0,
              "duration": 7.979166666666667
            }
          ]
        },
        "11": {
          "ctab": {
            "srcChannel": 11,
            "name": "NGt",
            "accType": "CHORD1",
            "editable": false,
            "mutedNotes": [],
            "mutedChords": [],
            "autoStart": false,
            "sourceChordNote": 0,
            "sourceChordType": "Maj7",
            "ctb2Low": null,
            "ctb2Main": {
              "ntr": "ROOT_FIXED",
              "ntt": "CHORD",
              "bassOn": false,
              "chordRootUpperLimit": 7,
              "noteLowLimit": 0,
              "noteHighLimit": 127,
              "rtr": "PITCH_SHIFT"
            },
            "ctb2High": null
          },
          "notes": [
            {
              "pitch": 64,
              "velocity": 93,
              "position": 0,
              "duration": 7.947916666666667
            },
            {
              "pitch": 55,
              "velocity": 93,
              "position": 0,
              "duration": 7.958333333333333
            },
            {
              "pitch": 59,
              "velocity": 92,
              "position": 0,
              "duration": 7.958333333333333
            }
          ]
        },
        "12": {
          "ctab": {
            "srcChannel": 12,
            "name": "Pno",
            "accType": "CHORD2",
            "editable": false,
            "mutedNotes": [],
            "mutedChords": [],
            "autoStart": false,
            "sourceChordNote": 0,
            "sourceChordType": "Maj7",
            "ctb2Low": null,
            "ctb2Main": {
              "ntr": "ROOT_FIXED",
              "ntt": "CHORD",
              "bassOn": false,
              "chordRootUpperLimit": 7,
              "noteLowLimit": 0,
              "noteHighLimit": 127,
              "rtr": "PITCH_SHIFT"
            },
            "ctb2High": null
          },
          "notes": [
            {
              "pitch": 55,
              "velocity": 63,
              "position": 0,
              "duration": 7.989583333333333
            },
            {
              "pitch": 59,
              "velocity": 73,
              "position": 0,
              "duration": 7.989583333333333
            },
            {
              "pitch": 64,
              "velocity": 74,
              "position": 0,
              "duration": 7.989583333333333
            }
          ]
        },
        "13": {
          "ctab": {
            "srcChannel": 13,
            "name": "Str",
            "accType": "PAD",
            "editable": false,
            "mutedNotes": [],
            "mutedChords": [],
            "autoStart": false,
            "sourceChordNote": 0,
            "sourceChordType": "Maj7",
            "ctb2Low": null,
            "ctb2Main": {
              "ntr": "ROOT_FIXED",
              "ntt": "CHORD",
              "bassOn": false,
              "chordRootUpperLimit": 7,
              "noteLowLimit": 0,
              "noteHighLimit": 127,
              "rtr": "PITCH_SHIFT"
            },
            "ctb2High": null
          },
          "notes": [
            {
              "pitch": 55,
              "velocity": 46,
              "position": 0,
              "duration": 7.979166666666667
            },
            {
              "pitch": 59,
              "velocity": 46,
              "position": 0,
              "duration": 7.979166666666667
            },
            {
              "pitch": 64,
              "velocity": 46,
              "position": 0,
              "duration": 7.979166666666667
            }
          ]
        }
      }
    },
    "Ending_B": {
      "type": "Ending_B",
      "sizeInBeats": 8,
      "channels": {
        "2": {
          "ctab": {
            "srcChannel": 2,
            "name": "NGt Root",
            "accType": "CHORD1",
            "editable": false,
            "mutedNotes": [],
            "mutedChords": [
              "1+2+5",
              "sus4",
              "1+5",
              "1+8",
              "Maj7aug",
              "dim",
              "minMaj7(9)",
              "minMaj7",
              "min6",
              "min",
              "aug",
              "Maj7(9)",
              "Maj7#11",
              "Maj7",
              "Maj6",
              "Maj"
            ],
            "autoStart": false,
            "sourceChordNote": 0,
            "sourceChordType": "Maj7",
            "ctb2Low": null,
            "ctb2Main": {
              "ntr": "ROOT_TRANSPOSITION",
              "ntt": "CHORD",
              "bassOn": false,
              "chordRootUpperLimit": 6,
              "noteLowLimit": 0,
              "noteHighLimit": 127,
              "rtr": "PITCH_SHIFT"
            },
            "ctb2High": null
          },
          "notes": [
            {
              "pitch": 60,
              "velocity": 92,
              "position": 0,
              "duration": 0.15625
            },
            {
              "pitch": 60,
              "velocity": 99,
              "position": 0.5,
              "duration": 0.625
            },
            {
              "pitch": 60,
              "velocity": 92,
              "position": 1.25,
              "duration": 0.16666666666666666
            },
            {
              "pitch": 60,
              "velocity": 96,
              "position": 1.75,
              "duration": 0.6041666666666666
            },
            {
              "pitch": 60,
              "velocity": 92,
              "position": 2.75,
              "duration": 0.15625
            },
            {
              "pitch": 60,
              "velocity": 99,
              "position": 3.25,
              "duration": 0.14583333333333334
            },
            {
              "pitch": 60,
              "velocity": 96,
              "position": 3.5,
              "duration": 0.14583333333333334
            },
            {
              "pitch": 60,
              "velocity": 102,
              "position": 4,
              "duration": 3.9895833333333335
            }
          ]
        },
        "4": {
          "ctab": {
            "srcChannel": 4,
            "name": "Str Root",
            "accType": "PAD",
            "editable": false,
            "mutedNotes": [],
            "mutedChords": [
              "1+2+5",
              "sus4",
              "1+5",
              "1+8",
              "Maj7aug",
              "dim",
              "minMaj7(9)",
              "minMaj7",
              "min6",
              "min",
              "aug",
              "Maj7(9)",
              "Maj7#11",
              "Maj7",
              "Maj6",
              "Maj"
            ],
            "autoStart": false,
            "sourceChordNote": 0,
            "sourceChordType": "Maj7",
            "ctb2Low": null,
            "ctb2Main": {
              "ntr": "ROOT_TRANSPOSITION",
              "ntt": "CHORD",
              "bassOn": false,
              "chordRootUpperLimit": 6,
              "noteLowLimit": 0,
              "noteHighLimit": 127,
              "rtr": "PITCH_SHIFT"
            },
            "ctb2High": null
          },
          "notes": [
            {
              "pitch": 60,
              "velocity": 64,
              "position": 0,
              "duration": 7.979166666666667
            }
          ]
        },
        "7": {
          "ctab": {
            "srcChannel": 7,
            "name": "CC_Crash",
            "accType": "RHYTHM",
            "editable": false,
            "mutedNotes": [],
            "mutedChords": [
              "1+2+5",
              "sus4",
              "1+5",
              "1+8",
              "7aug",
              "Maj7aug",
              "7(#9)",
              "7(b13)",
              "7(b9)",
              "7(13)",
              "7#11",
              "7(9)",
              "7b5",
              "7sus4",
              "7th",
              "dim7",
              "dim",
              "minMaj7(9)",
              "minMaj7",
              "min7(11)",
              "min7(9)",
              "min(9)",
              "m7b5",
              "min7",
              "min6",
              "min",
              "aug",
              "Maj6(9)",
              "Maj7(9)",
              "Maj(9)",
              "Maj7#11",
              "Maj7",
              "Maj6",
              "Maj"
            ],
            "autoStart": true,
            "sourceChordNote": 0,
            "sourceChordType": "Maj",
            "ctb2Low": null,
            "ctb2Main": {
              "ntr": "ROOT_FIXED",
              "ntt": "BYPASS",
              "bassOn": false,
              "chordRootUpperLimit": 0,
              "noteLowLimit": 0,
              "noteHighLimit": 127,
              "rtr": "RETRIGGER"
            },
            "ctb2High": null
          },
          "notes": []
        },
        "8": {
          "ctab": {
            "srcChannel": 8,
            "name": "Perc",
            "accType": "SUBRHYTHM",
            "editable": false,
            "mutedNotes": [],
            "mutedChords": [],
            "autoStart": true,
            "sourceChordNote": 0,
            "sourceChordType": "Maj7",
            "ctb2Low": null,
            "ctb2Main": {
              "ntr": "ROOT_FIXED",
              "ntt": "BYPASS",
              "bassOn": false,
              "chordRootUpperLimit": 6,
              "noteLowLimit": 0,
              "noteHighLimit": 127,
              "rtr": "PITCH_SHIFT"
            },
            "ctb2High": null
          },
          "notes": [
            {
              "pitch": 77,
              "velocity": 55,
              "position": 0,
              "duration": 0.010416666666666666
            },
            {
              "pitch": 81,
              "velocity": 40,
              "position": 0,
              "duration": 0.010416666666666666
            },
            {
              "pitch": 82,
              "velocity": 45,
              "position": 0,
              "duration": 0.010416666666666666
            },
            {
              "pitch": 80,
              "velocity": 51,
              "position": 0.2604166666666667,
              "duration": 0.010416666666666666
            },
            {
              "pitch": 82,
              "velocity": 38,
              "position": 0.2604166666666667,
              "duration": 0.010416666666666666
            },
            {
              "pitch": 77,
              "velocity": 64,
              "position": 0.4895833333333333,
              "duration": 0.010416666666666666
            },
            {
              "pitch": 80,
              "velocity": 31,
              "position": 0.4895833333333333,
              "duration": 0.010416666666666666
            },
            {
              "pitch": 82,
              "velocity": 89,
              "position": 0.4895833333333333,
              "duration": 0.010416666666666666
            },
            {
              "pitch": 81,
              "velocity": 40,
              "position": 0.7395833333333334,
              "duration": 0.010416666666666666
            },
            {
              "pitch": 82,
              "velocity": 44,
              "position": 0.7395833333333334,
              "duration": 0.010416666666666666
            },
            {
              "pitch": 77,
              "velocity": 64,
              "position": 0.9895833333333334,
              "duration": 0.010416666666666666
            },
            {
              "pitch": 81,
              "velocity": 32,
              "position": 0.9895833333333334,
              "duration": 0.010416666666666666
            },
            {
              "pitch": 82,
              "velocity": 44,
              "position": 0.9895833333333334,
              "duration": 0.010416666666666666
            },
            {
              "pitch": 80,
              "velocity": 40,
              "position": 1.2604166666666667,
              "duration": 0.010416666666666666
            },
            {
              "pitch": 82,
              "velocity": 38,
              "position": 1.2604166666666667,
              "duration": 0.010416666666666666
            },
            {
              "pitch": 80,
              "velocity": 32,
              "position": 1.4895833333333333,
              "duration": 0.010416666666666666
            },
            {
              "pitch": 82,
              "velocity": 88,
              "position": 1.4895833333333333,
              "duration": 0.010416666666666666
            },
            {
              "pitch": 77,
              "velocity": 56,
              "position": 1.7395833333333333,
              "duration": 0.010416666666666666
            },
            {
              "pitch": 81,
              "velocity": 52,
              "position": 1.7395833333333333,
              "duration": 0.010416666666666666
            },
            {
              "pitch": 82,
              "velocity": 44,
              "position": 1.7395833333333333,
              "duration": 0.010416666666666666
            },
            {
              "pitch": 82,
              "velocity": 45,
              "position": 1.9895833333333333,
              "duration": 0.010416666666666666
            },
            {
              "pitch": 77,
              "velocity": 55,
              "position": 2.2604166666666665,
              "duration": 0.010416666666666666
            },
            {
              "pitch": 80,
              "velocity": 40,
              "position": 2.2604166666666665,
              "duration": 0.010416666666666666
            },
            {
              "pitch": 82,
              "velocity": 38,
              "position": 2.2604166666666665,
              "duration": 0.010416666666666666
            },
            {
              "pitch": 80,
              "velocity": 31,
              "position": 2.4895833333333335,
              "duration": 0.010416666666666666
            },
            {
              "pitch": 82,
              "velocity": 90,
              "position": 2.4895833333333335,
              "duration": 0.010416666666666666
            },
            {
              "pitch": 77,
              "velocity": 64,
              "position": 2.7395833333333335,
              "duration": 0.010416666666666666
            },
            {
              "pitch": 81,
              "velocity": 52,
              "position": 2.7395833333333335,
              "duration": 0.010416666666666666
            },
            {
              "pitch": 82,
              "velocity": 45,
              "position": 2.7395833333333335,
              "duration": 0.010416666666666666
            },
            {
              "pitch": 81,
              "velocity": 40,
              "position": 2.9895833333333335,
              "duration": 0.010416666666666666
            },
            {
              "pitch": 82,
              "velocity": 52,
              "position": 2.9895833333333335,
              "duration": 0.010416666666666666
            },
            {
              "pitch": 77,
              "velocity": 48,
              "position": 3.2604166666666665,
              "duration": 0.010416666666666666
            },
            {
              "pitch": 80,
              "velocity": 31,
              "position": 3.2604166666666665,
              "duration": 0.010416666666666666
            },
            {
              "pitch": 82,
              "velocity": 45,
              "position": 3.2604166666666665,
              "duration": 0.010416666666666666
            },
            {
              "pitch": 77,
              "velocity": 48,
              "position": 3.4895833333333335,
              "duration": 0.010416666666666666
            },
            {
              "pitch": 80,
              "velocity": 32,
              "position": 3.4895833333333335,
              "duration": 0.010416666666666666
            },
            {
              "pitch": 82,
              "velocity": 90,
              "position": 3.4895833333333335,
              "duration": 0.010416666666666666
            },
            {
              "pitch": 81,
              "velocity": 52,
              "position": 3.7395833333333335,
              "duration": 0.010416666666666666
            },
            {
              "pitch": 82,
              "velocity": 52,
              "position": 3.7395833333333335,
              "duration": 0.010416666666666666
            },
            {
              "pitch": 77,
              "velocity": 48,
              "position": 4,
              "duration": 0.010416666666666666
            },
            {
              "pitch": 81,
              "velocity": 51,
              "position": 4,
              "duration": 0.010416666666666666
            },
            {
              "pitch": 82,
              "velocity": 52,
              "position": 4,
              "duration": 0.010416666666666666
            }
          ]
        },
        "9": {
          "ctab": {
            "srcChannel": 9,
            "name": "Drs",
            "accType": "RHYTHM",
            "editable": false,
            "mutedNotes": [],
            "mutedChords": [],
            "autoStart": true,
            "sourceChordNote": 0,
            "sourceChordType": "Maj7",
            "ctb2Low": null,
            "ctb2Main": {
              "ntr": "ROOT_FIXED",
              "ntt": "BYPASS",
              "bassOn": false,
              "chordRootUpperLimit": 6,
              "noteLowLimit": 0,
              "noteHighLimit": 127,
              "rtr": "PITCH_SHIFT"
            },
            "ctb2High": null
          },
          "notes": [
            {
              "pitch": 35,
              "velocity": 104,
              "position": 0,
              "duration": 0.010416666666666666
            },
            {
              "pitch": 42,
              "velocity": 72,
              "position": 0,
              "duration": 0.010416666666666666
            },
            {
              "pitch": 55,
              "velocity": 60,
              "position": 0,
              "duration": 0.010416666666666666
            },
            {
              "pitch": 42,
              "velocity": 47,
              "position": 0.2604166666666667,
              "duration": 0.010416666666666666
            },
            {
              "pitch": 42,
              "velocity": 55,
              "position": 0.4895833333333333,
              "duration": 0.010416666666666666
            },
            {
              "pitch": 40,
              "velocity": 72,
              "position": 0.7395833333333334,
              "duration": 0.010416666666666666
            },
            {
              "pitch": 42,
              "velocity": 51,
              "position": 0.7395833333333334,
              "duration": 0.010416666666666666
            },
            {
              "pitch": 35,
              "velocity": 68,
              "position": 0.75,
              "duration": 0.010416666666666666
            },
            {
              "pitch": 42,
              "velocity": 72,
              "position": 0.9895833333333334,
              "duration": 0.010416666666666666
            },
            {
              "pitch": 35,
              "velocity": 105,
              "position": 1,
              "duration": 0.010416666666666666
            },
            {
              "pitch": 42,
              "velocity": 51,
              "position": 1.2604166666666667,
              "duration": 0.010416666666666666
            },
            {
              "pitch": 42,
              "velocity": 64,
              "position": 1.4895833333333333,
              "duration": 0.010416666666666666
            },
            {
              "pitch": 29,
              "velocity": 80,
              "position": 0.9895833333333334,
              "duration": 0.7083333333333334
            },
            {
              "pitch": 40,
              "velocity": 64,
              "position": 1.7395833333333333,
              "duration": 0.010416666666666666
            },
            {
              "pitch": 35,
              "velocity": 65,
              "position": 1.75,
              "duration": 0.010416666666666666
            },
            {
              "pitch": 40,
              "velocity": 79,
              "position": 1.9895833333333333,
              "duration": 0.010416666666666666
            },
            {
              "pitch": 35,
              "velocity": 108,
              "position": 2,
              "duration": 0.010416666666666666
            },
            {
              "pitch": 40,
              "velocity": 80,
              "position": 2.2604166666666665,
              "duration": 0.010416666666666666
            },
            {
              "pitch": 42,
              "velocity": 59,
              "position": 2.4895833333333335,
              "duration": 0.010416666666666666
            },
            {
              "pitch": 40,
              "velocity": 80,
              "position": 2.7395833333333335,
              "duration": 0.010416666666666666
            },
            {
              "pitch": 35,
              "velocity": 72,
              "position": 2.75,
              "duration": 0.010416666666666666
            },
            {
              "pitch": 42,
              "velocity": 60,
              "position": 2.9895833333333335,
              "duration": 0.010416666666666666
            },
            {
              "pitch": 35,
              "velocity": 107,
              "position": 3,
              "duration": 0.010416666666666666
            },
            {
              "pitch": 40,
              "velocity": 80,
              "position": 3.2604166666666665,
              "duration": 0.010416666666666666
            },
            {
              "pitch": 40,
              "velocity": 79,
              "position": 3.4895833333333335,
              "duration": 0.010416666666666666
            },
            {
              "pitch": 42,
              "velocity": 56,
              "position": 3.7395833333333335,
              "duration": 0.010416666666666666
            },
            {
              "pitch": 35,
              "velocity": 60,
              "position": 3.75,
              "duration": 0.010416666666666666
            },
            {
              "pitch": 35,
              "velocity": 104,
              "position": 4,
              "duration": 0.010416666666666666
            },
            {
              "pitch": 40,
              "velocity": 80,
              "position": 4,
              "duration": 0.010416666666666666
            },
            {
              "pitch": 42,
              "velocity": 80,
              "position": 4,
              "duration": 0.010416666666666666
            },
            {
              "pitch": 49,
              "velocity": 60,
              "position": 4,
              "duration": 0.010416666666666666
            }
          ]
        },
        "10": {
          "ctab": {
            "srcChannel": 10,
            "name": "Bass",
            "accType": "BASS",
            "editable": false,
            "mutedNotes": [],
            "mutedChords": [],
            "autoStart": false,
            "sourceChordNote": 0,
            "sourceChordType": "Maj7",
            "ctb2Low": null,
            "ctb2Main": {
              "ntr": "ROOT_TRANSPOSITION",
              "ntt": "MELODY",
              "bassOn": true,
              "chordRootUpperLimit": 3,
              "noteLowLimit": 28,
              "noteHighLimit": 127,
              "rtr": "PITCH_SHIFT_TO_ROOT"
            },
            "ctb2High": null
          },
          "notes": [
            {
              "pitch": 24,
              "velocity": 79,
              "position": 0,
              "duration": 0.5729166666666666
            },
            {
              "pitch": 24,
              "velocity": 73,
              "position": 0.75,
              "duration": 0.15625
            },
            {
              "pitch": 31,
              "velocity": 79,
              "position": 1,
              "duration": 0.9166666666666666
            },
            {
              "pitch": 24,
              "velocity": 74,
              "position": 2,
              "duration": 0.40625
            },
            {
              "pitch": 24,
              "velocity": 80,
              "position": 2.75,
              "duration": 0.15625
            },
            {
              "pitch": 31,
              "velocity": 80,
              "position": 3,
              "duration": 0.3020833333333333
            },
            {
              "pitch": 31,
              "velocity": 80,
              "position": 3.5,
              "duration": 0.4583333333333333
            },
            {
              "pitch": 24,
              "velocity": 80,
              "position": 4,
              "duration": 3.9375
            }
          ]
        },
        "11": {
          "ctab": {
            "srcChannel": 11,
            "name": "NGt",
            "accType": "CHORD1",
            "editable": false,
            "mutedNotes": [],
            "mutedChords": [],
            "autoStart": false,
            "sourceChordNote": 0,
            "sourceChordType": "Maj7",
            "ctb2Low": null,
            "ctb2Main": {
              "ntr": "ROOT_FIXED",
              "ntt": "CHORD",
              "bassOn": false,
              "chordRootUpperLimit": 7,
              "noteLowLimit": 0,
              "noteHighLimit": 127,
              "rtr": "PITCH_SHIFT"
            },
            "ctb2High": null
          },
          "notes": [
            {
              "pitch": 55,
              "velocity": 83,
              "position": 0,
              "duration": 0.14583333333333334
            },
            {
              "pitch": 59,
              "velocity": 92,
              "position": 0,
              "duration": 0.15625
            },
            {
              "pitch": 64,
              "velocity": 100,
              "position": 0,
              "duration": 0.1875
            },
            {
              "pitch": 55,
              "velocity": 96,
              "position": 0.5,
              "duration": 0.59375
            },
            {
              "pitch": 64,
              "velocity": 100,
              "position": 0.5,
              "duration": 0.59375
            },
            {
              "pitch": 59,
              "velocity": 99,
              "position": 0.5,
              "duration": 0.625
            },
            {
              "pitch": 59,
              "velocity": 92,
              "position": 1.25,
              "duration": 0.16666666666666666
            },
            {
              "pitch": 55,
              "velocity": 90,
              "position": 1.25,
              "duration": 0.17708333333333334
            },
            {
              "pitch": 64,
              "velocity": 92,
              "position": 1.25,
              "duration": 0.20833333333333334
            },
            {
              "pitch": 64,
              "velocity": 100,
              "position": 1.75,
              "duration": 0.5729166666666666
            },
            {
              "pitch": 55,
              "velocity": 99,
              "position": 1.75,
              "duration": 0.59375
            },
            {
              "pitch": 59,
              "velocity": 96,
              "position": 1.75,
              "duration": 0.6041666666666666
            },
            {
              "pitch": 59,
              "velocity": 92,
              "position": 2.75,
              "duration": 0.15625
            },
            {
              "pitch": 55,
              "velocity": 99,
              "position": 2.75,
              "duration": 0.16666666666666666
            },
            {
              "pitch": 64,
              "velocity": 100,
              "position": 2.75,
              "duration": 0.16666666666666666
            },
            {
              "pitch": 64,
              "velocity": 92,
              "position": 3.25,
              "duration": 0.09375
            },
            {
              "pitch": 59,
              "velocity": 99,
              "position": 3.25,
              "duration": 0.14583333333333334
            },
            {
              "pitch": 55,
              "velocity": 91,
              "position": 3.25,
              "duration": 0.16666666666666666
            },
            {
              "pitch": 55,
              "velocity": 85,
              "position": 3.5,
              "duration": 0.14583333333333334
            },
            {
              "pitch": 59,
              "velocity": 96,
              "position": 3.5,
              "duration": 0.14583333333333334
            },
            {
              "pitch": 64,
              "velocity": 89,
              "position": 3.5,
              "duration": 0.16666666666666666
            },
            {
              "pitch": 64,
              "velocity": 94,
              "position": 4,
              "duration": 3.9270833333333335
            },
            {
              "pitch": 55,
              "velocity": 100,
              "position": 4,
              "duration": 3.9895833333333335
            },
            {
              "pitch": 59,
              "velocity": 102,
              "position": 4,
              "duration": 3.9895833333333335
            }
          ]
        },
        "12": {
          "ctab": {
            "srcChannel": 12,
            "name": "Pno",
            "accType": "CHORD2",
            "editable": false,
            "mutedNotes": [],
            "mutedChords": [],
            "autoStart": false,
            "sourceChordNote": 0,
            "sourceChordType": "Maj7",
            "ctb2Low": null,
            "ctb2Main": {
              "ntr": "ROOT_FIXED",
              "ntt": "CHORD",
              "bassOn": false,
              "chordRootUpperLimit": 7,
              "noteLowLimit": 0,
              "noteHighLimit": 127,
              "rtr": "PITCH_SHIFT"
            },
            "ctb2High": null
          },
          "notes": [
            {
              "pitch": 64,
              "velocity": 80,
              "position": 0,
              "duration": 0.16666666666666666
            },
            {
              "pitch": 71,
              "velocity": 72,
              "position": 0,
              "duration": 0.16666666666666666
            },
            {
              "pitch": 67,
              "velocity": 72,
              "position": 0,
              "duration": 0.1875
            },
            {
              "pitch": 59,
              "velocity": 73,
              "position": 1,
              "duration": 0.5
            },
            {
              "pitch": 64,
              "velocity": 73,
              "position": 1,
              "duration": 0.5208333333333334
            },
            {
              "pitch": 67,
              "velocity": 71,
              "position": 1,
              "duration": 0.5416666666666666
            },
            {
              "pitch": 64,
              "velocity": 72,
              "position": 1.75,
              "duration": 1.4270833333333333
            },
            {
              "pitch": 59,
              "velocity": 72,
              "position": 1.75,
              "duration": 1.4479166666666667
            },
            {
              "pitch": 55,
              "velocity": 72,
              "position": 1.75,
              "duration": 1.53125
            },
            {
              "pitch": 59,
              "velocity": 67,
              "position": 3.75,
              "duration": 4.1875
            },
            {
              "pitch": 64,
              "velocity": 73,
              "position": 4,
              "duration": 3.9479166666666665
            },
            {
              "pitch": 67,
              "velocity": 80,
              "position": 4,
              "duration": 3.9479166666666665
            }
          ]
        },
        "13": {
          "ctab": {
            "srcChannel": 13,
            "name": "Str",
            "accType": "PAD",
            "editable": false,
            "mutedNotes": [],
            "mutedChords": [],
            "autoStart": false,
            "sourceChordNote": 0,
            "sourceChordType": "Maj7",
            "ctb2Low": null,
            "ctb2Main": {
              "ntr": "ROOT_FIXED",
              "ntt": "CHORD",
              "bassOn": false,
              "chordRootUpperLimit": 7,
              "noteLowLimit": 0,
              "noteHighLimit": 127,
              "rtr": "PITCH_SHIFT"
            },
            "ctb2High": null
          },
          "notes": [
            {
              "pitch": 55,
              "velocity": 64,
              "position": 0,
              "duration": 7.979166666666667
            },
            {
              "pitch": 59,
              "velocity": 64,
              "position": 0,
              "duration": 7.979166666666667
            },
            {
              "pitch": 64,
              "velocity": 64,
              "position": 0,
              "duration": 7.979166666666667
            }
          ]
        }
      }
    },
    "Fill_In_BA": {
      "type": "Fill_In_BA",
      "sizeInBeats": 4,
      "channels": {
        "2": {
          "ctab": {
            "srcChannel": 2,
            "name": "NGt Root",
            "accType": "CHORD1",
            "editable": false,
            "mutedNotes": [],
            "mutedChords": [
              "1+2+5",
              "sus4",
              "1+5",
              "1+8",
              "Maj7aug",
              "dim",
              "minMaj7(9)",
              "minMaj7",
              "min6",
              "min",
              "aug",
              "Maj7(9)",
              "Maj7#11",
              "Maj7",
              "Maj6",
              "Maj"
            ],
            "autoStart": false,
            "sourceChordNote": 0,
            "sourceChordType": "Maj7",
            "ctb2Low": null,
            "ctb2Main": {
              "ntr": "ROOT_TRANSPOSITION",
              "ntt": "CHORD",
              "bassOn": false,
              "chordRootUpperLimit": 6,
              "noteLowLimit": 0,
              "noteHighLimit": 127,
              "rtr": "PITCH_SHIFT"
            },
            "ctb2High": null
          },
          "notes": [
            {
              "pitch": 60,
              "velocity": 92,
              "position": 0,
              "duration": 0.4895833333333333
            },
            {
              "pitch": 60,
              "velocity": 92,
              "position": 0.5,
              "duration": 0.4166666666666667
            }
          ]
        },
        "4": {
          "ctab": {
            "srcChannel": 4,
            "name": "Str Root",
            "accType": "PAD",
            "editable": false,
            "mutedNotes": [],
            "mutedChords": [
              "1+2+5",
              "sus4",
              "1+5",
              "1+8",
              "Maj7aug",
              "dim",
              "minMaj7(9)",
              "minMaj7",
              "min6",
              "min",
              "aug",
              "Maj7(9)",
              "Maj7#11",
              "Maj7",
              "Maj6",
              "Maj"
            ],
            "autoStart": false,
            "sourceChordNote": 0,
            "sourceChordType": "Maj7",
            "ctb2Low": null,
            "ctb2Main": {
              "ntr": "ROOT_TRANSPOSITION",
              "ntt": "CHORD",
              "bassOn": false,
              "chordRootUpperLimit": 6,
              "noteLowLimit": 0,
              "noteHighLimit": 127,
              "rtr": "PITCH_SHIFT"
            },
            "ctb2High": null
          },
          "notes": []
        },
        "7": {
          "ctab": {
            "srcChannel": 7,
            "name": "CC_Crash",
            "accType": "RHYTHM",
            "editable": false,
            "mutedNotes": [],
            "mutedChords": [
              "1+2+5",
              "sus4",
              "1+5",
              "1+8",
              "7aug",
              "Maj7aug",
              "7(#9)",
              "7(b13)",
              "7(b9)",
              "7(13)",
              "7#11",
              "7(9)",
              "7b5",
              "7sus4",
              "7th",
              "dim7",
              "dim",
              "minMaj7(9)",
              "minMaj7",
              "min7(11)",
              "min7(9)",
              "min(9)",
              "m7b5",
              "min7",
              "min6",
              "min",
              "aug",
              "Maj6(9)",
              "Maj7(9)",
              "Maj(9)",
              "Maj7#11",
              "Maj7",
              "Maj6",
              "Maj"
            ],
            "autoStart": true,
            "sourceChordNote": 0,
            "sourceChordType": "Maj",
            "ctb2Low": null,
            "ctb2Main": {
              "ntr": "ROOT_FIXED",
              "ntt": "BYPASS",
              "bassOn": false,
              "chordRootUpperLimit": 0,
              "noteLowLimit": 0,
              "noteHighLimit": 127,
              "rtr": "RETRIGGER"
            },
            "ctb2High": null
          },
          "notes": []
        },
        "8": {
          "ctab": {
            "srcChannel": 8,
            "name": "Perc",
            "accType": "SUBRHYTHM",
            "editable": false,
            "mutedNotes": [],
            "mutedChords": [],
            "autoStart": true,
            "sourceChordNote": 0,
            "sourceChordType": "Maj7",
            "ctb2Low": null,
            "ctb2Main": {
              "ntr": "ROOT_FIXED",
              "ntt": "BYPASS",
              "bassOn": false,
              "chordRootUpperLimit": 6,
              "noteLowLimit": 0,
              "noteHighLimit": 127,
              "rtr": "PITCH_SHIFT"
            },
            "ctb2High": null
          },
          "notes": [
            {
              "pitch": 80,
              "velocity": 24,
              "position": 0,
              "duration": 0.010416666666666666
            },
            {
              "pitch": 67,
              "velocity": 63,
              "position": 0.2604166666666667,
              "duration": 0.010416666666666666
            },
            {
              "pitch": 77,
              "velocity": 54,
              "position": 0.2604166666666667,
              "duration": 0.010416666666666666
            },
            {
              "pitch": 81,
              "velocity": 31,
              "position": 0.2604166666666667,
              "duration": 0.010416666666666666
            },
            {
              "pitch": 81,
              "velocity": 45,
              "position": 0.4895833333333333,
              "duration": 0.010416666666666666
            },
            {
              "pitch": 67,
              "velocity": 33,
              "position": 0.7395833333333334,
              "duration": 0.010416666666666666
            },
            {
              "pitch": 77,
              "velocity": 24,
              "position": 0.7395833333333334,
              "duration": 0.010416666666666666
            },
            {
              "pitch": 80,
              "velocity": 32,
              "position": 0.7395833333333334,
              "duration": 0.010416666666666666
            },
            {
              "pitch": 67,
              "velocity": 53,
              "position": 0.9895833333333334,
              "duration": 0.010416666666666666
            },
            {
              "pitch": 77,
              "velocity": 44,
              "position": 0.9895833333333334,
              "duration": 0.010416666666666666
            },
            {
              "pitch": 80,
              "velocity": 15,
              "position": 0.9895833333333334,
              "duration": 0.010416666666666666
            },
            {
              "pitch": 67,
              "velocity": 93,
              "position": 1.2604166666666667,
              "duration": 0.010416666666666666
            },
            {
              "pitch": 77,
              "velocity": 84,
              "position": 1.2604166666666667,
              "duration": 0.010416666666666666
            },
            {
              "pitch": 81,
              "velocity": 32,
              "position": 1.2604166666666667,
              "duration": 0.010416666666666666
            },
            {
              "pitch": 81,
              "velocity": 45,
              "position": 1.4895833333333333,
              "duration": 0.010416666666666666
            },
            {
              "pitch": 67,
              "velocity": 33,
              "position": 1.7395833333333333,
              "duration": 0.010416666666666666
            },
            {
              "pitch": 77,
              "velocity": 24,
              "position": 1.7395833333333333,
              "duration": 0.010416666666666666
            },
            {
              "pitch": 80,
              "velocity": 20,
              "position": 1.7395833333333333,
              "duration": 0.010416666666666666
            },
            {
              "pitch": 67,
              "velocity": 53,
              "position": 1.9895833333333333,
              "duration": 0.010416666666666666
            },
            {
              "pitch": 77,
              "velocity": 44,
              "position": 1.9895833333333333,
              "duration": 0.010416666666666666
            },
            {
              "pitch": 80,
              "velocity": 31,
              "position": 1.9895833333333333,
              "duration": 0.010416666666666666
            },
            {
              "pitch": 67,
              "velocity": 93,
              "position": 2.2604166666666665,
              "duration": 0.010416666666666666
            },
            {
              "pitch": 77,
              "velocity": 84,
              "position": 2.2604166666666665,
              "duration": 0.010416666666666666
            },
            {
              "pitch": 81,
              "velocity": 25,
              "position": 2.2604166666666665,
              "duration": 0.010416666666666666
            },
            {
              "pitch": 81,
              "velocity": 45,
              "position": 2.4895833333333335,
              "duration": 0.010416666666666666
            },
            {
              "pitch": 67,
              "velocity": 33,
              "position": 2.7395833333333335,
              "duration": 0.010416666666666666
            },
            {
              "pitch": 77,
              "velocity": 24,
              "position": 2.7395833333333335,
              "duration": 0.010416666666666666
            },
            {
              "pitch": 80,
              "velocity": 28,
              "position": 2.7395833333333335,
              "duration": 0.010416666666666666
            },
            {
              "pitch": 68,
              "velocity": 69,
              "position": 2.9895833333333335,
              "duration": 0.010416666666666666
            },
            {
              "pitch": 77,
              "velocity": 60,
              "position": 2.9895833333333335,
              "duration": 0.010416666666666666
            },
            {
              "pitch": 80,
              "velocity": 31,
              "position": 2.9895833333333335,
              "duration": 0.010416666666666666
            },
            {
              "pitch": 81,
              "velocity": 27,
              "position": 3.2604166666666665,
              "duration": 0.010416666666666666
            },
            {
              "pitch": 68,
              "velocity": 69,
              "position": 3.4895833333333335,
              "duration": 0.010416666666666666
            },
            {
              "pitch": 77,
              "velocity": 60,
              "position": 3.4895833333333335,
              "duration": 0.010416666666666666
            },
            {
              "pitch": 81,
              "velocity": 48,
              "position": 3.4895833333333335,
              "duration": 0.010416666666666666
            },
            {
              "pitch": 80,
              "velocity": 19,
              "position": 3.7395833333333335,
              "duration": 0.010416666666666666
            }
          ]
        },
        "9": {
          "ctab": {
            "srcChannel": 9,
            "name": "Drs",
            "accType": "RHYTHM",
            "editable": false,
            "mutedNotes": [],
            "mutedChords": [],
            "autoStart": true,
            "sourceChordNote": 0,
            "sourceChordType": "Maj7",
            "ctb2Low": null,
            "ctb2Main": {
              "ntr": "ROOT_FIXED",
              "ntt": "BYPASS",
              "bassOn": false,
              "chordRootUpperLimit": 6,
              "noteLowLimit": 0,
              "noteHighLimit": 127,
              "rtr": "PITCH_SHIFT"
            },
            "ctb2High": null
          },
          "notes": [
            {
              "pitch": 35,
              "velocity": 93,
              "position": 0,
              "duration": 0.010416666666666666
            },
            {
              "pitch": 51,
              "velocity": 60,
              "position": 0,
              "duration": 0.010416666666666666
            },
            {
              "pitch": 40,
              "velocity": 61,
              "position": 0.2604166666666667,
              "duration": 0.010416666666666666
            },
            {
              "pitch": 53,
              "velocity": 54,
              "position": 0.2604166666666667,
              "duration": 0.010416666666666666
            },
            {
              "pitch": 29,
              "velocity": 80,
              "position": 0.2604166666666667,
              "duration": 0.22916666666666666
            },
            {
              "pitch": 40,
              "velocity": 31,
              "position": 0.7395833333333334,
              "duration": 0.010416666666666666
            },
            {
              "pitch": 53,
              "velocity": 24,
              "position": 0.7395833333333334,
              "duration": 0.010416666666666666
            },
            {
              "pitch": 35,
              "velocity": 63,
              "position": 0.75,
              "duration": 0.010416666666666666
            },
            {
              "pitch": 40,
              "velocity": 51,
              "position": 0.9895833333333334,
              "duration": 0.010416666666666666
            },
            {
              "pitch": 53,
              "velocity": 44,
              "position": 0.9895833333333334,
              "duration": 0.010416666666666666
            },
            {
              "pitch": 35,
              "velocity": 93,
              "position": 1,
              "duration": 0.010416666666666666
            },
            {
              "pitch": 40,
              "velocity": 80,
              "position": 1.2604166666666667,
              "duration": 0.010416666666666666
            },
            {
              "pitch": 53,
              "velocity": 84,
              "position": 1.2604166666666667,
              "duration": 0.010416666666666666
            },
            {
              "pitch": 29,
              "velocity": 80,
              "position": 1.2604166666666667,
              "duration": 0.3854166666666667
            },
            {
              "pitch": 40,
              "velocity": 31,
              "position": 1.7395833333333333,
              "duration": 0.010416666666666666
            },
            {
              "pitch": 53,
              "velocity": 24,
              "position": 1.7395833333333333,
              "duration": 0.010416666666666666
            },
            {
              "pitch": 35,
              "velocity": 63,
              "position": 1.75,
              "duration": 0.010416666666666666
            },
            {
              "pitch": 40,
              "velocity": 51,
              "position": 1.9895833333333333,
              "duration": 0.010416666666666666
            },
            {
              "pitch": 53,
              "velocity": 44,
              "position": 1.9895833333333333,
              "duration": 0.010416666666666666
            },
            {
              "pitch": 35,
              "velocity": 93,
              "position": 2,
              "duration": 0.010416666666666666
            },
            {
              "pitch": 40,
              "velocity": 80,
              "position": 2.2604166666666665,
              "duration": 0.010416666666666666
            },
            {
              "pitch": 53,
              "velocity": 84,
              "position": 2.2604166666666665,
              "duration": 0.010416666666666666
            },
            {
              "pitch": 29,
              "velocity": 74,
              "position": 2.2604166666666665,
              "duration": 0.3854166666666667
            },
            {
              "pitch": 40,
              "velocity": 31,
              "position": 2.7395833333333335,
              "duration": 0.010416666666666666
            },
            {
              "pitch": 53,
              "velocity": 24,
              "position": 2.7395833333333335,
              "duration": 0.010416666666666666
            },
            {
              "pitch": 35,
              "velocity": 63,
              "position": 2.75,
              "duration": 0.010416666666666666
            },
            {
              "pitch": 40,
              "velocity": 67,
              "position": 2.9895833333333335,
              "duration": 0.010416666666666666
            },
            {
              "pitch": 53,
              "velocity": 60,
              "position": 2.9895833333333335,
              "duration": 0.010416666666666666
            },
            {
              "pitch": 35,
              "velocity": 93,
              "position": 3,
              "duration": 0.010416666666666666
            },
            {
              "pitch": 47,
              "velocity": 52,
              "position": 3.4895833333333335,
              "duration": 0.010416666666666666
            },
            {
              "pitch": 35,
              "velocity": 93,
              "position": 3.5,
              "duration": 0.010416666666666666
            },
            {
              "pitch": 49,
              "velocity": 60,
              "position": 3.9895833333333335,
              "duration": 0.010416666666666666
            }
          ]
        },
        "10": {
          "ctab": {
            "srcChannel": 10,
            "name": "Bass",
            "accType": "BASS",
            "editable": false,
            "mutedNotes": [],
            "mutedChords": [],
            "autoStart": false,
            "sourceChordNote": 0,
            "sourceChordType": "Maj7",
            "ctb2Low": null,
            "ctb2Main": {
              "ntr": "ROOT_TRANSPOSITION",
              "ntt": "MELODY",
              "bassOn": true,
              "chordRootUpperLimit": 3,
              "noteLowLimit": 28,
              "noteHighLimit": 127,
              "rtr": "PITCH_SHIFT_TO_ROOT"
            },
            "ctb2High": null
          },
          "notes": [
            {
              "pitch": 24,
              "velocity": 98,
              "position": 0,
              "duration": 0.4895833333333333
            },
            {
              "pitch": 24,
              "velocity": 98,
              "position": 0.5,
              "duration": 0.5729166666666666
            }
          ]
        },
        "11": {
          "ctab": {
            "srcChannel": 11,
            "name": "NGt",
            "accType": "CHORD1",
            "editable": false,
            "mutedNotes": [],
            "mutedChords": [],
            "autoStart": false,
            "sourceChordNote": 0,
            "sourceChordType": "Maj7",
            "ctb2Low": null,
            "ctb2Main": {
              "ntr": "ROOT_FIXED",
              "ntt": "CHORD",
              "bassOn": false,
              "chordRootUpperLimit": 7,
              "noteLowLimit": 0,
              "noteHighLimit": 127,
              "rtr": "PITCH_SHIFT"
            },
            "ctb2High": null
          },
          "notes": [
            {
              "pitch": 55,
              "velocity": 93,
              "position": 0,
              "duration": 0.4895833333333333
            },
            {
              "pitch": 59,
              "velocity": 92,
              "position": 0,
              "duration": 0.4895833333333333
            },
            {
              "pitch": 64,
              "velocity": 93,
              "position": 0,
              "duration": 0.4895833333333333
            },
            {
              "pitch": 55,
              "velocity": 93,
              "position": 0.5,
              "duration": 0.3645833333333333
            },
            {
              "pitch": 59,
              "velocity": 92,
              "position": 0.5,
              "duration": 0.4166666666666667
            },
            {
              "pitch": 64,
              "velocity": 93,
              "position": 0.5,
              "duration": 0.4270833333333333
            }
          ]
        },
        "12": {
          "ctab": {
            "srcChannel": 12,
            "name": "Pno",
            "accType": "CHORD2",
            "editable": false,
            "mutedNotes": [],
            "mutedChords": [],
            "autoStart": false,
            "sourceChordNote": 0,
            "sourceChordType": "Maj7",
            "ctb2Low": null,
            "ctb2Main": {
              "ntr": "ROOT_FIXED",
              "ntt": "CHORD",
              "bassOn": false,
              "chordRootUpperLimit": 7,
              "noteLowLimit": 0,
              "noteHighLimit": 127,
              "rtr": "PITCH_SHIFT"
            },
            "ctb2High": null
          },
          "notes": [
            {
              "pitch": 55,
              "velocity": 69,
              "position": 0,
              "duration": 0.4895833333333333
            },
            {
              "pitch": 59,
              "velocity": 64,
              "position": 0,
              "duration": 0.4895833333333333
            },
            {
              "pitch": 64,
              "velocity": 70,
              "position": 0,
              "duration": 0.4895833333333333
            },
            {
              "pitch": 64,
              "velocity": 70,
              "position": 0.5,
              "duration": 0.3645833333333333
            },
            {
              "pitch": 55,
              "velocity": 69,
              "position": 0.5,
              "duration": 0.375
            },
            {
              "pitch": 59,
              "velocity": 64,
              "position": 0.5,
              "duration": 0.375
            }
          ]
        },
        "13": {
          "ctab": {
            "srcChannel": 13,
            "name": "Str",
            "accType": "PAD",
            "editable": false,
            "mutedNotes": [],
            "mutedChords": [],
            "autoStart": false,
            "sourceChordNote": 0,
            "sourceChordType": "Maj7",
            "ctb2Low": null,
            "ctb2Main": {
              "ntr": "ROOT_FIXED",
              "ntt": "CHORD",
              "bassOn": false,
              "chordRootUpperLimit": 7,
              "noteLowLimit": 0,
              "noteHighLimit": 127,
              "rtr": "PITCH_SHIFT"
            },
            "ctb2High": null
          },
          "notes": []
        }
      }
    },
    "Intro_B": {
      "type": "Intro_B",
      "sizeInBeats": 16,
      "channels": {
        "1": {
          "ctab": {
            "srcChannel": 1,
            "name": "Bass",
            "accType": "BASS",
            "editable": false,
            "mutedNotes": [],
            "mutedChords": [
              "1+2+5",
              "sus4",
              "1+5",
              "1+8",
              "7aug",
              "Maj7aug",
              "7(#9)",
              "7(b13)",
              "7(b9)",
              "7(13)",
              "7#11",
              "7(9)",
              "7b5",
              "7sus4",
              "7th",
              "aug",
              "Maj6(9)",
              "Maj7(9)",
              "Maj(9)",
              "Maj7#11",
              "Maj7",
              "Maj6",
              "Maj"
            ],
            "autoStart": false,
            "sourceChordNote": 0,
            "sourceChordType": "Maj",
            "ctb2Low": null,
            "ctb2Main": {
              "ntr": "ROOT_TRANSPOSITION",
              "ntt": "BYPASS",
              "bassOn": false,
              "chordRootUpperLimit": 8,
              "noteLowLimit": 28,
              "noteHighLimit": 127,
              "rtr": "PITCH_SHIFT"
            },
            "ctb2High": null
          },
          "notes": [
            {
              "pitch": 34,
              "velocity": 63,
              "position": 6.75,
              "duration": 0.041666666666666664
            },
            {
              "pitch": 24,
              "velocity": 98,
              "position": 7,
              "duration": 0.9895833333333334
            },
            {
              "pitch": 24,
              "velocity": 98,
              "position": 8,
              "duration": 0.2604166666666667
            },
            {
              "pitch": 24,
              "velocity": 80,
              "position": 8.75,
              "duration": 0.09375
            },
            {
              "pitch": 31,
              "velocity": 98,
              "position": 9,
              "duration": 0.9895833333333334
            },
            {
              "pitch": 24,
              "velocity": 98,
              "position": 10,
              "duration": 0.2604166666666667
            },
            {
              "pitch": 24,
              "velocity": 80,
              "position": 10.75,
              "duration": 0.09375
            },
            {
              "pitch": 31,
              "velocity": 98,
              "position": 11,
              "duration": 0.9895833333333334
            },
            {
              "pitch": 31,
              "velocity": 98,
              "position": 12,
              "duration": 0.2604166666666667
            },
            {
              "pitch": 31,
              "velocity": 80,
              "position": 12.75,
              "duration": 0.09375
            },
            {
              "pitch": 31,
              "velocity": 98,
              "position": 13,
              "duration": 0.9895833333333334
            },
            {
              "pitch": 43,
              "velocity": 63,
              "position": 14.25,
              "duration": 0.19791666666666666
            },
            {
              "pitch": 31,
              "velocity": 98,
              "position": 14.75,
              "duration": 1.2395833333333333
            }
          ]
        },
        "2": {
          "ctab": {
            "srcChannel": 2,
            "name": "NGt 1",
            "accType": "CHORD1",
            "editable": false,
            "mutedNotes": [
              11,
              10,
              9,
              8,
              7,
              6
            ],
            "mutedChords": [
              "1+2+5",
              "sus4",
              "1+5",
              "1+8",
              "7aug",
              "Maj7aug",
              "7(#9)",
              "7(b13)",
              "7(b9)",
              "7(13)",
              "7#11",
              "7(9)",
              "7b5",
              "7sus4",
              "7th",
              "aug",
              "Maj6(9)",
              "Maj7(9)",
              "Maj(9)",
              "Maj7#11",
              "Maj7",
              "Maj6",
              "Maj"
            ],
            "autoStart": false,
            "sourceChordNote": 0,
            "sourceChordType": "Maj",
            "ctb2Low": null,
            "ctb2Main": {
              "ntr": "ROOT_TRANSPOSITION",
              "ntt": "BYPASS",
              "bassOn": false,
              "chordRootUpperLimit": 11,
              "noteLowLimit": 40,
              "noteHighLimit": 127,
              "rtr": "PITCH_SHIFT"
            },
            "ctb2High": null
          },
          "notes": [
            {
              "pitch": 67,
              "velocity": 40,
              "position": 0,
              "duration": 0.20833333333333334
            },
            {
              "pitch": 58,
              "velocity": 52,
              "position": 0.010416666666666666,
              "duration": 0.20833333333333334
            },
            {
              "pitch": 48,
              "velocity": 51,
              "position": 0,
              "duration": 0.22916666666666666
            },
            {
              "pitch": 51,
              "velocity": 64,
              "position": 0,
              "duration": 0.22916666666666666
            },
            {
              "pitch": 62,
              "velocity": 59,
              "position": 0.010416666666666666,
              "duration": 0.21875
            },
            {
              "pitch": 58,
              "velocity": 72,
              "position": 0.5,
              "duration": 0.4479166666666667
            },
            {
              "pitch": 62,
              "velocity": 92,
              "position": 0.5,
              "duration": 0.4583333333333333
            },
            {
              "pitch": 48,
              "velocity": 75,
              "position": 0.5,
              "duration": 0.46875
            },
            {
              "pitch": 51,
              "velocity": 78,
              "position": 0.5,
              "duration": 0.46875
            },
            {
              "pitch": 67,
              "velocity": 89,
              "position": 0.5104166666666666,
              "duration": 0.46875
            },
            {
              "pitch": 51,
              "velocity": 28,
              "position": 1.25,
              "duration": 0.21875
            },
            {
              "pitch": 58,
              "velocity": 49,
              "position": 1.25,
              "duration": 0.21875
            },
            {
              "pitch": 67,
              "velocity": 16,
              "position": 1.25,
              "duration": 0.21875
            },
            {
              "pitch": 48,
              "velocity": 34,
              "position": 1.2604166666666667,
              "duration": 0.21875
            },
            {
              "pitch": 62,
              "velocity": 47,
              "position": 1.25,
              "duration": 0.22916666666666666
            },
            {
              "pitch": 48,
              "velocity": 55,
              "position": 1.75,
              "duration": 0.19791666666666666
            },
            {
              "pitch": 51,
              "velocity": 58,
              "position": 1.75,
              "duration": 0.21875
            },
            {
              "pitch": 58,
              "velocity": 55,
              "position": 1.75,
              "duration": 0.21875
            },
            {
              "pitch": 62,
              "velocity": 65,
              "position": 1.7604166666666667,
              "duration": 0.20833333333333334
            },
            {
              "pitch": 67,
              "velocity": 45,
              "position": 1.7604166666666667,
              "duration": 0.21875
            },
            {
              "pitch": 48,
              "velocity": 55,
              "position": 2.25,
              "duration": 0.4479166666666667
            },
            {
              "pitch": 67,
              "velocity": 88,
              "position": 2.2604166666666665,
              "duration": 0.4583333333333333
            },
            {
              "pitch": 58,
              "velocity": 72,
              "position": 2.25,
              "duration": 0.4791666666666667
            },
            {
              "pitch": 62,
              "velocity": 83,
              "position": 2.2604166666666665,
              "duration": 0.46875
            },
            {
              "pitch": 51,
              "velocity": 76,
              "position": 2.2604166666666665,
              "duration": 0.4791666666666667
            },
            {
              "pitch": 58,
              "velocity": 51,
              "position": 3,
              "duration": 0.20833333333333334
            },
            {
              "pitch": 62,
              "velocity": 72,
              "position": 3.0104166666666665,
              "duration": 0.20833333333333334
            },
            {
              "pitch": 67,
              "velocity": 58,
              "position": 3,
              "duration": 0.21875
            },
            {
              "pitch": 48,
              "velocity": 53,
              "position": 3.0104166666666665,
              "duration": 0.21875
            },
            {
              "pitch": 51,
              "velocity": 60,
              "position": 3.0104166666666665,
              "duration": 0.21875
            },
            {
              "pitch": 51,
              "velocity": 71,
              "position": 3.5,
              "duration": 0.125
            },
            {
              "pitch": 67,
              "velocity": 89,
              "position": 3.5,
              "duration": 0.13541666666666666
            },
            {
              "pitch": 48,
              "velocity": 79,
              "position": 3.5,
              "duration": 0.14583333333333334
            },
            {
              "pitch": 58,
              "velocity": 69,
              "position": 3.5104166666666665,
              "duration": 0.13541666666666666
            },
            {
              "pitch": 62,
              "velocity": 83,
              "position": 3.5,
              "duration": 0.14583333333333334
            },
            {
              "pitch": 57,
              "velocity": 48,
              "position": 3.7604166666666665,
              "duration": 0.13541666666666666
            },
            {
              "pitch": 53,
              "velocity": 62,
              "position": 4.010416666666667,
              "duration": 0.19791666666666666
            },
            {
              "pitch": 67,
              "velocity": 56,
              "position": 4.010416666666667,
              "duration": 0.20833333333333334
            },
            {
              "pitch": 43,
              "velocity": 59,
              "position": 4.010416666666667,
              "duration": 0.21875
            },
            {
              "pitch": 59,
              "velocity": 57,
              "position": 4.010416666666667,
              "duration": 0.21875
            },
            {
              "pitch": 63,
              "velocity": 70,
              "position": 4.010416666666667,
              "duration": 0.21875
            },
            {
              "pitch": 67,
              "velocity": 93,
              "position": 4.5,
              "duration": 0.22916666666666666
            },
            {
              "pitch": 53,
              "velocity": 77,
              "position": 4.5,
              "duration": 0.23958333333333334
            },
            {
              "pitch": 59,
              "velocity": 80,
              "position": 4.510416666666667,
              "duration": 0.22916666666666666
            },
            {
              "pitch": 63,
              "velocity": 90,
              "position": 4.510416666666667,
              "duration": 0.23958333333333334
            },
            {
              "pitch": 59,
              "velocity": 35,
              "position": 4.75,
              "duration": 0.03125
            },
            {
              "pitch": 43,
              "velocity": 61,
              "position": 4.5,
              "duration": 0.4583333333333333
            },
            {
              "pitch": 53,
              "velocity": 41,
              "position": 4.760416666666667,
              "duration": 0.19791666666666666
            },
            {
              "pitch": 67,
              "velocity": 50,
              "position": 4.760416666666667,
              "duration": 0.19791666666666666
            },
            {
              "pitch": 63,
              "velocity": 36,
              "position": 4.760416666666667,
              "duration": 0.21875
            },
            {
              "pitch": 63,
              "velocity": 65,
              "position": 5.260416666666667,
              "duration": 0.19791666666666666
            },
            {
              "pitch": 43,
              "velocity": 23,
              "position": 5.25,
              "duration": 0.21875
            },
            {
              "pitch": 67,
              "velocity": 36,
              "position": 5.260416666666667,
              "duration": 0.20833333333333334
            },
            {
              "pitch": 53,
              "velocity": 39,
              "position": 5.25,
              "duration": 0.22916666666666666
            },
            {
              "pitch": 59,
              "velocity": 55,
              "position": 5.260416666666667,
              "duration": 0.22916666666666666
            },
            {
              "pitch": 59,
              "velocity": 60,
              "position": 5.75,
              "duration": 0.19791666666666666
            },
            {
              "pitch": 43,
              "velocity": 52,
              "position": 5.760416666666667,
              "duration": 0.19791666666666666
            },
            {
              "pitch": 53,
              "velocity": 62,
              "position": 5.760416666666667,
              "duration": 0.20833333333333334
            },
            {
              "pitch": 63,
              "velocity": 73,
              "position": 5.75,
              "duration": 0.21875
            },
            {
              "pitch": 67,
              "velocity": 56,
              "position": 5.760416666666667,
              "duration": 0.20833333333333334
            },
            {
              "pitch": 53,
              "velocity": 79,
              "position": 6.25,
              "duration": 0.4583333333333333
            },
            {
              "pitch": 59,
              "velocity": 82,
              "position": 6.260416666666667,
              "duration": 0.4479166666666667
            },
            {
              "pitch": 63,
              "velocity": 84,
              "position": 6.25,
              "duration": 0.4583333333333333
            },
            {
              "pitch": 68,
              "velocity": 91,
              "position": 6.260416666666667,
              "duration": 0.4583333333333333
            },
            {
              "pitch": 43,
              "velocity": 64,
              "position": 6.260416666666667,
              "duration": 0.46875
            },
            {
              "pitch": 59,
              "velocity": 70,
              "position": 7,
              "duration": 0.20833333333333334
            },
            {
              "pitch": 68,
              "velocity": 55,
              "position": 7,
              "duration": 0.20833333333333334
            },
            {
              "pitch": 43,
              "velocity": 43,
              "position": 7.010416666666667,
              "duration": 0.20833333333333334
            },
            {
              "pitch": 53,
              "velocity": 73,
              "position": 7,
              "duration": 0.21875
            },
            {
              "pitch": 63,
              "velocity": 67,
              "position": 7.010416666666667,
              "duration": 0.20833333333333334
            },
            {
              "pitch": 63,
              "velocity": 79,
              "position": 7.5,
              "duration": 0.125
            },
            {
              "pitch": 68,
              "velocity": 85,
              "position": 7.5,
              "duration": 0.13541666666666666
            },
            {
              "pitch": 43,
              "velocity": 59,
              "position": 7.510416666666667,
              "duration": 0.13541666666666666
            },
            {
              "pitch": 53,
              "velocity": 85,
              "position": 7.5,
              "duration": 0.14583333333333334
            },
            {
              "pitch": 59,
              "velocity": 87,
              "position": 7.510416666666667,
              "duration": 0.13541666666666666
            },
            {
              "pitch": 57,
              "velocity": 53,
              "position": 7.760416666666667,
              "duration": 0.125
            },
            {
              "pitch": 48,
              "velocity": 42,
              "position": 8.010416666666666,
              "duration": 0.19791666666666666
            },
            {
              "pitch": 67,
              "velocity": 49,
              "position": 8,
              "duration": 0.20833333333333334
            },
            {
              "pitch": 51,
              "velocity": 55,
              "position": 8.010416666666666,
              "duration": 0.21875
            },
            {
              "pitch": 58,
              "velocity": 69,
              "position": 8.010416666666666,
              "duration": 0.21875
            },
            {
              "pitch": 62,
              "velocity": 65,
              "position": 8.010416666666666,
              "duration": 0.22916666666666666
            },
            {
              "pitch": 48,
              "velocity": 67,
              "position": 8.510416666666666,
              "duration": 0.4479166666666667
            },
            {
              "pitch": 58,
              "velocity": 84,
              "position": 8.5,
              "duration": 0.4583333333333333
            },
            {
              "pitch": 62,
              "velocity": 79,
              "position": 8.5,
              "duration": 0.4583333333333333
            },
            {
              "pitch": 67,
              "velocity": 82,
              "position": 8.5,
              "duration": 0.4583333333333333
            },
            {
              "pitch": 51,
              "velocity": 78,
              "position": 8.5,
              "duration": 0.46875
            },
            {
              "pitch": 58,
              "velocity": 39,
              "position": 9.25,
              "duration": 0.20833333333333334
            },
            {
              "pitch": 62,
              "velocity": 51,
              "position": 9.25,
              "duration": 0.20833333333333334
            },
            {
              "pitch": 67,
              "velocity": 22,
              "position": 9.25,
              "duration": 0.20833333333333334
            },
            {
              "pitch": 51,
              "velocity": 42,
              "position": 9.25,
              "duration": 0.21875
            },
            {
              "pitch": 48,
              "velocity": 34,
              "position": 9.260416666666666,
              "duration": 0.21875
            },
            {
              "pitch": 51,
              "velocity": 59,
              "position": 9.75,
              "duration": 0.19791666666666666
            },
            {
              "pitch": 48,
              "velocity": 55,
              "position": 9.760416666666666,
              "duration": 0.19791666666666666
            },
            {
              "pitch": 58,
              "velocity": 50,
              "position": 9.760416666666666,
              "duration": 0.21875
            },
            {
              "pitch": 62,
              "velocity": 70,
              "position": 9.760416666666666,
              "duration": 0.21875
            },
            {
              "pitch": 67,
              "velocity": 58,
              "position": 9.760416666666666,
              "duration": 0.21875
            },
            {
              "pitch": 67,
              "velocity": 81,
              "position": 10.25,
              "duration": 0.4479166666666667
            },
            {
              "pitch": 48,
              "velocity": 71,
              "position": 10.25,
              "duration": 0.4583333333333333
            },
            {
              "pitch": 51,
              "velocity": 83,
              "position": 10.260416666666666,
              "duration": 0.4479166666666667
            },
            {
              "pitch": 58,
              "velocity": 88,
              "position": 10.25,
              "duration": 0.4583333333333333
            },
            {
              "pitch": 62,
              "velocity": 91,
              "position": 10.25,
              "duration": 0.4583333333333333
            },
            {
              "pitch": 51,
              "velocity": 56,
              "position": 11,
              "duration": 0.19791666666666666
            },
            {
              "pitch": 48,
              "velocity": 50,
              "position": 11,
              "duration": 0.20833333333333334
            },
            {
              "pitch": 62,
              "velocity": 66,
              "position": 11,
              "duration": 0.20833333333333334
            },
            {
              "pitch": 67,
              "velocity": 58,
              "position": 11,
              "duration": 0.20833333333333334
            },
            {
              "pitch": 58,
              "velocity": 74,
              "position": 11,
              "duration": 0.21875
            },
            {
              "pitch": 51,
              "velocity": 79,
              "position": 11.5,
              "duration": 0.125
            },
            {
              "pitch": 67,
              "velocity": 90,
              "position": 11.5,
              "duration": 0.13541666666666666
            },
            {
              "pitch": 58,
              "velocity": 87,
              "position": 11.5,
              "duration": 0.14583333333333334
            },
            {
              "pitch": 48,
              "velocity": 59,
              "position": 11.510416666666666,
              "duration": 0.14583333333333334
            },
            {
              "pitch": 62,
              "velocity": 76,
              "position": 11.510416666666666,
              "duration": 0.14583333333333334
            },
            {
              "pitch": 57,
              "velocity": 53,
              "position": 11.760416666666666,
              "duration": 0.125
            },
            {
              "pitch": 53,
              "velocity": 69,
              "position": 12,
              "duration": 0.19791666666666666
            },
            {
              "pitch": 59,
              "velocity": 70,
              "position": 12,
              "duration": 0.21875
            },
            {
              "pitch": 63,
              "velocity": 69,
              "position": 12.010416666666666,
              "duration": 0.20833333333333334
            },
            {
              "pitch": 67,
              "velocity": 59,
              "position": 12.010416666666666,
              "duration": 0.20833333333333334
            },
            {
              "pitch": 43,
              "velocity": 53,
              "position": 12.010416666666666,
              "duration": 0.21875
            },
            {
              "pitch": 67,
              "velocity": 91,
              "position": 12.5,
              "duration": 0.22916666666666666
            },
            {
              "pitch": 59,
              "velocity": 85,
              "position": 12.5,
              "duration": 0.23958333333333334
            },
            {
              "pitch": 63,
              "velocity": 102,
              "position": 12.5,
              "duration": 0.23958333333333334
            },
            {
              "pitch": 53,
              "velocity": 77,
              "position": 12.5,
              "duration": 0.25
            },
            {
              "pitch": 43,
              "velocity": 60,
              "position": 12.5,
              "duration": 0.4479166666666667
            },
            {
              "pitch": 67,
              "velocity": 54,
              "position": 12.75,
              "duration": 0.20833333333333334
            },
            {
              "pitch": 53,
              "velocity": 48,
              "position": 12.760416666666666,
              "duration": 0.20833333333333334
            },
            {
              "pitch": 59,
              "velocity": 45,
              "position": 12.760416666666666,
              "duration": 0.20833333333333334
            },
            {
              "pitch": 63,
              "velocity": 36,
              "position": 12.75,
              "duration": 0.21875
            },
            {
              "pitch": 53,
              "velocity": 42,
              "position": 13.25,
              "duration": 0.19791666666666666
            },
            {
              "pitch": 59,
              "velocity": 30,
              "position": 13.260416666666666,
              "duration": 0.20833333333333334
            },
            {
              "pitch": 67,
              "velocity": 43,
              "position": 13.25,
              "duration": 0.21875
            },
            {
              "pitch": 43,
              "velocity": 32,
              "position": 13.260416666666666,
              "duration": 0.21875
            },
            {
              "pitch": 63,
              "velocity": 54,
              "position": 13.25,
              "duration": 0.22916666666666666
            },
            {
              "pitch": 59,
              "velocity": 59,
              "position": 13.75,
              "duration": 0.20833333333333334
            },
            {
              "pitch": 63,
              "velocity": 73,
              "position": 13.75,
              "duration": 0.20833333333333334
            },
            {
              "pitch": 43,
              "velocity": 51,
              "position": 13.760416666666666,
              "duration": 0.20833333333333334
            },
            {
              "pitch": 53,
              "velocity": 48,
              "position": 13.760416666666666,
              "duration": 0.20833333333333334
            },
            {
              "pitch": 67,
              "velocity": 58,
              "position": 13.75,
              "duration": 0.21875
            },
            {
              "pitch": 43,
              "velocity": 34,
              "position": 14.25,
              "duration": 0.19791666666666666
            },
            {
              "pitch": 53,
              "velocity": 54,
              "position": 14.25,
              "duration": 0.20833333333333334
            },
            {
              "pitch": 67,
              "velocity": 58,
              "position": 14.25,
              "duration": 0.20833333333333334
            },
            {
              "pitch": 59,
              "velocity": 70,
              "position": 14.260416666666666,
              "duration": 0.20833333333333334
            },
            {
              "pitch": 63,
              "velocity": 60,
              "position": 14.260416666666666,
              "duration": 0.21875
            },
            {
              "pitch": 43,
              "velocity": 59,
              "position": 14.75,
              "duration": 1.1979166666666667
            },
            {
              "pitch": 59,
              "velocity": 71,
              "position": 14.75,
              "duration": 1.1979166666666667
            },
            {
              "pitch": 63,
              "velocity": 75,
              "position": 14.75,
              "duration": 1.1979166666666667
            },
            {
              "pitch": 67,
              "velocity": 87,
              "position": 14.75,
              "duration": 1.2083333333333333
            },
            {
              "pitch": 53,
              "velocity": 66,
              "position": 14.75,
              "duration": 1.21875
            }
          ]
        },
        "3": {
          "ctab": {
            "srcChannel": 3,
            "name": "Pno",
            "accType": "CHORD2",
            "editable": false,
            "mutedNotes": [],
            "mutedChords": [
              "1+2+5",
              "sus4",
              "1+5",
              "1+8",
              "7aug",
              "Maj7aug",
              "7(#9)",
              "7(b13)",
              "7(b9)",
              "7(13)",
              "7#11",
              "7(9)",
              "7b5",
              "7sus4",
              "7th",
              "aug",
              "Maj6(9)",
              "Maj7(9)",
              "Maj(9)",
              "Maj7#11",
              "Maj7",
              "Maj6",
              "Maj"
            ],
            "autoStart": false,
            "sourceChordNote": 0,
            "sourceChordType": "Maj",
            "ctb2Low": null,
            "ctb2Main": {
              "ntr": "ROOT_TRANSPOSITION",
              "ntt": "BYPASS",
              "bassOn": false,
              "chordRootUpperLimit": 6,
              "noteLowLimit": 54,
              "noteHighLimit": 79,
              "rtr": "PITCH_SHIFT"
            },
            "ctb2High": null
          },
          "notes": [
            {
              "pitch": 62,
              "velocity": 91,
              "position": 4.25,
              "duration": 1.6666666666666667
            },
            {
              "pitch": 63,
              "velocity": 57,
              "position": 4.75,
              "duration": 1.25
            },
            {
              "pitch": 67,
              "velocity": 73,
              "position": 5.25,
              "duration": 0.75
            },
            {
              "pitch": 68,
              "velocity": 91,
              "position": 5.75,
              "duration": 2.25
            },
            {
              "pitch": 71,
              "velocity": 73,
              "position": 6.25,
              "duration": 1.75
            },
            {
              "pitch": 75,
              "velocity": 73,
              "position": 6.75,
              "duration": 1.25
            },
            {
              "pitch": 80,
              "velocity": 91,
              "position": 7.25,
              "duration": 0.75
            },
            {
              "pitch": 70,
              "velocity": 91,
              "position": 8,
              "duration": 0.7708333333333334
            },
            {
              "pitch": 72,
              "velocity": 91,
              "position": 8,
              "duration": 0.7708333333333334
            },
            {
              "pitch": 75,
              "velocity": 91,
              "position": 8,
              "duration": 0.8020833333333334
            },
            {
              "pitch": 79,
              "velocity": 91,
              "position": 8,
              "duration": 0.8125
            },
            {
              "pitch": 75,
              "velocity": 73,
              "position": 9,
              "duration": 0.5729166666666666
            },
            {
              "pitch": 67,
              "velocity": 73,
              "position": 9,
              "duration": 0.6145833333333334
            },
            {
              "pitch": 70,
              "velocity": 73,
              "position": 9,
              "duration": 0.6354166666666666
            },
            {
              "pitch": 72,
              "velocity": 73,
              "position": 9,
              "duration": 0.6354166666666666
            },
            {
              "pitch": 63,
              "velocity": 91,
              "position": 9.75,
              "duration": 1.3333333333333333
            },
            {
              "pitch": 67,
              "velocity": 91,
              "position": 9.75,
              "duration": 1.3333333333333333
            },
            {
              "pitch": 70,
              "velocity": 91,
              "position": 9.75,
              "duration": 1.3333333333333333
            },
            {
              "pitch": 72,
              "velocity": 91,
              "position": 9.75,
              "duration": 1.3333333333333333
            },
            {
              "pitch": 63,
              "velocity": 57,
              "position": 11.25,
              "duration": 0.6770833333333334
            },
            {
              "pitch": 67,
              "velocity": 57,
              "position": 11.25,
              "duration": 0.6770833333333334
            },
            {
              "pitch": 70,
              "velocity": 57,
              "position": 11.25,
              "duration": 0.6770833333333334
            },
            {
              "pitch": 59,
              "velocity": 73,
              "position": 12,
              "duration": 2.03125
            },
            {
              "pitch": 63,
              "velocity": 73,
              "position": 12,
              "duration": 2.03125
            },
            {
              "pitch": 67,
              "velocity": 73,
              "position": 12,
              "duration": 2.03125
            },
            {
              "pitch": 53,
              "velocity": 73,
              "position": 12,
              "duration": 2.0520833333333335
            },
            {
              "pitch": 51,
              "velocity": 57,
              "position": 14.25,
              "duration": 0.11458333333333333
            },
            {
              "pitch": 47,
              "velocity": 57,
              "position": 14.25,
              "duration": 0.125
            },
            {
              "pitch": 41,
              "velocity": 57,
              "position": 14.25,
              "duration": 0.16666666666666666
            },
            {
              "pitch": 41,
              "velocity": 73,
              "position": 14.75,
              "duration": 1.2395833333333333
            },
            {
              "pitch": 47,
              "velocity": 73,
              "position": 14.75,
              "duration": 1.2395833333333333
            },
            {
              "pitch": 51,
              "velocity": 73,
              "position": 14.75,
              "duration": 1.2395833333333333
            }
          ]
        },
        "4": {
          "ctab": {
            "srcChannel": 4,
            "name": "Str",
            "accType": "PAD",
            "editable": false,
            "mutedNotes": [],
            "mutedChords": [
              "1+2+5",
              "sus4",
              "1+5",
              "1+8",
              "7aug",
              "Maj7aug",
              "7(#9)",
              "7(b13)",
              "7(b9)",
              "7(13)",
              "7#11",
              "7(9)",
              "7b5",
              "7sus4",
              "7th",
              "aug",
              "Maj6(9)",
              "Maj7(9)",
              "Maj(9)",
              "Maj7#11",
              "Maj7",
              "Maj6",
              "Maj"
            ],
            "autoStart": false,
            "sourceChordNote": 0,
            "sourceChordType": "Maj",
            "ctb2Low": null,
            "ctb2Main": {
              "ntr": "ROOT_TRANSPOSITION",
              "ntt": "BYPASS",
              "bassOn": false,
              "chordRootUpperLimit": 2,
              "noteLowLimit": 40,
              "noteHighLimit": 79,
              "rtr": "PITCH_SHIFT"
            },
            "ctb2High": null
          },
          "notes": [
            {
              "pitch": 24,
              "velocity": 36,
              "position": 0,
              "duration": 3.9791666666666665
            },
            {
              "pitch": 63,
              "velocity": 36,
              "position": 0,
              "duration": 3.9791666666666665
            },
            {
              "pitch": 70,
              "velocity": 36,
              "position": 0,
              "duration": 3.9791666666666665
            },
            {
              "pitch": 74,
              "velocity": 36,
              "position": 0,
              "duration": 3.9791666666666665
            },
            {
              "pitch": 79,
              "velocity": 36,
              "position": 0,
              "duration": 5.979166666666667
            },
            {
              "pitch": 31,
              "velocity": 36,
              "position": 4,
              "duration": 3.9791666666666665
            },
            {
              "pitch": 65,
              "velocity": 36,
              "position": 4,
              "duration": 3.9791666666666665
            },
            {
              "pitch": 71,
              "velocity": 36,
              "position": 4,
              "duration": 3.9791666666666665
            },
            {
              "pitch": 75,
              "velocity": 36,
              "position": 4,
              "duration": 3.9791666666666665
            },
            {
              "pitch": 80,
              "velocity": 36,
              "position": 6,
              "duration": 1.9895833333333333
            },
            {
              "pitch": 24,
              "velocity": 36,
              "position": 8,
              "duration": 3.9791666666666665
            },
            {
              "pitch": 63,
              "velocity": 36,
              "position": 8,
              "duration": 3.9791666666666665
            },
            {
              "pitch": 70,
              "velocity": 36,
              "position": 8,
              "duration": 3.9791666666666665
            },
            {
              "pitch": 74,
              "velocity": 36,
              "position": 8,
              "duration": 3.9791666666666665
            },
            {
              "pitch": 31,
              "velocity": 36,
              "position": 12,
              "duration": 1.9895833333333333
            },
            {
              "pitch": 65,
              "velocity": 36,
              "position": 12,
              "duration": 1.9895833333333333
            },
            {
              "pitch": 71,
              "velocity": 36,
              "position": 12,
              "duration": 1.9895833333333333
            },
            {
              "pitch": 75,
              "velocity": 36,
              "position": 12,
              "duration": 1.9895833333333333
            },
            {
              "pitch": 79,
              "velocity": 36,
              "position": 8,
              "duration": 5.989583333333333
            }
          ]
        },
        "6": {
          "ctab": {
            "srcChannel": 6,
            "name": "NGt 2",
            "accType": "CHORD1",
            "editable": false,
            "mutedNotes": [
              5,
              4,
              3,
              2,
              1,
              0
            ],
            "mutedChords": [
              "1+2+5",
              "sus4",
              "1+5",
              "1+8",
              "7aug",
              "Maj7aug",
              "7(#9)",
              "7(b13)",
              "7(b9)",
              "7(13)",
              "7#11",
              "7(9)",
              "7b5",
              "7sus4",
              "7th",
              "aug",
              "Maj6(9)",
              "Maj7(9)",
              "Maj(9)",
              "Maj7#11",
              "Maj7",
              "Maj6",
              "Maj"
            ],
            "autoStart": false,
            "sourceChordNote": 0,
            "sourceChordType": "Maj",
            "ctb2Low": null,
            "ctb2Main": {
              "ntr": "ROOT_TRANSPOSITION",
              "ntt": "BYPASS",
              "bassOn": false,
              "chordRootUpperLimit": 11,
              "noteLowLimit": 40,
              "noteHighLimit": 127,
              "rtr": "PITCH_SHIFT"
            },
            "ctb2High": null
          },
          "notes": [
            {
              "pitch": 55,
              "velocity": 67,
              "position": 0,
              "duration": 0.20833333333333334
            },
            {
              "pitch": 46,
              "velocity": 45,
              "position": 0,
              "duration": 0.21875
            },
            {
              "pitch": 62,
              "velocity": 54,
              "position": 0,
              "duration": 0.21875
            },
            {
              "pitch": 36,
              "velocity": 51,
              "position": 0.010416666666666666,
              "duration": 0.21875
            },
            {
              "pitch": 51,
              "velocity": 62,
              "position": 0.010416666666666666,
              "duration": 0.21875
            },
            {
              "pitch": 51,
              "velocity": 76,
              "position": 0.5,
              "duration": 0.4479166666666667
            },
            {
              "pitch": 55,
              "velocity": 85,
              "position": 0.5,
              "duration": 0.4479166666666667
            },
            {
              "pitch": 62,
              "velocity": 86,
              "position": 0.5,
              "duration": 0.4583333333333333
            },
            {
              "pitch": 36,
              "velocity": 77,
              "position": 0.5104166666666666,
              "duration": 0.46875
            },
            {
              "pitch": 46,
              "velocity": 76,
              "position": 0.5104166666666666,
              "duration": 0.46875
            },
            {
              "pitch": 36,
              "velocity": 39,
              "position": 1.25,
              "duration": 0.20833333333333334
            },
            {
              "pitch": 46,
              "velocity": 35,
              "position": 1.25,
              "duration": 0.21875
            },
            {
              "pitch": 62,
              "velocity": 17,
              "position": 1.25,
              "duration": 0.21875
            },
            {
              "pitch": 51,
              "velocity": 56,
              "position": 1.2604166666666667,
              "duration": 0.21875
            },
            {
              "pitch": 55,
              "velocity": 57,
              "position": 1.2604166666666667,
              "duration": 0.21875
            },
            {
              "pitch": 36,
              "velocity": 65,
              "position": 1.75,
              "duration": 0.20833333333333334
            },
            {
              "pitch": 55,
              "velocity": 62,
              "position": 1.7604166666666667,
              "duration": 0.19791666666666666
            },
            {
              "pitch": 46,
              "velocity": 51,
              "position": 1.7604166666666667,
              "duration": 0.20833333333333334
            },
            {
              "pitch": 51,
              "velocity": 59,
              "position": 1.75,
              "duration": 0.21875
            },
            {
              "pitch": 62,
              "velocity": 51,
              "position": 1.75,
              "duration": 0.22916666666666666
            },
            {
              "pitch": 36,
              "velocity": 71,
              "position": 2.25,
              "duration": 0.4583333333333333
            },
            {
              "pitch": 55,
              "velocity": 83,
              "position": 2.25,
              "duration": 0.46875
            },
            {
              "pitch": 62,
              "velocity": 86,
              "position": 2.25,
              "duration": 0.46875
            },
            {
              "pitch": 46,
              "velocity": 66,
              "position": 2.2604166666666665,
              "duration": 0.46875
            },
            {
              "pitch": 51,
              "velocity": 67,
              "position": 2.2604166666666665,
              "duration": 0.46875
            },
            {
              "pitch": 46,
              "velocity": 41,
              "position": 3,
              "duration": 0.19791666666666666
            },
            {
              "pitch": 51,
              "velocity": 62,
              "position": 3,
              "duration": 0.20833333333333334
            },
            {
              "pitch": 36,
              "velocity": 63,
              "position": 3,
              "duration": 0.21875
            },
            {
              "pitch": 62,
              "velocity": 62,
              "position": 3.0104166666666665,
              "duration": 0.20833333333333334
            },
            {
              "pitch": 55,
              "velocity": 82,
              "position": 3.0104166666666665,
              "duration": 0.21875
            },
            {
              "pitch": 46,
              "velocity": 67,
              "position": 3.5,
              "duration": 0.13541666666666666
            },
            {
              "pitch": 55,
              "velocity": 83,
              "position": 3.5,
              "duration": 0.13541666666666666
            },
            {
              "pitch": 62,
              "velocity": 92,
              "position": 3.5,
              "duration": 0.13541666666666666
            },
            {
              "pitch": 36,
              "velocity": 69,
              "position": 3.5,
              "duration": 0.14583333333333334
            },
            {
              "pitch": 51,
              "velocity": 75,
              "position": 3.5,
              "duration": 0.14583333333333334
            },
            {
              "pitch": 57,
              "velocity": 51,
              "position": 3.75,
              "duration": 0.13541666666666666
            },
            {
              "pitch": 31,
              "velocity": 51,
              "position": 4.010416666666667,
              "duration": 0.20833333333333334
            },
            {
              "pitch": 47,
              "velocity": 45,
              "position": 4.010416666666667,
              "duration": 0.20833333333333334
            },
            {
              "pitch": 53,
              "velocity": 66,
              "position": 4,
              "duration": 0.21875
            },
            {
              "pitch": 63,
              "velocity": 41,
              "position": 4,
              "duration": 0.22916666666666666
            },
            {
              "pitch": 58,
              "velocity": 61,
              "position": 4.010416666666667,
              "duration": 0.22916666666666666
            },
            {
              "pitch": 58,
              "velocity": 87,
              "position": 4.510416666666667,
              "duration": 0.22916666666666666
            },
            {
              "pitch": 63,
              "velocity": 87,
              "position": 4.5,
              "duration": 0.23958333333333334
            },
            {
              "pitch": 47,
              "velocity": 72,
              "position": 4.510416666666667,
              "duration": 0.23958333333333334
            },
            {
              "pitch": 53,
              "velocity": 88,
              "position": 4.510416666666667,
              "duration": 0.23958333333333334
            },
            {
              "pitch": 58,
              "velocity": 46,
              "position": 4.75,
              "duration": 0.020833333333333332
            },
            {
              "pitch": 63,
              "velocity": 51,
              "position": 4.75,
              "duration": 0.20833333333333334
            },
            {
              "pitch": 31,
              "velocity": 63,
              "position": 4.510416666666667,
              "duration": 0.4583333333333333
            },
            {
              "pitch": 47,
              "velocity": 23,
              "position": 4.760416666666667,
              "duration": 0.20833333333333334
            },
            {
              "pitch": 53,
              "velocity": 50,
              "position": 4.75,
              "duration": 0.22916666666666666
            },
            {
              "pitch": 31,
              "velocity": 28,
              "position": 5.260416666666667,
              "duration": 0.20833333333333334
            },
            {
              "pitch": 47,
              "velocity": 22,
              "position": 5.25,
              "duration": 0.21875
            },
            {
              "pitch": 53,
              "velocity": 57,
              "position": 5.25,
              "duration": 0.21875
            },
            {
              "pitch": 58,
              "velocity": 50,
              "position": 5.260416666666667,
              "duration": 0.21875
            },
            {
              "pitch": 63,
              "velocity": 39,
              "position": 5.260416666666667,
              "duration": 0.22916666666666666
            },
            {
              "pitch": 31,
              "velocity": 58,
              "position": 5.760416666666667,
              "duration": 0.1875
            },
            {
              "pitch": 53,
              "velocity": 62,
              "position": 5.760416666666667,
              "duration": 0.20833333333333334
            },
            {
              "pitch": 56,
              "velocity": 77,
              "position": 5.760416666666667,
              "duration": 0.20833333333333334
            },
            {
              "pitch": 63,
              "velocity": 53,
              "position": 5.75,
              "duration": 0.21875
            },
            {
              "pitch": 47,
              "velocity": 51,
              "position": 5.760416666666667,
              "duration": 0.21875
            },
            {
              "pitch": 56,
              "velocity": 91,
              "position": 6.25,
              "duration": 0.4583333333333333
            },
            {
              "pitch": 63,
              "velocity": 91,
              "position": 6.260416666666667,
              "duration": 0.4479166666666667
            },
            {
              "pitch": 31,
              "velocity": 71,
              "position": 6.25,
              "duration": 0.46875
            },
            {
              "pitch": 53,
              "velocity": 78,
              "position": 6.260416666666667,
              "duration": 0.4583333333333333
            },
            {
              "pitch": 47,
              "velocity": 63,
              "position": 6.260416666666667,
              "duration": 0.4791666666666667
            },
            {
              "pitch": 56,
              "velocity": 59,
              "position": 7,
              "duration": 0.20833333333333334
            },
            {
              "pitch": 31,
              "velocity": 45,
              "position": 7,
              "duration": 0.21875
            },
            {
              "pitch": 53,
              "velocity": 69,
              "position": 7.010416666666667,
              "duration": 0.20833333333333334
            },
            {
              "pitch": 63,
              "velocity": 49,
              "position": 7,
              "duration": 0.21875
            },
            {
              "pitch": 47,
              "velocity": 51,
              "position": 7.010416666666667,
              "duration": 0.21875
            },
            {
              "pitch": 53,
              "velocity": 86,
              "position": 7.510416666666667,
              "duration": 0.125
            },
            {
              "pitch": 63,
              "velocity": 90,
              "position": 7.510416666666667,
              "duration": 0.125
            },
            {
              "pitch": 31,
              "velocity": 70,
              "position": 7.510416666666667,
              "duration": 0.13541666666666666
            },
            {
              "pitch": 47,
              "velocity": 80,
              "position": 7.510416666666667,
              "duration": 0.13541666666666666
            },
            {
              "pitch": 56,
              "velocity": 81,
              "position": 7.510416666666667,
              "duration": 0.13541666666666666
            },
            {
              "pitch": 57,
              "velocity": 56,
              "position": 7.75,
              "duration": 0.125
            },
            {
              "pitch": 36,
              "velocity": 51,
              "position": 8,
              "duration": 0.19791666666666666
            },
            {
              "pitch": 55,
              "velocity": 71,
              "position": 8,
              "duration": 0.20833333333333334
            },
            {
              "pitch": 46,
              "velocity": 54,
              "position": 8.010416666666666,
              "duration": 0.20833333333333334
            },
            {
              "pitch": 51,
              "velocity": 65,
              "position": 8.010416666666666,
              "duration": 0.20833333333333334
            },
            {
              "pitch": 62,
              "velocity": 49,
              "position": 8.010416666666666,
              "duration": 0.20833333333333334
            },
            {
              "pitch": 36,
              "velocity": 68,
              "position": 8.5,
              "duration": 0.4583333333333333
            },
            {
              "pitch": 62,
              "velocity": 91,
              "position": 8.5,
              "duration": 0.4583333333333333
            },
            {
              "pitch": 51,
              "velocity": 82,
              "position": 8.510416666666666,
              "duration": 0.4583333333333333
            },
            {
              "pitch": 55,
              "velocity": 88,
              "position": 8.5,
              "duration": 0.46875
            },
            {
              "pitch": 46,
              "velocity": 73,
              "position": 8.510416666666666,
              "duration": 0.46875
            },
            {
              "pitch": 46,
              "velocity": 37,
              "position": 9.25,
              "duration": 0.20833333333333334
            },
            {
              "pitch": 51,
              "velocity": 39,
              "position": 9.260416666666666,
              "duration": 0.20833333333333334
            },
            {
              "pitch": 55,
              "velocity": 52,
              "position": 9.25,
              "duration": 0.21875
            },
            {
              "pitch": 36,
              "velocity": 28,
              "position": 9.260416666666666,
              "duration": 0.21875
            },
            {
              "pitch": 62,
              "velocity": 27,
              "position": 9.260416666666666,
              "duration": 0.21875
            },
            {
              "pitch": 36,
              "velocity": 52,
              "position": 9.75,
              "duration": 0.19791666666666666
            },
            {
              "pitch": 46,
              "velocity": 40,
              "position": 9.75,
              "duration": 0.20833333333333334
            },
            {
              "pitch": 51,
              "velocity": 59,
              "position": 9.760416666666666,
              "duration": 0.20833333333333334
            },
            {
              "pitch": 55,
              "velocity": 66,
              "position": 9.760416666666666,
              "duration": 0.20833333333333334
            },
            {
              "pitch": 62,
              "velocity": 47,
              "position": 9.760416666666666,
              "duration": 0.20833333333333334
            },
            {
              "pitch": 51,
              "velocity": 91,
              "position": 10.25,
              "duration": 0.4479166666666667
            },
            {
              "pitch": 62,
              "velocity": 89,
              "position": 10.25,
              "duration": 0.4583333333333333
            },
            {
              "pitch": 46,
              "velocity": 74,
              "position": 10.260416666666666,
              "duration": 0.4583333333333333
            },
            {
              "pitch": 55,
              "velocity": 88,
              "position": 10.260416666666666,
              "duration": 0.4583333333333333
            },
            {
              "pitch": 36,
              "velocity": 71,
              "position": 10.260416666666666,
              "duration": 0.4791666666666667
            },
            {
              "pitch": 36,
              "velocity": 59,
              "position": 11,
              "duration": 0.19791666666666666
            },
            {
              "pitch": 46,
              "velocity": 40,
              "position": 11,
              "duration": 0.19791666666666666
            },
            {
              "pitch": 51,
              "velocity": 64,
              "position": 11,
              "duration": 0.20833333333333334
            },
            {
              "pitch": 55,
              "velocity": 81,
              "position": 11.010416666666666,
              "duration": 0.20833333333333334
            },
            {
              "pitch": 62,
              "velocity": 59,
              "position": 11,
              "duration": 0.21875
            },
            {
              "pitch": 46,
              "velocity": 67,
              "position": 11.5,
              "duration": 0.125
            },
            {
              "pitch": 51,
              "velocity": 79,
              "position": 11.5,
              "duration": 0.125
            },
            {
              "pitch": 62,
              "velocity": 101,
              "position": 11.5,
              "duration": 0.125
            },
            {
              "pitch": 36,
              "velocity": 64,
              "position": 11.5,
              "duration": 0.14583333333333334
            },
            {
              "pitch": 55,
              "velocity": 85,
              "position": 11.510416666666666,
              "duration": 0.13541666666666666
            },
            {
              "pitch": 57,
              "velocity": 47,
              "position": 11.760416666666666,
              "duration": 0.13541666666666666
            },
            {
              "pitch": 53,
              "velocity": 69,
              "position": 12,
              "duration": 0.20833333333333334
            },
            {
              "pitch": 58,
              "velocity": 73,
              "position": 12.010416666666666,
              "duration": 0.20833333333333334
            },
            {
              "pitch": 63,
              "velocity": 55,
              "position": 12,
              "duration": 0.21875
            },
            {
              "pitch": 31,
              "velocity": 47,
              "position": 12.010416666666666,
              "duration": 0.21875
            },
            {
              "pitch": 47,
              "velocity": 65,
              "position": 12.010416666666666,
              "duration": 0.21875
            },
            {
              "pitch": 63,
              "velocity": 91,
              "position": 12.5,
              "duration": 0.22916666666666666
            },
            {
              "pitch": 58,
              "velocity": 102,
              "position": 12.5,
              "duration": 0.23958333333333334
            },
            {
              "pitch": 47,
              "velocity": 70,
              "position": 12.5,
              "duration": 0.25
            },
            {
              "pitch": 53,
              "velocity": 79,
              "position": 12.5,
              "duration": 0.25
            },
            {
              "pitch": 53,
              "velocity": 42,
              "position": 12.75,
              "duration": 0.0020833333333333333
            },
            {
              "pitch": 31,
              "velocity": 70,
              "position": 12.5,
              "duration": 0.4479166666666667
            },
            {
              "pitch": 47,
              "velocity": 23,
              "position": 12.75,
              "duration": 0.20833333333333334
            },
            {
              "pitch": 63,
              "velocity": 59,
              "position": 12.75,
              "duration": 0.20833333333333334
            },
            {
              "pitch": 58,
              "velocity": 39,
              "position": 12.760416666666666,
              "duration": 0.21875
            },
            {
              "pitch": 47,
              "velocity": 34,
              "position": 13.260416666666666,
              "duration": 0.19791666666666666
            },
            {
              "pitch": 63,
              "velocity": 37,
              "position": 13.25,
              "duration": 0.20833333333333334
            },
            {
              "pitch": 53,
              "velocity": 38,
              "position": 13.25,
              "duration": 0.21875
            },
            {
              "pitch": 31,
              "velocity": 41,
              "position": 13.25,
              "duration": 0.22916666666666666
            },
            {
              "pitch": 58,
              "velocity": 64,
              "position": 13.260416666666666,
              "duration": 0.22916666666666666
            },
            {
              "pitch": 47,
              "velocity": 46,
              "position": 13.760416666666666,
              "duration": 0.19791666666666666
            },
            {
              "pitch": 56,
              "velocity": 72,
              "position": 13.75,
              "duration": 0.20833333333333334
            },
            {
              "pitch": 63,
              "velocity": 55,
              "position": 13.75,
              "duration": 0.20833333333333334
            },
            {
              "pitch": 31,
              "velocity": 59,
              "position": 13.75,
              "duration": 0.21875
            },
            {
              "pitch": 53,
              "velocity": 74,
              "position": 13.760416666666666,
              "duration": 0.20833333333333334
            },
            {
              "pitch": 31,
              "velocity": 47,
              "position": 14.25,
              "duration": 0.19791666666666666
            },
            {
              "pitch": 47,
              "velocity": 47,
              "position": 14.25,
              "duration": 0.19791666666666666
            },
            {
              "pitch": 53,
              "velocity": 72,
              "position": 14.25,
              "duration": 0.20833333333333334
            },
            {
              "pitch": 63,
              "velocity": 73,
              "position": 14.260416666666666,
              "duration": 0.20833333333333334
            },
            {
              "pitch": 56,
              "velocity": 63,
              "position": 14.260416666666666,
              "duration": 0.21875
            },
            {
              "pitch": 31,
              "velocity": 52,
              "position": 14.75,
              "duration": 1.1979166666666667
            },
            {
              "pitch": 56,
              "velocity": 77,
              "position": 14.75,
              "duration": 1.1979166666666667
            },
            {
              "pitch": 63,
              "velocity": 84,
              "position": 14.760416666666666,
              "duration": 1.1875
            },
            {
              "pitch": 53,
              "velocity": 78,
              "position": 14.760416666666666,
              "duration": 1.1979166666666667
            },
            {
              "pitch": 47,
              "velocity": 60,
              "position": 14.75,
              "duration": 1.21875
            }
          ]
        },
        "8": {
          "ctab": {
            "srcChannel": 8,
            "name": "Perc",
            "accType": "SUBRHYTHM",
            "editable": false,
            "mutedNotes": [],
            "mutedChords": [],
            "autoStart": true,
            "sourceChordNote": 0,
            "sourceChordType": "Maj7",
            "ctb2Low": null,
            "ctb2Main": {
              "ntr": "ROOT_FIXED",
              "ntt": "BYPASS",
              "bassOn": false,
              "chordRootUpperLimit": 6,
              "noteLowLimit": 0,
              "noteHighLimit": 127,
              "rtr": "PITCH_SHIFT"
            },
            "ctb2High": null
          },
          "notes": [
            {
              "pitch": 82,
              "velocity": 63,
              "position": 0,
              "duration": 0.010416666666666666
            },
            {
              "pitch": 82,
              "velocity": 29,
              "position": 0.2604166666666667,
              "duration": 0.010416666666666666
            },
            {
              "pitch": 82,
              "velocity": 46,
              "position": 0.4895833333333333,
              "duration": 0.010416666666666666
            },
            {
              "pitch": 82,
              "velocity": 52,
              "position": 0.7395833333333334,
              "duration": 0.010416666666666666
            },
            {
              "pitch": 82,
              "velocity": 63,
              "position": 0.9895833333333334,
              "duration": 0.010416666666666666
            },
            {
              "pitch": 82,
              "velocity": 29,
              "position": 1.2604166666666667,
              "duration": 0.010416666666666666
            },
            {
              "pitch": 82,
              "velocity": 46,
              "position": 1.4895833333333333,
              "duration": 0.010416666666666666
            },
            {
              "pitch": 82,
              "velocity": 52,
              "position": 1.7395833333333333,
              "duration": 0.010416666666666666
            },
            {
              "pitch": 82,
              "velocity": 63,
              "position": 1.9895833333333333,
              "duration": 0.010416666666666666
            },
            {
              "pitch": 82,
              "velocity": 29,
              "position": 2.2604166666666665,
              "duration": 0.010416666666666666
            },
            {
              "pitch": 82,
              "velocity": 46,
              "position": 2.4895833333333335,
              "duration": 0.010416666666666666
            },
            {
              "pitch": 82,
              "velocity": 52,
              "position": 2.7395833333333335,
              "duration": 0.010416666666666666
            },
            {
              "pitch": 82,
              "velocity": 63,
              "position": 2.9895833333333335,
              "duration": 0.010416666666666666
            },
            {
              "pitch": 82,
              "velocity": 29,
              "position": 3.2604166666666665,
              "duration": 0.010416666666666666
            },
            {
              "pitch": 82,
              "velocity": 46,
              "position": 3.4895833333333335,
              "duration": 0.010416666666666666
            },
            {
              "pitch": 82,
              "velocity": 52,
              "position": 3.7395833333333335,
              "duration": 0.010416666666666666
            },
            {
              "pitch": 82,
              "velocity": 63,
              "position": 4,
              "duration": 0.010416666666666666
            },
            {
              "pitch": 82,
              "velocity": 29,
              "position": 4.260416666666667,
              "duration": 0.010416666666666666
            },
            {
              "pitch": 82,
              "velocity": 46,
              "position": 4.489583333333333,
              "duration": 0.010416666666666666
            },
            {
              "pitch": 82,
              "velocity": 52,
              "position": 4.739583333333333,
              "duration": 0.010416666666666666
            },
            {
              "pitch": 82,
              "velocity": 63,
              "position": 4.989583333333333,
              "duration": 0.010416666666666666
            },
            {
              "pitch": 82,
              "velocity": 29,
              "position": 5.260416666666667,
              "duration": 0.010416666666666666
            },
            {
              "pitch": 82,
              "velocity": 46,
              "position": 5.489583333333333,
              "duration": 0.010416666666666666
            },
            {
              "pitch": 82,
              "velocity": 52,
              "position": 5.739583333333333,
              "duration": 0.010416666666666666
            },
            {
              "pitch": 82,
              "velocity": 63,
              "position": 5.989583333333333,
              "duration": 0.010416666666666666
            },
            {
              "pitch": 82,
              "velocity": 29,
              "position": 6.260416666666667,
              "duration": 0.010416666666666666
            },
            {
              "pitch": 82,
              "velocity": 46,
              "position": 6.489583333333333,
              "duration": 0.010416666666666666
            },
            {
              "pitch": 82,
              "velocity": 52,
              "position": 6.739583333333333,
              "duration": 0.010416666666666666
            },
            {
              "pitch": 82,
              "velocity": 63,
              "position": 6.989583333333333,
              "duration": 0.010416666666666666
            },
            {
              "pitch": 82,
              "velocity": 29,
              "position": 7.260416666666667,
              "duration": 0.010416666666666666
            },
            {
              "pitch": 82,
              "velocity": 46,
              "position": 7.489583333333333,
              "duration": 0.010416666666666666
            },
            {
              "pitch": 68,
              "velocity": 38,
              "position": 7.739583333333333,
              "duration": 0.010416666666666666
            },
            {
              "pitch": 82,
              "velocity": 52,
              "position": 7.739583333333333,
              "duration": 0.010416666666666666
            },
            {
              "pitch": 82,
              "velocity": 63,
              "position": 8,
              "duration": 0.010416666666666666
            },
            {
              "pitch": 67,
              "velocity": 50,
              "position": 8.260416666666666,
              "duration": 0.010416666666666666
            },
            {
              "pitch": 82,
              "velocity": 29,
              "position": 8.260416666666666,
              "duration": 0.010416666666666666
            },
            {
              "pitch": 82,
              "velocity": 46,
              "position": 8.489583333333334,
              "duration": 0.010416666666666666
            },
            {
              "pitch": 82,
              "velocity": 52,
              "position": 8.739583333333334,
              "duration": 0.010416666666666666
            },
            {
              "pitch": 68,
              "velocity": 38,
              "position": 8.989583333333334,
              "duration": 0.010416666666666666
            },
            {
              "pitch": 82,
              "velocity": 63,
              "position": 8.989583333333334,
              "duration": 0.010416666666666666
            },
            {
              "pitch": 82,
              "velocity": 29,
              "position": 9.260416666666666,
              "duration": 0.010416666666666666
            },
            {
              "pitch": 68,
              "velocity": 37,
              "position": 9.489583333333334,
              "duration": 0.010416666666666666
            },
            {
              "pitch": 82,
              "velocity": 46,
              "position": 9.489583333333334,
              "duration": 0.010416666666666666
            },
            {
              "pitch": 82,
              "velocity": 52,
              "position": 9.739583333333334,
              "duration": 0.010416666666666666
            },
            {
              "pitch": 68,
              "velocity": 38,
              "position": 9.989583333333334,
              "duration": 0.010416666666666666
            },
            {
              "pitch": 82,
              "velocity": 63,
              "position": 9.989583333333334,
              "duration": 0.010416666666666666
            },
            {
              "pitch": 82,
              "velocity": 29,
              "position": 10.260416666666666,
              "duration": 0.010416666666666666
            },
            {
              "pitch": 67,
              "velocity": 44,
              "position": 10.489583333333334,
              "duration": 0.010416666666666666
            },
            {
              "pitch": 82,
              "velocity": 46,
              "position": 10.489583333333334,
              "duration": 0.010416666666666666
            },
            {
              "pitch": 82,
              "velocity": 52,
              "position": 10.739583333333334,
              "duration": 0.010416666666666666
            },
            {
              "pitch": 82,
              "velocity": 63,
              "position": 10.989583333333334,
              "duration": 0.010416666666666666
            },
            {
              "pitch": 68,
              "velocity": 44,
              "position": 11.260416666666666,
              "duration": 0.010416666666666666
            },
            {
              "pitch": 82,
              "velocity": 29,
              "position": 11.260416666666666,
              "duration": 0.010416666666666666
            },
            {
              "pitch": 82,
              "velocity": 46,
              "position": 11.489583333333334,
              "duration": 0.010416666666666666
            },
            {
              "pitch": 68,
              "velocity": 38,
              "position": 11.739583333333334,
              "duration": 0.010416666666666666
            },
            {
              "pitch": 82,
              "velocity": 52,
              "position": 11.739583333333334,
              "duration": 0.010416666666666666
            },
            {
              "pitch": 82,
              "velocity": 63,
              "position": 12,
              "duration": 0.010416666666666666
            },
            {
              "pitch": 67,
              "velocity": 50,
              "position": 12.260416666666666,
              "duration": 0.010416666666666666
            },
            {
              "pitch": 82,
              "velocity": 29,
              "position": 12.260416666666666,
              "duration": 0.010416666666666666
            },
            {
              "pitch": 82,
              "velocity": 46,
              "position": 12.489583333333334,
              "duration": 0.010416666666666666
            },
            {
              "pitch": 82,
              "velocity": 52,
              "position": 12.739583333333334,
              "duration": 0.010416666666666666
            },
            {
              "pitch": 68,
              "velocity": 38,
              "position": 12.989583333333334,
              "duration": 0.010416666666666666
            },
            {
              "pitch": 82,
              "velocity": 63,
              "position": 12.989583333333334,
              "duration": 0.010416666666666666
            },
            {
              "pitch": 82,
              "velocity": 29,
              "position": 13.260416666666666,
              "duration": 0.010416666666666666
            },
            {
              "pitch": 68,
              "velocity": 37,
              "position": 13.489583333333334,
              "duration": 0.010416666666666666
            },
            {
              "pitch": 82,
              "velocity": 46,
              "position": 13.489583333333334,
              "duration": 0.010416666666666666
            },
            {
              "pitch": 82,
              "velocity": 52,
              "position": 13.739583333333334,
              "duration": 0.010416666666666666
            },
            {
              "pitch": 68,
              "velocity": 38,
              "position": 13.989583333333334,
              "duration": 0.010416666666666666
            },
            {
              "pitch": 82,
              "velocity": 63,
              "position": 13.989583333333334,
              "duration": 0.010416666666666666
            },
            {
              "pitch": 82,
              "velocity": 29,
              "position": 14.260416666666666,
              "duration": 0.010416666666666666
            },
            {
              "pitch": 67,
              "velocity": 44,
              "position": 14.489583333333334,
              "duration": 0.010416666666666666
            },
            {
              "pitch": 82,
              "velocity": 46,
              "position": 14.489583333333334,
              "duration": 0.010416666666666666
            },
            {
              "pitch": 82,
              "velocity": 52,
              "position": 14.739583333333334,
              "duration": 0.010416666666666666
            },
            {
              "pitch": 82,
              "velocity": 63,
              "position": 14.989583333333334,
              "duration": 0.010416666666666666
            },
            {
              "pitch": 82,
              "velocity": 29,
              "position": 15.260416666666666,
              "duration": 0.010416666666666666
            },
            {
              "pitch": 82,
              "velocity": 46,
              "position": 15.489583333333334,
              "duration": 0.010416666666666666
            },
            {
              "pitch": 82,
              "velocity": 52,
              "position": 15.739583333333334,
              "duration": 0.010416666666666666
            }
          ]
        },
        "9": {
          "ctab": {
            "srcChannel": 9,
            "name": "Drs",
            "accType": "RHYTHM",
            "editable": false,
            "mutedNotes": [],
            "mutedChords": [],
            "autoStart": true,
            "sourceChordNote": 0,
            "sourceChordType": "Maj7",
            "ctb2Low": null,
            "ctb2Main": {
              "ntr": "ROOT_FIXED",
              "ntt": "BYPASS",
              "bassOn": false,
              "chordRootUpperLimit": 6,
              "noteLowLimit": 0,
              "noteHighLimit": 127,
              "rtr": "PITCH_SHIFT"
            },
            "ctb2High": null
          },
          "notes": [
            {
              "pitch": 51,
              "velocity": 60,
              "position": 0,
              "duration": 0.010416666666666666
            },
            {
              "pitch": 51,
              "velocity": 20,
              "position": 3.7395833333333335,
              "duration": 0.010416666666666666
            },
            {
              "pitch": 51,
              "velocity": 60,
              "position": 4,
              "duration": 0.010416666666666666
            },
            {
              "pitch": 37,
              "velocity": 38,
              "position": 6.260416666666667,
              "duration": 0.010416666666666666
            },
            {
              "pitch": 37,
              "velocity": 68,
              "position": 6.739583333333333,
              "duration": 0.010416666666666666
            },
            {
              "pitch": 37,
              "velocity": 38,
              "position": 7.260416666666667,
              "duration": 0.010416666666666666
            },
            {
              "pitch": 37,
              "velocity": 68,
              "position": 7.489583333333333,
              "duration": 0.010416666666666666
            },
            {
              "pitch": 35,
              "velocity": 93,
              "position": 8,
              "duration": 0.010416666666666666
            },
            {
              "pitch": 37,
              "velocity": 38,
              "position": 8,
              "duration": 0.010416666666666666
            },
            {
              "pitch": 42,
              "velocity": 80,
              "position": 8,
              "duration": 0.010416666666666666
            },
            {
              "pitch": 51,
              "velocity": 60,
              "position": 8,
              "duration": 0.010416666666666666
            },
            {
              "pitch": 42,
              "velocity": 50,
              "position": 8.260416666666666,
              "duration": 0.010416666666666666
            },
            {
              "pitch": 37,
              "velocity": 68,
              "position": 8.489583333333334,
              "duration": 0.010416666666666666
            },
            {
              "pitch": 42,
              "velocity": 60,
              "position": 8.489583333333334,
              "duration": 0.010416666666666666
            },
            {
              "pitch": 42,
              "velocity": 80,
              "position": 8.739583333333334,
              "duration": 0.010416666666666666
            },
            {
              "pitch": 35,
              "velocity": 63,
              "position": 8.75,
              "duration": 0.010416666666666666
            },
            {
              "pitch": 42,
              "velocity": 80,
              "position": 8.989583333333334,
              "duration": 0.010416666666666666
            },
            {
              "pitch": 35,
              "velocity": 93,
              "position": 9,
              "duration": 0.010416666666666666
            },
            {
              "pitch": 37,
              "velocity": 68,
              "position": 9.260416666666666,
              "duration": 0.010416666666666666
            },
            {
              "pitch": 42,
              "velocity": 50,
              "position": 9.260416666666666,
              "duration": 0.010416666666666666
            },
            {
              "pitch": 42,
              "velocity": 60,
              "position": 9.489583333333334,
              "duration": 0.010416666666666666
            },
            {
              "pitch": 37,
              "velocity": 38,
              "position": 9.739583333333334,
              "duration": 0.010416666666666666
            },
            {
              "pitch": 46,
              "velocity": 50,
              "position": 9.739583333333334,
              "duration": 0.010416666666666666
            },
            {
              "pitch": 35,
              "velocity": 63,
              "position": 9.75,
              "duration": 0.010416666666666666
            },
            {
              "pitch": 42,
              "velocity": 80,
              "position": 9.989583333333334,
              "duration": 0.010416666666666666
            },
            {
              "pitch": 35,
              "velocity": 93,
              "position": 10,
              "duration": 0.010416666666666666
            },
            {
              "pitch": 37,
              "velocity": 68,
              "position": 10.260416666666666,
              "duration": 0.010416666666666666
            },
            {
              "pitch": 42,
              "velocity": 50,
              "position": 10.260416666666666,
              "duration": 0.010416666666666666
            },
            {
              "pitch": 42,
              "velocity": 60,
              "position": 10.489583333333334,
              "duration": 0.010416666666666666
            },
            {
              "pitch": 42,
              "velocity": 80,
              "position": 10.739583333333334,
              "duration": 0.010416666666666666
            },
            {
              "pitch": 35,
              "velocity": 63,
              "position": 10.75,
              "duration": 0.010416666666666666
            },
            {
              "pitch": 37,
              "velocity": 68,
              "position": 10.989583333333334,
              "duration": 0.010416666666666666
            },
            {
              "pitch": 42,
              "velocity": 80,
              "position": 10.989583333333334,
              "duration": 0.010416666666666666
            },
            {
              "pitch": 35,
              "velocity": 93,
              "position": 11,
              "duration": 0.010416666666666666
            },
            {
              "pitch": 42,
              "velocity": 50,
              "position": 11.260416666666666,
              "duration": 0.010416666666666666
            },
            {
              "pitch": 37,
              "velocity": 38,
              "position": 11.489583333333334,
              "duration": 0.010416666666666666
            },
            {
              "pitch": 42,
              "velocity": 60,
              "position": 11.489583333333334,
              "duration": 0.010416666666666666
            },
            {
              "pitch": 42,
              "velocity": 80,
              "position": 11.739583333333334,
              "duration": 0.010416666666666666
            },
            {
              "pitch": 35,
              "velocity": 63,
              "position": 11.75,
              "duration": 0.010416666666666666
            },
            {
              "pitch": 35,
              "velocity": 93,
              "position": 12,
              "duration": 0.010416666666666666
            },
            {
              "pitch": 37,
              "velocity": 38,
              "position": 12,
              "duration": 0.010416666666666666
            },
            {
              "pitch": 42,
              "velocity": 80,
              "position": 12,
              "duration": 0.010416666666666666
            },
            {
              "pitch": 42,
              "velocity": 50,
              "position": 12.260416666666666,
              "duration": 0.010416666666666666
            },
            {
              "pitch": 37,
              "velocity": 68,
              "position": 12.489583333333334,
              "duration": 0.010416666666666666
            },
            {
              "pitch": 42,
              "velocity": 60,
              "position": 12.489583333333334,
              "duration": 0.010416666666666666
            },
            {
              "pitch": 42,
              "velocity": 80,
              "position": 12.739583333333334,
              "duration": 0.010416666666666666
            },
            {
              "pitch": 35,
              "velocity": 63,
              "position": 12.75,
              "duration": 0.010416666666666666
            },
            {
              "pitch": 42,
              "velocity": 80,
              "position": 12.989583333333334,
              "duration": 0.010416666666666666
            },
            {
              "pitch": 35,
              "velocity": 93,
              "position": 13,
              "duration": 0.010416666666666666
            },
            {
              "pitch": 31,
              "velocity": 20,
              "position": 13.260416666666666,
              "duration": 0.010416666666666666
            },
            {
              "pitch": 42,
              "velocity": 50,
              "position": 13.260416666666666,
              "duration": 0.010416666666666666
            },
            {
              "pitch": 31,
              "velocity": 44,
              "position": 13.489583333333334,
              "duration": 0.010416666666666666
            },
            {
              "pitch": 40,
              "velocity": 59,
              "position": 13.489583333333334,
              "duration": 0.010416666666666666
            },
            {
              "pitch": 42,
              "velocity": 60,
              "position": 13.489583333333334,
              "duration": 0.010416666666666666
            },
            {
              "pitch": 51,
              "velocity": 60,
              "position": 13.739583333333334,
              "duration": 0.010416666666666666
            },
            {
              "pitch": 35,
              "velocity": 93,
              "position": 13.75,
              "duration": 0.010416666666666666
            },
            {
              "pitch": 42,
              "velocity": 80,
              "position": 13.989583333333334,
              "duration": 0.010416666666666666
            },
            {
              "pitch": 35,
              "velocity": 63,
              "position": 14.25,
              "duration": 0.010416666666666666
            },
            {
              "pitch": 46,
              "velocity": 34,
              "position": 14.260416666666666,
              "duration": 0.010416666666666666
            },
            {
              "pitch": 44,
              "velocity": 1,
              "position": 14.489583333333334,
              "duration": 0.010416666666666666
            },
            {
              "pitch": 46,
              "velocity": 80,
              "position": 14.739583333333334,
              "duration": 0.010416666666666666
            },
            {
              "pitch": 35,
              "velocity": 93,
              "position": 14.75,
              "duration": 0.010416666666666666
            },
            {
              "pitch": 35,
              "velocity": 63,
              "position": 15.75,
              "duration": 0.010416666666666666
            },
            {
              "pitch": 49,
              "velocity": 60,
              "position": 15.989583333333334,
              "duration": 0.010416666666666666
            }
          ]
        },
        "10": {
          "ctab": {
            "srcChannel": 10,
            "name": "Bass",
            "accType": "BASS",
            "editable": false,
            "mutedNotes": [],
            "mutedChords": [
              "dim7",
              "dim",
              "minMaj7(9)",
              "minMaj7",
              "min7(11)",
              "min7(9)",
              "min(9)",
              "m7b5",
              "min7",
              "min6",
              "min"
            ],
            "autoStart": false,
            "sourceChordNote": 0,
            "sourceChordType": "Maj",
            "ctb2Low": null,
            "ctb2Main": {
              "ntr": "ROOT_TRANSPOSITION",
              "ntt": "BYPASS",
              "bassOn": false,
              "chordRootUpperLimit": 8,
              "noteLowLimit": 28,
              "noteHighLimit": 127,
              "rtr": "PITCH_SHIFT"
            },
            "ctb2High": null
          },
          "notes": [
            {
              "pitch": 34,
              "velocity": 63,
              "position": 6.75,
              "duration": 0.041666666666666664
            },
            {
              "pitch": 24,
              "velocity": 98,
              "position": 7,
              "duration": 0.9895833333333334
            },
            {
              "pitch": 24,
              "velocity": 98,
              "position": 8,
              "duration": 0.2604166666666667
            },
            {
              "pitch": 24,
              "velocity": 80,
              "position": 8.75,
              "duration": 0.09375
            },
            {
              "pitch": 31,
              "velocity": 98,
              "position": 9,
              "duration": 0.9895833333333334
            },
            {
              "pitch": 24,
              "velocity": 98,
              "position": 10,
              "duration": 0.2604166666666667
            },
            {
              "pitch": 24,
              "velocity": 80,
              "position": 10.75,
              "duration": 0.09375
            },
            {
              "pitch": 31,
              "velocity": 98,
              "position": 11,
              "duration": 0.9895833333333334
            },
            {
              "pitch": 34,
              "velocity": 98,
              "position": 12,
              "duration": 0.2604166666666667
            },
            {
              "pitch": 34,
              "velocity": 80,
              "position": 12.75,
              "duration": 0.09375
            },
            {
              "pitch": 29,
              "velocity": 98,
              "position": 13,
              "duration": 0.4895833333333333
            },
            {
              "pitch": 29,
              "velocity": 98,
              "position": 13.5,
              "duration": 0.4895833333333333
            },
            {
              "pitch": 31,
              "velocity": 63,
              "position": 14.25,
              "duration": 0.19791666666666666
            },
            {
              "pitch": 31,
              "velocity": 98,
              "position": 14.75,
              "duration": 1.2395833333333333
            }
          ]
        },
        "11": {
          "ctab": {
            "srcChannel": 11,
            "name": "NGt 1",
            "accType": "CHORD1",
            "editable": false,
            "mutedNotes": [
              11,
              10,
              9,
              8,
              7,
              6
            ],
            "mutedChords": [
              "dim7",
              "dim",
              "minMaj7(9)",
              "minMaj7",
              "min7(11)",
              "min7(9)",
              "min(9)",
              "m7b5",
              "min7",
              "min6",
              "min"
            ],
            "autoStart": false,
            "sourceChordNote": 0,
            "sourceChordType": "Maj",
            "ctb2Low": null,
            "ctb2Main": {
              "ntr": "ROOT_TRANSPOSITION",
              "ntt": "BYPASS",
              "bassOn": false,
              "chordRootUpperLimit": 11,
              "noteLowLimit": 40,
              "noteHighLimit": 127,
              "rtr": "PITCH_SHIFT"
            },
            "ctb2High": null
          },
          "notes": [
            {
              "pitch": 48,
              "velocity": 63,
              "position": 0,
              "duration": 0.19791666666666666
            },
            {
              "pitch": 67,
              "velocity": 51,
              "position": 0,
              "duration": 0.20833333333333334
            },
            {
              "pitch": 52,
              "velocity": 55,
              "position": 0.010416666666666666,
              "duration": 0.21875
            },
            {
              "pitch": 59,
              "velocity": 56,
              "position": 0.010416666666666666,
              "duration": 0.21875
            },
            {
              "pitch": 62,
              "velocity": 73,
              "position": 0.010416666666666666,
              "duration": 0.21875
            },
            {
              "pitch": 59,
              "velocity": 86,
              "position": 0.5,
              "duration": 0.4479166666666667
            },
            {
              "pitch": 62,
              "velocity": 88,
              "position": 0.5,
              "duration": 0.4479166666666667
            },
            {
              "pitch": 52,
              "velocity": 83,
              "position": 0.5,
              "duration": 0.46875
            },
            {
              "pitch": 67,
              "velocity": 80,
              "position": 0.5,
              "duration": 0.46875
            },
            {
              "pitch": 48,
              "velocity": 81,
              "position": 0.5104166666666666,
              "duration": 0.46875
            },
            {
              "pitch": 48,
              "velocity": 39,
              "position": 1.25,
              "duration": 0.20833333333333334
            },
            {
              "pitch": 59,
              "velocity": 45,
              "position": 1.25,
              "duration": 0.21875
            },
            {
              "pitch": 62,
              "velocity": 54,
              "position": 1.25,
              "duration": 0.21875
            },
            {
              "pitch": 52,
              "velocity": 47,
              "position": 1.25,
              "duration": 0.22916666666666666
            },
            {
              "pitch": 67,
              "velocity": 17,
              "position": 1.2604166666666667,
              "duration": 0.21875
            },
            {
              "pitch": 48,
              "velocity": 69,
              "position": 1.75,
              "duration": 0.20833333333333334
            },
            {
              "pitch": 62,
              "velocity": 69,
              "position": 1.75,
              "duration": 0.20833333333333334
            },
            {
              "pitch": 52,
              "velocity": 69,
              "position": 1.75,
              "duration": 0.21875
            },
            {
              "pitch": 59,
              "velocity": 62,
              "position": 1.7604166666666667,
              "duration": 0.21875
            },
            {
              "pitch": 67,
              "velocity": 58,
              "position": 1.7604166666666667,
              "duration": 0.21875
            },
            {
              "pitch": 48,
              "velocity": 66,
              "position": 2.25,
              "duration": 0.4479166666666667
            },
            {
              "pitch": 67,
              "velocity": 84,
              "position": 2.25,
              "duration": 0.46875
            },
            {
              "pitch": 52,
              "velocity": 83,
              "position": 2.25,
              "duration": 0.4791666666666667
            },
            {
              "pitch": 59,
              "velocity": 75,
              "position": 2.2604166666666665,
              "duration": 0.46875
            },
            {
              "pitch": 62,
              "velocity": 99,
              "position": 2.2604166666666665,
              "duration": 0.46875
            },
            {
              "pitch": 52,
              "velocity": 64,
              "position": 3,
              "duration": 0.19791666666666666
            },
            {
              "pitch": 59,
              "velocity": 65,
              "position": 3,
              "duration": 0.19791666666666666
            },
            {
              "pitch": 48,
              "velocity": 60,
              "position": 3,
              "duration": 0.20833333333333334
            },
            {
              "pitch": 62,
              "velocity": 83,
              "position": 3,
              "duration": 0.20833333333333334
            },
            {
              "pitch": 67,
              "velocity": 62,
              "position": 3.0104166666666665,
              "duration": 0.21875
            },
            {
              "pitch": 52,
              "velocity": 70,
              "position": 3.5,
              "duration": 0.13541666666666666
            },
            {
              "pitch": 67,
              "velocity": 92,
              "position": 3.5,
              "duration": 0.13541666666666666
            },
            {
              "pitch": 59,
              "velocity": 79,
              "position": 3.5,
              "duration": 0.14583333333333334
            },
            {
              "pitch": 62,
              "velocity": 91,
              "position": 3.5104166666666665,
              "duration": 0.13541666666666666
            },
            {
              "pitch": 48,
              "velocity": 83,
              "position": 3.5104166666666665,
              "duration": 0.14583333333333334
            },
            {
              "pitch": 57,
              "velocity": 46,
              "position": 3.7604166666666665,
              "duration": 0.11458333333333333
            },
            {
              "pitch": 56,
              "velocity": 69,
              "position": 4,
              "duration": 0.20833333333333334
            },
            {
              "pitch": 46,
              "velocity": 55,
              "position": 4,
              "duration": 0.21875
            },
            {
              "pitch": 62,
              "velocity": 61,
              "position": 4.010416666666667,
              "duration": 0.20833333333333334
            },
            {
              "pitch": 72,
              "velocity": 49,
              "position": 4,
              "duration": 0.21875
            },
            {
              "pitch": 67,
              "velocity": 69,
              "position": 4.010416666666667,
              "duration": 0.21875
            },
            {
              "pitch": 67,
              "velocity": 102,
              "position": 4.5,
              "duration": 0.23958333333333334
            },
            {
              "pitch": 56,
              "velocity": 82,
              "position": 4.5,
              "duration": 0.25
            },
            {
              "pitch": 62,
              "velocity": 79,
              "position": 4.5,
              "duration": 0.25
            },
            {
              "pitch": 72,
              "velocity": 100,
              "position": 4.510416666666667,
              "duration": 0.23958333333333334
            },
            {
              "pitch": 62,
              "velocity": 33,
              "position": 4.75,
              "duration": 0.20833333333333334
            },
            {
              "pitch": 46,
              "velocity": 69,
              "position": 4.5,
              "duration": 0.46875
            },
            {
              "pitch": 67,
              "velocity": 50,
              "position": 4.75,
              "duration": 0.21875
            },
            {
              "pitch": 72,
              "velocity": 56,
              "position": 4.75,
              "duration": 0.21875
            },
            {
              "pitch": 56,
              "velocity": 45,
              "position": 4.760416666666667,
              "duration": 0.21875
            },
            {
              "pitch": 46,
              "velocity": 28,
              "position": 5.25,
              "duration": 0.20833333333333334
            },
            {
              "pitch": 56,
              "velocity": 37,
              "position": 5.25,
              "duration": 0.21875
            },
            {
              "pitch": 67,
              "velocity": 57,
              "position": 5.25,
              "duration": 0.21875
            },
            {
              "pitch": 72,
              "velocity": 38,
              "position": 5.260416666666667,
              "duration": 0.20833333333333334
            },
            {
              "pitch": 62,
              "velocity": 51,
              "position": 5.25,
              "duration": 0.22916666666666666
            },
            {
              "pitch": 46,
              "velocity": 51,
              "position": 5.760416666666667,
              "duration": 0.20833333333333334
            },
            {
              "pitch": 56,
              "velocity": 58,
              "position": 5.75,
              "duration": 0.21875
            },
            {
              "pitch": 62,
              "velocity": 66,
              "position": 5.760416666666667,
              "duration": 0.21875
            },
            {
              "pitch": 67,
              "velocity": 77,
              "position": 5.75,
              "duration": 0.22916666666666666
            },
            {
              "pitch": 72,
              "velocity": 52,
              "position": 5.760416666666667,
              "duration": 0.21875
            },
            {
              "pitch": 46,
              "velocity": 75,
              "position": 6.260416666666667,
              "duration": 0.4583333333333333
            },
            {
              "pitch": 67,
              "velocity": 84,
              "position": 6.25,
              "duration": 0.46875
            },
            {
              "pitch": 72,
              "velocity": 86,
              "position": 6.260416666666667,
              "duration": 0.4583333333333333
            },
            {
              "pitch": 62,
              "velocity": 86,
              "position": 6.260416666666667,
              "duration": 0.46875
            },
            {
              "pitch": 56,
              "velocity": 70,
              "position": 6.260416666666667,
              "duration": 0.4791666666666667
            },
            {
              "pitch": 72,
              "velocity": 42,
              "position": 7,
              "duration": 0.20833333333333334
            },
            {
              "pitch": 56,
              "velocity": 77,
              "position": 7,
              "duration": 0.21875
            },
            {
              "pitch": 62,
              "velocity": 69,
              "position": 7,
              "duration": 0.21875
            },
            {
              "pitch": 67,
              "velocity": 64,
              "position": 7.010416666666667,
              "duration": 0.20833333333333334
            },
            {
              "pitch": 46,
              "velocity": 51,
              "position": 7,
              "duration": 0.22916666666666666
            },
            {
              "pitch": 46,
              "velocity": 63,
              "position": 7.5,
              "duration": 0.13541666666666666
            },
            {
              "pitch": 67,
              "velocity": 86,
              "position": 7.510416666666667,
              "duration": 0.125
            },
            {
              "pitch": 62,
              "velocity": 99,
              "position": 7.510416666666667,
              "duration": 0.13541666666666666
            },
            {
              "pitch": 72,
              "velocity": 90,
              "position": 7.510416666666667,
              "duration": 0.13541666666666666
            },
            {
              "pitch": 56,
              "velocity": 84,
              "position": 7.510416666666667,
              "duration": 0.14583333333333334
            },
            {
              "pitch": 57,
              "velocity": 53,
              "position": 7.760416666666667,
              "duration": 0.13541666666666666
            },
            {
              "pitch": 59,
              "velocity": 72,
              "position": 8,
              "duration": 0.19791666666666666
            },
            {
              "pitch": 48,
              "velocity": 55,
              "position": 8.010416666666666,
              "duration": 0.19791666666666666
            },
            {
              "pitch": 52,
              "velocity": 62,
              "position": 8,
              "duration": 0.20833333333333334
            },
            {
              "pitch": 67,
              "velocity": 42,
              "position": 8.010416666666666,
              "duration": 0.21875
            },
            {
              "pitch": 62,
              "velocity": 65,
              "position": 8.010416666666666,
              "duration": 0.22916666666666666
            },
            {
              "pitch": 48,
              "velocity": 73,
              "position": 8.5,
              "duration": 0.4479166666666667
            },
            {
              "pitch": 52,
              "velocity": 83,
              "position": 8.510416666666666,
              "duration": 0.4479166666666667
            },
            {
              "pitch": 59,
              "velocity": 83,
              "position": 8.5,
              "duration": 0.4583333333333333
            },
            {
              "pitch": 67,
              "velocity": 90,
              "position": 8.510416666666666,
              "duration": 0.4583333333333333
            },
            {
              "pitch": 62,
              "velocity": 75,
              "position": 8.510416666666666,
              "duration": 0.46875
            },
            {
              "pitch": 62,
              "velocity": 58,
              "position": 9.260416666666666,
              "duration": 0.19791666666666666
            },
            {
              "pitch": 48,
              "velocity": 18,
              "position": 9.25,
              "duration": 0.21875
            },
            {
              "pitch": 52,
              "velocity": 42,
              "position": 9.25,
              "duration": 0.21875
            },
            {
              "pitch": 67,
              "velocity": 23,
              "position": 9.260416666666666,
              "duration": 0.20833333333333334
            },
            {
              "pitch": 59,
              "velocity": 52,
              "position": 9.260416666666666,
              "duration": 0.21875
            },
            {
              "pitch": 52,
              "velocity": 56,
              "position": 9.760416666666666,
              "duration": 0.19791666666666666
            },
            {
              "pitch": 62,
              "velocity": 74,
              "position": 9.75,
              "duration": 0.20833333333333334
            },
            {
              "pitch": 48,
              "velocity": 54,
              "position": 9.760416666666666,
              "duration": 0.20833333333333334
            },
            {
              "pitch": 59,
              "velocity": 57,
              "position": 9.75,
              "duration": 0.21875
            },
            {
              "pitch": 67,
              "velocity": 54,
              "position": 9.760416666666666,
              "duration": 0.20833333333333334
            },
            {
              "pitch": 52,
              "velocity": 91,
              "position": 10.25,
              "duration": 0.4479166666666667
            },
            {
              "pitch": 59,
              "velocity": 91,
              "position": 10.260416666666666,
              "duration": 0.4479166666666667
            },
            {
              "pitch": 62,
              "velocity": 89,
              "position": 10.25,
              "duration": 0.4583333333333333
            },
            {
              "pitch": 67,
              "velocity": 93,
              "position": 10.260416666666666,
              "duration": 0.4583333333333333
            },
            {
              "pitch": 48,
              "velocity": 67,
              "position": 10.260416666666666,
              "duration": 0.46875
            },
            {
              "pitch": 48,
              "velocity": 57,
              "position": 11.010416666666666,
              "duration": 0.19791666666666666
            },
            {
              "pitch": 52,
              "velocity": 60,
              "position": 11,
              "duration": 0.20833333333333334
            },
            {
              "pitch": 59,
              "velocity": 73,
              "position": 11,
              "duration": 0.20833333333333334
            },
            {
              "pitch": 67,
              "velocity": 63,
              "position": 11,
              "duration": 0.20833333333333334
            },
            {
              "pitch": 62,
              "velocity": 77,
              "position": 11.010416666666666,
              "duration": 0.21875
            },
            {
              "pitch": 52,
              "velocity": 78,
              "position": 11.5,
              "duration": 0.13541666666666666
            },
            {
              "pitch": 62,
              "velocity": 83,
              "position": 11.5,
              "duration": 0.13541666666666666
            },
            {
              "pitch": 67,
              "velocity": 93,
              "position": 11.5,
              "duration": 0.13541666666666666
            },
            {
              "pitch": 48,
              "velocity": 64,
              "position": 11.510416666666666,
              "duration": 0.13541666666666666
            },
            {
              "pitch": 59,
              "velocity": 83,
              "position": 11.510416666666666,
              "duration": 0.14583333333333334
            },
            {
              "pitch": 57,
              "velocity": 53,
              "position": 11.760416666666666,
              "duration": 0.13541666666666666
            },
            {
              "pitch": 46,
              "velocity": 51,
              "position": 12.010416666666666,
              "duration": 0.20833333333333334
            },
            {
              "pitch": 56,
              "velocity": 65,
              "position": 12.010416666666666,
              "duration": 0.20833333333333334
            },
            {
              "pitch": 62,
              "velocity": 61,
              "position": 12.010416666666666,
              "duration": 0.21875
            },
            {
              "pitch": 67,
              "velocity": 73,
              "position": 12.010416666666666,
              "duration": 0.21875
            },
            {
              "pitch": 72,
              "velocity": 54,
              "position": 12.010416666666666,
              "duration": 0.21875
            },
            {
              "pitch": 72,
              "velocity": 87,
              "position": 12.5,
              "duration": 0.21875
            },
            {
              "pitch": 67,
              "velocity": 101,
              "position": 12.5,
              "duration": 0.23958333333333334
            },
            {
              "pitch": 56,
              "velocity": 84,
              "position": 12.510416666666666,
              "duration": 0.23958333333333334
            },
            {
              "pitch": 62,
              "velocity": 90,
              "position": 12.5,
              "duration": 0.25
            },
            {
              "pitch": 46,
              "velocity": 71,
              "position": 12.5,
              "duration": 0.4479166666666667
            },
            {
              "pitch": 56,
              "velocity": 37,
              "position": 12.75,
              "duration": 0.20833333333333334
            },
            {
              "pitch": 72,
              "velocity": 51,
              "position": 12.75,
              "duration": 0.20833333333333334
            },
            {
              "pitch": 62,
              "velocity": 49,
              "position": 12.760416666666666,
              "duration": 0.20833333333333334
            },
            {
              "pitch": 67,
              "velocity": 52,
              "position": 12.75,
              "duration": 0.22916666666666666
            },
            {
              "pitch": 56,
              "velocity": 47,
              "position": 13.25,
              "duration": 0.19791666666666666
            },
            {
              "pitch": 67,
              "velocity": 65,
              "position": 13.25,
              "duration": 0.20833333333333334
            },
            {
              "pitch": 46,
              "velocity": 39,
              "position": 13.25,
              "duration": 0.21875
            },
            {
              "pitch": 62,
              "velocity": 48,
              "position": 13.260416666666666,
              "duration": 0.20833333333333334
            },
            {
              "pitch": 72,
              "velocity": 30,
              "position": 13.260416666666666,
              "duration": 0.21875
            },
            {
              "pitch": 62,
              "velocity": 71,
              "position": 13.75,
              "duration": 0.19791666666666666
            },
            {
              "pitch": 72,
              "velocity": 59,
              "position": 13.75,
              "duration": 0.20833333333333334
            },
            {
              "pitch": 56,
              "velocity": 63,
              "position": 13.760416666666666,
              "duration": 0.20833333333333334
            },
            {
              "pitch": 67,
              "velocity": 79,
              "position": 13.760416666666666,
              "duration": 0.20833333333333334
            },
            {
              "pitch": 46,
              "velocity": 55,
              "position": 13.760416666666666,
              "duration": 0.22916666666666666
            },
            {
              "pitch": 60,
              "velocity": 65,
              "position": 14.25,
              "duration": 0.19791666666666666
            },
            {
              "pitch": 43,
              "velocity": 51,
              "position": 14.25,
              "duration": 0.20833333333333334
            },
            {
              "pitch": 53,
              "velocity": 50,
              "position": 14.25,
              "duration": 0.20833333333333334
            },
            {
              "pitch": 57,
              "velocity": 62,
              "position": 14.25,
              "duration": 0.20833333333333334
            },
            {
              "pitch": 67,
              "velocity": 73,
              "position": 14.25,
              "duration": 0.21875
            },
            {
              "pitch": 43,
              "velocity": 56,
              "position": 14.75,
              "duration": 1.1979166666666667
            },
            {
              "pitch": 60,
              "velocity": 90,
              "position": 14.75,
              "duration": 1.1979166666666667
            },
            {
              "pitch": 53,
              "velocity": 73,
              "position": 14.75,
              "duration": 1.2083333333333333
            },
            {
              "pitch": 67,
              "velocity": 99,
              "position": 14.75,
              "duration": 1.2083333333333333
            },
            {
              "pitch": 57,
              "velocity": 74,
              "position": 14.760416666666666,
              "duration": 1.2083333333333333
            }
          ]
        },
        "12": {
          "ctab": {
            "srcChannel": 12,
            "name": "Pno",
            "accType": "CHORD2",
            "editable": false,
            "mutedNotes": [],
            "mutedChords": [
              "dim7",
              "dim",
              "minMaj7(9)",
              "minMaj7",
              "min7(11)",
              "min7(9)",
              "min(9)",
              "m7b5",
              "min7",
              "min6",
              "min"
            ],
            "autoStart": false,
            "sourceChordNote": 0,
            "sourceChordType": "Maj",
            "ctb2Low": null,
            "ctb2Main": {
              "ntr": "ROOT_TRANSPOSITION",
              "ntt": "BYPASS",
              "bassOn": false,
              "chordRootUpperLimit": 6,
              "noteLowLimit": 54,
              "noteHighLimit": 79,
              "rtr": "PITCH_SHIFT"
            },
            "ctb2High": null
          },
          "notes": [
            {
              "pitch": 67,
              "velocity": 90,
              "position": 4.25,
              "duration": 1.6666666666666667
            },
            {
              "pitch": 68,
              "velocity": 56,
              "position": 4.75,
              "duration": 1.25
            },
            {
              "pitch": 72,
              "velocity": 72,
              "position": 5.25,
              "duration": 0.75
            },
            {
              "pitch": 76,
              "velocity": 90,
              "position": 5.75,
              "duration": 2.25
            },
            {
              "pitch": 79,
              "velocity": 72,
              "position": 6.25,
              "duration": 1.75
            },
            {
              "pitch": 84,
              "velocity": 72,
              "position": 6.75,
              "duration": 1.25
            },
            {
              "pitch": 88,
              "velocity": 90,
              "position": 7.25,
              "duration": 0.75
            },
            {
              "pitch": 86,
              "velocity": 90,
              "position": 8,
              "duration": 0.7604166666666666
            },
            {
              "pitch": 83,
              "velocity": 90,
              "position": 8,
              "duration": 0.7708333333333334
            },
            {
              "pitch": 76,
              "velocity": 90,
              "position": 8,
              "duration": 0.8020833333333334
            },
            {
              "pitch": 79,
              "velocity": 90,
              "position": 8,
              "duration": 0.8125
            },
            {
              "pitch": 76,
              "velocity": 72,
              "position": 9,
              "duration": 0.5729166666666666
            },
            {
              "pitch": 79,
              "velocity": 72,
              "position": 9,
              "duration": 0.6145833333333334
            },
            {
              "pitch": 83,
              "velocity": 72,
              "position": 9,
              "duration": 0.6354166666666666
            },
            {
              "pitch": 71,
              "velocity": 90,
              "position": 9.75,
              "duration": 1.5833333333333333
            },
            {
              "pitch": 76,
              "velocity": 90,
              "position": 9.75,
              "duration": 1.5833333333333333
            },
            {
              "pitch": 79,
              "velocity": 90,
              "position": 9.75,
              "duration": 1.5833333333333333
            },
            {
              "pitch": 67,
              "velocity": 64,
              "position": 11.5,
              "duration": 0.17708333333333334
            },
            {
              "pitch": 71,
              "velocity": 64,
              "position": 11.5,
              "duration": 0.17708333333333334
            },
            {
              "pitch": 76,
              "velocity": 64,
              "position": 11.5,
              "duration": 0.17708333333333334
            },
            {
              "pitch": 62,
              "velocity": 80,
              "position": 12,
              "duration": 2.03125
            },
            {
              "pitch": 67,
              "velocity": 80,
              "position": 12,
              "duration": 2.03125
            },
            {
              "pitch": 72,
              "velocity": 80,
              "position": 12,
              "duration": 2.03125
            },
            {
              "pitch": 56,
              "velocity": 80,
              "position": 12,
              "duration": 2.0520833333333335
            },
            {
              "pitch": 48,
              "velocity": 64,
              "position": 14.25,
              "duration": 0.11458333333333333
            },
            {
              "pitch": 45,
              "velocity": 64,
              "position": 14.25,
              "duration": 0.125
            },
            {
              "pitch": 53,
              "velocity": 64,
              "position": 14.25,
              "duration": 0.16666666666666666
            },
            {
              "pitch": 45,
              "velocity": 80,
              "position": 14.75,
              "duration": 1.2395833333333333
            },
            {
              "pitch": 48,
              "velocity": 80,
              "position": 14.75,
              "duration": 1.2395833333333333
            },
            {
              "pitch": 53,
              "velocity": 80,
              "position": 14.75,
              "duration": 1.2395833333333333
            }
          ]
        },
        "13": {
          "ctab": {
            "srcChannel": 13,
            "name": "Str",
            "accType": "PAD",
            "editable": false,
            "mutedNotes": [],
            "mutedChords": [
              "dim7",
              "dim",
              "minMaj7(9)",
              "minMaj7",
              "min7(11)",
              "min7(9)",
              "min(9)",
              "m7b5",
              "min7",
              "min6",
              "min"
            ],
            "autoStart": false,
            "sourceChordNote": 0,
            "sourceChordType": "Maj",
            "ctb2Low": null,
            "ctb2Main": {
              "ntr": "ROOT_TRANSPOSITION",
              "ntt": "BYPASS",
              "bassOn": false,
              "chordRootUpperLimit": 2,
              "noteLowLimit": 40,
              "noteHighLimit": 127,
              "rtr": "PITCH_SHIFT"
            },
            "ctb2High": null
          },
          "notes": [
            {
              "pitch": 24,
              "velocity": 36,
              "position": 0,
              "duration": 3.9791666666666665
            },
            {
              "pitch": 64,
              "velocity": 36,
              "position": 0,
              "duration": 3.9791666666666665
            },
            {
              "pitch": 71,
              "velocity": 36,
              "position": 0,
              "duration": 3.9791666666666665
            },
            {
              "pitch": 74,
              "velocity": 36,
              "position": 0,
              "duration": 3.9791666666666665
            },
            {
              "pitch": 22,
              "velocity": 36,
              "position": 4,
              "duration": 3.9791666666666665
            },
            {
              "pitch": 62,
              "velocity": 36,
              "position": 4,
              "duration": 3.9791666666666665
            },
            {
              "pitch": 68,
              "velocity": 36,
              "position": 4,
              "duration": 3.9791666666666665
            },
            {
              "pitch": 72,
              "velocity": 36,
              "position": 4,
              "duration": 3.9791666666666665
            },
            {
              "pitch": 24,
              "velocity": 36,
              "position": 8,
              "duration": 3.9791666666666665
            },
            {
              "pitch": 64,
              "velocity": 36,
              "position": 8,
              "duration": 3.9791666666666665
            },
            {
              "pitch": 71,
              "velocity": 36,
              "position": 8,
              "duration": 3.9791666666666665
            },
            {
              "pitch": 74,
              "velocity": 36,
              "position": 8,
              "duration": 3.9791666666666665
            },
            {
              "pitch": 22,
              "velocity": 36,
              "position": 12,
              "duration": 1.9895833333333333
            },
            {
              "pitch": 62,
              "velocity": 36,
              "position": 12,
              "duration": 1.9895833333333333
            },
            {
              "pitch": 68,
              "velocity": 36,
              "position": 12,
              "duration": 1.9895833333333333
            },
            {
              "pitch": 72,
              "velocity": 36,
              "position": 12,
              "duration": 1.9895833333333333
            },
            {
              "pitch": 79,
              "velocity": 36,
              "position": 0,
              "duration": 13.989583333333334
            }
          ]
        },
        "15": {
          "ctab": {
            "srcChannel": 15,
            "name": "NGt 2",
            "accType": "CHORD1",
            "editable": false,
            "mutedNotes": [
              5,
              4,
              3,
              2,
              1,
              0
            ],
            "mutedChords": [
              "dim7",
              "dim",
              "minMaj7(9)",
              "minMaj7",
              "min7(11)",
              "min7(9)",
              "min(9)",
              "m7b5",
              "min7",
              "min6",
              "min"
            ],
            "autoStart": false,
            "sourceChordNote": 0,
            "sourceChordType": "Maj",
            "ctb2Low": null,
            "ctb2Main": {
              "ntr": "ROOT_TRANSPOSITION",
              "ntt": "BYPASS",
              "bassOn": false,
              "chordRootUpperLimit": 11,
              "noteLowLimit": 40,
              "noteHighLimit": 127,
              "rtr": "PITCH_SHIFT"
            },
            "ctb2High": null
          },
          "notes": [
            {
              "pitch": 55,
              "velocity": 69,
              "position": 0,
              "duration": 0.20833333333333334
            },
            {
              "pitch": 62,
              "velocity": 45,
              "position": 0,
              "duration": 0.20833333333333334
            },
            {
              "pitch": 47,
              "velocity": 26,
              "position": 0,
              "duration": 0.21875
            },
            {
              "pitch": 36,
              "velocity": 53,
              "position": 0.010416666666666666,
              "duration": 0.21875
            },
            {
              "pitch": 52,
              "velocity": 65,
              "position": 0.010416666666666666,
              "duration": 0.21875
            },
            {
              "pitch": 55,
              "velocity": 87,
              "position": 0.5,
              "duration": 0.4479166666666667
            },
            {
              "pitch": 47,
              "velocity": 53,
              "position": 0.5104166666666666,
              "duration": 0.4583333333333333
            },
            {
              "pitch": 52,
              "velocity": 90,
              "position": 0.5104166666666666,
              "duration": 0.4583333333333333
            },
            {
              "pitch": 62,
              "velocity": 83,
              "position": 0.5,
              "duration": 0.46875
            },
            {
              "pitch": 36,
              "velocity": 84,
              "position": 0.5,
              "duration": 0.4791666666666667
            },
            {
              "pitch": 36,
              "velocity": 37,
              "position": 1.25,
              "duration": 0.20833333333333334
            },
            {
              "pitch": 47,
              "velocity": 14,
              "position": 1.25,
              "duration": 0.20833333333333334
            },
            {
              "pitch": 52,
              "velocity": 60,
              "position": 1.25,
              "duration": 0.21875
            },
            {
              "pitch": 55,
              "velocity": 58,
              "position": 1.2604166666666667,
              "duration": 0.22916666666666666
            },
            {
              "pitch": 62,
              "velocity": 31,
              "position": 1.2604166666666667,
              "duration": 0.22916666666666666
            },
            {
              "pitch": 47,
              "velocity": 25,
              "position": 1.75,
              "duration": 0.20833333333333334
            },
            {
              "pitch": 36,
              "velocity": 72,
              "position": 1.7604166666666667,
              "duration": 0.20833333333333334
            },
            {
              "pitch": 52,
              "velocity": 69,
              "position": 1.75,
              "duration": 0.21875
            },
            {
              "pitch": 55,
              "velocity": 71,
              "position": 1.7604166666666667,
              "duration": 0.21875
            },
            {
              "pitch": 62,
              "velocity": 47,
              "position": 1.7604166666666667,
              "duration": 0.21875
            },
            {
              "pitch": 36,
              "velocity": 62,
              "position": 2.25,
              "duration": 0.4479166666666667
            },
            {
              "pitch": 47,
              "velocity": 43,
              "position": 2.2604166666666665,
              "duration": 0.4583333333333333
            },
            {
              "pitch": 55,
              "velocity": 99,
              "position": 2.25,
              "duration": 0.46875
            },
            {
              "pitch": 62,
              "velocity": 88,
              "position": 2.2604166666666665,
              "duration": 0.4583333333333333
            },
            {
              "pitch": 52,
              "velocity": 75,
              "position": 2.25,
              "duration": 0.4791666666666667
            },
            {
              "pitch": 47,
              "velocity": 22,
              "position": 3,
              "duration": 0.20833333333333334
            },
            {
              "pitch": 52,
              "velocity": 59,
              "position": 3,
              "duration": 0.20833333333333334
            },
            {
              "pitch": 55,
              "velocity": 78,
              "position": 3,
              "duration": 0.21875
            },
            {
              "pitch": 62,
              "velocity": 55,
              "position": 3,
              "duration": 0.21875
            },
            {
              "pitch": 36,
              "velocity": 57,
              "position": 3.0104166666666665,
              "duration": 0.21875
            },
            {
              "pitch": 36,
              "velocity": 71,
              "position": 3.5,
              "duration": 0.13541666666666666
            },
            {
              "pitch": 47,
              "velocity": 57,
              "position": 3.5,
              "duration": 0.13541666666666666
            },
            {
              "pitch": 62,
              "velocity": 92,
              "position": 3.5,
              "duration": 0.13541666666666666
            },
            {
              "pitch": 52,
              "velocity": 85,
              "position": 3.5104166666666665,
              "duration": 0.13541666666666666
            },
            {
              "pitch": 55,
              "velocity": 98,
              "position": 3.5104166666666665,
              "duration": 0.14583333333333334
            },
            {
              "pitch": 57,
              "velocity": 61,
              "position": 3.75,
              "duration": 0.13541666666666666
            },
            {
              "pitch": 44,
              "velocity": 23,
              "position": 4,
              "duration": 0.20833333333333334
            },
            {
              "pitch": 34,
              "velocity": 57,
              "position": 4,
              "duration": 0.21875
            },
            {
              "pitch": 50,
              "velocity": 58,
              "position": 4,
              "duration": 0.21875
            },
            {
              "pitch": 55,
              "velocity": 73,
              "position": 4,
              "duration": 0.22916666666666666
            },
            {
              "pitch": 60,
              "velocity": 49,
              "position": 4,
              "duration": 0.22916666666666666
            },
            {
              "pitch": 55,
              "velocity": 89,
              "position": 4.5,
              "duration": 0.22916666666666666
            },
            {
              "pitch": 44,
              "velocity": 50,
              "position": 4.510416666666667,
              "duration": 0.23958333333333334
            },
            {
              "pitch": 50,
              "velocity": 82,
              "position": 4.510416666666667,
              "duration": 0.23958333333333334
            },
            {
              "pitch": 60,
              "velocity": 94,
              "position": 4.510416666666667,
              "duration": 0.25
            },
            {
              "pitch": 60,
              "velocity": 51,
              "position": 4.760416666666667,
              "duration": 0.0020833333333333333
            },
            {
              "pitch": 50,
              "velocity": 36,
              "position": 4.760416666666667,
              "duration": 0.010416666666666666
            },
            {
              "pitch": 34,
              "velocity": 63,
              "position": 4.5,
              "duration": 0.46875
            },
            {
              "pitch": 44,
              "velocity": 1,
              "position": 4.75,
              "duration": 0.21875
            },
            {
              "pitch": 55,
              "velocity": 53,
              "position": 4.760416666666667,
              "duration": 0.20833333333333334
            },
            {
              "pitch": 44,
              "velocity": 1,
              "position": 5.25,
              "duration": 0.21875
            },
            {
              "pitch": 55,
              "velocity": 67,
              "position": 5.25,
              "duration": 0.21875
            },
            {
              "pitch": 60,
              "velocity": 42,
              "position": 5.25,
              "duration": 0.21875
            },
            {
              "pitch": 34,
              "velocity": 42,
              "position": 5.260416666666667,
              "duration": 0.21875
            },
            {
              "pitch": 50,
              "velocity": 54,
              "position": 5.260416666666667,
              "duration": 0.21875
            },
            {
              "pitch": 34,
              "velocity": 64,
              "position": 5.75,
              "duration": 0.19791666666666666
            },
            {
              "pitch": 44,
              "velocity": 32,
              "position": 5.75,
              "duration": 0.21875
            },
            {
              "pitch": 50,
              "velocity": 61,
              "position": 5.760416666666667,
              "duration": 0.20833333333333334
            },
            {
              "pitch": 55,
              "velocity": 73,
              "position": 5.75,
              "duration": 0.22916666666666666
            },
            {
              "pitch": 60,
              "velocity": 49,
              "position": 5.75,
              "duration": 0.22916666666666666
            },
            {
              "pitch": 55,
              "velocity": 92,
              "position": 6.260416666666667,
              "duration": 0.4583333333333333
            },
            {
              "pitch": 60,
              "velocity": 86,
              "position": 6.260416666666667,
              "duration": 0.4583333333333333
            },
            {
              "pitch": 34,
              "velocity": 68,
              "position": 6.25,
              "duration": 0.4791666666666667
            },
            {
              "pitch": 44,
              "velocity": 46,
              "position": 6.260416666666667,
              "duration": 0.46875
            },
            {
              "pitch": 50,
              "velocity": 90,
              "position": 6.260416666666667,
              "duration": 0.46875
            },
            {
              "pitch": 55,
              "velocity": 70,
              "position": 7,
              "duration": 0.19791666666666666
            },
            {
              "pitch": 60,
              "velocity": 55,
              "position": 7,
              "duration": 0.19791666666666666
            },
            {
              "pitch": 50,
              "velocity": 69,
              "position": 7,
              "duration": 0.20833333333333334
            },
            {
              "pitch": 44,
              "velocity": 44,
              "position": 7.010416666666667,
              "duration": 0.20833333333333334
            },
            {
              "pitch": 34,
              "velocity": 47,
              "position": 7.010416666666667,
              "duration": 0.21875
            },
            {
              "pitch": 50,
              "velocity": 98,
              "position": 7.5,
              "duration": 0.11458333333333333
            },
            {
              "pitch": 55,
              "velocity": 89,
              "position": 7.510416666666667,
              "duration": 0.125
            },
            {
              "pitch": 60,
              "velocity": 91,
              "position": 7.5,
              "duration": 0.13541666666666666
            },
            {
              "pitch": 44,
              "velocity": 58,
              "position": 7.510416666666667,
              "duration": 0.13541666666666666
            },
            {
              "pitch": 34,
              "velocity": 67,
              "position": 7.510416666666667,
              "duration": 0.14583333333333334
            },
            {
              "pitch": 57,
              "velocity": 47,
              "position": 7.760416666666667,
              "duration": 0.13541666666666666
            },
            {
              "pitch": 36,
              "velocity": 51,
              "position": 8.010416666666666,
              "duration": 0.19791666666666666
            },
            {
              "pitch": 47,
              "velocity": 27,
              "position": 8,
              "duration": 0.21875
            },
            {
              "pitch": 52,
              "velocity": 72,
              "position": 8,
              "duration": 0.21875
            },
            {
              "pitch": 55,
              "velocity": 71,
              "position": 8.010416666666666,
              "duration": 0.21875
            },
            {
              "pitch": 62,
              "velocity": 47,
              "position": 8.010416666666666,
              "duration": 0.21875
            },
            {
              "pitch": 36,
              "velocity": 75,
              "position": 8.510416666666666,
              "duration": 0.4479166666666667
            },
            {
              "pitch": 62,
              "velocity": 91,
              "position": 8.5,
              "duration": 0.4583333333333333
            },
            {
              "pitch": 47,
              "velocity": 46,
              "position": 8.510416666666666,
              "duration": 0.4583333333333333
            },
            {
              "pitch": 52,
              "velocity": 85,
              "position": 8.510416666666666,
              "duration": 0.4583333333333333
            },
            {
              "pitch": 55,
              "velocity": 83,
              "position": 8.510416666666666,
              "duration": 0.4583333333333333
            },
            {
              "pitch": 55,
              "velocity": 60,
              "position": 9.25,
              "duration": 0.19791666666666666
            },
            {
              "pitch": 62,
              "velocity": 34,
              "position": 9.25,
              "duration": 0.19791666666666666
            },
            {
              "pitch": 36,
              "velocity": 30,
              "position": 9.25,
              "duration": 0.20833333333333334
            },
            {
              "pitch": 47,
              "velocity": 5,
              "position": 9.260416666666666,
              "duration": 0.19791666666666666
            },
            {
              "pitch": 52,
              "velocity": 43,
              "position": 9.260416666666666,
              "duration": 0.20833333333333334
            },
            {
              "pitch": 36,
              "velocity": 58,
              "position": 9.760416666666666,
              "duration": 0.19791666666666666
            },
            {
              "pitch": 47,
              "velocity": 24,
              "position": 9.75,
              "duration": 0.20833333333333334
            },
            {
              "pitch": 55,
              "velocity": 74,
              "position": 9.760416666666666,
              "duration": 0.20833333333333334
            },
            {
              "pitch": 62,
              "velocity": 51,
              "position": 9.760416666666666,
              "duration": 0.20833333333333334
            },
            {
              "pitch": 52,
              "velocity": 66,
              "position": 9.760416666666666,
              "duration": 0.21875
            },
            {
              "pitch": 47,
              "velocity": 58,
              "position": 10.25,
              "duration": 0.4479166666666667
            },
            {
              "pitch": 55,
              "velocity": 98,
              "position": 10.25,
              "duration": 0.4583333333333333
            },
            {
              "pitch": 62,
              "velocity": 81,
              "position": 10.260416666666666,
              "duration": 0.4479166666666667
            },
            {
              "pitch": 52,
              "velocity": 91,
              "position": 10.260416666666666,
              "duration": 0.4583333333333333
            },
            {
              "pitch": 36,
              "velocity": 79,
              "position": 10.25,
              "duration": 0.4791666666666667
            },
            {
              "pitch": 36,
              "velocity": 60,
              "position": 11,
              "duration": 0.20833333333333334
            },
            {
              "pitch": 52,
              "velocity": 73,
              "position": 11,
              "duration": 0.20833333333333334
            },
            {
              "pitch": 55,
              "velocity": 73,
              "position": 11,
              "duration": 0.20833333333333334
            },
            {
              "pitch": 62,
              "velocity": 50,
              "position": 11,
              "duration": 0.20833333333333334
            },
            {
              "pitch": 47,
              "velocity": 18,
              "position": 11.010416666666666,
              "duration": 0.21875
            },
            {
              "pitch": 47,
              "velocity": 42,
              "position": 11.510416666666666,
              "duration": 0.125
            },
            {
              "pitch": 36,
              "velocity": 72,
              "position": 11.510416666666666,
              "duration": 0.13541666666666666
            },
            {
              "pitch": 52,
              "velocity": 78,
              "position": 11.510416666666666,
              "duration": 0.13541666666666666
            },
            {
              "pitch": 55,
              "velocity": 84,
              "position": 11.510416666666666,
              "duration": 0.14583333333333334
            },
            {
              "pitch": 62,
              "velocity": 99,
              "position": 11.510416666666666,
              "duration": 0.14583333333333334
            },
            {
              "pitch": 57,
              "velocity": 47,
              "position": 11.760416666666666,
              "duration": 0.13541666666666666
            },
            {
              "pitch": 55,
              "velocity": 76,
              "position": 12,
              "duration": 0.19791666666666666
            },
            {
              "pitch": 60,
              "velocity": 52,
              "position": 12,
              "duration": 0.19791666666666666
            },
            {
              "pitch": 34,
              "velocity": 55,
              "position": 12,
              "duration": 0.20833333333333334
            },
            {
              "pitch": 44,
              "velocity": 45,
              "position": 12.010416666666666,
              "duration": 0.20833333333333334
            },
            {
              "pitch": 50,
              "velocity": 73,
              "position": 12,
              "duration": 0.21875
            },
            {
              "pitch": 60,
              "velocity": 83,
              "position": 12.5,
              "duration": 0.22916666666666666
            },
            {
              "pitch": 50,
              "velocity": 94,
              "position": 12.510416666666666,
              "duration": 0.22916666666666666
            },
            {
              "pitch": 44,
              "velocity": 50,
              "position": 12.5,
              "duration": 0.25
            },
            {
              "pitch": 44,
              "velocity": 12,
              "position": 12.75,
              "duration": 0.0020833333333333333
            },
            {
              "pitch": 50,
              "velocity": 36,
              "position": 12.75,
              "duration": 0.010416666666666666
            },
            {
              "pitch": 55,
              "velocity": 102,
              "position": 12.5,
              "duration": 0.2604166666666667
            },
            {
              "pitch": 55,
              "velocity": 54,
              "position": 12.760416666666666,
              "duration": 0.0020833333333333333
            },
            {
              "pitch": 60,
              "velocity": 63,
              "position": 12.75,
              "duration": 0.1875
            },
            {
              "pitch": 34,
              "velocity": 68,
              "position": 12.5,
              "duration": 0.4479166666666667
            },
            {
              "pitch": 55,
              "velocity": 62,
              "position": 13.25,
              "duration": 0.20833333333333334
            },
            {
              "pitch": 60,
              "velocity": 36,
              "position": 13.25,
              "duration": 0.20833333333333334
            },
            {
              "pitch": 44,
              "velocity": 17,
              "position": 13.260416666666666,
              "duration": 0.20833333333333334
            },
            {
              "pitch": 34,
              "velocity": 32,
              "position": 13.260416666666666,
              "duration": 0.21875
            },
            {
              "pitch": 50,
              "velocity": 49,
              "position": 13.260416666666666,
              "duration": 0.21875
            },
            {
              "pitch": 50,
              "velocity": 74,
              "position": 13.75,
              "duration": 0.19791666666666666
            },
            {
              "pitch": 44,
              "velocity": 31,
              "position": 13.75,
              "duration": 0.20833333333333334
            },
            {
              "pitch": 55,
              "velocity": 76,
              "position": 13.75,
              "duration": 0.20833333333333334
            },
            {
              "pitch": 60,
              "velocity": 52,
              "position": 13.75,
              "duration": 0.20833333333333334
            },
            {
              "pitch": 34,
              "velocity": 59,
              "position": 13.760416666666666,
              "duration": 0.20833333333333334
            },
            {
              "pitch": 53,
              "velocity": 59,
              "position": 14.25,
              "duration": 0.19791666666666666
            },
            {
              "pitch": 43,
              "velocity": 41,
              "position": 14.25,
              "duration": 0.20833333333333334
            },
            {
              "pitch": 57,
              "velocity": 73,
              "position": 14.25,
              "duration": 0.20833333333333334
            },
            {
              "pitch": 60,
              "velocity": 53,
              "position": 14.25,
              "duration": 0.21875
            },
            {
              "pitch": 43,
              "velocity": 66,
              "position": 14.75,
              "duration": 1.1875
            },
            {
              "pitch": 57,
              "velocity": 88,
              "position": 14.75,
              "duration": 1.2083333333333333
            },
            {
              "pitch": 60,
              "velocity": 90,
              "position": 14.75,
              "duration": 1.2083333333333333
            },
            {
              "pitch": 53,
              "velocity": 64,
              "position": 14.760416666666666,
              "duration": 1.2083333333333333
            }
          ]
        }
      }
    },
    "Intro_C": {
      "type": "Intro_C",
      "sizeInBeats": 16,
      "channels": {
        "1": {
          "ctab": {
            "srcChannel": 1,
            "name": "Bass",
            "accType": "BASS",
            "editable": false,
            "mutedNotes": [],
            "mutedChords": [
              "1+2+5",
              "sus4",
              "1+5",
              "1+8",
              "7aug",
              "Maj7aug",
              "7(#9)",
              "7(b13)",
              "7(b9)",
              "7(13)",
              "7#11",
              "7(9)",
              "7b5",
              "7sus4",
              "7th",
              "aug",
              "Maj6(9)",
              "Maj7(9)",
              "Maj(9)",
              "Maj7#11",
              "Maj7",
              "Maj6",
              "Maj"
            ],
            "autoStart": false,
            "sourceChordNote": 0,
            "sourceChordType": "Maj",
            "ctb2Low": null,
            "ctb2Main": {
              "ntr": "ROOT_TRANSPOSITION",
              "ntt": "BYPASS",
              "bassOn": false,
              "chordRootUpperLimit": 8,
              "noteLowLimit": 28,
              "noteHighLimit": 127,
              "rtr": "PITCH_SHIFT"
            },
            "ctb2High": null
          },
          "notes": [
            {
              "pitch": 24,
              "velocity": 98,
              "position": 0,
              "duration": 0.2604166666666667
            },
            {
              "pitch": 24,
              "velocity": 80,
              "position": 0.75,
              "duration": 0.09375
            },
            {
              "pitch": 31,
              "velocity": 98,
              "position": 1,
              "duration": 0.9895833333333334
            },
            {
              "pitch": 24,
              "velocity": 98,
              "position": 2,
              "duration": 0.2604166666666667
            },
            {
              "pitch": 24,
              "velocity": 80,
              "position": 2.75,
              "duration": 0.09375
            },
            {
              "pitch": 31,
              "velocity": 98,
              "position": 3,
              "duration": 0.9895833333333334
            },
            {
              "pitch": 32,
              "velocity": 98,
              "position": 4,
              "duration": 0.2604166666666667
            },
            {
              "pitch": 32,
              "velocity": 80,
              "position": 4.75,
              "duration": 0.09375
            },
            {
              "pitch": 27,
              "velocity": 98,
              "position": 5,
              "duration": 0.9895833333333334
            },
            {
              "pitch": 32,
              "velocity": 98,
              "position": 6,
              "duration": 0.2604166666666667
            },
            {
              "pitch": 32,
              "velocity": 80,
              "position": 6.75,
              "duration": 0.09375
            },
            {
              "pitch": 27,
              "velocity": 98,
              "position": 7,
              "duration": 0.4895833333333333
            },
            {
              "pitch": 27,
              "velocity": 98,
              "position": 7.5,
              "duration": 0.4895833333333333
            },
            {
              "pitch": 26,
              "velocity": 98,
              "position": 8,
              "duration": 0.2604166666666667
            },
            {
              "pitch": 26,
              "velocity": 80,
              "position": 8.75,
              "duration": 0.09375
            },
            {
              "pitch": 32,
              "velocity": 98,
              "position": 9,
              "duration": 0.9895833333333334
            },
            {
              "pitch": 31,
              "velocity": 98,
              "position": 10,
              "duration": 0.2604166666666667
            },
            {
              "pitch": 31,
              "velocity": 80,
              "position": 10.75,
              "duration": 0.09375
            },
            {
              "pitch": 26,
              "velocity": 98,
              "position": 11,
              "duration": 0.4895833333333333
            },
            {
              "pitch": 31,
              "velocity": 98,
              "position": 11.5,
              "duration": 0.21875
            },
            {
              "pitch": 26,
              "velocity": 80,
              "position": 11.75,
              "duration": 0.2604166666666667
            },
            {
              "pitch": 24,
              "velocity": 98,
              "position": 12,
              "duration": 0.2604166666666667
            },
            {
              "pitch": 24,
              "velocity": 80,
              "position": 12.75,
              "duration": 0.09375
            },
            {
              "pitch": 24,
              "velocity": 98,
              "position": 13,
              "duration": 0.9895833333333334
            },
            {
              "pitch": 31,
              "velocity": 98,
              "position": 14,
              "duration": 0.2604166666666667
            },
            {
              "pitch": 31,
              "velocity": 98,
              "position": 14.75,
              "duration": 1.2395833333333333
            }
          ]
        },
        "2": {
          "ctab": {
            "srcChannel": 2,
            "name": "NGt 1",
            "accType": "CHORD1",
            "editable": false,
            "mutedNotes": [],
            "mutedChords": [
              "1+2+5",
              "sus4",
              "1+5",
              "1+8",
              "7aug",
              "Maj7aug",
              "7(#9)",
              "7(b13)",
              "7(b9)",
              "7(13)",
              "7#11",
              "7(9)",
              "7b5",
              "7sus4",
              "7th",
              "aug",
              "Maj6(9)",
              "Maj7(9)",
              "Maj(9)",
              "Maj7#11",
              "Maj7",
              "Maj6",
              "Maj"
            ],
            "autoStart": false,
            "sourceChordNote": 0,
            "sourceChordType": "Maj",
            "ctb2Low": null,
            "ctb2Main": {
              "ntr": "ROOT_TRANSPOSITION",
              "ntt": "BYPASS",
              "bassOn": false,
              "chordRootUpperLimit": 11,
              "noteLowLimit": 54,
              "noteHighLimit": 65,
              "rtr": "PITCH_SHIFT"
            },
            "ctb2High": null
          },
          "notes": [
            {
              "pitch": 58,
              "velocity": 97,
              "position": 0.25,
              "duration": 0.59375
            },
            {
              "pitch": 63,
              "velocity": 97,
              "position": 0.25,
              "duration": 0.59375
            },
            {
              "pitch": 55,
              "velocity": 86,
              "position": 0.25,
              "duration": 0.6041666666666666
            },
            {
              "pitch": 55,
              "velocity": 88,
              "position": 1,
              "duration": 0.09375
            },
            {
              "pitch": 58,
              "velocity": 93,
              "position": 1,
              "duration": 0.10416666666666667
            },
            {
              "pitch": 63,
              "velocity": 87,
              "position": 1,
              "duration": 0.10416666666666667
            },
            {
              "pitch": 55,
              "velocity": 80,
              "position": 1.5,
              "duration": 0.10416666666666667
            },
            {
              "pitch": 58,
              "velocity": 69,
              "position": 1.5,
              "duration": 0.10416666666666667
            },
            {
              "pitch": 63,
              "velocity": 82,
              "position": 1.5,
              "duration": 0.11458333333333333
            },
            {
              "pitch": 55,
              "velocity": 73,
              "position": 2,
              "duration": 0.10416666666666667
            },
            {
              "pitch": 58,
              "velocity": 79,
              "position": 2,
              "duration": 0.10416666666666667
            },
            {
              "pitch": 63,
              "velocity": 79,
              "position": 2,
              "duration": 0.10416666666666667
            },
            {
              "pitch": 63,
              "velocity": 89,
              "position": 2.5,
              "duration": 0.59375
            },
            {
              "pitch": 55,
              "velocity": 96,
              "position": 2.5,
              "duration": 0.6041666666666666
            },
            {
              "pitch": 58,
              "velocity": 90,
              "position": 2.5,
              "duration": 0.6041666666666666
            },
            {
              "pitch": 55,
              "velocity": 60,
              "position": 3.25,
              "duration": 0.09375
            },
            {
              "pitch": 63,
              "velocity": 65,
              "position": 3.25,
              "duration": 0.09375
            },
            {
              "pitch": 58,
              "velocity": 54,
              "position": 3.25,
              "duration": 0.10416666666666667
            },
            {
              "pitch": 60,
              "velocity": 75,
              "position": 3.75,
              "duration": 0.09375
            },
            {
              "pitch": 55,
              "velocity": 78,
              "position": 3.75,
              "duration": 0.10416666666666667
            },
            {
              "pitch": 63,
              "velocity": 82,
              "position": 3.75,
              "duration": 0.10416666666666667
            },
            {
              "pitch": 55,
              "velocity": 91,
              "position": 4.25,
              "duration": 0.6041666666666666
            },
            {
              "pitch": 60,
              "velocity": 94,
              "position": 4.25,
              "duration": 0.6041666666666666
            },
            {
              "pitch": 63,
              "velocity": 92,
              "position": 4.25,
              "duration": 0.6041666666666666
            },
            {
              "pitch": 55,
              "velocity": 88,
              "position": 5,
              "duration": 0.09375
            },
            {
              "pitch": 63,
              "velocity": 101,
              "position": 5,
              "duration": 0.09375
            },
            {
              "pitch": 60,
              "velocity": 87,
              "position": 5,
              "duration": 0.10416666666666667
            },
            {
              "pitch": 55,
              "velocity": 71,
              "position": 5.5,
              "duration": 0.10416666666666667
            },
            {
              "pitch": 60,
              "velocity": 74,
              "position": 5.5,
              "duration": 0.10416666666666667
            },
            {
              "pitch": 63,
              "velocity": 71,
              "position": 5.5,
              "duration": 0.10416666666666667
            },
            {
              "pitch": 60,
              "velocity": 80,
              "position": 6,
              "duration": 0.09375
            },
            {
              "pitch": 55,
              "velocity": 81,
              "position": 6,
              "duration": 0.10416666666666667
            },
            {
              "pitch": 63,
              "velocity": 77,
              "position": 6,
              "duration": 0.11458333333333333
            },
            {
              "pitch": 60,
              "velocity": 87,
              "position": 6.5,
              "duration": 0.59375
            },
            {
              "pitch": 55,
              "velocity": 94,
              "position": 6.5,
              "duration": 0.6041666666666666
            },
            {
              "pitch": 63,
              "velocity": 87,
              "position": 6.5,
              "duration": 0.6041666666666666
            },
            {
              "pitch": 55,
              "velocity": 64,
              "position": 7.25,
              "duration": 0.10416666666666667
            },
            {
              "pitch": 63,
              "velocity": 66,
              "position": 7.25,
              "duration": 0.10416666666666667
            },
            {
              "pitch": 60,
              "velocity": 53,
              "position": 7.25,
              "duration": 0.11458333333333333
            },
            {
              "pitch": 56,
              "velocity": 72,
              "position": 7.75,
              "duration": 0.09375
            },
            {
              "pitch": 65,
              "velocity": 84,
              "position": 7.75,
              "duration": 0.09375
            },
            {
              "pitch": 60,
              "velocity": 83,
              "position": 7.75,
              "duration": 0.10416666666666667
            },
            {
              "pitch": 56,
              "velocity": 88,
              "position": 8.25,
              "duration": 0.59375
            },
            {
              "pitch": 65,
              "velocity": 102,
              "position": 8.25,
              "duration": 0.59375
            },
            {
              "pitch": 60,
              "velocity": 88,
              "position": 8.25,
              "duration": 0.6041666666666666
            },
            {
              "pitch": 56,
              "velocity": 89,
              "position": 9,
              "duration": 0.10416666666666667
            },
            {
              "pitch": 60,
              "velocity": 99,
              "position": 9,
              "duration": 0.10416666666666667
            },
            {
              "pitch": 65,
              "velocity": 99,
              "position": 9,
              "duration": 0.10416666666666667
            },
            {
              "pitch": 56,
              "velocity": 70,
              "position": 9.5,
              "duration": 0.09375
            },
            {
              "pitch": 60,
              "velocity": 78,
              "position": 9.5,
              "duration": 0.09375
            },
            {
              "pitch": 65,
              "velocity": 69,
              "position": 9.5,
              "duration": 0.10416666666666667
            },
            {
              "pitch": 59,
              "velocity": 73,
              "position": 10,
              "duration": 0.10416666666666667
            },
            {
              "pitch": 63,
              "velocity": 71,
              "position": 10,
              "duration": 0.10416666666666667
            },
            {
              "pitch": 65,
              "velocity": 75,
              "position": 10,
              "duration": 0.11458333333333333
            },
            {
              "pitch": 59,
              "velocity": 97,
              "position": 10.5,
              "duration": 0.59375
            },
            {
              "pitch": 63,
              "velocity": 94,
              "position": 10.5,
              "duration": 0.59375
            },
            {
              "pitch": 65,
              "velocity": 88,
              "position": 10.5,
              "duration": 0.6041666666666666
            },
            {
              "pitch": 59,
              "velocity": 59,
              "position": 11.25,
              "duration": 0.10416666666666667
            },
            {
              "pitch": 63,
              "velocity": 65,
              "position": 11.25,
              "duration": 0.10416666666666667
            },
            {
              "pitch": 65,
              "velocity": 61,
              "position": 11.25,
              "duration": 0.10416666666666667
            },
            {
              "pitch": 58,
              "velocity": 71,
              "position": 11.75,
              "duration": 0.09375
            },
            {
              "pitch": 55,
              "velocity": 76,
              "position": 11.75,
              "duration": 0.10416666666666667
            },
            {
              "pitch": 63,
              "velocity": 79,
              "position": 11.75,
              "duration": 0.10416666666666667
            },
            {
              "pitch": 55,
              "velocity": 92,
              "position": 12.25,
              "duration": 0.59375
            },
            {
              "pitch": 58,
              "velocity": 87,
              "position": 12.25,
              "duration": 0.59375
            },
            {
              "pitch": 63,
              "velocity": 91,
              "position": 12.25,
              "duration": 0.6041666666666666
            },
            {
              "pitch": 55,
              "velocity": 94,
              "position": 13,
              "duration": 0.09375
            },
            {
              "pitch": 58,
              "velocity": 102,
              "position": 13,
              "duration": 0.10416666666666667
            },
            {
              "pitch": 63,
              "velocity": 102,
              "position": 13,
              "duration": 0.10416666666666667
            },
            {
              "pitch": 55,
              "velocity": 71,
              "position": 13.5,
              "duration": 0.10416666666666667
            },
            {
              "pitch": 58,
              "velocity": 69,
              "position": 13.5,
              "duration": 0.10416666666666667
            },
            {
              "pitch": 63,
              "velocity": 75,
              "position": 13.5,
              "duration": 0.10416666666666667
            },
            {
              "pitch": 59,
              "velocity": 73,
              "position": 14,
              "duration": 0.09375
            },
            {
              "pitch": 63,
              "velocity": 75,
              "position": 14,
              "duration": 0.10416666666666667
            },
            {
              "pitch": 55,
              "velocity": 77,
              "position": 14,
              "duration": 0.11458333333333333
            },
            {
              "pitch": 55,
              "velocity": 89,
              "position": 14.75,
              "duration": 1.2395833333333333
            },
            {
              "pitch": 59,
              "velocity": 87,
              "position": 14.75,
              "duration": 1.2395833333333333
            },
            {
              "pitch": 63,
              "velocity": 99,
              "position": 14.75,
              "duration": 1.2395833333333333
            }
          ]
        },
        "3": {
          "ctab": {
            "srcChannel": 3,
            "name": "Pno",
            "accType": "CHORD2",
            "editable": false,
            "mutedNotes": [],
            "mutedChords": [
              "1+2+5",
              "sus4",
              "1+5",
              "1+8",
              "7aug",
              "Maj7aug",
              "7(#9)",
              "7(b13)",
              "7(b9)",
              "7(13)",
              "7#11",
              "7(9)",
              "7b5",
              "7sus4",
              "7th",
              "aug",
              "Maj6(9)",
              "Maj7(9)",
              "Maj(9)",
              "Maj7#11",
              "Maj7",
              "Maj6",
              "Maj"
            ],
            "autoStart": false,
            "sourceChordNote": 0,
            "sourceChordType": "Maj",
            "ctb2Low": null,
            "ctb2Main": {
              "ntr": "ROOT_TRANSPOSITION",
              "ntt": "BYPASS",
              "bassOn": false,
              "chordRootUpperLimit": 2,
              "noteLowLimit": 54,
              "noteHighLimit": 79,
              "rtr": "PITCH_SHIFT"
            },
            "ctb2High": null
          },
          "notes": [
            {
              "pitch": 91,
              "velocity": 94,
              "position": 0,
              "duration": 2.4479166666666665
            },
            {
              "pitch": 34,
              "velocity": 76,
              "position": 0,
              "duration": 2.78125
            },
            {
              "pitch": 38,
              "velocity": 76,
              "position": 0,
              "duration": 2.78125
            },
            {
              "pitch": 39,
              "velocity": 76,
              "position": 0,
              "duration": 2.78125
            },
            {
              "pitch": 43,
              "velocity": 76,
              "position": 0,
              "duration": 2.78125
            },
            {
              "pitch": 89,
              "velocity": 94,
              "position": 2.75,
              "duration": 0.23958333333333334
            },
            {
              "pitch": 34,
              "velocity": 60,
              "position": 3.25,
              "duration": 0.15625
            },
            {
              "pitch": 39,
              "velocity": 60,
              "position": 3.25,
              "duration": 0.15625
            },
            {
              "pitch": 43,
              "velocity": 60,
              "position": 3.25,
              "duration": 0.15625
            },
            {
              "pitch": 38,
              "velocity": 60,
              "position": 3.25,
              "duration": 0.16666666666666666
            },
            {
              "pitch": 86,
              "velocity": 76,
              "position": 3.25,
              "duration": 0.23958333333333334
            },
            {
              "pitch": 87,
              "velocity": 94,
              "position": 3.75,
              "duration": 2.7395833333333335
            },
            {
              "pitch": 36,
              "velocity": 76,
              "position": 3.75,
              "duration": 3.0104166666666665
            },
            {
              "pitch": 43,
              "velocity": 76,
              "position": 3.75,
              "duration": 3.0104166666666665
            },
            {
              "pitch": 34,
              "velocity": 76,
              "position": 3.75,
              "duration": 3.0729166666666665
            },
            {
              "pitch": 39,
              "velocity": 76,
              "position": 3.75,
              "duration": 3.0729166666666665
            },
            {
              "pitch": 86,
              "velocity": 94,
              "position": 6.75,
              "duration": 0.23958333333333334
            },
            {
              "pitch": 43,
              "velocity": 60,
              "position": 7.25,
              "duration": 0.14583333333333334
            },
            {
              "pitch": 34,
              "velocity": 60,
              "position": 7.25,
              "duration": 0.15625
            },
            {
              "pitch": 39,
              "velocity": 60,
              "position": 7.25,
              "duration": 0.15625
            },
            {
              "pitch": 36,
              "velocity": 60,
              "position": 7.25,
              "duration": 0.16666666666666666
            },
            {
              "pitch": 82,
              "velocity": 76,
              "position": 7.25,
              "duration": 0.23958333333333334
            },
            {
              "pitch": 84,
              "velocity": 94,
              "position": 7.75,
              "duration": 1.4895833333333333
            },
            {
              "pitch": 36,
              "velocity": 76,
              "position": 7.75,
              "duration": 1.9895833333333333
            },
            {
              "pitch": 38,
              "velocity": 76,
              "position": 7.75,
              "duration": 1.9895833333333333
            },
            {
              "pitch": 41,
              "velocity": 76,
              "position": 7.75,
              "duration": 1.9895833333333333
            },
            {
              "pitch": 44,
              "velocity": 76,
              "position": 7.75,
              "duration": 1.9895833333333333
            },
            {
              "pitch": 79,
              "velocity": 76,
              "position": 9.5,
              "duration": 0.23958333333333334
            },
            {
              "pitch": 35,
              "velocity": 76,
              "position": 10,
              "duration": 0.5729166666666666
            },
            {
              "pitch": 44,
              "velocity": 76,
              "position": 10,
              "duration": 0.5729166666666666
            },
            {
              "pitch": 39,
              "velocity": 76,
              "position": 10,
              "duration": 0.6041666666666666
            },
            {
              "pitch": 41,
              "velocity": 76,
              "position": 10,
              "duration": 0.6041666666666666
            },
            {
              "pitch": 80,
              "velocity": 94,
              "position": 10,
              "duration": 0.7395833333333334
            },
            {
              "pitch": 44,
              "velocity": 60,
              "position": 11,
              "duration": 0.5104166666666666
            },
            {
              "pitch": 35,
              "velocity": 60,
              "position": 11,
              "duration": 0.53125
            },
            {
              "pitch": 39,
              "velocity": 60,
              "position": 11,
              "duration": 0.6041666666666666
            },
            {
              "pitch": 41,
              "velocity": 60,
              "position": 11,
              "duration": 0.6041666666666666
            },
            {
              "pitch": 82,
              "velocity": 94,
              "position": 11,
              "duration": 0.7395833333333334
            },
            {
              "pitch": 38,
              "velocity": 76,
              "position": 11.75,
              "duration": 2
            },
            {
              "pitch": 39,
              "velocity": 76,
              "position": 11.75,
              "duration": 2
            },
            {
              "pitch": 43,
              "velocity": 76,
              "position": 11.75,
              "duration": 2.0729166666666665
            },
            {
              "pitch": 34,
              "velocity": 76,
              "position": 11.75,
              "duration": 2.0833333333333335
            },
            {
              "pitch": 79,
              "velocity": 94,
              "position": 11.75,
              "duration": 2.2708333333333335
            },
            {
              "pitch": 35,
              "velocity": 71,
              "position": 14,
              "duration": 0.19791666666666666
            },
            {
              "pitch": 39,
              "velocity": 71,
              "position": 14,
              "duration": 0.19791666666666666
            },
            {
              "pitch": 41,
              "velocity": 71,
              "position": 14,
              "duration": 0.19791666666666666
            },
            {
              "pitch": 44,
              "velocity": 71,
              "position": 14,
              "duration": 0.19791666666666666
            },
            {
              "pitch": 35,
              "velocity": 71,
              "position": 14.75,
              "duration": 1.2395833333333333
            },
            {
              "pitch": 39,
              "velocity": 71,
              "position": 14.75,
              "duration": 1.2395833333333333
            },
            {
              "pitch": 41,
              "velocity": 71,
              "position": 14.75,
              "duration": 1.2395833333333333
            },
            {
              "pitch": 44,
              "velocity": 71,
              "position": 14.75,
              "duration": 1.2395833333333333
            }
          ]
        },
        "4": {
          "ctab": {
            "srcChannel": 4,
            "name": "Str",
            "accType": "PAD",
            "editable": false,
            "mutedNotes": [],
            "mutedChords": [
              "1+2+5",
              "sus4",
              "1+5",
              "1+8",
              "7aug",
              "Maj7aug",
              "7(#9)",
              "7(b13)",
              "7(b9)",
              "7(13)",
              "7#11",
              "7(9)",
              "7b5",
              "7sus4",
              "7th",
              "aug",
              "Maj6(9)",
              "Maj7(9)",
              "Maj(9)",
              "Maj7#11",
              "Maj7",
              "Maj6",
              "Maj"
            ],
            "autoStart": false,
            "sourceChordNote": 0,
            "sourceChordType": "Maj",
            "ctb2Low": null,
            "ctb2Main": {
              "ntr": "ROOT_TRANSPOSITION",
              "ntt": "BYPASS",
              "bassOn": false,
              "chordRootUpperLimit": 5,
              "noteLowLimit": 0,
              "noteHighLimit": 127,
              "rtr": "PITCH_SHIFT"
            },
            "ctb2High": null
          },
          "notes": [
            {
              "pitch": 58,
              "velocity": 46,
              "position": 0.010416666666666666,
              "duration": 3.7291666666666665
            },
            {
              "pitch": 63,
              "velocity": 46,
              "position": 0.010416666666666666,
              "duration": 3.7291666666666665
            },
            {
              "pitch": 74,
              "velocity": 46,
              "position": 0.010416666666666666,
              "duration": 3.7291666666666665
            },
            {
              "pitch": 67,
              "velocity": 46,
              "position": 0.010416666666666666,
              "duration": 7.729166666666667
            },
            {
              "pitch": 70,
              "velocity": 46,
              "position": 3.75,
              "duration": 3.9895833333333335
            },
            {
              "pitch": 75,
              "velocity": 46,
              "position": 3.75,
              "duration": 3.9895833333333335
            },
            {
              "pitch": 60,
              "velocity": 46,
              "position": 3.75,
              "duration": 5.989583333333333
            },
            {
              "pitch": 74,
              "velocity": 46,
              "position": 7.75,
              "duration": 1.9895833333333333
            },
            {
              "pitch": 59,
              "velocity": 46,
              "position": 9.75,
              "duration": 1.9895833333333333
            },
            {
              "pitch": 65,
              "velocity": 46,
              "position": 7.75,
              "duration": 3.9895833333333335
            },
            {
              "pitch": 68,
              "velocity": 46,
              "position": 7.75,
              "duration": 3.9895833333333335
            },
            {
              "pitch": 75,
              "velocity": 46,
              "position": 9.75,
              "duration": 1.9895833333333333
            },
            {
              "pitch": 58,
              "velocity": 46,
              "position": 11.75,
              "duration": 2.2395833333333335
            },
            {
              "pitch": 63,
              "velocity": 46,
              "position": 11.75,
              "duration": 2.2395833333333335
            },
            {
              "pitch": 67,
              "velocity": 46,
              "position": 11.75,
              "duration": 2.2395833333333335
            },
            {
              "pitch": 74,
              "velocity": 46,
              "position": 11.75,
              "duration": 2.2395833333333335
            },
            {
              "pitch": 59,
              "velocity": 46,
              "position": 14,
              "duration": 1.4895833333333333
            },
            {
              "pitch": 65,
              "velocity": 46,
              "position": 14,
              "duration": 1.4895833333333333
            },
            {
              "pitch": 68,
              "velocity": 46,
              "position": 14,
              "duration": 1.4895833333333333
            },
            {
              "pitch": 75,
              "velocity": 46,
              "position": 14,
              "duration": 1.4895833333333333
            }
          ]
        },
        "5": {
          "ctab": {
            "srcChannel": 5,
            "name": "Vox",
            "accType": "PHRASE1",
            "editable": false,
            "mutedNotes": [],
            "mutedChords": [
              "1+2+5",
              "sus4",
              "1+5",
              "1+8",
              "7aug",
              "Maj7aug",
              "7(#9)",
              "7(b13)",
              "7(b9)",
              "7(13)",
              "7#11",
              "7(9)",
              "7b5",
              "7sus4",
              "7th",
              "aug",
              "Maj6(9)",
              "Maj7(9)",
              "Maj(9)",
              "Maj7#11",
              "Maj7",
              "Maj6",
              "Maj"
            ],
            "autoStart": false,
            "sourceChordNote": 0,
            "sourceChordType": "Maj",
            "ctb2Low": null,
            "ctb2Main": {
              "ntr": "ROOT_TRANSPOSITION",
              "ntt": "BYPASS",
              "bassOn": false,
              "chordRootUpperLimit": 2,
              "noteLowLimit": 0,
              "noteHighLimit": 127,
              "rtr": "PITCH_SHIFT"
            },
            "ctb2High": null
          },
          "notes": [
            {
              "pitch": 79,
              "velocity": 100,
              "position": 0,
              "duration": 2.4479166666666665
            },
            {
              "pitch": 77,
              "velocity": 100,
              "position": 2.75,
              "duration": 0.23958333333333334
            },
            {
              "pitch": 74,
              "velocity": 80,
              "position": 3.25,
              "duration": 0.23958333333333334
            },
            {
              "pitch": 75,
              "velocity": 100,
              "position": 3.75,
              "duration": 2.7395833333333335
            },
            {
              "pitch": 74,
              "velocity": 100,
              "position": 6.75,
              "duration": 0.23958333333333334
            },
            {
              "pitch": 70,
              "velocity": 80,
              "position": 7.25,
              "duration": 0.23958333333333334
            },
            {
              "pitch": 72,
              "velocity": 100,
              "position": 7.75,
              "duration": 1.4895833333333333
            },
            {
              "pitch": 67,
              "velocity": 80,
              "position": 9.5,
              "duration": 0.23958333333333334
            },
            {
              "pitch": 68,
              "velocity": 100,
              "position": 10,
              "duration": 0.7395833333333334
            },
            {
              "pitch": 70,
              "velocity": 100,
              "position": 11,
              "duration": 0.7395833333333334
            },
            {
              "pitch": 67,
              "velocity": 100,
              "position": 11.75,
              "duration": 2.2708333333333335
            }
          ]
        },
        "8": {
          "ctab": {
            "srcChannel": 8,
            "name": "Perc",
            "accType": "SUBRHYTHM",
            "editable": false,
            "mutedNotes": [],
            "mutedChords": [],
            "autoStart": true,
            "sourceChordNote": 0,
            "sourceChordType": "Maj7",
            "ctb2Low": null,
            "ctb2Main": {
              "ntr": "ROOT_FIXED",
              "ntt": "BYPASS",
              "bassOn": false,
              "chordRootUpperLimit": 6,
              "noteLowLimit": 0,
              "noteHighLimit": 127,
              "rtr": "PITCH_SHIFT"
            },
            "ctb2High": null
          },
          "notes": [
            {
              "pitch": 80,
              "velocity": 40,
              "position": 0,
              "duration": 0.010416666666666666
            },
            {
              "pitch": 82,
              "velocity": 46,
              "position": 0,
              "duration": 0.010416666666666666
            },
            {
              "pitch": 81,
              "velocity": 40,
              "position": 0.2604166666666667,
              "duration": 0.010416666666666666
            },
            {
              "pitch": 82,
              "velocity": 29,
              "position": 0.2604166666666667,
              "duration": 0.010416666666666666
            },
            {
              "pitch": 81,
              "velocity": 10,
              "position": 0.4895833333333333,
              "duration": 0.010416666666666666
            },
            {
              "pitch": 82,
              "velocity": 46,
              "position": 0.4895833333333333,
              "duration": 0.010416666666666666
            },
            {
              "pitch": 80,
              "velocity": 20,
              "position": 0.7395833333333334,
              "duration": 0.010416666666666666
            },
            {
              "pitch": 82,
              "velocity": 63,
              "position": 0.7395833333333334,
              "duration": 0.010416666666666666
            },
            {
              "pitch": 80,
              "velocity": 40,
              "position": 0.9895833333333334,
              "duration": 0.010416666666666666
            },
            {
              "pitch": 82,
              "velocity": 46,
              "position": 0.9895833333333334,
              "duration": 0.010416666666666666
            },
            {
              "pitch": 81,
              "velocity": 40,
              "position": 1.2604166666666667,
              "duration": 0.010416666666666666
            },
            {
              "pitch": 82,
              "velocity": 29,
              "position": 1.2604166666666667,
              "duration": 0.010416666666666666
            },
            {
              "pitch": 81,
              "velocity": 10,
              "position": 1.4895833333333333,
              "duration": 0.010416666666666666
            },
            {
              "pitch": 82,
              "velocity": 46,
              "position": 1.4895833333333333,
              "duration": 0.010416666666666666
            },
            {
              "pitch": 80,
              "velocity": 20,
              "position": 1.7395833333333333,
              "duration": 0.010416666666666666
            },
            {
              "pitch": 82,
              "velocity": 63,
              "position": 1.7395833333333333,
              "duration": 0.010416666666666666
            },
            {
              "pitch": 80,
              "velocity": 40,
              "position": 1.9895833333333333,
              "duration": 0.010416666666666666
            },
            {
              "pitch": 82,
              "velocity": 46,
              "position": 1.9895833333333333,
              "duration": 0.010416666666666666
            },
            {
              "pitch": 81,
              "velocity": 40,
              "position": 2.2604166666666665,
              "duration": 0.010416666666666666
            },
            {
              "pitch": 82,
              "velocity": 29,
              "position": 2.2604166666666665,
              "duration": 0.010416666666666666
            },
            {
              "pitch": 81,
              "velocity": 10,
              "position": 2.4895833333333335,
              "duration": 0.010416666666666666
            },
            {
              "pitch": 82,
              "velocity": 46,
              "position": 2.4895833333333335,
              "duration": 0.010416666666666666
            },
            {
              "pitch": 80,
              "velocity": 20,
              "position": 2.7395833333333335,
              "duration": 0.010416666666666666
            },
            {
              "pitch": 82,
              "velocity": 63,
              "position": 2.7395833333333335,
              "duration": 0.010416666666666666
            },
            {
              "pitch": 80,
              "velocity": 40,
              "position": 2.9895833333333335,
              "duration": 0.010416666666666666
            },
            {
              "pitch": 82,
              "velocity": 46,
              "position": 2.9895833333333335,
              "duration": 0.010416666666666666
            },
            {
              "pitch": 81,
              "velocity": 40,
              "position": 3.2604166666666665,
              "duration": 0.010416666666666666
            },
            {
              "pitch": 82,
              "velocity": 29,
              "position": 3.2604166666666665,
              "duration": 0.010416666666666666
            },
            {
              "pitch": 81,
              "velocity": 10,
              "position": 3.4895833333333335,
              "duration": 0.010416666666666666
            },
            {
              "pitch": 82,
              "velocity": 46,
              "position": 3.4895833333333335,
              "duration": 0.010416666666666666
            },
            {
              "pitch": 80,
              "velocity": 20,
              "position": 3.7395833333333335,
              "duration": 0.010416666666666666
            },
            {
              "pitch": 82,
              "velocity": 63,
              "position": 3.7395833333333335,
              "duration": 0.010416666666666666
            },
            {
              "pitch": 80,
              "velocity": 40,
              "position": 4,
              "duration": 0.010416666666666666
            },
            {
              "pitch": 82,
              "velocity": 46,
              "position": 4,
              "duration": 0.010416666666666666
            },
            {
              "pitch": 81,
              "velocity": 40,
              "position": 4.260416666666667,
              "duration": 0.010416666666666666
            },
            {
              "pitch": 82,
              "velocity": 29,
              "position": 4.260416666666667,
              "duration": 0.010416666666666666
            },
            {
              "pitch": 81,
              "velocity": 10,
              "position": 4.489583333333333,
              "duration": 0.010416666666666666
            },
            {
              "pitch": 82,
              "velocity": 46,
              "position": 4.489583333333333,
              "duration": 0.010416666666666666
            },
            {
              "pitch": 80,
              "velocity": 20,
              "position": 4.739583333333333,
              "duration": 0.010416666666666666
            },
            {
              "pitch": 82,
              "velocity": 63,
              "position": 4.739583333333333,
              "duration": 0.010416666666666666
            },
            {
              "pitch": 80,
              "velocity": 40,
              "position": 4.989583333333333,
              "duration": 0.010416666666666666
            },
            {
              "pitch": 82,
              "velocity": 46,
              "position": 4.989583333333333,
              "duration": 0.010416666666666666
            },
            {
              "pitch": 81,
              "velocity": 40,
              "position": 5.260416666666667,
              "duration": 0.010416666666666666
            },
            {
              "pitch": 82,
              "velocity": 29,
              "position": 5.260416666666667,
              "duration": 0.010416666666666666
            },
            {
              "pitch": 81,
              "velocity": 10,
              "position": 5.489583333333333,
              "duration": 0.010416666666666666
            },
            {
              "pitch": 82,
              "velocity": 46,
              "position": 5.489583333333333,
              "duration": 0.010416666666666666
            },
            {
              "pitch": 80,
              "velocity": 20,
              "position": 5.739583333333333,
              "duration": 0.010416666666666666
            },
            {
              "pitch": 82,
              "velocity": 63,
              "position": 5.739583333333333,
              "duration": 0.010416666666666666
            },
            {
              "pitch": 80,
              "velocity": 40,
              "position": 5.989583333333333,
              "duration": 0.010416666666666666
            },
            {
              "pitch": 82,
              "velocity": 46,
              "position": 5.989583333333333,
              "duration": 0.010416666666666666
            },
            {
              "pitch": 81,
              "velocity": 40,
              "position": 6.260416666666667,
              "duration": 0.010416666666666666
            },
            {
              "pitch": 82,
              "velocity": 29,
              "position": 6.260416666666667,
              "duration": 0.010416666666666666
            },
            {
              "pitch": 81,
              "velocity": 10,
              "position": 6.489583333333333,
              "duration": 0.010416666666666666
            },
            {
              "pitch": 82,
              "velocity": 46,
              "position": 6.489583333333333,
              "duration": 0.010416666666666666
            },
            {
              "pitch": 80,
              "velocity": 20,
              "position": 6.739583333333333,
              "duration": 0.010416666666666666
            },
            {
              "pitch": 82,
              "velocity": 63,
              "position": 6.739583333333333,
              "duration": 0.010416666666666666
            },
            {
              "pitch": 80,
              "velocity": 40,
              "position": 6.989583333333333,
              "duration": 0.010416666666666666
            },
            {
              "pitch": 82,
              "velocity": 46,
              "position": 6.989583333333333,
              "duration": 0.010416666666666666
            },
            {
              "pitch": 81,
              "velocity": 40,
              "position": 7.260416666666667,
              "duration": 0.010416666666666666
            },
            {
              "pitch": 82,
              "velocity": 29,
              "position": 7.260416666666667,
              "duration": 0.010416666666666666
            },
            {
              "pitch": 81,
              "velocity": 10,
              "position": 7.489583333333333,
              "duration": 0.010416666666666666
            },
            {
              "pitch": 82,
              "velocity": 46,
              "position": 7.489583333333333,
              "duration": 0.010416666666666666
            },
            {
              "pitch": 80,
              "velocity": 20,
              "position": 7.739583333333333,
              "duration": 0.010416666666666666
            },
            {
              "pitch": 82,
              "velocity": 63,
              "position": 7.739583333333333,
              "duration": 0.010416666666666666
            },
            {
              "pitch": 80,
              "velocity": 40,
              "position": 8,
              "duration": 0.010416666666666666
            },
            {
              "pitch": 82,
              "velocity": 46,
              "position": 8,
              "duration": 0.010416666666666666
            },
            {
              "pitch": 81,
              "velocity": 40,
              "position": 8.260416666666666,
              "duration": 0.010416666666666666
            },
            {
              "pitch": 82,
              "velocity": 29,
              "position": 8.260416666666666,
              "duration": 0.010416666666666666
            },
            {
              "pitch": 81,
              "velocity": 10,
              "position": 8.489583333333334,
              "duration": 0.010416666666666666
            },
            {
              "pitch": 82,
              "velocity": 46,
              "position": 8.489583333333334,
              "duration": 0.010416666666666666
            },
            {
              "pitch": 80,
              "velocity": 20,
              "position": 8.739583333333334,
              "duration": 0.010416666666666666
            },
            {
              "pitch": 82,
              "velocity": 63,
              "position": 8.739583333333334,
              "duration": 0.010416666666666666
            },
            {
              "pitch": 80,
              "velocity": 40,
              "position": 8.989583333333334,
              "duration": 0.010416666666666666
            },
            {
              "pitch": 82,
              "velocity": 46,
              "position": 8.989583333333334,
              "duration": 0.010416666666666666
            },
            {
              "pitch": 81,
              "velocity": 40,
              "position": 9.260416666666666,
              "duration": 0.010416666666666666
            },
            {
              "pitch": 82,
              "velocity": 29,
              "position": 9.260416666666666,
              "duration": 0.010416666666666666
            },
            {
              "pitch": 81,
              "velocity": 10,
              "position": 9.489583333333334,
              "duration": 0.010416666666666666
            },
            {
              "pitch": 82,
              "velocity": 46,
              "position": 9.489583333333334,
              "duration": 0.010416666666666666
            },
            {
              "pitch": 80,
              "velocity": 20,
              "position": 9.739583333333334,
              "duration": 0.010416666666666666
            },
            {
              "pitch": 82,
              "velocity": 63,
              "position": 9.739583333333334,
              "duration": 0.010416666666666666
            },
            {
              "pitch": 80,
              "velocity": 40,
              "position": 9.989583333333334,
              "duration": 0.010416666666666666
            },
            {
              "pitch": 82,
              "velocity": 46,
              "position": 9.989583333333334,
              "duration": 0.010416666666666666
            },
            {
              "pitch": 81,
              "velocity": 40,
              "position": 10.260416666666666,
              "duration": 0.010416666666666666
            },
            {
              "pitch": 82,
              "velocity": 29,
              "position": 10.260416666666666,
              "duration": 0.010416666666666666
            },
            {
              "pitch": 81,
              "velocity": 10,
              "position": 10.489583333333334,
              "duration": 0.010416666666666666
            },
            {
              "pitch": 82,
              "velocity": 46,
              "position": 10.489583333333334,
              "duration": 0.010416666666666666
            },
            {
              "pitch": 80,
              "velocity": 20,
              "position": 10.739583333333334,
              "duration": 0.010416666666666666
            },
            {
              "pitch": 82,
              "velocity": 63,
              "position": 10.739583333333334,
              "duration": 0.010416666666666666
            },
            {
              "pitch": 80,
              "velocity": 40,
              "position": 10.989583333333334,
              "duration": 0.010416666666666666
            },
            {
              "pitch": 82,
              "velocity": 46,
              "position": 10.989583333333334,
              "duration": 0.010416666666666666
            },
            {
              "pitch": 81,
              "velocity": 40,
              "position": 11.260416666666666,
              "duration": 0.010416666666666666
            },
            {
              "pitch": 82,
              "velocity": 29,
              "position": 11.260416666666666,
              "duration": 0.010416666666666666
            },
            {
              "pitch": 81,
              "velocity": 10,
              "position": 11.489583333333334,
              "duration": 0.010416666666666666
            },
            {
              "pitch": 82,
              "velocity": 46,
              "position": 11.489583333333334,
              "duration": 0.010416666666666666
            },
            {
              "pitch": 80,
              "velocity": 20,
              "position": 11.739583333333334,
              "duration": 0.010416666666666666
            },
            {
              "pitch": 82,
              "velocity": 63,
              "position": 11.739583333333334,
              "duration": 0.010416666666666666
            },
            {
              "pitch": 80,
              "velocity": 40,
              "position": 12,
              "duration": 0.010416666666666666
            },
            {
              "pitch": 82,
              "velocity": 46,
              "position": 12,
              "duration": 0.010416666666666666
            },
            {
              "pitch": 81,
              "velocity": 40,
              "position": 12.260416666666666,
              "duration": 0.010416666666666666
            },
            {
              "pitch": 82,
              "velocity": 29,
              "position": 12.260416666666666,
              "duration": 0.010416666666666666
            },
            {
              "pitch": 81,
              "velocity": 10,
              "position": 12.489583333333334,
              "duration": 0.010416666666666666
            },
            {
              "pitch": 82,
              "velocity": 46,
              "position": 12.489583333333334,
              "duration": 0.010416666666666666
            },
            {
              "pitch": 80,
              "velocity": 20,
              "position": 12.739583333333334,
              "duration": 0.010416666666666666
            },
            {
              "pitch": 82,
              "velocity": 63,
              "position": 12.739583333333334,
              "duration": 0.010416666666666666
            },
            {
              "pitch": 80,
              "velocity": 40,
              "position": 12.989583333333334,
              "duration": 0.010416666666666666
            },
            {
              "pitch": 82,
              "velocity": 46,
              "position": 12.989583333333334,
              "duration": 0.010416666666666666
            },
            {
              "pitch": 81,
              "velocity": 40,
              "position": 13.260416666666666,
              "duration": 0.010416666666666666
            },
            {
              "pitch": 82,
              "velocity": 29,
              "position": 13.260416666666666,
              "duration": 0.010416666666666666
            },
            {
              "pitch": 81,
              "velocity": 10,
              "position": 13.489583333333334,
              "duration": 0.010416666666666666
            },
            {
              "pitch": 82,
              "velocity": 46,
              "position": 13.489583333333334,
              "duration": 0.010416666666666666
            },
            {
              "pitch": 80,
              "velocity": 20,
              "position": 13.739583333333334,
              "duration": 0.010416666666666666
            },
            {
              "pitch": 82,
              "velocity": 63,
              "position": 13.739583333333334,
              "duration": 0.010416666666666666
            },
            {
              "pitch": 80,
              "velocity": 40,
              "position": 13.989583333333334,
              "duration": 0.010416666666666666
            },
            {
              "pitch": 82,
              "velocity": 46,
              "position": 13.989583333333334,
              "duration": 0.010416666666666666
            },
            {
              "pitch": 80,
              "velocity": 40,
              "position": 14.260416666666666,
              "duration": 0.010416666666666666
            },
            {
              "pitch": 82,
              "velocity": 29,
              "position": 14.260416666666666,
              "duration": 0.010416666666666666
            },
            {
              "pitch": 80,
              "velocity": 10,
              "position": 14.489583333333334,
              "duration": 0.010416666666666666
            },
            {
              "pitch": 82,
              "velocity": 46,
              "position": 14.489583333333334,
              "duration": 0.010416666666666666
            },
            {
              "pitch": 81,
              "velocity": 20,
              "position": 14.739583333333334,
              "duration": 0.010416666666666666
            },
            {
              "pitch": 82,
              "velocity": 63,
              "position": 14.739583333333334,
              "duration": 0.010416666666666666
            }
          ]
        },
        "9": {
          "ctab": {
            "srcChannel": 9,
            "name": "Drs",
            "accType": "RHYTHM",
            "editable": false,
            "mutedNotes": [],
            "mutedChords": [],
            "autoStart": true,
            "sourceChordNote": 0,
            "sourceChordType": "Maj7",
            "ctb2Low": null,
            "ctb2Main": {
              "ntr": "ROOT_FIXED",
              "ntt": "BYPASS",
              "bassOn": false,
              "chordRootUpperLimit": 6,
              "noteLowLimit": 0,
              "noteHighLimit": 127,
              "rtr": "PITCH_SHIFT"
            },
            "ctb2High": null
          },
          "notes": [
            {
              "pitch": 35,
              "velocity": 93,
              "position": 0,
              "duration": 0.010416666666666666
            },
            {
              "pitch": 42,
              "velocity": 80,
              "position": 0,
              "duration": 0.010416666666666666
            },
            {
              "pitch": 42,
              "velocity": 50,
              "position": 0.2604166666666667,
              "duration": 0.010416666666666666
            },
            {
              "pitch": 42,
              "velocity": 60,
              "position": 0.4895833333333333,
              "duration": 0.010416666666666666
            },
            {
              "pitch": 31,
              "velocity": 30,
              "position": 0.7395833333333334,
              "duration": 0.010416666666666666
            },
            {
              "pitch": 42,
              "velocity": 80,
              "position": 0.7395833333333334,
              "duration": 0.010416666666666666
            },
            {
              "pitch": 35,
              "velocity": 63,
              "position": 0.75,
              "duration": 0.010416666666666666
            },
            {
              "pitch": 42,
              "velocity": 80,
              "position": 0.9895833333333334,
              "duration": 0.010416666666666666
            },
            {
              "pitch": 35,
              "velocity": 93,
              "position": 1,
              "duration": 0.010416666666666666
            },
            {
              "pitch": 42,
              "velocity": 50,
              "position": 1.2604166666666667,
              "duration": 0.010416666666666666
            },
            {
              "pitch": 42,
              "velocity": 60,
              "position": 1.4895833333333333,
              "duration": 0.010416666666666666
            },
            {
              "pitch": 31,
              "velocity": 30,
              "position": 1.7395833333333333,
              "duration": 0.010416666666666666
            },
            {
              "pitch": 46,
              "velocity": 50,
              "position": 1.7395833333333333,
              "duration": 0.010416666666666666
            },
            {
              "pitch": 35,
              "velocity": 63,
              "position": 1.75,
              "duration": 0.010416666666666666
            },
            {
              "pitch": 42,
              "velocity": 80,
              "position": 1.9895833333333333,
              "duration": 0.010416666666666666
            },
            {
              "pitch": 35,
              "velocity": 93,
              "position": 2,
              "duration": 0.010416666666666666
            },
            {
              "pitch": 42,
              "velocity": 50,
              "position": 2.2604166666666665,
              "duration": 0.010416666666666666
            },
            {
              "pitch": 42,
              "velocity": 60,
              "position": 2.4895833333333335,
              "duration": 0.010416666666666666
            },
            {
              "pitch": 31,
              "velocity": 30,
              "position": 2.7395833333333335,
              "duration": 0.010416666666666666
            },
            {
              "pitch": 42,
              "velocity": 80,
              "position": 2.7395833333333335,
              "duration": 0.010416666666666666
            },
            {
              "pitch": 35,
              "velocity": 63,
              "position": 2.75,
              "duration": 0.010416666666666666
            },
            {
              "pitch": 42,
              "velocity": 80,
              "position": 2.9895833333333335,
              "duration": 0.010416666666666666
            },
            {
              "pitch": 35,
              "velocity": 93,
              "position": 3,
              "duration": 0.010416666666666666
            },
            {
              "pitch": 42,
              "velocity": 50,
              "position": 3.2604166666666665,
              "duration": 0.010416666666666666
            },
            {
              "pitch": 42,
              "velocity": 60,
              "position": 3.4895833333333335,
              "duration": 0.010416666666666666
            },
            {
              "pitch": 31,
              "velocity": 30,
              "position": 3.7395833333333335,
              "duration": 0.010416666666666666
            },
            {
              "pitch": 42,
              "velocity": 80,
              "position": 3.7395833333333335,
              "duration": 0.010416666666666666
            },
            {
              "pitch": 35,
              "velocity": 63,
              "position": 3.75,
              "duration": 0.010416666666666666
            },
            {
              "pitch": 35,
              "velocity": 93,
              "position": 4,
              "duration": 0.010416666666666666
            },
            {
              "pitch": 42,
              "velocity": 80,
              "position": 4,
              "duration": 0.010416666666666666
            },
            {
              "pitch": 42,
              "velocity": 50,
              "position": 4.260416666666667,
              "duration": 0.010416666666666666
            },
            {
              "pitch": 42,
              "velocity": 60,
              "position": 4.489583333333333,
              "duration": 0.010416666666666666
            },
            {
              "pitch": 31,
              "velocity": 30,
              "position": 4.739583333333333,
              "duration": 0.010416666666666666
            },
            {
              "pitch": 42,
              "velocity": 80,
              "position": 4.739583333333333,
              "duration": 0.010416666666666666
            },
            {
              "pitch": 35,
              "velocity": 63,
              "position": 4.75,
              "duration": 0.010416666666666666
            },
            {
              "pitch": 42,
              "velocity": 80,
              "position": 4.989583333333333,
              "duration": 0.010416666666666666
            },
            {
              "pitch": 35,
              "velocity": 93,
              "position": 5,
              "duration": 0.010416666666666666
            },
            {
              "pitch": 42,
              "velocity": 50,
              "position": 5.260416666666667,
              "duration": 0.010416666666666666
            },
            {
              "pitch": 42,
              "velocity": 60,
              "position": 5.489583333333333,
              "duration": 0.010416666666666666
            },
            {
              "pitch": 31,
              "velocity": 30,
              "position": 5.739583333333333,
              "duration": 0.010416666666666666
            },
            {
              "pitch": 42,
              "velocity": 80,
              "position": 5.739583333333333,
              "duration": 0.010416666666666666
            },
            {
              "pitch": 35,
              "velocity": 63,
              "position": 5.75,
              "duration": 0.010416666666666666
            },
            {
              "pitch": 42,
              "velocity": 80,
              "position": 5.989583333333333,
              "duration": 0.010416666666666666
            },
            {
              "pitch": 35,
              "velocity": 93,
              "position": 6,
              "duration": 0.010416666666666666
            },
            {
              "pitch": 46,
              "velocity": 50,
              "position": 6.260416666666667,
              "duration": 0.010416666666666666
            },
            {
              "pitch": 42,
              "velocity": 60,
              "position": 6.489583333333333,
              "duration": 0.010416666666666666
            },
            {
              "pitch": 31,
              "velocity": 30,
              "position": 6.739583333333333,
              "duration": 0.010416666666666666
            },
            {
              "pitch": 42,
              "velocity": 80,
              "position": 6.739583333333333,
              "duration": 0.010416666666666666
            },
            {
              "pitch": 35,
              "velocity": 63,
              "position": 6.75,
              "duration": 0.010416666666666666
            },
            {
              "pitch": 42,
              "velocity": 80,
              "position": 6.989583333333333,
              "duration": 0.010416666666666666
            },
            {
              "pitch": 35,
              "velocity": 93,
              "position": 7,
              "duration": 0.010416666666666666
            },
            {
              "pitch": 42,
              "velocity": 50,
              "position": 7.260416666666667,
              "duration": 0.010416666666666666
            },
            {
              "pitch": 42,
              "velocity": 60,
              "position": 7.489583333333333,
              "duration": 0.010416666666666666
            },
            {
              "pitch": 31,
              "velocity": 30,
              "position": 7.739583333333333,
              "duration": 0.010416666666666666
            },
            {
              "pitch": 42,
              "velocity": 80,
              "position": 7.739583333333333,
              "duration": 0.010416666666666666
            },
            {
              "pitch": 35,
              "velocity": 63,
              "position": 7.75,
              "duration": 0.010416666666666666
            },
            {
              "pitch": 35,
              "velocity": 93,
              "position": 8,
              "duration": 0.010416666666666666
            },
            {
              "pitch": 42,
              "velocity": 80,
              "position": 8,
              "duration": 0.010416666666666666
            },
            {
              "pitch": 42,
              "velocity": 50,
              "position": 8.260416666666666,
              "duration": 0.010416666666666666
            },
            {
              "pitch": 42,
              "velocity": 60,
              "position": 8.489583333333334,
              "duration": 0.010416666666666666
            },
            {
              "pitch": 31,
              "velocity": 30,
              "position": 8.739583333333334,
              "duration": 0.010416666666666666
            },
            {
              "pitch": 42,
              "velocity": 80,
              "position": 8.739583333333334,
              "duration": 0.010416666666666666
            },
            {
              "pitch": 35,
              "velocity": 63,
              "position": 8.75,
              "duration": 0.010416666666666666
            },
            {
              "pitch": 42,
              "velocity": 80,
              "position": 8.989583333333334,
              "duration": 0.010416666666666666
            },
            {
              "pitch": 35,
              "velocity": 93,
              "position": 9,
              "duration": 0.010416666666666666
            },
            {
              "pitch": 42,
              "velocity": 50,
              "position": 9.260416666666666,
              "duration": 0.010416666666666666
            },
            {
              "pitch": 42,
              "velocity": 60,
              "position": 9.489583333333334,
              "duration": 0.010416666666666666
            },
            {
              "pitch": 31,
              "velocity": 30,
              "position": 9.739583333333334,
              "duration": 0.010416666666666666
            },
            {
              "pitch": 46,
              "velocity": 50,
              "position": 9.739583333333334,
              "duration": 0.010416666666666666
            },
            {
              "pitch": 35,
              "velocity": 63,
              "position": 9.75,
              "duration": 0.010416666666666666
            },
            {
              "pitch": 42,
              "velocity": 80,
              "position": 9.989583333333334,
              "duration": 0.010416666666666666
            },
            {
              "pitch": 35,
              "velocity": 93,
              "position": 10,
              "duration": 0.010416666666666666
            },
            {
              "pitch": 42,
              "velocity": 50,
              "position": 10.260416666666666,
              "duration": 0.010416666666666666
            },
            {
              "pitch": 42,
              "velocity": 60,
              "position": 10.489583333333334,
              "duration": 0.010416666666666666
            },
            {
              "pitch": 31,
              "velocity": 30,
              "position": 10.739583333333334,
              "duration": 0.010416666666666666
            },
            {
              "pitch": 42,
              "velocity": 80,
              "position": 10.739583333333334,
              "duration": 0.010416666666666666
            },
            {
              "pitch": 35,
              "velocity": 63,
              "position": 10.75,
              "duration": 0.010416666666666666
            },
            {
              "pitch": 42,
              "velocity": 80,
              "position": 10.989583333333334,
              "duration": 0.010416666666666666
            },
            {
              "pitch": 35,
              "velocity": 93,
              "position": 11,
              "duration": 0.010416666666666666
            },
            {
              "pitch": 42,
              "velocity": 50,
              "position": 11.260416666666666,
              "duration": 0.010416666666666666
            },
            {
              "pitch": 42,
              "velocity": 60,
              "position": 11.489583333333334,
              "duration": 0.010416666666666666
            },
            {
              "pitch": 31,
              "velocity": 30,
              "position": 11.739583333333334,
              "duration": 0.010416666666666666
            },
            {
              "pitch": 42,
              "velocity": 80,
              "position": 11.739583333333334,
              "duration": 0.010416666666666666
            },
            {
              "pitch": 35,
              "velocity": 63,
              "position": 11.75,
              "duration": 0.010416666666666666
            },
            {
              "pitch": 35,
              "velocity": 93,
              "position": 12,
              "duration": 0.010416666666666666
            },
            {
              "pitch": 42,
              "velocity": 80,
              "position": 12,
              "duration": 0.010416666666666666
            },
            {
              "pitch": 42,
              "velocity": 50,
              "position": 12.260416666666666,
              "duration": 0.010416666666666666
            },
            {
              "pitch": 42,
              "velocity": 60,
              "position": 12.489583333333334,
              "duration": 0.010416666666666666
            },
            {
              "pitch": 31,
              "velocity": 30,
              "position": 12.739583333333334,
              "duration": 0.010416666666666666
            },
            {
              "pitch": 42,
              "velocity": 80,
              "position": 12.739583333333334,
              "duration": 0.010416666666666666
            },
            {
              "pitch": 35,
              "velocity": 63,
              "position": 12.75,
              "duration": 0.010416666666666666
            },
            {
              "pitch": 42,
              "velocity": 80,
              "position": 12.989583333333334,
              "duration": 0.010416666666666666
            },
            {
              "pitch": 35,
              "velocity": 93,
              "position": 13,
              "duration": 0.010416666666666666
            },
            {
              "pitch": 40,
              "velocity": 50,
              "position": 13.260416666666666,
              "duration": 0.010416666666666666
            },
            {
              "pitch": 46,
              "velocity": 50,
              "position": 13.260416666666666,
              "duration": 0.010416666666666666
            },
            {
              "pitch": 42,
              "velocity": 60,
              "position": 13.489583333333334,
              "duration": 0.010416666666666666
            },
            {
              "pitch": 31,
              "velocity": 30,
              "position": 13.739583333333334,
              "duration": 0.010416666666666666
            },
            {
              "pitch": 42,
              "velocity": 80,
              "position": 13.739583333333334,
              "duration": 0.010416666666666666
            },
            {
              "pitch": 35,
              "velocity": 63,
              "position": 13.75,
              "duration": 0.010416666666666666
            },
            {
              "pitch": 35,
              "velocity": 93,
              "position": 14,
              "duration": 0.010416666666666666
            },
            {
              "pitch": 40,
              "velocity": 70,
              "position": 14,
              "duration": 0.010416666666666666
            },
            {
              "pitch": 42,
              "velocity": 80,
              "position": 14,
              "duration": 0.010416666666666666
            },
            {
              "pitch": 42,
              "velocity": 50,
              "position": 14.260416666666666,
              "duration": 0.010416666666666666
            },
            {
              "pitch": 42,
              "velocity": 60,
              "position": 14.489583333333334,
              "duration": 0.010416666666666666
            },
            {
              "pitch": 46,
              "velocity": 60,
              "position": 14.739583333333334,
              "duration": 0.010416666666666666
            },
            {
              "pitch": 35,
              "velocity": 63,
              "position": 14.75,
              "duration": 0.010416666666666666
            },
            {
              "pitch": 40,
              "velocity": 48,
              "position": 14.75,
              "duration": 0.010416666666666666
            },
            {
              "pitch": 35,
              "velocity": 93,
              "position": 15,
              "duration": 0.010416666666666666
            },
            {
              "pitch": 29,
              "velocity": 70,
              "position": 14.75,
              "duration": 0.3854166666666667
            },
            {
              "pitch": 47,
              "velocity": 50,
              "position": 15.260416666666666,
              "duration": 0.010416666666666666
            },
            {
              "pitch": 35,
              "velocity": 63,
              "position": 15.75,
              "duration": 0.010416666666666666
            },
            {
              "pitch": 49,
              "velocity": 60,
              "position": 15.989583333333334,
              "duration": 0.010416666666666666
            }
          ]
        },
        "10": {
          "ctab": {
            "srcChannel": 10,
            "name": "Bass",
            "accType": "BASS",
            "editable": false,
            "mutedNotes": [],
            "mutedChords": [
              "dim7",
              "dim",
              "minMaj7(9)",
              "minMaj7",
              "min7(11)",
              "min7(9)",
              "min(9)",
              "m7b5",
              "min7",
              "min6",
              "min"
            ],
            "autoStart": false,
            "sourceChordNote": 0,
            "sourceChordType": "Maj",
            "ctb2Low": null,
            "ctb2Main": {
              "ntr": "ROOT_TRANSPOSITION",
              "ntt": "BYPASS",
              "bassOn": false,
              "chordRootUpperLimit": 8,
              "noteLowLimit": 28,
              "noteHighLimit": 127,
              "rtr": "PITCH_SHIFT"
            },
            "ctb2High": null
          },
          "notes": [
            {
              "pitch": 26,
              "velocity": 98,
              "position": 0,
              "duration": 0.2604166666666667
            },
            {
              "pitch": 26,
              "velocity": 80,
              "position": 0.75,
              "duration": 0.09375
            },
            {
              "pitch": 33,
              "velocity": 98,
              "position": 1,
              "duration": 0.9895833333333334
            },
            {
              "pitch": 31,
              "velocity": 98,
              "position": 2,
              "duration": 0.2604166666666667
            },
            {
              "pitch": 31,
              "velocity": 80,
              "position": 2.75,
              "duration": 0.09375
            },
            {
              "pitch": 31,
              "velocity": 98,
              "position": 3,
              "duration": 0.9895833333333334
            },
            {
              "pitch": 26,
              "velocity": 98,
              "position": 4,
              "duration": 0.2604166666666667
            },
            {
              "pitch": 26,
              "velocity": 80,
              "position": 4.75,
              "duration": 0.09375
            },
            {
              "pitch": 33,
              "velocity": 98,
              "position": 5,
              "duration": 0.9895833333333334
            },
            {
              "pitch": 31,
              "velocity": 98,
              "position": 6,
              "duration": 0.2604166666666667
            },
            {
              "pitch": 31,
              "velocity": 80,
              "position": 6.75,
              "duration": 0.09375
            },
            {
              "pitch": 31,
              "velocity": 98,
              "position": 7,
              "duration": 0.9895833333333334
            },
            {
              "pitch": 26,
              "velocity": 98,
              "position": 8,
              "duration": 0.2604166666666667
            },
            {
              "pitch": 26,
              "velocity": 80,
              "position": 8.75,
              "duration": 0.09375
            },
            {
              "pitch": 33,
              "velocity": 98,
              "position": 9,
              "duration": 0.9895833333333334
            },
            {
              "pitch": 31,
              "velocity": 98,
              "position": 10,
              "duration": 0.2604166666666667
            },
            {
              "pitch": 31,
              "velocity": 80,
              "position": 10.75,
              "duration": 0.09375
            },
            {
              "pitch": 31,
              "velocity": 98,
              "position": 11,
              "duration": 0.9895833333333334
            },
            {
              "pitch": 24,
              "velocity": 98,
              "position": 12,
              "duration": 0.2604166666666667
            },
            {
              "pitch": 24,
              "velocity": 80,
              "position": 12.75,
              "duration": 0.09375
            },
            {
              "pitch": 24,
              "velocity": 98,
              "position": 13,
              "duration": 0.9895833333333334
            },
            {
              "pitch": 31,
              "velocity": 98,
              "position": 14,
              "duration": 0.2604166666666667
            },
            {
              "pitch": 31,
              "velocity": 98,
              "position": 14.75,
              "duration": 1.2395833333333333
            }
          ]
        },
        "11": {
          "ctab": {
            "srcChannel": 11,
            "name": "NGt 1",
            "accType": "CHORD1",
            "editable": false,
            "mutedNotes": [],
            "mutedChords": [
              "dim7",
              "dim",
              "minMaj7(9)",
              "minMaj7",
              "min7(11)",
              "min7(9)",
              "min(9)",
              "m7b5",
              "min7",
              "min6",
              "min"
            ],
            "autoStart": false,
            "sourceChordNote": 0,
            "sourceChordType": "Maj",
            "ctb2Low": null,
            "ctb2Main": {
              "ntr": "ROOT_TRANSPOSITION",
              "ntt": "BYPASS",
              "bassOn": false,
              "chordRootUpperLimit": 11,
              "noteLowLimit": 54,
              "noteHighLimit": 65,
              "rtr": "PITCH_SHIFT"
            },
            "ctb2High": null
          },
          "notes": [
            {
              "pitch": 60,
              "velocity": 97,
              "position": 0,
              "duration": 0.59375
            },
            {
              "pitch": 65,
              "velocity": 97,
              "position": 0,
              "duration": 0.59375
            },
            {
              "pitch": 57,
              "velocity": 86,
              "position": 0,
              "duration": 0.6041666666666666
            },
            {
              "pitch": 57,
              "velocity": 88,
              "position": 0.75,
              "duration": 0.09375
            },
            {
              "pitch": 60,
              "velocity": 93,
              "position": 0.75,
              "duration": 0.10416666666666667
            },
            {
              "pitch": 65,
              "velocity": 87,
              "position": 0.75,
              "duration": 0.10416666666666667
            },
            {
              "pitch": 57,
              "velocity": 80,
              "position": 1.25,
              "duration": 0.10416666666666667
            },
            {
              "pitch": 60,
              "velocity": 69,
              "position": 1.25,
              "duration": 0.10416666666666667
            },
            {
              "pitch": 65,
              "velocity": 82,
              "position": 1.25,
              "duration": 0.11458333333333333
            },
            {
              "pitch": 59,
              "velocity": 73,
              "position": 1.75,
              "duration": 0.10416666666666667
            },
            {
              "pitch": 62,
              "velocity": 79,
              "position": 1.75,
              "duration": 0.10416666666666667
            },
            {
              "pitch": 65,
              "velocity": 79,
              "position": 1.75,
              "duration": 0.10416666666666667
            },
            {
              "pitch": 65,
              "velocity": 89,
              "position": 2.25,
              "duration": 0.59375
            },
            {
              "pitch": 59,
              "velocity": 96,
              "position": 2.25,
              "duration": 0.6041666666666666
            },
            {
              "pitch": 62,
              "velocity": 90,
              "position": 2.25,
              "duration": 0.6041666666666666
            },
            {
              "pitch": 59,
              "velocity": 60,
              "position": 3,
              "duration": 0.09375
            },
            {
              "pitch": 65,
              "velocity": 65,
              "position": 3,
              "duration": 0.09375
            },
            {
              "pitch": 62,
              "velocity": 54,
              "position": 3,
              "duration": 0.10416666666666667
            },
            {
              "pitch": 62,
              "velocity": 75,
              "position": 3.5,
              "duration": 0.09375
            },
            {
              "pitch": 59,
              "velocity": 78,
              "position": 3.5,
              "duration": 0.10416666666666667
            },
            {
              "pitch": 65,
              "velocity": 82,
              "position": 3.5,
              "duration": 0.10416666666666667
            },
            {
              "pitch": 57,
              "velocity": 91,
              "position": 4,
              "duration": 0.6041666666666666
            },
            {
              "pitch": 60,
              "velocity": 94,
              "position": 4,
              "duration": 0.6041666666666666
            },
            {
              "pitch": 65,
              "velocity": 92,
              "position": 4,
              "duration": 0.6041666666666666
            },
            {
              "pitch": 57,
              "velocity": 88,
              "position": 4.75,
              "duration": 0.09375
            },
            {
              "pitch": 65,
              "velocity": 101,
              "position": 4.75,
              "duration": 0.09375
            },
            {
              "pitch": 60,
              "velocity": 87,
              "position": 4.75,
              "duration": 0.10416666666666667
            },
            {
              "pitch": 57,
              "velocity": 71,
              "position": 5.25,
              "duration": 0.6041666666666666
            },
            {
              "pitch": 60,
              "velocity": 74,
              "position": 5.25,
              "duration": 0.6041666666666666
            },
            {
              "pitch": 65,
              "velocity": 71,
              "position": 5.25,
              "duration": 0.6041666666666666
            },
            {
              "pitch": 59,
              "velocity": 80,
              "position": 6,
              "duration": 0.09375
            },
            {
              "pitch": 56,
              "velocity": 81,
              "position": 6,
              "duration": 0.10416666666666667
            },
            {
              "pitch": 65,
              "velocity": 77,
              "position": 6,
              "duration": 0.11458333333333333
            },
            {
              "pitch": 59,
              "velocity": 87,
              "position": 6.5,
              "duration": 0.59375
            },
            {
              "pitch": 56,
              "velocity": 94,
              "position": 6.5,
              "duration": 0.6041666666666666
            },
            {
              "pitch": 65,
              "velocity": 87,
              "position": 6.5,
              "duration": 0.6041666666666666
            },
            {
              "pitch": 56,
              "velocity": 64,
              "position": 7.25,
              "duration": 0.10416666666666667
            },
            {
              "pitch": 65,
              "velocity": 66,
              "position": 7.25,
              "duration": 0.10416666666666667
            },
            {
              "pitch": 59,
              "velocity": 53,
              "position": 7.25,
              "duration": 0.11458333333333333
            },
            {
              "pitch": 57,
              "velocity": 72,
              "position": 7.75,
              "duration": 0.09375
            },
            {
              "pitch": 65,
              "velocity": 84,
              "position": 7.75,
              "duration": 0.09375
            },
            {
              "pitch": 60,
              "velocity": 83,
              "position": 7.75,
              "duration": 0.10416666666666667
            },
            {
              "pitch": 57,
              "velocity": 88,
              "position": 8.25,
              "duration": 0.59375
            },
            {
              "pitch": 65,
              "velocity": 102,
              "position": 8.25,
              "duration": 0.59375
            },
            {
              "pitch": 60,
              "velocity": 88,
              "position": 8.25,
              "duration": 0.6041666666666666
            },
            {
              "pitch": 57,
              "velocity": 89,
              "position": 9,
              "duration": 0.10416666666666667
            },
            {
              "pitch": 60,
              "velocity": 99,
              "position": 9,
              "duration": 0.10416666666666667
            },
            {
              "pitch": 65,
              "velocity": 99,
              "position": 9,
              "duration": 0.10416666666666667
            },
            {
              "pitch": 57,
              "velocity": 70,
              "position": 9.5,
              "duration": 0.09375
            },
            {
              "pitch": 60,
              "velocity": 78,
              "position": 9.5,
              "duration": 0.09375
            },
            {
              "pitch": 65,
              "velocity": 69,
              "position": 9.5,
              "duration": 0.10416666666666667
            },
            {
              "pitch": 56,
              "velocity": 73,
              "position": 10,
              "duration": 0.10416666666666667
            },
            {
              "pitch": 59,
              "velocity": 71,
              "position": 10,
              "duration": 0.10416666666666667
            },
            {
              "pitch": 65,
              "velocity": 75,
              "position": 10,
              "duration": 0.11458333333333333
            },
            {
              "pitch": 56,
              "velocity": 97,
              "position": 10.5,
              "duration": 0.59375
            },
            {
              "pitch": 59,
              "velocity": 94,
              "position": 10.5,
              "duration": 0.59375
            },
            {
              "pitch": 65,
              "velocity": 88,
              "position": 10.5,
              "duration": 0.6041666666666666
            },
            {
              "pitch": 56,
              "velocity": 59,
              "position": 11.25,
              "duration": 0.10416666666666667
            },
            {
              "pitch": 59,
              "velocity": 65,
              "position": 11.25,
              "duration": 0.10416666666666667
            },
            {
              "pitch": 65,
              "velocity": 61,
              "position": 11.25,
              "duration": 0.10416666666666667
            },
            {
              "pitch": 55,
              "velocity": 71,
              "position": 11.75,
              "duration": 0.09375
            },
            {
              "pitch": 59,
              "velocity": 79,
              "position": 11.75,
              "duration": 0.10416666666666667
            },
            {
              "pitch": 64,
              "velocity": 76,
              "position": 11.75,
              "duration": 0.10416666666666667
            },
            {
              "pitch": 55,
              "velocity": 92,
              "position": 12.25,
              "duration": 0.59375
            },
            {
              "pitch": 59,
              "velocity": 87,
              "position": 12.25,
              "duration": 0.59375
            },
            {
              "pitch": 64,
              "velocity": 91,
              "position": 12.25,
              "duration": 0.6041666666666666
            },
            {
              "pitch": 55,
              "velocity": 94,
              "position": 13,
              "duration": 0.09375
            },
            {
              "pitch": 59,
              "velocity": 102,
              "position": 13,
              "duration": 0.10416666666666667
            },
            {
              "pitch": 64,
              "velocity": 102,
              "position": 13,
              "duration": 0.10416666666666667
            },
            {
              "pitch": 55,
              "velocity": 71,
              "position": 13.5,
              "duration": 0.10416666666666667
            },
            {
              "pitch": 59,
              "velocity": 69,
              "position": 13.5,
              "duration": 0.10416666666666667
            },
            {
              "pitch": 64,
              "velocity": 75,
              "position": 13.5,
              "duration": 0.10416666666666667
            },
            {
              "pitch": 59,
              "velocity": 73,
              "position": 14,
              "duration": 0.09375
            },
            {
              "pitch": 65,
              "velocity": 75,
              "position": 14,
              "duration": 0.10416666666666667
            },
            {
              "pitch": 56,
              "velocity": 77,
              "position": 14,
              "duration": 0.11458333333333333
            },
            {
              "pitch": 56,
              "velocity": 89,
              "position": 14.75,
              "duration": 1.2395833333333333
            },
            {
              "pitch": 59,
              "velocity": 87,
              "position": 14.75,
              "duration": 1.2395833333333333
            },
            {
              "pitch": 65,
              "velocity": 99,
              "position": 14.75,
              "duration": 1.2395833333333333
            }
          ]
        },
        "12": {
          "ctab": {
            "srcChannel": 12,
            "name": "Pno",
            "accType": "CHORD2",
            "editable": false,
            "mutedNotes": [],
            "mutedChords": [
              "dim7",
              "dim",
              "minMaj7(9)",
              "minMaj7",
              "min7(11)",
              "min7(9)",
              "min(9)",
              "m7b5",
              "min7",
              "min6",
              "min"
            ],
            "autoStart": false,
            "sourceChordNote": 0,
            "sourceChordType": "Maj",
            "ctb2Low": null,
            "ctb2Main": {
              "ntr": "ROOT_TRANSPOSITION",
              "ntt": "BYPASS",
              "bassOn": false,
              "chordRootUpperLimit": 2,
              "noteLowLimit": 54,
              "noteHighLimit": 79,
              "rtr": "PITCH_SHIFT"
            },
            "ctb2High": null
          },
          "notes": [
            {
              "pitch": 53,
              "velocity": 57,
              "position": 0,
              "duration": 0.17708333333333334
            },
            {
              "pitch": 60,
              "velocity": 73,
              "position": 0,
              "duration": 0.17708333333333334
            },
            {
              "pitch": 64,
              "velocity": 73,
              "position": 0,
              "duration": 0.17708333333333334
            },
            {
              "pitch": 67,
              "velocity": 73,
              "position": 0,
              "duration": 0.17708333333333334
            },
            {
              "pitch": 91,
              "velocity": 90,
              "position": 0,
              "duration": 0.7083333333333334
            },
            {
              "pitch": 53,
              "velocity": 57,
              "position": 0.75,
              "duration": 0.17708333333333334
            },
            {
              "pitch": 60,
              "velocity": 73,
              "position": 0.75,
              "duration": 0.17708333333333334
            },
            {
              "pitch": 64,
              "velocity": 73,
              "position": 0.75,
              "duration": 0.17708333333333334
            },
            {
              "pitch": 67,
              "velocity": 73,
              "position": 0.75,
              "duration": 0.17708333333333334
            },
            {
              "pitch": 88,
              "velocity": 90,
              "position": 0.75,
              "duration": 0.23958333333333334
            },
            {
              "pitch": 53,
              "velocity": 40,
              "position": 1.25,
              "duration": 0.17708333333333334
            },
            {
              "pitch": 60,
              "velocity": 57,
              "position": 1.25,
              "duration": 0.17708333333333334
            },
            {
              "pitch": 64,
              "velocity": 57,
              "position": 1.25,
              "duration": 0.17708333333333334
            },
            {
              "pitch": 67,
              "velocity": 57,
              "position": 1.25,
              "duration": 0.17708333333333334
            },
            {
              "pitch": 84,
              "velocity": 73,
              "position": 1.25,
              "duration": 0.23958333333333334
            },
            {
              "pitch": 81,
              "velocity": 90,
              "position": 1.75,
              "duration": 1.2395833333333333
            },
            {
              "pitch": 88,
              "velocity": 90,
              "position": 3.25,
              "duration": 0.23958333333333334
            },
            {
              "pitch": 59,
              "velocity": 73,
              "position": 1.75,
              "duration": 1.7916666666666667
            },
            {
              "pitch": 67,
              "velocity": 73,
              "position": 1.75,
              "duration": 1.8020833333333333
            },
            {
              "pitch": 53,
              "velocity": 57,
              "position": 1.75,
              "duration": 1.84375
            },
            {
              "pitch": 64,
              "velocity": 73,
              "position": 1.75,
              "duration": 1.84375
            },
            {
              "pitch": 89,
              "velocity": 73,
              "position": 3.75,
              "duration": 0.23958333333333334
            },
            {
              "pitch": 91,
              "velocity": 90,
              "position": 4,
              "duration": 0.7395833333333334
            },
            {
              "pitch": 53,
              "velocity": 57,
              "position": 4.75,
              "duration": 0.17708333333333334
            },
            {
              "pitch": 60,
              "velocity": 73,
              "position": 4.75,
              "duration": 0.17708333333333334
            },
            {
              "pitch": 64,
              "velocity": 73,
              "position": 4.75,
              "duration": 0.17708333333333334
            },
            {
              "pitch": 67,
              "velocity": 73,
              "position": 4.75,
              "duration": 0.17708333333333334
            },
            {
              "pitch": 88,
              "velocity": 90,
              "position": 4.75,
              "duration": 0.23958333333333334
            },
            {
              "pitch": 53,
              "velocity": 40,
              "position": 5.25,
              "duration": 0.17708333333333334
            },
            {
              "pitch": 60,
              "velocity": 57,
              "position": 5.25,
              "duration": 0.17708333333333334
            },
            {
              "pitch": 64,
              "velocity": 57,
              "position": 5.25,
              "duration": 0.17708333333333334
            },
            {
              "pitch": 67,
              "velocity": 57,
              "position": 5.25,
              "duration": 0.17708333333333334
            },
            {
              "pitch": 84,
              "velocity": 73,
              "position": 5.25,
              "duration": 0.23958333333333334
            },
            {
              "pitch": 81,
              "velocity": 73,
              "position": 5.75,
              "duration": 0.23958333333333334
            },
            {
              "pitch": 68,
              "velocity": 73,
              "position": 6,
              "duration": 0.4479166666666667
            },
            {
              "pitch": 53,
              "velocity": 57,
              "position": 6,
              "duration": 0.46875
            },
            {
              "pitch": 64,
              "velocity": 73,
              "position": 6,
              "duration": 0.46875
            },
            {
              "pitch": 59,
              "velocity": 73,
              "position": 6,
              "duration": 0.4791666666666667
            },
            {
              "pitch": 80,
              "velocity": 90,
              "position": 6,
              "duration": 1.4895833333333333
            },
            {
              "pitch": 59,
              "velocity": 73,
              "position": 7,
              "duration": 0.5625
            },
            {
              "pitch": 68,
              "velocity": 73,
              "position": 7,
              "duration": 0.5729166666666666
            },
            {
              "pitch": 53,
              "velocity": 57,
              "position": 7,
              "duration": 0.5833333333333334
            },
            {
              "pitch": 64,
              "velocity": 73,
              "position": 7,
              "duration": 0.5833333333333334
            },
            {
              "pitch": 69,
              "velocity": 57,
              "position": 7.75,
              "duration": 0.14583333333333334
            },
            {
              "pitch": 53,
              "velocity": 40,
              "position": 7.75,
              "duration": 0.15625
            },
            {
              "pitch": 64,
              "velocity": 57,
              "position": 7.75,
              "duration": 0.15625
            },
            {
              "pitch": 60,
              "velocity": 57,
              "position": 7.75,
              "duration": 0.16666666666666666
            },
            {
              "pitch": 81,
              "velocity": 90,
              "position": 7.75,
              "duration": 0.23958333333333334
            },
            {
              "pitch": 60,
              "velocity": 73,
              "position": 8.25,
              "duration": 0.4895833333333333
            },
            {
              "pitch": 69,
              "velocity": 73,
              "position": 8.25,
              "duration": 0.4895833333333333
            },
            {
              "pitch": 53,
              "velocity": 57,
              "position": 8.25,
              "duration": 0.5416666666666666
            },
            {
              "pitch": 64,
              "velocity": 73,
              "position": 8.25,
              "duration": 0.5416666666666666
            },
            {
              "pitch": 91,
              "velocity": 90,
              "position": 8.25,
              "duration": 0.7395833333333334
            },
            {
              "pitch": 69,
              "velocity": 73,
              "position": 9,
              "duration": 0.15625
            },
            {
              "pitch": 60,
              "velocity": 73,
              "position": 9,
              "duration": 0.16666666666666666
            },
            {
              "pitch": 53,
              "velocity": 57,
              "position": 9,
              "duration": 0.17708333333333334
            },
            {
              "pitch": 64,
              "velocity": 73,
              "position": 9,
              "duration": 0.17708333333333334
            },
            {
              "pitch": 88,
              "velocity": 90,
              "position": 9,
              "duration": 0.23958333333333334
            },
            {
              "pitch": 53,
              "velocity": 40,
              "position": 9.5,
              "duration": 0.14583333333333334
            },
            {
              "pitch": 64,
              "velocity": 57,
              "position": 9.5,
              "duration": 0.14583333333333334
            },
            {
              "pitch": 69,
              "velocity": 57,
              "position": 9.5,
              "duration": 0.14583333333333334
            },
            {
              "pitch": 60,
              "velocity": 57,
              "position": 9.5,
              "duration": 0.17708333333333334
            },
            {
              "pitch": 81,
              "velocity": 73,
              "position": 9.5,
              "duration": 0.23958333333333334
            },
            {
              "pitch": 59,
              "velocity": 73,
              "position": 10,
              "duration": 0.5729166666666666
            },
            {
              "pitch": 68,
              "velocity": 73,
              "position": 10,
              "duration": 0.5729166666666666
            },
            {
              "pitch": 53,
              "velocity": 57,
              "position": 10,
              "duration": 0.6041666666666666
            },
            {
              "pitch": 64,
              "velocity": 73,
              "position": 10,
              "duration": 0.6041666666666666
            },
            {
              "pitch": 88,
              "velocity": 90,
              "position": 10,
              "duration": 0.7395833333333334
            },
            {
              "pitch": 68,
              "velocity": 57,
              "position": 11,
              "duration": 0.5104166666666666
            },
            {
              "pitch": 59,
              "velocity": 57,
              "position": 11,
              "duration": 0.53125
            },
            {
              "pitch": 53,
              "velocity": 40,
              "position": 11,
              "duration": 0.6041666666666666
            },
            {
              "pitch": 64,
              "velocity": 57,
              "position": 11,
              "duration": 0.6041666666666666
            },
            {
              "pitch": 88,
              "velocity": 90,
              "position": 11,
              "duration": 0.7395833333333334
            },
            {
              "pitch": 62,
              "velocity": 73,
              "position": 11.75,
              "duration": 2
            },
            {
              "pitch": 67,
              "velocity": 73,
              "position": 11.75,
              "duration": 2.0729166666666665
            },
            {
              "pitch": 52,
              "velocity": 57,
              "position": 11.75,
              "duration": 2.0833333333333335
            },
            {
              "pitch": 59,
              "velocity": 73,
              "position": 11.75,
              "duration": 2.0833333333333335
            },
            {
              "pitch": 53,
              "velocity": 57,
              "position": 14,
              "duration": 0.15625
            },
            {
              "pitch": 59,
              "velocity": 73,
              "position": 14,
              "duration": 0.15625
            },
            {
              "pitch": 64,
              "velocity": 73,
              "position": 14,
              "duration": 0.15625
            },
            {
              "pitch": 67,
              "velocity": 73,
              "position": 14,
              "duration": 0.15625
            },
            {
              "pitch": 53,
              "velocity": 57,
              "position": 14.75,
              "duration": 1.2395833333333333
            },
            {
              "pitch": 59,
              "velocity": 73,
              "position": 14.75,
              "duration": 1.2395833333333333
            },
            {
              "pitch": 64,
              "velocity": 73,
              "position": 14.75,
              "duration": 1.2395833333333333
            },
            {
              "pitch": 67,
              "velocity": 73,
              "position": 14.75,
              "duration": 1.2395833333333333
            },
            {
              "pitch": 84,
              "velocity": 90,
              "position": 11.75,
              "duration": 4.25
            }
          ]
        },
        "13": {
          "ctab": {
            "srcChannel": 13,
            "name": "Str",
            "accType": "PAD",
            "editable": false,
            "mutedNotes": [],
            "mutedChords": [
              "dim7",
              "dim",
              "minMaj7(9)",
              "minMaj7",
              "min7(11)",
              "min7(9)",
              "min(9)",
              "m7b5",
              "min7",
              "min6",
              "min"
            ],
            "autoStart": false,
            "sourceChordNote": 0,
            "sourceChordType": "Maj",
            "ctb2Low": null,
            "ctb2Main": {
              "ntr": "ROOT_TRANSPOSITION",
              "ntt": "BYPASS",
              "bassOn": false,
              "chordRootUpperLimit": 5,
              "noteLowLimit": 0,
              "noteHighLimit": 127,
              "rtr": "PITCH_SHIFT"
            },
            "ctb2High": null
          },
          "notes": [
            {
              "pitch": 60,
              "velocity": 46,
              "position": 0.010416666666666666,
              "duration": 1.71875
            },
            {
              "pitch": 59,
              "velocity": 46,
              "position": 1.75,
              "duration": 2.21875
            },
            {
              "pitch": 60,
              "velocity": 46,
              "position": 4,
              "duration": 1.96875
            },
            {
              "pitch": 67,
              "velocity": 46,
              "position": 0.010416666666666666,
              "duration": 5.96875
            },
            {
              "pitch": 59,
              "velocity": 46,
              "position": 6,
              "duration": 1.96875
            },
            {
              "pitch": 68,
              "velocity": 46,
              "position": 6,
              "duration": 1.96875
            },
            {
              "pitch": 60,
              "velocity": 46,
              "position": 8,
              "duration": 1.96875
            },
            {
              "pitch": 69,
              "velocity": 46,
              "position": 8,
              "duration": 1.96875
            },
            {
              "pitch": 59,
              "velocity": 46,
              "position": 10,
              "duration": 1.71875
            },
            {
              "pitch": 68,
              "velocity": 46,
              "position": 10,
              "duration": 1.71875
            },
            {
              "pitch": 65,
              "velocity": 46,
              "position": 0.010416666666666666,
              "duration": 11.71875
            },
            {
              "pitch": 76,
              "velocity": 46,
              "position": 0.010416666666666666,
              "duration": 11.71875
            },
            {
              "pitch": 60,
              "velocity": 46,
              "position": 11.75,
              "duration": 2.21875
            },
            {
              "pitch": 72,
              "velocity": 46,
              "position": 11.75,
              "duration": 2.21875
            },
            {
              "pitch": 59,
              "velocity": 46,
              "position": 14,
              "duration": 1.46875
            },
            {
              "pitch": 64,
              "velocity": 46,
              "position": 11.75,
              "duration": 3.71875
            },
            {
              "pitch": 67,
              "velocity": 46,
              "position": 11.75,
              "duration": 3.71875
            },
            {
              "pitch": 71,
              "velocity": 46,
              "position": 14,
              "duration": 1.46875
            }
          ]
        },
        "14": {
          "ctab": {
            "srcChannel": 14,
            "name": "Vox",
            "accType": "PHRASE1",
            "editable": false,
            "mutedNotes": [],
            "mutedChords": [
              "dim7",
              "dim",
              "minMaj7(9)",
              "minMaj7",
              "min7(11)",
              "min7(9)",
              "min(9)",
              "m7b5",
              "min7",
              "min6",
              "min"
            ],
            "autoStart": false,
            "sourceChordNote": 0,
            "sourceChordType": "Maj",
            "ctb2Low": null,
            "ctb2Main": {
              "ntr": "ROOT_TRANSPOSITION",
              "ntt": "BYPASS",
              "bassOn": false,
              "chordRootUpperLimit": 2,
              "noteLowLimit": 0,
              "noteHighLimit": 127,
              "rtr": "PITCH_SHIFT"
            },
            "ctb2High": null
          },
          "notes": [
            {
              "pitch": 79,
              "velocity": 100,
              "position": 0,
              "duration": 0.6875
            },
            {
              "pitch": 76,
              "velocity": 100,
              "position": 0.75,
              "duration": 0.23958333333333334
            },
            {
              "pitch": 72,
              "velocity": 80,
              "position": 1.25,
              "duration": 0.23958333333333334
            },
            {
              "pitch": 69,
              "velocity": 100,
              "position": 1.75,
              "duration": 1.2395833333333333
            },
            {
              "pitch": 76,
              "velocity": 100,
              "position": 3.25,
              "duration": 0.23958333333333334
            },
            {
              "pitch": 77,
              "velocity": 80,
              "position": 3.75,
              "duration": 0.23958333333333334
            },
            {
              "pitch": 79,
              "velocity": 100,
              "position": 4,
              "duration": 0.7395833333333334
            },
            {
              "pitch": 76,
              "velocity": 100,
              "position": 4.75,
              "duration": 0.23958333333333334
            },
            {
              "pitch": 72,
              "velocity": 80,
              "position": 5.25,
              "duration": 0.23958333333333334
            },
            {
              "pitch": 69,
              "velocity": 80,
              "position": 5.75,
              "duration": 0.23958333333333334
            },
            {
              "pitch": 68,
              "velocity": 100,
              "position": 6,
              "duration": 1.4895833333333333
            },
            {
              "pitch": 69,
              "velocity": 100,
              "position": 7.75,
              "duration": 0.23958333333333334
            },
            {
              "pitch": 79,
              "velocity": 100,
              "position": 8.25,
              "duration": 0.7395833333333334
            },
            {
              "pitch": 76,
              "velocity": 100,
              "position": 9,
              "duration": 0.23958333333333334
            },
            {
              "pitch": 69,
              "velocity": 80,
              "position": 9.5,
              "duration": 0.23958333333333334
            },
            {
              "pitch": 76,
              "velocity": 100,
              "position": 10,
              "duration": 0.7395833333333334
            },
            {
              "pitch": 76,
              "velocity": 100,
              "position": 11,
              "duration": 0.7395833333333334
            },
            {
              "pitch": 72,
              "velocity": 100,
              "position": 11.75,
              "duration": 2.2708333333333335
            }
          ]
        }
      }
    },
    "Ending_C": {
      "type": "Ending_C",
      "sizeInBeats": 20,
      "channels": {
        "1": {
          "ctab": {
            "srcChannel": 1,
            "name": "Bass",
            "accType": "BASS",
            "editable": false,
            "mutedNotes": [],
            "mutedChords": [
              "1+2+5",
              "sus4",
              "1+5",
              "1+8",
              "7aug",
              "Maj7aug",
              "7(#9)",
              "7(b13)",
              "7(b9)",
              "7(13)",
              "7#11",
              "7(9)",
              "7b5",
              "7sus4",
              "7th",
              "aug",
              "Maj6(9)",
              "Maj7(9)",
              "Maj(9)",
              "Maj7#11",
              "Maj7",
              "Maj6",
              "Maj"
            ],
            "autoStart": false,
            "sourceChordNote": 0,
            "sourceChordType": "Maj",
            "ctb2Low": null,
            "ctb2Main": {
              "ntr": "ROOT_TRANSPOSITION",
              "ntt": "BYPASS",
              "bassOn": false,
              "chordRootUpperLimit": 8,
              "noteLowLimit": 28,
              "noteHighLimit": 127,
              "rtr": "PITCH_SHIFT"
            },
            "ctb2High": null
          },
          "notes": [
            {
              "pitch": 24,
              "velocity": 98,
              "position": 0.010416666666666666,
              "duration": 0.3854166666666667
            },
            {
              "pitch": 24,
              "velocity": 80,
              "position": 0.75,
              "duration": 0.09375
            },
            {
              "pitch": 31,
              "velocity": 98,
              "position": 1,
              "duration": 0.9895833333333334
            },
            {
              "pitch": 24,
              "velocity": 98,
              "position": 2,
              "duration": 0.3854166666666667
            },
            {
              "pitch": 24,
              "velocity": 80,
              "position": 2.75,
              "duration": 0.09375
            },
            {
              "pitch": 31,
              "velocity": 98,
              "position": 3,
              "duration": 0.9895833333333334
            },
            {
              "pitch": 32,
              "velocity": 98,
              "position": 4,
              "duration": 0.3854166666666667
            },
            {
              "pitch": 32,
              "velocity": 80,
              "position": 4.75,
              "duration": 0.09375
            },
            {
              "pitch": 27,
              "velocity": 98,
              "position": 5,
              "duration": 0.9895833333333334
            },
            {
              "pitch": 32,
              "velocity": 98,
              "position": 6,
              "duration": 0.3854166666666667
            },
            {
              "pitch": 32,
              "velocity": 80,
              "position": 6.75,
              "duration": 0.09375
            },
            {
              "pitch": 27,
              "velocity": 98,
              "position": 7,
              "duration": 0.4895833333333333
            },
            {
              "pitch": 27,
              "velocity": 98,
              "position": 7.5,
              "duration": 0.4895833333333333
            },
            {
              "pitch": 26,
              "velocity": 98,
              "position": 8,
              "duration": 0.3854166666666667
            },
            {
              "pitch": 26,
              "velocity": 80,
              "position": 8.75,
              "duration": 0.09375
            },
            {
              "pitch": 32,
              "velocity": 98,
              "position": 9,
              "duration": 0.9895833333333334
            },
            {
              "pitch": 31,
              "velocity": 98,
              "position": 10,
              "duration": 0.3854166666666667
            },
            {
              "pitch": 31,
              "velocity": 98,
              "position": 11,
              "duration": 0.7395833333333334
            },
            {
              "pitch": 24,
              "velocity": 98,
              "position": 11.75,
              "duration": 6.489583333333333
            }
          ]
        },
        "2": {
          "ctab": {
            "srcChannel": 2,
            "name": "NGt 1",
            "accType": "CHORD1",
            "editable": false,
            "mutedNotes": [],
            "mutedChords": [
              "1+2+5",
              "sus4",
              "1+5",
              "1+8",
              "7aug",
              "Maj7aug",
              "7(#9)",
              "7(b13)",
              "7(b9)",
              "7(13)",
              "7#11",
              "7(9)",
              "7b5",
              "7sus4",
              "7th",
              "aug",
              "Maj6(9)",
              "Maj7(9)",
              "Maj(9)",
              "Maj7#11",
              "Maj7",
              "Maj6",
              "Maj"
            ],
            "autoStart": false,
            "sourceChordNote": 0,
            "sourceChordType": "Maj",
            "ctb2Low": null,
            "ctb2Main": {
              "ntr": "ROOT_TRANSPOSITION",
              "ntt": "BYPASS",
              "bassOn": false,
              "chordRootUpperLimit": 11,
              "noteLowLimit": 54,
              "noteHighLimit": 65,
              "rtr": "PITCH_SHIFT"
            },
            "ctb2High": null
          },
          "notes": [
            {
              "pitch": 58,
              "velocity": 97,
              "position": 0.25,
              "duration": 0.59375
            },
            {
              "pitch": 63,
              "velocity": 97,
              "position": 0.25,
              "duration": 0.59375
            },
            {
              "pitch": 55,
              "velocity": 86,
              "position": 0.25,
              "duration": 0.6041666666666666
            },
            {
              "pitch": 55,
              "velocity": 88,
              "position": 1,
              "duration": 0.09375
            },
            {
              "pitch": 58,
              "velocity": 93,
              "position": 1,
              "duration": 0.10416666666666667
            },
            {
              "pitch": 63,
              "velocity": 87,
              "position": 1,
              "duration": 0.10416666666666667
            },
            {
              "pitch": 55,
              "velocity": 80,
              "position": 1.5,
              "duration": 0.10416666666666667
            },
            {
              "pitch": 58,
              "velocity": 69,
              "position": 1.5,
              "duration": 0.10416666666666667
            },
            {
              "pitch": 63,
              "velocity": 82,
              "position": 1.5,
              "duration": 0.11458333333333333
            },
            {
              "pitch": 55,
              "velocity": 73,
              "position": 2,
              "duration": 0.10416666666666667
            },
            {
              "pitch": 58,
              "velocity": 79,
              "position": 2,
              "duration": 0.10416666666666667
            },
            {
              "pitch": 63,
              "velocity": 79,
              "position": 2,
              "duration": 0.10416666666666667
            },
            {
              "pitch": 63,
              "velocity": 89,
              "position": 2.5,
              "duration": 0.59375
            },
            {
              "pitch": 55,
              "velocity": 96,
              "position": 2.5,
              "duration": 0.6041666666666666
            },
            {
              "pitch": 58,
              "velocity": 90,
              "position": 2.5,
              "duration": 0.6041666666666666
            },
            {
              "pitch": 55,
              "velocity": 60,
              "position": 3.25,
              "duration": 0.09375
            },
            {
              "pitch": 63,
              "velocity": 65,
              "position": 3.25,
              "duration": 0.09375
            },
            {
              "pitch": 58,
              "velocity": 54,
              "position": 3.25,
              "duration": 0.10416666666666667
            },
            {
              "pitch": 60,
              "velocity": 75,
              "position": 3.75,
              "duration": 0.09375
            },
            {
              "pitch": 55,
              "velocity": 78,
              "position": 3.75,
              "duration": 0.10416666666666667
            },
            {
              "pitch": 63,
              "velocity": 82,
              "position": 3.75,
              "duration": 0.10416666666666667
            },
            {
              "pitch": 55,
              "velocity": 91,
              "position": 4.25,
              "duration": 0.6041666666666666
            },
            {
              "pitch": 60,
              "velocity": 94,
              "position": 4.25,
              "duration": 0.6041666666666666
            },
            {
              "pitch": 63,
              "velocity": 92,
              "position": 4.25,
              "duration": 0.6041666666666666
            },
            {
              "pitch": 55,
              "velocity": 88,
              "position": 5,
              "duration": 0.09375
            },
            {
              "pitch": 63,
              "velocity": 101,
              "position": 5,
              "duration": 0.09375
            },
            {
              "pitch": 60,
              "velocity": 87,
              "position": 5,
              "duration": 0.10416666666666667
            },
            {
              "pitch": 55,
              "velocity": 71,
              "position": 5.5,
              "duration": 0.10416666666666667
            },
            {
              "pitch": 60,
              "velocity": 74,
              "position": 5.5,
              "duration": 0.10416666666666667
            },
            {
              "pitch": 63,
              "velocity": 71,
              "position": 5.5,
              "duration": 0.10416666666666667
            },
            {
              "pitch": 60,
              "velocity": 80,
              "position": 6,
              "duration": 0.09375
            },
            {
              "pitch": 55,
              "velocity": 81,
              "position": 6,
              "duration": 0.10416666666666667
            },
            {
              "pitch": 63,
              "velocity": 77,
              "position": 6,
              "duration": 0.11458333333333333
            },
            {
              "pitch": 60,
              "velocity": 87,
              "position": 6.5,
              "duration": 0.59375
            },
            {
              "pitch": 55,
              "velocity": 94,
              "position": 6.5,
              "duration": 0.6041666666666666
            },
            {
              "pitch": 63,
              "velocity": 87,
              "position": 6.5,
              "duration": 0.6041666666666666
            },
            {
              "pitch": 55,
              "velocity": 64,
              "position": 7.25,
              "duration": 0.10416666666666667
            },
            {
              "pitch": 63,
              "velocity": 66,
              "position": 7.25,
              "duration": 0.10416666666666667
            },
            {
              "pitch": 60,
              "velocity": 53,
              "position": 7.25,
              "duration": 0.11458333333333333
            },
            {
              "pitch": 56,
              "velocity": 72,
              "position": 7.75,
              "duration": 0.09375
            },
            {
              "pitch": 65,
              "velocity": 84,
              "position": 7.75,
              "duration": 0.09375
            },
            {
              "pitch": 60,
              "velocity": 83,
              "position": 7.75,
              "duration": 0.10416666666666667
            },
            {
              "pitch": 56,
              "velocity": 88,
              "position": 8.25,
              "duration": 0.59375
            },
            {
              "pitch": 65,
              "velocity": 102,
              "position": 8.25,
              "duration": 0.59375
            },
            {
              "pitch": 60,
              "velocity": 88,
              "position": 8.25,
              "duration": 0.6041666666666666
            },
            {
              "pitch": 56,
              "velocity": 89,
              "position": 9,
              "duration": 0.10416666666666667
            },
            {
              "pitch": 60,
              "velocity": 99,
              "position": 9,
              "duration": 0.10416666666666667
            },
            {
              "pitch": 65,
              "velocity": 99,
              "position": 9,
              "duration": 0.10416666666666667
            },
            {
              "pitch": 59,
              "velocity": 73,
              "position": 9.75,
              "duration": 0.10416666666666667
            },
            {
              "pitch": 63,
              "velocity": 71,
              "position": 9.75,
              "duration": 0.10416666666666667
            },
            {
              "pitch": 65,
              "velocity": 75,
              "position": 9.75,
              "duration": 0.11458333333333333
            },
            {
              "pitch": 59,
              "velocity": 97,
              "position": 10.25,
              "duration": 0.09375
            },
            {
              "pitch": 63,
              "velocity": 94,
              "position": 10.25,
              "duration": 0.09375
            },
            {
              "pitch": 65,
              "velocity": 88,
              "position": 10.25,
              "duration": 0.10416666666666667
            },
            {
              "pitch": 59,
              "velocity": 97,
              "position": 11,
              "duration": 0.59375
            },
            {
              "pitch": 63,
              "velocity": 94,
              "position": 11,
              "duration": 0.59375
            },
            {
              "pitch": 65,
              "velocity": 88,
              "position": 11,
              "duration": 0.6041666666666666
            },
            {
              "pitch": 55,
              "velocity": 89,
              "position": 11.75,
              "duration": 6.489583333333333
            },
            {
              "pitch": 60,
              "velocity": 87,
              "position": 11.75,
              "duration": 6.489583333333333
            },
            {
              "pitch": 63,
              "velocity": 99,
              "position": 11.75,
              "duration": 6.489583333333333
            }
          ]
        },
        "3": {
          "ctab": {
            "srcChannel": 3,
            "name": "Pno",
            "accType": "CHORD2",
            "editable": false,
            "mutedNotes": [],
            "mutedChords": [
              "1+2+5",
              "sus4",
              "1+5",
              "1+8",
              "7aug",
              "Maj7aug",
              "7(#9)",
              "7(b13)",
              "7(b9)",
              "7(13)",
              "7#11",
              "7(9)",
              "7b5",
              "7sus4",
              "7th",
              "aug",
              "Maj6(9)",
              "Maj7(9)",
              "Maj(9)",
              "Maj7#11",
              "Maj7",
              "Maj6",
              "Maj"
            ],
            "autoStart": false,
            "sourceChordNote": 0,
            "sourceChordType": "Maj",
            "ctb2Low": null,
            "ctb2Main": {
              "ntr": "ROOT_TRANSPOSITION",
              "ntt": "BYPASS",
              "bassOn": false,
              "chordRootUpperLimit": 2,
              "noteLowLimit": 54,
              "noteHighLimit": 79,
              "rtr": "PITCH_SHIFT"
            },
            "ctb2High": null
          },
          "notes": [
            {
              "pitch": 91,
              "velocity": 94,
              "position": 0.010416666666666666,
              "duration": 2.4270833333333335
            },
            {
              "pitch": 34,
              "velocity": 76,
              "position": 0.010416666666666666,
              "duration": 2.7604166666666665
            },
            {
              "pitch": 38,
              "velocity": 76,
              "position": 0.010416666666666666,
              "duration": 2.7604166666666665
            },
            {
              "pitch": 39,
              "velocity": 76,
              "position": 0.010416666666666666,
              "duration": 2.7604166666666665
            },
            {
              "pitch": 43,
              "velocity": 76,
              "position": 0.010416666666666666,
              "duration": 2.7604166666666665
            },
            {
              "pitch": 89,
              "velocity": 94,
              "position": 2.75,
              "duration": 0.23958333333333334
            },
            {
              "pitch": 34,
              "velocity": 60,
              "position": 3.25,
              "duration": 0.15625
            },
            {
              "pitch": 39,
              "velocity": 60,
              "position": 3.25,
              "duration": 0.15625
            },
            {
              "pitch": 43,
              "velocity": 60,
              "position": 3.25,
              "duration": 0.15625
            },
            {
              "pitch": 38,
              "velocity": 60,
              "position": 3.25,
              "duration": 0.16666666666666666
            },
            {
              "pitch": 86,
              "velocity": 76,
              "position": 3.25,
              "duration": 0.23958333333333334
            },
            {
              "pitch": 87,
              "velocity": 94,
              "position": 3.75,
              "duration": 2.7395833333333335
            },
            {
              "pitch": 36,
              "velocity": 76,
              "position": 3.75,
              "duration": 3.0104166666666665
            },
            {
              "pitch": 43,
              "velocity": 76,
              "position": 3.75,
              "duration": 3.0104166666666665
            },
            {
              "pitch": 34,
              "velocity": 76,
              "position": 3.75,
              "duration": 3.0729166666666665
            },
            {
              "pitch": 39,
              "velocity": 76,
              "position": 3.75,
              "duration": 3.0729166666666665
            },
            {
              "pitch": 86,
              "velocity": 94,
              "position": 6.75,
              "duration": 0.23958333333333334
            },
            {
              "pitch": 43,
              "velocity": 60,
              "position": 7.25,
              "duration": 0.14583333333333334
            },
            {
              "pitch": 34,
              "velocity": 60,
              "position": 7.25,
              "duration": 0.15625
            },
            {
              "pitch": 39,
              "velocity": 60,
              "position": 7.25,
              "duration": 0.15625
            },
            {
              "pitch": 36,
              "velocity": 60,
              "position": 7.25,
              "duration": 0.16666666666666666
            },
            {
              "pitch": 82,
              "velocity": 76,
              "position": 7.25,
              "duration": 0.23958333333333334
            },
            {
              "pitch": 84,
              "velocity": 94,
              "position": 7.75,
              "duration": 1.4895833333333333
            },
            {
              "pitch": 36,
              "velocity": 76,
              "position": 7.75,
              "duration": 1.9895833333333333
            },
            {
              "pitch": 38,
              "velocity": 76,
              "position": 7.75,
              "duration": 1.9895833333333333
            },
            {
              "pitch": 41,
              "velocity": 76,
              "position": 7.75,
              "duration": 1.9895833333333333
            },
            {
              "pitch": 44,
              "velocity": 76,
              "position": 7.75,
              "duration": 1.9895833333333333
            },
            {
              "pitch": 79,
              "velocity": 76,
              "position": 9.5,
              "duration": 0.23958333333333334
            },
            {
              "pitch": 35,
              "velocity": 76,
              "position": 10,
              "duration": 0.5729166666666666
            },
            {
              "pitch": 44,
              "velocity": 76,
              "position": 10,
              "duration": 0.5729166666666666
            },
            {
              "pitch": 39,
              "velocity": 76,
              "position": 10,
              "duration": 0.6041666666666666
            },
            {
              "pitch": 41,
              "velocity": 76,
              "position": 10,
              "duration": 0.6041666666666666
            },
            {
              "pitch": 80,
              "velocity": 94,
              "position": 10,
              "duration": 0.7395833333333334
            },
            {
              "pitch": 44,
              "velocity": 60,
              "position": 11,
              "duration": 0.5104166666666666
            },
            {
              "pitch": 35,
              "velocity": 60,
              "position": 11,
              "duration": 0.53125
            },
            {
              "pitch": 39,
              "velocity": 60,
              "position": 11,
              "duration": 0.6041666666666666
            },
            {
              "pitch": 41,
              "velocity": 60,
              "position": 11,
              "duration": 0.6041666666666666
            },
            {
              "pitch": 83,
              "velocity": 94,
              "position": 11,
              "duration": 0.7395833333333334
            },
            {
              "pitch": 36,
              "velocity": 76,
              "position": 11.75,
              "duration": 6.489583333333333
            },
            {
              "pitch": 39,
              "velocity": 76,
              "position": 11.75,
              "duration": 6.489583333333333
            },
            {
              "pitch": 43,
              "velocity": 76,
              "position": 11.75,
              "duration": 6.489583333333333
            },
            {
              "pitch": 84,
              "velocity": 94,
              "position": 11.75,
              "duration": 6.489583333333333
            }
          ]
        },
        "4": {
          "ctab": {
            "srcChannel": 4,
            "name": "Str",
            "accType": "PAD",
            "editable": false,
            "mutedNotes": [],
            "mutedChords": [
              "1+2+5",
              "sus4",
              "1+5",
              "1+8",
              "7aug",
              "Maj7aug",
              "7(#9)",
              "7(b13)",
              "7(b9)",
              "7(13)",
              "7#11",
              "7(9)",
              "7b5",
              "7sus4",
              "7th",
              "aug",
              "Maj6(9)",
              "Maj7(9)",
              "Maj(9)",
              "Maj7#11",
              "Maj7",
              "Maj6",
              "Maj"
            ],
            "autoStart": false,
            "sourceChordNote": 0,
            "sourceChordType": "Maj",
            "ctb2Low": null,
            "ctb2Main": {
              "ntr": "ROOT_TRANSPOSITION",
              "ntt": "BYPASS",
              "bassOn": false,
              "chordRootUpperLimit": 5,
              "noteLowLimit": 0,
              "noteHighLimit": 127,
              "rtr": "PITCH_SHIFT"
            },
            "ctb2High": null
          },
          "notes": [
            {
              "pitch": 58,
              "velocity": 46,
              "position": 0.010416666666666666,
              "duration": 3.7291666666666665
            },
            {
              "pitch": 63,
              "velocity": 46,
              "position": 0.010416666666666666,
              "duration": 3.7291666666666665
            },
            {
              "pitch": 74,
              "velocity": 46,
              "position": 0.010416666666666666,
              "duration": 3.7291666666666665
            },
            {
              "pitch": 67,
              "velocity": 46,
              "position": 0.010416666666666666,
              "duration": 7.729166666666667
            },
            {
              "pitch": 70,
              "velocity": 46,
              "position": 3.75,
              "duration": 3.9895833333333335
            },
            {
              "pitch": 75,
              "velocity": 46,
              "position": 3.75,
              "duration": 3.9895833333333335
            },
            {
              "pitch": 60,
              "velocity": 46,
              "position": 3.75,
              "duration": 5.989583333333333
            },
            {
              "pitch": 74,
              "velocity": 46,
              "position": 7.75,
              "duration": 1.9895833333333333
            },
            {
              "pitch": 59,
              "velocity": 46,
              "position": 9.75,
              "duration": 1.9895833333333333
            },
            {
              "pitch": 65,
              "velocity": 46,
              "position": 7.75,
              "duration": 3.9895833333333335
            },
            {
              "pitch": 68,
              "velocity": 46,
              "position": 7.75,
              "duration": 3.9895833333333335
            },
            {
              "pitch": 75,
              "velocity": 46,
              "position": 9.75,
              "duration": 1.9895833333333333
            },
            {
              "pitch": 60,
              "velocity": 46,
              "position": 11.75,
              "duration": 6.489583333333333
            },
            {
              "pitch": 63,
              "velocity": 46,
              "position": 11.75,
              "duration": 6.489583333333333
            },
            {
              "pitch": 67,
              "velocity": 46,
              "position": 11.75,
              "duration": 6.489583333333333
            },
            {
              "pitch": 72,
              "velocity": 46,
              "position": 11.75,
              "duration": 6.489583333333333
            }
          ]
        },
        "5": {
          "ctab": {
            "srcChannel": 5,
            "name": "Vox",
            "accType": "PHRASE1",
            "editable": false,
            "mutedNotes": [],
            "mutedChords": [
              "1+2+5",
              "sus4",
              "1+5",
              "1+8",
              "7aug",
              "Maj7aug",
              "7(#9)",
              "7(b13)",
              "7(b9)",
              "7(13)",
              "7#11",
              "7(9)",
              "7b5",
              "7sus4",
              "7th",
              "aug",
              "Maj6(9)",
              "Maj7(9)",
              "Maj(9)",
              "Maj7#11",
              "Maj7",
              "Maj6",
              "Maj"
            ],
            "autoStart": false,
            "sourceChordNote": 0,
            "sourceChordType": "Maj",
            "ctb2Low": null,
            "ctb2Main": {
              "ntr": "ROOT_TRANSPOSITION",
              "ntt": "BYPASS",
              "bassOn": false,
              "chordRootUpperLimit": 2,
              "noteLowLimit": 0,
              "noteHighLimit": 127,
              "rtr": "PITCH_SHIFT"
            },
            "ctb2High": null
          },
          "notes": [
            {
              "pitch": 79,
              "velocity": 100,
              "position": 0.010416666666666666,
              "duration": 2.4479166666666665
            },
            {
              "pitch": 77,
              "velocity": 100,
              "position": 2.75,
              "duration": 0.23958333333333334
            },
            {
              "pitch": 74,
              "velocity": 80,
              "position": 3.25,
              "duration": 0.23958333333333334
            },
            {
              "pitch": 75,
              "velocity": 100,
              "position": 3.75,
              "duration": 2.7395833333333335
            },
            {
              "pitch": 74,
              "velocity": 100,
              "position": 6.75,
              "duration": 0.23958333333333334
            },
            {
              "pitch": 70,
              "velocity": 80,
              "position": 7.25,
              "duration": 0.23958333333333334
            },
            {
              "pitch": 72,
              "velocity": 100,
              "position": 7.75,
              "duration": 1.4895833333333333
            },
            {
              "pitch": 67,
              "velocity": 80,
              "position": 9.5,
              "duration": 0.23958333333333334
            },
            {
              "pitch": 68,
              "velocity": 100,
              "position": 10,
              "duration": 0.7395833333333334
            },
            {
              "pitch": 71,
              "velocity": 100,
              "position": 11,
              "duration": 0.7395833333333334
            },
            {
              "pitch": 72,
              "velocity": 100,
              "position": 11.75,
              "duration": 6.489583333333333
            }
          ]
        },
        "8": {
          "ctab": {
            "srcChannel": 8,
            "name": "Perc",
            "accType": "SUBRHYTHM",
            "editable": false,
            "mutedNotes": [],
            "mutedChords": [],
            "autoStart": true,
            "sourceChordNote": 0,
            "sourceChordType": "Maj7",
            "ctb2Low": null,
            "ctb2Main": {
              "ntr": "ROOT_FIXED",
              "ntt": "BYPASS",
              "bassOn": false,
              "chordRootUpperLimit": 6,
              "noteLowLimit": 0,
              "noteHighLimit": 127,
              "rtr": "PITCH_SHIFT"
            },
            "ctb2High": null
          },
          "notes": [
            {
              "pitch": 68,
              "velocity": 49,
              "position": 0,
              "duration": 0.010416666666666666
            },
            {
              "pitch": 80,
              "velocity": 40,
              "position": 0,
              "duration": 0.010416666666666666
            },
            {
              "pitch": 82,
              "velocity": 46,
              "position": 0,
              "duration": 0.010416666666666666
            },
            {
              "pitch": 81,
              "velocity": 40,
              "position": 0.2604166666666667,
              "duration": 0.010416666666666666
            },
            {
              "pitch": 82,
              "velocity": 29,
              "position": 0.2604166666666667,
              "duration": 0.010416666666666666
            },
            {
              "pitch": 81,
              "velocity": 10,
              "position": 0.4895833333333333,
              "duration": 0.010416666666666666
            },
            {
              "pitch": 82,
              "velocity": 46,
              "position": 0.4895833333333333,
              "duration": 0.010416666666666666
            },
            {
              "pitch": 67,
              "velocity": 49,
              "position": 0.5104166666666666,
              "duration": 0.010416666666666666
            },
            {
              "pitch": 80,
              "velocity": 20,
              "position": 0.7395833333333334,
              "duration": 0.010416666666666666
            },
            {
              "pitch": 82,
              "velocity": 63,
              "position": 0.7395833333333334,
              "duration": 0.010416666666666666
            },
            {
              "pitch": 80,
              "velocity": 40,
              "position": 0.9895833333333334,
              "duration": 0.010416666666666666
            },
            {
              "pitch": 82,
              "velocity": 46,
              "position": 0.9895833333333334,
              "duration": 0.010416666666666666
            },
            {
              "pitch": 81,
              "velocity": 40,
              "position": 1.2604166666666667,
              "duration": 0.010416666666666666
            },
            {
              "pitch": 82,
              "velocity": 29,
              "position": 1.2604166666666667,
              "duration": 0.010416666666666666
            },
            {
              "pitch": 68,
              "velocity": 39,
              "position": 1.2916666666666667,
              "duration": 0.010416666666666666
            },
            {
              "pitch": 81,
              "velocity": 10,
              "position": 1.4895833333333333,
              "duration": 0.010416666666666666
            },
            {
              "pitch": 82,
              "velocity": 46,
              "position": 1.4895833333333333,
              "duration": 0.010416666666666666
            },
            {
              "pitch": 80,
              "velocity": 20,
              "position": 1.7395833333333333,
              "duration": 0.010416666666666666
            },
            {
              "pitch": 82,
              "velocity": 63,
              "position": 1.7395833333333333,
              "duration": 0.010416666666666666
            },
            {
              "pitch": 68,
              "velocity": 49,
              "position": 1.8020833333333333,
              "duration": 0.010416666666666666
            },
            {
              "pitch": 80,
              "velocity": 40,
              "position": 1.9895833333333333,
              "duration": 0.010416666666666666
            },
            {
              "pitch": 82,
              "velocity": 46,
              "position": 1.9895833333333333,
              "duration": 0.010416666666666666
            },
            {
              "pitch": 81,
              "velocity": 40,
              "position": 2.2604166666666665,
              "duration": 0.010416666666666666
            },
            {
              "pitch": 82,
              "velocity": 29,
              "position": 2.2604166666666665,
              "duration": 0.010416666666666666
            },
            {
              "pitch": 67,
              "velocity": 49,
              "position": 2.2916666666666665,
              "duration": 0.010416666666666666
            },
            {
              "pitch": 81,
              "velocity": 10,
              "position": 2.4895833333333335,
              "duration": 0.010416666666666666
            },
            {
              "pitch": 82,
              "velocity": 46,
              "position": 2.4895833333333335,
              "duration": 0.010416666666666666
            },
            {
              "pitch": 80,
              "velocity": 20,
              "position": 2.7395833333333335,
              "duration": 0.010416666666666666
            },
            {
              "pitch": 82,
              "velocity": 63,
              "position": 2.7395833333333335,
              "duration": 0.010416666666666666
            },
            {
              "pitch": 80,
              "velocity": 40,
              "position": 2.9895833333333335,
              "duration": 0.010416666666666666
            },
            {
              "pitch": 82,
              "velocity": 46,
              "position": 2.9895833333333335,
              "duration": 0.010416666666666666
            },
            {
              "pitch": 81,
              "velocity": 40,
              "position": 3.2604166666666665,
              "duration": 0.010416666666666666
            },
            {
              "pitch": 82,
              "velocity": 29,
              "position": 3.2604166666666665,
              "duration": 0.010416666666666666
            },
            {
              "pitch": 68,
              "velocity": 39,
              "position": 3.4895833333333335,
              "duration": 0.010416666666666666
            },
            {
              "pitch": 81,
              "velocity": 10,
              "position": 3.4895833333333335,
              "duration": 0.010416666666666666
            },
            {
              "pitch": 82,
              "velocity": 46,
              "position": 3.4895833333333335,
              "duration": 0.010416666666666666
            },
            {
              "pitch": 80,
              "velocity": 20,
              "position": 3.7395833333333335,
              "duration": 0.010416666666666666
            },
            {
              "pitch": 82,
              "velocity": 63,
              "position": 3.7395833333333335,
              "duration": 0.010416666666666666
            },
            {
              "pitch": 80,
              "velocity": 40,
              "position": 4,
              "duration": 0.010416666666666666
            },
            {
              "pitch": 82,
              "velocity": 46,
              "position": 4,
              "duration": 0.010416666666666666
            },
            {
              "pitch": 68,
              "velocity": 49,
              "position": 4.010416666666667,
              "duration": 0.010416666666666666
            },
            {
              "pitch": 81,
              "velocity": 40,
              "position": 4.260416666666667,
              "duration": 0.010416666666666666
            },
            {
              "pitch": 82,
              "velocity": 29,
              "position": 4.260416666666667,
              "duration": 0.010416666666666666
            },
            {
              "pitch": 81,
              "velocity": 10,
              "position": 4.489583333333333,
              "duration": 0.010416666666666666
            },
            {
              "pitch": 82,
              "velocity": 46,
              "position": 4.489583333333333,
              "duration": 0.010416666666666666
            },
            {
              "pitch": 67,
              "velocity": 49,
              "position": 4.510416666666667,
              "duration": 0.010416666666666666
            },
            {
              "pitch": 80,
              "velocity": 20,
              "position": 4.739583333333333,
              "duration": 0.010416666666666666
            },
            {
              "pitch": 82,
              "velocity": 63,
              "position": 4.739583333333333,
              "duration": 0.010416666666666666
            },
            {
              "pitch": 80,
              "velocity": 40,
              "position": 4.989583333333333,
              "duration": 0.010416666666666666
            },
            {
              "pitch": 82,
              "velocity": 46,
              "position": 4.989583333333333,
              "duration": 0.010416666666666666
            },
            {
              "pitch": 81,
              "velocity": 40,
              "position": 5.260416666666667,
              "duration": 0.010416666666666666
            },
            {
              "pitch": 82,
              "velocity": 29,
              "position": 5.260416666666667,
              "duration": 0.010416666666666666
            },
            {
              "pitch": 68,
              "velocity": 39,
              "position": 5.291666666666667,
              "duration": 0.010416666666666666
            },
            {
              "pitch": 81,
              "velocity": 10,
              "position": 5.489583333333333,
              "duration": 0.010416666666666666
            },
            {
              "pitch": 82,
              "velocity": 46,
              "position": 5.489583333333333,
              "duration": 0.010416666666666666
            },
            {
              "pitch": 80,
              "velocity": 20,
              "position": 5.739583333333333,
              "duration": 0.010416666666666666
            },
            {
              "pitch": 82,
              "velocity": 63,
              "position": 5.739583333333333,
              "duration": 0.010416666666666666
            },
            {
              "pitch": 68,
              "velocity": 49,
              "position": 5.791666666666667,
              "duration": 0.010416666666666666
            },
            {
              "pitch": 80,
              "velocity": 40,
              "position": 5.989583333333333,
              "duration": 0.010416666666666666
            },
            {
              "pitch": 82,
              "velocity": 46,
              "position": 5.989583333333333,
              "duration": 0.010416666666666666
            },
            {
              "pitch": 81,
              "velocity": 40,
              "position": 6.260416666666667,
              "duration": 0.010416666666666666
            },
            {
              "pitch": 82,
              "velocity": 29,
              "position": 6.260416666666667,
              "duration": 0.010416666666666666
            },
            {
              "pitch": 67,
              "velocity": 49,
              "position": 6.291666666666667,
              "duration": 0.010416666666666666
            },
            {
              "pitch": 81,
              "velocity": 10,
              "position": 6.489583333333333,
              "duration": 0.010416666666666666
            },
            {
              "pitch": 82,
              "velocity": 46,
              "position": 6.489583333333333,
              "duration": 0.010416666666666666
            },
            {
              "pitch": 80,
              "velocity": 20,
              "position": 6.739583333333333,
              "duration": 0.010416666666666666
            },
            {
              "pitch": 82,
              "velocity": 63,
              "position": 6.739583333333333,
              "duration": 0.010416666666666666
            },
            {
              "pitch": 80,
              "velocity": 40,
              "position": 6.989583333333333,
              "duration": 0.010416666666666666
            },
            {
              "pitch": 82,
              "velocity": 46,
              "position": 6.989583333333333,
              "duration": 0.010416666666666666
            },
            {
              "pitch": 68,
              "velocity": 33,
              "position": 7.010416666666667,
              "duration": 0.010416666666666666
            },
            {
              "pitch": 81,
              "velocity": 40,
              "position": 7.260416666666667,
              "duration": 0.010416666666666666
            },
            {
              "pitch": 82,
              "velocity": 29,
              "position": 7.260416666666667,
              "duration": 0.010416666666666666
            },
            {
              "pitch": 81,
              "velocity": 10,
              "position": 7.489583333333333,
              "duration": 0.010416666666666666
            },
            {
              "pitch": 82,
              "velocity": 46,
              "position": 7.489583333333333,
              "duration": 0.010416666666666666
            },
            {
              "pitch": 68,
              "velocity": 38,
              "position": 7.5,
              "duration": 0.010416666666666666
            },
            {
              "pitch": 80,
              "velocity": 20,
              "position": 7.739583333333333,
              "duration": 0.010416666666666666
            },
            {
              "pitch": 82,
              "velocity": 63,
              "position": 7.739583333333333,
              "duration": 0.010416666666666666
            },
            {
              "pitch": 80,
              "velocity": 40,
              "position": 8,
              "duration": 0.010416666666666666
            },
            {
              "pitch": 82,
              "velocity": 46,
              "position": 8,
              "duration": 0.010416666666666666
            },
            {
              "pitch": 68,
              "velocity": 49,
              "position": 8.010416666666666,
              "duration": 0.010416666666666666
            },
            {
              "pitch": 81,
              "velocity": 40,
              "position": 8.260416666666666,
              "duration": 0.010416666666666666
            },
            {
              "pitch": 82,
              "velocity": 29,
              "position": 8.260416666666666,
              "duration": 0.010416666666666666
            },
            {
              "pitch": 81,
              "velocity": 10,
              "position": 8.489583333333334,
              "duration": 0.010416666666666666
            },
            {
              "pitch": 82,
              "velocity": 46,
              "position": 8.489583333333334,
              "duration": 0.010416666666666666
            },
            {
              "pitch": 67,
              "velocity": 49,
              "position": 8.510416666666666,
              "duration": 0.010416666666666666
            },
            {
              "pitch": 80,
              "velocity": 20,
              "position": 8.739583333333334,
              "duration": 0.010416666666666666
            },
            {
              "pitch": 82,
              "velocity": 63,
              "position": 8.739583333333334,
              "duration": 0.010416666666666666
            },
            {
              "pitch": 80,
              "velocity": 40,
              "position": 8.989583333333334,
              "duration": 0.010416666666666666
            },
            {
              "pitch": 82,
              "velocity": 46,
              "position": 8.989583333333334,
              "duration": 0.010416666666666666
            },
            {
              "pitch": 81,
              "velocity": 40,
              "position": 9.260416666666666,
              "duration": 0.010416666666666666
            },
            {
              "pitch": 82,
              "velocity": 29,
              "position": 9.260416666666666,
              "duration": 0.010416666666666666
            },
            {
              "pitch": 68,
              "velocity": 33,
              "position": 9.291666666666666,
              "duration": 0.010416666666666666
            },
            {
              "pitch": 81,
              "velocity": 10,
              "position": 9.489583333333334,
              "duration": 0.010416666666666666
            },
            {
              "pitch": 82,
              "velocity": 46,
              "position": 9.489583333333334,
              "duration": 0.010416666666666666
            },
            {
              "pitch": 80,
              "velocity": 20,
              "position": 9.739583333333334,
              "duration": 0.010416666666666666
            },
            {
              "pitch": 82,
              "velocity": 63,
              "position": 9.739583333333334,
              "duration": 0.010416666666666666
            },
            {
              "pitch": 68,
              "velocity": 49,
              "position": 9.791666666666666,
              "duration": 0.010416666666666666
            },
            {
              "pitch": 80,
              "velocity": 40,
              "position": 9.989583333333334,
              "duration": 0.010416666666666666
            },
            {
              "pitch": 82,
              "velocity": 46,
              "position": 9.989583333333334,
              "duration": 0.010416666666666666
            },
            {
              "pitch": 81,
              "velocity": 40,
              "position": 10.260416666666666,
              "duration": 0.010416666666666666
            },
            {
              "pitch": 82,
              "velocity": 29,
              "position": 10.260416666666666,
              "duration": 0.010416666666666666
            },
            {
              "pitch": 67,
              "velocity": 49,
              "position": 10.28125,
              "duration": 0.010416666666666666
            },
            {
              "pitch": 81,
              "velocity": 10,
              "position": 10.489583333333334,
              "duration": 0.010416666666666666
            },
            {
              "pitch": 82,
              "velocity": 46,
              "position": 10.489583333333334,
              "duration": 0.010416666666666666
            },
            {
              "pitch": 80,
              "velocity": 20,
              "position": 10.739583333333334,
              "duration": 0.010416666666666666
            },
            {
              "pitch": 82,
              "velocity": 63,
              "position": 10.739583333333334,
              "duration": 0.010416666666666666
            },
            {
              "pitch": 80,
              "velocity": 40,
              "position": 10.989583333333334,
              "duration": 0.010416666666666666
            },
            {
              "pitch": 82,
              "velocity": 46,
              "position": 10.989583333333334,
              "duration": 0.010416666666666666
            },
            {
              "pitch": 68,
              "velocity": 38,
              "position": 11,
              "duration": 0.010416666666666666
            },
            {
              "pitch": 81,
              "velocity": 20,
              "position": 11.739583333333334,
              "duration": 0.0020833333333333333
            },
            {
              "pitch": 82,
              "velocity": 63,
              "position": 11.739583333333334,
              "duration": 0.0020833333333333333
            },
            {
              "pitch": 67,
              "velocity": 49,
              "position": 11.760416666666666,
              "duration": 0.010416666666666666
            }
          ]
        },
        "9": {
          "ctab": {
            "srcChannel": 9,
            "name": "Drs",
            "accType": "RHYTHM",
            "editable": false,
            "mutedNotes": [],
            "mutedChords": [],
            "autoStart": true,
            "sourceChordNote": 0,
            "sourceChordType": "Maj7",
            "ctb2Low": null,
            "ctb2Main": {
              "ntr": "ROOT_FIXED",
              "ntt": "BYPASS",
              "bassOn": false,
              "chordRootUpperLimit": 6,
              "noteLowLimit": 0,
              "noteHighLimit": 127,
              "rtr": "PITCH_SHIFT"
            },
            "ctb2High": null
          },
          "notes": [
            {
              "pitch": 35,
              "velocity": 93,
              "position": 0,
              "duration": 0.010416666666666666
            },
            {
              "pitch": 51,
              "velocity": 73,
              "position": 0.2604166666666667,
              "duration": 0.010416666666666666
            },
            {
              "pitch": 40,
              "velocity": 40,
              "position": 0.7395833333333334,
              "duration": 0.010416666666666666
            },
            {
              "pitch": 51,
              "velocity": 23,
              "position": 0.7395833333333334,
              "duration": 0.010416666666666666
            },
            {
              "pitch": 35,
              "velocity": 63,
              "position": 0.75,
              "duration": 0.010416666666666666
            },
            {
              "pitch": 43,
              "velocity": 52,
              "position": 0.9895833333333334,
              "duration": 0.010416666666666666
            },
            {
              "pitch": 51,
              "velocity": 52,
              "position": 0.9895833333333334,
              "duration": 0.010416666666666666
            },
            {
              "pitch": 35,
              "velocity": 93,
              "position": 1,
              "duration": 0.010416666666666666
            },
            {
              "pitch": 51,
              "velocity": 63,
              "position": 1.4895833333333333,
              "duration": 0.010416666666666666
            },
            {
              "pitch": 35,
              "velocity": 63,
              "position": 1.75,
              "duration": 0.010416666666666666
            },
            {
              "pitch": 51,
              "velocity": 63,
              "position": 1.9895833333333333,
              "duration": 0.010416666666666666
            },
            {
              "pitch": 35,
              "velocity": 93,
              "position": 2,
              "duration": 0.010416666666666666
            },
            {
              "pitch": 51,
              "velocity": 73,
              "position": 2.4895833333333335,
              "duration": 0.010416666666666666
            },
            {
              "pitch": 40,
              "velocity": 40,
              "position": 2.7395833333333335,
              "duration": 0.010416666666666666
            },
            {
              "pitch": 35,
              "velocity": 63,
              "position": 2.75,
              "duration": 0.010416666666666666
            },
            {
              "pitch": 43,
              "velocity": 52,
              "position": 2.9895833333333335,
              "duration": 0.010416666666666666
            },
            {
              "pitch": 51,
              "velocity": 23,
              "position": 2.9895833333333335,
              "duration": 0.010416666666666666
            },
            {
              "pitch": 35,
              "velocity": 93,
              "position": 3,
              "duration": 0.010416666666666666
            },
            {
              "pitch": 51,
              "velocity": 63,
              "position": 3.2604166666666665,
              "duration": 0.010416666666666666
            },
            {
              "pitch": 40,
              "velocity": 40,
              "position": 3.7395833333333335,
              "duration": 0.010416666666666666
            },
            {
              "pitch": 51,
              "velocity": 63,
              "position": 3.7395833333333335,
              "duration": 0.010416666666666666
            },
            {
              "pitch": 35,
              "velocity": 63,
              "position": 3.75,
              "duration": 0.010416666666666666
            },
            {
              "pitch": 35,
              "velocity": 93,
              "position": 4,
              "duration": 0.010416666666666666
            },
            {
              "pitch": 40,
              "velocity": 60,
              "position": 4.260416666666667,
              "duration": 0.010416666666666666
            },
            {
              "pitch": 51,
              "velocity": 73,
              "position": 4.260416666666667,
              "duration": 0.010416666666666666
            },
            {
              "pitch": 40,
              "velocity": 40,
              "position": 4.739583333333333,
              "duration": 0.010416666666666666
            },
            {
              "pitch": 51,
              "velocity": 23,
              "position": 4.739583333333333,
              "duration": 0.010416666666666666
            },
            {
              "pitch": 35,
              "velocity": 63,
              "position": 4.75,
              "duration": 0.010416666666666666
            },
            {
              "pitch": 43,
              "velocity": 52,
              "position": 4.989583333333333,
              "duration": 0.010416666666666666
            },
            {
              "pitch": 51,
              "velocity": 52,
              "position": 4.989583333333333,
              "duration": 0.010416666666666666
            },
            {
              "pitch": 35,
              "velocity": 93,
              "position": 5,
              "duration": 0.010416666666666666
            },
            {
              "pitch": 51,
              "velocity": 63,
              "position": 5.489583333333333,
              "duration": 0.010416666666666666
            },
            {
              "pitch": 40,
              "velocity": 22,
              "position": 5.739583333333333,
              "duration": 0.010416666666666666
            },
            {
              "pitch": 51,
              "velocity": 23,
              "position": 5.739583333333333,
              "duration": 0.010416666666666666
            },
            {
              "pitch": 35,
              "velocity": 63,
              "position": 5.75,
              "duration": 0.010416666666666666
            },
            {
              "pitch": 51,
              "velocity": 63,
              "position": 5.989583333333333,
              "duration": 0.010416666666666666
            },
            {
              "pitch": 35,
              "velocity": 93,
              "position": 6,
              "duration": 0.010416666666666666
            },
            {
              "pitch": 40,
              "velocity": 31,
              "position": 6.260416666666667,
              "duration": 0.010416666666666666
            },
            {
              "pitch": 51,
              "velocity": 73,
              "position": 6.489583333333333,
              "duration": 0.010416666666666666
            },
            {
              "pitch": 40,
              "velocity": 75,
              "position": 6.739583333333333,
              "duration": 0.010416666666666666
            },
            {
              "pitch": 35,
              "velocity": 63,
              "position": 6.75,
              "duration": 0.010416666666666666
            },
            {
              "pitch": 43,
              "velocity": 52,
              "position": 6.989583333333333,
              "duration": 0.010416666666666666
            },
            {
              "pitch": 51,
              "velocity": 23,
              "position": 6.989583333333333,
              "duration": 0.010416666666666666
            },
            {
              "pitch": 35,
              "velocity": 93,
              "position": 7,
              "duration": 0.010416666666666666
            },
            {
              "pitch": 51,
              "velocity": 63,
              "position": 7.260416666666667,
              "duration": 0.010416666666666666
            },
            {
              "pitch": 40,
              "velocity": 25,
              "position": 7.739583333333333,
              "duration": 0.010416666666666666
            },
            {
              "pitch": 51,
              "velocity": 63,
              "position": 7.739583333333333,
              "duration": 0.010416666666666666
            },
            {
              "pitch": 35,
              "velocity": 63,
              "position": 7.75,
              "duration": 0.010416666666666666
            },
            {
              "pitch": 35,
              "velocity": 93,
              "position": 8,
              "duration": 0.010416666666666666
            },
            {
              "pitch": 40,
              "velocity": 60,
              "position": 8.260416666666666,
              "duration": 0.010416666666666666
            },
            {
              "pitch": 51,
              "velocity": 73,
              "position": 8.260416666666666,
              "duration": 0.010416666666666666
            },
            {
              "pitch": 40,
              "velocity": 31,
              "position": 8.739583333333334,
              "duration": 0.010416666666666666
            },
            {
              "pitch": 51,
              "velocity": 23,
              "position": 8.739583333333334,
              "duration": 0.010416666666666666
            },
            {
              "pitch": 35,
              "velocity": 63,
              "position": 8.75,
              "duration": 0.010416666666666666
            },
            {
              "pitch": 43,
              "velocity": 52,
              "position": 8.989583333333334,
              "duration": 0.010416666666666666
            },
            {
              "pitch": 51,
              "velocity": 52,
              "position": 8.989583333333334,
              "duration": 0.010416666666666666
            },
            {
              "pitch": 35,
              "velocity": 93,
              "position": 9,
              "duration": 0.010416666666666666
            },
            {
              "pitch": 51,
              "velocity": 63,
              "position": 9.489583333333334,
              "duration": 0.010416666666666666
            },
            {
              "pitch": 35,
              "velocity": 63,
              "position": 9.75,
              "duration": 0.010416666666666666
            },
            {
              "pitch": 51,
              "velocity": 63,
              "position": 9.989583333333334,
              "duration": 0.010416666666666666
            },
            {
              "pitch": 35,
              "velocity": 93,
              "position": 10,
              "duration": 0.010416666666666666
            },
            {
              "pitch": 40,
              "velocity": 40,
              "position": 10.260416666666666,
              "duration": 0.010416666666666666
            },
            {
              "pitch": 51,
              "velocity": 73,
              "position": 10.489583333333334,
              "duration": 0.010416666666666666
            },
            {
              "pitch": 35,
              "velocity": 63,
              "position": 10.75,
              "duration": 0.010416666666666666
            },
            {
              "pitch": 40,
              "velocity": 79,
              "position": 10.989583333333334,
              "duration": 0.010416666666666666
            },
            {
              "pitch": 35,
              "velocity": 107,
              "position": 11,
              "duration": 0.010416666666666666
            },
            {
              "pitch": 29,
              "velocity": 79,
              "position": 10.989583333333334,
              "duration": 0.4270833333333333
            },
            {
              "pitch": 35,
              "velocity": 98,
              "position": 11.739583333333334,
              "duration": 0.0020833333333333333
            },
            {
              "pitch": 57,
              "velocity": 64,
              "position": 11.739583333333334,
              "duration": 0.0020833333333333333
            }
          ]
        },
        "10": {
          "ctab": {
            "srcChannel": 10,
            "name": "Bass",
            "accType": "BASS",
            "editable": false,
            "mutedNotes": [],
            "mutedChords": [
              "dim7",
              "dim",
              "minMaj7(9)",
              "minMaj7",
              "min7(11)",
              "min7(9)",
              "min(9)",
              "m7b5",
              "min7",
              "min6",
              "min"
            ],
            "autoStart": false,
            "sourceChordNote": 0,
            "sourceChordType": "Maj",
            "ctb2Low": null,
            "ctb2Main": {
              "ntr": "ROOT_TRANSPOSITION",
              "ntt": "BYPASS",
              "bassOn": false,
              "chordRootUpperLimit": 8,
              "noteLowLimit": 28,
              "noteHighLimit": 127,
              "rtr": "PITCH_SHIFT"
            },
            "ctb2High": null
          },
          "notes": [
            {
              "pitch": 24,
              "velocity": 98,
              "position": 0.010416666666666666,
              "duration": 0.2604166666666667
            },
            {
              "pitch": 24,
              "velocity": 80,
              "position": 0.75,
              "duration": 0.09375
            },
            {
              "pitch": 31,
              "velocity": 98,
              "position": 1,
              "duration": 0.9895833333333334
            },
            {
              "pitch": 29,
              "velocity": 98,
              "position": 2,
              "duration": 0.2604166666666667
            },
            {
              "pitch": 29,
              "velocity": 80,
              "position": 2.75,
              "duration": 0.09375
            },
            {
              "pitch": 24,
              "velocity": 98,
              "position": 3,
              "duration": 0.9895833333333334
            },
            {
              "pitch": 24,
              "velocity": 98,
              "position": 4,
              "duration": 0.2604166666666667
            },
            {
              "pitch": 24,
              "velocity": 80,
              "position": 4.75,
              "duration": 0.09375
            },
            {
              "pitch": 31,
              "velocity": 98,
              "position": 5,
              "duration": 0.9895833333333334
            },
            {
              "pitch": 29,
              "velocity": 98,
              "position": 6,
              "duration": 0.2604166666666667
            },
            {
              "pitch": 29,
              "velocity": 80,
              "position": 6.75,
              "duration": 0.09375
            },
            {
              "pitch": 24,
              "velocity": 98,
              "position": 7,
              "duration": 0.9895833333333334
            },
            {
              "pitch": 24,
              "velocity": 98,
              "position": 8,
              "duration": 0.2604166666666667
            },
            {
              "pitch": 24,
              "velocity": 80,
              "position": 8.75,
              "duration": 0.09375
            },
            {
              "pitch": 31,
              "velocity": 98,
              "position": 9,
              "duration": 0.9895833333333334
            },
            {
              "pitch": 29,
              "velocity": 98,
              "position": 10,
              "duration": 0.2604166666666667
            },
            {
              "pitch": 29,
              "velocity": 98,
              "position": 11,
              "duration": 0.7395833333333334
            },
            {
              "pitch": 24,
              "velocity": 98,
              "position": 11.75,
              "duration": 6.489583333333333
            }
          ]
        },
        "11": {
          "ctab": {
            "srcChannel": 11,
            "name": "NGt 1",
            "accType": "CHORD1",
            "editable": false,
            "mutedNotes": [],
            "mutedChords": [
              "dim7",
              "dim",
              "minMaj7(9)",
              "minMaj7",
              "min7(11)",
              "min7(9)",
              "min(9)",
              "m7b5",
              "min7",
              "min6",
              "min"
            ],
            "autoStart": false,
            "sourceChordNote": 0,
            "sourceChordType": "Maj",
            "ctb2Low": null,
            "ctb2Main": {
              "ntr": "ROOT_TRANSPOSITION",
              "ntt": "BYPASS",
              "bassOn": false,
              "chordRootUpperLimit": 11,
              "noteLowLimit": 54,
              "noteHighLimit": 65,
              "rtr": "PITCH_SHIFT"
            },
            "ctb2High": null
          },
          "notes": [
            {
              "pitch": 59,
              "velocity": 88,
              "position": 0.010416666666666666,
              "duration": 0.17708333333333334
            },
            {
              "pitch": 64,
              "velocity": 100,
              "position": 0.010416666666666666,
              "duration": 0.19791666666666666
            },
            {
              "pitch": 67,
              "velocity": 83,
              "position": 0.010416666666666666,
              "duration": 0.19791666666666666
            },
            {
              "pitch": 64,
              "velocity": 102,
              "position": 0.5,
              "duration": 0.16666666666666666
            },
            {
              "pitch": 67,
              "velocity": 81,
              "position": 0.5,
              "duration": 0.17708333333333334
            },
            {
              "pitch": 59,
              "velocity": 88,
              "position": 0.5,
              "duration": 0.1875
            },
            {
              "pitch": 64,
              "velocity": 88,
              "position": 1.25,
              "duration": 0.1875
            },
            {
              "pitch": 67,
              "velocity": 94,
              "position": 1.25,
              "duration": 0.1875
            },
            {
              "pitch": 59,
              "velocity": 91,
              "position": 1.25,
              "duration": 0.19791666666666666
            },
            {
              "pitch": 67,
              "velocity": 85,
              "position": 1.75,
              "duration": 0.8229166666666666
            },
            {
              "pitch": 63,
              "velocity": 95,
              "position": 1.75,
              "duration": 0.8645833333333334
            },
            {
              "pitch": 60,
              "velocity": 95,
              "position": 1.75,
              "duration": 0.875
            },
            {
              "pitch": 67,
              "velocity": 79,
              "position": 2.75,
              "duration": 0.1875
            },
            {
              "pitch": 60,
              "velocity": 88,
              "position": 2.75,
              "duration": 0.20833333333333334
            },
            {
              "pitch": 63,
              "velocity": 88,
              "position": 2.75,
              "duration": 0.2604166666666667
            },
            {
              "pitch": 60,
              "velocity": 93,
              "position": 3.25,
              "duration": 0.15625
            },
            {
              "pitch": 63,
              "velocity": 88,
              "position": 3.25,
              "duration": 0.15625
            },
            {
              "pitch": 60,
              "velocity": 93,
              "position": 3.5,
              "duration": 0.1875
            },
            {
              "pitch": 67,
              "velocity": 78,
              "position": 3.25,
              "duration": 0.4583333333333333
            },
            {
              "pitch": 63,
              "velocity": 101,
              "position": 3.5,
              "duration": 0.22916666666666666
            },
            {
              "pitch": 64,
              "velocity": 87,
              "position": 4,
              "duration": 0.13541666666666666
            },
            {
              "pitch": 67,
              "velocity": 70,
              "position": 4,
              "duration": 0.15625
            },
            {
              "pitch": 59,
              "velocity": 79,
              "position": 4,
              "duration": 0.17708333333333334
            },
            {
              "pitch": 67,
              "velocity": 69,
              "position": 4.5,
              "duration": 0.13541666666666666
            },
            {
              "pitch": 64,
              "velocity": 88,
              "position": 4.5,
              "duration": 0.14583333333333334
            },
            {
              "pitch": 59,
              "velocity": 83,
              "position": 4.5,
              "duration": 0.15625
            },
            {
              "pitch": 67,
              "velocity": 83,
              "position": 5,
              "duration": 0.4166666666666667
            },
            {
              "pitch": 59,
              "velocity": 91,
              "position": 5,
              "duration": 0.4375
            },
            {
              "pitch": 64,
              "velocity": 82,
              "position": 5,
              "duration": 0.4791666666666667
            },
            {
              "pitch": 67,
              "velocity": 95,
              "position": 5.75,
              "duration": 0.71875
            },
            {
              "pitch": 60,
              "velocity": 95,
              "position": 5.75,
              "duration": 0.7395833333333334
            },
            {
              "pitch": 63,
              "velocity": 88,
              "position": 5.75,
              "duration": 0.8125
            },
            {
              "pitch": 60,
              "velocity": 83,
              "position": 6.75,
              "duration": 0.17708333333333334
            },
            {
              "pitch": 63,
              "velocity": 79,
              "position": 6.75,
              "duration": 0.19791666666666666
            },
            {
              "pitch": 67,
              "velocity": 79,
              "position": 6.75,
              "duration": 0.19791666666666666
            },
            {
              "pitch": 67,
              "velocity": 88,
              "position": 7.25,
              "duration": 0.53125
            },
            {
              "pitch": 60,
              "velocity": 99,
              "position": 7.25,
              "duration": 0.5729166666666666
            },
            {
              "pitch": 63,
              "velocity": 88,
              "position": 7.25,
              "duration": 0.6354166666666666
            },
            {
              "pitch": 64,
              "velocity": 99,
              "position": 8,
              "duration": 0.15625
            },
            {
              "pitch": 67,
              "velocity": 66,
              "position": 8,
              "duration": 0.15625
            },
            {
              "pitch": 59,
              "velocity": 83,
              "position": 8,
              "duration": 0.1875
            },
            {
              "pitch": 59,
              "velocity": 88,
              "position": 8.5,
              "duration": 0.19791666666666666
            },
            {
              "pitch": 64,
              "velocity": 88,
              "position": 8.5,
              "duration": 0.19791666666666666
            },
            {
              "pitch": 67,
              "velocity": 81,
              "position": 8.5,
              "duration": 0.21875
            },
            {
              "pitch": 64,
              "velocity": 92,
              "position": 9.25,
              "duration": 0.15625
            },
            {
              "pitch": 59,
              "velocity": 88,
              "position": 9.25,
              "duration": 0.16666666666666666
            },
            {
              "pitch": 67,
              "velocity": 88,
              "position": 9.25,
              "duration": 0.16666666666666666
            },
            {
              "pitch": 60,
              "velocity": 88,
              "position": 9.75,
              "duration": 0.8125
            },
            {
              "pitch": 63,
              "velocity": 83,
              "position": 9.75,
              "duration": 0.8333333333333334
            },
            {
              "pitch": 67,
              "velocity": 95,
              "position": 9.75,
              "duration": 0.8333333333333334
            },
            {
              "pitch": 63,
              "velocity": 88,
              "position": 11,
              "duration": 0.6458333333333334
            },
            {
              "pitch": 60,
              "velocity": 95,
              "position": 11,
              "duration": 0.6770833333333334
            },
            {
              "pitch": 67,
              "velocity": 85,
              "position": 11,
              "duration": 0.6770833333333334
            },
            {
              "pitch": 59,
              "velocity": 95,
              "position": 11.75,
              "duration": 6.489583333333333
            },
            {
              "pitch": 64,
              "velocity": 102,
              "position": 11.75,
              "duration": 6.489583333333333
            },
            {
              "pitch": 67,
              "velocity": 95,
              "position": 11.75,
              "duration": 6.489583333333333
            }
          ]
        },
        "12": {
          "ctab": {
            "srcChannel": 12,
            "name": "Pno",
            "accType": "CHORD2",
            "editable": false,
            "mutedNotes": [],
            "mutedChords": [
              "dim7",
              "dim",
              "minMaj7(9)",
              "minMaj7",
              "min7(11)",
              "min7(9)",
              "min(9)",
              "m7b5",
              "min7",
              "min6",
              "min"
            ],
            "autoStart": false,
            "sourceChordNote": 0,
            "sourceChordType": "Maj",
            "ctb2Low": null,
            "ctb2Main": {
              "ntr": "ROOT_TRANSPOSITION",
              "ntt": "BYPASS",
              "bassOn": false,
              "chordRootUpperLimit": 2,
              "noteLowLimit": 54,
              "noteHighLimit": 79,
              "rtr": "PITCH_SHIFT"
            },
            "ctb2High": null
          },
          "notes": [
            {
              "pitch": 52,
              "velocity": 46,
              "position": 0.010416666666666666,
              "duration": 0.14583333333333334
            },
            {
              "pitch": 59,
              "velocity": 58,
              "position": 0.010416666666666666,
              "duration": 0.14583333333333334
            },
            {
              "pitch": 62,
              "velocity": 73,
              "position": 0.010416666666666666,
              "duration": 0.15625
            },
            {
              "pitch": 67,
              "velocity": 73,
              "position": 0.010416666666666666,
              "duration": 0.15625
            },
            {
              "pitch": 91,
              "velocity": 81,
              "position": 0.5,
              "duration": 0.15625
            },
            {
              "pitch": 62,
              "velocity": 60,
              "position": 1,
              "duration": 0.4895833333333333
            },
            {
              "pitch": 67,
              "velocity": 60,
              "position": 1,
              "duration": 0.4895833333333333
            },
            {
              "pitch": 52,
              "velocity": 57,
              "position": 1,
              "duration": 0.5104166666666666
            },
            {
              "pitch": 59,
              "velocity": 73,
              "position": 1,
              "duration": 0.53125
            },
            {
              "pitch": 88,
              "velocity": 81,
              "position": 1,
              "duration": 0.65625
            },
            {
              "pitch": 62,
              "velocity": 60,
              "position": 1.75,
              "duration": 1.8541666666666667
            },
            {
              "pitch": 67,
              "velocity": 60,
              "position": 1.75,
              "duration": 1.8541666666666667
            },
            {
              "pitch": 57,
              "velocity": 73,
              "position": 1.75,
              "duration": 1.8645833333333333
            },
            {
              "pitch": 51,
              "velocity": 46,
              "position": 1.75,
              "duration": 1.9166666666666667
            },
            {
              "pitch": 79,
              "velocity": 81,
              "position": 1.75,
              "duration": 2.2291666666666665
            },
            {
              "pitch": 62,
              "velocity": 60,
              "position": 4,
              "duration": 0.13541666666666666
            },
            {
              "pitch": 67,
              "velocity": 60,
              "position": 4,
              "duration": 0.13541666666666666
            },
            {
              "pitch": 52,
              "velocity": 57,
              "position": 4,
              "duration": 0.15625
            },
            {
              "pitch": 59,
              "velocity": 60,
              "position": 4,
              "duration": 0.15625
            },
            {
              "pitch": 79,
              "velocity": 81,
              "position": 4.25,
              "duration": 0.21875
            },
            {
              "pitch": 52,
              "velocity": 43,
              "position": 4.5,
              "duration": 0.14583333333333334
            },
            {
              "pitch": 62,
              "velocity": 60,
              "position": 4.5,
              "duration": 0.15625
            },
            {
              "pitch": 67,
              "velocity": 60,
              "position": 4.5,
              "duration": 0.15625
            },
            {
              "pitch": 59,
              "velocity": 64,
              "position": 4.5,
              "duration": 0.16666666666666666
            },
            {
              "pitch": 81,
              "velocity": 65,
              "position": 4.75,
              "duration": 0.25
            },
            {
              "pitch": 83,
              "velocity": 81,
              "position": 5,
              "duration": 0.23958333333333334
            },
            {
              "pitch": 62,
              "velocity": 66,
              "position": 5,
              "duration": 0.4375
            },
            {
              "pitch": 67,
              "velocity": 66,
              "position": 5,
              "duration": 0.4375
            },
            {
              "pitch": 59,
              "velocity": 73,
              "position": 5,
              "duration": 0.4479166666666667
            },
            {
              "pitch": 84,
              "velocity": 65,
              "position": 5.25,
              "duration": 0.19791666666666666
            },
            {
              "pitch": 52,
              "velocity": 57,
              "position": 5,
              "duration": 0.4895833333333333
            },
            {
              "pitch": 86,
              "velocity": 81,
              "position": 5.75,
              "duration": 0.22916666666666666
            },
            {
              "pitch": 84,
              "velocity": 65,
              "position": 6.25,
              "duration": 0.23958333333333334
            },
            {
              "pitch": 62,
              "velocity": 66,
              "position": 5.75,
              "duration": 1.3020833333333333
            },
            {
              "pitch": 67,
              "velocity": 66,
              "position": 5.75,
              "duration": 1.3020833333333333
            },
            {
              "pitch": 57,
              "velocity": 66,
              "position": 5.75,
              "duration": 1.3229166666666667
            },
            {
              "pitch": 51,
              "velocity": 51,
              "position": 5.75,
              "duration": 1.3854166666666667
            },
            {
              "pitch": 62,
              "velocity": 66,
              "position": 7.25,
              "duration": 0.5416666666666666
            },
            {
              "pitch": 67,
              "velocity": 66,
              "position": 7.25,
              "duration": 0.5416666666666666
            },
            {
              "pitch": 57,
              "velocity": 73,
              "position": 7.25,
              "duration": 0.5520833333333334
            },
            {
              "pitch": 51,
              "velocity": 54,
              "position": 7.25,
              "duration": 0.625
            },
            {
              "pitch": 79,
              "velocity": 81,
              "position": 6.75,
              "duration": 1.1666666666666667
            },
            {
              "pitch": 62,
              "velocity": 54,
              "position": 8,
              "duration": 0.15625
            },
            {
              "pitch": 67,
              "velocity": 54,
              "position": 8,
              "duration": 0.15625
            },
            {
              "pitch": 52,
              "velocity": 54,
              "position": 8,
              "duration": 0.16666666666666666
            },
            {
              "pitch": 59,
              "velocity": 63,
              "position": 8,
              "duration": 0.1875
            },
            {
              "pitch": 91,
              "velocity": 81,
              "position": 8.5,
              "duration": 0.15625
            },
            {
              "pitch": 62,
              "velocity": 66,
              "position": 9,
              "duration": 0.6041666666666666
            },
            {
              "pitch": 67,
              "velocity": 66,
              "position": 9,
              "duration": 0.6041666666666666
            },
            {
              "pitch": 59,
              "velocity": 73,
              "position": 9,
              "duration": 0.6354166666666666
            },
            {
              "pitch": 52,
              "velocity": 43,
              "position": 9,
              "duration": 0.6458333333333334
            },
            {
              "pitch": 88,
              "velocity": 81,
              "position": 9,
              "duration": 0.65625
            },
            {
              "pitch": 57,
              "velocity": 60,
              "position": 9.75,
              "duration": 1.0520833333333333
            },
            {
              "pitch": 62,
              "velocity": 65,
              "position": 9.75,
              "duration": 1.0520833333333333
            },
            {
              "pitch": 67,
              "velocity": 65,
              "position": 9.75,
              "duration": 1.0520833333333333
            },
            {
              "pitch": 51,
              "velocity": 58,
              "position": 9.75,
              "duration": 1.0625
            },
            {
              "pitch": 79,
              "velocity": 81,
              "position": 9.75,
              "duration": 1.2291666666666667
            },
            {
              "pitch": 62,
              "velocity": 60,
              "position": 11,
              "duration": 0.6979166666666666
            },
            {
              "pitch": 67,
              "velocity": 60,
              "position": 11,
              "duration": 0.6979166666666666
            },
            {
              "pitch": 51,
              "velocity": 51,
              "position": 11,
              "duration": 0.7083333333333334
            },
            {
              "pitch": 57,
              "velocity": 73,
              "position": 11,
              "duration": 0.7083333333333334
            },
            {
              "pitch": 81,
              "velocity": 81,
              "position": 11,
              "duration": 0.7916666666666666
            },
            {
              "pitch": 52,
              "velocity": 58,
              "position": 11.75,
              "duration": 6.489583333333333
            },
            {
              "pitch": 59,
              "velocity": 76,
              "position": 11.75,
              "duration": 6.489583333333333
            },
            {
              "pitch": 62,
              "velocity": 66,
              "position": 11.75,
              "duration": 6.489583333333333
            },
            {
              "pitch": 67,
              "velocity": 66,
              "position": 11.75,
              "duration": 6.489583333333333
            },
            {
              "pitch": 86,
              "velocity": 81,
              "position": 11.75,
              "duration": 6.489583333333333
            }
          ]
        },
        "13": {
          "ctab": {
            "srcChannel": 13,
            "name": "Str",
            "accType": "PAD",
            "editable": false,
            "mutedNotes": [],
            "mutedChords": [
              "dim7",
              "dim",
              "minMaj7(9)",
              "minMaj7",
              "min7(11)",
              "min7(9)",
              "min(9)",
              "m7b5",
              "min7",
              "min6",
              "min"
            ],
            "autoStart": false,
            "sourceChordNote": 0,
            "sourceChordType": "Maj",
            "ctb2Low": null,
            "ctb2Main": {
              "ntr": "ROOT_TRANSPOSITION",
              "ntt": "BYPASS",
              "bassOn": false,
              "chordRootUpperLimit": 5,
              "noteLowLimit": 0,
              "noteHighLimit": 127,
              "rtr": "PITCH_SHIFT"
            },
            "ctb2High": null
          },
          "notes": [
            {
              "pitch": 59,
              "velocity": 46,
              "position": 0.010416666666666666,
              "duration": 1.71875
            },
            {
              "pitch": 64,
              "velocity": 46,
              "position": 0.010416666666666666,
              "duration": 1.71875
            },
            {
              "pitch": 57,
              "velocity": 46,
              "position": 1.75,
              "duration": 2.25
            },
            {
              "pitch": 63,
              "velocity": 46,
              "position": 1.75,
              "duration": 2.25
            },
            {
              "pitch": 59,
              "velocity": 46,
              "position": 4,
              "duration": 1.75
            },
            {
              "pitch": 64,
              "velocity": 46,
              "position": 4,
              "duration": 1.75
            },
            {
              "pitch": 57,
              "velocity": 46,
              "position": 5.75,
              "duration": 2.25
            },
            {
              "pitch": 63,
              "velocity": 46,
              "position": 5.75,
              "duration": 2.25
            },
            {
              "pitch": 59,
              "velocity": 46,
              "position": 8,
              "duration": 1.75
            },
            {
              "pitch": 64,
              "velocity": 46,
              "position": 8,
              "duration": 1.75
            },
            {
              "pitch": 57,
              "velocity": 46,
              "position": 9.75,
              "duration": 2
            },
            {
              "pitch": 63,
              "velocity": 46,
              "position": 9.75,
              "duration": 2
            },
            {
              "pitch": 59,
              "velocity": 46,
              "position": 11.75,
              "duration": 6.479166666666667
            },
            {
              "pitch": 64,
              "velocity": 46,
              "position": 11.75,
              "duration": 6.479166666666667
            },
            {
              "pitch": 67,
              "velocity": 46,
              "position": 0.010416666666666666,
              "duration": 18.229166666666668
            },
            {
              "pitch": 74,
              "velocity": 46,
              "position": 0.010416666666666666,
              "duration": 18.229166666666668
            }
          ]
        },
        "14": {
          "ctab": {
            "srcChannel": 14,
            "name": "Vox",
            "accType": "PHRASE1",
            "editable": false,
            "mutedNotes": [],
            "mutedChords": [
              "dim7",
              "dim",
              "minMaj7(9)",
              "minMaj7",
              "min7(11)",
              "min7(9)",
              "min(9)",
              "m7b5",
              "min7",
              "min6",
              "min"
            ],
            "autoStart": false,
            "sourceChordNote": 0,
            "sourceChordType": "Maj",
            "ctb2Low": null,
            "ctb2Main": {
              "ntr": "ROOT_TRANSPOSITION",
              "ntt": "BYPASS",
              "bassOn": false,
              "chordRootUpperLimit": 2,
              "noteLowLimit": 0,
              "noteHighLimit": 127,
              "rtr": "PITCH_SHIFT"
            },
            "ctb2High": null
          },
          "notes": [
            {
              "pitch": 79,
              "velocity": 100,
              "position": 0.5,
              "duration": 0.15625
            },
            {
              "pitch": 74,
              "velocity": 60,
              "position": 0.9375,
              "duration": 0.07291666666666667
            },
            {
              "pitch": 76,
              "velocity": 100,
              "position": 1,
              "duration": 0.65625
            },
            {
              "pitch": 67,
              "velocity": 100,
              "position": 1.75,
              "duration": 2.2291666666666665
            },
            {
              "pitch": 67,
              "velocity": 100,
              "position": 4.25,
              "duration": 0.21875
            },
            {
              "pitch": 69,
              "velocity": 80,
              "position": 4.75,
              "duration": 0.25
            },
            {
              "pitch": 71,
              "velocity": 100,
              "position": 5,
              "duration": 0.23958333333333334
            },
            {
              "pitch": 72,
              "velocity": 80,
              "position": 5.25,
              "duration": 0.19791666666666666
            },
            {
              "pitch": 74,
              "velocity": 100,
              "position": 5.75,
              "duration": 0.22916666666666666
            },
            {
              "pitch": 72,
              "velocity": 80,
              "position": 6.25,
              "duration": 0.23958333333333334
            },
            {
              "pitch": 67,
              "velocity": 100,
              "position": 6.75,
              "duration": 1.1666666666666667
            },
            {
              "pitch": 79,
              "velocity": 100,
              "position": 8.5,
              "duration": 0.15625
            },
            {
              "pitch": 74,
              "velocity": 60,
              "position": 8.9375,
              "duration": 0.07291666666666667
            },
            {
              "pitch": 76,
              "velocity": 100,
              "position": 9,
              "duration": 0.65625
            },
            {
              "pitch": 67,
              "velocity": 100,
              "position": 9.75,
              "duration": 1.2291666666666667
            },
            {
              "pitch": 69,
              "velocity": 100,
              "position": 11,
              "duration": 0.7916666666666666
            },
            {
              "pitch": 74,
              "velocity": 100,
              "position": 11.75,
              "duration": 6.489583333333333
            }
          ]
        }
      }
    }
  }
}