{
  "name": "Salsa 1.STY",
  "tempo": 92,
  "timeSignature": "4/4",
  "ticksPerQuarter": 1920,
  "sffType": "SFF1",
  "division": "EIGHTH_SHUFFLE",
  "parts": {
    "Main_A": {
      "type": "Main_A",
      "sizeInBeats": 32,
      "channels": {
        "0": {
          "ctab": {
            "srcChannel": 0,
            "name": "GrandPno",
            "accType": "CHORD1",
            "editable": false,
            "mutedNotes": [],
            "mutedChords": [
              "1+2+5",
              "sus4",
              "1+5",
              "1+8",
              "dim7",
              "dim",
              "minMaj7(9)",
              "minMaj7",
              "min7(11)",
              "min7(9)",
              "min(9)",
              "m7b5",
              "min7",
              "min6",
              "min",
              "aug",
              "Maj6(9)",
              "Maj7(9)",
              "Maj(9)",
              "Maj7#11",
              "Maj7",
              "Maj6",
              "Maj"
            ],
            "autoStart": false,
            "sourceChordNote": 0,
            "sourceChordType": "7th",
            "ctb2Low": null,
            "ctb2Main": {
              "ntr": "ROOT_TRANSPOSITION",
              "ntt": "CHORD",
              "bassOn": false,
              "chordRootUpperLimit": 6,
              "noteLowLimit": 0,
              "noteHighLimit": 127,
              "rtr": "PITCH_SHIFT"
            },
            "ctb2High": null
          },
          "notes": [
            {
              "pitch": 64,
              "velocity": 104,
              "position": 0,
              "duration": 0.1875
            },
            {
              "pitch": 52,
              "velocity": 90,
              "position": 0,
              "duration": 0.23958333333333334
            },
            {
              "pitch": 58,
              "velocity": 80,
              "position": 0.25,
              "duration": 0.19791666666666666
            },
            {
              "pitch": 70,
              "velocity": 90,
              "position": 0.25,
              "duration": 0.20833333333333334
            },
            {
              "pitch": 60,
              "velocity": 104,
              "position": 0.5,
              "duration": 0.23958333333333334
            },
            {
              "pitch": 72,
              "velocity": 88,
              "position": 0.5,
              "duration": 0.2916666666666667
            },
            {
              "pitch": 52,
              "velocity": 88,
              "position": 0.7708333333333334,
              "duration": 0.375
            },
            {
              "pitch": 64,
              "velocity": 94,
              "position": 0.7604166666666666,
              "duration": 0.4479166666666667
            },
            {
              "pitch": 58,
              "velocity": 104,
              "position": 1.2604166666666667,
              "duration": 0.3854166666666667
            },
            {
              "pitch": 60,
              "velocity": 80,
              "position": 1.2604166666666667,
              "duration": 0.3854166666666667
            },
            {
              "pitch": 72,
              "velocity": 104,
              "position": 1.2604166666666667,
              "duration": 0.3958333333333333
            },
            {
              "pitch": 70,
              "velocity": 124,
              "position": 1.2604166666666667,
              "duration": 0.4479166666666667
            },
            {
              "pitch": 52,
              "velocity": 88,
              "position": 1.7604166666666667,
              "duration": 0.3958333333333333
            },
            {
              "pitch": 64,
              "velocity": 104,
              "position": 1.7604166666666667,
              "duration": 0.4375
            },
            {
              "pitch": 72,
              "velocity": 94,
              "position": 2.2604166666666665,
              "duration": 0.40625
            },
            {
              "pitch": 58,
              "velocity": 88,
              "position": 2.2604166666666665,
              "duration": 0.4166666666666667
            },
            {
              "pitch": 60,
              "velocity": 80,
              "position": 2.2604166666666665,
              "duration": 0.4270833333333333
            },
            {
              "pitch": 70,
              "velocity": 80,
              "position": 2.2604166666666665,
              "duration": 0.4479166666666667
            },
            {
              "pitch": 64,
              "velocity": 92,
              "position": 2.75,
              "duration": 0.4375
            },
            {
              "pitch": 52,
              "velocity": 92,
              "position": 2.7604166666666665,
              "duration": 0.4375
            },
            {
              "pitch": 60,
              "velocity": 88,
              "position": 3.25,
              "duration": 0.3854166666666667
            },
            {
              "pitch": 58,
              "velocity": 110,
              "position": 3.25,
              "duration": 0.3958333333333333
            },
            {
              "pitch": 72,
              "velocity": 88,
              "position": 3.25,
              "duration": 0.40625
            },
            {
              "pitch": 70,
              "velocity": 110,
              "position": 3.25,
              "duration": 0.4583333333333333
            },
            {
              "pitch": 52,
              "velocity": 90,
              "position": 3.75,
              "duration": 0.19791666666666666
            },
            {
              "pitch": 64,
              "velocity": 92,
              "position": 3.75,
              "duration": 0.19791666666666666
            },
            {
              "pitch": 64,
              "velocity": 88,
              "position": 4,
              "duration": 0.17708333333333334
            },
            {
              "pitch": 52,
              "velocity": 88,
              "position": 4,
              "duration": 0.1875
            },
            {
              "pitch": 58,
              "velocity": 90,
              "position": 4.25,
              "duration": 0.1875
            },
            {
              "pitch": 70,
              "velocity": 104,
              "position": 4.25,
              "duration": 0.1875
            },
            {
              "pitch": 60,
              "velocity": 88,
              "position": 4.5,
              "duration": 0.23958333333333334
            },
            {
              "pitch": 72,
              "velocity": 76,
              "position": 4.5,
              "duration": 0.2604166666666667
            },
            {
              "pitch": 52,
              "velocity": 94,
              "position": 4.760416666666667,
              "duration": 0.40625
            },
            {
              "pitch": 64,
              "velocity": 80,
              "position": 4.760416666666667,
              "duration": 0.4270833333333333
            },
            {
              "pitch": 72,
              "velocity": 88,
              "position": 5.260416666666667,
              "duration": 0.3958333333333333
            },
            {
              "pitch": 60,
              "velocity": 76,
              "position": 5.25,
              "duration": 0.4375
            },
            {
              "pitch": 58,
              "velocity": 110,
              "position": 5.25,
              "duration": 0.4791666666666667
            },
            {
              "pitch": 70,
              "velocity": 90,
              "position": 5.25,
              "duration": 0.4791666666666667
            },
            {
              "pitch": 64,
              "velocity": 90,
              "position": 5.760416666666667,
              "duration": 0.4166666666666667
            },
            {
              "pitch": 52,
              "velocity": 90,
              "position": 5.760416666666667,
              "duration": 0.4479166666666667
            },
            {
              "pitch": 60,
              "velocity": 88,
              "position": 6.25,
              "duration": 0.3541666666666667
            },
            {
              "pitch": 58,
              "velocity": 88,
              "position": 6.25,
              "duration": 0.375
            },
            {
              "pitch": 72,
              "velocity": 88,
              "position": 6.260416666666667,
              "duration": 0.375
            },
            {
              "pitch": 70,
              "velocity": 110,
              "position": 6.260416666666667,
              "duration": 0.3958333333333333
            },
            {
              "pitch": 52,
              "velocity": 92,
              "position": 6.75,
              "duration": 0.4270833333333333
            },
            {
              "pitch": 64,
              "velocity": 92,
              "position": 6.75,
              "duration": 0.4791666666666667
            },
            {
              "pitch": 58,
              "velocity": 88,
              "position": 7.25,
              "duration": 0.1875
            },
            {
              "pitch": 60,
              "velocity": 88,
              "position": 7.25,
              "duration": 0.1875
            },
            {
              "pitch": 70,
              "velocity": 76,
              "position": 7.260416666666667,
              "duration": 0.1875
            },
            {
              "pitch": 72,
              "velocity": 88,
              "position": 7.260416666666667,
              "duration": 0.19791666666666666
            },
            {
              "pitch": 64,
              "velocity": 72,
              "position": 7.5,
              "duration": 0.1875
            },
            {
              "pitch": 52,
              "velocity": 92,
              "position": 7.5,
              "duration": 0.19791666666666666
            },
            {
              "pitch": 52,
              "velocity": 80,
              "position": 7.75,
              "duration": 0.17708333333333334
            },
            {
              "pitch": 64,
              "velocity": 94,
              "position": 7.75,
              "duration": 0.17708333333333334
            },
            {
              "pitch": 64,
              "velocity": 104,
              "position": 8,
              "duration": 0.1875
            },
            {
              "pitch": 52,
              "velocity": 90,
              "position": 8,
              "duration": 0.23958333333333334
            },
            {
              "pitch": 58,
              "velocity": 80,
              "position": 8.25,
              "duration": 0.19791666666666666
            },
            {
              "pitch": 70,
              "velocity": 90,
              "position": 8.25,
              "duration": 0.20833333333333334
            },
            {
              "pitch": 60,
              "velocity": 104,
              "position": 8.5,
              "duration": 0.23958333333333334
            },
            {
              "pitch": 72,
              "velocity": 88,
              "position": 8.5,
              "duration": 0.2916666666666667
            },
            {
              "pitch": 52,
              "velocity": 88,
              "position": 8.770833333333334,
              "duration": 0.375
            },
            {
              "pitch": 64,
              "velocity": 94,
              "position": 8.760416666666666,
              "duration": 0.4479166666666667
            },
            {
              "pitch": 58,
              "velocity": 104,
              "position": 9.260416666666666,
              "duration": 0.3854166666666667
            },
            {
              "pitch": 60,
              "velocity": 80,
              "position": 9.260416666666666,
              "duration": 0.3854166666666667
            },
            {
              "pitch": 72,
              "velocity": 104,
              "position": 9.260416666666666,
              "duration": 0.3958333333333333
            },
            {
              "pitch": 70,
              "velocity": 124,
              "position": 9.260416666666666,
              "duration": 0.4479166666666667
            },
            {
              "pitch": 52,
              "velocity": 88,
              "position": 9.760416666666666,
              "duration": 0.3958333333333333
            },
            {
              "pitch": 64,
              "velocity": 104,
              "position": 9.760416666666666,
              "duration": 0.4375
            },
            {
              "pitch": 72,
              "velocity": 94,
              "position": 10.260416666666666,
              "duration": 0.40625
            },
            {
              "pitch": 58,
              "velocity": 88,
              "position": 10.260416666666666,
              "duration": 0.4166666666666667
            },
            {
              "pitch": 60,
              "velocity": 80,
              "position": 10.260416666666666,
              "duration": 0.4270833333333333
            },
            {
              "pitch": 70,
              "velocity": 80,
              "position": 10.260416666666666,
              "duration": 0.4479166666666667
            },
            {
              "pitch": 64,
              "velocity": 92,
              "position": 10.75,
              "duration": 0.4375
            },
            {
              "pitch": 52,
              "velocity": 92,
              "position": 10.760416666666666,
              "duration": 0.4375
            },
            {
              "pitch": 60,
              "velocity": 88,
              "position": 11.25,
              "duration": 0.3854166666666667
            },
            {
              "pitch": 58,
              "velocity": 110,
              "position": 11.25,
              "duration": 0.3958333333333333
            },
            {
              "pitch": 72,
              "velocity": 88,
              "position": 11.25,
              "duration": 0.40625
            },
            {
              "pitch": 70,
              "velocity": 110,
              "position": 11.25,
              "duration": 0.4583333333333333
            },
            {
              "pitch": 52,
              "velocity": 90,
              "position": 11.75,
              "duration": 0.19791666666666666
            },
            {
              "pitch": 64,
              "velocity": 92,
              "position": 11.75,
              "duration": 0.19791666666666666
            },
            {
              "pitch": 64,
              "velocity": 88,
              "position": 12,
              "duration": 0.17708333333333334
            },
            {
              "pitch": 52,
              "velocity": 88,
              "position": 12,
              "duration": 0.1875
            },
            {
              "pitch": 58,
              "velocity": 90,
              "position": 12.25,
              "duration": 0.1875
            },
            {
              "pitch": 70,
              "velocity": 104,
              "position": 12.25,
              "duration": 0.1875
            },
            {
              "pitch": 60,
              "velocity": 88,
              "position": 12.5,
              "duration": 0.23958333333333334
            },
            {
              "pitch": 72,
              "velocity": 76,
              "position": 12.5,
              "duration": 0.2604166666666667
            },
            {
              "pitch": 52,
              "velocity": 94,
              "position": 12.760416666666666,
              "duration": 0.40625
            },
            {
              "pitch": 64,
              "velocity": 80,
              "position": 12.760416666666666,
              "duration": 0.4270833333333333
            },
            {
              "pitch": 72,
              "velocity": 88,
              "position": 13.260416666666666,
              "duration": 0.3958333333333333
            },
            {
              "pitch": 60,
              "velocity": 76,
              "position": 13.25,
              "duration": 0.4375
            },
            {
              "pitch": 58,
              "velocity": 110,
              "position": 13.25,
              "duration": 0.4791666666666667
            },
            {
              "pitch": 70,
              "velocity": 90,
              "position": 13.25,
              "duration": 0.4791666666666667
            },
            {
              "pitch": 64,
              "velocity": 90,
              "position": 13.760416666666666,
              "duration": 0.4166666666666667
            },
            {
              "pitch": 52,
              "velocity": 90,
              "position": 13.760416666666666,
              "duration": 0.4479166666666667
            },
            {
              "pitch": 60,
              "velocity": 88,
              "position": 14.25,
              "duration": 0.3541666666666667
            },
            {
              "pitch": 58,
              "velocity": 88,
              "position": 14.25,
              "duration": 0.375
            },
            {
              "pitch": 72,
              "velocity": 88,
              "position": 14.260416666666666,
              "duration": 0.375
            },
            {
              "pitch": 70,
              "velocity": 110,
              "position": 14.260416666666666,
              "duration": 0.3958333333333333
            },
            {
              "pitch": 52,
              "velocity": 92,
              "position": 14.75,
              "duration": 0.4270833333333333
            },
            {
              "pitch": 64,
              "velocity": 92,
              "position": 14.75,
              "duration": 0.4791666666666667
            },
            {
              "pitch": 58,
              "velocity": 88,
              "position": 15.25,
              "duration": 0.1875
            },
            {
              "pitch": 60,
              "velocity": 88,
              "position": 15.25,
              "duration": 0.1875
            },
            {
              "pitch": 70,
              "velocity": 76,
              "position": 15.260416666666666,
              "duration": 0.1875
            },
            {
              "pitch": 72,
              "velocity": 88,
              "position": 15.260416666666666,
              "duration": 0.19791666666666666
            },
            {
              "pitch": 64,
              "velocity": 72,
              "position": 15.5,
              "duration": 0.1875
            },
            {
              "pitch": 52,
              "velocity": 92,
              "position": 15.5,
              "duration": 0.19791666666666666
            },
            {
              "pitch": 52,
              "velocity": 80,
              "position": 15.75,
              "duration": 0.17708333333333334
            },
            {
              "pitch": 64,
              "velocity": 94,
              "position": 15.75,
              "duration": 0.17708333333333334
            },
            {
              "pitch": 64,
              "velocity": 104,
              "position": 16,
              "duration": 0.1875
            },
            {
              "pitch": 52,
              "velocity": 90,
              "position": 16,
              "duration": 0.23958333333333334
            },
            {
              "pitch": 58,
              "velocity": 80,
              "position": 16.25,
              "duration": 0.19791666666666666
            },
            {
              "pitch": 70,
              "velocity": 90,
              "position": 16.25,
              "duration": 0.20833333333333334
            },
            {
              "pitch": 60,
              "velocity": 104,
              "position": 16.5,
              "duration": 0.23958333333333334
            },
            {
              "pitch": 72,
              "velocity": 88,
              "position": 16.5,
              "duration": 0.2916666666666667
            },
            {
              "pitch": 52,
              "velocity": 88,
              "position": 16.770833333333332,
              "duration": 0.375
            },
            {
              "pitch": 64,
              "velocity": 94,
              "position": 16.760416666666668,
              "duration": 0.4479166666666667
            },
            {
              "pitch": 58,
              "velocity": 104,
              "position": 17.260416666666668,
              "duration": 0.3854166666666667
            },
            {
              "pitch": 60,
              "velocity": 80,
              "position": 17.260416666666668,
              "duration": 0.3854166666666667
            },
            {
              "pitch": 72,
              "velocity": 104,
              "position": 17.260416666666668,
              "duration": 0.3958333333333333
            },
            {
              "pitch": 70,
              "velocity": 124,
              "position": 17.260416666666668,
              "duration": 0.4479166666666667
            },
            {
              "pitch": 52,
              "velocity": 88,
              "position": 17.760416666666668,
              "duration": 0.3958333333333333
            },
            {
              "pitch": 64,
              "velocity": 104,
              "position": 17.760416666666668,
              "duration": 0.4375
            },
            {
              "pitch": 72,
              "velocity": 94,
              "position": 18.260416666666668,
              "duration": 0.40625
            },
            {
              "pitch": 58,
              "velocity": 88,
              "position": 18.260416666666668,
              "duration": 0.4166666666666667
            },
            {
              "pitch": 60,
              "velocity": 80,
              "position": 18.260416666666668,
              "duration": 0.4270833333333333
            },
            {
              "pitch": 70,
              "velocity": 80,
              "position": 18.260416666666668,
              "duration": 0.4479166666666667
            },
            {
              "pitch": 64,
              "velocity": 92,
              "position": 18.75,
              "duration": 0.4375
            },
            {
              "pitch": 52,
              "velocity": 92,
              "position": 18.760416666666668,
              "duration": 0.4375
            },
            {
              "pitch": 60,
              "velocity": 88,
              "position": 19.25,
              "duration": 0.3854166666666667
            },
            {
              "pitch": 58,
              "velocity": 110,
              "position": 19.25,
              "duration": 0.3958333333333333
            },
            {
              "pitch": 72,
              "velocity": 88,
              "position": 19.25,
              "duration": 0.40625
            },
            {
              "pitch": 70,
              "velocity": 110,
              "position": 19.25,
              "duration": 0.4583333333333333
            },
            {
              "pitch": 52,
              "velocity": 90,
              "position": 19.75,
              "duration": 0.19791666666666666
            },
            {
              "pitch": 64,
              "velocity": 92,
              "position": 19.75,
              "duration": 0.19791666666666666
            },
            {
              "pitch": 64,
              "velocity": 88,
              "position": 20,
              "duration": 0.17708333333333334
            },
            {
              "pitch": 52,
              "velocity": 88,
              "position": 20,
              "duration": 0.1875
            },
            {
              "pitch": 58,
              "velocity": 90,
              "position": 20.25,
              "duration": 0.1875
            },
            {
              "pitch": 70,
              "velocity": 104,
              "position": 20.25,
              "duration": 0.1875
            },
            {
              "pitch": 60,
              "velocity": 88,
              "position": 20.5,
              "duration": 0.23958333333333334
            },
            {
              "pitch": 72,
              "velocity": 76,
              "position": 20.5,
              "duration": 0.2604166666666667
            },
            {
              "pitch": 52,
              "velocity": 94,
              "position": 20.760416666666668,
              "duration": 0.40625
            },
            {
              "pitch": 64,
              "velocity": 80,
              "position": 20.760416666666668,
              "duration": 0.4270833333333333
            },
            {
              "pitch": 72,
              "velocity": 88,
              "position": 21.260416666666668,
              "duration": 0.3958333333333333
            },
            {
              "pitch": 60,
              "velocity": 76,
              "position": 21.25,
              "duration": 0.4375
            },
            {
              "pitch": 58,
              "velocity": 110,
              "position": 21.25,
              "duration": 0.4791666666666667
            },
            {
              "pitch": 70,
              "velocity": 90,
              "position": 21.25,
              "duration": 0.4791666666666667
            },
            {
              "pitch": 64,
              "velocity": 90,
              "position": 21.760416666666668,
              "duration": 0.4166666666666667
            },
            {
              "pitch": 52,
              "velocity": 90,
              "position": 21.760416666666668,
              "duration": 0.4479166666666667
            },
            {
              "pitch": 60,
              "velocity": 88,
              "position": 22.25,
              "duration": 0.3541666666666667
            },
            {
              "pitch": 58,
              "velocity": 88,
              "position": 22.25,
              "duration": 0.375
            },
            {
              "pitch": 72,
              "velocity": 88,
              "position": 22.260416666666668,
              "duration": 0.375
            },
            {
              "pitch": 70,
              "velocity": 110,
              "position": 22.260416666666668,
              "duration": 0.3958333333333333
            },
            {
              "pitch": 52,
              "velocity": 92,
              "position": 22.75,
              "duration": 0.4270833333333333
            },
            {
              "pitch": 64,
              "velocity": 92,
              "position": 22.75,
              "duration": 0.4791666666666667
            },
            {
              "pitch": 58,
              "velocity": 88,
              "position": 23.25,
              "duration": 0.1875
            },
            {
              "pitch": 60,
              "velocity": 88,
              "position": 23.25,
              "duration": 0.1875
            },
            {
              "pitch": 70,
              "velocity": 76,
              "position": 23.260416666666668,
              "duration": 0.1875
            },
            {
              "pitch": 72,
              "velocity": 88,
              "position": 23.260416666666668,
              "duration": 0.19791666666666666
            },
            {
              "pitch": 64,
              "velocity": 72,
              "position": 23.5,
              "duration": 0.1875
            },
            {
              "pitch": 52,
              "velocity": 92,
              "position": 23.5,
              "duration": 0.19791666666666666
            },
            {
              "pitch": 52,
              "velocity": 80,
              "position": 23.75,
              "duration": 0.17708333333333334
            },
            {
              "pitch": 64,
              "velocity": 94,
              "position": 23.75,
              "duration": 0.17708333333333334
            },
            {
              "pitch": 64,
              "velocity": 104,
              "position": 24,
              "duration": 0.1875
            },
            {
              "pitch": 52,
              "velocity": 90,
              "position": 24,
              "duration": 0.23958333333333334
            },
            {
              "pitch": 58,
              "velocity": 80,
              "position": 24.25,
              "duration": 0.19791666666666666
            },
            {
              "pitch": 70,
              "velocity": 90,
              "position": 24.25,
              "duration": 0.20833333333333334
            },
            {
              "pitch": 60,
              "velocity": 104,
              "position": 24.5,
              "duration": 0.23958333333333334
            },
            {
              "pitch": 72,
              "velocity": 88,
              "position": 24.5,
              "duration": 0.2916666666666667
            },
            {
              "pitch": 52,
              "velocity": 88,
              "position": 24.770833333333332,
              "duration": 0.375
            },
            {
              "pitch": 64,
              "velocity": 94,
              "position": 24.760416666666668,
              "duration": 0.4479166666666667
            },
            {
              "pitch": 58,
              "velocity": 104,
              "position": 25.260416666666668,
              "duration": 0.3854166666666667
            },
            {
              "pitch": 60,
              "velocity": 80,
              "position": 25.260416666666668,
              "duration": 0.3854166666666667
            },
            {
              "pitch": 72,
              "velocity": 104,
              "position": 25.260416666666668,
              "duration": 0.3958333333333333
            },
            {
              "pitch": 70,
              "velocity": 124,
              "position": 25.260416666666668,
              "duration": 0.4479166666666667
            },
            {
              "pitch": 52,
              "velocity": 88,
              "position": 25.760416666666668,
              "duration": 0.3958333333333333
            },
            {
              "pitch": 64,
              "velocity": 104,
              "position": 25.760416666666668,
              "duration": 0.4375
            },
            {
              "pitch": 72,
              "velocity": 94,
              "position": 26.260416666666668,
              "duration": 0.40625
            },
            {
              "pitch": 58,
              "velocity": 88,
              "position": 26.260416666666668,
              "duration": 0.4166666666666667
            },
            {
              "pitch": 60,
              "velocity": 80,
              "position": 26.260416666666668,
              "duration": 0.4270833333333333
            },
            {
              "pitch": 70,
              "velocity": 80,
              "position": 26.260416666666668,
              "duration": 0.4479166666666667
            },
            {
              "pitch": 64,
              "velocity": 92,
              "position": 26.75,
              "duration": 0.4375
            },
            {
              "pitch": 52,
              "velocity": 92,
              "position": 26.760416666666668,
              "duration": 0.4375
            },
            {
              "pitch": 60,
              "velocity": 88,
              "position": 27.25,
              "duration": 0.3854166666666667
            },
            {
              "pitch": 58,
              "velocity": 110,
              "position": 27.25,
              "duration": 0.3958333333333333
            },
            {
              "pitch": 72,
              "velocity": 88,
              "position": 27.25,
              "duration": 0.40625
            },
            {
              "pitch": 70,
              "velocity": 110,
              "position": 27.25,
              "duration": 0.4583333333333333
            },
            {
              "pitch": 52,
              "velocity": 90,
              "position": 27.75,
              "duration": 0.19791666666666666
            },
            {
              "pitch": 64,
              "velocity": 92,
              "position": 27.75,
              "duration": 0.19791666666666666
            },
            {
              "pitch": 64,
              "velocity": 88,
              "position": 28,
              "duration": 0.17708333333333334
            },
            {
              "pitch": 52,
              "velocity": 88,
              "position": 28,
              "duration": 0.1875
            },
            {
              "pitch": 58,
              "velocity": 90,
              "position": 28.25,
              "duration": 0.1875
            },
            {
              "pitch": 70,
              "velocity": 104,
              "position": 28.25,
              "duration": 0.1875
            },
            {
              "pitch": 60,
              "velocity": 88,
              "position": 28.5,
              "duration": 0.23958333333333334
            },
            {
              "pitch": 72,
              "velocity": 76,
              "position": 28.5,
              "duration": 0.2604166666666667
            },
            {
              "pitch": 52,
              "velocity": 94,
              "position": 28.760416666666668,
              "duration": 0.40625
            },
            {
              "pitch": 64,
              "velocity": 80,
              "position": 28.760416666666668,
              "duration": 0.4270833333333333
            },
            {
              "pitch": 72,
              "velocity": 88,
              "position": 29.260416666666668,
              "duration": 0.3958333333333333
            },
            {
              "pitch": 60,
              "velocity": 76,
              "position": 29.25,
              "duration": 0.4375
            },
            {
              "pitch": 58,
              "velocity": 110,
              "position": 29.25,
              "duration": 0.4791666666666667
            },
            {
              "pitch": 70,
              "velocity": 90,
              "position": 29.25,
              "duration": 0.4791666666666667
            },
            {
              "pitch": 64,
              "velocity": 90,
              "position": 29.760416666666668,
              "duration": 0.4166666666666667
            },
            {
              "pitch": 52,
              "velocity": 90,
              "position": 29.760416666666668,
              "duration": 0.4479166666666667
            },
            {
              "pitch": 60,
              "velocity": 88,
              "position": 30.25,
              "duration": 0.3541666666666667
            },
            {
              "pitch": 58,
              "velocity": 88,
              "position": 30.25,
              "duration": 0.375
            },
            {
              "pitch": 72,
              "velocity": 88,
              "position": 30.260416666666668,
              "duration": 0.375
            },
            {
              "pitch": 70,
              "velocity": 110,
              "position": 30.260416666666668,
              "duration": 0.3958333333333333
            },
            {
              "pitch": 52,
              "velocity": 92,
              "position": 30.75,
              "duration": 0.4270833333333333
            },
            {
              "pitch": 64,
              "velocity": 92,
              "position": 30.75,
              "duration": 0.4791666666666667
            },
            {
              "pitch": 58,
              "velocity": 88,
              "position": 31.25,
              "duration": 0.1875
            },
            {
              "pitch": 60,
              "velocity": 88,
              "position": 31.25,
              "duration": 0.1875
            },
            {
              "pitch": 70,
              "velocity": 76,
              "position": 31.260416666666668,
              "duration": 0.1875
            },
            {
              "pitch": 72,
              "velocity": 88,
              "position": 31.260416666666668,
              "duration": 0.19791666666666666
            },
            {
              "pitch": 64,
              "velocity": 72,
              "position": 31.5,
              "duration": 0.1875
            },
            {
              "pitch": 52,
              "velocity": 92,
              "position": 31.5,
              "duration": 0.19791666666666666
            },
            {
              "pitch": 52,
              "velocity": 80,
              "position": 31.75,
              "duration": 0.17708333333333334
            },
            {
              "pitch": 64,
              "velocity": 94,
              "position": 31.75,
              "duration": 0.17708333333333334
            }
          ]
        },
        "1": {
          "ctab": {
            "srcChannel": 1,
            "name": "BrasSect",
            "accType": "PHRASE1",
            "editable": false,
            "mutedNotes": [],
            "mutedChords": [
              "7aug",
              "Maj7aug",
              "7(#9)",
              "7(b13)",
              "7(b9)",
              "7(13)",
              "7#11",
              "7(9)",
              "7b5",
              "7sus4",
              "7th",
              "dim7",
              "dim",
              "minMaj7(9)",
              "minMaj7",
              "min7(11)",
              "min7(9)",
              "min(9)",
              "m7b5",
              "min7",
              "min6",
              "min"
            ],
            "autoStart": false,
            "sourceChordNote": 0,
            "sourceChordType": "Maj7",
            "ctb2Low": null,
            "ctb2Main": {
              "ntr": "ROOT_TRANSPOSITION",
              "ntt": "CHORD",
              "bassOn": false,
              "chordRootUpperLimit": 6,
              "noteLowLimit": 0,
              "noteHighLimit": 127,
              "rtr": "PITCH_SHIFT"
            },
            "ctb2High": null
          },
          "notes": [
            {
              "pitch": 79,
              "velocity": 126,
              "position": 0,
              "duration": 0.3541666666666667
            },
            {
              "pitch": 74,
              "velocity": 124,
              "position": 0,
              "duration": 0.3541666666666667
            },
            {
              "pitch": 76,
              "velocity": 110,
              "position": 0,
              "duration": 0.4166666666666667
            },
            {
              "pitch": 71,
              "velocity": 110,
              "position": 0,
              "duration": 0.4895833333333333
            },
            {
              "pitch": 77,
              "velocity": 64,
              "position": 0.3333333333333333,
              "duration": 0.19791666666666666
            },
            {
              "pitch": 74,
              "velocity": 54,
              "position": 0.3645833333333333,
              "duration": 0.1875
            },
            {
              "pitch": 71,
              "velocity": 50,
              "position": 0.5,
              "duration": 0.11458333333333333
            },
            {
              "pitch": 69,
              "velocity": 54,
              "position": 0.4895833333333333,
              "duration": 0.17708333333333334
            },
            {
              "pitch": 76,
              "velocity": 66,
              "position": 0.5104166666666666,
              "duration": 0.15625
            },
            {
              "pitch": 67,
              "velocity": 60,
              "position": 0.6354166666666666,
              "duration": 0.16666666666666666
            },
            {
              "pitch": 71,
              "velocity": 54,
              "position": 0.625,
              "duration": 0.1875
            },
            {
              "pitch": 74,
              "velocity": 50,
              "position": 0.65625,
              "duration": 0.1875
            },
            {
              "pitch": 65,
              "velocity": 52,
              "position": 0.75,
              "duration": 0.13541666666666666
            },
            {
              "pitch": 69,
              "velocity": 44,
              "position": 0.75,
              "duration": 0.16666666666666666
            },
            {
              "pitch": 71,
              "velocity": 36,
              "position": 0.8229166666666666,
              "duration": 0.13541666666666666
            },
            {
              "pitch": 67,
              "velocity": 28,
              "position": 0.8854166666666666,
              "duration": 0.10416666666666667
            },
            {
              "pitch": 64,
              "velocity": 26,
              "position": 0.8958333333333334,
              "duration": 0.09375
            },
            {
              "pitch": 71,
              "velocity": 14,
              "position": 0.96875,
              "duration": 0.11458333333333333
            },
            {
              "pitch": 57,
              "velocity": 92,
              "position": 22.25,
              "duration": 0.16666666666666666
            },
            {
              "pitch": 69,
              "velocity": 92,
              "position": 22.25,
              "duration": 0.20833333333333334
            },
            {
              "pitch": 71,
              "velocity": 98,
              "position": 22.760416666666668,
              "duration": 0.1875
            },
            {
              "pitch": 59,
              "velocity": 110,
              "position": 22.75,
              "duration": 0.20833333333333334
            },
            {
              "pitch": 71,
              "velocity": 110,
              "position": 23.260416666666668,
              "duration": 0.19791666666666666
            },
            {
              "pitch": 59,
              "velocity": 110,
              "position": 23.25,
              "duration": 0.21875
            },
            {
              "pitch": 62,
              "velocity": 126,
              "position": 23.489583333333332,
              "duration": 0.15625
            },
            {
              "pitch": 74,
              "velocity": 122,
              "position": 23.5,
              "duration": 0.16666666666666666
            },
            {
              "pitch": 67,
              "velocity": 110,
              "position": 24.010416666666668,
              "duration": 3.9583333333333335
            },
            {
              "pitch": 79,
              "velocity": 110,
              "position": 24.010416666666668,
              "duration": 3.9583333333333335
            }
          ]
        },
        "2": {
          "ctab": {
            "srcChannel": 2,
            "name": "BrasSect",
            "accType": "PHRASE1",
            "editable": false,
            "mutedNotes": [],
            "mutedChords": [
              "1+2+5",
              "sus4",
              "1+5",
              "1+8",
              "7aug",
              "Maj7aug",
              "7(#9)",
              "7(b13)",
              "7(b9)",
              "7(13)",
              "7#11",
              "7(9)",
              "7b5",
              "7sus4",
              "7th",
              "aug",
              "Maj6(9)",
              "Maj7(9)",
              "Maj(9)",
              "Maj7#11",
              "Maj7",
              "Maj6",
              "Maj"
            ],
            "autoStart": false,
            "sourceChordNote": 0,
            "sourceChordType": "minMaj7",
            "ctb2Low": null,
            "ctb2Main": {
              "ntr": "ROOT_TRANSPOSITION",
              "ntt": "CHORD",
              "bassOn": false,
              "chordRootUpperLimit": 6,
              "noteLowLimit": 0,
              "noteHighLimit": 127,
              "rtr": "PITCH_SHIFT"
            },
            "ctb2High": null
          },
          "notes": [
            {
              "pitch": 79,
              "velocity": 126,
              "position": 0,
              "duration": 0.3541666666666667
            },
            {
              "pitch": 71,
              "velocity": 110,
              "position": 0,
              "duration": 0.3541666666666667
            },
            {
              "pitch": 75,
              "velocity": 110,
              "position": 0,
              "duration": 0.4166666666666667
            },
            {
              "pitch": 77,
              "velocity": 64,
              "position": 0.3333333333333333,
              "duration": 0.19791666666666666
            },
            {
              "pitch": 74,
              "velocity": 54,
              "position": 0.3645833333333333,
              "duration": 0.1875
            },
            {
              "pitch": 71,
              "velocity": 50,
              "position": 0.5,
              "duration": 0.11458333333333333
            },
            {
              "pitch": 69,
              "velocity": 54,
              "position": 0.4895833333333333,
              "duration": 0.17708333333333334
            },
            {
              "pitch": 75,
              "velocity": 66,
              "position": 0.5104166666666666,
              "duration": 0.15625
            },
            {
              "pitch": 67,
              "velocity": 60,
              "position": 0.6354166666666666,
              "duration": 0.16666666666666666
            },
            {
              "pitch": 71,
              "velocity": 54,
              "position": 0.625,
              "duration": 0.1875
            },
            {
              "pitch": 74,
              "velocity": 50,
              "position": 0.65625,
              "duration": 0.1875
            },
            {
              "pitch": 65,
              "velocity": 52,
              "position": 0.75,
              "duration": 0.13541666666666666
            },
            {
              "pitch": 69,
              "velocity": 44,
              "position": 0.75,
              "duration": 0.16666666666666666
            },
            {
              "pitch": 71,
              "velocity": 36,
              "position": 0.8229166666666666,
              "duration": 0.13541666666666666
            },
            {
              "pitch": 67,
              "velocity": 28,
              "position": 0.8854166666666666,
              "duration": 0.10416666666666667
            },
            {
              "pitch": 63,
              "velocity": 26,
              "position": 0.8958333333333334,
              "duration": 0.09375
            },
            {
              "pitch": 71,
              "velocity": 14,
              "position": 0.96875,
              "duration": 0.11458333333333333
            },
            {
              "pitch": 55,
              "velocity": 92,
              "position": 22.25,
              "duration": 0.16666666666666666
            },
            {
              "pitch": 67,
              "velocity": 92,
              "position": 22.25,
              "duration": 0.20833333333333334
            },
            {
              "pitch": 71,
              "velocity": 98,
              "position": 22.760416666666668,
              "duration": 0.1875
            },
            {
              "pitch": 59,
              "velocity": 110,
              "position": 22.75,
              "duration": 0.20833333333333334
            },
            {
              "pitch": 71,
              "velocity": 110,
              "position": 23.260416666666668,
              "duration": 0.19791666666666666
            },
            {
              "pitch": 59,
              "velocity": 110,
              "position": 23.25,
              "duration": 0.21875
            },
            {
              "pitch": 62,
              "velocity": 126,
              "position": 23.489583333333332,
              "duration": 0.15625
            },
            {
              "pitch": 74,
              "velocity": 122,
              "position": 23.5,
              "duration": 0.16666666666666666
            },
            {
              "pitch": 63,
              "velocity": 110,
              "position": 24.010416666666668,
              "duration": 3.9583333333333335
            },
            {
              "pitch": 75,
              "velocity": 110,
              "position": 24.010416666666668,
              "duration": 3.9583333333333335
            }
          ]
        },
        "3": {
          "ctab": {
            "srcChannel": 3,
            "name": "BrasSect",
            "accType": "PHRASE1",
            "editable": false,
            "mutedNotes": [],
            "mutedChords": [
              "1+2+5",
              "sus4",
              "1+5",
              "1+8",
              "dim7",
              "dim",
              "minMaj7(9)",
              "minMaj7",
              "min7(11)",
              "min7(9)",
              "min(9)",
              "m7b5",
              "min7",
              "min6",
              "min",
              "aug",
              "Maj6(9)",
              "Maj7(9)",
              "Maj(9)",
              "Maj7#11",
              "Maj7",
              "Maj6",
              "Maj"
            ],
            "autoStart": false,
            "sourceChordNote": 0,
            "sourceChordType": "7th",
            "ctb2Low": null,
            "ctb2Main": {
              "ntr": "ROOT_TRANSPOSITION",
              "ntt": "CHORD",
              "bassOn": false,
              "chordRootUpperLimit": 6,
              "noteLowLimit": 0,
              "noteHighLimit": 127,
              "rtr": "PITCH_SHIFT"
            },
            "ctb2High": null
          },
          "notes": [
            {
              "pitch": 82,
              "velocity": 126,
              "position": 0,
              "duration": 0.3541666666666667
            },
            {
              "pitch": 72,
              "velocity": 124,
              "position": 0,
              "duration": 0.3541666666666667
            },
            {
              "pitch": 76,
              "velocity": 110,
              "position": 0,
              "duration": 0.4166666666666667
            },
            {
              "pitch": 70,
              "velocity": 110,
              "position": 0,
              "duration": 0.4895833333333333
            },
            {
              "pitch": 77,
              "velocity": 64,
              "position": 0.3333333333333333,
              "duration": 0.19791666666666666
            },
            {
              "pitch": 74,
              "velocity": 54,
              "position": 0.3645833333333333,
              "duration": 0.1875
            },
            {
              "pitch": 72,
              "velocity": 50,
              "position": 0.5,
              "duration": 0.14583333333333334
            },
            {
              "pitch": 69,
              "velocity": 54,
              "position": 0.4895833333333333,
              "duration": 0.17708333333333334
            },
            {
              "pitch": 76,
              "velocity": 66,
              "position": 0.5104166666666666,
              "duration": 0.15625
            },
            {
              "pitch": 70,
              "velocity": 54,
              "position": 0.625,
              "duration": 0.17708333333333334
            },
            {
              "pitch": 74,
              "velocity": 50,
              "position": 0.65625,
              "duration": 0.1875
            },
            {
              "pitch": 65,
              "velocity": 52,
              "position": 0.75,
              "duration": 0.13541666666666666
            },
            {
              "pitch": 69,
              "velocity": 44,
              "position": 0.75,
              "duration": 0.16666666666666666
            },
            {
              "pitch": 72,
              "velocity": 36,
              "position": 0.8229166666666666,
              "duration": 0.13541666666666666
            },
            {
              "pitch": 70,
              "velocity": 28,
              "position": 0.8854166666666666,
              "duration": 0.07291666666666667
            },
            {
              "pitch": 64,
              "velocity": 26,
              "position": 0.8958333333333334,
              "duration": 0.09375
            },
            {
              "pitch": 70,
              "velocity": 14,
              "position": 0.96875,
              "duration": 0.11458333333333333
            },
            {
              "pitch": 58,
              "velocity": 92,
              "position": 22.25,
              "duration": 0.16666666666666666
            },
            {
              "pitch": 70,
              "velocity": 92,
              "position": 22.25,
              "duration": 0.20833333333333334
            },
            {
              "pitch": 70,
              "velocity": 98,
              "position": 22.760416666666668,
              "duration": 0.1875
            },
            {
              "pitch": 58,
              "velocity": 110,
              "position": 22.75,
              "duration": 0.20833333333333334
            },
            {
              "pitch": 72,
              "velocity": 110,
              "position": 23.260416666666668,
              "duration": 0.19791666666666666
            },
            {
              "pitch": 60,
              "velocity": 110,
              "position": 23.25,
              "duration": 0.21875
            },
            {
              "pitch": 64,
              "velocity": 126,
              "position": 23.489583333333332,
              "duration": 0.15625
            },
            {
              "pitch": 76,
              "velocity": 122,
              "position": 23.5,
              "duration": 0.16666666666666666
            },
            {
              "pitch": 72,
              "velocity": 110,
              "position": 24.010416666666668,
              "duration": 3.9583333333333335
            },
            {
              "pitch": 60,
              "velocity": 110,
              "position": 24.010416666666668,
              "duration": 3.9583333333333335
            }
          ]
        },
        "4": {
          "ctab": {
            "srcChannel": 4,
            "name": "BrasSect",
            "accType": "PHRASE2",
            "editable": false,
            "mutedNotes": [],
            "mutedChords": [
              "7aug",
              "Maj7aug",
              "7(#9)",
              "7(b13)",
              "7(b9)",
              "7(13)",
              "7#11",
              "7(9)",
              "7b5",
              "7sus4",
              "7th",
              "dim7",
              "dim",
              "minMaj7(9)",
              "minMaj7",
              "min7(11)",
              "min7(9)",
              "min(9)",
              "m7b5",
              "min7",
              "min6",
              "min"
            ],
            "autoStart": false,
            "sourceChordNote": 0,
            "sourceChordType": "Maj7",
            "ctb2Low": null,
            "ctb2Main": {
              "ntr": "ROOT_TRANSPOSITION",
              "ntt": "CHORD",
              "bassOn": false,
              "chordRootUpperLimit": 6,
              "noteLowLimit": 0,
              "noteHighLimit": 127,
              "rtr": "PITCH_SHIFT"
            },
            "ctb2High": null
          },
          "notes": [
            {
              "pitch": 67,
              "velocity": 118,
              "position": 0,
              "duration": 0.5520833333333334
            },
            {
              "pitch": 64,
              "velocity": 118,
              "position": 0,
              "duration": 0.6354166666666666
            },
            {
              "pitch": 59,
              "velocity": 112,
              "position": 0,
              "duration": 0.7291666666666666
            },
            {
              "pitch": 64,
              "velocity": 116,
              "position": 6.25,
              "duration": 0.20833333333333334
            },
            {
              "pitch": 52,
              "velocity": 110,
              "position": 6.260416666666667,
              "duration": 0.19791666666666666
            },
            {
              "pitch": 59,
              "velocity": 90,
              "position": 6.75,
              "duration": 0.1875
            },
            {
              "pitch": 48,
              "velocity": 88,
              "position": 6.760416666666667,
              "duration": 0.19791666666666666
            },
            {
              "pitch": 48,
              "velocity": 94,
              "position": 7.25,
              "duration": 0.1875
            },
            {
              "pitch": 59,
              "velocity": 94,
              "position": 7.25,
              "duration": 0.1875
            },
            {
              "pitch": 45,
              "velocity": 126,
              "position": 7.5,
              "duration": 0.20833333333333334
            },
            {
              "pitch": 57,
              "velocity": 126,
              "position": 7.5,
              "duration": 0.21875
            },
            {
              "pitch": 55,
              "velocity": 90,
              "position": 8,
              "duration": 2.9895833333333335
            },
            {
              "pitch": 59,
              "velocity": 98,
              "position": 14.260416666666666,
              "duration": 0.15625
            },
            {
              "pitch": 64,
              "velocity": 106,
              "position": 14.260416666666666,
              "duration": 0.15625
            },
            {
              "pitch": 67,
              "velocity": 116,
              "position": 14.260416666666666,
              "duration": 0.16666666666666666
            },
            {
              "pitch": 59,
              "velocity": 104,
              "position": 14.75,
              "duration": 0.19791666666666666
            },
            {
              "pitch": 64,
              "velocity": 84,
              "position": 14.75,
              "duration": 0.20833333333333334
            },
            {
              "pitch": 67,
              "velocity": 104,
              "position": 14.75,
              "duration": 0.21875
            },
            {
              "pitch": 59,
              "velocity": 118,
              "position": 15,
              "duration": 0.20833333333333334
            },
            {
              "pitch": 67,
              "velocity": 118,
              "position": 15,
              "duration": 0.22916666666666666
            },
            {
              "pitch": 64,
              "velocity": 118,
              "position": 15,
              "duration": 0.22916666666666666
            },
            {
              "pitch": 59,
              "velocity": 100,
              "position": 15.260416666666666,
              "duration": 0.14583333333333334
            },
            {
              "pitch": 67,
              "velocity": 108,
              "position": 15.260416666666666,
              "duration": 0.15625
            },
            {
              "pitch": 64,
              "velocity": 104,
              "position": 15.260416666666666,
              "duration": 0.16666666666666666
            },
            {
              "pitch": 59,
              "velocity": 118,
              "position": 15.760416666666666,
              "duration": 0.21875
            },
            {
              "pitch": 64,
              "velocity": 124,
              "position": 15.770833333333334,
              "duration": 0.20833333333333334
            },
            {
              "pitch": 67,
              "velocity": 122,
              "position": 15.770833333333334,
              "duration": 0.21875
            }
          ]
        },
        "5": {
          "ctab": {
            "srcChannel": 5,
            "name": "BrasSect",
            "accType": "PHRASE2",
            "editable": false,
            "mutedNotes": [],
            "mutedChords": [
              "1+2+5",
              "sus4",
              "1+5",
              "1+8",
              "7aug",
              "Maj7aug",
              "7(#9)",
              "7(b13)",
              "7(b9)",
              "7(13)",
              "7#11",
              "7(9)",
              "7b5",
              "7sus4",
              "7th",
              "aug",
              "Maj6(9)",
              "Maj7(9)",
              "Maj(9)",
              "Maj7#11",
              "Maj7",
              "Maj6",
              "Maj"
            ],
            "autoStart": false,
            "sourceChordNote": 0,
            "sourceChordType": "minMaj7",
            "ctb2Low": null,
            "ctb2Main": {
              "ntr": "ROOT_TRANSPOSITION",
              "ntt": "CHORD",
              "bassOn": false,
              "chordRootUpperLimit": 6,
              "noteLowLimit": 0,
              "noteHighLimit": 127,
              "rtr": "PITCH_SHIFT"
            },
            "ctb2High": null
          },
          "notes": [
            {
              "pitch": 67,
              "velocity": 118,
              "position": 0,
              "duration": 0.5520833333333334
            },
            {
              "pitch": 63,
              "velocity": 118,
              "position": 0,
              "duration": 0.6354166666666666
            },
            {
              "pitch": 59,
              "velocity": 112,
              "position": 0,
              "duration": 0.7291666666666666
            },
            {
              "pitch": 67,
              "velocity": 116,
              "position": 6.25,
              "duration": 0.20833333333333334
            },
            {
              "pitch": 55,
              "velocity": 110,
              "position": 6.260416666666667,
              "duration": 0.19791666666666666
            },
            {
              "pitch": 63,
              "velocity": 90,
              "position": 6.75,
              "duration": 0.1875
            },
            {
              "pitch": 51,
              "velocity": 88,
              "position": 6.760416666666667,
              "duration": 0.19791666666666666
            },
            {
              "pitch": 63,
              "velocity": 94,
              "position": 7.25,
              "duration": 0.1875
            },
            {
              "pitch": 51,
              "velocity": 94,
              "position": 7.25,
              "duration": 0.1875
            },
            {
              "pitch": 50,
              "velocity": 126,
              "position": 7.5,
              "duration": 0.20833333333333334
            },
            {
              "pitch": 62,
              "velocity": 126,
              "position": 7.5,
              "duration": 0.21875
            },
            {
              "pitch": 63,
              "velocity": 90,
              "position": 8,
              "duration": 2.9895833333333335
            },
            {
              "pitch": 51,
              "velocity": 88,
              "position": 8,
              "duration": 2.9895833333333335
            },
            {
              "pitch": 59,
              "velocity": 98,
              "position": 14.260416666666666,
              "duration": 0.15625
            },
            {
              "pitch": 63,
              "velocity": 106,
              "position": 14.260416666666666,
              "duration": 0.15625
            },
            {
              "pitch": 67,
              "velocity": 116,
              "position": 14.260416666666666,
              "duration": 0.16666666666666666
            },
            {
              "pitch": 59,
              "velocity": 104,
              "position": 14.75,
              "duration": 0.19791666666666666
            },
            {
              "pitch": 63,
              "velocity": 84,
              "position": 14.75,
              "duration": 0.20833333333333334
            },
            {
              "pitch": 67,
              "velocity": 104,
              "position": 14.75,
              "duration": 0.21875
            },
            {
              "pitch": 59,
              "velocity": 118,
              "position": 15,
              "duration": 0.20833333333333334
            },
            {
              "pitch": 67,
              "velocity": 118,
              "position": 15,
              "duration": 0.22916666666666666
            },
            {
              "pitch": 63,
              "velocity": 118,
              "position": 15,
              "duration": 0.22916666666666666
            },
            {
              "pitch": 59,
              "velocity": 100,
              "position": 15.260416666666666,
              "duration": 0.14583333333333334
            },
            {
              "pitch": 67,
              "velocity": 108,
              "position": 15.260416666666666,
              "duration": 0.15625
            },
            {
              "pitch": 63,
              "velocity": 104,
              "position": 15.260416666666666,
              "duration": 0.16666666666666666
            },
            {
              "pitch": 59,
              "velocity": 118,
              "position": 15.760416666666666,
              "duration": 0.21875
            },
            {
              "pitch": 63,
              "velocity": 124,
              "position": 15.770833333333334,
              "duration": 0.20833333333333334
            },
            {
              "pitch": 67,
              "velocity": 122,
              "position": 15.770833333333334,
              "duration": 0.21875
            }
          ]
        },
        "6": {
          "ctab": {
            "srcChannel": 6,
            "name": "BrasSect",
            "accType": "PHRASE2",
            "editable": false,
            "mutedNotes": [],
            "mutedChords": [
              "1+2+5",
              "sus4",
              "1+5",
              "1+8",
              "dim7",
              "dim",
              "minMaj7(9)",
              "minMaj7",
              "min7(11)",
              "min7(9)",
              "min(9)",
              "m7b5",
              "min7",
              "min6",
              "min",
              "aug",
              "Maj6(9)",
              "Maj7(9)",
              "Maj(9)",
              "Maj7#11",
              "Maj7",
              "Maj6",
              "Maj"
            ],
            "autoStart": false,
            "sourceChordNote": 0,
            "sourceChordType": "7th",
            "ctb2Low": null,
            "ctb2Main": {
              "ntr": "ROOT_TRANSPOSITION",
              "ntt": "CHORD",
              "bassOn": false,
              "chordRootUpperLimit": 6,
              "noteLowLimit": 0,
              "noteHighLimit": 127,
              "rtr": "PITCH_SHIFT"
            },
            "ctb2High": null
          },
          "notes": [
            {
              "pitch": 70,
              "velocity": 118,
              "position": 0,
              "duration": 0.5520833333333334
            },
            {
              "pitch": 64,
              "velocity": 118,
              "position": 0,
              "duration": 0.6354166666666666
            },
            {
              "pitch": 60,
              "velocity": 112,
              "position": 0,
              "duration": 0.6979166666666666
            },
            {
              "pitch": 58,
              "velocity": 96,
              "position": 0,
              "duration": 0.7291666666666666
            },
            {
              "pitch": 70,
              "velocity": 116,
              "position": 6.25,
              "duration": 0.20833333333333334
            },
            {
              "pitch": 58,
              "velocity": 110,
              "position": 6.260416666666667,
              "duration": 0.19791666666666666
            },
            {
              "pitch": 64,
              "velocity": 90,
              "position": 6.75,
              "duration": 0.1875
            },
            {
              "pitch": 52,
              "velocity": 88,
              "position": 6.760416666666667,
              "duration": 0.19791666666666666
            },
            {
              "pitch": 64,
              "velocity": 94,
              "position": 7.25,
              "duration": 0.1875
            },
            {
              "pitch": 52,
              "velocity": 94,
              "position": 7.25,
              "duration": 0.1875
            },
            {
              "pitch": 50,
              "velocity": 126,
              "position": 7.5,
              "duration": 0.20833333333333334
            },
            {
              "pitch": 62,
              "velocity": 126,
              "position": 7.5,
              "duration": 0.21875
            },
            {
              "pitch": 64,
              "velocity": 90,
              "position": 8,
              "duration": 2.9895833333333335
            },
            {
              "pitch": 52,
              "velocity": 88,
              "position": 8,
              "duration": 2.9895833333333335
            },
            {
              "pitch": 58,
              "velocity": 98,
              "position": 14.260416666666666,
              "duration": 0.15625
            },
            {
              "pitch": 60,
              "velocity": 100,
              "position": 14.260416666666666,
              "duration": 0.15625
            },
            {
              "pitch": 64,
              "velocity": 106,
              "position": 14.260416666666666,
              "duration": 0.15625
            },
            {
              "pitch": 70,
              "velocity": 116,
              "position": 14.260416666666666,
              "duration": 0.16666666666666666
            },
            {
              "pitch": 60,
              "velocity": 90,
              "position": 14.75,
              "duration": 0.19791666666666666
            },
            {
              "pitch": 64,
              "velocity": 84,
              "position": 14.75,
              "duration": 0.20833333333333334
            },
            {
              "pitch": 58,
              "velocity": 104,
              "position": 14.75,
              "duration": 0.21875
            },
            {
              "pitch": 70,
              "velocity": 104,
              "position": 14.75,
              "duration": 0.21875
            },
            {
              "pitch": 60,
              "velocity": 112,
              "position": 15,
              "duration": 0.20833333333333334
            },
            {
              "pitch": 70,
              "velocity": 118,
              "position": 15,
              "duration": 0.22916666666666666
            },
            {
              "pitch": 64,
              "velocity": 118,
              "position": 15,
              "duration": 0.22916666666666666
            },
            {
              "pitch": 58,
              "velocity": 118,
              "position": 15,
              "duration": 0.22916666666666666
            },
            {
              "pitch": 60,
              "velocity": 92,
              "position": 15.260416666666666,
              "duration": 0.14583333333333334
            },
            {
              "pitch": 70,
              "velocity": 108,
              "position": 15.260416666666666,
              "duration": 0.15625
            },
            {
              "pitch": 64,
              "velocity": 104,
              "position": 15.260416666666666,
              "duration": 0.16666666666666666
            },
            {
              "pitch": 58,
              "velocity": 100,
              "position": 15.260416666666666,
              "duration": 0.16666666666666666
            },
            {
              "pitch": 64,
              "velocity": 124,
              "position": 15.770833333333334,
              "duration": 0.20833333333333334
            },
            {
              "pitch": 58,
              "velocity": 110,
              "position": 15.770833333333334,
              "duration": 0.20833333333333334
            },
            {
              "pitch": 60,
              "velocity": 118,
              "position": 15.760416666666666,
              "duration": 0.22916666666666666
            },
            {
              "pitch": 70,
              "velocity": 122,
              "position": 15.770833333333334,
              "duration": 0.21875
            }
          ]
        },
        "8": {
          "ctab": {
            "srcChannel": 8,
            "name": "Std.Kit1",
            "accType": "RHYTHM",
            "editable": false,
            "mutedNotes": [],
            "mutedChords": [],
            "autoStart": true,
            "sourceChordNote": 0,
            "sourceChordType": "Maj7",
            "ctb2Low": null,
            "ctb2Main": {
              "ntr": "ROOT_FIXED",
              "ntt": "BYPASS",
              "bassOn": false,
              "chordRootUpperLimit": 6,
              "noteLowLimit": 0,
              "noteHighLimit": 127,
              "rtr": "PITCH_SHIFT"
            },
            "ctb2High": null
          },
          "notes": [
            {
              "pitch": 55,
              "velocity": 124,
              "position": 0,
              "duration": 0.015625
            },
            {
              "pitch": 42,
              "velocity": 92,
              "position": 0,
              "duration": 0.015625
            },
            {
              "pitch": 42,
              "velocity": 80,
              "position": 0.4895833333333333,
              "duration": 0.015625
            },
            {
              "pitch": 42,
              "velocity": 72,
              "position": 0.75,
              "duration": 0.015625
            },
            {
              "pitch": 36,
              "velocity": 110,
              "position": 0.7604166666666666,
              "duration": 0.015625
            },
            {
              "pitch": 42,
              "velocity": 92,
              "position": 1,
              "duration": 0.015625
            },
            {
              "pitch": 42,
              "velocity": 80,
              "position": 1.4895833333333333,
              "duration": 0.015625
            },
            {
              "pitch": 42,
              "velocity": 80,
              "position": 1.75,
              "duration": 0.015625
            },
            {
              "pitch": 42,
              "velocity": 70,
              "position": 2,
              "duration": 0.015625
            },
            {
              "pitch": 42,
              "velocity": 72,
              "position": 2.4895833333333335,
              "duration": 0.015625
            },
            {
              "pitch": 42,
              "velocity": 80,
              "position": 2.7604166666666665,
              "duration": 0.015625
            },
            {
              "pitch": 36,
              "velocity": 106,
              "position": 2.7604166666666665,
              "duration": 0.015625
            },
            {
              "pitch": 42,
              "velocity": 90,
              "position": 3,
              "duration": 0.015625
            },
            {
              "pitch": 42,
              "velocity": 80,
              "position": 3.4895833333333335,
              "duration": 0.015625
            },
            {
              "pitch": 42,
              "velocity": 80,
              "position": 3.75,
              "duration": 0.015625
            },
            {
              "pitch": 42,
              "velocity": 92,
              "position": 4,
              "duration": 0.015625
            },
            {
              "pitch": 42,
              "velocity": 80,
              "position": 4.5,
              "duration": 0.015625
            },
            {
              "pitch": 42,
              "velocity": 72,
              "position": 4.75,
              "duration": 0.015625
            },
            {
              "pitch": 36,
              "velocity": 110,
              "position": 4.760416666666667,
              "duration": 0.015625
            },
            {
              "pitch": 42,
              "velocity": 90,
              "position": 5,
              "duration": 0.015625
            },
            {
              "pitch": 42,
              "velocity": 80,
              "position": 5.489583333333333,
              "duration": 0.015625
            },
            {
              "pitch": 42,
              "velocity": 92,
              "position": 5.75,
              "duration": 0.015625
            },
            {
              "pitch": 42,
              "velocity": 80,
              "position": 6,
              "duration": 0.015625
            },
            {
              "pitch": 42,
              "velocity": 94,
              "position": 6.489583333333333,
              "duration": 0.015625
            },
            {
              "pitch": 42,
              "velocity": 80,
              "position": 6.75,
              "duration": 0.015625
            },
            {
              "pitch": 36,
              "velocity": 110,
              "position": 6.760416666666667,
              "duration": 0.015625
            },
            {
              "pitch": 42,
              "velocity": 80,
              "position": 7,
              "duration": 0.015625
            },
            {
              "pitch": 42,
              "velocity": 92,
              "position": 7.5,
              "duration": 0.015625
            },
            {
              "pitch": 42,
              "velocity": 80,
              "position": 7.75,
              "duration": 0.015625
            },
            {
              "pitch": 42,
              "velocity": 92,
              "position": 8,
              "duration": 0.015625
            },
            {
              "pitch": 42,
              "velocity": 80,
              "position": 8.489583333333334,
              "duration": 0.015625
            },
            {
              "pitch": 42,
              "velocity": 72,
              "position": 8.75,
              "duration": 0.015625
            },
            {
              "pitch": 36,
              "velocity": 108,
              "position": 8.760416666666666,
              "duration": 0.015625
            },
            {
              "pitch": 42,
              "velocity": 92,
              "position": 9,
              "duration": 0.015625
            },
            {
              "pitch": 42,
              "velocity": 80,
              "position": 9.489583333333334,
              "duration": 0.015625
            },
            {
              "pitch": 42,
              "velocity": 80,
              "position": 9.75,
              "duration": 0.015625
            },
            {
              "pitch": 42,
              "velocity": 86,
              "position": 10,
              "duration": 0.015625
            },
            {
              "pitch": 42,
              "velocity": 72,
              "position": 10.489583333333334,
              "duration": 0.015625
            },
            {
              "pitch": 42,
              "velocity": 80,
              "position": 10.760416666666666,
              "duration": 0.015625
            },
            {
              "pitch": 36,
              "velocity": 112,
              "position": 10.760416666666666,
              "duration": 0.015625
            },
            {
              "pitch": 42,
              "velocity": 90,
              "position": 11,
              "duration": 0.015625
            },
            {
              "pitch": 42,
              "velocity": 80,
              "position": 11.489583333333334,
              "duration": 0.015625
            },
            {
              "pitch": 42,
              "velocity": 80,
              "position": 11.75,
              "duration": 0.015625
            },
            {
              "pitch": 42,
              "velocity": 92,
              "position": 12,
              "duration": 0.015625
            },
            {
              "pitch": 42,
              "velocity": 80,
              "position": 12.5,
              "duration": 0.015625
            },
            {
              "pitch": 42,
              "velocity": 72,
              "position": 12.75,
              "duration": 0.015625
            },
            {
              "pitch": 36,
              "velocity": 110,
              "position": 12.760416666666666,
              "duration": 0.015625
            },
            {
              "pitch": 42,
              "velocity": 90,
              "position": 13,
              "duration": 0.015625
            },
            {
              "pitch": 42,
              "velocity": 80,
              "position": 13.489583333333334,
              "duration": 0.015625
            },
            {
              "pitch": 42,
              "velocity": 92,
              "position": 13.75,
              "duration": 0.015625
            },
            {
              "pitch": 42,
              "velocity": 80,
              "position": 14,
              "duration": 0.015625
            },
            {
              "pitch": 42,
              "velocity": 94,
              "position": 14.489583333333334,
              "duration": 0.015625
            },
            {
              "pitch": 42,
              "velocity": 80,
              "position": 14.75,
              "duration": 0.015625
            },
            {
              "pitch": 36,
              "velocity": 110,
              "position": 14.760416666666666,
              "duration": 0.015625
            },
            {
              "pitch": 42,
              "velocity": 80,
              "position": 15,
              "duration": 0.015625
            },
            {
              "pitch": 42,
              "velocity": 92,
              "position": 15.5,
              "duration": 0.015625
            },
            {
              "pitch": 42,
              "velocity": 80,
              "position": 15.75,
              "duration": 0.015625
            },
            {
              "pitch": 42,
              "velocity": 92,
              "position": 16,
              "duration": 0.015625
            },
            {
              "pitch": 42,
              "velocity": 80,
              "position": 16.489583333333332,
              "duration": 0.015625
            },
            {
              "pitch": 42,
              "velocity": 72,
              "position": 16.75,
              "duration": 0.015625
            },
            {
              "pitch": 36,
              "velocity": 108,
              "position": 16.760416666666668,
              "duration": 0.015625
            },
            {
              "pitch": 42,
              "velocity": 92,
              "position": 17,
              "duration": 0.015625
            },
            {
              "pitch": 42,
              "velocity": 80,
              "position": 17.489583333333332,
              "duration": 0.015625
            },
            {
              "pitch": 42,
              "velocity": 80,
              "position": 17.75,
              "duration": 0.015625
            },
            {
              "pitch": 42,
              "velocity": 86,
              "position": 18,
              "duration": 0.015625
            },
            {
              "pitch": 42,
              "velocity": 72,
              "position": 18.489583333333332,
              "duration": 0.015625
            },
            {
              "pitch": 42,
              "velocity": 80,
              "position": 18.760416666666668,
              "duration": 0.015625
            },
            {
              "pitch": 36,
              "velocity": 112,
              "position": 18.760416666666668,
              "duration": 0.015625
            },
            {
              "pitch": 42,
              "velocity": 90,
              "position": 19,
              "duration": 0.015625
            },
            {
              "pitch": 42,
              "velocity": 80,
              "position": 19.489583333333332,
              "duration": 0.015625
            },
            {
              "pitch": 42,
              "velocity": 80,
              "position": 19.75,
              "duration": 0.015625
            },
            {
              "pitch": 42,
              "velocity": 92,
              "position": 20,
              "duration": 0.015625
            },
            {
              "pitch": 42,
              "velocity": 80,
              "position": 20.5,
              "duration": 0.015625
            },
            {
              "pitch": 42,
              "velocity": 72,
              "position": 20.75,
              "duration": 0.015625
            },
            {
              "pitch": 36,
              "velocity": 110,
              "position": 20.760416666666668,
              "duration": 0.015625
            },
            {
              "pitch": 42,
              "velocity": 90,
              "position": 21,
              "duration": 0.015625
            },
            {
              "pitch": 42,
              "velocity": 80,
              "position": 21.489583333333332,
              "duration": 0.015625
            },
            {
              "pitch": 42,
              "velocity": 92,
              "position": 21.75,
              "duration": 0.015625
            },
            {
              "pitch": 42,
              "velocity": 80,
              "position": 22,
              "duration": 0.015625
            },
            {
              "pitch": 42,
              "velocity": 94,
              "position": 22.489583333333332,
              "duration": 0.015625
            },
            {
              "pitch": 42,
              "velocity": 80,
              "position": 22.75,
              "duration": 0.015625
            },
            {
              "pitch": 36,
              "velocity": 110,
              "position": 22.760416666666668,
              "duration": 0.015625
            },
            {
              "pitch": 42,
              "velocity": 80,
              "position": 23,
              "duration": 0.015625
            },
            {
              "pitch": 42,
              "velocity": 92,
              "position": 23.5,
              "duration": 0.015625
            },
            {
              "pitch": 42,
              "velocity": 80,
              "position": 23.75,
              "duration": 0.015625
            },
            {
              "pitch": 42,
              "velocity": 92,
              "position": 24,
              "duration": 0.015625
            },
            {
              "pitch": 42,
              "velocity": 80,
              "position": 24.489583333333332,
              "duration": 0.015625
            },
            {
              "pitch": 42,
              "velocity": 72,
              "position": 24.75,
              "duration": 0.015625
            },
            {
              "pitch": 36,
              "velocity": 108,
              "position": 24.760416666666668,
              "duration": 0.015625
            },
            {
              "pitch": 42,
              "velocity": 92,
              "position": 25,
              "duration": 0.015625
            },
            {
              "pitch": 42,
              "velocity": 80,
              "position": 25.489583333333332,
              "duration": 0.015625
            },
            {
              "pitch": 42,
              "velocity": 80,
              "position": 25.75,
              "duration": 0.015625
            },
            {
              "pitch": 42,
              "velocity": 86,
              "position": 26,
              "duration": 0.015625
            },
            {
              "pitch": 42,
              "velocity": 72,
              "position": 26.489583333333332,
              "duration": 0.015625
            },
            {
              "pitch": 42,
              "velocity": 80,
              "position": 26.760416666666668,
              "duration": 0.015625
            },
            {
              "pitch": 36,
              "velocity": 112,
              "position": 26.760416666666668,
              "duration": 0.015625
            },
            {
              "pitch": 42,
              "velocity": 90,
              "position": 27,
              "duration": 0.015625
            },
            {
              "pitch": 42,
              "velocity": 80,
              "position": 27.489583333333332,
              "duration": 0.015625
            },
            {
              "pitch": 42,
              "velocity": 80,
              "position": 27.75,
              "duration": 0.015625
            },
            {
              "pitch": 42,
              "velocity": 92,
              "position": 28,
              "duration": 0.015625
            },
            {
              "pitch": 42,
              "velocity": 80,
              "position": 28.5,
              "duration": 0.015625
            },
            {
              "pitch": 42,
              "velocity": 72,
              "position": 28.75,
              "duration": 0.015625
            },
            {
              "pitch": 36,
              "velocity": 110,
              "position": 28.760416666666668,
              "duration": 0.015625
            },
            {
              "pitch": 42,
              "velocity": 90,
              "position": 29,
              "duration": 0.015625
            },
            {
              "pitch": 42,
              "velocity": 80,
              "position": 29.489583333333332,
              "duration": 0.015625
            },
            {
              "pitch": 42,
              "velocity": 92,
              "position": 29.75,
              "duration": 0.015625
            },
            {
              "pitch": 42,
              "velocity": 80,
              "position": 30,
              "duration": 0.015625
            },
            {
              "pitch": 42,
              "velocity": 94,
              "position": 30.489583333333332,
              "duration": 0.015625
            },
            {
              "pitch": 42,
              "velocity": 80,
              "position": 30.75,
              "duration": 0.015625
            },
            {
              "pitch": 36,
              "velocity": 110,
              "position": 30.760416666666668,
              "duration": 0.015625
            },
            {
              "pitch": 42,
              "velocity": 80,
              "position": 31,
              "duration": 0.015625
            },
            {
              "pitch": 42,
              "velocity": 92,
              "position": 31.5,
              "duration": 0.015625
            },
            {
              "pitch": 42,
              "velocity": 80,
              "position": 31.75,
              "duration": 0.015625
            }
          ]
        },
        "10": {
          "ctab": {
            "srcChannel": 10,
            "name": "Std.Kit1",
            "accType": "SUBRHYTHM",
            "editable": false,
            "mutedNotes": [],
            "mutedChords": [],
            "autoStart": true,
            "sourceChordNote": 0,
            "sourceChordType": "Maj7",
            "ctb2Low": null,
            "ctb2Main": {
              "ntr": "ROOT_FIXED",
              "ntt": "BYPASS",
              "bassOn": false,
              "chordRootUpperLimit": 6,
              "noteLowLimit": 0,
              "noteHighLimit": 127,
              "rtr": "PITCH_SHIFT"
            },
            "ctb2High": null
          },
          "notes": [
            {
              "pitch": 60,
              "velocity": 90,
              "position": 0,
              "duration": 0.015625
            },
            {
              "pitch": 62,
              "velocity": 102,
              "position": 0,
              "duration": 0.015625
            },
            {
              "pitch": 33,
              "velocity": 110,
              "position": 0,
              "duration": 0.015625
            },
            {
              "pitch": 65,
              "velocity": 126,
              "position": 0.020833333333333332,
              "duration": 0.015625
            },
            {
              "pitch": 33,
              "velocity": 80,
              "position": 0.25,
              "duration": 0.015625
            },
            {
              "pitch": 61,
              "velocity": 64,
              "position": 0.25,
              "duration": 0.015625
            },
            {
              "pitch": 62,
              "velocity": 88,
              "position": 0.25,
              "duration": 0.015625
            },
            {
              "pitch": 62,
              "velocity": 112,
              "position": 0.4895833333333333,
              "duration": 0.015625
            },
            {
              "pitch": 33,
              "velocity": 110,
              "position": 0.5,
              "duration": 0.015625
            },
            {
              "pitch": 75,
              "velocity": 120,
              "position": 0.5,
              "duration": 0.015625
            },
            {
              "pitch": 61,
              "velocity": 72,
              "position": 0.5,
              "duration": 0.015625
            },
            {
              "pitch": 60,
              "velocity": 92,
              "position": 0.75,
              "duration": 0.015625
            },
            {
              "pitch": 33,
              "velocity": 72,
              "position": 0.75,
              "duration": 0.015625
            },
            {
              "pitch": 62,
              "velocity": 78,
              "position": 0.7604166666666666,
              "duration": 0.015625
            },
            {
              "pitch": 62,
              "velocity": 88,
              "position": 1,
              "duration": 0.015625
            },
            {
              "pitch": 60,
              "velocity": 80,
              "position": 1,
              "duration": 0.015625
            },
            {
              "pitch": 75,
              "velocity": 126,
              "position": 1,
              "duration": 0.015625
            },
            {
              "pitch": 33,
              "velocity": 110,
              "position": 1,
              "duration": 0.015625
            },
            {
              "pitch": 62,
              "velocity": 88,
              "position": 1.2604166666666667,
              "duration": 0.015625
            },
            {
              "pitch": 61,
              "velocity": 80,
              "position": 1.2604166666666667,
              "duration": 0.015625
            },
            {
              "pitch": 33,
              "velocity": 90,
              "position": 1.2604166666666667,
              "duration": 0.015625
            },
            {
              "pitch": 61,
              "velocity": 80,
              "position": 1.5,
              "duration": 0.015625
            },
            {
              "pitch": 64,
              "velocity": 100,
              "position": 1.5,
              "duration": 0.015625
            },
            {
              "pitch": 33,
              "velocity": 80,
              "position": 1.5,
              "duration": 0.015625
            },
            {
              "pitch": 64,
              "velocity": 100,
              "position": 1.7604166666666667,
              "duration": 0.015625
            },
            {
              "pitch": 60,
              "velocity": 110,
              "position": 1.7604166666666667,
              "duration": 0.015625
            },
            {
              "pitch": 33,
              "velocity": 92,
              "position": 1.7708333333333333,
              "duration": 0.015625
            },
            {
              "pitch": 75,
              "velocity": 120,
              "position": 2,
              "duration": 0.015625
            },
            {
              "pitch": 61,
              "velocity": 72,
              "position": 2,
              "duration": 0.015625
            },
            {
              "pitch": 62,
              "velocity": 96,
              "position": 2,
              "duration": 0.015625
            },
            {
              "pitch": 33,
              "velocity": 110,
              "position": 2.0104166666666665,
              "duration": 0.015625
            },
            {
              "pitch": 62,
              "velocity": 96,
              "position": 2.25,
              "duration": 0.015625
            },
            {
              "pitch": 61,
              "velocity": 80,
              "position": 2.2604166666666665,
              "duration": 0.015625
            },
            {
              "pitch": 33,
              "velocity": 72,
              "position": 2.2708333333333335,
              "duration": 0.015625
            },
            {
              "pitch": 62,
              "velocity": 110,
              "position": 2.5,
              "duration": 0.015625
            },
            {
              "pitch": 33,
              "velocity": 110,
              "position": 2.5,
              "duration": 0.015625
            },
            {
              "pitch": 61,
              "velocity": 72,
              "position": 2.5104166666666665,
              "duration": 0.015625
            },
            {
              "pitch": 62,
              "velocity": 88,
              "position": 2.75,
              "duration": 0.015625
            },
            {
              "pitch": 60,
              "velocity": 90,
              "position": 2.75,
              "duration": 0.015625
            },
            {
              "pitch": 75,
              "velocity": 120,
              "position": 2.7604166666666665,
              "duration": 0.015625
            },
            {
              "pitch": 33,
              "velocity": 110,
              "position": 2.7604166666666665,
              "duration": 0.015625
            },
            {
              "pitch": 60,
              "velocity": 80,
              "position": 3,
              "duration": 0.015625
            },
            {
              "pitch": 62,
              "velocity": 84,
              "position": 3,
              "duration": 0.015625
            },
            {
              "pitch": 33,
              "velocity": 64,
              "position": 3,
              "duration": 0.015625
            },
            {
              "pitch": 62,
              "velocity": 100,
              "position": 3.25,
              "duration": 0.015625
            },
            {
              "pitch": 61,
              "velocity": 80,
              "position": 3.2604166666666665,
              "duration": 0.015625
            },
            {
              "pitch": 33,
              "velocity": 104,
              "position": 3.2604166666666665,
              "duration": 0.015625
            },
            {
              "pitch": 64,
              "velocity": 100,
              "position": 3.4895833333333335,
              "duration": 0.015625
            },
            {
              "pitch": 61,
              "velocity": 90,
              "position": 3.4895833333333335,
              "duration": 0.015625
            },
            {
              "pitch": 75,
              "velocity": 112,
              "position": 3.5,
              "duration": 0.015625
            },
            {
              "pitch": 33,
              "velocity": 72,
              "position": 3.5,
              "duration": 0.015625
            },
            {
              "pitch": 61,
              "velocity": 80,
              "position": 3.75,
              "duration": 0.015625
            },
            {
              "pitch": 64,
              "velocity": 100,
              "position": 3.75,
              "duration": 0.015625
            },
            {
              "pitch": 33,
              "velocity": 92,
              "position": 3.75,
              "duration": 0.015625
            },
            {
              "pitch": 60,
              "velocity": 92,
              "position": 4,
              "duration": 0.015625
            },
            {
              "pitch": 62,
              "velocity": 88,
              "position": 4,
              "duration": 0.015625
            },
            {
              "pitch": 33,
              "velocity": 110,
              "position": 4,
              "duration": 0.015625
            },
            {
              "pitch": 61,
              "velocity": 80,
              "position": 4.25,
              "duration": 0.015625
            },
            {
              "pitch": 33,
              "velocity": 60,
              "position": 4.25,
              "duration": 0.015625
            },
            {
              "pitch": 62,
              "velocity": 88,
              "position": 4.25,
              "duration": 0.015625
            },
            {
              "pitch": 62,
              "velocity": 110,
              "position": 4.5,
              "duration": 0.015625
            },
            {
              "pitch": 33,
              "velocity": 110,
              "position": 4.5,
              "duration": 0.015625
            },
            {
              "pitch": 75,
              "velocity": 120,
              "position": 4.5,
              "duration": 0.015625
            },
            {
              "pitch": 61,
              "velocity": 92,
              "position": 4.5,
              "duration": 0.015625
            },
            {
              "pitch": 62,
              "velocity": 100,
              "position": 4.75,
              "duration": 0.015625
            },
            {
              "pitch": 33,
              "velocity": 72,
              "position": 4.75,
              "duration": 0.015625
            },
            {
              "pitch": 60,
              "velocity": 92,
              "position": 4.760416666666667,
              "duration": 0.015625
            },
            {
              "pitch": 62,
              "velocity": 100,
              "position": 4.989583333333333,
              "duration": 0.015625
            },
            {
              "pitch": 33,
              "velocity": 110,
              "position": 5,
              "duration": 0.015625
            },
            {
              "pitch": 60,
              "velocity": 80,
              "position": 5,
              "duration": 0.015625
            },
            {
              "pitch": 75,
              "velocity": 114,
              "position": 5.010416666666667,
              "duration": 0.015625
            },
            {
              "pitch": 62,
              "velocity": 100,
              "position": 5.25,
              "duration": 0.015625
            },
            {
              "pitch": 33,
              "velocity": 110,
              "position": 5.25,
              "duration": 0.015625
            },
            {
              "pitch": 61,
              "velocity": 90,
              "position": 5.260416666666667,
              "duration": 0.015625
            },
            {
              "pitch": 33,
              "velocity": 76,
              "position": 5.489583333333333,
              "duration": 0.015625
            },
            {
              "pitch": 61,
              "velocity": 90,
              "position": 5.5,
              "duration": 0.015625
            },
            {
              "pitch": 64,
              "velocity": 100,
              "position": 5.5,
              "duration": 0.015625
            },
            {
              "pitch": 64,
              "velocity": 102,
              "position": 5.75,
              "duration": 0.015625
            },
            {
              "pitch": 33,
              "velocity": 110,
              "position": 5.75,
              "duration": 0.015625
            },
            {
              "pitch": 60,
              "velocity": 110,
              "position": 5.760416666666667,
              "duration": 0.015625
            },
            {
              "pitch": 61,
              "velocity": 80,
              "position": 6,
              "duration": 0.015625
            },
            {
              "pitch": 62,
              "velocity": 96,
              "position": 6,
              "duration": 0.015625
            },
            {
              "pitch": 33,
              "velocity": 110,
              "position": 6,
              "duration": 0.015625
            },
            {
              "pitch": 75,
              "velocity": 120,
              "position": 6.010416666666667,
              "duration": 0.015625
            },
            {
              "pitch": 62,
              "velocity": 88,
              "position": 6.25,
              "duration": 0.015625
            },
            {
              "pitch": 33,
              "velocity": 64,
              "position": 6.25,
              "duration": 0.015625
            },
            {
              "pitch": 61,
              "velocity": 80,
              "position": 6.260416666666667,
              "duration": 0.015625
            },
            {
              "pitch": 62,
              "velocity": 108,
              "position": 6.489583333333333,
              "duration": 0.015625
            },
            {
              "pitch": 33,
              "velocity": 110,
              "position": 6.5,
              "duration": 0.015625
            },
            {
              "pitch": 61,
              "velocity": 80,
              "position": 6.510416666666667,
              "duration": 0.015625
            },
            {
              "pitch": 62,
              "velocity": 88,
              "position": 6.75,
              "duration": 0.015625
            },
            {
              "pitch": 60,
              "velocity": 92,
              "position": 6.75,
              "duration": 0.015625
            },
            {
              "pitch": 33,
              "velocity": 92,
              "position": 6.75,
              "duration": 0.015625
            },
            {
              "pitch": 75,
              "velocity": 112,
              "position": 6.760416666666667,
              "duration": 0.015625
            },
            {
              "pitch": 60,
              "velocity": 80,
              "position": 7,
              "duration": 0.015625
            },
            {
              "pitch": 62,
              "velocity": 100,
              "position": 7,
              "duration": 0.015625
            },
            {
              "pitch": 33,
              "velocity": 64,
              "position": 7,
              "duration": 0.015625
            },
            {
              "pitch": 62,
              "velocity": 88,
              "position": 7.25,
              "duration": 0.015625
            },
            {
              "pitch": 61,
              "velocity": 80,
              "position": 7.25,
              "duration": 0.015625
            },
            {
              "pitch": 33,
              "velocity": 110,
              "position": 7.260416666666667,
              "duration": 0.015625
            },
            {
              "pitch": 61,
              "velocity": 80,
              "position": 7.489583333333333,
              "duration": 0.015625
            },
            {
              "pitch": 64,
              "velocity": 104,
              "position": 7.489583333333333,
              "duration": 0.015625
            },
            {
              "pitch": 75,
              "velocity": 120,
              "position": 7.5,
              "duration": 0.015625
            },
            {
              "pitch": 33,
              "velocity": 72,
              "position": 7.5,
              "duration": 0.015625
            },
            {
              "pitch": 61,
              "velocity": 92,
              "position": 7.739583333333333,
              "duration": 0.015625
            },
            {
              "pitch": 64,
              "velocity": 100,
              "position": 7.75,
              "duration": 0.015625
            },
            {
              "pitch": 33,
              "velocity": 110,
              "position": 7.760416666666667,
              "duration": 0.015625
            },
            {
              "pitch": 60,
              "velocity": 92,
              "position": 8,
              "duration": 0.015625
            },
            {
              "pitch": 33,
              "velocity": 92,
              "position": 8,
              "duration": 0.015625
            },
            {
              "pitch": 62,
              "velocity": 92,
              "position": 8,
              "duration": 0.015625
            },
            {
              "pitch": 33,
              "velocity": 58,
              "position": 8.25,
              "duration": 0.015625
            },
            {
              "pitch": 61,
              "velocity": 80,
              "position": 8.25,
              "duration": 0.015625
            },
            {
              "pitch": 62,
              "velocity": 88,
              "position": 8.260416666666666,
              "duration": 0.015625
            },
            {
              "pitch": 33,
              "velocity": 110,
              "position": 8.489583333333334,
              "duration": 0.015625
            },
            {
              "pitch": 75,
              "velocity": 120,
              "position": 8.5,
              "duration": 0.015625
            },
            {
              "pitch": 62,
              "velocity": 108,
              "position": 8.5,
              "duration": 0.015625
            },
            {
              "pitch": 61,
              "velocity": 80,
              "position": 8.5,
              "duration": 0.015625
            },
            {
              "pitch": 62,
              "velocity": 88,
              "position": 8.75,
              "duration": 0.015625
            },
            {
              "pitch": 33,
              "velocity": 58,
              "position": 8.75,
              "duration": 0.015625
            },
            {
              "pitch": 60,
              "velocity": 92,
              "position": 8.760416666666666,
              "duration": 0.015625
            },
            {
              "pitch": 33,
              "velocity": 110,
              "position": 8.989583333333334,
              "duration": 0.015625
            },
            {
              "pitch": 62,
              "velocity": 88,
              "position": 8.989583333333334,
              "duration": 0.015625
            },
            {
              "pitch": 75,
              "velocity": 126,
              "position": 9,
              "duration": 0.015625
            },
            {
              "pitch": 60,
              "velocity": 80,
              "position": 9,
              "duration": 0.015625
            },
            {
              "pitch": 62,
              "velocity": 88,
              "position": 9.25,
              "duration": 0.015625
            },
            {
              "pitch": 33,
              "velocity": 110,
              "position": 9.25,
              "duration": 0.015625
            },
            {
              "pitch": 61,
              "velocity": 92,
              "position": 9.260416666666666,
              "duration": 0.015625
            },
            {
              "pitch": 33,
              "velocity": 72,
              "position": 9.489583333333334,
              "duration": 0.015625
            },
            {
              "pitch": 64,
              "velocity": 100,
              "position": 9.489583333333334,
              "duration": 0.015625
            },
            {
              "pitch": 61,
              "velocity": 92,
              "position": 9.5,
              "duration": 0.015625
            },
            {
              "pitch": 64,
              "velocity": 100,
              "position": 9.75,
              "duration": 0.015625
            },
            {
              "pitch": 33,
              "velocity": 92,
              "position": 9.75,
              "duration": 0.015625
            },
            {
              "pitch": 60,
              "velocity": 112,
              "position": 9.760416666666666,
              "duration": 0.015625
            },
            {
              "pitch": 75,
              "velocity": 120,
              "position": 10,
              "duration": 0.015625
            },
            {
              "pitch": 61,
              "velocity": 80,
              "position": 10,
              "duration": 0.015625
            },
            {
              "pitch": 62,
              "velocity": 84,
              "position": 10,
              "duration": 0.015625
            },
            {
              "pitch": 33,
              "velocity": 110,
              "position": 10,
              "duration": 0.015625
            },
            {
              "pitch": 33,
              "velocity": 68,
              "position": 10.25,
              "duration": 0.015625
            },
            {
              "pitch": 62,
              "velocity": 88,
              "position": 10.25,
              "duration": 0.015625
            },
            {
              "pitch": 61,
              "velocity": 80,
              "position": 10.260416666666666,
              "duration": 0.015625
            },
            {
              "pitch": 62,
              "velocity": 108,
              "position": 10.489583333333334,
              "duration": 0.015625
            },
            {
              "pitch": 33,
              "velocity": 90,
              "position": 10.489583333333334,
              "duration": 0.015625
            },
            {
              "pitch": 61,
              "velocity": 72,
              "position": 10.5,
              "duration": 0.015625
            },
            {
              "pitch": 60,
              "velocity": 80,
              "position": 10.75,
              "duration": 0.015625
            },
            {
              "pitch": 62,
              "velocity": 88,
              "position": 10.75,
              "duration": 0.015625
            },
            {
              "pitch": 33,
              "velocity": 110,
              "position": 10.75,
              "duration": 0.015625
            },
            {
              "pitch": 75,
              "velocity": 120,
              "position": 10.760416666666666,
              "duration": 0.015625
            },
            {
              "pitch": 62,
              "velocity": 100,
              "position": 11,
              "duration": 0.015625
            },
            {
              "pitch": 33,
              "velocity": 68,
              "position": 11,
              "duration": 0.015625
            },
            {
              "pitch": 60,
              "velocity": 80,
              "position": 11,
              "duration": 0.015625
            },
            {
              "pitch": 62,
              "velocity": 100,
              "position": 11.25,
              "duration": 0.015625
            },
            {
              "pitch": 61,
              "velocity": 92,
              "position": 11.25,
              "duration": 0.015625
            },
            {
              "pitch": 33,
              "velocity": 110,
              "position": 11.25,
              "duration": 0.015625
            },
            {
              "pitch": 61,
              "velocity": 92,
              "position": 11.489583333333334,
              "duration": 0.015625
            },
            {
              "pitch": 64,
              "velocity": 100,
              "position": 11.489583333333334,
              "duration": 0.015625
            },
            {
              "pitch": 33,
              "velocity": 72,
              "position": 11.5,
              "duration": 0.015625
            },
            {
              "pitch": 75,
              "velocity": 112,
              "position": 11.5,
              "duration": 0.015625
            },
            {
              "pitch": 61,
              "velocity": 80,
              "position": 11.75,
              "duration": 0.015625
            },
            {
              "pitch": 33,
              "velocity": 110,
              "position": 11.75,
              "duration": 0.015625
            },
            {
              "pitch": 64,
              "velocity": 102,
              "position": 11.75,
              "duration": 0.015625
            },
            {
              "pitch": 60,
              "velocity": 92,
              "position": 12,
              "duration": 0.015625
            },
            {
              "pitch": 62,
              "velocity": 88,
              "position": 12,
              "duration": 0.015625
            },
            {
              "pitch": 33,
              "velocity": 110,
              "position": 12,
              "duration": 0.015625
            },
            {
              "pitch": 61,
              "velocity": 80,
              "position": 12.25,
              "duration": 0.015625
            },
            {
              "pitch": 33,
              "velocity": 60,
              "position": 12.25,
              "duration": 0.015625
            },
            {
              "pitch": 62,
              "velocity": 88,
              "position": 12.25,
              "duration": 0.015625
            },
            {
              "pitch": 62,
              "velocity": 110,
              "position": 12.5,
              "duration": 0.015625
            },
            {
              "pitch": 33,
              "velocity": 110,
              "position": 12.5,
              "duration": 0.015625
            },
            {
              "pitch": 75,
              "velocity": 120,
              "position": 12.5,
              "duration": 0.015625
            },
            {
              "pitch": 61,
              "velocity": 92,
              "position": 12.5,
              "duration": 0.015625
            },
            {
              "pitch": 62,
              "velocity": 100,
              "position": 12.75,
              "duration": 0.015625
            },
            {
              "pitch": 33,
              "velocity": 72,
              "position": 12.75,
              "duration": 0.015625
            },
            {
              "pitch": 60,
              "velocity": 92,
              "position": 12.760416666666666,
              "duration": 0.015625
            },
            {
              "pitch": 62,
              "velocity": 100,
              "position": 12.989583333333334,
              "duration": 0.015625
            },
            {
              "pitch": 33,
              "velocity": 110,
              "position": 13,
              "duration": 0.015625
            },
            {
              "pitch": 60,
              "velocity": 80,
              "position": 13,
              "duration": 0.015625
            },
            {
              "pitch": 75,
              "velocity": 114,
              "position": 13.010416666666666,
              "duration": 0.015625
            },
            {
              "pitch": 62,
              "velocity": 100,
              "position": 13.25,
              "duration": 0.015625
            },
            {
              "pitch": 33,
              "velocity": 110,
              "position": 13.25,
              "duration": 0.015625
            },
            {
              "pitch": 61,
              "velocity": 90,
              "position": 13.260416666666666,
              "duration": 0.015625
            },
            {
              "pitch": 33,
              "velocity": 76,
              "position": 13.489583333333334,
              "duration": 0.015625
            },
            {
              "pitch": 61,
              "velocity": 90,
              "position": 13.5,
              "duration": 0.015625
            },
            {
              "pitch": 64,
              "velocity": 100,
              "position": 13.5,
              "duration": 0.015625
            },
            {
              "pitch": 64,
              "velocity": 102,
              "position": 13.75,
              "duration": 0.015625
            },
            {
              "pitch": 33,
              "velocity": 110,
              "position": 13.75,
              "duration": 0.015625
            },
            {
              "pitch": 60,
              "velocity": 110,
              "position": 13.760416666666666,
              "duration": 0.015625
            },
            {
              "pitch": 61,
              "velocity": 80,
              "position": 14,
              "duration": 0.015625
            },
            {
              "pitch": 62,
              "velocity": 96,
              "position": 14,
              "duration": 0.015625
            },
            {
              "pitch": 33,
              "velocity": 110,
              "position": 14,
              "duration": 0.015625
            },
            {
              "pitch": 75,
              "velocity": 120,
              "position": 14.010416666666666,
              "duration": 0.015625
            },
            {
              "pitch": 62,
              "velocity": 88,
              "position": 14.25,
              "duration": 0.015625
            },
            {
              "pitch": 33,
              "velocity": 64,
              "position": 14.25,
              "duration": 0.015625
            },
            {
              "pitch": 61,
              "velocity": 80,
              "position": 14.260416666666666,
              "duration": 0.015625
            },
            {
              "pitch": 62,
              "velocity": 108,
              "position": 14.489583333333334,
              "duration": 0.015625
            },
            {
              "pitch": 33,
              "velocity": 110,
              "position": 14.5,
              "duration": 0.015625
            },
            {
              "pitch": 61,
              "velocity": 80,
              "position": 14.510416666666666,
              "duration": 0.015625
            },
            {
              "pitch": 62,
              "velocity": 88,
              "position": 14.75,
              "duration": 0.015625
            },
            {
              "pitch": 60,
              "velocity": 92,
              "position": 14.75,
              "duration": 0.015625
            },
            {
              "pitch": 33,
              "velocity": 92,
              "position": 14.75,
              "duration": 0.015625
            },
            {
              "pitch": 75,
              "velocity": 112,
              "position": 14.760416666666666,
              "duration": 0.015625
            },
            {
              "pitch": 60,
              "velocity": 80,
              "position": 15,
              "duration": 0.015625
            },
            {
              "pitch": 62,
              "velocity": 100,
              "position": 15,
              "duration": 0.015625
            },
            {
              "pitch": 33,
              "velocity": 64,
              "position": 15,
              "duration": 0.015625
            },
            {
              "pitch": 62,
              "velocity": 88,
              "position": 15.25,
              "duration": 0.015625
            },
            {
              "pitch": 61,
              "velocity": 80,
              "position": 15.25,
              "duration": 0.015625
            },
            {
              "pitch": 33,
              "velocity": 110,
              "position": 15.260416666666666,
              "duration": 0.015625
            },
            {
              "pitch": 61,
              "velocity": 80,
              "position": 15.489583333333334,
              "duration": 0.015625
            },
            {
              "pitch": 64,
              "velocity": 104,
              "position": 15.489583333333334,
              "duration": 0.015625
            },
            {
              "pitch": 75,
              "velocity": 120,
              "position": 15.5,
              "duration": 0.015625
            },
            {
              "pitch": 33,
              "velocity": 72,
              "position": 15.5,
              "duration": 0.015625
            },
            {
              "pitch": 61,
              "velocity": 92,
              "position": 15.739583333333334,
              "duration": 0.015625
            },
            {
              "pitch": 64,
              "velocity": 100,
              "position": 15.75,
              "duration": 0.015625
            },
            {
              "pitch": 33,
              "velocity": 110,
              "position": 15.760416666666666,
              "duration": 0.015625
            },
            {
              "pitch": 60,
              "velocity": 92,
              "position": 16,
              "duration": 0.015625
            },
            {
              "pitch": 33,
              "velocity": 92,
              "position": 16,
              "duration": 0.015625
            },
            {
              "pitch": 62,
              "velocity": 92,
              "position": 16,
              "duration": 0.015625
            },
            {
              "pitch": 33,
              "velocity": 58,
              "position": 16.25,
              "duration": 0.015625
            },
            {
              "pitch": 61,
              "velocity": 80,
              "position": 16.25,
              "duration": 0.015625
            },
            {
              "pitch": 62,
              "velocity": 88,
              "position": 16.260416666666668,
              "duration": 0.015625
            },
            {
              "pitch": 33,
              "velocity": 110,
              "position": 16.489583333333332,
              "duration": 0.015625
            },
            {
              "pitch": 75,
              "velocity": 120,
              "position": 16.5,
              "duration": 0.015625
            },
            {
              "pitch": 62,
              "velocity": 108,
              "position": 16.5,
              "duration": 0.015625
            },
            {
              "pitch": 61,
              "velocity": 80,
              "position": 16.5,
              "duration": 0.015625
            },
            {
              "pitch": 62,
              "velocity": 88,
              "position": 16.75,
              "duration": 0.015625
            },
            {
              "pitch": 33,
              "velocity": 58,
              "position": 16.75,
              "duration": 0.015625
            },
            {
              "pitch": 60,
              "velocity": 92,
              "position": 16.760416666666668,
              "duration": 0.015625
            },
            {
              "pitch": 33,
              "velocity": 110,
              "position": 16.989583333333332,
              "duration": 0.015625
            },
            {
              "pitch": 62,
              "velocity": 88,
              "position": 16.989583333333332,
              "duration": 0.015625
            },
            {
              "pitch": 75,
              "velocity": 126,
              "position": 17,
              "duration": 0.015625
            },
            {
              "pitch": 60,
              "velocity": 80,
              "position": 17,
              "duration": 0.015625
            },
            {
              "pitch": 62,
              "velocity": 88,
              "position": 17.25,
              "duration": 0.015625
            },
            {
              "pitch": 33,
              "velocity": 110,
              "position": 17.25,
              "duration": 0.015625
            },
            {
              "pitch": 61,
              "velocity": 92,
              "position": 17.260416666666668,
              "duration": 0.015625
            },
            {
              "pitch": 33,
              "velocity": 72,
              "position": 17.489583333333332,
              "duration": 0.015625
            },
            {
              "pitch": 64,
              "velocity": 100,
              "position": 17.489583333333332,
              "duration": 0.015625
            },
            {
              "pitch": 61,
              "velocity": 92,
              "position": 17.5,
              "duration": 0.015625
            },
            {
              "pitch": 64,
              "velocity": 100,
              "position": 17.75,
              "duration": 0.015625
            },
            {
              "pitch": 33,
              "velocity": 92,
              "position": 17.75,
              "duration": 0.015625
            },
            {
              "pitch": 60,
              "velocity": 112,
              "position": 17.760416666666668,
              "duration": 0.015625
            },
            {
              "pitch": 75,
              "velocity": 120,
              "position": 18,
              "duration": 0.015625
            },
            {
              "pitch": 61,
              "velocity": 80,
              "position": 18,
              "duration": 0.015625
            },
            {
              "pitch": 62,
              "velocity": 84,
              "position": 18,
              "duration": 0.015625
            },
            {
              "pitch": 33,
              "velocity": 110,
              "position": 18,
              "duration": 0.015625
            },
            {
              "pitch": 33,
              "velocity": 68,
              "position": 18.25,
              "duration": 0.015625
            },
            {
              "pitch": 62,
              "velocity": 88,
              "position": 18.25,
              "duration": 0.015625
            },
            {
              "pitch": 61,
              "velocity": 80,
              "position": 18.260416666666668,
              "duration": 0.015625
            },
            {
              "pitch": 62,
              "velocity": 108,
              "position": 18.489583333333332,
              "duration": 0.015625
            },
            {
              "pitch": 33,
              "velocity": 90,
              "position": 18.489583333333332,
              "duration": 0.015625
            },
            {
              "pitch": 61,
              "velocity": 72,
              "position": 18.5,
              "duration": 0.015625
            },
            {
              "pitch": 60,
              "velocity": 80,
              "position": 18.75,
              "duration": 0.015625
            },
            {
              "pitch": 62,
              "velocity": 88,
              "position": 18.75,
              "duration": 0.015625
            },
            {
              "pitch": 33,
              "velocity": 110,
              "position": 18.75,
              "duration": 0.015625
            },
            {
              "pitch": 75,
              "velocity": 120,
              "position": 18.760416666666668,
              "duration": 0.015625
            },
            {
              "pitch": 62,
              "velocity": 100,
              "position": 19,
              "duration": 0.015625
            },
            {
              "pitch": 33,
              "velocity": 68,
              "position": 19,
              "duration": 0.015625
            },
            {
              "pitch": 60,
              "velocity": 80,
              "position": 19,
              "duration": 0.015625
            },
            {
              "pitch": 62,
              "velocity": 100,
              "position": 19.25,
              "duration": 0.015625
            },
            {
              "pitch": 61,
              "velocity": 92,
              "position": 19.25,
              "duration": 0.015625
            },
            {
              "pitch": 33,
              "velocity": 110,
              "position": 19.25,
              "duration": 0.015625
            },
            {
              "pitch": 61,
              "velocity": 92,
              "position": 19.489583333333332,
              "duration": 0.015625
            },
            {
              "pitch": 64,
              "velocity": 100,
              "position": 19.489583333333332,
              "duration": 0.015625
            },
            {
              "pitch": 33,
              "velocity": 72,
              "position": 19.5,
              "duration": 0.015625
            },
            {
              "pitch": 75,
              "velocity": 112,
              "position": 19.5,
              "duration": 0.015625
            },
            {
              "pitch": 61,
              "velocity": 80,
              "position": 19.75,
              "duration": 0.015625
            },
            {
              "pitch": 33,
              "velocity": 110,
              "position": 19.75,
              "duration": 0.015625
            },
            {
              "pitch": 64,
              "velocity": 102,
              "position": 19.75,
              "duration": 0.015625
            },
            {
              "pitch": 60,
              "velocity": 92,
              "position": 20,
              "duration": 0.015625
            },
            {
              "pitch": 62,
              "velocity": 88,
              "position": 20,
              "duration": 0.015625
            },
            {
              "pitch": 33,
              "velocity": 110,
              "position": 20,
              "duration": 0.015625
            },
            {
              "pitch": 61,
              "velocity": 80,
              "position": 20.25,
              "duration": 0.015625
            },
            {
              "pitch": 33,
              "velocity": 60,
              "position": 20.25,
              "duration": 0.015625
            },
            {
              "pitch": 62,
              "velocity": 88,
              "position": 20.25,
              "duration": 0.015625
            },
            {
              "pitch": 62,
              "velocity": 110,
              "position": 20.5,
              "duration": 0.015625
            },
            {
              "pitch": 33,
              "velocity": 110,
              "position": 20.5,
              "duration": 0.015625
            },
            {
              "pitch": 75,
              "velocity": 120,
              "position": 20.5,
              "duration": 0.015625
            },
            {
              "pitch": 61,
              "velocity": 92,
              "position": 20.5,
              "duration": 0.015625
            },
            {
              "pitch": 62,
              "velocity": 100,
              "position": 20.75,
              "duration": 0.015625
            },
            {
              "pitch": 33,
              "velocity": 72,
              "position": 20.75,
              "duration": 0.015625
            },
            {
              "pitch": 60,
              "velocity": 92,
              "position": 20.760416666666668,
              "duration": 0.015625
            },
            {
              "pitch": 62,
              "velocity": 100,
              "position": 20.989583333333332,
              "duration": 0.015625
            },
            {
              "pitch": 33,
              "velocity": 110,
              "position": 21,
              "duration": 0.015625
            },
            {
              "pitch": 60,
              "velocity": 80,
              "position": 21,
              "duration": 0.015625
            },
            {
              "pitch": 75,
              "velocity": 114,
              "position": 21.010416666666668,
              "duration": 0.015625
            },
            {
              "pitch": 62,
              "velocity": 100,
              "position": 21.25,
              "duration": 0.015625
            },
            {
              "pitch": 33,
              "velocity": 110,
              "position": 21.25,
              "duration": 0.015625
            },
            {
              "pitch": 61,
              "velocity": 90,
              "position": 21.260416666666668,
              "duration": 0.015625
            },
            {
              "pitch": 33,
              "velocity": 76,
              "position": 21.489583333333332,
              "duration": 0.015625
            },
            {
              "pitch": 61,
              "velocity": 90,
              "position": 21.5,
              "duration": 0.015625
            },
            {
              "pitch": 64,
              "velocity": 100,
              "position": 21.5,
              "duration": 0.015625
            },
            {
              "pitch": 64,
              "velocity": 102,
              "position": 21.75,
              "duration": 0.015625
            },
            {
              "pitch": 33,
              "velocity": 110,
              "position": 21.75,
              "duration": 0.015625
            },
            {
              "pitch": 60,
              "velocity": 110,
              "position": 21.760416666666668,
              "duration": 0.015625
            },
            {
              "pitch": 61,
              "velocity": 80,
              "position": 22,
              "duration": 0.015625
            },
            {
              "pitch": 62,
              "velocity": 96,
              "position": 22,
              "duration": 0.015625
            },
            {
              "pitch": 33,
              "velocity": 110,
              "position": 22,
              "duration": 0.015625
            },
            {
              "pitch": 75,
              "velocity": 120,
              "position": 22.010416666666668,
              "duration": 0.015625
            },
            {
              "pitch": 62,
              "velocity": 88,
              "position": 22.25,
              "duration": 0.015625
            },
            {
              "pitch": 33,
              "velocity": 64,
              "position": 22.25,
              "duration": 0.015625
            },
            {
              "pitch": 61,
              "velocity": 80,
              "position": 22.260416666666668,
              "duration": 0.015625
            },
            {
              "pitch": 62,
              "velocity": 108,
              "position": 22.489583333333332,
              "duration": 0.015625
            },
            {
              "pitch": 33,
              "velocity": 110,
              "position": 22.5,
              "duration": 0.015625
            },
            {
              "pitch": 61,
              "velocity": 80,
              "position": 22.510416666666668,
              "duration": 0.015625
            },
            {
              "pitch": 62,
              "velocity": 88,
              "position": 22.75,
              "duration": 0.015625
            },
            {
              "pitch": 60,
              "velocity": 92,
              "position": 22.75,
              "duration": 0.015625
            },
            {
              "pitch": 33,
              "velocity": 92,
              "position": 22.75,
              "duration": 0.015625
            },
            {
              "pitch": 75,
              "velocity": 112,
              "position": 22.760416666666668,
              "duration": 0.015625
            },
            {
              "pitch": 60,
              "velocity": 80,
              "position": 23,
              "duration": 0.015625
            },
            {
              "pitch": 62,
              "velocity": 100,
              "position": 23,
              "duration": 0.015625
            },
            {
              "pitch": 33,
              "velocity": 64,
              "position": 23,
              "duration": 0.015625
            },
            {
              "pitch": 62,
              "velocity": 88,
              "position": 23.25,
              "duration": 0.015625
            },
            {
              "pitch": 61,
              "velocity": 80,
              "position": 23.25,
              "duration": 0.015625
            },
            {
              "pitch": 33,
              "velocity": 110,
              "position": 23.260416666666668,
              "duration": 0.015625
            },
            {
              "pitch": 61,
              "velocity": 80,
              "position": 23.489583333333332,
              "duration": 0.015625
            },
            {
              "pitch": 64,
              "velocity": 104,
              "position": 23.489583333333332,
              "duration": 0.015625
            },
            {
              "pitch": 75,
              "velocity": 120,
              "position": 23.5,
              "duration": 0.015625
            },
            {
              "pitch": 33,
              "velocity": 72,
              "position": 23.5,
              "duration": 0.015625
            },
            {
              "pitch": 61,
              "velocity": 92,
              "position": 23.739583333333332,
              "duration": 0.015625
            },
            {
              "pitch": 64,
              "velocity": 100,
              "position": 23.75,
              "duration": 0.015625
            },
            {
              "pitch": 33,
              "velocity": 110,
              "position": 23.760416666666668,
              "duration": 0.015625
            },
            {
              "pitch": 60,
              "velocity": 92,
              "position": 24,
              "duration": 0.015625
            },
            {
              "pitch": 33,
              "velocity": 92,
              "position": 24,
              "duration": 0.015625
            },
            {
              "pitch": 62,
              "velocity": 92,
              "position": 24,
              "duration": 0.015625
            },
            {
              "pitch": 33,
              "velocity": 58,
              "position": 24.25,
              "duration": 0.015625
            },
            {
              "pitch": 61,
              "velocity": 80,
              "position": 24.25,
              "duration": 0.015625
            },
            {
              "pitch": 62,
              "velocity": 88,
              "position": 24.260416666666668,
              "duration": 0.015625
            },
            {
              "pitch": 33,
              "velocity": 110,
              "position": 24.489583333333332,
              "duration": 0.015625
            },
            {
              "pitch": 75,
              "velocity": 120,
              "position": 24.5,
              "duration": 0.015625
            },
            {
              "pitch": 62,
              "velocity": 108,
              "position": 24.5,
              "duration": 0.015625
            },
            {
              "pitch": 61,
              "velocity": 80,
              "position": 24.5,
              "duration": 0.015625
            },
            {
              "pitch": 62,
              "velocity": 88,
              "position": 24.75,
              "duration": 0.015625
            },
            {
              "pitch": 33,
              "velocity": 58,
              "position": 24.75,
              "duration": 0.015625
            },
            {
              "pitch": 60,
              "velocity": 92,
              "position": 24.760416666666668,
              "duration": 0.015625
            },
            {
              "pitch": 33,
              "velocity": 110,
              "position": 24.989583333333332,
              "duration": 0.015625
            },
            {
              "pitch": 62,
              "velocity": 88,
              "position": 24.989583333333332,
              "duration": 0.015625
            },
            {
              "pitch": 75,
              "velocity": 126,
              "position": 25,
              "duration": 0.015625
            },
            {
              "pitch": 60,
              "velocity": 80,
              "position": 25,
              "duration": 0.015625
            },
            {
              "pitch": 62,
              "velocity": 88,
              "position": 25.25,
              "duration": 0.015625
            },
            {
              "pitch": 33,
              "velocity": 110,
              "position": 25.25,
              "duration": 0.015625
            },
            {
              "pitch": 61,
              "velocity": 92,
              "position": 25.260416666666668,
              "duration": 0.015625
            },
            {
              "pitch": 33,
              "velocity": 72,
              "position": 25.489583333333332,
              "duration": 0.015625
            },
            {
              "pitch": 64,
              "velocity": 100,
              "position": 25.489583333333332,
              "duration": 0.015625
            },
            {
              "pitch": 61,
              "velocity": 92,
              "position": 25.5,
              "duration": 0.015625
            },
            {
              "pitch": 64,
              "velocity": 100,
              "position": 25.75,
              "duration": 0.015625
            },
            {
              "pitch": 33,
              "velocity": 92,
              "position": 25.75,
              "duration": 0.015625
            },
            {
              "pitch": 60,
              "velocity": 112,
              "position": 25.760416666666668,
              "duration": 0.015625
            },
            {
              "pitch": 75,
              "velocity": 120,
              "position": 26,
              "duration": 0.015625
            },
            {
              "pitch": 61,
              "velocity": 80,
              "position": 26,
              "duration": 0.015625
            },
            {
              "pitch": 62,
              "velocity": 84,
              "position": 26,
              "duration": 0.015625
            },
            {
              "pitch": 33,
              "velocity": 110,
              "position": 26,
              "duration": 0.015625
            },
            {
              "pitch": 33,
              "velocity": 68,
              "position": 26.25,
              "duration": 0.015625
            },
            {
              "pitch": 62,
              "velocity": 88,
              "position": 26.25,
              "duration": 0.015625
            },
            {
              "pitch": 61,
              "velocity": 80,
              "position": 26.260416666666668,
              "duration": 0.015625
            },
            {
              "pitch": 62,
              "velocity": 108,
              "position": 26.489583333333332,
              "duration": 0.015625
            },
            {
              "pitch": 33,
              "velocity": 90,
              "position": 26.489583333333332,
              "duration": 0.015625
            },
            {
              "pitch": 61,
              "velocity": 72,
              "position": 26.5,
              "duration": 0.015625
            },
            {
              "pitch": 60,
              "velocity": 80,
              "position": 26.75,
              "duration": 0.015625
            },
            {
              "pitch": 62,
              "velocity": 88,
              "position": 26.75,
              "duration": 0.015625
            },
            {
              "pitch": 33,
              "velocity": 110,
              "position": 26.75,
              "duration": 0.015625
            },
            {
              "pitch": 75,
              "velocity": 120,
              "position": 26.760416666666668,
              "duration": 0.015625
            },
            {
              "pitch": 62,
              "velocity": 100,
              "position": 27,
              "duration": 0.015625
            },
            {
              "pitch": 33,
              "velocity": 68,
              "position": 27,
              "duration": 0.015625
            },
            {
              "pitch": 60,
              "velocity": 80,
              "position": 27,
              "duration": 0.015625
            },
            {
              "pitch": 62,
              "velocity": 100,
              "position": 27.25,
              "duration": 0.015625
            },
            {
              "pitch": 61,
              "velocity": 92,
              "position": 27.25,
              "duration": 0.015625
            },
            {
              "pitch": 33,
              "velocity": 110,
              "position": 27.25,
              "duration": 0.015625
            },
            {
              "pitch": 61,
              "velocity": 92,
              "position": 27.489583333333332,
              "duration": 0.015625
            },
            {
              "pitch": 64,
              "velocity": 100,
              "position": 27.489583333333332,
              "duration": 0.015625
            },
            {
              "pitch": 33,
              "velocity": 72,
              "position": 27.5,
              "duration": 0.015625
            },
            {
              "pitch": 75,
              "velocity": 112,
              "position": 27.5,
              "duration": 0.015625
            },
            {
              "pitch": 61,
              "velocity": 80,
              "position": 27.75,
              "duration": 0.015625
            },
            {
              "pitch": 33,
              "velocity": 110,
              "position": 27.75,
              "duration": 0.015625
            },
            {
              "pitch": 64,
              "velocity": 102,
              "position": 27.75,
              "duration": 0.015625
            },
            {
              "pitch": 62,
              "velocity": 88,
              "position": 28,
              "duration": 0.015625
            },
            {
              "pitch": 60,
              "velocity": 92,
              "position": 28,
              "duration": 0.015625
            },
            {
              "pitch": 33,
              "velocity": 92,
              "position": 28.010416666666668,
              "duration": 0.015625
            },
            {
              "pitch": 62,
              "velocity": 100,
              "position": 28.25,
              "duration": 0.015625
            },
            {
              "pitch": 33,
              "velocity": 68,
              "position": 28.25,
              "duration": 0.015625
            },
            {
              "pitch": 61,
              "velocity": 80,
              "position": 28.260416666666668,
              "duration": 0.015625
            },
            {
              "pitch": 62,
              "velocity": 108,
              "position": 28.5,
              "duration": 0.015625
            },
            {
              "pitch": 75,
              "velocity": 120,
              "position": 28.5,
              "duration": 0.015625
            },
            {
              "pitch": 61,
              "velocity": 90,
              "position": 28.5,
              "duration": 0.015625
            },
            {
              "pitch": 33,
              "velocity": 110,
              "position": 28.5,
              "duration": 0.015625
            },
            {
              "pitch": 60,
              "velocity": 80,
              "position": 28.760416666666668,
              "duration": 0.015625
            },
            {
              "pitch": 62,
              "velocity": 88,
              "position": 28.760416666666668,
              "duration": 0.015625
            },
            {
              "pitch": 33,
              "velocity": 64,
              "position": 28.760416666666668,
              "duration": 0.015625
            },
            {
              "pitch": 62,
              "velocity": 100,
              "position": 29,
              "duration": 0.015625
            },
            {
              "pitch": 60,
              "velocity": 80,
              "position": 29,
              "duration": 0.015625
            },
            {
              "pitch": 33,
              "velocity": 90,
              "position": 29,
              "duration": 0.015625
            },
            {
              "pitch": 75,
              "velocity": 114,
              "position": 29.010416666666668,
              "duration": 0.015625
            },
            {
              "pitch": 62,
              "velocity": 88,
              "position": 29.25,
              "duration": 0.015625
            },
            {
              "pitch": 61,
              "velocity": 80,
              "position": 29.260416666666668,
              "duration": 0.015625
            },
            {
              "pitch": 33,
              "velocity": 110,
              "position": 29.260416666666668,
              "duration": 0.015625
            },
            {
              "pitch": 61,
              "velocity": 90,
              "position": 29.5,
              "duration": 0.015625
            },
            {
              "pitch": 64,
              "velocity": 100,
              "position": 29.5,
              "duration": 0.015625
            },
            {
              "pitch": 33,
              "velocity": 72,
              "position": 29.5,
              "duration": 0.015625
            },
            {
              "pitch": 64,
              "velocity": 100,
              "position": 29.760416666666668,
              "duration": 0.015625
            },
            {
              "pitch": 60,
              "velocity": 108,
              "position": 29.760416666666668,
              "duration": 0.015625
            },
            {
              "pitch": 33,
              "velocity": 90,
              "position": 29.760416666666668,
              "duration": 0.015625
            },
            {
              "pitch": 65,
              "velocity": 110,
              "position": 29.770833333333332,
              "duration": 0.015625
            },
            {
              "pitch": 62,
              "velocity": 88,
              "position": 30,
              "duration": 0.015625
            },
            {
              "pitch": 61,
              "velocity": 72,
              "position": 30,
              "duration": 0.015625
            },
            {
              "pitch": 75,
              "velocity": 120,
              "position": 30.010416666666668,
              "duration": 0.015625
            },
            {
              "pitch": 33,
              "velocity": 90,
              "position": 30.010416666666668,
              "duration": 0.015625
            },
            {
              "pitch": 66,
              "velocity": 110,
              "position": 30.010416666666668,
              "duration": 0.015625
            },
            {
              "pitch": 62,
              "velocity": 88,
              "position": 30.25,
              "duration": 0.015625
            },
            {
              "pitch": 61,
              "velocity": 72,
              "position": 30.260416666666668,
              "duration": 0.015625
            },
            {
              "pitch": 33,
              "velocity": 72,
              "position": 30.260416666666668,
              "duration": 0.015625
            },
            {
              "pitch": 62,
              "velocity": 108,
              "position": 30.489583333333332,
              "duration": 0.015625
            },
            {
              "pitch": 66,
              "velocity": 110,
              "position": 30.5,
              "duration": 0.015625
            },
            {
              "pitch": 33,
              "velocity": 92,
              "position": 30.5,
              "duration": 0.015625
            },
            {
              "pitch": 61,
              "velocity": 80,
              "position": 30.5,
              "duration": 0.015625
            },
            {
              "pitch": 62,
              "velocity": 88,
              "position": 30.75,
              "duration": 0.015625
            },
            {
              "pitch": 60,
              "velocity": 92,
              "position": 30.75,
              "duration": 0.015625
            },
            {
              "pitch": 33,
              "velocity": 92,
              "position": 30.760416666666668,
              "duration": 0.015625
            },
            {
              "pitch": 75,
              "velocity": 112,
              "position": 30.760416666666668,
              "duration": 0.015625
            },
            {
              "pitch": 65,
              "velocity": 112,
              "position": 30.760416666666668,
              "duration": 0.015625
            },
            {
              "pitch": 60,
              "velocity": 92,
              "position": 31,
              "duration": 0.015625
            },
            {
              "pitch": 62,
              "velocity": 88,
              "position": 31,
              "duration": 0.015625
            },
            {
              "pitch": 33,
              "velocity": 70,
              "position": 31,
              "duration": 0.015625
            },
            {
              "pitch": 61,
              "velocity": 80,
              "position": 31.25,
              "duration": 0.015625
            },
            {
              "pitch": 62,
              "velocity": 88,
              "position": 31.25,
              "duration": 0.015625
            },
            {
              "pitch": 33,
              "velocity": 110,
              "position": 31.260416666666668,
              "duration": 0.015625
            },
            {
              "pitch": 61,
              "velocity": 90,
              "position": 31.489583333333332,
              "duration": 0.015625
            },
            {
              "pitch": 64,
              "velocity": 100,
              "position": 31.5,
              "duration": 0.015625
            },
            {
              "pitch": 33,
              "velocity": 72,
              "position": 31.5,
              "duration": 0.015625
            },
            {
              "pitch": 75,
              "velocity": 120,
              "position": 31.5,
              "duration": 0.015625
            },
            {
              "pitch": 65,
              "velocity": 80,
              "position": 31.510416666666668,
              "duration": 0.015625
            },
            {
              "pitch": 65,
              "velocity": 92,
              "position": 31.645833333333332,
              "duration": 0.015625
            },
            {
              "pitch": 61,
              "velocity": 80,
              "position": 31.75,
              "duration": 0.015625
            },
            {
              "pitch": 33,
              "velocity": 106,
              "position": 31.75,
              "duration": 0.015625
            },
            {
              "pitch": 64,
              "velocity": 104,
              "position": 31.75,
              "duration": 0.015625
            },
            {
              "pitch": 65,
              "velocity": 88,
              "position": 31.770833333333332,
              "duration": 0.015625
            },
            {
              "pitch": 65,
              "velocity": 110,
              "position": 31.875,
              "duration": 0.015625
            }
          ]
        },
        "12": {
          "ctab": {
            "srcChannel": 12,
            "name": "Aco.Bass",
            "accType": "BASS",
            "editable": false,
            "mutedNotes": [],
            "mutedChords": [],
            "autoStart": false,
            "sourceChordNote": 0,
            "sourceChordType": "Maj7",
            "ctb2Low": null,
            "ctb2Main": {
              "ntr": "ROOT_TRANSPOSITION",
              "ntt": "MELODY",
              "bassOn": true,
              "chordRootUpperLimit": 3,
              "noteLowLimit": 28,
              "noteHighLimit": 54,
              "rtr": "PITCH_SHIFT_TO_ROOT"
            },
            "ctb2High": null
          },
          "notes": [
            {
              "pitch": 36,
              "velocity": 122,
              "position": 0,
              "duration": 0.7395833333333334
            },
            {
              "pitch": 43,
              "velocity": 126,
              "position": 0.7604166666666666,
              "duration": 0.6041666666666666
            },
            {
              "pitch": 48,
              "velocity": 122,
              "position": 1.5,
              "duration": 1.0208333333333333
            },
            {
              "pitch": 43,
              "velocity": 122,
              "position": 2.7604166666666665,
              "duration": 0.5833333333333334
            },
            {
              "pitch": 36,
              "velocity": 122,
              "position": 3.5,
              "duration": 1.0208333333333333
            },
            {
              "pitch": 43,
              "velocity": 98,
              "position": 4.760416666666667,
              "duration": 0.6041666666666666
            },
            {
              "pitch": 48,
              "velocity": 122,
              "position": 5.5,
              "duration": 1.0104166666666667
            },
            {
              "pitch": 43,
              "velocity": 126,
              "position": 6.75,
              "duration": 0.1875
            },
            {
              "pitch": 43,
              "velocity": 122,
              "position": 7,
              "duration": 0.3125
            },
            {
              "pitch": 36,
              "velocity": 120,
              "position": 7.5,
              "duration": 1.1041666666666667
            },
            {
              "pitch": 43,
              "velocity": 126,
              "position": 8.760416666666666,
              "duration": 0.5416666666666666
            },
            {
              "pitch": 48,
              "velocity": 122,
              "position": 9.5,
              "duration": 1.1145833333333333
            },
            {
              "pitch": 43,
              "velocity": 122,
              "position": 10.760416666666666,
              "duration": 0.625
            },
            {
              "pitch": 36,
              "velocity": 120,
              "position": 11.5,
              "duration": 1.0729166666666667
            },
            {
              "pitch": 43,
              "velocity": 122,
              "position": 12.760416666666666,
              "duration": 0.6458333333333334
            },
            {
              "pitch": 48,
              "velocity": 120,
              "position": 13.5,
              "duration": 1.0625
            },
            {
              "pitch": 31,
              "velocity": 94,
              "position": 14.760416666666666,
              "duration": 0.19791666666666666
            },
            {
              "pitch": 31,
              "velocity": 112,
              "position": 15,
              "duration": 0.3645833333333333
            },
            {
              "pitch": 36,
              "velocity": 122,
              "position": 15.5,
              "duration": 1.0520833333333333
            },
            {
              "pitch": 43,
              "velocity": 126,
              "position": 16.760416666666668,
              "duration": 0.6041666666666666
            },
            {
              "pitch": 48,
              "velocity": 122,
              "position": 17.5,
              "duration": 1.09375
            },
            {
              "pitch": 43,
              "velocity": 122,
              "position": 18.760416666666668,
              "duration": 0.5833333333333334
            },
            {
              "pitch": 36,
              "velocity": 122,
              "position": 19.5,
              "duration": 1.0208333333333333
            },
            {
              "pitch": 43,
              "velocity": 98,
              "position": 20.760416666666668,
              "duration": 0.6041666666666666
            },
            {
              "pitch": 48,
              "velocity": 122,
              "position": 21.5,
              "duration": 1.0104166666666667
            },
            {
              "pitch": 43,
              "velocity": 126,
              "position": 22.75,
              "duration": 0.1875
            },
            {
              "pitch": 43,
              "velocity": 122,
              "position": 23,
              "duration": 0.3125
            },
            {
              "pitch": 36,
              "velocity": 120,
              "position": 23.5,
              "duration": 1.1041666666666667
            },
            {
              "pitch": 43,
              "velocity": 126,
              "position": 24.760416666666668,
              "duration": 0.5416666666666666
            },
            {
              "pitch": 48,
              "velocity": 122,
              "position": 25.5,
              "duration": 1.1145833333333333
            },
            {
              "pitch": 43,
              "velocity": 122,
              "position": 26.760416666666668,
              "duration": 0.625
            },
            {
              "pitch": 36,
              "velocity": 120,
              "position": 27.5,
              "duration": 1.0729166666666667
            },
            {
              "pitch": 43,
              "velocity": 122,
              "position": 28.760416666666668,
              "duration": 0.6458333333333334
            },
            {
              "pitch": 48,
              "velocity": 120,
              "position": 29.5,
              "duration": 1.0625
            },
            {
              "pitch": 31,
              "velocity": 94,
              "position": 30.760416666666668,
              "duration": 0.19791666666666666
            },
            {
              "pitch": 31,
              "velocity": 112,
              "position": 31,
              "duration": 0.3645833333333333
            },
            {
              "pitch": 36,
              "velocity": 122,
              "position": 31.5,
              "duration": 0.4895833333333333
            }
          ]
        },
        "14": {
          "ctab": {
            "srcChannel": 14,
            "name": "GrandPno",
            "accType": "CHORD1",
            "editable": false,
            "mutedNotes": [],
            "mutedChords": [
              "7aug",
              "Maj7aug",
              "7(#9)",
              "7(b13)",
              "7(b9)",
              "7(13)",
              "7#11",
              "7(9)",
              "7b5",
              "7sus4",
              "7th",
              "dim7",
              "dim",
              "minMaj7(9)",
              "minMaj7",
              "min7(11)",
              "min7(9)",
              "min(9)",
              "m7b5",
              "min7",
              "min6",
              "min"
            ],
            "autoStart": false,
            "sourceChordNote": 0,
            "sourceChordType": "Maj7",
            "ctb2Low": null,
            "ctb2Main": {
              "ntr": "ROOT_TRANSPOSITION",
              "ntt": "CHORD",
              "bassOn": false,
              "chordRootUpperLimit": 6,
              "noteLowLimit": 0,
              "noteHighLimit": 127,
              "rtr": "PITCH_SHIFT"
            },
            "ctb2High": null
          },
          "notes": [
            {
              "pitch": 71,
              "velocity": 104,
              "position": 0,
              "duration": 0.1875
            },
            {
              "pitch": 59,
              "velocity": 90,
              "position": 0,
              "duration": 0.23958333333333334
            },
            {
              "pitch": 64,
              "velocity": 80,
              "position": 0.25,
              "duration": 0.19791666666666666
            },
            {
              "pitch": 76,
              "velocity": 90,
              "position": 0.25,
              "duration": 0.20833333333333334
            },
            {
              "pitch": 67,
              "velocity": 104,
              "position": 0.5,
              "duration": 0.23958333333333334
            },
            {
              "pitch": 79,
              "velocity": 88,
              "position": 0.5,
              "duration": 0.2916666666666667
            },
            {
              "pitch": 59,
              "velocity": 88,
              "position": 0.7708333333333334,
              "duration": 0.375
            },
            {
              "pitch": 71,
              "velocity": 94,
              "position": 0.7604166666666666,
              "duration": 0.4479166666666667
            },
            {
              "pitch": 67,
              "velocity": 80,
              "position": 1.2604166666666667,
              "duration": 0.3854166666666667
            },
            {
              "pitch": 64,
              "velocity": 104,
              "position": 1.2604166666666667,
              "duration": 0.3854166666666667
            },
            {
              "pitch": 79,
              "velocity": 104,
              "position": 1.2604166666666667,
              "duration": 0.3958333333333333
            },
            {
              "pitch": 76,
              "velocity": 124,
              "position": 1.2604166666666667,
              "duration": 0.4479166666666667
            },
            {
              "pitch": 59,
              "velocity": 88,
              "position": 1.7604166666666667,
              "duration": 0.3958333333333333
            },
            {
              "pitch": 71,
              "velocity": 104,
              "position": 1.7604166666666667,
              "duration": 0.4375
            },
            {
              "pitch": 79,
              "velocity": 94,
              "position": 2.2604166666666665,
              "duration": 0.40625
            },
            {
              "pitch": 64,
              "velocity": 88,
              "position": 2.2604166666666665,
              "duration": 0.4166666666666667
            },
            {
              "pitch": 67,
              "velocity": 80,
              "position": 2.2604166666666665,
              "duration": 0.4270833333333333
            },
            {
              "pitch": 76,
              "velocity": 80,
              "position": 2.2604166666666665,
              "duration": 0.4479166666666667
            },
            {
              "pitch": 71,
              "velocity": 92,
              "position": 2.75,
              "duration": 0.4375
            },
            {
              "pitch": 59,
              "velocity": 92,
              "position": 2.7604166666666665,
              "duration": 0.4375
            },
            {
              "pitch": 67,
              "velocity": 88,
              "position": 3.25,
              "duration": 0.3854166666666667
            },
            {
              "pitch": 64,
              "velocity": 110,
              "position": 3.25,
              "duration": 0.3958333333333333
            },
            {
              "pitch": 79,
              "velocity": 88,
              "position": 3.25,
              "duration": 0.40625
            },
            {
              "pitch": 76,
              "velocity": 110,
              "position": 3.25,
              "duration": 0.4583333333333333
            },
            {
              "pitch": 59,
              "velocity": 90,
              "position": 3.75,
              "duration": 0.19791666666666666
            },
            {
              "pitch": 71,
              "velocity": 92,
              "position": 3.75,
              "duration": 0.19791666666666666
            },
            {
              "pitch": 71,
              "velocity": 88,
              "position": 4,
              "duration": 0.17708333333333334
            },
            {
              "pitch": 59,
              "velocity": 88,
              "position": 4,
              "duration": 0.1875
            },
            {
              "pitch": 64,
              "velocity": 90,
              "position": 4.25,
              "duration": 0.1875
            },
            {
              "pitch": 76,
              "velocity": 104,
              "position": 4.25,
              "duration": 0.1875
            },
            {
              "pitch": 67,
              "velocity": 88,
              "position": 4.5,
              "duration": 0.23958333333333334
            },
            {
              "pitch": 79,
              "velocity": 76,
              "position": 4.5,
              "duration": 0.2604166666666667
            },
            {
              "pitch": 59,
              "velocity": 94,
              "position": 4.760416666666667,
              "duration": 0.40625
            },
            {
              "pitch": 71,
              "velocity": 80,
              "position": 4.760416666666667,
              "duration": 0.4270833333333333
            },
            {
              "pitch": 79,
              "velocity": 88,
              "position": 5.260416666666667,
              "duration": 0.3958333333333333
            },
            {
              "pitch": 67,
              "velocity": 76,
              "position": 5.25,
              "duration": 0.4375
            },
            {
              "pitch": 64,
              "velocity": 110,
              "position": 5.25,
              "duration": 0.4791666666666667
            },
            {
              "pitch": 76,
              "velocity": 90,
              "position": 5.25,
              "duration": 0.4791666666666667
            },
            {
              "pitch": 71,
              "velocity": 90,
              "position": 5.760416666666667,
              "duration": 0.4166666666666667
            },
            {
              "pitch": 59,
              "velocity": 90,
              "position": 5.760416666666667,
              "duration": 0.4479166666666667
            },
            {
              "pitch": 67,
              "velocity": 88,
              "position": 6.25,
              "duration": 0.3541666666666667
            },
            {
              "pitch": 64,
              "velocity": 88,
              "position": 6.25,
              "duration": 0.375
            },
            {
              "pitch": 79,
              "velocity": 88,
              "position": 6.260416666666667,
              "duration": 0.375
            },
            {
              "pitch": 76,
              "velocity": 110,
              "position": 6.260416666666667,
              "duration": 0.3958333333333333
            },
            {
              "pitch": 59,
              "velocity": 92,
              "position": 6.75,
              "duration": 0.4270833333333333
            },
            {
              "pitch": 71,
              "velocity": 92,
              "position": 6.75,
              "duration": 0.4791666666666667
            },
            {
              "pitch": 67,
              "velocity": 88,
              "position": 7.25,
              "duration": 0.1875
            },
            {
              "pitch": 64,
              "velocity": 88,
              "position": 7.25,
              "duration": 0.20833333333333334
            },
            {
              "pitch": 79,
              "velocity": 88,
              "position": 7.260416666666667,
              "duration": 0.19791666666666666
            },
            {
              "pitch": 76,
              "velocity": 76,
              "position": 7.260416666666667,
              "duration": 0.21875
            },
            {
              "pitch": 69,
              "velocity": 72,
              "position": 7.5,
              "duration": 0.1875
            },
            {
              "pitch": 57,
              "velocity": 92,
              "position": 7.5,
              "duration": 0.22916666666666666
            },
            {
              "pitch": 59,
              "velocity": 80,
              "position": 7.75,
              "duration": 0.17708333333333334
            },
            {
              "pitch": 71,
              "velocity": 94,
              "position": 7.75,
              "duration": 0.17708333333333334
            },
            {
              "pitch": 71,
              "velocity": 104,
              "position": 8,
              "duration": 0.1875
            },
            {
              "pitch": 59,
              "velocity": 90,
              "position": 8,
              "duration": 0.23958333333333334
            },
            {
              "pitch": 64,
              "velocity": 80,
              "position": 8.25,
              "duration": 0.19791666666666666
            },
            {
              "pitch": 76,
              "velocity": 90,
              "position": 8.25,
              "duration": 0.20833333333333334
            },
            {
              "pitch": 67,
              "velocity": 104,
              "position": 8.5,
              "duration": 0.23958333333333334
            },
            {
              "pitch": 79,
              "velocity": 88,
              "position": 8.5,
              "duration": 0.2916666666666667
            },
            {
              "pitch": 59,
              "velocity": 88,
              "position": 8.770833333333334,
              "duration": 0.375
            },
            {
              "pitch": 71,
              "velocity": 94,
              "position": 8.760416666666666,
              "duration": 0.4479166666666667
            },
            {
              "pitch": 67,
              "velocity": 80,
              "position": 9.260416666666666,
              "duration": 0.3854166666666667
            },
            {
              "pitch": 64,
              "velocity": 104,
              "position": 9.260416666666666,
              "duration": 0.3854166666666667
            },
            {
              "pitch": 79,
              "velocity": 104,
              "position": 9.260416666666666,
              "duration": 0.3958333333333333
            },
            {
              "pitch": 76,
              "velocity": 124,
              "position": 9.260416666666666,
              "duration": 0.4479166666666667
            },
            {
              "pitch": 59,
              "velocity": 88,
              "position": 9.760416666666666,
              "duration": 0.3958333333333333
            },
            {
              "pitch": 71,
              "velocity": 104,
              "position": 9.760416666666666,
              "duration": 0.4375
            },
            {
              "pitch": 79,
              "velocity": 94,
              "position": 10.260416666666666,
              "duration": 0.40625
            },
            {
              "pitch": 64,
              "velocity": 88,
              "position": 10.260416666666666,
              "duration": 0.4166666666666667
            },
            {
              "pitch": 67,
              "velocity": 80,
              "position": 10.260416666666666,
              "duration": 0.4270833333333333
            },
            {
              "pitch": 76,
              "velocity": 80,
              "position": 10.260416666666666,
              "duration": 0.4479166666666667
            },
            {
              "pitch": 71,
              "velocity": 92,
              "position": 10.75,
              "duration": 0.4375
            },
            {
              "pitch": 59,
              "velocity": 92,
              "position": 10.760416666666666,
              "duration": 0.4375
            },
            {
              "pitch": 67,
              "velocity": 88,
              "position": 11.25,
              "duration": 0.3854166666666667
            },
            {
              "pitch": 64,
              "velocity": 110,
              "position": 11.25,
              "duration": 0.3958333333333333
            },
            {
              "pitch": 79,
              "velocity": 88,
              "position": 11.25,
              "duration": 0.40625
            },
            {
              "pitch": 76,
              "velocity": 110,
              "position": 11.25,
              "duration": 0.4583333333333333
            },
            {
              "pitch": 59,
              "velocity": 90,
              "position": 11.75,
              "duration": 0.19791666666666666
            },
            {
              "pitch": 71,
              "velocity": 92,
              "position": 11.75,
              "duration": 0.19791666666666666
            },
            {
              "pitch": 71,
              "velocity": 88,
              "position": 12,
              "duration": 0.17708333333333334
            },
            {
              "pitch": 59,
              "velocity": 88,
              "position": 12,
              "duration": 0.1875
            },
            {
              "pitch": 64,
              "velocity": 90,
              "position": 12.25,
              "duration": 0.1875
            },
            {
              "pitch": 76,
              "velocity": 104,
              "position": 12.25,
              "duration": 0.1875
            },
            {
              "pitch": 67,
              "velocity": 88,
              "position": 12.5,
              "duration": 0.23958333333333334
            },
            {
              "pitch": 79,
              "velocity": 76,
              "position": 12.5,
              "duration": 0.2604166666666667
            },
            {
              "pitch": 59,
              "velocity": 94,
              "position": 12.760416666666666,
              "duration": 0.40625
            },
            {
              "pitch": 71,
              "velocity": 80,
              "position": 12.760416666666666,
              "duration": 0.4270833333333333
            },
            {
              "pitch": 79,
              "velocity": 88,
              "position": 13.260416666666666,
              "duration": 0.3958333333333333
            },
            {
              "pitch": 67,
              "velocity": 76,
              "position": 13.25,
              "duration": 0.4375
            },
            {
              "pitch": 64,
              "velocity": 110,
              "position": 13.25,
              "duration": 0.4791666666666667
            },
            {
              "pitch": 76,
              "velocity": 90,
              "position": 13.25,
              "duration": 0.4791666666666667
            },
            {
              "pitch": 71,
              "velocity": 90,
              "position": 13.760416666666666,
              "duration": 0.4166666666666667
            },
            {
              "pitch": 59,
              "velocity": 90,
              "position": 13.760416666666666,
              "duration": 0.4479166666666667
            },
            {
              "pitch": 67,
              "velocity": 88,
              "position": 14.25,
              "duration": 0.3541666666666667
            },
            {
              "pitch": 64,
              "velocity": 88,
              "position": 14.25,
              "duration": 0.375
            },
            {
              "pitch": 79,
              "velocity": 88,
              "position": 14.260416666666666,
              "duration": 0.375
            },
            {
              "pitch": 76,
              "velocity": 110,
              "position": 14.260416666666666,
              "duration": 0.3958333333333333
            },
            {
              "pitch": 59,
              "velocity": 92,
              "position": 14.75,
              "duration": 0.4270833333333333
            },
            {
              "pitch": 71,
              "velocity": 92,
              "position": 14.75,
              "duration": 0.4791666666666667
            },
            {
              "pitch": 67,
              "velocity": 88,
              "position": 15.25,
              "duration": 0.1875
            },
            {
              "pitch": 64,
              "velocity": 88,
              "position": 15.25,
              "duration": 0.20833333333333334
            },
            {
              "pitch": 79,
              "velocity": 88,
              "position": 15.260416666666666,
              "duration": 0.19791666666666666
            },
            {
              "pitch": 76,
              "velocity": 76,
              "position": 15.260416666666666,
              "duration": 0.21875
            },
            {
              "pitch": 69,
              "velocity": 72,
              "position": 15.5,
              "duration": 0.1875
            },
            {
              "pitch": 57,
              "velocity": 92,
              "position": 15.5,
              "duration": 0.22916666666666666
            },
            {
              "pitch": 59,
              "velocity": 80,
              "position": 15.75,
              "duration": 0.17708333333333334
            },
            {
              "pitch": 71,
              "velocity": 94,
              "position": 15.75,
              "duration": 0.17708333333333334
            },
            {
              "pitch": 71,
              "velocity": 104,
              "position": 16,
              "duration": 0.1875
            },
            {
              "pitch": 59,
              "velocity": 90,
              "position": 16,
              "duration": 0.23958333333333334
            },
            {
              "pitch": 64,
              "velocity": 80,
              "position": 16.25,
              "duration": 0.19791666666666666
            },
            {
              "pitch": 76,
              "velocity": 90,
              "position": 16.25,
              "duration": 0.20833333333333334
            },
            {
              "pitch": 67,
              "velocity": 104,
              "position": 16.5,
              "duration": 0.23958333333333334
            },
            {
              "pitch": 79,
              "velocity": 88,
              "position": 16.5,
              "duration": 0.2916666666666667
            },
            {
              "pitch": 59,
              "velocity": 88,
              "position": 16.770833333333332,
              "duration": 0.375
            },
            {
              "pitch": 71,
              "velocity": 94,
              "position": 16.760416666666668,
              "duration": 0.4479166666666667
            },
            {
              "pitch": 67,
              "velocity": 80,
              "position": 17.260416666666668,
              "duration": 0.3854166666666667
            },
            {
              "pitch": 64,
              "velocity": 104,
              "position": 17.260416666666668,
              "duration": 0.3854166666666667
            },
            {
              "pitch": 79,
              "velocity": 104,
              "position": 17.260416666666668,
              "duration": 0.3958333333333333
            },
            {
              "pitch": 76,
              "velocity": 124,
              "position": 17.260416666666668,
              "duration": 0.4479166666666667
            },
            {
              "pitch": 59,
              "velocity": 88,
              "position": 17.760416666666668,
              "duration": 0.3958333333333333
            },
            {
              "pitch": 71,
              "velocity": 104,
              "position": 17.760416666666668,
              "duration": 0.4375
            },
            {
              "pitch": 79,
              "velocity": 94,
              "position": 18.260416666666668,
              "duration": 0.40625
            },
            {
              "pitch": 64,
              "velocity": 88,
              "position": 18.260416666666668,
              "duration": 0.4166666666666667
            },
            {
              "pitch": 67,
              "velocity": 80,
              "position": 18.260416666666668,
              "duration": 0.4270833333333333
            },
            {
              "pitch": 76,
              "velocity": 80,
              "position": 18.260416666666668,
              "duration": 0.4479166666666667
            },
            {
              "pitch": 71,
              "velocity": 92,
              "position": 18.75,
              "duration": 0.4375
            },
            {
              "pitch": 59,
              "velocity": 92,
              "position": 18.760416666666668,
              "duration": 0.4375
            },
            {
              "pitch": 67,
              "velocity": 88,
              "position": 19.25,
              "duration": 0.3854166666666667
            },
            {
              "pitch": 64,
              "velocity": 110,
              "position": 19.25,
              "duration": 0.3958333333333333
            },
            {
              "pitch": 79,
              "velocity": 88,
              "position": 19.25,
              "duration": 0.40625
            },
            {
              "pitch": 76,
              "velocity": 110,
              "position": 19.25,
              "duration": 0.4583333333333333
            },
            {
              "pitch": 59,
              "velocity": 90,
              "position": 19.75,
              "duration": 0.19791666666666666
            },
            {
              "pitch": 71,
              "velocity": 92,
              "position": 19.75,
              "duration": 0.19791666666666666
            },
            {
              "pitch": 71,
              "velocity": 88,
              "position": 20,
              "duration": 0.17708333333333334
            },
            {
              "pitch": 59,
              "velocity": 88,
              "position": 20,
              "duration": 0.1875
            },
            {
              "pitch": 64,
              "velocity": 90,
              "position": 20.25,
              "duration": 0.1875
            },
            {
              "pitch": 76,
              "velocity": 104,
              "position": 20.25,
              "duration": 0.1875
            },
            {
              "pitch": 67,
              "velocity": 88,
              "position": 20.5,
              "duration": 0.23958333333333334
            },
            {
              "pitch": 79,
              "velocity": 76,
              "position": 20.5,
              "duration": 0.2604166666666667
            },
            {
              "pitch": 59,
              "velocity": 94,
              "position": 20.760416666666668,
              "duration": 0.40625
            },
            {
              "pitch": 71,
              "velocity": 80,
              "position": 20.760416666666668,
              "duration": 0.4270833333333333
            },
            {
              "pitch": 79,
              "velocity": 88,
              "position": 21.260416666666668,
              "duration": 0.3958333333333333
            },
            {
              "pitch": 67,
              "velocity": 76,
              "position": 21.25,
              "duration": 0.4375
            },
            {
              "pitch": 64,
              "velocity": 110,
              "position": 21.25,
              "duration": 0.4791666666666667
            },
            {
              "pitch": 76,
              "velocity": 90,
              "position": 21.25,
              "duration": 0.4791666666666667
            },
            {
              "pitch": 71,
              "velocity": 90,
              "position": 21.760416666666668,
              "duration": 0.4166666666666667
            },
            {
              "pitch": 59,
              "velocity": 90,
              "position": 21.760416666666668,
              "duration": 0.4479166666666667
            },
            {
              "pitch": 67,
              "velocity": 88,
              "position": 22.25,
              "duration": 0.3541666666666667
            },
            {
              "pitch": 64,
              "velocity": 88,
              "position": 22.25,
              "duration": 0.375
            },
            {
              "pitch": 79,
              "velocity": 88,
              "position": 22.260416666666668,
              "duration": 0.375
            },
            {
              "pitch": 76,
              "velocity": 110,
              "position": 22.260416666666668,
              "duration": 0.3958333333333333
            },
            {
              "pitch": 59,
              "velocity": 92,
              "position": 22.75,
              "duration": 0.4270833333333333
            },
            {
              "pitch": 71,
              "velocity": 92,
              "position": 22.75,
              "duration": 0.4791666666666667
            },
            {
              "pitch": 67,
              "velocity": 88,
              "position": 23.25,
              "duration": 0.1875
            },
            {
              "pitch": 64,
              "velocity": 88,
              "position": 23.25,
              "duration": 0.20833333333333334
            },
            {
              "pitch": 79,
              "velocity": 88,
              "position": 23.260416666666668,
              "duration": 0.19791666666666666
            },
            {
              "pitch": 76,
              "velocity": 76,
              "position": 23.260416666666668,
              "duration": 0.21875
            },
            {
              "pitch": 69,
              "velocity": 72,
              "position": 23.5,
              "duration": 0.1875
            },
            {
              "pitch": 57,
              "velocity": 92,
              "position": 23.5,
              "duration": 0.22916666666666666
            },
            {
              "pitch": 59,
              "velocity": 80,
              "position": 23.75,
              "duration": 0.17708333333333334
            },
            {
              "pitch": 71,
              "velocity": 94,
              "position": 23.75,
              "duration": 0.17708333333333334
            },
            {
              "pitch": 71,
              "velocity": 104,
              "position": 24,
              "duration": 0.1875
            },
            {
              "pitch": 59,
              "velocity": 90,
              "position": 24,
              "duration": 0.23958333333333334
            },
            {
              "pitch": 64,
              "velocity": 80,
              "position": 24.25,
              "duration": 0.19791666666666666
            },
            {
              "pitch": 76,
              "velocity": 90,
              "position": 24.25,
              "duration": 0.20833333333333334
            },
            {
              "pitch": 67,
              "velocity": 104,
              "position": 24.5,
              "duration": 0.23958333333333334
            },
            {
              "pitch": 79,
              "velocity": 88,
              "position": 24.5,
              "duration": 0.2916666666666667
            },
            {
              "pitch": 59,
              "velocity": 88,
              "position": 24.770833333333332,
              "duration": 0.375
            },
            {
              "pitch": 71,
              "velocity": 94,
              "position": 24.760416666666668,
              "duration": 0.4479166666666667
            },
            {
              "pitch": 67,
              "velocity": 80,
              "position": 25.260416666666668,
              "duration": 0.3854166666666667
            },
            {
              "pitch": 64,
              "velocity": 104,
              "position": 25.260416666666668,
              "duration": 0.3854166666666667
            },
            {
              "pitch": 79,
              "velocity": 104,
              "position": 25.260416666666668,
              "duration": 0.3958333333333333
            },
            {
              "pitch": 76,
              "velocity": 124,
              "position": 25.260416666666668,
              "duration": 0.4479166666666667
            },
            {
              "pitch": 59,
              "velocity": 88,
              "position": 25.760416666666668,
              "duration": 0.3958333333333333
            },
            {
              "pitch": 71,
              "velocity": 104,
              "position": 25.760416666666668,
              "duration": 0.4375
            },
            {
              "pitch": 79,
              "velocity": 94,
              "position": 26.260416666666668,
              "duration": 0.40625
            },
            {
              "pitch": 64,
              "velocity": 88,
              "position": 26.260416666666668,
              "duration": 0.4166666666666667
            },
            {
              "pitch": 67,
              "velocity": 80,
              "position": 26.260416666666668,
              "duration": 0.4270833333333333
            },
            {
              "pitch": 76,
              "velocity": 80,
              "position": 26.260416666666668,
              "duration": 0.4479166666666667
            },
            {
              "pitch": 71,
              "velocity": 92,
              "position": 26.75,
              "duration": 0.4375
            },
            {
              "pitch": 59,
              "velocity": 92,
              "position": 26.760416666666668,
              "duration": 0.4375
            },
            {
              "pitch": 67,
              "velocity": 88,
              "position": 27.25,
              "duration": 0.3854166666666667
            },
            {
              "pitch": 64,
              "velocity": 110,
              "position": 27.25,
              "duration": 0.3958333333333333
            },
            {
              "pitch": 79,
              "velocity": 88,
              "position": 27.25,
              "duration": 0.40625
            },
            {
              "pitch": 76,
              "velocity": 110,
              "position": 27.25,
              "duration": 0.4583333333333333
            },
            {
              "pitch": 59,
              "velocity": 90,
              "position": 27.75,
              "duration": 0.19791666666666666
            },
            {
              "pitch": 71,
              "velocity": 92,
              "position": 27.75,
              "duration": 0.19791666666666666
            },
            {
              "pitch": 71,
              "velocity": 88,
              "position": 28,
              "duration": 0.17708333333333334
            },
            {
              "pitch": 59,
              "velocity": 88,
              "position": 28,
              "duration": 0.1875
            },
            {
              "pitch": 64,
              "velocity": 90,
              "position": 28.25,
              "duration": 0.1875
            },
            {
              "pitch": 76,
              "velocity": 104,
              "position": 28.25,
              "duration": 0.1875
            },
            {
              "pitch": 67,
              "velocity": 88,
              "position": 28.5,
              "duration": 0.23958333333333334
            },
            {
              "pitch": 79,
              "velocity": 76,
              "position": 28.5,
              "duration": 0.2604166666666667
            },
            {
              "pitch": 59,
              "velocity": 94,
              "position": 28.760416666666668,
              "duration": 0.40625
            },
            {
              "pitch": 71,
              "velocity": 80,
              "position": 28.760416666666668,
              "duration": 0.4270833333333333
            },
            {
              "pitch": 79,
              "velocity": 88,
              "position": 29.260416666666668,
              "duration": 0.3958333333333333
            },
            {
              "pitch": 67,
              "velocity": 76,
              "position": 29.25,
              "duration": 0.4375
            },
            {
              "pitch": 64,
              "velocity": 110,
              "position": 29.25,
              "duration": 0.4791666666666667
            },
            {
              "pitch": 76,
              "velocity": 90,
              "position": 29.25,
              "duration": 0.4791666666666667
            },
            {
              "pitch": 71,
              "velocity": 90,
              "position": 29.760416666666668,
              "duration": 0.4166666666666667
            },
            {
              "pitch": 59,
              "velocity": 90,
              "position": 29.760416666666668,
              "duration": 0.4479166666666667
            },
            {
              "pitch": 67,
              "velocity": 88,
              "position": 30.25,
              "duration": 0.3541666666666667
            },
            {
              "pitch": 64,
              "velocity": 88,
              "position": 30.25,
              "duration": 0.375
            },
            {
              "pitch": 79,
              "velocity": 88,
              "position": 30.260416666666668,
              "duration": 0.375
            },
            {
              "pitch": 76,
              "velocity": 110,
              "position": 30.260416666666668,
              "duration": 0.3958333333333333
            },
            {
              "pitch": 59,
              "velocity": 92,
              "position": 30.75,
              "duration": 0.4270833333333333
            },
            {
              "pitch": 71,
              "velocity": 92,
              "position": 30.75,
              "duration": 0.4791666666666667
            },
            {
              "pitch": 67,
              "velocity": 88,
              "position": 31.25,
              "duration": 0.1875
            },
            {
              "pitch": 64,
              "velocity": 88,
              "position": 31.25,
              "duration": 0.20833333333333334
            },
            {
              "pitch": 79,
              "velocity": 88,
              "position": 31.260416666666668,
              "duration": 0.19791666666666666
            },
            {
              "pitch": 76,
              "velocity": 76,
              "position": 31.260416666666668,
              "duration": 0.21875
            },
            {
              "pitch": 69,
              "velocity": 72,
              "position": 31.5,
              "duration": 0.1875
            },
            {
              "pitch": 57,
              "velocity": 92,
              "position": 31.5,
              "duration": 0.22916666666666666
            },
            {
              "pitch": 59,
              "velocity": 80,
              "position": 31.75,
              "duration": 0.17708333333333334
            },
            {
              "pitch": 71,
              "velocity": 94,
              "position": 31.75,
              "duration": 0.17708333333333334
            }
          ]
        },
        "15": {
          "ctab": {
            "srcChannel": 15,
            "name": "GrandPno",
            "accType": "CHORD1",
            "editable": false,
            "mutedNotes": [],
            "mutedChords": [
              "1+2+5",
              "sus4",
              "1+5",
              "1+8",
              "7aug",
              "Maj7aug",
              "7(#9)",
              "7(b13)",
              "7(b9)",
              "7(13)",
              "7#11",
              "7(9)",
              "7b5",
              "7sus4",
              "7th",
              "aug",
              "Maj6(9)",
              "Maj7(9)",
              "Maj(9)",
              "Maj7#11",
              "Maj7",
              "Maj6",
              "Maj"
            ],
            "autoStart": false,
            "sourceChordNote": 0,
            "sourceChordType": "minMaj7",
            "ctb2Low": null,
            "ctb2Main": {
              "ntr": "ROOT_TRANSPOSITION",
              "ntt": "CHORD",
              "bassOn": false,
              "chordRootUpperLimit": 6,
              "noteLowLimit": 0,
              "noteHighLimit": 127,
              "rtr": "PITCH_SHIFT"
            },
            "ctb2High": null
          },
          "notes": [
            {
              "pitch": 71,
              "velocity": 104,
              "position": 0,
              "duration": 0.1875
            },
            {
              "pitch": 59,
              "velocity": 90,
              "position": 0,
              "duration": 0.23958333333333334
            },
            {
              "pitch": 63,
              "velocity": 80,
              "position": 0.25,
              "duration": 0.19791666666666666
            },
            {
              "pitch": 75,
              "velocity": 90,
              "position": 0.25,
              "duration": 0.20833333333333334
            },
            {
              "pitch": 67,
              "velocity": 104,
              "position": 0.5,
              "duration": 0.23958333333333334
            },
            {
              "pitch": 79,
              "velocity": 88,
              "position": 0.5,
              "duration": 0.2916666666666667
            },
            {
              "pitch": 59,
              "velocity": 88,
              "position": 0.7708333333333334,
              "duration": 0.375
            },
            {
              "pitch": 71,
              "velocity": 94,
              "position": 0.7604166666666666,
              "duration": 0.4479166666666667
            },
            {
              "pitch": 67,
              "velocity": 80,
              "position": 1.2604166666666667,
              "duration": 0.3854166666666667
            },
            {
              "pitch": 63,
              "velocity": 104,
              "position": 1.2604166666666667,
              "duration": 0.3854166666666667
            },
            {
              "pitch": 79,
              "velocity": 104,
              "position": 1.2604166666666667,
              "duration": 0.3958333333333333
            },
            {
              "pitch": 75,
              "velocity": 124,
              "position": 1.2604166666666667,
              "duration": 0.4479166666666667
            },
            {
              "pitch": 59,
              "velocity": 88,
              "position": 1.7604166666666667,
              "duration": 0.3958333333333333
            },
            {
              "pitch": 71,
              "velocity": 104,
              "position": 1.7604166666666667,
              "duration": 0.4375
            },
            {
              "pitch": 79,
              "velocity": 94,
              "position": 2.2604166666666665,
              "duration": 0.40625
            },
            {
              "pitch": 63,
              "velocity": 88,
              "position": 2.2604166666666665,
              "duration": 0.4166666666666667
            },
            {
              "pitch": 67,
              "velocity": 80,
              "position": 2.2604166666666665,
              "duration": 0.4270833333333333
            },
            {
              "pitch": 75,
              "velocity": 80,
              "position": 2.2604166666666665,
              "duration": 0.4479166666666667
            },
            {
              "pitch": 71,
              "velocity": 92,
              "position": 2.75,
              "duration": 0.4375
            },
            {
              "pitch": 59,
              "velocity": 92,
              "position": 2.7604166666666665,
              "duration": 0.4375
            },
            {
              "pitch": 67,
              "velocity": 88,
              "position": 3.25,
              "duration": 0.3854166666666667
            },
            {
              "pitch": 63,
              "velocity": 110,
              "position": 3.25,
              "duration": 0.3958333333333333
            },
            {
              "pitch": 79,
              "velocity": 88,
              "position": 3.25,
              "duration": 0.40625
            },
            {
              "pitch": 75,
              "velocity": 110,
              "position": 3.25,
              "duration": 0.4583333333333333
            },
            {
              "pitch": 59,
              "velocity": 90,
              "position": 3.75,
              "duration": 0.19791666666666666
            },
            {
              "pitch": 71,
              "velocity": 92,
              "position": 3.75,
              "duration": 0.19791666666666666
            },
            {
              "pitch": 71,
              "velocity": 88,
              "position": 4,
              "duration": 0.17708333333333334
            },
            {
              "pitch": 59,
              "velocity": 88,
              "position": 4,
              "duration": 0.1875
            },
            {
              "pitch": 63,
              "velocity": 90,
              "position": 4.25,
              "duration": 0.1875
            },
            {
              "pitch": 75,
              "velocity": 104,
              "position": 4.25,
              "duration": 0.1875
            },
            {
              "pitch": 67,
              "velocity": 88,
              "position": 4.5,
              "duration": 0.23958333333333334
            },
            {
              "pitch": 79,
              "velocity": 76,
              "position": 4.5,
              "duration": 0.2604166666666667
            },
            {
              "pitch": 59,
              "velocity": 94,
              "position": 4.760416666666667,
              "duration": 0.40625
            },
            {
              "pitch": 71,
              "velocity": 80,
              "position": 4.760416666666667,
              "duration": 0.4270833333333333
            },
            {
              "pitch": 79,
              "velocity": 88,
              "position": 5.260416666666667,
              "duration": 0.3958333333333333
            },
            {
              "pitch": 67,
              "velocity": 76,
              "position": 5.25,
              "duration": 0.4375
            },
            {
              "pitch": 63,
              "velocity": 110,
              "position": 5.25,
              "duration": 0.4791666666666667
            },
            {
              "pitch": 75,
              "velocity": 90,
              "position": 5.25,
              "duration": 0.4791666666666667
            },
            {
              "pitch": 71,
              "velocity": 90,
              "position": 5.760416666666667,
              "duration": 0.4166666666666667
            },
            {
              "pitch": 59,
              "velocity": 90,
              "position": 5.760416666666667,
              "duration": 0.4479166666666667
            },
            {
              "pitch": 67,
              "velocity": 88,
              "position": 6.25,
              "duration": 0.3541666666666667
            },
            {
              "pitch": 63,
              "velocity": 88,
              "position": 6.25,
              "duration": 0.375
            },
            {
              "pitch": 79,
              "velocity": 88,
              "position": 6.260416666666667,
              "duration": 0.375
            },
            {
              "pitch": 75,
              "velocity": 110,
              "position": 6.260416666666667,
              "duration": 0.3958333333333333
            },
            {
              "pitch": 59,
              "velocity": 92,
              "position": 6.75,
              "duration": 0.4270833333333333
            },
            {
              "pitch": 71,
              "velocity": 92,
              "position": 6.75,
              "duration": 0.4791666666666667
            },
            {
              "pitch": 63,
              "velocity": 88,
              "position": 7.25,
              "duration": 0.1875
            },
            {
              "pitch": 67,
              "velocity": 88,
              "position": 7.25,
              "duration": 0.1875
            },
            {
              "pitch": 79,
              "velocity": 88,
              "position": 7.260416666666667,
              "duration": 0.17708333333333334
            },
            {
              "pitch": 75,
              "velocity": 76,
              "position": 7.260416666666667,
              "duration": 0.1875
            },
            {
              "pitch": 71,
              "velocity": 72,
              "position": 7.5,
              "duration": 0.1875
            },
            {
              "pitch": 59,
              "velocity": 92,
              "position": 7.5,
              "duration": 0.19791666666666666
            },
            {
              "pitch": 59,
              "velocity": 80,
              "position": 7.75,
              "duration": 0.17708333333333334
            },
            {
              "pitch": 71,
              "velocity": 94,
              "position": 7.75,
              "duration": 0.17708333333333334
            },
            {
              "pitch": 71,
              "velocity": 104,
              "position": 8,
              "duration": 0.1875
            },
            {
              "pitch": 59,
              "velocity": 90,
              "position": 8,
              "duration": 0.23958333333333334
            },
            {
              "pitch": 63,
              "velocity": 80,
              "position": 8.25,
              "duration": 0.19791666666666666
            },
            {
              "pitch": 75,
              "velocity": 90,
              "position": 8.25,
              "duration": 0.20833333333333334
            },
            {
              "pitch": 67,
              "velocity": 104,
              "position": 8.5,
              "duration": 0.23958333333333334
            },
            {
              "pitch": 79,
              "velocity": 88,
              "position": 8.5,
              "duration": 0.2916666666666667
            },
            {
              "pitch": 59,
              "velocity": 88,
              "position": 8.770833333333334,
              "duration": 0.375
            },
            {
              "pitch": 71,
              "velocity": 94,
              "position": 8.760416666666666,
              "duration": 0.4479166666666667
            },
            {
              "pitch": 67,
              "velocity": 80,
              "position": 9.260416666666666,
              "duration": 0.3854166666666667
            },
            {
              "pitch": 63,
              "velocity": 104,
              "position": 9.260416666666666,
              "duration": 0.3854166666666667
            },
            {
              "pitch": 79,
              "velocity": 104,
              "position": 9.260416666666666,
              "duration": 0.3958333333333333
            },
            {
              "pitch": 75,
              "velocity": 124,
              "position": 9.260416666666666,
              "duration": 0.4479166666666667
            },
            {
              "pitch": 59,
              "velocity": 88,
              "position": 9.760416666666666,
              "duration": 0.3958333333333333
            },
            {
              "pitch": 71,
              "velocity": 104,
              "position": 9.760416666666666,
              "duration": 0.4375
            },
            {
              "pitch": 79,
              "velocity": 94,
              "position": 10.260416666666666,
              "duration": 0.40625
            },
            {
              "pitch": 63,
              "velocity": 88,
              "position": 10.260416666666666,
              "duration": 0.4166666666666667
            },
            {
              "pitch": 67,
              "velocity": 80,
              "position": 10.260416666666666,
              "duration": 0.4270833333333333
            },
            {
              "pitch": 75,
              "velocity": 80,
              "position": 10.260416666666666,
              "duration": 0.4479166666666667
            },
            {
              "pitch": 71,
              "velocity": 92,
              "position": 10.75,
              "duration": 0.4375
            },
            {
              "pitch": 59,
              "velocity": 92,
              "position": 10.760416666666666,
              "duration": 0.4375
            },
            {
              "pitch": 67,
              "velocity": 88,
              "position": 11.25,
              "duration": 0.3854166666666667
            },
            {
              "pitch": 63,
              "velocity": 110,
              "position": 11.25,
              "duration": 0.3958333333333333
            },
            {
              "pitch": 79,
              "velocity": 88,
              "position": 11.25,
              "duration": 0.40625
            },
            {
              "pitch": 75,
              "velocity": 110,
              "position": 11.25,
              "duration": 0.4583333333333333
            },
            {
              "pitch": 59,
              "velocity": 90,
              "position": 11.75,
              "duration": 0.19791666666666666
            },
            {
              "pitch": 71,
              "velocity": 92,
              "position": 11.75,
              "duration": 0.19791666666666666
            },
            {
              "pitch": 71,
              "velocity": 88,
              "position": 12,
              "duration": 0.17708333333333334
            },
            {
              "pitch": 59,
              "velocity": 88,
              "position": 12,
              "duration": 0.1875
            },
            {
              "pitch": 63,
              "velocity": 90,
              "position": 12.25,
              "duration": 0.1875
            },
            {
              "pitch": 75,
              "velocity": 104,
              "position": 12.25,
              "duration": 0.1875
            },
            {
              "pitch": 67,
              "velocity": 88,
              "position": 12.5,
              "duration": 0.23958333333333334
            },
            {
              "pitch": 79,
              "velocity": 76,
              "position": 12.5,
              "duration": 0.2604166666666667
            },
            {
              "pitch": 59,
              "velocity": 94,
              "position": 12.760416666666666,
              "duration": 0.40625
            },
            {
              "pitch": 71,
              "velocity": 80,
              "position": 12.760416666666666,
              "duration": 0.4270833333333333
            },
            {
              "pitch": 79,
              "velocity": 88,
              "position": 13.260416666666666,
              "duration": 0.3958333333333333
            },
            {
              "pitch": 67,
              "velocity": 76,
              "position": 13.25,
              "duration": 0.4375
            },
            {
              "pitch": 63,
              "velocity": 110,
              "position": 13.25,
              "duration": 0.4791666666666667
            },
            {
              "pitch": 75,
              "velocity": 90,
              "position": 13.25,
              "duration": 0.4791666666666667
            },
            {
              "pitch": 71,
              "velocity": 90,
              "position": 13.760416666666666,
              "duration": 0.4166666666666667
            },
            {
              "pitch": 59,
              "velocity": 90,
              "position": 13.760416666666666,
              "duration": 0.4479166666666667
            },
            {
              "pitch": 67,
              "velocity": 88,
              "position": 14.25,
              "duration": 0.3541666666666667
            },
            {
              "pitch": 63,
              "velocity": 88,
              "position": 14.25,
              "duration": 0.375
            },
            {
              "pitch": 79,
              "velocity": 88,
              "position": 14.260416666666666,
              "duration": 0.375
            },
            {
              "pitch": 75,
              "velocity": 110,
              "position": 14.260416666666666,
              "duration": 0.3958333333333333
            },
            {
              "pitch": 59,
              "velocity": 92,
              "position": 14.75,
              "duration": 0.4270833333333333
            },
            {
              "pitch": 71,
              "velocity": 92,
              "position": 14.75,
              "duration": 0.4791666666666667
            },
            {
              "pitch": 63,
              "velocity": 88,
              "position": 15.25,
              "duration": 0.1875
            },
            {
              "pitch": 67,
              "velocity": 88,
              "position": 15.25,
              "duration": 0.1875
            },
            {
              "pitch": 79,
              "velocity": 88,
              "position": 15.260416666666666,
              "duration": 0.17708333333333334
            },
            {
              "pitch": 75,
              "velocity": 76,
              "position": 15.260416666666666,
              "duration": 0.1875
            },
            {
              "pitch": 71,
              "velocity": 72,
              "position": 15.5,
              "duration": 0.1875
            },
            {
              "pitch": 59,
              "velocity": 92,
              "position": 15.5,
              "duration": 0.19791666666666666
            },
            {
              "pitch": 59,
              "velocity": 80,
              "position": 15.75,
              "duration": 0.17708333333333334
            },
            {
              "pitch": 71,
              "velocity": 94,
              "position": 15.75,
              "duration": 0.17708333333333334
            },
            {
              "pitch": 71,
              "velocity": 104,
              "position": 16,
              "duration": 0.1875
            },
            {
              "pitch": 59,
              "velocity": 90,
              "position": 16,
              "duration": 0.23958333333333334
            },
            {
              "pitch": 63,
              "velocity": 80,
              "position": 16.25,
              "duration": 0.19791666666666666
            },
            {
              "pitch": 75,
              "velocity": 90,
              "position": 16.25,
              "duration": 0.20833333333333334
            },
            {
              "pitch": 67,
              "velocity": 104,
              "position": 16.5,
              "duration": 0.23958333333333334
            },
            {
              "pitch": 79,
              "velocity": 88,
              "position": 16.5,
              "duration": 0.2916666666666667
            },
            {
              "pitch": 59,
              "velocity": 88,
              "position": 16.770833333333332,
              "duration": 0.375
            },
            {
              "pitch": 71,
              "velocity": 94,
              "position": 16.760416666666668,
              "duration": 0.4479166666666667
            },
            {
              "pitch": 67,
              "velocity": 80,
              "position": 17.260416666666668,
              "duration": 0.3854166666666667
            },
            {
              "pitch": 63,
              "velocity": 104,
              "position": 17.260416666666668,
              "duration": 0.3854166666666667
            },
            {
              "pitch": 79,
              "velocity": 104,
              "position": 17.260416666666668,
              "duration": 0.3958333333333333
            },
            {
              "pitch": 75,
              "velocity": 124,
              "position": 17.260416666666668,
              "duration": 0.4479166666666667
            },
            {
              "pitch": 59,
              "velocity": 88,
              "position": 17.760416666666668,
              "duration": 0.3958333333333333
            },
            {
              "pitch": 71,
              "velocity": 104,
              "position": 17.760416666666668,
              "duration": 0.4375
            },
            {
              "pitch": 79,
              "velocity": 94,
              "position": 18.260416666666668,
              "duration": 0.40625
            },
            {
              "pitch": 63,
              "velocity": 88,
              "position": 18.260416666666668,
              "duration": 0.4166666666666667
            },
            {
              "pitch": 67,
              "velocity": 80,
              "position": 18.260416666666668,
              "duration": 0.4270833333333333
            },
            {
              "pitch": 75,
              "velocity": 80,
              "position": 18.260416666666668,
              "duration": 0.4479166666666667
            },
            {
              "pitch": 71,
              "velocity": 92,
              "position": 18.75,
              "duration": 0.4375
            },
            {
              "pitch": 59,
              "velocity": 92,
              "position": 18.760416666666668,
              "duration": 0.4375
            },
            {
              "pitch": 67,
              "velocity": 88,
              "position": 19.25,
              "duration": 0.3854166666666667
            },
            {
              "pitch": 63,
              "velocity": 110,
              "position": 19.25,
              "duration": 0.3958333333333333
            },
            {
              "pitch": 79,
              "velocity": 88,
              "position": 19.25,
              "duration": 0.40625
            },
            {
              "pitch": 75,
              "velocity": 110,
              "position": 19.25,
              "duration": 0.4583333333333333
            },
            {
              "pitch": 59,
              "velocity": 90,
              "position": 19.75,
              "duration": 0.19791666666666666
            },
            {
              "pitch": 71,
              "velocity": 92,
              "position": 19.75,
              "duration": 0.19791666666666666
            },
            {
              "pitch": 71,
              "velocity": 88,
              "position": 20,
              "duration": 0.17708333333333334
            },
            {
              "pitch": 59,
              "velocity": 88,
              "position": 20,
              "duration": 0.1875
            },
            {
              "pitch": 63,
              "velocity": 90,
              "position": 20.25,
              "duration": 0.1875
            },
            {
              "pitch": 75,
              "velocity": 104,
              "position": 20.25,
              "duration": 0.1875
            },
            {
              "pitch": 67,
              "velocity": 88,
              "position": 20.5,
              "duration": 0.23958333333333334
            },
            {
              "pitch": 79,
              "velocity": 76,
              "position": 20.5,
              "duration": 0.2604166666666667
            },
            {
              "pitch": 59,
              "velocity": 94,
              "position": 20.760416666666668,
              "duration": 0.40625
            },
            {
              "pitch": 71,
              "velocity": 80,
              "position": 20.760416666666668,
              "duration": 0.4270833333333333
            },
            {
              "pitch": 79,
              "velocity": 88,
              "position": 21.260416666666668,
              "duration": 0.3958333333333333
            },
            {
              "pitch": 67,
              "velocity": 76,
              "position": 21.25,
              "duration": 0.4375
            },
            {
              "pitch": 63,
              "velocity": 110,
              "position": 21.25,
              "duration": 0.4791666666666667
            },
            {
              "pitch": 75,
              "velocity": 90,
              "position": 21.25,
              "duration": 0.4791666666666667
            },
            {
              "pitch": 71,
              "velocity": 90,
              "position": 21.760416666666668,
              "duration": 0.4166666666666667
            },
            {
              "pitch": 59,
              "velocity": 90,
              "position": 21.760416666666668,
              "duration": 0.4479166666666667
            },
            {
              "pitch": 67,
              "velocity": 88,
              "position": 22.25,
              "duration": 0.3541666666666667
            },
            {
              "pitch": 63,
              "velocity": 88,
              "position": 22.25,
              "duration": 0.375
            },
            {
              "pitch": 79,
              "velocity": 88,
              "position": 22.260416666666668,
              "duration": 0.375
            },
            {
              "pitch": 75,
              "velocity": 110,
              "position": 22.260416666666668,
              "duration": 0.3958333333333333
            },
            {
              "pitch": 59,
              "velocity": 92,
              "position": 22.75,
              "duration": 0.4270833333333333
            },
            {
              "pitch": 71,
              "velocity": 92,
              "position": 22.75,
              "duration": 0.4791666666666667
            },
            {
              "pitch": 63,
              "velocity": 88,
              "position": 23.25,
              "duration": 0.1875
            },
            {
              "pitch": 67,
              "velocity": 88,
              "position": 23.25,
              "duration": 0.1875
            },
            {
              "pitch": 79,
              "velocity": 88,
              "position": 23.260416666666668,
              "duration": 0.17708333333333334
            },
            {
              "pitch": 75,
              "velocity": 76,
              "position": 23.260416666666668,
              "duration": 0.1875
            },
            {
              "pitch": 71,
              "velocity": 72,
              "position": 23.5,
              "duration": 0.1875
            },
            {
              "pitch": 59,
              "velocity": 92,
              "position": 23.5,
              "duration": 0.19791666666666666
            },
            {
              "pitch": 59,
              "velocity": 80,
              "position": 23.75,
              "duration": 0.17708333333333334
            },
            {
              "pitch": 71,
              "velocity": 94,
              "position": 23.75,
              "duration": 0.17708333333333334
            },
            {
              "pitch": 71,
              "velocity": 104,
              "position": 24,
              "duration": 0.1875
            },
            {
              "pitch": 59,
              "velocity": 90,
              "position": 24,
              "duration": 0.23958333333333334
            },
            {
              "pitch": 63,
              "velocity": 80,
              "position": 24.25,
              "duration": 0.19791666666666666
            },
            {
              "pitch": 75,
              "velocity": 90,
              "position": 24.25,
              "duration": 0.20833333333333334
            },
            {
              "pitch": 67,
              "velocity": 104,
              "position": 24.5,
              "duration": 0.23958333333333334
            },
            {
              "pitch": 79,
              "velocity": 88,
              "position": 24.5,
              "duration": 0.2916666666666667
            },
            {
              "pitch": 59,
              "velocity": 88,
              "position": 24.770833333333332,
              "duration": 0.375
            },
            {
              "pitch": 71,
              "velocity": 94,
              "position": 24.760416666666668,
              "duration": 0.4479166666666667
            },
            {
              "pitch": 67,
              "velocity": 80,
              "position": 25.260416666666668,
              "duration": 0.3854166666666667
            },
            {
              "pitch": 63,
              "velocity": 104,
              "position": 25.260416666666668,
              "duration": 0.3854166666666667
            },
            {
              "pitch": 79,
              "velocity": 104,
              "position": 25.260416666666668,
              "duration": 0.3958333333333333
            },
            {
              "pitch": 75,
              "velocity": 124,
              "position": 25.260416666666668,
              "duration": 0.4479166666666667
            },
            {
              "pitch": 59,
              "velocity": 88,
              "position": 25.760416666666668,
              "duration": 0.3958333333333333
            },
            {
              "pitch": 71,
              "velocity": 104,
              "position": 25.760416666666668,
              "duration": 0.4375
            },
            {
              "pitch": 79,
              "velocity": 94,
              "position": 26.260416666666668,
              "duration": 0.40625
            },
            {
              "pitch": 63,
              "velocity": 88,
              "position": 26.260416666666668,
              "duration": 0.4166666666666667
            },
            {
              "pitch": 67,
              "velocity": 80,
              "position": 26.260416666666668,
              "duration": 0.4270833333333333
            },
            {
              "pitch": 75,
              "velocity": 80,
              "position": 26.260416666666668,
              "duration": 0.4479166666666667
            },
            {
              "pitch": 71,
              "velocity": 92,
              "position": 26.75,
              "duration": 0.4375
            },
            {
              "pitch": 59,
              "velocity": 92,
              "position": 26.760416666666668,
              "duration": 0.4375
            },
            {
              "pitch": 67,
              "velocity": 88,
              "position": 27.25,
              "duration": 0.3854166666666667
            },
            {
              "pitch": 63,
              "velocity": 110,
              "position": 27.25,
              "duration": 0.3958333333333333
            },
            {
              "pitch": 79,
              "velocity": 88,
              "position": 27.25,
              "duration": 0.40625
            },
            {
              "pitch": 75,
              "velocity": 110,
              "position": 27.25,
              "duration": 0.4583333333333333
            },
            {
              "pitch": 59,
              "velocity": 90,
              "position": 27.75,
              "duration": 0.19791666666666666
            },
            {
              "pitch": 71,
              "velocity": 92,
              "position": 27.75,
              "duration": 0.19791666666666666
            },
            {
              "pitch": 71,
              "velocity": 88,
              "position": 28,
              "duration": 0.17708333333333334
            },
            {
              "pitch": 59,
              "velocity": 88,
              "position": 28,
              "duration": 0.1875
            },
            {
              "pitch": 63,
              "velocity": 90,
              "position": 28.25,
              "duration": 0.1875
            },
            {
              "pitch": 75,
              "velocity": 104,
              "position": 28.25,
              "duration": 0.1875
            },
            {
              "pitch": 67,
              "velocity": 88,
              "position": 28.5,
              "duration": 0.23958333333333334
            },
            {
              "pitch": 79,
              "velocity": 76,
              "position": 28.5,
              "duration": 0.2604166666666667
            },
            {
              "pitch": 59,
              "velocity": 94,
              "position": 28.760416666666668,
              "duration": 0.40625
            },
            {
              "pitch": 71,
              "velocity": 80,
              "position": 28.760416666666668,
              "duration": 0.4270833333333333
            },
            {
              "pitch": 79,
              "velocity": 88,
              "position": 29.260416666666668,
              "duration": 0.3958333333333333
            },
            {
              "pitch": 67,
              "velocity": 76,
              "position": 29.25,
              "duration": 0.4375
            },
            {
              "pitch": 63,
              "velocity": 110,
              "position": 29.25,
              "duration": 0.4791666666666667
            },
            {
              "pitch": 75,
              "velocity": 90,
              "position": 29.25,
              "duration": 0.4791666666666667
            },
            {
              "pitch": 71,
              "velocity": 90,
              "position": 29.760416666666668,
              "duration": 0.4166666666666667
            },
            {
              "pitch": 59,
              "velocity": 90,
              "position": 29.760416666666668,
              "duration": 0.4479166666666667
            },
            {
              "pitch": 67,
              "velocity": 88,
              "position": 30.25,
              "duration": 0.3541666666666667
            },
            {
              "pitch": 63,
              "velocity": 88,
              "position": 30.25,
              "duration": 0.375
            },
            {
              "pitch": 79,
              "velocity": 88,
              "position": 30.260416666666668,
              "duration": 0.375
            },
            {
              "pitch": 75,
              "velocity": 110,
              "position": 30.260416666666668,
              "duration": 0.3958333333333333
            },
            {
              "pitch": 59,
              "velocity": 92,
              "position": 30.75,
              "duration": 0.4270833333333333
            },
            {
              "pitch": 71,
              "velocity": 92,
              "position": 30.75,
              "duration": 0.4791666666666667
            },
            {
              "pitch": 63,
              "velocity": 88,
              "position": 31.25,
              "duration": 0.1875
            },
            {
              "pitch": 67,
              "velocity": 88,
              "position": 31.25,
              "duration": 0.1875
            },
            {
              "pitch": 79,
              "velocity": 88,
              "position": 31.260416666666668,
              "duration": 0.17708333333333334
            },
            {
              "pitch": 75,
              "velocity": 76,
              "position": 31.260416666666668,
              "duration": 0.1875
            },
            {
              "pitch": 71,
              "velocity": 72,
              "position": 31.5,
              "duration": 0.1875
            },
            {
              "pitch": 59,
              "velocity": 92,
              "position": 31.5,
              "duration": 0.19791666666666666
            },
            {
              "pitch": 59,
              "velocity": 80,
              "position": 31.75,
              "duration": 0.17708333333333334
            },
            {
              "pitch": 71,
              "velocity": 94,
              "position": 31.75,
              "duration": 0.17708333333333334
            }
          ]
        }
      }
    },
    "Main_B": {
      "type": "Main_B",
      "sizeInBeats": 32,
      "channels": {
        "0": {
          "ctab": {
            "srcChannel": 0,
            "name": "GrandPno",
            "accType": "CHORD1",
            "editable": false,
            "mutedNotes": [],
            "mutedChords": [
              "1+2+5",
              "sus4",
              "1+5",
              "1+8",
              "dim7",
              "dim",
              "minMaj7(9)",
              "minMaj7",
              "min7(11)",
              "min7(9)",
              "min(9)",
              "m7b5",
              "min7",
              "min6",
              "min",
              "aug",
              "Maj6(9)",
              "Maj7(9)",
              "Maj(9)",
              "Maj7#11",
              "Maj7",
              "Maj6",
              "Maj"
            ],
            "autoStart": false,
            "sourceChordNote": 0,
            "sourceChordType": "7th",
            "ctb2Low": null,
            "ctb2Main": {
              "ntr": "ROOT_TRANSPOSITION",
              "ntt": "CHORD",
              "bassOn": false,
              "chordRootUpperLimit": 6,
              "noteLowLimit": 0,
              "noteHighLimit": 127,
              "rtr": "PITCH_SHIFT"
            },
            "ctb2High": null
          },
          "notes": [
            {
              "pitch": 76,
              "velocity": 104,
              "position": 0,
              "duration": 0.3333333333333333
            },
            {
              "pitch": 64,
              "velocity": 110,
              "position": 0,
              "duration": 0.3541666666666667
            },
            {
              "pitch": 52,
              "velocity": 92,
              "position": 0,
              "duration": 0.3541666666666667
            },
            {
              "pitch": 70,
              "velocity": 80,
              "position": 0.5,
              "duration": 0.5729166666666666
            },
            {
              "pitch": 58,
              "velocity": 94,
              "position": 0.5,
              "duration": 0.6145833333333334
            },
            {
              "pitch": 72,
              "velocity": 94,
              "position": 0.5,
              "duration": 0.6145833333333334
            },
            {
              "pitch": 60,
              "velocity": 84,
              "position": 0.4895833333333333,
              "duration": 0.6354166666666666
            },
            {
              "pitch": 52,
              "velocity": 88,
              "position": 1.2604166666666667,
              "duration": 0.3541666666666667
            },
            {
              "pitch": 76,
              "velocity": 88,
              "position": 1.2604166666666667,
              "duration": 0.3958333333333333
            },
            {
              "pitch": 64,
              "velocity": 94,
              "position": 1.2604166666666667,
              "duration": 0.3958333333333333
            },
            {
              "pitch": 76,
              "velocity": 110,
              "position": 1.7604166666666667,
              "duration": 0.3333333333333333
            },
            {
              "pitch": 64,
              "velocity": 88,
              "position": 1.7604166666666667,
              "duration": 0.3958333333333333
            },
            {
              "pitch": 52,
              "velocity": 110,
              "position": 1.7604166666666667,
              "duration": 0.4270833333333333
            },
            {
              "pitch": 58,
              "velocity": 90,
              "position": 2.2604166666666665,
              "duration": 0.3854166666666667
            },
            {
              "pitch": 60,
              "velocity": 80,
              "position": 2.2604166666666665,
              "duration": 0.4479166666666667
            },
            {
              "pitch": 70,
              "velocity": 80,
              "position": 2.2604166666666665,
              "duration": 0.4583333333333333
            },
            {
              "pitch": 72,
              "velocity": 104,
              "position": 2.2604166666666665,
              "duration": 0.4895833333333333
            },
            {
              "pitch": 76,
              "velocity": 88,
              "position": 2.7604166666666665,
              "duration": 0.3541666666666667
            },
            {
              "pitch": 64,
              "velocity": 90,
              "position": 2.7604166666666665,
              "duration": 0.3958333333333333
            },
            {
              "pitch": 52,
              "velocity": 88,
              "position": 2.75,
              "duration": 0.4270833333333333
            },
            {
              "pitch": 58,
              "velocity": 92,
              "position": 3.2604166666666665,
              "duration": 0.375
            },
            {
              "pitch": 60,
              "velocity": 80,
              "position": 3.2604166666666665,
              "duration": 0.4270833333333333
            },
            {
              "pitch": 70,
              "velocity": 80,
              "position": 3.2604166666666665,
              "duration": 0.4270833333333333
            },
            {
              "pitch": 72,
              "velocity": 92,
              "position": 3.2604166666666665,
              "duration": 0.4375
            },
            {
              "pitch": 52,
              "velocity": 88,
              "position": 3.75,
              "duration": 0.17708333333333334
            },
            {
              "pitch": 64,
              "velocity": 88,
              "position": 3.75,
              "duration": 0.19791666666666666
            },
            {
              "pitch": 76,
              "velocity": 72,
              "position": 3.75,
              "duration": 0.19791666666666666
            },
            {
              "pitch": 76,
              "velocity": 94,
              "position": 4,
              "duration": 0.3541666666666667
            },
            {
              "pitch": 64,
              "velocity": 124,
              "position": 4,
              "duration": 0.40625
            },
            {
              "pitch": 52,
              "velocity": 104,
              "position": 4,
              "duration": 0.4166666666666667
            },
            {
              "pitch": 70,
              "velocity": 80,
              "position": 4.5,
              "duration": 0.19791666666666666
            },
            {
              "pitch": 58,
              "velocity": 80,
              "position": 4.5,
              "duration": 0.19791666666666666
            },
            {
              "pitch": 60,
              "velocity": 78,
              "position": 4.489583333333333,
              "duration": 0.22916666666666666
            },
            {
              "pitch": 72,
              "velocity": 80,
              "position": 4.5,
              "duration": 0.21875
            },
            {
              "pitch": 76,
              "velocity": 88,
              "position": 4.760416666666667,
              "duration": 0.3854166666666667
            },
            {
              "pitch": 64,
              "velocity": 104,
              "position": 4.760416666666667,
              "duration": 0.3854166666666667
            },
            {
              "pitch": 52,
              "velocity": 104,
              "position": 4.760416666666667,
              "duration": 0.4375
            },
            {
              "pitch": 58,
              "velocity": 94,
              "position": 5.260416666666667,
              "duration": 0.40625
            },
            {
              "pitch": 60,
              "velocity": 110,
              "position": 5.25,
              "duration": 0.4375
            },
            {
              "pitch": 72,
              "velocity": 92,
              "position": 5.260416666666667,
              "duration": 0.4375
            },
            {
              "pitch": 70,
              "velocity": 70,
              "position": 5.260416666666667,
              "duration": 0.46875
            },
            {
              "pitch": 76,
              "velocity": 94,
              "position": 5.75,
              "duration": 0.3645833333333333
            },
            {
              "pitch": 52,
              "velocity": 88,
              "position": 5.75,
              "duration": 0.3958333333333333
            },
            {
              "pitch": 64,
              "velocity": 104,
              "position": 5.75,
              "duration": 0.4166666666666667
            },
            {
              "pitch": 60,
              "velocity": 80,
              "position": 6.25,
              "duration": 0.4270833333333333
            },
            {
              "pitch": 58,
              "velocity": 80,
              "position": 6.25,
              "duration": 0.4270833333333333
            },
            {
              "pitch": 70,
              "velocity": 94,
              "position": 6.25,
              "duration": 0.4479166666666667
            },
            {
              "pitch": 72,
              "velocity": 90,
              "position": 6.25,
              "duration": 0.4791666666666667
            },
            {
              "pitch": 76,
              "velocity": 110,
              "position": 6.75,
              "duration": 0.375
            },
            {
              "pitch": 52,
              "velocity": 84,
              "position": 6.75,
              "duration": 0.3854166666666667
            },
            {
              "pitch": 64,
              "velocity": 90,
              "position": 6.75,
              "duration": 0.4270833333333333
            },
            {
              "pitch": 60,
              "velocity": 92,
              "position": 7.25,
              "duration": 0.1875
            },
            {
              "pitch": 72,
              "velocity": 90,
              "position": 7.25,
              "duration": 0.19791666666666666
            },
            {
              "pitch": 74,
              "velocity": 80,
              "position": 7.5,
              "duration": 0.1875
            },
            {
              "pitch": 62,
              "velocity": 90,
              "position": 7.489583333333333,
              "duration": 0.20833333333333334
            },
            {
              "pitch": 64,
              "velocity": 104,
              "position": 7.75,
              "duration": 0.16666666666666666
            },
            {
              "pitch": 76,
              "velocity": 90,
              "position": 7.739583333333333,
              "duration": 0.1875
            },
            {
              "pitch": 52,
              "velocity": 88,
              "position": 7.75,
              "duration": 0.1875
            },
            {
              "pitch": 76,
              "velocity": 104,
              "position": 8,
              "duration": 0.3333333333333333
            },
            {
              "pitch": 64,
              "velocity": 110,
              "position": 8,
              "duration": 0.3541666666666667
            },
            {
              "pitch": 52,
              "velocity": 92,
              "position": 8,
              "duration": 0.3541666666666667
            },
            {
              "pitch": 70,
              "velocity": 80,
              "position": 8.5,
              "duration": 0.5729166666666666
            },
            {
              "pitch": 58,
              "velocity": 94,
              "position": 8.5,
              "duration": 0.6145833333333334
            },
            {
              "pitch": 72,
              "velocity": 94,
              "position": 8.5,
              "duration": 0.6145833333333334
            },
            {
              "pitch": 60,
              "velocity": 84,
              "position": 8.489583333333334,
              "duration": 0.6354166666666666
            },
            {
              "pitch": 52,
              "velocity": 88,
              "position": 9.260416666666666,
              "duration": 0.3541666666666667
            },
            {
              "pitch": 76,
              "velocity": 88,
              "position": 9.260416666666666,
              "duration": 0.3958333333333333
            },
            {
              "pitch": 64,
              "velocity": 94,
              "position": 9.260416666666666,
              "duration": 0.3958333333333333
            },
            {
              "pitch": 76,
              "velocity": 110,
              "position": 9.760416666666666,
              "duration": 0.3333333333333333
            },
            {
              "pitch": 64,
              "velocity": 88,
              "position": 9.760416666666666,
              "duration": 0.3958333333333333
            },
            {
              "pitch": 52,
              "velocity": 110,
              "position": 9.760416666666666,
              "duration": 0.4270833333333333
            },
            {
              "pitch": 58,
              "velocity": 90,
              "position": 10.260416666666666,
              "duration": 0.3854166666666667
            },
            {
              "pitch": 60,
              "velocity": 80,
              "position": 10.260416666666666,
              "duration": 0.4479166666666667
            },
            {
              "pitch": 70,
              "velocity": 80,
              "position": 10.260416666666666,
              "duration": 0.4583333333333333
            },
            {
              "pitch": 72,
              "velocity": 104,
              "position": 10.260416666666666,
              "duration": 0.4895833333333333
            },
            {
              "pitch": 76,
              "velocity": 88,
              "position": 10.760416666666666,
              "duration": 0.3541666666666667
            },
            {
              "pitch": 64,
              "velocity": 90,
              "position": 10.760416666666666,
              "duration": 0.3958333333333333
            },
            {
              "pitch": 52,
              "velocity": 88,
              "position": 10.75,
              "duration": 0.4270833333333333
            },
            {
              "pitch": 58,
              "velocity": 92,
              "position": 11.260416666666666,
              "duration": 0.375
            },
            {
              "pitch": 60,
              "velocity": 80,
              "position": 11.260416666666666,
              "duration": 0.4270833333333333
            },
            {
              "pitch": 70,
              "velocity": 80,
              "position": 11.260416666666666,
              "duration": 0.4270833333333333
            },
            {
              "pitch": 72,
              "velocity": 92,
              "position": 11.260416666666666,
              "duration": 0.4375
            },
            {
              "pitch": 52,
              "velocity": 88,
              "position": 11.75,
              "duration": 0.17708333333333334
            },
            {
              "pitch": 64,
              "velocity": 88,
              "position": 11.75,
              "duration": 0.19791666666666666
            },
            {
              "pitch": 76,
              "velocity": 72,
              "position": 11.75,
              "duration": 0.19791666666666666
            },
            {
              "pitch": 76,
              "velocity": 94,
              "position": 12,
              "duration": 0.3541666666666667
            },
            {
              "pitch": 64,
              "velocity": 124,
              "position": 12,
              "duration": 0.40625
            },
            {
              "pitch": 52,
              "velocity": 104,
              "position": 12,
              "duration": 0.4166666666666667
            },
            {
              "pitch": 70,
              "velocity": 80,
              "position": 12.5,
              "duration": 0.19791666666666666
            },
            {
              "pitch": 58,
              "velocity": 80,
              "position": 12.5,
              "duration": 0.19791666666666666
            },
            {
              "pitch": 60,
              "velocity": 78,
              "position": 12.489583333333334,
              "duration": 0.22916666666666666
            },
            {
              "pitch": 72,
              "velocity": 80,
              "position": 12.5,
              "duration": 0.21875
            },
            {
              "pitch": 76,
              "velocity": 88,
              "position": 12.760416666666666,
              "duration": 0.3854166666666667
            },
            {
              "pitch": 64,
              "velocity": 104,
              "position": 12.760416666666666,
              "duration": 0.3854166666666667
            },
            {
              "pitch": 52,
              "velocity": 104,
              "position": 12.760416666666666,
              "duration": 0.4375
            },
            {
              "pitch": 58,
              "velocity": 94,
              "position": 13.260416666666666,
              "duration": 0.40625
            },
            {
              "pitch": 60,
              "velocity": 110,
              "position": 13.25,
              "duration": 0.4375
            },
            {
              "pitch": 72,
              "velocity": 92,
              "position": 13.260416666666666,
              "duration": 0.4375
            },
            {
              "pitch": 70,
              "velocity": 70,
              "position": 13.260416666666666,
              "duration": 0.46875
            },
            {
              "pitch": 76,
              "velocity": 94,
              "position": 13.75,
              "duration": 0.3645833333333333
            },
            {
              "pitch": 52,
              "velocity": 88,
              "position": 13.75,
              "duration": 0.3958333333333333
            },
            {
              "pitch": 64,
              "velocity": 104,
              "position": 13.75,
              "duration": 0.4166666666666667
            },
            {
              "pitch": 60,
              "velocity": 80,
              "position": 14.25,
              "duration": 0.4270833333333333
            },
            {
              "pitch": 58,
              "velocity": 80,
              "position": 14.25,
              "duration": 0.4270833333333333
            },
            {
              "pitch": 70,
              "velocity": 94,
              "position": 14.25,
              "duration": 0.4479166666666667
            },
            {
              "pitch": 72,
              "velocity": 90,
              "position": 14.25,
              "duration": 0.4791666666666667
            },
            {
              "pitch": 76,
              "velocity": 110,
              "position": 14.75,
              "duration": 0.375
            },
            {
              "pitch": 52,
              "velocity": 84,
              "position": 14.75,
              "duration": 0.3854166666666667
            },
            {
              "pitch": 64,
              "velocity": 90,
              "position": 14.75,
              "duration": 0.4270833333333333
            },
            {
              "pitch": 60,
              "velocity": 92,
              "position": 15.25,
              "duration": 0.1875
            },
            {
              "pitch": 72,
              "velocity": 90,
              "position": 15.25,
              "duration": 0.19791666666666666
            },
            {
              "pitch": 74,
              "velocity": 80,
              "position": 15.5,
              "duration": 0.1875
            },
            {
              "pitch": 62,
              "velocity": 90,
              "position": 15.489583333333334,
              "duration": 0.20833333333333334
            },
            {
              "pitch": 64,
              "velocity": 104,
              "position": 15.75,
              "duration": 0.16666666666666666
            },
            {
              "pitch": 76,
              "velocity": 90,
              "position": 15.739583333333334,
              "duration": 0.1875
            },
            {
              "pitch": 52,
              "velocity": 88,
              "position": 15.75,
              "duration": 0.1875
            },
            {
              "pitch": 76,
              "velocity": 104,
              "position": 16,
              "duration": 0.3333333333333333
            },
            {
              "pitch": 64,
              "velocity": 110,
              "position": 16,
              "duration": 0.3541666666666667
            },
            {
              "pitch": 52,
              "velocity": 92,
              "position": 16,
              "duration": 0.3541666666666667
            },
            {
              "pitch": 70,
              "velocity": 80,
              "position": 16.5,
              "duration": 0.5729166666666666
            },
            {
              "pitch": 58,
              "velocity": 94,
              "position": 16.5,
              "duration": 0.6145833333333334
            },
            {
              "pitch": 72,
              "velocity": 94,
              "position": 16.5,
              "duration": 0.6145833333333334
            },
            {
              "pitch": 60,
              "velocity": 84,
              "position": 16.489583333333332,
              "duration": 0.6354166666666666
            },
            {
              "pitch": 52,
              "velocity": 88,
              "position": 17.260416666666668,
              "duration": 0.3541666666666667
            },
            {
              "pitch": 76,
              "velocity": 88,
              "position": 17.260416666666668,
              "duration": 0.3958333333333333
            },
            {
              "pitch": 64,
              "velocity": 94,
              "position": 17.260416666666668,
              "duration": 0.3958333333333333
            },
            {
              "pitch": 76,
              "velocity": 110,
              "position": 17.760416666666668,
              "duration": 0.3333333333333333
            },
            {
              "pitch": 64,
              "velocity": 88,
              "position": 17.760416666666668,
              "duration": 0.3958333333333333
            },
            {
              "pitch": 52,
              "velocity": 110,
              "position": 17.760416666666668,
              "duration": 0.4270833333333333
            },
            {
              "pitch": 58,
              "velocity": 90,
              "position": 18.260416666666668,
              "duration": 0.3854166666666667
            },
            {
              "pitch": 60,
              "velocity": 80,
              "position": 18.260416666666668,
              "duration": 0.4479166666666667
            },
            {
              "pitch": 70,
              "velocity": 80,
              "position": 18.260416666666668,
              "duration": 0.4583333333333333
            },
            {
              "pitch": 72,
              "velocity": 104,
              "position": 18.260416666666668,
              "duration": 0.4895833333333333
            },
            {
              "pitch": 76,
              "velocity": 88,
              "position": 18.760416666666668,
              "duration": 0.3541666666666667
            },
            {
              "pitch": 64,
              "velocity": 90,
              "position": 18.760416666666668,
              "duration": 0.3958333333333333
            },
            {
              "pitch": 52,
              "velocity": 88,
              "position": 18.75,
              "duration": 0.4270833333333333
            },
            {
              "pitch": 58,
              "velocity": 92,
              "position": 19.260416666666668,
              "duration": 0.375
            },
            {
              "pitch": 60,
              "velocity": 80,
              "position": 19.260416666666668,
              "duration": 0.4270833333333333
            },
            {
              "pitch": 70,
              "velocity": 80,
              "position": 19.260416666666668,
              "duration": 0.4270833333333333
            },
            {
              "pitch": 72,
              "velocity": 92,
              "position": 19.260416666666668,
              "duration": 0.4375
            },
            {
              "pitch": 52,
              "velocity": 88,
              "position": 19.75,
              "duration": 0.17708333333333334
            },
            {
              "pitch": 64,
              "velocity": 88,
              "position": 19.75,
              "duration": 0.19791666666666666
            },
            {
              "pitch": 76,
              "velocity": 72,
              "position": 19.75,
              "duration": 0.19791666666666666
            },
            {
              "pitch": 76,
              "velocity": 94,
              "position": 20,
              "duration": 0.3541666666666667
            },
            {
              "pitch": 64,
              "velocity": 124,
              "position": 20,
              "duration": 0.40625
            },
            {
              "pitch": 52,
              "velocity": 104,
              "position": 20,
              "duration": 0.4166666666666667
            },
            {
              "pitch": 70,
              "velocity": 80,
              "position": 20.5,
              "duration": 0.19791666666666666
            },
            {
              "pitch": 58,
              "velocity": 80,
              "position": 20.5,
              "duration": 0.19791666666666666
            },
            {
              "pitch": 60,
              "velocity": 78,
              "position": 20.489583333333332,
              "duration": 0.22916666666666666
            },
            {
              "pitch": 72,
              "velocity": 80,
              "position": 20.5,
              "duration": 0.21875
            },
            {
              "pitch": 76,
              "velocity": 88,
              "position": 20.760416666666668,
              "duration": 0.3854166666666667
            },
            {
              "pitch": 64,
              "velocity": 104,
              "position": 20.760416666666668,
              "duration": 0.3854166666666667
            },
            {
              "pitch": 52,
              "velocity": 104,
              "position": 20.760416666666668,
              "duration": 0.4375
            },
            {
              "pitch": 58,
              "velocity": 94,
              "position": 21.260416666666668,
              "duration": 0.40625
            },
            {
              "pitch": 60,
              "velocity": 110,
              "position": 21.25,
              "duration": 0.4375
            },
            {
              "pitch": 72,
              "velocity": 92,
              "position": 21.260416666666668,
              "duration": 0.4375
            },
            {
              "pitch": 70,
              "velocity": 70,
              "position": 21.260416666666668,
              "duration": 0.46875
            },
            {
              "pitch": 76,
              "velocity": 94,
              "position": 21.75,
              "duration": 0.3645833333333333
            },
            {
              "pitch": 52,
              "velocity": 88,
              "position": 21.75,
              "duration": 0.3958333333333333
            },
            {
              "pitch": 64,
              "velocity": 104,
              "position": 21.75,
              "duration": 0.4166666666666667
            },
            {
              "pitch": 60,
              "velocity": 80,
              "position": 22.25,
              "duration": 0.4270833333333333
            },
            {
              "pitch": 58,
              "velocity": 80,
              "position": 22.25,
              "duration": 0.4270833333333333
            },
            {
              "pitch": 70,
              "velocity": 94,
              "position": 22.25,
              "duration": 0.4479166666666667
            },
            {
              "pitch": 72,
              "velocity": 90,
              "position": 22.25,
              "duration": 0.4791666666666667
            },
            {
              "pitch": 76,
              "velocity": 110,
              "position": 22.75,
              "duration": 0.375
            },
            {
              "pitch": 52,
              "velocity": 84,
              "position": 22.75,
              "duration": 0.3854166666666667
            },
            {
              "pitch": 64,
              "velocity": 90,
              "position": 22.75,
              "duration": 0.4270833333333333
            },
            {
              "pitch": 60,
              "velocity": 92,
              "position": 23.25,
              "duration": 0.1875
            },
            {
              "pitch": 72,
              "velocity": 90,
              "position": 23.25,
              "duration": 0.19791666666666666
            },
            {
              "pitch": 74,
              "velocity": 80,
              "position": 23.5,
              "duration": 0.1875
            },
            {
              "pitch": 62,
              "velocity": 90,
              "position": 23.489583333333332,
              "duration": 0.20833333333333334
            },
            {
              "pitch": 64,
              "velocity": 104,
              "position": 23.75,
              "duration": 0.16666666666666666
            },
            {
              "pitch": 76,
              "velocity": 90,
              "position": 23.739583333333332,
              "duration": 0.1875
            },
            {
              "pitch": 52,
              "velocity": 88,
              "position": 23.75,
              "duration": 0.1875
            },
            {
              "pitch": 76,
              "velocity": 104,
              "position": 24,
              "duration": 0.3333333333333333
            },
            {
              "pitch": 64,
              "velocity": 110,
              "position": 24,
              "duration": 0.3541666666666667
            },
            {
              "pitch": 52,
              "velocity": 92,
              "position": 24,
              "duration": 0.3541666666666667
            },
            {
              "pitch": 70,
              "velocity": 80,
              "position": 24.5,
              "duration": 0.5729166666666666
            },
            {
              "pitch": 58,
              "velocity": 94,
              "position": 24.5,
              "duration": 0.6145833333333334
            },
            {
              "pitch": 72,
              "velocity": 94,
              "position": 24.5,
              "duration": 0.6145833333333334
            },
            {
              "pitch": 60,
              "velocity": 84,
              "position": 24.489583333333332,
              "duration": 0.6354166666666666
            },
            {
              "pitch": 52,
              "velocity": 88,
              "position": 25.260416666666668,
              "duration": 0.3541666666666667
            },
            {
              "pitch": 76,
              "velocity": 88,
              "position": 25.260416666666668,
              "duration": 0.3958333333333333
            },
            {
              "pitch": 64,
              "velocity": 94,
              "position": 25.260416666666668,
              "duration": 0.3958333333333333
            },
            {
              "pitch": 76,
              "velocity": 110,
              "position": 25.760416666666668,
              "duration": 0.3333333333333333
            },
            {
              "pitch": 64,
              "velocity": 88,
              "position": 25.760416666666668,
              "duration": 0.3958333333333333
            },
            {
              "pitch": 52,
              "velocity": 110,
              "position": 25.760416666666668,
              "duration": 0.4270833333333333
            },
            {
              "pitch": 58,
              "velocity": 90,
              "position": 26.260416666666668,
              "duration": 0.3854166666666667
            },
            {
              "pitch": 60,
              "velocity": 80,
              "position": 26.260416666666668,
              "duration": 0.4479166666666667
            },
            {
              "pitch": 70,
              "velocity": 80,
              "position": 26.260416666666668,
              "duration": 0.4583333333333333
            },
            {
              "pitch": 72,
              "velocity": 104,
              "position": 26.260416666666668,
              "duration": 0.4895833333333333
            },
            {
              "pitch": 76,
              "velocity": 88,
              "position": 26.760416666666668,
              "duration": 0.3541666666666667
            },
            {
              "pitch": 64,
              "velocity": 90,
              "position": 26.760416666666668,
              "duration": 0.3958333333333333
            },
            {
              "pitch": 52,
              "velocity": 88,
              "position": 26.75,
              "duration": 0.4270833333333333
            },
            {
              "pitch": 58,
              "velocity": 92,
              "position": 27.260416666666668,
              "duration": 0.375
            },
            {
              "pitch": 60,
              "velocity": 80,
              "position": 27.260416666666668,
              "duration": 0.4270833333333333
            },
            {
              "pitch": 70,
              "velocity": 80,
              "position": 27.260416666666668,
              "duration": 0.4270833333333333
            },
            {
              "pitch": 72,
              "velocity": 92,
              "position": 27.260416666666668,
              "duration": 0.4375
            },
            {
              "pitch": 52,
              "velocity": 88,
              "position": 27.75,
              "duration": 0.17708333333333334
            },
            {
              "pitch": 64,
              "velocity": 88,
              "position": 27.75,
              "duration": 0.19791666666666666
            },
            {
              "pitch": 76,
              "velocity": 72,
              "position": 27.75,
              "duration": 0.19791666666666666
            },
            {
              "pitch": 76,
              "velocity": 94,
              "position": 28,
              "duration": 0.3541666666666667
            },
            {
              "pitch": 64,
              "velocity": 124,
              "position": 28,
              "duration": 0.40625
            },
            {
              "pitch": 52,
              "velocity": 104,
              "position": 28,
              "duration": 0.4166666666666667
            },
            {
              "pitch": 70,
              "velocity": 80,
              "position": 28.5,
              "duration": 0.19791666666666666
            },
            {
              "pitch": 58,
              "velocity": 80,
              "position": 28.5,
              "duration": 0.19791666666666666
            },
            {
              "pitch": 60,
              "velocity": 78,
              "position": 28.489583333333332,
              "duration": 0.22916666666666666
            },
            {
              "pitch": 72,
              "velocity": 80,
              "position": 28.5,
              "duration": 0.21875
            },
            {
              "pitch": 76,
              "velocity": 88,
              "position": 28.760416666666668,
              "duration": 0.3854166666666667
            },
            {
              "pitch": 64,
              "velocity": 104,
              "position": 28.760416666666668,
              "duration": 0.3854166666666667
            },
            {
              "pitch": 52,
              "velocity": 104,
              "position": 28.760416666666668,
              "duration": 0.4375
            },
            {
              "pitch": 58,
              "velocity": 94,
              "position": 29.260416666666668,
              "duration": 0.40625
            },
            {
              "pitch": 60,
              "velocity": 110,
              "position": 29.25,
              "duration": 0.4375
            },
            {
              "pitch": 72,
              "velocity": 92,
              "position": 29.260416666666668,
              "duration": 0.4375
            },
            {
              "pitch": 70,
              "velocity": 70,
              "position": 29.260416666666668,
              "duration": 0.46875
            },
            {
              "pitch": 76,
              "velocity": 94,
              "position": 29.75,
              "duration": 0.3645833333333333
            },
            {
              "pitch": 52,
              "velocity": 88,
              "position": 29.75,
              "duration": 0.3958333333333333
            },
            {
              "pitch": 64,
              "velocity": 104,
              "position": 29.75,
              "duration": 0.4166666666666667
            },
            {
              "pitch": 60,
              "velocity": 80,
              "position": 30.25,
              "duration": 0.4270833333333333
            },
            {
              "pitch": 58,
              "velocity": 80,
              "position": 30.25,
              "duration": 0.4270833333333333
            },
            {
              "pitch": 70,
              "velocity": 94,
              "position": 30.25,
              "duration": 0.4479166666666667
            },
            {
              "pitch": 72,
              "velocity": 90,
              "position": 30.25,
              "duration": 0.4791666666666667
            },
            {
              "pitch": 76,
              "velocity": 110,
              "position": 30.75,
              "duration": 0.375
            },
            {
              "pitch": 52,
              "velocity": 84,
              "position": 30.75,
              "duration": 0.3854166666666667
            },
            {
              "pitch": 64,
              "velocity": 90,
              "position": 30.75,
              "duration": 0.4270833333333333
            },
            {
              "pitch": 60,
              "velocity": 92,
              "position": 31.25,
              "duration": 0.1875
            },
            {
              "pitch": 72,
              "velocity": 90,
              "position": 31.25,
              "duration": 0.19791666666666666
            },
            {
              "pitch": 74,
              "velocity": 80,
              "position": 31.5,
              "duration": 0.1875
            },
            {
              "pitch": 62,
              "velocity": 90,
              "position": 31.489583333333332,
              "duration": 0.20833333333333334
            },
            {
              "pitch": 64,
              "velocity": 104,
              "position": 31.75,
              "duration": 0.16666666666666666
            },
            {
              "pitch": 76,
              "velocity": 90,
              "position": 31.739583333333332,
              "duration": 0.1875
            },
            {
              "pitch": 52,
              "velocity": 88,
              "position": 31.75,
              "duration": 0.1875
            }
          ]
        },
        "1": {
          "ctab": {
            "srcChannel": 1,
            "name": "BrasSect",
            "accType": "PHRASE1",
            "editable": false,
            "mutedNotes": [],
            "mutedChords": [
              "7aug",
              "Maj7aug",
              "7(#9)",
              "7(b13)",
              "7(b9)",
              "7(13)",
              "7#11",
              "7(9)",
              "7b5",
              "7sus4",
              "7th",
              "dim7",
              "dim",
              "minMaj7(9)",
              "minMaj7",
              "min7(11)",
              "min7(9)",
              "min(9)",
              "m7b5",
              "min7",
              "min6",
              "min"
            ],
            "autoStart": false,
            "sourceChordNote": 0,
            "sourceChordType": "Maj7",
            "ctb2Low": null,
            "ctb2Main": {
              "ntr": "ROOT_TRANSPOSITION",
              "ntt": "CHORD",
              "bassOn": false,
              "chordRootUpperLimit": 6,
              "noteLowLimit": 0,
              "noteHighLimit": 127,
              "rtr": "PITCH_SHIFT"
            },
            "ctb2High": null
          },
          "notes": [
            {
              "pitch": 81,
              "velocity": 122,
              "position": 0.75,
              "duration": 0.20833333333333334
            },
            {
              "pitch": 69,
              "velocity": 126,
              "position": 0.75,
              "duration": 0.21875
            },
            {
              "pitch": 79,
              "velocity": 106,
              "position": 1,
              "duration": 0.22916666666666666
            },
            {
              "pitch": 67,
              "velocity": 108,
              "position": 1,
              "duration": 0.23958333333333334
            },
            {
              "pitch": 81,
              "velocity": 92,
              "position": 1.2604166666666667,
              "duration": 0.15625
            },
            {
              "pitch": 69,
              "velocity": 90,
              "position": 1.2604166666666667,
              "duration": 0.15625
            },
            {
              "pitch": 79,
              "velocity": 126,
              "position": 1.75,
              "duration": 0.17708333333333334
            },
            {
              "pitch": 67,
              "velocity": 126,
              "position": 1.7604166666666667,
              "duration": 0.17708333333333334
            },
            {
              "pitch": 76,
              "velocity": 110,
              "position": 2.25,
              "duration": 0.15625
            },
            {
              "pitch": 64,
              "velocity": 110,
              "position": 2.2604166666666665,
              "duration": 0.14583333333333334
            },
            {
              "pitch": 71,
              "velocity": 98,
              "position": 2.7604166666666665,
              "duration": 2.40625
            },
            {
              "pitch": 59,
              "velocity": 98,
              "position": 2.7604166666666665,
              "duration": 2.4270833333333335
            },
            {
              "pitch": 79,
              "velocity": 124,
              "position": 5.760416666666667,
              "duration": 0.25
            },
            {
              "pitch": 76,
              "velocity": 124,
              "position": 5.760416666666667,
              "duration": 0.25
            },
            {
              "pitch": 74,
              "velocity": 124,
              "position": 5.760416666666667,
              "duration": 0.2604166666666667
            },
            {
              "pitch": 71,
              "velocity": 124,
              "position": 5.760416666666667,
              "duration": 0.2604166666666667
            },
            {
              "pitch": 81,
              "velocity": 118,
              "position": 16.489583333333332,
              "duration": 0.16666666666666666
            },
            {
              "pitch": 69,
              "velocity": 110,
              "position": 16.5,
              "duration": 0.15625
            },
            {
              "pitch": 83,
              "velocity": 126,
              "position": 17,
              "duration": 0.22916666666666666
            },
            {
              "pitch": 71,
              "velocity": 126,
              "position": 17,
              "duration": 0.22916666666666666
            },
            {
              "pitch": 71,
              "velocity": 80,
              "position": 17.260416666666668,
              "duration": 0.21875
            },
            {
              "pitch": 83,
              "velocity": 90,
              "position": 17.260416666666668,
              "duration": 0.21875
            },
            {
              "pitch": 81,
              "velocity": 92,
              "position": 17.5,
              "duration": 0.19791666666666666
            },
            {
              "pitch": 69,
              "velocity": 90,
              "position": 17.5,
              "duration": 0.21875
            },
            {
              "pitch": 71,
              "velocity": 110,
              "position": 17.75,
              "duration": 0.17708333333333334
            },
            {
              "pitch": 83,
              "velocity": 110,
              "position": 17.760416666666668,
              "duration": 0.16666666666666666
            },
            {
              "pitch": 67,
              "velocity": 98,
              "position": 18.260416666666668,
              "duration": 0.15625
            },
            {
              "pitch": 79,
              "velocity": 98,
              "position": 18.260416666666668,
              "duration": 0.16666666666666666
            },
            {
              "pitch": 81,
              "velocity": 124,
              "position": 18.75,
              "duration": 0.15625
            },
            {
              "pitch": 69,
              "velocity": 118,
              "position": 18.75,
              "duration": 0.17708333333333334
            },
            {
              "pitch": 64,
              "velocity": 90,
              "position": 19.28125,
              "duration": 0.19791666666666666
            },
            {
              "pitch": 76,
              "velocity": 92,
              "position": 19.28125,
              "duration": 0.19791666666666666
            },
            {
              "pitch": 71,
              "velocity": 70,
              "position": 19.510416666666668,
              "duration": 0.21875
            },
            {
              "pitch": 59,
              "velocity": 72,
              "position": 19.510416666666668,
              "duration": 0.22916666666666666
            },
            {
              "pitch": 76,
              "velocity": 76,
              "position": 19.75,
              "duration": 0.22916666666666666
            },
            {
              "pitch": 64,
              "velocity": 88,
              "position": 19.75,
              "duration": 0.23958333333333334
            },
            {
              "pitch": 67,
              "velocity": 102,
              "position": 20.010416666666668,
              "duration": 0.17708333333333334
            },
            {
              "pitch": 79,
              "velocity": 102,
              "position": 20.010416666666668,
              "duration": 0.1875
            },
            {
              "pitch": 81,
              "velocity": 122,
              "position": 20.5,
              "duration": 0.22916666666666666
            },
            {
              "pitch": 69,
              "velocity": 122,
              "position": 20.510416666666668,
              "duration": 0.21875
            },
            {
              "pitch": 79,
              "velocity": 102,
              "position": 28.510416666666668,
              "duration": 0.19791666666666666
            },
            {
              "pitch": 67,
              "velocity": 106,
              "position": 28.510416666666668,
              "duration": 0.20833333333333334
            },
            {
              "pitch": 81,
              "velocity": 120,
              "position": 29,
              "duration": 0.20833333333333334
            },
            {
              "pitch": 69,
              "velocity": 126,
              "position": 29.010416666666668,
              "duration": 0.20833333333333334
            },
            {
              "pitch": 79,
              "velocity": 114,
              "position": 29.270833333333332,
              "duration": 0.15625
            },
            {
              "pitch": 67,
              "velocity": 108,
              "position": 29.260416666666668,
              "duration": 0.17708333333333334
            },
            {
              "pitch": 81,
              "velocity": 110,
              "position": 29.760416666666668,
              "duration": 1.9166666666666667
            },
            {
              "pitch": 69,
              "velocity": 110,
              "position": 29.760416666666668,
              "duration": 1.9270833333333333
            }
          ]
        },
        "2": {
          "ctab": {
            "srcChannel": 2,
            "name": "BrasSect",
            "accType": "PHRASE1",
            "editable": false,
            "mutedNotes": [],
            "mutedChords": [
              "1+2+5",
              "sus4",
              "1+5",
              "1+8",
              "7aug",
              "Maj7aug",
              "7(#9)",
              "7(b13)",
              "7(b9)",
              "7(13)",
              "7#11",
              "7(9)",
              "7b5",
              "7sus4",
              "7th",
              "aug",
              "Maj6(9)",
              "Maj7(9)",
              "Maj(9)",
              "Maj7#11",
              "Maj7",
              "Maj6",
              "Maj"
            ],
            "autoStart": false,
            "sourceChordNote": 0,
            "sourceChordType": "minMaj7",
            "ctb2Low": null,
            "ctb2Main": {
              "ntr": "ROOT_TRANSPOSITION",
              "ntt": "CHORD",
              "bassOn": false,
              "chordRootUpperLimit": 6,
              "noteLowLimit": 0,
              "noteHighLimit": 127,
              "rtr": "PITCH_SHIFT"
            },
            "ctb2High": null
          },
          "notes": [
            {
              "pitch": 79,
              "velocity": 122,
              "position": 0.75,
              "duration": 0.20833333333333334
            },
            {
              "pitch": 67,
              "velocity": 126,
              "position": 0.75,
              "duration": 0.21875
            },
            {
              "pitch": 77,
              "velocity": 106,
              "position": 1,
              "duration": 0.22916666666666666
            },
            {
              "pitch": 65,
              "velocity": 108,
              "position": 1,
              "duration": 0.23958333333333334
            },
            {
              "pitch": 79,
              "velocity": 92,
              "position": 1.2604166666666667,
              "duration": 0.15625
            },
            {
              "pitch": 67,
              "velocity": 90,
              "position": 1.2604166666666667,
              "duration": 0.15625
            },
            {
              "pitch": 77,
              "velocity": 126,
              "position": 1.75,
              "duration": 0.17708333333333334
            },
            {
              "pitch": 65,
              "velocity": 126,
              "position": 1.7604166666666667,
              "duration": 0.17708333333333334
            },
            {
              "pitch": 74,
              "velocity": 110,
              "position": 2.25,
              "duration": 0.15625
            },
            {
              "pitch": 62,
              "velocity": 110,
              "position": 2.2604166666666665,
              "duration": 0.14583333333333334
            },
            {
              "pitch": 71,
              "velocity": 110,
              "position": 2.7604166666666665,
              "duration": 2.40625
            },
            {
              "pitch": 59,
              "velocity": 110,
              "position": 2.7604166666666665,
              "duration": 2.4270833333333335
            },
            {
              "pitch": 79,
              "velocity": 124,
              "position": 5.760416666666667,
              "duration": 0.25
            },
            {
              "pitch": 75,
              "velocity": 124,
              "position": 5.760416666666667,
              "duration": 0.25
            },
            {
              "pitch": 71,
              "velocity": 124,
              "position": 5.760416666666667,
              "duration": 0.2604166666666667
            },
            {
              "pitch": 79,
              "velocity": 118,
              "position": 16.489583333333332,
              "duration": 0.16666666666666666
            },
            {
              "pitch": 67,
              "velocity": 110,
              "position": 16.5,
              "duration": 0.15625
            },
            {
              "pitch": 83,
              "velocity": 126,
              "position": 17,
              "duration": 0.22916666666666666
            },
            {
              "pitch": 71,
              "velocity": 126,
              "position": 17,
              "duration": 0.22916666666666666
            },
            {
              "pitch": 79,
              "velocity": 90,
              "position": 17.260416666666668,
              "duration": 0.22916666666666666
            },
            {
              "pitch": 67,
              "velocity": 80,
              "position": 17.25,
              "duration": 0.25
            },
            {
              "pitch": 77,
              "velocity": 92,
              "position": 17.5,
              "duration": 0.19791666666666666
            },
            {
              "pitch": 65,
              "velocity": 90,
              "position": 17.489583333333332,
              "duration": 0.22916666666666666
            },
            {
              "pitch": 67,
              "velocity": 110,
              "position": 17.75,
              "duration": 0.17708333333333334
            },
            {
              "pitch": 79,
              "velocity": 110,
              "position": 17.760416666666668,
              "duration": 0.16666666666666666
            },
            {
              "pitch": 63,
              "velocity": 98,
              "position": 18.260416666666668,
              "duration": 0.15625
            },
            {
              "pitch": 75,
              "velocity": 98,
              "position": 18.260416666666668,
              "duration": 0.16666666666666666
            },
            {
              "pitch": 77,
              "velocity": 124,
              "position": 18.75,
              "duration": 0.15625
            },
            {
              "pitch": 65,
              "velocity": 118,
              "position": 18.75,
              "duration": 0.17708333333333334
            },
            {
              "pitch": 62,
              "velocity": 90,
              "position": 19.28125,
              "duration": 0.17708333333333334
            },
            {
              "pitch": 74,
              "velocity": 92,
              "position": 19.28125,
              "duration": 0.22916666666666666
            },
            {
              "pitch": 59,
              "velocity": 72,
              "position": 19.489583333333332,
              "duration": 0.25
            },
            {
              "pitch": 71,
              "velocity": 92,
              "position": 19.5,
              "duration": 0.25
            },
            {
              "pitch": 62,
              "velocity": 88,
              "position": 19.75,
              "duration": 0.1875
            },
            {
              "pitch": 74,
              "velocity": 76,
              "position": 19.75,
              "duration": 0.1875
            },
            {
              "pitch": 65,
              "velocity": 102,
              "position": 20.010416666666668,
              "duration": 0.17708333333333334
            },
            {
              "pitch": 77,
              "velocity": 102,
              "position": 20.010416666666668,
              "duration": 0.1875
            },
            {
              "pitch": 79,
              "velocity": 122,
              "position": 20.5,
              "duration": 0.22916666666666666
            },
            {
              "pitch": 67,
              "velocity": 122,
              "position": 20.510416666666668,
              "duration": 0.21875
            },
            {
              "pitch": 75,
              "velocity": 102,
              "position": 28.510416666666668,
              "duration": 0.19791666666666666
            },
            {
              "pitch": 63,
              "velocity": 106,
              "position": 28.510416666666668,
              "duration": 0.20833333333333334
            },
            {
              "pitch": 77,
              "velocity": 120,
              "position": 29,
              "duration": 0.20833333333333334
            },
            {
              "pitch": 65,
              "velocity": 126,
              "position": 29.010416666666668,
              "duration": 0.20833333333333334
            },
            {
              "pitch": 75,
              "velocity": 114,
              "position": 29.270833333333332,
              "duration": 0.15625
            },
            {
              "pitch": 63,
              "velocity": 108,
              "position": 29.260416666666668,
              "duration": 0.17708333333333334
            },
            {
              "pitch": 77,
              "velocity": 110,
              "position": 29.760416666666668,
              "duration": 1.9166666666666667
            },
            {
              "pitch": 65,
              "velocity": 110,
              "position": 29.760416666666668,
              "duration": 1.9270833333333333
            }
          ]
        },
        "3": {
          "ctab": {
            "srcChannel": 3,
            "name": "BrasSect",
            "accType": "PHRASE1",
            "editable": false,
            "mutedNotes": [],
            "mutedChords": [
              "1+2+5",
              "sus4",
              "1+5",
              "1+8",
              "dim7",
              "dim",
              "minMaj7(9)",
              "minMaj7",
              "min7(11)",
              "min7(9)",
              "min(9)",
              "m7b5",
              "min7",
              "min6",
              "min",
              "aug",
              "Maj6(9)",
              "Maj7(9)",
              "Maj(9)",
              "Maj7#11",
              "Maj7",
              "Maj6",
              "Maj"
            ],
            "autoStart": false,
            "sourceChordNote": 0,
            "sourceChordType": "7th",
            "ctb2Low": null,
            "ctb2Main": {
              "ntr": "ROOT_TRANSPOSITION",
              "ntt": "CHORD",
              "bassOn": false,
              "chordRootUpperLimit": 6,
              "noteLowLimit": 0,
              "noteHighLimit": 127,
              "rtr": "PITCH_SHIFT"
            },
            "ctb2High": null
          },
          "notes": [
            {
              "pitch": 74,
              "velocity": 122,
              "position": 0.75,
              "duration": 0.20833333333333334
            },
            {
              "pitch": 62,
              "velocity": 126,
              "position": 0.75,
              "duration": 0.21875
            },
            {
              "pitch": 72,
              "velocity": 106,
              "position": 1,
              "duration": 0.22916666666666666
            },
            {
              "pitch": 60,
              "velocity": 108,
              "position": 1,
              "duration": 0.23958333333333334
            },
            {
              "pitch": 74,
              "velocity": 92,
              "position": 1.2604166666666667,
              "duration": 0.15625
            },
            {
              "pitch": 62,
              "velocity": 90,
              "position": 1.2604166666666667,
              "duration": 0.15625
            },
            {
              "pitch": 72,
              "velocity": 126,
              "position": 1.75,
              "duration": 0.17708333333333334
            },
            {
              "pitch": 60,
              "velocity": 126,
              "position": 1.7604166666666667,
              "duration": 0.17708333333333334
            },
            {
              "pitch": 69,
              "velocity": 110,
              "position": 2.25,
              "duration": 0.15625
            },
            {
              "pitch": 57,
              "velocity": 110,
              "position": 2.2604166666666665,
              "duration": 0.14583333333333334
            },
            {
              "pitch": 70,
              "velocity": 110,
              "position": 2.7604166666666665,
              "duration": 2.40625
            },
            {
              "pitch": 58,
              "velocity": 110,
              "position": 2.7604166666666665,
              "duration": 2.4270833333333335
            },
            {
              "pitch": 72,
              "velocity": 124,
              "position": 5.760416666666667,
              "duration": 0.25
            },
            {
              "pitch": 70,
              "velocity": 124,
              "position": 5.760416666666667,
              "duration": 0.2604166666666667
            },
            {
              "pitch": 64,
              "velocity": 124,
              "position": 5.760416666666667,
              "duration": 0.2604166666666667
            },
            {
              "pitch": 74,
              "velocity": 118,
              "position": 16.489583333333332,
              "duration": 0.16666666666666666
            },
            {
              "pitch": 62,
              "velocity": 110,
              "position": 16.5,
              "duration": 0.15625
            },
            {
              "pitch": 82,
              "velocity": 126,
              "position": 17,
              "duration": 0.22916666666666666
            },
            {
              "pitch": 70,
              "velocity": 126,
              "position": 17,
              "duration": 0.22916666666666666
            },
            {
              "pitch": 76,
              "velocity": 90,
              "position": 17.260416666666668,
              "duration": 0.22916666666666666
            },
            {
              "pitch": 64,
              "velocity": 80,
              "position": 17.260416666666668,
              "duration": 0.25
            },
            {
              "pitch": 73,
              "velocity": 92,
              "position": 17.5,
              "duration": 0.19791666666666666
            },
            {
              "pitch": 61,
              "velocity": 90,
              "position": 17.489583333333332,
              "duration": 0.22916666666666666
            },
            {
              "pitch": 64,
              "velocity": 110,
              "position": 17.75,
              "duration": 0.17708333333333334
            },
            {
              "pitch": 76,
              "velocity": 110,
              "position": 17.760416666666668,
              "duration": 0.16666666666666666
            },
            {
              "pitch": 60,
              "velocity": 98,
              "position": 18.260416666666668,
              "duration": 0.15625
            },
            {
              "pitch": 72,
              "velocity": 98,
              "position": 18.260416666666668,
              "duration": 0.16666666666666666
            },
            {
              "pitch": 74,
              "velocity": 124,
              "position": 18.75,
              "duration": 0.15625
            },
            {
              "pitch": 62,
              "velocity": 118,
              "position": 18.75,
              "duration": 0.17708333333333334
            },
            {
              "pitch": 57,
              "velocity": 90,
              "position": 19.28125,
              "duration": 0.17708333333333334
            },
            {
              "pitch": 69,
              "velocity": 92,
              "position": 19.28125,
              "duration": 0.22916666666666666
            },
            {
              "pitch": 58,
              "velocity": 72,
              "position": 19.489583333333332,
              "duration": 0.25
            },
            {
              "pitch": 70,
              "velocity": 92,
              "position": 19.5,
              "duration": 0.25
            },
            {
              "pitch": 57,
              "velocity": 88,
              "position": 19.75,
              "duration": 0.1875
            },
            {
              "pitch": 69,
              "velocity": 76,
              "position": 19.75,
              "duration": 0.1875
            },
            {
              "pitch": 60,
              "velocity": 102,
              "position": 20.010416666666668,
              "duration": 0.17708333333333334
            },
            {
              "pitch": 72,
              "velocity": 102,
              "position": 20.010416666666668,
              "duration": 0.1875
            },
            {
              "pitch": 74,
              "velocity": 122,
              "position": 20.5,
              "duration": 0.22916666666666666
            },
            {
              "pitch": 62,
              "velocity": 122,
              "position": 20.510416666666668,
              "duration": 0.21875
            },
            {
              "pitch": 70,
              "velocity": 102,
              "position": 28.510416666666668,
              "duration": 0.19791666666666666
            },
            {
              "pitch": 58,
              "velocity": 106,
              "position": 28.510416666666668,
              "duration": 0.20833333333333334
            },
            {
              "pitch": 72,
              "velocity": 120,
              "position": 29,
              "duration": 0.20833333333333334
            },
            {
              "pitch": 60,
              "velocity": 126,
              "position": 29.010416666666668,
              "duration": 0.20833333333333334
            },
            {
              "pitch": 70,
              "velocity": 114,
              "position": 29.270833333333332,
              "duration": 0.15625
            },
            {
              "pitch": 58,
              "velocity": 108,
              "position": 29.260416666666668,
              "duration": 0.17708333333333334
            },
            {
              "pitch": 72,
              "velocity": 110,
              "position": 29.760416666666668,
              "duration": 1.9166666666666667
            },
            {
              "pitch": 60,
              "velocity": 110,
              "position": 29.760416666666668,
              "duration": 1.9270833333333333
            }
          ]
        },
        "4": {
          "ctab": {
            "srcChannel": 4,
            "name": "Alto Sax",
            "accType": "PHRASE2",
            "editable": false,
            "mutedNotes": [],
            "mutedChords": [
              "7aug",
              "Maj7aug",
              "7(#9)",
              "7(b13)",
              "7(b9)",
              "7(13)",
              "7#11",
              "7(9)",
              "7b5",
              "7sus4",
              "7th",
              "dim7",
              "dim",
              "minMaj7(9)",
              "minMaj7",
              "min7(11)",
              "min7(9)",
              "min(9)",
              "m7b5",
              "min7",
              "min6",
              "min"
            ],
            "autoStart": false,
            "sourceChordNote": 0,
            "sourceChordType": "Maj7",
            "ctb2Low": null,
            "ctb2Main": {
              "ntr": "ROOT_TRANSPOSITION",
              "ntt": "CHORD",
              "bassOn": false,
              "chordRootUpperLimit": 6,
              "noteLowLimit": 0,
              "noteHighLimit": 127,
              "rtr": "PITCH_SHIFT"
            },
            "ctb2High": null
          },
          "notes": [
            {
              "pitch": 67,
              "velocity": 118,
              "position": 0,
              "duration": 0.5833333333333334
            },
            {
              "pitch": 64,
              "velocity": 124,
              "position": 0,
              "duration": 0.5833333333333334
            },
            {
              "pitch": 59,
              "velocity": 116,
              "position": 0,
              "duration": 0.6041666666666666
            },
            {
              "pitch": 55,
              "velocity": 114,
              "position": 8,
              "duration": 0.16666666666666666
            },
            {
              "pitch": 59,
              "velocity": 124,
              "position": 8,
              "duration": 0.17708333333333334
            },
            {
              "pitch": 55,
              "velocity": 90,
              "position": 8.260416666666666,
              "duration": 0.16666666666666666
            },
            {
              "pitch": 59,
              "velocity": 92,
              "position": 8.260416666666666,
              "duration": 0.1875
            },
            {
              "pitch": 55,
              "velocity": 76,
              "position": 8.5,
              "duration": 0.16666666666666666
            },
            {
              "pitch": 59,
              "velocity": 74,
              "position": 8.510416666666666,
              "duration": 0.15625
            },
            {
              "pitch": 55,
              "velocity": 80,
              "position": 8.760416666666666,
              "duration": 0.17708333333333334
            },
            {
              "pitch": 59,
              "velocity": 92,
              "position": 8.770833333333334,
              "duration": 0.16666666666666666
            },
            {
              "pitch": 67,
              "velocity": 124,
              "position": 9,
              "duration": 0.17708333333333334
            },
            {
              "pitch": 59,
              "velocity": 116,
              "position": 9.010416666666666,
              "duration": 0.1875
            },
            {
              "pitch": 59,
              "velocity": 92,
              "position": 9.260416666666666,
              "duration": 0.17708333333333334
            },
            {
              "pitch": 67,
              "velocity": 110,
              "position": 9.25,
              "duration": 0.20833333333333334
            },
            {
              "pitch": 64,
              "velocity": 76,
              "position": 9.489583333333334,
              "duration": 0.20833333333333334
            },
            {
              "pitch": 55,
              "velocity": 80,
              "position": 9.5,
              "duration": 0.19791666666666666
            },
            {
              "pitch": 59,
              "velocity": 126,
              "position": 9.760416666666666,
              "duration": 0.15625
            },
            {
              "pitch": 67,
              "velocity": 124,
              "position": 9.75,
              "duration": 0.17708333333333334
            },
            {
              "pitch": 69,
              "velocity": 126,
              "position": 10.270833333333334,
              "duration": 0.16666666666666666
            },
            {
              "pitch": 59,
              "velocity": 120,
              "position": 10.270833333333334,
              "duration": 0.1875
            },
            {
              "pitch": 67,
              "velocity": 110,
              "position": 12.75,
              "duration": 0.17708333333333334
            },
            {
              "pitch": 59,
              "velocity": 92,
              "position": 12.760416666666666,
              "duration": 0.16666666666666666
            },
            {
              "pitch": 69,
              "velocity": 110,
              "position": 13.260416666666666,
              "duration": 0.16666666666666666
            },
            {
              "pitch": 59,
              "velocity": 110,
              "position": 13.270833333333334,
              "duration": 0.15625
            },
            {
              "pitch": 59,
              "velocity": 126,
              "position": 13.760416666666666,
              "duration": 0.5416666666666666
            },
            {
              "pitch": 55,
              "velocity": 126,
              "position": 13.760416666666666,
              "duration": 0.5520833333333334
            },
            {
              "pitch": 67,
              "velocity": 124,
              "position": 24.479166666666668,
              "duration": 0.15625
            },
            {
              "pitch": 55,
              "velocity": 110,
              "position": 24.489583333333332,
              "duration": 0.14583333333333334
            },
            {
              "pitch": 57,
              "velocity": 90,
              "position": 24.989583333333332,
              "duration": 0.6666666666666666
            },
            {
              "pitch": 69,
              "velocity": 110,
              "position": 24.989583333333332,
              "duration": 0.6770833333333334
            },
            {
              "pitch": 67,
              "velocity": 124,
              "position": 25.760416666666668,
              "duration": 0.15625
            },
            {
              "pitch": 55,
              "velocity": 104,
              "position": 25.760416666666668,
              "duration": 0.15625
            },
            {
              "pitch": 57,
              "velocity": 108,
              "position": 26.260416666666668,
              "duration": 0.4479166666666667
            },
            {
              "pitch": 69,
              "velocity": 96,
              "position": 26.260416666666668,
              "duration": 0.4583333333333333
            },
            {
              "pitch": 52,
              "velocity": 104,
              "position": 26.760416666666668,
              "duration": 0.21875
            },
            {
              "pitch": 64,
              "velocity": 110,
              "position": 26.760416666666668,
              "duration": 0.22916666666666666
            },
            {
              "pitch": 67,
              "velocity": 124,
              "position": 27,
              "duration": 0.16666666666666666
            },
            {
              "pitch": 55,
              "velocity": 110,
              "position": 27.010416666666668,
              "duration": 0.1875
            },
            {
              "pitch": 69,
              "velocity": 126,
              "position": 27.5,
              "duration": 0.19791666666666666
            },
            {
              "pitch": 57,
              "velocity": 126,
              "position": 27.5,
              "duration": 0.21875
            }
          ]
        },
        "5": {
          "ctab": {
            "srcChannel": 5,
            "name": "Alto Sax",
            "accType": "PHRASE2",
            "editable": false,
            "mutedNotes": [],
            "mutedChords": [
              "1+2+5",
              "sus4",
              "1+5",
              "1+8",
              "7aug",
              "Maj7aug",
              "7(#9)",
              "7(b13)",
              "7(b9)",
              "7(13)",
              "7#11",
              "7(9)",
              "7b5",
              "7sus4",
              "7th",
              "aug",
              "Maj6(9)",
              "Maj7(9)",
              "Maj(9)",
              "Maj7#11",
              "Maj7",
              "Maj6",
              "Maj"
            ],
            "autoStart": false,
            "sourceChordNote": 0,
            "sourceChordType": "minMaj7",
            "ctb2Low": null,
            "ctb2Main": {
              "ntr": "ROOT_TRANSPOSITION",
              "ntt": "CHORD",
              "bassOn": false,
              "chordRootUpperLimit": 6,
              "noteLowLimit": 0,
              "noteHighLimit": 127,
              "rtr": "PITCH_SHIFT"
            },
            "ctb2High": null
          },
          "notes": [
            {
              "pitch": 67,
              "velocity": 118,
              "position": 0,
              "duration": 0.5833333333333334
            },
            {
              "pitch": 63,
              "velocity": 124,
              "position": 0,
              "duration": 0.5833333333333334
            },
            {
              "pitch": 59,
              "velocity": 116,
              "position": 0,
              "duration": 0.6041666666666666
            },
            {
              "pitch": 55,
              "velocity": 114,
              "position": 8,
              "duration": 0.16666666666666666
            },
            {
              "pitch": 59,
              "velocity": 124,
              "position": 8,
              "duration": 0.17708333333333334
            },
            {
              "pitch": 55,
              "velocity": 90,
              "position": 8.260416666666666,
              "duration": 0.16666666666666666
            },
            {
              "pitch": 59,
              "velocity": 92,
              "position": 8.260416666666666,
              "duration": 0.1875
            },
            {
              "pitch": 55,
              "velocity": 76,
              "position": 8.5,
              "duration": 0.16666666666666666
            },
            {
              "pitch": 59,
              "velocity": 74,
              "position": 8.510416666666666,
              "duration": 0.15625
            },
            {
              "pitch": 55,
              "velocity": 80,
              "position": 8.760416666666666,
              "duration": 0.17708333333333334
            },
            {
              "pitch": 59,
              "velocity": 92,
              "position": 8.770833333333334,
              "duration": 0.16666666666666666
            },
            {
              "pitch": 65,
              "velocity": 124,
              "position": 9,
              "duration": 0.17708333333333334
            },
            {
              "pitch": 59,
              "velocity": 116,
              "position": 9.010416666666666,
              "duration": 0.1875
            },
            {
              "pitch": 59,
              "velocity": 92,
              "position": 9.260416666666666,
              "duration": 0.17708333333333334
            },
            {
              "pitch": 65,
              "velocity": 110,
              "position": 9.25,
              "duration": 0.20833333333333334
            },
            {
              "pitch": 63,
              "velocity": 76,
              "position": 9.489583333333334,
              "duration": 0.20833333333333334
            },
            {
              "pitch": 59,
              "velocity": 80,
              "position": 9.5,
              "duration": 0.19791666666666666
            },
            {
              "pitch": 59,
              "velocity": 126,
              "position": 9.760416666666666,
              "duration": 0.15625
            },
            {
              "pitch": 65,
              "velocity": 124,
              "position": 9.75,
              "duration": 0.17708333333333334
            },
            {
              "pitch": 67,
              "velocity": 126,
              "position": 10.270833333333334,
              "duration": 0.16666666666666666
            },
            {
              "pitch": 63,
              "velocity": 120,
              "position": 10.270833333333334,
              "duration": 0.1875
            },
            {
              "pitch": 65,
              "velocity": 110,
              "position": 12.75,
              "duration": 0.17708333333333334
            },
            {
              "pitch": 59,
              "velocity": 92,
              "position": 12.760416666666666,
              "duration": 0.16666666666666666
            },
            {
              "pitch": 67,
              "velocity": 110,
              "position": 13.260416666666666,
              "duration": 0.16666666666666666
            },
            {
              "pitch": 63,
              "velocity": 110,
              "position": 13.270833333333334,
              "duration": 0.15625
            },
            {
              "pitch": 59,
              "velocity": 126,
              "position": 13.760416666666666,
              "duration": 0.5416666666666666
            },
            {
              "pitch": 55,
              "velocity": 126,
              "position": 13.760416666666666,
              "duration": 0.5520833333333334
            },
            {
              "pitch": 63,
              "velocity": 124,
              "position": 24.479166666666668,
              "duration": 0.15625
            },
            {
              "pitch": 51,
              "velocity": 110,
              "position": 24.489583333333332,
              "duration": 0.14583333333333334
            },
            {
              "pitch": 53,
              "velocity": 90,
              "position": 24.989583333333332,
              "duration": 0.6666666666666666
            },
            {
              "pitch": 65,
              "velocity": 110,
              "position": 24.989583333333332,
              "duration": 0.6770833333333334
            },
            {
              "pitch": 63,
              "velocity": 124,
              "position": 25.760416666666668,
              "duration": 0.15625
            },
            {
              "pitch": 51,
              "velocity": 104,
              "position": 25.760416666666668,
              "duration": 0.15625
            },
            {
              "pitch": 53,
              "velocity": 108,
              "position": 26.260416666666668,
              "duration": 0.4479166666666667
            },
            {
              "pitch": 65,
              "velocity": 96,
              "position": 26.260416666666668,
              "duration": 0.4583333333333333
            },
            {
              "pitch": 48,
              "velocity": 104,
              "position": 26.760416666666668,
              "duration": 0.21875
            },
            {
              "pitch": 59,
              "velocity": 110,
              "position": 26.760416666666668,
              "duration": 0.22916666666666666
            },
            {
              "pitch": 63,
              "velocity": 124,
              "position": 27,
              "duration": 0.16666666666666666
            },
            {
              "pitch": 51,
              "velocity": 110,
              "position": 27.010416666666668,
              "duration": 0.1875
            },
            {
              "pitch": 65,
              "velocity": 126,
              "position": 27.5,
              "duration": 0.19791666666666666
            },
            {
              "pitch": 53,
              "velocity": 126,
              "position": 27.5,
              "duration": 0.21875
            }
          ]
        },
        "6": {
          "ctab": {
            "srcChannel": 6,
            "name": "Alto Sax",
            "accType": "PHRASE2",
            "editable": false,
            "mutedNotes": [],
            "mutedChords": [
              "1+2+5",
              "sus4",
              "1+5",
              "1+8",
              "dim7",
              "dim",
              "minMaj7(9)",
              "minMaj7",
              "min7(11)",
              "min7(9)",
              "min(9)",
              "m7b5",
              "min7",
              "min6",
              "min",
              "aug",
              "Maj6(9)",
              "Maj7(9)",
              "Maj(9)",
              "Maj7#11",
              "Maj7",
              "Maj6",
              "Maj"
            ],
            "autoStart": false,
            "sourceChordNote": 0,
            "sourceChordType": "7th",
            "ctb2Low": null,
            "ctb2Main": {
              "ntr": "ROOT_TRANSPOSITION",
              "ntt": "CHORD",
              "bassOn": false,
              "chordRootUpperLimit": 6,
              "noteLowLimit": 0,
              "noteHighLimit": 127,
              "rtr": "PITCH_SHIFT"
            },
            "ctb2High": null
          },
          "notes": [
            {
              "pitch": 58,
              "velocity": 116,
              "position": 0,
              "duration": 0.5833333333333334
            },
            {
              "pitch": 62,
              "velocity": 118,
              "position": 0,
              "duration": 0.5833333333333334
            },
            {
              "pitch": 52,
              "velocity": 116,
              "position": 0,
              "duration": 0.6041666666666666
            },
            {
              "pitch": 50,
              "velocity": 114,
              "position": 8,
              "duration": 0.16666666666666666
            },
            {
              "pitch": 58,
              "velocity": 124,
              "position": 8,
              "duration": 0.17708333333333334
            },
            {
              "pitch": 50,
              "velocity": 90,
              "position": 8.260416666666666,
              "duration": 0.16666666666666666
            },
            {
              "pitch": 58,
              "velocity": 92,
              "position": 8.260416666666666,
              "duration": 0.1875
            },
            {
              "pitch": 50,
              "velocity": 76,
              "position": 8.5,
              "duration": 0.16666666666666666
            },
            {
              "pitch": 58,
              "velocity": 74,
              "position": 8.510416666666666,
              "duration": 0.15625
            },
            {
              "pitch": 50,
              "velocity": 80,
              "position": 8.760416666666666,
              "duration": 0.17708333333333334
            },
            {
              "pitch": 58,
              "velocity": 92,
              "position": 8.770833333333334,
              "duration": 0.16666666666666666
            },
            {
              "pitch": 60,
              "velocity": 124,
              "position": 9,
              "duration": 0.17708333333333334
            },
            {
              "pitch": 58,
              "velocity": 116,
              "position": 9.010416666666666,
              "duration": 0.1875
            },
            {
              "pitch": 58,
              "velocity": 92,
              "position": 9.260416666666666,
              "duration": 0.17708333333333334
            },
            {
              "pitch": 60,
              "velocity": 110,
              "position": 9.25,
              "duration": 0.20833333333333334
            },
            {
              "pitch": 58,
              "velocity": 76,
              "position": 9.489583333333334,
              "duration": 0.20833333333333334
            },
            {
              "pitch": 53,
              "velocity": 80,
              "position": 9.5,
              "duration": 0.19791666666666666
            },
            {
              "pitch": 58,
              "velocity": 126,
              "position": 9.760416666666666,
              "duration": 0.15625
            },
            {
              "pitch": 60,
              "velocity": 124,
              "position": 9.75,
              "duration": 0.17708333333333334
            },
            {
              "pitch": 62,
              "velocity": 126,
              "position": 10.270833333333334,
              "duration": 0.16666666666666666
            },
            {
              "pitch": 58,
              "velocity": 120,
              "position": 10.270833333333334,
              "duration": 0.1875
            },
            {
              "pitch": 60,
              "velocity": 110,
              "position": 12.75,
              "duration": 0.17708333333333334
            },
            {
              "pitch": 58,
              "velocity": 92,
              "position": 12.760416666666666,
              "duration": 0.16666666666666666
            },
            {
              "pitch": 62,
              "velocity": 110,
              "position": 13.260416666666666,
              "duration": 0.16666666666666666
            },
            {
              "pitch": 58,
              "velocity": 110,
              "position": 13.270833333333334,
              "duration": 0.15625
            },
            {
              "pitch": 58,
              "velocity": 126,
              "position": 13.760416666666666,
              "duration": 0.5416666666666666
            },
            {
              "pitch": 50,
              "velocity": 126,
              "position": 13.760416666666666,
              "duration": 0.5520833333333334
            },
            {
              "pitch": 58,
              "velocity": 124,
              "position": 24.479166666666668,
              "duration": 0.15625
            },
            {
              "pitch": 46,
              "velocity": 110,
              "position": 24.489583333333332,
              "duration": 0.14583333333333334
            },
            {
              "pitch": 48,
              "velocity": 90,
              "position": 24.989583333333332,
              "duration": 0.6666666666666666
            },
            {
              "pitch": 60,
              "velocity": 110,
              "position": 24.989583333333332,
              "duration": 0.6770833333333334
            },
            {
              "pitch": 58,
              "velocity": 124,
              "position": 25.760416666666668,
              "duration": 0.15625
            },
            {
              "pitch": 46,
              "velocity": 104,
              "position": 25.760416666666668,
              "duration": 0.15625
            },
            {
              "pitch": 48,
              "velocity": 108,
              "position": 26.260416666666668,
              "duration": 0.4479166666666667
            },
            {
              "pitch": 60,
              "velocity": 96,
              "position": 26.260416666666668,
              "duration": 0.4583333333333333
            },
            {
              "pitch": 46,
              "velocity": 104,
              "position": 26.760416666666668,
              "duration": 0.21875
            },
            {
              "pitch": 58,
              "velocity": 110,
              "position": 26.760416666666668,
              "duration": 0.22916666666666666
            },
            {
              "pitch": 58,
              "velocity": 124,
              "position": 27,
              "duration": 0.16666666666666666
            },
            {
              "pitch": 46,
              "velocity": 110,
              "position": 27.010416666666668,
              "duration": 0.1875
            },
            {
              "pitch": 60,
              "velocity": 126,
              "position": 27.5,
              "duration": 0.19791666666666666
            },
            {
              "pitch": 48,
              "velocity": 126,
              "position": 27.5,
              "duration": 0.21875
            }
          ]
        },
        "8": {
          "ctab": {
            "srcChannel": 8,
            "name": "Std.Kit1",
            "accType": "RHYTHM",
            "editable": false,
            "mutedNotes": [],
            "mutedChords": [],
            "autoStart": true,
            "sourceChordNote": 0,
            "sourceChordType": "Maj7",
            "ctb2Low": null,
            "ctb2Main": {
              "ntr": "ROOT_FIXED",
              "ntt": "BYPASS",
              "bassOn": false,
              "chordRootUpperLimit": 6,
              "noteLowLimit": 0,
              "noteHighLimit": 127,
              "rtr": "PITCH_SHIFT"
            },
            "ctb2High": null
          },
          "notes": [
            {
              "pitch": 42,
              "velocity": 94,
              "position": 0,
              "duration": 0.015625
            },
            {
              "pitch": 55,
              "velocity": 110,
              "position": 0,
              "duration": 0.015625
            },
            {
              "pitch": 42,
              "velocity": 90,
              "position": 0.4895833333333333,
              "duration": 0.015625
            },
            {
              "pitch": 36,
              "velocity": 114,
              "position": 0.7604166666666666,
              "duration": 0.015625
            },
            {
              "pitch": 42,
              "velocity": 90,
              "position": 0.9895833333333334,
              "duration": 0.015625
            },
            {
              "pitch": 42,
              "velocity": 92,
              "position": 1.2604166666666667,
              "duration": 0.015625
            },
            {
              "pitch": 42,
              "velocity": 80,
              "position": 1.75,
              "duration": 0.015625
            },
            {
              "pitch": 42,
              "velocity": 80,
              "position": 2,
              "duration": 0.015625
            },
            {
              "pitch": 42,
              "velocity": 64,
              "position": 2.4895833333333335,
              "duration": 0.015625
            },
            {
              "pitch": 42,
              "velocity": 92,
              "position": 2.7604166666666665,
              "duration": 0.015625
            },
            {
              "pitch": 36,
              "velocity": 114,
              "position": 2.7604166666666665,
              "duration": 0.015625
            },
            {
              "pitch": 42,
              "velocity": 100,
              "position": 3.25,
              "duration": 0.015625
            },
            {
              "pitch": 42,
              "velocity": 72,
              "position": 3.7604166666666665,
              "duration": 0.015625
            },
            {
              "pitch": 42,
              "velocity": 80,
              "position": 4,
              "duration": 0.015625
            },
            {
              "pitch": 42,
              "velocity": 92,
              "position": 4.489583333333333,
              "duration": 0.015625
            },
            {
              "pitch": 36,
              "velocity": 114,
              "position": 4.760416666666667,
              "duration": 0.015625
            },
            {
              "pitch": 42,
              "velocity": 80,
              "position": 4.989583333333333,
              "duration": 0.015625
            },
            {
              "pitch": 42,
              "velocity": 100,
              "position": 5.25,
              "duration": 0.015625
            },
            {
              "pitch": 42,
              "velocity": 80,
              "position": 5.75,
              "duration": 0.015625
            },
            {
              "pitch": 42,
              "velocity": 80,
              "position": 6,
              "duration": 0.015625
            },
            {
              "pitch": 42,
              "velocity": 80,
              "position": 6.489583333333333,
              "duration": 0.015625
            },
            {
              "pitch": 42,
              "velocity": 80,
              "position": 6.760416666666667,
              "duration": 0.015625
            },
            {
              "pitch": 36,
              "velocity": 114,
              "position": 6.760416666666667,
              "duration": 0.015625
            },
            {
              "pitch": 42,
              "velocity": 92,
              "position": 7.25,
              "duration": 0.015625
            },
            {
              "pitch": 42,
              "velocity": 80,
              "position": 7.75,
              "duration": 0.015625
            },
            {
              "pitch": 42,
              "velocity": 80,
              "position": 8,
              "duration": 0.015625
            },
            {
              "pitch": 42,
              "velocity": 92,
              "position": 8.489583333333334,
              "duration": 0.015625
            },
            {
              "pitch": 36,
              "velocity": 114,
              "position": 8.760416666666666,
              "duration": 0.015625
            },
            {
              "pitch": 42,
              "velocity": 92,
              "position": 8.989583333333334,
              "duration": 0.015625
            },
            {
              "pitch": 42,
              "velocity": 90,
              "position": 9.260416666666666,
              "duration": 0.015625
            },
            {
              "pitch": 42,
              "velocity": 72,
              "position": 9.760416666666666,
              "duration": 0.015625
            },
            {
              "pitch": 42,
              "velocity": 92,
              "position": 9.989583333333334,
              "duration": 0.015625
            },
            {
              "pitch": 42,
              "velocity": 72,
              "position": 10.489583333333334,
              "duration": 0.015625
            },
            {
              "pitch": 42,
              "velocity": 92,
              "position": 10.75,
              "duration": 0.015625
            },
            {
              "pitch": 36,
              "velocity": 114,
              "position": 10.760416666666666,
              "duration": 0.015625
            },
            {
              "pitch": 42,
              "velocity": 80,
              "position": 11.260416666666666,
              "duration": 0.015625
            },
            {
              "pitch": 42,
              "velocity": 80,
              "position": 11.75,
              "duration": 0.015625
            },
            {
              "pitch": 42,
              "velocity": 80,
              "position": 12,
              "duration": 0.015625
            },
            {
              "pitch": 42,
              "velocity": 92,
              "position": 12.489583333333334,
              "duration": 0.015625
            },
            {
              "pitch": 36,
              "velocity": 114,
              "position": 12.760416666666666,
              "duration": 0.015625
            },
            {
              "pitch": 42,
              "velocity": 80,
              "position": 12.989583333333334,
              "duration": 0.015625
            },
            {
              "pitch": 42,
              "velocity": 100,
              "position": 13.25,
              "duration": 0.015625
            },
            {
              "pitch": 42,
              "velocity": 80,
              "position": 13.75,
              "duration": 0.015625
            },
            {
              "pitch": 42,
              "velocity": 80,
              "position": 14,
              "duration": 0.015625
            },
            {
              "pitch": 42,
              "velocity": 80,
              "position": 14.489583333333334,
              "duration": 0.015625
            },
            {
              "pitch": 42,
              "velocity": 80,
              "position": 14.760416666666666,
              "duration": 0.015625
            },
            {
              "pitch": 36,
              "velocity": 114,
              "position": 14.760416666666666,
              "duration": 0.015625
            },
            {
              "pitch": 42,
              "velocity": 92,
              "position": 15.25,
              "duration": 0.015625
            },
            {
              "pitch": 42,
              "velocity": 80,
              "position": 15.75,
              "duration": 0.015625
            },
            {
              "pitch": 42,
              "velocity": 80,
              "position": 16,
              "duration": 0.015625
            },
            {
              "pitch": 42,
              "velocity": 92,
              "position": 16.489583333333332,
              "duration": 0.015625
            },
            {
              "pitch": 36,
              "velocity": 114,
              "position": 16.760416666666668,
              "duration": 0.015625
            },
            {
              "pitch": 42,
              "velocity": 92,
              "position": 16.989583333333332,
              "duration": 0.015625
            },
            {
              "pitch": 42,
              "velocity": 90,
              "position": 17.260416666666668,
              "duration": 0.015625
            },
            {
              "pitch": 42,
              "velocity": 72,
              "position": 17.760416666666668,
              "duration": 0.015625
            },
            {
              "pitch": 42,
              "velocity": 92,
              "position": 17.989583333333332,
              "duration": 0.015625
            },
            {
              "pitch": 42,
              "velocity": 72,
              "position": 18.489583333333332,
              "duration": 0.015625
            },
            {
              "pitch": 42,
              "velocity": 92,
              "position": 18.75,
              "duration": 0.015625
            },
            {
              "pitch": 36,
              "velocity": 114,
              "position": 18.760416666666668,
              "duration": 0.015625
            },
            {
              "pitch": 42,
              "velocity": 80,
              "position": 19.260416666666668,
              "duration": 0.015625
            },
            {
              "pitch": 42,
              "velocity": 80,
              "position": 19.75,
              "duration": 0.015625
            },
            {
              "pitch": 42,
              "velocity": 80,
              "position": 20,
              "duration": 0.015625
            },
            {
              "pitch": 42,
              "velocity": 92,
              "position": 20.489583333333332,
              "duration": 0.015625
            },
            {
              "pitch": 36,
              "velocity": 114,
              "position": 20.760416666666668,
              "duration": 0.015625
            },
            {
              "pitch": 42,
              "velocity": 80,
              "position": 20.989583333333332,
              "duration": 0.015625
            },
            {
              "pitch": 42,
              "velocity": 100,
              "position": 21.25,
              "duration": 0.015625
            },
            {
              "pitch": 42,
              "velocity": 80,
              "position": 21.75,
              "duration": 0.015625
            },
            {
              "pitch": 42,
              "velocity": 80,
              "position": 22,
              "duration": 0.015625
            },
            {
              "pitch": 42,
              "velocity": 80,
              "position": 22.489583333333332,
              "duration": 0.015625
            },
            {
              "pitch": 42,
              "velocity": 80,
              "position": 22.760416666666668,
              "duration": 0.015625
            },
            {
              "pitch": 36,
              "velocity": 114,
              "position": 22.760416666666668,
              "duration": 0.015625
            },
            {
              "pitch": 42,
              "velocity": 92,
              "position": 23.25,
              "duration": 0.015625
            },
            {
              "pitch": 42,
              "velocity": 80,
              "position": 23.75,
              "duration": 0.015625
            },
            {
              "pitch": 42,
              "velocity": 80,
              "position": 24,
              "duration": 0.015625
            },
            {
              "pitch": 42,
              "velocity": 92,
              "position": 24.489583333333332,
              "duration": 0.015625
            },
            {
              "pitch": 36,
              "velocity": 114,
              "position": 24.760416666666668,
              "duration": 0.015625
            },
            {
              "pitch": 42,
              "velocity": 92,
              "position": 24.989583333333332,
              "duration": 0.015625
            },
            {
              "pitch": 42,
              "velocity": 90,
              "position": 25.260416666666668,
              "duration": 0.015625
            },
            {
              "pitch": 42,
              "velocity": 72,
              "position": 25.760416666666668,
              "duration": 0.015625
            },
            {
              "pitch": 42,
              "velocity": 92,
              "position": 25.989583333333332,
              "duration": 0.015625
            },
            {
              "pitch": 42,
              "velocity": 72,
              "position": 26.489583333333332,
              "duration": 0.015625
            },
            {
              "pitch": 42,
              "velocity": 92,
              "position": 26.75,
              "duration": 0.015625
            },
            {
              "pitch": 36,
              "velocity": 114,
              "position": 26.760416666666668,
              "duration": 0.015625
            },
            {
              "pitch": 42,
              "velocity": 80,
              "position": 27.260416666666668,
              "duration": 0.015625
            },
            {
              "pitch": 42,
              "velocity": 80,
              "position": 27.75,
              "duration": 0.015625
            },
            {
              "pitch": 42,
              "velocity": 80,
              "position": 28,
              "duration": 0.015625
            },
            {
              "pitch": 42,
              "velocity": 92,
              "position": 28.489583333333332,
              "duration": 0.015625
            },
            {
              "pitch": 36,
              "velocity": 114,
              "position": 28.760416666666668,
              "duration": 0.015625
            },
            {
              "pitch": 42,
              "velocity": 80,
              "position": 28.989583333333332,
              "duration": 0.015625
            },
            {
              "pitch": 42,
              "velocity": 100,
              "position": 29.25,
              "duration": 0.015625
            },
            {
              "pitch": 42,
              "velocity": 80,
              "position": 29.75,
              "duration": 0.015625
            },
            {
              "pitch": 42,
              "velocity": 80,
              "position": 30,
              "duration": 0.015625
            },
            {
              "pitch": 42,
              "velocity": 80,
              "position": 30.489583333333332,
              "duration": 0.015625
            },
            {
              "pitch": 42,
              "velocity": 80,
              "position": 30.760416666666668,
              "duration": 0.015625
            },
            {
              "pitch": 36,
              "velocity": 114,
              "position": 30.760416666666668,
              "duration": 0.015625
            },
            {
              "pitch": 42,
              "velocity": 92,
              "position": 31.25,
              "duration": 0.015625
            },
            {
              "pitch": 42,
              "velocity": 80,
              "position": 31.75,
              "duration": 0.015625
            }
          ]
        },
        "10": {
          "ctab": {
            "srcChannel": 10,
            "name": "Std.Kit1",
            "accType": "SUBRHYTHM",
            "editable": false,
            "mutedNotes": [],
            "mutedChords": [],
            "autoStart": true,
            "sourceChordNote": 0,
            "sourceChordType": "Maj7",
            "ctb2Low": null,
            "ctb2Main": {
              "ntr": "ROOT_FIXED",
              "ntt": "BYPASS",
              "bassOn": false,
              "chordRootUpperLimit": 6,
              "noteLowLimit": 0,
              "noteHighLimit": 127,
              "rtr": "PITCH_SHIFT"
            },
            "ctb2High": null
          },
          "notes": [
            {
              "pitch": 68,
              "velocity": 116,
              "position": 0,
              "duration": 0.015625
            },
            {
              "pitch": 62,
              "velocity": 104,
              "position": 0,
              "duration": 0.015625
            },
            {
              "pitch": 56,
              "velocity": 110,
              "position": 0,
              "duration": 0.015625
            },
            {
              "pitch": 62,
              "velocity": 92,
              "position": 0.25,
              "duration": 0.015625
            },
            {
              "pitch": 56,
              "velocity": 80,
              "position": 0.4895833333333333,
              "duration": 0.015625
            },
            {
              "pitch": 75,
              "velocity": 120,
              "position": 0.5,
              "duration": 0.015625
            },
            {
              "pitch": 62,
              "velocity": 110,
              "position": 0.5,
              "duration": 0.015625
            },
            {
              "pitch": 56,
              "velocity": 110,
              "position": 0.5104166666666666,
              "duration": 0.015625
            },
            {
              "pitch": 62,
              "velocity": 92,
              "position": 0.7604166666666666,
              "duration": 0.015625
            },
            {
              "pitch": 68,
              "velocity": 116,
              "position": 1,
              "duration": 0.015625
            },
            {
              "pitch": 62,
              "velocity": 92,
              "position": 1,
              "duration": 0.015625
            },
            {
              "pitch": 75,
              "velocity": 126,
              "position": 1,
              "duration": 0.015625
            },
            {
              "pitch": 56,
              "velocity": 90,
              "position": 1,
              "duration": 0.015625
            },
            {
              "pitch": 56,
              "velocity": 80,
              "position": 1.25,
              "duration": 0.015625
            },
            {
              "pitch": 62,
              "velocity": 92,
              "position": 1.25,
              "duration": 0.015625
            },
            {
              "pitch": 56,
              "velocity": 80,
              "position": 1.4895833333333333,
              "duration": 0.015625
            },
            {
              "pitch": 64,
              "velocity": 110,
              "position": 1.5,
              "duration": 0.015625
            },
            {
              "pitch": 56,
              "velocity": 90,
              "position": 1.75,
              "duration": 0.015625
            },
            {
              "pitch": 64,
              "velocity": 92,
              "position": 1.7604166666666667,
              "duration": 0.015625
            },
            {
              "pitch": 75,
              "velocity": 120,
              "position": 2,
              "duration": 0.015625
            },
            {
              "pitch": 68,
              "velocity": 112,
              "position": 2,
              "duration": 0.015625
            },
            {
              "pitch": 62,
              "velocity": 78,
              "position": 2,
              "duration": 0.015625
            },
            {
              "pitch": 62,
              "velocity": 92,
              "position": 2.25,
              "duration": 0.015625
            },
            {
              "pitch": 56,
              "velocity": 90,
              "position": 2.2604166666666665,
              "duration": 0.015625
            },
            {
              "pitch": 56,
              "velocity": 90,
              "position": 2.4895833333333335,
              "duration": 0.026041666666666668
            },
            {
              "pitch": 62,
              "velocity": 110,
              "position": 2.5,
              "duration": 0.015625
            },
            {
              "pitch": 56,
              "velocity": 80,
              "position": 2.75,
              "duration": 0.015625
            },
            {
              "pitch": 64,
              "velocity": 92,
              "position": 2.75,
              "duration": 0.015625
            },
            {
              "pitch": 75,
              "velocity": 120,
              "position": 2.7604166666666665,
              "duration": 0.015625
            },
            {
              "pitch": 64,
              "velocity": 92,
              "position": 3,
              "duration": 0.015625
            },
            {
              "pitch": 68,
              "velocity": 112,
              "position": 3,
              "duration": 0.015625
            },
            {
              "pitch": 56,
              "velocity": 110,
              "position": 3,
              "duration": 0.015625
            },
            {
              "pitch": 62,
              "velocity": 82,
              "position": 3.2604166666666665,
              "duration": 0.015625
            },
            {
              "pitch": 56,
              "velocity": 92,
              "position": 3.5,
              "duration": 0.015625
            },
            {
              "pitch": 75,
              "velocity": 112,
              "position": 3.5,
              "duration": 0.015625
            },
            {
              "pitch": 64,
              "velocity": 110,
              "position": 3.5,
              "duration": 0.015625
            },
            {
              "pitch": 56,
              "velocity": 72,
              "position": 3.75,
              "duration": 0.026041666666666668
            },
            {
              "pitch": 64,
              "velocity": 92,
              "position": 3.7604166666666665,
              "duration": 0.015625
            },
            {
              "pitch": 65,
              "velocity": 110,
              "position": 3.78125,
              "duration": 0.015625
            },
            {
              "pitch": 65,
              "velocity": 92,
              "position": 3.8854166666666665,
              "duration": 0.015625
            },
            {
              "pitch": 56,
              "velocity": 110,
              "position": 4,
              "duration": 0.015625
            },
            {
              "pitch": 68,
              "velocity": 112,
              "position": 4,
              "duration": 0.015625
            },
            {
              "pitch": 62,
              "velocity": 82,
              "position": 4,
              "duration": 0.015625
            },
            {
              "pitch": 65,
              "velocity": 90,
              "position": 4.020833333333333,
              "duration": 0.015625
            },
            {
              "pitch": 62,
              "velocity": 82,
              "position": 4.25,
              "duration": 0.015625
            },
            {
              "pitch": 65,
              "velocity": 110,
              "position": 4.489583333333333,
              "duration": 0.015625
            },
            {
              "pitch": 62,
              "velocity": 110,
              "position": 4.5,
              "duration": 0.015625
            },
            {
              "pitch": 56,
              "velocity": 110,
              "position": 4.5,
              "duration": 0.015625
            },
            {
              "pitch": 75,
              "velocity": 120,
              "position": 4.5,
              "duration": 0.015625
            },
            {
              "pitch": 62,
              "velocity": 82,
              "position": 4.770833333333333,
              "duration": 0.015625
            },
            {
              "pitch": 56,
              "velocity": 80,
              "position": 5,
              "duration": 0.015625
            },
            {
              "pitch": 62,
              "velocity": 74,
              "position": 5.010416666666667,
              "duration": 0.015625
            },
            {
              "pitch": 68,
              "velocity": 112,
              "position": 5.010416666666667,
              "duration": 0.015625
            },
            {
              "pitch": 75,
              "velocity": 114,
              "position": 5.010416666666667,
              "duration": 0.015625
            },
            {
              "pitch": 65,
              "velocity": 110,
              "position": 5.03125,
              "duration": 0.015625
            },
            {
              "pitch": 56,
              "velocity": 72,
              "position": 5.25,
              "duration": 0.015625
            },
            {
              "pitch": 62,
              "velocity": 82,
              "position": 5.260416666666667,
              "duration": 0.015625
            },
            {
              "pitch": 66,
              "velocity": 110,
              "position": 5.28125,
              "duration": 0.015625
            },
            {
              "pitch": 56,
              "velocity": 80,
              "position": 5.489583333333333,
              "duration": 0.026041666666666668
            },
            {
              "pitch": 64,
              "velocity": 110,
              "position": 5.5,
              "duration": 0.015625
            },
            {
              "pitch": 56,
              "velocity": 110,
              "position": 5.760416666666667,
              "duration": 0.015625
            },
            {
              "pitch": 64,
              "velocity": 92,
              "position": 5.760416666666667,
              "duration": 0.015625
            },
            {
              "pitch": 65,
              "velocity": 126,
              "position": 5.791666666666667,
              "duration": 0.015625
            },
            {
              "pitch": 62,
              "velocity": 102,
              "position": 6,
              "duration": 0.015625
            },
            {
              "pitch": 75,
              "velocity": 120,
              "position": 6.010416666666667,
              "duration": 0.015625
            },
            {
              "pitch": 68,
              "velocity": 112,
              "position": 6.010416666666667,
              "duration": 0.015625
            },
            {
              "pitch": 62,
              "velocity": 70,
              "position": 6.25,
              "duration": 0.015625
            },
            {
              "pitch": 56,
              "velocity": 80,
              "position": 6.25,
              "duration": 0.015625
            },
            {
              "pitch": 62,
              "velocity": 110,
              "position": 6.5,
              "duration": 0.015625
            },
            {
              "pitch": 56,
              "velocity": 64,
              "position": 6.5,
              "duration": 0.015625
            },
            {
              "pitch": 64,
              "velocity": 92,
              "position": 6.75,
              "duration": 0.015625
            },
            {
              "pitch": 56,
              "velocity": 70,
              "position": 6.75,
              "duration": 0.026041666666666668
            },
            {
              "pitch": 75,
              "velocity": 112,
              "position": 6.760416666666667,
              "duration": 0.015625
            },
            {
              "pitch": 64,
              "velocity": 94,
              "position": 7,
              "duration": 0.015625
            },
            {
              "pitch": 56,
              "velocity": 110,
              "position": 7,
              "duration": 0.015625
            },
            {
              "pitch": 68,
              "velocity": 112,
              "position": 7,
              "duration": 0.015625
            },
            {
              "pitch": 62,
              "velocity": 92,
              "position": 7.25,
              "duration": 0.015625
            },
            {
              "pitch": 56,
              "velocity": 80,
              "position": 7.5,
              "duration": 0.015625
            },
            {
              "pitch": 75,
              "velocity": 120,
              "position": 7.5,
              "duration": 0.015625
            },
            {
              "pitch": 64,
              "velocity": 92,
              "position": 7.5,
              "duration": 0.015625
            },
            {
              "pitch": 56,
              "velocity": 80,
              "position": 7.75,
              "duration": 0.015625
            },
            {
              "pitch": 64,
              "velocity": 92,
              "position": 7.760416666666667,
              "duration": 0.015625
            },
            {
              "pitch": 56,
              "velocity": 110,
              "position": 8,
              "duration": 0.015625
            },
            {
              "pitch": 62,
              "velocity": 78,
              "position": 8,
              "duration": 0.015625
            },
            {
              "pitch": 68,
              "velocity": 112,
              "position": 8,
              "duration": 0.015625
            },
            {
              "pitch": 62,
              "velocity": 74,
              "position": 8.25,
              "duration": 0.015625
            },
            {
              "pitch": 62,
              "velocity": 110,
              "position": 8.5,
              "duration": 0.015625
            },
            {
              "pitch": 75,
              "velocity": 120,
              "position": 8.5,
              "duration": 0.015625
            },
            {
              "pitch": 56,
              "velocity": 110,
              "position": 8.5,
              "duration": 0.015625
            },
            {
              "pitch": 62,
              "velocity": 92,
              "position": 8.760416666666666,
              "duration": 0.015625
            },
            {
              "pitch": 56,
              "velocity": 80,
              "position": 9,
              "duration": 0.015625
            },
            {
              "pitch": 62,
              "velocity": 78,
              "position": 9,
              "duration": 0.015625
            },
            {
              "pitch": 75,
              "velocity": 126,
              "position": 9,
              "duration": 0.015625
            },
            {
              "pitch": 68,
              "velocity": 112,
              "position": 9.010416666666666,
              "duration": 0.015625
            },
            {
              "pitch": 62,
              "velocity": 92,
              "position": 9.25,
              "duration": 0.015625
            },
            {
              "pitch": 56,
              "velocity": 64,
              "position": 9.25,
              "duration": 0.015625
            },
            {
              "pitch": 56,
              "velocity": 92,
              "position": 9.5,
              "duration": 0.015625
            },
            {
              "pitch": 64,
              "velocity": 92,
              "position": 9.5,
              "duration": 0.015625
            },
            {
              "pitch": 56,
              "velocity": 92,
              "position": 9.75,
              "duration": 0.026041666666666668
            },
            {
              "pitch": 64,
              "velocity": 92,
              "position": 9.760416666666666,
              "duration": 0.015625
            },
            {
              "pitch": 75,
              "velocity": 120,
              "position": 10,
              "duration": 0.015625
            },
            {
              "pitch": 62,
              "velocity": 102,
              "position": 10,
              "duration": 0.015625
            },
            {
              "pitch": 68,
              "velocity": 112,
              "position": 10,
              "duration": 0.015625
            },
            {
              "pitch": 62,
              "velocity": 92,
              "position": 10.25,
              "duration": 0.015625
            },
            {
              "pitch": 56,
              "velocity": 80,
              "position": 10.260416666666666,
              "duration": 0.015625
            },
            {
              "pitch": 62,
              "velocity": 110,
              "position": 10.489583333333334,
              "duration": 0.015625
            },
            {
              "pitch": 56,
              "velocity": 90,
              "position": 10.489583333333334,
              "duration": 0.026041666666666668
            },
            {
              "pitch": 56,
              "velocity": 94,
              "position": 10.75,
              "duration": 0.015625
            },
            {
              "pitch": 64,
              "velocity": 92,
              "position": 10.75,
              "duration": 0.015625
            },
            {
              "pitch": 75,
              "velocity": 120,
              "position": 10.760416666666666,
              "duration": 0.015625
            },
            {
              "pitch": 64,
              "velocity": 92,
              "position": 10.989583333333334,
              "duration": 0.015625
            },
            {
              "pitch": 68,
              "velocity": 112,
              "position": 11,
              "duration": 0.015625
            },
            {
              "pitch": 56,
              "velocity": 108,
              "position": 11.010416666666666,
              "duration": 0.015625
            },
            {
              "pitch": 62,
              "velocity": 82,
              "position": 11.25,
              "duration": 0.015625
            },
            {
              "pitch": 56,
              "velocity": 80,
              "position": 11.489583333333334,
              "duration": 0.026041666666666668
            },
            {
              "pitch": 64,
              "velocity": 92,
              "position": 11.5,
              "duration": 0.015625
            },
            {
              "pitch": 75,
              "velocity": 112,
              "position": 11.5,
              "duration": 0.015625
            },
            {
              "pitch": 65,
              "velocity": 92,
              "position": 11.729166666666666,
              "duration": 0.015625
            },
            {
              "pitch": 56,
              "velocity": 92,
              "position": 11.75,
              "duration": 0.015625
            },
            {
              "pitch": 64,
              "velocity": 92,
              "position": 11.75,
              "duration": 0.015625
            },
            {
              "pitch": 65,
              "velocity": 92,
              "position": 11.854166666666666,
              "duration": 0.015625
            },
            {
              "pitch": 62,
              "velocity": 92,
              "position": 12,
              "duration": 0.015625
            },
            {
              "pitch": 68,
              "velocity": 112,
              "position": 12,
              "duration": 0.015625
            },
            {
              "pitch": 56,
              "velocity": 110,
              "position": 12,
              "duration": 0.015625
            },
            {
              "pitch": 66,
              "velocity": 110,
              "position": 12.020833333333334,
              "duration": 0.015625
            },
            {
              "pitch": 62,
              "velocity": 92,
              "position": 12.25,
              "duration": 0.015625
            },
            {
              "pitch": 62,
              "velocity": 110,
              "position": 12.489583333333334,
              "duration": 0.015625
            },
            {
              "pitch": 56,
              "velocity": 90,
              "position": 12.5,
              "duration": 0.015625
            },
            {
              "pitch": 75,
              "velocity": 120,
              "position": 12.5,
              "duration": 0.015625
            },
            {
              "pitch": 62,
              "velocity": 92,
              "position": 12.75,
              "duration": 0.015625
            },
            {
              "pitch": 65,
              "velocity": 126,
              "position": 12.75,
              "duration": 0.015625
            },
            {
              "pitch": 62,
              "velocity": 88,
              "position": 12.989583333333334,
              "duration": 0.015625
            },
            {
              "pitch": 56,
              "velocity": 80,
              "position": 12.989583333333334,
              "duration": 0.015625
            },
            {
              "pitch": 68,
              "velocity": 112,
              "position": 13,
              "duration": 0.015625
            },
            {
              "pitch": 75,
              "velocity": 114,
              "position": 13.010416666666666,
              "duration": 0.015625
            },
            {
              "pitch": 56,
              "velocity": 64,
              "position": 13.25,
              "duration": 0.015625
            },
            {
              "pitch": 62,
              "velocity": 92,
              "position": 13.25,
              "duration": 0.015625
            },
            {
              "pitch": 65,
              "velocity": 110,
              "position": 13.28125,
              "duration": 0.015625
            },
            {
              "pitch": 56,
              "velocity": 92,
              "position": 13.489583333333334,
              "duration": 0.026041666666666668
            },
            {
              "pitch": 64,
              "velocity": 110,
              "position": 13.5,
              "duration": 0.015625
            },
            {
              "pitch": 56,
              "velocity": 94,
              "position": 13.75,
              "duration": 0.026041666666666668
            },
            {
              "pitch": 64,
              "velocity": 92,
              "position": 13.760416666666666,
              "duration": 0.015625
            },
            {
              "pitch": 65,
              "velocity": 126,
              "position": 13.770833333333334,
              "duration": 0.015625
            },
            {
              "pitch": 62,
              "velocity": 88,
              "position": 13.989583333333334,
              "duration": 0.015625
            },
            {
              "pitch": 68,
              "velocity": 112,
              "position": 14,
              "duration": 0.015625
            },
            {
              "pitch": 75,
              "velocity": 120,
              "position": 14.010416666666666,
              "duration": 0.015625
            },
            {
              "pitch": 62,
              "velocity": 92,
              "position": 14.25,
              "duration": 0.015625
            },
            {
              "pitch": 56,
              "velocity": 90,
              "position": 14.260416666666666,
              "duration": 0.015625
            },
            {
              "pitch": 62,
              "velocity": 110,
              "position": 14.489583333333334,
              "duration": 0.015625
            },
            {
              "pitch": 56,
              "velocity": 80,
              "position": 14.489583333333334,
              "duration": 0.026041666666666668
            },
            {
              "pitch": 56,
              "velocity": 92,
              "position": 14.75,
              "duration": 0.015625
            },
            {
              "pitch": 64,
              "velocity": 80,
              "position": 14.75,
              "duration": 0.015625
            },
            {
              "pitch": 75,
              "velocity": 112,
              "position": 14.760416666666666,
              "duration": 0.015625
            },
            {
              "pitch": 64,
              "velocity": 80,
              "position": 15,
              "duration": 0.015625
            },
            {
              "pitch": 68,
              "velocity": 112,
              "position": 15,
              "duration": 0.015625
            },
            {
              "pitch": 56,
              "velocity": 110,
              "position": 15,
              "duration": 0.015625
            },
            {
              "pitch": 62,
              "velocity": 92,
              "position": 15.260416666666666,
              "duration": 0.015625
            },
            {
              "pitch": 56,
              "velocity": 90,
              "position": 15.489583333333334,
              "duration": 0.026041666666666668
            },
            {
              "pitch": 64,
              "velocity": 92,
              "position": 15.5,
              "duration": 0.015625
            },
            {
              "pitch": 75,
              "velocity": 120,
              "position": 15.5,
              "duration": 0.015625
            },
            {
              "pitch": 64,
              "velocity": 90,
              "position": 15.75,
              "duration": 0.015625
            },
            {
              "pitch": 56,
              "velocity": 94,
              "position": 15.75,
              "duration": 0.026041666666666668
            },
            {
              "pitch": 56,
              "velocity": 110,
              "position": 16,
              "duration": 0.015625
            },
            {
              "pitch": 68,
              "velocity": 116,
              "position": 16,
              "duration": 0.015625
            },
            {
              "pitch": 62,
              "velocity": 82,
              "position": 16,
              "duration": 0.015625
            },
            {
              "pitch": 62,
              "velocity": 82,
              "position": 16.25,
              "duration": 0.015625
            },
            {
              "pitch": 75,
              "velocity": 120,
              "position": 16.5,
              "duration": 0.015625
            },
            {
              "pitch": 62,
              "velocity": 110,
              "position": 16.5,
              "duration": 0.015625
            },
            {
              "pitch": 56,
              "velocity": 94,
              "position": 16.5,
              "duration": 0.026041666666666668
            },
            {
              "pitch": 62,
              "velocity": 92,
              "position": 16.760416666666668,
              "duration": 0.015625
            },
            {
              "pitch": 75,
              "velocity": 126,
              "position": 17,
              "duration": 0.015625
            },
            {
              "pitch": 62,
              "velocity": 82,
              "position": 17,
              "duration": 0.015625
            },
            {
              "pitch": 68,
              "velocity": 114,
              "position": 17,
              "duration": 0.015625
            },
            {
              "pitch": 56,
              "velocity": 90,
              "position": 17,
              "duration": 0.015625
            },
            {
              "pitch": 62,
              "velocity": 92,
              "position": 17.25,
              "duration": 0.015625
            },
            {
              "pitch": 56,
              "velocity": 80,
              "position": 17.25,
              "duration": 0.015625
            },
            {
              "pitch": 56,
              "velocity": 80,
              "position": 17.489583333333332,
              "duration": 0.026041666666666668
            },
            {
              "pitch": 64,
              "velocity": 92,
              "position": 17.5,
              "duration": 0.015625
            },
            {
              "pitch": 56,
              "velocity": 110,
              "position": 17.75,
              "duration": 0.015625
            },
            {
              "pitch": 64,
              "velocity": 92,
              "position": 17.75,
              "duration": 0.015625
            },
            {
              "pitch": 75,
              "velocity": 120,
              "position": 18,
              "duration": 0.015625
            },
            {
              "pitch": 68,
              "velocity": 112,
              "position": 18,
              "duration": 0.015625
            },
            {
              "pitch": 62,
              "velocity": 92,
              "position": 18,
              "duration": 0.015625
            },
            {
              "pitch": 62,
              "velocity": 78,
              "position": 18.25,
              "duration": 0.015625
            },
            {
              "pitch": 56,
              "velocity": 90,
              "position": 18.260416666666668,
              "duration": 0.015625
            },
            {
              "pitch": 62,
              "velocity": 110,
              "position": 18.489583333333332,
              "duration": 0.015625
            },
            {
              "pitch": 56,
              "velocity": 90,
              "position": 18.489583333333332,
              "duration": 0.026041666666666668
            },
            {
              "pitch": 56,
              "velocity": 92,
              "position": 18.75,
              "duration": 0.015625
            },
            {
              "pitch": 64,
              "velocity": 80,
              "position": 18.75,
              "duration": 0.015625
            },
            {
              "pitch": 75,
              "velocity": 120,
              "position": 18.760416666666668,
              "duration": 0.015625
            },
            {
              "pitch": 64,
              "velocity": 92,
              "position": 18.989583333333332,
              "duration": 0.015625
            },
            {
              "pitch": 68,
              "velocity": 112,
              "position": 19,
              "duration": 0.015625
            },
            {
              "pitch": 56,
              "velocity": 110,
              "position": 19,
              "duration": 0.015625
            },
            {
              "pitch": 62,
              "velocity": 82,
              "position": 19.25,
              "duration": 0.015625
            },
            {
              "pitch": 56,
              "velocity": 92,
              "position": 19.489583333333332,
              "duration": 0.026041666666666668
            },
            {
              "pitch": 64,
              "velocity": 110,
              "position": 19.5,
              "duration": 0.015625
            },
            {
              "pitch": 75,
              "velocity": 112,
              "position": 19.5,
              "duration": 0.015625
            },
            {
              "pitch": 56,
              "velocity": 94,
              "position": 19.75,
              "duration": 0.015625
            },
            {
              "pitch": 64,
              "velocity": 90,
              "position": 19.75,
              "duration": 0.015625
            },
            {
              "pitch": 62,
              "velocity": 92,
              "position": 20,
              "duration": 0.015625
            },
            {
              "pitch": 56,
              "velocity": 110,
              "position": 20,
              "duration": 0.015625
            },
            {
              "pitch": 68,
              "velocity": 112,
              "position": 20,
              "duration": 0.015625
            },
            {
              "pitch": 62,
              "velocity": 82,
              "position": 20.25,
              "duration": 0.015625
            },
            {
              "pitch": 62,
              "velocity": 110,
              "position": 20.489583333333332,
              "duration": 0.015625
            },
            {
              "pitch": 56,
              "velocity": 92,
              "position": 20.5,
              "duration": 0.015625
            },
            {
              "pitch": 75,
              "velocity": 120,
              "position": 20.5,
              "duration": 0.015625
            },
            {
              "pitch": 62,
              "velocity": 92,
              "position": 20.760416666666668,
              "duration": 0.015625
            },
            {
              "pitch": 56,
              "velocity": 80,
              "position": 21,
              "duration": 0.015625
            },
            {
              "pitch": 62,
              "velocity": 92,
              "position": 21,
              "duration": 0.015625
            },
            {
              "pitch": 68,
              "velocity": 114,
              "position": 21,
              "duration": 0.015625
            },
            {
              "pitch": 75,
              "velocity": 114,
              "position": 21.010416666666668,
              "duration": 0.015625
            },
            {
              "pitch": 56,
              "velocity": 72,
              "position": 21.25,
              "duration": 0.015625
            },
            {
              "pitch": 62,
              "velocity": 92,
              "position": 21.25,
              "duration": 0.015625
            },
            {
              "pitch": 56,
              "velocity": 80,
              "position": 21.489583333333332,
              "duration": 0.026041666666666668
            },
            {
              "pitch": 64,
              "velocity": 110,
              "position": 21.5,
              "duration": 0.015625
            },
            {
              "pitch": 56,
              "velocity": 90,
              "position": 21.760416666666668,
              "duration": 0.015625
            },
            {
              "pitch": 64,
              "velocity": 92,
              "position": 21.760416666666668,
              "duration": 0.015625
            },
            {
              "pitch": 66,
              "velocity": 92,
              "position": 21.770833333333332,
              "duration": 0.015625
            },
            {
              "pitch": 66,
              "velocity": 92,
              "position": 21.895833333333332,
              "duration": 0.015625
            },
            {
              "pitch": 62,
              "velocity": 78,
              "position": 22,
              "duration": 0.015625
            },
            {
              "pitch": 68,
              "velocity": 112,
              "position": 22,
              "duration": 0.015625
            },
            {
              "pitch": 75,
              "velocity": 120,
              "position": 22.010416666666668,
              "duration": 0.015625
            },
            {
              "pitch": 66,
              "velocity": 104,
              "position": 22.010416666666668,
              "duration": 0.015625
            },
            {
              "pitch": 62,
              "velocity": 92,
              "position": 22.25,
              "duration": 0.015625
            },
            {
              "pitch": 66,
              "velocity": 90,
              "position": 22.25,
              "duration": 0.015625
            },
            {
              "pitch": 56,
              "velocity": 80,
              "position": 22.25,
              "duration": 0.015625
            },
            {
              "pitch": 66,
              "velocity": 92,
              "position": 22.489583333333332,
              "duration": 0.015625
            },
            {
              "pitch": 56,
              "velocity": 90,
              "position": 22.489583333333332,
              "duration": 0.026041666666666668
            },
            {
              "pitch": 62,
              "velocity": 110,
              "position": 22.5,
              "duration": 0.015625
            },
            {
              "pitch": 66,
              "velocity": 92,
              "position": 22.739583333333332,
              "duration": 0.015625
            },
            {
              "pitch": 56,
              "velocity": 70,
              "position": 22.75,
              "duration": 0.015625
            },
            {
              "pitch": 64,
              "velocity": 80,
              "position": 22.760416666666668,
              "duration": 0.015625
            },
            {
              "pitch": 75,
              "velocity": 112,
              "position": 22.760416666666668,
              "duration": 0.015625
            },
            {
              "pitch": 64,
              "velocity": 80,
              "position": 23,
              "duration": 0.015625
            },
            {
              "pitch": 56,
              "velocity": 110,
              "position": 23,
              "duration": 0.015625
            },
            {
              "pitch": 68,
              "velocity": 114,
              "position": 23,
              "duration": 0.015625
            },
            {
              "pitch": 65,
              "velocity": 110,
              "position": 23.041666666666668,
              "duration": 0.015625
            },
            {
              "pitch": 65,
              "velocity": 110,
              "position": 23.125,
              "duration": 0.015625
            },
            {
              "pitch": 62,
              "velocity": 82,
              "position": 23.25,
              "duration": 0.015625
            },
            {
              "pitch": 66,
              "velocity": 90,
              "position": 23.416666666666668,
              "duration": 0.015625
            },
            {
              "pitch": 64,
              "velocity": 110,
              "position": 23.5,
              "duration": 0.015625
            },
            {
              "pitch": 56,
              "velocity": 80,
              "position": 23.5,
              "duration": 0.015625
            },
            {
              "pitch": 75,
              "velocity": 120,
              "position": 23.5,
              "duration": 0.015625
            },
            {
              "pitch": 65,
              "velocity": 110,
              "position": 23.71875,
              "duration": 0.015625
            },
            {
              "pitch": 56,
              "velocity": 80,
              "position": 23.75,
              "duration": 0.015625
            },
            {
              "pitch": 64,
              "velocity": 92,
              "position": 23.760416666666668,
              "duration": 0.015625
            },
            {
              "pitch": 65,
              "velocity": 110,
              "position": 23.802083333333332,
              "duration": 0.015625
            },
            {
              "pitch": 56,
              "velocity": 110,
              "position": 24,
              "duration": 0.015625
            },
            {
              "pitch": 68,
              "velocity": 116,
              "position": 24,
              "duration": 0.015625
            },
            {
              "pitch": 62,
              "velocity": 82,
              "position": 24,
              "duration": 0.015625
            },
            {
              "pitch": 62,
              "velocity": 82,
              "position": 24.25,
              "duration": 0.015625
            },
            {
              "pitch": 75,
              "velocity": 120,
              "position": 24.5,
              "duration": 0.015625
            },
            {
              "pitch": 62,
              "velocity": 110,
              "position": 24.5,
              "duration": 0.015625
            },
            {
              "pitch": 56,
              "velocity": 94,
              "position": 24.5,
              "duration": 0.026041666666666668
            },
            {
              "pitch": 62,
              "velocity": 92,
              "position": 24.760416666666668,
              "duration": 0.015625
            },
            {
              "pitch": 75,
              "velocity": 126,
              "position": 25,
              "duration": 0.015625
            },
            {
              "pitch": 62,
              "velocity": 82,
              "position": 25,
              "duration": 0.015625
            },
            {
              "pitch": 68,
              "velocity": 114,
              "position": 25,
              "duration": 0.015625
            },
            {
              "pitch": 56,
              "velocity": 90,
              "position": 25,
              "duration": 0.015625
            },
            {
              "pitch": 62,
              "velocity": 92,
              "position": 25.25,
              "duration": 0.015625
            },
            {
              "pitch": 56,
              "velocity": 80,
              "position": 25.25,
              "duration": 0.015625
            },
            {
              "pitch": 56,
              "velocity": 80,
              "position": 25.489583333333332,
              "duration": 0.026041666666666668
            },
            {
              "pitch": 64,
              "velocity": 92,
              "position": 25.5,
              "duration": 0.015625
            },
            {
              "pitch": 56,
              "velocity": 110,
              "position": 25.75,
              "duration": 0.015625
            },
            {
              "pitch": 64,
              "velocity": 92,
              "position": 25.75,
              "duration": 0.015625
            },
            {
              "pitch": 75,
              "velocity": 120,
              "position": 26,
              "duration": 0.015625
            },
            {
              "pitch": 68,
              "velocity": 112,
              "position": 26,
              "duration": 0.015625
            },
            {
              "pitch": 62,
              "velocity": 92,
              "position": 26,
              "duration": 0.015625
            },
            {
              "pitch": 62,
              "velocity": 78,
              "position": 26.25,
              "duration": 0.015625
            },
            {
              "pitch": 56,
              "velocity": 90,
              "position": 26.260416666666668,
              "duration": 0.015625
            },
            {
              "pitch": 62,
              "velocity": 110,
              "position": 26.489583333333332,
              "duration": 0.015625
            },
            {
              "pitch": 56,
              "velocity": 90,
              "position": 26.489583333333332,
              "duration": 0.026041666666666668
            },
            {
              "pitch": 56,
              "velocity": 92,
              "position": 26.75,
              "duration": 0.015625
            },
            {
              "pitch": 64,
              "velocity": 80,
              "position": 26.75,
              "duration": 0.015625
            },
            {
              "pitch": 75,
              "velocity": 120,
              "position": 26.760416666666668,
              "duration": 0.015625
            },
            {
              "pitch": 64,
              "velocity": 92,
              "position": 26.989583333333332,
              "duration": 0.015625
            },
            {
              "pitch": 68,
              "velocity": 112,
              "position": 27,
              "duration": 0.015625
            },
            {
              "pitch": 56,
              "velocity": 110,
              "position": 27,
              "duration": 0.015625
            },
            {
              "pitch": 62,
              "velocity": 82,
              "position": 27.25,
              "duration": 0.015625
            },
            {
              "pitch": 56,
              "velocity": 92,
              "position": 27.489583333333332,
              "duration": 0.026041666666666668
            },
            {
              "pitch": 64,
              "velocity": 110,
              "position": 27.5,
              "duration": 0.015625
            },
            {
              "pitch": 75,
              "velocity": 112,
              "position": 27.5,
              "duration": 0.015625
            },
            {
              "pitch": 56,
              "velocity": 94,
              "position": 27.75,
              "duration": 0.015625
            },
            {
              "pitch": 64,
              "velocity": 90,
              "position": 27.75,
              "duration": 0.015625
            },
            {
              "pitch": 68,
              "velocity": 112,
              "position": 28,
              "duration": 0.015625
            },
            {
              "pitch": 56,
              "velocity": 110,
              "position": 28,
              "duration": 0.015625
            },
            {
              "pitch": 62,
              "velocity": 74,
              "position": 28,
              "duration": 0.015625
            },
            {
              "pitch": 62,
              "velocity": 88,
              "position": 28.25,
              "duration": 0.015625
            },
            {
              "pitch": 56,
              "velocity": 94,
              "position": 28.5,
              "duration": 0.015625
            },
            {
              "pitch": 75,
              "velocity": 120,
              "position": 28.5,
              "duration": 0.015625
            },
            {
              "pitch": 62,
              "velocity": 110,
              "position": 28.5,
              "duration": 0.015625
            },
            {
              "pitch": 65,
              "velocity": 110,
              "position": 28.520833333333332,
              "duration": 0.015625
            },
            {
              "pitch": 62,
              "velocity": 82,
              "position": 28.760416666666668,
              "duration": 0.015625
            },
            {
              "pitch": 56,
              "velocity": 80,
              "position": 28.989583333333332,
              "duration": 0.015625
            },
            {
              "pitch": 62,
              "velocity": 82,
              "position": 29,
              "duration": 0.015625
            },
            {
              "pitch": 68,
              "velocity": 112,
              "position": 29.010416666666668,
              "duration": 0.015625
            },
            {
              "pitch": 75,
              "velocity": 114,
              "position": 29.010416666666668,
              "duration": 0.015625
            },
            {
              "pitch": 65,
              "velocity": 110,
              "position": 29.010416666666668,
              "duration": 0.015625
            },
            {
              "pitch": 56,
              "velocity": 64,
              "position": 29.25,
              "duration": 0.015625
            },
            {
              "pitch": 62,
              "velocity": 92,
              "position": 29.260416666666668,
              "duration": 0.015625
            },
            {
              "pitch": 65,
              "velocity": 110,
              "position": 29.260416666666668,
              "duration": 0.015625
            },
            {
              "pitch": 56,
              "velocity": 92,
              "position": 29.489583333333332,
              "duration": 0.026041666666666668
            },
            {
              "pitch": 64,
              "velocity": 110,
              "position": 29.5,
              "duration": 0.015625
            },
            {
              "pitch": 56,
              "velocity": 92,
              "position": 29.75,
              "duration": 0.026041666666666668
            },
            {
              "pitch": 64,
              "velocity": 90,
              "position": 29.760416666666668,
              "duration": 0.015625
            },
            {
              "pitch": 65,
              "velocity": 124,
              "position": 29.760416666666668,
              "duration": 0.015625
            },
            {
              "pitch": 68,
              "velocity": 112,
              "position": 30,
              "duration": 0.015625
            },
            {
              "pitch": 75,
              "velocity": 120,
              "position": 30.010416666666668,
              "duration": 0.015625
            },
            {
              "pitch": 62,
              "velocity": 82,
              "position": 30.010416666666668,
              "duration": 0.015625
            },
            {
              "pitch": 66,
              "velocity": 80,
              "position": 30.25,
              "duration": 0.015625
            },
            {
              "pitch": 56,
              "velocity": 90,
              "position": 30.260416666666668,
              "duration": 0.015625
            },
            {
              "pitch": 62,
              "velocity": 82,
              "position": 30.260416666666668,
              "duration": 0.015625
            },
            {
              "pitch": 66,
              "velocity": 76,
              "position": 30.489583333333332,
              "duration": 0.015625
            },
            {
              "pitch": 56,
              "velocity": 94,
              "position": 30.489583333333332,
              "duration": 0.026041666666666668
            },
            {
              "pitch": 62,
              "velocity": 110,
              "position": 30.5,
              "duration": 0.015625
            },
            {
              "pitch": 66,
              "velocity": 80,
              "position": 30.739583333333332,
              "duration": 0.015625
            },
            {
              "pitch": 56,
              "velocity": 94,
              "position": 30.75,
              "duration": 0.015625
            },
            {
              "pitch": 64,
              "velocity": 92,
              "position": 30.760416666666668,
              "duration": 0.015625
            },
            {
              "pitch": 75,
              "velocity": 112,
              "position": 30.760416666666668,
              "duration": 0.015625
            },
            {
              "pitch": 66,
              "velocity": 92,
              "position": 30.979166666666668,
              "duration": 0.015625
            },
            {
              "pitch": 68,
              "velocity": 112,
              "position": 31,
              "duration": 0.015625
            },
            {
              "pitch": 64,
              "velocity": 80,
              "position": 31,
              "duration": 0.015625
            },
            {
              "pitch": 56,
              "velocity": 110,
              "position": 31,
              "duration": 0.015625
            },
            {
              "pitch": 66,
              "velocity": 110,
              "position": 31.239583333333332,
              "duration": 0.015625
            },
            {
              "pitch": 62,
              "velocity": 82,
              "position": 31.25,
              "duration": 0.015625
            },
            {
              "pitch": 66,
              "velocity": 126,
              "position": 31.489583333333332,
              "duration": 0.015625
            },
            {
              "pitch": 64,
              "velocity": 110,
              "position": 31.5,
              "duration": 0.015625
            },
            {
              "pitch": 75,
              "velocity": 120,
              "position": 31.5,
              "duration": 0.015625
            },
            {
              "pitch": 56,
              "velocity": 92,
              "position": 31.5,
              "duration": 0.015625
            },
            {
              "pitch": 64,
              "velocity": 92,
              "position": 31.75,
              "duration": 0.015625
            },
            {
              "pitch": 56,
              "velocity": 94,
              "position": 31.75,
              "duration": 0.026041666666666668
            }
          ]
        },
        "12": {
          "ctab": {
            "srcChannel": 12,
            "name": "Aco.Bass",
            "accType": "BASS",
            "editable": false,
            "mutedNotes": [],
            "mutedChords": [],
            "autoStart": false,
            "sourceChordNote": 0,
            "sourceChordType": "Maj7",
            "ctb2Low": null,
            "ctb2Main": {
              "ntr": "ROOT_TRANSPOSITION",
              "ntt": "MELODY",
              "bassOn": true,
              "chordRootUpperLimit": 3,
              "noteLowLimit": 28,
              "noteHighLimit": 54,
              "rtr": "PITCH_SHIFT_TO_ROOT"
            },
            "ctb2High": null
          },
          "notes": [
            {
              "pitch": 36,
              "velocity": 118,
              "position": 0,
              "duration": 0.6354166666666666
            },
            {
              "pitch": 43,
              "velocity": 108,
              "position": 0.7604166666666666,
              "duration": 0.59375
            },
            {
              "pitch": 48,
              "velocity": 116,
              "position": 1.4895833333333333,
              "duration": 1.1354166666666667
            },
            {
              "pitch": 43,
              "velocity": 102,
              "position": 2.7604166666666665,
              "duration": 0.5833333333333334
            },
            {
              "pitch": 36,
              "velocity": 116,
              "position": 3.5,
              "duration": 1.125
            },
            {
              "pitch": 43,
              "velocity": 102,
              "position": 4.75,
              "duration": 0.65625
            },
            {
              "pitch": 48,
              "velocity": 116,
              "position": 5.489583333333333,
              "duration": 1.0625
            },
            {
              "pitch": 43,
              "velocity": 90,
              "position": 6.75,
              "duration": 0.1875
            },
            {
              "pitch": 43,
              "velocity": 116,
              "position": 7,
              "duration": 0.4375
            },
            {
              "pitch": 36,
              "velocity": 114,
              "position": 7.5,
              "duration": 1.1458333333333333
            },
            {
              "pitch": 43,
              "velocity": 116,
              "position": 8.760416666666666,
              "duration": 0.6041666666666666
            },
            {
              "pitch": 48,
              "velocity": 116,
              "position": 9.489583333333334,
              "duration": 1.1666666666666667
            },
            {
              "pitch": 43,
              "velocity": 102,
              "position": 10.760416666666666,
              "duration": 0.6041666666666666
            },
            {
              "pitch": 36,
              "velocity": 116,
              "position": 11.5,
              "duration": 1.125
            },
            {
              "pitch": 43,
              "velocity": 116,
              "position": 12.760416666666666,
              "duration": 0.6770833333333334
            },
            {
              "pitch": 48,
              "velocity": 116,
              "position": 13.5,
              "duration": 0.6979166666666666
            },
            {
              "pitch": 43,
              "velocity": 116,
              "position": 14.25,
              "duration": 0.17708333333333334
            },
            {
              "pitch": 43,
              "velocity": 116,
              "position": 14.489583333333334,
              "duration": 0.19791666666666666
            },
            {
              "pitch": 31,
              "velocity": 104,
              "position": 14.75,
              "duration": 0.6354166666666666
            },
            {
              "pitch": 36,
              "velocity": 116,
              "position": 15.489583333333334,
              "duration": 1.1875
            },
            {
              "pitch": 43,
              "velocity": 116,
              "position": 16.760416666666668,
              "duration": 0.5833333333333334
            },
            {
              "pitch": 48,
              "velocity": 116,
              "position": 17.489583333333332,
              "duration": 1.15625
            },
            {
              "pitch": 43,
              "velocity": 102,
              "position": 18.760416666666668,
              "duration": 0.5625
            },
            {
              "pitch": 36,
              "velocity": 102,
              "position": 19.489583333333332,
              "duration": 1.2083333333333333
            },
            {
              "pitch": 43,
              "velocity": 116,
              "position": 20.760416666666668,
              "duration": 0.5520833333333334
            },
            {
              "pitch": 48,
              "velocity": 126,
              "position": 21.489583333333332,
              "duration": 1.0416666666666667
            },
            {
              "pitch": 43,
              "velocity": 102,
              "position": 22.75,
              "duration": 0.17708333333333334
            },
            {
              "pitch": 43,
              "velocity": 114,
              "position": 23,
              "duration": 0.4270833333333333
            },
            {
              "pitch": 36,
              "velocity": 102,
              "position": 23.5,
              "duration": 1.125
            },
            {
              "pitch": 43,
              "velocity": 116,
              "position": 24.760416666666668,
              "duration": 0.5520833333333334
            },
            {
              "pitch": 48,
              "velocity": 116,
              "position": 25.489583333333332,
              "duration": 1.125
            },
            {
              "pitch": 43,
              "velocity": 102,
              "position": 26.760416666666668,
              "duration": 0.59375
            },
            {
              "pitch": 36,
              "velocity": 116,
              "position": 27.489583333333332,
              "duration": 1.15625
            },
            {
              "pitch": 43,
              "velocity": 116,
              "position": 28.760416666666668,
              "duration": 0.6458333333333334
            },
            {
              "pitch": 48,
              "velocity": 116,
              "position": 29.5,
              "duration": 1.1145833333333333
            },
            {
              "pitch": 43,
              "velocity": 116,
              "position": 30.75,
              "duration": 0.19791666666666666
            },
            {
              "pitch": 43,
              "velocity": 116,
              "position": 31,
              "duration": 0.4583333333333333
            },
            {
              "pitch": 31,
              "velocity": 114,
              "position": 31.5,
              "duration": 0.1875
            },
            {
              "pitch": 43,
              "velocity": 116,
              "position": 31.75,
              "duration": 0.21875
            }
          ]
        },
        "14": {
          "ctab": {
            "srcChannel": 14,
            "name": "GrandPno",
            "accType": "CHORD1",
            "editable": false,
            "mutedNotes": [],
            "mutedChords": [
              "7aug",
              "Maj7aug",
              "7(#9)",
              "7(b13)",
              "7(b9)",
              "7(13)",
              "7#11",
              "7(9)",
              "7b5",
              "7sus4",
              "7th",
              "dim7",
              "dim",
              "minMaj7(9)",
              "minMaj7",
              "min7(11)",
              "min7(9)",
              "min(9)",
              "m7b5",
              "min7",
              "min6",
              "min"
            ],
            "autoStart": false,
            "sourceChordNote": 0,
            "sourceChordType": "Maj7",
            "ctb2Low": null,
            "ctb2Main": {
              "ntr": "ROOT_TRANSPOSITION",
              "ntt": "CHORD",
              "bassOn": false,
              "chordRootUpperLimit": 6,
              "noteLowLimit": 0,
              "noteHighLimit": 79,
              "rtr": "PITCH_SHIFT"
            },
            "ctb2High": null
          },
          "notes": [
            {
              "pitch": 83,
              "velocity": 104,
              "position": 0,
              "duration": 0.3333333333333333
            },
            {
              "pitch": 71,
              "velocity": 110,
              "position": 0,
              "duration": 0.3541666666666667
            },
            {
              "pitch": 59,
              "velocity": 92,
              "position": 0,
              "duration": 0.3541666666666667
            },
            {
              "pitch": 76,
              "velocity": 80,
              "position": 0.5,
              "duration": 0.5729166666666666
            },
            {
              "pitch": 64,
              "velocity": 94,
              "position": 0.5,
              "duration": 0.6145833333333334
            },
            {
              "pitch": 79,
              "velocity": 94,
              "position": 0.5,
              "duration": 0.6145833333333334
            },
            {
              "pitch": 67,
              "velocity": 84,
              "position": 0.4895833333333333,
              "duration": 0.6354166666666666
            },
            {
              "pitch": 59,
              "velocity": 88,
              "position": 1.2604166666666667,
              "duration": 0.3541666666666667
            },
            {
              "pitch": 83,
              "velocity": 88,
              "position": 1.2604166666666667,
              "duration": 0.3958333333333333
            },
            {
              "pitch": 71,
              "velocity": 94,
              "position": 1.2604166666666667,
              "duration": 0.3958333333333333
            },
            {
              "pitch": 81,
              "velocity": 110,
              "position": 1.7604166666666667,
              "duration": 0.3333333333333333
            },
            {
              "pitch": 69,
              "velocity": 88,
              "position": 1.7604166666666667,
              "duration": 0.3958333333333333
            },
            {
              "pitch": 57,
              "velocity": 110,
              "position": 1.7604166666666667,
              "duration": 0.4270833333333333
            },
            {
              "pitch": 64,
              "velocity": 90,
              "position": 2.2604166666666665,
              "duration": 0.3854166666666667
            },
            {
              "pitch": 67,
              "velocity": 80,
              "position": 2.2604166666666665,
              "duration": 0.4479166666666667
            },
            {
              "pitch": 76,
              "velocity": 80,
              "position": 2.2604166666666665,
              "duration": 0.4583333333333333
            },
            {
              "pitch": 79,
              "velocity": 104,
              "position": 2.2604166666666665,
              "duration": 0.4895833333333333
            },
            {
              "pitch": 81,
              "velocity": 88,
              "position": 2.7604166666666665,
              "duration": 0.3541666666666667
            },
            {
              "pitch": 69,
              "velocity": 90,
              "position": 2.7604166666666665,
              "duration": 0.3958333333333333
            },
            {
              "pitch": 57,
              "velocity": 88,
              "position": 2.75,
              "duration": 0.4270833333333333
            },
            {
              "pitch": 64,
              "velocity": 92,
              "position": 3.2604166666666665,
              "duration": 0.375
            },
            {
              "pitch": 67,
              "velocity": 80,
              "position": 3.2604166666666665,
              "duration": 0.4270833333333333
            },
            {
              "pitch": 76,
              "velocity": 80,
              "position": 3.2604166666666665,
              "duration": 0.4270833333333333
            },
            {
              "pitch": 79,
              "velocity": 92,
              "position": 3.2604166666666665,
              "duration": 0.4375
            },
            {
              "pitch": 57,
              "velocity": 88,
              "position": 3.75,
              "duration": 0.17708333333333334
            },
            {
              "pitch": 81,
              "velocity": 72,
              "position": 3.75,
              "duration": 0.19791666666666666
            },
            {
              "pitch": 69,
              "velocity": 88,
              "position": 3.75,
              "duration": 0.19791666666666666
            },
            {
              "pitch": 83,
              "velocity": 94,
              "position": 4,
              "duration": 0.3541666666666667
            },
            {
              "pitch": 71,
              "velocity": 124,
              "position": 4,
              "duration": 0.40625
            },
            {
              "pitch": 59,
              "velocity": 104,
              "position": 4,
              "duration": 0.4166666666666667
            },
            {
              "pitch": 76,
              "velocity": 80,
              "position": 4.5,
              "duration": 0.19791666666666666
            },
            {
              "pitch": 64,
              "velocity": 80,
              "position": 4.5,
              "duration": 0.19791666666666666
            },
            {
              "pitch": 67,
              "velocity": 78,
              "position": 4.489583333333333,
              "duration": 0.22916666666666666
            },
            {
              "pitch": 79,
              "velocity": 80,
              "position": 4.5,
              "duration": 0.21875
            },
            {
              "pitch": 83,
              "velocity": 88,
              "position": 4.760416666666667,
              "duration": 0.3854166666666667
            },
            {
              "pitch": 71,
              "velocity": 104,
              "position": 4.760416666666667,
              "duration": 0.3854166666666667
            },
            {
              "pitch": 59,
              "velocity": 104,
              "position": 4.760416666666667,
              "duration": 0.4375
            },
            {
              "pitch": 64,
              "velocity": 94,
              "position": 5.260416666666667,
              "duration": 0.40625
            },
            {
              "pitch": 67,
              "velocity": 110,
              "position": 5.25,
              "duration": 0.4375
            },
            {
              "pitch": 79,
              "velocity": 92,
              "position": 5.260416666666667,
              "duration": 0.4375
            },
            {
              "pitch": 76,
              "velocity": 70,
              "position": 5.260416666666667,
              "duration": 0.46875
            },
            {
              "pitch": 81,
              "velocity": 94,
              "position": 5.75,
              "duration": 0.3645833333333333
            },
            {
              "pitch": 57,
              "velocity": 88,
              "position": 5.75,
              "duration": 0.3958333333333333
            },
            {
              "pitch": 69,
              "velocity": 104,
              "position": 5.75,
              "duration": 0.4166666666666667
            },
            {
              "pitch": 67,
              "velocity": 80,
              "position": 6.25,
              "duration": 0.4270833333333333
            },
            {
              "pitch": 64,
              "velocity": 80,
              "position": 6.25,
              "duration": 0.4270833333333333
            },
            {
              "pitch": 76,
              "velocity": 94,
              "position": 6.25,
              "duration": 0.4479166666666667
            },
            {
              "pitch": 79,
              "velocity": 90,
              "position": 6.25,
              "duration": 0.4791666666666667
            },
            {
              "pitch": 81,
              "velocity": 110,
              "position": 6.75,
              "duration": 0.375
            },
            {
              "pitch": 57,
              "velocity": 84,
              "position": 6.75,
              "duration": 0.3854166666666667
            },
            {
              "pitch": 69,
              "velocity": 90,
              "position": 6.75,
              "duration": 0.4270833333333333
            },
            {
              "pitch": 64,
              "velocity": 92,
              "position": 7.25,
              "duration": 0.1875
            },
            {
              "pitch": 76,
              "velocity": 90,
              "position": 7.25,
              "duration": 0.19791666666666666
            },
            {
              "pitch": 79,
              "velocity": 80,
              "position": 7.5,
              "duration": 0.1875
            },
            {
              "pitch": 67,
              "velocity": 90,
              "position": 7.489583333333333,
              "duration": 0.20833333333333334
            },
            {
              "pitch": 69,
              "velocity": 104,
              "position": 7.75,
              "duration": 0.16666666666666666
            },
            {
              "pitch": 81,
              "velocity": 90,
              "position": 7.739583333333333,
              "duration": 0.1875
            },
            {
              "pitch": 57,
              "velocity": 88,
              "position": 7.75,
              "duration": 0.1875
            },
            {
              "pitch": 83,
              "velocity": 104,
              "position": 8,
              "duration": 0.3333333333333333
            },
            {
              "pitch": 71,
              "velocity": 110,
              "position": 8,
              "duration": 0.3541666666666667
            },
            {
              "pitch": 59,
              "velocity": 92,
              "position": 8,
              "duration": 0.3541666666666667
            },
            {
              "pitch": 76,
              "velocity": 80,
              "position": 8.5,
              "duration": 0.5729166666666666
            },
            {
              "pitch": 64,
              "velocity": 94,
              "position": 8.5,
              "duration": 0.6145833333333334
            },
            {
              "pitch": 79,
              "velocity": 94,
              "position": 8.5,
              "duration": 0.6145833333333334
            },
            {
              "pitch": 67,
              "velocity": 84,
              "position": 8.489583333333334,
              "duration": 0.6354166666666666
            },
            {
              "pitch": 59,
              "velocity": 88,
              "position": 9.260416666666666,
              "duration": 0.3541666666666667
            },
            {
              "pitch": 83,
              "velocity": 88,
              "position": 9.260416666666666,
              "duration": 0.3958333333333333
            },
            {
              "pitch": 71,
              "velocity": 94,
              "position": 9.260416666666666,
              "duration": 0.3958333333333333
            },
            {
              "pitch": 81,
              "velocity": 110,
              "position": 9.760416666666666,
              "duration": 0.3333333333333333
            },
            {
              "pitch": 69,
              "velocity": 88,
              "position": 9.760416666666666,
              "duration": 0.3958333333333333
            },
            {
              "pitch": 57,
              "velocity": 110,
              "position": 9.760416666666666,
              "duration": 0.4270833333333333
            },
            {
              "pitch": 64,
              "velocity": 90,
              "position": 10.260416666666666,
              "duration": 0.3854166666666667
            },
            {
              "pitch": 67,
              "velocity": 80,
              "position": 10.260416666666666,
              "duration": 0.4479166666666667
            },
            {
              "pitch": 76,
              "velocity": 80,
              "position": 10.260416666666666,
              "duration": 0.4583333333333333
            },
            {
              "pitch": 79,
              "velocity": 104,
              "position": 10.260416666666666,
              "duration": 0.4895833333333333
            },
            {
              "pitch": 81,
              "velocity": 88,
              "position": 10.760416666666666,
              "duration": 0.3541666666666667
            },
            {
              "pitch": 69,
              "velocity": 90,
              "position": 10.760416666666666,
              "duration": 0.3958333333333333
            },
            {
              "pitch": 57,
              "velocity": 88,
              "position": 10.75,
              "duration": 0.4270833333333333
            },
            {
              "pitch": 64,
              "velocity": 92,
              "position": 11.260416666666666,
              "duration": 0.375
            },
            {
              "pitch": 67,
              "velocity": 80,
              "position": 11.260416666666666,
              "duration": 0.4270833333333333
            },
            {
              "pitch": 76,
              "velocity": 80,
              "position": 11.260416666666666,
              "duration": 0.4270833333333333
            },
            {
              "pitch": 79,
              "velocity": 92,
              "position": 11.260416666666666,
              "duration": 0.4375
            },
            {
              "pitch": 57,
              "velocity": 88,
              "position": 11.75,
              "duration": 0.17708333333333334
            },
            {
              "pitch": 81,
              "velocity": 72,
              "position": 11.75,
              "duration": 0.19791666666666666
            },
            {
              "pitch": 69,
              "velocity": 88,
              "position": 11.75,
              "duration": 0.19791666666666666
            },
            {
              "pitch": 83,
              "velocity": 94,
              "position": 12,
              "duration": 0.3541666666666667
            },
            {
              "pitch": 71,
              "velocity": 124,
              "position": 12,
              "duration": 0.40625
            },
            {
              "pitch": 59,
              "velocity": 104,
              "position": 12,
              "duration": 0.4166666666666667
            },
            {
              "pitch": 76,
              "velocity": 80,
              "position": 12.5,
              "duration": 0.19791666666666666
            },
            {
              "pitch": 64,
              "velocity": 80,
              "position": 12.5,
              "duration": 0.19791666666666666
            },
            {
              "pitch": 67,
              "velocity": 78,
              "position": 12.489583333333334,
              "duration": 0.22916666666666666
            },
            {
              "pitch": 79,
              "velocity": 80,
              "position": 12.5,
              "duration": 0.21875
            },
            {
              "pitch": 83,
              "velocity": 88,
              "position": 12.760416666666666,
              "duration": 0.3854166666666667
            },
            {
              "pitch": 71,
              "velocity": 104,
              "position": 12.760416666666666,
              "duration": 0.3854166666666667
            },
            {
              "pitch": 59,
              "velocity": 104,
              "position": 12.760416666666666,
              "duration": 0.4375
            },
            {
              "pitch": 64,
              "velocity": 94,
              "position": 13.260416666666666,
              "duration": 0.40625
            },
            {
              "pitch": 67,
              "velocity": 110,
              "position": 13.25,
              "duration": 0.4375
            },
            {
              "pitch": 79,
              "velocity": 92,
              "position": 13.260416666666666,
              "duration": 0.4375
            },
            {
              "pitch": 76,
              "velocity": 70,
              "position": 13.260416666666666,
              "duration": 0.46875
            },
            {
              "pitch": 81,
              "velocity": 94,
              "position": 13.75,
              "duration": 0.3645833333333333
            },
            {
              "pitch": 57,
              "velocity": 88,
              "position": 13.75,
              "duration": 0.3958333333333333
            },
            {
              "pitch": 69,
              "velocity": 104,
              "position": 13.75,
              "duration": 0.4166666666666667
            },
            {
              "pitch": 67,
              "velocity": 80,
              "position": 14.25,
              "duration": 0.4270833333333333
            },
            {
              "pitch": 64,
              "velocity": 80,
              "position": 14.25,
              "duration": 0.4270833333333333
            },
            {
              "pitch": 76,
              "velocity": 94,
              "position": 14.25,
              "duration": 0.4479166666666667
            },
            {
              "pitch": 79,
              "velocity": 90,
              "position": 14.25,
              "duration": 0.4791666666666667
            },
            {
              "pitch": 81,
              "velocity": 110,
              "position": 14.75,
              "duration": 0.375
            },
            {
              "pitch": 57,
              "velocity": 84,
              "position": 14.75,
              "duration": 0.3854166666666667
            },
            {
              "pitch": 69,
              "velocity": 90,
              "position": 14.75,
              "duration": 0.4270833333333333
            },
            {
              "pitch": 64,
              "velocity": 92,
              "position": 15.25,
              "duration": 0.1875
            },
            {
              "pitch": 76,
              "velocity": 90,
              "position": 15.25,
              "duration": 0.19791666666666666
            },
            {
              "pitch": 79,
              "velocity": 80,
              "position": 15.5,
              "duration": 0.1875
            },
            {
              "pitch": 67,
              "velocity": 90,
              "position": 15.489583333333334,
              "duration": 0.20833333333333334
            },
            {
              "pitch": 69,
              "velocity": 104,
              "position": 15.75,
              "duration": 0.16666666666666666
            },
            {
              "pitch": 81,
              "velocity": 90,
              "position": 15.739583333333334,
              "duration": 0.1875
            },
            {
              "pitch": 57,
              "velocity": 88,
              "position": 15.75,
              "duration": 0.1875
            },
            {
              "pitch": 83,
              "velocity": 104,
              "position": 16,
              "duration": 0.3333333333333333
            },
            {
              "pitch": 71,
              "velocity": 110,
              "position": 16,
              "duration": 0.3541666666666667
            },
            {
              "pitch": 59,
              "velocity": 92,
              "position": 16,
              "duration": 0.3541666666666667
            },
            {
              "pitch": 76,
              "velocity": 80,
              "position": 16.5,
              "duration": 0.5729166666666666
            },
            {
              "pitch": 64,
              "velocity": 94,
              "position": 16.5,
              "duration": 0.6145833333333334
            },
            {
              "pitch": 79,
              "velocity": 94,
              "position": 16.5,
              "duration": 0.6145833333333334
            },
            {
              "pitch": 67,
              "velocity": 84,
              "position": 16.489583333333332,
              "duration": 0.6354166666666666
            },
            {
              "pitch": 59,
              "velocity": 88,
              "position": 17.260416666666668,
              "duration": 0.3541666666666667
            },
            {
              "pitch": 83,
              "velocity": 88,
              "position": 17.260416666666668,
              "duration": 0.3958333333333333
            },
            {
              "pitch": 71,
              "velocity": 94,
              "position": 17.260416666666668,
              "duration": 0.3958333333333333
            },
            {
              "pitch": 81,
              "velocity": 110,
              "position": 17.760416666666668,
              "duration": 0.3333333333333333
            },
            {
              "pitch": 69,
              "velocity": 88,
              "position": 17.760416666666668,
              "duration": 0.3958333333333333
            },
            {
              "pitch": 57,
              "velocity": 110,
              "position": 17.760416666666668,
              "duration": 0.4270833333333333
            },
            {
              "pitch": 64,
              "velocity": 90,
              "position": 18.260416666666668,
              "duration": 0.3854166666666667
            },
            {
              "pitch": 67,
              "velocity": 80,
              "position": 18.260416666666668,
              "duration": 0.4479166666666667
            },
            {
              "pitch": 76,
              "velocity": 80,
              "position": 18.260416666666668,
              "duration": 0.4583333333333333
            },
            {
              "pitch": 79,
              "velocity": 104,
              "position": 18.260416666666668,
              "duration": 0.4895833333333333
            },
            {
              "pitch": 81,
              "velocity": 88,
              "position": 18.760416666666668,
              "duration": 0.3541666666666667
            },
            {
              "pitch": 69,
              "velocity": 90,
              "position": 18.760416666666668,
              "duration": 0.3958333333333333
            },
            {
              "pitch": 57,
              "velocity": 88,
              "position": 18.75,
              "duration": 0.4270833333333333
            },
            {
              "pitch": 64,
              "velocity": 92,
              "position": 19.260416666666668,
              "duration": 0.375
            },
            {
              "pitch": 67,
              "velocity": 80,
              "position": 19.260416666666668,
              "duration": 0.4270833333333333
            },
            {
              "pitch": 76,
              "velocity": 80,
              "position": 19.260416666666668,
              "duration": 0.4270833333333333
            },
            {
              "pitch": 79,
              "velocity": 92,
              "position": 19.260416666666668,
              "duration": 0.4375
            },
            {
              "pitch": 57,
              "velocity": 88,
              "position": 19.75,
              "duration": 0.17708333333333334
            },
            {
              "pitch": 81,
              "velocity": 72,
              "position": 19.75,
              "duration": 0.19791666666666666
            },
            {
              "pitch": 69,
              "velocity": 88,
              "position": 19.75,
              "duration": 0.19791666666666666
            },
            {
              "pitch": 83,
              "velocity": 94,
              "position": 20,
              "duration": 0.3541666666666667
            },
            {
              "pitch": 71,
              "velocity": 124,
              "position": 20,
              "duration": 0.40625
            },
            {
              "pitch": 59,
              "velocity": 104,
              "position": 20,
              "duration": 0.4166666666666667
            },
            {
              "pitch": 76,
              "velocity": 80,
              "position": 20.5,
              "duration": 0.19791666666666666
            },
            {
              "pitch": 64,
              "velocity": 80,
              "position": 20.5,
              "duration": 0.19791666666666666
            },
            {
              "pitch": 67,
              "velocity": 78,
              "position": 20.489583333333332,
              "duration": 0.22916666666666666
            },
            {
              "pitch": 79,
              "velocity": 80,
              "position": 20.5,
              "duration": 0.21875
            },
            {
              "pitch": 83,
              "velocity": 88,
              "position": 20.760416666666668,
              "duration": 0.3854166666666667
            },
            {
              "pitch": 71,
              "velocity": 104,
              "position": 20.760416666666668,
              "duration": 0.3854166666666667
            },
            {
              "pitch": 59,
              "velocity": 104,
              "position": 20.760416666666668,
              "duration": 0.4375
            },
            {
              "pitch": 64,
              "velocity": 94,
              "position": 21.260416666666668,
              "duration": 0.40625
            },
            {
              "pitch": 67,
              "velocity": 110,
              "position": 21.25,
              "duration": 0.4375
            },
            {
              "pitch": 79,
              "velocity": 92,
              "position": 21.260416666666668,
              "duration": 0.4375
            },
            {
              "pitch": 76,
              "velocity": 70,
              "position": 21.260416666666668,
              "duration": 0.46875
            },
            {
              "pitch": 81,
              "velocity": 94,
              "position": 21.75,
              "duration": 0.3645833333333333
            },
            {
              "pitch": 57,
              "velocity": 88,
              "position": 21.75,
              "duration": 0.3958333333333333
            },
            {
              "pitch": 69,
              "velocity": 104,
              "position": 21.75,
              "duration": 0.4166666666666667
            },
            {
              "pitch": 67,
              "velocity": 80,
              "position": 22.25,
              "duration": 0.4270833333333333
            },
            {
              "pitch": 64,
              "velocity": 80,
              "position": 22.25,
              "duration": 0.4270833333333333
            },
            {
              "pitch": 76,
              "velocity": 94,
              "position": 22.25,
              "duration": 0.4479166666666667
            },
            {
              "pitch": 79,
              "velocity": 90,
              "position": 22.25,
              "duration": 0.4791666666666667
            },
            {
              "pitch": 81,
              "velocity": 110,
              "position": 22.75,
              "duration": 0.375
            },
            {
              "pitch": 57,
              "velocity": 84,
              "position": 22.75,
              "duration": 0.3854166666666667
            },
            {
              "pitch": 69,
              "velocity": 90,
              "position": 22.75,
              "duration": 0.4270833333333333
            },
            {
              "pitch": 64,
              "velocity": 92,
              "position": 23.25,
              "duration": 0.1875
            },
            {
              "pitch": 76,
              "velocity": 90,
              "position": 23.25,
              "duration": 0.19791666666666666
            },
            {
              "pitch": 79,
              "velocity": 80,
              "position": 23.5,
              "duration": 0.1875
            },
            {
              "pitch": 67,
              "velocity": 90,
              "position": 23.489583333333332,
              "duration": 0.20833333333333334
            },
            {
              "pitch": 69,
              "velocity": 104,
              "position": 23.75,
              "duration": 0.16666666666666666
            },
            {
              "pitch": 81,
              "velocity": 90,
              "position": 23.739583333333332,
              "duration": 0.1875
            },
            {
              "pitch": 57,
              "velocity": 88,
              "position": 23.75,
              "duration": 0.1875
            },
            {
              "pitch": 83,
              "velocity": 104,
              "position": 24,
              "duration": 0.3333333333333333
            },
            {
              "pitch": 71,
              "velocity": 110,
              "position": 24,
              "duration": 0.3541666666666667
            },
            {
              "pitch": 59,
              "velocity": 92,
              "position": 24,
              "duration": 0.3541666666666667
            },
            {
              "pitch": 76,
              "velocity": 80,
              "position": 24.5,
              "duration": 0.5729166666666666
            },
            {
              "pitch": 64,
              "velocity": 94,
              "position": 24.5,
              "duration": 0.6145833333333334
            },
            {
              "pitch": 79,
              "velocity": 94,
              "position": 24.5,
              "duration": 0.6145833333333334
            },
            {
              "pitch": 67,
              "velocity": 84,
              "position": 24.489583333333332,
              "duration": 0.6354166666666666
            },
            {
              "pitch": 59,
              "velocity": 88,
              "position": 25.260416666666668,
              "duration": 0.3541666666666667
            },
            {
              "pitch": 83,
              "velocity": 88,
              "position": 25.260416666666668,
              "duration": 0.3958333333333333
            },
            {
              "pitch": 71,
              "velocity": 94,
              "position": 25.260416666666668,
              "duration": 0.3958333333333333
            },
            {
              "pitch": 81,
              "velocity": 110,
              "position": 25.760416666666668,
              "duration": 0.3333333333333333
            },
            {
              "pitch": 69,
              "velocity": 88,
              "position": 25.760416666666668,
              "duration": 0.3958333333333333
            },
            {
              "pitch": 57,
              "velocity": 110,
              "position": 25.760416666666668,
              "duration": 0.4270833333333333
            },
            {
              "pitch": 64,
              "velocity": 90,
              "position": 26.260416666666668,
              "duration": 0.3854166666666667
            },
            {
              "pitch": 67,
              "velocity": 80,
              "position": 26.260416666666668,
              "duration": 0.4479166666666667
            },
            {
              "pitch": 76,
              "velocity": 80,
              "position": 26.260416666666668,
              "duration": 0.4583333333333333
            },
            {
              "pitch": 79,
              "velocity": 104,
              "position": 26.260416666666668,
              "duration": 0.4895833333333333
            },
            {
              "pitch": 81,
              "velocity": 88,
              "position": 26.760416666666668,
              "duration": 0.3541666666666667
            },
            {
              "pitch": 69,
              "velocity": 90,
              "position": 26.760416666666668,
              "duration": 0.3958333333333333
            },
            {
              "pitch": 57,
              "velocity": 88,
              "position": 26.75,
              "duration": 0.4270833333333333
            },
            {
              "pitch": 64,
              "velocity": 92,
              "position": 27.260416666666668,
              "duration": 0.375
            },
            {
              "pitch": 67,
              "velocity": 80,
              "position": 27.260416666666668,
              "duration": 0.4270833333333333
            },
            {
              "pitch": 76,
              "velocity": 80,
              "position": 27.260416666666668,
              "duration": 0.4270833333333333
            },
            {
              "pitch": 79,
              "velocity": 92,
              "position": 27.260416666666668,
              "duration": 0.4375
            },
            {
              "pitch": 57,
              "velocity": 88,
              "position": 27.75,
              "duration": 0.17708333333333334
            },
            {
              "pitch": 81,
              "velocity": 72,
              "position": 27.75,
              "duration": 0.19791666666666666
            },
            {
              "pitch": 69,
              "velocity": 88,
              "position": 27.75,
              "duration": 0.19791666666666666
            },
            {
              "pitch": 83,
              "velocity": 94,
              "position": 28,
              "duration": 0.3541666666666667
            },
            {
              "pitch": 71,
              "velocity": 124,
              "position": 28,
              "duration": 0.40625
            },
            {
              "pitch": 59,
              "velocity": 104,
              "position": 28,
              "duration": 0.4166666666666667
            },
            {
              "pitch": 76,
              "velocity": 80,
              "position": 28.5,
              "duration": 0.19791666666666666
            },
            {
              "pitch": 64,
              "velocity": 80,
              "position": 28.5,
              "duration": 0.19791666666666666
            },
            {
              "pitch": 67,
              "velocity": 78,
              "position": 28.489583333333332,
              "duration": 0.22916666666666666
            },
            {
              "pitch": 79,
              "velocity": 80,
              "position": 28.5,
              "duration": 0.21875
            },
            {
              "pitch": 83,
              "velocity": 88,
              "position": 28.760416666666668,
              "duration": 0.3854166666666667
            },
            {
              "pitch": 71,
              "velocity": 104,
              "position": 28.760416666666668,
              "duration": 0.3854166666666667
            },
            {
              "pitch": 59,
              "velocity": 104,
              "position": 28.760416666666668,
              "duration": 0.4375
            },
            {
              "pitch": 64,
              "velocity": 94,
              "position": 29.260416666666668,
              "duration": 0.40625
            },
            {
              "pitch": 67,
              "velocity": 110,
              "position": 29.25,
              "duration": 0.4375
            },
            {
              "pitch": 79,
              "velocity": 92,
              "position": 29.260416666666668,
              "duration": 0.4375
            },
            {
              "pitch": 76,
              "velocity": 70,
              "position": 29.260416666666668,
              "duration": 0.46875
            },
            {
              "pitch": 81,
              "velocity": 94,
              "position": 29.75,
              "duration": 0.3645833333333333
            },
            {
              "pitch": 57,
              "velocity": 88,
              "position": 29.75,
              "duration": 0.3958333333333333
            },
            {
              "pitch": 69,
              "velocity": 104,
              "position": 29.75,
              "duration": 0.4166666666666667
            },
            {
              "pitch": 67,
              "velocity": 80,
              "position": 30.25,
              "duration": 0.4270833333333333
            },
            {
              "pitch": 64,
              "velocity": 80,
              "position": 30.25,
              "duration": 0.4270833333333333
            },
            {
              "pitch": 76,
              "velocity": 94,
              "position": 30.25,
              "duration": 0.4479166666666667
            },
            {
              "pitch": 79,
              "velocity": 90,
              "position": 30.25,
              "duration": 0.4791666666666667
            },
            {
              "pitch": 81,
              "velocity": 110,
              "position": 30.75,
              "duration": 0.375
            },
            {
              "pitch": 57,
              "velocity": 84,
              "position": 30.75,
              "duration": 0.3854166666666667
            },
            {
              "pitch": 69,
              "velocity": 90,
              "position": 30.75,
              "duration": 0.4270833333333333
            },
            {
              "pitch": 64,
              "velocity": 92,
              "position": 31.25,
              "duration": 0.1875
            },
            {
              "pitch": 76,
              "velocity": 90,
              "position": 31.25,
              "duration": 0.19791666666666666
            },
            {
              "pitch": 79,
              "velocity": 80,
              "position": 31.5,
              "duration": 0.1875
            },
            {
              "pitch": 67,
              "velocity": 90,
              "position": 31.489583333333332,
              "duration": 0.20833333333333334
            },
            {
              "pitch": 69,
              "velocity": 104,
              "position": 31.75,
              "duration": 0.16666666666666666
            },
            {
              "pitch": 81,
              "velocity": 90,
              "position": 31.739583333333332,
              "duration": 0.1875
            },
            {
              "pitch": 57,
              "velocity": 88,
              "position": 31.75,
              "duration": 0.1875
            }
          ]
        },
        "15": {
          "ctab": {
            "srcChannel": 15,
            "name": "GrandPno",
            "accType": "CHORD1",
            "editable": false,
            "mutedNotes": [],
            "mutedChords": [
              "1+2+5",
              "sus4",
              "1+5",
              "1+8",
              "7aug",
              "Maj7aug",
              "7(#9)",
              "7(b13)",
              "7(b9)",
              "7(13)",
              "7#11",
              "7(9)",
              "7b5",
              "7sus4",
              "7th",
              "aug",
              "Maj6(9)",
              "Maj7(9)",
              "Maj(9)",
              "Maj7#11",
              "Maj7",
              "Maj6",
              "Maj"
            ],
            "autoStart": false,
            "sourceChordNote": 0,
            "sourceChordType": "minMaj7",
            "ctb2Low": null,
            "ctb2Main": {
              "ntr": "ROOT_FIXED",
              "ntt": "CHORD",
              "bassOn": false,
              "chordRootUpperLimit": 6,
              "noteLowLimit": 0,
              "noteHighLimit": 79,
              "rtr": "PITCH_SHIFT"
            },
            "ctb2High": null
          },
          "notes": [
            {
              "pitch": 83,
              "velocity": 104,
              "position": 0,
              "duration": 0.3333333333333333
            },
            {
              "pitch": 71,
              "velocity": 110,
              "position": 0,
              "duration": 0.3541666666666667
            },
            {
              "pitch": 59,
              "velocity": 92,
              "position": 0,
              "duration": 0.3541666666666667
            },
            {
              "pitch": 75,
              "velocity": 80,
              "position": 0.5,
              "duration": 0.5729166666666666
            },
            {
              "pitch": 63,
              "velocity": 94,
              "position": 0.5,
              "duration": 0.6145833333333334
            },
            {
              "pitch": 79,
              "velocity": 94,
              "position": 0.5,
              "duration": 0.6145833333333334
            },
            {
              "pitch": 67,
              "velocity": 84,
              "position": 0.4895833333333333,
              "duration": 0.6354166666666666
            },
            {
              "pitch": 59,
              "velocity": 88,
              "position": 1.2604166666666667,
              "duration": 0.3541666666666667
            },
            {
              "pitch": 83,
              "velocity": 88,
              "position": 1.2604166666666667,
              "duration": 0.3958333333333333
            },
            {
              "pitch": 71,
              "velocity": 94,
              "position": 1.2604166666666667,
              "duration": 0.3958333333333333
            },
            {
              "pitch": 83,
              "velocity": 110,
              "position": 1.7604166666666667,
              "duration": 0.3333333333333333
            },
            {
              "pitch": 71,
              "velocity": 88,
              "position": 1.7604166666666667,
              "duration": 0.3958333333333333
            },
            {
              "pitch": 59,
              "velocity": 110,
              "position": 1.7604166666666667,
              "duration": 0.4270833333333333
            },
            {
              "pitch": 63,
              "velocity": 90,
              "position": 2.2604166666666665,
              "duration": 0.3854166666666667
            },
            {
              "pitch": 67,
              "velocity": 80,
              "position": 2.2604166666666665,
              "duration": 0.4479166666666667
            },
            {
              "pitch": 75,
              "velocity": 80,
              "position": 2.2604166666666665,
              "duration": 0.4583333333333333
            },
            {
              "pitch": 79,
              "velocity": 104,
              "position": 2.2604166666666665,
              "duration": 0.4895833333333333
            },
            {
              "pitch": 83,
              "velocity": 88,
              "position": 2.7604166666666665,
              "duration": 0.3541666666666667
            },
            {
              "pitch": 71,
              "velocity": 90,
              "position": 2.7604166666666665,
              "duration": 0.3958333333333333
            },
            {
              "pitch": 59,
              "velocity": 88,
              "position": 2.75,
              "duration": 0.4270833333333333
            },
            {
              "pitch": 63,
              "velocity": 92,
              "position": 3.2604166666666665,
              "duration": 0.375
            },
            {
              "pitch": 67,
              "velocity": 80,
              "position": 3.2604166666666665,
              "duration": 0.4270833333333333
            },
            {
              "pitch": 75,
              "velocity": 80,
              "position": 3.2604166666666665,
              "duration": 0.4270833333333333
            },
            {
              "pitch": 79,
              "velocity": 92,
              "position": 3.2604166666666665,
              "duration": 0.4375
            },
            {
              "pitch": 59,
              "velocity": 88,
              "position": 3.75,
              "duration": 0.17708333333333334
            },
            {
              "pitch": 83,
              "velocity": 72,
              "position": 3.75,
              "duration": 0.19791666666666666
            },
            {
              "pitch": 71,
              "velocity": 88,
              "position": 3.75,
              "duration": 0.19791666666666666
            },
            {
              "pitch": 83,
              "velocity": 94,
              "position": 4,
              "duration": 0.3541666666666667
            },
            {
              "pitch": 71,
              "velocity": 124,
              "position": 4,
              "duration": 0.40625
            },
            {
              "pitch": 59,
              "velocity": 104,
              "position": 4,
              "duration": 0.4166666666666667
            },
            {
              "pitch": 75,
              "velocity": 80,
              "position": 4.5,
              "duration": 0.19791666666666666
            },
            {
              "pitch": 63,
              "velocity": 80,
              "position": 4.5,
              "duration": 0.19791666666666666
            },
            {
              "pitch": 67,
              "velocity": 78,
              "position": 4.489583333333333,
              "duration": 0.22916666666666666
            },
            {
              "pitch": 79,
              "velocity": 80,
              "position": 4.5,
              "duration": 0.21875
            },
            {
              "pitch": 83,
              "velocity": 88,
              "position": 4.760416666666667,
              "duration": 0.3854166666666667
            },
            {
              "pitch": 71,
              "velocity": 104,
              "position": 4.760416666666667,
              "duration": 0.3854166666666667
            },
            {
              "pitch": 59,
              "velocity": 104,
              "position": 4.760416666666667,
              "duration": 0.4375
            },
            {
              "pitch": 63,
              "velocity": 94,
              "position": 5.260416666666667,
              "duration": 0.40625
            },
            {
              "pitch": 67,
              "velocity": 110,
              "position": 5.25,
              "duration": 0.4375
            },
            {
              "pitch": 79,
              "velocity": 92,
              "position": 5.260416666666667,
              "duration": 0.4375
            },
            {
              "pitch": 75,
              "velocity": 70,
              "position": 5.260416666666667,
              "duration": 0.46875
            },
            {
              "pitch": 83,
              "velocity": 94,
              "position": 5.75,
              "duration": 0.3645833333333333
            },
            {
              "pitch": 59,
              "velocity": 88,
              "position": 5.75,
              "duration": 0.3958333333333333
            },
            {
              "pitch": 71,
              "velocity": 104,
              "position": 5.75,
              "duration": 0.4166666666666667
            },
            {
              "pitch": 67,
              "velocity": 80,
              "position": 6.25,
              "duration": 0.4270833333333333
            },
            {
              "pitch": 63,
              "velocity": 80,
              "position": 6.25,
              "duration": 0.4270833333333333
            },
            {
              "pitch": 75,
              "velocity": 94,
              "position": 6.25,
              "duration": 0.4479166666666667
            },
            {
              "pitch": 79,
              "velocity": 90,
              "position": 6.25,
              "duration": 0.4791666666666667
            },
            {
              "pitch": 83,
              "velocity": 110,
              "position": 6.75,
              "duration": 0.375
            },
            {
              "pitch": 59,
              "velocity": 84,
              "position": 6.75,
              "duration": 0.3854166666666667
            },
            {
              "pitch": 71,
              "velocity": 90,
              "position": 6.75,
              "duration": 0.4270833333333333
            },
            {
              "pitch": 63,
              "velocity": 92,
              "position": 7.25,
              "duration": 0.1875
            },
            {
              "pitch": 75,
              "velocity": 90,
              "position": 7.25,
              "duration": 0.19791666666666666
            },
            {
              "pitch": 79,
              "velocity": 80,
              "position": 7.5,
              "duration": 0.1875
            },
            {
              "pitch": 67,
              "velocity": 90,
              "position": 7.489583333333333,
              "duration": 0.20833333333333334
            },
            {
              "pitch": 71,
              "velocity": 104,
              "position": 7.75,
              "duration": 0.16666666666666666
            },
            {
              "pitch": 83,
              "velocity": 90,
              "position": 7.739583333333333,
              "duration": 0.1875
            },
            {
              "pitch": 59,
              "velocity": 88,
              "position": 7.75,
              "duration": 0.1875
            },
            {
              "pitch": 83,
              "velocity": 104,
              "position": 8,
              "duration": 0.3333333333333333
            },
            {
              "pitch": 71,
              "velocity": 110,
              "position": 8,
              "duration": 0.3541666666666667
            },
            {
              "pitch": 59,
              "velocity": 92,
              "position": 8,
              "duration": 0.3541666666666667
            },
            {
              "pitch": 75,
              "velocity": 80,
              "position": 8.5,
              "duration": 0.5729166666666666
            },
            {
              "pitch": 63,
              "velocity": 94,
              "position": 8.5,
              "duration": 0.6145833333333334
            },
            {
              "pitch": 79,
              "velocity": 94,
              "position": 8.5,
              "duration": 0.6145833333333334
            },
            {
              "pitch": 67,
              "velocity": 84,
              "position": 8.489583333333334,
              "duration": 0.6354166666666666
            },
            {
              "pitch": 59,
              "velocity": 88,
              "position": 9.260416666666666,
              "duration": 0.3541666666666667
            },
            {
              "pitch": 83,
              "velocity": 88,
              "position": 9.260416666666666,
              "duration": 0.3958333333333333
            },
            {
              "pitch": 71,
              "velocity": 94,
              "position": 9.260416666666666,
              "duration": 0.3958333333333333
            },
            {
              "pitch": 83,
              "velocity": 110,
              "position": 9.760416666666666,
              "duration": 0.3333333333333333
            },
            {
              "pitch": 71,
              "velocity": 88,
              "position": 9.760416666666666,
              "duration": 0.3958333333333333
            },
            {
              "pitch": 59,
              "velocity": 110,
              "position": 9.760416666666666,
              "duration": 0.4270833333333333
            },
            {
              "pitch": 63,
              "velocity": 90,
              "position": 10.260416666666666,
              "duration": 0.3854166666666667
            },
            {
              "pitch": 67,
              "velocity": 80,
              "position": 10.260416666666666,
              "duration": 0.4479166666666667
            },
            {
              "pitch": 75,
              "velocity": 80,
              "position": 10.260416666666666,
              "duration": 0.4583333333333333
            },
            {
              "pitch": 79,
              "velocity": 104,
              "position": 10.260416666666666,
              "duration": 0.4895833333333333
            },
            {
              "pitch": 83,
              "velocity": 88,
              "position": 10.760416666666666,
              "duration": 0.3541666666666667
            },
            {
              "pitch": 71,
              "velocity": 90,
              "position": 10.760416666666666,
              "duration": 0.3958333333333333
            },
            {
              "pitch": 59,
              "velocity": 88,
              "position": 10.75,
              "duration": 0.4270833333333333
            },
            {
              "pitch": 63,
              "velocity": 92,
              "position": 11.260416666666666,
              "duration": 0.375
            },
            {
              "pitch": 67,
              "velocity": 80,
              "position": 11.260416666666666,
              "duration": 0.4270833333333333
            },
            {
              "pitch": 75,
              "velocity": 80,
              "position": 11.260416666666666,
              "duration": 0.4270833333333333
            },
            {
              "pitch": 79,
              "velocity": 92,
              "position": 11.260416666666666,
              "duration": 0.4375
            },
            {
              "pitch": 59,
              "velocity": 88,
              "position": 11.75,
              "duration": 0.17708333333333334
            },
            {
              "pitch": 83,
              "velocity": 72,
              "position": 11.75,
              "duration": 0.19791666666666666
            },
            {
              "pitch": 71,
              "velocity": 88,
              "position": 11.75,
              "duration": 0.19791666666666666
            },
            {
              "pitch": 83,
              "velocity": 94,
              "position": 12,
              "duration": 0.3541666666666667
            },
            {
              "pitch": 71,
              "velocity": 124,
              "position": 12,
              "duration": 0.40625
            },
            {
              "pitch": 59,
              "velocity": 104,
              "position": 12,
              "duration": 0.4166666666666667
            },
            {
              "pitch": 75,
              "velocity": 80,
              "position": 12.5,
              "duration": 0.19791666666666666
            },
            {
              "pitch": 63,
              "velocity": 80,
              "position": 12.5,
              "duration": 0.19791666666666666
            },
            {
              "pitch": 67,
              "velocity": 78,
              "position": 12.489583333333334,
              "duration": 0.22916666666666666
            },
            {
              "pitch": 79,
              "velocity": 80,
              "position": 12.5,
              "duration": 0.21875
            },
            {
              "pitch": 83,
              "velocity": 88,
              "position": 12.760416666666666,
              "duration": 0.3854166666666667
            },
            {
              "pitch": 71,
              "velocity": 104,
              "position": 12.760416666666666,
              "duration": 0.3854166666666667
            },
            {
              "pitch": 59,
              "velocity": 104,
              "position": 12.760416666666666,
              "duration": 0.4375
            },
            {
              "pitch": 63,
              "velocity": 94,
              "position": 13.260416666666666,
              "duration": 0.40625
            },
            {
              "pitch": 67,
              "velocity": 110,
              "position": 13.25,
              "duration": 0.4375
            },
            {
              "pitch": 79,
              "velocity": 92,
              "position": 13.260416666666666,
              "duration": 0.4375
            },
            {
              "pitch": 75,
              "velocity": 70,
              "position": 13.260416666666666,
              "duration": 0.46875
            },
            {
              "pitch": 83,
              "velocity": 94,
              "position": 13.75,
              "duration": 0.3645833333333333
            },
            {
              "pitch": 59,
              "velocity": 88,
              "position": 13.75,
              "duration": 0.3958333333333333
            },
            {
              "pitch": 71,
              "velocity": 104,
              "position": 13.75,
              "duration": 0.4166666666666667
            },
            {
              "pitch": 67,
              "velocity": 80,
              "position": 14.25,
              "duration": 0.4270833333333333
            },
            {
              "pitch": 63,
              "velocity": 80,
              "position": 14.25,
              "duration": 0.4270833333333333
            },
            {
              "pitch": 75,
              "velocity": 94,
              "position": 14.25,
              "duration": 0.4479166666666667
            },
            {
              "pitch": 79,
              "velocity": 90,
              "position": 14.25,
              "duration": 0.4791666666666667
            },
            {
              "pitch": 83,
              "velocity": 110,
              "position": 14.75,
              "duration": 0.375
            },
            {
              "pitch": 59,
              "velocity": 84,
              "position": 14.75,
              "duration": 0.3854166666666667
            },
            {
              "pitch": 71,
              "velocity": 90,
              "position": 14.75,
              "duration": 0.4270833333333333
            },
            {
              "pitch": 63,
              "velocity": 92,
              "position": 15.25,
              "duration": 0.1875
            },
            {
              "pitch": 75,
              "velocity": 90,
              "position": 15.25,
              "duration": 0.19791666666666666
            },
            {
              "pitch": 79,
              "velocity": 80,
              "position": 15.5,
              "duration": 0.1875
            },
            {
              "pitch": 67,
              "velocity": 90,
              "position": 15.489583333333334,
              "duration": 0.20833333333333334
            },
            {
              "pitch": 71,
              "velocity": 104,
              "position": 15.75,
              "duration": 0.16666666666666666
            },
            {
              "pitch": 83,
              "velocity": 90,
              "position": 15.739583333333334,
              "duration": 0.1875
            },
            {
              "pitch": 59,
              "velocity": 88,
              "position": 15.75,
              "duration": 0.1875
            },
            {
              "pitch": 83,
              "velocity": 104,
              "position": 16,
              "duration": 0.3333333333333333
            },
            {
              "pitch": 71,
              "velocity": 110,
              "position": 16,
              "duration": 0.3541666666666667
            },
            {
              "pitch": 59,
              "velocity": 92,
              "position": 16,
              "duration": 0.3541666666666667
            },
            {
              "pitch": 75,
              "velocity": 80,
              "position": 16.5,
              "duration": 0.5729166666666666
            },
            {
              "pitch": 63,
              "velocity": 94,
              "position": 16.5,
              "duration": 0.6145833333333334
            },
            {
              "pitch": 79,
              "velocity": 94,
              "position": 16.5,
              "duration": 0.6145833333333334
            },
            {
              "pitch": 67,
              "velocity": 84,
              "position": 16.489583333333332,
              "duration": 0.6354166666666666
            },
            {
              "pitch": 59,
              "velocity": 88,
              "position": 17.260416666666668,
              "duration": 0.3541666666666667
            },
            {
              "pitch": 83,
              "velocity": 88,
              "position": 17.260416666666668,
              "duration": 0.3958333333333333
            },
            {
              "pitch": 71,
              "velocity": 94,
              "position": 17.260416666666668,
              "duration": 0.3958333333333333
            },
            {
              "pitch": 83,
              "velocity": 110,
              "position": 17.760416666666668,
              "duration": 0.3333333333333333
            },
            {
              "pitch": 71,
              "velocity": 88,
              "position": 17.760416666666668,
              "duration": 0.3958333333333333
            },
            {
              "pitch": 59,
              "velocity": 110,
              "position": 17.760416666666668,
              "duration": 0.4270833333333333
            },
            {
              "pitch": 63,
              "velocity": 90,
              "position": 18.260416666666668,
              "duration": 0.3854166666666667
            },
            {
              "pitch": 67,
              "velocity": 80,
              "position": 18.260416666666668,
              "duration": 0.4479166666666667
            },
            {
              "pitch": 75,
              "velocity": 80,
              "position": 18.260416666666668,
              "duration": 0.4583333333333333
            },
            {
              "pitch": 79,
              "velocity": 104,
              "position": 18.260416666666668,
              "duration": 0.4895833333333333
            },
            {
              "pitch": 83,
              "velocity": 88,
              "position": 18.760416666666668,
              "duration": 0.3541666666666667
            },
            {
              "pitch": 71,
              "velocity": 90,
              "position": 18.760416666666668,
              "duration": 0.3958333333333333
            },
            {
              "pitch": 59,
              "velocity": 88,
              "position": 18.75,
              "duration": 0.4270833333333333
            },
            {
              "pitch": 63,
              "velocity": 92,
              "position": 19.260416666666668,
              "duration": 0.375
            },
            {
              "pitch": 67,
              "velocity": 80,
              "position": 19.260416666666668,
              "duration": 0.4270833333333333
            },
            {
              "pitch": 75,
              "velocity": 80,
              "position": 19.260416666666668,
              "duration": 0.4270833333333333
            },
            {
              "pitch": 79,
              "velocity": 92,
              "position": 19.260416666666668,
              "duration": 0.4375
            },
            {
              "pitch": 59,
              "velocity": 88,
              "position": 19.75,
              "duration": 0.17708333333333334
            },
            {
              "pitch": 83,
              "velocity": 72,
              "position": 19.75,
              "duration": 0.19791666666666666
            },
            {
              "pitch": 71,
              "velocity": 88,
              "position": 19.75,
              "duration": 0.19791666666666666
            },
            {
              "pitch": 83,
              "velocity": 94,
              "position": 20,
              "duration": 0.3541666666666667
            },
            {
              "pitch": 71,
              "velocity": 124,
              "position": 20,
              "duration": 0.40625
            },
            {
              "pitch": 59,
              "velocity": 104,
              "position": 20,
              "duration": 0.4166666666666667
            },
            {
              "pitch": 75,
              "velocity": 80,
              "position": 20.5,
              "duration": 0.19791666666666666
            },
            {
              "pitch": 63,
              "velocity": 80,
              "position": 20.5,
              "duration": 0.19791666666666666
            },
            {
              "pitch": 67,
              "velocity": 78,
              "position": 20.489583333333332,
              "duration": 0.22916666666666666
            },
            {
              "pitch": 79,
              "velocity": 80,
              "position": 20.5,
              "duration": 0.21875
            },
            {
              "pitch": 83,
              "velocity": 88,
              "position": 20.760416666666668,
              "duration": 0.3854166666666667
            },
            {
              "pitch": 71,
              "velocity": 104,
              "position": 20.760416666666668,
              "duration": 0.3854166666666667
            },
            {
              "pitch": 59,
              "velocity": 104,
              "position": 20.760416666666668,
              "duration": 0.4375
            },
            {
              "pitch": 63,
              "velocity": 94,
              "position": 21.260416666666668,
              "duration": 0.40625
            },
            {
              "pitch": 67,
              "velocity": 110,
              "position": 21.25,
              "duration": 0.4375
            },
            {
              "pitch": 79,
              "velocity": 92,
              "position": 21.260416666666668,
              "duration": 0.4375
            },
            {
              "pitch": 75,
              "velocity": 70,
              "position": 21.260416666666668,
              "duration": 0.46875
            },
            {
              "pitch": 83,
              "velocity": 94,
              "position": 21.75,
              "duration": 0.3645833333333333
            },
            {
              "pitch": 59,
              "velocity": 88,
              "position": 21.75,
              "duration": 0.3958333333333333
            },
            {
              "pitch": 71,
              "velocity": 104,
              "position": 21.75,
              "duration": 0.4166666666666667
            },
            {
              "pitch": 67,
              "velocity": 80,
              "position": 22.25,
              "duration": 0.4270833333333333
            },
            {
              "pitch": 63,
              "velocity": 80,
              "position": 22.25,
              "duration": 0.4270833333333333
            },
            {
              "pitch": 75,
              "velocity": 94,
              "position": 22.25,
              "duration": 0.4479166666666667
            },
            {
              "pitch": 79,
              "velocity": 90,
              "position": 22.25,
              "duration": 0.4791666666666667
            },
            {
              "pitch": 83,
              "velocity": 110,
              "position": 22.75,
              "duration": 0.375
            },
            {
              "pitch": 59,
              "velocity": 84,
              "position": 22.75,
              "duration": 0.3854166666666667
            },
            {
              "pitch": 71,
              "velocity": 90,
              "position": 22.75,
              "duration": 0.4270833333333333
            },
            {
              "pitch": 63,
              "velocity": 92,
              "position": 23.25,
              "duration": 0.1875
            },
            {
              "pitch": 75,
              "velocity": 90,
              "position": 23.25,
              "duration": 0.19791666666666666
            },
            {
              "pitch": 79,
              "velocity": 80,
              "position": 23.5,
              "duration": 0.1875
            },
            {
              "pitch": 67,
              "velocity": 90,
              "position": 23.489583333333332,
              "duration": 0.20833333333333334
            },
            {
              "pitch": 71,
              "velocity": 104,
              "position": 23.75,
              "duration": 0.16666666666666666
            },
            {
              "pitch": 83,
              "velocity": 90,
              "position": 23.739583333333332,
              "duration": 0.1875
            },
            {
              "pitch": 59,
              "velocity": 88,
              "position": 23.75,
              "duration": 0.1875
            },
            {
              "pitch": 83,
              "velocity": 104,
              "position": 24,
              "duration": 0.3333333333333333
            },
            {
              "pitch": 71,
              "velocity": 110,
              "position": 24,
              "duration": 0.3541666666666667
            },
            {
              "pitch": 59,
              "velocity": 92,
              "position": 24,
              "duration": 0.3541666666666667
            },
            {
              "pitch": 75,
              "velocity": 80,
              "position": 24.5,
              "duration": 0.5729166666666666
            },
            {
              "pitch": 63,
              "velocity": 94,
              "position": 24.5,
              "duration": 0.6145833333333334
            },
            {
              "pitch": 79,
              "velocity": 94,
              "position": 24.5,
              "duration": 0.6145833333333334
            },
            {
              "pitch": 67,
              "velocity": 84,
              "position": 24.489583333333332,
              "duration": 0.6354166666666666
            },
            {
              "pitch": 59,
              "velocity": 88,
              "position": 25.260416666666668,
              "duration": 0.3541666666666667
            },
            {
              "pitch": 83,
              "velocity": 88,
              "position": 25.260416666666668,
              "duration": 0.3958333333333333
            },
            {
              "pitch": 71,
              "velocity": 94,
              "position": 25.260416666666668,
              "duration": 0.3958333333333333
            },
            {
              "pitch": 83,
              "velocity": 110,
              "position": 25.760416666666668,
              "duration": 0.3333333333333333
            },
            {
              "pitch": 71,
              "velocity": 88,
              "position": 25.760416666666668,
              "duration": 0.3958333333333333
            },
            {
              "pitch": 59,
              "velocity": 110,
              "position": 25.760416666666668,
              "duration": 0.4270833333333333
            },
            {
              "pitch": 63,
              "velocity": 90,
              "position": 26.260416666666668,
              "duration": 0.3854166666666667
            },
            {
              "pitch": 67,
              "velocity": 80,
              "position": 26.260416666666668,
              "duration": 0.4479166666666667
            },
            {
              "pitch": 75,
              "velocity": 80,
              "position": 26.260416666666668,
              "duration": 0.4583333333333333
            },
            {
              "pitch": 79,
              "velocity": 104,
              "position": 26.260416666666668,
              "duration": 0.4895833333333333
            },
            {
              "pitch": 83,
              "velocity": 88,
              "position": 26.760416666666668,
              "duration": 0.3541666666666667
            },
            {
              "pitch": 71,
              "velocity": 90,
              "position": 26.760416666666668,
              "duration": 0.3958333333333333
            },
            {
              "pitch": 59,
              "velocity": 88,
              "position": 26.75,
              "duration": 0.4270833333333333
            },
            {
              "pitch": 63,
              "velocity": 92,
              "position": 27.260416666666668,
              "duration": 0.375
            },
            {
              "pitch": 67,
              "velocity": 80,
              "position": 27.260416666666668,
              "duration": 0.4270833333333333
            },
            {
              "pitch": 75,
              "velocity": 80,
              "position": 27.260416666666668,
              "duration": 0.4270833333333333
            },
            {
              "pitch": 79,
              "velocity": 92,
              "position": 27.260416666666668,
              "duration": 0.4375
            },
            {
              "pitch": 59,
              "velocity": 88,
              "position": 27.75,
              "duration": 0.17708333333333334
            },
            {
              "pitch": 83,
              "velocity": 72,
              "position": 27.75,
              "duration": 0.19791666666666666
            },
            {
              "pitch": 71,
              "velocity": 88,
              "position": 27.75,
              "duration": 0.19791666666666666
            },
            {
              "pitch": 83,
              "velocity": 94,
              "position": 28,
              "duration": 0.3541666666666667
            },
            {
              "pitch": 71,
              "velocity": 124,
              "position": 28,
              "duration": 0.40625
            },
            {
              "pitch": 59,
              "velocity": 104,
              "position": 28,
              "duration": 0.4166666666666667
            },
            {
              "pitch": 75,
              "velocity": 80,
              "position": 28.5,
              "duration": 0.19791666666666666
            },
            {
              "pitch": 63,
              "velocity": 80,
              "position": 28.5,
              "duration": 0.19791666666666666
            },
            {
              "pitch": 67,
              "velocity": 78,
              "position": 28.489583333333332,
              "duration": 0.22916666666666666
            },
            {
              "pitch": 79,
              "velocity": 80,
              "position": 28.5,
              "duration": 0.21875
            },
            {
              "pitch": 83,
              "velocity": 88,
              "position": 28.760416666666668,
              "duration": 0.3854166666666667
            },
            {
              "pitch": 71,
              "velocity": 104,
              "position": 28.760416666666668,
              "duration": 0.3854166666666667
            },
            {
              "pitch": 59,
              "velocity": 104,
              "position": 28.760416666666668,
              "duration": 0.4375
            },
            {
              "pitch": 63,
              "velocity": 94,
              "position": 29.260416666666668,
              "duration": 0.40625
            },
            {
              "pitch": 67,
              "velocity": 110,
              "position": 29.25,
              "duration": 0.4375
            },
            {
              "pitch": 79,
              "velocity": 92,
              "position": 29.260416666666668,
              "duration": 0.4375
            },
            {
              "pitch": 75,
              "velocity": 70,
              "position": 29.260416666666668,
              "duration": 0.46875
            },
            {
              "pitch": 83,
              "velocity": 94,
              "position": 29.75,
              "duration": 0.3645833333333333
            },
            {
              "pitch": 59,
              "velocity": 88,
              "position": 29.75,
              "duration": 0.3958333333333333
            },
            {
              "pitch": 71,
              "velocity": 104,
              "position": 29.75,
              "duration": 0.4166666666666667
            },
            {
              "pitch": 67,
              "velocity": 80,
              "position": 30.25,
              "duration": 0.4270833333333333
            },
            {
              "pitch": 63,
              "velocity": 80,
              "position": 30.25,
              "duration": 0.4270833333333333
            },
            {
              "pitch": 75,
              "velocity": 94,
              "position": 30.25,
              "duration": 0.4479166666666667
            },
            {
              "pitch": 79,
              "velocity": 90,
              "position": 30.25,
              "duration": 0.4791666666666667
            },
            {
              "pitch": 83,
              "velocity": 110,
              "position": 30.75,
              "duration": 0.375
            },
            {
              "pitch": 59,
              "velocity": 84,
              "position": 30.75,
              "duration": 0.3854166666666667
            },
            {
              "pitch": 71,
              "velocity": 90,
              "position": 30.75,
              "duration": 0.4270833333333333
            },
            {
              "pitch": 63,
              "velocity": 92,
              "position": 31.25,
              "duration": 0.1875
            },
            {
              "pitch": 75,
              "velocity": 90,
              "position": 31.25,
              "duration": 0.19791666666666666
            },
            {
              "pitch": 79,
              "velocity": 80,
              "position": 31.5,
              "duration": 0.1875
            },
            {
              "pitch": 67,
              "velocity": 90,
              "position": 31.489583333333332,
              "duration": 0.20833333333333334
            },
            {
              "pitch": 71,
              "velocity": 104,
              "position": 31.75,
              "duration": 0.16666666666666666
            },
            {
              "pitch": 83,
              "velocity": 90,
              "position": 31.739583333333332,
              "duration": 0.1875
            },
            {
              "pitch": 59,
              "velocity": 88,
              "position": 31.75,
              "duration": 0.1875
            }
          ]
        }
      }
    },
    "Main_C": {
      "type": "Main_C",
      "sizeInBeats": 32,
      "channels": {
        "0": {
          "ctab": {
            "srcChannel": 0,
            "name": "GrandPno",
            "accType": "CHORD1",
            "editable": false,
            "mutedNotes": [],
            "mutedChords": [
              "1+2+5",
              "sus4",
              "1+5",
              "1+8",
              "dim7",
              "dim",
              "minMaj7(9)",
              "minMaj7",
              "min7(11)",
              "min7(9)",
              "min(9)",
              "m7b5",
              "min7",
              "min6",
              "min",
              "aug",
              "Maj6(9)",
              "Maj7(9)",
              "Maj(9)",
              "Maj7#11",
              "Maj7",
              "Maj6",
              "Maj"
            ],
            "autoStart": false,
            "sourceChordNote": 0,
            "sourceChordType": "7th",
            "ctb2Low": null,
            "ctb2Main": {
              "ntr": "ROOT_TRANSPOSITION",
              "ntt": "CHORD",
              "bassOn": false,
              "chordRootUpperLimit": 6,
              "noteLowLimit": 0,
              "noteHighLimit": 127,
              "rtr": "PITCH_SHIFT"
            },
            "ctb2High": null
          },
          "notes": [
            {
              "pitch": 48,
              "velocity": 110,
              "position": 0,
              "duration": 0.4479166666666667
            },
            {
              "pitch": 60,
              "velocity": 104,
              "position": 0,
              "duration": 0.4583333333333333
            },
            {
              "pitch": 58,
              "velocity": 90,
              "position": 0.4895833333333333,
              "duration": 0.3854166666666667
            },
            {
              "pitch": 46,
              "velocity": 78,
              "position": 0.5,
              "duration": 0.3958333333333333
            },
            {
              "pitch": 58,
              "velocity": 110,
              "position": 0.9895833333333334,
              "duration": 0.21875
            },
            {
              "pitch": 46,
              "velocity": 92,
              "position": 0.9895833333333334,
              "duration": 0.2604166666666667
            },
            {
              "pitch": 58,
              "velocity": 110,
              "position": 2.2708333333333335,
              "duration": 0.1875
            },
            {
              "pitch": 46,
              "velocity": 100,
              "position": 2.2604166666666665,
              "duration": 0.22916666666666666
            },
            {
              "pitch": 58,
              "velocity": 100,
              "position": 2.7708333333333335,
              "duration": 0.14583333333333334
            },
            {
              "pitch": 46,
              "velocity": 100,
              "position": 2.7708333333333335,
              "duration": 0.16666666666666666
            },
            {
              "pitch": 48,
              "velocity": 88,
              "position": 3.2604166666666665,
              "duration": 0.16666666666666666
            },
            {
              "pitch": 60,
              "velocity": 90,
              "position": 3.25,
              "duration": 0.19791666666666666
            },
            {
              "pitch": 50,
              "velocity": 100,
              "position": 3.5104166666666665,
              "duration": 0.16666666666666666
            },
            {
              "pitch": 62,
              "velocity": 110,
              "position": 3.5,
              "duration": 0.1875
            },
            {
              "pitch": 60,
              "velocity": 104,
              "position": 4,
              "duration": 0.4791666666666667
            },
            {
              "pitch": 48,
              "velocity": 106,
              "position": 4,
              "duration": 0.4895833333333333
            },
            {
              "pitch": 58,
              "velocity": 94,
              "position": 4.5,
              "duration": 0.4791666666666667
            },
            {
              "pitch": 46,
              "velocity": 88,
              "position": 4.5,
              "duration": 0.4791666666666667
            },
            {
              "pitch": 46,
              "velocity": 92,
              "position": 5,
              "duration": 0.19791666666666666
            },
            {
              "pitch": 58,
              "velocity": 110,
              "position": 5.010416666666667,
              "duration": 0.20833333333333334
            },
            {
              "pitch": 60,
              "velocity": 110,
              "position": 6.270833333333333,
              "duration": 0.125
            },
            {
              "pitch": 58,
              "velocity": 90,
              "position": 6.270833333333333,
              "duration": 0.13541666666666666
            },
            {
              "pitch": 46,
              "velocity": 88,
              "position": 6.270833333333333,
              "duration": 0.13541666666666666
            },
            {
              "pitch": 48,
              "velocity": 104,
              "position": 6.270833333333333,
              "duration": 0.15625
            },
            {
              "pitch": 65,
              "velocity": 120,
              "position": 6.270833333333333,
              "duration": 0.16666666666666666
            },
            {
              "pitch": 60,
              "velocity": 110,
              "position": 6.770833333333333,
              "duration": 0.75
            },
            {
              "pitch": 48,
              "velocity": 94,
              "position": 6.770833333333333,
              "duration": 0.7604166666666666
            },
            {
              "pitch": 58,
              "velocity": 122,
              "position": 6.770833333333333,
              "duration": 0.7708333333333334
            },
            {
              "pitch": 65,
              "velocity": 110,
              "position": 6.770833333333333,
              "duration": 0.78125
            },
            {
              "pitch": 46,
              "velocity": 80,
              "position": 6.770833333333333,
              "duration": 0.78125
            },
            {
              "pitch": 48,
              "velocity": 110,
              "position": 8,
              "duration": 0.4479166666666667
            },
            {
              "pitch": 60,
              "velocity": 104,
              "position": 8,
              "duration": 0.4583333333333333
            },
            {
              "pitch": 58,
              "velocity": 90,
              "position": 8.489583333333334,
              "duration": 0.3854166666666667
            },
            {
              "pitch": 46,
              "velocity": 78,
              "position": 8.5,
              "duration": 0.3958333333333333
            },
            {
              "pitch": 58,
              "velocity": 110,
              "position": 8.989583333333334,
              "duration": 0.21875
            },
            {
              "pitch": 46,
              "velocity": 92,
              "position": 8.989583333333334,
              "duration": 0.2604166666666667
            },
            {
              "pitch": 58,
              "velocity": 110,
              "position": 10.270833333333334,
              "duration": 0.1875
            },
            {
              "pitch": 46,
              "velocity": 100,
              "position": 10.260416666666666,
              "duration": 0.22916666666666666
            },
            {
              "pitch": 58,
              "velocity": 100,
              "position": 10.770833333333334,
              "duration": 0.14583333333333334
            },
            {
              "pitch": 46,
              "velocity": 100,
              "position": 10.770833333333334,
              "duration": 0.16666666666666666
            },
            {
              "pitch": 48,
              "velocity": 88,
              "position": 11.260416666666666,
              "duration": 0.16666666666666666
            },
            {
              "pitch": 60,
              "velocity": 90,
              "position": 11.25,
              "duration": 0.19791666666666666
            },
            {
              "pitch": 50,
              "velocity": 100,
              "position": 11.510416666666666,
              "duration": 0.16666666666666666
            },
            {
              "pitch": 62,
              "velocity": 110,
              "position": 11.5,
              "duration": 0.1875
            },
            {
              "pitch": 60,
              "velocity": 104,
              "position": 12.260416666666666,
              "duration": 0.22916666666666666
            },
            {
              "pitch": 48,
              "velocity": 104,
              "position": 12.25,
              "duration": 0.25
            },
            {
              "pitch": 46,
              "velocity": 88,
              "position": 12.5,
              "duration": 0.4479166666666667
            },
            {
              "pitch": 58,
              "velocity": 90,
              "position": 12.5,
              "duration": 0.46875
            },
            {
              "pitch": 58,
              "velocity": 104,
              "position": 13,
              "duration": 0.16666666666666666
            },
            {
              "pitch": 46,
              "velocity": 110,
              "position": 13,
              "duration": 0.20833333333333334
            },
            {
              "pitch": 53,
              "velocity": 88,
              "position": 13.75,
              "duration": 0.23958333333333334
            },
            {
              "pitch": 65,
              "velocity": 104,
              "position": 13.75,
              "duration": 0.25
            },
            {
              "pitch": 53,
              "velocity": 110,
              "position": 14.03125,
              "duration": 0.3125
            },
            {
              "pitch": 65,
              "velocity": 90,
              "position": 14.052083333333334,
              "duration": 0.3020833333333333
            },
            {
              "pitch": 62,
              "velocity": 94,
              "position": 14.395833333333334,
              "duration": 0.2916666666666667
            },
            {
              "pitch": 50,
              "velocity": 78,
              "position": 14.40625,
              "duration": 0.28125
            },
            {
              "pitch": 46,
              "velocity": 110,
              "position": 14.729166666666666,
              "duration": 0.28125
            },
            {
              "pitch": 58,
              "velocity": 90,
              "position": 14.729166666666666,
              "duration": 0.2916666666666667
            },
            {
              "pitch": 46,
              "velocity": 100,
              "position": 15.03125,
              "duration": 0.34375
            },
            {
              "pitch": 58,
              "velocity": 100,
              "position": 15.03125,
              "duration": 0.34375
            },
            {
              "pitch": 48,
              "velocity": 110,
              "position": 15.770833333333334,
              "duration": 0.16666666666666666
            },
            {
              "pitch": 60,
              "velocity": 110,
              "position": 15.770833333333334,
              "duration": 0.16666666666666666
            },
            {
              "pitch": 48,
              "velocity": 92,
              "position": 16.229166666666668,
              "duration": 0.23958333333333334
            },
            {
              "pitch": 60,
              "velocity": 92,
              "position": 16.260416666666668,
              "duration": 0.21875
            },
            {
              "pitch": 58,
              "velocity": 70,
              "position": 16.510416666666668,
              "duration": 0.19791666666666666
            },
            {
              "pitch": 46,
              "velocity": 84,
              "position": 16.489583333333332,
              "duration": 0.22916666666666666
            },
            {
              "pitch": 60,
              "velocity": 96,
              "position": 16.75,
              "duration": 0.21875
            },
            {
              "pitch": 48,
              "velocity": 88,
              "position": 16.760416666666668,
              "duration": 0.21875
            },
            {
              "pitch": 46,
              "velocity": 102,
              "position": 17.020833333333332,
              "duration": 0.22916666666666666
            },
            {
              "pitch": 58,
              "velocity": 98,
              "position": 17.03125,
              "duration": 0.21875
            },
            {
              "pitch": 58,
              "velocity": 98,
              "position": 18.270833333333332,
              "duration": 0.1875
            },
            {
              "pitch": 46,
              "velocity": 92,
              "position": 18.260416666666668,
              "duration": 0.22916666666666666
            },
            {
              "pitch": 58,
              "velocity": 98,
              "position": 18.770833333333332,
              "duration": 0.14583333333333334
            },
            {
              "pitch": 46,
              "velocity": 98,
              "position": 18.770833333333332,
              "duration": 0.16666666666666666
            },
            {
              "pitch": 48,
              "velocity": 88,
              "position": 19.260416666666668,
              "duration": 0.16666666666666666
            },
            {
              "pitch": 60,
              "velocity": 90,
              "position": 19.25,
              "duration": 0.19791666666666666
            },
            {
              "pitch": 50,
              "velocity": 98,
              "position": 19.510416666666668,
              "duration": 0.16666666666666666
            },
            {
              "pitch": 62,
              "velocity": 110,
              "position": 19.5,
              "duration": 0.1875
            },
            {
              "pitch": 60,
              "velocity": 104,
              "position": 20,
              "duration": 0.4791666666666667
            },
            {
              "pitch": 48,
              "velocity": 106,
              "position": 20,
              "duration": 0.4895833333333333
            },
            {
              "pitch": 58,
              "velocity": 94,
              "position": 20.5,
              "duration": 0.4791666666666667
            },
            {
              "pitch": 46,
              "velocity": 88,
              "position": 20.5,
              "duration": 0.4791666666666667
            },
            {
              "pitch": 46,
              "velocity": 92,
              "position": 21,
              "duration": 0.19791666666666666
            },
            {
              "pitch": 58,
              "velocity": 110,
              "position": 21.010416666666668,
              "duration": 0.20833333333333334
            },
            {
              "pitch": 60,
              "velocity": 110,
              "position": 22.270833333333332,
              "duration": 0.125
            },
            {
              "pitch": 58,
              "velocity": 90,
              "position": 22.270833333333332,
              "duration": 0.13541666666666666
            },
            {
              "pitch": 46,
              "velocity": 88,
              "position": 22.270833333333332,
              "duration": 0.13541666666666666
            },
            {
              "pitch": 48,
              "velocity": 104,
              "position": 22.270833333333332,
              "duration": 0.15625
            },
            {
              "pitch": 65,
              "velocity": 120,
              "position": 22.270833333333332,
              "duration": 0.16666666666666666
            },
            {
              "pitch": 60,
              "velocity": 110,
              "position": 22.770833333333332,
              "duration": 0.75
            },
            {
              "pitch": 48,
              "velocity": 94,
              "position": 22.770833333333332,
              "duration": 0.7604166666666666
            },
            {
              "pitch": 58,
              "velocity": 122,
              "position": 22.770833333333332,
              "duration": 0.7708333333333334
            },
            {
              "pitch": 65,
              "velocity": 110,
              "position": 22.770833333333332,
              "duration": 0.78125
            },
            {
              "pitch": 46,
              "velocity": 80,
              "position": 22.770833333333332,
              "duration": 0.78125
            },
            {
              "pitch": 48,
              "velocity": 110,
              "position": 24,
              "duration": 0.4479166666666667
            },
            {
              "pitch": 60,
              "velocity": 104,
              "position": 24,
              "duration": 0.4583333333333333
            },
            {
              "pitch": 58,
              "velocity": 90,
              "position": 24.489583333333332,
              "duration": 0.3854166666666667
            },
            {
              "pitch": 46,
              "velocity": 78,
              "position": 24.5,
              "duration": 0.3958333333333333
            },
            {
              "pitch": 58,
              "velocity": 110,
              "position": 24.989583333333332,
              "duration": 0.21875
            },
            {
              "pitch": 46,
              "velocity": 92,
              "position": 24.989583333333332,
              "duration": 0.2604166666666667
            },
            {
              "pitch": 58,
              "velocity": 110,
              "position": 26.270833333333332,
              "duration": 0.1875
            },
            {
              "pitch": 46,
              "velocity": 100,
              "position": 26.260416666666668,
              "duration": 0.22916666666666666
            },
            {
              "pitch": 58,
              "velocity": 100,
              "position": 26.770833333333332,
              "duration": 0.14583333333333334
            },
            {
              "pitch": 46,
              "velocity": 100,
              "position": 26.770833333333332,
              "duration": 0.16666666666666666
            },
            {
              "pitch": 48,
              "velocity": 88,
              "position": 27.260416666666668,
              "duration": 0.16666666666666666
            },
            {
              "pitch": 60,
              "velocity": 90,
              "position": 27.25,
              "duration": 0.19791666666666666
            },
            {
              "pitch": 50,
              "velocity": 100,
              "position": 27.510416666666668,
              "duration": 0.16666666666666666
            },
            {
              "pitch": 62,
              "velocity": 110,
              "position": 27.5,
              "duration": 0.1875
            },
            {
              "pitch": 46,
              "velocity": 94,
              "position": 28.260416666666668,
              "duration": 0.15625
            },
            {
              "pitch": 58,
              "velocity": 104,
              "position": 28.260416666666668,
              "duration": 0.16666666666666666
            },
            {
              "pitch": 70,
              "velocity": 104,
              "position": 28.260416666666668,
              "duration": 0.16666666666666666
            },
            {
              "pitch": 70,
              "velocity": 104,
              "position": 28.5,
              "duration": 0.17708333333333334
            },
            {
              "pitch": 58,
              "velocity": 112,
              "position": 28.5,
              "duration": 0.17708333333333334
            },
            {
              "pitch": 46,
              "velocity": 124,
              "position": 28.5,
              "duration": 0.1875
            },
            {
              "pitch": 70,
              "velocity": 104,
              "position": 29,
              "duration": 0.19791666666666666
            },
            {
              "pitch": 58,
              "velocity": 124,
              "position": 29,
              "duration": 0.20833333333333334
            },
            {
              "pitch": 46,
              "velocity": 110,
              "position": 29,
              "duration": 0.2604166666666667
            },
            {
              "pitch": 46,
              "velocity": 104,
              "position": 29.760416666666668,
              "duration": 0.15625
            },
            {
              "pitch": 58,
              "velocity": 80,
              "position": 29.760416666666668,
              "duration": 0.16666666666666666
            },
            {
              "pitch": 70,
              "velocity": 104,
              "position": 29.760416666666668,
              "duration": 0.17708333333333334
            },
            {
              "pitch": 58,
              "velocity": 102,
              "position": 30.010416666666668,
              "duration": 0.16666666666666666
            },
            {
              "pitch": 70,
              "velocity": 118,
              "position": 30.010416666666668,
              "duration": 0.16666666666666666
            },
            {
              "pitch": 46,
              "velocity": 126,
              "position": 30.010416666666668,
              "duration": 0.17708333333333334
            },
            {
              "pitch": 70,
              "velocity": 124,
              "position": 30.510416666666668,
              "duration": 0.17708333333333334
            },
            {
              "pitch": 58,
              "velocity": 110,
              "position": 30.510416666666668,
              "duration": 0.1875
            },
            {
              "pitch": 46,
              "velocity": 92,
              "position": 30.5,
              "duration": 0.2708333333333333
            },
            {
              "pitch": 46,
              "velocity": 100,
              "position": 31.260416666666668,
              "duration": 0.1875
            },
            {
              "pitch": 58,
              "velocity": 88,
              "position": 31.260416666666668,
              "duration": 0.1875
            },
            {
              "pitch": 70,
              "velocity": 100,
              "position": 31.260416666666668,
              "duration": 0.19791666666666666
            },
            {
              "pitch": 72,
              "velocity": 100,
              "position": 31.5,
              "duration": 0.1875
            },
            {
              "pitch": 60,
              "velocity": 126,
              "position": 31.5,
              "duration": 0.19791666666666666
            },
            {
              "pitch": 48,
              "velocity": 124,
              "position": 31.5,
              "duration": 0.22916666666666666
            }
          ]
        },
        "1": {
          "ctab": {
            "srcChannel": 1,
            "name": "Trumpet",
            "accType": "PHRASE1",
            "editable": false,
            "mutedNotes": [],
            "mutedChords": [
              "7aug",
              "Maj7aug",
              "7(#9)",
              "7(b13)",
              "7(b9)",
              "7(13)",
              "7#11",
              "7(9)",
              "7b5",
              "7sus4",
              "7th",
              "dim7",
              "dim",
              "minMaj7(9)",
              "minMaj7",
              "min7(11)",
              "min7(9)",
              "min(9)",
              "m7b5",
              "min7",
              "min6",
              "min"
            ],
            "autoStart": false,
            "sourceChordNote": 0,
            "sourceChordType": "Maj7",
            "ctb2Low": null,
            "ctb2Main": {
              "ntr": "ROOT_TRANSPOSITION",
              "ntt": "CHORD",
              "bassOn": false,
              "chordRootUpperLimit": 6,
              "noteLowLimit": 0,
              "noteHighLimit": 127,
              "rtr": "PITCH_SHIFT"
            },
            "ctb2High": null
          },
          "notes": [
            {
              "pitch": 64,
              "velocity": 104,
              "position": 9.25,
              "duration": 0.19791666666666666
            },
            {
              "pitch": 67,
              "velocity": 90,
              "position": 9.489583333333334,
              "duration": 0.20833333333333334
            },
            {
              "pitch": 74,
              "velocity": 126,
              "position": 9.75,
              "duration": 0.15625
            },
            {
              "pitch": 71,
              "velocity": 104,
              "position": 10.260416666666666,
              "duration": 0.15625
            },
            {
              "pitch": 69,
              "velocity": 104,
              "position": 10.75,
              "duration": 0.21875
            },
            {
              "pitch": 71,
              "velocity": 104,
              "position": 11.25,
              "duration": 0.1875
            },
            {
              "pitch": 67,
              "velocity": 104,
              "position": 11.5,
              "duration": 2.3645833333333335
            },
            {
              "pitch": 67,
              "velocity": 124,
              "position": 26.25,
              "duration": 0.22916666666666666
            },
            {
              "pitch": 79,
              "velocity": 98,
              "position": 26.25,
              "duration": 0.25
            },
            {
              "pitch": 81,
              "velocity": 72,
              "position": 26.5,
              "duration": 0.23958333333333334
            },
            {
              "pitch": 69,
              "velocity": 90,
              "position": 26.5,
              "duration": 0.25
            },
            {
              "pitch": 83,
              "velocity": 78,
              "position": 26.75,
              "duration": 0.16666666666666666
            },
            {
              "pitch": 71,
              "velocity": 96,
              "position": 26.75,
              "duration": 0.17708333333333334
            },
            {
              "pitch": 83,
              "velocity": 52,
              "position": 26.927083333333332,
              "duration": 0.041666666666666664
            },
            {
              "pitch": 71,
              "velocity": 54,
              "position": 26.9375,
              "duration": 0.03125
            },
            {
              "pitch": 85,
              "velocity": 80,
              "position": 26.958333333333332,
              "duration": 0.03125
            },
            {
              "pitch": 73,
              "velocity": 80,
              "position": 26.958333333333332,
              "duration": 0.03125
            },
            {
              "pitch": 74,
              "velocity": 122,
              "position": 26.979166666666668,
              "duration": 0.2708333333333333
            },
            {
              "pitch": 86,
              "velocity": 104,
              "position": 26.979166666666668,
              "duration": 0.2708333333333333
            },
            {
              "pitch": 83,
              "velocity": 82,
              "position": 27.25,
              "duration": 0.20833333333333334
            },
            {
              "pitch": 71,
              "velocity": 98,
              "position": 27.25,
              "duration": 0.22916666666666666
            },
            {
              "pitch": 81,
              "velocity": 88,
              "position": 27.5,
              "duration": 0.23958333333333334
            },
            {
              "pitch": 69,
              "velocity": 106,
              "position": 27.5,
              "duration": 0.23958333333333334
            },
            {
              "pitch": 71,
              "velocity": 120,
              "position": 27.75,
              "duration": 0.20833333333333334
            },
            {
              "pitch": 83,
              "velocity": 112,
              "position": 27.75,
              "duration": 0.21875
            },
            {
              "pitch": 79,
              "velocity": 98,
              "position": 28,
              "duration": 2.9895833333333335
            },
            {
              "pitch": 67,
              "velocity": 106,
              "position": 28,
              "duration": 2.9895833333333335
            },
            {
              "pitch": 79,
              "velocity": 98,
              "position": 31.25,
              "duration": 0.19791666666666666
            },
            {
              "pitch": 67,
              "velocity": 112,
              "position": 31.25,
              "duration": 0.20833333333333334
            },
            {
              "pitch": 83,
              "velocity": 110,
              "position": 31.5,
              "duration": 0.22916666666666666
            },
            {
              "pitch": 71,
              "velocity": 126,
              "position": 31.5,
              "duration": 0.25
            }
          ]
        },
        "2": {
          "ctab": {
            "srcChannel": 2,
            "name": "Trumpet",
            "accType": "PHRASE1",
            "editable": false,
            "mutedNotes": [],
            "mutedChords": [
              "1+2+5",
              "sus4",
              "1+5",
              "1+8",
              "7aug",
              "Maj7aug",
              "7(#9)",
              "7(b13)",
              "7(b9)",
              "7(13)",
              "7#11",
              "7(9)",
              "7b5",
              "7sus4",
              "7th",
              "aug",
              "Maj6(9)",
              "Maj7(9)",
              "Maj(9)",
              "Maj7#11",
              "Maj7",
              "Maj6",
              "Maj"
            ],
            "autoStart": false,
            "sourceChordNote": 0,
            "sourceChordType": "minMaj7",
            "ctb2Low": null,
            "ctb2Main": {
              "ntr": "ROOT_TRANSPOSITION",
              "ntt": "CHORD",
              "bassOn": false,
              "chordRootUpperLimit": 6,
              "noteLowLimit": 0,
              "noteHighLimit": 127,
              "rtr": "PITCH_SHIFT"
            },
            "ctb2High": null
          },
          "notes": [
            {
              "pitch": 67,
              "velocity": 104,
              "position": 9.25,
              "duration": 0.19791666666666666
            },
            {
              "pitch": 71,
              "velocity": 90,
              "position": 9.489583333333334,
              "duration": 0.20833333333333334
            },
            {
              "pitch": 74,
              "velocity": 126,
              "position": 9.75,
              "duration": 0.15625
            },
            {
              "pitch": 71,
              "velocity": 104,
              "position": 10.260416666666666,
              "duration": 0.15625
            },
            {
              "pitch": 71,
              "velocity": 104,
              "position": 10.75,
              "duration": 0.21875
            },
            {
              "pitch": 71,
              "velocity": 104,
              "position": 11.25,
              "duration": 0.1875
            },
            {
              "pitch": 67,
              "velocity": 104,
              "position": 11.5,
              "duration": 2.3645833333333335
            },
            {
              "pitch": 67,
              "velocity": 124,
              "position": 26.25,
              "duration": 0.22916666666666666
            },
            {
              "pitch": 79,
              "velocity": 98,
              "position": 26.25,
              "duration": 0.25
            },
            {
              "pitch": 83,
              "velocity": 72,
              "position": 26.5,
              "duration": 0.23958333333333334
            },
            {
              "pitch": 71,
              "velocity": 90,
              "position": 26.5,
              "duration": 0.23958333333333334
            },
            {
              "pitch": 83,
              "velocity": 78,
              "position": 26.75,
              "duration": 0.16666666666666666
            },
            {
              "pitch": 71,
              "velocity": 96,
              "position": 26.75,
              "duration": 0.17708333333333334
            },
            {
              "pitch": 83,
              "velocity": 52,
              "position": 26.927083333333332,
              "duration": 0.03125
            },
            {
              "pitch": 71,
              "velocity": 54,
              "position": 26.9375,
              "duration": 0.020833333333333332
            },
            {
              "pitch": 83,
              "velocity": 80,
              "position": 26.958333333333332,
              "duration": 0.03125
            },
            {
              "pitch": 71,
              "velocity": 80,
              "position": 26.958333333333332,
              "duration": 0.03125
            },
            {
              "pitch": 74,
              "velocity": 122,
              "position": 26.979166666666668,
              "duration": 0.2708333333333333
            },
            {
              "pitch": 86,
              "velocity": 104,
              "position": 26.979166666666668,
              "duration": 0.2708333333333333
            },
            {
              "pitch": 83,
              "velocity": 82,
              "position": 27.25,
              "duration": 0.20833333333333334
            },
            {
              "pitch": 71,
              "velocity": 98,
              "position": 27.25,
              "duration": 0.22916666666666666
            },
            {
              "pitch": 83,
              "velocity": 88,
              "position": 27.5,
              "duration": 0.23958333333333334
            },
            {
              "pitch": 71,
              "velocity": 106,
              "position": 27.5,
              "duration": 0.23958333333333334
            },
            {
              "pitch": 71,
              "velocity": 120,
              "position": 27.75,
              "duration": 0.20833333333333334
            },
            {
              "pitch": 83,
              "velocity": 112,
              "position": 27.75,
              "duration": 0.21875
            },
            {
              "pitch": 79,
              "velocity": 98,
              "position": 28,
              "duration": 2.9895833333333335
            },
            {
              "pitch": 67,
              "velocity": 106,
              "position": 28,
              "duration": 2.9895833333333335
            },
            {
              "pitch": 79,
              "velocity": 98,
              "position": 31.25,
              "duration": 0.19791666666666666
            },
            {
              "pitch": 67,
              "velocity": 112,
              "position": 31.25,
              "duration": 0.20833333333333334
            },
            {
              "pitch": 83,
              "velocity": 110,
              "position": 31.5,
              "duration": 0.22916666666666666
            },
            {
              "pitch": 71,
              "velocity": 126,
              "position": 31.5,
              "duration": 0.25
            }
          ]
        },
        "3": {
          "ctab": {
            "srcChannel": 3,
            "name": "Trumpet",
            "accType": "PHRASE1",
            "editable": false,
            "mutedNotes": [],
            "mutedChords": [
              "1+2+5",
              "sus4",
              "1+5",
              "1+8",
              "dim7",
              "dim",
              "minMaj7(9)",
              "minMaj7",
              "min7(11)",
              "min7(9)",
              "min(9)",
              "m7b5",
              "min7",
              "min6",
              "min",
              "aug",
              "Maj6(9)",
              "Maj7(9)",
              "Maj(9)",
              "Maj7#11",
              "Maj7",
              "Maj6",
              "Maj"
            ],
            "autoStart": false,
            "sourceChordNote": 0,
            "sourceChordType": "7th",
            "ctb2Low": null,
            "ctb2Main": {
              "ntr": "ROOT_TRANSPOSITION",
              "ntt": "CHORD",
              "bassOn": false,
              "chordRootUpperLimit": 6,
              "noteLowLimit": 0,
              "noteHighLimit": 127,
              "rtr": "PITCH_SHIFT"
            },
            "ctb2High": null
          },
          "notes": [
            {
              "pitch": 70,
              "velocity": 104,
              "position": 9.25,
              "duration": 0.19791666666666666
            },
            {
              "pitch": 70,
              "velocity": 90,
              "position": 9.489583333333334,
              "duration": 0.20833333333333334
            },
            {
              "pitch": 74,
              "velocity": 126,
              "position": 9.75,
              "duration": 0.15625
            },
            {
              "pitch": 72,
              "velocity": 104,
              "position": 10.260416666666666,
              "duration": 0.15625
            },
            {
              "pitch": 70,
              "velocity": 104,
              "position": 10.75,
              "duration": 0.21875
            },
            {
              "pitch": 72,
              "velocity": 104,
              "position": 11.25,
              "duration": 0.1875
            },
            {
              "pitch": 70,
              "velocity": 104,
              "position": 11.5,
              "duration": 2.3645833333333335
            },
            {
              "pitch": 70,
              "velocity": 124,
              "position": 26.25,
              "duration": 0.22916666666666666
            },
            {
              "pitch": 82,
              "velocity": 98,
              "position": 26.25,
              "duration": 0.23958333333333334
            },
            {
              "pitch": 82,
              "velocity": 72,
              "position": 26.5,
              "duration": 0.23958333333333334
            },
            {
              "pitch": 70,
              "velocity": 90,
              "position": 26.5,
              "duration": 0.25
            },
            {
              "pitch": 84,
              "velocity": 78,
              "position": 26.75,
              "duration": 0.16666666666666666
            },
            {
              "pitch": 72,
              "velocity": 96,
              "position": 26.75,
              "duration": 0.17708333333333334
            },
            {
              "pitch": 84,
              "velocity": 52,
              "position": 26.927083333333332,
              "duration": 0.041666666666666664
            },
            {
              "pitch": 72,
              "velocity": 54,
              "position": 26.9375,
              "duration": 0.03125
            },
            {
              "pitch": 85,
              "velocity": 80,
              "position": 26.958333333333332,
              "duration": 0.03125
            },
            {
              "pitch": 73,
              "velocity": 80,
              "position": 26.958333333333332,
              "duration": 0.03125
            },
            {
              "pitch": 74,
              "velocity": 122,
              "position": 26.979166666666668,
              "duration": 0.2708333333333333
            },
            {
              "pitch": 86,
              "velocity": 104,
              "position": 26.979166666666668,
              "duration": 0.2708333333333333
            },
            {
              "pitch": 84,
              "velocity": 82,
              "position": 27.25,
              "duration": 0.20833333333333334
            },
            {
              "pitch": 72,
              "velocity": 98,
              "position": 27.25,
              "duration": 0.22916666666666666
            },
            {
              "pitch": 82,
              "velocity": 88,
              "position": 27.5,
              "duration": 0.23958333333333334
            },
            {
              "pitch": 70,
              "velocity": 106,
              "position": 27.5,
              "duration": 0.23958333333333334
            },
            {
              "pitch": 72,
              "velocity": 120,
              "position": 27.75,
              "duration": 0.20833333333333334
            },
            {
              "pitch": 84,
              "velocity": 112,
              "position": 27.75,
              "duration": 0.21875
            },
            {
              "pitch": 82,
              "velocity": 98,
              "position": 28,
              "duration": 2.9895833333333335
            },
            {
              "pitch": 70,
              "velocity": 106,
              "position": 28,
              "duration": 2.9895833333333335
            },
            {
              "pitch": 82,
              "velocity": 98,
              "position": 31.25,
              "duration": 0.19791666666666666
            },
            {
              "pitch": 70,
              "velocity": 112,
              "position": 31.25,
              "duration": 0.20833333333333334
            },
            {
              "pitch": 84,
              "velocity": 110,
              "position": 31.5,
              "duration": 0.22916666666666666
            },
            {
              "pitch": 72,
              "velocity": 126,
              "position": 31.5,
              "duration": 0.25
            }
          ]
        },
        "4": {
          "ctab": {
            "srcChannel": 4,
            "name": "Alto Sax",
            "accType": "PHRASE2",
            "editable": false,
            "mutedNotes": [],
            "mutedChords": [
              "7aug",
              "Maj7aug",
              "7(#9)",
              "7(b13)",
              "7(b9)",
              "7(13)",
              "7#11",
              "7(9)",
              "7b5",
              "7sus4",
              "7th",
              "dim7",
              "dim",
              "minMaj7(9)",
              "minMaj7",
              "min7(11)",
              "min7(9)",
              "min(9)",
              "m7b5",
              "min7",
              "min6",
              "min"
            ],
            "autoStart": false,
            "sourceChordNote": 0,
            "sourceChordType": "Maj7",
            "ctb2Low": null,
            "ctb2Main": {
              "ntr": "ROOT_TRANSPOSITION",
              "ntt": "CHORD",
              "bassOn": false,
              "chordRootUpperLimit": 6,
              "noteLowLimit": 0,
              "noteHighLimit": 127,
              "rtr": "PITCH_SHIFT"
            },
            "ctb2High": null
          },
          "notes": [
            {
              "pitch": 55,
              "velocity": 106,
              "position": 6.25,
              "duration": 0.22916666666666666
            },
            {
              "pitch": 67,
              "velocity": 106,
              "position": 6.25,
              "duration": 0.22916666666666666
            },
            {
              "pitch": 62,
              "velocity": 106,
              "position": 6.260416666666667,
              "duration": 0.21875
            },
            {
              "pitch": 62,
              "velocity": 104,
              "position": 6.75,
              "duration": 0.8125
            },
            {
              "pitch": 55,
              "velocity": 92,
              "position": 6.75,
              "duration": 0.8125
            },
            {
              "pitch": 67,
              "velocity": 92,
              "position": 6.75,
              "duration": 0.8229166666666666
            },
            {
              "pitch": 62,
              "velocity": 126,
              "position": 10.75,
              "duration": 0.14583333333333334
            },
            {
              "pitch": 59,
              "velocity": 106,
              "position": 11.260416666666666,
              "duration": 0.17708333333333334
            },
            {
              "pitch": 57,
              "velocity": 98,
              "position": 11.760416666666666,
              "duration": 0.19791666666666666
            },
            {
              "pitch": 59,
              "velocity": 106,
              "position": 12.25,
              "duration": 0.19791666666666666
            },
            {
              "pitch": 55,
              "velocity": 84,
              "position": 12.5,
              "duration": 2.40625
            },
            {
              "pitch": 48,
              "velocity": 108,
              "position": 21.75,
              "duration": 0.21875
            },
            {
              "pitch": 59,
              "velocity": 108,
              "position": 21.75,
              "duration": 0.21875
            },
            {
              "pitch": 55,
              "velocity": 108,
              "position": 21.75,
              "duration": 0.21875
            },
            {
              "pitch": 67,
              "velocity": 104,
              "position": 22.25,
              "duration": 0.22916666666666666
            },
            {
              "pitch": 62,
              "velocity": 104,
              "position": 22.25,
              "duration": 0.22916666666666666
            },
            {
              "pitch": 55,
              "velocity": 104,
              "position": 22.25,
              "duration": 0.22916666666666666
            },
            {
              "pitch": 65,
              "velocity": 86,
              "position": 22.5,
              "duration": 0.23958333333333334
            },
            {
              "pitch": 53,
              "velocity": 86,
              "position": 22.5,
              "duration": 0.23958333333333334
            },
            {
              "pitch": 59,
              "velocity": 86,
              "position": 22.5,
              "duration": 0.23958333333333334
            },
            {
              "pitch": 67,
              "velocity": 104,
              "position": 22.75,
              "duration": 0.875
            },
            {
              "pitch": 62,
              "velocity": 104,
              "position": 22.75,
              "duration": 0.875
            },
            {
              "pitch": 55,
              "velocity": 104,
              "position": 22.75,
              "duration": 0.875
            },
            {
              "pitch": 55,
              "velocity": 98,
              "position": 28.260416666666668,
              "duration": 0.13541666666666666
            },
            {
              "pitch": 67,
              "velocity": 98,
              "position": 28.260416666666668,
              "duration": 0.14583333333333334
            },
            {
              "pitch": 55,
              "velocity": 120,
              "position": 28.5,
              "duration": 0.15625
            },
            {
              "pitch": 67,
              "velocity": 108,
              "position": 28.5,
              "duration": 0.1875
            },
            {
              "pitch": 55,
              "velocity": 100,
              "position": 29,
              "duration": 0.17708333333333334
            },
            {
              "pitch": 67,
              "velocity": 120,
              "position": 29,
              "duration": 0.25
            },
            {
              "pitch": 55,
              "velocity": 90,
              "position": 29.75,
              "duration": 0.16666666666666666
            },
            {
              "pitch": 67,
              "velocity": 102,
              "position": 29.75,
              "duration": 0.16666666666666666
            },
            {
              "pitch": 55,
              "velocity": 120,
              "position": 30,
              "duration": 0.16666666666666666
            },
            {
              "pitch": 67,
              "velocity": 126,
              "position": 30,
              "duration": 0.17708333333333334
            },
            {
              "pitch": 55,
              "velocity": 108,
              "position": 30.5,
              "duration": 0.19791666666666666
            },
            {
              "pitch": 67,
              "velocity": 124,
              "position": 30.5,
              "duration": 0.21875
            },
            {
              "pitch": 55,
              "velocity": 112,
              "position": 31.25,
              "duration": 0.15625
            },
            {
              "pitch": 67,
              "velocity": 112,
              "position": 31.25,
              "duration": 0.15625
            },
            {
              "pitch": 59,
              "velocity": 126,
              "position": 31.5,
              "duration": 0.23958333333333334
            },
            {
              "pitch": 48,
              "velocity": 126,
              "position": 31.5,
              "duration": 0.2916666666666667
            }
          ]
        },
        "5": {
          "ctab": {
            "srcChannel": 5,
            "name": "Alto Sax",
            "accType": "PHRASE2",
            "editable": false,
            "mutedNotes": [],
            "mutedChords": [
              "1+2+5",
              "sus4",
              "1+5",
              "1+8",
              "7aug",
              "Maj7aug",
              "7(#9)",
              "7(b13)",
              "7(b9)",
              "7(13)",
              "7#11",
              "7(9)",
              "7b5",
              "7sus4",
              "7th",
              "aug",
              "Maj6(9)",
              "Maj7(9)",
              "Maj(9)",
              "Maj7#11",
              "Maj7",
              "Maj6",
              "Maj"
            ],
            "autoStart": false,
            "sourceChordNote": 0,
            "sourceChordType": "minMaj7",
            "ctb2Low": null,
            "ctb2Main": {
              "ntr": "ROOT_TRANSPOSITION",
              "ntt": "CHORD",
              "bassOn": false,
              "chordRootUpperLimit": 6,
              "noteLowLimit": 0,
              "noteHighLimit": 127,
              "rtr": "PITCH_SHIFT"
            },
            "ctb2High": null
          },
          "notes": [
            {
              "pitch": 65,
              "velocity": 106,
              "position": 6.25,
              "duration": 0.22916666666666666
            },
            {
              "pitch": 55,
              "velocity": 106,
              "position": 6.25,
              "duration": 0.22916666666666666
            },
            {
              "pitch": 59,
              "velocity": 106,
              "position": 6.260416666666667,
              "duration": 0.21875
            },
            {
              "pitch": 59,
              "velocity": 104,
              "position": 6.75,
              "duration": 0.8125
            },
            {
              "pitch": 55,
              "velocity": 92,
              "position": 6.75,
              "duration": 0.8125
            },
            {
              "pitch": 65,
              "velocity": 92,
              "position": 6.75,
              "duration": 0.8229166666666666
            },
            {
              "pitch": 62,
              "velocity": 126,
              "position": 10.75,
              "duration": 0.14583333333333334
            },
            {
              "pitch": 59,
              "velocity": 106,
              "position": 11.260416666666666,
              "duration": 0.17708333333333334
            },
            {
              "pitch": 59,
              "velocity": 98,
              "position": 11.760416666666666,
              "duration": 0.19791666666666666
            },
            {
              "pitch": 59,
              "velocity": 106,
              "position": 12.25,
              "duration": 0.19791666666666666
            },
            {
              "pitch": 55,
              "velocity": 84,
              "position": 12.5,
              "duration": 2.40625
            },
            {
              "pitch": 48,
              "velocity": 108,
              "position": 21.75,
              "duration": 0.21875
            },
            {
              "pitch": 59,
              "velocity": 108,
              "position": 21.75,
              "duration": 0.21875
            },
            {
              "pitch": 55,
              "velocity": 108,
              "position": 21.75,
              "duration": 0.21875
            },
            {
              "pitch": 55,
              "velocity": 104,
              "position": 22.25,
              "duration": 0.22916666666666666
            },
            {
              "pitch": 59,
              "velocity": 104,
              "position": 22.25,
              "duration": 0.22916666666666666
            },
            {
              "pitch": 67,
              "velocity": 104,
              "position": 22.25,
              "duration": 0.22916666666666666
            },
            {
              "pitch": 53,
              "velocity": 86,
              "position": 22.5,
              "duration": 0.23958333333333334
            },
            {
              "pitch": 59,
              "velocity": 86,
              "position": 22.5,
              "duration": 0.23958333333333334
            },
            {
              "pitch": 65,
              "velocity": 86,
              "position": 22.5,
              "duration": 0.23958333333333334
            },
            {
              "pitch": 55,
              "velocity": 104,
              "position": 22.75,
              "duration": 0.875
            },
            {
              "pitch": 59,
              "velocity": 104,
              "position": 22.75,
              "duration": 0.875
            },
            {
              "pitch": 67,
              "velocity": 104,
              "position": 22.75,
              "duration": 0.875
            },
            {
              "pitch": 55,
              "velocity": 98,
              "position": 28.260416666666668,
              "duration": 0.13541666666666666
            },
            {
              "pitch": 67,
              "velocity": 98,
              "position": 28.260416666666668,
              "duration": 0.14583333333333334
            },
            {
              "pitch": 55,
              "velocity": 120,
              "position": 28.5,
              "duration": 0.15625
            },
            {
              "pitch": 67,
              "velocity": 108,
              "position": 28.5,
              "duration": 0.1875
            },
            {
              "pitch": 55,
              "velocity": 100,
              "position": 29,
              "duration": 0.17708333333333334
            },
            {
              "pitch": 67,
              "velocity": 120,
              "position": 29,
              "duration": 0.25
            },
            {
              "pitch": 55,
              "velocity": 90,
              "position": 29.75,
              "duration": 0.16666666666666666
            },
            {
              "pitch": 67,
              "velocity": 102,
              "position": 29.75,
              "duration": 0.16666666666666666
            },
            {
              "pitch": 55,
              "velocity": 120,
              "position": 30,
              "duration": 0.16666666666666666
            },
            {
              "pitch": 67,
              "velocity": 126,
              "position": 30,
              "duration": 0.17708333333333334
            },
            {
              "pitch": 55,
              "velocity": 108,
              "position": 30.5,
              "duration": 0.19791666666666666
            },
            {
              "pitch": 67,
              "velocity": 124,
              "position": 30.5,
              "duration": 0.21875
            },
            {
              "pitch": 55,
              "velocity": 112,
              "position": 31.25,
              "duration": 0.15625
            },
            {
              "pitch": 67,
              "velocity": 112,
              "position": 31.25,
              "duration": 0.15625
            },
            {
              "pitch": 59,
              "velocity": 126,
              "position": 31.5,
              "duration": 0.23958333333333334
            },
            {
              "pitch": 48,
              "velocity": 126,
              "position": 31.5,
              "duration": 0.2916666666666667
            }
          ]
        },
        "6": {
          "ctab": {
            "srcChannel": 6,
            "name": "Alto Sax",
            "accType": "PHRASE2",
            "editable": false,
            "mutedNotes": [],
            "mutedChords": [
              "1+2+5",
              "sus4",
              "1+5",
              "1+8",
              "dim7",
              "dim",
              "minMaj7(9)",
              "minMaj7",
              "min7(11)",
              "min7(9)",
              "min(9)",
              "m7b5",
              "min7",
              "min6",
              "min",
              "aug",
              "Maj6(9)",
              "Maj7(9)",
              "Maj(9)",
              "Maj7#11",
              "Maj7",
              "Maj6",
              "Maj"
            ],
            "autoStart": false,
            "sourceChordNote": 0,
            "sourceChordType": "7th",
            "ctb2Low": null,
            "ctb2Main": {
              "ntr": "ROOT_TRANSPOSITION",
              "ntt": "CHORD",
              "bassOn": false,
              "chordRootUpperLimit": 6,
              "noteLowLimit": 0,
              "noteHighLimit": 127,
              "rtr": "PITCH_SHIFT"
            },
            "ctb2High": null
          },
          "notes": [
            {
              "pitch": 65,
              "velocity": 106,
              "position": 6.25,
              "duration": 0.22916666666666666
            },
            {
              "pitch": 58,
              "velocity": 106,
              "position": 6.25,
              "duration": 0.22916666666666666
            },
            {
              "pitch": 60,
              "velocity": 106,
              "position": 6.260416666666667,
              "duration": 0.21875
            },
            {
              "pitch": 60,
              "velocity": 104,
              "position": 6.75,
              "duration": 0.8125
            },
            {
              "pitch": 58,
              "velocity": 92,
              "position": 6.75,
              "duration": 0.8125
            },
            {
              "pitch": 65,
              "velocity": 92,
              "position": 6.75,
              "duration": 0.8229166666666666
            },
            {
              "pitch": 62,
              "velocity": 126,
              "position": 10.75,
              "duration": 0.14583333333333334
            },
            {
              "pitch": 60,
              "velocity": 106,
              "position": 11.260416666666666,
              "duration": 0.17708333333333334
            },
            {
              "pitch": 58,
              "velocity": 98,
              "position": 11.760416666666666,
              "duration": 0.19791666666666666
            },
            {
              "pitch": 60,
              "velocity": 106,
              "position": 12.25,
              "duration": 0.19791666666666666
            },
            {
              "pitch": 58,
              "velocity": 84,
              "position": 12.5,
              "duration": 2.40625
            },
            {
              "pitch": 48,
              "velocity": 108,
              "position": 21.75,
              "duration": 0.21875
            },
            {
              "pitch": 60,
              "velocity": 108,
              "position": 21.75,
              "duration": 0.21875
            },
            {
              "pitch": 58,
              "velocity": 108,
              "position": 21.75,
              "duration": 0.21875
            },
            {
              "pitch": 58,
              "velocity": 104,
              "position": 22.25,
              "duration": 0.22916666666666666
            },
            {
              "pitch": 60,
              "velocity": 104,
              "position": 22.25,
              "duration": 0.22916666666666666
            },
            {
              "pitch": 70,
              "velocity": 104,
              "position": 22.25,
              "duration": 0.22916666666666666
            },
            {
              "pitch": 53,
              "velocity": 86,
              "position": 22.5,
              "duration": 0.23958333333333334
            },
            {
              "pitch": 58,
              "velocity": 86,
              "position": 22.5,
              "duration": 0.23958333333333334
            },
            {
              "pitch": 65,
              "velocity": 86,
              "position": 22.5,
              "duration": 0.23958333333333334
            },
            {
              "pitch": 58,
              "velocity": 104,
              "position": 22.75,
              "duration": 0.875
            },
            {
              "pitch": 60,
              "velocity": 104,
              "position": 22.75,
              "duration": 0.875
            },
            {
              "pitch": 70,
              "velocity": 104,
              "position": 22.75,
              "duration": 0.875
            },
            {
              "pitch": 58,
              "velocity": 98,
              "position": 28.260416666666668,
              "duration": 0.13541666666666666
            },
            {
              "pitch": 70,
              "velocity": 98,
              "position": 28.260416666666668,
              "duration": 0.14583333333333334
            },
            {
              "pitch": 58,
              "velocity": 120,
              "position": 28.5,
              "duration": 0.15625
            },
            {
              "pitch": 70,
              "velocity": 108,
              "position": 28.5,
              "duration": 0.1875
            },
            {
              "pitch": 58,
              "velocity": 100,
              "position": 29,
              "duration": 0.17708333333333334
            },
            {
              "pitch": 70,
              "velocity": 120,
              "position": 29,
              "duration": 0.25
            },
            {
              "pitch": 58,
              "velocity": 90,
              "position": 29.75,
              "duration": 0.16666666666666666
            },
            {
              "pitch": 70,
              "velocity": 102,
              "position": 29.75,
              "duration": 0.16666666666666666
            },
            {
              "pitch": 58,
              "velocity": 120,
              "position": 30,
              "duration": 0.16666666666666666
            },
            {
              "pitch": 70,
              "velocity": 126,
              "position": 30,
              "duration": 0.17708333333333334
            },
            {
              "pitch": 58,
              "velocity": 108,
              "position": 30.5,
              "duration": 0.19791666666666666
            },
            {
              "pitch": 70,
              "velocity": 124,
              "position": 30.5,
              "duration": 0.21875
            },
            {
              "pitch": 58,
              "velocity": 112,
              "position": 31.25,
              "duration": 0.15625
            },
            {
              "pitch": 70,
              "velocity": 112,
              "position": 31.25,
              "duration": 0.15625
            },
            {
              "pitch": 60,
              "velocity": 126,
              "position": 31.5,
              "duration": 0.23958333333333334
            },
            {
              "pitch": 48,
              "velocity": 126,
              "position": 31.5,
              "duration": 0.2916666666666667
            }
          ]
        },
        "8": {
          "ctab": {
            "srcChannel": 8,
            "name": "Std.Kit1",
            "accType": "RHYTHM",
            "editable": false,
            "mutedNotes": [],
            "mutedChords": [],
            "autoStart": true,
            "sourceChordNote": 0,
            "sourceChordType": "Maj7",
            "ctb2Low": null,
            "ctb2Main": {
              "ntr": "ROOT_FIXED",
              "ntt": "BYPASS",
              "bassOn": false,
              "chordRootUpperLimit": 6,
              "noteLowLimit": 0,
              "noteHighLimit": 127,
              "rtr": "PITCH_SHIFT"
            },
            "ctb2High": null
          },
          "notes": [
            {
              "pitch": 42,
              "velocity": 96,
              "position": 0,
              "duration": 0.015625
            },
            {
              "pitch": 36,
              "velocity": 92,
              "position": 0,
              "duration": 0.015625
            },
            {
              "pitch": 55,
              "velocity": 110,
              "position": 0,
              "duration": 0.015625
            },
            {
              "pitch": 42,
              "velocity": 76,
              "position": 0.5,
              "duration": 0.015625
            },
            {
              "pitch": 42,
              "velocity": 76,
              "position": 0.75,
              "duration": 0.015625
            },
            {
              "pitch": 36,
              "velocity": 90,
              "position": 0.75,
              "duration": 0.015625
            },
            {
              "pitch": 38,
              "velocity": 118,
              "position": 1,
              "duration": 0.015625
            },
            {
              "pitch": 42,
              "velocity": 84,
              "position": 1.0104166666666667,
              "duration": 0.015625
            },
            {
              "pitch": 42,
              "velocity": 76,
              "position": 1.5,
              "duration": 0.015625
            },
            {
              "pitch": 42,
              "velocity": 84,
              "position": 1.75,
              "duration": 0.015625
            },
            {
              "pitch": 42,
              "velocity": 84,
              "position": 2,
              "duration": 0.015625
            },
            {
              "pitch": 42,
              "velocity": 84,
              "position": 2.5,
              "duration": 0.015625
            },
            {
              "pitch": 42,
              "velocity": 98,
              "position": 2.7604166666666665,
              "duration": 0.015625
            },
            {
              "pitch": 36,
              "velocity": 92,
              "position": 2.7604166666666665,
              "duration": 0.015625
            },
            {
              "pitch": 42,
              "velocity": 96,
              "position": 3,
              "duration": 0.015625
            },
            {
              "pitch": 42,
              "velocity": 76,
              "position": 3.5,
              "duration": 0.015625
            },
            {
              "pitch": 42,
              "velocity": 84,
              "position": 3.75,
              "duration": 0.015625
            },
            {
              "pitch": 36,
              "velocity": 92,
              "position": 4,
              "duration": 0.015625
            },
            {
              "pitch": 42,
              "velocity": 96,
              "position": 4,
              "duration": 0.015625
            },
            {
              "pitch": 42,
              "velocity": 84,
              "position": 4.5,
              "duration": 0.015625
            },
            {
              "pitch": 42,
              "velocity": 84,
              "position": 4.75,
              "duration": 0.015625
            },
            {
              "pitch": 36,
              "velocity": 92,
              "position": 4.760416666666667,
              "duration": 0.015625
            },
            {
              "pitch": 38,
              "velocity": 118,
              "position": 5,
              "duration": 0.015625
            },
            {
              "pitch": 42,
              "velocity": 74,
              "position": 5.010416666666667,
              "duration": 0.015625
            },
            {
              "pitch": 42,
              "velocity": 84,
              "position": 5.5,
              "duration": 0.015625
            },
            {
              "pitch": 42,
              "velocity": 84,
              "position": 5.760416666666667,
              "duration": 0.015625
            },
            {
              "pitch": 42,
              "velocity": 96,
              "position": 6,
              "duration": 0.015625
            },
            {
              "pitch": 42,
              "velocity": 84,
              "position": 6.5,
              "duration": 0.015625
            },
            {
              "pitch": 46,
              "velocity": 96,
              "position": 6.760416666666667,
              "duration": 0.015625
            },
            {
              "pitch": 42,
              "velocity": 98,
              "position": 7,
              "duration": 0.015625
            },
            {
              "pitch": 42,
              "velocity": 84,
              "position": 7.5,
              "duration": 0.015625
            },
            {
              "pitch": 42,
              "velocity": 84,
              "position": 7.760416666666667,
              "duration": 0.015625
            },
            {
              "pitch": 36,
              "velocity": 90,
              "position": 8,
              "duration": 0.015625
            },
            {
              "pitch": 42,
              "velocity": 84,
              "position": 8,
              "duration": 0.015625
            },
            {
              "pitch": 42,
              "velocity": 96,
              "position": 8.5,
              "duration": 0.015625
            },
            {
              "pitch": 42,
              "velocity": 84,
              "position": 8.760416666666666,
              "duration": 0.015625
            },
            {
              "pitch": 36,
              "velocity": 90,
              "position": 8.760416666666666,
              "duration": 0.015625
            },
            {
              "pitch": 38,
              "velocity": 118,
              "position": 9,
              "duration": 0.015625
            },
            {
              "pitch": 42,
              "velocity": 96,
              "position": 9.010416666666666,
              "duration": 0.015625
            },
            {
              "pitch": 42,
              "velocity": 84,
              "position": 9.5,
              "duration": 0.015625
            },
            {
              "pitch": 42,
              "velocity": 84,
              "position": 9.75,
              "duration": 0.015625
            },
            {
              "pitch": 42,
              "velocity": 84,
              "position": 10,
              "duration": 0.015625
            },
            {
              "pitch": 42,
              "velocity": 84,
              "position": 10.5,
              "duration": 0.015625
            },
            {
              "pitch": 42,
              "velocity": 96,
              "position": 10.760416666666666,
              "duration": 0.015625
            },
            {
              "pitch": 36,
              "velocity": 92,
              "position": 10.760416666666666,
              "duration": 0.015625
            },
            {
              "pitch": 42,
              "velocity": 96,
              "position": 11,
              "duration": 0.015625
            },
            {
              "pitch": 42,
              "velocity": 84,
              "position": 11.5,
              "duration": 0.015625
            },
            {
              "pitch": 42,
              "velocity": 84,
              "position": 11.760416666666666,
              "duration": 0.015625
            },
            {
              "pitch": 36,
              "velocity": 92,
              "position": 12,
              "duration": 0.015625
            },
            {
              "pitch": 42,
              "velocity": 96,
              "position": 12,
              "duration": 0.015625
            },
            {
              "pitch": 42,
              "velocity": 84,
              "position": 12.5,
              "duration": 0.015625
            },
            {
              "pitch": 42,
              "velocity": 84,
              "position": 12.75,
              "duration": 0.015625
            },
            {
              "pitch": 36,
              "velocity": 92,
              "position": 12.760416666666666,
              "duration": 0.015625
            },
            {
              "pitch": 38,
              "velocity": 118,
              "position": 13,
              "duration": 0.015625
            },
            {
              "pitch": 42,
              "velocity": 74,
              "position": 13.010416666666666,
              "duration": 0.015625
            },
            {
              "pitch": 42,
              "velocity": 84,
              "position": 13.5,
              "duration": 0.015625
            },
            {
              "pitch": 42,
              "velocity": 84,
              "position": 13.760416666666666,
              "duration": 0.015625
            },
            {
              "pitch": 42,
              "velocity": 96,
              "position": 14,
              "duration": 0.015625
            },
            {
              "pitch": 42,
              "velocity": 84,
              "position": 14.5,
              "duration": 0.015625
            },
            {
              "pitch": 46,
              "velocity": 96,
              "position": 14.760416666666666,
              "duration": 0.015625
            },
            {
              "pitch": 42,
              "velocity": 98,
              "position": 15,
              "duration": 0.015625
            },
            {
              "pitch": 42,
              "velocity": 84,
              "position": 15.5,
              "duration": 0.015625
            },
            {
              "pitch": 42,
              "velocity": 84,
              "position": 15.760416666666666,
              "duration": 0.015625
            },
            {
              "pitch": 36,
              "velocity": 90,
              "position": 16,
              "duration": 0.015625
            },
            {
              "pitch": 42,
              "velocity": 84,
              "position": 16,
              "duration": 0.015625
            },
            {
              "pitch": 42,
              "velocity": 96,
              "position": 16.5,
              "duration": 0.015625
            },
            {
              "pitch": 42,
              "velocity": 84,
              "position": 16.760416666666668,
              "duration": 0.015625
            },
            {
              "pitch": 36,
              "velocity": 90,
              "position": 16.760416666666668,
              "duration": 0.015625
            },
            {
              "pitch": 38,
              "velocity": 118,
              "position": 17,
              "duration": 0.015625
            },
            {
              "pitch": 42,
              "velocity": 96,
              "position": 17.010416666666668,
              "duration": 0.015625
            },
            {
              "pitch": 42,
              "velocity": 84,
              "position": 17.5,
              "duration": 0.015625
            },
            {
              "pitch": 42,
              "velocity": 84,
              "position": 17.75,
              "duration": 0.015625
            },
            {
              "pitch": 42,
              "velocity": 84,
              "position": 18,
              "duration": 0.015625
            },
            {
              "pitch": 42,
              "velocity": 84,
              "position": 18.5,
              "duration": 0.015625
            },
            {
              "pitch": 42,
              "velocity": 96,
              "position": 18.760416666666668,
              "duration": 0.015625
            },
            {
              "pitch": 36,
              "velocity": 92,
              "position": 18.760416666666668,
              "duration": 0.015625
            },
            {
              "pitch": 42,
              "velocity": 96,
              "position": 19,
              "duration": 0.015625
            },
            {
              "pitch": 42,
              "velocity": 84,
              "position": 19.5,
              "duration": 0.015625
            },
            {
              "pitch": 42,
              "velocity": 84,
              "position": 19.760416666666668,
              "duration": 0.015625
            },
            {
              "pitch": 36,
              "velocity": 92,
              "position": 20,
              "duration": 0.015625
            },
            {
              "pitch": 42,
              "velocity": 96,
              "position": 20,
              "duration": 0.015625
            },
            {
              "pitch": 42,
              "velocity": 84,
              "position": 20.5,
              "duration": 0.015625
            },
            {
              "pitch": 42,
              "velocity": 84,
              "position": 20.75,
              "duration": 0.015625
            },
            {
              "pitch": 36,
              "velocity": 92,
              "position": 20.760416666666668,
              "duration": 0.015625
            },
            {
              "pitch": 38,
              "velocity": 118,
              "position": 21,
              "duration": 0.015625
            },
            {
              "pitch": 42,
              "velocity": 74,
              "position": 21.010416666666668,
              "duration": 0.015625
            },
            {
              "pitch": 42,
              "velocity": 84,
              "position": 21.5,
              "duration": 0.015625
            },
            {
              "pitch": 42,
              "velocity": 84,
              "position": 21.760416666666668,
              "duration": 0.015625
            },
            {
              "pitch": 42,
              "velocity": 96,
              "position": 22,
              "duration": 0.015625
            },
            {
              "pitch": 42,
              "velocity": 84,
              "position": 22.5,
              "duration": 0.015625
            },
            {
              "pitch": 46,
              "velocity": 96,
              "position": 22.760416666666668,
              "duration": 0.015625
            },
            {
              "pitch": 42,
              "velocity": 98,
              "position": 23,
              "duration": 0.015625
            },
            {
              "pitch": 42,
              "velocity": 84,
              "position": 23.5,
              "duration": 0.015625
            },
            {
              "pitch": 42,
              "velocity": 84,
              "position": 23.760416666666668,
              "duration": 0.015625
            },
            {
              "pitch": 36,
              "velocity": 90,
              "position": 24,
              "duration": 0.015625
            },
            {
              "pitch": 42,
              "velocity": 84,
              "position": 24,
              "duration": 0.015625
            },
            {
              "pitch": 42,
              "velocity": 96,
              "position": 24.5,
              "duration": 0.015625
            },
            {
              "pitch": 42,
              "velocity": 84,
              "position": 24.760416666666668,
              "duration": 0.015625
            },
            {
              "pitch": 36,
              "velocity": 90,
              "position": 24.760416666666668,
              "duration": 0.015625
            },
            {
              "pitch": 38,
              "velocity": 118,
              "position": 25,
              "duration": 0.015625
            },
            {
              "pitch": 42,
              "velocity": 96,
              "position": 25.010416666666668,
              "duration": 0.015625
            },
            {
              "pitch": 42,
              "velocity": 84,
              "position": 25.5,
              "duration": 0.015625
            },
            {
              "pitch": 42,
              "velocity": 84,
              "position": 25.75,
              "duration": 0.015625
            },
            {
              "pitch": 42,
              "velocity": 84,
              "position": 26,
              "duration": 0.015625
            },
            {
              "pitch": 42,
              "velocity": 84,
              "position": 26.5,
              "duration": 0.015625
            },
            {
              "pitch": 42,
              "velocity": 96,
              "position": 26.760416666666668,
              "duration": 0.015625
            },
            {
              "pitch": 36,
              "velocity": 92,
              "position": 26.760416666666668,
              "duration": 0.015625
            },
            {
              "pitch": 42,
              "velocity": 96,
              "position": 27,
              "duration": 0.015625
            },
            {
              "pitch": 42,
              "velocity": 84,
              "position": 27.5,
              "duration": 0.015625
            },
            {
              "pitch": 42,
              "velocity": 84,
              "position": 27.760416666666668,
              "duration": 0.015625
            },
            {
              "pitch": 36,
              "velocity": 92,
              "position": 28,
              "duration": 0.015625
            },
            {
              "pitch": 42,
              "velocity": 84,
              "position": 28,
              "duration": 0.015625
            },
            {
              "pitch": 42,
              "velocity": 84,
              "position": 28.5,
              "duration": 0.015625
            },
            {
              "pitch": 42,
              "velocity": 76,
              "position": 28.75,
              "duration": 0.015625
            },
            {
              "pitch": 36,
              "velocity": 90,
              "position": 28.760416666666668,
              "duration": 0.015625
            },
            {
              "pitch": 38,
              "velocity": 118,
              "position": 29,
              "duration": 0.015625
            },
            {
              "pitch": 42,
              "velocity": 84,
              "position": 29.010416666666668,
              "duration": 0.015625
            },
            {
              "pitch": 42,
              "velocity": 84,
              "position": 29.5,
              "duration": 0.015625
            },
            {
              "pitch": 42,
              "velocity": 76,
              "position": 29.75,
              "duration": 0.015625
            },
            {
              "pitch": 42,
              "velocity": 96,
              "position": 30,
              "duration": 0.015625
            },
            {
              "pitch": 42,
              "velocity": 96,
              "position": 30.5,
              "duration": 0.015625
            },
            {
              "pitch": 46,
              "velocity": 96,
              "position": 30.760416666666668,
              "duration": 0.015625
            },
            {
              "pitch": 42,
              "velocity": 96,
              "position": 31.010416666666668,
              "duration": 0.015625
            },
            {
              "pitch": 36,
              "velocity": 92,
              "position": 31.260416666666668,
              "duration": 0.015625
            },
            {
              "pitch": 38,
              "velocity": 118,
              "position": 31.5,
              "duration": 0.015625
            },
            {
              "pitch": 42,
              "velocity": 96,
              "position": 31.510416666666668,
              "duration": 0.015625
            },
            {
              "pitch": 42,
              "velocity": 76,
              "position": 31.760416666666668,
              "duration": 0.015625
            }
          ]
        },
        "10": {
          "ctab": {
            "srcChannel": 10,
            "name": "Std.Kit1",
            "accType": "SUBRHYTHM",
            "editable": false,
            "mutedNotes": [],
            "mutedChords": [],
            "autoStart": true,
            "sourceChordNote": 0,
            "sourceChordType": "Maj7",
            "ctb2Low": null,
            "ctb2Main": {
              "ntr": "ROOT_FIXED",
              "ntt": "BYPASS",
              "bassOn": false,
              "chordRootUpperLimit": 6,
              "noteLowLimit": 0,
              "noteHighLimit": 127,
              "rtr": "PITCH_SHIFT"
            },
            "ctb2High": null
          },
          "notes": [
            {
              "pitch": 56,
              "velocity": 110,
              "position": 0,
              "duration": 0.015625
            },
            {
              "pitch": 68,
              "velocity": 116,
              "position": 0,
              "duration": 0.015625
            },
            {
              "pitch": 62,
              "velocity": 82,
              "position": 0,
              "duration": 0.015625
            },
            {
              "pitch": 62,
              "velocity": 82,
              "position": 0.25,
              "duration": 0.015625
            },
            {
              "pitch": 75,
              "velocity": 120,
              "position": 0.5,
              "duration": 0.015625
            },
            {
              "pitch": 62,
              "velocity": 110,
              "position": 0.5,
              "duration": 0.015625
            },
            {
              "pitch": 56,
              "velocity": 94,
              "position": 0.5,
              "duration": 0.026041666666666668
            },
            {
              "pitch": 62,
              "velocity": 92,
              "position": 0.7604166666666666,
              "duration": 0.015625
            },
            {
              "pitch": 75,
              "velocity": 126,
              "position": 1,
              "duration": 0.015625
            },
            {
              "pitch": 62,
              "velocity": 82,
              "position": 1,
              "duration": 0.015625
            },
            {
              "pitch": 68,
              "velocity": 114,
              "position": 1,
              "duration": 0.015625
            },
            {
              "pitch": 56,
              "velocity": 90,
              "position": 1,
              "duration": 0.015625
            },
            {
              "pitch": 62,
              "velocity": 92,
              "position": 1.25,
              "duration": 0.015625
            },
            {
              "pitch": 56,
              "velocity": 80,
              "position": 1.25,
              "duration": 0.015625
            },
            {
              "pitch": 56,
              "velocity": 80,
              "position": 1.4895833333333333,
              "duration": 0.026041666666666668
            },
            {
              "pitch": 64,
              "velocity": 92,
              "position": 1.5,
              "duration": 0.015625
            },
            {
              "pitch": 56,
              "velocity": 110,
              "position": 1.75,
              "duration": 0.015625
            },
            {
              "pitch": 64,
              "velocity": 92,
              "position": 1.75,
              "duration": 0.015625
            },
            {
              "pitch": 75,
              "velocity": 120,
              "position": 2,
              "duration": 0.015625
            },
            {
              "pitch": 68,
              "velocity": 112,
              "position": 2,
              "duration": 0.015625
            },
            {
              "pitch": 62,
              "velocity": 92,
              "position": 2,
              "duration": 0.015625
            },
            {
              "pitch": 62,
              "velocity": 78,
              "position": 2.25,
              "duration": 0.015625
            },
            {
              "pitch": 56,
              "velocity": 90,
              "position": 2.2604166666666665,
              "duration": 0.015625
            },
            {
              "pitch": 62,
              "velocity": 110,
              "position": 2.4895833333333335,
              "duration": 0.015625
            },
            {
              "pitch": 56,
              "velocity": 90,
              "position": 2.4895833333333335,
              "duration": 0.026041666666666668
            },
            {
              "pitch": 56,
              "velocity": 92,
              "position": 2.75,
              "duration": 0.015625
            },
            {
              "pitch": 64,
              "velocity": 80,
              "position": 2.75,
              "duration": 0.015625
            },
            {
              "pitch": 75,
              "velocity": 120,
              "position": 2.7604166666666665,
              "duration": 0.015625
            },
            {
              "pitch": 64,
              "velocity": 92,
              "position": 2.9895833333333335,
              "duration": 0.015625
            },
            {
              "pitch": 68,
              "velocity": 112,
              "position": 3,
              "duration": 0.015625
            },
            {
              "pitch": 56,
              "velocity": 110,
              "position": 3,
              "duration": 0.015625
            },
            {
              "pitch": 62,
              "velocity": 82,
              "position": 3.25,
              "duration": 0.015625
            },
            {
              "pitch": 56,
              "velocity": 92,
              "position": 3.4895833333333335,
              "duration": 0.026041666666666668
            },
            {
              "pitch": 64,
              "velocity": 110,
              "position": 3.5,
              "duration": 0.015625
            },
            {
              "pitch": 75,
              "velocity": 112,
              "position": 3.5,
              "duration": 0.015625
            },
            {
              "pitch": 56,
              "velocity": 94,
              "position": 3.75,
              "duration": 0.015625
            },
            {
              "pitch": 64,
              "velocity": 90,
              "position": 3.75,
              "duration": 0.015625
            },
            {
              "pitch": 56,
              "velocity": 110,
              "position": 4,
              "duration": 0.015625
            },
            {
              "pitch": 68,
              "velocity": 116,
              "position": 4,
              "duration": 0.015625
            },
            {
              "pitch": 62,
              "velocity": 82,
              "position": 4,
              "duration": 0.015625
            },
            {
              "pitch": 62,
              "velocity": 82,
              "position": 4.25,
              "duration": 0.015625
            },
            {
              "pitch": 75,
              "velocity": 120,
              "position": 4.5,
              "duration": 0.015625
            },
            {
              "pitch": 62,
              "velocity": 110,
              "position": 4.5,
              "duration": 0.015625
            },
            {
              "pitch": 56,
              "velocity": 94,
              "position": 4.5,
              "duration": 0.026041666666666668
            },
            {
              "pitch": 62,
              "velocity": 92,
              "position": 4.760416666666667,
              "duration": 0.015625
            },
            {
              "pitch": 75,
              "velocity": 126,
              "position": 5,
              "duration": 0.015625
            },
            {
              "pitch": 62,
              "velocity": 82,
              "position": 5,
              "duration": 0.015625
            },
            {
              "pitch": 68,
              "velocity": 114,
              "position": 5,
              "duration": 0.015625
            },
            {
              "pitch": 56,
              "velocity": 90,
              "position": 5,
              "duration": 0.015625
            },
            {
              "pitch": 62,
              "velocity": 92,
              "position": 5.25,
              "duration": 0.015625
            },
            {
              "pitch": 56,
              "velocity": 80,
              "position": 5.25,
              "duration": 0.015625
            },
            {
              "pitch": 56,
              "velocity": 80,
              "position": 5.489583333333333,
              "duration": 0.026041666666666668
            },
            {
              "pitch": 64,
              "velocity": 92,
              "position": 5.5,
              "duration": 0.015625
            },
            {
              "pitch": 56,
              "velocity": 110,
              "position": 5.75,
              "duration": 0.015625
            },
            {
              "pitch": 64,
              "velocity": 92,
              "position": 5.75,
              "duration": 0.015625
            },
            {
              "pitch": 75,
              "velocity": 120,
              "position": 6,
              "duration": 0.015625
            },
            {
              "pitch": 68,
              "velocity": 112,
              "position": 6,
              "duration": 0.015625
            },
            {
              "pitch": 62,
              "velocity": 92,
              "position": 6,
              "duration": 0.015625
            },
            {
              "pitch": 62,
              "velocity": 78,
              "position": 6.25,
              "duration": 0.015625
            },
            {
              "pitch": 56,
              "velocity": 90,
              "position": 6.260416666666667,
              "duration": 0.015625
            },
            {
              "pitch": 62,
              "velocity": 110,
              "position": 6.489583333333333,
              "duration": 0.015625
            },
            {
              "pitch": 56,
              "velocity": 90,
              "position": 6.489583333333333,
              "duration": 0.026041666666666668
            },
            {
              "pitch": 56,
              "velocity": 92,
              "position": 6.75,
              "duration": 0.015625
            },
            {
              "pitch": 64,
              "velocity": 80,
              "position": 6.75,
              "duration": 0.015625
            },
            {
              "pitch": 75,
              "velocity": 120,
              "position": 6.760416666666667,
              "duration": 0.015625
            },
            {
              "pitch": 64,
              "velocity": 92,
              "position": 6.989583333333333,
              "duration": 0.015625
            },
            {
              "pitch": 68,
              "velocity": 112,
              "position": 7,
              "duration": 0.015625
            },
            {
              "pitch": 56,
              "velocity": 110,
              "position": 7,
              "duration": 0.015625
            },
            {
              "pitch": 62,
              "velocity": 82,
              "position": 7.25,
              "duration": 0.015625
            },
            {
              "pitch": 56,
              "velocity": 92,
              "position": 7.489583333333333,
              "duration": 0.026041666666666668
            },
            {
              "pitch": 64,
              "velocity": 110,
              "position": 7.5,
              "duration": 0.015625
            },
            {
              "pitch": 75,
              "velocity": 112,
              "position": 7.5,
              "duration": 0.015625
            },
            {
              "pitch": 56,
              "velocity": 94,
              "position": 7.75,
              "duration": 0.015625
            },
            {
              "pitch": 64,
              "velocity": 90,
              "position": 7.75,
              "duration": 0.015625
            },
            {
              "pitch": 56,
              "velocity": 110,
              "position": 8,
              "duration": 0.015625
            },
            {
              "pitch": 68,
              "velocity": 116,
              "position": 8,
              "duration": 0.015625
            },
            {
              "pitch": 62,
              "velocity": 82,
              "position": 8,
              "duration": 0.015625
            },
            {
              "pitch": 62,
              "velocity": 82,
              "position": 8.25,
              "duration": 0.015625
            },
            {
              "pitch": 75,
              "velocity": 120,
              "position": 8.5,
              "duration": 0.015625
            },
            {
              "pitch": 62,
              "velocity": 110,
              "position": 8.5,
              "duration": 0.015625
            },
            {
              "pitch": 56,
              "velocity": 94,
              "position": 8.5,
              "duration": 0.026041666666666668
            },
            {
              "pitch": 62,
              "velocity": 92,
              "position": 8.760416666666666,
              "duration": 0.015625
            },
            {
              "pitch": 75,
              "velocity": 126,
              "position": 9,
              "duration": 0.015625
            },
            {
              "pitch": 62,
              "velocity": 82,
              "position": 9,
              "duration": 0.015625
            },
            {
              "pitch": 68,
              "velocity": 114,
              "position": 9,
              "duration": 0.015625
            },
            {
              "pitch": 56,
              "velocity": 90,
              "position": 9,
              "duration": 0.015625
            },
            {
              "pitch": 62,
              "velocity": 92,
              "position": 9.25,
              "duration": 0.015625
            },
            {
              "pitch": 56,
              "velocity": 80,
              "position": 9.25,
              "duration": 0.015625
            },
            {
              "pitch": 56,
              "velocity": 80,
              "position": 9.489583333333334,
              "duration": 0.026041666666666668
            },
            {
              "pitch": 64,
              "velocity": 92,
              "position": 9.5,
              "duration": 0.015625
            },
            {
              "pitch": 56,
              "velocity": 110,
              "position": 9.75,
              "duration": 0.015625
            },
            {
              "pitch": 64,
              "velocity": 92,
              "position": 9.75,
              "duration": 0.015625
            },
            {
              "pitch": 75,
              "velocity": 120,
              "position": 10,
              "duration": 0.015625
            },
            {
              "pitch": 68,
              "velocity": 112,
              "position": 10,
              "duration": 0.015625
            },
            {
              "pitch": 62,
              "velocity": 92,
              "position": 10,
              "duration": 0.015625
            },
            {
              "pitch": 62,
              "velocity": 78,
              "position": 10.25,
              "duration": 0.015625
            },
            {
              "pitch": 56,
              "velocity": 90,
              "position": 10.260416666666666,
              "duration": 0.015625
            },
            {
              "pitch": 62,
              "velocity": 110,
              "position": 10.489583333333334,
              "duration": 0.015625
            },
            {
              "pitch": 56,
              "velocity": 90,
              "position": 10.489583333333334,
              "duration": 0.026041666666666668
            },
            {
              "pitch": 56,
              "velocity": 92,
              "position": 10.75,
              "duration": 0.015625
            },
            {
              "pitch": 64,
              "velocity": 80,
              "position": 10.75,
              "duration": 0.015625
            },
            {
              "pitch": 75,
              "velocity": 120,
              "position": 10.760416666666666,
              "duration": 0.015625
            },
            {
              "pitch": 64,
              "velocity": 92,
              "position": 10.989583333333334,
              "duration": 0.015625
            },
            {
              "pitch": 68,
              "velocity": 112,
              "position": 11,
              "duration": 0.015625
            },
            {
              "pitch": 56,
              "velocity": 110,
              "position": 11,
              "duration": 0.015625
            },
            {
              "pitch": 62,
              "velocity": 82,
              "position": 11.25,
              "duration": 0.015625
            },
            {
              "pitch": 56,
              "velocity": 92,
              "position": 11.489583333333334,
              "duration": 0.026041666666666668
            },
            {
              "pitch": 64,
              "velocity": 110,
              "position": 11.5,
              "duration": 0.015625
            },
            {
              "pitch": 75,
              "velocity": 112,
              "position": 11.5,
              "duration": 0.015625
            },
            {
              "pitch": 56,
              "velocity": 94,
              "position": 11.75,
              "duration": 0.015625
            },
            {
              "pitch": 64,
              "velocity": 90,
              "position": 11.75,
              "duration": 0.015625
            },
            {
              "pitch": 56,
              "velocity": 110,
              "position": 12,
              "duration": 0.015625
            },
            {
              "pitch": 68,
              "velocity": 116,
              "position": 12,
              "duration": 0.015625
            },
            {
              "pitch": 62,
              "velocity": 82,
              "position": 12,
              "duration": 0.015625
            },
            {
              "pitch": 62,
              "velocity": 82,
              "position": 12.25,
              "duration": 0.015625
            },
            {
              "pitch": 75,
              "velocity": 120,
              "position": 12.5,
              "duration": 0.015625
            },
            {
              "pitch": 62,
              "velocity": 110,
              "position": 12.5,
              "duration": 0.015625
            },
            {
              "pitch": 56,
              "velocity": 94,
              "position": 12.5,
              "duration": 0.026041666666666668
            },
            {
              "pitch": 62,
              "velocity": 92,
              "position": 12.760416666666666,
              "duration": 0.015625
            },
            {
              "pitch": 75,
              "velocity": 126,
              "position": 13,
              "duration": 0.015625
            },
            {
              "pitch": 62,
              "velocity": 82,
              "position": 13,
              "duration": 0.015625
            },
            {
              "pitch": 68,
              "velocity": 114,
              "position": 13,
              "duration": 0.015625
            },
            {
              "pitch": 56,
              "velocity": 90,
              "position": 13,
              "duration": 0.015625
            },
            {
              "pitch": 62,
              "velocity": 92,
              "position": 13.25,
              "duration": 0.015625
            },
            {
              "pitch": 56,
              "velocity": 80,
              "position": 13.25,
              "duration": 0.015625
            },
            {
              "pitch": 56,
              "velocity": 80,
              "position": 13.489583333333334,
              "duration": 0.026041666666666668
            },
            {
              "pitch": 64,
              "velocity": 92,
              "position": 13.5,
              "duration": 0.015625
            },
            {
              "pitch": 56,
              "velocity": 110,
              "position": 13.75,
              "duration": 0.015625
            },
            {
              "pitch": 64,
              "velocity": 92,
              "position": 13.75,
              "duration": 0.015625
            },
            {
              "pitch": 75,
              "velocity": 120,
              "position": 14,
              "duration": 0.015625
            },
            {
              "pitch": 68,
              "velocity": 112,
              "position": 14,
              "duration": 0.015625
            },
            {
              "pitch": 62,
              "velocity": 92,
              "position": 14,
              "duration": 0.015625
            },
            {
              "pitch": 62,
              "velocity": 78,
              "position": 14.25,
              "duration": 0.015625
            },
            {
              "pitch": 56,
              "velocity": 90,
              "position": 14.260416666666666,
              "duration": 0.015625
            },
            {
              "pitch": 62,
              "velocity": 110,
              "position": 14.489583333333334,
              "duration": 0.015625
            },
            {
              "pitch": 56,
              "velocity": 90,
              "position": 14.489583333333334,
              "duration": 0.026041666666666668
            },
            {
              "pitch": 56,
              "velocity": 92,
              "position": 14.75,
              "duration": 0.015625
            },
            {
              "pitch": 64,
              "velocity": 80,
              "position": 14.75,
              "duration": 0.015625
            },
            {
              "pitch": 75,
              "velocity": 120,
              "position": 14.760416666666666,
              "duration": 0.015625
            },
            {
              "pitch": 64,
              "velocity": 92,
              "position": 14.989583333333334,
              "duration": 0.015625
            },
            {
              "pitch": 68,
              "velocity": 112,
              "position": 15,
              "duration": 0.015625
            },
            {
              "pitch": 56,
              "velocity": 110,
              "position": 15,
              "duration": 0.015625
            },
            {
              "pitch": 62,
              "velocity": 82,
              "position": 15.25,
              "duration": 0.015625
            },
            {
              "pitch": 56,
              "velocity": 92,
              "position": 15.489583333333334,
              "duration": 0.026041666666666668
            },
            {
              "pitch": 64,
              "velocity": 110,
              "position": 15.5,
              "duration": 0.015625
            },
            {
              "pitch": 75,
              "velocity": 112,
              "position": 15.5,
              "duration": 0.015625
            },
            {
              "pitch": 56,
              "velocity": 94,
              "position": 15.75,
              "duration": 0.015625
            },
            {
              "pitch": 64,
              "velocity": 90,
              "position": 15.75,
              "duration": 0.015625
            },
            {
              "pitch": 62,
              "velocity": 82,
              "position": 16,
              "duration": 0.015625
            },
            {
              "pitch": 56,
              "velocity": 110,
              "position": 16,
              "duration": 0.015625
            },
            {
              "pitch": 68,
              "velocity": 116,
              "position": 16,
              "duration": 0.015625
            },
            {
              "pitch": 62,
              "velocity": 82,
              "position": 16.25,
              "duration": 0.015625
            },
            {
              "pitch": 62,
              "velocity": 110,
              "position": 16.5,
              "duration": 0.015625
            },
            {
              "pitch": 75,
              "velocity": 120,
              "position": 16.5,
              "duration": 0.015625
            },
            {
              "pitch": 56,
              "velocity": 94,
              "position": 16.5,
              "duration": 0.026041666666666668
            },
            {
              "pitch": 62,
              "velocity": 92,
              "position": 16.75,
              "duration": 0.015625
            },
            {
              "pitch": 62,
              "velocity": 82,
              "position": 17,
              "duration": 0.015625
            },
            {
              "pitch": 75,
              "velocity": 126,
              "position": 17,
              "duration": 0.015625
            },
            {
              "pitch": 68,
              "velocity": 114,
              "position": 17,
              "duration": 0.015625
            },
            {
              "pitch": 56,
              "velocity": 90,
              "position": 17,
              "duration": 0.015625
            },
            {
              "pitch": 62,
              "velocity": 92,
              "position": 17.25,
              "duration": 0.015625
            },
            {
              "pitch": 56,
              "velocity": 80,
              "position": 17.25,
              "duration": 0.015625
            },
            {
              "pitch": 56,
              "velocity": 80,
              "position": 17.489583333333332,
              "duration": 0.015625
            },
            {
              "pitch": 64,
              "velocity": 92,
              "position": 17.5,
              "duration": 0.015625
            },
            {
              "pitch": 64,
              "velocity": 92,
              "position": 17.75,
              "duration": 0.015625
            },
            {
              "pitch": 56,
              "velocity": 110,
              "position": 17.75,
              "duration": 0.015625
            },
            {
              "pitch": 56,
              "velocity": 90,
              "position": 17.78125,
              "duration": 0.015625
            },
            {
              "pitch": 75,
              "velocity": 120,
              "position": 18,
              "duration": 0.015625
            },
            {
              "pitch": 62,
              "velocity": 92,
              "position": 18,
              "duration": 0.015625
            },
            {
              "pitch": 56,
              "velocity": 110,
              "position": 18.229166666666668,
              "duration": 0.015625
            },
            {
              "pitch": 62,
              "velocity": 78,
              "position": 18.25,
              "duration": 0.015625
            },
            {
              "pitch": 56,
              "velocity": 90,
              "position": 18.260416666666668,
              "duration": 0.015625
            },
            {
              "pitch": 62,
              "velocity": 110,
              "position": 18.5,
              "duration": 0.015625
            },
            {
              "pitch": 56,
              "velocity": 80,
              "position": 18.5,
              "duration": 0.015625
            },
            {
              "pitch": 56,
              "velocity": 110,
              "position": 18.5625,
              "duration": 0.015625
            },
            {
              "pitch": 64,
              "velocity": 80,
              "position": 18.75,
              "duration": 0.015625
            },
            {
              "pitch": 56,
              "velocity": 80,
              "position": 18.75,
              "duration": 0.015625
            },
            {
              "pitch": 75,
              "velocity": 120,
              "position": 18.760416666666668,
              "duration": 0.015625
            },
            {
              "pitch": 56,
              "velocity": 110,
              "position": 18.895833333333332,
              "duration": 0.015625
            },
            {
              "pitch": 64,
              "velocity": 92,
              "position": 19,
              "duration": 0.015625
            },
            {
              "pitch": 56,
              "velocity": 110,
              "position": 19,
              "duration": 0.015625
            },
            {
              "pitch": 56,
              "velocity": 110,
              "position": 19.25,
              "duration": 0.015625
            },
            {
              "pitch": 62,
              "velocity": 82,
              "position": 19.25,
              "duration": 0.015625
            },
            {
              "pitch": 64,
              "velocity": 110,
              "position": 19.5,
              "duration": 0.015625
            },
            {
              "pitch": 56,
              "velocity": 92,
              "position": 19.5,
              "duration": 0.015625
            },
            {
              "pitch": 75,
              "velocity": 112,
              "position": 19.5,
              "duration": 0.015625
            },
            {
              "pitch": 56,
              "velocity": 110,
              "position": 19.5625,
              "duration": 0.015625
            },
            {
              "pitch": 64,
              "velocity": 90,
              "position": 19.75,
              "duration": 0.015625
            },
            {
              "pitch": 56,
              "velocity": 72,
              "position": 19.75,
              "duration": 0.015625
            },
            {
              "pitch": 56,
              "velocity": 110,
              "position": 19.864583333333332,
              "duration": 0.015625
            },
            {
              "pitch": 62,
              "velocity": 92,
              "position": 20,
              "duration": 0.015625
            },
            {
              "pitch": 56,
              "velocity": 110,
              "position": 20,
              "duration": 0.015625
            },
            {
              "pitch": 56,
              "velocity": 110,
              "position": 20.229166666666668,
              "duration": 0.015625
            },
            {
              "pitch": 62,
              "velocity": 82,
              "position": 20.25,
              "duration": 0.015625
            },
            {
              "pitch": 62,
              "velocity": 110,
              "position": 20.5,
              "duration": 0.015625
            },
            {
              "pitch": 56,
              "velocity": 110,
              "position": 20.5,
              "duration": 0.015625
            },
            {
              "pitch": 75,
              "velocity": 120,
              "position": 20.5,
              "duration": 0.015625
            },
            {
              "pitch": 56,
              "velocity": 110,
              "position": 20.520833333333332,
              "duration": 0.015625
            },
            {
              "pitch": 62,
              "velocity": 92,
              "position": 20.75,
              "duration": 0.015625
            },
            {
              "pitch": 62,
              "velocity": 92,
              "position": 21,
              "duration": 0.015625
            },
            {
              "pitch": 56,
              "velocity": 80,
              "position": 21,
              "duration": 0.015625
            },
            {
              "pitch": 68,
              "velocity": 112,
              "position": 21,
              "duration": 0.015625
            },
            {
              "pitch": 75,
              "velocity": 114,
              "position": 21.010416666666668,
              "duration": 0.015625
            },
            {
              "pitch": 62,
              "velocity": 92,
              "position": 21.25,
              "duration": 0.015625
            },
            {
              "pitch": 56,
              "velocity": 72,
              "position": 21.25,
              "duration": 0.015625
            },
            {
              "pitch": 56,
              "velocity": 90,
              "position": 21.489583333333332,
              "duration": 0.015625
            },
            {
              "pitch": 64,
              "velocity": 110,
              "position": 21.5,
              "duration": 0.015625
            },
            {
              "pitch": 64,
              "velocity": 92,
              "position": 21.75,
              "duration": 0.015625
            },
            {
              "pitch": 56,
              "velocity": 92,
              "position": 21.75,
              "duration": 0.026041666666666668
            },
            {
              "pitch": 62,
              "velocity": 78,
              "position": 22,
              "duration": 0.015625
            },
            {
              "pitch": 68,
              "velocity": 112,
              "position": 22,
              "duration": 0.015625
            },
            {
              "pitch": 75,
              "velocity": 120,
              "position": 22.010416666666668,
              "duration": 0.015625
            },
            {
              "pitch": 62,
              "velocity": 92,
              "position": 22.25,
              "duration": 0.015625
            },
            {
              "pitch": 56,
              "velocity": 80,
              "position": 22.25,
              "duration": 0.015625
            },
            {
              "pitch": 56,
              "velocity": 90,
              "position": 22.489583333333332,
              "duration": 0.026041666666666668
            },
            {
              "pitch": 62,
              "velocity": 110,
              "position": 22.5,
              "duration": 0.015625
            },
            {
              "pitch": 56,
              "velocity": 70,
              "position": 22.75,
              "duration": 0.015625
            },
            {
              "pitch": 64,
              "velocity": 80,
              "position": 22.75,
              "duration": 0.015625
            },
            {
              "pitch": 75,
              "velocity": 112,
              "position": 22.760416666666668,
              "duration": 0.015625
            },
            {
              "pitch": 64,
              "velocity": 80,
              "position": 23,
              "duration": 0.015625
            },
            {
              "pitch": 56,
              "velocity": 110,
              "position": 23,
              "duration": 0.015625
            },
            {
              "pitch": 68,
              "velocity": 114,
              "position": 23,
              "duration": 0.015625
            },
            {
              "pitch": 62,
              "velocity": 82,
              "position": 23.25,
              "duration": 0.015625
            },
            {
              "pitch": 64,
              "velocity": 110,
              "position": 23.5,
              "duration": 0.015625
            },
            {
              "pitch": 56,
              "velocity": 80,
              "position": 23.5,
              "duration": 0.015625
            },
            {
              "pitch": 75,
              "velocity": 120,
              "position": 23.5,
              "duration": 0.015625
            },
            {
              "pitch": 64,
              "velocity": 92,
              "position": 23.75,
              "duration": 0.015625
            },
            {
              "pitch": 56,
              "velocity": 80,
              "position": 23.75,
              "duration": 0.015625
            },
            {
              "pitch": 56,
              "velocity": 110,
              "position": 24,
              "duration": 0.015625
            },
            {
              "pitch": 68,
              "velocity": 116,
              "position": 24,
              "duration": 0.015625
            },
            {
              "pitch": 62,
              "velocity": 82,
              "position": 24,
              "duration": 0.015625
            },
            {
              "pitch": 62,
              "velocity": 82,
              "position": 24.25,
              "duration": 0.015625
            },
            {
              "pitch": 75,
              "velocity": 120,
              "position": 24.5,
              "duration": 0.015625
            },
            {
              "pitch": 62,
              "velocity": 110,
              "position": 24.5,
              "duration": 0.015625
            },
            {
              "pitch": 56,
              "velocity": 94,
              "position": 24.5,
              "duration": 0.026041666666666668
            },
            {
              "pitch": 62,
              "velocity": 92,
              "position": 24.760416666666668,
              "duration": 0.015625
            },
            {
              "pitch": 75,
              "velocity": 126,
              "position": 25,
              "duration": 0.015625
            },
            {
              "pitch": 62,
              "velocity": 82,
              "position": 25,
              "duration": 0.015625
            },
            {
              "pitch": 68,
              "velocity": 114,
              "position": 25,
              "duration": 0.015625
            },
            {
              "pitch": 56,
              "velocity": 90,
              "position": 25,
              "duration": 0.015625
            },
            {
              "pitch": 62,
              "velocity": 92,
              "position": 25.25,
              "duration": 0.015625
            },
            {
              "pitch": 56,
              "velocity": 80,
              "position": 25.25,
              "duration": 0.015625
            },
            {
              "pitch": 56,
              "velocity": 80,
              "position": 25.489583333333332,
              "duration": 0.026041666666666668
            },
            {
              "pitch": 64,
              "velocity": 92,
              "position": 25.5,
              "duration": 0.015625
            },
            {
              "pitch": 56,
              "velocity": 110,
              "position": 25.75,
              "duration": 0.015625
            },
            {
              "pitch": 64,
              "velocity": 92,
              "position": 25.75,
              "duration": 0.015625
            },
            {
              "pitch": 75,
              "velocity": 120,
              "position": 26,
              "duration": 0.015625
            },
            {
              "pitch": 68,
              "velocity": 112,
              "position": 26,
              "duration": 0.015625
            },
            {
              "pitch": 62,
              "velocity": 92,
              "position": 26,
              "duration": 0.015625
            },
            {
              "pitch": 62,
              "velocity": 78,
              "position": 26.25,
              "duration": 0.015625
            },
            {
              "pitch": 56,
              "velocity": 90,
              "position": 26.260416666666668,
              "duration": 0.015625
            },
            {
              "pitch": 62,
              "velocity": 110,
              "position": 26.489583333333332,
              "duration": 0.015625
            },
            {
              "pitch": 56,
              "velocity": 90,
              "position": 26.489583333333332,
              "duration": 0.026041666666666668
            },
            {
              "pitch": 56,
              "velocity": 92,
              "position": 26.75,
              "duration": 0.015625
            },
            {
              "pitch": 64,
              "velocity": 80,
              "position": 26.75,
              "duration": 0.015625
            },
            {
              "pitch": 75,
              "velocity": 120,
              "position": 26.760416666666668,
              "duration": 0.015625
            },
            {
              "pitch": 64,
              "velocity": 92,
              "position": 26.989583333333332,
              "duration": 0.015625
            },
            {
              "pitch": 68,
              "velocity": 112,
              "position": 27,
              "duration": 0.015625
            },
            {
              "pitch": 56,
              "velocity": 110,
              "position": 27,
              "duration": 0.015625
            },
            {
              "pitch": 62,
              "velocity": 82,
              "position": 27.25,
              "duration": 0.015625
            },
            {
              "pitch": 56,
              "velocity": 92,
              "position": 27.489583333333332,
              "duration": 0.026041666666666668
            },
            {
              "pitch": 64,
              "velocity": 110,
              "position": 27.5,
              "duration": 0.015625
            },
            {
              "pitch": 75,
              "velocity": 112,
              "position": 27.5,
              "duration": 0.015625
            },
            {
              "pitch": 56,
              "velocity": 94,
              "position": 27.75,
              "duration": 0.015625
            },
            {
              "pitch": 64,
              "velocity": 90,
              "position": 27.75,
              "duration": 0.015625
            },
            {
              "pitch": 56,
              "velocity": 110,
              "position": 28,
              "duration": 0.015625
            },
            {
              "pitch": 68,
              "velocity": 116,
              "position": 28,
              "duration": 0.015625
            },
            {
              "pitch": 62,
              "velocity": 82,
              "position": 28,
              "duration": 0.015625
            },
            {
              "pitch": 62,
              "velocity": 82,
              "position": 28.25,
              "duration": 0.015625
            },
            {
              "pitch": 75,
              "velocity": 120,
              "position": 28.5,
              "duration": 0.015625
            },
            {
              "pitch": 62,
              "velocity": 110,
              "position": 28.5,
              "duration": 0.015625
            },
            {
              "pitch": 56,
              "velocity": 94,
              "position": 28.5,
              "duration": 0.026041666666666668
            },
            {
              "pitch": 62,
              "velocity": 92,
              "position": 28.760416666666668,
              "duration": 0.015625
            },
            {
              "pitch": 75,
              "velocity": 126,
              "position": 29,
              "duration": 0.015625
            },
            {
              "pitch": 62,
              "velocity": 82,
              "position": 29,
              "duration": 0.015625
            },
            {
              "pitch": 68,
              "velocity": 114,
              "position": 29,
              "duration": 0.015625
            },
            {
              "pitch": 56,
              "velocity": 90,
              "position": 29,
              "duration": 0.015625
            },
            {
              "pitch": 62,
              "velocity": 92,
              "position": 29.25,
              "duration": 0.015625
            },
            {
              "pitch": 56,
              "velocity": 80,
              "position": 29.25,
              "duration": 0.015625
            },
            {
              "pitch": 56,
              "velocity": 80,
              "position": 29.489583333333332,
              "duration": 0.026041666666666668
            },
            {
              "pitch": 64,
              "velocity": 92,
              "position": 29.5,
              "duration": 0.015625
            },
            {
              "pitch": 56,
              "velocity": 110,
              "position": 29.75,
              "duration": 0.015625
            },
            {
              "pitch": 64,
              "velocity": 92,
              "position": 29.75,
              "duration": 0.015625
            },
            {
              "pitch": 75,
              "velocity": 120,
              "position": 30,
              "duration": 0.015625
            },
            {
              "pitch": 68,
              "velocity": 112,
              "position": 30,
              "duration": 0.015625
            },
            {
              "pitch": 62,
              "velocity": 92,
              "position": 30,
              "duration": 0.015625
            },
            {
              "pitch": 62,
              "velocity": 78,
              "position": 30.25,
              "duration": 0.015625
            },
            {
              "pitch": 56,
              "velocity": 90,
              "position": 30.260416666666668,
              "duration": 0.015625
            },
            {
              "pitch": 62,
              "velocity": 110,
              "position": 30.489583333333332,
              "duration": 0.015625
            },
            {
              "pitch": 56,
              "velocity": 90,
              "position": 30.489583333333332,
              "duration": 0.026041666666666668
            },
            {
              "pitch": 56,
              "velocity": 92,
              "position": 30.75,
              "duration": 0.015625
            },
            {
              "pitch": 64,
              "velocity": 80,
              "position": 30.75,
              "duration": 0.015625
            },
            {
              "pitch": 75,
              "velocity": 120,
              "position": 30.760416666666668,
              "duration": 0.015625
            },
            {
              "pitch": 64,
              "velocity": 92,
              "position": 30.989583333333332,
              "duration": 0.015625
            },
            {
              "pitch": 68,
              "velocity": 112,
              "position": 31,
              "duration": 0.015625
            },
            {
              "pitch": 56,
              "velocity": 110,
              "position": 31,
              "duration": 0.015625
            },
            {
              "pitch": 62,
              "velocity": 82,
              "position": 31.25,
              "duration": 0.015625
            },
            {
              "pitch": 56,
              "velocity": 92,
              "position": 31.489583333333332,
              "duration": 0.026041666666666668
            },
            {
              "pitch": 64,
              "velocity": 110,
              "position": 31.5,
              "duration": 0.015625
            },
            {
              "pitch": 75,
              "velocity": 112,
              "position": 31.5,
              "duration": 0.015625
            },
            {
              "pitch": 56,
              "velocity": 94,
              "position": 31.75,
              "duration": 0.015625
            },
            {
              "pitch": 64,
              "velocity": 90,
              "position": 31.75,
              "duration": 0.015625
            }
          ]
        },
        "12": {
          "ctab": {
            "srcChannel": 12,
            "name": "Aco.Bass",
            "accType": "BASS",
            "editable": false,
            "mutedNotes": [],
            "mutedChords": [
              "7aug",
              "Maj7aug",
              "7(#9)",
              "7(b13)",
              "7(b9)",
              "7(13)",
              "7#11",
              "7(9)",
              "7b5",
              "7sus4",
              "7th",
              "dim7",
              "dim",
              "minMaj7(9)",
              "minMaj7",
              "min7(11)",
              "min7(9)",
              "min(9)",
              "m7b5",
              "min7",
              "min6",
              "min"
            ],
            "autoStart": false,
            "sourceChordNote": 0,
            "sourceChordType": "Maj7",
            "ctb2Low": null,
            "ctb2Main": {
              "ntr": "ROOT_TRANSPOSITION",
              "ntt": "MELODY",
              "bassOn": true,
              "chordRootUpperLimit": 3,
              "noteLowLimit": 28,
              "noteHighLimit": 54,
              "rtr": "PITCH_SHIFT_TO_ROOT"
            },
            "ctb2High": null
          },
          "notes": [
            {
              "pitch": 48,
              "velocity": 110,
              "position": 0,
              "duration": 0.4270833333333333
            },
            {
              "pitch": 43,
              "velocity": 98,
              "position": 0.4895833333333333,
              "duration": 0.46875
            },
            {
              "pitch": 45,
              "velocity": 110,
              "position": 1,
              "duration": 0.3229166666666667
            },
            {
              "pitch": 43,
              "velocity": 80,
              "position": 2.2708333333333335,
              "duration": 0.21875
            },
            {
              "pitch": 48,
              "velocity": 92,
              "position": 2.7708333333333335,
              "duration": 0.1875
            },
            {
              "pitch": 50,
              "velocity": 80,
              "position": 3.2604166666666665,
              "duration": 0.19791666666666666
            },
            {
              "pitch": 52,
              "velocity": 92,
              "position": 3.5,
              "duration": 0.21875
            },
            {
              "pitch": 48,
              "velocity": 106,
              "position": 4,
              "duration": 0.5
            },
            {
              "pitch": 43,
              "velocity": 92,
              "position": 4.5,
              "duration": 0.3854166666666667
            },
            {
              "pitch": 45,
              "velocity": 106,
              "position": 5,
              "duration": 0.3229166666666667
            },
            {
              "pitch": 48,
              "velocity": 110,
              "position": 6.260416666666667,
              "duration": 0.15625
            },
            {
              "pitch": 43,
              "velocity": 88,
              "position": 6.260416666666667,
              "duration": 0.16666666666666666
            },
            {
              "pitch": 43,
              "velocity": 88,
              "position": 6.75,
              "duration": 0.7916666666666666
            },
            {
              "pitch": 48,
              "velocity": 110,
              "position": 6.75,
              "duration": 0.7916666666666666
            },
            {
              "pitch": 48,
              "velocity": 110,
              "position": 8,
              "duration": 0.4270833333333333
            },
            {
              "pitch": 43,
              "velocity": 98,
              "position": 8.489583333333334,
              "duration": 0.46875
            },
            {
              "pitch": 45,
              "velocity": 110,
              "position": 9,
              "duration": 0.3229166666666667
            },
            {
              "pitch": 43,
              "velocity": 80,
              "position": 10.270833333333334,
              "duration": 0.21875
            },
            {
              "pitch": 48,
              "velocity": 92,
              "position": 10.770833333333334,
              "duration": 0.1875
            },
            {
              "pitch": 50,
              "velocity": 80,
              "position": 11.260416666666666,
              "duration": 0.19791666666666666
            },
            {
              "pitch": 52,
              "velocity": 92,
              "position": 11.5,
              "duration": 0.21875
            },
            {
              "pitch": 48,
              "velocity": 110,
              "position": 12.25,
              "duration": 0.22916666666666666
            },
            {
              "pitch": 43,
              "velocity": 100,
              "position": 12.5,
              "duration": 0.3958333333333333
            },
            {
              "pitch": 45,
              "velocity": 110,
              "position": 13,
              "duration": 0.21875
            },
            {
              "pitch": 55,
              "velocity": 94,
              "position": 13.729166666666666,
              "duration": 0.2604166666666667
            },
            {
              "pitch": 55,
              "velocity": 108,
              "position": 14.041666666666666,
              "duration": 0.28125
            },
            {
              "pitch": 52,
              "velocity": 92,
              "position": 14.385416666666666,
              "duration": 0.2708333333333333
            },
            {
              "pitch": 48,
              "velocity": 80,
              "position": 14.697916666666666,
              "duration": 0.23958333333333334
            },
            {
              "pitch": 45,
              "velocity": 110,
              "position": 15.020833333333334,
              "duration": 0.3333333333333333
            },
            {
              "pitch": 48,
              "velocity": 126,
              "position": 15.760416666666666,
              "duration": 0.20833333333333334
            },
            {
              "pitch": 48,
              "velocity": 106,
              "position": 16.260416666666668,
              "duration": 0.20833333333333334
            },
            {
              "pitch": 43,
              "velocity": 86,
              "position": 16.489583333333332,
              "duration": 0.22916666666666666
            },
            {
              "pitch": 48,
              "velocity": 98,
              "position": 16.75,
              "duration": 0.23958333333333334
            },
            {
              "pitch": 45,
              "velocity": 108,
              "position": 17,
              "duration": 0.3333333333333333
            },
            {
              "pitch": 43,
              "velocity": 92,
              "position": 18.270833333333332,
              "duration": 0.22916666666666666
            },
            {
              "pitch": 48,
              "velocity": 98,
              "position": 18.760416666666668,
              "duration": 0.19791666666666666
            },
            {
              "pitch": 50,
              "velocity": 92,
              "position": 19.25,
              "duration": 0.23958333333333334
            },
            {
              "pitch": 52,
              "velocity": 102,
              "position": 19.5,
              "duration": 0.20833333333333334
            },
            {
              "pitch": 48,
              "velocity": 106,
              "position": 20,
              "duration": 0.5
            },
            {
              "pitch": 43,
              "velocity": 92,
              "position": 20.5,
              "duration": 0.3854166666666667
            },
            {
              "pitch": 45,
              "velocity": 106,
              "position": 21,
              "duration": 0.3229166666666667
            },
            {
              "pitch": 48,
              "velocity": 110,
              "position": 22.260416666666668,
              "duration": 0.15625
            },
            {
              "pitch": 43,
              "velocity": 88,
              "position": 22.260416666666668,
              "duration": 0.16666666666666666
            },
            {
              "pitch": 43,
              "velocity": 88,
              "position": 22.75,
              "duration": 0.7916666666666666
            },
            {
              "pitch": 48,
              "velocity": 110,
              "position": 22.75,
              "duration": 0.7916666666666666
            },
            {
              "pitch": 48,
              "velocity": 110,
              "position": 24,
              "duration": 0.4270833333333333
            },
            {
              "pitch": 43,
              "velocity": 98,
              "position": 24.489583333333332,
              "duration": 0.46875
            },
            {
              "pitch": 45,
              "velocity": 110,
              "position": 25,
              "duration": 0.3229166666666667
            },
            {
              "pitch": 43,
              "velocity": 80,
              "position": 26.270833333333332,
              "duration": 0.21875
            },
            {
              "pitch": 48,
              "velocity": 92,
              "position": 26.770833333333332,
              "duration": 0.1875
            },
            {
              "pitch": 50,
              "velocity": 80,
              "position": 27.260416666666668,
              "duration": 0.19791666666666666
            },
            {
              "pitch": 52,
              "velocity": 92,
              "position": 27.5,
              "duration": 0.21875
            },
            {
              "pitch": 43,
              "velocity": 104,
              "position": 28.25,
              "duration": 0.17708333333333334
            },
            {
              "pitch": 43,
              "velocity": 94,
              "position": 28.5,
              "duration": 0.1875
            },
            {
              "pitch": 43,
              "velocity": 106,
              "position": 29,
              "duration": 0.3958333333333333
            },
            {
              "pitch": 43,
              "velocity": 92,
              "position": 29.760416666666668,
              "duration": 0.16666666666666666
            },
            {
              "pitch": 43,
              "velocity": 108,
              "position": 30,
              "duration": 0.23958333333333334
            },
            {
              "pitch": 43,
              "velocity": 110,
              "position": 30.5,
              "duration": 0.34375
            },
            {
              "pitch": 43,
              "velocity": 92,
              "position": 31.25,
              "duration": 0.23958333333333334
            },
            {
              "pitch": 48,
              "velocity": 110,
              "position": 31.5,
              "duration": 0.23958333333333334
            }
          ]
        },
        "13": {
          "ctab": {
            "srcChannel": 13,
            "name": "Aco.Bass",
            "accType": "BASS",
            "editable": false,
            "mutedNotes": [],
            "mutedChords": [
              "1+2+5",
              "sus4",
              "1+5",
              "1+8",
              "aug",
              "Maj6(9)",
              "Maj7(9)",
              "Maj(9)",
              "Maj7#11",
              "Maj7",
              "Maj6",
              "Maj"
            ],
            "autoStart": false,
            "sourceChordNote": 0,
            "sourceChordType": "Maj7",
            "ctb2Low": null,
            "ctb2Main": {
              "ntr": "ROOT_TRANSPOSITION",
              "ntt": "MELODY",
              "bassOn": true,
              "chordRootUpperLimit": 3,
              "noteLowLimit": 28,
              "noteHighLimit": 54,
              "rtr": "PITCH_SHIFT_TO_ROOT"
            },
            "ctb2High": null
          },
          "notes": [
            {
              "pitch": 48,
              "velocity": 110,
              "position": 0,
              "duration": 0.4270833333333333
            },
            {
              "pitch": 43,
              "velocity": 98,
              "position": 0.4895833333333333,
              "duration": 0.46875
            },
            {
              "pitch": 46,
              "velocity": 110,
              "position": 1,
              "duration": 0.3229166666666667
            },
            {
              "pitch": 43,
              "velocity": 80,
              "position": 2.2708333333333335,
              "duration": 0.21875
            },
            {
              "pitch": 46,
              "velocity": 92,
              "position": 2.7708333333333335,
              "duration": 0.1875
            },
            {
              "pitch": 48,
              "velocity": 80,
              "position": 3.2604166666666665,
              "duration": 0.19791666666666666
            },
            {
              "pitch": 50,
              "velocity": 92,
              "position": 3.5,
              "duration": 0.21875
            },
            {
              "pitch": 48,
              "velocity": 106,
              "position": 4,
              "duration": 0.5
            },
            {
              "pitch": 43,
              "velocity": 92,
              "position": 4.5,
              "duration": 0.3854166666666667
            },
            {
              "pitch": 46,
              "velocity": 106,
              "position": 5,
              "duration": 0.3229166666666667
            },
            {
              "pitch": 48,
              "velocity": 110,
              "position": 6.260416666666667,
              "duration": 0.15625
            },
            {
              "pitch": 43,
              "velocity": 88,
              "position": 6.260416666666667,
              "duration": 0.16666666666666666
            },
            {
              "pitch": 48,
              "velocity": 110,
              "position": 6.75,
              "duration": 0.7916666666666666
            },
            {
              "pitch": 43,
              "velocity": 88,
              "position": 6.75,
              "duration": 0.7916666666666666
            },
            {
              "pitch": 48,
              "velocity": 110,
              "position": 8,
              "duration": 0.4270833333333333
            },
            {
              "pitch": 43,
              "velocity": 98,
              "position": 8.489583333333334,
              "duration": 0.46875
            },
            {
              "pitch": 46,
              "velocity": 110,
              "position": 9,
              "duration": 0.3229166666666667
            },
            {
              "pitch": 43,
              "velocity": 80,
              "position": 10.270833333333334,
              "duration": 0.21875
            },
            {
              "pitch": 46,
              "velocity": 92,
              "position": 10.770833333333334,
              "duration": 0.1875
            },
            {
              "pitch": 48,
              "velocity": 80,
              "position": 11.260416666666666,
              "duration": 0.19791666666666666
            },
            {
              "pitch": 50,
              "velocity": 92,
              "position": 11.5,
              "duration": 0.21875
            },
            {
              "pitch": 48,
              "velocity": 110,
              "position": 12.25,
              "duration": 0.22916666666666666
            },
            {
              "pitch": 43,
              "velocity": 100,
              "position": 12.5,
              "duration": 0.3958333333333333
            },
            {
              "pitch": 46,
              "velocity": 110,
              "position": 13,
              "duration": 0.21875
            },
            {
              "pitch": 53,
              "velocity": 94,
              "position": 13.729166666666666,
              "duration": 0.2604166666666667
            },
            {
              "pitch": 53,
              "velocity": 108,
              "position": 14.041666666666666,
              "duration": 0.28125
            },
            {
              "pitch": 50,
              "velocity": 92,
              "position": 14.385416666666666,
              "duration": 0.2708333333333333
            },
            {
              "pitch": 46,
              "velocity": 80,
              "position": 14.697916666666666,
              "duration": 0.23958333333333334
            },
            {
              "pitch": 43,
              "velocity": 110,
              "position": 15.020833333333334,
              "duration": 0.3333333333333333
            },
            {
              "pitch": 48,
              "velocity": 126,
              "position": 15.760416666666666,
              "duration": 0.20833333333333334
            },
            {
              "pitch": 48,
              "velocity": 106,
              "position": 16.260416666666668,
              "duration": 0.20833333333333334
            },
            {
              "pitch": 43,
              "velocity": 86,
              "position": 16.489583333333332,
              "duration": 0.22916666666666666
            },
            {
              "pitch": 48,
              "velocity": 98,
              "position": 16.75,
              "duration": 0.23958333333333334
            },
            {
              "pitch": 46,
              "velocity": 108,
              "position": 17,
              "duration": 0.3333333333333333
            },
            {
              "pitch": 43,
              "velocity": 92,
              "position": 18.270833333333332,
              "duration": 0.22916666666666666
            },
            {
              "pitch": 46,
              "velocity": 98,
              "position": 18.760416666666668,
              "duration": 0.19791666666666666
            },
            {
              "pitch": 48,
              "velocity": 92,
              "position": 19.25,
              "duration": 0.23958333333333334
            },
            {
              "pitch": 50,
              "velocity": 102,
              "position": 19.5,
              "duration": 0.20833333333333334
            },
            {
              "pitch": 48,
              "velocity": 106,
              "position": 20,
              "duration": 0.5
            },
            {
              "pitch": 43,
              "velocity": 92,
              "position": 20.5,
              "duration": 0.3854166666666667
            },
            {
              "pitch": 46,
              "velocity": 106,
              "position": 21,
              "duration": 0.3229166666666667
            },
            {
              "pitch": 48,
              "velocity": 110,
              "position": 22.260416666666668,
              "duration": 0.15625
            },
            {
              "pitch": 43,
              "velocity": 88,
              "position": 22.260416666666668,
              "duration": 0.16666666666666666
            },
            {
              "pitch": 48,
              "velocity": 110,
              "position": 22.75,
              "duration": 0.7916666666666666
            },
            {
              "pitch": 43,
              "velocity": 88,
              "position": 22.75,
              "duration": 0.7916666666666666
            },
            {
              "pitch": 48,
              "velocity": 110,
              "position": 24,
              "duration": 0.4270833333333333
            },
            {
              "pitch": 43,
              "velocity": 98,
              "position": 24.489583333333332,
              "duration": 0.46875
            },
            {
              "pitch": 46,
              "velocity": 110,
              "position": 25,
              "duration": 0.3229166666666667
            },
            {
              "pitch": 43,
              "velocity": 80,
              "position": 26.270833333333332,
              "duration": 0.21875
            },
            {
              "pitch": 46,
              "velocity": 92,
              "position": 26.770833333333332,
              "duration": 0.1875
            },
            {
              "pitch": 48,
              "velocity": 80,
              "position": 27.260416666666668,
              "duration": 0.19791666666666666
            },
            {
              "pitch": 50,
              "velocity": 92,
              "position": 27.5,
              "duration": 0.21875
            },
            {
              "pitch": 43,
              "velocity": 104,
              "position": 28.25,
              "duration": 0.17708333333333334
            },
            {
              "pitch": 43,
              "velocity": 94,
              "position": 28.5,
              "duration": 0.1875
            },
            {
              "pitch": 43,
              "velocity": 106,
              "position": 29,
              "duration": 0.3958333333333333
            },
            {
              "pitch": 43,
              "velocity": 92,
              "position": 29.760416666666668,
              "duration": 0.16666666666666666
            },
            {
              "pitch": 43,
              "velocity": 108,
              "position": 30,
              "duration": 0.23958333333333334
            },
            {
              "pitch": 43,
              "velocity": 110,
              "position": 30.5,
              "duration": 0.34375
            },
            {
              "pitch": 43,
              "velocity": 92,
              "position": 31.25,
              "duration": 0.23958333333333334
            },
            {
              "pitch": 48,
              "velocity": 110,
              "position": 31.5,
              "duration": 0.23958333333333334
            }
          ]
        },
        "14": {
          "ctab": {
            "srcChannel": 14,
            "name": "GrandPno",
            "accType": "CHORD1",
            "editable": false,
            "mutedNotes": [],
            "mutedChords": [
              "7aug",
              "Maj7aug",
              "7(#9)",
              "7(b13)",
              "7(b9)",
              "7(13)",
              "7#11",
              "7(9)",
              "7b5",
              "7sus4",
              "7th",
              "dim7",
              "dim",
              "minMaj7(9)",
              "minMaj7",
              "min7(11)",
              "min7(9)",
              "min(9)",
              "m7b5",
              "min7",
              "min6",
              "min"
            ],
            "autoStart": false,
            "sourceChordNote": 0,
            "sourceChordType": "Maj7",
            "ctb2Low": null,
            "ctb2Main": {
              "ntr": "ROOT_TRANSPOSITION",
              "ntt": "CHORD",
              "bassOn": false,
              "chordRootUpperLimit": 6,
              "noteLowLimit": 0,
              "noteHighLimit": 127,
              "rtr": "PITCH_SHIFT"
            },
            "ctb2High": null
          },
          "notes": [
            {
              "pitch": 48,
              "velocity": 110,
              "position": 0,
              "duration": 0.4479166666666667
            },
            {
              "pitch": 59,
              "velocity": 104,
              "position": 0,
              "duration": 0.4583333333333333
            },
            {
              "pitch": 55,
              "velocity": 90,
              "position": 0.4895833333333333,
              "duration": 0.3854166666666667
            },
            {
              "pitch": 43,
              "velocity": 78,
              "position": 0.5,
              "duration": 0.3958333333333333
            },
            {
              "pitch": 57,
              "velocity": 110,
              "position": 0.9895833333333334,
              "duration": 0.21875
            },
            {
              "pitch": 45,
              "velocity": 92,
              "position": 0.9895833333333334,
              "duration": 0.2604166666666667
            },
            {
              "pitch": 55,
              "velocity": 110,
              "position": 2.2708333333333335,
              "duration": 0.1875
            },
            {
              "pitch": 43,
              "velocity": 100,
              "position": 2.2604166666666665,
              "duration": 0.22916666666666666
            },
            {
              "pitch": 59,
              "velocity": 100,
              "position": 2.7708333333333335,
              "duration": 0.14583333333333334
            },
            {
              "pitch": 48,
              "velocity": 100,
              "position": 2.7708333333333335,
              "duration": 0.16666666666666666
            },
            {
              "pitch": 50,
              "velocity": 88,
              "position": 3.2604166666666665,
              "duration": 0.16666666666666666
            },
            {
              "pitch": 62,
              "velocity": 90,
              "position": 3.25,
              "duration": 0.19791666666666666
            },
            {
              "pitch": 52,
              "velocity": 100,
              "position": 3.5104166666666665,
              "duration": 0.16666666666666666
            },
            {
              "pitch": 64,
              "velocity": 110,
              "position": 3.5,
              "duration": 0.1875
            },
            {
              "pitch": 59,
              "velocity": 104,
              "position": 4,
              "duration": 0.4791666666666667
            },
            {
              "pitch": 48,
              "velocity": 106,
              "position": 4,
              "duration": 0.4895833333333333
            },
            {
              "pitch": 55,
              "velocity": 94,
              "position": 4.5,
              "duration": 0.4791666666666667
            },
            {
              "pitch": 43,
              "velocity": 88,
              "position": 4.5,
              "duration": 0.4791666666666667
            },
            {
              "pitch": 45,
              "velocity": 92,
              "position": 5,
              "duration": 0.19791666666666666
            },
            {
              "pitch": 57,
              "velocity": 110,
              "position": 5.010416666666667,
              "duration": 0.20833333333333334
            },
            {
              "pitch": 62,
              "velocity": 110,
              "position": 6.270833333333333,
              "duration": 0.125
            },
            {
              "pitch": 59,
              "velocity": 90,
              "position": 6.270833333333333,
              "duration": 0.13541666666666666
            },
            {
              "pitch": 52,
              "velocity": 104,
              "position": 6.270833333333333,
              "duration": 0.15625
            },
            {
              "pitch": 67,
              "velocity": 120,
              "position": 6.270833333333333,
              "duration": 0.16666666666666666
            },
            {
              "pitch": 62,
              "velocity": 110,
              "position": 6.770833333333333,
              "duration": 0.75
            },
            {
              "pitch": 52,
              "velocity": 94,
              "position": 6.770833333333333,
              "duration": 0.7604166666666666
            },
            {
              "pitch": 59,
              "velocity": 122,
              "position": 6.770833333333333,
              "duration": 0.7708333333333334
            },
            {
              "pitch": 67,
              "velocity": 110,
              "position": 6.770833333333333,
              "duration": 0.78125
            },
            {
              "pitch": 48,
              "velocity": 110,
              "position": 8,
              "duration": 0.4479166666666667
            },
            {
              "pitch": 59,
              "velocity": 104,
              "position": 8,
              "duration": 0.4583333333333333
            },
            {
              "pitch": 55,
              "velocity": 90,
              "position": 8.489583333333334,
              "duration": 0.3854166666666667
            },
            {
              "pitch": 43,
              "velocity": 78,
              "position": 8.5,
              "duration": 0.3958333333333333
            },
            {
              "pitch": 57,
              "velocity": 110,
              "position": 8.989583333333334,
              "duration": 0.21875
            },
            {
              "pitch": 45,
              "velocity": 92,
              "position": 8.989583333333334,
              "duration": 0.2604166666666667
            },
            {
              "pitch": 55,
              "velocity": 110,
              "position": 10.270833333333334,
              "duration": 0.1875
            },
            {
              "pitch": 43,
              "velocity": 100,
              "position": 10.260416666666666,
              "duration": 0.22916666666666666
            },
            {
              "pitch": 59,
              "velocity": 100,
              "position": 10.770833333333334,
              "duration": 0.14583333333333334
            },
            {
              "pitch": 48,
              "velocity": 100,
              "position": 10.770833333333334,
              "duration": 0.16666666666666666
            },
            {
              "pitch": 50,
              "velocity": 88,
              "position": 11.260416666666666,
              "duration": 0.16666666666666666
            },
            {
              "pitch": 62,
              "velocity": 90,
              "position": 11.25,
              "duration": 0.19791666666666666
            },
            {
              "pitch": 52,
              "velocity": 100,
              "position": 11.510416666666666,
              "duration": 0.16666666666666666
            },
            {
              "pitch": 64,
              "velocity": 110,
              "position": 11.5,
              "duration": 0.1875
            },
            {
              "pitch": 59,
              "velocity": 104,
              "position": 12.260416666666666,
              "duration": 0.22916666666666666
            },
            {
              "pitch": 48,
              "velocity": 104,
              "position": 12.25,
              "duration": 0.25
            },
            {
              "pitch": 43,
              "velocity": 88,
              "position": 12.5,
              "duration": 0.4479166666666667
            },
            {
              "pitch": 55,
              "velocity": 90,
              "position": 12.5,
              "duration": 0.46875
            },
            {
              "pitch": 57,
              "velocity": 104,
              "position": 13,
              "duration": 0.16666666666666666
            },
            {
              "pitch": 45,
              "velocity": 110,
              "position": 13,
              "duration": 0.20833333333333334
            },
            {
              "pitch": 55,
              "velocity": 88,
              "position": 13.75,
              "duration": 0.23958333333333334
            },
            {
              "pitch": 67,
              "velocity": 104,
              "position": 13.75,
              "duration": 0.25
            },
            {
              "pitch": 55,
              "velocity": 110,
              "position": 14.03125,
              "duration": 0.3125
            },
            {
              "pitch": 67,
              "velocity": 90,
              "position": 14.052083333333334,
              "duration": 0.3020833333333333
            },
            {
              "pitch": 64,
              "velocity": 94,
              "position": 14.395833333333334,
              "duration": 0.2916666666666667
            },
            {
              "pitch": 52,
              "velocity": 78,
              "position": 14.40625,
              "duration": 0.28125
            },
            {
              "pitch": 48,
              "velocity": 110,
              "position": 14.729166666666666,
              "duration": 0.28125
            },
            {
              "pitch": 59,
              "velocity": 90,
              "position": 14.729166666666666,
              "duration": 0.2916666666666667
            },
            {
              "pitch": 45,
              "velocity": 100,
              "position": 15.03125,
              "duration": 0.34375
            },
            {
              "pitch": 57,
              "velocity": 100,
              "position": 15.03125,
              "duration": 0.34375
            },
            {
              "pitch": 48,
              "velocity": 110,
              "position": 15.770833333333334,
              "duration": 0.16666666666666666
            },
            {
              "pitch": 59,
              "velocity": 110,
              "position": 15.770833333333334,
              "duration": 0.16666666666666666
            },
            {
              "pitch": 48,
              "velocity": 92,
              "position": 16.229166666666668,
              "duration": 0.23958333333333334
            },
            {
              "pitch": 59,
              "velocity": 92,
              "position": 16.260416666666668,
              "duration": 0.21875
            },
            {
              "pitch": 55,
              "velocity": 70,
              "position": 16.510416666666668,
              "duration": 0.19791666666666666
            },
            {
              "pitch": 43,
              "velocity": 84,
              "position": 16.489583333333332,
              "duration": 0.22916666666666666
            },
            {
              "pitch": 59,
              "velocity": 96,
              "position": 16.75,
              "duration": 0.21875
            },
            {
              "pitch": 48,
              "velocity": 88,
              "position": 16.760416666666668,
              "duration": 0.21875
            },
            {
              "pitch": 45,
              "velocity": 102,
              "position": 17.020833333333332,
              "duration": 0.22916666666666666
            },
            {
              "pitch": 57,
              "velocity": 98,
              "position": 17.03125,
              "duration": 0.21875
            },
            {
              "pitch": 55,
              "velocity": 98,
              "position": 18.270833333333332,
              "duration": 0.1875
            },
            {
              "pitch": 43,
              "velocity": 92,
              "position": 18.260416666666668,
              "duration": 0.22916666666666666
            },
            {
              "pitch": 59,
              "velocity": 98,
              "position": 18.770833333333332,
              "duration": 0.14583333333333334
            },
            {
              "pitch": 48,
              "velocity": 98,
              "position": 18.770833333333332,
              "duration": 0.16666666666666666
            },
            {
              "pitch": 50,
              "velocity": 88,
              "position": 19.260416666666668,
              "duration": 0.16666666666666666
            },
            {
              "pitch": 62,
              "velocity": 90,
              "position": 19.25,
              "duration": 0.19791666666666666
            },
            {
              "pitch": 52,
              "velocity": 98,
              "position": 19.510416666666668,
              "duration": 0.16666666666666666
            },
            {
              "pitch": 64,
              "velocity": 110,
              "position": 19.5,
              "duration": 0.1875
            },
            {
              "pitch": 59,
              "velocity": 104,
              "position": 20,
              "duration": 0.4791666666666667
            },
            {
              "pitch": 48,
              "velocity": 106,
              "position": 20,
              "duration": 0.4895833333333333
            },
            {
              "pitch": 55,
              "velocity": 94,
              "position": 20.5,
              "duration": 0.4791666666666667
            },
            {
              "pitch": 43,
              "velocity": 88,
              "position": 20.5,
              "duration": 0.4791666666666667
            },
            {
              "pitch": 45,
              "velocity": 92,
              "position": 21,
              "duration": 0.19791666666666666
            },
            {
              "pitch": 57,
              "velocity": 110,
              "position": 21.010416666666668,
              "duration": 0.20833333333333334
            },
            {
              "pitch": 62,
              "velocity": 110,
              "position": 22.270833333333332,
              "duration": 0.125
            },
            {
              "pitch": 59,
              "velocity": 90,
              "position": 22.270833333333332,
              "duration": 0.13541666666666666
            },
            {
              "pitch": 52,
              "velocity": 104,
              "position": 22.270833333333332,
              "duration": 0.15625
            },
            {
              "pitch": 67,
              "velocity": 120,
              "position": 22.270833333333332,
              "duration": 0.16666666666666666
            },
            {
              "pitch": 62,
              "velocity": 110,
              "position": 22.770833333333332,
              "duration": 0.75
            },
            {
              "pitch": 52,
              "velocity": 94,
              "position": 22.770833333333332,
              "duration": 0.7604166666666666
            },
            {
              "pitch": 59,
              "velocity": 122,
              "position": 22.770833333333332,
              "duration": 0.7708333333333334
            },
            {
              "pitch": 67,
              "velocity": 110,
              "position": 22.770833333333332,
              "duration": 0.78125
            },
            {
              "pitch": 48,
              "velocity": 110,
              "position": 24,
              "duration": 0.4479166666666667
            },
            {
              "pitch": 59,
              "velocity": 104,
              "position": 24,
              "duration": 0.4583333333333333
            },
            {
              "pitch": 55,
              "velocity": 90,
              "position": 24.489583333333332,
              "duration": 0.3854166666666667
            },
            {
              "pitch": 43,
              "velocity": 78,
              "position": 24.5,
              "duration": 0.3958333333333333
            },
            {
              "pitch": 57,
              "velocity": 110,
              "position": 24.989583333333332,
              "duration": 0.21875
            },
            {
              "pitch": 45,
              "velocity": 92,
              "position": 24.989583333333332,
              "duration": 0.2604166666666667
            },
            {
              "pitch": 55,
              "velocity": 110,
              "position": 26.270833333333332,
              "duration": 0.1875
            },
            {
              "pitch": 43,
              "velocity": 100,
              "position": 26.260416666666668,
              "duration": 0.22916666666666666
            },
            {
              "pitch": 59,
              "velocity": 100,
              "position": 26.770833333333332,
              "duration": 0.14583333333333334
            },
            {
              "pitch": 48,
              "velocity": 100,
              "position": 26.770833333333332,
              "duration": 0.16666666666666666
            },
            {
              "pitch": 50,
              "velocity": 88,
              "position": 27.260416666666668,
              "duration": 0.16666666666666666
            },
            {
              "pitch": 62,
              "velocity": 90,
              "position": 27.25,
              "duration": 0.19791666666666666
            },
            {
              "pitch": 52,
              "velocity": 100,
              "position": 27.510416666666668,
              "duration": 0.16666666666666666
            },
            {
              "pitch": 64,
              "velocity": 110,
              "position": 27.5,
              "duration": 0.1875
            },
            {
              "pitch": 43,
              "velocity": 94,
              "position": 28.260416666666668,
              "duration": 0.15625
            },
            {
              "pitch": 55,
              "velocity": 104,
              "position": 28.260416666666668,
              "duration": 0.16666666666666666
            },
            {
              "pitch": 67,
              "velocity": 104,
              "position": 28.260416666666668,
              "duration": 0.16666666666666666
            },
            {
              "pitch": 67,
              "velocity": 104,
              "position": 28.5,
              "duration": 0.17708333333333334
            },
            {
              "pitch": 55,
              "velocity": 112,
              "position": 28.5,
              "duration": 0.17708333333333334
            },
            {
              "pitch": 43,
              "velocity": 124,
              "position": 28.5,
              "duration": 0.1875
            },
            {
              "pitch": 67,
              "velocity": 104,
              "position": 29,
              "duration": 0.19791666666666666
            },
            {
              "pitch": 55,
              "velocity": 124,
              "position": 29,
              "duration": 0.20833333333333334
            },
            {
              "pitch": 43,
              "velocity": 110,
              "position": 29,
              "duration": 0.2604166666666667
            },
            {
              "pitch": 43,
              "velocity": 104,
              "position": 29.760416666666668,
              "duration": 0.15625
            },
            {
              "pitch": 55,
              "velocity": 80,
              "position": 29.760416666666668,
              "duration": 0.16666666666666666
            },
            {
              "pitch": 67,
              "velocity": 104,
              "position": 29.760416666666668,
              "duration": 0.17708333333333334
            },
            {
              "pitch": 55,
              "velocity": 102,
              "position": 30.010416666666668,
              "duration": 0.16666666666666666
            },
            {
              "pitch": 67,
              "velocity": 118,
              "position": 30.010416666666668,
              "duration": 0.16666666666666666
            },
            {
              "pitch": 43,
              "velocity": 126,
              "position": 30.010416666666668,
              "duration": 0.17708333333333334
            },
            {
              "pitch": 67,
              "velocity": 124,
              "position": 30.510416666666668,
              "duration": 0.17708333333333334
            },
            {
              "pitch": 55,
              "velocity": 110,
              "position": 30.510416666666668,
              "duration": 0.1875
            },
            {
              "pitch": 43,
              "velocity": 92,
              "position": 30.5,
              "duration": 0.2708333333333333
            },
            {
              "pitch": 43,
              "velocity": 100,
              "position": 31.260416666666668,
              "duration": 0.1875
            },
            {
              "pitch": 55,
              "velocity": 88,
              "position": 31.260416666666668,
              "duration": 0.1875
            },
            {
              "pitch": 67,
              "velocity": 100,
              "position": 31.260416666666668,
              "duration": 0.19791666666666666
            },
            {
              "pitch": 71,
              "velocity": 100,
              "position": 31.5,
              "duration": 0.1875
            },
            {
              "pitch": 59,
              "velocity": 126,
              "position": 31.5,
              "duration": 0.19791666666666666
            },
            {
              "pitch": 48,
              "velocity": 124,
              "position": 31.5,
              "duration": 0.22916666666666666
            }
          ]
        },
        "15": {
          "ctab": {
            "srcChannel": 15,
            "name": "GrandPno",
            "accType": "CHORD1",
            "editable": false,
            "mutedNotes": [],
            "mutedChords": [
              "1+2+5",
              "sus4",
              "1+5",
              "1+8",
              "7aug",
              "Maj7aug",
              "7(#9)",
              "7(b13)",
              "7(b9)",
              "7(13)",
              "7#11",
              "7(9)",
              "7b5",
              "7sus4",
              "7th",
              "aug",
              "Maj6(9)",
              "Maj7(9)",
              "Maj(9)",
              "Maj7#11",
              "Maj7",
              "Maj6",
              "Maj"
            ],
            "autoStart": false,
            "sourceChordNote": 0,
            "sourceChordType": "minMaj7",
            "ctb2Low": null,
            "ctb2Main": {
              "ntr": "ROOT_TRANSPOSITION",
              "ntt": "CHORD",
              "bassOn": false,
              "chordRootUpperLimit": 6,
              "noteLowLimit": 0,
              "noteHighLimit": 127,
              "rtr": "PITCH_SHIFT"
            },
            "ctb2High": null
          },
          "notes": [
            {
              "pitch": 48,
              "velocity": 110,
              "position": 0,
              "duration": 0.4479166666666667
            },
            {
              "pitch": 59,
              "velocity": 104,
              "position": 0,
              "duration": 0.4583333333333333
            },
            {
              "pitch": 55,
              "velocity": 90,
              "position": 0.4895833333333333,
              "duration": 0.3854166666666667
            },
            {
              "pitch": 43,
              "velocity": 78,
              "position": 0.5,
              "duration": 0.3958333333333333
            },
            {
              "pitch": 59,
              "velocity": 110,
              "position": 0.9895833333333334,
              "duration": 0.21875
            },
            {
              "pitch": 48,
              "velocity": 92,
              "position": 0.9895833333333334,
              "duration": 0.2604166666666667
            },
            {
              "pitch": 55,
              "velocity": 110,
              "position": 2.2708333333333335,
              "duration": 0.1875
            },
            {
              "pitch": 43,
              "velocity": 100,
              "position": 2.2604166666666665,
              "duration": 0.22916666666666666
            },
            {
              "pitch": 59,
              "velocity": 100,
              "position": 2.7708333333333335,
              "duration": 0.14583333333333334
            },
            {
              "pitch": 48,
              "velocity": 100,
              "position": 2.7708333333333335,
              "duration": 0.16666666666666666
            },
            {
              "pitch": 48,
              "velocity": 88,
              "position": 3.2604166666666665,
              "duration": 0.16666666666666666
            },
            {
              "pitch": 59,
              "velocity": 90,
              "position": 3.25,
              "duration": 0.19791666666666666
            },
            {
              "pitch": 50,
              "velocity": 100,
              "position": 3.5104166666666665,
              "duration": 0.16666666666666666
            },
            {
              "pitch": 62,
              "velocity": 110,
              "position": 3.5,
              "duration": 0.1875
            },
            {
              "pitch": 59,
              "velocity": 104,
              "position": 4,
              "duration": 0.4791666666666667
            },
            {
              "pitch": 48,
              "velocity": 106,
              "position": 4,
              "duration": 0.4895833333333333
            },
            {
              "pitch": 55,
              "velocity": 94,
              "position": 4.5,
              "duration": 0.4791666666666667
            },
            {
              "pitch": 43,
              "velocity": 88,
              "position": 4.5,
              "duration": 0.4791666666666667
            },
            {
              "pitch": 48,
              "velocity": 92,
              "position": 5,
              "duration": 0.19791666666666666
            },
            {
              "pitch": 59,
              "velocity": 110,
              "position": 5.010416666666667,
              "duration": 0.20833333333333334
            },
            {
              "pitch": 59,
              "velocity": 110,
              "position": 6.270833333333333,
              "duration": 0.125
            },
            {
              "pitch": 55,
              "velocity": 90,
              "position": 6.270833333333333,
              "duration": 0.13541666666666666
            },
            {
              "pitch": 43,
              "velocity": 88,
              "position": 6.270833333333333,
              "duration": 0.13541666666666666
            },
            {
              "pitch": 48,
              "velocity": 104,
              "position": 6.270833333333333,
              "duration": 0.15625
            },
            {
              "pitch": 65,
              "velocity": 120,
              "position": 6.270833333333333,
              "duration": 0.16666666666666666
            },
            {
              "pitch": 59,
              "velocity": 110,
              "position": 6.770833333333333,
              "duration": 0.75
            },
            {
              "pitch": 48,
              "velocity": 94,
              "position": 6.770833333333333,
              "duration": 0.7604166666666666
            },
            {
              "pitch": 55,
              "velocity": 122,
              "position": 6.770833333333333,
              "duration": 0.7708333333333334
            },
            {
              "pitch": 65,
              "velocity": 110,
              "position": 6.770833333333333,
              "duration": 0.78125
            },
            {
              "pitch": 43,
              "velocity": 80,
              "position": 6.770833333333333,
              "duration": 0.78125
            },
            {
              "pitch": 48,
              "velocity": 110,
              "position": 8,
              "duration": 0.4479166666666667
            },
            {
              "pitch": 59,
              "velocity": 104,
              "position": 8,
              "duration": 0.4583333333333333
            },
            {
              "pitch": 55,
              "velocity": 90,
              "position": 8.489583333333334,
              "duration": 0.3854166666666667
            },
            {
              "pitch": 43,
              "velocity": 78,
              "position": 8.5,
              "duration": 0.3958333333333333
            },
            {
              "pitch": 59,
              "velocity": 110,
              "position": 8.989583333333334,
              "duration": 0.21875
            },
            {
              "pitch": 48,
              "velocity": 92,
              "position": 8.989583333333334,
              "duration": 0.2604166666666667
            },
            {
              "pitch": 55,
              "velocity": 110,
              "position": 10.270833333333334,
              "duration": 0.1875
            },
            {
              "pitch": 43,
              "velocity": 100,
              "position": 10.260416666666666,
              "duration": 0.22916666666666666
            },
            {
              "pitch": 59,
              "velocity": 100,
              "position": 10.770833333333334,
              "duration": 0.14583333333333334
            },
            {
              "pitch": 48,
              "velocity": 100,
              "position": 10.770833333333334,
              "duration": 0.16666666666666666
            },
            {
              "pitch": 48,
              "velocity": 88,
              "position": 11.260416666666666,
              "duration": 0.16666666666666666
            },
            {
              "pitch": 59,
              "velocity": 90,
              "position": 11.25,
              "duration": 0.19791666666666666
            },
            {
              "pitch": 50,
              "velocity": 100,
              "position": 11.510416666666666,
              "duration": 0.16666666666666666
            },
            {
              "pitch": 62,
              "velocity": 110,
              "position": 11.5,
              "duration": 0.1875
            },
            {
              "pitch": 59,
              "velocity": 104,
              "position": 12.260416666666666,
              "duration": 0.22916666666666666
            },
            {
              "pitch": 48,
              "velocity": 104,
              "position": 12.25,
              "duration": 0.25
            },
            {
              "pitch": 43,
              "velocity": 88,
              "position": 12.5,
              "duration": 0.4479166666666667
            },
            {
              "pitch": 55,
              "velocity": 90,
              "position": 12.5,
              "duration": 0.46875
            },
            {
              "pitch": 59,
              "velocity": 104,
              "position": 13,
              "duration": 0.16666666666666666
            },
            {
              "pitch": 48,
              "velocity": 110,
              "position": 13,
              "duration": 0.20833333333333334
            },
            {
              "pitch": 53,
              "velocity": 88,
              "position": 13.75,
              "duration": 0.23958333333333334
            },
            {
              "pitch": 65,
              "velocity": 104,
              "position": 13.75,
              "duration": 0.25
            },
            {
              "pitch": 53,
              "velocity": 110,
              "position": 14.03125,
              "duration": 0.3125
            },
            {
              "pitch": 65,
              "velocity": 90,
              "position": 14.052083333333334,
              "duration": 0.3020833333333333
            },
            {
              "pitch": 62,
              "velocity": 94,
              "position": 14.395833333333334,
              "duration": 0.2916666666666667
            },
            {
              "pitch": 50,
              "velocity": 78,
              "position": 14.40625,
              "duration": 0.28125
            },
            {
              "pitch": 48,
              "velocity": 110,
              "position": 14.729166666666666,
              "duration": 0.28125
            },
            {
              "pitch": 59,
              "velocity": 90,
              "position": 14.729166666666666,
              "duration": 0.2916666666666667
            },
            {
              "pitch": 43,
              "velocity": 100,
              "position": 15.03125,
              "duration": 0.34375
            },
            {
              "pitch": 55,
              "velocity": 100,
              "position": 15.03125,
              "duration": 0.34375
            },
            {
              "pitch": 48,
              "velocity": 110,
              "position": 15.770833333333334,
              "duration": 0.16666666666666666
            },
            {
              "pitch": 59,
              "velocity": 110,
              "position": 15.770833333333334,
              "duration": 0.16666666666666666
            },
            {
              "pitch": 48,
              "velocity": 92,
              "position": 16.229166666666668,
              "duration": 0.23958333333333334
            },
            {
              "pitch": 59,
              "velocity": 92,
              "position": 16.260416666666668,
              "duration": 0.21875
            },
            {
              "pitch": 55,
              "velocity": 70,
              "position": 16.510416666666668,
              "duration": 0.19791666666666666
            },
            {
              "pitch": 43,
              "velocity": 84,
              "position": 16.489583333333332,
              "duration": 0.22916666666666666
            },
            {
              "pitch": 59,
              "velocity": 96,
              "position": 16.75,
              "duration": 0.21875
            },
            {
              "pitch": 48,
              "velocity": 88,
              "position": 16.760416666666668,
              "duration": 0.21875
            },
            {
              "pitch": 48,
              "velocity": 102,
              "position": 17.020833333333332,
              "duration": 0.22916666666666666
            },
            {
              "pitch": 59,
              "velocity": 98,
              "position": 17.03125,
              "duration": 0.21875
            },
            {
              "pitch": 55,
              "velocity": 98,
              "position": 18.270833333333332,
              "duration": 0.1875
            },
            {
              "pitch": 43,
              "velocity": 92,
              "position": 18.260416666666668,
              "duration": 0.22916666666666666
            },
            {
              "pitch": 59,
              "velocity": 98,
              "position": 18.770833333333332,
              "duration": 0.14583333333333334
            },
            {
              "pitch": 48,
              "velocity": 98,
              "position": 18.770833333333332,
              "duration": 0.16666666666666666
            },
            {
              "pitch": 48,
              "velocity": 88,
              "position": 19.260416666666668,
              "duration": 0.16666666666666666
            },
            {
              "pitch": 59,
              "velocity": 90,
              "position": 19.25,
              "duration": 0.19791666666666666
            },
            {
              "pitch": 50,
              "velocity": 98,
              "position": 19.510416666666668,
              "duration": 0.16666666666666666
            },
            {
              "pitch": 62,
              "velocity": 110,
              "position": 19.5,
              "duration": 0.1875
            },
            {
              "pitch": 59,
              "velocity": 104,
              "position": 20,
              "duration": 0.4791666666666667
            },
            {
              "pitch": 48,
              "velocity": 106,
              "position": 20,
              "duration": 0.4895833333333333
            },
            {
              "pitch": 55,
              "velocity": 94,
              "position": 20.5,
              "duration": 0.4791666666666667
            },
            {
              "pitch": 43,
              "velocity": 88,
              "position": 20.5,
              "duration": 0.4791666666666667
            },
            {
              "pitch": 48,
              "velocity": 92,
              "position": 21,
              "duration": 0.19791666666666666
            },
            {
              "pitch": 59,
              "velocity": 110,
              "position": 21.010416666666668,
              "duration": 0.20833333333333334
            },
            {
              "pitch": 59,
              "velocity": 110,
              "position": 22.270833333333332,
              "duration": 0.125
            },
            {
              "pitch": 55,
              "velocity": 90,
              "position": 22.270833333333332,
              "duration": 0.13541666666666666
            },
            {
              "pitch": 43,
              "velocity": 88,
              "position": 22.270833333333332,
              "duration": 0.13541666666666666
            },
            {
              "pitch": 48,
              "velocity": 104,
              "position": 22.270833333333332,
              "duration": 0.15625
            },
            {
              "pitch": 65,
              "velocity": 120,
              "position": 22.270833333333332,
              "duration": 0.16666666666666666
            },
            {
              "pitch": 59,
              "velocity": 110,
              "position": 22.770833333333332,
              "duration": 0.75
            },
            {
              "pitch": 48,
              "velocity": 94,
              "position": 22.770833333333332,
              "duration": 0.7604166666666666
            },
            {
              "pitch": 55,
              "velocity": 122,
              "position": 22.770833333333332,
              "duration": 0.7708333333333334
            },
            {
              "pitch": 65,
              "velocity": 110,
              "position": 22.770833333333332,
              "duration": 0.78125
            },
            {
              "pitch": 43,
              "velocity": 80,
              "position": 22.770833333333332,
              "duration": 0.78125
            },
            {
              "pitch": 48,
              "velocity": 110,
              "position": 24,
              "duration": 0.4479166666666667
            },
            {
              "pitch": 59,
              "velocity": 104,
              "position": 24,
              "duration": 0.4583333333333333
            },
            {
              "pitch": 55,
              "velocity": 90,
              "position": 24.489583333333332,
              "duration": 0.3854166666666667
            },
            {
              "pitch": 43,
              "velocity": 78,
              "position": 24.5,
              "duration": 0.3958333333333333
            },
            {
              "pitch": 59,
              "velocity": 110,
              "position": 24.989583333333332,
              "duration": 0.21875
            },
            {
              "pitch": 48,
              "velocity": 92,
              "position": 24.989583333333332,
              "duration": 0.2604166666666667
            },
            {
              "pitch": 55,
              "velocity": 110,
              "position": 26.270833333333332,
              "duration": 0.1875
            },
            {
              "pitch": 43,
              "velocity": 100,
              "position": 26.260416666666668,
              "duration": 0.22916666666666666
            },
            {
              "pitch": 59,
              "velocity": 100,
              "position": 26.770833333333332,
              "duration": 0.14583333333333334
            },
            {
              "pitch": 48,
              "velocity": 100,
              "position": 26.770833333333332,
              "duration": 0.16666666666666666
            },
            {
              "pitch": 48,
              "velocity": 88,
              "position": 27.260416666666668,
              "duration": 0.16666666666666666
            },
            {
              "pitch": 59,
              "velocity": 90,
              "position": 27.25,
              "duration": 0.19791666666666666
            },
            {
              "pitch": 50,
              "velocity": 100,
              "position": 27.510416666666668,
              "duration": 0.16666666666666666
            },
            {
              "pitch": 62,
              "velocity": 110,
              "position": 27.5,
              "duration": 0.1875
            },
            {
              "pitch": 43,
              "velocity": 94,
              "position": 28.260416666666668,
              "duration": 0.15625
            },
            {
              "pitch": 55,
              "velocity": 104,
              "position": 28.260416666666668,
              "duration": 0.16666666666666666
            },
            {
              "pitch": 67,
              "velocity": 104,
              "position": 28.260416666666668,
              "duration": 0.16666666666666666
            },
            {
              "pitch": 67,
              "velocity": 104,
              "position": 28.5,
              "duration": 0.17708333333333334
            },
            {
              "pitch": 55,
              "velocity": 112,
              "position": 28.5,
              "duration": 0.17708333333333334
            },
            {
              "pitch": 43,
              "velocity": 124,
              "position": 28.5,
              "duration": 0.1875
            },
            {
              "pitch": 67,
              "velocity": 104,
              "position": 29,
              "duration": 0.19791666666666666
            },
            {
              "pitch": 55,
              "velocity": 124,
              "position": 29,
              "duration": 0.20833333333333334
            },
            {
              "pitch": 43,
              "velocity": 110,
              "position": 29,
              "duration": 0.2604166666666667
            },
            {
              "pitch": 43,
              "velocity": 104,
              "position": 29.760416666666668,
              "duration": 0.15625
            },
            {
              "pitch": 55,
              "velocity": 80,
              "position": 29.760416666666668,
              "duration": 0.16666666666666666
            },
            {
              "pitch": 67,
              "velocity": 104,
              "position": 29.760416666666668,
              "duration": 0.17708333333333334
            },
            {
              "pitch": 55,
              "velocity": 102,
              "position": 30.010416666666668,
              "duration": 0.16666666666666666
            },
            {
              "pitch": 67,
              "velocity": 118,
              "position": 30.010416666666668,
              "duration": 0.16666666666666666
            },
            {
              "pitch": 43,
              "velocity": 126,
              "position": 30.010416666666668,
              "duration": 0.17708333333333334
            },
            {
              "pitch": 67,
              "velocity": 124,
              "position": 30.510416666666668,
              "duration": 0.17708333333333334
            },
            {
              "pitch": 55,
              "velocity": 110,
              "position": 30.510416666666668,
              "duration": 0.1875
            },
            {
              "pitch": 43,
              "velocity": 92,
              "position": 30.5,
              "duration": 0.2708333333333333
            },
            {
              "pitch": 43,
              "velocity": 100,
              "position": 31.260416666666668,
              "duration": 0.1875
            },
            {
              "pitch": 55,
              "velocity": 88,
              "position": 31.260416666666668,
              "duration": 0.1875
            },
            {
              "pitch": 67,
              "velocity": 100,
              "position": 31.260416666666668,
              "duration": 0.19791666666666666
            },
            {
              "pitch": 71,
              "velocity": 100,
              "position": 31.5,
              "duration": 0.1875
            },
            {
              "pitch": 59,
              "velocity": 126,
              "position": 31.5,
              "duration": 0.19791666666666666
            },
            {
              "pitch": 48,
              "velocity": 124,
              "position": 31.5,
              "duration": 0.22916666666666666
            }
          ]
        }
      }
    },
    "Main_D": {
      "type": "Main_D",
      "sizeInBeats": 32,
      "channels": {
        "0": {
          "ctab": {
            "srcChannel": 0,
            "name": "GrandPno",
            "accType": "CHORD1",
            "editable": false,
            "mutedNotes": [],
            "mutedChords": [
              "1+2+5",
              "sus4",
              "1+5",
              "1+8",
              "dim7",
              "dim",
              "minMaj7(9)",
              "minMaj7",
              "min7(11)",
              "min7(9)",
              "min(9)",
              "m7b5",
              "min7",
              "min6",
              "min",
              "aug",
              "Maj6(9)",
              "Maj7(9)",
              "Maj(9)",
              "Maj7#11",
              "Maj7",
              "Maj6",
              "Maj"
            ],
            "autoStart": false,
            "sourceChordNote": 0,
            "sourceChordType": "7th",
            "ctb2Low": null,
            "ctb2Main": {
              "ntr": "ROOT_FIXED",
              "ntt": "CHORD",
              "bassOn": false,
              "chordRootUpperLimit": 6,
              "noteLowLimit": 0,
              "noteHighLimit": 127,
              "rtr": "PITCH_SHIFT"
            },
            "ctb2High": null
          },
          "notes": [
            {
              "pitch": 64,
              "velocity": 124,
              "position": 0,
              "duration": 0.1875
            },
            {
              "pitch": 52,
              "velocity": 80,
              "position": 0,
              "duration": 0.20833333333333334
            },
            {
              "pitch": 76,
              "velocity": 110,
              "position": 0,
              "duration": 0.21875
            },
            {
              "pitch": 58,
              "velocity": 76,
              "position": 0.25,
              "duration": 0.16666666666666666
            },
            {
              "pitch": 70,
              "velocity": 90,
              "position": 0.25,
              "duration": 0.17708333333333334
            },
            {
              "pitch": 60,
              "velocity": 78,
              "position": 0.4895833333333333,
              "duration": 0.16666666666666666
            },
            {
              "pitch": 72,
              "velocity": 90,
              "position": 0.4895833333333333,
              "duration": 0.16666666666666666
            },
            {
              "pitch": 76,
              "velocity": 88,
              "position": 0.75,
              "duration": 0.15625
            },
            {
              "pitch": 64,
              "velocity": 110,
              "position": 0.75,
              "duration": 0.15625
            },
            {
              "pitch": 52,
              "velocity": 94,
              "position": 0.75,
              "duration": 0.16666666666666666
            },
            {
              "pitch": 76,
              "velocity": 88,
              "position": 1,
              "duration": 0.20833333333333334
            },
            {
              "pitch": 64,
              "velocity": 110,
              "position": 1,
              "duration": 0.20833333333333334
            },
            {
              "pitch": 52,
              "velocity": 110,
              "position": 1,
              "duration": 0.25
            },
            {
              "pitch": 70,
              "velocity": 72,
              "position": 1.25,
              "duration": 0.16666666666666666
            },
            {
              "pitch": 58,
              "velocity": 72,
              "position": 1.2604166666666667,
              "duration": 0.1875
            },
            {
              "pitch": 72,
              "velocity": 72,
              "position": 1.5,
              "duration": 0.17708333333333334
            },
            {
              "pitch": 60,
              "velocity": 72,
              "position": 1.5,
              "duration": 0.1875
            },
            {
              "pitch": 64,
              "velocity": 110,
              "position": 1.75,
              "duration": 0.4375
            },
            {
              "pitch": 76,
              "velocity": 104,
              "position": 1.75,
              "duration": 0.4479166666666667
            },
            {
              "pitch": 52,
              "velocity": 110,
              "position": 1.7604166666666667,
              "duration": 0.4375
            },
            {
              "pitch": 70,
              "velocity": 64,
              "position": 2.2708333333333335,
              "duration": 0.16666666666666666
            },
            {
              "pitch": 58,
              "velocity": 76,
              "position": 2.2604166666666665,
              "duration": 0.1875
            },
            {
              "pitch": 60,
              "velocity": 76,
              "position": 2.5104166666666665,
              "duration": 0.16666666666666666
            },
            {
              "pitch": 72,
              "velocity": 90,
              "position": 2.5,
              "duration": 0.19791666666666666
            },
            {
              "pitch": 52,
              "velocity": 110,
              "position": 2.7708333333333335,
              "duration": 0.3958333333333333
            },
            {
              "pitch": 64,
              "velocity": 90,
              "position": 2.7604166666666665,
              "duration": 0.4583333333333333
            },
            {
              "pitch": 76,
              "velocity": 88,
              "position": 2.7604166666666665,
              "duration": 0.4583333333333333
            },
            {
              "pitch": 58,
              "velocity": 68,
              "position": 3.25,
              "duration": 0.19791666666666666
            },
            {
              "pitch": 70,
              "velocity": 80,
              "position": 3.2604166666666665,
              "duration": 0.1875
            },
            {
              "pitch": 60,
              "velocity": 78,
              "position": 3.5,
              "duration": 0.16666666666666666
            },
            {
              "pitch": 72,
              "velocity": 68,
              "position": 3.5,
              "duration": 0.21875
            },
            {
              "pitch": 64,
              "velocity": 104,
              "position": 3.7604166666666665,
              "duration": 0.4583333333333333
            },
            {
              "pitch": 52,
              "velocity": 104,
              "position": 3.7604166666666665,
              "duration": 0.4791666666666667
            },
            {
              "pitch": 76,
              "velocity": 124,
              "position": 3.7604166666666665,
              "duration": 0.4791666666666667
            },
            {
              "pitch": 70,
              "velocity": 78,
              "position": 4.260416666666667,
              "duration": 0.16666666666666666
            },
            {
              "pitch": 58,
              "velocity": 68,
              "position": 4.260416666666667,
              "duration": 0.17708333333333334
            },
            {
              "pitch": 60,
              "velocity": 70,
              "position": 4.5,
              "duration": 0.16666666666666666
            },
            {
              "pitch": 72,
              "velocity": 72,
              "position": 4.5,
              "duration": 0.1875
            },
            {
              "pitch": 76,
              "velocity": 110,
              "position": 4.760416666666667,
              "duration": 0.125
            },
            {
              "pitch": 64,
              "velocity": 110,
              "position": 4.760416666666667,
              "duration": 0.13541666666666666
            },
            {
              "pitch": 52,
              "velocity": 80,
              "position": 4.760416666666667,
              "duration": 0.19791666666666666
            },
            {
              "pitch": 64,
              "velocity": 104,
              "position": 5,
              "duration": 0.19791666666666666
            },
            {
              "pitch": 76,
              "velocity": 104,
              "position": 5,
              "duration": 0.22916666666666666
            },
            {
              "pitch": 52,
              "velocity": 80,
              "position": 5,
              "duration": 0.25
            },
            {
              "pitch": 70,
              "velocity": 70,
              "position": 5.260416666666667,
              "duration": 0.15625
            },
            {
              "pitch": 58,
              "velocity": 80,
              "position": 5.260416666666667,
              "duration": 0.19791666666666666
            },
            {
              "pitch": 72,
              "velocity": 70,
              "position": 5.5,
              "duration": 0.1875
            },
            {
              "pitch": 60,
              "velocity": 80,
              "position": 5.5,
              "duration": 0.1875
            },
            {
              "pitch": 76,
              "velocity": 104,
              "position": 5.760416666666667,
              "duration": 0.4166666666666667
            },
            {
              "pitch": 64,
              "velocity": 110,
              "position": 5.760416666666667,
              "duration": 0.4270833333333333
            },
            {
              "pitch": 52,
              "velocity": 92,
              "position": 5.760416666666667,
              "duration": 0.4583333333333333
            },
            {
              "pitch": 70,
              "velocity": 72,
              "position": 6.260416666666667,
              "duration": 0.16666666666666666
            },
            {
              "pitch": 58,
              "velocity": 80,
              "position": 6.25,
              "duration": 0.20833333333333334
            },
            {
              "pitch": 60,
              "velocity": 80,
              "position": 6.5,
              "duration": 0.16666666666666666
            },
            {
              "pitch": 72,
              "velocity": 80,
              "position": 6.5,
              "duration": 0.19791666666666666
            },
            {
              "pitch": 52,
              "velocity": 92,
              "position": 6.760416666666667,
              "duration": 0.3854166666666667
            },
            {
              "pitch": 76,
              "velocity": 104,
              "position": 6.760416666666667,
              "duration": 0.4166666666666667
            },
            {
              "pitch": 64,
              "velocity": 110,
              "position": 6.75,
              "duration": 0.4375
            },
            {
              "pitch": 70,
              "velocity": 72,
              "position": 7.260416666666667,
              "duration": 0.16666666666666666
            },
            {
              "pitch": 58,
              "velocity": 68,
              "position": 7.260416666666667,
              "duration": 0.17708333333333334
            },
            {
              "pitch": 72,
              "velocity": 88,
              "position": 7.5,
              "duration": 0.17708333333333334
            },
            {
              "pitch": 60,
              "velocity": 78,
              "position": 7.5,
              "duration": 0.1875
            },
            {
              "pitch": 76,
              "velocity": 88,
              "position": 7.75,
              "duration": 0.17708333333333334
            },
            {
              "pitch": 64,
              "velocity": 84,
              "position": 7.75,
              "duration": 0.1875
            },
            {
              "pitch": 52,
              "velocity": 80,
              "position": 7.760416666666667,
              "duration": 0.17708333333333334
            },
            {
              "pitch": 64,
              "velocity": 124,
              "position": 8,
              "duration": 0.1875
            },
            {
              "pitch": 52,
              "velocity": 80,
              "position": 8,
              "duration": 0.20833333333333334
            },
            {
              "pitch": 76,
              "velocity": 110,
              "position": 8,
              "duration": 0.21875
            },
            {
              "pitch": 58,
              "velocity": 76,
              "position": 8.25,
              "duration": 0.16666666666666666
            },
            {
              "pitch": 70,
              "velocity": 90,
              "position": 8.25,
              "duration": 0.17708333333333334
            },
            {
              "pitch": 60,
              "velocity": 78,
              "position": 8.489583333333334,
              "duration": 0.16666666666666666
            },
            {
              "pitch": 72,
              "velocity": 90,
              "position": 8.489583333333334,
              "duration": 0.16666666666666666
            },
            {
              "pitch": 76,
              "velocity": 88,
              "position": 8.75,
              "duration": 0.15625
            },
            {
              "pitch": 64,
              "velocity": 110,
              "position": 8.75,
              "duration": 0.15625
            },
            {
              "pitch": 52,
              "velocity": 94,
              "position": 8.75,
              "duration": 0.16666666666666666
            },
            {
              "pitch": 76,
              "velocity": 88,
              "position": 9,
              "duration": 0.20833333333333334
            },
            {
              "pitch": 64,
              "velocity": 110,
              "position": 9,
              "duration": 0.20833333333333334
            },
            {
              "pitch": 52,
              "velocity": 110,
              "position": 9,
              "duration": 0.25
            },
            {
              "pitch": 70,
              "velocity": 72,
              "position": 9.25,
              "duration": 0.16666666666666666
            },
            {
              "pitch": 58,
              "velocity": 72,
              "position": 9.260416666666666,
              "duration": 0.1875
            },
            {
              "pitch": 72,
              "velocity": 72,
              "position": 9.5,
              "duration": 0.17708333333333334
            },
            {
              "pitch": 60,
              "velocity": 72,
              "position": 9.5,
              "duration": 0.1875
            },
            {
              "pitch": 64,
              "velocity": 110,
              "position": 9.75,
              "duration": 0.4375
            },
            {
              "pitch": 76,
              "velocity": 104,
              "position": 9.75,
              "duration": 0.4479166666666667
            },
            {
              "pitch": 52,
              "velocity": 110,
              "position": 9.760416666666666,
              "duration": 0.4375
            },
            {
              "pitch": 70,
              "velocity": 64,
              "position": 10.270833333333334,
              "duration": 0.16666666666666666
            },
            {
              "pitch": 58,
              "velocity": 76,
              "position": 10.260416666666666,
              "duration": 0.1875
            },
            {
              "pitch": 60,
              "velocity": 76,
              "position": 10.510416666666666,
              "duration": 0.16666666666666666
            },
            {
              "pitch": 72,
              "velocity": 90,
              "position": 10.5,
              "duration": 0.19791666666666666
            },
            {
              "pitch": 52,
              "velocity": 110,
              "position": 10.770833333333334,
              "duration": 0.3958333333333333
            },
            {
              "pitch": 64,
              "velocity": 90,
              "position": 10.760416666666666,
              "duration": 0.4583333333333333
            },
            {
              "pitch": 76,
              "velocity": 88,
              "position": 10.760416666666666,
              "duration": 0.4583333333333333
            },
            {
              "pitch": 58,
              "velocity": 68,
              "position": 11.25,
              "duration": 0.19791666666666666
            },
            {
              "pitch": 70,
              "velocity": 80,
              "position": 11.260416666666666,
              "duration": 0.1875
            },
            {
              "pitch": 60,
              "velocity": 78,
              "position": 11.5,
              "duration": 0.16666666666666666
            },
            {
              "pitch": 72,
              "velocity": 68,
              "position": 11.5,
              "duration": 0.21875
            },
            {
              "pitch": 64,
              "velocity": 104,
              "position": 11.760416666666666,
              "duration": 0.4583333333333333
            },
            {
              "pitch": 52,
              "velocity": 104,
              "position": 11.760416666666666,
              "duration": 0.4791666666666667
            },
            {
              "pitch": 76,
              "velocity": 124,
              "position": 11.760416666666666,
              "duration": 0.4791666666666667
            },
            {
              "pitch": 58,
              "velocity": 72,
              "position": 12.25,
              "duration": 0.17708333333333334
            },
            {
              "pitch": 70,
              "velocity": 80,
              "position": 12.260416666666666,
              "duration": 0.16666666666666666
            },
            {
              "pitch": 72,
              "velocity": 78,
              "position": 12.5,
              "duration": 0.16666666666666666
            },
            {
              "pitch": 60,
              "velocity": 78,
              "position": 12.5,
              "duration": 0.1875
            },
            {
              "pitch": 76,
              "velocity": 88,
              "position": 12.75,
              "duration": 0.15625
            },
            {
              "pitch": 64,
              "velocity": 88,
              "position": 12.75,
              "duration": 0.16666666666666666
            },
            {
              "pitch": 52,
              "velocity": 92,
              "position": 12.760416666666666,
              "duration": 0.15625
            },
            {
              "pitch": 52,
              "velocity": 84,
              "position": 13,
              "duration": 0.21875
            },
            {
              "pitch": 76,
              "velocity": 88,
              "position": 13,
              "duration": 0.23958333333333334
            },
            {
              "pitch": 64,
              "velocity": 110,
              "position": 13,
              "duration": 0.25
            },
            {
              "pitch": 70,
              "velocity": 78,
              "position": 13.260416666666666,
              "duration": 0.17708333333333334
            },
            {
              "pitch": 58,
              "velocity": 78,
              "position": 13.260416666666666,
              "duration": 0.19791666666666666
            },
            {
              "pitch": 72,
              "velocity": 70,
              "position": 13.5,
              "duration": 0.16666666666666666
            },
            {
              "pitch": 60,
              "velocity": 76,
              "position": 13.5,
              "duration": 0.17708333333333334
            },
            {
              "pitch": 52,
              "velocity": 80,
              "position": 13.760416666666666,
              "duration": 0.3645833333333333
            },
            {
              "pitch": 64,
              "velocity": 88,
              "position": 13.75,
              "duration": 0.4375
            },
            {
              "pitch": 76,
              "velocity": 104,
              "position": 13.75,
              "duration": 0.4583333333333333
            },
            {
              "pitch": 52,
              "velocity": 72,
              "position": 14.25,
              "duration": 0.19791666666666666
            },
            {
              "pitch": 64,
              "velocity": 70,
              "position": 14.25,
              "duration": 0.19791666666666666
            },
            {
              "pitch": 70,
              "velocity": 70,
              "position": 14.489583333333334,
              "duration": 0.17708333333333334
            },
            {
              "pitch": 58,
              "velocity": 76,
              "position": 14.5,
              "duration": 0.20833333333333334
            },
            {
              "pitch": 72,
              "velocity": 100,
              "position": 14.75,
              "duration": 0.14583333333333334
            },
            {
              "pitch": 60,
              "velocity": 86,
              "position": 14.75,
              "duration": 0.15625
            },
            {
              "pitch": 48,
              "velocity": 86,
              "position": 14.75,
              "duration": 0.16666666666666666
            },
            {
              "pitch": 76,
              "velocity": 104,
              "position": 15.25,
              "duration": 0.17708333333333334
            },
            {
              "pitch": 64,
              "velocity": 88,
              "position": 15.25,
              "duration": 0.1875
            },
            {
              "pitch": 52,
              "velocity": 88,
              "position": 15.25,
              "duration": 0.19791666666666666
            },
            {
              "pitch": 76,
              "velocity": 100,
              "position": 15.489583333333334,
              "duration": 0.6666666666666666
            },
            {
              "pitch": 64,
              "velocity": 118,
              "position": 15.489583333333334,
              "duration": 0.6666666666666666
            },
            {
              "pitch": 52,
              "velocity": 120,
              "position": 15.5,
              "duration": 0.6666666666666666
            },
            {
              "pitch": 70,
              "velocity": 78,
              "position": 16.25,
              "duration": 0.17708333333333334
            },
            {
              "pitch": 58,
              "velocity": 90,
              "position": 16.25,
              "duration": 0.20833333333333334
            },
            {
              "pitch": 72,
              "velocity": 80,
              "position": 16.489583333333332,
              "duration": 0.1875
            },
            {
              "pitch": 60,
              "velocity": 64,
              "position": 16.510416666666668,
              "duration": 0.16666666666666666
            },
            {
              "pitch": 76,
              "velocity": 88,
              "position": 16.75,
              "duration": 0.14583333333333334
            },
            {
              "pitch": 64,
              "velocity": 110,
              "position": 16.75,
              "duration": 0.14583333333333334
            },
            {
              "pitch": 52,
              "velocity": 80,
              "position": 16.760416666666668,
              "duration": 0.15625
            },
            {
              "pitch": 64,
              "velocity": 88,
              "position": 17,
              "duration": 0.22916666666666666
            },
            {
              "pitch": 76,
              "velocity": 110,
              "position": 17,
              "duration": 0.22916666666666666
            },
            {
              "pitch": 52,
              "velocity": 80,
              "position": 17,
              "duration": 0.22916666666666666
            },
            {
              "pitch": 70,
              "velocity": 70,
              "position": 17.260416666666668,
              "duration": 0.15625
            },
            {
              "pitch": 58,
              "velocity": 80,
              "position": 17.260416666666668,
              "duration": 0.22916666666666666
            },
            {
              "pitch": 72,
              "velocity": 80,
              "position": 17.5,
              "duration": 0.16666666666666666
            },
            {
              "pitch": 60,
              "velocity": 80,
              "position": 17.510416666666668,
              "duration": 0.17708333333333334
            },
            {
              "pitch": 52,
              "velocity": 92,
              "position": 17.760416666666668,
              "duration": 0.4270833333333333
            },
            {
              "pitch": 64,
              "velocity": 90,
              "position": 17.75,
              "duration": 0.4479166666666667
            },
            {
              "pitch": 76,
              "velocity": 90,
              "position": 17.75,
              "duration": 0.4479166666666667
            },
            {
              "pitch": 58,
              "velocity": 80,
              "position": 18.25,
              "duration": 0.17708333333333334
            },
            {
              "pitch": 70,
              "velocity": 70,
              "position": 18.260416666666668,
              "duration": 0.21875
            },
            {
              "pitch": 60,
              "velocity": 78,
              "position": 18.5,
              "duration": 0.15625
            },
            {
              "pitch": 72,
              "velocity": 78,
              "position": 18.5,
              "duration": 0.17708333333333334
            },
            {
              "pitch": 76,
              "velocity": 90,
              "position": 18.75,
              "duration": 0.4166666666666667
            },
            {
              "pitch": 64,
              "velocity": 90,
              "position": 18.75,
              "duration": 0.4791666666666667
            },
            {
              "pitch": 52,
              "velocity": 110,
              "position": 18.760416666666668,
              "duration": 0.4895833333333333
            },
            {
              "pitch": 58,
              "velocity": 58,
              "position": 19.25,
              "duration": 0.16666666666666666
            },
            {
              "pitch": 70,
              "velocity": 64,
              "position": 19.25,
              "duration": 0.1875
            },
            {
              "pitch": 60,
              "velocity": 78,
              "position": 19.489583333333332,
              "duration": 0.17708333333333334
            },
            {
              "pitch": 72,
              "velocity": 78,
              "position": 19.489583333333332,
              "duration": 0.20833333333333334
            },
            {
              "pitch": 52,
              "velocity": 88,
              "position": 19.75,
              "duration": 0.4270833333333333
            },
            {
              "pitch": 64,
              "velocity": 110,
              "position": 19.75,
              "duration": 0.4583333333333333
            },
            {
              "pitch": 76,
              "velocity": 120,
              "position": 19.75,
              "duration": 0.46875
            },
            {
              "pitch": 58,
              "velocity": 72,
              "position": 20.25,
              "duration": 0.17708333333333334
            },
            {
              "pitch": 70,
              "velocity": 76,
              "position": 20.260416666666668,
              "duration": 0.17708333333333334
            },
            {
              "pitch": 60,
              "velocity": 68,
              "position": 20.5,
              "duration": 0.14583333333333334
            },
            {
              "pitch": 72,
              "velocity": 78,
              "position": 20.5,
              "duration": 0.17708333333333334
            },
            {
              "pitch": 76,
              "velocity": 78,
              "position": 20.75,
              "duration": 0.15625
            },
            {
              "pitch": 64,
              "velocity": 84,
              "position": 20.75,
              "duration": 0.15625
            },
            {
              "pitch": 52,
              "velocity": 88,
              "position": 20.760416666666668,
              "duration": 0.15625
            },
            {
              "pitch": 76,
              "velocity": 94,
              "position": 21,
              "duration": 0.23958333333333334
            },
            {
              "pitch": 64,
              "velocity": 88,
              "position": 21,
              "duration": 0.25
            },
            {
              "pitch": 52,
              "velocity": 84,
              "position": 21,
              "duration": 0.25
            },
            {
              "pitch": 70,
              "velocity": 80,
              "position": 21.25,
              "duration": 0.17708333333333334
            },
            {
              "pitch": 58,
              "velocity": 78,
              "position": 21.25,
              "duration": 0.19791666666666666
            },
            {
              "pitch": 72,
              "velocity": 72,
              "position": 21.489583333333332,
              "duration": 0.16666666666666666
            },
            {
              "pitch": 60,
              "velocity": 80,
              "position": 21.5,
              "duration": 0.16666666666666666
            },
            {
              "pitch": 52,
              "velocity": 92,
              "position": 21.760416666666668,
              "duration": 0.4270833333333333
            },
            {
              "pitch": 64,
              "velocity": 88,
              "position": 21.75,
              "duration": 0.4791666666666667
            },
            {
              "pitch": 76,
              "velocity": 88,
              "position": 21.75,
              "duration": 0.4791666666666667
            },
            {
              "pitch": 70,
              "velocity": 68,
              "position": 22.25,
              "duration": 0.16666666666666666
            },
            {
              "pitch": 58,
              "velocity": 78,
              "position": 22.25,
              "duration": 0.17708333333333334
            },
            {
              "pitch": 60,
              "velocity": 78,
              "position": 22.5,
              "duration": 0.15625
            },
            {
              "pitch": 72,
              "velocity": 78,
              "position": 22.5,
              "duration": 0.16666666666666666
            },
            {
              "pitch": 64,
              "velocity": 88,
              "position": 22.75,
              "duration": 0.4166666666666667
            },
            {
              "pitch": 52,
              "velocity": 92,
              "position": 22.760416666666668,
              "duration": 0.40625
            },
            {
              "pitch": 76,
              "velocity": 88,
              "position": 22.75,
              "duration": 0.4479166666666667
            },
            {
              "pitch": 58,
              "velocity": 80,
              "position": 23.25,
              "duration": 0.1875
            },
            {
              "pitch": 70,
              "velocity": 68,
              "position": 23.260416666666668,
              "duration": 0.19791666666666666
            },
            {
              "pitch": 72,
              "velocity": 80,
              "position": 23.5,
              "duration": 0.17708333333333334
            },
            {
              "pitch": 60,
              "velocity": 80,
              "position": 23.489583333333332,
              "duration": 0.20833333333333334
            },
            {
              "pitch": 52,
              "velocity": 92,
              "position": 23.75,
              "duration": 0.14583333333333334
            },
            {
              "pitch": 64,
              "velocity": 90,
              "position": 23.75,
              "duration": 0.14583333333333334
            },
            {
              "pitch": 76,
              "velocity": 110,
              "position": 23.75,
              "duration": 0.16666666666666666
            },
            {
              "pitch": 64,
              "velocity": 124,
              "position": 24,
              "duration": 0.1875
            },
            {
              "pitch": 52,
              "velocity": 80,
              "position": 24,
              "duration": 0.20833333333333334
            },
            {
              "pitch": 76,
              "velocity": 110,
              "position": 24,
              "duration": 0.21875
            },
            {
              "pitch": 58,
              "velocity": 76,
              "position": 24.25,
              "duration": 0.16666666666666666
            },
            {
              "pitch": 70,
              "velocity": 90,
              "position": 24.25,
              "duration": 0.17708333333333334
            },
            {
              "pitch": 60,
              "velocity": 78,
              "position": 24.489583333333332,
              "duration": 0.16666666666666666
            },
            {
              "pitch": 72,
              "velocity": 90,
              "position": 24.489583333333332,
              "duration": 0.16666666666666666
            },
            {
              "pitch": 76,
              "velocity": 88,
              "position": 24.75,
              "duration": 0.15625
            },
            {
              "pitch": 64,
              "velocity": 110,
              "position": 24.75,
              "duration": 0.15625
            },
            {
              "pitch": 52,
              "velocity": 94,
              "position": 24.75,
              "duration": 0.16666666666666666
            },
            {
              "pitch": 76,
              "velocity": 88,
              "position": 25,
              "duration": 0.20833333333333334
            },
            {
              "pitch": 64,
              "velocity": 110,
              "position": 25,
              "duration": 0.20833333333333334
            },
            {
              "pitch": 52,
              "velocity": 110,
              "position": 25,
              "duration": 0.25
            },
            {
              "pitch": 70,
              "velocity": 72,
              "position": 25.25,
              "duration": 0.16666666666666666
            },
            {
              "pitch": 58,
              "velocity": 72,
              "position": 25.260416666666668,
              "duration": 0.1875
            },
            {
              "pitch": 72,
              "velocity": 72,
              "position": 25.5,
              "duration": 0.17708333333333334
            },
            {
              "pitch": 60,
              "velocity": 72,
              "position": 25.5,
              "duration": 0.1875
            },
            {
              "pitch": 64,
              "velocity": 110,
              "position": 25.75,
              "duration": 0.4375
            },
            {
              "pitch": 76,
              "velocity": 104,
              "position": 25.75,
              "duration": 0.4479166666666667
            },
            {
              "pitch": 52,
              "velocity": 110,
              "position": 25.760416666666668,
              "duration": 0.4375
            },
            {
              "pitch": 70,
              "velocity": 64,
              "position": 26.270833333333332,
              "duration": 0.16666666666666666
            },
            {
              "pitch": 58,
              "velocity": 76,
              "position": 26.260416666666668,
              "duration": 0.1875
            },
            {
              "pitch": 60,
              "velocity": 76,
              "position": 26.510416666666668,
              "duration": 0.16666666666666666
            },
            {
              "pitch": 72,
              "velocity": 90,
              "position": 26.5,
              "duration": 0.19791666666666666
            },
            {
              "pitch": 52,
              "velocity": 110,
              "position": 26.770833333333332,
              "duration": 0.3958333333333333
            },
            {
              "pitch": 64,
              "velocity": 90,
              "position": 26.760416666666668,
              "duration": 0.4583333333333333
            },
            {
              "pitch": 76,
              "velocity": 88,
              "position": 26.760416666666668,
              "duration": 0.4583333333333333
            },
            {
              "pitch": 58,
              "velocity": 68,
              "position": 27.25,
              "duration": 0.19791666666666666
            },
            {
              "pitch": 70,
              "velocity": 80,
              "position": 27.260416666666668,
              "duration": 0.1875
            },
            {
              "pitch": 60,
              "velocity": 78,
              "position": 27.5,
              "duration": 0.16666666666666666
            },
            {
              "pitch": 72,
              "velocity": 68,
              "position": 27.5,
              "duration": 0.21875
            },
            {
              "pitch": 64,
              "velocity": 104,
              "position": 27.760416666666668,
              "duration": 0.4583333333333333
            },
            {
              "pitch": 52,
              "velocity": 104,
              "position": 27.760416666666668,
              "duration": 0.4791666666666667
            },
            {
              "pitch": 76,
              "velocity": 124,
              "position": 27.760416666666668,
              "duration": 0.4791666666666667
            },
            {
              "pitch": 70,
              "velocity": 78,
              "position": 28.260416666666668,
              "duration": 0.16666666666666666
            },
            {
              "pitch": 58,
              "velocity": 68,
              "position": 28.260416666666668,
              "duration": 0.17708333333333334
            },
            {
              "pitch": 60,
              "velocity": 70,
              "position": 28.5,
              "duration": 0.16666666666666666
            },
            {
              "pitch": 72,
              "velocity": 72,
              "position": 28.5,
              "duration": 0.1875
            },
            {
              "pitch": 76,
              "velocity": 110,
              "position": 28.760416666666668,
              "duration": 0.125
            },
            {
              "pitch": 64,
              "velocity": 110,
              "position": 28.760416666666668,
              "duration": 0.13541666666666666
            },
            {
              "pitch": 52,
              "velocity": 80,
              "position": 28.760416666666668,
              "duration": 0.19791666666666666
            },
            {
              "pitch": 64,
              "velocity": 104,
              "position": 29,
              "duration": 0.19791666666666666
            },
            {
              "pitch": 76,
              "velocity": 104,
              "position": 29,
              "duration": 0.22916666666666666
            },
            {
              "pitch": 52,
              "velocity": 80,
              "position": 29,
              "duration": 0.25
            },
            {
              "pitch": 70,
              "velocity": 70,
              "position": 29.260416666666668,
              "duration": 0.15625
            },
            {
              "pitch": 58,
              "velocity": 80,
              "position": 29.260416666666668,
              "duration": 0.19791666666666666
            },
            {
              "pitch": 72,
              "velocity": 70,
              "position": 29.5,
              "duration": 0.1875
            },
            {
              "pitch": 60,
              "velocity": 80,
              "position": 29.5,
              "duration": 0.1875
            },
            {
              "pitch": 76,
              "velocity": 104,
              "position": 29.760416666666668,
              "duration": 0.4166666666666667
            },
            {
              "pitch": 64,
              "velocity": 110,
              "position": 29.760416666666668,
              "duration": 0.4270833333333333
            },
            {
              "pitch": 52,
              "velocity": 92,
              "position": 29.760416666666668,
              "duration": 0.4583333333333333
            },
            {
              "pitch": 70,
              "velocity": 72,
              "position": 30.260416666666668,
              "duration": 0.16666666666666666
            },
            {
              "pitch": 58,
              "velocity": 80,
              "position": 30.25,
              "duration": 0.20833333333333334
            },
            {
              "pitch": 60,
              "velocity": 80,
              "position": 30.5,
              "duration": 0.16666666666666666
            },
            {
              "pitch": 72,
              "velocity": 80,
              "position": 30.5,
              "duration": 0.19791666666666666
            },
            {
              "pitch": 52,
              "velocity": 92,
              "position": 30.760416666666668,
              "duration": 0.3854166666666667
            },
            {
              "pitch": 76,
              "velocity": 104,
              "position": 30.760416666666668,
              "duration": 0.4166666666666667
            },
            {
              "pitch": 64,
              "velocity": 110,
              "position": 30.75,
              "duration": 0.4375
            },
            {
              "pitch": 70,
              "velocity": 72,
              "position": 31.260416666666668,
              "duration": 0.16666666666666666
            },
            {
              "pitch": 58,
              "velocity": 68,
              "position": 31.260416666666668,
              "duration": 0.17708333333333334
            },
            {
              "pitch": 72,
              "velocity": 88,
              "position": 31.5,
              "duration": 0.17708333333333334
            },
            {
              "pitch": 60,
              "velocity": 78,
              "position": 31.5,
              "duration": 0.1875
            },
            {
              "pitch": 76,
              "velocity": 88,
              "position": 31.75,
              "duration": 0.17708333333333334
            },
            {
              "pitch": 64,
              "velocity": 84,
              "position": 31.75,
              "duration": 0.1875
            },
            {
              "pitch": 52,
              "velocity": 80,
              "position": 31.760416666666668,
              "duration": 0.17708333333333334
            }
          ]
        },
        "1": {
          "ctab": {
            "srcChannel": 1,
            "name": "BrasSect",
            "accType": "PHRASE1",
            "editable": false,
            "mutedNotes": [],
            "mutedChords": [
              "7aug",
              "Maj7aug",
              "7(#9)",
              "7(b13)",
              "7(b9)",
              "7(13)",
              "7#11",
              "7(9)",
              "7b5",
              "7sus4",
              "7th",
              "dim7",
              "dim",
              "minMaj7(9)",
              "minMaj7",
              "min7(11)",
              "min7(9)",
              "min(9)",
              "m7b5",
              "min7",
              "min6",
              "min"
            ],
            "autoStart": false,
            "sourceChordNote": 0,
            "sourceChordType": "Maj7",
            "ctb2Low": null,
            "ctb2Main": {
              "ntr": "ROOT_TRANSPOSITION",
              "ntt": "CHORD",
              "bassOn": false,
              "chordRootUpperLimit": 6,
              "noteLowLimit": 0,
              "noteHighLimit": 127,
              "rtr": "PITCH_SHIFT"
            },
            "ctb2High": null
          },
          "notes": [
            {
              "pitch": 74,
              "velocity": 122,
              "position": 0.4791666666666667,
              "duration": 0.20833333333333334
            },
            {
              "pitch": 79,
              "velocity": 122,
              "position": 0.4791666666666667,
              "duration": 0.20833333333333334
            },
            {
              "pitch": 76,
              "velocity": 106,
              "position": 0.4895833333333333,
              "duration": 0.19791666666666666
            },
            {
              "pitch": 71,
              "velocity": 114,
              "position": 0.4791666666666667,
              "duration": 0.22916666666666666
            },
            {
              "pitch": 83,
              "velocity": 126,
              "position": 1.7395833333333333,
              "duration": 0.3125
            },
            {
              "pitch": 79,
              "velocity": 126,
              "position": 1.75,
              "duration": 0.3229166666666667
            },
            {
              "pitch": 74,
              "velocity": 126,
              "position": 1.75,
              "duration": 0.3645833333333333
            },
            {
              "pitch": 77,
              "velocity": 64,
              "position": 2.09375,
              "duration": 0.052083333333333336
            },
            {
              "pitch": 81,
              "velocity": 90,
              "position": 2.0208333333333335,
              "duration": 0.13541666666666666
            },
            {
              "pitch": 76,
              "velocity": 126,
              "position": 1.75,
              "duration": 0.4166666666666667
            },
            {
              "pitch": 71,
              "velocity": 70,
              "position": 2.09375,
              "duration": 0.07291666666666667
            },
            {
              "pitch": 79,
              "velocity": 72,
              "position": 2.0833333333333335,
              "duration": 0.09375
            },
            {
              "pitch": 77,
              "velocity": 82,
              "position": 2.15625,
              "duration": 0.0625
            },
            {
              "pitch": 76,
              "velocity": 80,
              "position": 2.1770833333333335,
              "duration": 0.052083333333333336
            },
            {
              "pitch": 71,
              "velocity": 76,
              "position": 2.1770833333333335,
              "duration": 0.052083333333333336
            },
            {
              "pitch": 74,
              "velocity": 72,
              "position": 2.15625,
              "duration": 0.09375
            },
            {
              "pitch": 76,
              "velocity": 78,
              "position": 2.2291666666666665,
              "duration": 0.0625
            },
            {
              "pitch": 71,
              "velocity": 72,
              "position": 2.2395833333333335,
              "duration": 0.052083333333333336
            },
            {
              "pitch": 74,
              "velocity": 80,
              "position": 2.2604166666666665,
              "duration": 0.052083333333333336
            },
            {
              "pitch": 69,
              "velocity": 76,
              "position": 2.25,
              "duration": 0.09375
            },
            {
              "pitch": 71,
              "velocity": 68,
              "position": 2.3125,
              "duration": 0.03125
            },
            {
              "pitch": 71,
              "velocity": 62,
              "position": 2.34375,
              "duration": 0.052083333333333336
            },
            {
              "pitch": 74,
              "velocity": 64,
              "position": 2.3229166666666665,
              "duration": 0.09375
            },
            {
              "pitch": 67,
              "velocity": 64,
              "position": 2.3229166666666665,
              "duration": 0.10416666666666667
            },
            {
              "pitch": 69,
              "velocity": 60,
              "position": 2.3854166666666665,
              "duration": 0.07291666666666667
            },
            {
              "pitch": 71,
              "velocity": 54,
              "position": 2.40625,
              "duration": 0.08333333333333333
            },
            {
              "pitch": 74,
              "velocity": 110,
              "position": 5.760416666666667,
              "duration": 0.16666666666666666
            },
            {
              "pitch": 71,
              "velocity": 104,
              "position": 5.760416666666667,
              "duration": 0.17708333333333334
            },
            {
              "pitch": 77,
              "velocity": 104,
              "position": 5.770833333333333,
              "duration": 0.16666666666666666
            },
            {
              "pitch": 69,
              "velocity": 110,
              "position": 5.760416666666667,
              "duration": 0.19791666666666666
            },
            {
              "pitch": 76,
              "velocity": 124,
              "position": 6.260416666666667,
              "duration": 0.17708333333333334
            },
            {
              "pitch": 74,
              "velocity": 122,
              "position": 6.260416666666667,
              "duration": 0.17708333333333334
            },
            {
              "pitch": 71,
              "velocity": 124,
              "position": 6.260416666666667,
              "duration": 0.19791666666666666
            },
            {
              "pitch": 79,
              "velocity": 126,
              "position": 6.260416666666667,
              "duration": 0.19791666666666666
            },
            {
              "pitch": 67,
              "velocity": 104,
              "position": 6.760416666666667,
              "duration": 0.20833333333333334
            },
            {
              "pitch": 71,
              "velocity": 110,
              "position": 6.760416666666667,
              "duration": 0.21875
            },
            {
              "pitch": 76,
              "velocity": 98,
              "position": 6.760416666666667,
              "duration": 0.21875
            },
            {
              "pitch": 76,
              "velocity": 112,
              "position": 8.5,
              "duration": 0.22916666666666666
            },
            {
              "pitch": 74,
              "velocity": 110,
              "position": 8.5,
              "duration": 0.22916666666666666
            },
            {
              "pitch": 79,
              "velocity": 122,
              "position": 8.5,
              "duration": 0.23958333333333334
            },
            {
              "pitch": 71,
              "velocity": 104,
              "position": 8.5,
              "duration": 0.23958333333333334
            },
            {
              "pitch": 71,
              "velocity": 68,
              "position": 8.760416666666666,
              "duration": 0.20833333333333334
            },
            {
              "pitch": 76,
              "velocity": 62,
              "position": 8.760416666666666,
              "duration": 0.20833333333333334
            },
            {
              "pitch": 79,
              "velocity": 68,
              "position": 8.760416666666666,
              "duration": 0.21875
            },
            {
              "pitch": 74,
              "velocity": 68,
              "position": 8.760416666666666,
              "duration": 0.21875
            },
            {
              "pitch": 76,
              "velocity": 94,
              "position": 9.010416666666666,
              "duration": 0.19791666666666666
            },
            {
              "pitch": 79,
              "velocity": 110,
              "position": 9.010416666666666,
              "duration": 0.20833333333333334
            },
            {
              "pitch": 74,
              "velocity": 94,
              "position": 9.010416666666666,
              "duration": 0.20833333333333334
            },
            {
              "pitch": 71,
              "velocity": 100,
              "position": 9.010416666666666,
              "duration": 0.21875
            },
            {
              "pitch": 76,
              "velocity": 80,
              "position": 11.25,
              "duration": 0.21875
            },
            {
              "pitch": 79,
              "velocity": 80,
              "position": 11.260416666666666,
              "duration": 0.20833333333333334
            },
            {
              "pitch": 71,
              "velocity": 76,
              "position": 11.260416666666666,
              "duration": 0.21875
            },
            {
              "pitch": 74,
              "velocity": 76,
              "position": 11.260416666666666,
              "duration": 0.21875
            },
            {
              "pitch": 76,
              "velocity": 92,
              "position": 11.510416666666666,
              "duration": 0.19791666666666666
            },
            {
              "pitch": 79,
              "velocity": 94,
              "position": 11.5,
              "duration": 0.21875
            },
            {
              "pitch": 74,
              "velocity": 92,
              "position": 11.5,
              "duration": 0.22916666666666666
            },
            {
              "pitch": 83,
              "velocity": 92,
              "position": 11.5,
              "duration": 0.22916666666666666
            },
            {
              "pitch": 76,
              "velocity": 104,
              "position": 11.760416666666666,
              "duration": 0.20833333333333334
            },
            {
              "pitch": 74,
              "velocity": 110,
              "position": 11.760416666666666,
              "duration": 0.21875
            },
            {
              "pitch": 79,
              "velocity": 102,
              "position": 11.760416666666666,
              "duration": 0.21875
            },
            {
              "pitch": 83,
              "velocity": 98,
              "position": 11.760416666666666,
              "duration": 0.21875
            },
            {
              "pitch": 74,
              "velocity": 126,
              "position": 12,
              "duration": 0.20833333333333334
            },
            {
              "pitch": 76,
              "velocity": 126,
              "position": 12,
              "duration": 0.21875
            },
            {
              "pitch": 79,
              "velocity": 118,
              "position": 12,
              "duration": 0.22916666666666666
            },
            {
              "pitch": 83,
              "velocity": 114,
              "position": 12,
              "duration": 0.23958333333333334
            },
            {
              "pitch": 76,
              "velocity": 92,
              "position": 13.760416666666666,
              "duration": 0.21875
            },
            {
              "pitch": 64,
              "velocity": 94,
              "position": 13.760416666666666,
              "duration": 0.21875
            },
            {
              "pitch": 77,
              "velocity": 126,
              "position": 14,
              "duration": 0.22916666666666666
            },
            {
              "pitch": 65,
              "velocity": 126,
              "position": 14,
              "duration": 0.23958333333333334
            },
            {
              "pitch": 81,
              "velocity": 104,
              "position": 14.260416666666666,
              "duration": 0.14583333333333334
            },
            {
              "pitch": 69,
              "velocity": 100,
              "position": 14.260416666666666,
              "duration": 0.14583333333333334
            },
            {
              "pitch": 79,
              "velocity": 112,
              "position": 14.760416666666666,
              "duration": 1.15625
            },
            {
              "pitch": 67,
              "velocity": 110,
              "position": 14.760416666666666,
              "duration": 1.15625
            },
            {
              "pitch": 74,
              "velocity": 122,
              "position": 16.479166666666668,
              "duration": 0.20833333333333334
            },
            {
              "pitch": 79,
              "velocity": 122,
              "position": 16.479166666666668,
              "duration": 0.20833333333333334
            },
            {
              "pitch": 76,
              "velocity": 106,
              "position": 16.489583333333332,
              "duration": 0.19791666666666666
            },
            {
              "pitch": 71,
              "velocity": 114,
              "position": 16.479166666666668,
              "duration": 0.22916666666666666
            },
            {
              "pitch": 83,
              "velocity": 126,
              "position": 17.739583333333332,
              "duration": 0.3125
            },
            {
              "pitch": 79,
              "velocity": 126,
              "position": 17.75,
              "duration": 0.3229166666666667
            },
            {
              "pitch": 74,
              "velocity": 126,
              "position": 17.75,
              "duration": 0.3645833333333333
            },
            {
              "pitch": 77,
              "velocity": 64,
              "position": 18.09375,
              "duration": 0.052083333333333336
            },
            {
              "pitch": 81,
              "velocity": 90,
              "position": 18.020833333333332,
              "duration": 0.13541666666666666
            },
            {
              "pitch": 76,
              "velocity": 126,
              "position": 17.75,
              "duration": 0.4166666666666667
            },
            {
              "pitch": 71,
              "velocity": 70,
              "position": 18.09375,
              "duration": 0.07291666666666667
            },
            {
              "pitch": 79,
              "velocity": 72,
              "position": 18.083333333333332,
              "duration": 0.09375
            },
            {
              "pitch": 77,
              "velocity": 82,
              "position": 18.15625,
              "duration": 0.0625
            },
            {
              "pitch": 76,
              "velocity": 80,
              "position": 18.177083333333332,
              "duration": 0.052083333333333336
            },
            {
              "pitch": 71,
              "velocity": 76,
              "position": 18.177083333333332,
              "duration": 0.052083333333333336
            },
            {
              "pitch": 74,
              "velocity": 72,
              "position": 18.15625,
              "duration": 0.09375
            },
            {
              "pitch": 76,
              "velocity": 78,
              "position": 18.229166666666668,
              "duration": 0.0625
            },
            {
              "pitch": 71,
              "velocity": 72,
              "position": 18.239583333333332,
              "duration": 0.052083333333333336
            },
            {
              "pitch": 74,
              "velocity": 80,
              "position": 18.260416666666668,
              "duration": 0.052083333333333336
            },
            {
              "pitch": 69,
              "velocity": 76,
              "position": 18.25,
              "duration": 0.09375
            },
            {
              "pitch": 71,
              "velocity": 68,
              "position": 18.3125,
              "duration": 0.03125
            },
            {
              "pitch": 71,
              "velocity": 62,
              "position": 18.34375,
              "duration": 0.052083333333333336
            },
            {
              "pitch": 74,
              "velocity": 64,
              "position": 18.322916666666668,
              "duration": 0.09375
            },
            {
              "pitch": 67,
              "velocity": 64,
              "position": 18.322916666666668,
              "duration": 0.10416666666666667
            },
            {
              "pitch": 69,
              "velocity": 60,
              "position": 18.385416666666668,
              "duration": 0.07291666666666667
            },
            {
              "pitch": 71,
              "velocity": 54,
              "position": 18.40625,
              "duration": 0.08333333333333333
            },
            {
              "pitch": 74,
              "velocity": 110,
              "position": 21.760416666666668,
              "duration": 0.16666666666666666
            },
            {
              "pitch": 71,
              "velocity": 104,
              "position": 21.760416666666668,
              "duration": 0.17708333333333334
            },
            {
              "pitch": 77,
              "velocity": 104,
              "position": 21.770833333333332,
              "duration": 0.16666666666666666
            },
            {
              "pitch": 69,
              "velocity": 110,
              "position": 21.760416666666668,
              "duration": 0.19791666666666666
            },
            {
              "pitch": 76,
              "velocity": 124,
              "position": 22.260416666666668,
              "duration": 0.17708333333333334
            },
            {
              "pitch": 74,
              "velocity": 122,
              "position": 22.260416666666668,
              "duration": 0.17708333333333334
            },
            {
              "pitch": 71,
              "velocity": 124,
              "position": 22.260416666666668,
              "duration": 0.19791666666666666
            },
            {
              "pitch": 79,
              "velocity": 126,
              "position": 22.260416666666668,
              "duration": 0.19791666666666666
            },
            {
              "pitch": 67,
              "velocity": 104,
              "position": 22.760416666666668,
              "duration": 0.20833333333333334
            },
            {
              "pitch": 71,
              "velocity": 110,
              "position": 22.760416666666668,
              "duration": 0.21875
            },
            {
              "pitch": 76,
              "velocity": 98,
              "position": 22.760416666666668,
              "duration": 0.21875
            },
            {
              "pitch": 67,
              "velocity": 112,
              "position": 23.260416666666668,
              "duration": 0.19791666666666666
            },
            {
              "pitch": 79,
              "velocity": 108,
              "position": 23.260416666666668,
              "duration": 0.19791666666666666
            },
            {
              "pitch": 83,
              "velocity": 98,
              "position": 23.5,
              "duration": 0.21875
            },
            {
              "pitch": 71,
              "velocity": 100,
              "position": 23.489583333333332,
              "duration": 0.23958333333333334
            },
            {
              "pitch": 83,
              "velocity": 114,
              "position": 23.75,
              "duration": 0.22916666666666666
            },
            {
              "pitch": 71,
              "velocity": 116,
              "position": 23.75,
              "duration": 0.22916666666666666
            },
            {
              "pitch": 83,
              "velocity": 120,
              "position": 24,
              "duration": 0.20833333333333334
            },
            {
              "pitch": 71,
              "velocity": 120,
              "position": 24,
              "duration": 0.21875
            },
            {
              "pitch": 79,
              "velocity": 110,
              "position": 24.5,
              "duration": 0.1875
            },
            {
              "pitch": 67,
              "velocity": 110,
              "position": 24.5,
              "duration": 0.1875
            },
            {
              "pitch": 81,
              "velocity": 126,
              "position": 25.75,
              "duration": 0.20833333333333334
            },
            {
              "pitch": 69,
              "velocity": 126,
              "position": 25.75,
              "duration": 0.21875
            },
            {
              "pitch": 77,
              "velocity": 102,
              "position": 26.260416666666668,
              "duration": 0.22916666666666666
            },
            {
              "pitch": 65,
              "velocity": 102,
              "position": 26.260416666666668,
              "duration": 0.22916666666666666
            },
            {
              "pitch": 74,
              "velocity": 84,
              "position": 26.489583333333332,
              "duration": 0.2604166666666667
            },
            {
              "pitch": 62,
              "velocity": 88,
              "position": 26.5,
              "duration": 0.25
            },
            {
              "pitch": 79,
              "velocity": 110,
              "position": 26.760416666666668,
              "duration": 1.46875
            },
            {
              "pitch": 67,
              "velocity": 126,
              "position": 26.770833333333332,
              "duration": 1.46875
            },
            {
              "pitch": 71,
              "velocity": 96,
              "position": 29.760416666666668,
              "duration": 0.19791666666666666
            },
            {
              "pitch": 67,
              "velocity": 102,
              "position": 29.760416666666668,
              "duration": 0.19791666666666666
            },
            {
              "pitch": 76,
              "velocity": 102,
              "position": 29.760416666666668,
              "duration": 0.19791666666666666
            },
            {
              "pitch": 69,
              "velocity": 112,
              "position": 30,
              "duration": 0.20833333333333334
            },
            {
              "pitch": 74,
              "velocity": 118,
              "position": 30,
              "duration": 0.20833333333333334
            },
            {
              "pitch": 71,
              "velocity": 114,
              "position": 30,
              "duration": 0.20833333333333334
            },
            {
              "pitch": 77,
              "velocity": 112,
              "position": 30,
              "duration": 0.20833333333333334
            },
            {
              "pitch": 77,
              "velocity": 126,
              "position": 30.260416666666668,
              "duration": 0.22916666666666666
            },
            {
              "pitch": 81,
              "velocity": 126,
              "position": 30.260416666666668,
              "duration": 0.22916666666666666
            },
            {
              "pitch": 74,
              "velocity": 126,
              "position": 30.260416666666668,
              "duration": 0.23958333333333334
            },
            {
              "pitch": 71,
              "velocity": 126,
              "position": 30.260416666666668,
              "duration": 0.23958333333333334
            },
            {
              "pitch": 71,
              "velocity": 112,
              "position": 30.760416666666668,
              "duration": 0.9479166666666666
            },
            {
              "pitch": 79,
              "velocity": 110,
              "position": 30.760416666666668,
              "duration": 0.9479166666666666
            },
            {
              "pitch": 74,
              "velocity": 116,
              "position": 30.760416666666668,
              "duration": 0.9583333333333334
            },
            {
              "pitch": 76,
              "velocity": 118,
              "position": 30.760416666666668,
              "duration": 0.96875
            }
          ]
        },
        "2": {
          "ctab": {
            "srcChannel": 2,
            "name": "BrasSect",
            "accType": "PHRASE1",
            "editable": false,
            "mutedNotes": [],
            "mutedChords": [
              "1+2+5",
              "sus4",
              "1+5",
              "1+8",
              "7aug",
              "Maj7aug",
              "7(#9)",
              "7(b13)",
              "7(b9)",
              "7(13)",
              "7#11",
              "7(9)",
              "7b5",
              "7sus4",
              "7th",
              "aug",
              "Maj6(9)",
              "Maj7(9)",
              "Maj(9)",
              "Maj7#11",
              "Maj7",
              "Maj6",
              "Maj"
            ],
            "autoStart": false,
            "sourceChordNote": 0,
            "sourceChordType": "minMaj7",
            "ctb2Low": null,
            "ctb2Main": {
              "ntr": "ROOT_TRANSPOSITION",
              "ntt": "CHORD",
              "bassOn": false,
              "chordRootUpperLimit": 6,
              "noteLowLimit": 0,
              "noteHighLimit": 127,
              "rtr": "PITCH_SHIFT"
            },
            "ctb2High": null
          },
          "notes": [
            {
              "pitch": 71,
              "velocity": 114,
              "position": 0.4791666666666667,
              "duration": 0.20833333333333334
            },
            {
              "pitch": 79,
              "velocity": 122,
              "position": 0.4791666666666667,
              "duration": 0.20833333333333334
            },
            {
              "pitch": 75,
              "velocity": 106,
              "position": 0.4895833333333333,
              "duration": 0.19791666666666666
            },
            {
              "pitch": 83,
              "velocity": 126,
              "position": 1.7395833333333333,
              "duration": 0.3125
            },
            {
              "pitch": 79,
              "velocity": 126,
              "position": 1.75,
              "duration": 0.3229166666666667
            },
            {
              "pitch": 71,
              "velocity": 126,
              "position": 1.75,
              "duration": 0.3333333333333333
            },
            {
              "pitch": 77,
              "velocity": 64,
              "position": 2.09375,
              "duration": 0.052083333333333336
            },
            {
              "pitch": 81,
              "velocity": 90,
              "position": 2.0208333333333335,
              "duration": 0.13541666666666666
            },
            {
              "pitch": 75,
              "velocity": 126,
              "position": 1.75,
              "duration": 0.4166666666666667
            },
            {
              "pitch": 71,
              "velocity": 70,
              "position": 2.09375,
              "duration": 0.07291666666666667
            },
            {
              "pitch": 79,
              "velocity": 72,
              "position": 2.0833333333333335,
              "duration": 0.09375
            },
            {
              "pitch": 77,
              "velocity": 82,
              "position": 2.15625,
              "duration": 0.0625
            },
            {
              "pitch": 75,
              "velocity": 80,
              "position": 2.1770833333333335,
              "duration": 0.052083333333333336
            },
            {
              "pitch": 69,
              "velocity": 76,
              "position": 2.1770833333333335,
              "duration": 0.0625
            },
            {
              "pitch": 74,
              "velocity": 72,
              "position": 2.15625,
              "duration": 0.09375
            },
            {
              "pitch": 75,
              "velocity": 78,
              "position": 2.2291666666666665,
              "duration": 0.0625
            },
            {
              "pitch": 71,
              "velocity": 72,
              "position": 2.2395833333333335,
              "duration": 0.052083333333333336
            },
            {
              "pitch": 74,
              "velocity": 80,
              "position": 2.2604166666666665,
              "duration": 0.052083333333333336
            },
            {
              "pitch": 67,
              "velocity": 76,
              "position": 2.25,
              "duration": 0.09375
            },
            {
              "pitch": 71,
              "velocity": 68,
              "position": 2.3125,
              "duration": 0.03125
            },
            {
              "pitch": 71,
              "velocity": 62,
              "position": 2.34375,
              "duration": 0.052083333333333336
            },
            {
              "pitch": 74,
              "velocity": 64,
              "position": 2.3229166666666665,
              "duration": 0.09375
            },
            {
              "pitch": 65,
              "velocity": 64,
              "position": 2.3229166666666665,
              "duration": 0.10416666666666667
            },
            {
              "pitch": 69,
              "velocity": 60,
              "position": 2.3854166666666665,
              "duration": 0.07291666666666667
            },
            {
              "pitch": 71,
              "velocity": 54,
              "position": 2.40625,
              "duration": 0.08333333333333333
            },
            {
              "pitch": 74,
              "velocity": 110,
              "position": 5.760416666666667,
              "duration": 0.16666666666666666
            },
            {
              "pitch": 71,
              "velocity": 104,
              "position": 5.760416666666667,
              "duration": 0.17708333333333334
            },
            {
              "pitch": 77,
              "velocity": 104,
              "position": 5.770833333333333,
              "duration": 0.16666666666666666
            },
            {
              "pitch": 67,
              "velocity": 110,
              "position": 5.760416666666667,
              "duration": 0.19791666666666666
            },
            {
              "pitch": 71,
              "velocity": 124,
              "position": 6.260416666666667,
              "duration": 0.17708333333333334
            },
            {
              "pitch": 75,
              "velocity": 124,
              "position": 6.260416666666667,
              "duration": 0.17708333333333334
            },
            {
              "pitch": 79,
              "velocity": 126,
              "position": 6.260416666666667,
              "duration": 0.19791666666666666
            },
            {
              "pitch": 67,
              "velocity": 104,
              "position": 6.760416666666667,
              "duration": 0.20833333333333334
            },
            {
              "pitch": 71,
              "velocity": 110,
              "position": 6.760416666666667,
              "duration": 0.21875
            },
            {
              "pitch": 75,
              "velocity": 98,
              "position": 6.760416666666667,
              "duration": 0.21875
            },
            {
              "pitch": 75,
              "velocity": 112,
              "position": 8.5,
              "duration": 0.22916666666666666
            },
            {
              "pitch": 71,
              "velocity": 110,
              "position": 8.5,
              "duration": 0.23958333333333334
            },
            {
              "pitch": 79,
              "velocity": 122,
              "position": 8.5,
              "duration": 0.23958333333333334
            },
            {
              "pitch": 75,
              "velocity": 62,
              "position": 8.760416666666666,
              "duration": 0.20833333333333334
            },
            {
              "pitch": 71,
              "velocity": 68,
              "position": 8.760416666666666,
              "duration": 0.21875
            },
            {
              "pitch": 79,
              "velocity": 68,
              "position": 8.760416666666666,
              "duration": 0.21875
            },
            {
              "pitch": 75,
              "velocity": 94,
              "position": 9.010416666666666,
              "duration": 0.19791666666666666
            },
            {
              "pitch": 79,
              "velocity": 110,
              "position": 9.010416666666666,
              "duration": 0.20833333333333334
            },
            {
              "pitch": 71,
              "velocity": 94,
              "position": 9.010416666666666,
              "duration": 0.21875
            },
            {
              "pitch": 75,
              "velocity": 80,
              "position": 11.25,
              "duration": 0.21875
            },
            {
              "pitch": 79,
              "velocity": 80,
              "position": 11.260416666666666,
              "duration": 0.20833333333333334
            },
            {
              "pitch": 71,
              "velocity": 76,
              "position": 11.260416666666666,
              "duration": 0.21875
            },
            {
              "pitch": 75,
              "velocity": 92,
              "position": 11.510416666666666,
              "duration": 0.19791666666666666
            },
            {
              "pitch": 79,
              "velocity": 94,
              "position": 11.5,
              "duration": 0.21875
            },
            {
              "pitch": 71,
              "velocity": 92,
              "position": 11.5,
              "duration": 0.22916666666666666
            },
            {
              "pitch": 83,
              "velocity": 92,
              "position": 11.5,
              "duration": 0.22916666666666666
            },
            {
              "pitch": 75,
              "velocity": 104,
              "position": 11.760416666666666,
              "duration": 0.20833333333333334
            },
            {
              "pitch": 71,
              "velocity": 110,
              "position": 11.760416666666666,
              "duration": 0.21875
            },
            {
              "pitch": 79,
              "velocity": 102,
              "position": 11.760416666666666,
              "duration": 0.21875
            },
            {
              "pitch": 83,
              "velocity": 98,
              "position": 11.760416666666666,
              "duration": 0.21875
            },
            {
              "pitch": 71,
              "velocity": 126,
              "position": 12,
              "duration": 0.20833333333333334
            },
            {
              "pitch": 75,
              "velocity": 126,
              "position": 12,
              "duration": 0.21875
            },
            {
              "pitch": 79,
              "velocity": 118,
              "position": 12,
              "duration": 0.22916666666666666
            },
            {
              "pitch": 83,
              "velocity": 114,
              "position": 12,
              "duration": 0.23958333333333334
            },
            {
              "pitch": 75,
              "velocity": 92,
              "position": 13.760416666666666,
              "duration": 0.21875
            },
            {
              "pitch": 63,
              "velocity": 94,
              "position": 13.760416666666666,
              "duration": 0.21875
            },
            {
              "pitch": 77,
              "velocity": 126,
              "position": 14,
              "duration": 0.22916666666666666
            },
            {
              "pitch": 65,
              "velocity": 126,
              "position": 14,
              "duration": 0.23958333333333334
            },
            {
              "pitch": 71,
              "velocity": 100,
              "position": 14.260416666666666,
              "duration": 0.14583333333333334
            },
            {
              "pitch": 83,
              "velocity": 104,
              "position": 14.260416666666666,
              "duration": 0.14583333333333334
            },
            {
              "pitch": 79,
              "velocity": 112,
              "position": 14.760416666666666,
              "duration": 1.15625
            },
            {
              "pitch": 67,
              "velocity": 110,
              "position": 14.760416666666666,
              "duration": 1.15625
            },
            {
              "pitch": 71,
              "velocity": 114,
              "position": 16.479166666666668,
              "duration": 0.20833333333333334
            },
            {
              "pitch": 79,
              "velocity": 122,
              "position": 16.479166666666668,
              "duration": 0.20833333333333334
            },
            {
              "pitch": 75,
              "velocity": 106,
              "position": 16.489583333333332,
              "duration": 0.19791666666666666
            },
            {
              "pitch": 83,
              "velocity": 126,
              "position": 17.739583333333332,
              "duration": 0.3125
            },
            {
              "pitch": 79,
              "velocity": 126,
              "position": 17.75,
              "duration": 0.3229166666666667
            },
            {
              "pitch": 71,
              "velocity": 126,
              "position": 17.75,
              "duration": 0.3333333333333333
            },
            {
              "pitch": 77,
              "velocity": 64,
              "position": 18.09375,
              "duration": 0.052083333333333336
            },
            {
              "pitch": 81,
              "velocity": 90,
              "position": 18.020833333333332,
              "duration": 0.13541666666666666
            },
            {
              "pitch": 75,
              "velocity": 126,
              "position": 17.75,
              "duration": 0.4166666666666667
            },
            {
              "pitch": 71,
              "velocity": 70,
              "position": 18.09375,
              "duration": 0.07291666666666667
            },
            {
              "pitch": 79,
              "velocity": 72,
              "position": 18.083333333333332,
              "duration": 0.09375
            },
            {
              "pitch": 77,
              "velocity": 82,
              "position": 18.15625,
              "duration": 0.0625
            },
            {
              "pitch": 75,
              "velocity": 80,
              "position": 18.177083333333332,
              "duration": 0.052083333333333336
            },
            {
              "pitch": 69,
              "velocity": 76,
              "position": 18.177083333333332,
              "duration": 0.0625
            },
            {
              "pitch": 74,
              "velocity": 72,
              "position": 18.15625,
              "duration": 0.09375
            },
            {
              "pitch": 75,
              "velocity": 78,
              "position": 18.229166666666668,
              "duration": 0.0625
            },
            {
              "pitch": 71,
              "velocity": 72,
              "position": 18.239583333333332,
              "duration": 0.052083333333333336
            },
            {
              "pitch": 74,
              "velocity": 80,
              "position": 18.260416666666668,
              "duration": 0.052083333333333336
            },
            {
              "pitch": 67,
              "velocity": 76,
              "position": 18.25,
              "duration": 0.09375
            },
            {
              "pitch": 71,
              "velocity": 68,
              "position": 18.3125,
              "duration": 0.03125
            },
            {
              "pitch": 71,
              "velocity": 62,
              "position": 18.34375,
              "duration": 0.052083333333333336
            },
            {
              "pitch": 74,
              "velocity": 64,
              "position": 18.322916666666668,
              "duration": 0.09375
            },
            {
              "pitch": 65,
              "velocity": 64,
              "position": 18.322916666666668,
              "duration": 0.10416666666666667
            },
            {
              "pitch": 69,
              "velocity": 60,
              "position": 18.385416666666668,
              "duration": 0.07291666666666667
            },
            {
              "pitch": 71,
              "velocity": 54,
              "position": 18.40625,
              "duration": 0.08333333333333333
            },
            {
              "pitch": 74,
              "velocity": 110,
              "position": 21.760416666666668,
              "duration": 0.16666666666666666
            },
            {
              "pitch": 71,
              "velocity": 104,
              "position": 21.760416666666668,
              "duration": 0.17708333333333334
            },
            {
              "pitch": 77,
              "velocity": 104,
              "position": 21.770833333333332,
              "duration": 0.16666666666666666
            },
            {
              "pitch": 67,
              "velocity": 110,
              "position": 21.760416666666668,
              "duration": 0.19791666666666666
            },
            {
              "pitch": 71,
              "velocity": 124,
              "position": 22.260416666666668,
              "duration": 0.17708333333333334
            },
            {
              "pitch": 75,
              "velocity": 124,
              "position": 22.260416666666668,
              "duration": 0.17708333333333334
            },
            {
              "pitch": 79,
              "velocity": 126,
              "position": 22.260416666666668,
              "duration": 0.19791666666666666
            },
            {
              "pitch": 67,
              "velocity": 104,
              "position": 22.760416666666668,
              "duration": 0.20833333333333334
            },
            {
              "pitch": 71,
              "velocity": 110,
              "position": 22.760416666666668,
              "duration": 0.21875
            },
            {
              "pitch": 75,
              "velocity": 98,
              "position": 22.760416666666668,
              "duration": 0.21875
            },
            {
              "pitch": 67,
              "velocity": 112,
              "position": 23.260416666666668,
              "duration": 0.19791666666666666
            },
            {
              "pitch": 79,
              "velocity": 108,
              "position": 23.260416666666668,
              "duration": 0.19791666666666666
            },
            {
              "pitch": 83,
              "velocity": 98,
              "position": 23.5,
              "duration": 0.21875
            },
            {
              "pitch": 71,
              "velocity": 100,
              "position": 23.489583333333332,
              "duration": 0.23958333333333334
            },
            {
              "pitch": 83,
              "velocity": 114,
              "position": 23.75,
              "duration": 0.22916666666666666
            },
            {
              "pitch": 71,
              "velocity": 116,
              "position": 23.75,
              "duration": 0.22916666666666666
            },
            {
              "pitch": 83,
              "velocity": 120,
              "position": 24,
              "duration": 0.20833333333333334
            },
            {
              "pitch": 71,
              "velocity": 120,
              "position": 24,
              "duration": 0.21875
            },
            {
              "pitch": 79,
              "velocity": 110,
              "position": 24.5,
              "duration": 0.1875
            },
            {
              "pitch": 67,
              "velocity": 110,
              "position": 24.5,
              "duration": 0.1875
            },
            {
              "pitch": 81,
              "velocity": 126,
              "position": 25.75,
              "duration": 0.20833333333333334
            },
            {
              "pitch": 69,
              "velocity": 126,
              "position": 25.75,
              "duration": 0.21875
            },
            {
              "pitch": 77,
              "velocity": 102,
              "position": 26.260416666666668,
              "duration": 0.22916666666666666
            },
            {
              "pitch": 65,
              "velocity": 102,
              "position": 26.260416666666668,
              "duration": 0.22916666666666666
            },
            {
              "pitch": 74,
              "velocity": 84,
              "position": 26.489583333333332,
              "duration": 0.2604166666666667
            },
            {
              "pitch": 62,
              "velocity": 88,
              "position": 26.5,
              "duration": 0.25
            },
            {
              "pitch": 79,
              "velocity": 110,
              "position": 26.760416666666668,
              "duration": 1.46875
            },
            {
              "pitch": 67,
              "velocity": 126,
              "position": 26.770833333333332,
              "duration": 1.46875
            },
            {
              "pitch": 71,
              "velocity": 96,
              "position": 29.760416666666668,
              "duration": 0.19791666666666666
            },
            {
              "pitch": 67,
              "velocity": 102,
              "position": 29.760416666666668,
              "duration": 0.19791666666666666
            },
            {
              "pitch": 75,
              "velocity": 102,
              "position": 29.760416666666668,
              "duration": 0.19791666666666666
            },
            {
              "pitch": 74,
              "velocity": 114,
              "position": 30,
              "duration": 0.20833333333333334
            },
            {
              "pitch": 67,
              "velocity": 112,
              "position": 30,
              "duration": 0.20833333333333334
            },
            {
              "pitch": 71,
              "velocity": 118,
              "position": 30,
              "duration": 0.20833333333333334
            },
            {
              "pitch": 77,
              "velocity": 112,
              "position": 30,
              "duration": 0.20833333333333334
            },
            {
              "pitch": 83,
              "velocity": 126,
              "position": 30.260416666666668,
              "duration": 0.22916666666666666
            },
            {
              "pitch": 79,
              "velocity": 126,
              "position": 30.260416666666668,
              "duration": 0.22916666666666666
            },
            {
              "pitch": 71,
              "velocity": 126,
              "position": 30.260416666666668,
              "duration": 0.23958333333333334
            },
            {
              "pitch": 75,
              "velocity": 126,
              "position": 30.260416666666668,
              "duration": 0.23958333333333334
            },
            {
              "pitch": 79,
              "velocity": 110,
              "position": 30.760416666666668,
              "duration": 0.9479166666666666
            },
            {
              "pitch": 71,
              "velocity": 112,
              "position": 30.760416666666668,
              "duration": 0.9583333333333334
            },
            {
              "pitch": 75,
              "velocity": 118,
              "position": 30.760416666666668,
              "duration": 0.96875
            }
          ]
        },
        "3": {
          "ctab": {
            "srcChannel": 3,
            "name": "BrasSect",
            "accType": "PHRASE1",
            "editable": false,
            "mutedNotes": [],
            "mutedChords": [
              "1+2+5",
              "sus4",
              "1+5",
              "1+8",
              "dim7",
              "dim",
              "minMaj7(9)",
              "minMaj7",
              "min7(11)",
              "min7(9)",
              "min(9)",
              "m7b5",
              "min7",
              "min6",
              "min",
              "aug",
              "Maj6(9)",
              "Maj7(9)",
              "Maj(9)",
              "Maj7#11",
              "Maj7",
              "Maj6",
              "Maj"
            ],
            "autoStart": false,
            "sourceChordNote": 0,
            "sourceChordType": "7th",
            "ctb2Low": null,
            "ctb2Main": {
              "ntr": "ROOT_TRANSPOSITION",
              "ntt": "CHORD",
              "bassOn": false,
              "chordRootUpperLimit": 6,
              "noteLowLimit": 0,
              "noteHighLimit": 127,
              "rtr": "PITCH_SHIFT"
            },
            "ctb2High": null
          },
          "notes": [
            {
              "pitch": 70,
              "velocity": 122,
              "position": 0.4791666666666667,
              "duration": 0.20833333333333334
            },
            {
              "pitch": 74,
              "velocity": 122,
              "position": 0.4791666666666667,
              "duration": 0.20833333333333334
            },
            {
              "pitch": 64,
              "velocity": 114,
              "position": 0.4791666666666667,
              "duration": 0.22916666666666666
            },
            {
              "pitch": 82,
              "velocity": 126,
              "position": 1.7395833333333333,
              "duration": 0.3125
            },
            {
              "pitch": 76,
              "velocity": 126,
              "position": 1.75,
              "duration": 0.3229166666666667
            },
            {
              "pitch": 70,
              "velocity": 126,
              "position": 1.75,
              "duration": 0.3645833333333333
            },
            {
              "pitch": 73,
              "velocity": 64,
              "position": 2.09375,
              "duration": 0.052083333333333336
            },
            {
              "pitch": 77,
              "velocity": 90,
              "position": 2.0208333333333335,
              "duration": 0.13541666666666666
            },
            {
              "pitch": 69,
              "velocity": 70,
              "position": 2.09375,
              "duration": 0.07291666666666667
            },
            {
              "pitch": 74,
              "velocity": 126,
              "position": 1.75,
              "duration": 0.4270833333333333
            },
            {
              "pitch": 76,
              "velocity": 72,
              "position": 2.0833333333333335,
              "duration": 0.09375
            },
            {
              "pitch": 70,
              "velocity": 72,
              "position": 2.15625,
              "duration": 0.020833333333333332
            },
            {
              "pitch": 73,
              "velocity": 82,
              "position": 2.15625,
              "duration": 0.0625
            },
            {
              "pitch": 72,
              "velocity": 80,
              "position": 2.1770833333333335,
              "duration": 0.052083333333333336
            },
            {
              "pitch": 70,
              "velocity": 76,
              "position": 2.1770833333333335,
              "duration": 0.0625
            },
            {
              "pitch": 76,
              "velocity": 78,
              "position": 2.2291666666666665,
              "duration": 0.0625
            },
            {
              "pitch": 67,
              "velocity": 72,
              "position": 2.2395833333333335,
              "duration": 0.052083333333333336
            },
            {
              "pitch": 74,
              "velocity": 80,
              "position": 2.2604166666666665,
              "duration": 0.052083333333333336
            },
            {
              "pitch": 65,
              "velocity": 76,
              "position": 2.2395833333333335,
              "duration": 0.09375
            },
            {
              "pitch": 70,
              "velocity": 68,
              "position": 2.3125,
              "duration": 0.0625
            },
            {
              "pitch": 72,
              "velocity": 62,
              "position": 2.34375,
              "duration": 0.0625
            },
            {
              "pitch": 64,
              "velocity": 64,
              "position": 2.3125,
              "duration": 0.10416666666666667
            },
            {
              "pitch": 74,
              "velocity": 64,
              "position": 2.3229166666666665,
              "duration": 0.09375
            },
            {
              "pitch": 65,
              "velocity": 60,
              "position": 2.3854166666666665,
              "duration": 0.07291666666666667
            },
            {
              "pitch": 67,
              "velocity": 54,
              "position": 2.40625,
              "duration": 0.08333333333333333
            },
            {
              "pitch": 69,
              "velocity": 110,
              "position": 5.760416666666667,
              "duration": 0.16666666666666666
            },
            {
              "pitch": 65,
              "velocity": 104,
              "position": 5.760416666666667,
              "duration": 0.17708333333333334
            },
            {
              "pitch": 72,
              "velocity": 104,
              "position": 5.770833333333333,
              "duration": 0.16666666666666666
            },
            {
              "pitch": 62,
              "velocity": 110,
              "position": 5.760416666666667,
              "duration": 0.19791666666666666
            },
            {
              "pitch": 70,
              "velocity": 122,
              "position": 6.260416666666667,
              "duration": 0.17708333333333334
            },
            {
              "pitch": 74,
              "velocity": 126,
              "position": 6.260416666666667,
              "duration": 0.19791666666666666
            },
            {
              "pitch": 64,
              "velocity": 124,
              "position": 6.260416666666667,
              "duration": 0.19791666666666666
            },
            {
              "pitch": 62,
              "velocity": 104,
              "position": 6.760416666666667,
              "duration": 0.20833333333333334
            },
            {
              "pitch": 70,
              "velocity": 110,
              "position": 6.760416666666667,
              "duration": 0.21875
            },
            {
              "pitch": 64,
              "velocity": 102,
              "position": 6.760416666666667,
              "duration": 0.21875
            },
            {
              "pitch": 70,
              "velocity": 110,
              "position": 8.5,
              "duration": 0.22916666666666666
            },
            {
              "pitch": 74,
              "velocity": 122,
              "position": 8.5,
              "duration": 0.23958333333333334
            },
            {
              "pitch": 64,
              "velocity": 104,
              "position": 8.5,
              "duration": 0.23958333333333334
            },
            {
              "pitch": 64,
              "velocity": 68,
              "position": 8.760416666666666,
              "duration": 0.20833333333333334
            },
            {
              "pitch": 70,
              "velocity": 68,
              "position": 8.760416666666666,
              "duration": 0.20833333333333334
            },
            {
              "pitch": 74,
              "velocity": 68,
              "position": 8.760416666666666,
              "duration": 0.21875
            },
            {
              "pitch": 70,
              "velocity": 94,
              "position": 9.010416666666666,
              "duration": 0.19791666666666666
            },
            {
              "pitch": 74,
              "velocity": 110,
              "position": 9.010416666666666,
              "duration": 0.20833333333333334
            },
            {
              "pitch": 64,
              "velocity": 100,
              "position": 9.010416666666666,
              "duration": 0.21875
            },
            {
              "pitch": 72,
              "velocity": 80,
              "position": 11.260416666666666,
              "duration": 0.20833333333333334
            },
            {
              "pitch": 70,
              "velocity": 80,
              "position": 11.25,
              "duration": 0.22916666666666666
            },
            {
              "pitch": 64,
              "velocity": 76,
              "position": 11.260416666666666,
              "duration": 0.21875
            },
            {
              "pitch": 70,
              "velocity": 92,
              "position": 11.5,
              "duration": 0.20833333333333334
            },
            {
              "pitch": 72,
              "velocity": 94,
              "position": 11.5,
              "duration": 0.21875
            },
            {
              "pitch": 76,
              "velocity": 92,
              "position": 11.5,
              "duration": 0.22916666666666666
            },
            {
              "pitch": 70,
              "velocity": 110,
              "position": 11.760416666666666,
              "duration": 0.20833333333333334
            },
            {
              "pitch": 72,
              "velocity": 102,
              "position": 11.760416666666666,
              "duration": 0.21875
            },
            {
              "pitch": 76,
              "velocity": 98,
              "position": 11.760416666666666,
              "duration": 0.21875
            },
            {
              "pitch": 70,
              "velocity": 126,
              "position": 12,
              "duration": 0.20833333333333334
            },
            {
              "pitch": 72,
              "velocity": 118,
              "position": 12,
              "duration": 0.22916666666666666
            },
            {
              "pitch": 76,
              "velocity": 114,
              "position": 12,
              "duration": 0.23958333333333334
            },
            {
              "pitch": 57,
              "velocity": 94,
              "position": 13.760416666666666,
              "duration": 0.21875
            },
            {
              "pitch": 69,
              "velocity": 92,
              "position": 13.760416666666666,
              "duration": 0.21875
            },
            {
              "pitch": 70,
              "velocity": 126,
              "position": 14,
              "duration": 0.22916666666666666
            },
            {
              "pitch": 58,
              "velocity": 126,
              "position": 14,
              "duration": 0.23958333333333334
            },
            {
              "pitch": 62,
              "velocity": 100,
              "position": 14.260416666666666,
              "duration": 0.14583333333333334
            },
            {
              "pitch": 74,
              "velocity": 104,
              "position": 14.260416666666666,
              "duration": 0.14583333333333334
            },
            {
              "pitch": 60,
              "velocity": 110,
              "position": 14.760416666666666,
              "duration": 1.15625
            },
            {
              "pitch": 72,
              "velocity": 112,
              "position": 14.760416666666666,
              "duration": 1.15625
            },
            {
              "pitch": 70,
              "velocity": 122,
              "position": 16.479166666666668,
              "duration": 0.20833333333333334
            },
            {
              "pitch": 74,
              "velocity": 122,
              "position": 16.479166666666668,
              "duration": 0.20833333333333334
            },
            {
              "pitch": 64,
              "velocity": 114,
              "position": 16.479166666666668,
              "duration": 0.22916666666666666
            },
            {
              "pitch": 82,
              "velocity": 126,
              "position": 17.739583333333332,
              "duration": 0.3125
            },
            {
              "pitch": 76,
              "velocity": 126,
              "position": 17.75,
              "duration": 0.3229166666666667
            },
            {
              "pitch": 70,
              "velocity": 126,
              "position": 17.75,
              "duration": 0.3645833333333333
            },
            {
              "pitch": 73,
              "velocity": 64,
              "position": 18.09375,
              "duration": 0.052083333333333336
            },
            {
              "pitch": 77,
              "velocity": 90,
              "position": 18.020833333333332,
              "duration": 0.13541666666666666
            },
            {
              "pitch": 69,
              "velocity": 70,
              "position": 18.09375,
              "duration": 0.07291666666666667
            },
            {
              "pitch": 74,
              "velocity": 126,
              "position": 17.75,
              "duration": 0.4270833333333333
            },
            {
              "pitch": 76,
              "velocity": 72,
              "position": 18.083333333333332,
              "duration": 0.09375
            },
            {
              "pitch": 70,
              "velocity": 72,
              "position": 18.15625,
              "duration": 0.020833333333333332
            },
            {
              "pitch": 73,
              "velocity": 82,
              "position": 18.15625,
              "duration": 0.0625
            },
            {
              "pitch": 72,
              "velocity": 80,
              "position": 18.177083333333332,
              "duration": 0.052083333333333336
            },
            {
              "pitch": 70,
              "velocity": 76,
              "position": 18.177083333333332,
              "duration": 0.0625
            },
            {
              "pitch": 76,
              "velocity": 78,
              "position": 18.229166666666668,
              "duration": 0.0625
            },
            {
              "pitch": 67,
              "velocity": 72,
              "position": 18.239583333333332,
              "duration": 0.052083333333333336
            },
            {
              "pitch": 74,
              "velocity": 80,
              "position": 18.260416666666668,
              "duration": 0.052083333333333336
            },
            {
              "pitch": 65,
              "velocity": 76,
              "position": 18.239583333333332,
              "duration": 0.09375
            },
            {
              "pitch": 70,
              "velocity": 68,
              "position": 18.3125,
              "duration": 0.0625
            },
            {
              "pitch": 72,
              "velocity": 62,
              "position": 18.34375,
              "duration": 0.0625
            },
            {
              "pitch": 64,
              "velocity": 64,
              "position": 18.3125,
              "duration": 0.10416666666666667
            },
            {
              "pitch": 74,
              "velocity": 64,
              "position": 18.322916666666668,
              "duration": 0.09375
            },
            {
              "pitch": 65,
              "velocity": 60,
              "position": 18.385416666666668,
              "duration": 0.07291666666666667
            },
            {
              "pitch": 67,
              "velocity": 54,
              "position": 18.40625,
              "duration": 0.08333333333333333
            },
            {
              "pitch": 70,
              "velocity": 104,
              "position": 21.760416666666668,
              "duration": 0.16666666666666666
            },
            {
              "pitch": 72,
              "velocity": 104,
              "position": 21.770833333333332,
              "duration": 0.16666666666666666
            },
            {
              "pitch": 64,
              "velocity": 110,
              "position": 21.760416666666668,
              "duration": 0.19791666666666666
            },
            {
              "pitch": 70,
              "velocity": 122,
              "position": 22.260416666666668,
              "duration": 0.17708333333333334
            },
            {
              "pitch": 74,
              "velocity": 126,
              "position": 22.260416666666668,
              "duration": 0.19791666666666666
            },
            {
              "pitch": 64,
              "velocity": 124,
              "position": 22.260416666666668,
              "duration": 0.19791666666666666
            },
            {
              "pitch": 62,
              "velocity": 104,
              "position": 22.760416666666668,
              "duration": 0.20833333333333334
            },
            {
              "pitch": 70,
              "velocity": 110,
              "position": 22.760416666666668,
              "duration": 0.21875
            },
            {
              "pitch": 64,
              "velocity": 102,
              "position": 22.760416666666668,
              "duration": 0.21875
            },
            {
              "pitch": 60,
              "velocity": 112,
              "position": 23.260416666666668,
              "duration": 0.19791666666666666
            },
            {
              "pitch": 72,
              "velocity": 108,
              "position": 23.260416666666668,
              "duration": 0.19791666666666666
            },
            {
              "pitch": 76,
              "velocity": 98,
              "position": 23.5,
              "duration": 0.21875
            },
            {
              "pitch": 64,
              "velocity": 100,
              "position": 23.489583333333332,
              "duration": 0.23958333333333334
            },
            {
              "pitch": 76,
              "velocity": 114,
              "position": 23.75,
              "duration": 0.22916666666666666
            },
            {
              "pitch": 64,
              "velocity": 116,
              "position": 23.75,
              "duration": 0.22916666666666666
            },
            {
              "pitch": 76,
              "velocity": 120,
              "position": 24,
              "duration": 0.20833333333333334
            },
            {
              "pitch": 64,
              "velocity": 120,
              "position": 24,
              "duration": 0.21875
            },
            {
              "pitch": 72,
              "velocity": 110,
              "position": 24.5,
              "duration": 0.1875
            },
            {
              "pitch": 60,
              "velocity": 110,
              "position": 24.5,
              "duration": 0.1875
            },
            {
              "pitch": 74,
              "velocity": 126,
              "position": 25.75,
              "duration": 0.20833333333333334
            },
            {
              "pitch": 62,
              "velocity": 126,
              "position": 25.75,
              "duration": 0.21875
            },
            {
              "pitch": 70,
              "velocity": 102,
              "position": 26.260416666666668,
              "duration": 0.21875
            },
            {
              "pitch": 58,
              "velocity": 102,
              "position": 26.260416666666668,
              "duration": 0.22916666666666666
            },
            {
              "pitch": 70,
              "velocity": 84,
              "position": 26.489583333333332,
              "duration": 0.2604166666666667
            },
            {
              "pitch": 58,
              "velocity": 88,
              "position": 26.5,
              "duration": 0.25
            },
            {
              "pitch": 72,
              "velocity": 110,
              "position": 26.760416666666668,
              "duration": 1.46875
            },
            {
              "pitch": 60,
              "velocity": 126,
              "position": 26.770833333333332,
              "duration": 1.46875
            },
            {
              "pitch": 65,
              "velocity": 96,
              "position": 29.760416666666668,
              "duration": 0.1875
            },
            {
              "pitch": 60,
              "velocity": 102,
              "position": 29.760416666666668,
              "duration": 0.19791666666666666
            },
            {
              "pitch": 64,
              "velocity": 100,
              "position": 29.760416666666668,
              "duration": 0.19791666666666666
            },
            {
              "pitch": 69,
              "velocity": 102,
              "position": 29.760416666666668,
              "duration": 0.19791666666666666
            },
            {
              "pitch": 70,
              "velocity": 118,
              "position": 30,
              "duration": 0.20833333333333334
            },
            {
              "pitch": 64,
              "velocity": 114,
              "position": 30,
              "duration": 0.20833333333333334
            },
            {
              "pitch": 62,
              "velocity": 112,
              "position": 30,
              "duration": 0.20833333333333334
            },
            {
              "pitch": 70,
              "velocity": 126,
              "position": 30.260416666666668,
              "duration": 0.22916666666666666
            },
            {
              "pitch": 74,
              "velocity": 126,
              "position": 30.260416666666668,
              "duration": 0.22916666666666666
            },
            {
              "pitch": 64,
              "velocity": 126,
              "position": 30.260416666666668,
              "duration": 0.23958333333333334
            },
            {
              "pitch": 64,
              "velocity": 112,
              "position": 30.760416666666668,
              "duration": 0.9479166666666666
            },
            {
              "pitch": 72,
              "velocity": 110,
              "position": 30.760416666666668,
              "duration": 0.9479166666666666
            },
            {
              "pitch": 70,
              "velocity": 116,
              "position": 30.760416666666668,
              "duration": 0.96875
            }
          ]
        },
        "4": {
          "ctab": {
            "srcChannel": 4,
            "name": "BrasSect",
            "accType": "PHRASE2",
            "editable": false,
            "mutedNotes": [],
            "mutedChords": [
              "7aug",
              "Maj7aug",
              "7(#9)",
              "7(b13)",
              "7(b9)",
              "7(13)",
              "7#11",
              "7(9)",
              "7b5",
              "7sus4",
              "7th",
              "dim7",
              "dim",
              "minMaj7(9)",
              "minMaj7",
              "min7(11)",
              "min7(9)",
              "min(9)",
              "m7b5",
              "min7",
              "min6",
              "min"
            ],
            "autoStart": false,
            "sourceChordNote": 0,
            "sourceChordType": "Maj7",
            "ctb2Low": null,
            "ctb2Main": {
              "ntr": "ROOT_TRANSPOSITION",
              "ntt": "CHORD",
              "bassOn": false,
              "chordRootUpperLimit": 6,
              "noteLowLimit": 0,
              "noteHighLimit": 127,
              "rtr": "PITCH_SHIFT"
            },
            "ctb2High": null
          },
          "notes": [
            {
              "pitch": 67,
              "velocity": 116,
              "position": 0,
              "duration": 0.17708333333333334
            },
            {
              "pitch": 59,
              "velocity": 116,
              "position": 0,
              "duration": 0.17708333333333334
            },
            {
              "pitch": 64,
              "velocity": 106,
              "position": 0,
              "duration": 0.17708333333333334
            },
            {
              "pitch": 67,
              "velocity": 104,
              "position": 1.25,
              "duration": 0.28125
            },
            {
              "pitch": 64,
              "velocity": 124,
              "position": 1.25,
              "duration": 0.2916666666666667
            },
            {
              "pitch": 59,
              "velocity": 110,
              "position": 1.2395833333333333,
              "duration": 0.3229166666666667
            },
            {
              "pitch": 64,
              "velocity": 80,
              "position": 2.25,
              "duration": 0.1875
            },
            {
              "pitch": 59,
              "velocity": 88,
              "position": 2.25,
              "duration": 0.19791666666666666
            },
            {
              "pitch": 67,
              "velocity": 76,
              "position": 2.25,
              "duration": 0.20833333333333334
            },
            {
              "pitch": 57,
              "velocity": 82,
              "position": 2.4895833333333335,
              "duration": 0.20833333333333334
            },
            {
              "pitch": 65,
              "velocity": 104,
              "position": 2.4895833333333335,
              "duration": 0.21875
            },
            {
              "pitch": 59,
              "velocity": 88,
              "position": 2.4895833333333335,
              "duration": 0.22916666666666666
            },
            {
              "pitch": 59,
              "velocity": 126,
              "position": 2.7604166666666665,
              "duration": 0.125
            },
            {
              "pitch": 67,
              "velocity": 120,
              "position": 2.7604166666666665,
              "duration": 0.13541666666666666
            },
            {
              "pitch": 64,
              "velocity": 120,
              "position": 2.7604166666666665,
              "duration": 0.13541666666666666
            },
            {
              "pitch": 64,
              "velocity": 94,
              "position": 3.2604166666666665,
              "duration": 0.11458333333333333
            },
            {
              "pitch": 59,
              "velocity": 104,
              "position": 3.2604166666666665,
              "duration": 0.125
            },
            {
              "pitch": 67,
              "velocity": 80,
              "position": 3.2604166666666665,
              "duration": 0.125
            },
            {
              "pitch": 67,
              "velocity": 114,
              "position": 4.25,
              "duration": 0.17708333333333334
            },
            {
              "pitch": 59,
              "velocity": 122,
              "position": 4.25,
              "duration": 0.1875
            },
            {
              "pitch": 64,
              "velocity": 116,
              "position": 4.260416666666667,
              "duration": 0.17708333333333334
            },
            {
              "pitch": 59,
              "velocity": 88,
              "position": 4.489583333333333,
              "duration": 0.17708333333333334
            },
            {
              "pitch": 64,
              "velocity": 76,
              "position": 4.5,
              "duration": 0.16666666666666666
            },
            {
              "pitch": 67,
              "velocity": 76,
              "position": 4.489583333333333,
              "duration": 0.1875
            },
            {
              "pitch": 59,
              "velocity": 112,
              "position": 4.989583333333333,
              "duration": 0.20833333333333334
            },
            {
              "pitch": 67,
              "velocity": 112,
              "position": 4.989583333333333,
              "duration": 0.21875
            },
            {
              "pitch": 64,
              "velocity": 122,
              "position": 4.989583333333333,
              "duration": 0.21875
            },
            {
              "pitch": 64,
              "velocity": 94,
              "position": 5.25,
              "duration": 0.11458333333333333
            },
            {
              "pitch": 59,
              "velocity": 88,
              "position": 5.25,
              "duration": 0.125
            },
            {
              "pitch": 67,
              "velocity": 84,
              "position": 5.25,
              "duration": 0.14583333333333334
            },
            {
              "pitch": 62,
              "velocity": 104,
              "position": 5.75,
              "duration": 0.15625
            },
            {
              "pitch": 57,
              "velocity": 102,
              "position": 5.75,
              "duration": 0.16666666666666666
            },
            {
              "pitch": 65,
              "velocity": 124,
              "position": 5.75,
              "duration": 0.16666666666666666
            },
            {
              "pitch": 64,
              "velocity": 104,
              "position": 6.25,
              "duration": 0.14583333333333334
            },
            {
              "pitch": 59,
              "velocity": 104,
              "position": 6.25,
              "duration": 0.15625
            },
            {
              "pitch": 67,
              "velocity": 104,
              "position": 6.25,
              "duration": 0.17708333333333334
            },
            {
              "pitch": 59,
              "velocity": 108,
              "position": 6.75,
              "duration": 0.25
            },
            {
              "pitch": 67,
              "velocity": 110,
              "position": 6.75,
              "duration": 0.25
            },
            {
              "pitch": 64,
              "velocity": 108,
              "position": 6.75,
              "duration": 0.25
            },
            {
              "pitch": 64,
              "velocity": 96,
              "position": 7.739583333333333,
              "duration": 0.21875
            },
            {
              "pitch": 67,
              "velocity": 84,
              "position": 7.75,
              "duration": 0.21875
            },
            {
              "pitch": 59,
              "velocity": 76,
              "position": 7.75,
              "duration": 0.21875
            },
            {
              "pitch": 59,
              "velocity": 116,
              "position": 8,
              "duration": 0.22916666666666666
            },
            {
              "pitch": 67,
              "velocity": 96,
              "position": 8,
              "duration": 0.23958333333333334
            },
            {
              "pitch": 64,
              "velocity": 92,
              "position": 8,
              "duration": 0.23958333333333334
            },
            {
              "pitch": 67,
              "velocity": 88,
              "position": 9.25,
              "duration": 0.14583333333333334
            },
            {
              "pitch": 59,
              "velocity": 88,
              "position": 9.25,
              "duration": 0.16666666666666666
            },
            {
              "pitch": 64,
              "velocity": 96,
              "position": 9.25,
              "duration": 0.16666666666666666
            },
            {
              "pitch": 64,
              "velocity": 94,
              "position": 9.760416666666666,
              "duration": 0.16666666666666666
            },
            {
              "pitch": 67,
              "velocity": 112,
              "position": 9.760416666666666,
              "duration": 0.17708333333333334
            },
            {
              "pitch": 59,
              "velocity": 104,
              "position": 9.75,
              "duration": 0.20833333333333334
            },
            {
              "pitch": 67,
              "velocity": 76,
              "position": 10.25,
              "duration": 0.1875
            },
            {
              "pitch": 64,
              "velocity": 80,
              "position": 10.25,
              "duration": 0.1875
            },
            {
              "pitch": 59,
              "velocity": 88,
              "position": 10.25,
              "duration": 0.19791666666666666
            },
            {
              "pitch": 57,
              "velocity": 86,
              "position": 10.5,
              "duration": 0.20833333333333334
            },
            {
              "pitch": 65,
              "velocity": 94,
              "position": 10.5,
              "duration": 0.20833333333333334
            },
            {
              "pitch": 59,
              "velocity": 88,
              "position": 10.5,
              "duration": 0.21875
            },
            {
              "pitch": 67,
              "velocity": 104,
              "position": 10.760416666666666,
              "duration": 0.11458333333333333
            },
            {
              "pitch": 59,
              "velocity": 110,
              "position": 10.760416666666666,
              "duration": 0.125
            },
            {
              "pitch": 64,
              "velocity": 104,
              "position": 10.760416666666666,
              "duration": 0.125
            },
            {
              "pitch": 64,
              "velocity": 94,
              "position": 11.260416666666666,
              "duration": 0.11458333333333333
            },
            {
              "pitch": 59,
              "velocity": 104,
              "position": 11.260416666666666,
              "duration": 0.125
            },
            {
              "pitch": 67,
              "velocity": 80,
              "position": 11.260416666666666,
              "duration": 0.125
            },
            {
              "pitch": 71,
              "velocity": 104,
              "position": 12.260416666666666,
              "duration": 0.16666666666666666
            },
            {
              "pitch": 67,
              "velocity": 80,
              "position": 12.260416666666666,
              "duration": 0.16666666666666666
            },
            {
              "pitch": 64,
              "velocity": 104,
              "position": 12.260416666666666,
              "duration": 0.17708333333333334
            },
            {
              "pitch": 71,
              "velocity": 104,
              "position": 12.760416666666666,
              "duration": 0.14583333333333334
            },
            {
              "pitch": 64,
              "velocity": 94,
              "position": 12.760416666666666,
              "duration": 0.14583333333333334
            },
            {
              "pitch": 67,
              "velocity": 94,
              "position": 12.760416666666666,
              "duration": 0.14583333333333334
            },
            {
              "pitch": 64,
              "velocity": 124,
              "position": 13.25,
              "duration": 0.13541666666666666
            },
            {
              "pitch": 67,
              "velocity": 104,
              "position": 13.25,
              "duration": 0.14583333333333334
            },
            {
              "pitch": 59,
              "velocity": 110,
              "position": 13.239583333333334,
              "duration": 0.17708333333333334
            },
            {
              "pitch": 59,
              "velocity": 88,
              "position": 13.75,
              "duration": 0.16666666666666666
            },
            {
              "pitch": 65,
              "velocity": 88,
              "position": 13.75,
              "duration": 0.16666666666666666
            },
            {
              "pitch": 57,
              "velocity": 88,
              "position": 13.75,
              "duration": 0.17708333333333334
            },
            {
              "pitch": 65,
              "velocity": 94,
              "position": 14.25,
              "duration": 0.15625
            },
            {
              "pitch": 69,
              "velocity": 122,
              "position": 14.239583333333334,
              "duration": 0.17708333333333334
            },
            {
              "pitch": 59,
              "velocity": 92,
              "position": 14.239583333333334,
              "duration": 0.17708333333333334
            },
            {
              "pitch": 64,
              "velocity": 124,
              "position": 14.75,
              "duration": 1.1145833333333333
            },
            {
              "pitch": 67,
              "velocity": 124,
              "position": 14.75,
              "duration": 1.125
            },
            {
              "pitch": 59,
              "velocity": 104,
              "position": 14.75,
              "duration": 1.1354166666666667
            },
            {
              "pitch": 67,
              "velocity": 116,
              "position": 16,
              "duration": 0.17708333333333334
            },
            {
              "pitch": 59,
              "velocity": 116,
              "position": 16,
              "duration": 0.17708333333333334
            },
            {
              "pitch": 64,
              "velocity": 106,
              "position": 16,
              "duration": 0.17708333333333334
            },
            {
              "pitch": 67,
              "velocity": 104,
              "position": 17.25,
              "duration": 0.28125
            },
            {
              "pitch": 64,
              "velocity": 124,
              "position": 17.25,
              "duration": 0.2916666666666667
            },
            {
              "pitch": 59,
              "velocity": 110,
              "position": 17.239583333333332,
              "duration": 0.3229166666666667
            },
            {
              "pitch": 64,
              "velocity": 80,
              "position": 18.25,
              "duration": 0.1875
            },
            {
              "pitch": 59,
              "velocity": 88,
              "position": 18.25,
              "duration": 0.19791666666666666
            },
            {
              "pitch": 67,
              "velocity": 76,
              "position": 18.25,
              "duration": 0.20833333333333334
            },
            {
              "pitch": 57,
              "velocity": 82,
              "position": 18.489583333333332,
              "duration": 0.20833333333333334
            },
            {
              "pitch": 65,
              "velocity": 104,
              "position": 18.489583333333332,
              "duration": 0.21875
            },
            {
              "pitch": 59,
              "velocity": 88,
              "position": 18.489583333333332,
              "duration": 0.22916666666666666
            },
            {
              "pitch": 59,
              "velocity": 126,
              "position": 18.760416666666668,
              "duration": 0.125
            },
            {
              "pitch": 67,
              "velocity": 120,
              "position": 18.760416666666668,
              "duration": 0.13541666666666666
            },
            {
              "pitch": 64,
              "velocity": 120,
              "position": 18.760416666666668,
              "duration": 0.13541666666666666
            },
            {
              "pitch": 64,
              "velocity": 94,
              "position": 19.260416666666668,
              "duration": 0.11458333333333333
            },
            {
              "pitch": 59,
              "velocity": 104,
              "position": 19.260416666666668,
              "duration": 0.125
            },
            {
              "pitch": 67,
              "velocity": 80,
              "position": 19.260416666666668,
              "duration": 0.125
            },
            {
              "pitch": 67,
              "velocity": 114,
              "position": 20.25,
              "duration": 0.17708333333333334
            },
            {
              "pitch": 59,
              "velocity": 122,
              "position": 20.25,
              "duration": 0.1875
            },
            {
              "pitch": 64,
              "velocity": 116,
              "position": 20.260416666666668,
              "duration": 0.17708333333333334
            },
            {
              "pitch": 59,
              "velocity": 88,
              "position": 20.489583333333332,
              "duration": 0.17708333333333334
            },
            {
              "pitch": 64,
              "velocity": 76,
              "position": 20.5,
              "duration": 0.16666666666666666
            },
            {
              "pitch": 67,
              "velocity": 76,
              "position": 20.489583333333332,
              "duration": 0.1875
            },
            {
              "pitch": 59,
              "velocity": 112,
              "position": 20.989583333333332,
              "duration": 0.20833333333333334
            },
            {
              "pitch": 67,
              "velocity": 112,
              "position": 20.989583333333332,
              "duration": 0.21875
            },
            {
              "pitch": 64,
              "velocity": 122,
              "position": 20.989583333333332,
              "duration": 0.21875
            },
            {
              "pitch": 64,
              "velocity": 94,
              "position": 21.25,
              "duration": 0.11458333333333333
            },
            {
              "pitch": 59,
              "velocity": 88,
              "position": 21.25,
              "duration": 0.125
            },
            {
              "pitch": 67,
              "velocity": 84,
              "position": 21.25,
              "duration": 0.14583333333333334
            },
            {
              "pitch": 62,
              "velocity": 104,
              "position": 21.75,
              "duration": 0.15625
            },
            {
              "pitch": 57,
              "velocity": 102,
              "position": 21.75,
              "duration": 0.16666666666666666
            },
            {
              "pitch": 65,
              "velocity": 124,
              "position": 21.75,
              "duration": 0.16666666666666666
            },
            {
              "pitch": 64,
              "velocity": 104,
              "position": 22.25,
              "duration": 0.14583333333333334
            },
            {
              "pitch": 59,
              "velocity": 104,
              "position": 22.25,
              "duration": 0.15625
            },
            {
              "pitch": 67,
              "velocity": 104,
              "position": 22.25,
              "duration": 0.17708333333333334
            },
            {
              "pitch": 59,
              "velocity": 108,
              "position": 22.75,
              "duration": 0.25
            },
            {
              "pitch": 67,
              "velocity": 110,
              "position": 22.75,
              "duration": 0.25
            },
            {
              "pitch": 64,
              "velocity": 108,
              "position": 22.75,
              "duration": 0.25
            },
            {
              "pitch": 64,
              "velocity": 96,
              "position": 23.739583333333332,
              "duration": 0.21875
            },
            {
              "pitch": 67,
              "velocity": 84,
              "position": 23.75,
              "duration": 0.21875
            },
            {
              "pitch": 59,
              "velocity": 76,
              "position": 23.75,
              "duration": 0.21875
            },
            {
              "pitch": 59,
              "velocity": 116,
              "position": 24,
              "duration": 0.22916666666666666
            },
            {
              "pitch": 67,
              "velocity": 96,
              "position": 24,
              "duration": 0.23958333333333334
            },
            {
              "pitch": 64,
              "velocity": 92,
              "position": 24,
              "duration": 0.23958333333333334
            },
            {
              "pitch": 67,
              "velocity": 88,
              "position": 25.25,
              "duration": 0.14583333333333334
            },
            {
              "pitch": 59,
              "velocity": 88,
              "position": 25.25,
              "duration": 0.16666666666666666
            },
            {
              "pitch": 64,
              "velocity": 104,
              "position": 25.25,
              "duration": 0.16666666666666666
            },
            {
              "pitch": 65,
              "velocity": 124,
              "position": 25.75,
              "duration": 0.17708333333333334
            },
            {
              "pitch": 59,
              "velocity": 100,
              "position": 25.75,
              "duration": 0.17708333333333334
            },
            {
              "pitch": 57,
              "velocity": 110,
              "position": 25.75,
              "duration": 0.19791666666666666
            },
            {
              "pitch": 65,
              "velocity": 80,
              "position": 26.25,
              "duration": 0.1875
            },
            {
              "pitch": 59,
              "velocity": 88,
              "position": 26.25,
              "duration": 0.19791666666666666
            },
            {
              "pitch": 57,
              "velocity": 76,
              "position": 26.25,
              "duration": 0.20833333333333334
            },
            {
              "pitch": 65,
              "velocity": 92,
              "position": 26.5,
              "duration": 0.20833333333333334
            },
            {
              "pitch": 69,
              "velocity": 104,
              "position": 26.5,
              "duration": 0.20833333333333334
            },
            {
              "pitch": 59,
              "velocity": 88,
              "position": 26.5,
              "duration": 0.21875
            },
            {
              "pitch": 67,
              "velocity": 122,
              "position": 26.75,
              "duration": 0.11458333333333333
            },
            {
              "pitch": 64,
              "velocity": 122,
              "position": 26.75,
              "duration": 0.11458333333333333
            },
            {
              "pitch": 59,
              "velocity": 126,
              "position": 26.75,
              "duration": 0.125
            },
            {
              "pitch": 64,
              "velocity": 94,
              "position": 27.260416666666668,
              "duration": 0.11458333333333333
            },
            {
              "pitch": 59,
              "velocity": 104,
              "position": 27.260416666666668,
              "duration": 0.125
            },
            {
              "pitch": 67,
              "velocity": 80,
              "position": 27.260416666666668,
              "duration": 0.125
            },
            {
              "pitch": 64,
              "velocity": 92,
              "position": 28.25,
              "duration": 0.21875
            },
            {
              "pitch": 67,
              "velocity": 92,
              "position": 28.260416666666668,
              "duration": 0.21875
            },
            {
              "pitch": 71,
              "velocity": 110,
              "position": 28.260416666666668,
              "duration": 0.21875
            },
            {
              "pitch": 71,
              "velocity": 50,
              "position": 28.5,
              "duration": 0.22916666666666666
            },
            {
              "pitch": 64,
              "velocity": 56,
              "position": 28.489583333333332,
              "duration": 0.25
            },
            {
              "pitch": 67,
              "velocity": 58,
              "position": 28.5,
              "duration": 0.23958333333333334
            },
            {
              "pitch": 67,
              "velocity": 108,
              "position": 28.760416666666668,
              "duration": 0.16666666666666666
            },
            {
              "pitch": 64,
              "velocity": 104,
              "position": 28.760416666666668,
              "duration": 0.17708333333333334
            },
            {
              "pitch": 71,
              "velocity": 110,
              "position": 28.760416666666668,
              "duration": 0.17708333333333334
            },
            {
              "pitch": 64,
              "velocity": 110,
              "position": 29.25,
              "duration": 0.21875
            },
            {
              "pitch": 67,
              "velocity": 110,
              "position": 29.25,
              "duration": 0.21875
            },
            {
              "pitch": 59,
              "velocity": 110,
              "position": 29.25,
              "duration": 0.21875
            },
            {
              "pitch": 64,
              "velocity": 90,
              "position": 29.75,
              "duration": 0.21875
            },
            {
              "pitch": 67,
              "velocity": 86,
              "position": 29.75,
              "duration": 0.21875
            },
            {
              "pitch": 59,
              "velocity": 86,
              "position": 29.760416666666668,
              "duration": 0.21875
            },
            {
              "pitch": 57,
              "velocity": 108,
              "position": 29.989583333333332,
              "duration": 0.25
            },
            {
              "pitch": 65,
              "velocity": 108,
              "position": 30,
              "duration": 0.23958333333333334
            },
            {
              "pitch": 59,
              "velocity": 108,
              "position": 30,
              "duration": 0.25
            },
            {
              "pitch": 69,
              "velocity": 126,
              "position": 30.270833333333332,
              "duration": 0.19791666666666666
            },
            {
              "pitch": 65,
              "velocity": 126,
              "position": 30.270833333333332,
              "duration": 0.19791666666666666
            },
            {
              "pitch": 59,
              "velocity": 126,
              "position": 30.270833333333332,
              "duration": 0.20833333333333334
            },
            {
              "pitch": 67,
              "velocity": 118,
              "position": 30.760416666666668,
              "duration": 0.7291666666666666
            },
            {
              "pitch": 64,
              "velocity": 106,
              "position": 30.760416666666668,
              "duration": 0.7291666666666666
            },
            {
              "pitch": 59,
              "velocity": 110,
              "position": 30.760416666666668,
              "duration": 0.7395833333333334
            }
          ]
        },
        "5": {
          "ctab": {
            "srcChannel": 5,
            "name": "BrasSect",
            "accType": "PHRASE2",
            "editable": false,
            "mutedNotes": [],
            "mutedChords": [
              "1+2+5",
              "sus4",
              "1+5",
              "1+8",
              "7aug",
              "Maj7aug",
              "7(#9)",
              "7(b13)",
              "7(b9)",
              "7(13)",
              "7#11",
              "7(9)",
              "7b5",
              "7sus4",
              "7th",
              "aug",
              "Maj6(9)",
              "Maj7(9)",
              "Maj(9)",
              "Maj7#11",
              "Maj7",
              "Maj6",
              "Maj"
            ],
            "autoStart": false,
            "sourceChordNote": 0,
            "sourceChordType": "minMaj7",
            "ctb2Low": null,
            "ctb2Main": {
              "ntr": "ROOT_TRANSPOSITION",
              "ntt": "CHORD",
              "bassOn": false,
              "chordRootUpperLimit": 6,
              "noteLowLimit": 0,
              "noteHighLimit": 127,
              "rtr": "PITCH_SHIFT"
            },
            "ctb2High": null
          },
          "notes": [
            {
              "pitch": 67,
              "velocity": 116,
              "position": 0,
              "duration": 0.17708333333333334
            },
            {
              "pitch": 59,
              "velocity": 116,
              "position": 0,
              "duration": 0.17708333333333334
            },
            {
              "pitch": 63,
              "velocity": 106,
              "position": 0,
              "duration": 0.17708333333333334
            },
            {
              "pitch": 67,
              "velocity": 104,
              "position": 1.25,
              "duration": 0.28125
            },
            {
              "pitch": 63,
              "velocity": 124,
              "position": 1.25,
              "duration": 0.2916666666666667
            },
            {
              "pitch": 59,
              "velocity": 110,
              "position": 1.2395833333333333,
              "duration": 0.3229166666666667
            },
            {
              "pitch": 63,
              "velocity": 80,
              "position": 2.25,
              "duration": 0.1875
            },
            {
              "pitch": 59,
              "velocity": 88,
              "position": 2.25,
              "duration": 0.19791666666666666
            },
            {
              "pitch": 67,
              "velocity": 76,
              "position": 2.25,
              "duration": 0.20833333333333334
            },
            {
              "pitch": 59,
              "velocity": 82,
              "position": 2.4895833333333335,
              "duration": 0.20833333333333334
            },
            {
              "pitch": 65,
              "velocity": 104,
              "position": 2.4895833333333335,
              "duration": 0.21875
            },
            {
              "pitch": 62,
              "velocity": 88,
              "position": 2.4895833333333335,
              "duration": 0.22916666666666666
            },
            {
              "pitch": 59,
              "velocity": 126,
              "position": 2.7604166666666665,
              "duration": 0.125
            },
            {
              "pitch": 67,
              "velocity": 120,
              "position": 2.7604166666666665,
              "duration": 0.13541666666666666
            },
            {
              "pitch": 63,
              "velocity": 120,
              "position": 2.7604166666666665,
              "duration": 0.13541666666666666
            },
            {
              "pitch": 63,
              "velocity": 94,
              "position": 3.2604166666666665,
              "duration": 0.11458333333333333
            },
            {
              "pitch": 59,
              "velocity": 104,
              "position": 3.2604166666666665,
              "duration": 0.125
            },
            {
              "pitch": 67,
              "velocity": 80,
              "position": 3.2604166666666665,
              "duration": 0.125
            },
            {
              "pitch": 67,
              "velocity": 114,
              "position": 4.25,
              "duration": 0.17708333333333334
            },
            {
              "pitch": 59,
              "velocity": 122,
              "position": 4.25,
              "duration": 0.1875
            },
            {
              "pitch": 63,
              "velocity": 116,
              "position": 4.260416666666667,
              "duration": 0.17708333333333334
            },
            {
              "pitch": 59,
              "velocity": 88,
              "position": 4.489583333333333,
              "duration": 0.17708333333333334
            },
            {
              "pitch": 63,
              "velocity": 76,
              "position": 4.5,
              "duration": 0.16666666666666666
            },
            {
              "pitch": 67,
              "velocity": 76,
              "position": 4.489583333333333,
              "duration": 0.1875
            },
            {
              "pitch": 59,
              "velocity": 112,
              "position": 4.989583333333333,
              "duration": 0.20833333333333334
            },
            {
              "pitch": 67,
              "velocity": 112,
              "position": 4.989583333333333,
              "duration": 0.21875
            },
            {
              "pitch": 63,
              "velocity": 122,
              "position": 4.989583333333333,
              "duration": 0.21875
            },
            {
              "pitch": 63,
              "velocity": 94,
              "position": 5.25,
              "duration": 0.11458333333333333
            },
            {
              "pitch": 59,
              "velocity": 88,
              "position": 5.25,
              "duration": 0.125
            },
            {
              "pitch": 67,
              "velocity": 84,
              "position": 5.25,
              "duration": 0.14583333333333334
            },
            {
              "pitch": 62,
              "velocity": 104,
              "position": 5.75,
              "duration": 0.15625
            },
            {
              "pitch": 65,
              "velocity": 124,
              "position": 5.75,
              "duration": 0.16666666666666666
            },
            {
              "pitch": 59,
              "velocity": 102,
              "position": 5.75,
              "duration": 0.16666666666666666
            },
            {
              "pitch": 63,
              "velocity": 104,
              "position": 6.25,
              "duration": 0.14583333333333334
            },
            {
              "pitch": 59,
              "velocity": 104,
              "position": 6.25,
              "duration": 0.15625
            },
            {
              "pitch": 67,
              "velocity": 104,
              "position": 6.25,
              "duration": 0.17708333333333334
            },
            {
              "pitch": 59,
              "velocity": 108,
              "position": 6.75,
              "duration": 0.25
            },
            {
              "pitch": 67,
              "velocity": 110,
              "position": 6.75,
              "duration": 0.25
            },
            {
              "pitch": 63,
              "velocity": 108,
              "position": 6.75,
              "duration": 0.25
            },
            {
              "pitch": 63,
              "velocity": 96,
              "position": 7.739583333333333,
              "duration": 0.21875
            },
            {
              "pitch": 67,
              "velocity": 84,
              "position": 7.75,
              "duration": 0.21875
            },
            {
              "pitch": 59,
              "velocity": 76,
              "position": 7.75,
              "duration": 0.21875
            },
            {
              "pitch": 59,
              "velocity": 116,
              "position": 8,
              "duration": 0.22916666666666666
            },
            {
              "pitch": 67,
              "velocity": 96,
              "position": 8,
              "duration": 0.23958333333333334
            },
            {
              "pitch": 63,
              "velocity": 92,
              "position": 8,
              "duration": 0.23958333333333334
            },
            {
              "pitch": 67,
              "velocity": 88,
              "position": 9.25,
              "duration": 0.14583333333333334
            },
            {
              "pitch": 59,
              "velocity": 88,
              "position": 9.25,
              "duration": 0.16666666666666666
            },
            {
              "pitch": 63,
              "velocity": 96,
              "position": 9.25,
              "duration": 0.16666666666666666
            },
            {
              "pitch": 63,
              "velocity": 94,
              "position": 9.760416666666666,
              "duration": 0.16666666666666666
            },
            {
              "pitch": 67,
              "velocity": 112,
              "position": 9.760416666666666,
              "duration": 0.17708333333333334
            },
            {
              "pitch": 59,
              "velocity": 104,
              "position": 9.75,
              "duration": 0.20833333333333334
            },
            {
              "pitch": 67,
              "velocity": 76,
              "position": 10.25,
              "duration": 0.1875
            },
            {
              "pitch": 63,
              "velocity": 80,
              "position": 10.25,
              "duration": 0.1875
            },
            {
              "pitch": 59,
              "velocity": 88,
              "position": 10.25,
              "duration": 0.19791666666666666
            },
            {
              "pitch": 59,
              "velocity": 86,
              "position": 10.5,
              "duration": 0.20833333333333334
            },
            {
              "pitch": 65,
              "velocity": 94,
              "position": 10.5,
              "duration": 0.20833333333333334
            },
            {
              "pitch": 62,
              "velocity": 88,
              "position": 10.5,
              "duration": 0.21875
            },
            {
              "pitch": 67,
              "velocity": 104,
              "position": 10.760416666666666,
              "duration": 0.11458333333333333
            },
            {
              "pitch": 59,
              "velocity": 110,
              "position": 10.760416666666666,
              "duration": 0.125
            },
            {
              "pitch": 63,
              "velocity": 104,
              "position": 10.760416666666666,
              "duration": 0.125
            },
            {
              "pitch": 63,
              "velocity": 94,
              "position": 11.260416666666666,
              "duration": 0.11458333333333333
            },
            {
              "pitch": 59,
              "velocity": 104,
              "position": 11.260416666666666,
              "duration": 0.125
            },
            {
              "pitch": 67,
              "velocity": 80,
              "position": 11.260416666666666,
              "duration": 0.125
            },
            {
              "pitch": 71,
              "velocity": 104,
              "position": 12.260416666666666,
              "duration": 0.16666666666666666
            },
            {
              "pitch": 67,
              "velocity": 80,
              "position": 12.260416666666666,
              "duration": 0.16666666666666666
            },
            {
              "pitch": 63,
              "velocity": 104,
              "position": 12.260416666666666,
              "duration": 0.17708333333333334
            },
            {
              "pitch": 71,
              "velocity": 104,
              "position": 12.760416666666666,
              "duration": 0.14583333333333334
            },
            {
              "pitch": 63,
              "velocity": 94,
              "position": 12.760416666666666,
              "duration": 0.14583333333333334
            },
            {
              "pitch": 67,
              "velocity": 94,
              "position": 12.760416666666666,
              "duration": 0.14583333333333334
            },
            {
              "pitch": 63,
              "velocity": 124,
              "position": 13.25,
              "duration": 0.13541666666666666
            },
            {
              "pitch": 67,
              "velocity": 104,
              "position": 13.25,
              "duration": 0.14583333333333334
            },
            {
              "pitch": 59,
              "velocity": 110,
              "position": 13.239583333333334,
              "duration": 0.17708333333333334
            },
            {
              "pitch": 62,
              "velocity": 88,
              "position": 13.75,
              "duration": 0.16666666666666666
            },
            {
              "pitch": 65,
              "velocity": 88,
              "position": 13.75,
              "duration": 0.16666666666666666
            },
            {
              "pitch": 59,
              "velocity": 88,
              "position": 13.75,
              "duration": 0.17708333333333334
            },
            {
              "pitch": 67,
              "velocity": 94,
              "position": 14.25,
              "duration": 0.15625
            },
            {
              "pitch": 71,
              "velocity": 122,
              "position": 14.239583333333334,
              "duration": 0.17708333333333334
            },
            {
              "pitch": 63,
              "velocity": 92,
              "position": 14.239583333333334,
              "duration": 0.17708333333333334
            },
            {
              "pitch": 63,
              "velocity": 124,
              "position": 14.75,
              "duration": 1.1145833333333333
            },
            {
              "pitch": 67,
              "velocity": 124,
              "position": 14.75,
              "duration": 1.125
            },
            {
              "pitch": 59,
              "velocity": 104,
              "position": 14.75,
              "duration": 1.1354166666666667
            },
            {
              "pitch": 67,
              "velocity": 116,
              "position": 16,
              "duration": 0.17708333333333334
            },
            {
              "pitch": 59,
              "velocity": 116,
              "position": 16,
              "duration": 0.17708333333333334
            },
            {
              "pitch": 63,
              "velocity": 106,
              "position": 16,
              "duration": 0.17708333333333334
            },
            {
              "pitch": 67,
              "velocity": 104,
              "position": 17.25,
              "duration": 0.28125
            },
            {
              "pitch": 63,
              "velocity": 124,
              "position": 17.25,
              "duration": 0.2916666666666667
            },
            {
              "pitch": 59,
              "velocity": 110,
              "position": 17.239583333333332,
              "duration": 0.3229166666666667
            },
            {
              "pitch": 63,
              "velocity": 80,
              "position": 18.25,
              "duration": 0.1875
            },
            {
              "pitch": 59,
              "velocity": 88,
              "position": 18.25,
              "duration": 0.19791666666666666
            },
            {
              "pitch": 67,
              "velocity": 76,
              "position": 18.25,
              "duration": 0.20833333333333334
            },
            {
              "pitch": 59,
              "velocity": 82,
              "position": 18.489583333333332,
              "duration": 0.20833333333333334
            },
            {
              "pitch": 65,
              "velocity": 104,
              "position": 18.489583333333332,
              "duration": 0.21875
            },
            {
              "pitch": 62,
              "velocity": 88,
              "position": 18.489583333333332,
              "duration": 0.22916666666666666
            },
            {
              "pitch": 59,
              "velocity": 126,
              "position": 18.760416666666668,
              "duration": 0.125
            },
            {
              "pitch": 67,
              "velocity": 120,
              "position": 18.760416666666668,
              "duration": 0.13541666666666666
            },
            {
              "pitch": 63,
              "velocity": 120,
              "position": 18.760416666666668,
              "duration": 0.13541666666666666
            },
            {
              "pitch": 63,
              "velocity": 94,
              "position": 19.260416666666668,
              "duration": 0.11458333333333333
            },
            {
              "pitch": 59,
              "velocity": 104,
              "position": 19.260416666666668,
              "duration": 0.125
            },
            {
              "pitch": 67,
              "velocity": 80,
              "position": 19.260416666666668,
              "duration": 0.125
            },
            {
              "pitch": 67,
              "velocity": 114,
              "position": 20.25,
              "duration": 0.17708333333333334
            },
            {
              "pitch": 59,
              "velocity": 122,
              "position": 20.25,
              "duration": 0.1875
            },
            {
              "pitch": 63,
              "velocity": 116,
              "position": 20.260416666666668,
              "duration": 0.17708333333333334
            },
            {
              "pitch": 59,
              "velocity": 88,
              "position": 20.489583333333332,
              "duration": 0.17708333333333334
            },
            {
              "pitch": 63,
              "velocity": 76,
              "position": 20.5,
              "duration": 0.16666666666666666
            },
            {
              "pitch": 67,
              "velocity": 76,
              "position": 20.489583333333332,
              "duration": 0.1875
            },
            {
              "pitch": 59,
              "velocity": 112,
              "position": 20.989583333333332,
              "duration": 0.20833333333333334
            },
            {
              "pitch": 67,
              "velocity": 112,
              "position": 20.989583333333332,
              "duration": 0.21875
            },
            {
              "pitch": 63,
              "velocity": 122,
              "position": 20.989583333333332,
              "duration": 0.21875
            },
            {
              "pitch": 63,
              "velocity": 94,
              "position": 21.25,
              "duration": 0.11458333333333333
            },
            {
              "pitch": 59,
              "velocity": 88,
              "position": 21.25,
              "duration": 0.125
            },
            {
              "pitch": 67,
              "velocity": 84,
              "position": 21.25,
              "duration": 0.14583333333333334
            },
            {
              "pitch": 62,
              "velocity": 104,
              "position": 21.75,
              "duration": 0.15625
            },
            {
              "pitch": 65,
              "velocity": 124,
              "position": 21.75,
              "duration": 0.16666666666666666
            },
            {
              "pitch": 59,
              "velocity": 102,
              "position": 21.75,
              "duration": 0.16666666666666666
            },
            {
              "pitch": 63,
              "velocity": 104,
              "position": 22.25,
              "duration": 0.14583333333333334
            },
            {
              "pitch": 59,
              "velocity": 104,
              "position": 22.25,
              "duration": 0.15625
            },
            {
              "pitch": 67,
              "velocity": 104,
              "position": 22.25,
              "duration": 0.17708333333333334
            },
            {
              "pitch": 59,
              "velocity": 108,
              "position": 22.75,
              "duration": 0.25
            },
            {
              "pitch": 67,
              "velocity": 110,
              "position": 22.75,
              "duration": 0.25
            },
            {
              "pitch": 63,
              "velocity": 108,
              "position": 22.75,
              "duration": 0.25
            },
            {
              "pitch": 63,
              "velocity": 96,
              "position": 23.739583333333332,
              "duration": 0.21875
            },
            {
              "pitch": 67,
              "velocity": 84,
              "position": 23.75,
              "duration": 0.21875
            },
            {
              "pitch": 59,
              "velocity": 76,
              "position": 23.75,
              "duration": 0.21875
            },
            {
              "pitch": 59,
              "velocity": 116,
              "position": 24,
              "duration": 0.22916666666666666
            },
            {
              "pitch": 67,
              "velocity": 96,
              "position": 24,
              "duration": 0.23958333333333334
            },
            {
              "pitch": 63,
              "velocity": 92,
              "position": 24,
              "duration": 0.23958333333333334
            },
            {
              "pitch": 67,
              "velocity": 88,
              "position": 25.25,
              "duration": 0.14583333333333334
            },
            {
              "pitch": 59,
              "velocity": 88,
              "position": 25.25,
              "duration": 0.16666666666666666
            },
            {
              "pitch": 63,
              "velocity": 104,
              "position": 25.25,
              "duration": 0.16666666666666666
            },
            {
              "pitch": 62,
              "velocity": 100,
              "position": 25.75,
              "duration": 0.17708333333333334
            },
            {
              "pitch": 65,
              "velocity": 124,
              "position": 25.75,
              "duration": 0.17708333333333334
            },
            {
              "pitch": 59,
              "velocity": 110,
              "position": 25.75,
              "duration": 0.19791666666666666
            },
            {
              "pitch": 65,
              "velocity": 80,
              "position": 26.25,
              "duration": 0.1875
            },
            {
              "pitch": 62,
              "velocity": 88,
              "position": 26.25,
              "duration": 0.19791666666666666
            },
            {
              "pitch": 59,
              "velocity": 76,
              "position": 26.25,
              "duration": 0.20833333333333334
            },
            {
              "pitch": 71,
              "velocity": 104,
              "position": 26.5,
              "duration": 0.20833333333333334
            },
            {
              "pitch": 67,
              "velocity": 92,
              "position": 26.5,
              "duration": 0.20833333333333334
            },
            {
              "pitch": 63,
              "velocity": 88,
              "position": 26.5,
              "duration": 0.21875
            },
            {
              "pitch": 67,
              "velocity": 122,
              "position": 26.75,
              "duration": 0.11458333333333333
            },
            {
              "pitch": 63,
              "velocity": 122,
              "position": 26.75,
              "duration": 0.11458333333333333
            },
            {
              "pitch": 59,
              "velocity": 126,
              "position": 26.75,
              "duration": 0.125
            },
            {
              "pitch": 63,
              "velocity": 94,
              "position": 27.260416666666668,
              "duration": 0.11458333333333333
            },
            {
              "pitch": 59,
              "velocity": 104,
              "position": 27.260416666666668,
              "duration": 0.125
            },
            {
              "pitch": 67,
              "velocity": 80,
              "position": 27.260416666666668,
              "duration": 0.125
            },
            {
              "pitch": 63,
              "velocity": 92,
              "position": 28.25,
              "duration": 0.21875
            },
            {
              "pitch": 67,
              "velocity": 92,
              "position": 28.260416666666668,
              "duration": 0.21875
            },
            {
              "pitch": 71,
              "velocity": 110,
              "position": 28.260416666666668,
              "duration": 0.21875
            },
            {
              "pitch": 71,
              "velocity": 50,
              "position": 28.5,
              "duration": 0.22916666666666666
            },
            {
              "pitch": 63,
              "velocity": 56,
              "position": 28.489583333333332,
              "duration": 0.25
            },
            {
              "pitch": 67,
              "velocity": 58,
              "position": 28.5,
              "duration": 0.23958333333333334
            },
            {
              "pitch": 67,
              "velocity": 108,
              "position": 28.760416666666668,
              "duration": 0.16666666666666666
            },
            {
              "pitch": 63,
              "velocity": 104,
              "position": 28.760416666666668,
              "duration": 0.17708333333333334
            },
            {
              "pitch": 71,
              "velocity": 110,
              "position": 28.760416666666668,
              "duration": 0.17708333333333334
            },
            {
              "pitch": 63,
              "velocity": 110,
              "position": 29.25,
              "duration": 0.21875
            },
            {
              "pitch": 67,
              "velocity": 110,
              "position": 29.25,
              "duration": 0.21875
            },
            {
              "pitch": 59,
              "velocity": 110,
              "position": 29.25,
              "duration": 0.21875
            },
            {
              "pitch": 63,
              "velocity": 90,
              "position": 29.75,
              "duration": 0.21875
            },
            {
              "pitch": 67,
              "velocity": 86,
              "position": 29.75,
              "duration": 0.21875
            },
            {
              "pitch": 59,
              "velocity": 86,
              "position": 29.760416666666668,
              "duration": 0.21875
            },
            {
              "pitch": 59,
              "velocity": 108,
              "position": 29.989583333333332,
              "duration": 0.25
            },
            {
              "pitch": 65,
              "velocity": 108,
              "position": 30,
              "duration": 0.23958333333333334
            },
            {
              "pitch": 62,
              "velocity": 108,
              "position": 30,
              "duration": 0.25
            },
            {
              "pitch": 67,
              "velocity": 126,
              "position": 30.270833333333332,
              "duration": 0.19791666666666666
            },
            {
              "pitch": 71,
              "velocity": 126,
              "position": 30.270833333333332,
              "duration": 0.19791666666666666
            },
            {
              "pitch": 63,
              "velocity": 126,
              "position": 30.270833333333332,
              "duration": 0.20833333333333334
            },
            {
              "pitch": 67,
              "velocity": 118,
              "position": 30.760416666666668,
              "duration": 0.7291666666666666
            },
            {
              "pitch": 63,
              "velocity": 106,
              "position": 30.760416666666668,
              "duration": 0.7291666666666666
            },
            {
              "pitch": 59,
              "velocity": 110,
              "position": 30.760416666666668,
              "duration": 0.7395833333333334
            }
          ]
        },
        "6": {
          "ctab": {
            "srcChannel": 6,
            "name": "BrasSect",
            "accType": "PHRASE2",
            "editable": false,
            "mutedNotes": [],
            "mutedChords": [
              "1+2+5",
              "sus4",
              "1+5",
              "1+8",
              "dim7",
              "dim",
              "minMaj7(9)",
              "minMaj7",
              "min7(11)",
              "min7(9)",
              "min(9)",
              "m7b5",
              "min7",
              "min6",
              "min",
              "aug",
              "Maj6(9)",
              "Maj7(9)",
              "Maj(9)",
              "Maj7#11",
              "Maj7",
              "Maj6",
              "Maj"
            ],
            "autoStart": false,
            "sourceChordNote": 0,
            "sourceChordType": "7th",
            "ctb2Low": null,
            "ctb2Main": {
              "ntr": "ROOT_TRANSPOSITION",
              "ntt": "CHORD",
              "bassOn": false,
              "chordRootUpperLimit": 6,
              "noteLowLimit": 0,
              "noteHighLimit": 127,
              "rtr": "PITCH_SHIFT"
            },
            "ctb2High": null
          },
          "notes": [
            {
              "pitch": 64,
              "velocity": 116,
              "position": 0,
              "duration": 0.17708333333333334
            },
            {
              "pitch": 70,
              "velocity": 116,
              "position": 0,
              "duration": 0.17708333333333334
            },
            {
              "pitch": 58,
              "velocity": 106,
              "position": 0,
              "duration": 0.17708333333333334
            },
            {
              "pitch": 62,
              "velocity": 104,
              "position": 1.25,
              "duration": 0.28125
            },
            {
              "pitch": 58,
              "velocity": 124,
              "position": 1.25,
              "duration": 0.2916666666666667
            },
            {
              "pitch": 70,
              "velocity": 110,
              "position": 1.2395833333333333,
              "duration": 0.3229166666666667
            },
            {
              "pitch": 58,
              "velocity": 80,
              "position": 2.25,
              "duration": 0.1875
            },
            {
              "pitch": 70,
              "velocity": 88,
              "position": 2.25,
              "duration": 0.19791666666666666
            },
            {
              "pitch": 64,
              "velocity": 76,
              "position": 2.25,
              "duration": 0.20833333333333334
            },
            {
              "pitch": 65,
              "velocity": 82,
              "position": 2.4895833333333335,
              "duration": 0.20833333333333334
            },
            {
              "pitch": 60,
              "velocity": 104,
              "position": 2.4895833333333335,
              "duration": 0.21875
            },
            {
              "pitch": 57,
              "velocity": 88,
              "position": 2.4895833333333335,
              "duration": 0.22916666666666666
            },
            {
              "pitch": 70,
              "velocity": 126,
              "position": 2.7604166666666665,
              "duration": 0.125
            },
            {
              "pitch": 58,
              "velocity": 120,
              "position": 2.7604166666666665,
              "duration": 0.13541666666666666
            },
            {
              "pitch": 62,
              "velocity": 120,
              "position": 2.7604166666666665,
              "duration": 0.13541666666666666
            },
            {
              "pitch": 58,
              "velocity": 94,
              "position": 3.2604166666666665,
              "duration": 0.11458333333333333
            },
            {
              "pitch": 64,
              "velocity": 80,
              "position": 3.2604166666666665,
              "duration": 0.125
            },
            {
              "pitch": 70,
              "velocity": 104,
              "position": 3.2604166666666665,
              "duration": 0.125
            },
            {
              "pitch": 64,
              "velocity": 114,
              "position": 4.25,
              "duration": 0.17708333333333334
            },
            {
              "pitch": 70,
              "velocity": 122,
              "position": 4.25,
              "duration": 0.1875
            },
            {
              "pitch": 58,
              "velocity": 116,
              "position": 4.260416666666667,
              "duration": 0.17708333333333334
            },
            {
              "pitch": 70,
              "velocity": 88,
              "position": 4.489583333333333,
              "duration": 0.17708333333333334
            },
            {
              "pitch": 58,
              "velocity": 76,
              "position": 4.5,
              "duration": 0.16666666666666666
            },
            {
              "pitch": 64,
              "velocity": 76,
              "position": 4.489583333333333,
              "duration": 0.1875
            },
            {
              "pitch": 70,
              "velocity": 112,
              "position": 4.989583333333333,
              "duration": 0.20833333333333334
            },
            {
              "pitch": 58,
              "velocity": 122,
              "position": 4.989583333333333,
              "duration": 0.21875
            },
            {
              "pitch": 62,
              "velocity": 112,
              "position": 4.989583333333333,
              "duration": 0.21875
            },
            {
              "pitch": 58,
              "velocity": 94,
              "position": 5.25,
              "duration": 0.11458333333333333
            },
            {
              "pitch": 70,
              "velocity": 88,
              "position": 5.25,
              "duration": 0.125
            },
            {
              "pitch": 62,
              "velocity": 84,
              "position": 5.25,
              "duration": 0.14583333333333334
            },
            {
              "pitch": 57,
              "velocity": 104,
              "position": 5.75,
              "duration": 0.15625
            },
            {
              "pitch": 60,
              "velocity": 124,
              "position": 5.75,
              "duration": 0.16666666666666666
            },
            {
              "pitch": 65,
              "velocity": 102,
              "position": 5.75,
              "duration": 0.16666666666666666
            },
            {
              "pitch": 58,
              "velocity": 104,
              "position": 6.25,
              "duration": 0.14583333333333334
            },
            {
              "pitch": 70,
              "velocity": 104,
              "position": 6.25,
              "duration": 0.15625
            },
            {
              "pitch": 62,
              "velocity": 104,
              "position": 6.25,
              "duration": 0.17708333333333334
            },
            {
              "pitch": 70,
              "velocity": 108,
              "position": 6.75,
              "duration": 0.25
            },
            {
              "pitch": 64,
              "velocity": 110,
              "position": 6.75,
              "duration": 0.25
            },
            {
              "pitch": 58,
              "velocity": 108,
              "position": 6.75,
              "duration": 0.25
            },
            {
              "pitch": 58,
              "velocity": 96,
              "position": 7.739583333333333,
              "duration": 0.21875
            },
            {
              "pitch": 64,
              "velocity": 84,
              "position": 7.75,
              "duration": 0.21875
            },
            {
              "pitch": 70,
              "velocity": 76,
              "position": 7.75,
              "duration": 0.21875
            },
            {
              "pitch": 70,
              "velocity": 116,
              "position": 8,
              "duration": 0.22916666666666666
            },
            {
              "pitch": 64,
              "velocity": 96,
              "position": 8,
              "duration": 0.23958333333333334
            },
            {
              "pitch": 58,
              "velocity": 92,
              "position": 8,
              "duration": 0.23958333333333334
            },
            {
              "pitch": 64,
              "velocity": 88,
              "position": 9.25,
              "duration": 0.14583333333333334
            },
            {
              "pitch": 70,
              "velocity": 88,
              "position": 9.25,
              "duration": 0.16666666666666666
            },
            {
              "pitch": 58,
              "velocity": 96,
              "position": 9.25,
              "duration": 0.16666666666666666
            },
            {
              "pitch": 58,
              "velocity": 94,
              "position": 9.760416666666666,
              "duration": 0.16666666666666666
            },
            {
              "pitch": 62,
              "velocity": 112,
              "position": 9.760416666666666,
              "duration": 0.17708333333333334
            },
            {
              "pitch": 70,
              "velocity": 104,
              "position": 9.75,
              "duration": 0.20833333333333334
            },
            {
              "pitch": 64,
              "velocity": 76,
              "position": 10.25,
              "duration": 0.1875
            },
            {
              "pitch": 58,
              "velocity": 80,
              "position": 10.25,
              "duration": 0.1875
            },
            {
              "pitch": 70,
              "velocity": 88,
              "position": 10.25,
              "duration": 0.19791666666666666
            },
            {
              "pitch": 60,
              "velocity": 94,
              "position": 10.5,
              "duration": 0.20833333333333334
            },
            {
              "pitch": 65,
              "velocity": 86,
              "position": 10.5,
              "duration": 0.20833333333333334
            },
            {
              "pitch": 57,
              "velocity": 88,
              "position": 10.5,
              "duration": 0.21875
            },
            {
              "pitch": 62,
              "velocity": 104,
              "position": 10.760416666666666,
              "duration": 0.11458333333333333
            },
            {
              "pitch": 70,
              "velocity": 110,
              "position": 10.760416666666666,
              "duration": 0.125
            },
            {
              "pitch": 58,
              "velocity": 104,
              "position": 10.760416666666666,
              "duration": 0.125
            },
            {
              "pitch": 58,
              "velocity": 94,
              "position": 11.260416666666666,
              "duration": 0.11458333333333333
            },
            {
              "pitch": 64,
              "velocity": 80,
              "position": 11.260416666666666,
              "duration": 0.125
            },
            {
              "pitch": 70,
              "velocity": 104,
              "position": 11.260416666666666,
              "duration": 0.125
            },
            {
              "pitch": 64,
              "velocity": 104,
              "position": 12.260416666666666,
              "duration": 0.16666666666666666
            },
            {
              "pitch": 58,
              "velocity": 80,
              "position": 12.260416666666666,
              "duration": 0.16666666666666666
            },
            {
              "pitch": 70,
              "velocity": 104,
              "position": 12.260416666666666,
              "duration": 0.17708333333333334
            },
            {
              "pitch": 64,
              "velocity": 104,
              "position": 12.760416666666666,
              "duration": 0.14583333333333334
            },
            {
              "pitch": 70,
              "velocity": 94,
              "position": 12.760416666666666,
              "duration": 0.14583333333333334
            },
            {
              "pitch": 58,
              "velocity": 94,
              "position": 12.760416666666666,
              "duration": 0.14583333333333334
            },
            {
              "pitch": 57,
              "velocity": 124,
              "position": 13.25,
              "duration": 0.13541666666666666
            },
            {
              "pitch": 60,
              "velocity": 104,
              "position": 13.25,
              "duration": 0.14583333333333334
            },
            {
              "pitch": 65,
              "velocity": 110,
              "position": 13.239583333333334,
              "duration": 0.17708333333333334
            },
            {
              "pitch": 70,
              "velocity": 88,
              "position": 13.75,
              "duration": 0.16666666666666666
            },
            {
              "pitch": 58,
              "velocity": 88,
              "position": 13.75,
              "duration": 0.16666666666666666
            },
            {
              "pitch": 64,
              "velocity": 88,
              "position": 13.75,
              "duration": 0.17708333333333334
            },
            {
              "pitch": 58,
              "velocity": 94,
              "position": 14.25,
              "duration": 0.15625
            },
            {
              "pitch": 62,
              "velocity": 122,
              "position": 14.239583333333334,
              "duration": 0.17708333333333334
            },
            {
              "pitch": 70,
              "velocity": 92,
              "position": 14.239583333333334,
              "duration": 0.17708333333333334
            },
            {
              "pitch": 58,
              "velocity": 124,
              "position": 14.75,
              "duration": 1.1145833333333333
            },
            {
              "pitch": 60,
              "velocity": 124,
              "position": 14.75,
              "duration": 1.125
            },
            {
              "pitch": 64,
              "velocity": 104,
              "position": 14.75,
              "duration": 1.1354166666666667
            },
            {
              "pitch": 64,
              "velocity": 116,
              "position": 16,
              "duration": 0.17708333333333334
            },
            {
              "pitch": 70,
              "velocity": 116,
              "position": 16,
              "duration": 0.17708333333333334
            },
            {
              "pitch": 58,
              "velocity": 106,
              "position": 16,
              "duration": 0.17708333333333334
            },
            {
              "pitch": 62,
              "velocity": 104,
              "position": 17.25,
              "duration": 0.28125
            },
            {
              "pitch": 58,
              "velocity": 124,
              "position": 17.25,
              "duration": 0.2916666666666667
            },
            {
              "pitch": 70,
              "velocity": 110,
              "position": 17.239583333333332,
              "duration": 0.3229166666666667
            },
            {
              "pitch": 58,
              "velocity": 80,
              "position": 18.25,
              "duration": 0.1875
            },
            {
              "pitch": 70,
              "velocity": 88,
              "position": 18.25,
              "duration": 0.19791666666666666
            },
            {
              "pitch": 64,
              "velocity": 76,
              "position": 18.25,
              "duration": 0.20833333333333334
            },
            {
              "pitch": 65,
              "velocity": 82,
              "position": 18.489583333333332,
              "duration": 0.20833333333333334
            },
            {
              "pitch": 60,
              "velocity": 104,
              "position": 18.489583333333332,
              "duration": 0.21875
            },
            {
              "pitch": 57,
              "velocity": 88,
              "position": 18.489583333333332,
              "duration": 0.22916666666666666
            },
            {
              "pitch": 70,
              "velocity": 126,
              "position": 18.760416666666668,
              "duration": 0.125
            },
            {
              "pitch": 58,
              "velocity": 120,
              "position": 18.760416666666668,
              "duration": 0.13541666666666666
            },
            {
              "pitch": 62,
              "velocity": 120,
              "position": 18.760416666666668,
              "duration": 0.13541666666666666
            },
            {
              "pitch": 58,
              "velocity": 94,
              "position": 19.260416666666668,
              "duration": 0.11458333333333333
            },
            {
              "pitch": 64,
              "velocity": 80,
              "position": 19.260416666666668,
              "duration": 0.125
            },
            {
              "pitch": 70,
              "velocity": 104,
              "position": 19.260416666666668,
              "duration": 0.125
            },
            {
              "pitch": 64,
              "velocity": 114,
              "position": 20.25,
              "duration": 0.17708333333333334
            },
            {
              "pitch": 70,
              "velocity": 122,
              "position": 20.25,
              "duration": 0.1875
            },
            {
              "pitch": 58,
              "velocity": 116,
              "position": 20.260416666666668,
              "duration": 0.17708333333333334
            },
            {
              "pitch": 70,
              "velocity": 88,
              "position": 20.489583333333332,
              "duration": 0.17708333333333334
            },
            {
              "pitch": 58,
              "velocity": 76,
              "position": 20.5,
              "duration": 0.16666666666666666
            },
            {
              "pitch": 64,
              "velocity": 76,
              "position": 20.489583333333332,
              "duration": 0.1875
            },
            {
              "pitch": 70,
              "velocity": 112,
              "position": 20.989583333333332,
              "duration": 0.20833333333333334
            },
            {
              "pitch": 58,
              "velocity": 122,
              "position": 20.989583333333332,
              "duration": 0.21875
            },
            {
              "pitch": 62,
              "velocity": 112,
              "position": 20.989583333333332,
              "duration": 0.21875
            },
            {
              "pitch": 58,
              "velocity": 94,
              "position": 21.25,
              "duration": 0.11458333333333333
            },
            {
              "pitch": 70,
              "velocity": 88,
              "position": 21.25,
              "duration": 0.125
            },
            {
              "pitch": 62,
              "velocity": 84,
              "position": 21.25,
              "duration": 0.14583333333333334
            },
            {
              "pitch": 58,
              "velocity": 104,
              "position": 21.75,
              "duration": 0.15625
            },
            {
              "pitch": 60,
              "velocity": 124,
              "position": 21.75,
              "duration": 0.16666666666666666
            },
            {
              "pitch": 64,
              "velocity": 102,
              "position": 21.75,
              "duration": 0.16666666666666666
            },
            {
              "pitch": 58,
              "velocity": 104,
              "position": 22.25,
              "duration": 0.14583333333333334
            },
            {
              "pitch": 70,
              "velocity": 104,
              "position": 22.25,
              "duration": 0.15625
            },
            {
              "pitch": 62,
              "velocity": 104,
              "position": 22.25,
              "duration": 0.17708333333333334
            },
            {
              "pitch": 70,
              "velocity": 108,
              "position": 22.75,
              "duration": 0.25
            },
            {
              "pitch": 64,
              "velocity": 110,
              "position": 22.75,
              "duration": 0.25
            },
            {
              "pitch": 58,
              "velocity": 108,
              "position": 22.75,
              "duration": 0.25
            },
            {
              "pitch": 58,
              "velocity": 96,
              "position": 23.739583333333332,
              "duration": 0.21875
            },
            {
              "pitch": 64,
              "velocity": 84,
              "position": 23.75,
              "duration": 0.21875
            },
            {
              "pitch": 70,
              "velocity": 76,
              "position": 23.75,
              "duration": 0.21875
            },
            {
              "pitch": 70,
              "velocity": 116,
              "position": 24,
              "duration": 0.22916666666666666
            },
            {
              "pitch": 64,
              "velocity": 96,
              "position": 24,
              "duration": 0.23958333333333334
            },
            {
              "pitch": 58,
              "velocity": 92,
              "position": 24,
              "duration": 0.23958333333333334
            },
            {
              "pitch": 64,
              "velocity": 88,
              "position": 25.25,
              "duration": 0.14583333333333334
            },
            {
              "pitch": 70,
              "velocity": 88,
              "position": 25.25,
              "duration": 0.16666666666666666
            },
            {
              "pitch": 58,
              "velocity": 104,
              "position": 25.25,
              "duration": 0.16666666666666666
            },
            {
              "pitch": 62,
              "velocity": 124,
              "position": 25.75,
              "duration": 0.17708333333333334
            },
            {
              "pitch": 58,
              "velocity": 100,
              "position": 25.75,
              "duration": 0.17708333333333334
            },
            {
              "pitch": 70,
              "velocity": 110,
              "position": 25.75,
              "duration": 0.19791666666666666
            },
            {
              "pitch": 58,
              "velocity": 80,
              "position": 26.25,
              "duration": 0.1875
            },
            {
              "pitch": 70,
              "velocity": 88,
              "position": 26.25,
              "duration": 0.19791666666666666
            },
            {
              "pitch": 64,
              "velocity": 76,
              "position": 26.25,
              "duration": 0.20833333333333334
            },
            {
              "pitch": 62,
              "velocity": 104,
              "position": 26.5,
              "duration": 0.20833333333333334
            },
            {
              "pitch": 58,
              "velocity": 92,
              "position": 26.5,
              "duration": 0.20833333333333334
            },
            {
              "pitch": 70,
              "velocity": 88,
              "position": 26.5,
              "duration": 0.21875
            },
            {
              "pitch": 57,
              "velocity": 122,
              "position": 26.75,
              "duration": 0.11458333333333333
            },
            {
              "pitch": 60,
              "velocity": 122,
              "position": 26.75,
              "duration": 0.11458333333333333
            },
            {
              "pitch": 65,
              "velocity": 126,
              "position": 26.75,
              "duration": 0.125
            },
            {
              "pitch": 57,
              "velocity": 94,
              "position": 27.260416666666668,
              "duration": 0.11458333333333333
            },
            {
              "pitch": 62,
              "velocity": 80,
              "position": 27.260416666666668,
              "duration": 0.125
            },
            {
              "pitch": 65,
              "velocity": 104,
              "position": 27.260416666666668,
              "duration": 0.125
            },
            {
              "pitch": 70,
              "velocity": 92,
              "position": 28.25,
              "duration": 0.21875
            },
            {
              "pitch": 58,
              "velocity": 92,
              "position": 28.260416666666668,
              "duration": 0.21875
            },
            {
              "pitch": 64,
              "velocity": 110,
              "position": 28.260416666666668,
              "duration": 0.21875
            },
            {
              "pitch": 64,
              "velocity": 50,
              "position": 28.5,
              "duration": 0.22916666666666666
            },
            {
              "pitch": 70,
              "velocity": 56,
              "position": 28.489583333333332,
              "duration": 0.25
            },
            {
              "pitch": 58,
              "velocity": 58,
              "position": 28.5,
              "duration": 0.23958333333333334
            },
            {
              "pitch": 58,
              "velocity": 108,
              "position": 28.760416666666668,
              "duration": 0.16666666666666666
            },
            {
              "pitch": 70,
              "velocity": 104,
              "position": 28.760416666666668,
              "duration": 0.17708333333333334
            },
            {
              "pitch": 64,
              "velocity": 110,
              "position": 28.760416666666668,
              "duration": 0.17708333333333334
            },
            {
              "pitch": 58,
              "velocity": 110,
              "position": 29.25,
              "duration": 0.21875
            },
            {
              "pitch": 64,
              "velocity": 110,
              "position": 29.25,
              "duration": 0.21875
            },
            {
              "pitch": 60,
              "velocity": 110,
              "position": 29.25,
              "duration": 0.21875
            },
            {
              "pitch": 57,
              "velocity": 90,
              "position": 29.75,
              "duration": 0.21875
            },
            {
              "pitch": 62,
              "velocity": 86,
              "position": 29.75,
              "duration": 0.21875
            },
            {
              "pitch": 65,
              "velocity": 86,
              "position": 29.760416666666668,
              "duration": 0.21875
            },
            {
              "pitch": 64,
              "velocity": 108,
              "position": 29.989583333333332,
              "duration": 0.25
            },
            {
              "pitch": 58,
              "velocity": 108,
              "position": 30,
              "duration": 0.23958333333333334
            },
            {
              "pitch": 70,
              "velocity": 108,
              "position": 30,
              "duration": 0.25
            },
            {
              "pitch": 58,
              "velocity": 126,
              "position": 30.270833333333332,
              "duration": 0.19791666666666666
            },
            {
              "pitch": 62,
              "velocity": 126,
              "position": 30.270833333333332,
              "duration": 0.19791666666666666
            },
            {
              "pitch": 70,
              "velocity": 126,
              "position": 30.270833333333332,
              "duration": 0.20833333333333334
            },
            {
              "pitch": 60,
              "velocity": 118,
              "position": 30.760416666666668,
              "duration": 0.7291666666666666
            },
            {
              "pitch": 58,
              "velocity": 106,
              "position": 30.760416666666668,
              "duration": 0.7291666666666666
            },
            {
              "pitch": 64,
              "velocity": 110,
              "position": 30.760416666666668,
              "duration": 0.7395833333333334
            }
          ]
        },
        "8": {
          "ctab": {
            "srcChannel": 8,
            "name": "Std.Kit1",
            "accType": "RHYTHM",
            "editable": false,
            "mutedNotes": [],
            "mutedChords": [],
            "autoStart": true,
            "sourceChordNote": 0,
            "sourceChordType": "Maj7",
            "ctb2Low": null,
            "ctb2Main": {
              "ntr": "ROOT_FIXED",
              "ntt": "BYPASS",
              "bassOn": false,
              "chordRootUpperLimit": 6,
              "noteLowLimit": 0,
              "noteHighLimit": 127,
              "rtr": "PITCH_SHIFT"
            },
            "ctb2High": null
          },
          "notes": [
            {
              "pitch": 42,
              "velocity": 94,
              "position": 0,
              "duration": 0.015625
            },
            {
              "pitch": 36,
              "velocity": 106,
              "position": 0,
              "duration": 0.015625
            },
            {
              "pitch": 42,
              "velocity": 94,
              "position": 0.5,
              "duration": 0.015625
            },
            {
              "pitch": 36,
              "velocity": 106,
              "position": 0.75,
              "duration": 0.015625
            },
            {
              "pitch": 38,
              "velocity": 118,
              "position": 1,
              "duration": 0.015625
            },
            {
              "pitch": 42,
              "velocity": 68,
              "position": 1.0104166666666667,
              "duration": 0.015625
            },
            {
              "pitch": 42,
              "velocity": 94,
              "position": 1.2604166666666667,
              "duration": 0.015625
            },
            {
              "pitch": 55,
              "velocity": 110,
              "position": 1.7395833333333333,
              "duration": 0.015625
            },
            {
              "pitch": 42,
              "velocity": 76,
              "position": 1.75,
              "duration": 0.015625
            },
            {
              "pitch": 42,
              "velocity": 94,
              "position": 2,
              "duration": 0.015625
            },
            {
              "pitch": 42,
              "velocity": 68,
              "position": 2.5,
              "duration": 0.015625
            },
            {
              "pitch": 42,
              "velocity": 84,
              "position": 2.75,
              "duration": 0.015625
            },
            {
              "pitch": 36,
              "velocity": 106,
              "position": 2.7604166666666665,
              "duration": 0.015625
            },
            {
              "pitch": 42,
              "velocity": 94,
              "position": 3.2604166666666665,
              "duration": 0.015625
            },
            {
              "pitch": 42,
              "velocity": 68,
              "position": 3.75,
              "duration": 0.015625
            },
            {
              "pitch": 36,
              "velocity": 106,
              "position": 4,
              "duration": 0.015625
            },
            {
              "pitch": 42,
              "velocity": 92,
              "position": 4,
              "duration": 0.015625
            },
            {
              "pitch": 42,
              "velocity": 94,
              "position": 4.5,
              "duration": 0.015625
            },
            {
              "pitch": 36,
              "velocity": 106,
              "position": 4.760416666666667,
              "duration": 0.015625
            },
            {
              "pitch": 38,
              "velocity": 118,
              "position": 5,
              "duration": 0.015625
            },
            {
              "pitch": 42,
              "velocity": 62,
              "position": 5.010416666666667,
              "duration": 0.015625
            },
            {
              "pitch": 42,
              "velocity": 94,
              "position": 5.260416666666667,
              "duration": 0.015625
            },
            {
              "pitch": 42,
              "velocity": 78,
              "position": 5.75,
              "duration": 0.015625
            },
            {
              "pitch": 42,
              "velocity": 96,
              "position": 6,
              "duration": 0.015625
            },
            {
              "pitch": 38,
              "velocity": 98,
              "position": 6.25,
              "duration": 0.015625
            },
            {
              "pitch": 42,
              "velocity": 62,
              "position": 6.5,
              "duration": 0.015625
            },
            {
              "pitch": 36,
              "velocity": 106,
              "position": 6.739583333333333,
              "duration": 0.015625
            },
            {
              "pitch": 42,
              "velocity": 90,
              "position": 6.760416666666667,
              "duration": 0.015625
            },
            {
              "pitch": 42,
              "velocity": 94,
              "position": 7.25,
              "duration": 0.015625
            },
            {
              "pitch": 42,
              "velocity": 68,
              "position": 7.75,
              "duration": 0.015625
            },
            {
              "pitch": 36,
              "velocity": 106,
              "position": 8,
              "duration": 0.015625
            },
            {
              "pitch": 42,
              "velocity": 94,
              "position": 8,
              "duration": 0.015625
            },
            {
              "pitch": 42,
              "velocity": 90,
              "position": 8.5,
              "duration": 0.015625
            },
            {
              "pitch": 36,
              "velocity": 106,
              "position": 8.760416666666666,
              "duration": 0.015625
            },
            {
              "pitch": 38,
              "velocity": 118,
              "position": 9,
              "duration": 0.015625
            },
            {
              "pitch": 42,
              "velocity": 62,
              "position": 9.010416666666666,
              "duration": 0.015625
            },
            {
              "pitch": 42,
              "velocity": 90,
              "position": 9.260416666666666,
              "duration": 0.015625
            },
            {
              "pitch": 42,
              "velocity": 68,
              "position": 9.75,
              "duration": 0.015625
            },
            {
              "pitch": 42,
              "velocity": 94,
              "position": 10,
              "duration": 0.015625
            },
            {
              "pitch": 42,
              "velocity": 62,
              "position": 10.489583333333334,
              "duration": 0.015625
            },
            {
              "pitch": 42,
              "velocity": 94,
              "position": 10.760416666666666,
              "duration": 0.015625
            },
            {
              "pitch": 36,
              "velocity": 106,
              "position": 10.760416666666666,
              "duration": 0.015625
            },
            {
              "pitch": 42,
              "velocity": 86,
              "position": 11.260416666666666,
              "duration": 0.015625
            },
            {
              "pitch": 42,
              "velocity": 78,
              "position": 11.75,
              "duration": 0.015625
            },
            {
              "pitch": 36,
              "velocity": 106,
              "position": 12,
              "duration": 0.015625
            },
            {
              "pitch": 42,
              "velocity": 94,
              "position": 12,
              "duration": 0.015625
            },
            {
              "pitch": 42,
              "velocity": 94,
              "position": 12.5,
              "duration": 0.015625
            },
            {
              "pitch": 36,
              "velocity": 106,
              "position": 12.760416666666666,
              "duration": 0.015625
            },
            {
              "pitch": 38,
              "velocity": 118,
              "position": 13,
              "duration": 0.015625
            },
            {
              "pitch": 42,
              "velocity": 68,
              "position": 13.010416666666666,
              "duration": 0.015625
            },
            {
              "pitch": 42,
              "velocity": 94,
              "position": 13.260416666666666,
              "duration": 0.015625
            },
            {
              "pitch": 42,
              "velocity": 80,
              "position": 13.75,
              "duration": 0.015625
            },
            {
              "pitch": 42,
              "velocity": 96,
              "position": 14,
              "duration": 0.015625
            },
            {
              "pitch": 38,
              "velocity": 98,
              "position": 14.260416666666666,
              "duration": 0.015625
            },
            {
              "pitch": 42,
              "velocity": 68,
              "position": 14.5,
              "duration": 0.015625
            },
            {
              "pitch": 42,
              "velocity": 94,
              "position": 14.760416666666666,
              "duration": 0.015625
            },
            {
              "pitch": 36,
              "velocity": 106,
              "position": 14.770833333333334,
              "duration": 0.015625
            },
            {
              "pitch": 42,
              "velocity": 94,
              "position": 15.25,
              "duration": 0.015625
            },
            {
              "pitch": 36,
              "velocity": 106,
              "position": 15.5,
              "duration": 0.015625
            },
            {
              "pitch": 42,
              "velocity": 68,
              "position": 15.75,
              "duration": 0.015625
            },
            {
              "pitch": 42,
              "velocity": 94,
              "position": 16,
              "duration": 0.015625
            },
            {
              "pitch": 36,
              "velocity": 106,
              "position": 16,
              "duration": 0.015625
            },
            {
              "pitch": 42,
              "velocity": 94,
              "position": 16.5,
              "duration": 0.015625
            },
            {
              "pitch": 55,
              "velocity": 110,
              "position": 16.510416666666668,
              "duration": 0.015625
            },
            {
              "pitch": 36,
              "velocity": 106,
              "position": 16.75,
              "duration": 0.015625
            },
            {
              "pitch": 38,
              "velocity": 114,
              "position": 17,
              "duration": 0.015625
            },
            {
              "pitch": 42,
              "velocity": 68,
              "position": 17.010416666666668,
              "duration": 0.015625
            },
            {
              "pitch": 42,
              "velocity": 94,
              "position": 17.260416666666668,
              "duration": 0.015625
            },
            {
              "pitch": 42,
              "velocity": 76,
              "position": 17.75,
              "duration": 0.015625
            },
            {
              "pitch": 42,
              "velocity": 94,
              "position": 18,
              "duration": 0.015625
            },
            {
              "pitch": 42,
              "velocity": 68,
              "position": 18.5,
              "duration": 0.015625
            },
            {
              "pitch": 42,
              "velocity": 84,
              "position": 18.75,
              "duration": 0.015625
            },
            {
              "pitch": 36,
              "velocity": 106,
              "position": 18.760416666666668,
              "duration": 0.015625
            },
            {
              "pitch": 42,
              "velocity": 94,
              "position": 19.260416666666668,
              "duration": 0.015625
            },
            {
              "pitch": 42,
              "velocity": 68,
              "position": 19.75,
              "duration": 0.015625
            },
            {
              "pitch": 36,
              "velocity": 106,
              "position": 20,
              "duration": 0.015625
            },
            {
              "pitch": 42,
              "velocity": 92,
              "position": 20,
              "duration": 0.015625
            },
            {
              "pitch": 42,
              "velocity": 94,
              "position": 20.5,
              "duration": 0.015625
            },
            {
              "pitch": 36,
              "velocity": 106,
              "position": 20.760416666666668,
              "duration": 0.015625
            },
            {
              "pitch": 38,
              "velocity": 118,
              "position": 21,
              "duration": 0.015625
            },
            {
              "pitch": 42,
              "velocity": 62,
              "position": 21.010416666666668,
              "duration": 0.015625
            },
            {
              "pitch": 42,
              "velocity": 94,
              "position": 21.260416666666668,
              "duration": 0.015625
            },
            {
              "pitch": 42,
              "velocity": 78,
              "position": 21.75,
              "duration": 0.015625
            },
            {
              "pitch": 42,
              "velocity": 96,
              "position": 22,
              "duration": 0.015625
            },
            {
              "pitch": 38,
              "velocity": 98,
              "position": 22.25,
              "duration": 0.015625
            },
            {
              "pitch": 42,
              "velocity": 62,
              "position": 22.5,
              "duration": 0.015625
            },
            {
              "pitch": 36,
              "velocity": 106,
              "position": 22.739583333333332,
              "duration": 0.015625
            },
            {
              "pitch": 42,
              "velocity": 90,
              "position": 22.760416666666668,
              "duration": 0.015625
            },
            {
              "pitch": 42,
              "velocity": 94,
              "position": 23.25,
              "duration": 0.015625
            },
            {
              "pitch": 42,
              "velocity": 68,
              "position": 23.75,
              "duration": 0.015625
            },
            {
              "pitch": 36,
              "velocity": 106,
              "position": 24,
              "duration": 0.015625
            },
            {
              "pitch": 42,
              "velocity": 94,
              "position": 24,
              "duration": 0.015625
            },
            {
              "pitch": 42,
              "velocity": 90,
              "position": 24.5,
              "duration": 0.015625
            },
            {
              "pitch": 36,
              "velocity": 106,
              "position": 24.760416666666668,
              "duration": 0.015625
            },
            {
              "pitch": 38,
              "velocity": 118,
              "position": 25,
              "duration": 0.015625
            },
            {
              "pitch": 42,
              "velocity": 62,
              "position": 25.010416666666668,
              "duration": 0.015625
            },
            {
              "pitch": 42,
              "velocity": 90,
              "position": 25.260416666666668,
              "duration": 0.015625
            },
            {
              "pitch": 42,
              "velocity": 68,
              "position": 25.75,
              "duration": 0.015625
            },
            {
              "pitch": 42,
              "velocity": 94,
              "position": 26,
              "duration": 0.015625
            },
            {
              "pitch": 42,
              "velocity": 62,
              "position": 26.489583333333332,
              "duration": 0.015625
            },
            {
              "pitch": 42,
              "velocity": 94,
              "position": 26.760416666666668,
              "duration": 0.015625
            },
            {
              "pitch": 36,
              "velocity": 106,
              "position": 26.760416666666668,
              "duration": 0.015625
            },
            {
              "pitch": 42,
              "velocity": 86,
              "position": 27.260416666666668,
              "duration": 0.015625
            },
            {
              "pitch": 42,
              "velocity": 78,
              "position": 27.75,
              "duration": 0.015625
            },
            {
              "pitch": 36,
              "velocity": 106,
              "position": 28,
              "duration": 0.015625
            },
            {
              "pitch": 42,
              "velocity": 94,
              "position": 28,
              "duration": 0.015625
            },
            {
              "pitch": 42,
              "velocity": 94,
              "position": 28.5,
              "duration": 0.015625
            },
            {
              "pitch": 36,
              "velocity": 106,
              "position": 28.760416666666668,
              "duration": 0.015625
            },
            {
              "pitch": 38,
              "velocity": 118,
              "position": 29,
              "duration": 0.015625
            },
            {
              "pitch": 42,
              "velocity": 68,
              "position": 29.010416666666668,
              "duration": 0.015625
            },
            {
              "pitch": 42,
              "velocity": 94,
              "position": 29.260416666666668,
              "duration": 0.015625
            },
            {
              "pitch": 42,
              "velocity": 80,
              "position": 29.75,
              "duration": 0.015625
            },
            {
              "pitch": 42,
              "velocity": 96,
              "position": 30,
              "duration": 0.015625
            },
            {
              "pitch": 38,
              "velocity": 98,
              "position": 30.260416666666668,
              "duration": 0.015625
            },
            {
              "pitch": 42,
              "velocity": 68,
              "position": 30.5,
              "duration": 0.015625
            },
            {
              "pitch": 42,
              "velocity": 94,
              "position": 30.760416666666668,
              "duration": 0.015625
            },
            {
              "pitch": 36,
              "velocity": 106,
              "position": 30.770833333333332,
              "duration": 0.015625
            },
            {
              "pitch": 42,
              "velocity": 94,
              "position": 31.25,
              "duration": 0.015625
            },
            {
              "pitch": 36,
              "velocity": 106,
              "position": 31.5,
              "duration": 0.015625
            },
            {
              "pitch": 42,
              "velocity": 68,
              "position": 31.75,
              "duration": 0.015625
            }
          ]
        },
        "10": {
          "ctab": {
            "srcChannel": 10,
            "name": "Std.Kit1",
            "accType": "SUBRHYTHM",
            "editable": false,
            "mutedNotes": [],
            "mutedChords": [],
            "autoStart": true,
            "sourceChordNote": 0,
            "sourceChordType": "Maj7",
            "ctb2Low": null,
            "ctb2Main": {
              "ntr": "ROOT_FIXED",
              "ntt": "BYPASS",
              "bassOn": false,
              "chordRootUpperLimit": 6,
              "noteLowLimit": 0,
              "noteHighLimit": 127,
              "rtr": "PITCH_SHIFT"
            },
            "ctb2High": null
          },
          "notes": [
            {
              "pitch": 68,
              "velocity": 116,
              "position": 0,
              "duration": 0.015625
            },
            {
              "pitch": 62,
              "velocity": 104,
              "position": 0,
              "duration": 0.015625
            },
            {
              "pitch": 56,
              "velocity": 110,
              "position": 0,
              "duration": 0.015625
            },
            {
              "pitch": 66,
              "velocity": 110,
              "position": 0.020833333333333332,
              "duration": 0.015625
            },
            {
              "pitch": 62,
              "velocity": 92,
              "position": 0.25,
              "duration": 0.015625
            },
            {
              "pitch": 56,
              "velocity": 80,
              "position": 0.4895833333333333,
              "duration": 0.015625
            },
            {
              "pitch": 62,
              "velocity": 110,
              "position": 0.5,
              "duration": 0.015625
            },
            {
              "pitch": 75,
              "velocity": 120,
              "position": 0.5,
              "duration": 0.015625
            },
            {
              "pitch": 56,
              "velocity": 110,
              "position": 0.5104166666666666,
              "duration": 0.015625
            },
            {
              "pitch": 65,
              "velocity": 110,
              "position": 0.5104166666666666,
              "duration": 0.015625
            },
            {
              "pitch": 62,
              "velocity": 92,
              "position": 0.75,
              "duration": 0.015625
            },
            {
              "pitch": 68,
              "velocity": 116,
              "position": 1,
              "duration": 0.015625
            },
            {
              "pitch": 62,
              "velocity": 92,
              "position": 1,
              "duration": 0.015625
            },
            {
              "pitch": 75,
              "velocity": 126,
              "position": 1,
              "duration": 0.015625
            },
            {
              "pitch": 56,
              "velocity": 90,
              "position": 1,
              "duration": 0.015625
            },
            {
              "pitch": 65,
              "velocity": 110,
              "position": 1.0208333333333333,
              "duration": 0.015625
            },
            {
              "pitch": 62,
              "velocity": 92,
              "position": 1.25,
              "duration": 0.015625
            },
            {
              "pitch": 56,
              "velocity": 80,
              "position": 1.25,
              "duration": 0.015625
            },
            {
              "pitch": 66,
              "velocity": 104,
              "position": 1.2708333333333333,
              "duration": 0.015625
            },
            {
              "pitch": 56,
              "velocity": 80,
              "position": 1.4895833333333333,
              "duration": 0.015625
            },
            {
              "pitch": 64,
              "velocity": 110,
              "position": 1.5,
              "duration": 0.015625
            },
            {
              "pitch": 56,
              "velocity": 90,
              "position": 1.75,
              "duration": 0.015625
            },
            {
              "pitch": 64,
              "velocity": 92,
              "position": 1.75,
              "duration": 0.015625
            },
            {
              "pitch": 65,
              "velocity": 126,
              "position": 1.78125,
              "duration": 0.015625
            },
            {
              "pitch": 75,
              "velocity": 120,
              "position": 2,
              "duration": 0.015625
            },
            {
              "pitch": 62,
              "velocity": 78,
              "position": 2,
              "duration": 0.015625
            },
            {
              "pitch": 68,
              "velocity": 112,
              "position": 2,
              "duration": 0.015625
            },
            {
              "pitch": 62,
              "velocity": 92,
              "position": 2.25,
              "duration": 0.015625
            },
            {
              "pitch": 56,
              "velocity": 90,
              "position": 2.2604166666666665,
              "duration": 0.015625
            },
            {
              "pitch": 56,
              "velocity": 90,
              "position": 2.4895833333333335,
              "duration": 0.026041666666666668
            },
            {
              "pitch": 62,
              "velocity": 110,
              "position": 2.5,
              "duration": 0.015625
            },
            {
              "pitch": 56,
              "velocity": 80,
              "position": 2.75,
              "duration": 0.015625
            },
            {
              "pitch": 64,
              "velocity": 98,
              "position": 2.75,
              "duration": 0.015625
            },
            {
              "pitch": 75,
              "velocity": 120,
              "position": 2.7604166666666665,
              "duration": 0.015625
            },
            {
              "pitch": 64,
              "velocity": 98,
              "position": 3,
              "duration": 0.015625
            },
            {
              "pitch": 68,
              "velocity": 112,
              "position": 3,
              "duration": 0.015625
            },
            {
              "pitch": 56,
              "velocity": 110,
              "position": 3,
              "duration": 0.015625
            },
            {
              "pitch": 62,
              "velocity": 82,
              "position": 3.25,
              "duration": 0.015625
            },
            {
              "pitch": 56,
              "velocity": 92,
              "position": 3.5,
              "duration": 0.015625
            },
            {
              "pitch": 64,
              "velocity": 110,
              "position": 3.5,
              "duration": 0.015625
            },
            {
              "pitch": 75,
              "velocity": 112,
              "position": 3.5,
              "duration": 0.015625
            },
            {
              "pitch": 64,
              "velocity": 92,
              "position": 3.75,
              "duration": 0.015625
            },
            {
              "pitch": 56,
              "velocity": 72,
              "position": 3.75,
              "duration": 0.026041666666666668
            },
            {
              "pitch": 56,
              "velocity": 110,
              "position": 4,
              "duration": 0.015625
            },
            {
              "pitch": 68,
              "velocity": 116,
              "position": 4,
              "duration": 0.015625
            },
            {
              "pitch": 62,
              "velocity": 82,
              "position": 4,
              "duration": 0.015625
            },
            {
              "pitch": 62,
              "velocity": 82,
              "position": 4.25,
              "duration": 0.015625
            },
            {
              "pitch": 75,
              "velocity": 120,
              "position": 4.5,
              "duration": 0.015625
            },
            {
              "pitch": 62,
              "velocity": 110,
              "position": 4.5,
              "duration": 0.015625
            },
            {
              "pitch": 56,
              "velocity": 94,
              "position": 4.5,
              "duration": 0.026041666666666668
            },
            {
              "pitch": 62,
              "velocity": 92,
              "position": 4.760416666666667,
              "duration": 0.015625
            },
            {
              "pitch": 75,
              "velocity": 126,
              "position": 5,
              "duration": 0.015625
            },
            {
              "pitch": 62,
              "velocity": 82,
              "position": 5,
              "duration": 0.015625
            },
            {
              "pitch": 68,
              "velocity": 114,
              "position": 5,
              "duration": 0.015625
            },
            {
              "pitch": 56,
              "velocity": 90,
              "position": 5,
              "duration": 0.015625
            },
            {
              "pitch": 62,
              "velocity": 92,
              "position": 5.25,
              "duration": 0.015625
            },
            {
              "pitch": 56,
              "velocity": 80,
              "position": 5.25,
              "duration": 0.015625
            },
            {
              "pitch": 56,
              "velocity": 80,
              "position": 5.489583333333333,
              "duration": 0.026041666666666668
            },
            {
              "pitch": 64,
              "velocity": 92,
              "position": 5.5,
              "duration": 0.015625
            },
            {
              "pitch": 56,
              "velocity": 110,
              "position": 5.75,
              "duration": 0.015625
            },
            {
              "pitch": 64,
              "velocity": 92,
              "position": 5.75,
              "duration": 0.015625
            },
            {
              "pitch": 75,
              "velocity": 120,
              "position": 6,
              "duration": 0.015625
            },
            {
              "pitch": 68,
              "velocity": 112,
              "position": 6,
              "duration": 0.015625
            },
            {
              "pitch": 62,
              "velocity": 92,
              "position": 6,
              "duration": 0.015625
            },
            {
              "pitch": 62,
              "velocity": 78,
              "position": 6.25,
              "duration": 0.015625
            },
            {
              "pitch": 56,
              "velocity": 90,
              "position": 6.260416666666667,
              "duration": 0.015625
            },
            {
              "pitch": 62,
              "velocity": 110,
              "position": 6.489583333333333,
              "duration": 0.015625
            },
            {
              "pitch": 56,
              "velocity": 90,
              "position": 6.489583333333333,
              "duration": 0.026041666666666668
            },
            {
              "pitch": 56,
              "velocity": 92,
              "position": 6.75,
              "duration": 0.015625
            },
            {
              "pitch": 64,
              "velocity": 80,
              "position": 6.75,
              "duration": 0.015625
            },
            {
              "pitch": 75,
              "velocity": 120,
              "position": 6.760416666666667,
              "duration": 0.015625
            },
            {
              "pitch": 64,
              "velocity": 92,
              "position": 6.989583333333333,
              "duration": 0.015625
            },
            {
              "pitch": 68,
              "velocity": 112,
              "position": 7,
              "duration": 0.015625
            },
            {
              "pitch": 56,
              "velocity": 110,
              "position": 7,
              "duration": 0.015625
            },
            {
              "pitch": 62,
              "velocity": 82,
              "position": 7.25,
              "duration": 0.015625
            },
            {
              "pitch": 56,
              "velocity": 92,
              "position": 7.489583333333333,
              "duration": 0.026041666666666668
            },
            {
              "pitch": 64,
              "velocity": 110,
              "position": 7.5,
              "duration": 0.015625
            },
            {
              "pitch": 75,
              "velocity": 112,
              "position": 7.5,
              "duration": 0.015625
            },
            {
              "pitch": 56,
              "velocity": 94,
              "position": 7.75,
              "duration": 0.015625
            },
            {
              "pitch": 64,
              "velocity": 90,
              "position": 7.75,
              "duration": 0.015625
            },
            {
              "pitch": 62,
              "velocity": 78,
              "position": 8,
              "duration": 0.015625
            },
            {
              "pitch": 56,
              "velocity": 110,
              "position": 8,
              "duration": 0.015625
            },
            {
              "pitch": 68,
              "velocity": 112,
              "position": 8,
              "duration": 0.015625
            },
            {
              "pitch": 62,
              "velocity": 74,
              "position": 8.25,
              "duration": 0.015625
            },
            {
              "pitch": 62,
              "velocity": 110,
              "position": 8.5,
              "duration": 0.015625
            },
            {
              "pitch": 75,
              "velocity": 120,
              "position": 8.5,
              "duration": 0.015625
            },
            {
              "pitch": 56,
              "velocity": 110,
              "position": 8.5,
              "duration": 0.015625
            },
            {
              "pitch": 62,
              "velocity": 92,
              "position": 8.75,
              "duration": 0.015625
            },
            {
              "pitch": 62,
              "velocity": 78,
              "position": 9,
              "duration": 0.015625
            },
            {
              "pitch": 56,
              "velocity": 80,
              "position": 9,
              "duration": 0.015625
            },
            {
              "pitch": 75,
              "velocity": 126,
              "position": 9,
              "duration": 0.015625
            },
            {
              "pitch": 68,
              "velocity": 112,
              "position": 9.010416666666666,
              "duration": 0.015625
            },
            {
              "pitch": 62,
              "velocity": 92,
              "position": 9.25,
              "duration": 0.015625
            },
            {
              "pitch": 56,
              "velocity": 64,
              "position": 9.25,
              "duration": 0.015625
            },
            {
              "pitch": 64,
              "velocity": 92,
              "position": 9.5,
              "duration": 0.015625
            },
            {
              "pitch": 56,
              "velocity": 92,
              "position": 9.5,
              "duration": 0.015625
            },
            {
              "pitch": 64,
              "velocity": 92,
              "position": 9.75,
              "duration": 0.015625
            },
            {
              "pitch": 56,
              "velocity": 92,
              "position": 9.75,
              "duration": 0.026041666666666668
            },
            {
              "pitch": 75,
              "velocity": 120,
              "position": 10,
              "duration": 0.015625
            },
            {
              "pitch": 62,
              "velocity": 102,
              "position": 10,
              "duration": 0.015625
            },
            {
              "pitch": 68,
              "velocity": 112,
              "position": 10,
              "duration": 0.015625
            },
            {
              "pitch": 62,
              "velocity": 92,
              "position": 10.25,
              "duration": 0.015625
            },
            {
              "pitch": 56,
              "velocity": 80,
              "position": 10.260416666666666,
              "duration": 0.015625
            },
            {
              "pitch": 56,
              "velocity": 90,
              "position": 10.489583333333334,
              "duration": 0.026041666666666668
            },
            {
              "pitch": 62,
              "velocity": 110,
              "position": 10.5,
              "duration": 0.015625
            },
            {
              "pitch": 56,
              "velocity": 94,
              "position": 10.75,
              "duration": 0.015625
            },
            {
              "pitch": 64,
              "velocity": 98,
              "position": 10.75,
              "duration": 0.015625
            },
            {
              "pitch": 75,
              "velocity": 120,
              "position": 10.760416666666666,
              "duration": 0.015625
            },
            {
              "pitch": 66,
              "velocity": 86,
              "position": 10.760416666666666,
              "duration": 0.015625
            },
            {
              "pitch": 66,
              "velocity": 100,
              "position": 10.875,
              "duration": 0.015625
            },
            {
              "pitch": 66,
              "velocity": 110,
              "position": 10.989583333333334,
              "duration": 0.015625
            },
            {
              "pitch": 64,
              "velocity": 98,
              "position": 11,
              "duration": 0.015625
            },
            {
              "pitch": 68,
              "velocity": 112,
              "position": 11,
              "duration": 0.015625
            },
            {
              "pitch": 56,
              "velocity": 108,
              "position": 11.010416666666666,
              "duration": 0.015625
            },
            {
              "pitch": 62,
              "velocity": 82,
              "position": 11.25,
              "duration": 0.015625
            },
            {
              "pitch": 66,
              "velocity": 86,
              "position": 11.25,
              "duration": 0.015625
            },
            {
              "pitch": 56,
              "velocity": 80,
              "position": 11.489583333333334,
              "duration": 0.026041666666666668
            },
            {
              "pitch": 64,
              "velocity": 92,
              "position": 11.5,
              "duration": 0.015625
            },
            {
              "pitch": 75,
              "velocity": 112,
              "position": 11.5,
              "duration": 0.015625
            },
            {
              "pitch": 65,
              "velocity": 94,
              "position": 11.510416666666666,
              "duration": 0.015625
            },
            {
              "pitch": 65,
              "velocity": 106,
              "position": 11.75,
              "duration": 0.015625
            },
            {
              "pitch": 64,
              "velocity": 92,
              "position": 11.75,
              "duration": 0.015625
            },
            {
              "pitch": 56,
              "velocity": 92,
              "position": 11.75,
              "duration": 0.015625
            },
            {
              "pitch": 62,
              "velocity": 92,
              "position": 12,
              "duration": 0.015625
            },
            {
              "pitch": 68,
              "velocity": 112,
              "position": 12,
              "duration": 0.015625
            },
            {
              "pitch": 65,
              "velocity": 126,
              "position": 12,
              "duration": 0.015625
            },
            {
              "pitch": 56,
              "velocity": 110,
              "position": 12,
              "duration": 0.015625
            },
            {
              "pitch": 62,
              "velocity": 92,
              "position": 12.25,
              "duration": 0.015625
            },
            {
              "pitch": 62,
              "velocity": 110,
              "position": 12.5,
              "duration": 0.015625
            },
            {
              "pitch": 56,
              "velocity": 90,
              "position": 12.5,
              "duration": 0.015625
            },
            {
              "pitch": 75,
              "velocity": 120,
              "position": 12.5,
              "duration": 0.015625
            },
            {
              "pitch": 62,
              "velocity": 92,
              "position": 12.75,
              "duration": 0.015625
            },
            {
              "pitch": 56,
              "velocity": 80,
              "position": 12.989583333333334,
              "duration": 0.015625
            },
            {
              "pitch": 62,
              "velocity": 88,
              "position": 13,
              "duration": 0.015625
            },
            {
              "pitch": 68,
              "velocity": 112,
              "position": 13,
              "duration": 0.015625
            },
            {
              "pitch": 75,
              "velocity": 114,
              "position": 13.010416666666666,
              "duration": 0.015625
            },
            {
              "pitch": 62,
              "velocity": 92,
              "position": 13.25,
              "duration": 0.015625
            },
            {
              "pitch": 56,
              "velocity": 64,
              "position": 13.25,
              "duration": 0.015625
            },
            {
              "pitch": 56,
              "velocity": 92,
              "position": 13.489583333333334,
              "duration": 0.026041666666666668
            },
            {
              "pitch": 64,
              "velocity": 110,
              "position": 13.5,
              "duration": 0.015625
            },
            {
              "pitch": 64,
              "velocity": 92,
              "position": 13.75,
              "duration": 0.015625
            },
            {
              "pitch": 56,
              "velocity": 94,
              "position": 13.75,
              "duration": 0.026041666666666668
            },
            {
              "pitch": 62,
              "velocity": 88,
              "position": 14,
              "duration": 0.015625
            },
            {
              "pitch": 68,
              "velocity": 112,
              "position": 14,
              "duration": 0.015625
            },
            {
              "pitch": 75,
              "velocity": 120,
              "position": 14.010416666666666,
              "duration": 0.015625
            },
            {
              "pitch": 62,
              "velocity": 92,
              "position": 14.25,
              "duration": 0.015625
            },
            {
              "pitch": 56,
              "velocity": 90,
              "position": 14.260416666666666,
              "duration": 0.015625
            },
            {
              "pitch": 62,
              "velocity": 110,
              "position": 14.489583333333334,
              "duration": 0.015625
            },
            {
              "pitch": 56,
              "velocity": 80,
              "position": 14.489583333333334,
              "duration": 0.026041666666666668
            },
            {
              "pitch": 56,
              "velocity": 92,
              "position": 14.75,
              "duration": 0.015625
            },
            {
              "pitch": 64,
              "velocity": 92,
              "position": 14.75,
              "duration": 0.015625
            },
            {
              "pitch": 75,
              "velocity": 112,
              "position": 14.760416666666666,
              "duration": 0.015625
            },
            {
              "pitch": 64,
              "velocity": 92,
              "position": 15,
              "duration": 0.015625
            },
            {
              "pitch": 68,
              "velocity": 112,
              "position": 15,
              "duration": 0.015625
            },
            {
              "pitch": 56,
              "velocity": 110,
              "position": 15,
              "duration": 0.015625
            },
            {
              "pitch": 62,
              "velocity": 92,
              "position": 15.25,
              "duration": 0.015625
            },
            {
              "pitch": 66,
              "velocity": 110,
              "position": 15.28125,
              "duration": 0.015625
            },
            {
              "pitch": 56,
              "velocity": 90,
              "position": 15.489583333333334,
              "duration": 0.026041666666666668
            },
            {
              "pitch": 64,
              "velocity": 92,
              "position": 15.5,
              "duration": 0.015625
            },
            {
              "pitch": 75,
              "velocity": 120,
              "position": 15.5,
              "duration": 0.015625
            },
            {
              "pitch": 66,
              "velocity": 90,
              "position": 15.53125,
              "duration": 0.015625
            },
            {
              "pitch": 66,
              "velocity": 110,
              "position": 15.75,
              "duration": 0.015625
            },
            {
              "pitch": 64,
              "velocity": 90,
              "position": 15.75,
              "duration": 0.015625
            },
            {
              "pitch": 56,
              "velocity": 94,
              "position": 15.75,
              "duration": 0.026041666666666668
            },
            {
              "pitch": 68,
              "velocity": 116,
              "position": 16,
              "duration": 0.015625
            },
            {
              "pitch": 62,
              "velocity": 82,
              "position": 16,
              "duration": 0.015625
            },
            {
              "pitch": 56,
              "velocity": 110,
              "position": 16,
              "duration": 0.015625
            },
            {
              "pitch": 65,
              "velocity": 122,
              "position": 16.03125,
              "duration": 0.015625
            },
            {
              "pitch": 62,
              "velocity": 82,
              "position": 16.25,
              "duration": 0.015625
            },
            {
              "pitch": 56,
              "velocity": 80,
              "position": 16.489583333333332,
              "duration": 0.015625
            },
            {
              "pitch": 62,
              "velocity": 110,
              "position": 16.5,
              "duration": 0.015625
            },
            {
              "pitch": 75,
              "velocity": 120,
              "position": 16.5,
              "duration": 0.015625
            },
            {
              "pitch": 56,
              "velocity": 110,
              "position": 16.510416666666668,
              "duration": 0.015625
            },
            {
              "pitch": 65,
              "velocity": 110,
              "position": 16.520833333333332,
              "duration": 0.015625
            },
            {
              "pitch": 62,
              "velocity": 92,
              "position": 16.75,
              "duration": 0.015625
            },
            {
              "pitch": 68,
              "velocity": 116,
              "position": 17,
              "duration": 0.015625
            },
            {
              "pitch": 62,
              "velocity": 82,
              "position": 17,
              "duration": 0.015625
            },
            {
              "pitch": 75,
              "velocity": 126,
              "position": 17,
              "duration": 0.015625
            },
            {
              "pitch": 56,
              "velocity": 90,
              "position": 17,
              "duration": 0.015625
            },
            {
              "pitch": 62,
              "velocity": 92,
              "position": 17.25,
              "duration": 0.015625
            },
            {
              "pitch": 56,
              "velocity": 80,
              "position": 17.25,
              "duration": 0.015625
            },
            {
              "pitch": 56,
              "velocity": 80,
              "position": 17.489583333333332,
              "duration": 0.015625
            },
            {
              "pitch": 64,
              "velocity": 92,
              "position": 17.5,
              "duration": 0.015625
            },
            {
              "pitch": 64,
              "velocity": 92,
              "position": 17.75,
              "duration": 0.015625
            },
            {
              "pitch": 56,
              "velocity": 90,
              "position": 17.75,
              "duration": 0.015625
            },
            {
              "pitch": 75,
              "velocity": 120,
              "position": 18,
              "duration": 0.015625
            },
            {
              "pitch": 62,
              "velocity": 92,
              "position": 18,
              "duration": 0.015625
            },
            {
              "pitch": 68,
              "velocity": 112,
              "position": 18,
              "duration": 0.015625
            },
            {
              "pitch": 62,
              "velocity": 78,
              "position": 18.25,
              "duration": 0.015625
            },
            {
              "pitch": 56,
              "velocity": 90,
              "position": 18.260416666666668,
              "duration": 0.015625
            },
            {
              "pitch": 56,
              "velocity": 90,
              "position": 18.489583333333332,
              "duration": 0.026041666666666668
            },
            {
              "pitch": 62,
              "velocity": 110,
              "position": 18.5,
              "duration": 0.015625
            },
            {
              "pitch": 56,
              "velocity": 80,
              "position": 18.75,
              "duration": 0.015625
            },
            {
              "pitch": 64,
              "velocity": 84,
              "position": 18.75,
              "duration": 0.015625
            },
            {
              "pitch": 75,
              "velocity": 120,
              "position": 18.760416666666668,
              "duration": 0.015625
            },
            {
              "pitch": 64,
              "velocity": 98,
              "position": 19,
              "duration": 0.015625
            },
            {
              "pitch": 68,
              "velocity": 112,
              "position": 19,
              "duration": 0.015625
            },
            {
              "pitch": 56,
              "velocity": 110,
              "position": 19,
              "duration": 0.015625
            },
            {
              "pitch": 62,
              "velocity": 82,
              "position": 19.25,
              "duration": 0.015625
            },
            {
              "pitch": 56,
              "velocity": 92,
              "position": 19.5,
              "duration": 0.015625
            },
            {
              "pitch": 64,
              "velocity": 110,
              "position": 19.5,
              "duration": 0.015625
            },
            {
              "pitch": 75,
              "velocity": 112,
              "position": 19.5,
              "duration": 0.015625
            },
            {
              "pitch": 64,
              "velocity": 90,
              "position": 19.75,
              "duration": 0.015625
            },
            {
              "pitch": 56,
              "velocity": 72,
              "position": 19.75,
              "duration": 0.026041666666666668
            },
            {
              "pitch": 62,
              "velocity": 92,
              "position": 20,
              "duration": 0.015625
            },
            {
              "pitch": 56,
              "velocity": 110,
              "position": 20,
              "duration": 0.015625
            },
            {
              "pitch": 68,
              "velocity": 112,
              "position": 20,
              "duration": 0.015625
            },
            {
              "pitch": 62,
              "velocity": 82,
              "position": 20.25,
              "duration": 0.015625
            },
            {
              "pitch": 62,
              "velocity": 110,
              "position": 20.5,
              "duration": 0.015625
            },
            {
              "pitch": 56,
              "velocity": 110,
              "position": 20.5,
              "duration": 0.015625
            },
            {
              "pitch": 75,
              "velocity": 120,
              "position": 20.5,
              "duration": 0.015625
            },
            {
              "pitch": 62,
              "velocity": 92,
              "position": 20.75,
              "duration": 0.015625
            },
            {
              "pitch": 65,
              "velocity": 110,
              "position": 20.78125,
              "duration": 0.015625
            },
            {
              "pitch": 65,
              "velocity": 110,
              "position": 20.885416666666668,
              "duration": 0.015625
            },
            {
              "pitch": 62,
              "velocity": 92,
              "position": 21,
              "duration": 0.015625
            },
            {
              "pitch": 56,
              "velocity": 80,
              "position": 21,
              "duration": 0.015625
            },
            {
              "pitch": 68,
              "velocity": 112,
              "position": 21.010416666666668,
              "duration": 0.015625
            },
            {
              "pitch": 75,
              "velocity": 114,
              "position": 21.010416666666668,
              "duration": 0.015625
            },
            {
              "pitch": 65,
              "velocity": 126,
              "position": 21.010416666666668,
              "duration": 0.015625
            },
            {
              "pitch": 62,
              "velocity": 92,
              "position": 21.25,
              "duration": 0.015625
            },
            {
              "pitch": 56,
              "velocity": 72,
              "position": 21.25,
              "duration": 0.015625
            },
            {
              "pitch": 66,
              "velocity": 110,
              "position": 21.291666666666668,
              "duration": 0.015625
            },
            {
              "pitch": 56,
              "velocity": 80,
              "position": 21.489583333333332,
              "duration": 0.026041666666666668
            },
            {
              "pitch": 64,
              "velocity": 110,
              "position": 21.5,
              "duration": 0.015625
            },
            {
              "pitch": 66,
              "velocity": 110,
              "position": 21.53125,
              "duration": 0.015625
            },
            {
              "pitch": 64,
              "velocity": 92,
              "position": 21.75,
              "duration": 0.015625
            },
            {
              "pitch": 56,
              "velocity": 110,
              "position": 21.760416666666668,
              "duration": 0.015625
            },
            {
              "pitch": 65,
              "velocity": 118,
              "position": 21.791666666666668,
              "duration": 0.015625
            },
            {
              "pitch": 62,
              "velocity": 78,
              "position": 22,
              "duration": 0.015625
            },
            {
              "pitch": 75,
              "velocity": 120,
              "position": 22.010416666666668,
              "duration": 0.015625
            },
            {
              "pitch": 68,
              "velocity": 112,
              "position": 22.010416666666668,
              "duration": 0.015625
            },
            {
              "pitch": 62,
              "velocity": 92,
              "position": 22.25,
              "duration": 0.015625
            },
            {
              "pitch": 56,
              "velocity": 80,
              "position": 22.25,
              "duration": 0.015625
            },
            {
              "pitch": 65,
              "velocity": 118,
              "position": 22.28125,
              "duration": 0.015625
            },
            {
              "pitch": 62,
              "velocity": 110,
              "position": 22.5,
              "duration": 0.015625
            },
            {
              "pitch": 56,
              "velocity": 64,
              "position": 22.5,
              "duration": 0.015625
            },
            {
              "pitch": 64,
              "velocity": 88,
              "position": 22.75,
              "duration": 0.015625
            },
            {
              "pitch": 56,
              "velocity": 70,
              "position": 22.75,
              "duration": 0.026041666666666668
            },
            {
              "pitch": 75,
              "velocity": 112,
              "position": 22.760416666666668,
              "duration": 0.015625
            },
            {
              "pitch": 65,
              "velocity": 126,
              "position": 22.78125,
              "duration": 0.015625
            },
            {
              "pitch": 64,
              "velocity": 88,
              "position": 23,
              "duration": 0.015625
            },
            {
              "pitch": 56,
              "velocity": 110,
              "position": 23,
              "duration": 0.015625
            },
            {
              "pitch": 68,
              "velocity": 112,
              "position": 23,
              "duration": 0.015625
            },
            {
              "pitch": 62,
              "velocity": 82,
              "position": 23.25,
              "duration": 0.015625
            },
            {
              "pitch": 64,
              "velocity": 110,
              "position": 23.5,
              "duration": 0.015625
            },
            {
              "pitch": 56,
              "velocity": 80,
              "position": 23.5,
              "duration": 0.015625
            },
            {
              "pitch": 75,
              "velocity": 120,
              "position": 23.5,
              "duration": 0.015625
            },
            {
              "pitch": 64,
              "velocity": 92,
              "position": 23.75,
              "duration": 0.015625
            },
            {
              "pitch": 56,
              "velocity": 80,
              "position": 23.75,
              "duration": 0.015625
            },
            {
              "pitch": 56,
              "velocity": 110,
              "position": 24,
              "duration": 0.015625
            },
            {
              "pitch": 68,
              "velocity": 116,
              "position": 24,
              "duration": 0.015625
            },
            {
              "pitch": 62,
              "velocity": 82,
              "position": 24,
              "duration": 0.015625
            },
            {
              "pitch": 62,
              "velocity": 82,
              "position": 24.25,
              "duration": 0.015625
            },
            {
              "pitch": 75,
              "velocity": 120,
              "position": 24.5,
              "duration": 0.015625
            },
            {
              "pitch": 62,
              "velocity": 110,
              "position": 24.5,
              "duration": 0.015625
            },
            {
              "pitch": 56,
              "velocity": 94,
              "position": 24.5,
              "duration": 0.026041666666666668
            },
            {
              "pitch": 62,
              "velocity": 92,
              "position": 24.760416666666668,
              "duration": 0.015625
            },
            {
              "pitch": 75,
              "velocity": 126,
              "position": 25,
              "duration": 0.015625
            },
            {
              "pitch": 62,
              "velocity": 82,
              "position": 25,
              "duration": 0.015625
            },
            {
              "pitch": 68,
              "velocity": 114,
              "position": 25,
              "duration": 0.015625
            },
            {
              "pitch": 56,
              "velocity": 90,
              "position": 25,
              "duration": 0.015625
            },
            {
              "pitch": 62,
              "velocity": 92,
              "position": 25.25,
              "duration": 0.015625
            },
            {
              "pitch": 56,
              "velocity": 80,
              "position": 25.25,
              "duration": 0.015625
            },
            {
              "pitch": 56,
              "velocity": 80,
              "position": 25.489583333333332,
              "duration": 0.026041666666666668
            },
            {
              "pitch": 64,
              "velocity": 92,
              "position": 25.5,
              "duration": 0.015625
            },
            {
              "pitch": 56,
              "velocity": 110,
              "position": 25.75,
              "duration": 0.015625
            },
            {
              "pitch": 64,
              "velocity": 92,
              "position": 25.75,
              "duration": 0.015625
            },
            {
              "pitch": 75,
              "velocity": 120,
              "position": 26,
              "duration": 0.015625
            },
            {
              "pitch": 68,
              "velocity": 112,
              "position": 26,
              "duration": 0.015625
            },
            {
              "pitch": 62,
              "velocity": 92,
              "position": 26,
              "duration": 0.015625
            },
            {
              "pitch": 62,
              "velocity": 78,
              "position": 26.25,
              "duration": 0.015625
            },
            {
              "pitch": 56,
              "velocity": 90,
              "position": 26.260416666666668,
              "duration": 0.015625
            },
            {
              "pitch": 62,
              "velocity": 110,
              "position": 26.489583333333332,
              "duration": 0.015625
            },
            {
              "pitch": 56,
              "velocity": 90,
              "position": 26.489583333333332,
              "duration": 0.026041666666666668
            },
            {
              "pitch": 56,
              "velocity": 92,
              "position": 26.75,
              "duration": 0.015625
            },
            {
              "pitch": 64,
              "velocity": 80,
              "position": 26.75,
              "duration": 0.015625
            },
            {
              "pitch": 75,
              "velocity": 120,
              "position": 26.760416666666668,
              "duration": 0.015625
            },
            {
              "pitch": 64,
              "velocity": 92,
              "position": 26.989583333333332,
              "duration": 0.015625
            },
            {
              "pitch": 68,
              "velocity": 112,
              "position": 27,
              "duration": 0.015625
            },
            {
              "pitch": 56,
              "velocity": 110,
              "position": 27,
              "duration": 0.015625
            },
            {
              "pitch": 62,
              "velocity": 82,
              "position": 27.25,
              "duration": 0.015625
            },
            {
              "pitch": 56,
              "velocity": 92,
              "position": 27.489583333333332,
              "duration": 0.026041666666666668
            },
            {
              "pitch": 64,
              "velocity": 110,
              "position": 27.5,
              "duration": 0.015625
            },
            {
              "pitch": 75,
              "velocity": 112,
              "position": 27.5,
              "duration": 0.015625
            },
            {
              "pitch": 56,
              "velocity": 94,
              "position": 27.75,
              "duration": 0.015625
            },
            {
              "pitch": 64,
              "velocity": 90,
              "position": 27.75,
              "duration": 0.015625
            },
            {
              "pitch": 62,
              "velocity": 74,
              "position": 28,
              "duration": 0.015625
            },
            {
              "pitch": 68,
              "velocity": 112,
              "position": 28,
              "duration": 0.015625
            },
            {
              "pitch": 56,
              "velocity": 110,
              "position": 28,
              "duration": 0.015625
            },
            {
              "pitch": 62,
              "velocity": 88,
              "position": 28.25,
              "duration": 0.015625
            },
            {
              "pitch": 62,
              "velocity": 110,
              "position": 28.5,
              "duration": 0.015625
            },
            {
              "pitch": 56,
              "velocity": 90,
              "position": 28.5,
              "duration": 0.015625
            },
            {
              "pitch": 75,
              "velocity": 120,
              "position": 28.5,
              "duration": 0.015625
            },
            {
              "pitch": 62,
              "velocity": 82,
              "position": 28.75,
              "duration": 0.015625
            },
            {
              "pitch": 56,
              "velocity": 80,
              "position": 28.989583333333332,
              "duration": 0.015625
            },
            {
              "pitch": 62,
              "velocity": 82,
              "position": 29,
              "duration": 0.015625
            },
            {
              "pitch": 68,
              "velocity": 112,
              "position": 29,
              "duration": 0.015625
            },
            {
              "pitch": 75,
              "velocity": 114,
              "position": 29.010416666666668,
              "duration": 0.015625
            },
            {
              "pitch": 56,
              "velocity": 64,
              "position": 29.25,
              "duration": 0.015625
            },
            {
              "pitch": 62,
              "velocity": 92,
              "position": 29.25,
              "duration": 0.015625
            },
            {
              "pitch": 56,
              "velocity": 92,
              "position": 29.489583333333332,
              "duration": 0.026041666666666668
            },
            {
              "pitch": 64,
              "velocity": 110,
              "position": 29.5,
              "duration": 0.015625
            },
            {
              "pitch": 64,
              "velocity": 90,
              "position": 29.75,
              "duration": 0.015625
            },
            {
              "pitch": 56,
              "velocity": 94,
              "position": 29.75,
              "duration": 0.026041666666666668
            },
            {
              "pitch": 62,
              "velocity": 82,
              "position": 30,
              "duration": 0.015625
            },
            {
              "pitch": 68,
              "velocity": 112,
              "position": 30,
              "duration": 0.015625
            },
            {
              "pitch": 75,
              "velocity": 120,
              "position": 30.010416666666668,
              "duration": 0.015625
            },
            {
              "pitch": 66,
              "velocity": 92,
              "position": 30.239583333333332,
              "duration": 0.015625
            },
            {
              "pitch": 62,
              "velocity": 82,
              "position": 30.25,
              "duration": 0.015625
            },
            {
              "pitch": 56,
              "velocity": 90,
              "position": 30.260416666666668,
              "duration": 0.015625
            },
            {
              "pitch": 66,
              "velocity": 84,
              "position": 30.364583333333332,
              "duration": 0.015625
            },
            {
              "pitch": 56,
              "velocity": 80,
              "position": 30.489583333333332,
              "duration": 0.026041666666666668
            },
            {
              "pitch": 62,
              "velocity": 110,
              "position": 30.5,
              "duration": 0.015625
            },
            {
              "pitch": 66,
              "velocity": 90,
              "position": 30.520833333333332,
              "duration": 0.015625
            },
            {
              "pitch": 56,
              "velocity": 92,
              "position": 30.75,
              "duration": 0.015625
            },
            {
              "pitch": 64,
              "velocity": 98,
              "position": 30.75,
              "duration": 0.015625
            },
            {
              "pitch": 75,
              "velocity": 112,
              "position": 30.760416666666668,
              "duration": 0.015625
            },
            {
              "pitch": 66,
              "velocity": 92,
              "position": 30.8125,
              "duration": 0.015625
            },
            {
              "pitch": 64,
              "velocity": 84,
              "position": 31,
              "duration": 0.015625
            },
            {
              "pitch": 68,
              "velocity": 112,
              "position": 31,
              "duration": 0.015625
            },
            {
              "pitch": 56,
              "velocity": 110,
              "position": 31,
              "duration": 0.015625
            },
            {
              "pitch": 62,
              "velocity": 82,
              "position": 31.25,
              "duration": 0.015625
            },
            {
              "pitch": 66,
              "velocity": 110,
              "position": 31.270833333333332,
              "duration": 0.015625
            },
            {
              "pitch": 56,
              "velocity": 90,
              "position": 31.489583333333332,
              "duration": 0.026041666666666668
            },
            {
              "pitch": 64,
              "velocity": 110,
              "position": 31.5,
              "duration": 0.015625
            },
            {
              "pitch": 75,
              "velocity": 120,
              "position": 31.5,
              "duration": 0.015625
            },
            {
              "pitch": 66,
              "velocity": 110,
              "position": 31.71875,
              "duration": 0.015625
            },
            {
              "pitch": 64,
              "velocity": 92,
              "position": 31.75,
              "duration": 0.015625
            },
            {
              "pitch": 56,
              "velocity": 94,
              "position": 31.75,
              "duration": 0.026041666666666668
            }
          ]
        },
        "12": {
          "ctab": {
            "srcChannel": 12,
            "name": "Aco.Bass",
            "accType": "BASS",
            "editable": false,
            "mutedNotes": [],
            "mutedChords": [
              "dim7",
              "dim",
              "minMaj7(9)",
              "minMaj7",
              "min7(11)",
              "min7(9)",
              "min(9)",
              "m7b5",
              "min7",
              "min6",
              "min"
            ],
            "autoStart": false,
            "sourceChordNote": 0,
            "sourceChordType": "Maj7",
            "ctb2Low": null,
            "ctb2Main": {
              "ntr": "ROOT_TRANSPOSITION",
              "ntt": "MELODY",
              "bassOn": true,
              "chordRootUpperLimit": 3,
              "noteLowLimit": 28,
              "noteHighLimit": 54,
              "rtr": "PITCH_SHIFT_TO_ROOT"
            },
            "ctb2High": null
          },
          "notes": [
            {
              "pitch": 36,
              "velocity": 110,
              "position": 0,
              "duration": 1.2083333333333333
            },
            {
              "pitch": 43,
              "velocity": 94,
              "position": 1.25,
              "duration": 0.4166666666666667
            },
            {
              "pitch": 48,
              "velocity": 110,
              "position": 1.75,
              "duration": 0.7916666666666666
            },
            {
              "pitch": 43,
              "velocity": 94,
              "position": 2.7395833333333335,
              "duration": 0.1875
            },
            {
              "pitch": 43,
              "velocity": 110,
              "position": 3,
              "duration": 0.3333333333333333
            },
            {
              "pitch": 36,
              "velocity": 112,
              "position": 3.4895833333333335,
              "duration": 1.1354166666666667
            },
            {
              "pitch": 40,
              "velocity": 94,
              "position": 4.760416666666667,
              "duration": 0.3229166666666667
            },
            {
              "pitch": 45,
              "velocity": 108,
              "position": 5.260416666666667,
              "duration": 0.28125
            },
            {
              "pitch": 43,
              "velocity": 94,
              "position": 5.75,
              "duration": 0.96875
            },
            {
              "pitch": 31,
              "velocity": 86,
              "position": 6.760416666666667,
              "duration": 0.19791666666666666
            },
            {
              "pitch": 43,
              "velocity": 108,
              "position": 7.25,
              "duration": 0.14583333333333334
            },
            {
              "pitch": 36,
              "velocity": 108,
              "position": 7.510416666666667,
              "duration": 1.3958333333333333
            },
            {
              "pitch": 43,
              "velocity": 110,
              "position": 9.25,
              "duration": 0.3958333333333333
            },
            {
              "pitch": 48,
              "velocity": 110,
              "position": 9.75,
              "duration": 0.8229166666666666
            },
            {
              "pitch": 31,
              "velocity": 76,
              "position": 10.75,
              "duration": 0.16666666666666666
            },
            {
              "pitch": 31,
              "velocity": 110,
              "position": 11,
              "duration": 0.20833333333333334
            },
            {
              "pitch": 36,
              "velocity": 110,
              "position": 11.5,
              "duration": 1.0520833333333333
            },
            {
              "pitch": 50,
              "velocity": 126,
              "position": 12.760416666666666,
              "duration": 0.3645833333333333
            },
            {
              "pitch": 48,
              "velocity": 110,
              "position": 13.25,
              "duration": 0.46875
            },
            {
              "pitch": 43,
              "velocity": 110,
              "position": 13.75,
              "duration": 0.40625
            },
            {
              "pitch": 43,
              "velocity": 110,
              "position": 14.260416666666666,
              "duration": 0.3541666666666667
            },
            {
              "pitch": 31,
              "velocity": 94,
              "position": 14.75,
              "duration": 0.21875
            },
            {
              "pitch": 43,
              "velocity": 126,
              "position": 15.25,
              "duration": 0.20833333333333334
            },
            {
              "pitch": 36,
              "velocity": 110,
              "position": 15.5,
              "duration": 1.4895833333333333
            },
            {
              "pitch": 43,
              "velocity": 110,
              "position": 17.25,
              "duration": 0.375
            },
            {
              "pitch": 48,
              "velocity": 110,
              "position": 17.75,
              "duration": 0.8333333333333334
            },
            {
              "pitch": 43,
              "velocity": 110,
              "position": 18.739583333333332,
              "duration": 0.19791666666666666
            },
            {
              "pitch": 43,
              "velocity": 110,
              "position": 19,
              "duration": 0.20833333333333334
            },
            {
              "pitch": 36,
              "velocity": 112,
              "position": 19.489583333333332,
              "duration": 1.0416666666666667
            },
            {
              "pitch": 40,
              "velocity": 110,
              "position": 20.75,
              "duration": 0.4270833333333333
            },
            {
              "pitch": 45,
              "velocity": 110,
              "position": 21.260416666666668,
              "duration": 0.3958333333333333
            },
            {
              "pitch": 43,
              "velocity": 94,
              "position": 21.760416666666668,
              "duration": 0.8645833333333334
            },
            {
              "pitch": 31,
              "velocity": 94,
              "position": 22.760416666666668,
              "duration": 0.23958333333333334
            },
            {
              "pitch": 43,
              "velocity": 94,
              "position": 23.25,
              "duration": 0.16666666666666666
            },
            {
              "pitch": 36,
              "velocity": 112,
              "position": 23.5,
              "duration": 1.4791666666666667
            },
            {
              "pitch": 43,
              "velocity": 126,
              "position": 25.25,
              "duration": 0.4270833333333333
            },
            {
              "pitch": 48,
              "velocity": 110,
              "position": 25.75,
              "duration": 0.8541666666666666
            },
            {
              "pitch": 43,
              "velocity": 108,
              "position": 26.75,
              "duration": 0.17708333333333334
            },
            {
              "pitch": 43,
              "velocity": 94,
              "position": 27,
              "duration": 0.3125
            },
            {
              "pitch": 31,
              "velocity": 94,
              "position": 27.5,
              "duration": 1.1458333333333333
            },
            {
              "pitch": 50,
              "velocity": 126,
              "position": 28.739583333333332,
              "duration": 0.4270833333333333
            },
            {
              "pitch": 48,
              "velocity": 110,
              "position": 29.25,
              "duration": 0.4791666666666667
            },
            {
              "pitch": 43,
              "velocity": 110,
              "position": 29.75,
              "duration": 0.40625
            },
            {
              "pitch": 43,
              "velocity": 110,
              "position": 30.260416666666668,
              "duration": 0.4583333333333333
            },
            {
              "pitch": 31,
              "velocity": 94,
              "position": 30.760416666666668,
              "duration": 0.22916666666666666
            },
            {
              "pitch": 43,
              "velocity": 112,
              "position": 31.25,
              "duration": 0.1875
            },
            {
              "pitch": 36,
              "velocity": 94,
              "position": 31.5,
              "duration": 0.46875
            }
          ]
        },
        "13": {
          "ctab": {
            "srcChannel": 13,
            "name": "Aco.Bass",
            "accType": "BASS",
            "editable": false,
            "mutedNotes": [],
            "mutedChords": [
              "1+2+5",
              "sus4",
              "1+5",
              "1+8",
              "7aug",
              "Maj7aug",
              "7(#9)",
              "7(b13)",
              "7(b9)",
              "7(13)",
              "7#11",
              "7(9)",
              "7b5",
              "7sus4",
              "7th",
              "aug",
              "Maj6(9)",
              "Maj7(9)",
              "Maj(9)",
              "Maj7#11",
              "Maj7",
              "Maj6",
              "Maj"
            ],
            "autoStart": false,
            "sourceChordNote": 0,
            "sourceChordType": "Maj7",
            "ctb2Low": null,
            "ctb2Main": {
              "ntr": "ROOT_TRANSPOSITION",
              "ntt": "MELODY",
              "bassOn": true,
              "chordRootUpperLimit": 3,
              "noteLowLimit": 28,
              "noteHighLimit": 54,
              "rtr": "PITCH_SHIFT_TO_ROOT"
            },
            "ctb2High": null
          },
          "notes": [
            {
              "pitch": 36,
              "velocity": 110,
              "position": 0,
              "duration": 1.2083333333333333
            },
            {
              "pitch": 43,
              "velocity": 94,
              "position": 1.25,
              "duration": 0.4166666666666667
            },
            {
              "pitch": 48,
              "velocity": 110,
              "position": 1.75,
              "duration": 0.7916666666666666
            },
            {
              "pitch": 43,
              "velocity": 94,
              "position": 2.7395833333333335,
              "duration": 0.1875
            },
            {
              "pitch": 43,
              "velocity": 110,
              "position": 3,
              "duration": 0.3333333333333333
            },
            {
              "pitch": 36,
              "velocity": 112,
              "position": 3.4895833333333335,
              "duration": 1.1354166666666667
            },
            {
              "pitch": 39,
              "velocity": 94,
              "position": 4.760416666666667,
              "duration": 0.3229166666666667
            },
            {
              "pitch": 48,
              "velocity": 108,
              "position": 5.260416666666667,
              "duration": 0.28125
            },
            {
              "pitch": 43,
              "velocity": 94,
              "position": 5.75,
              "duration": 0.96875
            },
            {
              "pitch": 31,
              "velocity": 86,
              "position": 6.760416666666667,
              "duration": 0.19791666666666666
            },
            {
              "pitch": 43,
              "velocity": 108,
              "position": 7.25,
              "duration": 0.14583333333333334
            },
            {
              "pitch": 36,
              "velocity": 108,
              "position": 7.510416666666667,
              "duration": 1.3958333333333333
            },
            {
              "pitch": 43,
              "velocity": 110,
              "position": 9.25,
              "duration": 0.3958333333333333
            },
            {
              "pitch": 48,
              "velocity": 110,
              "position": 9.75,
              "duration": 0.8229166666666666
            },
            {
              "pitch": 31,
              "velocity": 76,
              "position": 10.75,
              "duration": 0.16666666666666666
            },
            {
              "pitch": 31,
              "velocity": 110,
              "position": 11,
              "duration": 0.20833333333333334
            },
            {
              "pitch": 36,
              "velocity": 110,
              "position": 11.5,
              "duration": 1.0520833333333333
            },
            {
              "pitch": 50,
              "velocity": 126,
              "position": 12.760416666666666,
              "duration": 0.3645833333333333
            },
            {
              "pitch": 48,
              "velocity": 110,
              "position": 13.25,
              "duration": 0.46875
            },
            {
              "pitch": 43,
              "velocity": 110,
              "position": 13.75,
              "duration": 0.40625
            },
            {
              "pitch": 43,
              "velocity": 110,
              "position": 14.260416666666666,
              "duration": 0.3541666666666667
            },
            {
              "pitch": 31,
              "velocity": 94,
              "position": 14.75,
              "duration": 0.21875
            },
            {
              "pitch": 43,
              "velocity": 126,
              "position": 15.25,
              "duration": 0.20833333333333334
            },
            {
              "pitch": 36,
              "velocity": 110,
              "position": 15.5,
              "duration": 1.4895833333333333
            },
            {
              "pitch": 43,
              "velocity": 110,
              "position": 17.25,
              "duration": 0.375
            },
            {
              "pitch": 48,
              "velocity": 110,
              "position": 17.75,
              "duration": 0.8333333333333334
            },
            {
              "pitch": 43,
              "velocity": 110,
              "position": 18.739583333333332,
              "duration": 0.19791666666666666
            },
            {
              "pitch": 43,
              "velocity": 110,
              "position": 19,
              "duration": 0.20833333333333334
            },
            {
              "pitch": 36,
              "velocity": 112,
              "position": 19.489583333333332,
              "duration": 1.0416666666666667
            },
            {
              "pitch": 39,
              "velocity": 110,
              "position": 20.75,
              "duration": 0.4270833333333333
            },
            {
              "pitch": 48,
              "velocity": 110,
              "position": 21.260416666666668,
              "duration": 0.3958333333333333
            },
            {
              "pitch": 43,
              "velocity": 94,
              "position": 21.760416666666668,
              "duration": 0.8645833333333334
            },
            {
              "pitch": 31,
              "velocity": 94,
              "position": 22.760416666666668,
              "duration": 0.23958333333333334
            },
            {
              "pitch": 43,
              "velocity": 94,
              "position": 23.25,
              "duration": 0.16666666666666666
            },
            {
              "pitch": 36,
              "velocity": 112,
              "position": 23.5,
              "duration": 1.4791666666666667
            },
            {
              "pitch": 43,
              "velocity": 126,
              "position": 25.25,
              "duration": 0.4270833333333333
            },
            {
              "pitch": 48,
              "velocity": 110,
              "position": 25.75,
              "duration": 0.8541666666666666
            },
            {
              "pitch": 43,
              "velocity": 108,
              "position": 26.75,
              "duration": 0.17708333333333334
            },
            {
              "pitch": 43,
              "velocity": 94,
              "position": 27,
              "duration": 0.3125
            },
            {
              "pitch": 31,
              "velocity": 94,
              "position": 27.5,
              "duration": 1.1458333333333333
            },
            {
              "pitch": 50,
              "velocity": 126,
              "position": 28.739583333333332,
              "duration": 0.4270833333333333
            },
            {
              "pitch": 48,
              "velocity": 110,
              "position": 29.25,
              "duration": 0.4791666666666667
            },
            {
              "pitch": 43,
              "velocity": 110,
              "position": 29.75,
              "duration": 0.40625
            },
            {
              "pitch": 43,
              "velocity": 110,
              "position": 30.260416666666668,
              "duration": 0.4583333333333333
            },
            {
              "pitch": 31,
              "velocity": 94,
              "position": 30.760416666666668,
              "duration": 0.22916666666666666
            },
            {
              "pitch": 43,
              "velocity": 112,
              "position": 31.25,
              "duration": 0.1875
            },
            {
              "pitch": 36,
              "velocity": 94,
              "position": 31.5,
              "duration": 0.46875
            }
          ]
        },
        "14": {
          "ctab": {
            "srcChannel": 14,
            "name": "GrandPno",
            "accType": "CHORD1",
            "editable": false,
            "mutedNotes": [],
            "mutedChords": [
              "7aug",
              "Maj7aug",
              "7(#9)",
              "7(b13)",
              "7(b9)",
              "7(13)",
              "7#11",
              "7(9)",
              "7b5",
              "7sus4",
              "7th",
              "dim7",
              "dim",
              "minMaj7(9)",
              "minMaj7",
              "min7(11)",
              "min7(9)",
              "min(9)",
              "m7b5",
              "min7",
              "min6",
              "min"
            ],
            "autoStart": false,
            "sourceChordNote": 0,
            "sourceChordType": "Maj7",
            "ctb2Low": null,
            "ctb2Main": {
              "ntr": "ROOT_TRANSPOSITION",
              "ntt": "CHORD",
              "bassOn": false,
              "chordRootUpperLimit": 6,
              "noteLowLimit": 0,
              "noteHighLimit": 79,
              "rtr": "PITCH_SHIFT"
            },
            "ctb2High": null
          },
          "notes": [
            {
              "pitch": 71,
              "velocity": 124,
              "position": 0,
              "duration": 0.1875
            },
            {
              "pitch": 59,
              "velocity": 80,
              "position": 0,
              "duration": 0.20833333333333334
            },
            {
              "pitch": 83,
              "velocity": 110,
              "position": 0,
              "duration": 0.21875
            },
            {
              "pitch": 64,
              "velocity": 76,
              "position": 0.25,
              "duration": 0.16666666666666666
            },
            {
              "pitch": 76,
              "velocity": 90,
              "position": 0.25,
              "duration": 0.17708333333333334
            },
            {
              "pitch": 67,
              "velocity": 78,
              "position": 0.4895833333333333,
              "duration": 0.16666666666666666
            },
            {
              "pitch": 79,
              "velocity": 90,
              "position": 0.4895833333333333,
              "duration": 0.16666666666666666
            },
            {
              "pitch": 83,
              "velocity": 88,
              "position": 0.75,
              "duration": 0.15625
            },
            {
              "pitch": 71,
              "velocity": 110,
              "position": 0.75,
              "duration": 0.15625
            },
            {
              "pitch": 59,
              "velocity": 94,
              "position": 0.75,
              "duration": 0.16666666666666666
            },
            {
              "pitch": 83,
              "velocity": 88,
              "position": 1,
              "duration": 0.20833333333333334
            },
            {
              "pitch": 71,
              "velocity": 110,
              "position": 1,
              "duration": 0.20833333333333334
            },
            {
              "pitch": 59,
              "velocity": 110,
              "position": 1,
              "duration": 0.25
            },
            {
              "pitch": 76,
              "velocity": 72,
              "position": 1.25,
              "duration": 0.16666666666666666
            },
            {
              "pitch": 64,
              "velocity": 72,
              "position": 1.2604166666666667,
              "duration": 0.1875
            },
            {
              "pitch": 79,
              "velocity": 72,
              "position": 1.5,
              "duration": 0.17708333333333334
            },
            {
              "pitch": 67,
              "velocity": 72,
              "position": 1.5,
              "duration": 0.1875
            },
            {
              "pitch": 69,
              "velocity": 110,
              "position": 1.75,
              "duration": 0.4375
            },
            {
              "pitch": 81,
              "velocity": 104,
              "position": 1.75,
              "duration": 0.4479166666666667
            },
            {
              "pitch": 57,
              "velocity": 110,
              "position": 1.7604166666666667,
              "duration": 0.4375
            },
            {
              "pitch": 76,
              "velocity": 64,
              "position": 2.2708333333333335,
              "duration": 0.16666666666666666
            },
            {
              "pitch": 64,
              "velocity": 76,
              "position": 2.2604166666666665,
              "duration": 0.1875
            },
            {
              "pitch": 67,
              "velocity": 76,
              "position": 2.5104166666666665,
              "duration": 0.16666666666666666
            },
            {
              "pitch": 79,
              "velocity": 90,
              "position": 2.5,
              "duration": 0.19791666666666666
            },
            {
              "pitch": 57,
              "velocity": 110,
              "position": 2.7708333333333335,
              "duration": 0.3958333333333333
            },
            {
              "pitch": 69,
              "velocity": 90,
              "position": 2.7604166666666665,
              "duration": 0.4583333333333333
            },
            {
              "pitch": 81,
              "velocity": 88,
              "position": 2.7604166666666665,
              "duration": 0.4583333333333333
            },
            {
              "pitch": 64,
              "velocity": 68,
              "position": 3.25,
              "duration": 0.19791666666666666
            },
            {
              "pitch": 76,
              "velocity": 80,
              "position": 3.2604166666666665,
              "duration": 0.1875
            },
            {
              "pitch": 67,
              "velocity": 78,
              "position": 3.5,
              "duration": 0.16666666666666666
            },
            {
              "pitch": 79,
              "velocity": 68,
              "position": 3.5,
              "duration": 0.21875
            },
            {
              "pitch": 71,
              "velocity": 104,
              "position": 3.7604166666666665,
              "duration": 0.4583333333333333
            },
            {
              "pitch": 59,
              "velocity": 104,
              "position": 3.7604166666666665,
              "duration": 0.4791666666666667
            },
            {
              "pitch": 83,
              "velocity": 124,
              "position": 3.7604166666666665,
              "duration": 0.4791666666666667
            },
            {
              "pitch": 76,
              "velocity": 78,
              "position": 4.260416666666667,
              "duration": 0.16666666666666666
            },
            {
              "pitch": 64,
              "velocity": 68,
              "position": 4.260416666666667,
              "duration": 0.17708333333333334
            },
            {
              "pitch": 67,
              "velocity": 70,
              "position": 4.5,
              "duration": 0.16666666666666666
            },
            {
              "pitch": 79,
              "velocity": 72,
              "position": 4.5,
              "duration": 0.1875
            },
            {
              "pitch": 83,
              "velocity": 110,
              "position": 4.760416666666667,
              "duration": 0.125
            },
            {
              "pitch": 71,
              "velocity": 110,
              "position": 4.760416666666667,
              "duration": 0.13541666666666666
            },
            {
              "pitch": 59,
              "velocity": 80,
              "position": 4.760416666666667,
              "duration": 0.19791666666666666
            },
            {
              "pitch": 71,
              "velocity": 104,
              "position": 5,
              "duration": 0.19791666666666666
            },
            {
              "pitch": 83,
              "velocity": 104,
              "position": 5,
              "duration": 0.22916666666666666
            },
            {
              "pitch": 59,
              "velocity": 80,
              "position": 5,
              "duration": 0.25
            },
            {
              "pitch": 76,
              "velocity": 70,
              "position": 5.260416666666667,
              "duration": 0.15625
            },
            {
              "pitch": 64,
              "velocity": 80,
              "position": 5.260416666666667,
              "duration": 0.19791666666666666
            },
            {
              "pitch": 79,
              "velocity": 70,
              "position": 5.5,
              "duration": 0.1875
            },
            {
              "pitch": 67,
              "velocity": 80,
              "position": 5.5,
              "duration": 0.1875
            },
            {
              "pitch": 81,
              "velocity": 104,
              "position": 5.760416666666667,
              "duration": 0.4166666666666667
            },
            {
              "pitch": 69,
              "velocity": 110,
              "position": 5.760416666666667,
              "duration": 0.4270833333333333
            },
            {
              "pitch": 57,
              "velocity": 92,
              "position": 5.760416666666667,
              "duration": 0.4583333333333333
            },
            {
              "pitch": 76,
              "velocity": 72,
              "position": 6.260416666666667,
              "duration": 0.16666666666666666
            },
            {
              "pitch": 64,
              "velocity": 80,
              "position": 6.25,
              "duration": 0.20833333333333334
            },
            {
              "pitch": 67,
              "velocity": 80,
              "position": 6.5,
              "duration": 0.16666666666666666
            },
            {
              "pitch": 79,
              "velocity": 80,
              "position": 6.5,
              "duration": 0.19791666666666666
            },
            {
              "pitch": 57,
              "velocity": 92,
              "position": 6.760416666666667,
              "duration": 0.3854166666666667
            },
            {
              "pitch": 81,
              "velocity": 104,
              "position": 6.760416666666667,
              "duration": 0.4166666666666667
            },
            {
              "pitch": 69,
              "velocity": 110,
              "position": 6.75,
              "duration": 0.4375
            },
            {
              "pitch": 76,
              "velocity": 72,
              "position": 7.260416666666667,
              "duration": 0.16666666666666666
            },
            {
              "pitch": 64,
              "velocity": 68,
              "position": 7.260416666666667,
              "duration": 0.17708333333333334
            },
            {
              "pitch": 79,
              "velocity": 88,
              "position": 7.5,
              "duration": 0.17708333333333334
            },
            {
              "pitch": 67,
              "velocity": 78,
              "position": 7.5,
              "duration": 0.1875
            },
            {
              "pitch": 81,
              "velocity": 88,
              "position": 7.75,
              "duration": 0.17708333333333334
            },
            {
              "pitch": 69,
              "velocity": 84,
              "position": 7.75,
              "duration": 0.1875
            },
            {
              "pitch": 57,
              "velocity": 80,
              "position": 7.760416666666667,
              "duration": 0.17708333333333334
            },
            {
              "pitch": 83,
              "velocity": 110,
              "position": 8,
              "duration": 0.17708333333333334
            },
            {
              "pitch": 59,
              "velocity": 88,
              "position": 8,
              "duration": 0.21875
            },
            {
              "pitch": 71,
              "velocity": 88,
              "position": 8,
              "duration": 0.22916666666666666
            },
            {
              "pitch": 64,
              "velocity": 72,
              "position": 8.260416666666666,
              "duration": 0.15625
            },
            {
              "pitch": 76,
              "velocity": 84,
              "position": 8.260416666666666,
              "duration": 0.16666666666666666
            },
            {
              "pitch": 79,
              "velocity": 80,
              "position": 8.5,
              "duration": 0.16666666666666666
            },
            {
              "pitch": 67,
              "velocity": 80,
              "position": 8.5,
              "duration": 0.16666666666666666
            },
            {
              "pitch": 71,
              "velocity": 84,
              "position": 8.75,
              "duration": 0.15625
            },
            {
              "pitch": 83,
              "velocity": 110,
              "position": 8.75,
              "duration": 0.16666666666666666
            },
            {
              "pitch": 59,
              "velocity": 88,
              "position": 8.760416666666666,
              "duration": 0.15625
            },
            {
              "pitch": 59,
              "velocity": 80,
              "position": 9,
              "duration": 0.21875
            },
            {
              "pitch": 83,
              "velocity": 88,
              "position": 9,
              "duration": 0.22916666666666666
            },
            {
              "pitch": 71,
              "velocity": 104,
              "position": 9,
              "duration": 0.23958333333333334
            },
            {
              "pitch": 76,
              "velocity": 78,
              "position": 9.260416666666666,
              "duration": 0.16666666666666666
            },
            {
              "pitch": 64,
              "velocity": 84,
              "position": 9.260416666666666,
              "duration": 0.1875
            },
            {
              "pitch": 79,
              "velocity": 80,
              "position": 9.5,
              "duration": 0.16666666666666666
            },
            {
              "pitch": 67,
              "velocity": 80,
              "position": 9.5,
              "duration": 0.17708333333333334
            },
            {
              "pitch": 57,
              "velocity": 94,
              "position": 9.760416666666666,
              "duration": 0.4166666666666667
            },
            {
              "pitch": 69,
              "velocity": 110,
              "position": 9.75,
              "duration": 0.4583333333333333
            },
            {
              "pitch": 81,
              "velocity": 104,
              "position": 9.75,
              "duration": 0.4791666666666667
            },
            {
              "pitch": 76,
              "velocity": 68,
              "position": 10.260416666666666,
              "duration": 0.16666666666666666
            },
            {
              "pitch": 64,
              "velocity": 78,
              "position": 10.260416666666666,
              "duration": 0.17708333333333334
            },
            {
              "pitch": 67,
              "velocity": 72,
              "position": 10.5,
              "duration": 0.15625
            },
            {
              "pitch": 79,
              "velocity": 70,
              "position": 10.5,
              "duration": 0.16666666666666666
            },
            {
              "pitch": 81,
              "velocity": 110,
              "position": 10.760416666666666,
              "duration": 0.4270833333333333
            },
            {
              "pitch": 57,
              "velocity": 92,
              "position": 10.760416666666666,
              "duration": 0.4583333333333333
            },
            {
              "pitch": 69,
              "velocity": 110,
              "position": 10.75,
              "duration": 0.4895833333333333
            },
            {
              "pitch": 64,
              "velocity": 64,
              "position": 11.25,
              "duration": 0.1875
            },
            {
              "pitch": 76,
              "velocity": 80,
              "position": 11.25,
              "duration": 0.19791666666666666
            },
            {
              "pitch": 67,
              "velocity": 80,
              "position": 11.489583333333334,
              "duration": 0.19791666666666666
            },
            {
              "pitch": 79,
              "velocity": 80,
              "position": 11.489583333333334,
              "duration": 0.20833333333333334
            },
            {
              "pitch": 83,
              "velocity": 124,
              "position": 11.75,
              "duration": 0.4583333333333333
            },
            {
              "pitch": 59,
              "velocity": 76,
              "position": 11.75,
              "duration": 0.46875
            },
            {
              "pitch": 71,
              "velocity": 104,
              "position": 11.75,
              "duration": 0.4791666666666667
            },
            {
              "pitch": 64,
              "velocity": 72,
              "position": 12.25,
              "duration": 0.17708333333333334
            },
            {
              "pitch": 76,
              "velocity": 80,
              "position": 12.260416666666666,
              "duration": 0.16666666666666666
            },
            {
              "pitch": 79,
              "velocity": 78,
              "position": 12.5,
              "duration": 0.16666666666666666
            },
            {
              "pitch": 67,
              "velocity": 78,
              "position": 12.5,
              "duration": 0.1875
            },
            {
              "pitch": 83,
              "velocity": 88,
              "position": 12.75,
              "duration": 0.15625
            },
            {
              "pitch": 71,
              "velocity": 88,
              "position": 12.75,
              "duration": 0.16666666666666666
            },
            {
              "pitch": 59,
              "velocity": 92,
              "position": 12.760416666666666,
              "duration": 0.15625
            },
            {
              "pitch": 59,
              "velocity": 84,
              "position": 13,
              "duration": 0.21875
            },
            {
              "pitch": 83,
              "velocity": 88,
              "position": 13,
              "duration": 0.23958333333333334
            },
            {
              "pitch": 71,
              "velocity": 110,
              "position": 13,
              "duration": 0.25
            },
            {
              "pitch": 76,
              "velocity": 78,
              "position": 13.260416666666666,
              "duration": 0.17708333333333334
            },
            {
              "pitch": 64,
              "velocity": 78,
              "position": 13.260416666666666,
              "duration": 0.19791666666666666
            },
            {
              "pitch": 79,
              "velocity": 70,
              "position": 13.5,
              "duration": 0.16666666666666666
            },
            {
              "pitch": 67,
              "velocity": 76,
              "position": 13.5,
              "duration": 0.17708333333333334
            },
            {
              "pitch": 57,
              "velocity": 80,
              "position": 13.760416666666666,
              "duration": 0.3645833333333333
            },
            {
              "pitch": 69,
              "velocity": 88,
              "position": 13.75,
              "duration": 0.4375
            },
            {
              "pitch": 81,
              "velocity": 104,
              "position": 13.75,
              "duration": 0.4583333333333333
            },
            {
              "pitch": 62,
              "velocity": 72,
              "position": 14.25,
              "duration": 0.19791666666666666
            },
            {
              "pitch": 74,
              "velocity": 70,
              "position": 14.25,
              "duration": 0.19791666666666666
            },
            {
              "pitch": 76,
              "velocity": 70,
              "position": 14.489583333333334,
              "duration": 0.17708333333333334
            },
            {
              "pitch": 64,
              "velocity": 76,
              "position": 14.5,
              "duration": 0.20833333333333334
            },
            {
              "pitch": 79,
              "velocity": 100,
              "position": 14.75,
              "duration": 0.14583333333333334
            },
            {
              "pitch": 67,
              "velocity": 86,
              "position": 14.75,
              "duration": 0.15625
            },
            {
              "pitch": 55,
              "velocity": 86,
              "position": 14.75,
              "duration": 0.16666666666666666
            },
            {
              "pitch": 81,
              "velocity": 104,
              "position": 15.25,
              "duration": 0.17708333333333334
            },
            {
              "pitch": 69,
              "velocity": 88,
              "position": 15.25,
              "duration": 0.1875
            },
            {
              "pitch": 57,
              "velocity": 88,
              "position": 15.25,
              "duration": 0.19791666666666666
            },
            {
              "pitch": 83,
              "velocity": 100,
              "position": 15.489583333333334,
              "duration": 0.6666666666666666
            },
            {
              "pitch": 71,
              "velocity": 118,
              "position": 15.489583333333334,
              "duration": 0.6666666666666666
            },
            {
              "pitch": 59,
              "velocity": 120,
              "position": 15.5,
              "duration": 0.6666666666666666
            },
            {
              "pitch": 76,
              "velocity": 78,
              "position": 16.25,
              "duration": 0.17708333333333334
            },
            {
              "pitch": 64,
              "velocity": 90,
              "position": 16.25,
              "duration": 0.20833333333333334
            },
            {
              "pitch": 79,
              "velocity": 80,
              "position": 16.489583333333332,
              "duration": 0.1875
            },
            {
              "pitch": 67,
              "velocity": 64,
              "position": 16.510416666666668,
              "duration": 0.16666666666666666
            },
            {
              "pitch": 83,
              "velocity": 88,
              "position": 16.75,
              "duration": 0.14583333333333334
            },
            {
              "pitch": 71,
              "velocity": 110,
              "position": 16.75,
              "duration": 0.14583333333333334
            },
            {
              "pitch": 59,
              "velocity": 80,
              "position": 16.760416666666668,
              "duration": 0.15625
            },
            {
              "pitch": 71,
              "velocity": 88,
              "position": 17,
              "duration": 0.22916666666666666
            },
            {
              "pitch": 83,
              "velocity": 110,
              "position": 17,
              "duration": 0.22916666666666666
            },
            {
              "pitch": 59,
              "velocity": 80,
              "position": 17,
              "duration": 0.22916666666666666
            },
            {
              "pitch": 76,
              "velocity": 70,
              "position": 17.260416666666668,
              "duration": 0.15625
            },
            {
              "pitch": 64,
              "velocity": 80,
              "position": 17.260416666666668,
              "duration": 0.22916666666666666
            },
            {
              "pitch": 79,
              "velocity": 80,
              "position": 17.5,
              "duration": 0.16666666666666666
            },
            {
              "pitch": 67,
              "velocity": 80,
              "position": 17.510416666666668,
              "duration": 0.17708333333333334
            },
            {
              "pitch": 57,
              "velocity": 92,
              "position": 17.760416666666668,
              "duration": 0.4270833333333333
            },
            {
              "pitch": 69,
              "velocity": 90,
              "position": 17.75,
              "duration": 0.4479166666666667
            },
            {
              "pitch": 81,
              "velocity": 90,
              "position": 17.75,
              "duration": 0.4479166666666667
            },
            {
              "pitch": 64,
              "velocity": 80,
              "position": 18.25,
              "duration": 0.17708333333333334
            },
            {
              "pitch": 76,
              "velocity": 70,
              "position": 18.260416666666668,
              "duration": 0.21875
            },
            {
              "pitch": 67,
              "velocity": 78,
              "position": 18.5,
              "duration": 0.15625
            },
            {
              "pitch": 79,
              "velocity": 78,
              "position": 18.5,
              "duration": 0.17708333333333334
            },
            {
              "pitch": 81,
              "velocity": 90,
              "position": 18.75,
              "duration": 0.4166666666666667
            },
            {
              "pitch": 69,
              "velocity": 90,
              "position": 18.75,
              "duration": 0.4791666666666667
            },
            {
              "pitch": 57,
              "velocity": 110,
              "position": 18.760416666666668,
              "duration": 0.4895833333333333
            },
            {
              "pitch": 64,
              "velocity": 58,
              "position": 19.25,
              "duration": 0.16666666666666666
            },
            {
              "pitch": 76,
              "velocity": 64,
              "position": 19.25,
              "duration": 0.1875
            },
            {
              "pitch": 67,
              "velocity": 78,
              "position": 19.489583333333332,
              "duration": 0.17708333333333334
            },
            {
              "pitch": 79,
              "velocity": 78,
              "position": 19.489583333333332,
              "duration": 0.20833333333333334
            },
            {
              "pitch": 59,
              "velocity": 88,
              "position": 19.75,
              "duration": 0.4270833333333333
            },
            {
              "pitch": 71,
              "velocity": 110,
              "position": 19.75,
              "duration": 0.4583333333333333
            },
            {
              "pitch": 83,
              "velocity": 120,
              "position": 19.75,
              "duration": 0.46875
            },
            {
              "pitch": 64,
              "velocity": 72,
              "position": 20.25,
              "duration": 0.17708333333333334
            },
            {
              "pitch": 76,
              "velocity": 76,
              "position": 20.260416666666668,
              "duration": 0.17708333333333334
            },
            {
              "pitch": 67,
              "velocity": 68,
              "position": 20.5,
              "duration": 0.14583333333333334
            },
            {
              "pitch": 79,
              "velocity": 78,
              "position": 20.5,
              "duration": 0.17708333333333334
            },
            {
              "pitch": 83,
              "velocity": 78,
              "position": 20.75,
              "duration": 0.15625
            },
            {
              "pitch": 71,
              "velocity": 84,
              "position": 20.75,
              "duration": 0.15625
            },
            {
              "pitch": 59,
              "velocity": 88,
              "position": 20.760416666666668,
              "duration": 0.15625
            },
            {
              "pitch": 83,
              "velocity": 94,
              "position": 21,
              "duration": 0.23958333333333334
            },
            {
              "pitch": 71,
              "velocity": 88,
              "position": 21,
              "duration": 0.25
            },
            {
              "pitch": 59,
              "velocity": 84,
              "position": 21,
              "duration": 0.25
            },
            {
              "pitch": 76,
              "velocity": 80,
              "position": 21.25,
              "duration": 0.17708333333333334
            },
            {
              "pitch": 64,
              "velocity": 78,
              "position": 21.25,
              "duration": 0.19791666666666666
            },
            {
              "pitch": 79,
              "velocity": 72,
              "position": 21.489583333333332,
              "duration": 0.16666666666666666
            },
            {
              "pitch": 67,
              "velocity": 80,
              "position": 21.5,
              "duration": 0.16666666666666666
            },
            {
              "pitch": 57,
              "velocity": 92,
              "position": 21.760416666666668,
              "duration": 0.4270833333333333
            },
            {
              "pitch": 69,
              "velocity": 88,
              "position": 21.75,
              "duration": 0.4791666666666667
            },
            {
              "pitch": 81,
              "velocity": 88,
              "position": 21.75,
              "duration": 0.4791666666666667
            },
            {
              "pitch": 76,
              "velocity": 68,
              "position": 22.25,
              "duration": 0.16666666666666666
            },
            {
              "pitch": 64,
              "velocity": 78,
              "position": 22.25,
              "duration": 0.17708333333333334
            },
            {
              "pitch": 67,
              "velocity": 78,
              "position": 22.5,
              "duration": 0.15625
            },
            {
              "pitch": 79,
              "velocity": 78,
              "position": 22.5,
              "duration": 0.16666666666666666
            },
            {
              "pitch": 69,
              "velocity": 88,
              "position": 22.75,
              "duration": 0.4166666666666667
            },
            {
              "pitch": 57,
              "velocity": 92,
              "position": 22.760416666666668,
              "duration": 0.40625
            },
            {
              "pitch": 81,
              "velocity": 88,
              "position": 22.75,
              "duration": 0.4479166666666667
            },
            {
              "pitch": 64,
              "velocity": 80,
              "position": 23.25,
              "duration": 0.1875
            },
            {
              "pitch": 76,
              "velocity": 68,
              "position": 23.260416666666668,
              "duration": 0.19791666666666666
            },
            {
              "pitch": 79,
              "velocity": 80,
              "position": 23.5,
              "duration": 0.17708333333333334
            },
            {
              "pitch": 67,
              "velocity": 80,
              "position": 23.489583333333332,
              "duration": 0.20833333333333334
            },
            {
              "pitch": 57,
              "velocity": 92,
              "position": 23.75,
              "duration": 0.14583333333333334
            },
            {
              "pitch": 69,
              "velocity": 90,
              "position": 23.75,
              "duration": 0.14583333333333334
            },
            {
              "pitch": 81,
              "velocity": 110,
              "position": 23.75,
              "duration": 0.16666666666666666
            },
            {
              "pitch": 71,
              "velocity": 124,
              "position": 24,
              "duration": 0.1875
            },
            {
              "pitch": 59,
              "velocity": 80,
              "position": 24,
              "duration": 0.20833333333333334
            },
            {
              "pitch": 83,
              "velocity": 110,
              "position": 24,
              "duration": 0.21875
            },
            {
              "pitch": 64,
              "velocity": 76,
              "position": 24.25,
              "duration": 0.16666666666666666
            },
            {
              "pitch": 76,
              "velocity": 90,
              "position": 24.25,
              "duration": 0.17708333333333334
            },
            {
              "pitch": 67,
              "velocity": 78,
              "position": 24.489583333333332,
              "duration": 0.16666666666666666
            },
            {
              "pitch": 79,
              "velocity": 90,
              "position": 24.489583333333332,
              "duration": 0.16666666666666666
            },
            {
              "pitch": 83,
              "velocity": 88,
              "position": 24.75,
              "duration": 0.15625
            },
            {
              "pitch": 71,
              "velocity": 110,
              "position": 24.75,
              "duration": 0.15625
            },
            {
              "pitch": 59,
              "velocity": 94,
              "position": 24.75,
              "duration": 0.16666666666666666
            },
            {
              "pitch": 83,
              "velocity": 88,
              "position": 25,
              "duration": 0.20833333333333334
            },
            {
              "pitch": 71,
              "velocity": 110,
              "position": 25,
              "duration": 0.20833333333333334
            },
            {
              "pitch": 59,
              "velocity": 110,
              "position": 25,
              "duration": 0.25
            },
            {
              "pitch": 76,
              "velocity": 72,
              "position": 25.25,
              "duration": 0.16666666666666666
            },
            {
              "pitch": 64,
              "velocity": 72,
              "position": 25.260416666666668,
              "duration": 0.1875
            },
            {
              "pitch": 79,
              "velocity": 72,
              "position": 25.5,
              "duration": 0.17708333333333334
            },
            {
              "pitch": 67,
              "velocity": 72,
              "position": 25.5,
              "duration": 0.1875
            },
            {
              "pitch": 69,
              "velocity": 110,
              "position": 25.75,
              "duration": 0.4375
            },
            {
              "pitch": 81,
              "velocity": 104,
              "position": 25.75,
              "duration": 0.4479166666666667
            },
            {
              "pitch": 57,
              "velocity": 110,
              "position": 25.760416666666668,
              "duration": 0.4375
            },
            {
              "pitch": 76,
              "velocity": 64,
              "position": 26.270833333333332,
              "duration": 0.16666666666666666
            },
            {
              "pitch": 64,
              "velocity": 76,
              "position": 26.260416666666668,
              "duration": 0.1875
            },
            {
              "pitch": 67,
              "velocity": 76,
              "position": 26.510416666666668,
              "duration": 0.16666666666666666
            },
            {
              "pitch": 79,
              "velocity": 90,
              "position": 26.5,
              "duration": 0.19791666666666666
            },
            {
              "pitch": 57,
              "velocity": 110,
              "position": 26.770833333333332,
              "duration": 0.3958333333333333
            },
            {
              "pitch": 69,
              "velocity": 90,
              "position": 26.760416666666668,
              "duration": 0.4583333333333333
            },
            {
              "pitch": 81,
              "velocity": 88,
              "position": 26.760416666666668,
              "duration": 0.4583333333333333
            },
            {
              "pitch": 64,
              "velocity": 68,
              "position": 27.25,
              "duration": 0.19791666666666666
            },
            {
              "pitch": 76,
              "velocity": 80,
              "position": 27.260416666666668,
              "duration": 0.1875
            },
            {
              "pitch": 67,
              "velocity": 78,
              "position": 27.5,
              "duration": 0.16666666666666666
            },
            {
              "pitch": 79,
              "velocity": 68,
              "position": 27.5,
              "duration": 0.21875
            },
            {
              "pitch": 71,
              "velocity": 104,
              "position": 27.760416666666668,
              "duration": 0.4583333333333333
            },
            {
              "pitch": 59,
              "velocity": 104,
              "position": 27.760416666666668,
              "duration": 0.4791666666666667
            },
            {
              "pitch": 83,
              "velocity": 124,
              "position": 27.760416666666668,
              "duration": 0.4791666666666667
            },
            {
              "pitch": 76,
              "velocity": 78,
              "position": 28.260416666666668,
              "duration": 0.16666666666666666
            },
            {
              "pitch": 64,
              "velocity": 68,
              "position": 28.260416666666668,
              "duration": 0.17708333333333334
            },
            {
              "pitch": 67,
              "velocity": 70,
              "position": 28.5,
              "duration": 0.16666666666666666
            },
            {
              "pitch": 79,
              "velocity": 72,
              "position": 28.5,
              "duration": 0.1875
            },
            {
              "pitch": 83,
              "velocity": 110,
              "position": 28.760416666666668,
              "duration": 0.125
            },
            {
              "pitch": 71,
              "velocity": 110,
              "position": 28.760416666666668,
              "duration": 0.13541666666666666
            },
            {
              "pitch": 59,
              "velocity": 80,
              "position": 28.760416666666668,
              "duration": 0.19791666666666666
            },
            {
              "pitch": 71,
              "velocity": 104,
              "position": 29,
              "duration": 0.19791666666666666
            },
            {
              "pitch": 83,
              "velocity": 104,
              "position": 29,
              "duration": 0.22916666666666666
            },
            {
              "pitch": 59,
              "velocity": 80,
              "position": 29,
              "duration": 0.25
            },
            {
              "pitch": 76,
              "velocity": 70,
              "position": 29.260416666666668,
              "duration": 0.15625
            },
            {
              "pitch": 64,
              "velocity": 80,
              "position": 29.260416666666668,
              "duration": 0.19791666666666666
            },
            {
              "pitch": 79,
              "velocity": 70,
              "position": 29.5,
              "duration": 0.1875
            },
            {
              "pitch": 67,
              "velocity": 80,
              "position": 29.5,
              "duration": 0.1875
            },
            {
              "pitch": 81,
              "velocity": 104,
              "position": 29.760416666666668,
              "duration": 0.4166666666666667
            },
            {
              "pitch": 69,
              "velocity": 110,
              "position": 29.760416666666668,
              "duration": 0.4270833333333333
            },
            {
              "pitch": 57,
              "velocity": 92,
              "position": 29.760416666666668,
              "duration": 0.4583333333333333
            },
            {
              "pitch": 76,
              "velocity": 72,
              "position": 30.260416666666668,
              "duration": 0.16666666666666666
            },
            {
              "pitch": 64,
              "velocity": 80,
              "position": 30.25,
              "duration": 0.20833333333333334
            },
            {
              "pitch": 67,
              "velocity": 80,
              "position": 30.5,
              "duration": 0.16666666666666666
            },
            {
              "pitch": 79,
              "velocity": 80,
              "position": 30.5,
              "duration": 0.19791666666666666
            },
            {
              "pitch": 57,
              "velocity": 92,
              "position": 30.760416666666668,
              "duration": 0.3854166666666667
            },
            {
              "pitch": 81,
              "velocity": 104,
              "position": 30.760416666666668,
              "duration": 0.4166666666666667
            },
            {
              "pitch": 69,
              "velocity": 110,
              "position": 30.75,
              "duration": 0.4375
            },
            {
              "pitch": 76,
              "velocity": 72,
              "position": 31.260416666666668,
              "duration": 0.16666666666666666
            },
            {
              "pitch": 64,
              "velocity": 68,
              "position": 31.260416666666668,
              "duration": 0.17708333333333334
            },
            {
              "pitch": 79,
              "velocity": 88,
              "position": 31.5,
              "duration": 0.17708333333333334
            },
            {
              "pitch": 67,
              "velocity": 78,
              "position": 31.5,
              "duration": 0.1875
            },
            {
              "pitch": 81,
              "velocity": 88,
              "position": 31.75,
              "duration": 0.17708333333333334
            },
            {
              "pitch": 69,
              "velocity": 84,
              "position": 31.75,
              "duration": 0.1875
            },
            {
              "pitch": 57,
              "velocity": 80,
              "position": 31.760416666666668,
              "duration": 0.17708333333333334
            }
          ]
        },
        "15": {
          "ctab": {
            "srcChannel": 15,
            "name": "GrandPno",
            "accType": "CHORD1",
            "editable": false,
            "mutedNotes": [],
            "mutedChords": [
              "1+2+5",
              "sus4",
              "1+5",
              "1+8",
              "7aug",
              "Maj7aug",
              "7(#9)",
              "7(b13)",
              "7(b9)",
              "7(13)",
              "7#11",
              "7(9)",
              "7b5",
              "7sus4",
              "7th",
              "aug",
              "Maj6(9)",
              "Maj7(9)",
              "Maj(9)",
              "Maj7#11",
              "Maj7",
              "Maj6",
              "Maj"
            ],
            "autoStart": false,
            "sourceChordNote": 0,
            "sourceChordType": "minMaj7",
            "ctb2Low": null,
            "ctb2Main": {
              "ntr": "ROOT_TRANSPOSITION",
              "ntt": "CHORD",
              "bassOn": false,
              "chordRootUpperLimit": 6,
              "noteLowLimit": 0,
              "noteHighLimit": 79,
              "rtr": "PITCH_SHIFT"
            },
            "ctb2High": null
          },
          "notes": [
            {
              "pitch": 71,
              "velocity": 124,
              "position": 0,
              "duration": 0.1875
            },
            {
              "pitch": 59,
              "velocity": 80,
              "position": 0,
              "duration": 0.20833333333333334
            },
            {
              "pitch": 83,
              "velocity": 110,
              "position": 0,
              "duration": 0.21875
            },
            {
              "pitch": 63,
              "velocity": 76,
              "position": 0.25,
              "duration": 0.16666666666666666
            },
            {
              "pitch": 75,
              "velocity": 90,
              "position": 0.25,
              "duration": 0.17708333333333334
            },
            {
              "pitch": 67,
              "velocity": 78,
              "position": 0.4895833333333333,
              "duration": 0.16666666666666666
            },
            {
              "pitch": 79,
              "velocity": 90,
              "position": 0.4895833333333333,
              "duration": 0.16666666666666666
            },
            {
              "pitch": 83,
              "velocity": 88,
              "position": 0.75,
              "duration": 0.15625
            },
            {
              "pitch": 71,
              "velocity": 110,
              "position": 0.75,
              "duration": 0.15625
            },
            {
              "pitch": 59,
              "velocity": 94,
              "position": 0.75,
              "duration": 0.16666666666666666
            },
            {
              "pitch": 83,
              "velocity": 88,
              "position": 1,
              "duration": 0.20833333333333334
            },
            {
              "pitch": 71,
              "velocity": 110,
              "position": 1,
              "duration": 0.20833333333333334
            },
            {
              "pitch": 59,
              "velocity": 110,
              "position": 1,
              "duration": 0.25
            },
            {
              "pitch": 75,
              "velocity": 72,
              "position": 1.25,
              "duration": 0.16666666666666666
            },
            {
              "pitch": 63,
              "velocity": 72,
              "position": 1.2604166666666667,
              "duration": 0.1875
            },
            {
              "pitch": 79,
              "velocity": 72,
              "position": 1.5,
              "duration": 0.17708333333333334
            },
            {
              "pitch": 67,
              "velocity": 72,
              "position": 1.5,
              "duration": 0.1875
            },
            {
              "pitch": 71,
              "velocity": 110,
              "position": 1.75,
              "duration": 0.4375
            },
            {
              "pitch": 83,
              "velocity": 104,
              "position": 1.75,
              "duration": 0.4479166666666667
            },
            {
              "pitch": 59,
              "velocity": 110,
              "position": 1.7604166666666667,
              "duration": 0.4375
            },
            {
              "pitch": 75,
              "velocity": 64,
              "position": 2.2708333333333335,
              "duration": 0.16666666666666666
            },
            {
              "pitch": 63,
              "velocity": 76,
              "position": 2.2604166666666665,
              "duration": 0.1875
            },
            {
              "pitch": 67,
              "velocity": 76,
              "position": 2.5104166666666665,
              "duration": 0.16666666666666666
            },
            {
              "pitch": 79,
              "velocity": 90,
              "position": 2.5,
              "duration": 0.19791666666666666
            },
            {
              "pitch": 59,
              "velocity": 110,
              "position": 2.7708333333333335,
              "duration": 0.3958333333333333
            },
            {
              "pitch": 71,
              "velocity": 90,
              "position": 2.7604166666666665,
              "duration": 0.4583333333333333
            },
            {
              "pitch": 83,
              "velocity": 88,
              "position": 2.7604166666666665,
              "duration": 0.4583333333333333
            },
            {
              "pitch": 63,
              "velocity": 68,
              "position": 3.25,
              "duration": 0.19791666666666666
            },
            {
              "pitch": 75,
              "velocity": 80,
              "position": 3.2604166666666665,
              "duration": 0.1875
            },
            {
              "pitch": 67,
              "velocity": 78,
              "position": 3.5,
              "duration": 0.16666666666666666
            },
            {
              "pitch": 79,
              "velocity": 68,
              "position": 3.5,
              "duration": 0.21875
            },
            {
              "pitch": 71,
              "velocity": 104,
              "position": 3.7604166666666665,
              "duration": 0.4583333333333333
            },
            {
              "pitch": 59,
              "velocity": 104,
              "position": 3.7604166666666665,
              "duration": 0.4791666666666667
            },
            {
              "pitch": 83,
              "velocity": 124,
              "position": 3.7604166666666665,
              "duration": 0.4791666666666667
            },
            {
              "pitch": 75,
              "velocity": 78,
              "position": 4.260416666666667,
              "duration": 0.16666666666666666
            },
            {
              "pitch": 63,
              "velocity": 68,
              "position": 4.260416666666667,
              "duration": 0.17708333333333334
            },
            {
              "pitch": 67,
              "velocity": 70,
              "position": 4.5,
              "duration": 0.16666666666666666
            },
            {
              "pitch": 79,
              "velocity": 72,
              "position": 4.5,
              "duration": 0.1875
            },
            {
              "pitch": 83,
              "velocity": 110,
              "position": 4.760416666666667,
              "duration": 0.125
            },
            {
              "pitch": 71,
              "velocity": 110,
              "position": 4.760416666666667,
              "duration": 0.13541666666666666
            },
            {
              "pitch": 59,
              "velocity": 80,
              "position": 4.760416666666667,
              "duration": 0.19791666666666666
            },
            {
              "pitch": 71,
              "velocity": 104,
              "position": 5,
              "duration": 0.19791666666666666
            },
            {
              "pitch": 83,
              "velocity": 104,
              "position": 5,
              "duration": 0.22916666666666666
            },
            {
              "pitch": 59,
              "velocity": 80,
              "position": 5,
              "duration": 0.25
            },
            {
              "pitch": 75,
              "velocity": 70,
              "position": 5.260416666666667,
              "duration": 0.15625
            },
            {
              "pitch": 63,
              "velocity": 80,
              "position": 5.260416666666667,
              "duration": 0.19791666666666666
            },
            {
              "pitch": 79,
              "velocity": 70,
              "position": 5.5,
              "duration": 0.1875
            },
            {
              "pitch": 67,
              "velocity": 80,
              "position": 5.5,
              "duration": 0.1875
            },
            {
              "pitch": 83,
              "velocity": 104,
              "position": 5.760416666666667,
              "duration": 0.4166666666666667
            },
            {
              "pitch": 71,
              "velocity": 110,
              "position": 5.760416666666667,
              "duration": 0.4270833333333333
            },
            {
              "pitch": 59,
              "velocity": 92,
              "position": 5.760416666666667,
              "duration": 0.4583333333333333
            },
            {
              "pitch": 75,
              "velocity": 72,
              "position": 6.260416666666667,
              "duration": 0.16666666666666666
            },
            {
              "pitch": 63,
              "velocity": 80,
              "position": 6.25,
              "duration": 0.20833333333333334
            },
            {
              "pitch": 67,
              "velocity": 80,
              "position": 6.5,
              "duration": 0.16666666666666666
            },
            {
              "pitch": 79,
              "velocity": 80,
              "position": 6.5,
              "duration": 0.19791666666666666
            },
            {
              "pitch": 59,
              "velocity": 92,
              "position": 6.760416666666667,
              "duration": 0.3854166666666667
            },
            {
              "pitch": 83,
              "velocity": 104,
              "position": 6.760416666666667,
              "duration": 0.4166666666666667
            },
            {
              "pitch": 71,
              "velocity": 110,
              "position": 6.75,
              "duration": 0.4375
            },
            {
              "pitch": 75,
              "velocity": 72,
              "position": 7.260416666666667,
              "duration": 0.16666666666666666
            },
            {
              "pitch": 63,
              "velocity": 68,
              "position": 7.260416666666667,
              "duration": 0.17708333333333334
            },
            {
              "pitch": 79,
              "velocity": 88,
              "position": 7.5,
              "duration": 0.17708333333333334
            },
            {
              "pitch": 67,
              "velocity": 78,
              "position": 7.5,
              "duration": 0.1875
            },
            {
              "pitch": 83,
              "velocity": 88,
              "position": 7.75,
              "duration": 0.17708333333333334
            },
            {
              "pitch": 71,
              "velocity": 84,
              "position": 7.75,
              "duration": 0.1875
            },
            {
              "pitch": 59,
              "velocity": 80,
              "position": 7.760416666666667,
              "duration": 0.17708333333333334
            },
            {
              "pitch": 71,
              "velocity": 124,
              "position": 8,
              "duration": 0.1875
            },
            {
              "pitch": 59,
              "velocity": 80,
              "position": 8,
              "duration": 0.20833333333333334
            },
            {
              "pitch": 83,
              "velocity": 110,
              "position": 8,
              "duration": 0.21875
            },
            {
              "pitch": 63,
              "velocity": 76,
              "position": 8.25,
              "duration": 0.16666666666666666
            },
            {
              "pitch": 75,
              "velocity": 90,
              "position": 8.25,
              "duration": 0.17708333333333334
            },
            {
              "pitch": 67,
              "velocity": 78,
              "position": 8.489583333333334,
              "duration": 0.16666666666666666
            },
            {
              "pitch": 79,
              "velocity": 90,
              "position": 8.489583333333334,
              "duration": 0.16666666666666666
            },
            {
              "pitch": 83,
              "velocity": 88,
              "position": 8.75,
              "duration": 0.15625
            },
            {
              "pitch": 71,
              "velocity": 110,
              "position": 8.75,
              "duration": 0.15625
            },
            {
              "pitch": 59,
              "velocity": 94,
              "position": 8.75,
              "duration": 0.16666666666666666
            },
            {
              "pitch": 83,
              "velocity": 88,
              "position": 9,
              "duration": 0.20833333333333334
            },
            {
              "pitch": 71,
              "velocity": 110,
              "position": 9,
              "duration": 0.20833333333333334
            },
            {
              "pitch": 59,
              "velocity": 110,
              "position": 9,
              "duration": 0.25
            },
            {
              "pitch": 75,
              "velocity": 72,
              "position": 9.25,
              "duration": 0.16666666666666666
            },
            {
              "pitch": 63,
              "velocity": 72,
              "position": 9.260416666666666,
              "duration": 0.1875
            },
            {
              "pitch": 79,
              "velocity": 72,
              "position": 9.5,
              "duration": 0.17708333333333334
            },
            {
              "pitch": 67,
              "velocity": 72,
              "position": 9.5,
              "duration": 0.1875
            },
            {
              "pitch": 71,
              "velocity": 110,
              "position": 9.75,
              "duration": 0.4375
            },
            {
              "pitch": 83,
              "velocity": 104,
              "position": 9.75,
              "duration": 0.4479166666666667
            },
            {
              "pitch": 59,
              "velocity": 110,
              "position": 9.760416666666666,
              "duration": 0.4375
            },
            {
              "pitch": 75,
              "velocity": 64,
              "position": 10.270833333333334,
              "duration": 0.16666666666666666
            },
            {
              "pitch": 63,
              "velocity": 76,
              "position": 10.260416666666666,
              "duration": 0.1875
            },
            {
              "pitch": 67,
              "velocity": 76,
              "position": 10.510416666666666,
              "duration": 0.16666666666666666
            },
            {
              "pitch": 79,
              "velocity": 90,
              "position": 10.5,
              "duration": 0.19791666666666666
            },
            {
              "pitch": 59,
              "velocity": 110,
              "position": 10.770833333333334,
              "duration": 0.3958333333333333
            },
            {
              "pitch": 71,
              "velocity": 90,
              "position": 10.760416666666666,
              "duration": 0.4583333333333333
            },
            {
              "pitch": 83,
              "velocity": 88,
              "position": 10.760416666666666,
              "duration": 0.4583333333333333
            },
            {
              "pitch": 63,
              "velocity": 68,
              "position": 11.25,
              "duration": 0.19791666666666666
            },
            {
              "pitch": 75,
              "velocity": 80,
              "position": 11.260416666666666,
              "duration": 0.1875
            },
            {
              "pitch": 67,
              "velocity": 78,
              "position": 11.5,
              "duration": 0.16666666666666666
            },
            {
              "pitch": 79,
              "velocity": 68,
              "position": 11.5,
              "duration": 0.21875
            },
            {
              "pitch": 71,
              "velocity": 104,
              "position": 11.760416666666666,
              "duration": 0.4583333333333333
            },
            {
              "pitch": 59,
              "velocity": 104,
              "position": 11.760416666666666,
              "duration": 0.4791666666666667
            },
            {
              "pitch": 83,
              "velocity": 124,
              "position": 11.760416666666666,
              "duration": 0.4791666666666667
            },
            {
              "pitch": 63,
              "velocity": 72,
              "position": 12.25,
              "duration": 0.17708333333333334
            },
            {
              "pitch": 75,
              "velocity": 80,
              "position": 12.260416666666666,
              "duration": 0.16666666666666666
            },
            {
              "pitch": 79,
              "velocity": 78,
              "position": 12.5,
              "duration": 0.16666666666666666
            },
            {
              "pitch": 67,
              "velocity": 78,
              "position": 12.5,
              "duration": 0.1875
            },
            {
              "pitch": 83,
              "velocity": 88,
              "position": 12.75,
              "duration": 0.15625
            },
            {
              "pitch": 71,
              "velocity": 88,
              "position": 12.75,
              "duration": 0.16666666666666666
            },
            {
              "pitch": 59,
              "velocity": 92,
              "position": 12.760416666666666,
              "duration": 0.15625
            },
            {
              "pitch": 59,
              "velocity": 84,
              "position": 13,
              "duration": 0.21875
            },
            {
              "pitch": 83,
              "velocity": 88,
              "position": 13,
              "duration": 0.23958333333333334
            },
            {
              "pitch": 71,
              "velocity": 110,
              "position": 13,
              "duration": 0.25
            },
            {
              "pitch": 75,
              "velocity": 78,
              "position": 13.260416666666666,
              "duration": 0.17708333333333334
            },
            {
              "pitch": 63,
              "velocity": 78,
              "position": 13.260416666666666,
              "duration": 0.19791666666666666
            },
            {
              "pitch": 79,
              "velocity": 70,
              "position": 13.5,
              "duration": 0.16666666666666666
            },
            {
              "pitch": 67,
              "velocity": 76,
              "position": 13.5,
              "duration": 0.17708333333333334
            },
            {
              "pitch": 59,
              "velocity": 80,
              "position": 13.760416666666666,
              "duration": 0.3645833333333333
            },
            {
              "pitch": 71,
              "velocity": 88,
              "position": 13.75,
              "duration": 0.4375
            },
            {
              "pitch": 83,
              "velocity": 104,
              "position": 13.75,
              "duration": 0.4583333333333333
            },
            {
              "pitch": 62,
              "velocity": 72,
              "position": 14.25,
              "duration": 0.19791666666666666
            },
            {
              "pitch": 74,
              "velocity": 70,
              "position": 14.25,
              "duration": 0.19791666666666666
            },
            {
              "pitch": 75,
              "velocity": 70,
              "position": 14.489583333333334,
              "duration": 0.17708333333333334
            },
            {
              "pitch": 63,
              "velocity": 76,
              "position": 14.5,
              "duration": 0.20833333333333334
            },
            {
              "pitch": 79,
              "velocity": 100,
              "position": 14.75,
              "duration": 0.14583333333333334
            },
            {
              "pitch": 67,
              "velocity": 86,
              "position": 14.75,
              "duration": 0.15625
            },
            {
              "pitch": 55,
              "velocity": 86,
              "position": 14.75,
              "duration": 0.16666666666666666
            },
            {
              "pitch": 83,
              "velocity": 104,
              "position": 15.25,
              "duration": 0.17708333333333334
            },
            {
              "pitch": 71,
              "velocity": 88,
              "position": 15.25,
              "duration": 0.1875
            },
            {
              "pitch": 59,
              "velocity": 88,
              "position": 15.25,
              "duration": 0.19791666666666666
            },
            {
              "pitch": 83,
              "velocity": 100,
              "position": 15.489583333333334,
              "duration": 0.6666666666666666
            },
            {
              "pitch": 71,
              "velocity": 118,
              "position": 15.489583333333334,
              "duration": 0.6666666666666666
            },
            {
              "pitch": 59,
              "velocity": 120,
              "position": 15.5,
              "duration": 0.6666666666666666
            },
            {
              "pitch": 75,
              "velocity": 78,
              "position": 16.25,
              "duration": 0.17708333333333334
            },
            {
              "pitch": 63,
              "velocity": 90,
              "position": 16.25,
              "duration": 0.20833333333333334
            },
            {
              "pitch": 79,
              "velocity": 80,
              "position": 16.489583333333332,
              "duration": 0.1875
            },
            {
              "pitch": 67,
              "velocity": 64,
              "position": 16.510416666666668,
              "duration": 0.16666666666666666
            },
            {
              "pitch": 83,
              "velocity": 88,
              "position": 16.75,
              "duration": 0.14583333333333334
            },
            {
              "pitch": 71,
              "velocity": 110,
              "position": 16.75,
              "duration": 0.14583333333333334
            },
            {
              "pitch": 59,
              "velocity": 80,
              "position": 16.760416666666668,
              "duration": 0.15625
            },
            {
              "pitch": 71,
              "velocity": 88,
              "position": 17,
              "duration": 0.22916666666666666
            },
            {
              "pitch": 83,
              "velocity": 110,
              "position": 17,
              "duration": 0.22916666666666666
            },
            {
              "pitch": 59,
              "velocity": 80,
              "position": 17,
              "duration": 0.22916666666666666
            },
            {
              "pitch": 75,
              "velocity": 70,
              "position": 17.260416666666668,
              "duration": 0.15625
            },
            {
              "pitch": 63,
              "velocity": 80,
              "position": 17.260416666666668,
              "duration": 0.22916666666666666
            },
            {
              "pitch": 79,
              "velocity": 80,
              "position": 17.5,
              "duration": 0.16666666666666666
            },
            {
              "pitch": 67,
              "velocity": 80,
              "position": 17.510416666666668,
              "duration": 0.17708333333333334
            },
            {
              "pitch": 59,
              "velocity": 92,
              "position": 17.760416666666668,
              "duration": 0.4270833333333333
            },
            {
              "pitch": 71,
              "velocity": 90,
              "position": 17.75,
              "duration": 0.4479166666666667
            },
            {
              "pitch": 83,
              "velocity": 90,
              "position": 17.75,
              "duration": 0.4479166666666667
            },
            {
              "pitch": 63,
              "velocity": 80,
              "position": 18.25,
              "duration": 0.17708333333333334
            },
            {
              "pitch": 75,
              "velocity": 70,
              "position": 18.260416666666668,
              "duration": 0.21875
            },
            {
              "pitch": 67,
              "velocity": 78,
              "position": 18.5,
              "duration": 0.15625
            },
            {
              "pitch": 79,
              "velocity": 78,
              "position": 18.5,
              "duration": 0.17708333333333334
            },
            {
              "pitch": 83,
              "velocity": 90,
              "position": 18.75,
              "duration": 0.4166666666666667
            },
            {
              "pitch": 71,
              "velocity": 90,
              "position": 18.75,
              "duration": 0.4791666666666667
            },
            {
              "pitch": 59,
              "velocity": 110,
              "position": 18.760416666666668,
              "duration": 0.4895833333333333
            },
            {
              "pitch": 63,
              "velocity": 58,
              "position": 19.25,
              "duration": 0.16666666666666666
            },
            {
              "pitch": 75,
              "velocity": 64,
              "position": 19.25,
              "duration": 0.1875
            },
            {
              "pitch": 67,
              "velocity": 78,
              "position": 19.489583333333332,
              "duration": 0.17708333333333334
            },
            {
              "pitch": 79,
              "velocity": 78,
              "position": 19.489583333333332,
              "duration": 0.20833333333333334
            },
            {
              "pitch": 59,
              "velocity": 88,
              "position": 19.75,
              "duration": 0.4270833333333333
            },
            {
              "pitch": 71,
              "velocity": 110,
              "position": 19.75,
              "duration": 0.4583333333333333
            },
            {
              "pitch": 83,
              "velocity": 120,
              "position": 19.75,
              "duration": 0.46875
            },
            {
              "pitch": 63,
              "velocity": 72,
              "position": 20.25,
              "duration": 0.17708333333333334
            },
            {
              "pitch": 75,
              "velocity": 76,
              "position": 20.260416666666668,
              "duration": 0.17708333333333334
            },
            {
              "pitch": 67,
              "velocity": 68,
              "position": 20.5,
              "duration": 0.14583333333333334
            },
            {
              "pitch": 79,
              "velocity": 78,
              "position": 20.5,
              "duration": 0.17708333333333334
            },
            {
              "pitch": 83,
              "velocity": 78,
              "position": 20.75,
              "duration": 0.15625
            },
            {
              "pitch": 71,
              "velocity": 84,
              "position": 20.75,
              "duration": 0.15625
            },
            {
              "pitch": 59,
              "velocity": 88,
              "position": 20.760416666666668,
              "duration": 0.15625
            },
            {
              "pitch": 83,
              "velocity": 94,
              "position": 21,
              "duration": 0.23958333333333334
            },
            {
              "pitch": 71,
              "velocity": 88,
              "position": 21,
              "duration": 0.25
            },
            {
              "pitch": 59,
              "velocity": 84,
              "position": 21,
              "duration": 0.25
            },
            {
              "pitch": 75,
              "velocity": 80,
              "position": 21.25,
              "duration": 0.17708333333333334
            },
            {
              "pitch": 63,
              "velocity": 78,
              "position": 21.25,
              "duration": 0.19791666666666666
            },
            {
              "pitch": 79,
              "velocity": 72,
              "position": 21.489583333333332,
              "duration": 0.16666666666666666
            },
            {
              "pitch": 67,
              "velocity": 80,
              "position": 21.5,
              "duration": 0.16666666666666666
            },
            {
              "pitch": 59,
              "velocity": 92,
              "position": 21.760416666666668,
              "duration": 0.4270833333333333
            },
            {
              "pitch": 71,
              "velocity": 88,
              "position": 21.75,
              "duration": 0.4791666666666667
            },
            {
              "pitch": 83,
              "velocity": 88,
              "position": 21.75,
              "duration": 0.4791666666666667
            },
            {
              "pitch": 75,
              "velocity": 68,
              "position": 22.25,
              "duration": 0.16666666666666666
            },
            {
              "pitch": 63,
              "velocity": 78,
              "position": 22.25,
              "duration": 0.17708333333333334
            },
            {
              "pitch": 67,
              "velocity": 78,
              "position": 22.5,
              "duration": 0.15625
            },
            {
              "pitch": 79,
              "velocity": 78,
              "position": 22.5,
              "duration": 0.16666666666666666
            },
            {
              "pitch": 71,
              "velocity": 88,
              "position": 22.75,
              "duration": 0.4166666666666667
            },
            {
              "pitch": 59,
              "velocity": 92,
              "position": 22.760416666666668,
              "duration": 0.40625
            },
            {
              "pitch": 83,
              "velocity": 88,
              "position": 22.75,
              "duration": 0.4479166666666667
            },
            {
              "pitch": 63,
              "velocity": 80,
              "position": 23.25,
              "duration": 0.1875
            },
            {
              "pitch": 75,
              "velocity": 68,
              "position": 23.260416666666668,
              "duration": 0.19791666666666666
            },
            {
              "pitch": 79,
              "velocity": 80,
              "position": 23.5,
              "duration": 0.17708333333333334
            },
            {
              "pitch": 67,
              "velocity": 80,
              "position": 23.489583333333332,
              "duration": 0.20833333333333334
            },
            {
              "pitch": 59,
              "velocity": 92,
              "position": 23.75,
              "duration": 0.14583333333333334
            },
            {
              "pitch": 71,
              "velocity": 90,
              "position": 23.75,
              "duration": 0.14583333333333334
            },
            {
              "pitch": 83,
              "velocity": 110,
              "position": 23.75,
              "duration": 0.16666666666666666
            },
            {
              "pitch": 71,
              "velocity": 124,
              "position": 24,
              "duration": 0.1875
            },
            {
              "pitch": 59,
              "velocity": 80,
              "position": 24,
              "duration": 0.20833333333333334
            },
            {
              "pitch": 83,
              "velocity": 110,
              "position": 24,
              "duration": 0.21875
            },
            {
              "pitch": 63,
              "velocity": 76,
              "position": 24.25,
              "duration": 0.16666666666666666
            },
            {
              "pitch": 75,
              "velocity": 90,
              "position": 24.25,
              "duration": 0.17708333333333334
            },
            {
              "pitch": 67,
              "velocity": 78,
              "position": 24.489583333333332,
              "duration": 0.16666666666666666
            },
            {
              "pitch": 79,
              "velocity": 90,
              "position": 24.489583333333332,
              "duration": 0.16666666666666666
            },
            {
              "pitch": 83,
              "velocity": 88,
              "position": 24.75,
              "duration": 0.15625
            },
            {
              "pitch": 71,
              "velocity": 110,
              "position": 24.75,
              "duration": 0.15625
            },
            {
              "pitch": 59,
              "velocity": 94,
              "position": 24.75,
              "duration": 0.16666666666666666
            },
            {
              "pitch": 83,
              "velocity": 88,
              "position": 25,
              "duration": 0.20833333333333334
            },
            {
              "pitch": 71,
              "velocity": 110,
              "position": 25,
              "duration": 0.20833333333333334
            },
            {
              "pitch": 59,
              "velocity": 110,
              "position": 25,
              "duration": 0.25
            },
            {
              "pitch": 75,
              "velocity": 72,
              "position": 25.25,
              "duration": 0.16666666666666666
            },
            {
              "pitch": 63,
              "velocity": 72,
              "position": 25.260416666666668,
              "duration": 0.1875
            },
            {
              "pitch": 79,
              "velocity": 72,
              "position": 25.5,
              "duration": 0.17708333333333334
            },
            {
              "pitch": 67,
              "velocity": 72,
              "position": 25.5,
              "duration": 0.1875
            },
            {
              "pitch": 71,
              "velocity": 110,
              "position": 25.75,
              "duration": 0.4375
            },
            {
              "pitch": 83,
              "velocity": 104,
              "position": 25.75,
              "duration": 0.4479166666666667
            },
            {
              "pitch": 59,
              "velocity": 110,
              "position": 25.760416666666668,
              "duration": 0.4375
            },
            {
              "pitch": 75,
              "velocity": 64,
              "position": 26.270833333333332,
              "duration": 0.16666666666666666
            },
            {
              "pitch": 63,
              "velocity": 76,
              "position": 26.260416666666668,
              "duration": 0.1875
            },
            {
              "pitch": 67,
              "velocity": 76,
              "position": 26.510416666666668,
              "duration": 0.16666666666666666
            },
            {
              "pitch": 79,
              "velocity": 90,
              "position": 26.5,
              "duration": 0.19791666666666666
            },
            {
              "pitch": 59,
              "velocity": 110,
              "position": 26.770833333333332,
              "duration": 0.3958333333333333
            },
            {
              "pitch": 71,
              "velocity": 90,
              "position": 26.760416666666668,
              "duration": 0.4583333333333333
            },
            {
              "pitch": 83,
              "velocity": 88,
              "position": 26.760416666666668,
              "duration": 0.4583333333333333
            },
            {
              "pitch": 63,
              "velocity": 68,
              "position": 27.25,
              "duration": 0.19791666666666666
            },
            {
              "pitch": 75,
              "velocity": 80,
              "position": 27.260416666666668,
              "duration": 0.1875
            },
            {
              "pitch": 67,
              "velocity": 78,
              "position": 27.5,
              "duration": 0.16666666666666666
            },
            {
              "pitch": 79,
              "velocity": 68,
              "position": 27.5,
              "duration": 0.21875
            },
            {
              "pitch": 71,
              "velocity": 104,
              "position": 27.760416666666668,
              "duration": 0.4583333333333333
            },
            {
              "pitch": 59,
              "velocity": 104,
              "position": 27.760416666666668,
              "duration": 0.4791666666666667
            },
            {
              "pitch": 83,
              "velocity": 124,
              "position": 27.760416666666668,
              "duration": 0.4791666666666667
            },
            {
              "pitch": 75,
              "velocity": 78,
              "position": 28.260416666666668,
              "duration": 0.16666666666666666
            },
            {
              "pitch": 63,
              "velocity": 68,
              "position": 28.260416666666668,
              "duration": 0.17708333333333334
            },
            {
              "pitch": 67,
              "velocity": 70,
              "position": 28.5,
              "duration": 0.16666666666666666
            },
            {
              "pitch": 79,
              "velocity": 72,
              "position": 28.5,
              "duration": 0.1875
            },
            {
              "pitch": 83,
              "velocity": 110,
              "position": 28.760416666666668,
              "duration": 0.125
            },
            {
              "pitch": 71,
              "velocity": 110,
              "position": 28.760416666666668,
              "duration": 0.13541666666666666
            },
            {
              "pitch": 59,
              "velocity": 80,
              "position": 28.760416666666668,
              "duration": 0.19791666666666666
            },
            {
              "pitch": 71,
              "velocity": 104,
              "position": 29,
              "duration": 0.19791666666666666
            },
            {
              "pitch": 83,
              "velocity": 104,
              "position": 29,
              "duration": 0.22916666666666666
            },
            {
              "pitch": 59,
              "velocity": 80,
              "position": 29,
              "duration": 0.25
            },
            {
              "pitch": 75,
              "velocity": 70,
              "position": 29.260416666666668,
              "duration": 0.15625
            },
            {
              "pitch": 63,
              "velocity": 80,
              "position": 29.260416666666668,
              "duration": 0.19791666666666666
            },
            {
              "pitch": 79,
              "velocity": 70,
              "position": 29.5,
              "duration": 0.1875
            },
            {
              "pitch": 67,
              "velocity": 80,
              "position": 29.5,
              "duration": 0.1875
            },
            {
              "pitch": 83,
              "velocity": 104,
              "position": 29.760416666666668,
              "duration": 0.4166666666666667
            },
            {
              "pitch": 71,
              "velocity": 110,
              "position": 29.760416666666668,
              "duration": 0.4270833333333333
            },
            {
              "pitch": 59,
              "velocity": 92,
              "position": 29.760416666666668,
              "duration": 0.4583333333333333
            },
            {
              "pitch": 75,
              "velocity": 72,
              "position": 30.260416666666668,
              "duration": 0.16666666666666666
            },
            {
              "pitch": 63,
              "velocity": 80,
              "position": 30.25,
              "duration": 0.20833333333333334
            },
            {
              "pitch": 67,
              "velocity": 80,
              "position": 30.5,
              "duration": 0.16666666666666666
            },
            {
              "pitch": 79,
              "velocity": 80,
              "position": 30.5,
              "duration": 0.19791666666666666
            },
            {
              "pitch": 59,
              "velocity": 92,
              "position": 30.760416666666668,
              "duration": 0.3854166666666667
            },
            {
              "pitch": 83,
              "velocity": 104,
              "position": 30.760416666666668,
              "duration": 0.4166666666666667
            },
            {
              "pitch": 71,
              "velocity": 110,
              "position": 30.75,
              "duration": 0.4375
            },
            {
              "pitch": 75,
              "velocity": 72,
              "position": 31.260416666666668,
              "duration": 0.16666666666666666
            },
            {
              "pitch": 63,
              "velocity": 68,
              "position": 31.260416666666668,
              "duration": 0.17708333333333334
            },
            {
              "pitch": 79,
              "velocity": 88,
              "position": 31.5,
              "duration": 0.17708333333333334
            },
            {
              "pitch": 67,
              "velocity": 78,
              "position": 31.5,
              "duration": 0.1875
            },
            {
              "pitch": 83,
              "velocity": 88,
              "position": 31.75,
              "duration": 0.17708333333333334
            },
            {
              "pitch": 71,
              "velocity": 84,
              "position": 31.75,
              "duration": 0.1875
            },
            {
              "pitch": 59,
              "velocity": 80,
              "position": 31.760416666666668,
              "duration": 0.17708333333333334
            }
          ]
        }
      }
    },
    "Fill_In_AA": {
      "type": "Fill_In_AA",
      "sizeInBeats": 4,
      "channels": {
        "1": {
          "ctab": {
            "srcChannel": 1,
            "name": "BrasSect",
            "accType": "PHRASE1",
            "editable": false,
            "mutedNotes": [],
            "mutedChords": [
              "7aug",
              "Maj7aug",
              "7(#9)",
              "7(b13)",
              "7(b9)",
              "7(13)",
              "7#11",
              "7(9)",
              "7b5",
              "7sus4",
              "7th"
            ],
            "autoStart": false,
            "sourceChordNote": 0,
            "sourceChordType": "Maj7",
            "ctb2Low": null,
            "ctb2Main": {
              "ntr": "ROOT_FIXED",
              "ntt": "CHORD",
              "bassOn": false,
              "chordRootUpperLimit": 6,
              "noteLowLimit": 0,
              "noteHighLimit": 127,
              "rtr": "PITCH_SHIFT"
            },
            "ctb2High": null
          },
          "notes": [
            {
              "pitch": 48,
              "velocity": 108,
              "position": 1,
              "duration": 0.1875
            },
            {
              "pitch": 59,
              "velocity": 124,
              "position": 1.0104166666666667,
              "duration": 0.19791666666666666
            },
            {
              "pitch": 48,
              "velocity": 102,
              "position": 1.2604166666666667,
              "duration": 0.17708333333333334
            },
            {
              "pitch": 59,
              "velocity": 110,
              "position": 1.2604166666666667,
              "duration": 0.1875
            },
            {
              "pitch": 43,
              "velocity": 124,
              "position": 1.75,
              "duration": 0.17708333333333334
            },
            {
              "pitch": 55,
              "velocity": 124,
              "position": 1.7604166666666667,
              "duration": 0.17708333333333334
            },
            {
              "pitch": 55,
              "velocity": 110,
              "position": 2.75,
              "duration": 0.1875
            },
            {
              "pitch": 43,
              "velocity": 104,
              "position": 2.75,
              "duration": 0.20833333333333334
            },
            {
              "pitch": 48,
              "velocity": 118,
              "position": 3,
              "duration": 0.17708333333333334
            },
            {
              "pitch": 59,
              "velocity": 124,
              "position": 3,
              "duration": 0.1875
            },
            {
              "pitch": 59,
              "velocity": 104,
              "position": 3.2604166666666665,
              "duration": 0.15625
            },
            {
              "pitch": 48,
              "velocity": 108,
              "position": 3.2604166666666665,
              "duration": 0.16666666666666666
            }
          ]
        },
        "2": {
          "ctab": {
            "srcChannel": 2,
            "name": "BrasSect",
            "accType": "PHRASE1",
            "editable": false,
            "mutedNotes": [],
            "mutedChords": [
              "1+2+5",
              "sus4",
              "1+5",
              "1+8",
              "dim7",
              "dim",
              "minMaj7(9)",
              "minMaj7",
              "min7(11)",
              "min7(9)",
              "min(9)",
              "m7b5",
              "min7",
              "min6",
              "min",
              "aug",
              "Maj6(9)",
              "Maj7(9)",
              "Maj(9)",
              "Maj7#11",
              "Maj7",
              "Maj6",
              "Maj"
            ],
            "autoStart": false,
            "sourceChordNote": 0,
            "sourceChordType": "7th",
            "ctb2Low": null,
            "ctb2Main": {
              "ntr": "ROOT_FIXED",
              "ntt": "CHORD",
              "bassOn": false,
              "chordRootUpperLimit": 6,
              "noteLowLimit": 0,
              "noteHighLimit": 127,
              "rtr": "PITCH_SHIFT"
            },
            "ctb2High": null
          },
          "notes": [
            {
              "pitch": 48,
              "velocity": 108,
              "position": 1,
              "duration": 0.1875
            },
            {
              "pitch": 60,
              "velocity": 124,
              "position": 1.0104166666666667,
              "duration": 0.19791666666666666
            },
            {
              "pitch": 48,
              "velocity": 102,
              "position": 1.2604166666666667,
              "duration": 0.17708333333333334
            },
            {
              "pitch": 60,
              "velocity": 110,
              "position": 1.2604166666666667,
              "duration": 0.1875
            },
            {
              "pitch": 46,
              "velocity": 124,
              "position": 1.75,
              "duration": 0.17708333333333334
            },
            {
              "pitch": 58,
              "velocity": 124,
              "position": 1.7604166666666667,
              "duration": 0.17708333333333334
            },
            {
              "pitch": 58,
              "velocity": 110,
              "position": 2.75,
              "duration": 0.1875
            },
            {
              "pitch": 46,
              "velocity": 104,
              "position": 2.75,
              "duration": 0.20833333333333334
            },
            {
              "pitch": 48,
              "velocity": 118,
              "position": 3,
              "duration": 0.17708333333333334
            },
            {
              "pitch": 60,
              "velocity": 124,
              "position": 3,
              "duration": 0.1875
            },
            {
              "pitch": 60,
              "velocity": 104,
              "position": 3.2604166666666665,
              "duration": 0.15625
            },
            {
              "pitch": 48,
              "velocity": 108,
              "position": 3.2604166666666665,
              "duration": 0.16666666666666666
            }
          ]
        },
        "4": {
          "ctab": {
            "srcChannel": 4,
            "name": "BrasSect",
            "accType": "PHRASE2",
            "editable": false,
            "mutedNotes": [],
            "mutedChords": [
              "7aug",
              "Maj7aug",
              "7(#9)",
              "7(b13)",
              "7(b9)",
              "7(13)",
              "7#11",
              "7(9)",
              "7b5",
              "7sus4",
              "7th"
            ],
            "autoStart": false,
            "sourceChordNote": 0,
            "sourceChordType": "Maj7",
            "ctb2Low": null,
            "ctb2Main": {
              "ntr": "ROOT_TRANSPOSITION",
              "ntt": "CHORD",
              "bassOn": false,
              "chordRootUpperLimit": 6,
              "noteLowLimit": 0,
              "noteHighLimit": 127,
              "rtr": "PITCH_SHIFT"
            },
            "ctb2High": null
          },
          "notes": [
            {
              "pitch": 67,
              "velocity": 114,
              "position": 1.75,
              "duration": 0.11458333333333333
            },
            {
              "pitch": 79,
              "velocity": 114,
              "position": 1.7604166666666667,
              "duration": 0.125
            },
            {
              "pitch": 79,
              "velocity": 124,
              "position": 2.2604166666666665,
              "duration": 0.17708333333333334
            },
            {
              "pitch": 67,
              "velocity": 114,
              "position": 2.2604166666666665,
              "duration": 0.19791666666666666
            },
            {
              "pitch": 67,
              "velocity": 104,
              "position": 2.5104166666666665,
              "duration": 0.17708333333333334
            },
            {
              "pitch": 79,
              "velocity": 110,
              "position": 2.5,
              "duration": 0.19791666666666666
            },
            {
              "pitch": 79,
              "velocity": 92,
              "position": 2.7604166666666665,
              "duration": 0.16666666666666666
            },
            {
              "pitch": 67,
              "velocity": 92,
              "position": 2.7604166666666665,
              "duration": 0.17708333333333334
            },
            {
              "pitch": 71,
              "velocity": 126,
              "position": 3,
              "duration": 0.19791666666666666
            },
            {
              "pitch": 71,
              "velocity": 110,
              "position": 3.2604166666666665,
              "duration": 0.16666666666666666
            }
          ]
        },
        "5": {
          "ctab": {
            "srcChannel": 5,
            "name": "BrasSect",
            "accType": "PHRASE2",
            "editable": false,
            "mutedNotes": [],
            "mutedChords": [
              "1+2+5",
              "sus4",
              "1+5",
              "1+8",
              "dim7",
              "dim",
              "minMaj7(9)",
              "minMaj7",
              "min7(11)",
              "min7(9)",
              "min(9)",
              "m7b5",
              "min7",
              "min6",
              "min",
              "aug",
              "Maj6(9)",
              "Maj7(9)",
              "Maj(9)",
              "Maj7#11",
              "Maj7",
              "Maj6",
              "Maj"
            ],
            "autoStart": false,
            "sourceChordNote": 0,
            "sourceChordType": "7th",
            "ctb2Low": null,
            "ctb2Main": {
              "ntr": "ROOT_TRANSPOSITION",
              "ntt": "CHORD",
              "bassOn": false,
              "chordRootUpperLimit": 6,
              "noteLowLimit": 0,
              "noteHighLimit": 127,
              "rtr": "PITCH_SHIFT"
            },
            "ctb2High": null
          },
          "notes": [
            {
              "pitch": 70,
              "velocity": 114,
              "position": 1.75,
              "duration": 0.11458333333333333
            },
            {
              "pitch": 82,
              "velocity": 114,
              "position": 1.7604166666666667,
              "duration": 0.125
            },
            {
              "pitch": 82,
              "velocity": 124,
              "position": 2.2604166666666665,
              "duration": 0.17708333333333334
            },
            {
              "pitch": 70,
              "velocity": 114,
              "position": 2.2604166666666665,
              "duration": 0.19791666666666666
            },
            {
              "pitch": 70,
              "velocity": 104,
              "position": 2.5104166666666665,
              "duration": 0.17708333333333334
            },
            {
              "pitch": 82,
              "velocity": 110,
              "position": 2.5,
              "duration": 0.19791666666666666
            },
            {
              "pitch": 82,
              "velocity": 92,
              "position": 2.7604166666666665,
              "duration": 0.16666666666666666
            },
            {
              "pitch": 70,
              "velocity": 92,
              "position": 2.7604166666666665,
              "duration": 0.17708333333333334
            },
            {
              "pitch": 72,
              "velocity": 126,
              "position": 3,
              "duration": 0.19791666666666666
            },
            {
              "pitch": 72,
              "velocity": 110,
              "position": 3.2604166666666665,
              "duration": 0.16666666666666666
            }
          ]
        },
        "8": {
          "ctab": {
            "srcChannel": 8,
            "name": "Std.Kit1",
            "accType": "RHYTHM",
            "editable": false,
            "mutedNotes": [],
            "mutedChords": [],
            "autoStart": true,
            "sourceChordNote": 0,
            "sourceChordType": "Maj7",
            "ctb2Low": null,
            "ctb2Main": {
              "ntr": "ROOT_FIXED",
              "ntt": "BYPASS",
              "bassOn": false,
              "chordRootUpperLimit": 6,
              "noteLowLimit": 0,
              "noteHighLimit": 127,
              "rtr": "PITCH_SHIFT"
            },
            "ctb2High": null
          },
          "notes": [
            {
              "pitch": 42,
              "velocity": 126,
              "position": 0,
              "duration": 0.015625
            },
            {
              "pitch": 42,
              "velocity": 80,
              "position": 0.25,
              "duration": 0.015625
            },
            {
              "pitch": 42,
              "velocity": 72,
              "position": 0.4895833333333333,
              "duration": 0.015625
            },
            {
              "pitch": 42,
              "velocity": 64,
              "position": 0.7604166666666666,
              "duration": 0.015625
            },
            {
              "pitch": 42,
              "velocity": 126,
              "position": 1,
              "duration": 0.015625
            },
            {
              "pitch": 42,
              "velocity": 80,
              "position": 1.25,
              "duration": 0.015625
            },
            {
              "pitch": 42,
              "velocity": 92,
              "position": 1.75,
              "duration": 0.015625
            },
            {
              "pitch": 42,
              "velocity": 92,
              "position": 2.2604166666666665,
              "duration": 0.015625
            },
            {
              "pitch": 42,
              "velocity": 80,
              "position": 2.5,
              "duration": 0.015625
            },
            {
              "pitch": 42,
              "velocity": 80,
              "position": 2.75,
              "duration": 0.015625
            },
            {
              "pitch": 42,
              "velocity": 92,
              "position": 3,
              "duration": 0.015625
            },
            {
              "pitch": 36,
              "velocity": 110,
              "position": 3.25,
              "duration": 0.015625
            },
            {
              "pitch": 42,
              "velocity": 110,
              "position": 3.25,
              "duration": 0.015625
            }
          ]
        },
        "10": {
          "ctab": {
            "srcChannel": 10,
            "name": "Std.Kit1",
            "accType": "SUBRHYTHM",
            "editable": false,
            "mutedNotes": [],
            "mutedChords": [],
            "autoStart": true,
            "sourceChordNote": 0,
            "sourceChordType": "Maj7",
            "ctb2Low": null,
            "ctb2Main": {
              "ntr": "ROOT_FIXED",
              "ntt": "BYPASS",
              "bassOn": false,
              "chordRootUpperLimit": 6,
              "noteLowLimit": 0,
              "noteHighLimit": 127,
              "rtr": "PITCH_SHIFT"
            },
            "ctb2High": null
          },
          "notes": [
            {
              "pitch": 64,
              "velocity": 110,
              "position": 0,
              "duration": 0.015625
            },
            {
              "pitch": 66,
              "velocity": 110,
              "position": 0,
              "duration": 0.015625
            },
            {
              "pitch": 68,
              "velocity": 112,
              "position": 0,
              "duration": 0.015625
            },
            {
              "pitch": 56,
              "velocity": 110,
              "position": 0,
              "duration": 0.015625
            },
            {
              "pitch": 66,
              "velocity": 92,
              "position": 0.25,
              "duration": 0.015625
            },
            {
              "pitch": 64,
              "velocity": 80,
              "position": 0.25,
              "duration": 0.015625
            },
            {
              "pitch": 64,
              "velocity": 80,
              "position": 0.4895833333333333,
              "duration": 0.015625
            },
            {
              "pitch": 66,
              "velocity": 110,
              "position": 0.5,
              "duration": 0.015625
            },
            {
              "pitch": 64,
              "velocity": 90,
              "position": 0.75,
              "duration": 0.015625
            },
            {
              "pitch": 66,
              "velocity": 92,
              "position": 0.75,
              "duration": 0.015625
            },
            {
              "pitch": 62,
              "velocity": 110,
              "position": 0.9895833333333334,
              "duration": 0.015625
            },
            {
              "pitch": 65,
              "velocity": 110,
              "position": 1,
              "duration": 0.015625
            },
            {
              "pitch": 65,
              "velocity": 110,
              "position": 1.2604166666666667,
              "duration": 0.015625
            },
            {
              "pitch": 62,
              "velocity": 124,
              "position": 1.2708333333333333,
              "duration": 0.015625
            },
            {
              "pitch": 64,
              "velocity": 110,
              "position": 1.7604166666666667,
              "duration": 0.015625
            },
            {
              "pitch": 65,
              "velocity": 126,
              "position": 1.7604166666666667,
              "duration": 0.015625
            },
            {
              "pitch": 66,
              "velocity": 92,
              "position": 2.25,
              "duration": 0.015625
            },
            {
              "pitch": 64,
              "velocity": 92,
              "position": 2.2604166666666665,
              "duration": 0.015625
            },
            {
              "pitch": 66,
              "velocity": 92,
              "position": 2.5,
              "duration": 0.015625
            },
            {
              "pitch": 64,
              "velocity": 92,
              "position": 2.5,
              "duration": 0.015625
            },
            {
              "pitch": 64,
              "velocity": 92,
              "position": 2.75,
              "duration": 0.015625
            },
            {
              "pitch": 66,
              "velocity": 80,
              "position": 2.75,
              "duration": 0.015625
            },
            {
              "pitch": 62,
              "velocity": 126,
              "position": 3,
              "duration": 0.015625
            },
            {
              "pitch": 65,
              "velocity": 110,
              "position": 3,
              "duration": 0.015625
            },
            {
              "pitch": 65,
              "velocity": 126,
              "position": 3.2604166666666665,
              "duration": 0.015625
            },
            {
              "pitch": 62,
              "velocity": 126,
              "position": 3.2604166666666665,
              "duration": 0.015625
            },
            {
              "pitch": 65,
              "velocity": 66,
              "position": 3.4895833333333335,
              "duration": 0.015625
            },
            {
              "pitch": 65,
              "velocity": 78,
              "position": 3.6145833333333335,
              "duration": 0.015625
            },
            {
              "pitch": 65,
              "velocity": 94,
              "position": 3.75,
              "duration": 0.015625
            },
            {
              "pitch": 65,
              "velocity": 108,
              "position": 3.8645833333333335,
              "duration": 0.015625
            },
            {
              "pitch": 65,
              "velocity": 126,
              "position": 3.9791666666666665,
              "duration": 0.015625
            }
          ]
        },
        "12": {
          "ctab": {
            "srcChannel": 12,
            "name": "Aco.Bass",
            "accType": "BASS",
            "editable": false,
            "mutedNotes": [],
            "mutedChords": [],
            "autoStart": false,
            "sourceChordNote": 0,
            "sourceChordType": "Maj7",
            "ctb2Low": null,
            "ctb2Main": {
              "ntr": "ROOT_TRANSPOSITION",
              "ntt": "MELODY",
              "bassOn": true,
              "chordRootUpperLimit": 3,
              "noteLowLimit": 28,
              "noteHighLimit": 54,
              "rtr": "PITCH_SHIFT_TO_ROOT"
            },
            "ctb2High": null
          },
          "notes": [
            {
              "pitch": 43,
              "velocity": 106,
              "position": 0,
              "duration": 0.1875
            },
            {
              "pitch": 43,
              "velocity": 92,
              "position": 0.25,
              "duration": 0.1875
            },
            {
              "pitch": 43,
              "velocity": 92,
              "position": 0.5,
              "duration": 0.20833333333333334
            },
            {
              "pitch": 43,
              "velocity": 92,
              "position": 0.7604166666666666,
              "duration": 0.20833333333333334
            },
            {
              "pitch": 48,
              "velocity": 104,
              "position": 1,
              "duration": 0.22916666666666666
            },
            {
              "pitch": 48,
              "velocity": 126,
              "position": 1.2604166666666667,
              "duration": 0.17708333333333334
            },
            {
              "pitch": 43,
              "velocity": 126,
              "position": 1.7604166666666667,
              "duration": 0.14583333333333334
            },
            {
              "pitch": 43,
              "velocity": 106,
              "position": 2.2604166666666665,
              "duration": 0.15625
            },
            {
              "pitch": 43,
              "velocity": 92,
              "position": 2.5,
              "duration": 0.19791666666666666
            },
            {
              "pitch": 43,
              "velocity": 92,
              "position": 2.75,
              "duration": 0.19791666666666666
            },
            {
              "pitch": 48,
              "velocity": 106,
              "position": 3,
              "duration": 0.20833333333333334
            },
            {
              "pitch": 48,
              "velocity": 126,
              "position": 3.2604166666666665,
              "duration": 0.17708333333333334
            }
          ]
        },
        "14": {
          "ctab": {
            "srcChannel": 14,
            "name": "GrandPno",
            "accType": "CHORD1",
            "editable": false,
            "mutedNotes": [],
            "mutedChords": [
              "7aug",
              "Maj7aug",
              "7(#9)",
              "7(b13)",
              "7(b9)",
              "7(13)",
              "7#11",
              "7(9)",
              "7b5",
              "7sus4",
              "7th"
            ],
            "autoStart": false,
            "sourceChordNote": 0,
            "sourceChordType": "Maj7",
            "ctb2Low": null,
            "ctb2Main": {
              "ntr": "ROOT_FIXED",
              "ntt": "CHORD",
              "bassOn": false,
              "chordRootUpperLimit": 6,
              "noteLowLimit": 0,
              "noteHighLimit": 127,
              "rtr": "PITCH_SHIFT"
            },
            "ctb2High": null
          },
          "notes": [
            {
              "pitch": 43,
              "velocity": 104,
              "position": 0,
              "duration": 0.16666666666666666
            },
            {
              "pitch": 55,
              "velocity": 110,
              "position": 0,
              "duration": 0.17708333333333334
            },
            {
              "pitch": 67,
              "velocity": 92,
              "position": 0,
              "duration": 0.19791666666666666
            },
            {
              "pitch": 43,
              "velocity": 84,
              "position": 0.2604166666666667,
              "duration": 0.16666666666666666
            },
            {
              "pitch": 67,
              "velocity": 88,
              "position": 0.2604166666666667,
              "duration": 0.16666666666666666
            },
            {
              "pitch": 55,
              "velocity": 80,
              "position": 0.2604166666666667,
              "duration": 0.19791666666666666
            },
            {
              "pitch": 43,
              "velocity": 80,
              "position": 0.5104166666666666,
              "duration": 0.16666666666666666
            },
            {
              "pitch": 67,
              "velocity": 104,
              "position": 0.5104166666666666,
              "duration": 0.16666666666666666
            },
            {
              "pitch": 55,
              "velocity": 60,
              "position": 0.5104166666666666,
              "duration": 0.17708333333333334
            },
            {
              "pitch": 55,
              "velocity": 84,
              "position": 0.7604166666666666,
              "duration": 0.17708333333333334
            },
            {
              "pitch": 43,
              "velocity": 88,
              "position": 0.7604166666666666,
              "duration": 0.1875
            },
            {
              "pitch": 67,
              "velocity": 94,
              "position": 0.7604166666666666,
              "duration": 0.1875
            },
            {
              "pitch": 48,
              "velocity": 110,
              "position": 1.0104166666666667,
              "duration": 0.1875
            },
            {
              "pitch": 59,
              "velocity": 104,
              "position": 1.0104166666666667,
              "duration": 0.19791666666666666
            },
            {
              "pitch": 71,
              "velocity": 104,
              "position": 1.0104166666666667,
              "duration": 0.21875
            },
            {
              "pitch": 59,
              "velocity": 110,
              "position": 1.2708333333333333,
              "duration": 0.13541666666666666
            },
            {
              "pitch": 48,
              "velocity": 110,
              "position": 1.2604166666666667,
              "duration": 0.15625
            },
            {
              "pitch": 71,
              "velocity": 76,
              "position": 1.2708333333333333,
              "duration": 0.14583333333333334
            },
            {
              "pitch": 55,
              "velocity": 110,
              "position": 1.75,
              "duration": 0.13541666666666666
            },
            {
              "pitch": 67,
              "velocity": 104,
              "position": 1.75,
              "duration": 0.13541666666666666
            },
            {
              "pitch": 43,
              "velocity": 110,
              "position": 1.75,
              "duration": 0.15625
            },
            {
              "pitch": 43,
              "velocity": 110,
              "position": 2.25,
              "duration": 0.17708333333333334
            },
            {
              "pitch": 55,
              "velocity": 110,
              "position": 2.25,
              "duration": 0.1875
            },
            {
              "pitch": 67,
              "velocity": 110,
              "position": 2.25,
              "duration": 0.19791666666666666
            },
            {
              "pitch": 67,
              "velocity": 88,
              "position": 2.5,
              "duration": 0.1875
            },
            {
              "pitch": 55,
              "velocity": 84,
              "position": 2.5,
              "duration": 0.1875
            },
            {
              "pitch": 43,
              "velocity": 84,
              "position": 2.5,
              "duration": 0.19791666666666666
            },
            {
              "pitch": 67,
              "velocity": 84,
              "position": 2.7604166666666665,
              "duration": 0.17708333333333334
            },
            {
              "pitch": 43,
              "velocity": 88,
              "position": 2.75,
              "duration": 0.19791666666666666
            },
            {
              "pitch": 55,
              "velocity": 88,
              "position": 2.75,
              "duration": 0.19791666666666666
            },
            {
              "pitch": 59,
              "velocity": 94,
              "position": 3,
              "duration": 0.17708333333333334
            },
            {
              "pitch": 48,
              "velocity": 110,
              "position": 3,
              "duration": 0.1875
            },
            {
              "pitch": 71,
              "velocity": 124,
              "position": 3,
              "duration": 0.1875
            },
            {
              "pitch": 71,
              "velocity": 90,
              "position": 3.2604166666666665,
              "duration": 0.13541666666666666
            },
            {
              "pitch": 48,
              "velocity": 110,
              "position": 3.2604166666666665,
              "duration": 0.13541666666666666
            },
            {
              "pitch": 59,
              "velocity": 110,
              "position": 3.2604166666666665,
              "duration": 0.13541666666666666
            }
          ]
        },
        "15": {
          "ctab": {
            "srcChannel": 15,
            "name": "GrandPno",
            "accType": "CHORD1",
            "editable": false,
            "mutedNotes": [],
            "mutedChords": [
              "1+2+5",
              "sus4",
              "1+5",
              "1+8",
              "dim7",
              "dim",
              "minMaj7(9)",
              "minMaj7",
              "min7(11)",
              "min7(9)",
              "min(9)",
              "m7b5",
              "min7",
              "min6",
              "min",
              "aug",
              "Maj6(9)",
              "Maj7(9)",
              "Maj(9)",
              "Maj7#11",
              "Maj7",
              "Maj6",
              "Maj"
            ],
            "autoStart": false,
            "sourceChordNote": 0,
            "sourceChordType": "7th",
            "ctb2Low": null,
            "ctb2Main": {
              "ntr": "ROOT_FIXED",
              "ntt": "CHORD",
              "bassOn": false,
              "chordRootUpperLimit": 6,
              "noteLowLimit": 0,
              "noteHighLimit": 127,
              "rtr": "PITCH_SHIFT"
            },
            "ctb2High": null
          },
          "notes": [
            {
              "pitch": 46,
              "velocity": 104,
              "position": 0,
              "duration": 0.16666666666666666
            },
            {
              "pitch": 58,
              "velocity": 110,
              "position": 0,
              "duration": 0.17708333333333334
            },
            {
              "pitch": 70,
              "velocity": 92,
              "position": 0,
              "duration": 0.19791666666666666
            },
            {
              "pitch": 46,
              "velocity": 84,
              "position": 0.2604166666666667,
              "duration": 0.16666666666666666
            },
            {
              "pitch": 70,
              "velocity": 88,
              "position": 0.2604166666666667,
              "duration": 0.16666666666666666
            },
            {
              "pitch": 58,
              "velocity": 80,
              "position": 0.2604166666666667,
              "duration": 0.19791666666666666
            },
            {
              "pitch": 46,
              "velocity": 80,
              "position": 0.5104166666666666,
              "duration": 0.16666666666666666
            },
            {
              "pitch": 70,
              "velocity": 104,
              "position": 0.5104166666666666,
              "duration": 0.16666666666666666
            },
            {
              "pitch": 58,
              "velocity": 60,
              "position": 0.5104166666666666,
              "duration": 0.17708333333333334
            },
            {
              "pitch": 58,
              "velocity": 84,
              "position": 0.7604166666666666,
              "duration": 0.17708333333333334
            },
            {
              "pitch": 46,
              "velocity": 88,
              "position": 0.7604166666666666,
              "duration": 0.1875
            },
            {
              "pitch": 70,
              "velocity": 94,
              "position": 0.7604166666666666,
              "duration": 0.1875
            },
            {
              "pitch": 48,
              "velocity": 110,
              "position": 1.0104166666666667,
              "duration": 0.1875
            },
            {
              "pitch": 60,
              "velocity": 104,
              "position": 1.0104166666666667,
              "duration": 0.19791666666666666
            },
            {
              "pitch": 72,
              "velocity": 104,
              "position": 1.0104166666666667,
              "duration": 0.21875
            },
            {
              "pitch": 60,
              "velocity": 110,
              "position": 1.2708333333333333,
              "duration": 0.13541666666666666
            },
            {
              "pitch": 48,
              "velocity": 110,
              "position": 1.2604166666666667,
              "duration": 0.15625
            },
            {
              "pitch": 72,
              "velocity": 76,
              "position": 1.2708333333333333,
              "duration": 0.14583333333333334
            },
            {
              "pitch": 58,
              "velocity": 110,
              "position": 1.75,
              "duration": 0.13541666666666666
            },
            {
              "pitch": 70,
              "velocity": 104,
              "position": 1.75,
              "duration": 0.13541666666666666
            },
            {
              "pitch": 46,
              "velocity": 110,
              "position": 1.75,
              "duration": 0.15625
            },
            {
              "pitch": 46,
              "velocity": 110,
              "position": 2.25,
              "duration": 0.17708333333333334
            },
            {
              "pitch": 58,
              "velocity": 110,
              "position": 2.25,
              "duration": 0.1875
            },
            {
              "pitch": 70,
              "velocity": 110,
              "position": 2.25,
              "duration": 0.19791666666666666
            },
            {
              "pitch": 70,
              "velocity": 88,
              "position": 2.5,
              "duration": 0.1875
            },
            {
              "pitch": 58,
              "velocity": 84,
              "position": 2.5,
              "duration": 0.1875
            },
            {
              "pitch": 46,
              "velocity": 84,
              "position": 2.5,
              "duration": 0.19791666666666666
            },
            {
              "pitch": 70,
              "velocity": 84,
              "position": 2.7604166666666665,
              "duration": 0.17708333333333334
            },
            {
              "pitch": 46,
              "velocity": 88,
              "position": 2.75,
              "duration": 0.19791666666666666
            },
            {
              "pitch": 58,
              "velocity": 88,
              "position": 2.75,
              "duration": 0.19791666666666666
            },
            {
              "pitch": 60,
              "velocity": 94,
              "position": 3,
              "duration": 0.17708333333333334
            },
            {
              "pitch": 48,
              "velocity": 110,
              "position": 3,
              "duration": 0.1875
            },
            {
              "pitch": 72,
              "velocity": 124,
              "position": 3,
              "duration": 0.1875
            },
            {
              "pitch": 72,
              "velocity": 90,
              "position": 3.2604166666666665,
              "duration": 0.13541666666666666
            },
            {
              "pitch": 48,
              "velocity": 110,
              "position": 3.2604166666666665,
              "duration": 0.13541666666666666
            },
            {
              "pitch": 60,
              "velocity": 110,
              "position": 3.2604166666666665,
              "duration": 0.13541666666666666
            }
          ]
        }
      }
    },
    "Fill_In_CC": {
      "type": "Fill_In_CC",
      "sizeInBeats": 4,
      "channels": {
        "1": {
          "ctab": {
            "srcChannel": 1,
            "name": "BrasSect",
            "accType": "PHRASE1",
            "editable": false,
            "mutedNotes": [],
            "mutedChords": [
              "7aug",
              "Maj7aug",
              "7(#9)",
              "7(b13)",
              "7(b9)",
              "7(13)",
              "7#11",
              "7(9)",
              "7b5",
              "7sus4",
              "7th"
            ],
            "autoStart": false,
            "sourceChordNote": 0,
            "sourceChordType": "Maj7",
            "ctb2Low": null,
            "ctb2Main": {
              "ntr": "ROOT_FIXED",
              "ntt": "CHORD",
              "bassOn": false,
              "chordRootUpperLimit": 6,
              "noteLowLimit": 0,
              "noteHighLimit": 127,
              "rtr": "PITCH_SHIFT"
            },
            "ctb2High": null
          },
          "notes": [
            {
              "pitch": 48,
              "velocity": 108,
              "position": 1,
              "duration": 0.1875
            },
            {
              "pitch": 59,
              "velocity": 124,
              "position": 1.0104166666666667,
              "duration": 0.19791666666666666
            },
            {
              "pitch": 48,
              "velocity": 102,
              "position": 1.2604166666666667,
              "duration": 0.17708333333333334
            },
            {
              "pitch": 59,
              "velocity": 110,
              "position": 1.2604166666666667,
              "duration": 0.1875
            },
            {
              "pitch": 43,
              "velocity": 124,
              "position": 1.75,
              "duration": 0.17708333333333334
            },
            {
              "pitch": 55,
              "velocity": 124,
              "position": 1.7604166666666667,
              "duration": 0.17708333333333334
            },
            {
              "pitch": 55,
              "velocity": 110,
              "position": 2.75,
              "duration": 0.1875
            },
            {
              "pitch": 43,
              "velocity": 104,
              "position": 2.75,
              "duration": 0.20833333333333334
            },
            {
              "pitch": 48,
              "velocity": 118,
              "position": 3,
              "duration": 0.17708333333333334
            },
            {
              "pitch": 59,
              "velocity": 124,
              "position": 3,
              "duration": 0.1875
            },
            {
              "pitch": 59,
              "velocity": 104,
              "position": 3.2604166666666665,
              "duration": 0.15625
            },
            {
              "pitch": 48,
              "velocity": 108,
              "position": 3.2604166666666665,
              "duration": 0.16666666666666666
            }
          ]
        },
        "2": {
          "ctab": {
            "srcChannel": 2,
            "name": "BrasSect",
            "accType": "PHRASE1",
            "editable": false,
            "mutedNotes": [],
            "mutedChords": [
              "1+2+5",
              "sus4",
              "1+5",
              "1+8",
              "dim7",
              "dim",
              "minMaj7(9)",
              "minMaj7",
              "min7(11)",
              "min7(9)",
              "min(9)",
              "m7b5",
              "min7",
              "min6",
              "min",
              "aug",
              "Maj6(9)",
              "Maj7(9)",
              "Maj(9)",
              "Maj7#11",
              "Maj7",
              "Maj6",
              "Maj"
            ],
            "autoStart": false,
            "sourceChordNote": 0,
            "sourceChordType": "7th",
            "ctb2Low": null,
            "ctb2Main": {
              "ntr": "ROOT_FIXED",
              "ntt": "CHORD",
              "bassOn": false,
              "chordRootUpperLimit": 6,
              "noteLowLimit": 0,
              "noteHighLimit": 127,
              "rtr": "PITCH_SHIFT"
            },
            "ctb2High": null
          },
          "notes": [
            {
              "pitch": 48,
              "velocity": 108,
              "position": 1,
              "duration": 0.1875
            },
            {
              "pitch": 60,
              "velocity": 124,
              "position": 1.0104166666666667,
              "duration": 0.19791666666666666
            },
            {
              "pitch": 48,
              "velocity": 102,
              "position": 1.2604166666666667,
              "duration": 0.17708333333333334
            },
            {
              "pitch": 60,
              "velocity": 110,
              "position": 1.2604166666666667,
              "duration": 0.1875
            },
            {
              "pitch": 46,
              "velocity": 124,
              "position": 1.75,
              "duration": 0.17708333333333334
            },
            {
              "pitch": 58,
              "velocity": 124,
              "position": 1.7604166666666667,
              "duration": 0.17708333333333334
            },
            {
              "pitch": 58,
              "velocity": 110,
              "position": 2.75,
              "duration": 0.1875
            },
            {
              "pitch": 46,
              "velocity": 104,
              "position": 2.75,
              "duration": 0.20833333333333334
            },
            {
              "pitch": 48,
              "velocity": 118,
              "position": 3,
              "duration": 0.17708333333333334
            },
            {
              "pitch": 60,
              "velocity": 124,
              "position": 3,
              "duration": 0.1875
            },
            {
              "pitch": 60,
              "velocity": 104,
              "position": 3.2604166666666665,
              "duration": 0.15625
            },
            {
              "pitch": 48,
              "velocity": 108,
              "position": 3.2604166666666665,
              "duration": 0.16666666666666666
            }
          ]
        },
        "4": {
          "ctab": {
            "srcChannel": 4,
            "name": "BrasSect",
            "accType": "PHRASE2",
            "editable": false,
            "mutedNotes": [],
            "mutedChords": [
              "7aug",
              "Maj7aug",
              "7(#9)",
              "7(b13)",
              "7(b9)",
              "7(13)",
              "7#11",
              "7(9)",
              "7b5",
              "7sus4",
              "7th"
            ],
            "autoStart": false,
            "sourceChordNote": 0,
            "sourceChordType": "Maj7",
            "ctb2Low": null,
            "ctb2Main": {
              "ntr": "ROOT_TRANSPOSITION",
              "ntt": "CHORD",
              "bassOn": false,
              "chordRootUpperLimit": 6,
              "noteLowLimit": 0,
              "noteHighLimit": 127,
              "rtr": "PITCH_SHIFT"
            },
            "ctb2High": null
          },
          "notes": [
            {
              "pitch": 67,
              "velocity": 114,
              "position": 1.75,
              "duration": 0.11458333333333333
            },
            {
              "pitch": 79,
              "velocity": 114,
              "position": 1.7604166666666667,
              "duration": 0.125
            },
            {
              "pitch": 79,
              "velocity": 124,
              "position": 2.2604166666666665,
              "duration": 0.17708333333333334
            },
            {
              "pitch": 67,
              "velocity": 114,
              "position": 2.2604166666666665,
              "duration": 0.19791666666666666
            },
            {
              "pitch": 67,
              "velocity": 104,
              "position": 2.5104166666666665,
              "duration": 0.17708333333333334
            },
            {
              "pitch": 79,
              "velocity": 110,
              "position": 2.5,
              "duration": 0.19791666666666666
            },
            {
              "pitch": 79,
              "velocity": 92,
              "position": 2.7604166666666665,
              "duration": 0.16666666666666666
            },
            {
              "pitch": 67,
              "velocity": 92,
              "position": 2.7604166666666665,
              "duration": 0.17708333333333334
            },
            {
              "pitch": 71,
              "velocity": 126,
              "position": 3,
              "duration": 0.19791666666666666
            },
            {
              "pitch": 71,
              "velocity": 110,
              "position": 3.2604166666666665,
              "duration": 0.16666666666666666
            }
          ]
        },
        "5": {
          "ctab": {
            "srcChannel": 5,
            "name": "BrasSect",
            "accType": "PHRASE2",
            "editable": false,
            "mutedNotes": [],
            "mutedChords": [
              "1+2+5",
              "sus4",
              "1+5",
              "1+8",
              "dim7",
              "dim",
              "minMaj7(9)",
              "minMaj7",
              "min7(11)",
              "min7(9)",
              "min(9)",
              "m7b5",
              "min7",
              "min6",
              "min",
              "aug",
              "Maj6(9)",
              "Maj7(9)",
              "Maj(9)",
              "Maj7#11",
              "Maj7",
              "Maj6",
              "Maj"
            ],
            "autoStart": false,
            "sourceChordNote": 0,
            "sourceChordType": "7th",
            "ctb2Low": null,
            "ctb2Main": {
              "ntr": "ROOT_TRANSPOSITION",
              "ntt": "CHORD",
              "bassOn": false,
              "chordRootUpperLimit": 6,
              "noteLowLimit": 0,
              "noteHighLimit": 127,
              "rtr": "PITCH_SHIFT"
            },
            "ctb2High": null
          },
          "notes": [
            {
              "pitch": 70,
              "velocity": 114,
              "position": 1.75,
              "duration": 0.11458333333333333
            },
            {
              "pitch": 82,
              "velocity": 114,
              "position": 1.7604166666666667,
              "duration": 0.125
            },
            {
              "pitch": 82,
              "velocity": 124,
              "position": 2.2604166666666665,
              "duration": 0.17708333333333334
            },
            {
              "pitch": 70,
              "velocity": 114,
              "position": 2.2604166666666665,
              "duration": 0.19791666666666666
            },
            {
              "pitch": 70,
              "velocity": 104,
              "position": 2.5104166666666665,
              "duration": 0.17708333333333334
            },
            {
              "pitch": 82,
              "velocity": 110,
              "position": 2.5,
              "duration": 0.19791666666666666
            },
            {
              "pitch": 82,
              "velocity": 92,
              "position": 2.7604166666666665,
              "duration": 0.16666666666666666
            },
            {
              "pitch": 70,
              "velocity": 92,
              "position": 2.7604166666666665,
              "duration": 0.17708333333333334
            },
            {
              "pitch": 72,
              "velocity": 126,
              "position": 3,
              "duration": 0.19791666666666666
            },
            {
              "pitch": 72,
              "velocity": 110,
              "position": 3.2604166666666665,
              "duration": 0.16666666666666666
            }
          ]
        },
        "8": {
          "ctab": {
            "srcChannel": 8,
            "name": "Std.Kit1",
            "accType": "RHYTHM",
            "editable": false,
            "mutedNotes": [],
            "mutedChords": [],
            "autoStart": true,
            "sourceChordNote": 0,
            "sourceChordType": "Maj7",
            "ctb2Low": null,
            "ctb2Main": {
              "ntr": "ROOT_FIXED",
              "ntt": "BYPASS",
              "bassOn": false,
              "chordRootUpperLimit": 6,
              "noteLowLimit": 0,
              "noteHighLimit": 127,
              "rtr": "PITCH_SHIFT"
            },
            "ctb2High": null
          },
          "notes": [
            {
              "pitch": 42,
              "velocity": 126,
              "position": 0,
              "duration": 0.015625
            },
            {
              "pitch": 42,
              "velocity": 80,
              "position": 0.25,
              "duration": 0.015625
            },
            {
              "pitch": 42,
              "velocity": 72,
              "position": 0.4895833333333333,
              "duration": 0.015625
            },
            {
              "pitch": 42,
              "velocity": 64,
              "position": 0.7604166666666666,
              "duration": 0.015625
            },
            {
              "pitch": 42,
              "velocity": 126,
              "position": 1,
              "duration": 0.015625
            },
            {
              "pitch": 42,
              "velocity": 80,
              "position": 1.25,
              "duration": 0.015625
            },
            {
              "pitch": 42,
              "velocity": 92,
              "position": 1.75,
              "duration": 0.015625
            },
            {
              "pitch": 42,
              "velocity": 92,
              "position": 2.2604166666666665,
              "duration": 0.015625
            },
            {
              "pitch": 42,
              "velocity": 80,
              "position": 2.5,
              "duration": 0.015625
            },
            {
              "pitch": 42,
              "velocity": 80,
              "position": 2.75,
              "duration": 0.015625
            },
            {
              "pitch": 42,
              "velocity": 92,
              "position": 3,
              "duration": 0.015625
            },
            {
              "pitch": 36,
              "velocity": 110,
              "position": 3.25,
              "duration": 0.015625
            },
            {
              "pitch": 42,
              "velocity": 110,
              "position": 3.25,
              "duration": 0.015625
            }
          ]
        },
        "10": {
          "ctab": {
            "srcChannel": 10,
            "name": "Std.Kit1",
            "accType": "SUBRHYTHM",
            "editable": false,
            "mutedNotes": [],
            "mutedChords": [],
            "autoStart": true,
            "sourceChordNote": 0,
            "sourceChordType": "Maj7",
            "ctb2Low": null,
            "ctb2Main": {
              "ntr": "ROOT_FIXED",
              "ntt": "BYPASS",
              "bassOn": false,
              "chordRootUpperLimit": 6,
              "noteLowLimit": 0,
              "noteHighLimit": 127,
              "rtr": "PITCH_SHIFT"
            },
            "ctb2High": null
          },
          "notes": [
            {
              "pitch": 64,
              "velocity": 110,
              "position": 0,
              "duration": 0.015625
            },
            {
              "pitch": 66,
              "velocity": 110,
              "position": 0,
              "duration": 0.015625
            },
            {
              "pitch": 68,
              "velocity": 112,
              "position": 0,
              "duration": 0.015625
            },
            {
              "pitch": 56,
              "velocity": 110,
              "position": 0,
              "duration": 0.015625
            },
            {
              "pitch": 66,
              "velocity": 92,
              "position": 0.25,
              "duration": 0.015625
            },
            {
              "pitch": 64,
              "velocity": 80,
              "position": 0.25,
              "duration": 0.015625
            },
            {
              "pitch": 64,
              "velocity": 80,
              "position": 0.4895833333333333,
              "duration": 0.015625
            },
            {
              "pitch": 66,
              "velocity": 110,
              "position": 0.5,
              "duration": 0.015625
            },
            {
              "pitch": 64,
              "velocity": 90,
              "position": 0.75,
              "duration": 0.015625
            },
            {
              "pitch": 66,
              "velocity": 92,
              "position": 0.75,
              "duration": 0.015625
            },
            {
              "pitch": 62,
              "velocity": 110,
              "position": 0.9895833333333334,
              "duration": 0.015625
            },
            {
              "pitch": 65,
              "velocity": 110,
              "position": 1,
              "duration": 0.015625
            },
            {
              "pitch": 65,
              "velocity": 110,
              "position": 1.2604166666666667,
              "duration": 0.015625
            },
            {
              "pitch": 62,
              "velocity": 124,
              "position": 1.2708333333333333,
              "duration": 0.015625
            },
            {
              "pitch": 64,
              "velocity": 110,
              "position": 1.7604166666666667,
              "duration": 0.015625
            },
            {
              "pitch": 65,
              "velocity": 126,
              "position": 1.7604166666666667,
              "duration": 0.015625
            },
            {
              "pitch": 66,
              "velocity": 92,
              "position": 2.25,
              "duration": 0.015625
            },
            {
              "pitch": 64,
              "velocity": 92,
              "position": 2.2604166666666665,
              "duration": 0.015625
            },
            {
              "pitch": 66,
              "velocity": 92,
              "position": 2.5,
              "duration": 0.015625
            },
            {
              "pitch": 64,
              "velocity": 92,
              "position": 2.5,
              "duration": 0.015625
            },
            {
              "pitch": 64,
              "velocity": 92,
              "position": 2.75,
              "duration": 0.015625
            },
            {
              "pitch": 66,
              "velocity": 80,
              "position": 2.75,
              "duration": 0.015625
            },
            {
              "pitch": 62,
              "velocity": 126,
              "position": 3,
              "duration": 0.015625
            },
            {
              "pitch": 65,
              "velocity": 110,
              "position": 3,
              "duration": 0.015625
            },
            {
              "pitch": 65,
              "velocity": 126,
              "position": 3.2604166666666665,
              "duration": 0.015625
            },
            {
              "pitch": 62,
              "velocity": 126,
              "position": 3.2604166666666665,
              "duration": 0.015625
            },
            {
              "pitch": 65,
              "velocity": 66,
              "position": 3.4895833333333335,
              "duration": 0.015625
            },
            {
              "pitch": 65,
              "velocity": 78,
              "position": 3.6145833333333335,
              "duration": 0.015625
            },
            {
              "pitch": 65,
              "velocity": 94,
              "position": 3.75,
              "duration": 0.015625
            },
            {
              "pitch": 65,
              "velocity": 108,
              "position": 3.8645833333333335,
              "duration": 0.015625
            },
            {
              "pitch": 65,
              "velocity": 126,
              "position": 3.9791666666666665,
              "duration": 0.015625
            }
          ]
        },
        "12": {
          "ctab": {
            "srcChannel": 12,
            "name": "Aco.Bass",
            "accType": "BASS",
            "editable": false,
            "mutedNotes": [],
            "mutedChords": [],
            "autoStart": false,
            "sourceChordNote": 0,
            "sourceChordType": "Maj7",
            "ctb2Low": null,
            "ctb2Main": {
              "ntr": "ROOT_TRANSPOSITION",
              "ntt": "MELODY",
              "bassOn": true,
              "chordRootUpperLimit": 3,
              "noteLowLimit": 28,
              "noteHighLimit": 54,
              "rtr": "PITCH_SHIFT_TO_ROOT"
            },
            "ctb2High": null
          },
          "notes": [
            {
              "pitch": 43,
              "velocity": 106,
              "position": 0,
              "duration": 0.1875
            },
            {
              "pitch": 43,
              "velocity": 92,
              "position": 0.25,
              "duration": 0.1875
            },
            {
              "pitch": 43,
              "velocity": 92,
              "position": 0.5,
              "duration": 0.20833333333333334
            },
            {
              "pitch": 43,
              "velocity": 92,
              "position": 0.7604166666666666,
              "duration": 0.20833333333333334
            },
            {
              "pitch": 48,
              "velocity": 104,
              "position": 1,
              "duration": 0.22916666666666666
            },
            {
              "pitch": 48,
              "velocity": 126,
              "position": 1.2604166666666667,
              "duration": 0.17708333333333334
            },
            {
              "pitch": 43,
              "velocity": 126,
              "position": 1.7604166666666667,
              "duration": 0.14583333333333334
            },
            {
              "pitch": 43,
              "velocity": 106,
              "position": 2.2604166666666665,
              "duration": 0.15625
            },
            {
              "pitch": 43,
              "velocity": 92,
              "position": 2.5,
              "duration": 0.19791666666666666
            },
            {
              "pitch": 43,
              "velocity": 92,
              "position": 2.75,
              "duration": 0.19791666666666666
            },
            {
              "pitch": 48,
              "velocity": 106,
              "position": 3,
              "duration": 0.20833333333333334
            },
            {
              "pitch": 48,
              "velocity": 126,
              "position": 3.2604166666666665,
              "duration": 0.17708333333333334
            }
          ]
        },
        "14": {
          "ctab": {
            "srcChannel": 14,
            "name": "GrandPno",
            "accType": "CHORD1",
            "editable": false,
            "mutedNotes": [],
            "mutedChords": [
              "7aug",
              "Maj7aug",
              "7(#9)",
              "7(b13)",
              "7(b9)",
              "7(13)",
              "7#11",
              "7(9)",
              "7b5",
              "7sus4",
              "7th"
            ],
            "autoStart": false,
            "sourceChordNote": 0,
            "sourceChordType": "Maj7",
            "ctb2Low": null,
            "ctb2Main": {
              "ntr": "ROOT_FIXED",
              "ntt": "CHORD",
              "bassOn": false,
              "chordRootUpperLimit": 6,
              "noteLowLimit": 0,
              "noteHighLimit": 127,
              "rtr": "PITCH_SHIFT"
            },
            "ctb2High": null
          },
          "notes": [
            {
              "pitch": 43,
              "velocity": 104,
              "position": 0,
              "duration": 0.16666666666666666
            },
            {
              "pitch": 55,
              "velocity": 110,
              "position": 0,
              "duration": 0.17708333333333334
            },
            {
              "pitch": 67,
              "velocity": 92,
              "position": 0,
              "duration": 0.19791666666666666
            },
            {
              "pitch": 43,
              "velocity": 84,
              "position": 0.2604166666666667,
              "duration": 0.16666666666666666
            },
            {
              "pitch": 67,
              "velocity": 88,
              "position": 0.2604166666666667,
              "duration": 0.16666666666666666
            },
            {
              "pitch": 55,
              "velocity": 80,
              "position": 0.2604166666666667,
              "duration": 0.19791666666666666
            },
            {
              "pitch": 43,
              "velocity": 80,
              "position": 0.5104166666666666,
              "duration": 0.16666666666666666
            },
            {
              "pitch": 67,
              "velocity": 104,
              "position": 0.5104166666666666,
              "duration": 0.16666666666666666
            },
            {
              "pitch": 55,
              "velocity": 60,
              "position": 0.5104166666666666,
              "duration": 0.17708333333333334
            },
            {
              "pitch": 55,
              "velocity": 84,
              "position": 0.7604166666666666,
              "duration": 0.17708333333333334
            },
            {
              "pitch": 43,
              "velocity": 88,
              "position": 0.7604166666666666,
              "duration": 0.1875
            },
            {
              "pitch": 67,
              "velocity": 94,
              "position": 0.7604166666666666,
              "duration": 0.1875
            },
            {
              "pitch": 48,
              "velocity": 110,
              "position": 1.0104166666666667,
              "duration": 0.1875
            },
            {
              "pitch": 59,
              "velocity": 104,
              "position": 1.0104166666666667,
              "duration": 0.19791666666666666
            },
            {
              "pitch": 71,
              "velocity": 104,
              "position": 1.0104166666666667,
              "duration": 0.21875
            },
            {
              "pitch": 59,
              "velocity": 110,
              "position": 1.2708333333333333,
              "duration": 0.13541666666666666
            },
            {
              "pitch": 48,
              "velocity": 110,
              "position": 1.2604166666666667,
              "duration": 0.15625
            },
            {
              "pitch": 71,
              "velocity": 76,
              "position": 1.2708333333333333,
              "duration": 0.14583333333333334
            },
            {
              "pitch": 55,
              "velocity": 110,
              "position": 1.75,
              "duration": 0.13541666666666666
            },
            {
              "pitch": 67,
              "velocity": 104,
              "position": 1.75,
              "duration": 0.13541666666666666
            },
            {
              "pitch": 43,
              "velocity": 110,
              "position": 1.75,
              "duration": 0.15625
            },
            {
              "pitch": 43,
              "velocity": 110,
              "position": 2.25,
              "duration": 0.17708333333333334
            },
            {
              "pitch": 55,
              "velocity": 110,
              "position": 2.25,
              "duration": 0.1875
            },
            {
              "pitch": 67,
              "velocity": 110,
              "position": 2.25,
              "duration": 0.19791666666666666
            },
            {
              "pitch": 67,
              "velocity": 88,
              "position": 2.5,
              "duration": 0.1875
            },
            {
              "pitch": 55,
              "velocity": 84,
              "position": 2.5,
              "duration": 0.1875
            },
            {
              "pitch": 43,
              "velocity": 84,
              "position": 2.5,
              "duration": 0.19791666666666666
            },
            {
              "pitch": 67,
              "velocity": 84,
              "position": 2.7604166666666665,
              "duration": 0.17708333333333334
            },
            {
              "pitch": 43,
              "velocity": 88,
              "position": 2.75,
              "duration": 0.19791666666666666
            },
            {
              "pitch": 55,
              "velocity": 88,
              "position": 2.75,
              "duration": 0.19791666666666666
            },
            {
              "pitch": 59,
              "velocity": 94,
              "position": 3,
              "duration": 0.17708333333333334
            },
            {
              "pitch": 48,
              "velocity": 110,
              "position": 3,
              "duration": 0.1875
            },
            {
              "pitch": 71,
              "velocity": 124,
              "position": 3,
              "duration": 0.1875
            },
            {
              "pitch": 71,
              "velocity": 90,
              "position": 3.2604166666666665,
              "duration": 0.13541666666666666
            },
            {
              "pitch": 48,
              "velocity": 110,
              "position": 3.2604166666666665,
              "duration": 0.13541666666666666
            },
            {
              "pitch": 59,
              "velocity": 110,
              "position": 3.2604166666666665,
              "duration": 0.13541666666666666
            }
          ]
        },
        "15": {
          "ctab": {
            "srcChannel": 15,
            "name": "GrandPno",
            "accType": "CHORD1",
            "editable": false,
            "mutedNotes": [],
            "mutedChords": [
              "1+2+5",
              "sus4",
              "1+5",
              "1+8",
              "dim7",
              "dim",
              "minMaj7(9)",
              "minMaj7",
              "min7(11)",
              "min7(9)",
              "min(9)",
              "m7b5",
              "min7",
              "min6",
              "min",
              "aug",
              "Maj6(9)",
              "Maj7(9)",
              "Maj(9)",
              "Maj7#11",
              "Maj7",
              "Maj6",
              "Maj"
            ],
            "autoStart": false,
            "sourceChordNote": 0,
            "sourceChordType": "7th",
            "ctb2Low": null,
            "ctb2Main": {
              "ntr": "ROOT_FIXED",
              "ntt": "CHORD",
              "bassOn": false,
              "chordRootUpperLimit": 6,
              "noteLowLimit": 0,
              "noteHighLimit": 127,
              "rtr": "PITCH_SHIFT"
            },
            "ctb2High": null
          },
          "notes": [
            {
              "pitch": 46,
              "velocity": 104,
              "position": 0,
              "duration": 0.16666666666666666
            },
            {
              "pitch": 58,
              "velocity": 110,
              "position": 0,
              "duration": 0.17708333333333334
            },
            {
              "pitch": 70,
              "velocity": 92,
              "position": 0,
              "duration": 0.19791666666666666
            },
            {
              "pitch": 46,
              "velocity": 84,
              "position": 0.2604166666666667,
              "duration": 0.16666666666666666
            },
            {
              "pitch": 70,
              "velocity": 88,
              "position": 0.2604166666666667,
              "duration": 0.16666666666666666
            },
            {
              "pitch": 58,
              "velocity": 80,
              "position": 0.2604166666666667,
              "duration": 0.19791666666666666
            },
            {
              "pitch": 46,
              "velocity": 80,
              "position": 0.5104166666666666,
              "duration": 0.16666666666666666
            },
            {
              "pitch": 70,
              "velocity": 104,
              "position": 0.5104166666666666,
              "duration": 0.16666666666666666
            },
            {
              "pitch": 58,
              "velocity": 60,
              "position": 0.5104166666666666,
              "duration": 0.17708333333333334
            },
            {
              "pitch": 58,
              "velocity": 84,
              "position": 0.7604166666666666,
              "duration": 0.17708333333333334
            },
            {
              "pitch": 46,
              "velocity": 88,
              "position": 0.7604166666666666,
              "duration": 0.1875
            },
            {
              "pitch": 70,
              "velocity": 94,
              "position": 0.7604166666666666,
              "duration": 0.1875
            },
            {
              "pitch": 48,
              "velocity": 110,
              "position": 1.0104166666666667,
              "duration": 0.1875
            },
            {
              "pitch": 60,
              "velocity": 104,
              "position": 1.0104166666666667,
              "duration": 0.19791666666666666
            },
            {
              "pitch": 72,
              "velocity": 104,
              "position": 1.0104166666666667,
              "duration": 0.21875
            },
            {
              "pitch": 60,
              "velocity": 110,
              "position": 1.2708333333333333,
              "duration": 0.13541666666666666
            },
            {
              "pitch": 48,
              "velocity": 110,
              "position": 1.2604166666666667,
              "duration": 0.15625
            },
            {
              "pitch": 72,
              "velocity": 76,
              "position": 1.2708333333333333,
              "duration": 0.14583333333333334
            },
            {
              "pitch": 58,
              "velocity": 110,
              "position": 1.75,
              "duration": 0.13541666666666666
            },
            {
              "pitch": 70,
              "velocity": 104,
              "position": 1.75,
              "duration": 0.13541666666666666
            },
            {
              "pitch": 46,
              "velocity": 110,
              "position": 1.75,
              "duration": 0.15625
            },
            {
              "pitch": 46,
              "velocity": 110,
              "position": 2.25,
              "duration": 0.17708333333333334
            },
            {
              "pitch": 58,
              "velocity": 110,
              "position": 2.25,
              "duration": 0.1875
            },
            {
              "pitch": 70,
              "velocity": 110,
              "position": 2.25,
              "duration": 0.19791666666666666
            },
            {
              "pitch": 70,
              "velocity": 88,
              "position": 2.5,
              "duration": 0.1875
            },
            {
              "pitch": 58,
              "velocity": 84,
              "position": 2.5,
              "duration": 0.1875
            },
            {
              "pitch": 46,
              "velocity": 84,
              "position": 2.5,
              "duration": 0.19791666666666666
            },
            {
              "pitch": 70,
              "velocity": 84,
              "position": 2.7604166666666665,
              "duration": 0.17708333333333334
            },
            {
              "pitch": 46,
              "velocity": 88,
              "position": 2.75,
              "duration": 0.19791666666666666
            },
            {
              "pitch": 58,
              "velocity": 88,
              "position": 2.75,
              "duration": 0.19791666666666666
            },
            {
              "pitch": 60,
              "velocity": 94,
              "position": 3,
              "duration": 0.17708333333333334
            },
            {
              "pitch": 48,
              "velocity": 110,
              "position": 3,
              "duration": 0.1875
            },
            {
              "pitch": 72,
              "velocity": 124,
              "position": 3,
              "duration": 0.1875
            },
            {
              "pitch": 72,
              "velocity": 90,
              "position": 3.2604166666666665,
              "duration": 0.13541666666666666
            },
            {
              "pitch": 48,
              "velocity": 110,
              "position": 3.2604166666666665,
              "duration": 0.13541666666666666
            },
            {
              "pitch": 60,
              "velocity": 110,
              "position": 3.2604166666666665,
              "duration": 0.13541666666666666
            }
          ]
        }
      }
    },
    "Fill_In_BA": {
      "type": "Fill_In_BA",
      "sizeInBeats": 4,
      "channels": {
        "1": {
          "ctab": {
            "srcChannel": 1,
            "name": "BrasSect",
            "accType": "PHRASE1",
            "editable": false,
            "mutedNotes": [],
            "mutedChords": [
              "7aug",
              "Maj7aug",
              "7(#9)",
              "7(b13)",
              "7(b9)",
              "7(13)",
              "7#11",
              "7(9)",
              "7b5",
              "7sus4",
              "7th"
            ],
            "autoStart": false,
            "sourceChordNote": 0,
            "sourceChordType": "Maj7",
            "ctb2Low": null,
            "ctb2Main": {
              "ntr": "ROOT_FIXED",
              "ntt": "CHORD",
              "bassOn": false,
              "chordRootUpperLimit": 6,
              "noteLowLimit": 0,
              "noteHighLimit": 127,
              "rtr": "PITCH_SHIFT"
            },
            "ctb2High": null
          },
          "notes": [
            {
              "pitch": 48,
              "velocity": 108,
              "position": 1,
              "duration": 0.1875
            },
            {
              "pitch": 59,
              "velocity": 124,
              "position": 1.0104166666666667,
              "duration": 0.19791666666666666
            },
            {
              "pitch": 48,
              "velocity": 102,
              "position": 1.2604166666666667,
              "duration": 0.17708333333333334
            },
            {
              "pitch": 59,
              "velocity": 110,
              "position": 1.2604166666666667,
              "duration": 0.1875
            },
            {
              "pitch": 43,
              "velocity": 124,
              "position": 1.75,
              "duration": 0.17708333333333334
            },
            {
              "pitch": 55,
              "velocity": 124,
              "position": 1.7604166666666667,
              "duration": 0.17708333333333334
            },
            {
              "pitch": 55,
              "velocity": 110,
              "position": 2.75,
              "duration": 0.1875
            },
            {
              "pitch": 43,
              "velocity": 104,
              "position": 2.75,
              "duration": 0.20833333333333334
            },
            {
              "pitch": 48,
              "velocity": 118,
              "position": 3,
              "duration": 0.17708333333333334
            },
            {
              "pitch": 59,
              "velocity": 124,
              "position": 3,
              "duration": 0.1875
            },
            {
              "pitch": 59,
              "velocity": 104,
              "position": 3.2604166666666665,
              "duration": 0.15625
            },
            {
              "pitch": 48,
              "velocity": 108,
              "position": 3.2604166666666665,
              "duration": 0.16666666666666666
            }
          ]
        },
        "2": {
          "ctab": {
            "srcChannel": 2,
            "name": "BrasSect",
            "accType": "PHRASE1",
            "editable": false,
            "mutedNotes": [],
            "mutedChords": [
              "1+2+5",
              "sus4",
              "1+5",
              "1+8",
              "dim7",
              "dim",
              "minMaj7(9)",
              "minMaj7",
              "min7(11)",
              "min7(9)",
              "min(9)",
              "m7b5",
              "min7",
              "min6",
              "min",
              "aug",
              "Maj6(9)",
              "Maj7(9)",
              "Maj(9)",
              "Maj7#11",
              "Maj7",
              "Maj6",
              "Maj"
            ],
            "autoStart": false,
            "sourceChordNote": 0,
            "sourceChordType": "7th",
            "ctb2Low": null,
            "ctb2Main": {
              "ntr": "ROOT_FIXED",
              "ntt": "CHORD",
              "bassOn": false,
              "chordRootUpperLimit": 6,
              "noteLowLimit": 0,
              "noteHighLimit": 127,
              "rtr": "PITCH_SHIFT"
            },
            "ctb2High": null
          },
          "notes": [
            {
              "pitch": 48,
              "velocity": 108,
              "position": 1,
              "duration": 0.1875
            },
            {
              "pitch": 60,
              "velocity": 124,
              "position": 1.0104166666666667,
              "duration": 0.19791666666666666
            },
            {
              "pitch": 48,
              "velocity": 102,
              "position": 1.2604166666666667,
              "duration": 0.17708333333333334
            },
            {
              "pitch": 60,
              "velocity": 110,
              "position": 1.2604166666666667,
              "duration": 0.1875
            },
            {
              "pitch": 46,
              "velocity": 124,
              "position": 1.75,
              "duration": 0.17708333333333334
            },
            {
              "pitch": 58,
              "velocity": 124,
              "position": 1.7604166666666667,
              "duration": 0.17708333333333334
            },
            {
              "pitch": 58,
              "velocity": 110,
              "position": 2.75,
              "duration": 0.1875
            },
            {
              "pitch": 46,
              "velocity": 104,
              "position": 2.75,
              "duration": 0.20833333333333334
            },
            {
              "pitch": 48,
              "velocity": 118,
              "position": 3,
              "duration": 0.17708333333333334
            },
            {
              "pitch": 60,
              "velocity": 124,
              "position": 3,
              "duration": 0.1875
            },
            {
              "pitch": 60,
              "velocity": 104,
              "position": 3.2604166666666665,
              "duration": 0.15625
            },
            {
              "pitch": 48,
              "velocity": 108,
              "position": 3.2604166666666665,
              "duration": 0.16666666666666666
            }
          ]
        },
        "4": {
          "ctab": {
            "srcChannel": 4,
            "name": "BrasSect",
            "accType": "PHRASE2",
            "editable": false,
            "mutedNotes": [],
            "mutedChords": [
              "7aug",
              "Maj7aug",
              "7(#9)",
              "7(b13)",
              "7(b9)",
              "7(13)",
              "7#11",
              "7(9)",
              "7b5",
              "7sus4",
              "7th"
            ],
            "autoStart": false,
            "sourceChordNote": 0,
            "sourceChordType": "Maj7",
            "ctb2Low": null,
            "ctb2Main": {
              "ntr": "ROOT_TRANSPOSITION",
              "ntt": "CHORD",
              "bassOn": false,
              "chordRootUpperLimit": 6,
              "noteLowLimit": 0,
              "noteHighLimit": 127,
              "rtr": "PITCH_SHIFT"
            },
            "ctb2High": null
          },
          "notes": [
            {
              "pitch": 67,
              "velocity": 114,
              "position": 1.75,
              "duration": 0.11458333333333333
            },
            {
              "pitch": 79,
              "velocity": 114,
              "position": 1.7604166666666667,
              "duration": 0.125
            },
            {
              "pitch": 79,
              "velocity": 124,
              "position": 2.2604166666666665,
              "duration": 0.17708333333333334
            },
            {
              "pitch": 67,
              "velocity": 114,
              "position": 2.2604166666666665,
              "duration": 0.19791666666666666
            },
            {
              "pitch": 67,
              "velocity": 104,
              "position": 2.5104166666666665,
              "duration": 0.17708333333333334
            },
            {
              "pitch": 79,
              "velocity": 110,
              "position": 2.5,
              "duration": 0.19791666666666666
            },
            {
              "pitch": 79,
              "velocity": 92,
              "position": 2.7604166666666665,
              "duration": 0.16666666666666666
            },
            {
              "pitch": 67,
              "velocity": 92,
              "position": 2.7604166666666665,
              "duration": 0.17708333333333334
            },
            {
              "pitch": 71,
              "velocity": 126,
              "position": 3,
              "duration": 0.19791666666666666
            },
            {
              "pitch": 71,
              "velocity": 110,
              "position": 3.2604166666666665,
              "duration": 0.16666666666666666
            }
          ]
        },
        "5": {
          "ctab": {
            "srcChannel": 5,
            "name": "BrasSect",
            "accType": "PHRASE2",
            "editable": false,
            "mutedNotes": [],
            "mutedChords": [
              "1+2+5",
              "sus4",
              "1+5",
              "1+8",
              "dim7",
              "dim",
              "minMaj7(9)",
              "minMaj7",
              "min7(11)",
              "min7(9)",
              "min(9)",
              "m7b5",
              "min7",
              "min6",
              "min",
              "aug",
              "Maj6(9)",
              "Maj7(9)",
              "Maj(9)",
              "Maj7#11",
              "Maj7",
              "Maj6",
              "Maj"
            ],
            "autoStart": false,
            "sourceChordNote": 0,
            "sourceChordType": "7th",
            "ctb2Low": null,
            "ctb2Main": {
              "ntr": "ROOT_TRANSPOSITION",
              "ntt": "CHORD",
              "bassOn": false,
              "chordRootUpperLimit": 6,
              "noteLowLimit": 0,
              "noteHighLimit": 127,
              "rtr": "PITCH_SHIFT"
            },
            "ctb2High": null
          },
          "notes": [
            {
              "pitch": 70,
              "velocity": 114,
              "position": 1.75,
              "duration": 0.11458333333333333
            },
            {
              "pitch": 82,
              "velocity": 114,
              "position": 1.7604166666666667,
              "duration": 0.125
            },
            {
              "pitch": 82,
              "velocity": 124,
              "position": 2.2604166666666665,
              "duration": 0.17708333333333334
            },
            {
              "pitch": 70,
              "velocity": 114,
              "position": 2.2604166666666665,
              "duration": 0.19791666666666666
            },
            {
              "pitch": 70,
              "velocity": 104,
              "position": 2.5104166666666665,
              "duration": 0.17708333333333334
            },
            {
              "pitch": 82,
              "velocity": 110,
              "position": 2.5,
              "duration": 0.19791666666666666
            },
            {
              "pitch": 82,
              "velocity": 92,
              "position": 2.7604166666666665,
              "duration": 0.16666666666666666
            },
            {
              "pitch": 70,
              "velocity": 92,
              "position": 2.7604166666666665,
              "duration": 0.17708333333333334
            },
            {
              "pitch": 72,
              "velocity": 126,
              "position": 3,
              "duration": 0.19791666666666666
            },
            {
              "pitch": 72,
              "velocity": 110,
              "position": 3.2604166666666665,
              "duration": 0.16666666666666666
            }
          ]
        },
        "8": {
          "ctab": {
            "srcChannel": 8,
            "name": "Std.Kit1",
            "accType": "RHYTHM",
            "editable": false,
            "mutedNotes": [],
            "mutedChords": [],
            "autoStart": true,
            "sourceChordNote": 0,
            "sourceChordType": "Maj7",
            "ctb2Low": null,
            "ctb2Main": {
              "ntr": "ROOT_FIXED",
              "ntt": "BYPASS",
              "bassOn": false,
              "chordRootUpperLimit": 6,
              "noteLowLimit": 0,
              "noteHighLimit": 127,
              "rtr": "PITCH_SHIFT"
            },
            "ctb2High": null
          },
          "notes": [
            {
              "pitch": 42,
              "velocity": 126,
              "position": 0,
              "duration": 0.015625
            },
            {
              "pitch": 42,
              "velocity": 80,
              "position": 0.25,
              "duration": 0.015625
            },
            {
              "pitch": 42,
              "velocity": 72,
              "position": 0.4895833333333333,
              "duration": 0.015625
            },
            {
              "pitch": 42,
              "velocity": 64,
              "position": 0.7604166666666666,
              "duration": 0.015625
            },
            {
              "pitch": 42,
              "velocity": 126,
              "position": 1,
              "duration": 0.015625
            },
            {
              "pitch": 42,
              "velocity": 80,
              "position": 1.25,
              "duration": 0.015625
            },
            {
              "pitch": 42,
              "velocity": 92,
              "position": 1.75,
              "duration": 0.015625
            },
            {
              "pitch": 42,
              "velocity": 92,
              "position": 2.2604166666666665,
              "duration": 0.015625
            },
            {
              "pitch": 42,
              "velocity": 80,
              "position": 2.5,
              "duration": 0.015625
            },
            {
              "pitch": 42,
              "velocity": 80,
              "position": 2.75,
              "duration": 0.015625
            },
            {
              "pitch": 42,
              "velocity": 92,
              "position": 3,
              "duration": 0.015625
            },
            {
              "pitch": 36,
              "velocity": 110,
              "position": 3.25,
              "duration": 0.015625
            },
            {
              "pitch": 42,
              "velocity": 110,
              "position": 3.25,
              "duration": 0.015625
            }
          ]
        },
        "10": {
          "ctab": {
            "srcChannel": 10,
            "name": "Std.Kit1",
            "accType": "SUBRHYTHM",
            "editable": false,
            "mutedNotes": [],
            "mutedChords": [],
            "autoStart": true,
            "sourceChordNote": 0,
            "sourceChordType": "Maj7",
            "ctb2Low": null,
            "ctb2Main": {
              "ntr": "ROOT_FIXED",
              "ntt": "BYPASS",
              "bassOn": false,
              "chordRootUpperLimit": 6,
              "noteLowLimit": 0,
              "noteHighLimit": 127,
              "rtr": "PITCH_SHIFT"
            },
            "ctb2High": null
          },
          "notes": [
            {
              "pitch": 64,
              "velocity": 110,
              "position": 0,
              "duration": 0.015625
            },
            {
              "pitch": 66,
              "velocity": 110,
              "position": 0,
              "duration": 0.015625
            },
            {
              "pitch": 68,
              "velocity": 112,
              "position": 0,
              "duration": 0.015625
            },
            {
              "pitch": 56,
              "velocity": 110,
              "position": 0,
              "duration": 0.015625
            },
            {
              "pitch": 66,
              "velocity": 92,
              "position": 0.25,
              "duration": 0.015625
            },
            {
              "pitch": 64,
              "velocity": 80,
              "position": 0.25,
              "duration": 0.015625
            },
            {
              "pitch": 64,
              "velocity": 80,
              "position": 0.4895833333333333,
              "duration": 0.015625
            },
            {
              "pitch": 66,
              "velocity": 110,
              "position": 0.5,
              "duration": 0.015625
            },
            {
              "pitch": 64,
              "velocity": 90,
              "position": 0.75,
              "duration": 0.015625
            },
            {
              "pitch": 66,
              "velocity": 92,
              "position": 0.75,
              "duration": 0.015625
            },
            {
              "pitch": 62,
              "velocity": 110,
              "position": 0.9895833333333334,
              "duration": 0.015625
            },
            {
              "pitch": 65,
              "velocity": 110,
              "position": 1,
              "duration": 0.015625
            },
            {
              "pitch": 65,
              "velocity": 110,
              "position": 1.2604166666666667,
              "duration": 0.015625
            },
            {
              "pitch": 62,
              "velocity": 124,
              "position": 1.2708333333333333,
              "duration": 0.015625
            },
            {
              "pitch": 64,
              "velocity": 110,
              "position": 1.7604166666666667,
              "duration": 0.015625
            },
            {
              "pitch": 65,
              "velocity": 126,
              "position": 1.7604166666666667,
              "duration": 0.015625
            },
            {
              "pitch": 66,
              "velocity": 92,
              "position": 2.25,
              "duration": 0.015625
            },
            {
              "pitch": 64,
              "velocity": 92,
              "position": 2.2604166666666665,
              "duration": 0.015625
            },
            {
              "pitch": 66,
              "velocity": 92,
              "position": 2.5,
              "duration": 0.015625
            },
            {
              "pitch": 64,
              "velocity": 92,
              "position": 2.5,
              "duration": 0.015625
            },
            {
              "pitch": 64,
              "velocity": 92,
              "position": 2.75,
              "duration": 0.015625
            },
            {
              "pitch": 66,
              "velocity": 80,
              "position": 2.75,
              "duration": 0.015625
            },
            {
              "pitch": 62,
              "velocity": 126,
              "position": 3,
              "duration": 0.015625
            },
            {
              "pitch": 65,
              "velocity": 110,
              "position": 3,
              "duration": 0.015625
            },
            {
              "pitch": 65,
              "velocity": 126,
              "position": 3.2604166666666665,
              "duration": 0.015625
            },
            {
              "pitch": 62,
              "velocity": 126,
              "position": 3.2604166666666665,
              "duration": 0.015625
            },
            {
              "pitch": 65,
              "velocity": 66,
              "position": 3.4895833333333335,
              "duration": 0.015625
            },
            {
              "pitch": 65,
              "velocity": 78,
              "position": 3.6145833333333335,
              "duration": 0.015625
            },
            {
              "pitch": 65,
              "velocity": 94,
              "position": 3.75,
              "duration": 0.015625
            },
            {
              "pitch": 65,
              "velocity": 108,
              "position": 3.8645833333333335,
              "duration": 0.015625
            },
            {
              "pitch": 65,
              "velocity": 126,
              "position": 3.9791666666666665,
              "duration": 0.015625
            }
          ]
        },
        "12": {
          "ctab": {
            "srcChannel": 12,
            "name": "Aco.Bass",
            "accType": "BASS",
            "editable": false,
            "mutedNotes": [],
            "mutedChords": [],
            "autoStart": false,
            "sourceChordNote": 0,
            "sourceChordType": "Maj7",
            "ctb2Low": null,
            "ctb2Main": {
              "ntr": "ROOT_TRANSPOSITION",
              "ntt": "MELODY",
              "bassOn": true,
              "chordRootUpperLimit": 3,
              "noteLowLimit": 28,
              "noteHighLimit": 54,
              "rtr": "PITCH_SHIFT_TO_ROOT"
            },
            "ctb2High": null
          },
          "notes": [
            {
              "pitch": 43,
              "velocity": 106,
              "position": 0,
              "duration": 0.1875
            },
            {
              "pitch": 43,
              "velocity": 92,
              "position": 0.25,
              "duration": 0.1875
            },
            {
              "pitch": 43,
              "velocity": 92,
              "position": 0.5,
              "duration": 0.20833333333333334
            },
            {
              "pitch": 43,
              "velocity": 92,
              "position": 0.7604166666666666,
              "duration": 0.20833333333333334
            },
            {
              "pitch": 48,
              "velocity": 104,
              "position": 1,
              "duration": 0.22916666666666666
            },
            {
              "pitch": 48,
              "velocity": 126,
              "position": 1.2604166666666667,
              "duration": 0.17708333333333334
            },
            {
              "pitch": 43,
              "velocity": 126,
              "position": 1.7604166666666667,
              "duration": 0.14583333333333334
            },
            {
              "pitch": 43,
              "velocity": 106,
              "position": 2.2604166666666665,
              "duration": 0.15625
            },
            {
              "pitch": 43,
              "velocity": 92,
              "position": 2.5,
              "duration": 0.19791666666666666
            },
            {
              "pitch": 43,
              "velocity": 92,
              "position": 2.75,
              "duration": 0.19791666666666666
            },
            {
              "pitch": 48,
              "velocity": 106,
              "position": 3,
              "duration": 0.20833333333333334
            },
            {
              "pitch": 48,
              "velocity": 126,
              "position": 3.2604166666666665,
              "duration": 0.17708333333333334
            }
          ]
        },
        "14": {
          "ctab": {
            "srcChannel": 14,
            "name": "GrandPno",
            "accType": "CHORD1",
            "editable": false,
            "mutedNotes": [],
            "mutedChords": [
              "7aug",
              "Maj7aug",
              "7(#9)",
              "7(b13)",
              "7(b9)",
              "7(13)",
              "7#11",
              "7(9)",
              "7b5",
              "7sus4",
              "7th"
            ],
            "autoStart": false,
            "sourceChordNote": 0,
            "sourceChordType": "Maj7",
            "ctb2Low": null,
            "ctb2Main": {
              "ntr": "ROOT_FIXED",
              "ntt": "CHORD",
              "bassOn": false,
              "chordRootUpperLimit": 6,
              "noteLowLimit": 0,
              "noteHighLimit": 127,
              "rtr": "PITCH_SHIFT"
            },
            "ctb2High": null
          },
          "notes": [
            {
              "pitch": 43,
              "velocity": 104,
              "position": 0,
              "duration": 0.16666666666666666
            },
            {
              "pitch": 55,
              "velocity": 110,
              "position": 0,
              "duration": 0.17708333333333334
            },
            {
              "pitch": 67,
              "velocity": 92,
              "position": 0,
              "duration": 0.19791666666666666
            },
            {
              "pitch": 43,
              "velocity": 84,
              "position": 0.2604166666666667,
              "duration": 0.16666666666666666
            },
            {
              "pitch": 67,
              "velocity": 88,
              "position": 0.2604166666666667,
              "duration": 0.16666666666666666
            },
            {
              "pitch": 55,
              "velocity": 80,
              "position": 0.2604166666666667,
              "duration": 0.19791666666666666
            },
            {
              "pitch": 43,
              "velocity": 80,
              "position": 0.5104166666666666,
              "duration": 0.16666666666666666
            },
            {
              "pitch": 67,
              "velocity": 104,
              "position": 0.5104166666666666,
              "duration": 0.16666666666666666
            },
            {
              "pitch": 55,
              "velocity": 60,
              "position": 0.5104166666666666,
              "duration": 0.17708333333333334
            },
            {
              "pitch": 55,
              "velocity": 84,
              "position": 0.7604166666666666,
              "duration": 0.17708333333333334
            },
            {
              "pitch": 43,
              "velocity": 88,
              "position": 0.7604166666666666,
              "duration": 0.1875
            },
            {
              "pitch": 67,
              "velocity": 94,
              "position": 0.7604166666666666,
              "duration": 0.1875
            },
            {
              "pitch": 48,
              "velocity": 110,
              "position": 1.0104166666666667,
              "duration": 0.1875
            },
            {
              "pitch": 59,
              "velocity": 104,
              "position": 1.0104166666666667,
              "duration": 0.19791666666666666
            },
            {
              "pitch": 71,
              "velocity": 104,
              "position": 1.0104166666666667,
              "duration": 0.21875
            },
            {
              "pitch": 59,
              "velocity": 110,
              "position": 1.2708333333333333,
              "duration": 0.13541666666666666
            },
            {
              "pitch": 48,
              "velocity": 110,
              "position": 1.2604166666666667,
              "duration": 0.15625
            },
            {
              "pitch": 71,
              "velocity": 76,
              "position": 1.2708333333333333,
              "duration": 0.14583333333333334
            },
            {
              "pitch": 55,
              "velocity": 110,
              "position": 1.75,
              "duration": 0.13541666666666666
            },
            {
              "pitch": 67,
              "velocity": 104,
              "position": 1.75,
              "duration": 0.13541666666666666
            },
            {
              "pitch": 43,
              "velocity": 110,
              "position": 1.75,
              "duration": 0.15625
            },
            {
              "pitch": 43,
              "velocity": 110,
              "position": 2.25,
              "duration": 0.17708333333333334
            },
            {
              "pitch": 55,
              "velocity": 110,
              "position": 2.25,
              "duration": 0.1875
            },
            {
              "pitch": 67,
              "velocity": 110,
              "position": 2.25,
              "duration": 0.19791666666666666
            },
            {
              "pitch": 67,
              "velocity": 88,
              "position": 2.5,
              "duration": 0.1875
            },
            {
              "pitch": 55,
              "velocity": 84,
              "position": 2.5,
              "duration": 0.1875
            },
            {
              "pitch": 43,
              "velocity": 84,
              "position": 2.5,
              "duration": 0.19791666666666666
            },
            {
              "pitch": 67,
              "velocity": 84,
              "position": 2.7604166666666665,
              "duration": 0.17708333333333334
            },
            {
              "pitch": 43,
              "velocity": 88,
              "position": 2.75,
              "duration": 0.19791666666666666
            },
            {
              "pitch": 55,
              "velocity": 88,
              "position": 2.75,
              "duration": 0.19791666666666666
            },
            {
              "pitch": 59,
              "velocity": 94,
              "position": 3,
              "duration": 0.17708333333333334
            },
            {
              "pitch": 48,
              "velocity": 110,
              "position": 3,
              "duration": 0.1875
            },
            {
              "pitch": 71,
              "velocity": 124,
              "position": 3,
              "duration": 0.1875
            },
            {
              "pitch": 71,
              "velocity": 90,
              "position": 3.2604166666666665,
              "duration": 0.13541666666666666
            },
            {
              "pitch": 48,
              "velocity": 110,
              "position": 3.2604166666666665,
              "duration": 0.13541666666666666
            },
            {
              "pitch": 59,
              "velocity": 110,
              "position": 3.2604166666666665,
              "duration": 0.13541666666666666
            }
          ]
        },
        "15": {
          "ctab": {
            "srcChannel": 15,
            "name": "GrandPno",
            "accType": "CHORD1",
            "editable": false,
            "mutedNotes": [],
            "mutedChords": [
              "1+2+5",
              "sus4",
              "1+5",
              "1+8",
              "dim7",
              "dim",
              "minMaj7(9)",
              "minMaj7",
              "min7(11)",
              "min7(9)",
              "min(9)",
              "m7b5",
              "min7",
              "min6",
              "min",
              "aug",
              "Maj6(9)",
              "Maj7(9)",
              "Maj(9)",
              "Maj7#11",
              "Maj7",
              "Maj6",
              "Maj"
            ],
            "autoStart": false,
            "sourceChordNote": 0,
            "sourceChordType": "7th",
            "ctb2Low": null,
            "ctb2Main": {
              "ntr": "ROOT_FIXED",
              "ntt": "CHORD",
              "bassOn": false,
              "chordRootUpperLimit": 6,
              "noteLowLimit": 0,
              "noteHighLimit": 127,
              "rtr": "PITCH_SHIFT"
            },
            "ctb2High": null
          },
          "notes": [
            {
              "pitch": 46,
              "velocity": 104,
              "position": 0,
              "duration": 0.16666666666666666
            },
            {
              "pitch": 58,
              "velocity": 110,
              "position": 0,
              "duration": 0.17708333333333334
            },
            {
              "pitch": 70,
              "velocity": 92,
              "position": 0,
              "duration": 0.19791666666666666
            },
            {
              "pitch": 46,
              "velocity": 84,
              "position": 0.2604166666666667,
              "duration": 0.16666666666666666
            },
            {
              "pitch": 70,
              "velocity": 88,
              "position": 0.2604166666666667,
              "duration": 0.16666666666666666
            },
            {
              "pitch": 58,
              "velocity": 80,
              "position": 0.2604166666666667,
              "duration": 0.19791666666666666
            },
            {
              "pitch": 46,
              "velocity": 80,
              "position": 0.5104166666666666,
              "duration": 0.16666666666666666
            },
            {
              "pitch": 70,
              "velocity": 104,
              "position": 0.5104166666666666,
              "duration": 0.16666666666666666
            },
            {
              "pitch": 58,
              "velocity": 60,
              "position": 0.5104166666666666,
              "duration": 0.17708333333333334
            },
            {
              "pitch": 58,
              "velocity": 84,
              "position": 0.7604166666666666,
              "duration": 0.17708333333333334
            },
            {
              "pitch": 46,
              "velocity": 88,
              "position": 0.7604166666666666,
              "duration": 0.1875
            },
            {
              "pitch": 70,
              "velocity": 94,
              "position": 0.7604166666666666,
              "duration": 0.1875
            },
            {
              "pitch": 48,
              "velocity": 110,
              "position": 1.0104166666666667,
              "duration": 0.1875
            },
            {
              "pitch": 60,
              "velocity": 104,
              "position": 1.0104166666666667,
              "duration": 0.19791666666666666
            },
            {
              "pitch": 72,
              "velocity": 104,
              "position": 1.0104166666666667,
              "duration": 0.21875
            },
            {
              "pitch": 60,
              "velocity": 110,
              "position": 1.2708333333333333,
              "duration": 0.13541666666666666
            },
            {
              "pitch": 48,
              "velocity": 110,
              "position": 1.2604166666666667,
              "duration": 0.15625
            },
            {
              "pitch": 72,
              "velocity": 76,
              "position": 1.2708333333333333,
              "duration": 0.14583333333333334
            },
            {
              "pitch": 58,
              "velocity": 110,
              "position": 1.75,
              "duration": 0.13541666666666666
            },
            {
              "pitch": 70,
              "velocity": 104,
              "position": 1.75,
              "duration": 0.13541666666666666
            },
            {
              "pitch": 46,
              "velocity": 110,
              "position": 1.75,
              "duration": 0.15625
            },
            {
              "pitch": 46,
              "velocity": 110,
              "position": 2.25,
              "duration": 0.17708333333333334
            },
            {
              "pitch": 58,
              "velocity": 110,
              "position": 2.25,
              "duration": 0.1875
            },
            {
              "pitch": 70,
              "velocity": 110,
              "position": 2.25,
              "duration": 0.19791666666666666
            },
            {
              "pitch": 70,
              "velocity": 88,
              "position": 2.5,
              "duration": 0.1875
            },
            {
              "pitch": 58,
              "velocity": 84,
              "position": 2.5,
              "duration": 0.1875
            },
            {
              "pitch": 46,
              "velocity": 84,
              "position": 2.5,
              "duration": 0.19791666666666666
            },
            {
              "pitch": 70,
              "velocity": 84,
              "position": 2.7604166666666665,
              "duration": 0.17708333333333334
            },
            {
              "pitch": 46,
              "velocity": 88,
              "position": 2.75,
              "duration": 0.19791666666666666
            },
            {
              "pitch": 58,
              "velocity": 88,
              "position": 2.75,
              "duration": 0.19791666666666666
            },
            {
              "pitch": 60,
              "velocity": 94,
              "position": 3,
              "duration": 0.17708333333333334
            },
            {
              "pitch": 48,
              "velocity": 110,
              "position": 3,
              "duration": 0.1875
            },
            {
              "pitch": 72,
              "velocity": 124,
              "position": 3,
              "duration": 0.1875
            },
            {
              "pitch": 72,
              "velocity": 90,
              "position": 3.2604166666666665,
              "duration": 0.13541666666666666
            },
            {
              "pitch": 48,
              "velocity": 110,
              "position": 3.2604166666666665,
              "duration": 0.13541666666666666
            },
            {
              "pitch": 60,
              "velocity": 110,
              "position": 3.2604166666666665,
              "duration": 0.13541666666666666
            }
          ]
        }
      }
    },
    "Fill_In_BB": {
      "type": "Fill_In_BB",
      "sizeInBeats": 4,
      "channels": {
        "1": {
          "ctab": {
            "srcChannel": 1,
            "name": "BrasSect",
            "accType": "PHRASE1",
            "editable": false,
            "mutedNotes": [],
            "mutedChords": [
              "7aug",
              "Maj7aug",
              "7(#9)",
              "7(b13)",
              "7(b9)",
              "7(13)",
              "7#11",
              "7(9)",
              "7b5",
              "7sus4",
              "7th"
            ],
            "autoStart": false,
            "sourceChordNote": 0,
            "sourceChordType": "Maj7",
            "ctb2Low": null,
            "ctb2Main": {
              "ntr": "ROOT_FIXED",
              "ntt": "CHORD",
              "bassOn": false,
              "chordRootUpperLimit": 6,
              "noteLowLimit": 0,
              "noteHighLimit": 127,
              "rtr": "PITCH_SHIFT"
            },
            "ctb2High": null
          },
          "notes": [
            {
              "pitch": 52,
              "velocity": 94,
              "position": 0,
              "duration": 0.17708333333333334
            },
            {
              "pitch": 59,
              "velocity": 102,
              "position": 0,
              "duration": 0.19791666666666666
            },
            {
              "pitch": 55,
              "velocity": 102,
              "position": 0,
              "duration": 0.20833333333333334
            },
            {
              "pitch": 52,
              "velocity": 88,
              "position": 0.2604166666666667,
              "duration": 0.13541666666666666
            },
            {
              "pitch": 55,
              "velocity": 88,
              "position": 0.2604166666666667,
              "duration": 0.14583333333333334
            },
            {
              "pitch": 59,
              "velocity": 88,
              "position": 0.2604166666666667,
              "duration": 0.14583333333333334
            },
            {
              "pitch": 55,
              "velocity": 84,
              "position": 0.75,
              "duration": 0.1875
            },
            {
              "pitch": 52,
              "velocity": 72,
              "position": 0.75,
              "duration": 0.19791666666666666
            },
            {
              "pitch": 59,
              "velocity": 76,
              "position": 0.75,
              "duration": 0.20833333333333334
            },
            {
              "pitch": 59,
              "velocity": 88,
              "position": 1,
              "duration": 0.21875
            },
            {
              "pitch": 52,
              "velocity": 92,
              "position": 1,
              "duration": 0.23958333333333334
            },
            {
              "pitch": 55,
              "velocity": 102,
              "position": 1,
              "duration": 0.25
            },
            {
              "pitch": 52,
              "velocity": 84,
              "position": 1.4895833333333333,
              "duration": 0.1875
            },
            {
              "pitch": 55,
              "velocity": 94,
              "position": 1.4895833333333333,
              "duration": 0.1875
            },
            {
              "pitch": 59,
              "velocity": 88,
              "position": 1.4895833333333333,
              "duration": 0.19791666666666666
            },
            {
              "pitch": 52,
              "velocity": 106,
              "position": 1.7604166666666667,
              "duration": 0.17708333333333334
            },
            {
              "pitch": 59,
              "velocity": 106,
              "position": 1.7604166666666667,
              "duration": 0.19791666666666666
            },
            {
              "pitch": 55,
              "velocity": 96,
              "position": 1.7604166666666667,
              "duration": 0.19791666666666666
            },
            {
              "pitch": 55,
              "velocity": 104,
              "position": 2.25,
              "duration": 0.1875
            },
            {
              "pitch": 59,
              "velocity": 104,
              "position": 2.25,
              "duration": 0.19791666666666666
            },
            {
              "pitch": 52,
              "velocity": 98,
              "position": 2.25,
              "duration": 0.22916666666666666
            },
            {
              "pitch": 55,
              "velocity": 120,
              "position": 2.5,
              "duration": 0.19791666666666666
            },
            {
              "pitch": 52,
              "velocity": 120,
              "position": 2.5,
              "duration": 0.20833333333333334
            },
            {
              "pitch": 59,
              "velocity": 124,
              "position": 2.5,
              "duration": 0.21875
            },
            {
              "pitch": 59,
              "velocity": 114,
              "position": 3,
              "duration": 0.17708333333333334
            },
            {
              "pitch": 48,
              "velocity": 124,
              "position": 3,
              "duration": 0.17708333333333334
            },
            {
              "pitch": 48,
              "velocity": 110,
              "position": 3.25,
              "duration": 0.1875
            },
            {
              "pitch": 59,
              "velocity": 120,
              "position": 3.25,
              "duration": 0.19791666666666666
            },
            {
              "pitch": 59,
              "velocity": 112,
              "position": 3.5,
              "duration": 0.23958333333333334
            },
            {
              "pitch": 48,
              "velocity": 104,
              "position": 3.5,
              "duration": 0.23958333333333334
            }
          ]
        },
        "2": {
          "ctab": {
            "srcChannel": 2,
            "name": "BrasSect",
            "accType": "PHRASE1",
            "editable": false,
            "mutedNotes": [],
            "mutedChords": [
              "1+2+5",
              "sus4",
              "1+5",
              "1+8",
              "dim7",
              "dim",
              "minMaj7(9)",
              "minMaj7",
              "min7(11)",
              "min7(9)",
              "min(9)",
              "m7b5",
              "min7",
              "min6",
              "min",
              "aug",
              "Maj6(9)",
              "Maj7(9)",
              "Maj(9)",
              "Maj7#11",
              "Maj7",
              "Maj6",
              "Maj"
            ],
            "autoStart": false,
            "sourceChordNote": 0,
            "sourceChordType": "7th",
            "ctb2Low": null,
            "ctb2Main": {
              "ntr": "ROOT_FIXED",
              "ntt": "CHORD",
              "bassOn": false,
              "chordRootUpperLimit": 6,
              "noteLowLimit": 0,
              "noteHighLimit": 127,
              "rtr": "PITCH_SHIFT"
            },
            "ctb2High": null
          },
          "notes": [
            {
              "pitch": 52,
              "velocity": 94,
              "position": 0,
              "duration": 0.17708333333333334
            },
            {
              "pitch": 58,
              "velocity": 102,
              "position": 0,
              "duration": 0.19791666666666666
            },
            {
              "pitch": 52,
              "velocity": 88,
              "position": 0.2604166666666667,
              "duration": 0.13541666666666666
            },
            {
              "pitch": 58,
              "velocity": 88,
              "position": 0.2604166666666667,
              "duration": 0.14583333333333334
            },
            {
              "pitch": 52,
              "velocity": 72,
              "position": 0.75,
              "duration": 0.19791666666666666
            },
            {
              "pitch": 58,
              "velocity": 84,
              "position": 0.75,
              "duration": 0.20833333333333334
            },
            {
              "pitch": 58,
              "velocity": 102,
              "position": 1,
              "duration": 0.21875
            },
            {
              "pitch": 52,
              "velocity": 92,
              "position": 1,
              "duration": 0.23958333333333334
            },
            {
              "pitch": 52,
              "velocity": 84,
              "position": 1.4895833333333333,
              "duration": 0.1875
            },
            {
              "pitch": 58,
              "velocity": 94,
              "position": 1.4895833333333333,
              "duration": 0.19791666666666666
            },
            {
              "pitch": 52,
              "velocity": 106,
              "position": 1.7604166666666667,
              "duration": 0.17708333333333334
            },
            {
              "pitch": 58,
              "velocity": 106,
              "position": 1.7604166666666667,
              "duration": 0.19791666666666666
            },
            {
              "pitch": 58,
              "velocity": 104,
              "position": 2.25,
              "duration": 0.19791666666666666
            },
            {
              "pitch": 52,
              "velocity": 98,
              "position": 2.25,
              "duration": 0.22916666666666666
            },
            {
              "pitch": 52,
              "velocity": 120,
              "position": 2.5,
              "duration": 0.20833333333333334
            },
            {
              "pitch": 58,
              "velocity": 120,
              "position": 2.5,
              "duration": 0.21875
            },
            {
              "pitch": 60,
              "velocity": 114,
              "position": 3,
              "duration": 0.17708333333333334
            },
            {
              "pitch": 48,
              "velocity": 124,
              "position": 3,
              "duration": 0.17708333333333334
            },
            {
              "pitch": 48,
              "velocity": 110,
              "position": 3.25,
              "duration": 0.1875
            },
            {
              "pitch": 60,
              "velocity": 120,
              "position": 3.25,
              "duration": 0.19791666666666666
            },
            {
              "pitch": 60,
              "velocity": 112,
              "position": 3.5,
              "duration": 0.23958333333333334
            },
            {
              "pitch": 48,
              "velocity": 104,
              "position": 3.5,
              "duration": 0.23958333333333334
            }
          ]
        },
        "4": {
          "ctab": {
            "srcChannel": 4,
            "name": "BrasSect",
            "accType": "PHRASE2",
            "editable": false,
            "mutedNotes": [],
            "mutedChords": [
              "7aug",
              "Maj7aug",
              "7(#9)",
              "7(b13)",
              "7(b9)",
              "7(13)",
              "7#11",
              "7(9)",
              "7b5",
              "7sus4",
              "7th"
            ],
            "autoStart": false,
            "sourceChordNote": 0,
            "sourceChordType": "Maj7",
            "ctb2Low": null,
            "ctb2Main": {
              "ntr": "ROOT_FIXED",
              "ntt": "CHORD",
              "bassOn": false,
              "chordRootUpperLimit": 6,
              "noteLowLimit": 0,
              "noteHighLimit": 127,
              "rtr": "PITCH_SHIFT"
            },
            "ctb2High": null
          },
          "notes": [
            {
              "pitch": 59,
              "velocity": 90,
              "position": 0,
              "duration": 0.16666666666666666
            },
            {
              "pitch": 67,
              "velocity": 80,
              "position": 0,
              "duration": 0.1875
            },
            {
              "pitch": 64,
              "velocity": 90,
              "position": 0,
              "duration": 0.1875
            },
            {
              "pitch": 59,
              "velocity": 80,
              "position": 0.2708333333333333,
              "duration": 0.14583333333333334
            },
            {
              "pitch": 64,
              "velocity": 82,
              "position": 0.2708333333333333,
              "duration": 0.14583333333333334
            },
            {
              "pitch": 67,
              "velocity": 80,
              "position": 0.2708333333333333,
              "duration": 0.17708333333333334
            },
            {
              "pitch": 59,
              "velocity": 80,
              "position": 0.7083333333333334,
              "duration": 0.6770833333333334
            },
            {
              "pitch": 67,
              "velocity": 80,
              "position": 0.96875,
              "duration": 0.4375
            },
            {
              "pitch": 64,
              "velocity": 86,
              "position": 1.2291666666666667,
              "duration": 0.1875
            },
            {
              "pitch": 59,
              "velocity": 90,
              "position": 1.5,
              "duration": 0.15625
            },
            {
              "pitch": 67,
              "velocity": 94,
              "position": 1.5,
              "duration": 0.17708333333333334
            },
            {
              "pitch": 64,
              "velocity": 90,
              "position": 1.5,
              "duration": 0.17708333333333334
            },
            {
              "pitch": 59,
              "velocity": 88,
              "position": 2.0104166666666665,
              "duration": 0.16666666666666666
            },
            {
              "pitch": 64,
              "velocity": 90,
              "position": 2.0104166666666665,
              "duration": 0.1875
            },
            {
              "pitch": 67,
              "velocity": 80,
              "position": 2.0104166666666665,
              "duration": 0.19791666666666666
            },
            {
              "pitch": 59,
              "velocity": 112,
              "position": 2.28125,
              "duration": 0.15625
            },
            {
              "pitch": 64,
              "velocity": 108,
              "position": 2.28125,
              "duration": 0.16666666666666666
            },
            {
              "pitch": 67,
              "velocity": 112,
              "position": 2.28125,
              "duration": 0.1875
            },
            {
              "pitch": 59,
              "velocity": 94,
              "position": 2.75,
              "duration": 0.16666666666666666
            },
            {
              "pitch": 67,
              "velocity": 94,
              "position": 2.75,
              "duration": 0.1875
            },
            {
              "pitch": 64,
              "velocity": 90,
              "position": 2.7604166666666665,
              "duration": 0.17708333333333334
            },
            {
              "pitch": 64,
              "velocity": 94,
              "position": 3.0208333333333335,
              "duration": 0.20833333333333334
            },
            {
              "pitch": 59,
              "velocity": 120,
              "position": 3.0208333333333335,
              "duration": 0.20833333333333334
            },
            {
              "pitch": 67,
              "velocity": 104,
              "position": 3.0208333333333335,
              "duration": 0.21875
            },
            {
              "pitch": 59,
              "velocity": 126,
              "position": 3.5416666666666665,
              "duration": 0.16666666666666666
            },
            {
              "pitch": 71,
              "velocity": 126,
              "position": 3.5416666666666665,
              "duration": 0.17708333333333334
            },
            {
              "pitch": 59,
              "velocity": 112,
              "position": 3.7708333333333335,
              "duration": 0.15625
            },
            {
              "pitch": 71,
              "velocity": 104,
              "position": 3.7708333333333335,
              "duration": 0.17708333333333334
            }
          ]
        },
        "5": {
          "ctab": {
            "srcChannel": 5,
            "name": "BrasSect",
            "accType": "PHRASE2",
            "editable": false,
            "mutedNotes": [],
            "mutedChords": [
              "1+2+5",
              "sus4",
              "1+5",
              "1+8",
              "dim7",
              "dim",
              "minMaj7(9)",
              "minMaj7",
              "min7(11)",
              "min7(9)",
              "min(9)",
              "m7b5",
              "min7",
              "min6",
              "min",
              "aug",
              "Maj6(9)",
              "Maj7(9)",
              "Maj(9)",
              "Maj7#11",
              "Maj7",
              "Maj6",
              "Maj"
            ],
            "autoStart": false,
            "sourceChordNote": 0,
            "sourceChordType": "7th",
            "ctb2Low": null,
            "ctb2Main": {
              "ntr": "ROOT_FIXED",
              "ntt": "CHORD",
              "bassOn": false,
              "chordRootUpperLimit": 6,
              "noteLowLimit": 0,
              "noteHighLimit": 127,
              "rtr": "PITCH_SHIFT"
            },
            "ctb2High": null
          },
          "notes": [
            {
              "pitch": 58,
              "velocity": 90,
              "position": 0,
              "duration": 0.16666666666666666
            },
            {
              "pitch": 70,
              "velocity": 80,
              "position": 0,
              "duration": 0.1875
            },
            {
              "pitch": 64,
              "velocity": 90,
              "position": 0,
              "duration": 0.1875
            },
            {
              "pitch": 58,
              "velocity": 80,
              "position": 0.2708333333333333,
              "duration": 0.14583333333333334
            },
            {
              "pitch": 64,
              "velocity": 82,
              "position": 0.2708333333333333,
              "duration": 0.14583333333333334
            },
            {
              "pitch": 70,
              "velocity": 80,
              "position": 0.2708333333333333,
              "duration": 0.17708333333333334
            },
            {
              "pitch": 58,
              "velocity": 80,
              "position": 0.7083333333333334,
              "duration": 0.6770833333333334
            },
            {
              "pitch": 70,
              "velocity": 80,
              "position": 0.96875,
              "duration": 0.4375
            },
            {
              "pitch": 64,
              "velocity": 86,
              "position": 1.2291666666666667,
              "duration": 0.1875
            },
            {
              "pitch": 58,
              "velocity": 90,
              "position": 1.5,
              "duration": 0.15625
            },
            {
              "pitch": 70,
              "velocity": 94,
              "position": 1.5,
              "duration": 0.17708333333333334
            },
            {
              "pitch": 64,
              "velocity": 90,
              "position": 1.5,
              "duration": 0.17708333333333334
            },
            {
              "pitch": 58,
              "velocity": 88,
              "position": 2.0104166666666665,
              "duration": 0.16666666666666666
            },
            {
              "pitch": 64,
              "velocity": 90,
              "position": 2.0104166666666665,
              "duration": 0.1875
            },
            {
              "pitch": 70,
              "velocity": 80,
              "position": 2.0104166666666665,
              "duration": 0.19791666666666666
            },
            {
              "pitch": 58,
              "velocity": 112,
              "position": 2.28125,
              "duration": 0.15625
            },
            {
              "pitch": 64,
              "velocity": 108,
              "position": 2.28125,
              "duration": 0.16666666666666666
            },
            {
              "pitch": 70,
              "velocity": 112,
              "position": 2.28125,
              "duration": 0.1875
            },
            {
              "pitch": 58,
              "velocity": 94,
              "position": 2.75,
              "duration": 0.16666666666666666
            },
            {
              "pitch": 70,
              "velocity": 94,
              "position": 2.75,
              "duration": 0.1875
            },
            {
              "pitch": 64,
              "velocity": 90,
              "position": 2.7604166666666665,
              "duration": 0.17708333333333334
            },
            {
              "pitch": 64,
              "velocity": 94,
              "position": 3.0208333333333335,
              "duration": 0.20833333333333334
            },
            {
              "pitch": 58,
              "velocity": 120,
              "position": 3.0208333333333335,
              "duration": 0.20833333333333334
            },
            {
              "pitch": 70,
              "velocity": 104,
              "position": 3.0208333333333335,
              "duration": 0.21875
            },
            {
              "pitch": 60,
              "velocity": 126,
              "position": 3.5416666666666665,
              "duration": 0.16666666666666666
            },
            {
              "pitch": 72,
              "velocity": 126,
              "position": 3.5416666666666665,
              "duration": 0.17708333333333334
            },
            {
              "pitch": 60,
              "velocity": 112,
              "position": 3.7708333333333335,
              "duration": 0.15625
            },
            {
              "pitch": 72,
              "velocity": 104,
              "position": 3.7708333333333335,
              "duration": 0.17708333333333334
            }
          ]
        },
        "8": {
          "ctab": {
            "srcChannel": 8,
            "name": "Std.Kit1",
            "accType": "RHYTHM",
            "editable": false,
            "mutedNotes": [],
            "mutedChords": [],
            "autoStart": true,
            "sourceChordNote": 0,
            "sourceChordType": "Maj7",
            "ctb2Low": null,
            "ctb2Main": {
              "ntr": "ROOT_FIXED",
              "ntt": "BYPASS",
              "bassOn": false,
              "chordRootUpperLimit": 6,
              "noteLowLimit": 0,
              "noteHighLimit": 127,
              "rtr": "PITCH_SHIFT"
            },
            "ctb2High": null
          },
          "notes": [
            {
              "pitch": 38,
              "velocity": 110,
              "position": 0,
              "duration": 0.015625
            },
            {
              "pitch": 36,
              "velocity": 80,
              "position": 0.25,
              "duration": 0.015625
            },
            {
              "pitch": 38,
              "velocity": 110,
              "position": 0.75,
              "duration": 0.015625
            },
            {
              "pitch": 36,
              "velocity": 110,
              "position": 1,
              "duration": 0.015625
            },
            {
              "pitch": 38,
              "velocity": 126,
              "position": 1.5,
              "duration": 0.015625
            },
            {
              "pitch": 36,
              "velocity": 110,
              "position": 1.7604166666666667,
              "duration": 0.015625
            },
            {
              "pitch": 38,
              "velocity": 110,
              "position": 2.25,
              "duration": 0.015625
            },
            {
              "pitch": 36,
              "velocity": 110,
              "position": 2.5,
              "duration": 0.015625
            },
            {
              "pitch": 38,
              "velocity": 90,
              "position": 2.9895833333333335,
              "duration": 0.015625
            },
            {
              "pitch": 38,
              "velocity": 110,
              "position": 3.25,
              "duration": 0.015625
            },
            {
              "pitch": 38,
              "velocity": 126,
              "position": 3.5,
              "duration": 0.015625
            }
          ]
        },
        "10": {
          "ctab": {
            "srcChannel": 10,
            "name": "Std.Kit1",
            "accType": "SUBRHYTHM",
            "editable": false,
            "mutedNotes": [],
            "mutedChords": [],
            "autoStart": true,
            "sourceChordNote": 0,
            "sourceChordType": "Maj7",
            "ctb2Low": null,
            "ctb2Main": {
              "ntr": "ROOT_FIXED",
              "ntt": "BYPASS",
              "bassOn": false,
              "chordRootUpperLimit": 6,
              "noteLowLimit": 0,
              "noteHighLimit": 127,
              "rtr": "PITCH_SHIFT"
            },
            "ctb2High": null
          },
          "notes": [
            {
              "pitch": 56,
              "velocity": 110,
              "position": 0,
              "duration": 0.015625
            },
            {
              "pitch": 62,
              "velocity": 92,
              "position": 0,
              "duration": 0.015625
            },
            {
              "pitch": 65,
              "velocity": 124,
              "position": 0,
              "duration": 0.015625
            },
            {
              "pitch": 66,
              "velocity": 104,
              "position": 0.25,
              "duration": 0.015625
            },
            {
              "pitch": 68,
              "velocity": 110,
              "position": 0.2604166666666667,
              "duration": 0.015625
            },
            {
              "pitch": 64,
              "velocity": 92,
              "position": 0.2604166666666667,
              "duration": 0.015625
            },
            {
              "pitch": 62,
              "velocity": 110,
              "position": 0.75,
              "duration": 0.015625
            },
            {
              "pitch": 65,
              "velocity": 124,
              "position": 0.75,
              "duration": 0.015625
            },
            {
              "pitch": 56,
              "velocity": 110,
              "position": 0.7604166666666666,
              "duration": 0.015625
            },
            {
              "pitch": 66,
              "velocity": 104,
              "position": 1.0104166666666667,
              "duration": 0.015625
            },
            {
              "pitch": 64,
              "velocity": 92,
              "position": 1.0104166666666667,
              "duration": 0.015625
            },
            {
              "pitch": 68,
              "velocity": 110,
              "position": 1.0208333333333333,
              "duration": 0.015625
            },
            {
              "pitch": 65,
              "velocity": 118,
              "position": 1.5,
              "duration": 0.015625
            },
            {
              "pitch": 62,
              "velocity": 110,
              "position": 1.5,
              "duration": 0.015625
            },
            {
              "pitch": 56,
              "velocity": 110,
              "position": 1.5,
              "duration": 0.015625
            },
            {
              "pitch": 66,
              "velocity": 104,
              "position": 1.7604166666666667,
              "duration": 0.015625
            },
            {
              "pitch": 64,
              "velocity": 90,
              "position": 1.7604166666666667,
              "duration": 0.015625
            },
            {
              "pitch": 68,
              "velocity": 110,
              "position": 1.7708333333333333,
              "duration": 0.015625
            },
            {
              "pitch": 62,
              "velocity": 110,
              "position": 2.25,
              "duration": 0.015625
            },
            {
              "pitch": 56,
              "velocity": 92,
              "position": 2.25,
              "duration": 0.015625
            },
            {
              "pitch": 65,
              "velocity": 124,
              "position": 2.25,
              "duration": 0.015625
            },
            {
              "pitch": 64,
              "velocity": 110,
              "position": 2.5,
              "duration": 0.015625
            },
            {
              "pitch": 66,
              "velocity": 104,
              "position": 2.5,
              "duration": 0.015625
            },
            {
              "pitch": 68,
              "velocity": 110,
              "position": 2.5,
              "duration": 0.015625
            },
            {
              "pitch": 65,
              "velocity": 120,
              "position": 3,
              "duration": 0.015625
            },
            {
              "pitch": 56,
              "velocity": 110,
              "position": 3,
              "duration": 0.015625
            },
            {
              "pitch": 64,
              "velocity": 110,
              "position": 3.0104166666666665,
              "duration": 0.015625
            },
            {
              "pitch": 65,
              "velocity": 124,
              "position": 3.2395833333333335,
              "duration": 0.015625
            },
            {
              "pitch": 56,
              "velocity": 110,
              "position": 3.25,
              "duration": 0.015625
            },
            {
              "pitch": 64,
              "velocity": 110,
              "position": 3.25,
              "duration": 0.015625
            },
            {
              "pitch": 65,
              "velocity": 126,
              "position": 3.4895833333333335,
              "duration": 0.015625
            },
            {
              "pitch": 56,
              "velocity": 110,
              "position": 3.5,
              "duration": 0.015625
            },
            {
              "pitch": 64,
              "velocity": 110,
              "position": 3.5,
              "duration": 0.015625
            }
          ]
        },
        "12": {
          "ctab": {
            "srcChannel": 12,
            "name": "Aco.Bass",
            "accType": "BASS",
            "editable": false,
            "mutedNotes": [],
            "mutedChords": [],
            "autoStart": false,
            "sourceChordNote": 0,
            "sourceChordType": "Maj7",
            "ctb2Low": null,
            "ctb2Main": {
              "ntr": "ROOT_TRANSPOSITION",
              "ntt": "MELODY",
              "bassOn": true,
              "chordRootUpperLimit": 3,
              "noteLowLimit": 28,
              "noteHighLimit": 54,
              "rtr": "PITCH_SHIFT_TO_ROOT"
            },
            "ctb2High": null
          },
          "notes": [
            {
              "pitch": 48,
              "velocity": 88,
              "position": 0,
              "duration": 0.20833333333333334
            },
            {
              "pitch": 48,
              "velocity": 70,
              "position": 0.25,
              "duration": 0.17708333333333334
            },
            {
              "pitch": 48,
              "velocity": 82,
              "position": 0.7395833333333334,
              "duration": 0.20833333333333334
            },
            {
              "pitch": 48,
              "velocity": 100,
              "position": 0.9895833333333334,
              "duration": 0.20833333333333334
            },
            {
              "pitch": 48,
              "velocity": 88,
              "position": 1.5,
              "duration": 0.20833333333333334
            },
            {
              "pitch": 48,
              "velocity": 100,
              "position": 1.7604166666666667,
              "duration": 0.16666666666666666
            },
            {
              "pitch": 48,
              "velocity": 100,
              "position": 2.25,
              "duration": 0.1875
            },
            {
              "pitch": 48,
              "velocity": 120,
              "position": 2.5,
              "duration": 0.20833333333333334
            },
            {
              "pitch": 48,
              "velocity": 78,
              "position": 3,
              "duration": 0.16666666666666666
            },
            {
              "pitch": 48,
              "velocity": 100,
              "position": 3.25,
              "duration": 0.17708333333333334
            },
            {
              "pitch": 48,
              "velocity": 126,
              "position": 3.5,
              "duration": 0.28125
            }
          ]
        },
        "14": {
          "ctab": {
            "srcChannel": 14,
            "name": "GrandPno",
            "accType": "CHORD1",
            "editable": false,
            "mutedNotes": [],
            "mutedChords": [
              "7aug",
              "Maj7aug",
              "7(#9)",
              "7(b13)",
              "7(b9)",
              "7(13)",
              "7#11",
              "7(9)",
              "7b5",
              "7sus4",
              "7th"
            ],
            "autoStart": false,
            "sourceChordNote": 0,
            "sourceChordType": "Maj7",
            "ctb2Low": null,
            "ctb2Main": {
              "ntr": "ROOT_FIXED",
              "ntt": "CHORD",
              "bassOn": false,
              "chordRootUpperLimit": 6,
              "noteLowLimit": 0,
              "noteHighLimit": 127,
              "rtr": "PITCH_SHIFT"
            },
            "ctb2High": null
          },
          "notes": [
            {
              "pitch": 59,
              "velocity": 78,
              "position": 0,
              "duration": 0.17708333333333334
            },
            {
              "pitch": 48,
              "velocity": 100,
              "position": 0,
              "duration": 0.1875
            },
            {
              "pitch": 71,
              "velocity": 96,
              "position": 0,
              "duration": 0.19791666666666666
            },
            {
              "pitch": 71,
              "velocity": 64,
              "position": 0.25,
              "duration": 0.14583333333333334
            },
            {
              "pitch": 59,
              "velocity": 78,
              "position": 0.25,
              "duration": 0.14583333333333334
            },
            {
              "pitch": 48,
              "velocity": 90,
              "position": 0.25,
              "duration": 0.15625
            },
            {
              "pitch": 59,
              "velocity": 110,
              "position": 0.75,
              "duration": 0.16666666666666666
            },
            {
              "pitch": 71,
              "velocity": 110,
              "position": 0.75,
              "duration": 0.16666666666666666
            },
            {
              "pitch": 48,
              "velocity": 94,
              "position": 0.7395833333333334,
              "duration": 0.19791666666666666
            },
            {
              "pitch": 71,
              "velocity": 106,
              "position": 1,
              "duration": 0.14583333333333334
            },
            {
              "pitch": 59,
              "velocity": 104,
              "position": 1,
              "duration": 0.14583333333333334
            },
            {
              "pitch": 48,
              "velocity": 124,
              "position": 1,
              "duration": 0.17708333333333334
            },
            {
              "pitch": 59,
              "velocity": 110,
              "position": 1.4895833333333333,
              "duration": 0.1875
            },
            {
              "pitch": 71,
              "velocity": 110,
              "position": 1.4895833333333333,
              "duration": 0.1875
            },
            {
              "pitch": 48,
              "velocity": 92,
              "position": 1.4895833333333333,
              "duration": 0.19791666666666666
            },
            {
              "pitch": 59,
              "velocity": 84,
              "position": 1.75,
              "duration": 0.15625
            },
            {
              "pitch": 71,
              "velocity": 88,
              "position": 1.75,
              "duration": 0.16666666666666666
            },
            {
              "pitch": 48,
              "velocity": 84,
              "position": 1.75,
              "duration": 0.17708333333333334
            },
            {
              "pitch": 59,
              "velocity": 104,
              "position": 2.25,
              "duration": 0.16666666666666666
            },
            {
              "pitch": 48,
              "velocity": 110,
              "position": 2.25,
              "duration": 0.17708333333333334
            },
            {
              "pitch": 71,
              "velocity": 124,
              "position": 2.25,
              "duration": 0.1875
            },
            {
              "pitch": 71,
              "velocity": 110,
              "position": 2.4895833333333335,
              "duration": 0.17708333333333334
            },
            {
              "pitch": 48,
              "velocity": 88,
              "position": 2.4895833333333335,
              "duration": 0.1875
            },
            {
              "pitch": 59,
              "velocity": 104,
              "position": 2.5,
              "duration": 0.1875
            },
            {
              "pitch": 59,
              "velocity": 124,
              "position": 3,
              "duration": 0.15625
            },
            {
              "pitch": 71,
              "velocity": 124,
              "position": 2.9895833333333335,
              "duration": 0.17708333333333334
            },
            {
              "pitch": 48,
              "velocity": 96,
              "position": 3,
              "duration": 0.16666666666666666
            },
            {
              "pitch": 36,
              "velocity": 106,
              "position": 3,
              "duration": 0.17708333333333334
            },
            {
              "pitch": 71,
              "velocity": 110,
              "position": 3.2604166666666665,
              "duration": 0.14583333333333334
            },
            {
              "pitch": 48,
              "velocity": 124,
              "position": 3.25,
              "duration": 0.16666666666666666
            },
            {
              "pitch": 36,
              "velocity": 124,
              "position": 3.25,
              "duration": 0.16666666666666666
            },
            {
              "pitch": 59,
              "velocity": 124,
              "position": 3.25,
              "duration": 0.16666666666666666
            },
            {
              "pitch": 48,
              "velocity": 126,
              "position": 3.5,
              "duration": 0.15625
            },
            {
              "pitch": 71,
              "velocity": 104,
              "position": 3.5,
              "duration": 0.15625
            },
            {
              "pitch": 36,
              "velocity": 110,
              "position": 3.5,
              "duration": 0.15625
            },
            {
              "pitch": 59,
              "velocity": 110,
              "position": 3.5,
              "duration": 0.15625
            }
          ]
        },
        "15": {
          "ctab": {
            "srcChannel": 15,
            "name": "GrandPno",
            "accType": "CHORD1",
            "editable": false,
            "mutedNotes": [],
            "mutedChords": [
              "1+2+5",
              "sus4",
              "1+5",
              "1+8",
              "dim7",
              "dim",
              "minMaj7(9)",
              "minMaj7",
              "min7(11)",
              "min7(9)",
              "min(9)",
              "m7b5",
              "min7",
              "min6",
              "min",
              "aug",
              "Maj6(9)",
              "Maj7(9)",
              "Maj(9)",
              "Maj7#11",
              "Maj7",
              "Maj6",
              "Maj"
            ],
            "autoStart": false,
            "sourceChordNote": 0,
            "sourceChordType": "7th",
            "ctb2Low": null,
            "ctb2Main": {
              "ntr": "ROOT_FIXED",
              "ntt": "CHORD",
              "bassOn": false,
              "chordRootUpperLimit": 6,
              "noteLowLimit": 0,
              "noteHighLimit": 127,
              "rtr": "PITCH_SHIFT"
            },
            "ctb2High": null
          },
          "notes": [
            {
              "pitch": 60,
              "velocity": 78,
              "position": 0,
              "duration": 0.17708333333333334
            },
            {
              "pitch": 48,
              "velocity": 100,
              "position": 0,
              "duration": 0.1875
            },
            {
              "pitch": 72,
              "velocity": 96,
              "position": 0,
              "duration": 0.19791666666666666
            },
            {
              "pitch": 72,
              "velocity": 64,
              "position": 0.25,
              "duration": 0.14583333333333334
            },
            {
              "pitch": 60,
              "velocity": 78,
              "position": 0.25,
              "duration": 0.14583333333333334
            },
            {
              "pitch": 48,
              "velocity": 90,
              "position": 0.25,
              "duration": 0.15625
            },
            {
              "pitch": 60,
              "velocity": 110,
              "position": 0.75,
              "duration": 0.16666666666666666
            },
            {
              "pitch": 72,
              "velocity": 110,
              "position": 0.75,
              "duration": 0.16666666666666666
            },
            {
              "pitch": 48,
              "velocity": 94,
              "position": 0.7395833333333334,
              "duration": 0.19791666666666666
            },
            {
              "pitch": 72,
              "velocity": 106,
              "position": 1,
              "duration": 0.14583333333333334
            },
            {
              "pitch": 60,
              "velocity": 104,
              "position": 1,
              "duration": 0.14583333333333334
            },
            {
              "pitch": 48,
              "velocity": 124,
              "position": 1,
              "duration": 0.17708333333333334
            },
            {
              "pitch": 60,
              "velocity": 110,
              "position": 1.4895833333333333,
              "duration": 0.1875
            },
            {
              "pitch": 72,
              "velocity": 110,
              "position": 1.4895833333333333,
              "duration": 0.1875
            },
            {
              "pitch": 48,
              "velocity": 92,
              "position": 1.4895833333333333,
              "duration": 0.19791666666666666
            },
            {
              "pitch": 60,
              "velocity": 84,
              "position": 1.75,
              "duration": 0.15625
            },
            {
              "pitch": 72,
              "velocity": 88,
              "position": 1.75,
              "duration": 0.16666666666666666
            },
            {
              "pitch": 48,
              "velocity": 84,
              "position": 1.75,
              "duration": 0.17708333333333334
            },
            {
              "pitch": 60,
              "velocity": 104,
              "position": 2.25,
              "duration": 0.16666666666666666
            },
            {
              "pitch": 48,
              "velocity": 110,
              "position": 2.25,
              "duration": 0.17708333333333334
            },
            {
              "pitch": 72,
              "velocity": 124,
              "position": 2.25,
              "duration": 0.1875
            },
            {
              "pitch": 72,
              "velocity": 110,
              "position": 2.4895833333333335,
              "duration": 0.17708333333333334
            },
            {
              "pitch": 48,
              "velocity": 88,
              "position": 2.4895833333333335,
              "duration": 0.1875
            },
            {
              "pitch": 60,
              "velocity": 104,
              "position": 2.5,
              "duration": 0.1875
            },
            {
              "pitch": 60,
              "velocity": 124,
              "position": 3,
              "duration": 0.15625
            },
            {
              "pitch": 72,
              "velocity": 124,
              "position": 2.9895833333333335,
              "duration": 0.17708333333333334
            },
            {
              "pitch": 48,
              "velocity": 96,
              "position": 3,
              "duration": 0.16666666666666666
            },
            {
              "pitch": 36,
              "velocity": 106,
              "position": 3,
              "duration": 0.17708333333333334
            },
            {
              "pitch": 72,
              "velocity": 110,
              "position": 3.2604166666666665,
              "duration": 0.14583333333333334
            },
            {
              "pitch": 48,
              "velocity": 124,
              "position": 3.25,
              "duration": 0.16666666666666666
            },
            {
              "pitch": 36,
              "velocity": 124,
              "position": 3.25,
              "duration": 0.16666666666666666
            },
            {
              "pitch": 60,
              "velocity": 124,
              "position": 3.25,
              "duration": 0.16666666666666666
            },
            {
              "pitch": 48,
              "velocity": 126,
              "position": 3.5,
              "duration": 0.15625
            },
            {
              "pitch": 72,
              "velocity": 104,
              "position": 3.5,
              "duration": 0.15625
            },
            {
              "pitch": 36,
              "velocity": 110,
              "position": 3.5,
              "duration": 0.15625
            },
            {
              "pitch": 60,
              "velocity": 110,
              "position": 3.5,
              "duration": 0.15625
            }
          ]
        }
      }
    },
    "Fill_In_DD": {
      "type": "Fill_In_DD",
      "sizeInBeats": 4,
      "channels": {
        "1": {
          "ctab": {
            "srcChannel": 1,
            "name": "BrasSect",
            "accType": "PHRASE1",
            "editable": false,
            "mutedNotes": [],
            "mutedChords": [
              "7aug",
              "Maj7aug",
              "7(#9)",
              "7(b13)",
              "7(b9)",
              "7(13)",
              "7#11",
              "7(9)",
              "7b5",
              "7sus4",
              "7th"
            ],
            "autoStart": false,
            "sourceChordNote": 0,
            "sourceChordType": "Maj7",
            "ctb2Low": null,
            "ctb2Main": {
              "ntr": "ROOT_FIXED",
              "ntt": "CHORD",
              "bassOn": false,
              "chordRootUpperLimit": 6,
              "noteLowLimit": 0,
              "noteHighLimit": 127,
              "rtr": "PITCH_SHIFT"
            },
            "ctb2High": null
          },
          "notes": [
            {
              "pitch": 52,
              "velocity": 94,
              "position": 0,
              "duration": 0.17708333333333334
            },
            {
              "pitch": 59,
              "velocity": 102,
              "position": 0,
              "duration": 0.19791666666666666
            },
            {
              "pitch": 55,
              "velocity": 102,
              "position": 0,
              "duration": 0.20833333333333334
            },
            {
              "pitch": 52,
              "velocity": 88,
              "position": 0.2604166666666667,
              "duration": 0.13541666666666666
            },
            {
              "pitch": 55,
              "velocity": 88,
              "position": 0.2604166666666667,
              "duration": 0.14583333333333334
            },
            {
              "pitch": 59,
              "velocity": 88,
              "position": 0.2604166666666667,
              "duration": 0.14583333333333334
            },
            {
              "pitch": 55,
              "velocity": 84,
              "position": 0.75,
              "duration": 0.1875
            },
            {
              "pitch": 52,
              "velocity": 72,
              "position": 0.75,
              "duration": 0.19791666666666666
            },
            {
              "pitch": 59,
              "velocity": 76,
              "position": 0.75,
              "duration": 0.20833333333333334
            },
            {
              "pitch": 59,
              "velocity": 88,
              "position": 1,
              "duration": 0.21875
            },
            {
              "pitch": 52,
              "velocity": 92,
              "position": 1,
              "duration": 0.23958333333333334
            },
            {
              "pitch": 55,
              "velocity": 102,
              "position": 1,
              "duration": 0.25
            },
            {
              "pitch": 52,
              "velocity": 84,
              "position": 1.4895833333333333,
              "duration": 0.1875
            },
            {
              "pitch": 55,
              "velocity": 94,
              "position": 1.4895833333333333,
              "duration": 0.1875
            },
            {
              "pitch": 59,
              "velocity": 88,
              "position": 1.4895833333333333,
              "duration": 0.19791666666666666
            },
            {
              "pitch": 52,
              "velocity": 106,
              "position": 1.7604166666666667,
              "duration": 0.17708333333333334
            },
            {
              "pitch": 59,
              "velocity": 106,
              "position": 1.7604166666666667,
              "duration": 0.19791666666666666
            },
            {
              "pitch": 55,
              "velocity": 96,
              "position": 1.7604166666666667,
              "duration": 0.19791666666666666
            },
            {
              "pitch": 55,
              "velocity": 104,
              "position": 2.25,
              "duration": 0.1875
            },
            {
              "pitch": 59,
              "velocity": 104,
              "position": 2.25,
              "duration": 0.19791666666666666
            },
            {
              "pitch": 52,
              "velocity": 98,
              "position": 2.25,
              "duration": 0.22916666666666666
            },
            {
              "pitch": 55,
              "velocity": 120,
              "position": 2.5,
              "duration": 0.19791666666666666
            },
            {
              "pitch": 52,
              "velocity": 120,
              "position": 2.5,
              "duration": 0.20833333333333334
            },
            {
              "pitch": 59,
              "velocity": 124,
              "position": 2.5,
              "duration": 0.21875
            },
            {
              "pitch": 59,
              "velocity": 114,
              "position": 3,
              "duration": 0.17708333333333334
            },
            {
              "pitch": 48,
              "velocity": 124,
              "position": 3,
              "duration": 0.17708333333333334
            },
            {
              "pitch": 48,
              "velocity": 110,
              "position": 3.25,
              "duration": 0.1875
            },
            {
              "pitch": 59,
              "velocity": 120,
              "position": 3.25,
              "duration": 0.19791666666666666
            },
            {
              "pitch": 59,
              "velocity": 112,
              "position": 3.5,
              "duration": 0.23958333333333334
            },
            {
              "pitch": 48,
              "velocity": 104,
              "position": 3.5,
              "duration": 0.23958333333333334
            }
          ]
        },
        "2": {
          "ctab": {
            "srcChannel": 2,
            "name": "BrasSect",
            "accType": "PHRASE1",
            "editable": false,
            "mutedNotes": [],
            "mutedChords": [
              "1+2+5",
              "sus4",
              "1+5",
              "1+8",
              "dim7",
              "dim",
              "minMaj7(9)",
              "minMaj7",
              "min7(11)",
              "min7(9)",
              "min(9)",
              "m7b5",
              "min7",
              "min6",
              "min",
              "aug",
              "Maj6(9)",
              "Maj7(9)",
              "Maj(9)",
              "Maj7#11",
              "Maj7",
              "Maj6",
              "Maj"
            ],
            "autoStart": false,
            "sourceChordNote": 0,
            "sourceChordType": "7th",
            "ctb2Low": null,
            "ctb2Main": {
              "ntr": "ROOT_FIXED",
              "ntt": "CHORD",
              "bassOn": false,
              "chordRootUpperLimit": 6,
              "noteLowLimit": 0,
              "noteHighLimit": 127,
              "rtr": "PITCH_SHIFT"
            },
            "ctb2High": null
          },
          "notes": [
            {
              "pitch": 52,
              "velocity": 94,
              "position": 0,
              "duration": 0.17708333333333334
            },
            {
              "pitch": 58,
              "velocity": 102,
              "position": 0,
              "duration": 0.19791666666666666
            },
            {
              "pitch": 52,
              "velocity": 88,
              "position": 0.2604166666666667,
              "duration": 0.13541666666666666
            },
            {
              "pitch": 58,
              "velocity": 88,
              "position": 0.2604166666666667,
              "duration": 0.14583333333333334
            },
            {
              "pitch": 52,
              "velocity": 72,
              "position": 0.75,
              "duration": 0.19791666666666666
            },
            {
              "pitch": 58,
              "velocity": 84,
              "position": 0.75,
              "duration": 0.20833333333333334
            },
            {
              "pitch": 58,
              "velocity": 102,
              "position": 1,
              "duration": 0.21875
            },
            {
              "pitch": 52,
              "velocity": 92,
              "position": 1,
              "duration": 0.23958333333333334
            },
            {
              "pitch": 52,
              "velocity": 84,
              "position": 1.4895833333333333,
              "duration": 0.1875
            },
            {
              "pitch": 58,
              "velocity": 94,
              "position": 1.4895833333333333,
              "duration": 0.19791666666666666
            },
            {
              "pitch": 52,
              "velocity": 106,
              "position": 1.7604166666666667,
              "duration": 0.17708333333333334
            },
            {
              "pitch": 58,
              "velocity": 106,
              "position": 1.7604166666666667,
              "duration": 0.19791666666666666
            },
            {
              "pitch": 58,
              "velocity": 104,
              "position": 2.25,
              "duration": 0.19791666666666666
            },
            {
              "pitch": 52,
              "velocity": 98,
              "position": 2.25,
              "duration": 0.22916666666666666
            },
            {
              "pitch": 52,
              "velocity": 120,
              "position": 2.5,
              "duration": 0.20833333333333334
            },
            {
              "pitch": 58,
              "velocity": 120,
              "position": 2.5,
              "duration": 0.21875
            },
            {
              "pitch": 60,
              "velocity": 114,
              "position": 3,
              "duration": 0.17708333333333334
            },
            {
              "pitch": 48,
              "velocity": 124,
              "position": 3,
              "duration": 0.17708333333333334
            },
            {
              "pitch": 48,
              "velocity": 110,
              "position": 3.25,
              "duration": 0.1875
            },
            {
              "pitch": 60,
              "velocity": 120,
              "position": 3.25,
              "duration": 0.19791666666666666
            },
            {
              "pitch": 60,
              "velocity": 112,
              "position": 3.5,
              "duration": 0.23958333333333334
            },
            {
              "pitch": 48,
              "velocity": 104,
              "position": 3.5,
              "duration": 0.23958333333333334
            }
          ]
        },
        "4": {
          "ctab": {
            "srcChannel": 4,
            "name": "BrasSect",
            "accType": "PHRASE2",
            "editable": false,
            "mutedNotes": [],
            "mutedChords": [
              "7aug",
              "Maj7aug",
              "7(#9)",
              "7(b13)",
              "7(b9)",
              "7(13)",
              "7#11",
              "7(9)",
              "7b5",
              "7sus4",
              "7th"
            ],
            "autoStart": false,
            "sourceChordNote": 0,
            "sourceChordType": "Maj7",
            "ctb2Low": null,
            "ctb2Main": {
              "ntr": "ROOT_FIXED",
              "ntt": "CHORD",
              "bassOn": false,
              "chordRootUpperLimit": 6,
              "noteLowLimit": 0,
              "noteHighLimit": 127,
              "rtr": "PITCH_SHIFT"
            },
            "ctb2High": null
          },
          "notes": [
            {
              "pitch": 59,
              "velocity": 90,
              "position": 0,
              "duration": 0.16666666666666666
            },
            {
              "pitch": 67,
              "velocity": 80,
              "position": 0,
              "duration": 0.1875
            },
            {
              "pitch": 64,
              "velocity": 90,
              "position": 0,
              "duration": 0.1875
            },
            {
              "pitch": 59,
              "velocity": 80,
              "position": 0.2708333333333333,
              "duration": 0.14583333333333334
            },
            {
              "pitch": 64,
              "velocity": 82,
              "position": 0.2708333333333333,
              "duration": 0.14583333333333334
            },
            {
              "pitch": 67,
              "velocity": 80,
              "position": 0.2708333333333333,
              "duration": 0.17708333333333334
            },
            {
              "pitch": 59,
              "velocity": 80,
              "position": 0.7083333333333334,
              "duration": 0.6770833333333334
            },
            {
              "pitch": 67,
              "velocity": 80,
              "position": 0.96875,
              "duration": 0.4375
            },
            {
              "pitch": 64,
              "velocity": 86,
              "position": 1.2291666666666667,
              "duration": 0.1875
            },
            {
              "pitch": 59,
              "velocity": 90,
              "position": 1.5,
              "duration": 0.15625
            },
            {
              "pitch": 67,
              "velocity": 94,
              "position": 1.5,
              "duration": 0.17708333333333334
            },
            {
              "pitch": 64,
              "velocity": 90,
              "position": 1.5,
              "duration": 0.17708333333333334
            },
            {
              "pitch": 59,
              "velocity": 88,
              "position": 2.0104166666666665,
              "duration": 0.16666666666666666
            },
            {
              "pitch": 64,
              "velocity": 90,
              "position": 2.0104166666666665,
              "duration": 0.1875
            },
            {
              "pitch": 67,
              "velocity": 80,
              "position": 2.0104166666666665,
              "duration": 0.19791666666666666
            },
            {
              "pitch": 59,
              "velocity": 112,
              "position": 2.28125,
              "duration": 0.15625
            },
            {
              "pitch": 64,
              "velocity": 108,
              "position": 2.28125,
              "duration": 0.16666666666666666
            },
            {
              "pitch": 67,
              "velocity": 112,
              "position": 2.28125,
              "duration": 0.1875
            },
            {
              "pitch": 59,
              "velocity": 94,
              "position": 2.75,
              "duration": 0.16666666666666666
            },
            {
              "pitch": 67,
              "velocity": 94,
              "position": 2.75,
              "duration": 0.1875
            },
            {
              "pitch": 64,
              "velocity": 90,
              "position": 2.7604166666666665,
              "duration": 0.17708333333333334
            },
            {
              "pitch": 64,
              "velocity": 94,
              "position": 3.0208333333333335,
              "duration": 0.20833333333333334
            },
            {
              "pitch": 59,
              "velocity": 120,
              "position": 3.0208333333333335,
              "duration": 0.20833333333333334
            },
            {
              "pitch": 67,
              "velocity": 104,
              "position": 3.0208333333333335,
              "duration": 0.21875
            },
            {
              "pitch": 59,
              "velocity": 126,
              "position": 3.5416666666666665,
              "duration": 0.16666666666666666
            },
            {
              "pitch": 71,
              "velocity": 126,
              "position": 3.5416666666666665,
              "duration": 0.17708333333333334
            },
            {
              "pitch": 59,
              "velocity": 112,
              "position": 3.7708333333333335,
              "duration": 0.15625
            },
            {
              "pitch": 71,
              "velocity": 104,
              "position": 3.7708333333333335,
              "duration": 0.17708333333333334
            }
          ]
        },
        "5": {
          "ctab": {
            "srcChannel": 5,
            "name": "BrasSect",
            "accType": "PHRASE2",
            "editable": false,
            "mutedNotes": [],
            "mutedChords": [
              "1+2+5",
              "sus4",
              "1+5",
              "1+8",
              "dim7",
              "dim",
              "minMaj7(9)",
              "minMaj7",
              "min7(11)",
              "min7(9)",
              "min(9)",
              "m7b5",
              "min7",
              "min6",
              "min",
              "aug",
              "Maj6(9)",
              "Maj7(9)",
              "Maj(9)",
              "Maj7#11",
              "Maj7",
              "Maj6",
              "Maj"
            ],
            "autoStart": false,
            "sourceChordNote": 0,
            "sourceChordType": "7th",
            "ctb2Low": null,
            "ctb2Main": {
              "ntr": "ROOT_FIXED",
              "ntt": "CHORD",
              "bassOn": false,
              "chordRootUpperLimit": 6,
              "noteLowLimit": 0,
              "noteHighLimit": 127,
              "rtr": "PITCH_SHIFT"
            },
            "ctb2High": null
          },
          "notes": [
            {
              "pitch": 58,
              "velocity": 90,
              "position": 0,
              "duration": 0.16666666666666666
            },
            {
              "pitch": 70,
              "velocity": 80,
              "position": 0,
              "duration": 0.1875
            },
            {
              "pitch": 64,
              "velocity": 90,
              "position": 0,
              "duration": 0.1875
            },
            {
              "pitch": 58,
              "velocity": 80,
              "position": 0.2708333333333333,
              "duration": 0.14583333333333334
            },
            {
              "pitch": 64,
              "velocity": 82,
              "position": 0.2708333333333333,
              "duration": 0.14583333333333334
            },
            {
              "pitch": 70,
              "velocity": 80,
              "position": 0.2708333333333333,
              "duration": 0.17708333333333334
            },
            {
              "pitch": 58,
              "velocity": 80,
              "position": 0.7083333333333334,
              "duration": 0.6770833333333334
            },
            {
              "pitch": 70,
              "velocity": 80,
              "position": 0.96875,
              "duration": 0.4375
            },
            {
              "pitch": 64,
              "velocity": 86,
              "position": 1.2291666666666667,
              "duration": 0.1875
            },
            {
              "pitch": 58,
              "velocity": 90,
              "position": 1.5,
              "duration": 0.15625
            },
            {
              "pitch": 70,
              "velocity": 94,
              "position": 1.5,
              "duration": 0.17708333333333334
            },
            {
              "pitch": 64,
              "velocity": 90,
              "position": 1.5,
              "duration": 0.17708333333333334
            },
            {
              "pitch": 58,
              "velocity": 88,
              "position": 2.0104166666666665,
              "duration": 0.16666666666666666
            },
            {
              "pitch": 64,
              "velocity": 90,
              "position": 2.0104166666666665,
              "duration": 0.1875
            },
            {
              "pitch": 70,
              "velocity": 80,
              "position": 2.0104166666666665,
              "duration": 0.19791666666666666
            },
            {
              "pitch": 58,
              "velocity": 112,
              "position": 2.28125,
              "duration": 0.15625
            },
            {
              "pitch": 64,
              "velocity": 108,
              "position": 2.28125,
              "duration": 0.16666666666666666
            },
            {
              "pitch": 70,
              "velocity": 112,
              "position": 2.28125,
              "duration": 0.1875
            },
            {
              "pitch": 58,
              "velocity": 94,
              "position": 2.75,
              "duration": 0.16666666666666666
            },
            {
              "pitch": 70,
              "velocity": 94,
              "position": 2.75,
              "duration": 0.1875
            },
            {
              "pitch": 64,
              "velocity": 90,
              "position": 2.7604166666666665,
              "duration": 0.17708333333333334
            },
            {
              "pitch": 64,
              "velocity": 94,
              "position": 3.0208333333333335,
              "duration": 0.20833333333333334
            },
            {
              "pitch": 58,
              "velocity": 120,
              "position": 3.0208333333333335,
              "duration": 0.20833333333333334
            },
            {
              "pitch": 70,
              "velocity": 104,
              "position": 3.0208333333333335,
              "duration": 0.21875
            },
            {
              "pitch": 60,
              "velocity": 126,
              "position": 3.5416666666666665,
              "duration": 0.16666666666666666
            },
            {
              "pitch": 72,
              "velocity": 126,
              "position": 3.5416666666666665,
              "duration": 0.17708333333333334
            },
            {
              "pitch": 60,
              "velocity": 112,
              "position": 3.7708333333333335,
              "duration": 0.15625
            },
            {
              "pitch": 72,
              "velocity": 104,
              "position": 3.7708333333333335,
              "duration": 0.17708333333333334
            }
          ]
        },
        "8": {
          "ctab": {
            "srcChannel": 8,
            "name": "Std.Kit1",
            "accType": "RHYTHM",
            "editable": false,
            "mutedNotes": [],
            "mutedChords": [],
            "autoStart": true,
            "sourceChordNote": 0,
            "sourceChordType": "Maj7",
            "ctb2Low": null,
            "ctb2Main": {
              "ntr": "ROOT_FIXED",
              "ntt": "BYPASS",
              "bassOn": false,
              "chordRootUpperLimit": 6,
              "noteLowLimit": 0,
              "noteHighLimit": 127,
              "rtr": "PITCH_SHIFT"
            },
            "ctb2High": null
          },
          "notes": [
            {
              "pitch": 38,
              "velocity": 110,
              "position": 0,
              "duration": 0.015625
            },
            {
              "pitch": 36,
              "velocity": 80,
              "position": 0.25,
              "duration": 0.015625
            },
            {
              "pitch": 38,
              "velocity": 110,
              "position": 0.75,
              "duration": 0.015625
            },
            {
              "pitch": 36,
              "velocity": 110,
              "position": 1,
              "duration": 0.015625
            },
            {
              "pitch": 38,
              "velocity": 126,
              "position": 1.5,
              "duration": 0.015625
            },
            {
              "pitch": 36,
              "velocity": 110,
              "position": 1.7604166666666667,
              "duration": 0.015625
            },
            {
              "pitch": 38,
              "velocity": 110,
              "position": 2.25,
              "duration": 0.015625
            },
            {
              "pitch": 36,
              "velocity": 110,
              "position": 2.5,
              "duration": 0.015625
            },
            {
              "pitch": 38,
              "velocity": 90,
              "position": 2.9895833333333335,
              "duration": 0.015625
            },
            {
              "pitch": 38,
              "velocity": 110,
              "position": 3.25,
              "duration": 0.015625
            },
            {
              "pitch": 38,
              "velocity": 126,
              "position": 3.5,
              "duration": 0.015625
            }
          ]
        },
        "10": {
          "ctab": {
            "srcChannel": 10,
            "name": "Std.Kit1",
            "accType": "SUBRHYTHM",
            "editable": false,
            "mutedNotes": [],
            "mutedChords": [],
            "autoStart": true,
            "sourceChordNote": 0,
            "sourceChordType": "Maj7",
            "ctb2Low": null,
            "ctb2Main": {
              "ntr": "ROOT_FIXED",
              "ntt": "BYPASS",
              "bassOn": false,
              "chordRootUpperLimit": 6,
              "noteLowLimit": 0,
              "noteHighLimit": 127,
              "rtr": "PITCH_SHIFT"
            },
            "ctb2High": null
          },
          "notes": [
            {
              "pitch": 56,
              "velocity": 110,
              "position": 0,
              "duration": 0.015625
            },
            {
              "pitch": 62,
              "velocity": 92,
              "position": 0,
              "duration": 0.015625
            },
            {
              "pitch": 65,
              "velocity": 124,
              "position": 0,
              "duration": 0.015625
            },
            {
              "pitch": 66,
              "velocity": 104,
              "position": 0.25,
              "duration": 0.015625
            },
            {
              "pitch": 68,
              "velocity": 110,
              "position": 0.2604166666666667,
              "duration": 0.015625
            },
            {
              "pitch": 64,
              "velocity": 92,
              "position": 0.2604166666666667,
              "duration": 0.015625
            },
            {
              "pitch": 62,
              "velocity": 110,
              "position": 0.75,
              "duration": 0.015625
            },
            {
              "pitch": 65,
              "velocity": 124,
              "position": 0.75,
              "duration": 0.015625
            },
            {
              "pitch": 56,
              "velocity": 110,
              "position": 0.7604166666666666,
              "duration": 0.015625
            },
            {
              "pitch": 66,
              "velocity": 104,
              "position": 1.0104166666666667,
              "duration": 0.015625
            },
            {
              "pitch": 64,
              "velocity": 92,
              "position": 1.0104166666666667,
              "duration": 0.015625
            },
            {
              "pitch": 68,
              "velocity": 110,
              "position": 1.0208333333333333,
              "duration": 0.015625
            },
            {
              "pitch": 65,
              "velocity": 118,
              "position": 1.5,
              "duration": 0.015625
            },
            {
              "pitch": 62,
              "velocity": 110,
              "position": 1.5,
              "duration": 0.015625
            },
            {
              "pitch": 56,
              "velocity": 110,
              "position": 1.5,
              "duration": 0.015625
            },
            {
              "pitch": 66,
              "velocity": 104,
              "position": 1.7604166666666667,
              "duration": 0.015625
            },
            {
              "pitch": 64,
              "velocity": 90,
              "position": 1.7604166666666667,
              "duration": 0.015625
            },
            {
              "pitch": 68,
              "velocity": 110,
              "position": 1.7708333333333333,
              "duration": 0.015625
            },
            {
              "pitch": 62,
              "velocity": 110,
              "position": 2.25,
              "duration": 0.015625
            },
            {
              "pitch": 56,
              "velocity": 92,
              "position": 2.25,
              "duration": 0.015625
            },
            {
              "pitch": 65,
              "velocity": 124,
              "position": 2.25,
              "duration": 0.015625
            },
            {
              "pitch": 64,
              "velocity": 110,
              "position": 2.5,
              "duration": 0.015625
            },
            {
              "pitch": 66,
              "velocity": 104,
              "position": 2.5,
              "duration": 0.015625
            },
            {
              "pitch": 68,
              "velocity": 110,
              "position": 2.5,
              "duration": 0.015625
            },
            {
              "pitch": 65,
              "velocity": 120,
              "position": 3,
              "duration": 0.015625
            },
            {
              "pitch": 56,
              "velocity": 110,
              "position": 3,
              "duration": 0.015625
            },
            {
              "pitch": 64,
              "velocity": 110,
              "position": 3.0104166666666665,
              "duration": 0.015625
            },
            {
              "pitch": 65,
              "velocity": 124,
              "position": 3.2395833333333335,
              "duration": 0.015625
            },
            {
              "pitch": 56,
              "velocity": 110,
              "position": 3.25,
              "duration": 0.015625
            },
            {
              "pitch": 64,
              "velocity": 110,
              "position": 3.25,
              "duration": 0.015625
            },
            {
              "pitch": 65,
              "velocity": 126,
              "position": 3.4895833333333335,
              "duration": 0.015625
            },
            {
              "pitch": 56,
              "velocity": 110,
              "position": 3.5,
              "duration": 0.015625
            },
            {
              "pitch": 64,
              "velocity": 110,
              "position": 3.5,
              "duration": 0.015625
            }
          ]
        },
        "12": {
          "ctab": {
            "srcChannel": 12,
            "name": "Aco.Bass",
            "accType": "BASS",
            "editable": false,
            "mutedNotes": [],
            "mutedChords": [],
            "autoStart": false,
            "sourceChordNote": 0,
            "sourceChordType": "Maj7",
            "ctb2Low": null,
            "ctb2Main": {
              "ntr": "ROOT_TRANSPOSITION",
              "ntt": "MELODY",
              "bassOn": true,
              "chordRootUpperLimit": 3,
              "noteLowLimit": 28,
              "noteHighLimit": 54,
              "rtr": "PITCH_SHIFT_TO_ROOT"
            },
            "ctb2High": null
          },
          "notes": [
            {
              "pitch": 48,
              "velocity": 88,
              "position": 0,
              "duration": 0.20833333333333334
            },
            {
              "pitch": 48,
              "velocity": 70,
              "position": 0.25,
              "duration": 0.17708333333333334
            },
            {
              "pitch": 48,
              "velocity": 82,
              "position": 0.7395833333333334,
              "duration": 0.20833333333333334
            },
            {
              "pitch": 48,
              "velocity": 100,
              "position": 0.9895833333333334,
              "duration": 0.20833333333333334
            },
            {
              "pitch": 48,
              "velocity": 88,
              "position": 1.5,
              "duration": 0.20833333333333334
            },
            {
              "pitch": 48,
              "velocity": 100,
              "position": 1.7604166666666667,
              "duration": 0.16666666666666666
            },
            {
              "pitch": 48,
              "velocity": 100,
              "position": 2.25,
              "duration": 0.1875
            },
            {
              "pitch": 48,
              "velocity": 120,
              "position": 2.5,
              "duration": 0.20833333333333334
            },
            {
              "pitch": 48,
              "velocity": 78,
              "position": 3,
              "duration": 0.16666666666666666
            },
            {
              "pitch": 48,
              "velocity": 100,
              "position": 3.25,
              "duration": 0.17708333333333334
            },
            {
              "pitch": 48,
              "velocity": 126,
              "position": 3.5,
              "duration": 0.28125
            }
          ]
        },
        "14": {
          "ctab": {
            "srcChannel": 14,
            "name": "GrandPno",
            "accType": "CHORD1",
            "editable": false,
            "mutedNotes": [],
            "mutedChords": [
              "7aug",
              "Maj7aug",
              "7(#9)",
              "7(b13)",
              "7(b9)",
              "7(13)",
              "7#11",
              "7(9)",
              "7b5",
              "7sus4",
              "7th"
            ],
            "autoStart": false,
            "sourceChordNote": 0,
            "sourceChordType": "Maj7",
            "ctb2Low": null,
            "ctb2Main": {
              "ntr": "ROOT_FIXED",
              "ntt": "CHORD",
              "bassOn": false,
              "chordRootUpperLimit": 6,
              "noteLowLimit": 0,
              "noteHighLimit": 127,
              "rtr": "PITCH_SHIFT"
            },
            "ctb2High": null
          },
          "notes": [
            {
              "pitch": 59,
              "velocity": 78,
              "position": 0,
              "duration": 0.17708333333333334
            },
            {
              "pitch": 48,
              "velocity": 100,
              "position": 0,
              "duration": 0.1875
            },
            {
              "pitch": 71,
              "velocity": 96,
              "position": 0,
              "duration": 0.19791666666666666
            },
            {
              "pitch": 71,
              "velocity": 64,
              "position": 0.25,
              "duration": 0.14583333333333334
            },
            {
              "pitch": 59,
              "velocity": 78,
              "position": 0.25,
              "duration": 0.14583333333333334
            },
            {
              "pitch": 48,
              "velocity": 90,
              "position": 0.25,
              "duration": 0.15625
            },
            {
              "pitch": 59,
              "velocity": 110,
              "position": 0.75,
              "duration": 0.16666666666666666
            },
            {
              "pitch": 71,
              "velocity": 110,
              "position": 0.75,
              "duration": 0.16666666666666666
            },
            {
              "pitch": 48,
              "velocity": 94,
              "position": 0.7395833333333334,
              "duration": 0.19791666666666666
            },
            {
              "pitch": 71,
              "velocity": 106,
              "position": 1,
              "duration": 0.14583333333333334
            },
            {
              "pitch": 59,
              "velocity": 104,
              "position": 1,
              "duration": 0.14583333333333334
            },
            {
              "pitch": 48,
              "velocity": 124,
              "position": 1,
              "duration": 0.17708333333333334
            },
            {
              "pitch": 59,
              "velocity": 110,
              "position": 1.4895833333333333,
              "duration": 0.1875
            },
            {
              "pitch": 71,
              "velocity": 110,
              "position": 1.4895833333333333,
              "duration": 0.1875
            },
            {
              "pitch": 48,
              "velocity": 92,
              "position": 1.4895833333333333,
              "duration": 0.19791666666666666
            },
            {
              "pitch": 59,
              "velocity": 84,
              "position": 1.75,
              "duration": 0.15625
            },
            {
              "pitch": 71,
              "velocity": 88,
              "position": 1.75,
              "duration": 0.16666666666666666
            },
            {
              "pitch": 48,
              "velocity": 84,
              "position": 1.75,
              "duration": 0.17708333333333334
            },
            {
              "pitch": 59,
              "velocity": 104,
              "position": 2.25,
              "duration": 0.16666666666666666
            },
            {
              "pitch": 48,
              "velocity": 110,
              "position": 2.25,
              "duration": 0.17708333333333334
            },
            {
              "pitch": 71,
              "velocity": 124,
              "position": 2.25,
              "duration": 0.1875
            },
            {
              "pitch": 71,
              "velocity": 110,
              "position": 2.4895833333333335,
              "duration": 0.17708333333333334
            },
            {
              "pitch": 48,
              "velocity": 88,
              "position": 2.4895833333333335,
              "duration": 0.1875
            },
            {
              "pitch": 59,
              "velocity": 104,
              "position": 2.5,
              "duration": 0.1875
            },
            {
              "pitch": 59,
              "velocity": 124,
              "position": 3,
              "duration": 0.15625
            },
            {
              "pitch": 71,
              "velocity": 124,
              "position": 2.9895833333333335,
              "duration": 0.17708333333333334
            },
            {
              "pitch": 48,
              "velocity": 96,
              "position": 3,
              "duration": 0.16666666666666666
            },
            {
              "pitch": 36,
              "velocity": 106,
              "position": 3,
              "duration": 0.17708333333333334
            },
            {
              "pitch": 71,
              "velocity": 110,
              "position": 3.2604166666666665,
              "duration": 0.14583333333333334
            },
            {
              "pitch": 48,
              "velocity": 124,
              "position": 3.25,
              "duration": 0.16666666666666666
            },
            {
              "pitch": 36,
              "velocity": 124,
              "position": 3.25,
              "duration": 0.16666666666666666
            },
            {
              "pitch": 59,
              "velocity": 124,
              "position": 3.25,
              "duration": 0.16666666666666666
            },
            {
              "pitch": 48,
              "velocity": 126,
              "position": 3.5,
              "duration": 0.15625
            },
            {
              "pitch": 71,
              "velocity": 104,
              "position": 3.5,
              "duration": 0.15625
            },
            {
              "pitch": 36,
              "velocity": 110,
              "position": 3.5,
              "duration": 0.15625
            },
            {
              "pitch": 59,
              "velocity": 110,
              "position": 3.5,
              "duration": 0.15625
            }
          ]
        },
        "15": {
          "ctab": {
            "srcChannel": 15,
            "name": "GrandPno",
            "accType": "CHORD1",
            "editable": false,
            "mutedNotes": [],
            "mutedChords": [
              "1+2+5",
              "sus4",
              "1+5",
              "1+8",
              "dim7",
              "dim",
              "minMaj7(9)",
              "minMaj7",
              "min7(11)",
              "min7(9)",
              "min(9)",
              "m7b5",
              "min7",
              "min6",
              "min",
              "aug",
              "Maj6(9)",
              "Maj7(9)",
              "Maj(9)",
              "Maj7#11",
              "Maj7",
              "Maj6",
              "Maj"
            ],
            "autoStart": false,
            "sourceChordNote": 0,
            "sourceChordType": "7th",
            "ctb2Low": null,
            "ctb2Main": {
              "ntr": "ROOT_FIXED",
              "ntt": "CHORD",
              "bassOn": false,
              "chordRootUpperLimit": 6,
              "noteLowLimit": 0,
              "noteHighLimit": 127,
              "rtr": "PITCH_SHIFT"
            },
            "ctb2High": null
          },
          "notes": [
            {
              "pitch": 60,
              "velocity": 78,
              "position": 0,
              "duration": 0.17708333333333334
            },
            {
              "pitch": 48,
              "velocity": 100,
              "position": 0,
              "duration": 0.1875
            },
            {
              "pitch": 72,
              "velocity": 96,
              "position": 0,
              "duration": 0.19791666666666666
            },
            {
              "pitch": 72,
              "velocity": 64,
              "position": 0.25,
              "duration": 0.14583333333333334
            },
            {
              "pitch": 60,
              "velocity": 78,
              "position": 0.25,
              "duration": 0.14583333333333334
            },
            {
              "pitch": 48,
              "velocity": 90,
              "position": 0.25,
              "duration": 0.15625
            },
            {
              "pitch": 60,
              "velocity": 110,
              "position": 0.75,
              "duration": 0.16666666666666666
            },
            {
              "pitch": 72,
              "velocity": 110,
              "position": 0.75,
              "duration": 0.16666666666666666
            },
            {
              "pitch": 48,
              "velocity": 94,
              "position": 0.7395833333333334,
              "duration": 0.19791666666666666
            },
            {
              "pitch": 72,
              "velocity": 106,
              "position": 1,
              "duration": 0.14583333333333334
            },
            {
              "pitch": 60,
              "velocity": 104,
              "position": 1,
              "duration": 0.14583333333333334
            },
            {
              "pitch": 48,
              "velocity": 124,
              "position": 1,
              "duration": 0.17708333333333334
            },
            {
              "pitch": 60,
              "velocity": 110,
              "position": 1.4895833333333333,
              "duration": 0.1875
            },
            {
              "pitch": 72,
              "velocity": 110,
              "position": 1.4895833333333333,
              "duration": 0.1875
            },
            {
              "pitch": 48,
              "velocity": 92,
              "position": 1.4895833333333333,
              "duration": 0.19791666666666666
            },
            {
              "pitch": 60,
              "velocity": 84,
              "position": 1.75,
              "duration": 0.15625
            },
            {
              "pitch": 72,
              "velocity": 88,
              "position": 1.75,
              "duration": 0.16666666666666666
            },
            {
              "pitch": 48,
              "velocity": 84,
              "position": 1.75,
              "duration": 0.17708333333333334
            },
            {
              "pitch": 60,
              "velocity": 104,
              "position": 2.25,
              "duration": 0.16666666666666666
            },
            {
              "pitch": 48,
              "velocity": 110,
              "position": 2.25,
              "duration": 0.17708333333333334
            },
            {
              "pitch": 72,
              "velocity": 124,
              "position": 2.25,
              "duration": 0.1875
            },
            {
              "pitch": 72,
              "velocity": 110,
              "position": 2.4895833333333335,
              "duration": 0.17708333333333334
            },
            {
              "pitch": 48,
              "velocity": 88,
              "position": 2.4895833333333335,
              "duration": 0.1875
            },
            {
              "pitch": 60,
              "velocity": 104,
              "position": 2.5,
              "duration": 0.1875
            },
            {
              "pitch": 60,
              "velocity": 124,
              "position": 3,
              "duration": 0.15625
            },
            {
              "pitch": 72,
              "velocity": 124,
              "position": 2.9895833333333335,
              "duration": 0.17708333333333334
            },
            {
              "pitch": 48,
              "velocity": 96,
              "position": 3,
              "duration": 0.16666666666666666
            },
            {
              "pitch": 36,
              "velocity": 106,
              "position": 3,
              "duration": 0.17708333333333334
            },
            {
              "pitch": 72,
              "velocity": 110,
              "position": 3.2604166666666665,
              "duration": 0.14583333333333334
            },
            {
              "pitch": 48,
              "velocity": 124,
              "position": 3.25,
              "duration": 0.16666666666666666
            },
            {
              "pitch": 36,
              "velocity": 124,
              "position": 3.25,
              "duration": 0.16666666666666666
            },
            {
              "pitch": 60,
              "velocity": 124,
              "position": 3.25,
              "duration": 0.16666666666666666
            },
            {
              "pitch": 48,
              "velocity": 126,
              "position": 3.5,
              "duration": 0.15625
            },
            {
              "pitch": 72,
              "velocity": 104,
              "position": 3.5,
              "duration": 0.15625
            },
            {
              "pitch": 36,
              "velocity": 110,
              "position": 3.5,
              "duration": 0.15625
            },
            {
              "pitch": 60,
              "velocity": 110,
              "position": 3.5,
              "duration": 0.15625
            }
          ]
        }
      }
    },
    "Intro_A": {
      "type": "Intro_A",
      "sizeInBeats": 8,
      "channels": {
        "1": {
          "ctab": {
            "srcChannel": 1,
            "name": "BrasSect",
            "accType": "PHRASE1",
            "editable": false,
            "mutedNotes": [],
            "mutedChords": [
              "7aug",
              "Maj7aug",
              "7(#9)",
              "7(b13)",
              "7(b9)",
              "7(13)",
              "7#11",
              "7(9)",
              "7b5",
              "7sus4",
              "7th"
            ],
            "autoStart": false,
            "sourceChordNote": 0,
            "sourceChordType": "Maj",
            "ctb2Low": null,
            "ctb2Main": {
              "ntr": "ROOT_TRANSPOSITION",
              "ntt": "BYPASS",
              "bassOn": false,
              "chordRootUpperLimit": 6,
              "noteLowLimit": 0,
              "noteHighLimit": 127,
              "rtr": "PITCH_SHIFT"
            },
            "ctb2High": null
          },
          "notes": [
            {
              "pitch": 67,
              "velocity": 104,
              "position": 0,
              "duration": 0.46875
            },
            {
              "pitch": 64,
              "velocity": 124,
              "position": 0,
              "duration": 0.46875
            },
            {
              "pitch": 60,
              "velocity": 124,
              "position": 0,
              "duration": 0.5625
            },
            {
              "pitch": 60,
              "velocity": 110,
              "position": 6.739583333333333,
              "duration": 1.21875
            }
          ]
        },
        "2": {
          "ctab": {
            "srcChannel": 2,
            "name": "BrasSect",
            "accType": "PHRASE1",
            "editable": false,
            "mutedNotes": [],
            "mutedChords": [
              "1+2+5",
              "sus4",
              "1+5",
              "1+8",
              "dim7",
              "dim",
              "minMaj7(9)",
              "minMaj7",
              "min7(11)",
              "min7(9)",
              "min(9)",
              "m7b5",
              "min7",
              "min6",
              "min",
              "aug",
              "Maj6(9)",
              "Maj7(9)",
              "Maj(9)",
              "Maj7#11",
              "Maj7",
              "Maj6",
              "Maj"
            ],
            "autoStart": false,
            "sourceChordNote": 0,
            "sourceChordType": "7th",
            "ctb2Low": null,
            "ctb2Main": {
              "ntr": "ROOT_TRANSPOSITION",
              "ntt": "BYPASS",
              "bassOn": false,
              "chordRootUpperLimit": 6,
              "noteLowLimit": 0,
              "noteHighLimit": 127,
              "rtr": "PITCH_SHIFT"
            },
            "ctb2High": null
          },
          "notes": [
            {
              "pitch": 70,
              "velocity": 104,
              "position": 0,
              "duration": 0.46875
            },
            {
              "pitch": 64,
              "velocity": 124,
              "position": 0,
              "duration": 0.46875
            },
            {
              "pitch": 58,
              "velocity": 124,
              "position": 0,
              "duration": 0.5104166666666666
            },
            {
              "pitch": 60,
              "velocity": 126,
              "position": 0,
              "duration": 0.5625
            },
            {
              "pitch": 60,
              "velocity": 110,
              "position": 6.739583333333333,
              "duration": 1.21875
            }
          ]
        },
        "4": {
          "ctab": {
            "srcChannel": 4,
            "name": "BrasSect",
            "accType": "PHRASE2",
            "editable": false,
            "mutedNotes": [],
            "mutedChords": [
              "7aug",
              "Maj7aug",
              "7(#9)",
              "7(b13)",
              "7(b9)",
              "7(13)",
              "7#11",
              "7(9)",
              "7b5",
              "7sus4",
              "7th"
            ],
            "autoStart": false,
            "sourceChordNote": 0,
            "sourceChordType": "Maj",
            "ctb2Low": null,
            "ctb2Main": {
              "ntr": "ROOT_TRANSPOSITION",
              "ntt": "BYPASS",
              "bassOn": false,
              "chordRootUpperLimit": 6,
              "noteLowLimit": 0,
              "noteHighLimit": 127,
              "rtr": "PITCH_SHIFT"
            },
            "ctb2High": null
          },
          "notes": [
            {
              "pitch": 76,
              "velocity": 110,
              "position": 0.5,
              "duration": 0.125
            },
            {
              "pitch": 64,
              "velocity": 110,
              "position": 0.4895833333333333,
              "duration": 0.14583333333333334
            },
            {
              "pitch": 67,
              "velocity": 110,
              "position": 0.9895833333333334,
              "duration": 0.2604166666666667
            },
            {
              "pitch": 79,
              "velocity": 110,
              "position": 0.9895833333333334,
              "duration": 0.2604166666666667
            },
            {
              "pitch": 64,
              "velocity": 92,
              "position": 1.2604166666666667,
              "duration": 0.13541666666666666
            },
            {
              "pitch": 76,
              "velocity": 90,
              "position": 1.2604166666666667,
              "duration": 0.13541666666666666
            },
            {
              "pitch": 67,
              "velocity": 110,
              "position": 1.75,
              "duration": 0.15625
            },
            {
              "pitch": 79,
              "velocity": 110,
              "position": 1.7604166666666667,
              "duration": 0.14583333333333334
            },
            {
              "pitch": 72,
              "velocity": 110,
              "position": 2.25,
              "duration": 0.15625
            },
            {
              "pitch": 84,
              "velocity": 124,
              "position": 2.2708333333333335,
              "duration": 0.15625
            },
            {
              "pitch": 67,
              "velocity": 110,
              "position": 2.7604166666666665,
              "duration": 0.11458333333333333
            },
            {
              "pitch": 79,
              "velocity": 110,
              "position": 2.7708333333333335,
              "duration": 0.125
            },
            {
              "pitch": 76,
              "velocity": 102,
              "position": 3.2604166666666665,
              "duration": 0.21875
            },
            {
              "pitch": 64,
              "velocity": 80,
              "position": 3.2604166666666665,
              "duration": 0.21875
            },
            {
              "pitch": 65,
              "velocity": 104,
              "position": 3.5,
              "duration": 0.15625
            },
            {
              "pitch": 77,
              "velocity": 126,
              "position": 3.5,
              "duration": 0.16666666666666666
            },
            {
              "pitch": 79,
              "velocity": 110,
              "position": 4.010416666666667,
              "duration": 1.96875
            },
            {
              "pitch": 67,
              "velocity": 92,
              "position": 4.010416666666667,
              "duration": 1.96875
            },
            {
              "pitch": 72,
              "velocity": 110,
              "position": 6.760416666666667,
              "duration": 1.1875
            },
            {
              "pitch": 60,
              "velocity": 110,
              "position": 6.760416666666667,
              "duration": 1.1979166666666667
            }
          ]
        },
        "5": {
          "ctab": {
            "srcChannel": 5,
            "name": "BrasSect",
            "accType": "PHRASE2",
            "editable": false,
            "mutedNotes": [],
            "mutedChords": [
              "1+2+5",
              "sus4",
              "1+5",
              "1+8",
              "dim7",
              "dim",
              "minMaj7(9)",
              "minMaj7",
              "min7(11)",
              "min7(9)",
              "min(9)",
              "m7b5",
              "min7",
              "min6",
              "min",
              "aug",
              "Maj6(9)",
              "Maj7(9)",
              "Maj(9)",
              "Maj7#11",
              "Maj7",
              "Maj6",
              "Maj"
            ],
            "autoStart": false,
            "sourceChordNote": 0,
            "sourceChordType": "7th",
            "ctb2Low": null,
            "ctb2Main": {
              "ntr": "ROOT_TRANSPOSITION",
              "ntt": "BYPASS",
              "bassOn": false,
              "chordRootUpperLimit": 6,
              "noteLowLimit": 0,
              "noteHighLimit": 127,
              "rtr": "PITCH_SHIFT"
            },
            "ctb2High": null
          },
          "notes": [
            {
              "pitch": 70,
              "velocity": 110,
              "position": 0.5,
              "duration": 0.125
            },
            {
              "pitch": 58,
              "velocity": 110,
              "position": 0.4895833333333333,
              "duration": 0.14583333333333334
            },
            {
              "pitch": 62,
              "velocity": 110,
              "position": 0.9895833333333334,
              "duration": 0.2604166666666667
            },
            {
              "pitch": 74,
              "velocity": 110,
              "position": 0.9895833333333334,
              "duration": 0.2604166666666667
            },
            {
              "pitch": 58,
              "velocity": 92,
              "position": 1.2604166666666667,
              "duration": 0.13541666666666666
            },
            {
              "pitch": 70,
              "velocity": 90,
              "position": 1.2604166666666667,
              "duration": 0.13541666666666666
            },
            {
              "pitch": 62,
              "velocity": 110,
              "position": 1.75,
              "duration": 0.15625
            },
            {
              "pitch": 74,
              "velocity": 110,
              "position": 1.7604166666666667,
              "duration": 0.14583333333333334
            },
            {
              "pitch": 64,
              "velocity": 110,
              "position": 2.25,
              "duration": 0.15625
            },
            {
              "pitch": 76,
              "velocity": 124,
              "position": 2.2708333333333335,
              "duration": 0.15625
            },
            {
              "pitch": 62,
              "velocity": 110,
              "position": 2.7604166666666665,
              "duration": 0.11458333333333333
            },
            {
              "pitch": 74,
              "velocity": 110,
              "position": 2.7708333333333335,
              "duration": 0.125
            },
            {
              "pitch": 70,
              "velocity": 102,
              "position": 3.2604166666666665,
              "duration": 0.21875
            },
            {
              "pitch": 58,
              "velocity": 80,
              "position": 3.2604166666666665,
              "duration": 0.21875
            },
            {
              "pitch": 60,
              "velocity": 104,
              "position": 3.5,
              "duration": 0.15625
            },
            {
              "pitch": 72,
              "velocity": 126,
              "position": 3.5,
              "duration": 0.16666666666666666
            },
            {
              "pitch": 74,
              "velocity": 110,
              "position": 4.010416666666667,
              "duration": 1.96875
            },
            {
              "pitch": 62,
              "velocity": 92,
              "position": 4.010416666666667,
              "duration": 1.96875
            },
            {
              "pitch": 72,
              "velocity": 110,
              "position": 6.760416666666667,
              "duration": 1.1875
            },
            {
              "pitch": 60,
              "velocity": 110,
              "position": 6.760416666666667,
              "duration": 1.1979166666666667
            }
          ]
        },
        "8": {
          "ctab": {
            "srcChannel": 8,
            "name": "Std.Kit1",
            "accType": "RHYTHM",
            "editable": false,
            "mutedNotes": [],
            "mutedChords": [],
            "autoStart": true,
            "sourceChordNote": 0,
            "sourceChordType": "Maj7",
            "ctb2Low": null,
            "ctb2Main": {
              "ntr": "ROOT_FIXED",
              "ntt": "BYPASS",
              "bassOn": false,
              "chordRootUpperLimit": 6,
              "noteLowLimit": 0,
              "noteHighLimit": 127,
              "rtr": "PITCH_SHIFT"
            },
            "ctb2High": null
          },
          "notes": [
            {
              "pitch": 49,
              "velocity": 80,
              "position": 0,
              "duration": 0.015625
            },
            {
              "pitch": 42,
              "velocity": 92,
              "position": 0,
              "duration": 0.015625
            },
            {
              "pitch": 42,
              "velocity": 80,
              "position": 0.4895833333333333,
              "duration": 0.015625
            },
            {
              "pitch": 42,
              "velocity": 72,
              "position": 0.75,
              "duration": 0.015625
            },
            {
              "pitch": 36,
              "velocity": 108,
              "position": 0.7604166666666666,
              "duration": 0.015625
            },
            {
              "pitch": 42,
              "velocity": 92,
              "position": 1,
              "duration": 0.015625
            },
            {
              "pitch": 42,
              "velocity": 80,
              "position": 1.4895833333333333,
              "duration": 0.015625
            },
            {
              "pitch": 42,
              "velocity": 80,
              "position": 1.75,
              "duration": 0.015625
            },
            {
              "pitch": 42,
              "velocity": 70,
              "position": 2,
              "duration": 0.015625
            },
            {
              "pitch": 42,
              "velocity": 72,
              "position": 2.4895833333333335,
              "duration": 0.015625
            },
            {
              "pitch": 42,
              "velocity": 80,
              "position": 2.7604166666666665,
              "duration": 0.015625
            },
            {
              "pitch": 36,
              "velocity": 110,
              "position": 2.7604166666666665,
              "duration": 0.015625
            },
            {
              "pitch": 42,
              "velocity": 90,
              "position": 3,
              "duration": 0.015625
            },
            {
              "pitch": 42,
              "velocity": 80,
              "position": 3.4895833333333335,
              "duration": 0.015625
            },
            {
              "pitch": 42,
              "velocity": 80,
              "position": 3.75,
              "duration": 0.015625
            },
            {
              "pitch": 42,
              "velocity": 80,
              "position": 4,
              "duration": 0.015625
            },
            {
              "pitch": 42,
              "velocity": 80,
              "position": 4.5,
              "duration": 0.015625
            },
            {
              "pitch": 42,
              "velocity": 72,
              "position": 4.75,
              "duration": 0.015625
            },
            {
              "pitch": 36,
              "velocity": 106,
              "position": 4.760416666666667,
              "duration": 0.015625
            },
            {
              "pitch": 42,
              "velocity": 90,
              "position": 5,
              "duration": 0.015625
            },
            {
              "pitch": 42,
              "velocity": 80,
              "position": 5.489583333333333,
              "duration": 0.015625
            },
            {
              "pitch": 42,
              "velocity": 92,
              "position": 5.75,
              "duration": 0.015625
            },
            {
              "pitch": 42,
              "velocity": 80,
              "position": 6,
              "duration": 0.015625
            },
            {
              "pitch": 42,
              "velocity": 94,
              "position": 6.489583333333333,
              "duration": 0.015625
            },
            {
              "pitch": 42,
              "velocity": 80,
              "position": 6.75,
              "duration": 0.015625
            },
            {
              "pitch": 36,
              "velocity": 112,
              "position": 6.760416666666667,
              "duration": 0.015625
            },
            {
              "pitch": 55,
              "velocity": 124,
              "position": 6.760416666666667,
              "duration": 0.015625
            },
            {
              "pitch": 42,
              "velocity": 80,
              "position": 7,
              "duration": 0.015625
            },
            {
              "pitch": 42,
              "velocity": 92,
              "position": 7.5,
              "duration": 0.015625
            },
            {
              "pitch": 42,
              "velocity": 80,
              "position": 7.75,
              "duration": 0.015625
            }
          ]
        },
        "10": {
          "ctab": {
            "srcChannel": 10,
            "name": "Std.Kit1",
            "accType": "SUBRHYTHM",
            "editable": false,
            "mutedNotes": [],
            "mutedChords": [],
            "autoStart": true,
            "sourceChordNote": 0,
            "sourceChordType": "Maj7",
            "ctb2Low": null,
            "ctb2Main": {
              "ntr": "ROOT_FIXED",
              "ntt": "BYPASS",
              "bassOn": false,
              "chordRootUpperLimit": 6,
              "noteLowLimit": 0,
              "noteHighLimit": 127,
              "rtr": "PITCH_SHIFT"
            },
            "ctb2High": null
          },
          "notes": [
            {
              "pitch": 60,
              "velocity": 92,
              "position": 0,
              "duration": 0.015625
            },
            {
              "pitch": 33,
              "velocity": 92,
              "position": 0,
              "duration": 0.015625
            },
            {
              "pitch": 62,
              "velocity": 92,
              "position": 0,
              "duration": 0.015625
            },
            {
              "pitch": 33,
              "velocity": 58,
              "position": 0.25,
              "duration": 0.015625
            },
            {
              "pitch": 61,
              "velocity": 80,
              "position": 0.25,
              "duration": 0.015625
            },
            {
              "pitch": 62,
              "velocity": 88,
              "position": 0.2604166666666667,
              "duration": 0.015625
            },
            {
              "pitch": 33,
              "velocity": 110,
              "position": 0.4895833333333333,
              "duration": 0.015625
            },
            {
              "pitch": 75,
              "velocity": 120,
              "position": 0.5,
              "duration": 0.015625
            },
            {
              "pitch": 62,
              "velocity": 108,
              "position": 0.5,
              "duration": 0.015625
            },
            {
              "pitch": 61,
              "velocity": 80,
              "position": 0.5,
              "duration": 0.015625
            },
            {
              "pitch": 62,
              "velocity": 88,
              "position": 0.75,
              "duration": 0.015625
            },
            {
              "pitch": 33,
              "velocity": 58,
              "position": 0.75,
              "duration": 0.015625
            },
            {
              "pitch": 60,
              "velocity": 92,
              "position": 0.7604166666666666,
              "duration": 0.015625
            },
            {
              "pitch": 33,
              "velocity": 110,
              "position": 0.9895833333333334,
              "duration": 0.015625
            },
            {
              "pitch": 62,
              "velocity": 88,
              "position": 0.9895833333333334,
              "duration": 0.015625
            },
            {
              "pitch": 75,
              "velocity": 126,
              "position": 1,
              "duration": 0.015625
            },
            {
              "pitch": 60,
              "velocity": 80,
              "position": 1,
              "duration": 0.015625
            },
            {
              "pitch": 62,
              "velocity": 88,
              "position": 1.25,
              "duration": 0.015625
            },
            {
              "pitch": 33,
              "velocity": 110,
              "position": 1.25,
              "duration": 0.015625
            },
            {
              "pitch": 61,
              "velocity": 92,
              "position": 1.2604166666666667,
              "duration": 0.015625
            },
            {
              "pitch": 33,
              "velocity": 72,
              "position": 1.4895833333333333,
              "duration": 0.015625
            },
            {
              "pitch": 64,
              "velocity": 100,
              "position": 1.4895833333333333,
              "duration": 0.015625
            },
            {
              "pitch": 61,
              "velocity": 92,
              "position": 1.5,
              "duration": 0.015625
            },
            {
              "pitch": 64,
              "velocity": 100,
              "position": 1.75,
              "duration": 0.015625
            },
            {
              "pitch": 33,
              "velocity": 92,
              "position": 1.75,
              "duration": 0.015625
            },
            {
              "pitch": 60,
              "velocity": 112,
              "position": 1.7604166666666667,
              "duration": 0.015625
            },
            {
              "pitch": 75,
              "velocity": 120,
              "position": 2,
              "duration": 0.015625
            },
            {
              "pitch": 61,
              "velocity": 80,
              "position": 2,
              "duration": 0.015625
            },
            {
              "pitch": 62,
              "velocity": 84,
              "position": 2,
              "duration": 0.015625
            },
            {
              "pitch": 33,
              "velocity": 110,
              "position": 2,
              "duration": 0.015625
            },
            {
              "pitch": 33,
              "velocity": 68,
              "position": 2.25,
              "duration": 0.015625
            },
            {
              "pitch": 62,
              "velocity": 88,
              "position": 2.25,
              "duration": 0.015625
            },
            {
              "pitch": 61,
              "velocity": 80,
              "position": 2.2604166666666665,
              "duration": 0.015625
            },
            {
              "pitch": 62,
              "velocity": 108,
              "position": 2.4895833333333335,
              "duration": 0.015625
            },
            {
              "pitch": 33,
              "velocity": 90,
              "position": 2.4895833333333335,
              "duration": 0.015625
            },
            {
              "pitch": 61,
              "velocity": 72,
              "position": 2.5,
              "duration": 0.015625
            },
            {
              "pitch": 60,
              "velocity": 80,
              "position": 2.75,
              "duration": 0.015625
            },
            {
              "pitch": 62,
              "velocity": 88,
              "position": 2.75,
              "duration": 0.015625
            },
            {
              "pitch": 33,
              "velocity": 110,
              "position": 2.75,
              "duration": 0.015625
            },
            {
              "pitch": 75,
              "velocity": 120,
              "position": 2.7604166666666665,
              "duration": 0.015625
            },
            {
              "pitch": 62,
              "velocity": 100,
              "position": 3,
              "duration": 0.015625
            },
            {
              "pitch": 33,
              "velocity": 68,
              "position": 3,
              "duration": 0.015625
            },
            {
              "pitch": 60,
              "velocity": 80,
              "position": 3,
              "duration": 0.015625
            },
            {
              "pitch": 62,
              "velocity": 100,
              "position": 3.25,
              "duration": 0.015625
            },
            {
              "pitch": 61,
              "velocity": 92,
              "position": 3.25,
              "duration": 0.015625
            },
            {
              "pitch": 33,
              "velocity": 110,
              "position": 3.25,
              "duration": 0.015625
            },
            {
              "pitch": 61,
              "velocity": 92,
              "position": 3.4895833333333335,
              "duration": 0.015625
            },
            {
              "pitch": 64,
              "velocity": 100,
              "position": 3.4895833333333335,
              "duration": 0.015625
            },
            {
              "pitch": 33,
              "velocity": 72,
              "position": 3.5,
              "duration": 0.015625
            },
            {
              "pitch": 75,
              "velocity": 112,
              "position": 3.5,
              "duration": 0.015625
            },
            {
              "pitch": 61,
              "velocity": 80,
              "position": 3.75,
              "duration": 0.015625
            },
            {
              "pitch": 33,
              "velocity": 110,
              "position": 3.75,
              "duration": 0.015625
            },
            {
              "pitch": 64,
              "velocity": 102,
              "position": 3.75,
              "duration": 0.015625
            },
            {
              "pitch": 62,
              "velocity": 88,
              "position": 4,
              "duration": 0.015625
            },
            {
              "pitch": 60,
              "velocity": 92,
              "position": 4,
              "duration": 0.015625
            },
            {
              "pitch": 33,
              "velocity": 92,
              "position": 4.010416666666667,
              "duration": 0.015625
            },
            {
              "pitch": 62,
              "velocity": 100,
              "position": 4.25,
              "duration": 0.015625
            },
            {
              "pitch": 33,
              "velocity": 68,
              "position": 4.25,
              "duration": 0.015625
            },
            {
              "pitch": 61,
              "velocity": 80,
              "position": 4.260416666666667,
              "duration": 0.015625
            },
            {
              "pitch": 62,
              "velocity": 108,
              "position": 4.5,
              "duration": 0.015625
            },
            {
              "pitch": 75,
              "velocity": 120,
              "position": 4.5,
              "duration": 0.015625
            },
            {
              "pitch": 61,
              "velocity": 90,
              "position": 4.5,
              "duration": 0.015625
            },
            {
              "pitch": 33,
              "velocity": 110,
              "position": 4.5,
              "duration": 0.015625
            },
            {
              "pitch": 60,
              "velocity": 80,
              "position": 4.760416666666667,
              "duration": 0.015625
            },
            {
              "pitch": 62,
              "velocity": 88,
              "position": 4.760416666666667,
              "duration": 0.015625
            },
            {
              "pitch": 33,
              "velocity": 64,
              "position": 4.760416666666667,
              "duration": 0.015625
            },
            {
              "pitch": 62,
              "velocity": 100,
              "position": 5,
              "duration": 0.015625
            },
            {
              "pitch": 60,
              "velocity": 80,
              "position": 5,
              "duration": 0.015625
            },
            {
              "pitch": 33,
              "velocity": 90,
              "position": 5,
              "duration": 0.015625
            },
            {
              "pitch": 75,
              "velocity": 114,
              "position": 5.010416666666667,
              "duration": 0.015625
            },
            {
              "pitch": 62,
              "velocity": 88,
              "position": 5.25,
              "duration": 0.015625
            },
            {
              "pitch": 61,
              "velocity": 80,
              "position": 5.260416666666667,
              "duration": 0.015625
            },
            {
              "pitch": 33,
              "velocity": 110,
              "position": 5.260416666666667,
              "duration": 0.015625
            },
            {
              "pitch": 61,
              "velocity": 90,
              "position": 5.5,
              "duration": 0.015625
            },
            {
              "pitch": 64,
              "velocity": 100,
              "position": 5.5,
              "duration": 0.015625
            },
            {
              "pitch": 33,
              "velocity": 72,
              "position": 5.5,
              "duration": 0.015625
            },
            {
              "pitch": 64,
              "velocity": 100,
              "position": 5.760416666666667,
              "duration": 0.015625
            },
            {
              "pitch": 60,
              "velocity": 108,
              "position": 5.760416666666667,
              "duration": 0.015625
            },
            {
              "pitch": 33,
              "velocity": 90,
              "position": 5.760416666666667,
              "duration": 0.015625
            },
            {
              "pitch": 65,
              "velocity": 110,
              "position": 5.770833333333333,
              "duration": 0.015625
            },
            {
              "pitch": 62,
              "velocity": 88,
              "position": 6,
              "duration": 0.015625
            },
            {
              "pitch": 61,
              "velocity": 72,
              "position": 6,
              "duration": 0.015625
            },
            {
              "pitch": 75,
              "velocity": 120,
              "position": 6.010416666666667,
              "duration": 0.015625
            },
            {
              "pitch": 33,
              "velocity": 90,
              "position": 6.010416666666667,
              "duration": 0.015625
            },
            {
              "pitch": 66,
              "velocity": 110,
              "position": 6.010416666666667,
              "duration": 0.015625
            },
            {
              "pitch": 62,
              "velocity": 88,
              "position": 6.25,
              "duration": 0.015625
            },
            {
              "pitch": 61,
              "velocity": 72,
              "position": 6.260416666666667,
              "duration": 0.015625
            },
            {
              "pitch": 33,
              "velocity": 72,
              "position": 6.260416666666667,
              "duration": 0.015625
            },
            {
              "pitch": 62,
              "velocity": 108,
              "position": 6.489583333333333,
              "duration": 0.015625
            },
            {
              "pitch": 66,
              "velocity": 110,
              "position": 6.5,
              "duration": 0.015625
            },
            {
              "pitch": 33,
              "velocity": 92,
              "position": 6.5,
              "duration": 0.015625
            },
            {
              "pitch": 61,
              "velocity": 80,
              "position": 6.5,
              "duration": 0.015625
            },
            {
              "pitch": 62,
              "velocity": 88,
              "position": 6.75,
              "duration": 0.015625
            },
            {
              "pitch": 60,
              "velocity": 92,
              "position": 6.75,
              "duration": 0.015625
            },
            {
              "pitch": 33,
              "velocity": 92,
              "position": 6.760416666666667,
              "duration": 0.015625
            },
            {
              "pitch": 75,
              "velocity": 112,
              "position": 6.760416666666667,
              "duration": 0.015625
            },
            {
              "pitch": 65,
              "velocity": 112,
              "position": 6.760416666666667,
              "duration": 0.015625
            },
            {
              "pitch": 60,
              "velocity": 92,
              "position": 7,
              "duration": 0.015625
            },
            {
              "pitch": 62,
              "velocity": 88,
              "position": 7,
              "duration": 0.015625
            },
            {
              "pitch": 33,
              "velocity": 70,
              "position": 7,
              "duration": 0.015625
            },
            {
              "pitch": 61,
              "velocity": 80,
              "position": 7.25,
              "duration": 0.015625
            },
            {
              "pitch": 62,
              "velocity": 88,
              "position": 7.25,
              "duration": 0.015625
            },
            {
              "pitch": 33,
              "velocity": 110,
              "position": 7.260416666666667,
              "duration": 0.015625
            },
            {
              "pitch": 61,
              "velocity": 90,
              "position": 7.489583333333333,
              "duration": 0.015625
            },
            {
              "pitch": 64,
              "velocity": 100,
              "position": 7.5,
              "duration": 0.015625
            },
            {
              "pitch": 33,
              "velocity": 72,
              "position": 7.5,
              "duration": 0.015625
            },
            {
              "pitch": 75,
              "velocity": 120,
              "position": 7.5,
              "duration": 0.015625
            },
            {
              "pitch": 65,
              "velocity": 80,
              "position": 7.510416666666667,
              "duration": 0.015625
            },
            {
              "pitch": 65,
              "velocity": 92,
              "position": 7.645833333333333,
              "duration": 0.015625
            },
            {
              "pitch": 61,
              "velocity": 80,
              "position": 7.75,
              "duration": 0.015625
            },
            {
              "pitch": 33,
              "velocity": 106,
              "position": 7.75,
              "duration": 0.015625
            },
            {
              "pitch": 64,
              "velocity": 104,
              "position": 7.75,
              "duration": 0.015625
            },
            {
              "pitch": 65,
              "velocity": 88,
              "position": 7.770833333333333,
              "duration": 0.015625
            },
            {
              "pitch": 65,
              "velocity": 110,
              "position": 7.875,
              "duration": 0.015625
            }
          ]
        },
        "12": {
          "ctab": {
            "srcChannel": 12,
            "name": "Aco.Bass",
            "accType": "BASS",
            "editable": false,
            "mutedNotes": [],
            "mutedChords": [],
            "autoStart": false,
            "sourceChordNote": 0,
            "sourceChordType": "Maj",
            "ctb2Low": null,
            "ctb2Main": {
              "ntr": "ROOT_TRANSPOSITION",
              "ntt": "MELODY",
              "bassOn": true,
              "chordRootUpperLimit": 3,
              "noteLowLimit": 28,
              "noteHighLimit": 54,
              "rtr": "PITCH_SHIFT_TO_ROOT"
            },
            "ctb2High": null
          },
          "notes": [
            {
              "pitch": 36,
              "velocity": 122,
              "position": 0,
              "duration": 0.7291666666666666
            },
            {
              "pitch": 43,
              "velocity": 126,
              "position": 0.7604166666666666,
              "duration": 0.5416666666666666
            },
            {
              "pitch": 48,
              "velocity": 122,
              "position": 1.5,
              "duration": 1.1145833333333333
            },
            {
              "pitch": 43,
              "velocity": 122,
              "position": 2.7604166666666665,
              "duration": 0.625
            },
            {
              "pitch": 36,
              "velocity": 120,
              "position": 3.5,
              "duration": 1.0729166666666667
            },
            {
              "pitch": 43,
              "velocity": 122,
              "position": 4.760416666666667,
              "duration": 0.6458333333333334
            },
            {
              "pitch": 48,
              "velocity": 120,
              "position": 5.5,
              "duration": 1.0625
            },
            {
              "pitch": 36,
              "velocity": 114,
              "position": 6.760416666666667,
              "duration": 1.1770833333333333
            }
          ]
        },
        "14": {
          "ctab": {
            "srcChannel": 14,
            "name": "GrandPno",
            "accType": "CHORD1",
            "editable": false,
            "mutedNotes": [],
            "mutedChords": [
              "7aug",
              "Maj7aug",
              "7(#9)",
              "7(b13)",
              "7(b9)",
              "7(13)",
              "7#11",
              "7(9)",
              "7b5",
              "7sus4",
              "7th"
            ],
            "autoStart": false,
            "sourceChordNote": 0,
            "sourceChordType": "Maj",
            "ctb2Low": null,
            "ctb2Main": {
              "ntr": "ROOT_TRANSPOSITION",
              "ntt": "BYPASS",
              "bassOn": false,
              "chordRootUpperLimit": 6,
              "noteLowLimit": 0,
              "noteHighLimit": 127,
              "rtr": "PITCH_SHIFT"
            },
            "ctb2High": null
          },
          "notes": [
            {
              "pitch": 72,
              "velocity": 104,
              "position": 0,
              "duration": 0.1875
            },
            {
              "pitch": 60,
              "velocity": 90,
              "position": 0,
              "duration": 0.23958333333333334
            },
            {
              "pitch": 64,
              "velocity": 80,
              "position": 0.25,
              "duration": 0.19791666666666666
            },
            {
              "pitch": 76,
              "velocity": 90,
              "position": 0.25,
              "duration": 0.20833333333333334
            },
            {
              "pitch": 67,
              "velocity": 104,
              "position": 0.5,
              "duration": 0.23958333333333334
            },
            {
              "pitch": 79,
              "velocity": 88,
              "position": 0.5,
              "duration": 0.2916666666666667
            },
            {
              "pitch": 60,
              "velocity": 88,
              "position": 0.7708333333333334,
              "duration": 0.375
            },
            {
              "pitch": 72,
              "velocity": 94,
              "position": 0.7604166666666666,
              "duration": 0.4479166666666667
            },
            {
              "pitch": 67,
              "velocity": 80,
              "position": 1.2604166666666667,
              "duration": 0.3854166666666667
            },
            {
              "pitch": 64,
              "velocity": 104,
              "position": 1.2604166666666667,
              "duration": 0.3854166666666667
            },
            {
              "pitch": 79,
              "velocity": 104,
              "position": 1.2604166666666667,
              "duration": 0.3958333333333333
            },
            {
              "pitch": 76,
              "velocity": 124,
              "position": 1.2604166666666667,
              "duration": 0.4479166666666667
            },
            {
              "pitch": 60,
              "velocity": 88,
              "position": 1.7604166666666667,
              "duration": 0.3958333333333333
            },
            {
              "pitch": 72,
              "velocity": 104,
              "position": 1.7604166666666667,
              "duration": 0.4375
            },
            {
              "pitch": 79,
              "velocity": 94,
              "position": 2.2604166666666665,
              "duration": 0.40625
            },
            {
              "pitch": 64,
              "velocity": 88,
              "position": 2.2604166666666665,
              "duration": 0.4166666666666667
            },
            {
              "pitch": 67,
              "velocity": 80,
              "position": 2.2604166666666665,
              "duration": 0.4270833333333333
            },
            {
              "pitch": 76,
              "velocity": 80,
              "position": 2.2604166666666665,
              "duration": 0.4479166666666667
            },
            {
              "pitch": 72,
              "velocity": 92,
              "position": 2.75,
              "duration": 0.4375
            },
            {
              "pitch": 60,
              "velocity": 92,
              "position": 2.7604166666666665,
              "duration": 0.4375
            },
            {
              "pitch": 67,
              "velocity": 88,
              "position": 3.25,
              "duration": 0.3854166666666667
            },
            {
              "pitch": 64,
              "velocity": 110,
              "position": 3.25,
              "duration": 0.3958333333333333
            },
            {
              "pitch": 79,
              "velocity": 88,
              "position": 3.25,
              "duration": 0.40625
            },
            {
              "pitch": 76,
              "velocity": 110,
              "position": 3.25,
              "duration": 0.4583333333333333
            },
            {
              "pitch": 60,
              "velocity": 90,
              "position": 3.75,
              "duration": 0.19791666666666666
            },
            {
              "pitch": 72,
              "velocity": 92,
              "position": 3.75,
              "duration": 0.19791666666666666
            },
            {
              "pitch": 72,
              "velocity": 90,
              "position": 4,
              "duration": 0.20833333333333334
            },
            {
              "pitch": 60,
              "velocity": 88,
              "position": 4,
              "duration": 0.20833333333333334
            },
            {
              "pitch": 64,
              "velocity": 90,
              "position": 4.260416666666667,
              "duration": 0.19791666666666666
            },
            {
              "pitch": 76,
              "velocity": 104,
              "position": 4.260416666666667,
              "duration": 0.21875
            },
            {
              "pitch": 67,
              "velocity": 88,
              "position": 4.5,
              "duration": 0.19791666666666666
            },
            {
              "pitch": 79,
              "velocity": 78,
              "position": 4.5,
              "duration": 0.22916666666666666
            },
            {
              "pitch": 60,
              "velocity": 80,
              "position": 4.760416666666667,
              "duration": 0.3958333333333333
            },
            {
              "pitch": 72,
              "velocity": 92,
              "position": 4.760416666666667,
              "duration": 0.4270833333333333
            },
            {
              "pitch": 67,
              "velocity": 88,
              "position": 5.25,
              "duration": 0.46875
            },
            {
              "pitch": 64,
              "velocity": 80,
              "position": 5.260416666666667,
              "duration": 0.4583333333333333
            },
            {
              "pitch": 79,
              "velocity": 92,
              "position": 5.260416666666667,
              "duration": 0.4895833333333333
            },
            {
              "pitch": 76,
              "velocity": 94,
              "position": 5.260416666666667,
              "duration": 0.5104166666666666
            },
            {
              "pitch": 72,
              "velocity": 90,
              "position": 5.75,
              "duration": 0.4375
            },
            {
              "pitch": 60,
              "velocity": 110,
              "position": 5.75,
              "duration": 0.4583333333333333
            },
            {
              "pitch": 64,
              "velocity": 104,
              "position": 6.25,
              "duration": 0.34375
            },
            {
              "pitch": 67,
              "velocity": 80,
              "position": 6.25,
              "duration": 0.3645833333333333
            },
            {
              "pitch": 79,
              "velocity": 72,
              "position": 6.260416666666667,
              "duration": 0.3541666666666667
            },
            {
              "pitch": 76,
              "velocity": 92,
              "position": 6.25,
              "duration": 0.46875
            },
            {
              "pitch": 72,
              "velocity": 78,
              "position": 6.75,
              "duration": 1.2083333333333333
            },
            {
              "pitch": 60,
              "velocity": 88,
              "position": 6.760416666666667,
              "duration": 1.1979166666666667
            },
            {
              "pitch": 48,
              "velocity": 88,
              "position": 6.760416666666667,
              "duration": 1.1979166666666667
            }
          ]
        },
        "15": {
          "ctab": {
            "srcChannel": 15,
            "name": "GrandPno",
            "accType": "CHORD1",
            "editable": false,
            "mutedNotes": [],
            "mutedChords": [
              "1+2+5",
              "sus4",
              "1+5",
              "1+8",
              "dim7",
              "dim",
              "minMaj7(9)",
              "minMaj7",
              "min7(11)",
              "min7(9)",
              "min(9)",
              "m7b5",
              "min7",
              "min6",
              "min",
              "aug",
              "Maj6(9)",
              "Maj7(9)",
              "Maj(9)",
              "Maj7#11",
              "Maj7",
              "Maj6",
              "Maj"
            ],
            "autoStart": false,
            "sourceChordNote": 0,
            "sourceChordType": "7th",
            "ctb2Low": null,
            "ctb2Main": {
              "ntr": "ROOT_TRANSPOSITION",
              "ntt": "BYPASS",
              "bassOn": false,
              "chordRootUpperLimit": 6,
              "noteLowLimit": 0,
              "noteHighLimit": 127,
              "rtr": "PITCH_SHIFT"
            },
            "ctb2High": null
          },
          "notes": [
            {
              "pitch": 64,
              "velocity": 104,
              "position": 0,
              "duration": 0.1875
            },
            {
              "pitch": 52,
              "velocity": 90,
              "position": 0,
              "duration": 0.23958333333333334
            },
            {
              "pitch": 58,
              "velocity": 80,
              "position": 0.25,
              "duration": 0.19791666666666666
            },
            {
              "pitch": 70,
              "velocity": 90,
              "position": 0.25,
              "duration": 0.20833333333333334
            },
            {
              "pitch": 60,
              "velocity": 104,
              "position": 0.5,
              "duration": 0.23958333333333334
            },
            {
              "pitch": 72,
              "velocity": 88,
              "position": 0.5,
              "duration": 0.2916666666666667
            },
            {
              "pitch": 52,
              "velocity": 88,
              "position": 0.7708333333333334,
              "duration": 0.375
            },
            {
              "pitch": 64,
              "velocity": 94,
              "position": 0.7604166666666666,
              "duration": 0.4479166666666667
            },
            {
              "pitch": 58,
              "velocity": 104,
              "position": 1.2604166666666667,
              "duration": 0.3854166666666667
            },
            {
              "pitch": 60,
              "velocity": 80,
              "position": 1.2604166666666667,
              "duration": 0.3854166666666667
            },
            {
              "pitch": 72,
              "velocity": 104,
              "position": 1.2604166666666667,
              "duration": 0.3958333333333333
            },
            {
              "pitch": 70,
              "velocity": 124,
              "position": 1.2604166666666667,
              "duration": 0.4479166666666667
            },
            {
              "pitch": 52,
              "velocity": 88,
              "position": 1.7604166666666667,
              "duration": 0.3958333333333333
            },
            {
              "pitch": 64,
              "velocity": 104,
              "position": 1.7604166666666667,
              "duration": 0.4375
            },
            {
              "pitch": 72,
              "velocity": 94,
              "position": 2.2604166666666665,
              "duration": 0.40625
            },
            {
              "pitch": 58,
              "velocity": 88,
              "position": 2.2604166666666665,
              "duration": 0.4166666666666667
            },
            {
              "pitch": 60,
              "velocity": 80,
              "position": 2.2604166666666665,
              "duration": 0.4270833333333333
            },
            {
              "pitch": 70,
              "velocity": 80,
              "position": 2.2604166666666665,
              "duration": 0.4479166666666667
            },
            {
              "pitch": 64,
              "velocity": 92,
              "position": 2.75,
              "duration": 0.4375
            },
            {
              "pitch": 52,
              "velocity": 92,
              "position": 2.7604166666666665,
              "duration": 0.4375
            },
            {
              "pitch": 60,
              "velocity": 88,
              "position": 3.25,
              "duration": 0.3854166666666667
            },
            {
              "pitch": 58,
              "velocity": 110,
              "position": 3.25,
              "duration": 0.3958333333333333
            },
            {
              "pitch": 72,
              "velocity": 88,
              "position": 3.25,
              "duration": 0.40625
            },
            {
              "pitch": 70,
              "velocity": 110,
              "position": 3.25,
              "duration": 0.4583333333333333
            },
            {
              "pitch": 52,
              "velocity": 90,
              "position": 3.75,
              "duration": 0.19791666666666666
            },
            {
              "pitch": 64,
              "velocity": 92,
              "position": 3.75,
              "duration": 0.19791666666666666
            },
            {
              "pitch": 64,
              "velocity": 88,
              "position": 4,
              "duration": 0.17708333333333334
            },
            {
              "pitch": 52,
              "velocity": 88,
              "position": 4,
              "duration": 0.1875
            },
            {
              "pitch": 58,
              "velocity": 90,
              "position": 4.25,
              "duration": 0.1875
            },
            {
              "pitch": 70,
              "velocity": 104,
              "position": 4.25,
              "duration": 0.1875
            },
            {
              "pitch": 60,
              "velocity": 88,
              "position": 4.5,
              "duration": 0.23958333333333334
            },
            {
              "pitch": 72,
              "velocity": 76,
              "position": 4.5,
              "duration": 0.2604166666666667
            },
            {
              "pitch": 52,
              "velocity": 94,
              "position": 4.760416666666667,
              "duration": 0.40625
            },
            {
              "pitch": 64,
              "velocity": 80,
              "position": 4.760416666666667,
              "duration": 0.4270833333333333
            },
            {
              "pitch": 72,
              "velocity": 88,
              "position": 5.260416666666667,
              "duration": 0.3958333333333333
            },
            {
              "pitch": 60,
              "velocity": 76,
              "position": 5.25,
              "duration": 0.4375
            },
            {
              "pitch": 58,
              "velocity": 110,
              "position": 5.25,
              "duration": 0.4791666666666667
            },
            {
              "pitch": 70,
              "velocity": 90,
              "position": 5.25,
              "duration": 0.4791666666666667
            },
            {
              "pitch": 64,
              "velocity": 90,
              "position": 5.760416666666667,
              "duration": 0.4166666666666667
            },
            {
              "pitch": 52,
              "velocity": 90,
              "position": 5.760416666666667,
              "duration": 0.4479166666666667
            },
            {
              "pitch": 60,
              "velocity": 88,
              "position": 6.25,
              "duration": 0.3541666666666667
            },
            {
              "pitch": 58,
              "velocity": 88,
              "position": 6.25,
              "duration": 0.375
            },
            {
              "pitch": 72,
              "velocity": 88,
              "position": 6.260416666666667,
              "duration": 0.375
            },
            {
              "pitch": 70,
              "velocity": 110,
              "position": 6.260416666666667,
              "duration": 0.3958333333333333
            },
            {
              "pitch": 72,
              "velocity": 78,
              "position": 6.75,
              "duration": 1.2083333333333333
            },
            {
              "pitch": 60,
              "velocity": 88,
              "position": 6.760416666666667,
              "duration": 1.1979166666666667
            },
            {
              "pitch": 48,
              "velocity": 88,
              "position": 6.760416666666667,
              "duration": 1.1979166666666667
            }
          ]
        }
      }
    },
    "Intro_B": {
      "type": "Intro_B",
      "sizeInBeats": 16,
      "channels": {
        "1": {
          "ctab": {
            "srcChannel": 1,
            "name": "BrasSect",
            "accType": "PHRASE1",
            "editable": false,
            "mutedNotes": [],
            "mutedChords": [
              "dim7",
              "dim",
              "minMaj7(9)",
              "minMaj7",
              "min7(11)",
              "min7(9)",
              "min(9)",
              "m7b5",
              "min7",
              "min6",
              "min"
            ],
            "autoStart": false,
            "sourceChordNote": 0,
            "sourceChordType": "Maj",
            "ctb2Low": null,
            "ctb2Main": {
              "ntr": "ROOT_TRANSPOSITION",
              "ntt": "BYPASS",
              "bassOn": false,
              "chordRootUpperLimit": 6,
              "noteLowLimit": 0,
              "noteHighLimit": 127,
              "rtr": "PITCH_SHIFT"
            },
            "ctb2High": null
          },
          "notes": [
            {
              "pitch": 78,
              "velocity": 118,
              "position": 0,
              "duration": 0.23958333333333334
            },
            {
              "pitch": 74,
              "velocity": 110,
              "position": 0,
              "duration": 0.23958333333333334
            },
            {
              "pitch": 79,
              "velocity": 126,
              "position": 0,
              "duration": 0.25
            },
            {
              "pitch": 76,
              "velocity": 124,
              "position": 0,
              "duration": 0.28125
            },
            {
              "pitch": 71,
              "velocity": 110,
              "position": 0,
              "duration": 0.2916666666666667
            },
            {
              "pitch": 77,
              "velocity": 90,
              "position": 0.22916666666666666,
              "duration": 0.10416666666666667
            },
            {
              "pitch": 74,
              "velocity": 90,
              "position": 0.25,
              "duration": 0.09375
            },
            {
              "pitch": 76,
              "velocity": 92,
              "position": 0.2916666666666667,
              "duration": 0.08333333333333333
            },
            {
              "pitch": 69,
              "velocity": 64,
              "position": 0.2916666666666667,
              "duration": 0.09375
            },
            {
              "pitch": 72,
              "velocity": 80,
              "position": 0.34375,
              "duration": 0.0625
            },
            {
              "pitch": 74,
              "velocity": 90,
              "position": 0.3541666666666667,
              "duration": 0.0625
            },
            {
              "pitch": 67,
              "velocity": 92,
              "position": 0.3958333333333333,
              "duration": 0.07291666666666667
            },
            {
              "pitch": 72,
              "velocity": 88,
              "position": 0.4270833333333333,
              "duration": 0.0625
            },
            {
              "pitch": 73,
              "velocity": 72,
              "position": 0.3645833333333333,
              "duration": 0.13541666666666666
            },
            {
              "pitch": 71,
              "velocity": 88,
              "position": 0.4270833333333333,
              "duration": 0.07291666666666667
            },
            {
              "pitch": 65,
              "velocity": 80,
              "position": 0.46875,
              "duration": 0.07291666666666667
            },
            {
              "pitch": 72,
              "velocity": 68,
              "position": 0.5104166666666666,
              "duration": 0.0625
            },
            {
              "pitch": 64,
              "velocity": 52,
              "position": 0.5416666666666666,
              "duration": 0.041666666666666664
            },
            {
              "pitch": 71,
              "velocity": 122,
              "position": 0.7604166666666666,
              "duration": 0.19791666666666666
            },
            {
              "pitch": 79,
              "velocity": 122,
              "position": 0.7604166666666666,
              "duration": 0.20833333333333334
            },
            {
              "pitch": 74,
              "velocity": 118,
              "position": 0.7604166666666666,
              "duration": 0.20833333333333334
            },
            {
              "pitch": 76,
              "velocity": 118,
              "position": 0.7604166666666666,
              "duration": 0.20833333333333334
            },
            {
              "pitch": 71,
              "velocity": 78,
              "position": 1.0104166666666667,
              "duration": 0.20833333333333334
            },
            {
              "pitch": 79,
              "velocity": 94,
              "position": 1.0208333333333333,
              "duration": 0.20833333333333334
            },
            {
              "pitch": 74,
              "velocity": 84,
              "position": 1.0104166666666667,
              "duration": 0.22916666666666666
            },
            {
              "pitch": 76,
              "velocity": 80,
              "position": 1.0104166666666667,
              "duration": 0.22916666666666666
            },
            {
              "pitch": 71,
              "velocity": 94,
              "position": 1.28125,
              "duration": 0.15625
            },
            {
              "pitch": 74,
              "velocity": 124,
              "position": 1.28125,
              "duration": 0.17708333333333334
            },
            {
              "pitch": 76,
              "velocity": 104,
              "position": 1.28125,
              "duration": 0.1875
            },
            {
              "pitch": 79,
              "velocity": 94,
              "position": 1.28125,
              "duration": 0.19791666666666666
            },
            {
              "pitch": 73,
              "velocity": 110,
              "position": 1.7604166666666667,
              "duration": 0.16666666666666666
            },
            {
              "pitch": 84,
              "velocity": 110,
              "position": 1.78125,
              "duration": 0.15625
            },
            {
              "pitch": 77,
              "velocity": 110,
              "position": 1.7708333333333333,
              "duration": 0.17708333333333334
            },
            {
              "pitch": 79,
              "velocity": 104,
              "position": 1.7708333333333333,
              "duration": 0.17708333333333334
            },
            {
              "pitch": 73,
              "velocity": 126,
              "position": 2.2708333333333335,
              "duration": 0.17708333333333334
            },
            {
              "pitch": 84,
              "velocity": 118,
              "position": 2.2708333333333335,
              "duration": 0.1875
            },
            {
              "pitch": 79,
              "velocity": 126,
              "position": 2.2708333333333335,
              "duration": 0.20833333333333334
            },
            {
              "pitch": 77,
              "velocity": 118,
              "position": 2.2708333333333335,
              "duration": 0.22916666666666666
            },
            {
              "pitch": 79,
              "velocity": 110,
              "position": 14.760416666666666,
              "duration": 1.1875
            },
            {
              "pitch": 67,
              "velocity": 110,
              "position": 14.760416666666666,
              "duration": 1.1979166666666667
            }
          ]
        },
        "2": {
          "ctab": {
            "srcChannel": 2,
            "name": "BrasSect",
            "accType": "PHRASE1",
            "editable": false,
            "mutedNotes": [],
            "mutedChords": [
              "1+2+5",
              "sus4",
              "1+5",
              "1+8",
              "7aug",
              "Maj7aug",
              "7(#9)",
              "7(b13)",
              "7(b9)",
              "7(13)",
              "7#11",
              "7(9)",
              "7b5",
              "7sus4",
              "7th",
              "aug",
              "Maj6(9)",
              "Maj7(9)",
              "Maj(9)",
              "Maj7#11",
              "Maj7",
              "Maj6",
              "Maj"
            ],
            "autoStart": false,
            "sourceChordNote": 0,
            "sourceChordType": "min",
            "ctb2Low": null,
            "ctb2Main": {
              "ntr": "ROOT_TRANSPOSITION",
              "ntt": "BYPASS",
              "bassOn": false,
              "chordRootUpperLimit": 6,
              "noteLowLimit": 0,
              "noteHighLimit": 127,
              "rtr": "PITCH_SHIFT"
            },
            "ctb2High": null
          },
          "notes": [
            {
              "pitch": 67,
              "velocity": 110,
              "position": 0.7604166666666666,
              "duration": 0.19791666666666666
            },
            {
              "pitch": 79,
              "velocity": 110,
              "position": 0.7395833333333334,
              "duration": 0.22916666666666666
            },
            {
              "pitch": 84,
              "velocity": 110,
              "position": 1,
              "duration": 0.1875
            },
            {
              "pitch": 72,
              "velocity": 110,
              "position": 1.0104166666666667,
              "duration": 0.20833333333333334
            },
            {
              "pitch": 82,
              "velocity": 110,
              "position": 1.2708333333333333,
              "duration": 0.17708333333333334
            },
            {
              "pitch": 70,
              "velocity": 90,
              "position": 1.28125,
              "duration": 0.16666666666666666
            },
            {
              "pitch": 67,
              "velocity": 110,
              "position": 1.75,
              "duration": 0.17708333333333334
            },
            {
              "pitch": 79,
              "velocity": 90,
              "position": 1.75,
              "duration": 0.19791666666666666
            },
            {
              "pitch": 77,
              "velocity": 124,
              "position": 2.2395833333333335,
              "duration": 0.1875
            },
            {
              "pitch": 65,
              "velocity": 90,
              "position": 2.2395833333333335,
              "duration": 0.1875
            },
            {
              "pitch": 75,
              "velocity": 110,
              "position": 2.75,
              "duration": 0.15625
            },
            {
              "pitch": 63,
              "velocity": 110,
              "position": 2.75,
              "duration": 0.17708333333333334
            },
            {
              "pitch": 60,
              "velocity": 92,
              "position": 3.25,
              "duration": 0.15625
            },
            {
              "pitch": 72,
              "velocity": 110,
              "position": 3.2604166666666665,
              "duration": 0.16666666666666666
            },
            {
              "pitch": 70,
              "velocity": 80,
              "position": 3.75,
              "duration": 0.14583333333333334
            },
            {
              "pitch": 58,
              "velocity": 90,
              "position": 3.7395833333333335,
              "duration": 0.16666666666666666
            },
            {
              "pitch": 77,
              "velocity": 80,
              "position": 4,
              "duration": 0.4479166666666667
            },
            {
              "pitch": 65,
              "velocity": 110,
              "position": 4,
              "duration": 0.4583333333333333
            },
            {
              "pitch": 63,
              "velocity": 88,
              "position": 4.489583333333333,
              "duration": 0.14583333333333334
            },
            {
              "pitch": 75,
              "velocity": 110,
              "position": 4.489583333333333,
              "duration": 0.1875
            },
            {
              "pitch": 65,
              "velocity": 110,
              "position": 4.739583333333333,
              "duration": 0.17708333333333334
            },
            {
              "pitch": 77,
              "velocity": 110,
              "position": 4.75,
              "duration": 0.16666666666666666
            },
            {
              "pitch": 67,
              "velocity": 90,
              "position": 5.25,
              "duration": 0.13541666666666666
            },
            {
              "pitch": 79,
              "velocity": 110,
              "position": 5.260416666666667,
              "duration": 0.14583333333333334
            },
            {
              "pitch": 68,
              "velocity": 92,
              "position": 5.760416666666667,
              "duration": 1.6666666666666667
            },
            {
              "pitch": 80,
              "velocity": 110,
              "position": 5.770833333333333,
              "duration": 1.6666666666666667
            },
            {
              "pitch": 75,
              "velocity": 94,
              "position": 7.5,
              "duration": 6.427083333333333
            },
            {
              "pitch": 72,
              "velocity": 92,
              "position": 7.5,
              "duration": 6.4375
            },
            {
              "pitch": 69,
              "velocity": 94,
              "position": 7.5,
              "duration": 6.4375
            },
            {
              "pitch": 79,
              "velocity": 78,
              "position": 7.5,
              "duration": 6.458333333333333
            },
            {
              "pitch": 79,
              "velocity": 110,
              "position": 14.760416666666666,
              "duration": 1.1875
            },
            {
              "pitch": 67,
              "velocity": 110,
              "position": 14.760416666666666,
              "duration": 1.1979166666666667
            }
          ]
        },
        "4": {
          "ctab": {
            "srcChannel": 4,
            "name": "Alto Sax",
            "accType": "PHRASE2",
            "editable": false,
            "mutedNotes": [],
            "mutedChords": [
              "dim7",
              "dim",
              "minMaj7(9)",
              "minMaj7",
              "min7(11)",
              "min7(9)",
              "min(9)",
              "m7b5",
              "min7",
              "min6",
              "min"
            ],
            "autoStart": false,
            "sourceChordNote": 0,
            "sourceChordType": "Maj",
            "ctb2Low": null,
            "ctb2Main": {
              "ntr": "ROOT_TRANSPOSITION",
              "ntt": "BYPASS",
              "bassOn": false,
              "chordRootUpperLimit": 6,
              "noteLowLimit": 0,
              "noteHighLimit": 127,
              "rtr": "PITCH_SHIFT"
            },
            "ctb2High": null
          },
          "notes": [
            {
              "pitch": 67,
              "velocity": 124,
              "position": 0,
              "duration": 0.3854166666666667
            },
            {
              "pitch": 60,
              "velocity": 104,
              "position": 0,
              "duration": 0.4479166666666667
            },
            {
              "pitch": 64,
              "velocity": 110,
              "position": 0,
              "duration": 0.4479166666666667
            },
            {
              "pitch": 59,
              "velocity": 124,
              "position": 0,
              "duration": 0.4583333333333333
            },
            {
              "pitch": 59,
              "velocity": 114,
              "position": 0.7708333333333334,
              "duration": 0.16666666666666666
            },
            {
              "pitch": 60,
              "velocity": 118,
              "position": 0.7604166666666666,
              "duration": 0.1875
            },
            {
              "pitch": 64,
              "velocity": 124,
              "position": 0.7708333333333334,
              "duration": 0.17708333333333334
            },
            {
              "pitch": 67,
              "velocity": 114,
              "position": 0.7708333333333334,
              "duration": 0.1875
            },
            {
              "pitch": 60,
              "velocity": 80,
              "position": 1.0104166666666667,
              "duration": 0.19791666666666666
            },
            {
              "pitch": 67,
              "velocity": 64,
              "position": 1.0104166666666667,
              "duration": 0.20833333333333334
            },
            {
              "pitch": 59,
              "velocity": 80,
              "position": 1.0104166666666667,
              "duration": 0.20833333333333334
            },
            {
              "pitch": 64,
              "velocity": 80,
              "position": 1.0104166666666667,
              "duration": 0.20833333333333334
            },
            {
              "pitch": 67,
              "velocity": 94,
              "position": 1.28125,
              "duration": 0.125
            },
            {
              "pitch": 64,
              "velocity": 92,
              "position": 1.28125,
              "duration": 0.125
            },
            {
              "pitch": 60,
              "velocity": 94,
              "position": 1.28125,
              "duration": 0.13541666666666666
            },
            {
              "pitch": 59,
              "velocity": 94,
              "position": 1.28125,
              "duration": 0.14583333333333334
            },
            {
              "pitch": 61,
              "velocity": 120,
              "position": 1.7604166666666667,
              "duration": 0.17708333333333334
            },
            {
              "pitch": 65,
              "velocity": 92,
              "position": 1.7604166666666667,
              "duration": 0.17708333333333334
            },
            {
              "pitch": 58,
              "velocity": 116,
              "position": 1.7604166666666667,
              "duration": 0.1875
            },
            {
              "pitch": 55,
              "velocity": 114,
              "position": 1.7604166666666667,
              "duration": 0.19791666666666666
            },
            {
              "pitch": 61,
              "velocity": 126,
              "position": 2.25,
              "duration": 0.21875
            },
            {
              "pitch": 58,
              "velocity": 120,
              "position": 2.25,
              "duration": 0.22916666666666666
            },
            {
              "pitch": 65,
              "velocity": 126,
              "position": 2.25,
              "duration": 0.22916666666666666
            },
            {
              "pitch": 55,
              "velocity": 120,
              "position": 2.25,
              "duration": 0.25
            },
            {
              "pitch": 57,
              "velocity": 110,
              "position": 4.5,
              "duration": 0.1875
            },
            {
              "pitch": 69,
              "velocity": 110,
              "position": 4.489583333333333,
              "duration": 0.22916666666666666
            },
            {
              "pitch": 65,
              "velocity": 92,
              "position": 5,
              "duration": 0.6666666666666666
            },
            {
              "pitch": 53,
              "velocity": 92,
              "position": 5.010416666666667,
              "duration": 0.6770833333333334
            },
            {
              "pitch": 48,
              "velocity": 80,
              "position": 5.760416666666667,
              "duration": 0.1875
            },
            {
              "pitch": 60,
              "velocity": 90,
              "position": 5.75,
              "duration": 0.20833333333333334
            },
            {
              "pitch": 59,
              "velocity": 80,
              "position": 6,
              "duration": 0.21875
            },
            {
              "pitch": 47,
              "velocity": 92,
              "position": 6,
              "duration": 0.21875
            },
            {
              "pitch": 62,
              "velocity": 110,
              "position": 6.489583333333333,
              "duration": 0.19791666666666666
            },
            {
              "pitch": 50,
              "velocity": 92,
              "position": 6.5,
              "duration": 0.1875
            },
            {
              "pitch": 57,
              "velocity": 110,
              "position": 6.989583333333333,
              "duration": 0.7291666666666666
            },
            {
              "pitch": 69,
              "velocity": 110,
              "position": 6.989583333333333,
              "duration": 0.7395833333333334
            },
            {
              "pitch": 55,
              "velocity": 110,
              "position": 7.760416666666667,
              "duration": 4.114583333333333
            },
            {
              "pitch": 67,
              "velocity": 110,
              "position": 7.770833333333333,
              "duration": 4.114583333333333
            },
            {
              "pitch": 67,
              "velocity": 124,
              "position": 14.75,
              "duration": 1.2083333333333333
            },
            {
              "pitch": 55,
              "velocity": 110,
              "position": 14.739583333333334,
              "duration": 1.2291666666666667
            }
          ]
        },
        "5": {
          "ctab": {
            "srcChannel": 5,
            "name": "Alto Sax",
            "accType": "PHRASE2",
            "editable": false,
            "mutedNotes": [],
            "mutedChords": [
              "1+2+5",
              "sus4",
              "1+5",
              "1+8",
              "7aug",
              "Maj7aug",
              "7(#9)",
              "7(b13)",
              "7(b9)",
              "7(13)",
              "7#11",
              "7(9)",
              "7b5",
              "7sus4",
              "7th",
              "aug",
              "Maj6(9)",
              "Maj7(9)",
              "Maj(9)",
              "Maj7#11",
              "Maj7",
              "Maj6",
              "Maj"
            ],
            "autoStart": false,
            "sourceChordNote": 0,
            "sourceChordType": "min",
            "ctb2Low": null,
            "ctb2Main": {
              "ntr": "ROOT_TRANSPOSITION",
              "ntt": "BYPASS",
              "bassOn": false,
              "chordRootUpperLimit": 6,
              "noteLowLimit": 0,
              "noteHighLimit": 127,
              "rtr": "PITCH_SHIFT"
            },
            "ctb2High": null
          },
          "notes": [
            {
              "pitch": 67,
              "velocity": 120,
              "position": 0,
              "duration": 0.4791666666666667
            },
            {
              "pitch": 62,
              "velocity": 120,
              "position": 0,
              "duration": 0.4895833333333333
            },
            {
              "pitch": 63,
              "velocity": 104,
              "position": 0,
              "duration": 0.5208333333333334
            },
            {
              "pitch": 57,
              "velocity": 92,
              "position": 0,
              "duration": 0.5833333333333334
            },
            {
              "pitch": 54,
              "velocity": 94,
              "position": 4,
              "duration": 0.53125
            },
            {
              "pitch": 58,
              "velocity": 94,
              "position": 4,
              "duration": 0.5625
            },
            {
              "pitch": 65,
              "velocity": 92,
              "position": 4,
              "duration": 0.5625
            },
            {
              "pitch": 60,
              "velocity": 120,
              "position": 4,
              "duration": 0.6041666666666666
            },
            {
              "pitch": 58,
              "velocity": 80,
              "position": 4.760416666666667,
              "duration": 0.14583333333333334
            },
            {
              "pitch": 65,
              "velocity": 72,
              "position": 4.770833333333333,
              "duration": 0.14583333333333334
            },
            {
              "pitch": 60,
              "velocity": 88,
              "position": 4.770833333333333,
              "duration": 0.15625
            },
            {
              "pitch": 54,
              "velocity": 90,
              "position": 4.760416666666667,
              "duration": 0.21875
            },
            {
              "pitch": 58,
              "velocity": 80,
              "position": 5.25,
              "duration": 0.11458333333333333
            },
            {
              "pitch": 60,
              "velocity": 94,
              "position": 5.25,
              "duration": 0.17708333333333334
            },
            {
              "pitch": 65,
              "velocity": 122,
              "position": 5.25,
              "duration": 0.19791666666666666
            },
            {
              "pitch": 54,
              "velocity": 122,
              "position": 5.25,
              "duration": 0.19791666666666666
            },
            {
              "pitch": 53,
              "velocity": 90,
              "position": 5.75,
              "duration": 1.3020833333333333
            },
            {
              "pitch": 58,
              "velocity": 78,
              "position": 5.75,
              "duration": 1.3125
            },
            {
              "pitch": 63,
              "velocity": 94,
              "position": 5.75,
              "duration": 1.3333333333333333
            },
            {
              "pitch": 59,
              "velocity": 94,
              "position": 5.75,
              "duration": 1.34375
            },
            {
              "pitch": 62,
              "velocity": 110,
              "position": 7.489583333333333,
              "duration": 6.364583333333333
            },
            {
              "pitch": 55,
              "velocity": 104,
              "position": 7.489583333333333,
              "duration": 6.385416666666667
            },
            {
              "pitch": 51,
              "velocity": 90,
              "position": 7.489583333333333,
              "duration": 6.395833333333333
            },
            {
              "pitch": 57,
              "velocity": 104,
              "position": 7.489583333333333,
              "duration": 6.395833333333333
            },
            {
              "pitch": 67,
              "velocity": 124,
              "position": 14.75,
              "duration": 1.2083333333333333
            },
            {
              "pitch": 55,
              "velocity": 110,
              "position": 14.739583333333334,
              "duration": 1.2291666666666667
            }
          ]
        },
        "8": {
          "ctab": {
            "srcChannel": 8,
            "name": "Std.Kit1",
            "accType": "RHYTHM",
            "editable": false,
            "mutedNotes": [],
            "mutedChords": [],
            "autoStart": true,
            "sourceChordNote": 0,
            "sourceChordType": "Maj7",
            "ctb2Low": null,
            "ctb2Main": {
              "ntr": "ROOT_FIXED",
              "ntt": "BYPASS",
              "bassOn": false,
              "chordRootUpperLimit": 6,
              "noteLowLimit": 0,
              "noteHighLimit": 127,
              "rtr": "PITCH_SHIFT"
            },
            "ctb2High": null
          },
          "notes": [
            {
              "pitch": 42,
              "velocity": 92,
              "position": 0,
              "duration": 0.015625
            },
            {
              "pitch": 42,
              "velocity": 80,
              "position": 0.5,
              "duration": 0.015625
            },
            {
              "pitch": 42,
              "velocity": 72,
              "position": 0.75,
              "duration": 0.015625
            },
            {
              "pitch": 36,
              "velocity": 110,
              "position": 0.7604166666666666,
              "duration": 0.015625
            },
            {
              "pitch": 42,
              "velocity": 90,
              "position": 1,
              "duration": 0.015625
            },
            {
              "pitch": 42,
              "velocity": 80,
              "position": 1.4895833333333333,
              "duration": 0.015625
            },
            {
              "pitch": 42,
              "velocity": 92,
              "position": 1.75,
              "duration": 0.015625
            },
            {
              "pitch": 42,
              "velocity": 80,
              "position": 2,
              "duration": 0.015625
            },
            {
              "pitch": 42,
              "velocity": 94,
              "position": 2.4895833333333335,
              "duration": 0.015625
            },
            {
              "pitch": 42,
              "velocity": 80,
              "position": 2.75,
              "duration": 0.015625
            },
            {
              "pitch": 36,
              "velocity": 110,
              "position": 2.7604166666666665,
              "duration": 0.015625
            },
            {
              "pitch": 42,
              "velocity": 80,
              "position": 3,
              "duration": 0.015625
            },
            {
              "pitch": 42,
              "velocity": 92,
              "position": 3.5,
              "duration": 0.015625
            },
            {
              "pitch": 42,
              "velocity": 80,
              "position": 3.75,
              "duration": 0.015625
            },
            {
              "pitch": 42,
              "velocity": 92,
              "position": 4,
              "duration": 0.015625
            },
            {
              "pitch": 42,
              "velocity": 80,
              "position": 4.489583333333333,
              "duration": 0.015625
            },
            {
              "pitch": 42,
              "velocity": 72,
              "position": 4.75,
              "duration": 0.015625
            },
            {
              "pitch": 36,
              "velocity": 108,
              "position": 4.760416666666667,
              "duration": 0.015625
            },
            {
              "pitch": 42,
              "velocity": 92,
              "position": 5,
              "duration": 0.015625
            },
            {
              "pitch": 42,
              "velocity": 80,
              "position": 5.489583333333333,
              "duration": 0.015625
            },
            {
              "pitch": 42,
              "velocity": 80,
              "position": 5.75,
              "duration": 0.015625
            },
            {
              "pitch": 42,
              "velocity": 86,
              "position": 6,
              "duration": 0.015625
            },
            {
              "pitch": 42,
              "velocity": 72,
              "position": 6.489583333333333,
              "duration": 0.015625
            },
            {
              "pitch": 42,
              "velocity": 80,
              "position": 6.760416666666667,
              "duration": 0.015625
            },
            {
              "pitch": 36,
              "velocity": 112,
              "position": 6.760416666666667,
              "duration": 0.015625
            },
            {
              "pitch": 42,
              "velocity": 90,
              "position": 7,
              "duration": 0.015625
            },
            {
              "pitch": 42,
              "velocity": 80,
              "position": 7.489583333333333,
              "duration": 0.015625
            },
            {
              "pitch": 42,
              "velocity": 80,
              "position": 7.75,
              "duration": 0.015625
            },
            {
              "pitch": 42,
              "velocity": 92,
              "position": 8,
              "duration": 0.015625
            },
            {
              "pitch": 42,
              "velocity": 80,
              "position": 8.5,
              "duration": 0.015625
            },
            {
              "pitch": 42,
              "velocity": 72,
              "position": 8.75,
              "duration": 0.015625
            },
            {
              "pitch": 36,
              "velocity": 110,
              "position": 8.760416666666666,
              "duration": 0.015625
            },
            {
              "pitch": 42,
              "velocity": 90,
              "position": 9,
              "duration": 0.015625
            },
            {
              "pitch": 42,
              "velocity": 80,
              "position": 9.489583333333334,
              "duration": 0.015625
            },
            {
              "pitch": 42,
              "velocity": 92,
              "position": 9.75,
              "duration": 0.015625
            },
            {
              "pitch": 42,
              "velocity": 80,
              "position": 10,
              "duration": 0.015625
            },
            {
              "pitch": 42,
              "velocity": 94,
              "position": 10.489583333333334,
              "duration": 0.015625
            },
            {
              "pitch": 42,
              "velocity": 80,
              "position": 10.75,
              "duration": 0.015625
            },
            {
              "pitch": 36,
              "velocity": 110,
              "position": 10.760416666666666,
              "duration": 0.015625
            },
            {
              "pitch": 42,
              "velocity": 80,
              "position": 11,
              "duration": 0.015625
            },
            {
              "pitch": 42,
              "velocity": 92,
              "position": 11.5,
              "duration": 0.015625
            },
            {
              "pitch": 42,
              "velocity": 80,
              "position": 11.75,
              "duration": 0.015625
            },
            {
              "pitch": 42,
              "velocity": 80,
              "position": 12,
              "duration": 0.015625
            },
            {
              "pitch": 42,
              "velocity": 80,
              "position": 12.5,
              "duration": 0.015625
            },
            {
              "pitch": 42,
              "velocity": 72,
              "position": 12.75,
              "duration": 0.015625
            },
            {
              "pitch": 36,
              "velocity": 106,
              "position": 12.760416666666666,
              "duration": 0.015625
            },
            {
              "pitch": 42,
              "velocity": 90,
              "position": 13,
              "duration": 0.015625
            },
            {
              "pitch": 42,
              "velocity": 80,
              "position": 13.489583333333334,
              "duration": 0.015625
            },
            {
              "pitch": 42,
              "velocity": 92,
              "position": 13.75,
              "duration": 0.015625
            },
            {
              "pitch": 42,
              "velocity": 80,
              "position": 14,
              "duration": 0.015625
            },
            {
              "pitch": 42,
              "velocity": 94,
              "position": 14.489583333333334,
              "duration": 0.015625
            },
            {
              "pitch": 42,
              "velocity": 80,
              "position": 14.75,
              "duration": 0.015625
            },
            {
              "pitch": 36,
              "velocity": 112,
              "position": 14.760416666666666,
              "duration": 0.015625
            },
            {
              "pitch": 55,
              "velocity": 124,
              "position": 14.760416666666666,
              "duration": 0.015625
            },
            {
              "pitch": 42,
              "velocity": 80,
              "position": 15,
              "duration": 0.015625
            },
            {
              "pitch": 42,
              "velocity": 92,
              "position": 15.5,
              "duration": 0.015625
            },
            {
              "pitch": 42,
              "velocity": 80,
              "position": 15.75,
              "duration": 0.015625
            }
          ]
        },
        "10": {
          "ctab": {
            "srcChannel": 10,
            "name": "Std.Kit1",
            "accType": "SUBRHYTHM",
            "editable": false,
            "mutedNotes": [],
            "mutedChords": [],
            "autoStart": true,
            "sourceChordNote": 0,
            "sourceChordType": "Maj7",
            "ctb2Low": null,
            "ctb2Main": {
              "ntr": "ROOT_FIXED",
              "ntt": "BYPASS",
              "bassOn": false,
              "chordRootUpperLimit": 6,
              "noteLowLimit": 0,
              "noteHighLimit": 127,
              "rtr": "PITCH_SHIFT"
            },
            "ctb2High": null
          },
          "notes": [
            {
              "pitch": 60,
              "velocity": 92,
              "position": 0,
              "duration": 0.015625
            },
            {
              "pitch": 33,
              "velocity": 92,
              "position": 0,
              "duration": 0.015625
            },
            {
              "pitch": 62,
              "velocity": 92,
              "position": 0,
              "duration": 0.015625
            },
            {
              "pitch": 33,
              "velocity": 58,
              "position": 0.25,
              "duration": 0.015625
            },
            {
              "pitch": 61,
              "velocity": 80,
              "position": 0.25,
              "duration": 0.015625
            },
            {
              "pitch": 62,
              "velocity": 88,
              "position": 0.2604166666666667,
              "duration": 0.015625
            },
            {
              "pitch": 33,
              "velocity": 110,
              "position": 0.4895833333333333,
              "duration": 0.015625
            },
            {
              "pitch": 75,
              "velocity": 120,
              "position": 0.5,
              "duration": 0.015625
            },
            {
              "pitch": 62,
              "velocity": 108,
              "position": 0.5,
              "duration": 0.015625
            },
            {
              "pitch": 61,
              "velocity": 80,
              "position": 0.5,
              "duration": 0.015625
            },
            {
              "pitch": 62,
              "velocity": 88,
              "position": 0.75,
              "duration": 0.015625
            },
            {
              "pitch": 33,
              "velocity": 58,
              "position": 0.75,
              "duration": 0.015625
            },
            {
              "pitch": 60,
              "velocity": 92,
              "position": 0.7604166666666666,
              "duration": 0.015625
            },
            {
              "pitch": 33,
              "velocity": 110,
              "position": 0.9895833333333334,
              "duration": 0.015625
            },
            {
              "pitch": 62,
              "velocity": 88,
              "position": 0.9895833333333334,
              "duration": 0.015625
            },
            {
              "pitch": 75,
              "velocity": 126,
              "position": 1,
              "duration": 0.015625
            },
            {
              "pitch": 60,
              "velocity": 80,
              "position": 1,
              "duration": 0.015625
            },
            {
              "pitch": 62,
              "velocity": 88,
              "position": 1.25,
              "duration": 0.015625
            },
            {
              "pitch": 33,
              "velocity": 110,
              "position": 1.25,
              "duration": 0.015625
            },
            {
              "pitch": 61,
              "velocity": 92,
              "position": 1.2604166666666667,
              "duration": 0.015625
            },
            {
              "pitch": 33,
              "velocity": 72,
              "position": 1.4895833333333333,
              "duration": 0.015625
            },
            {
              "pitch": 64,
              "velocity": 100,
              "position": 1.4895833333333333,
              "duration": 0.015625
            },
            {
              "pitch": 61,
              "velocity": 92,
              "position": 1.5,
              "duration": 0.015625
            },
            {
              "pitch": 64,
              "velocity": 100,
              "position": 1.75,
              "duration": 0.015625
            },
            {
              "pitch": 33,
              "velocity": 92,
              "position": 1.75,
              "duration": 0.015625
            },
            {
              "pitch": 60,
              "velocity": 112,
              "position": 1.7604166666666667,
              "duration": 0.015625
            },
            {
              "pitch": 75,
              "velocity": 120,
              "position": 2,
              "duration": 0.015625
            },
            {
              "pitch": 61,
              "velocity": 80,
              "position": 2,
              "duration": 0.015625
            },
            {
              "pitch": 62,
              "velocity": 84,
              "position": 2,
              "duration": 0.015625
            },
            {
              "pitch": 33,
              "velocity": 110,
              "position": 2,
              "duration": 0.015625
            },
            {
              "pitch": 33,
              "velocity": 68,
              "position": 2.25,
              "duration": 0.015625
            },
            {
              "pitch": 62,
              "velocity": 88,
              "position": 2.25,
              "duration": 0.015625
            },
            {
              "pitch": 61,
              "velocity": 80,
              "position": 2.2604166666666665,
              "duration": 0.015625
            },
            {
              "pitch": 62,
              "velocity": 108,
              "position": 2.4895833333333335,
              "duration": 0.015625
            },
            {
              "pitch": 33,
              "velocity": 90,
              "position": 2.4895833333333335,
              "duration": 0.015625
            },
            {
              "pitch": 61,
              "velocity": 72,
              "position": 2.5,
              "duration": 0.015625
            },
            {
              "pitch": 60,
              "velocity": 80,
              "position": 2.75,
              "duration": 0.015625
            },
            {
              "pitch": 62,
              "velocity": 88,
              "position": 2.75,
              "duration": 0.015625
            },
            {
              "pitch": 33,
              "velocity": 110,
              "position": 2.75,
              "duration": 0.015625
            },
            {
              "pitch": 75,
              "velocity": 120,
              "position": 2.7604166666666665,
              "duration": 0.015625
            },
            {
              "pitch": 62,
              "velocity": 100,
              "position": 3,
              "duration": 0.015625
            },
            {
              "pitch": 33,
              "velocity": 68,
              "position": 3,
              "duration": 0.015625
            },
            {
              "pitch": 60,
              "velocity": 80,
              "position": 3,
              "duration": 0.015625
            },
            {
              "pitch": 62,
              "velocity": 100,
              "position": 3.25,
              "duration": 0.015625
            },
            {
              "pitch": 61,
              "velocity": 92,
              "position": 3.25,
              "duration": 0.015625
            },
            {
              "pitch": 33,
              "velocity": 110,
              "position": 3.25,
              "duration": 0.015625
            },
            {
              "pitch": 61,
              "velocity": 92,
              "position": 3.4895833333333335,
              "duration": 0.015625
            },
            {
              "pitch": 64,
              "velocity": 100,
              "position": 3.4895833333333335,
              "duration": 0.015625
            },
            {
              "pitch": 33,
              "velocity": 72,
              "position": 3.5,
              "duration": 0.015625
            },
            {
              "pitch": 75,
              "velocity": 112,
              "position": 3.5,
              "duration": 0.015625
            },
            {
              "pitch": 61,
              "velocity": 80,
              "position": 3.75,
              "duration": 0.015625
            },
            {
              "pitch": 33,
              "velocity": 110,
              "position": 3.75,
              "duration": 0.015625
            },
            {
              "pitch": 64,
              "velocity": 102,
              "position": 3.75,
              "duration": 0.015625
            },
            {
              "pitch": 60,
              "velocity": 92,
              "position": 4,
              "duration": 0.015625
            },
            {
              "pitch": 62,
              "velocity": 88,
              "position": 4,
              "duration": 0.015625
            },
            {
              "pitch": 33,
              "velocity": 110,
              "position": 4,
              "duration": 0.015625
            },
            {
              "pitch": 61,
              "velocity": 80,
              "position": 4.25,
              "duration": 0.015625
            },
            {
              "pitch": 33,
              "velocity": 60,
              "position": 4.25,
              "duration": 0.015625
            },
            {
              "pitch": 62,
              "velocity": 88,
              "position": 4.25,
              "duration": 0.015625
            },
            {
              "pitch": 62,
              "velocity": 110,
              "position": 4.5,
              "duration": 0.015625
            },
            {
              "pitch": 33,
              "velocity": 110,
              "position": 4.5,
              "duration": 0.015625
            },
            {
              "pitch": 75,
              "velocity": 120,
              "position": 4.5,
              "duration": 0.015625
            },
            {
              "pitch": 61,
              "velocity": 92,
              "position": 4.5,
              "duration": 0.015625
            },
            {
              "pitch": 62,
              "velocity": 100,
              "position": 4.75,
              "duration": 0.015625
            },
            {
              "pitch": 33,
              "velocity": 72,
              "position": 4.75,
              "duration": 0.015625
            },
            {
              "pitch": 60,
              "velocity": 92,
              "position": 4.760416666666667,
              "duration": 0.015625
            },
            {
              "pitch": 62,
              "velocity": 100,
              "position": 4.989583333333333,
              "duration": 0.015625
            },
            {
              "pitch": 33,
              "velocity": 110,
              "position": 5,
              "duration": 0.015625
            },
            {
              "pitch": 60,
              "velocity": 80,
              "position": 5,
              "duration": 0.015625
            },
            {
              "pitch": 75,
              "velocity": 114,
              "position": 5.010416666666667,
              "duration": 0.015625
            },
            {
              "pitch": 62,
              "velocity": 100,
              "position": 5.25,
              "duration": 0.015625
            },
            {
              "pitch": 33,
              "velocity": 110,
              "position": 5.25,
              "duration": 0.015625
            },
            {
              "pitch": 61,
              "velocity": 90,
              "position": 5.260416666666667,
              "duration": 0.015625
            },
            {
              "pitch": 33,
              "velocity": 76,
              "position": 5.489583333333333,
              "duration": 0.015625
            },
            {
              "pitch": 61,
              "velocity": 90,
              "position": 5.5,
              "duration": 0.015625
            },
            {
              "pitch": 64,
              "velocity": 100,
              "position": 5.5,
              "duration": 0.015625
            },
            {
              "pitch": 64,
              "velocity": 102,
              "position": 5.75,
              "duration": 0.015625
            },
            {
              "pitch": 33,
              "velocity": 110,
              "position": 5.75,
              "duration": 0.015625
            },
            {
              "pitch": 60,
              "velocity": 110,
              "position": 5.760416666666667,
              "duration": 0.015625
            },
            {
              "pitch": 61,
              "velocity": 80,
              "position": 6,
              "duration": 0.015625
            },
            {
              "pitch": 62,
              "velocity": 96,
              "position": 6,
              "duration": 0.015625
            },
            {
              "pitch": 33,
              "velocity": 110,
              "position": 6,
              "duration": 0.015625
            },
            {
              "pitch": 75,
              "velocity": 120,
              "position": 6.010416666666667,
              "duration": 0.015625
            },
            {
              "pitch": 62,
              "velocity": 88,
              "position": 6.25,
              "duration": 0.015625
            },
            {
              "pitch": 33,
              "velocity": 64,
              "position": 6.25,
              "duration": 0.015625
            },
            {
              "pitch": 61,
              "velocity": 80,
              "position": 6.260416666666667,
              "duration": 0.015625
            },
            {
              "pitch": 62,
              "velocity": 108,
              "position": 6.489583333333333,
              "duration": 0.015625
            },
            {
              "pitch": 33,
              "velocity": 110,
              "position": 6.5,
              "duration": 0.015625
            },
            {
              "pitch": 61,
              "velocity": 80,
              "position": 6.510416666666667,
              "duration": 0.015625
            },
            {
              "pitch": 62,
              "velocity": 88,
              "position": 6.75,
              "duration": 0.015625
            },
            {
              "pitch": 60,
              "velocity": 92,
              "position": 6.75,
              "duration": 0.015625
            },
            {
              "pitch": 33,
              "velocity": 92,
              "position": 6.75,
              "duration": 0.015625
            },
            {
              "pitch": 75,
              "velocity": 112,
              "position": 6.760416666666667,
              "duration": 0.015625
            },
            {
              "pitch": 60,
              "velocity": 80,
              "position": 7,
              "duration": 0.015625
            },
            {
              "pitch": 62,
              "velocity": 100,
              "position": 7,
              "duration": 0.015625
            },
            {
              "pitch": 33,
              "velocity": 64,
              "position": 7,
              "duration": 0.015625
            },
            {
              "pitch": 62,
              "velocity": 88,
              "position": 7.25,
              "duration": 0.015625
            },
            {
              "pitch": 61,
              "velocity": 80,
              "position": 7.25,
              "duration": 0.015625
            },
            {
              "pitch": 33,
              "velocity": 110,
              "position": 7.260416666666667,
              "duration": 0.015625
            },
            {
              "pitch": 61,
              "velocity": 80,
              "position": 7.489583333333333,
              "duration": 0.015625
            },
            {
              "pitch": 64,
              "velocity": 104,
              "position": 7.489583333333333,
              "duration": 0.015625
            },
            {
              "pitch": 75,
              "velocity": 120,
              "position": 7.5,
              "duration": 0.015625
            },
            {
              "pitch": 33,
              "velocity": 72,
              "position": 7.5,
              "duration": 0.015625
            },
            {
              "pitch": 61,
              "velocity": 92,
              "position": 7.739583333333333,
              "duration": 0.015625
            },
            {
              "pitch": 64,
              "velocity": 100,
              "position": 7.75,
              "duration": 0.015625
            },
            {
              "pitch": 33,
              "velocity": 110,
              "position": 7.760416666666667,
              "duration": 0.015625
            },
            {
              "pitch": 60,
              "velocity": 92,
              "position": 8,
              "duration": 0.015625
            },
            {
              "pitch": 33,
              "velocity": 92,
              "position": 8,
              "duration": 0.015625
            },
            {
              "pitch": 62,
              "velocity": 92,
              "position": 8,
              "duration": 0.015625
            },
            {
              "pitch": 33,
              "velocity": 58,
              "position": 8.25,
              "duration": 0.015625
            },
            {
              "pitch": 61,
              "velocity": 80,
              "position": 8.25,
              "duration": 0.015625
            },
            {
              "pitch": 62,
              "velocity": 88,
              "position": 8.260416666666666,
              "duration": 0.015625
            },
            {
              "pitch": 33,
              "velocity": 110,
              "position": 8.489583333333334,
              "duration": 0.015625
            },
            {
              "pitch": 75,
              "velocity": 120,
              "position": 8.5,
              "duration": 0.015625
            },
            {
              "pitch": 62,
              "velocity": 108,
              "position": 8.5,
              "duration": 0.015625
            },
            {
              "pitch": 61,
              "velocity": 80,
              "position": 8.5,
              "duration": 0.015625
            },
            {
              "pitch": 62,
              "velocity": 88,
              "position": 8.75,
              "duration": 0.015625
            },
            {
              "pitch": 33,
              "velocity": 58,
              "position": 8.75,
              "duration": 0.015625
            },
            {
              "pitch": 60,
              "velocity": 92,
              "position": 8.760416666666666,
              "duration": 0.015625
            },
            {
              "pitch": 33,
              "velocity": 110,
              "position": 8.989583333333334,
              "duration": 0.015625
            },
            {
              "pitch": 62,
              "velocity": 88,
              "position": 8.989583333333334,
              "duration": 0.015625
            },
            {
              "pitch": 75,
              "velocity": 126,
              "position": 9,
              "duration": 0.015625
            },
            {
              "pitch": 60,
              "velocity": 80,
              "position": 9,
              "duration": 0.015625
            },
            {
              "pitch": 62,
              "velocity": 88,
              "position": 9.25,
              "duration": 0.015625
            },
            {
              "pitch": 33,
              "velocity": 110,
              "position": 9.25,
              "duration": 0.015625
            },
            {
              "pitch": 61,
              "velocity": 92,
              "position": 9.260416666666666,
              "duration": 0.015625
            },
            {
              "pitch": 33,
              "velocity": 72,
              "position": 9.489583333333334,
              "duration": 0.015625
            },
            {
              "pitch": 64,
              "velocity": 100,
              "position": 9.489583333333334,
              "duration": 0.015625
            },
            {
              "pitch": 61,
              "velocity": 92,
              "position": 9.5,
              "duration": 0.015625
            },
            {
              "pitch": 64,
              "velocity": 100,
              "position": 9.75,
              "duration": 0.015625
            },
            {
              "pitch": 33,
              "velocity": 92,
              "position": 9.75,
              "duration": 0.015625
            },
            {
              "pitch": 60,
              "velocity": 112,
              "position": 9.760416666666666,
              "duration": 0.015625
            },
            {
              "pitch": 75,
              "velocity": 120,
              "position": 10,
              "duration": 0.015625
            },
            {
              "pitch": 61,
              "velocity": 80,
              "position": 10,
              "duration": 0.015625
            },
            {
              "pitch": 62,
              "velocity": 84,
              "position": 10,
              "duration": 0.015625
            },
            {
              "pitch": 33,
              "velocity": 110,
              "position": 10,
              "duration": 0.015625
            },
            {
              "pitch": 33,
              "velocity": 68,
              "position": 10.25,
              "duration": 0.015625
            },
            {
              "pitch": 62,
              "velocity": 88,
              "position": 10.25,
              "duration": 0.015625
            },
            {
              "pitch": 61,
              "velocity": 80,
              "position": 10.260416666666666,
              "duration": 0.015625
            },
            {
              "pitch": 62,
              "velocity": 108,
              "position": 10.489583333333334,
              "duration": 0.015625
            },
            {
              "pitch": 33,
              "velocity": 90,
              "position": 10.489583333333334,
              "duration": 0.015625
            },
            {
              "pitch": 61,
              "velocity": 72,
              "position": 10.5,
              "duration": 0.015625
            },
            {
              "pitch": 60,
              "velocity": 80,
              "position": 10.75,
              "duration": 0.015625
            },
            {
              "pitch": 62,
              "velocity": 88,
              "position": 10.75,
              "duration": 0.015625
            },
            {
              "pitch": 33,
              "velocity": 110,
              "position": 10.75,
              "duration": 0.015625
            },
            {
              "pitch": 75,
              "velocity": 120,
              "position": 10.760416666666666,
              "duration": 0.015625
            },
            {
              "pitch": 62,
              "velocity": 100,
              "position": 11,
              "duration": 0.015625
            },
            {
              "pitch": 33,
              "velocity": 68,
              "position": 11,
              "duration": 0.015625
            },
            {
              "pitch": 60,
              "velocity": 80,
              "position": 11,
              "duration": 0.015625
            },
            {
              "pitch": 62,
              "velocity": 100,
              "position": 11.25,
              "duration": 0.015625
            },
            {
              "pitch": 61,
              "velocity": 92,
              "position": 11.25,
              "duration": 0.015625
            },
            {
              "pitch": 33,
              "velocity": 110,
              "position": 11.25,
              "duration": 0.015625
            },
            {
              "pitch": 61,
              "velocity": 92,
              "position": 11.489583333333334,
              "duration": 0.015625
            },
            {
              "pitch": 64,
              "velocity": 100,
              "position": 11.489583333333334,
              "duration": 0.015625
            },
            {
              "pitch": 33,
              "velocity": 72,
              "position": 11.5,
              "duration": 0.015625
            },
            {
              "pitch": 75,
              "velocity": 112,
              "position": 11.5,
              "duration": 0.015625
            },
            {
              "pitch": 61,
              "velocity": 80,
              "position": 11.75,
              "duration": 0.015625
            },
            {
              "pitch": 33,
              "velocity": 110,
              "position": 11.75,
              "duration": 0.015625
            },
            {
              "pitch": 64,
              "velocity": 102,
              "position": 11.75,
              "duration": 0.015625
            },
            {
              "pitch": 62,
              "velocity": 88,
              "position": 12,
              "duration": 0.015625
            },
            {
              "pitch": 60,
              "velocity": 92,
              "position": 12,
              "duration": 0.015625
            },
            {
              "pitch": 33,
              "velocity": 92,
              "position": 12.010416666666666,
              "duration": 0.015625
            },
            {
              "pitch": 62,
              "velocity": 100,
              "position": 12.25,
              "duration": 0.015625
            },
            {
              "pitch": 33,
              "velocity": 68,
              "position": 12.25,
              "duration": 0.015625
            },
            {
              "pitch": 61,
              "velocity": 80,
              "position": 12.260416666666666,
              "duration": 0.015625
            },
            {
              "pitch": 62,
              "velocity": 108,
              "position": 12.5,
              "duration": 0.015625
            },
            {
              "pitch": 75,
              "velocity": 120,
              "position": 12.5,
              "duration": 0.015625
            },
            {
              "pitch": 61,
              "velocity": 90,
              "position": 12.5,
              "duration": 0.015625
            },
            {
              "pitch": 33,
              "velocity": 110,
              "position": 12.5,
              "duration": 0.015625
            },
            {
              "pitch": 60,
              "velocity": 80,
              "position": 12.760416666666666,
              "duration": 0.015625
            },
            {
              "pitch": 62,
              "velocity": 88,
              "position": 12.760416666666666,
              "duration": 0.015625
            },
            {
              "pitch": 33,
              "velocity": 64,
              "position": 12.760416666666666,
              "duration": 0.015625
            },
            {
              "pitch": 62,
              "velocity": 100,
              "position": 13,
              "duration": 0.015625
            },
            {
              "pitch": 60,
              "velocity": 80,
              "position": 13,
              "duration": 0.015625
            },
            {
              "pitch": 33,
              "velocity": 90,
              "position": 13,
              "duration": 0.015625
            },
            {
              "pitch": 75,
              "velocity": 114,
              "position": 13.010416666666666,
              "duration": 0.015625
            },
            {
              "pitch": 62,
              "velocity": 88,
              "position": 13.25,
              "duration": 0.015625
            },
            {
              "pitch": 61,
              "velocity": 80,
              "position": 13.260416666666666,
              "duration": 0.015625
            },
            {
              "pitch": 33,
              "velocity": 110,
              "position": 13.260416666666666,
              "duration": 0.015625
            },
            {
              "pitch": 61,
              "velocity": 90,
              "position": 13.5,
              "duration": 0.015625
            },
            {
              "pitch": 64,
              "velocity": 100,
              "position": 13.5,
              "duration": 0.015625
            },
            {
              "pitch": 33,
              "velocity": 72,
              "position": 13.5,
              "duration": 0.015625
            },
            {
              "pitch": 64,
              "velocity": 100,
              "position": 13.760416666666666,
              "duration": 0.015625
            },
            {
              "pitch": 60,
              "velocity": 108,
              "position": 13.760416666666666,
              "duration": 0.015625
            },
            {
              "pitch": 33,
              "velocity": 90,
              "position": 13.760416666666666,
              "duration": 0.015625
            },
            {
              "pitch": 65,
              "velocity": 110,
              "position": 13.770833333333334,
              "duration": 0.015625
            },
            {
              "pitch": 62,
              "velocity": 88,
              "position": 14,
              "duration": 0.015625
            },
            {
              "pitch": 61,
              "velocity": 72,
              "position": 14,
              "duration": 0.015625
            },
            {
              "pitch": 75,
              "velocity": 120,
              "position": 14.010416666666666,
              "duration": 0.015625
            },
            {
              "pitch": 33,
              "velocity": 90,
              "position": 14.010416666666666,
              "duration": 0.015625
            },
            {
              "pitch": 66,
              "velocity": 110,
              "position": 14.010416666666666,
              "duration": 0.015625
            },
            {
              "pitch": 62,
              "velocity": 88,
              "position": 14.25,
              "duration": 0.015625
            },
            {
              "pitch": 61,
              "velocity": 72,
              "position": 14.260416666666666,
              "duration": 0.015625
            },
            {
              "pitch": 33,
              "velocity": 72,
              "position": 14.260416666666666,
              "duration": 0.015625
            },
            {
              "pitch": 62,
              "velocity": 108,
              "position": 14.489583333333334,
              "duration": 0.015625
            },
            {
              "pitch": 66,
              "velocity": 110,
              "position": 14.5,
              "duration": 0.015625
            },
            {
              "pitch": 33,
              "velocity": 92,
              "position": 14.5,
              "duration": 0.015625
            },
            {
              "pitch": 61,
              "velocity": 80,
              "position": 14.5,
              "duration": 0.015625
            },
            {
              "pitch": 62,
              "velocity": 88,
              "position": 14.75,
              "duration": 0.015625
            },
            {
              "pitch": 60,
              "velocity": 92,
              "position": 14.75,
              "duration": 0.015625
            },
            {
              "pitch": 33,
              "velocity": 92,
              "position": 14.760416666666666,
              "duration": 0.015625
            },
            {
              "pitch": 75,
              "velocity": 112,
              "position": 14.760416666666666,
              "duration": 0.015625
            },
            {
              "pitch": 65,
              "velocity": 112,
              "position": 14.760416666666666,
              "duration": 0.015625
            },
            {
              "pitch": 60,
              "velocity": 92,
              "position": 15,
              "duration": 0.015625
            },
            {
              "pitch": 62,
              "velocity": 88,
              "position": 15,
              "duration": 0.015625
            },
            {
              "pitch": 33,
              "velocity": 70,
              "position": 15,
              "duration": 0.015625
            },
            {
              "pitch": 61,
              "velocity": 80,
              "position": 15.25,
              "duration": 0.015625
            },
            {
              "pitch": 62,
              "velocity": 88,
              "position": 15.25,
              "duration": 0.015625
            },
            {
              "pitch": 33,
              "velocity": 110,
              "position": 15.260416666666666,
              "duration": 0.015625
            },
            {
              "pitch": 61,
              "velocity": 90,
              "position": 15.489583333333334,
              "duration": 0.015625
            },
            {
              "pitch": 64,
              "velocity": 100,
              "position": 15.5,
              "duration": 0.015625
            },
            {
              "pitch": 33,
              "velocity": 72,
              "position": 15.5,
              "duration": 0.015625
            },
            {
              "pitch": 75,
              "velocity": 120,
              "position": 15.5,
              "duration": 0.015625
            },
            {
              "pitch": 65,
              "velocity": 80,
              "position": 15.510416666666666,
              "duration": 0.015625
            },
            {
              "pitch": 65,
              "velocity": 92,
              "position": 15.645833333333334,
              "duration": 0.015625
            },
            {
              "pitch": 61,
              "velocity": 80,
              "position": 15.75,
              "duration": 0.015625
            },
            {
              "pitch": 33,
              "velocity": 106,
              "position": 15.75,
              "duration": 0.015625
            },
            {
              "pitch": 64,
              "velocity": 104,
              "position": 15.75,
              "duration": 0.015625
            },
            {
              "pitch": 65,
              "velocity": 88,
              "position": 15.770833333333334,
              "duration": 0.015625
            },
            {
              "pitch": 65,
              "velocity": 110,
              "position": 15.875,
              "duration": 0.015625
            }
          ]
        },
        "12": {
          "ctab": {
            "srcChannel": 12,
            "name": "Aco.Bass",
            "accType": "BASS",
            "editable": false,
            "mutedNotes": [],
            "mutedChords": [
              "dim7",
              "dim",
              "minMaj7(9)",
              "minMaj7",
              "min7(11)",
              "min7(9)",
              "min(9)",
              "m7b5",
              "min7",
              "min6",
              "min"
            ],
            "autoStart": false,
            "sourceChordNote": 0,
            "sourceChordType": "Maj",
            "ctb2Low": null,
            "ctb2Main": {
              "ntr": "ROOT_TRANSPOSITION",
              "ntt": "MELODY",
              "bassOn": true,
              "chordRootUpperLimit": 3,
              "noteLowLimit": 28,
              "noteHighLimit": 54,
              "rtr": "PITCH_SHIFT_TO_ROOT"
            },
            "ctb2High": null
          },
          "notes": [
            {
              "pitch": 36,
              "velocity": 120,
              "position": 0,
              "duration": 0.6354166666666666
            },
            {
              "pitch": 43,
              "velocity": 120,
              "position": 0.75,
              "duration": 0.7083333333333334
            },
            {
              "pitch": 48,
              "velocity": 118,
              "position": 1.5,
              "duration": 0.46875
            },
            {
              "pitch": 51,
              "velocity": 110,
              "position": 2,
              "duration": 0.7291666666666666
            },
            {
              "pitch": 46,
              "velocity": 122,
              "position": 2.7395833333333335,
              "duration": 0.11458333333333333
            },
            {
              "pitch": 46,
              "velocity": 104,
              "position": 3,
              "duration": 0.4375
            },
            {
              "pitch": 38,
              "velocity": 120,
              "position": 3.4895833333333335,
              "duration": 1.1770833333333333
            },
            {
              "pitch": 45,
              "velocity": 104,
              "position": 4.760416666666667,
              "duration": 0.6666666666666666
            },
            {
              "pitch": 43,
              "velocity": 120,
              "position": 5.5,
              "duration": 0.9583333333333334
            },
            {
              "pitch": 31,
              "velocity": 104,
              "position": 6.739583333333333,
              "duration": 0.14583333333333334
            },
            {
              "pitch": 31,
              "velocity": 104,
              "position": 7,
              "duration": 0.46875
            },
            {
              "pitch": 36,
              "velocity": 120,
              "position": 7.5,
              "duration": 1.1041666666666667
            },
            {
              "pitch": 43,
              "velocity": 126,
              "position": 8.760416666666666,
              "duration": 0.5416666666666666
            },
            {
              "pitch": 48,
              "velocity": 122,
              "position": 9.5,
              "duration": 1.1145833333333333
            },
            {
              "pitch": 43,
              "velocity": 122,
              "position": 10.760416666666666,
              "duration": 0.625
            },
            {
              "pitch": 36,
              "velocity": 120,
              "position": 11.5,
              "duration": 1.0729166666666667
            },
            {
              "pitch": 43,
              "velocity": 122,
              "position": 12.760416666666666,
              "duration": 0.6458333333333334
            },
            {
              "pitch": 48,
              "velocity": 120,
              "position": 13.5,
              "duration": 1.0625
            },
            {
              "pitch": 31,
              "velocity": 94,
              "position": 14.760416666666666,
              "duration": 0.19791666666666666
            },
            {
              "pitch": 31,
              "velocity": 112,
              "position": 15,
              "duration": 0.3645833333333333
            },
            {
              "pitch": 36,
              "velocity": 122,
              "position": 15.5,
              "duration": 0.4791666666666667
            }
          ]
        },
        "13": {
          "ctab": {
            "srcChannel": 13,
            "name": "Aco.Bass",
            "accType": "BASS",
            "editable": false,
            "mutedNotes": [],
            "mutedChords": [
              "1+2+5",
              "sus4",
              "1+5",
              "1+8",
              "7aug",
              "Maj7aug",
              "7(#9)",
              "7(b13)",
              "7(b9)",
              "7(13)",
              "7#11",
              "7(9)",
              "7b5",
              "7sus4",
              "7th",
              "aug",
              "Maj6(9)",
              "Maj7(9)",
              "Maj(9)",
              "Maj7#11",
              "Maj7",
              "Maj6",
              "Maj"
            ],
            "autoStart": false,
            "sourceChordNote": 0,
            "sourceChordType": "min",
            "ctb2Low": null,
            "ctb2Main": {
              "ntr": "ROOT_TRANSPOSITION",
              "ntt": "MELODY",
              "bassOn": true,
              "chordRootUpperLimit": 3,
              "noteLowLimit": 28,
              "noteHighLimit": 54,
              "rtr": "PITCH_SHIFT_TO_ROOT"
            },
            "ctb2High": null
          },
          "notes": []
        },
        "14": {
          "ctab": {
            "srcChannel": 14,
            "name": "GrandPno",
            "accType": "CHORD1",
            "editable": false,
            "mutedNotes": [],
            "mutedChords": [
              "dim7",
              "dim",
              "minMaj7(9)",
              "minMaj7",
              "min7(11)",
              "min7(9)",
              "min(9)",
              "m7b5",
              "min7",
              "min6",
              "min"
            ],
            "autoStart": false,
            "sourceChordNote": 0,
            "sourceChordType": "Maj",
            "ctb2Low": null,
            "ctb2Main": {
              "ntr": "ROOT_TRANSPOSITION",
              "ntt": "BYPASS",
              "bassOn": false,
              "chordRootUpperLimit": 6,
              "noteLowLimit": 0,
              "noteHighLimit": 79,
              "rtr": "PITCH_SHIFT"
            },
            "ctb2High": null
          },
          "notes": [
            {
              "pitch": 60,
              "velocity": 92,
              "position": 0,
              "duration": 0.3645833333333333
            },
            {
              "pitch": 72,
              "velocity": 110,
              "position": 0,
              "duration": 0.3854166666666667
            },
            {
              "pitch": 79,
              "velocity": 92,
              "position": 0.5,
              "duration": 0.6770833333333334
            },
            {
              "pitch": 64,
              "velocity": 80,
              "position": 0.5,
              "duration": 0.6875
            },
            {
              "pitch": 67,
              "velocity": 68,
              "position": 0.5,
              "duration": 0.6875
            },
            {
              "pitch": 76,
              "velocity": 104,
              "position": 0.5,
              "duration": 0.7083333333333334
            },
            {
              "pitch": 71,
              "velocity": 92,
              "position": 1.25,
              "duration": 0.3333333333333333
            },
            {
              "pitch": 59,
              "velocity": 80,
              "position": 1.2604166666666667,
              "duration": 0.375
            },
            {
              "pitch": 61,
              "velocity": 90,
              "position": 1.7604166666666667,
              "duration": 0.4166666666666667
            },
            {
              "pitch": 73,
              "velocity": 90,
              "position": 1.75,
              "duration": 0.4583333333333333
            },
            {
              "pitch": 82,
              "velocity": 80,
              "position": 2.2604166666666665,
              "duration": 0.3645833333333333
            },
            {
              "pitch": 79,
              "velocity": 88,
              "position": 2.25,
              "duration": 0.40625
            },
            {
              "pitch": 70,
              "velocity": 72,
              "position": 2.2604166666666665,
              "duration": 0.40625
            },
            {
              "pitch": 67,
              "velocity": 68,
              "position": 2.2604166666666665,
              "duration": 0.4270833333333333
            },
            {
              "pitch": 61,
              "velocity": 92,
              "position": 2.75,
              "duration": 0.4375
            },
            {
              "pitch": 73,
              "velocity": 110,
              "position": 2.75,
              "duration": 0.4479166666666667
            },
            {
              "pitch": 70,
              "velocity": 80,
              "position": 3.2604166666666665,
              "duration": 0.375
            },
            {
              "pitch": 82,
              "velocity": 88,
              "position": 3.25,
              "duration": 0.3958333333333333
            },
            {
              "pitch": 79,
              "velocity": 88,
              "position": 3.25,
              "duration": 0.4166666666666667
            },
            {
              "pitch": 67,
              "velocity": 68,
              "position": 3.2604166666666665,
              "duration": 0.40625
            },
            {
              "pitch": 73,
              "velocity": 104,
              "position": 3.75,
              "duration": 0.17708333333333334
            },
            {
              "pitch": 61,
              "velocity": 110,
              "position": 3.75,
              "duration": 0.17708333333333334
            },
            {
              "pitch": 72,
              "velocity": 88,
              "position": 4,
              "duration": 0.17708333333333334
            },
            {
              "pitch": 60,
              "velocity": 88,
              "position": 4,
              "duration": 0.1875
            },
            {
              "pitch": 65,
              "velocity": 90,
              "position": 4.25,
              "duration": 0.1875
            },
            {
              "pitch": 77,
              "velocity": 104,
              "position": 4.25,
              "duration": 0.1875
            },
            {
              "pitch": 69,
              "velocity": 88,
              "position": 4.5,
              "duration": 0.23958333333333334
            },
            {
              "pitch": 81,
              "velocity": 76,
              "position": 4.5,
              "duration": 0.2604166666666667
            },
            {
              "pitch": 60,
              "velocity": 94,
              "position": 4.760416666666667,
              "duration": 0.40625
            },
            {
              "pitch": 72,
              "velocity": 80,
              "position": 4.760416666666667,
              "duration": 0.4270833333333333
            },
            {
              "pitch": 81,
              "velocity": 88,
              "position": 5.260416666666667,
              "duration": 0.3958333333333333
            },
            {
              "pitch": 69,
              "velocity": 76,
              "position": 5.25,
              "duration": 0.4375
            },
            {
              "pitch": 65,
              "velocity": 110,
              "position": 5.25,
              "duration": 0.4791666666666667
            },
            {
              "pitch": 77,
              "velocity": 90,
              "position": 5.25,
              "duration": 0.4791666666666667
            },
            {
              "pitch": 71,
              "velocity": 90,
              "position": 5.760416666666667,
              "duration": 0.4166666666666667
            },
            {
              "pitch": 59,
              "velocity": 90,
              "position": 5.760416666666667,
              "duration": 0.4479166666666667
            },
            {
              "pitch": 67,
              "velocity": 88,
              "position": 6.25,
              "duration": 0.3541666666666667
            },
            {
              "pitch": 65,
              "velocity": 88,
              "position": 6.25,
              "duration": 0.375
            },
            {
              "pitch": 79,
              "velocity": 88,
              "position": 6.260416666666667,
              "duration": 0.375
            },
            {
              "pitch": 77,
              "velocity": 110,
              "position": 6.260416666666667,
              "duration": 0.3958333333333333
            },
            {
              "pitch": 59,
              "velocity": 92,
              "position": 6.75,
              "duration": 0.4270833333333333
            },
            {
              "pitch": 71,
              "velocity": 92,
              "position": 6.75,
              "duration": 0.4791666666666667
            },
            {
              "pitch": 67,
              "velocity": 88,
              "position": 7.25,
              "duration": 0.1875
            },
            {
              "pitch": 65,
              "velocity": 88,
              "position": 7.25,
              "duration": 0.20833333333333334
            },
            {
              "pitch": 79,
              "velocity": 88,
              "position": 7.260416666666667,
              "duration": 0.19791666666666666
            },
            {
              "pitch": 77,
              "velocity": 76,
              "position": 7.260416666666667,
              "duration": 0.21875
            },
            {
              "pitch": 69,
              "velocity": 72,
              "position": 7.5,
              "duration": 0.1875
            },
            {
              "pitch": 57,
              "velocity": 92,
              "position": 7.5,
              "duration": 0.22916666666666666
            },
            {
              "pitch": 59,
              "velocity": 80,
              "position": 7.75,
              "duration": 0.17708333333333334
            },
            {
              "pitch": 71,
              "velocity": 94,
              "position": 7.75,
              "duration": 0.17708333333333334
            },
            {
              "pitch": 72,
              "velocity": 104,
              "position": 8,
              "duration": 0.1875
            },
            {
              "pitch": 60,
              "velocity": 90,
              "position": 8,
              "duration": 0.23958333333333334
            },
            {
              "pitch": 64,
              "velocity": 80,
              "position": 8.25,
              "duration": 0.19791666666666666
            },
            {
              "pitch": 76,
              "velocity": 90,
              "position": 8.25,
              "duration": 0.20833333333333334
            },
            {
              "pitch": 67,
              "velocity": 104,
              "position": 8.5,
              "duration": 0.23958333333333334
            },
            {
              "pitch": 79,
              "velocity": 88,
              "position": 8.5,
              "duration": 0.2916666666666667
            },
            {
              "pitch": 59,
              "velocity": 88,
              "position": 8.770833333333334,
              "duration": 0.375
            },
            {
              "pitch": 71,
              "velocity": 94,
              "position": 8.760416666666666,
              "duration": 0.4479166666666667
            },
            {
              "pitch": 67,
              "velocity": 80,
              "position": 9.260416666666666,
              "duration": 0.3854166666666667
            },
            {
              "pitch": 64,
              "velocity": 104,
              "position": 9.260416666666666,
              "duration": 0.3854166666666667
            },
            {
              "pitch": 79,
              "velocity": 104,
              "position": 9.260416666666666,
              "duration": 0.3958333333333333
            },
            {
              "pitch": 76,
              "velocity": 124,
              "position": 9.260416666666666,
              "duration": 0.4479166666666667
            },
            {
              "pitch": 60,
              "velocity": 88,
              "position": 9.760416666666666,
              "duration": 0.3958333333333333
            },
            {
              "pitch": 72,
              "velocity": 104,
              "position": 9.760416666666666,
              "duration": 0.4375
            },
            {
              "pitch": 79,
              "velocity": 94,
              "position": 10.260416666666666,
              "duration": 0.40625
            },
            {
              "pitch": 64,
              "velocity": 88,
              "position": 10.260416666666666,
              "duration": 0.4166666666666667
            },
            {
              "pitch": 67,
              "velocity": 80,
              "position": 10.260416666666666,
              "duration": 0.4270833333333333
            },
            {
              "pitch": 76,
              "velocity": 80,
              "position": 10.260416666666666,
              "duration": 0.4479166666666667
            },
            {
              "pitch": 71,
              "velocity": 92,
              "position": 10.75,
              "duration": 0.4375
            },
            {
              "pitch": 59,
              "velocity": 92,
              "position": 10.760416666666666,
              "duration": 0.4375
            },
            {
              "pitch": 67,
              "velocity": 88,
              "position": 11.25,
              "duration": 0.3854166666666667
            },
            {
              "pitch": 64,
              "velocity": 110,
              "position": 11.25,
              "duration": 0.3958333333333333
            },
            {
              "pitch": 79,
              "velocity": 88,
              "position": 11.25,
              "duration": 0.40625
            },
            {
              "pitch": 76,
              "velocity": 110,
              "position": 11.25,
              "duration": 0.4583333333333333
            },
            {
              "pitch": 59,
              "velocity": 90,
              "position": 11.75,
              "duration": 0.19791666666666666
            },
            {
              "pitch": 71,
              "velocity": 92,
              "position": 11.75,
              "duration": 0.19791666666666666
            },
            {
              "pitch": 72,
              "velocity": 88,
              "position": 12,
              "duration": 0.17708333333333334
            },
            {
              "pitch": 60,
              "velocity": 88,
              "position": 12,
              "duration": 0.1875
            },
            {
              "pitch": 64,
              "velocity": 90,
              "position": 12.25,
              "duration": 0.1875
            },
            {
              "pitch": 76,
              "velocity": 104,
              "position": 12.25,
              "duration": 0.1875
            },
            {
              "pitch": 67,
              "velocity": 88,
              "position": 12.5,
              "duration": 0.23958333333333334
            },
            {
              "pitch": 79,
              "velocity": 76,
              "position": 12.5,
              "duration": 0.2604166666666667
            },
            {
              "pitch": 59,
              "velocity": 94,
              "position": 12.760416666666666,
              "duration": 0.40625
            },
            {
              "pitch": 71,
              "velocity": 80,
              "position": 12.760416666666666,
              "duration": 0.4270833333333333
            },
            {
              "pitch": 79,
              "velocity": 88,
              "position": 13.260416666666666,
              "duration": 0.3958333333333333
            },
            {
              "pitch": 67,
              "velocity": 76,
              "position": 13.25,
              "duration": 0.4375
            },
            {
              "pitch": 64,
              "velocity": 110,
              "position": 13.25,
              "duration": 0.4791666666666667
            },
            {
              "pitch": 76,
              "velocity": 90,
              "position": 13.25,
              "duration": 0.4791666666666667
            },
            {
              "pitch": 72,
              "velocity": 90,
              "position": 13.760416666666666,
              "duration": 0.4166666666666667
            },
            {
              "pitch": 60,
              "velocity": 90,
              "position": 13.760416666666666,
              "duration": 0.4479166666666667
            },
            {
              "pitch": 67,
              "velocity": 88,
              "position": 14.25,
              "duration": 0.3541666666666667
            },
            {
              "pitch": 64,
              "velocity": 88,
              "position": 14.25,
              "duration": 0.375
            },
            {
              "pitch": 79,
              "velocity": 88,
              "position": 14.260416666666666,
              "duration": 0.375
            },
            {
              "pitch": 76,
              "velocity": 110,
              "position": 14.260416666666666,
              "duration": 0.3958333333333333
            },
            {
              "pitch": 59,
              "velocity": 92,
              "position": 14.75,
              "duration": 0.4270833333333333
            },
            {
              "pitch": 71,
              "velocity": 92,
              "position": 14.75,
              "duration": 0.4791666666666667
            },
            {
              "pitch": 67,
              "velocity": 88,
              "position": 15.25,
              "duration": 0.1875
            },
            {
              "pitch": 64,
              "velocity": 88,
              "position": 15.25,
              "duration": 0.20833333333333334
            },
            {
              "pitch": 79,
              "velocity": 88,
              "position": 15.260416666666666,
              "duration": 0.19791666666666666
            },
            {
              "pitch": 76,
              "velocity": 76,
              "position": 15.260416666666666,
              "duration": 0.21875
            },
            {
              "pitch": 69,
              "velocity": 72,
              "position": 15.5,
              "duration": 0.1875
            },
            {
              "pitch": 57,
              "velocity": 92,
              "position": 15.5,
              "duration": 0.22916666666666666
            },
            {
              "pitch": 59,
              "velocity": 80,
              "position": 15.75,
              "duration": 0.17708333333333334
            },
            {
              "pitch": 71,
              "velocity": 94,
              "position": 15.75,
              "duration": 0.17708333333333334
            }
          ]
        },
        "15": {
          "ctab": {
            "srcChannel": 15,
            "name": "GrandPno",
            "accType": "CHORD1",
            "editable": false,
            "mutedNotes": [],
            "mutedChords": [
              "1+2+5",
              "sus4",
              "1+5",
              "1+8",
              "7aug",
              "Maj7aug",
              "7(#9)",
              "7(b13)",
              "7(b9)",
              "7(13)",
              "7#11",
              "7(9)",
              "7b5",
              "7sus4",
              "7th",
              "aug",
              "Maj6(9)",
              "Maj7(9)",
              "Maj(9)",
              "Maj7#11",
              "Maj7",
              "Maj6",
              "Maj"
            ],
            "autoStart": false,
            "sourceChordNote": 0,
            "sourceChordType": "min",
            "ctb2Low": null,
            "ctb2Main": {
              "ntr": "ROOT_TRANSPOSITION",
              "ntt": "BYPASS",
              "bassOn": false,
              "chordRootUpperLimit": 6,
              "noteLowLimit": 0,
              "noteHighLimit": 127,
              "rtr": "PITCH_SHIFT"
            },
            "ctb2High": null
          },
          "notes": [
            {
              "pitch": 62,
              "velocity": 126,
              "position": 0,
              "duration": 0.9791666666666666
            },
            {
              "pitch": 63,
              "velocity": 106,
              "position": 0,
              "duration": 0.9895833333333334
            },
            {
              "pitch": 67,
              "velocity": 126,
              "position": 0,
              "duration": 1
            },
            {
              "pitch": 48,
              "velocity": 94,
              "position": 0,
              "duration": 1.0104166666666667
            },
            {
              "pitch": 57,
              "velocity": 80,
              "position": 0,
              "duration": 1.0520833333333333
            },
            {
              "pitch": 63,
              "velocity": 102,
              "position": 1.2604166666666667,
              "duration": 0.125
            },
            {
              "pitch": 62,
              "velocity": 102,
              "position": 1.2604166666666667,
              "duration": 0.125
            },
            {
              "pitch": 57,
              "velocity": 110,
              "position": 1.2604166666666667,
              "duration": 0.13541666666666666
            },
            {
              "pitch": 48,
              "velocity": 94,
              "position": 1.2604166666666667,
              "duration": 0.14583333333333334
            },
            {
              "pitch": 67,
              "velocity": 102,
              "position": 1.2604166666666667,
              "duration": 0.14583333333333334
            },
            {
              "pitch": 62,
              "velocity": 90,
              "position": 1.7604166666666667,
              "duration": 1.6875
            },
            {
              "pitch": 67,
              "velocity": 110,
              "position": 1.7604166666666667,
              "duration": 1.75
            },
            {
              "pitch": 56,
              "velocity": 94,
              "position": 1.7604166666666667,
              "duration": 1.7604166666666667
            },
            {
              "pitch": 46,
              "velocity": 90,
              "position": 1.7604166666666667,
              "duration": 1.7708333333333333
            },
            {
              "pitch": 72,
              "velocity": 110,
              "position": 1.7604166666666667,
              "duration": 1.7708333333333333
            },
            {
              "pitch": 70,
              "velocity": 102,
              "position": 4.010416666666667,
              "duration": 0.5
            },
            {
              "pitch": 44,
              "velocity": 90,
              "position": 4.010416666666667,
              "duration": 0.5104166666666666
            },
            {
              "pitch": 60,
              "velocity": 94,
              "position": 4.010416666666667,
              "duration": 0.53125
            },
            {
              "pitch": 54,
              "velocity": 110,
              "position": 4.010416666666667,
              "duration": 0.53125
            },
            {
              "pitch": 65,
              "velocity": 102,
              "position": 4.010416666666667,
              "duration": 0.53125
            },
            {
              "pitch": 54,
              "velocity": 80,
              "position": 4.770833333333333,
              "duration": 0.09375
            },
            {
              "pitch": 70,
              "velocity": 70,
              "position": 4.770833333333333,
              "duration": 0.10416666666666667
            },
            {
              "pitch": 44,
              "velocity": 80,
              "position": 4.78125,
              "duration": 0.09375
            },
            {
              "pitch": 65,
              "velocity": 62,
              "position": 4.770833333333333,
              "duration": 0.11458333333333333
            },
            {
              "pitch": 60,
              "velocity": 80,
              "position": 4.770833333333333,
              "duration": 0.13541666666666666
            },
            {
              "pitch": 60,
              "velocity": 98,
              "position": 5.260416666666667,
              "duration": 0.125
            },
            {
              "pitch": 65,
              "velocity": 104,
              "position": 5.270833333333333,
              "duration": 0.125
            },
            {
              "pitch": 70,
              "velocity": 104,
              "position": 5.270833333333333,
              "duration": 0.125
            },
            {
              "pitch": 54,
              "velocity": 104,
              "position": 5.270833333333333,
              "duration": 0.13541666666666666
            },
            {
              "pitch": 44,
              "velocity": 108,
              "position": 5.270833333333333,
              "duration": 0.16666666666666666
            },
            {
              "pitch": 59,
              "velocity": 80,
              "position": 5.760416666666667,
              "duration": 0.6875
            },
            {
              "pitch": 63,
              "velocity": 94,
              "position": 5.760416666666667,
              "duration": 0.71875
            },
            {
              "pitch": 43,
              "velocity": 94,
              "position": 5.760416666666667,
              "duration": 0.7291666666666666
            },
            {
              "pitch": 68,
              "velocity": 94,
              "position": 5.770833333333333,
              "duration": 0.71875
            },
            {
              "pitch": 53,
              "velocity": 94,
              "position": 5.760416666666667,
              "duration": 0.7604166666666666
            },
            {
              "pitch": 53,
              "velocity": 122,
              "position": 6.760416666666667,
              "duration": 0.14583333333333334
            },
            {
              "pitch": 59,
              "velocity": 92,
              "position": 6.760416666666667,
              "duration": 0.14583333333333334
            },
            {
              "pitch": 63,
              "velocity": 92,
              "position": 6.760416666666667,
              "duration": 0.14583333333333334
            },
            {
              "pitch": 43,
              "velocity": 80,
              "position": 6.760416666666667,
              "duration": 0.14583333333333334
            },
            {
              "pitch": 68,
              "velocity": 122,
              "position": 6.760416666666667,
              "duration": 0.15625
            },
            {
              "pitch": 63,
              "velocity": 76,
              "position": 7,
              "duration": 0.125
            },
            {
              "pitch": 59,
              "velocity": 80,
              "position": 7,
              "duration": 0.13541666666666666
            },
            {
              "pitch": 43,
              "velocity": 78,
              "position": 7,
              "duration": 0.14583333333333334
            },
            {
              "pitch": 53,
              "velocity": 84,
              "position": 7.010416666666667,
              "duration": 0.13541666666666666
            },
            {
              "pitch": 68,
              "velocity": 80,
              "position": 7,
              "duration": 0.15625
            },
            {
              "pitch": 63,
              "velocity": 90,
              "position": 7.5,
              "duration": 0.4583333333333333
            },
            {
              "pitch": 62,
              "velocity": 104,
              "position": 7.5,
              "duration": 0.46875
            },
            {
              "pitch": 48,
              "velocity": 80,
              "position": 7.5,
              "duration": 0.46875
            },
            {
              "pitch": 67,
              "velocity": 88,
              "position": 7.5,
              "duration": 0.4791666666666667
            },
            {
              "pitch": 57,
              "velocity": 80,
              "position": 7.5,
              "duration": 0.4791666666666667
            },
            {
              "pitch": 60,
              "velocity": 98,
              "position": 8.010416666666666,
              "duration": 0.2916666666666667
            },
            {
              "pitch": 72,
              "velocity": 120,
              "position": 8,
              "duration": 0.3229166666666667
            },
            {
              "pitch": 63,
              "velocity": 98,
              "position": 8.489583333333334,
              "duration": 0.16666666666666666
            },
            {
              "pitch": 75,
              "velocity": 98,
              "position": 8.489583333333334,
              "duration": 0.20833333333333334
            },
            {
              "pitch": 67,
              "velocity": 88,
              "position": 8.75,
              "duration": 0.3333333333333333
            },
            {
              "pitch": 55,
              "velocity": 102,
              "position": 8.760416666666666,
              "duration": 0.3541666666666667
            },
            {
              "pitch": 57,
              "velocity": 98,
              "position": 9.25,
              "duration": 0.3854166666666667
            },
            {
              "pitch": 69,
              "velocity": 98,
              "position": 9.239583333333334,
              "duration": 0.40625
            },
            {
              "pitch": 72,
              "velocity": 102,
              "position": 9.75,
              "duration": 0.3541666666666667
            },
            {
              "pitch": 60,
              "velocity": 100,
              "position": 9.75,
              "duration": 0.4166666666666667
            },
            {
              "pitch": 63,
              "velocity": 116,
              "position": 10.260416666666666,
              "duration": 0.3958333333333333
            },
            {
              "pitch": 75,
              "velocity": 120,
              "position": 10.260416666666666,
              "duration": 0.4479166666666667
            },
            {
              "pitch": 67,
              "velocity": 100,
              "position": 10.760416666666666,
              "duration": 0.3958333333333333
            },
            {
              "pitch": 55,
              "velocity": 98,
              "position": 10.760416666666666,
              "duration": 0.4270833333333333
            },
            {
              "pitch": 57,
              "velocity": 112,
              "position": 11.260416666666666,
              "duration": 0.34375
            },
            {
              "pitch": 69,
              "velocity": 120,
              "position": 11.25,
              "duration": 0.375
            },
            {
              "pitch": 60,
              "velocity": 88,
              "position": 11.75,
              "duration": 0.10416666666666667
            },
            {
              "pitch": 72,
              "velocity": 116,
              "position": 11.760416666666666,
              "duration": 0.125
            },
            {
              "pitch": 72,
              "velocity": 120,
              "position": 12.010416666666666,
              "duration": 0.3125
            },
            {
              "pitch": 60,
              "velocity": 120,
              "position": 12.010416666666666,
              "duration": 0.3541666666666667
            },
            {
              "pitch": 63,
              "velocity": 88,
              "position": 12.510416666666666,
              "duration": 0.09375
            },
            {
              "pitch": 75,
              "velocity": 102,
              "position": 12.5,
              "duration": 0.19791666666666666
            },
            {
              "pitch": 55,
              "velocity": 102,
              "position": 12.760416666666666,
              "duration": 0.3645833333333333
            },
            {
              "pitch": 67,
              "velocity": 102,
              "position": 12.760416666666666,
              "duration": 0.375
            },
            {
              "pitch": 57,
              "velocity": 100,
              "position": 13.25,
              "duration": 0.3854166666666667
            },
            {
              "pitch": 69,
              "velocity": 116,
              "position": 13.25,
              "duration": 0.40625
            },
            {
              "pitch": 60,
              "velocity": 120,
              "position": 13.75,
              "duration": 0.17708333333333334
            },
            {
              "pitch": 72,
              "velocity": 120,
              "position": 13.760416666666666,
              "duration": 0.1875
            },
            {
              "pitch": 67,
              "velocity": 126,
              "position": 14.760416666666666,
              "duration": 1.0520833333333333
            },
            {
              "pitch": 79,
              "velocity": 126,
              "position": 14.760416666666666,
              "duration": 1.0520833333333333
            },
            {
              "pitch": 43,
              "velocity": 126,
              "position": 14.760416666666666,
              "duration": 1.0520833333333333
            },
            {
              "pitch": 55,
              "velocity": 106,
              "position": 14.760416666666666,
              "duration": 1.0520833333333333
            }
          ]
        }
      }
    },
    "Intro_C": {
      "type": "Intro_C",
      "sizeInBeats": 16,
      "channels": {
        "1": {
          "ctab": {
            "srcChannel": 1,
            "name": "BrasSect",
            "accType": "PHRASE1",
            "editable": false,
            "mutedNotes": [],
            "mutedChords": [
              "dim7",
              "dim",
              "minMaj7(9)",
              "minMaj7",
              "min7(11)",
              "min7(9)",
              "min(9)",
              "m7b5",
              "min7",
              "min6",
              "min"
            ],
            "autoStart": false,
            "sourceChordNote": 0,
            "sourceChordType": "Maj",
            "ctb2Low": null,
            "ctb2Main": {
              "ntr": "ROOT_TRANSPOSITION",
              "ntt": "BYPASS",
              "bassOn": false,
              "chordRootUpperLimit": 6,
              "noteLowLimit": 0,
              "noteHighLimit": 127,
              "rtr": "PITCH_SHIFT"
            },
            "ctb2High": null
          },
          "notes": [
            {
              "pitch": 78,
              "velocity": 118,
              "position": 0,
              "duration": 0.23958333333333334
            },
            {
              "pitch": 74,
              "velocity": 110,
              "position": 0,
              "duration": 0.23958333333333334
            },
            {
              "pitch": 79,
              "velocity": 126,
              "position": 0,
              "duration": 0.25
            },
            {
              "pitch": 76,
              "velocity": 124,
              "position": 0,
              "duration": 0.28125
            },
            {
              "pitch": 71,
              "velocity": 110,
              "position": 0,
              "duration": 0.2916666666666667
            },
            {
              "pitch": 77,
              "velocity": 90,
              "position": 0.22916666666666666,
              "duration": 0.10416666666666667
            },
            {
              "pitch": 74,
              "velocity": 90,
              "position": 0.25,
              "duration": 0.09375
            },
            {
              "pitch": 76,
              "velocity": 92,
              "position": 0.2916666666666667,
              "duration": 0.08333333333333333
            },
            {
              "pitch": 69,
              "velocity": 64,
              "position": 0.2916666666666667,
              "duration": 0.09375
            },
            {
              "pitch": 72,
              "velocity": 80,
              "position": 0.34375,
              "duration": 0.0625
            },
            {
              "pitch": 74,
              "velocity": 90,
              "position": 0.3541666666666667,
              "duration": 0.0625
            },
            {
              "pitch": 67,
              "velocity": 92,
              "position": 0.3958333333333333,
              "duration": 0.07291666666666667
            },
            {
              "pitch": 72,
              "velocity": 88,
              "position": 0.4270833333333333,
              "duration": 0.0625
            },
            {
              "pitch": 73,
              "velocity": 72,
              "position": 0.3645833333333333,
              "duration": 0.13541666666666666
            },
            {
              "pitch": 71,
              "velocity": 88,
              "position": 0.4270833333333333,
              "duration": 0.07291666666666667
            },
            {
              "pitch": 65,
              "velocity": 80,
              "position": 0.46875,
              "duration": 0.07291666666666667
            },
            {
              "pitch": 72,
              "velocity": 68,
              "position": 0.5104166666666666,
              "duration": 0.0625
            },
            {
              "pitch": 64,
              "velocity": 52,
              "position": 0.5416666666666666,
              "duration": 0.041666666666666664
            },
            {
              "pitch": 71,
              "velocity": 122,
              "position": 0.7604166666666666,
              "duration": 0.19791666666666666
            },
            {
              "pitch": 79,
              "velocity": 122,
              "position": 0.7604166666666666,
              "duration": 0.20833333333333334
            },
            {
              "pitch": 74,
              "velocity": 118,
              "position": 0.7604166666666666,
              "duration": 0.20833333333333334
            },
            {
              "pitch": 76,
              "velocity": 118,
              "position": 0.7604166666666666,
              "duration": 0.20833333333333334
            },
            {
              "pitch": 71,
              "velocity": 78,
              "position": 1.0104166666666667,
              "duration": 0.20833333333333334
            },
            {
              "pitch": 79,
              "velocity": 94,
              "position": 1.0208333333333333,
              "duration": 0.20833333333333334
            },
            {
              "pitch": 74,
              "velocity": 84,
              "position": 1.0104166666666667,
              "duration": 0.22916666666666666
            },
            {
              "pitch": 76,
              "velocity": 80,
              "position": 1.0104166666666667,
              "duration": 0.22916666666666666
            },
            {
              "pitch": 71,
              "velocity": 94,
              "position": 1.28125,
              "duration": 0.15625
            },
            {
              "pitch": 74,
              "velocity": 124,
              "position": 1.28125,
              "duration": 0.17708333333333334
            },
            {
              "pitch": 76,
              "velocity": 104,
              "position": 1.28125,
              "duration": 0.1875
            },
            {
              "pitch": 79,
              "velocity": 94,
              "position": 1.28125,
              "duration": 0.19791666666666666
            },
            {
              "pitch": 73,
              "velocity": 110,
              "position": 1.7604166666666667,
              "duration": 0.16666666666666666
            },
            {
              "pitch": 84,
              "velocity": 110,
              "position": 1.78125,
              "duration": 0.15625
            },
            {
              "pitch": 77,
              "velocity": 110,
              "position": 1.7708333333333333,
              "duration": 0.17708333333333334
            },
            {
              "pitch": 79,
              "velocity": 104,
              "position": 1.7708333333333333,
              "duration": 0.17708333333333334
            },
            {
              "pitch": 73,
              "velocity": 126,
              "position": 2.2708333333333335,
              "duration": 0.17708333333333334
            },
            {
              "pitch": 84,
              "velocity": 118,
              "position": 2.2708333333333335,
              "duration": 0.1875
            },
            {
              "pitch": 79,
              "velocity": 126,
              "position": 2.2708333333333335,
              "duration": 0.20833333333333334
            },
            {
              "pitch": 77,
              "velocity": 118,
              "position": 2.2708333333333335,
              "duration": 0.22916666666666666
            },
            {
              "pitch": 79,
              "velocity": 110,
              "position": 14.760416666666666,
              "duration": 1.1875
            },
            {
              "pitch": 67,
              "velocity": 110,
              "position": 14.760416666666666,
              "duration": 1.1979166666666667
            }
          ]
        },
        "2": {
          "ctab": {
            "srcChannel": 2,
            "name": "BrasSect",
            "accType": "PHRASE1",
            "editable": false,
            "mutedNotes": [],
            "mutedChords": [
              "1+2+5",
              "sus4",
              "1+5",
              "1+8",
              "7aug",
              "Maj7aug",
              "7(#9)",
              "7(b13)",
              "7(b9)",
              "7(13)",
              "7#11",
              "7(9)",
              "7b5",
              "7sus4",
              "7th",
              "aug",
              "Maj6(9)",
              "Maj7(9)",
              "Maj(9)",
              "Maj7#11",
              "Maj7",
              "Maj6",
              "Maj"
            ],
            "autoStart": false,
            "sourceChordNote": 0,
            "sourceChordType": "min",
            "ctb2Low": null,
            "ctb2Main": {
              "ntr": "ROOT_TRANSPOSITION",
              "ntt": "BYPASS",
              "bassOn": false,
              "chordRootUpperLimit": 6,
              "noteLowLimit": 0,
              "noteHighLimit": 127,
              "rtr": "PITCH_SHIFT"
            },
            "ctb2High": null
          },
          "notes": [
            {
              "pitch": 67,
              "velocity": 110,
              "position": 0.7604166666666666,
              "duration": 0.19791666666666666
            },
            {
              "pitch": 79,
              "velocity": 110,
              "position": 0.7395833333333334,
              "duration": 0.22916666666666666
            },
            {
              "pitch": 84,
              "velocity": 110,
              "position": 1,
              "duration": 0.1875
            },
            {
              "pitch": 72,
              "velocity": 110,
              "position": 1.0104166666666667,
              "duration": 0.20833333333333334
            },
            {
              "pitch": 82,
              "velocity": 110,
              "position": 1.2708333333333333,
              "duration": 0.17708333333333334
            },
            {
              "pitch": 70,
              "velocity": 90,
              "position": 1.28125,
              "duration": 0.16666666666666666
            },
            {
              "pitch": 67,
              "velocity": 110,
              "position": 1.75,
              "duration": 0.17708333333333334
            },
            {
              "pitch": 79,
              "velocity": 90,
              "position": 1.75,
              "duration": 0.19791666666666666
            },
            {
              "pitch": 77,
              "velocity": 124,
              "position": 2.2395833333333335,
              "duration": 0.1875
            },
            {
              "pitch": 65,
              "velocity": 90,
              "position": 2.2395833333333335,
              "duration": 0.1875
            },
            {
              "pitch": 75,
              "velocity": 110,
              "position": 2.75,
              "duration": 0.15625
            },
            {
              "pitch": 63,
              "velocity": 110,
              "position": 2.75,
              "duration": 0.17708333333333334
            },
            {
              "pitch": 60,
              "velocity": 92,
              "position": 3.25,
              "duration": 0.15625
            },
            {
              "pitch": 72,
              "velocity": 110,
              "position": 3.2604166666666665,
              "duration": 0.16666666666666666
            },
            {
              "pitch": 70,
              "velocity": 80,
              "position": 3.75,
              "duration": 0.14583333333333334
            },
            {
              "pitch": 58,
              "velocity": 90,
              "position": 3.7395833333333335,
              "duration": 0.16666666666666666
            },
            {
              "pitch": 77,
              "velocity": 80,
              "position": 4,
              "duration": 0.4479166666666667
            },
            {
              "pitch": 65,
              "velocity": 110,
              "position": 4,
              "duration": 0.4583333333333333
            },
            {
              "pitch": 63,
              "velocity": 88,
              "position": 4.489583333333333,
              "duration": 0.14583333333333334
            },
            {
              "pitch": 75,
              "velocity": 110,
              "position": 4.489583333333333,
              "duration": 0.1875
            },
            {
              "pitch": 65,
              "velocity": 110,
              "position": 4.739583333333333,
              "duration": 0.17708333333333334
            },
            {
              "pitch": 77,
              "velocity": 110,
              "position": 4.75,
              "duration": 0.16666666666666666
            },
            {
              "pitch": 67,
              "velocity": 90,
              "position": 5.25,
              "duration": 0.13541666666666666
            },
            {
              "pitch": 79,
              "velocity": 110,
              "position": 5.260416666666667,
              "duration": 0.14583333333333334
            },
            {
              "pitch": 68,
              "velocity": 92,
              "position": 5.760416666666667,
              "duration": 1.6666666666666667
            },
            {
              "pitch": 80,
              "velocity": 110,
              "position": 5.770833333333333,
              "duration": 1.6666666666666667
            },
            {
              "pitch": 75,
              "velocity": 94,
              "position": 7.5,
              "duration": 6.427083333333333
            },
            {
              "pitch": 72,
              "velocity": 92,
              "position": 7.5,
              "duration": 6.4375
            },
            {
              "pitch": 69,
              "velocity": 94,
              "position": 7.5,
              "duration": 6.4375
            },
            {
              "pitch": 79,
              "velocity": 78,
              "position": 7.5,
              "duration": 6.458333333333333
            },
            {
              "pitch": 79,
              "velocity": 110,
              "position": 14.760416666666666,
              "duration": 1.1875
            },
            {
              "pitch": 67,
              "velocity": 110,
              "position": 14.760416666666666,
              "duration": 1.1979166666666667
            }
          ]
        },
        "4": {
          "ctab": {
            "srcChannel": 4,
            "name": "Alto Sax",
            "accType": "PHRASE2",
            "editable": false,
            "mutedNotes": [],
            "mutedChords": [
              "dim7",
              "dim",
              "minMaj7(9)",
              "minMaj7",
              "min7(11)",
              "min7(9)",
              "min(9)",
              "m7b5",
              "min7",
              "min6",
              "min"
            ],
            "autoStart": false,
            "sourceChordNote": 0,
            "sourceChordType": "Maj",
            "ctb2Low": null,
            "ctb2Main": {
              "ntr": "ROOT_TRANSPOSITION",
              "ntt": "BYPASS",
              "bassOn": false,
              "chordRootUpperLimit": 6,
              "noteLowLimit": 0,
              "noteHighLimit": 127,
              "rtr": "PITCH_SHIFT"
            },
            "ctb2High": null
          },
          "notes": [
            {
              "pitch": 67,
              "velocity": 124,
              "position": 0,
              "duration": 0.3854166666666667
            },
            {
              "pitch": 60,
              "velocity": 104,
              "position": 0,
              "duration": 0.4479166666666667
            },
            {
              "pitch": 64,
              "velocity": 110,
              "position": 0,
              "duration": 0.4479166666666667
            },
            {
              "pitch": 59,
              "velocity": 124,
              "position": 0,
              "duration": 0.4583333333333333
            },
            {
              "pitch": 59,
              "velocity": 114,
              "position": 0.7708333333333334,
              "duration": 0.16666666666666666
            },
            {
              "pitch": 60,
              "velocity": 118,
              "position": 0.7604166666666666,
              "duration": 0.1875
            },
            {
              "pitch": 64,
              "velocity": 124,
              "position": 0.7708333333333334,
              "duration": 0.17708333333333334
            },
            {
              "pitch": 67,
              "velocity": 114,
              "position": 0.7708333333333334,
              "duration": 0.1875
            },
            {
              "pitch": 60,
              "velocity": 80,
              "position": 1.0104166666666667,
              "duration": 0.19791666666666666
            },
            {
              "pitch": 67,
              "velocity": 64,
              "position": 1.0104166666666667,
              "duration": 0.20833333333333334
            },
            {
              "pitch": 59,
              "velocity": 80,
              "position": 1.0104166666666667,
              "duration": 0.20833333333333334
            },
            {
              "pitch": 64,
              "velocity": 80,
              "position": 1.0104166666666667,
              "duration": 0.20833333333333334
            },
            {
              "pitch": 67,
              "velocity": 94,
              "position": 1.28125,
              "duration": 0.125
            },
            {
              "pitch": 64,
              "velocity": 92,
              "position": 1.28125,
              "duration": 0.125
            },
            {
              "pitch": 60,
              "velocity": 94,
              "position": 1.28125,
              "duration": 0.13541666666666666
            },
            {
              "pitch": 59,
              "velocity": 94,
              "position": 1.28125,
              "duration": 0.14583333333333334
            },
            {
              "pitch": 61,
              "velocity": 120,
              "position": 1.7604166666666667,
              "duration": 0.17708333333333334
            },
            {
              "pitch": 65,
              "velocity": 92,
              "position": 1.7604166666666667,
              "duration": 0.17708333333333334
            },
            {
              "pitch": 58,
              "velocity": 116,
              "position": 1.7604166666666667,
              "duration": 0.1875
            },
            {
              "pitch": 55,
              "velocity": 114,
              "position": 1.7604166666666667,
              "duration": 0.19791666666666666
            },
            {
              "pitch": 61,
              "velocity": 126,
              "position": 2.25,
              "duration": 0.21875
            },
            {
              "pitch": 58,
              "velocity": 120,
              "position": 2.25,
              "duration": 0.22916666666666666
            },
            {
              "pitch": 65,
              "velocity": 126,
              "position": 2.25,
              "duration": 0.22916666666666666
            },
            {
              "pitch": 55,
              "velocity": 120,
              "position": 2.25,
              "duration": 0.25
            },
            {
              "pitch": 57,
              "velocity": 110,
              "position": 4.5,
              "duration": 0.1875
            },
            {
              "pitch": 69,
              "velocity": 110,
              "position": 4.489583333333333,
              "duration": 0.22916666666666666
            },
            {
              "pitch": 65,
              "velocity": 92,
              "position": 5,
              "duration": 0.6666666666666666
            },
            {
              "pitch": 53,
              "velocity": 92,
              "position": 5.010416666666667,
              "duration": 0.6770833333333334
            },
            {
              "pitch": 48,
              "velocity": 80,
              "position": 5.760416666666667,
              "duration": 0.1875
            },
            {
              "pitch": 60,
              "velocity": 90,
              "position": 5.75,
              "duration": 0.20833333333333334
            },
            {
              "pitch": 59,
              "velocity": 80,
              "position": 6,
              "duration": 0.21875
            },
            {
              "pitch": 47,
              "velocity": 92,
              "position": 6,
              "duration": 0.21875
            },
            {
              "pitch": 62,
              "velocity": 110,
              "position": 6.489583333333333,
              "duration": 0.19791666666666666
            },
            {
              "pitch": 50,
              "velocity": 92,
              "position": 6.5,
              "duration": 0.1875
            },
            {
              "pitch": 57,
              "velocity": 110,
              "position": 6.989583333333333,
              "duration": 0.7291666666666666
            },
            {
              "pitch": 69,
              "velocity": 110,
              "position": 6.989583333333333,
              "duration": 0.7395833333333334
            },
            {
              "pitch": 55,
              "velocity": 110,
              "position": 7.760416666666667,
              "duration": 4.114583333333333
            },
            {
              "pitch": 67,
              "velocity": 110,
              "position": 7.770833333333333,
              "duration": 4.114583333333333
            },
            {
              "pitch": 67,
              "velocity": 124,
              "position": 14.75,
              "duration": 1.2083333333333333
            },
            {
              "pitch": 55,
              "velocity": 110,
              "position": 14.739583333333334,
              "duration": 1.2291666666666667
            }
          ]
        },
        "5": {
          "ctab": {
            "srcChannel": 5,
            "name": "Alto Sax",
            "accType": "PHRASE2",
            "editable": false,
            "mutedNotes": [],
            "mutedChords": [
              "1+2+5",
              "sus4",
              "1+5",
              "1+8",
              "7aug",
              "Maj7aug",
              "7(#9)",
              "7(b13)",
              "7(b9)",
              "7(13)",
              "7#11",
              "7(9)",
              "7b5",
              "7sus4",
              "7th",
              "aug",
              "Maj6(9)",
              "Maj7(9)",
              "Maj(9)",
              "Maj7#11",
              "Maj7",
              "Maj6",
              "Maj"
            ],
            "autoStart": false,
            "sourceChordNote": 0,
            "sourceChordType": "min",
            "ctb2Low": null,
            "ctb2Main": {
              "ntr": "ROOT_TRANSPOSITION",
              "ntt": "BYPASS",
              "bassOn": false,
              "chordRootUpperLimit": 6,
              "noteLowLimit": 0,
              "noteHighLimit": 127,
              "rtr": "PITCH_SHIFT"
            },
            "ctb2High": null
          },
          "notes": [
            {
              "pitch": 67,
              "velocity": 120,
              "position": 0,
              "duration": 0.4791666666666667
            },
            {
              "pitch": 62,
              "velocity": 120,
              "position": 0,
              "duration": 0.4895833333333333
            },
            {
              "pitch": 63,
              "velocity": 104,
              "position": 0,
              "duration": 0.5208333333333334
            },
            {
              "pitch": 57,
              "velocity": 92,
              "position": 0,
              "duration": 0.5833333333333334
            },
            {
              "pitch": 54,
              "velocity": 94,
              "position": 4,
              "duration": 0.53125
            },
            {
              "pitch": 58,
              "velocity": 94,
              "position": 4,
              "duration": 0.5625
            },
            {
              "pitch": 65,
              "velocity": 92,
              "position": 4,
              "duration": 0.5625
            },
            {
              "pitch": 60,
              "velocity": 120,
              "position": 4,
              "duration": 0.6041666666666666
            },
            {
              "pitch": 58,
              "velocity": 80,
              "position": 4.760416666666667,
              "duration": 0.14583333333333334
            },
            {
              "pitch": 65,
              "velocity": 72,
              "position": 4.770833333333333,
              "duration": 0.14583333333333334
            },
            {
              "pitch": 60,
              "velocity": 88,
              "position": 4.770833333333333,
              "duration": 0.15625
            },
            {
              "pitch": 54,
              "velocity": 90,
              "position": 4.760416666666667,
              "duration": 0.21875
            },
            {
              "pitch": 58,
              "velocity": 80,
              "position": 5.25,
              "duration": 0.11458333333333333
            },
            {
              "pitch": 60,
              "velocity": 94,
              "position": 5.25,
              "duration": 0.17708333333333334
            },
            {
              "pitch": 65,
              "velocity": 122,
              "position": 5.25,
              "duration": 0.19791666666666666
            },
            {
              "pitch": 54,
              "velocity": 122,
              "position": 5.25,
              "duration": 0.19791666666666666
            },
            {
              "pitch": 53,
              "velocity": 90,
              "position": 5.75,
              "duration": 1.3020833333333333
            },
            {
              "pitch": 58,
              "velocity": 78,
              "position": 5.75,
              "duration": 1.3125
            },
            {
              "pitch": 63,
              "velocity": 94,
              "position": 5.75,
              "duration": 1.3333333333333333
            },
            {
              "pitch": 59,
              "velocity": 94,
              "position": 5.75,
              "duration": 1.34375
            },
            {
              "pitch": 62,
              "velocity": 110,
              "position": 7.489583333333333,
              "duration": 6.364583333333333
            },
            {
              "pitch": 55,
              "velocity": 104,
              "position": 7.489583333333333,
              "duration": 6.385416666666667
            },
            {
              "pitch": 51,
              "velocity": 90,
              "position": 7.489583333333333,
              "duration": 6.395833333333333
            },
            {
              "pitch": 57,
              "velocity": 104,
              "position": 7.489583333333333,
              "duration": 6.395833333333333
            },
            {
              "pitch": 67,
              "velocity": 124,
              "position": 14.75,
              "duration": 1.2083333333333333
            },
            {
              "pitch": 55,
              "velocity": 110,
              "position": 14.739583333333334,
              "duration": 1.2291666666666667
            }
          ]
        },
        "8": {
          "ctab": {
            "srcChannel": 8,
            "name": "Std.Kit1",
            "accType": "RHYTHM",
            "editable": false,
            "mutedNotes": [],
            "mutedChords": [],
            "autoStart": true,
            "sourceChordNote": 0,
            "sourceChordType": "Maj7",
            "ctb2Low": null,
            "ctb2Main": {
              "ntr": "ROOT_FIXED",
              "ntt": "BYPASS",
              "bassOn": false,
              "chordRootUpperLimit": 6,
              "noteLowLimit": 0,
              "noteHighLimit": 127,
              "rtr": "PITCH_SHIFT"
            },
            "ctb2High": null
          },
          "notes": [
            {
              "pitch": 42,
              "velocity": 92,
              "position": 0,
              "duration": 0.015625
            },
            {
              "pitch": 42,
              "velocity": 80,
              "position": 0.5,
              "duration": 0.015625
            },
            {
              "pitch": 42,
              "velocity": 72,
              "position": 0.75,
              "duration": 0.015625
            },
            {
              "pitch": 36,
              "velocity": 110,
              "position": 0.7604166666666666,
              "duration": 0.015625
            },
            {
              "pitch": 42,
              "velocity": 90,
              "position": 1,
              "duration": 0.015625
            },
            {
              "pitch": 42,
              "velocity": 80,
              "position": 1.4895833333333333,
              "duration": 0.015625
            },
            {
              "pitch": 42,
              "velocity": 92,
              "position": 1.75,
              "duration": 0.015625
            },
            {
              "pitch": 42,
              "velocity": 80,
              "position": 2,
              "duration": 0.015625
            },
            {
              "pitch": 42,
              "velocity": 94,
              "position": 2.4895833333333335,
              "duration": 0.015625
            },
            {
              "pitch": 42,
              "velocity": 80,
              "position": 2.75,
              "duration": 0.015625
            },
            {
              "pitch": 36,
              "velocity": 110,
              "position": 2.7604166666666665,
              "duration": 0.015625
            },
            {
              "pitch": 42,
              "velocity": 80,
              "position": 3,
              "duration": 0.015625
            },
            {
              "pitch": 42,
              "velocity": 92,
              "position": 3.5,
              "duration": 0.015625
            },
            {
              "pitch": 42,
              "velocity": 80,
              "position": 3.75,
              "duration": 0.015625
            },
            {
              "pitch": 42,
              "velocity": 92,
              "position": 4,
              "duration": 0.015625
            },
            {
              "pitch": 42,
              "velocity": 80,
              "position": 4.489583333333333,
              "duration": 0.015625
            },
            {
              "pitch": 42,
              "velocity": 72,
              "position": 4.75,
              "duration": 0.015625
            },
            {
              "pitch": 36,
              "velocity": 108,
              "position": 4.760416666666667,
              "duration": 0.015625
            },
            {
              "pitch": 42,
              "velocity": 92,
              "position": 5,
              "duration": 0.015625
            },
            {
              "pitch": 42,
              "velocity": 80,
              "position": 5.489583333333333,
              "duration": 0.015625
            },
            {
              "pitch": 42,
              "velocity": 80,
              "position": 5.75,
              "duration": 0.015625
            },
            {
              "pitch": 42,
              "velocity": 86,
              "position": 6,
              "duration": 0.015625
            },
            {
              "pitch": 42,
              "velocity": 72,
              "position": 6.489583333333333,
              "duration": 0.015625
            },
            {
              "pitch": 42,
              "velocity": 80,
              "position": 6.760416666666667,
              "duration": 0.015625
            },
            {
              "pitch": 36,
              "velocity": 112,
              "position": 6.760416666666667,
              "duration": 0.015625
            },
            {
              "pitch": 42,
              "velocity": 90,
              "position": 7,
              "duration": 0.015625
            },
            {
              "pitch": 42,
              "velocity": 80,
              "position": 7.489583333333333,
              "duration": 0.015625
            },
            {
              "pitch": 42,
              "velocity": 80,
              "position": 7.75,
              "duration": 0.015625
            },
            {
              "pitch": 42,
              "velocity": 92,
              "position": 8,
              "duration": 0.015625
            },
            {
              "pitch": 42,
              "velocity": 80,
              "position": 8.5,
              "duration": 0.015625
            },
            {
              "pitch": 42,
              "velocity": 72,
              "position": 8.75,
              "duration": 0.015625
            },
            {
              "pitch": 36,
              "velocity": 110,
              "position": 8.760416666666666,
              "duration": 0.015625
            },
            {
              "pitch": 42,
              "velocity": 90,
              "position": 9,
              "duration": 0.015625
            },
            {
              "pitch": 42,
              "velocity": 80,
              "position": 9.489583333333334,
              "duration": 0.015625
            },
            {
              "pitch": 42,
              "velocity": 92,
              "position": 9.75,
              "duration": 0.015625
            },
            {
              "pitch": 42,
              "velocity": 80,
              "position": 10,
              "duration": 0.015625
            },
            {
              "pitch": 42,
              "velocity": 94,
              "position": 10.489583333333334,
              "duration": 0.015625
            },
            {
              "pitch": 42,
              "velocity": 80,
              "position": 10.75,
              "duration": 0.015625
            },
            {
              "pitch": 36,
              "velocity": 110,
              "position": 10.760416666666666,
              "duration": 0.015625
            },
            {
              "pitch": 42,
              "velocity": 80,
              "position": 11,
              "duration": 0.015625
            },
            {
              "pitch": 42,
              "velocity": 92,
              "position": 11.5,
              "duration": 0.015625
            },
            {
              "pitch": 42,
              "velocity": 80,
              "position": 11.75,
              "duration": 0.015625
            },
            {
              "pitch": 42,
              "velocity": 80,
              "position": 12,
              "duration": 0.015625
            },
            {
              "pitch": 42,
              "velocity": 80,
              "position": 12.5,
              "duration": 0.015625
            },
            {
              "pitch": 42,
              "velocity": 72,
              "position": 12.75,
              "duration": 0.015625
            },
            {
              "pitch": 36,
              "velocity": 106,
              "position": 12.760416666666666,
              "duration": 0.015625
            },
            {
              "pitch": 42,
              "velocity": 90,
              "position": 13,
              "duration": 0.015625
            },
            {
              "pitch": 42,
              "velocity": 80,
              "position": 13.489583333333334,
              "duration": 0.015625
            },
            {
              "pitch": 42,
              "velocity": 92,
              "position": 13.75,
              "duration": 0.015625
            },
            {
              "pitch": 42,
              "velocity": 80,
              "position": 14,
              "duration": 0.015625
            },
            {
              "pitch": 42,
              "velocity": 94,
              "position": 14.489583333333334,
              "duration": 0.015625
            },
            {
              "pitch": 42,
              "velocity": 80,
              "position": 14.75,
              "duration": 0.015625
            },
            {
              "pitch": 36,
              "velocity": 112,
              "position": 14.760416666666666,
              "duration": 0.015625
            },
            {
              "pitch": 55,
              "velocity": 124,
              "position": 14.760416666666666,
              "duration": 0.015625
            },
            {
              "pitch": 42,
              "velocity": 80,
              "position": 15,
              "duration": 0.015625
            },
            {
              "pitch": 42,
              "velocity": 92,
              "position": 15.5,
              "duration": 0.015625
            },
            {
              "pitch": 42,
              "velocity": 80,
              "position": 15.75,
              "duration": 0.015625
            }
          ]
        },
        "10": {
          "ctab": {
            "srcChannel": 10,
            "name": "Std.Kit1",
            "accType": "SUBRHYTHM",
            "editable": false,
            "mutedNotes": [],
            "mutedChords": [],
            "autoStart": true,
            "sourceChordNote": 0,
            "sourceChordType": "Maj7",
            "ctb2Low": null,
            "ctb2Main": {
              "ntr": "ROOT_FIXED",
              "ntt": "BYPASS",
              "bassOn": false,
              "chordRootUpperLimit": 6,
              "noteLowLimit": 0,
              "noteHighLimit": 127,
              "rtr": "PITCH_SHIFT"
            },
            "ctb2High": null
          },
          "notes": [
            {
              "pitch": 60,
              "velocity": 92,
              "position": 0,
              "duration": 0.015625
            },
            {
              "pitch": 33,
              "velocity": 92,
              "position": 0,
              "duration": 0.015625
            },
            {
              "pitch": 62,
              "velocity": 92,
              "position": 0,
              "duration": 0.015625
            },
            {
              "pitch": 33,
              "velocity": 58,
              "position": 0.25,
              "duration": 0.015625
            },
            {
              "pitch": 61,
              "velocity": 80,
              "position": 0.25,
              "duration": 0.015625
            },
            {
              "pitch": 62,
              "velocity": 88,
              "position": 0.2604166666666667,
              "duration": 0.015625
            },
            {
              "pitch": 33,
              "velocity": 110,
              "position": 0.4895833333333333,
              "duration": 0.015625
            },
            {
              "pitch": 75,
              "velocity": 120,
              "position": 0.5,
              "duration": 0.015625
            },
            {
              "pitch": 62,
              "velocity": 108,
              "position": 0.5,
              "duration": 0.015625
            },
            {
              "pitch": 61,
              "velocity": 80,
              "position": 0.5,
              "duration": 0.015625
            },
            {
              "pitch": 62,
              "velocity": 88,
              "position": 0.75,
              "duration": 0.015625
            },
            {
              "pitch": 33,
              "velocity": 58,
              "position": 0.75,
              "duration": 0.015625
            },
            {
              "pitch": 60,
              "velocity": 92,
              "position": 0.7604166666666666,
              "duration": 0.015625
            },
            {
              "pitch": 33,
              "velocity": 110,
              "position": 0.9895833333333334,
              "duration": 0.015625
            },
            {
              "pitch": 62,
              "velocity": 88,
              "position": 0.9895833333333334,
              "duration": 0.015625
            },
            {
              "pitch": 75,
              "velocity": 126,
              "position": 1,
              "duration": 0.015625
            },
            {
              "pitch": 60,
              "velocity": 80,
              "position": 1,
              "duration": 0.015625
            },
            {
              "pitch": 62,
              "velocity": 88,
              "position": 1.25,
              "duration": 0.015625
            },
            {
              "pitch": 33,
              "velocity": 110,
              "position": 1.25,
              "duration": 0.015625
            },
            {
              "pitch": 61,
              "velocity": 92,
              "position": 1.2604166666666667,
              "duration": 0.015625
            },
            {
              "pitch": 33,
              "velocity": 72,
              "position": 1.4895833333333333,
              "duration": 0.015625
            },
            {
              "pitch": 64,
              "velocity": 100,
              "position": 1.4895833333333333,
              "duration": 0.015625
            },
            {
              "pitch": 61,
              "velocity": 92,
              "position": 1.5,
              "duration": 0.015625
            },
            {
              "pitch": 64,
              "velocity": 100,
              "position": 1.75,
              "duration": 0.015625
            },
            {
              "pitch": 33,
              "velocity": 92,
              "position": 1.75,
              "duration": 0.015625
            },
            {
              "pitch": 60,
              "velocity": 112,
              "position": 1.7604166666666667,
              "duration": 0.015625
            },
            {
              "pitch": 75,
              "velocity": 120,
              "position": 2,
              "duration": 0.015625
            },
            {
              "pitch": 61,
              "velocity": 80,
              "position": 2,
              "duration": 0.015625
            },
            {
              "pitch": 62,
              "velocity": 84,
              "position": 2,
              "duration": 0.015625
            },
            {
              "pitch": 33,
              "velocity": 110,
              "position": 2,
              "duration": 0.015625
            },
            {
              "pitch": 33,
              "velocity": 68,
              "position": 2.25,
              "duration": 0.015625
            },
            {
              "pitch": 62,
              "velocity": 88,
              "position": 2.25,
              "duration": 0.015625
            },
            {
              "pitch": 61,
              "velocity": 80,
              "position": 2.2604166666666665,
              "duration": 0.015625
            },
            {
              "pitch": 62,
              "velocity": 108,
              "position": 2.4895833333333335,
              "duration": 0.015625
            },
            {
              "pitch": 33,
              "velocity": 90,
              "position": 2.4895833333333335,
              "duration": 0.015625
            },
            {
              "pitch": 61,
              "velocity": 72,
              "position": 2.5,
              "duration": 0.015625
            },
            {
              "pitch": 60,
              "velocity": 80,
              "position": 2.75,
              "duration": 0.015625
            },
            {
              "pitch": 62,
              "velocity": 88,
              "position": 2.75,
              "duration": 0.015625
            },
            {
              "pitch": 33,
              "velocity": 110,
              "position": 2.75,
              "duration": 0.015625
            },
            {
              "pitch": 75,
              "velocity": 120,
              "position": 2.7604166666666665,
              "duration": 0.015625
            },
            {
              "pitch": 62,
              "velocity": 100,
              "position": 3,
              "duration": 0.015625
            },
            {
              "pitch": 33,
              "velocity": 68,
              "position": 3,
              "duration": 0.015625
            },
            {
              "pitch": 60,
              "velocity": 80,
              "position": 3,
              "duration": 0.015625
            },
            {
              "pitch": 62,
              "velocity": 100,
              "position": 3.25,
              "duration": 0.015625
            },
            {
              "pitch": 61,
              "velocity": 92,
              "position": 3.25,
              "duration": 0.015625
            },
            {
              "pitch": 33,
              "velocity": 110,
              "position": 3.25,
              "duration": 0.015625
            },
            {
              "pitch": 61,
              "velocity": 92,
              "position": 3.4895833333333335,
              "duration": 0.015625
            },
            {
              "pitch": 64,
              "velocity": 100,
              "position": 3.4895833333333335,
              "duration": 0.015625
            },
            {
              "pitch": 33,
              "velocity": 72,
              "position": 3.5,
              "duration": 0.015625
            },
            {
              "pitch": 75,
              "velocity": 112,
              "position": 3.5,
              "duration": 0.015625
            },
            {
              "pitch": 61,
              "velocity": 80,
              "position": 3.75,
              "duration": 0.015625
            },
            {
              "pitch": 33,
              "velocity": 110,
              "position": 3.75,
              "duration": 0.015625
            },
            {
              "pitch": 64,
              "velocity": 102,
              "position": 3.75,
              "duration": 0.015625
            },
            {
              "pitch": 60,
              "velocity": 92,
              "position": 4,
              "duration": 0.015625
            },
            {
              "pitch": 62,
              "velocity": 88,
              "position": 4,
              "duration": 0.015625
            },
            {
              "pitch": 33,
              "velocity": 110,
              "position": 4,
              "duration": 0.015625
            },
            {
              "pitch": 61,
              "velocity": 80,
              "position": 4.25,
              "duration": 0.015625
            },
            {
              "pitch": 33,
              "velocity": 60,
              "position": 4.25,
              "duration": 0.015625
            },
            {
              "pitch": 62,
              "velocity": 88,
              "position": 4.25,
              "duration": 0.015625
            },
            {
              "pitch": 62,
              "velocity": 110,
              "position": 4.5,
              "duration": 0.015625
            },
            {
              "pitch": 33,
              "velocity": 110,
              "position": 4.5,
              "duration": 0.015625
            },
            {
              "pitch": 75,
              "velocity": 120,
              "position": 4.5,
              "duration": 0.015625
            },
            {
              "pitch": 61,
              "velocity": 92,
              "position": 4.5,
              "duration": 0.015625
            },
            {
              "pitch": 62,
              "velocity": 100,
              "position": 4.75,
              "duration": 0.015625
            },
            {
              "pitch": 33,
              "velocity": 72,
              "position": 4.75,
              "duration": 0.015625
            },
            {
              "pitch": 60,
              "velocity": 92,
              "position": 4.760416666666667,
              "duration": 0.015625
            },
            {
              "pitch": 62,
              "velocity": 100,
              "position": 4.989583333333333,
              "duration": 0.015625
            },
            {
              "pitch": 33,
              "velocity": 110,
              "position": 5,
              "duration": 0.015625
            },
            {
              "pitch": 60,
              "velocity": 80,
              "position": 5,
              "duration": 0.015625
            },
            {
              "pitch": 75,
              "velocity": 114,
              "position": 5.010416666666667,
              "duration": 0.015625
            },
            {
              "pitch": 62,
              "velocity": 100,
              "position": 5.25,
              "duration": 0.015625
            },
            {
              "pitch": 33,
              "velocity": 110,
              "position": 5.25,
              "duration": 0.015625
            },
            {
              "pitch": 61,
              "velocity": 90,
              "position": 5.260416666666667,
              "duration": 0.015625
            },
            {
              "pitch": 33,
              "velocity": 76,
              "position": 5.489583333333333,
              "duration": 0.015625
            },
            {
              "pitch": 61,
              "velocity": 90,
              "position": 5.5,
              "duration": 0.015625
            },
            {
              "pitch": 64,
              "velocity": 100,
              "position": 5.5,
              "duration": 0.015625
            },
            {
              "pitch": 64,
              "velocity": 102,
              "position": 5.75,
              "duration": 0.015625
            },
            {
              "pitch": 33,
              "velocity": 110,
              "position": 5.75,
              "duration": 0.015625
            },
            {
              "pitch": 60,
              "velocity": 110,
              "position": 5.760416666666667,
              "duration": 0.015625
            },
            {
              "pitch": 61,
              "velocity": 80,
              "position": 6,
              "duration": 0.015625
            },
            {
              "pitch": 62,
              "velocity": 96,
              "position": 6,
              "duration": 0.015625
            },
            {
              "pitch": 33,
              "velocity": 110,
              "position": 6,
              "duration": 0.015625
            },
            {
              "pitch": 75,
              "velocity": 120,
              "position": 6.010416666666667,
              "duration": 0.015625
            },
            {
              "pitch": 62,
              "velocity": 88,
              "position": 6.25,
              "duration": 0.015625
            },
            {
              "pitch": 33,
              "velocity": 64,
              "position": 6.25,
              "duration": 0.015625
            },
            {
              "pitch": 61,
              "velocity": 80,
              "position": 6.260416666666667,
              "duration": 0.015625
            },
            {
              "pitch": 62,
              "velocity": 108,
              "position": 6.489583333333333,
              "duration": 0.015625
            },
            {
              "pitch": 33,
              "velocity": 110,
              "position": 6.5,
              "duration": 0.015625
            },
            {
              "pitch": 61,
              "velocity": 80,
              "position": 6.510416666666667,
              "duration": 0.015625
            },
            {
              "pitch": 62,
              "velocity": 88,
              "position": 6.75,
              "duration": 0.015625
            },
            {
              "pitch": 60,
              "velocity": 92,
              "position": 6.75,
              "duration": 0.015625
            },
            {
              "pitch": 33,
              "velocity": 92,
              "position": 6.75,
              "duration": 0.015625
            },
            {
              "pitch": 75,
              "velocity": 112,
              "position": 6.760416666666667,
              "duration": 0.015625
            },
            {
              "pitch": 60,
              "velocity": 80,
              "position": 7,
              "duration": 0.015625
            },
            {
              "pitch": 62,
              "velocity": 100,
              "position": 7,
              "duration": 0.015625
            },
            {
              "pitch": 33,
              "velocity": 64,
              "position": 7,
              "duration": 0.015625
            },
            {
              "pitch": 62,
              "velocity": 88,
              "position": 7.25,
              "duration": 0.015625
            },
            {
              "pitch": 61,
              "velocity": 80,
              "position": 7.25,
              "duration": 0.015625
            },
            {
              "pitch": 33,
              "velocity": 110,
              "position": 7.260416666666667,
              "duration": 0.015625
            },
            {
              "pitch": 61,
              "velocity": 80,
              "position": 7.489583333333333,
              "duration": 0.015625
            },
            {
              "pitch": 64,
              "velocity": 104,
              "position": 7.489583333333333,
              "duration": 0.015625
            },
            {
              "pitch": 75,
              "velocity": 120,
              "position": 7.5,
              "duration": 0.015625
            },
            {
              "pitch": 33,
              "velocity": 72,
              "position": 7.5,
              "duration": 0.015625
            },
            {
              "pitch": 61,
              "velocity": 92,
              "position": 7.739583333333333,
              "duration": 0.015625
            },
            {
              "pitch": 64,
              "velocity": 100,
              "position": 7.75,
              "duration": 0.015625
            },
            {
              "pitch": 33,
              "velocity": 110,
              "position": 7.760416666666667,
              "duration": 0.015625
            },
            {
              "pitch": 60,
              "velocity": 92,
              "position": 8,
              "duration": 0.015625
            },
            {
              "pitch": 33,
              "velocity": 92,
              "position": 8,
              "duration": 0.015625
            },
            {
              "pitch": 62,
              "velocity": 92,
              "position": 8,
              "duration": 0.015625
            },
            {
              "pitch": 33,
              "velocity": 58,
              "position": 8.25,
              "duration": 0.015625
            },
            {
              "pitch": 61,
              "velocity": 80,
              "position": 8.25,
              "duration": 0.015625
            },
            {
              "pitch": 62,
              "velocity": 88,
              "position": 8.260416666666666,
              "duration": 0.015625
            },
            {
              "pitch": 33,
              "velocity": 110,
              "position": 8.489583333333334,
              "duration": 0.015625
            },
            {
              "pitch": 75,
              "velocity": 120,
              "position": 8.5,
              "duration": 0.015625
            },
            {
              "pitch": 62,
              "velocity": 108,
              "position": 8.5,
              "duration": 0.015625
            },
            {
              "pitch": 61,
              "velocity": 80,
              "position": 8.5,
              "duration": 0.015625
            },
            {
              "pitch": 62,
              "velocity": 88,
              "position": 8.75,
              "duration": 0.015625
            },
            {
              "pitch": 33,
              "velocity": 58,
              "position": 8.75,
              "duration": 0.015625
            },
            {
              "pitch": 60,
              "velocity": 92,
              "position": 8.760416666666666,
              "duration": 0.015625
            },
            {
              "pitch": 33,
              "velocity": 110,
              "position": 8.989583333333334,
              "duration": 0.015625
            },
            {
              "pitch": 62,
              "velocity": 88,
              "position": 8.989583333333334,
              "duration": 0.015625
            },
            {
              "pitch": 75,
              "velocity": 126,
              "position": 9,
              "duration": 0.015625
            },
            {
              "pitch": 60,
              "velocity": 80,
              "position": 9,
              "duration": 0.015625
            },
            {
              "pitch": 62,
              "velocity": 88,
              "position": 9.25,
              "duration": 0.015625
            },
            {
              "pitch": 33,
              "velocity": 110,
              "position": 9.25,
              "duration": 0.015625
            },
            {
              "pitch": 61,
              "velocity": 92,
              "position": 9.260416666666666,
              "duration": 0.015625
            },
            {
              "pitch": 33,
              "velocity": 72,
              "position": 9.489583333333334,
              "duration": 0.015625
            },
            {
              "pitch": 64,
              "velocity": 100,
              "position": 9.489583333333334,
              "duration": 0.015625
            },
            {
              "pitch": 61,
              "velocity": 92,
              "position": 9.5,
              "duration": 0.015625
            },
            {
              "pitch": 64,
              "velocity": 100,
              "position": 9.75,
              "duration": 0.015625
            },
            {
              "pitch": 33,
              "velocity": 92,
              "position": 9.75,
              "duration": 0.015625
            },
            {
              "pitch": 60,
              "velocity": 112,
              "position": 9.760416666666666,
              "duration": 0.015625
            },
            {
              "pitch": 75,
              "velocity": 120,
              "position": 10,
              "duration": 0.015625
            },
            {
              "pitch": 61,
              "velocity": 80,
              "position": 10,
              "duration": 0.015625
            },
            {
              "pitch": 62,
              "velocity": 84,
              "position": 10,
              "duration": 0.015625
            },
            {
              "pitch": 33,
              "velocity": 110,
              "position": 10,
              "duration": 0.015625
            },
            {
              "pitch": 33,
              "velocity": 68,
              "position": 10.25,
              "duration": 0.015625
            },
            {
              "pitch": 62,
              "velocity": 88,
              "position": 10.25,
              "duration": 0.015625
            },
            {
              "pitch": 61,
              "velocity": 80,
              "position": 10.260416666666666,
              "duration": 0.015625
            },
            {
              "pitch": 62,
              "velocity": 108,
              "position": 10.489583333333334,
              "duration": 0.015625
            },
            {
              "pitch": 33,
              "velocity": 90,
              "position": 10.489583333333334,
              "duration": 0.015625
            },
            {
              "pitch": 61,
              "velocity": 72,
              "position": 10.5,
              "duration": 0.015625
            },
            {
              "pitch": 60,
              "velocity": 80,
              "position": 10.75,
              "duration": 0.015625
            },
            {
              "pitch": 62,
              "velocity": 88,
              "position": 10.75,
              "duration": 0.015625
            },
            {
              "pitch": 33,
              "velocity": 110,
              "position": 10.75,
              "duration": 0.015625
            },
            {
              "pitch": 75,
              "velocity": 120,
              "position": 10.760416666666666,
              "duration": 0.015625
            },
            {
              "pitch": 62,
              "velocity": 100,
              "position": 11,
              "duration": 0.015625
            },
            {
              "pitch": 33,
              "velocity": 68,
              "position": 11,
              "duration": 0.015625
            },
            {
              "pitch": 60,
              "velocity": 80,
              "position": 11,
              "duration": 0.015625
            },
            {
              "pitch": 62,
              "velocity": 100,
              "position": 11.25,
              "duration": 0.015625
            },
            {
              "pitch": 61,
              "velocity": 92,
              "position": 11.25,
              "duration": 0.015625
            },
            {
              "pitch": 33,
              "velocity": 110,
              "position": 11.25,
              "duration": 0.015625
            },
            {
              "pitch": 61,
              "velocity": 92,
              "position": 11.489583333333334,
              "duration": 0.015625
            },
            {
              "pitch": 64,
              "velocity": 100,
              "position": 11.489583333333334,
              "duration": 0.015625
            },
            {
              "pitch": 33,
              "velocity": 72,
              "position": 11.5,
              "duration": 0.015625
            },
            {
              "pitch": 75,
              "velocity": 112,
              "position": 11.5,
              "duration": 0.015625
            },
            {
              "pitch": 61,
              "velocity": 80,
              "position": 11.75,
              "duration": 0.015625
            },
            {
              "pitch": 33,
              "velocity": 110,
              "position": 11.75,
              "duration": 0.015625
            },
            {
              "pitch": 64,
              "velocity": 102,
              "position": 11.75,
              "duration": 0.015625
            },
            {
              "pitch": 62,
              "velocity": 88,
              "position": 12,
              "duration": 0.015625
            },
            {
              "pitch": 60,
              "velocity": 92,
              "position": 12,
              "duration": 0.015625
            },
            {
              "pitch": 33,
              "velocity": 92,
              "position": 12.010416666666666,
              "duration": 0.015625
            },
            {
              "pitch": 62,
              "velocity": 100,
              "position": 12.25,
              "duration": 0.015625
            },
            {
              "pitch": 33,
              "velocity": 68,
              "position": 12.25,
              "duration": 0.015625
            },
            {
              "pitch": 61,
              "velocity": 80,
              "position": 12.260416666666666,
              "duration": 0.015625
            },
            {
              "pitch": 62,
              "velocity": 108,
              "position": 12.5,
              "duration": 0.015625
            },
            {
              "pitch": 75,
              "velocity": 120,
              "position": 12.5,
              "duration": 0.015625
            },
            {
              "pitch": 61,
              "velocity": 90,
              "position": 12.5,
              "duration": 0.015625
            },
            {
              "pitch": 33,
              "velocity": 110,
              "position": 12.5,
              "duration": 0.015625
            },
            {
              "pitch": 60,
              "velocity": 80,
              "position": 12.760416666666666,
              "duration": 0.015625
            },
            {
              "pitch": 62,
              "velocity": 88,
              "position": 12.760416666666666,
              "duration": 0.015625
            },
            {
              "pitch": 33,
              "velocity": 64,
              "position": 12.760416666666666,
              "duration": 0.015625
            },
            {
              "pitch": 62,
              "velocity": 100,
              "position": 13,
              "duration": 0.015625
            },
            {
              "pitch": 60,
              "velocity": 80,
              "position": 13,
              "duration": 0.015625
            },
            {
              "pitch": 33,
              "velocity": 90,
              "position": 13,
              "duration": 0.015625
            },
            {
              "pitch": 75,
              "velocity": 114,
              "position": 13.010416666666666,
              "duration": 0.015625
            },
            {
              "pitch": 62,
              "velocity": 88,
              "position": 13.25,
              "duration": 0.015625
            },
            {
              "pitch": 61,
              "velocity": 80,
              "position": 13.260416666666666,
              "duration": 0.015625
            },
            {
              "pitch": 33,
              "velocity": 110,
              "position": 13.260416666666666,
              "duration": 0.015625
            },
            {
              "pitch": 61,
              "velocity": 90,
              "position": 13.5,
              "duration": 0.015625
            },
            {
              "pitch": 64,
              "velocity": 100,
              "position": 13.5,
              "duration": 0.015625
            },
            {
              "pitch": 33,
              "velocity": 72,
              "position": 13.5,
              "duration": 0.015625
            },
            {
              "pitch": 64,
              "velocity": 100,
              "position": 13.760416666666666,
              "duration": 0.015625
            },
            {
              "pitch": 60,
              "velocity": 108,
              "position": 13.760416666666666,
              "duration": 0.015625
            },
            {
              "pitch": 33,
              "velocity": 90,
              "position": 13.760416666666666,
              "duration": 0.015625
            },
            {
              "pitch": 65,
              "velocity": 110,
              "position": 13.770833333333334,
              "duration": 0.015625
            },
            {
              "pitch": 62,
              "velocity": 88,
              "position": 14,
              "duration": 0.015625
            },
            {
              "pitch": 61,
              "velocity": 72,
              "position": 14,
              "duration": 0.015625
            },
            {
              "pitch": 75,
              "velocity": 120,
              "position": 14.010416666666666,
              "duration": 0.015625
            },
            {
              "pitch": 33,
              "velocity": 90,
              "position": 14.010416666666666,
              "duration": 0.015625
            },
            {
              "pitch": 66,
              "velocity": 110,
              "position": 14.010416666666666,
              "duration": 0.015625
            },
            {
              "pitch": 62,
              "velocity": 88,
              "position": 14.25,
              "duration": 0.015625
            },
            {
              "pitch": 61,
              "velocity": 72,
              "position": 14.260416666666666,
              "duration": 0.015625
            },
            {
              "pitch": 33,
              "velocity": 72,
              "position": 14.260416666666666,
              "duration": 0.015625
            },
            {
              "pitch": 62,
              "velocity": 108,
              "position": 14.489583333333334,
              "duration": 0.015625
            },
            {
              "pitch": 66,
              "velocity": 110,
              "position": 14.5,
              "duration": 0.015625
            },
            {
              "pitch": 33,
              "velocity": 92,
              "position": 14.5,
              "duration": 0.015625
            },
            {
              "pitch": 61,
              "velocity": 80,
              "position": 14.5,
              "duration": 0.015625
            },
            {
              "pitch": 62,
              "velocity": 88,
              "position": 14.75,
              "duration": 0.015625
            },
            {
              "pitch": 60,
              "velocity": 92,
              "position": 14.75,
              "duration": 0.015625
            },
            {
              "pitch": 33,
              "velocity": 92,
              "position": 14.760416666666666,
              "duration": 0.015625
            },
            {
              "pitch": 75,
              "velocity": 112,
              "position": 14.760416666666666,
              "duration": 0.015625
            },
            {
              "pitch": 65,
              "velocity": 112,
              "position": 14.760416666666666,
              "duration": 0.015625
            },
            {
              "pitch": 60,
              "velocity": 92,
              "position": 15,
              "duration": 0.015625
            },
            {
              "pitch": 62,
              "velocity": 88,
              "position": 15,
              "duration": 0.015625
            },
            {
              "pitch": 33,
              "velocity": 70,
              "position": 15,
              "duration": 0.015625
            },
            {
              "pitch": 61,
              "velocity": 80,
              "position": 15.25,
              "duration": 0.015625
            },
            {
              "pitch": 62,
              "velocity": 88,
              "position": 15.25,
              "duration": 0.015625
            },
            {
              "pitch": 33,
              "velocity": 110,
              "position": 15.260416666666666,
              "duration": 0.015625
            },
            {
              "pitch": 61,
              "velocity": 90,
              "position": 15.489583333333334,
              "duration": 0.015625
            },
            {
              "pitch": 64,
              "velocity": 100,
              "position": 15.5,
              "duration": 0.015625
            },
            {
              "pitch": 33,
              "velocity": 72,
              "position": 15.5,
              "duration": 0.015625
            },
            {
              "pitch": 75,
              "velocity": 120,
              "position": 15.5,
              "duration": 0.015625
            },
            {
              "pitch": 65,
              "velocity": 80,
              "position": 15.510416666666666,
              "duration": 0.015625
            },
            {
              "pitch": 65,
              "velocity": 92,
              "position": 15.645833333333334,
              "duration": 0.015625
            },
            {
              "pitch": 61,
              "velocity": 80,
              "position": 15.75,
              "duration": 0.015625
            },
            {
              "pitch": 33,
              "velocity": 106,
              "position": 15.75,
              "duration": 0.015625
            },
            {
              "pitch": 64,
              "velocity": 104,
              "position": 15.75,
              "duration": 0.015625
            },
            {
              "pitch": 65,
              "velocity": 88,
              "position": 15.770833333333334,
              "duration": 0.015625
            },
            {
              "pitch": 65,
              "velocity": 110,
              "position": 15.875,
              "duration": 0.015625
            }
          ]
        },
        "12": {
          "ctab": {
            "srcChannel": 12,
            "name": "Aco.Bass",
            "accType": "BASS",
            "editable": false,
            "mutedNotes": [],
            "mutedChords": [
              "dim7",
              "dim",
              "minMaj7(9)",
              "minMaj7",
              "min7(11)",
              "min7(9)",
              "min(9)",
              "m7b5",
              "min7",
              "min6",
              "min"
            ],
            "autoStart": false,
            "sourceChordNote": 0,
            "sourceChordType": "Maj",
            "ctb2Low": null,
            "ctb2Main": {
              "ntr": "ROOT_TRANSPOSITION",
              "ntt": "MELODY",
              "bassOn": true,
              "chordRootUpperLimit": 3,
              "noteLowLimit": 28,
              "noteHighLimit": 54,
              "rtr": "PITCH_SHIFT_TO_ROOT"
            },
            "ctb2High": null
          },
          "notes": [
            {
              "pitch": 36,
              "velocity": 120,
              "position": 0,
              "duration": 0.6354166666666666
            },
            {
              "pitch": 43,
              "velocity": 120,
              "position": 0.75,
              "duration": 0.7083333333333334
            },
            {
              "pitch": 48,
              "velocity": 118,
              "position": 1.5,
              "duration": 0.46875
            },
            {
              "pitch": 51,
              "velocity": 110,
              "position": 2,
              "duration": 0.7291666666666666
            },
            {
              "pitch": 46,
              "velocity": 122,
              "position": 2.7395833333333335,
              "duration": 0.11458333333333333
            },
            {
              "pitch": 46,
              "velocity": 104,
              "position": 3,
              "duration": 0.4375
            },
            {
              "pitch": 38,
              "velocity": 120,
              "position": 3.4895833333333335,
              "duration": 1.1770833333333333
            },
            {
              "pitch": 45,
              "velocity": 104,
              "position": 4.760416666666667,
              "duration": 0.6666666666666666
            },
            {
              "pitch": 43,
              "velocity": 120,
              "position": 5.5,
              "duration": 0.9583333333333334
            },
            {
              "pitch": 31,
              "velocity": 104,
              "position": 6.739583333333333,
              "duration": 0.14583333333333334
            },
            {
              "pitch": 31,
              "velocity": 104,
              "position": 7,
              "duration": 0.46875
            },
            {
              "pitch": 36,
              "velocity": 120,
              "position": 7.5,
              "duration": 1.1041666666666667
            },
            {
              "pitch": 43,
              "velocity": 126,
              "position": 8.760416666666666,
              "duration": 0.5416666666666666
            },
            {
              "pitch": 48,
              "velocity": 122,
              "position": 9.5,
              "duration": 1.1145833333333333
            },
            {
              "pitch": 43,
              "velocity": 122,
              "position": 10.760416666666666,
              "duration": 0.625
            },
            {
              "pitch": 36,
              "velocity": 120,
              "position": 11.5,
              "duration": 1.0729166666666667
            },
            {
              "pitch": 43,
              "velocity": 122,
              "position": 12.760416666666666,
              "duration": 0.6458333333333334
            },
            {
              "pitch": 48,
              "velocity": 120,
              "position": 13.5,
              "duration": 1.0625
            },
            {
              "pitch": 31,
              "velocity": 94,
              "position": 14.760416666666666,
              "duration": 0.19791666666666666
            },
            {
              "pitch": 31,
              "velocity": 112,
              "position": 15,
              "duration": 0.3645833333333333
            },
            {
              "pitch": 36,
              "velocity": 122,
              "position": 15.5,
              "duration": 0.4791666666666667
            }
          ]
        },
        "13": {
          "ctab": {
            "srcChannel": 13,
            "name": "Aco.Bass",
            "accType": "BASS",
            "editable": false,
            "mutedNotes": [],
            "mutedChords": [
              "1+2+5",
              "sus4",
              "1+5",
              "1+8",
              "7aug",
              "Maj7aug",
              "7(#9)",
              "7(b13)",
              "7(b9)",
              "7(13)",
              "7#11",
              "7(9)",
              "7b5",
              "7sus4",
              "7th",
              "aug",
              "Maj6(9)",
              "Maj7(9)",
              "Maj(9)",
              "Maj7#11",
              "Maj7",
              "Maj6",
              "Maj"
            ],
            "autoStart": false,
            "sourceChordNote": 0,
            "sourceChordType": "min",
            "ctb2Low": null,
            "ctb2Main": {
              "ntr": "ROOT_TRANSPOSITION",
              "ntt": "MELODY",
              "bassOn": true,
              "chordRootUpperLimit": 3,
              "noteLowLimit": 28,
              "noteHighLimit": 54,
              "rtr": "PITCH_SHIFT_TO_ROOT"
            },
            "ctb2High": null
          },
          "notes": [
            {
              "pitch": 36,
              "velocity": 104,
              "position": 0,
              "duration": 0.6666666666666666
            },
            {
              "pitch": 43,
              "velocity": 122,
              "position": 0.7604166666666666,
              "duration": 0.6458333333333334
            },
            {
              "pitch": 48,
              "velocity": 120,
              "position": 1.4895833333333333,
              "duration": 0.4166666666666667
            },
            {
              "pitch": 46,
              "velocity": 104,
              "position": 1.9895833333333333,
              "duration": 0.6666666666666666
            },
            {
              "pitch": 41,
              "velocity": 104,
              "position": 2.75,
              "duration": 0.13541666666666666
            },
            {
              "pitch": 41,
              "velocity": 104,
              "position": 2.9895833333333335,
              "duration": 0.2916666666666667
            },
            {
              "pitch": 44,
              "velocity": 120,
              "position": 3.4895833333333335,
              "duration": 1.0416666666666667
            },
            {
              "pitch": 39,
              "velocity": 104,
              "position": 4.739583333333333,
              "duration": 0.59375
            },
            {
              "pitch": 43,
              "velocity": 104,
              "position": 5.510416666666667,
              "duration": 1.0520833333333333
            },
            {
              "pitch": 31,
              "velocity": 104,
              "position": 6.739583333333333,
              "duration": 0.14583333333333334
            },
            {
              "pitch": 31,
              "velocity": 104,
              "position": 7,
              "duration": 0.46875
            },
            {
              "pitch": 36,
              "velocity": 120,
              "position": 7.5,
              "duration": 1.1041666666666667
            },
            {
              "pitch": 43,
              "velocity": 126,
              "position": 8.760416666666666,
              "duration": 0.5416666666666666
            },
            {
              "pitch": 48,
              "velocity": 122,
              "position": 9.5,
              "duration": 1.1145833333333333
            },
            {
              "pitch": 43,
              "velocity": 122,
              "position": 10.760416666666666,
              "duration": 0.625
            },
            {
              "pitch": 36,
              "velocity": 120,
              "position": 11.5,
              "duration": 1.0729166666666667
            },
            {
              "pitch": 43,
              "velocity": 122,
              "position": 12.760416666666666,
              "duration": 0.6458333333333334
            },
            {
              "pitch": 48,
              "velocity": 120,
              "position": 13.5,
              "duration": 1.0625
            },
            {
              "pitch": 31,
              "velocity": 94,
              "position": 14.760416666666666,
              "duration": 0.19791666666666666
            },
            {
              "pitch": 31,
              "velocity": 112,
              "position": 15,
              "duration": 0.3645833333333333
            },
            {
              "pitch": 36,
              "velocity": 122,
              "position": 15.5,
              "duration": 0.4791666666666667
            }
          ]
        },
        "14": {
          "ctab": {
            "srcChannel": 14,
            "name": "GrandPno",
            "accType": "CHORD1",
            "editable": false,
            "mutedNotes": [],
            "mutedChords": [
              "dim7",
              "dim",
              "minMaj7(9)",
              "minMaj7",
              "min7(11)",
              "min7(9)",
              "min(9)",
              "m7b5",
              "min7",
              "min6",
              "min"
            ],
            "autoStart": false,
            "sourceChordNote": 0,
            "sourceChordType": "Maj",
            "ctb2Low": null,
            "ctb2Main": {
              "ntr": "ROOT_TRANSPOSITION",
              "ntt": "BYPASS",
              "bassOn": false,
              "chordRootUpperLimit": 6,
              "noteLowLimit": 0,
              "noteHighLimit": 79,
              "rtr": "PITCH_SHIFT"
            },
            "ctb2High": null
          },
          "notes": [
            {
              "pitch": 60,
              "velocity": 92,
              "position": 0,
              "duration": 0.3645833333333333
            },
            {
              "pitch": 72,
              "velocity": 110,
              "position": 0,
              "duration": 0.3854166666666667
            },
            {
              "pitch": 79,
              "velocity": 92,
              "position": 0.5,
              "duration": 0.6770833333333334
            },
            {
              "pitch": 64,
              "velocity": 80,
              "position": 0.5,
              "duration": 0.6875
            },
            {
              "pitch": 67,
              "velocity": 68,
              "position": 0.5,
              "duration": 0.6875
            },
            {
              "pitch": 76,
              "velocity": 104,
              "position": 0.5,
              "duration": 0.7083333333333334
            },
            {
              "pitch": 71,
              "velocity": 92,
              "position": 1.25,
              "duration": 0.3333333333333333
            },
            {
              "pitch": 59,
              "velocity": 80,
              "position": 1.2604166666666667,
              "duration": 0.375
            },
            {
              "pitch": 61,
              "velocity": 90,
              "position": 1.7604166666666667,
              "duration": 0.4166666666666667
            },
            {
              "pitch": 73,
              "velocity": 90,
              "position": 1.75,
              "duration": 0.4583333333333333
            },
            {
              "pitch": 82,
              "velocity": 80,
              "position": 2.2604166666666665,
              "duration": 0.3645833333333333
            },
            {
              "pitch": 79,
              "velocity": 88,
              "position": 2.25,
              "duration": 0.40625
            },
            {
              "pitch": 70,
              "velocity": 72,
              "position": 2.2604166666666665,
              "duration": 0.40625
            },
            {
              "pitch": 67,
              "velocity": 68,
              "position": 2.2604166666666665,
              "duration": 0.4270833333333333
            },
            {
              "pitch": 61,
              "velocity": 92,
              "position": 2.75,
              "duration": 0.4375
            },
            {
              "pitch": 73,
              "velocity": 110,
              "position": 2.75,
              "duration": 0.4479166666666667
            },
            {
              "pitch": 70,
              "velocity": 80,
              "position": 3.2604166666666665,
              "duration": 0.375
            },
            {
              "pitch": 82,
              "velocity": 88,
              "position": 3.25,
              "duration": 0.3958333333333333
            },
            {
              "pitch": 79,
              "velocity": 88,
              "position": 3.25,
              "duration": 0.4166666666666667
            },
            {
              "pitch": 67,
              "velocity": 68,
              "position": 3.2604166666666665,
              "duration": 0.40625
            },
            {
              "pitch": 73,
              "velocity": 104,
              "position": 3.75,
              "duration": 0.17708333333333334
            },
            {
              "pitch": 61,
              "velocity": 110,
              "position": 3.75,
              "duration": 0.17708333333333334
            },
            {
              "pitch": 72,
              "velocity": 88,
              "position": 4,
              "duration": 0.17708333333333334
            },
            {
              "pitch": 60,
              "velocity": 88,
              "position": 4,
              "duration": 0.1875
            },
            {
              "pitch": 65,
              "velocity": 90,
              "position": 4.25,
              "duration": 0.1875
            },
            {
              "pitch": 77,
              "velocity": 104,
              "position": 4.25,
              "duration": 0.1875
            },
            {
              "pitch": 69,
              "velocity": 88,
              "position": 4.5,
              "duration": 0.23958333333333334
            },
            {
              "pitch": 81,
              "velocity": 76,
              "position": 4.5,
              "duration": 0.2604166666666667
            },
            {
              "pitch": 60,
              "velocity": 94,
              "position": 4.760416666666667,
              "duration": 0.40625
            },
            {
              "pitch": 72,
              "velocity": 80,
              "position": 4.760416666666667,
              "duration": 0.4270833333333333
            },
            {
              "pitch": 81,
              "velocity": 88,
              "position": 5.260416666666667,
              "duration": 0.3958333333333333
            },
            {
              "pitch": 69,
              "velocity": 76,
              "position": 5.25,
              "duration": 0.4375
            },
            {
              "pitch": 65,
              "velocity": 110,
              "position": 5.25,
              "duration": 0.4791666666666667
            },
            {
              "pitch": 77,
              "velocity": 90,
              "position": 5.25,
              "duration": 0.4791666666666667
            },
            {
              "pitch": 71,
              "velocity": 90,
              "position": 5.760416666666667,
              "duration": 0.4166666666666667
            },
            {
              "pitch": 59,
              "velocity": 90,
              "position": 5.760416666666667,
              "duration": 0.4479166666666667
            },
            {
              "pitch": 67,
              "velocity": 88,
              "position": 6.25,
              "duration": 0.3541666666666667
            },
            {
              "pitch": 65,
              "velocity": 88,
              "position": 6.25,
              "duration": 0.375
            },
            {
              "pitch": 79,
              "velocity": 88,
              "position": 6.260416666666667,
              "duration": 0.375
            },
            {
              "pitch": 77,
              "velocity": 110,
              "position": 6.260416666666667,
              "duration": 0.3958333333333333
            },
            {
              "pitch": 59,
              "velocity": 92,
              "position": 6.75,
              "duration": 0.4270833333333333
            },
            {
              "pitch": 71,
              "velocity": 92,
              "position": 6.75,
              "duration": 0.4791666666666667
            },
            {
              "pitch": 67,
              "velocity": 88,
              "position": 7.25,
              "duration": 0.1875
            },
            {
              "pitch": 65,
              "velocity": 88,
              "position": 7.25,
              "duration": 0.20833333333333334
            },
            {
              "pitch": 79,
              "velocity": 88,
              "position": 7.260416666666667,
              "duration": 0.19791666666666666
            },
            {
              "pitch": 77,
              "velocity": 76,
              "position": 7.260416666666667,
              "duration": 0.21875
            },
            {
              "pitch": 69,
              "velocity": 72,
              "position": 7.5,
              "duration": 0.1875
            },
            {
              "pitch": 57,
              "velocity": 92,
              "position": 7.5,
              "duration": 0.22916666666666666
            },
            {
              "pitch": 59,
              "velocity": 80,
              "position": 7.75,
              "duration": 0.17708333333333334
            },
            {
              "pitch": 71,
              "velocity": 94,
              "position": 7.75,
              "duration": 0.17708333333333334
            },
            {
              "pitch": 72,
              "velocity": 104,
              "position": 8,
              "duration": 0.1875
            },
            {
              "pitch": 60,
              "velocity": 90,
              "position": 8,
              "duration": 0.23958333333333334
            },
            {
              "pitch": 64,
              "velocity": 80,
              "position": 8.25,
              "duration": 0.19791666666666666
            },
            {
              "pitch": 76,
              "velocity": 90,
              "position": 8.25,
              "duration": 0.20833333333333334
            },
            {
              "pitch": 67,
              "velocity": 104,
              "position": 8.5,
              "duration": 0.23958333333333334
            },
            {
              "pitch": 79,
              "velocity": 88,
              "position": 8.5,
              "duration": 0.2916666666666667
            },
            {
              "pitch": 59,
              "velocity": 88,
              "position": 8.770833333333334,
              "duration": 0.375
            },
            {
              "pitch": 71,
              "velocity": 94,
              "position": 8.760416666666666,
              "duration": 0.4479166666666667
            },
            {
              "pitch": 67,
              "velocity": 80,
              "position": 9.260416666666666,
              "duration": 0.3854166666666667
            },
            {
              "pitch": 64,
              "velocity": 104,
              "position": 9.260416666666666,
              "duration": 0.3854166666666667
            },
            {
              "pitch": 79,
              "velocity": 104,
              "position": 9.260416666666666,
              "duration": 0.3958333333333333
            },
            {
              "pitch": 76,
              "velocity": 124,
              "position": 9.260416666666666,
              "duration": 0.4479166666666667
            },
            {
              "pitch": 60,
              "velocity": 88,
              "position": 9.760416666666666,
              "duration": 0.3958333333333333
            },
            {
              "pitch": 72,
              "velocity": 104,
              "position": 9.760416666666666,
              "duration": 0.4375
            },
            {
              "pitch": 79,
              "velocity": 94,
              "position": 10.260416666666666,
              "duration": 0.40625
            },
            {
              "pitch": 64,
              "velocity": 88,
              "position": 10.260416666666666,
              "duration": 0.4166666666666667
            },
            {
              "pitch": 67,
              "velocity": 80,
              "position": 10.260416666666666,
              "duration": 0.4270833333333333
            },
            {
              "pitch": 76,
              "velocity": 80,
              "position": 10.260416666666666,
              "duration": 0.4479166666666667
            },
            {
              "pitch": 71,
              "velocity": 92,
              "position": 10.75,
              "duration": 0.4375
            },
            {
              "pitch": 59,
              "velocity": 92,
              "position": 10.760416666666666,
              "duration": 0.4375
            },
            {
              "pitch": 67,
              "velocity": 88,
              "position": 11.25,
              "duration": 0.3854166666666667
            },
            {
              "pitch": 64,
              "velocity": 110,
              "position": 11.25,
              "duration": 0.3958333333333333
            },
            {
              "pitch": 79,
              "velocity": 88,
              "position": 11.25,
              "duration": 0.40625
            },
            {
              "pitch": 76,
              "velocity": 110,
              "position": 11.25,
              "duration": 0.4583333333333333
            },
            {
              "pitch": 59,
              "velocity": 90,
              "position": 11.75,
              "duration": 0.19791666666666666
            },
            {
              "pitch": 71,
              "velocity": 92,
              "position": 11.75,
              "duration": 0.19791666666666666
            },
            {
              "pitch": 72,
              "velocity": 88,
              "position": 12,
              "duration": 0.17708333333333334
            },
            {
              "pitch": 60,
              "velocity": 88,
              "position": 12,
              "duration": 0.1875
            },
            {
              "pitch": 64,
              "velocity": 90,
              "position": 12.25,
              "duration": 0.1875
            },
            {
              "pitch": 76,
              "velocity": 104,
              "position": 12.25,
              "duration": 0.1875
            },
            {
              "pitch": 67,
              "velocity": 88,
              "position": 12.5,
              "duration": 0.23958333333333334
            },
            {
              "pitch": 79,
              "velocity": 76,
              "position": 12.5,
              "duration": 0.2604166666666667
            },
            {
              "pitch": 59,
              "velocity": 94,
              "position": 12.760416666666666,
              "duration": 0.40625
            },
            {
              "pitch": 71,
              "velocity": 80,
              "position": 12.760416666666666,
              "duration": 0.4270833333333333
            },
            {
              "pitch": 79,
              "velocity": 88,
              "position": 13.260416666666666,
              "duration": 0.3958333333333333
            },
            {
              "pitch": 67,
              "velocity": 76,
              "position": 13.25,
              "duration": 0.4375
            },
            {
              "pitch": 64,
              "velocity": 110,
              "position": 13.25,
              "duration": 0.4791666666666667
            },
            {
              "pitch": 76,
              "velocity": 90,
              "position": 13.25,
              "duration": 0.4791666666666667
            },
            {
              "pitch": 72,
              "velocity": 90,
              "position": 13.760416666666666,
              "duration": 0.4166666666666667
            },
            {
              "pitch": 60,
              "velocity": 90,
              "position": 13.760416666666666,
              "duration": 0.4479166666666667
            },
            {
              "pitch": 67,
              "velocity": 88,
              "position": 14.25,
              "duration": 0.3541666666666667
            },
            {
              "pitch": 64,
              "velocity": 88,
              "position": 14.25,
              "duration": 0.375
            },
            {
              "pitch": 79,
              "velocity": 88,
              "position": 14.260416666666666,
              "duration": 0.375
            },
            {
              "pitch": 76,
              "velocity": 110,
              "position": 14.260416666666666,
              "duration": 0.3958333333333333
            },
            {
              "pitch": 59,
              "velocity": 92,
              "position": 14.75,
              "duration": 0.4270833333333333
            },
            {
              "pitch": 71,
              "velocity": 92,
              "position": 14.75,
              "duration": 0.4791666666666667
            },
            {
              "pitch": 67,
              "velocity": 88,
              "position": 15.25,
              "duration": 0.1875
            },
            {
              "pitch": 64,
              "velocity": 88,
              "position": 15.25,
              "duration": 0.20833333333333334
            },
            {
              "pitch": 79,
              "velocity": 88,
              "position": 15.260416666666666,
              "duration": 0.19791666666666666
            },
            {
              "pitch": 76,
              "velocity": 76,
              "position": 15.260416666666666,
              "duration": 0.21875
            },
            {
              "pitch": 69,
              "velocity": 72,
              "position": 15.5,
              "duration": 0.1875
            },
            {
              "pitch": 57,
              "velocity": 92,
              "position": 15.5,
              "duration": 0.22916666666666666
            },
            {
              "pitch": 59,
              "velocity": 80,
              "position": 15.75,
              "duration": 0.17708333333333334
            },
            {
              "pitch": 71,
              "velocity": 94,
              "position": 15.75,
              "duration": 0.17708333333333334
            }
          ]
        },
        "15": {
          "ctab": {
            "srcChannel": 15,
            "name": "GrandPno",
            "accType": "CHORD1",
            "editable": false,
            "mutedNotes": [],
            "mutedChords": [
              "1+2+5",
              "sus4",
              "1+5",
              "1+8",
              "7aug",
              "Maj7aug",
              "7(#9)",
              "7(b13)",
              "7(b9)",
              "7(13)",
              "7#11",
              "7(9)",
              "7b5",
              "7sus4",
              "7th",
              "aug",
              "Maj6(9)",
              "Maj7(9)",
              "Maj(9)",
              "Maj7#11",
              "Maj7",
              "Maj6",
              "Maj"
            ],
            "autoStart": false,
            "sourceChordNote": 0,
            "sourceChordType": "min",
            "ctb2Low": null,
            "ctb2Main": {
              "ntr": "ROOT_TRANSPOSITION",
              "ntt": "BYPASS",
              "bassOn": false,
              "chordRootUpperLimit": 6,
              "noteLowLimit": 0,
              "noteHighLimit": 127,
              "rtr": "PITCH_SHIFT"
            },
            "ctb2High": null
          },
          "notes": [
            {
              "pitch": 62,
              "velocity": 126,
              "position": 0,
              "duration": 0.9791666666666666
            },
            {
              "pitch": 63,
              "velocity": 106,
              "position": 0,
              "duration": 0.9895833333333334
            },
            {
              "pitch": 67,
              "velocity": 126,
              "position": 0,
              "duration": 1
            },
            {
              "pitch": 48,
              "velocity": 94,
              "position": 0,
              "duration": 1.0104166666666667
            },
            {
              "pitch": 57,
              "velocity": 80,
              "position": 0,
              "duration": 1.0520833333333333
            },
            {
              "pitch": 63,
              "velocity": 102,
              "position": 1.2604166666666667,
              "duration": 0.125
            },
            {
              "pitch": 62,
              "velocity": 102,
              "position": 1.2604166666666667,
              "duration": 0.125
            },
            {
              "pitch": 57,
              "velocity": 110,
              "position": 1.2604166666666667,
              "duration": 0.13541666666666666
            },
            {
              "pitch": 48,
              "velocity": 94,
              "position": 1.2604166666666667,
              "duration": 0.14583333333333334
            },
            {
              "pitch": 67,
              "velocity": 102,
              "position": 1.2604166666666667,
              "duration": 0.14583333333333334
            },
            {
              "pitch": 62,
              "velocity": 90,
              "position": 1.7604166666666667,
              "duration": 1.6875
            },
            {
              "pitch": 67,
              "velocity": 110,
              "position": 1.7604166666666667,
              "duration": 1.75
            },
            {
              "pitch": 56,
              "velocity": 94,
              "position": 1.7604166666666667,
              "duration": 1.7604166666666667
            },
            {
              "pitch": 46,
              "velocity": 90,
              "position": 1.7604166666666667,
              "duration": 1.7708333333333333
            },
            {
              "pitch": 72,
              "velocity": 110,
              "position": 1.7604166666666667,
              "duration": 1.7708333333333333
            },
            {
              "pitch": 70,
              "velocity": 102,
              "position": 4.010416666666667,
              "duration": 0.5
            },
            {
              "pitch": 44,
              "velocity": 90,
              "position": 4.010416666666667,
              "duration": 0.5104166666666666
            },
            {
              "pitch": 60,
              "velocity": 94,
              "position": 4.010416666666667,
              "duration": 0.53125
            },
            {
              "pitch": 54,
              "velocity": 110,
              "position": 4.010416666666667,
              "duration": 0.53125
            },
            {
              "pitch": 65,
              "velocity": 102,
              "position": 4.010416666666667,
              "duration": 0.53125
            },
            {
              "pitch": 54,
              "velocity": 80,
              "position": 4.770833333333333,
              "duration": 0.09375
            },
            {
              "pitch": 70,
              "velocity": 70,
              "position": 4.770833333333333,
              "duration": 0.10416666666666667
            },
            {
              "pitch": 44,
              "velocity": 80,
              "position": 4.78125,
              "duration": 0.09375
            },
            {
              "pitch": 65,
              "velocity": 62,
              "position": 4.770833333333333,
              "duration": 0.11458333333333333
            },
            {
              "pitch": 60,
              "velocity": 80,
              "position": 4.770833333333333,
              "duration": 0.13541666666666666
            },
            {
              "pitch": 60,
              "velocity": 98,
              "position": 5.260416666666667,
              "duration": 0.125
            },
            {
              "pitch": 65,
              "velocity": 104,
              "position": 5.270833333333333,
              "duration": 0.125
            },
            {
              "pitch": 70,
              "velocity": 104,
              "position": 5.270833333333333,
              "duration": 0.125
            },
            {
              "pitch": 54,
              "velocity": 104,
              "position": 5.270833333333333,
              "duration": 0.13541666666666666
            },
            {
              "pitch": 44,
              "velocity": 108,
              "position": 5.270833333333333,
              "duration": 0.16666666666666666
            },
            {
              "pitch": 59,
              "velocity": 80,
              "position": 5.760416666666667,
              "duration": 0.6875
            },
            {
              "pitch": 63,
              "velocity": 94,
              "position": 5.760416666666667,
              "duration": 0.71875
            },
            {
              "pitch": 43,
              "velocity": 94,
              "position": 5.760416666666667,
              "duration": 0.7291666666666666
            },
            {
              "pitch": 68,
              "velocity": 94,
              "position": 5.770833333333333,
              "duration": 0.71875
            },
            {
              "pitch": 53,
              "velocity": 94,
              "position": 5.760416666666667,
              "duration": 0.7604166666666666
            },
            {
              "pitch": 53,
              "velocity": 122,
              "position": 6.760416666666667,
              "duration": 0.14583333333333334
            },
            {
              "pitch": 59,
              "velocity": 92,
              "position": 6.760416666666667,
              "duration": 0.14583333333333334
            },
            {
              "pitch": 63,
              "velocity": 92,
              "position": 6.760416666666667,
              "duration": 0.14583333333333334
            },
            {
              "pitch": 43,
              "velocity": 80,
              "position": 6.760416666666667,
              "duration": 0.14583333333333334
            },
            {
              "pitch": 68,
              "velocity": 122,
              "position": 6.760416666666667,
              "duration": 0.15625
            },
            {
              "pitch": 63,
              "velocity": 76,
              "position": 7,
              "duration": 0.125
            },
            {
              "pitch": 59,
              "velocity": 80,
              "position": 7,
              "duration": 0.13541666666666666
            },
            {
              "pitch": 43,
              "velocity": 78,
              "position": 7,
              "duration": 0.14583333333333334
            },
            {
              "pitch": 53,
              "velocity": 84,
              "position": 7.010416666666667,
              "duration": 0.13541666666666666
            },
            {
              "pitch": 68,
              "velocity": 80,
              "position": 7,
              "duration": 0.15625
            },
            {
              "pitch": 63,
              "velocity": 90,
              "position": 7.5,
              "duration": 0.4583333333333333
            },
            {
              "pitch": 62,
              "velocity": 104,
              "position": 7.5,
              "duration": 0.46875
            },
            {
              "pitch": 48,
              "velocity": 80,
              "position": 7.5,
              "duration": 0.46875
            },
            {
              "pitch": 67,
              "velocity": 88,
              "position": 7.5,
              "duration": 0.4791666666666667
            },
            {
              "pitch": 57,
              "velocity": 80,
              "position": 7.5,
              "duration": 0.4791666666666667
            },
            {
              "pitch": 60,
              "velocity": 98,
              "position": 8.010416666666666,
              "duration": 0.2916666666666667
            },
            {
              "pitch": 72,
              "velocity": 120,
              "position": 8,
              "duration": 0.3229166666666667
            },
            {
              "pitch": 63,
              "velocity": 98,
              "position": 8.489583333333334,
              "duration": 0.16666666666666666
            },
            {
              "pitch": 75,
              "velocity": 98,
              "position": 8.489583333333334,
              "duration": 0.20833333333333334
            },
            {
              "pitch": 67,
              "velocity": 88,
              "position": 8.75,
              "duration": 0.3333333333333333
            },
            {
              "pitch": 55,
              "velocity": 102,
              "position": 8.760416666666666,
              "duration": 0.3541666666666667
            },
            {
              "pitch": 57,
              "velocity": 98,
              "position": 9.25,
              "duration": 0.3854166666666667
            },
            {
              "pitch": 69,
              "velocity": 98,
              "position": 9.239583333333334,
              "duration": 0.40625
            },
            {
              "pitch": 72,
              "velocity": 102,
              "position": 9.75,
              "duration": 0.3541666666666667
            },
            {
              "pitch": 60,
              "velocity": 100,
              "position": 9.75,
              "duration": 0.4166666666666667
            },
            {
              "pitch": 63,
              "velocity": 116,
              "position": 10.260416666666666,
              "duration": 0.3958333333333333
            },
            {
              "pitch": 75,
              "velocity": 120,
              "position": 10.260416666666666,
              "duration": 0.4479166666666667
            },
            {
              "pitch": 67,
              "velocity": 100,
              "position": 10.760416666666666,
              "duration": 0.3958333333333333
            },
            {
              "pitch": 55,
              "velocity": 98,
              "position": 10.760416666666666,
              "duration": 0.4270833333333333
            },
            {
              "pitch": 57,
              "velocity": 112,
              "position": 11.260416666666666,
              "duration": 0.34375
            },
            {
              "pitch": 69,
              "velocity": 120,
              "position": 11.25,
              "duration": 0.375
            },
            {
              "pitch": 60,
              "velocity": 88,
              "position": 11.75,
              "duration": 0.10416666666666667
            },
            {
              "pitch": 72,
              "velocity": 116,
              "position": 11.760416666666666,
              "duration": 0.125
            },
            {
              "pitch": 72,
              "velocity": 120,
              "position": 12.010416666666666,
              "duration": 0.3125
            },
            {
              "pitch": 60,
              "velocity": 120,
              "position": 12.010416666666666,
              "duration": 0.3541666666666667
            },
            {
              "pitch": 63,
              "velocity": 88,
              "position": 12.510416666666666,
              "duration": 0.09375
            },
            {
              "pitch": 75,
              "velocity": 102,
              "position": 12.5,
              "duration": 0.19791666666666666
            },
            {
              "pitch": 55,
              "velocity": 102,
              "position": 12.760416666666666,
              "duration": 0.3645833333333333
            },
            {
              "pitch": 67,
              "velocity": 102,
              "position": 12.760416666666666,
              "duration": 0.375
            },
            {
              "pitch": 57,
              "velocity": 100,
              "position": 13.25,
              "duration": 0.3854166666666667
            },
            {
              "pitch": 69,
              "velocity": 116,
              "position": 13.25,
              "duration": 0.40625
            },
            {
              "pitch": 60,
              "velocity": 120,
              "position": 13.75,
              "duration": 0.17708333333333334
            },
            {
              "pitch": 72,
              "velocity": 120,
              "position": 13.760416666666666,
              "duration": 0.1875
            },
            {
              "pitch": 67,
              "velocity": 126,
              "position": 14.760416666666666,
              "duration": 1.0520833333333333
            },
            {
              "pitch": 79,
              "velocity": 126,
              "position": 14.760416666666666,
              "duration": 1.0520833333333333
            },
            {
              "pitch": 43,
              "velocity": 126,
              "position": 14.760416666666666,
              "duration": 1.0520833333333333
            },
            {
              "pitch": 55,
              "velocity": 106,
              "position": 14.760416666666666,
              "duration": 1.0520833333333333
            }
          ]
        }
      }
    },
    "Ending_A": {
      "type": "Ending_A",
      "sizeInBeats": 8,
      "channels": {
        "1": {
          "ctab": {
            "srcChannel": 1,
            "name": "BrasSect",
            "accType": "PHRASE1",
            "editable": false,
            "mutedNotes": [],
            "mutedChords": [
              "7aug",
              "Maj7aug",
              "7(#9)",
              "7(b13)",
              "7(b9)",
              "7(13)",
              "7#11",
              "7(9)",
              "7b5",
              "7sus4",
              "7th",
              "dim7",
              "dim",
              "minMaj7(9)",
              "minMaj7",
              "min7(11)",
              "min7(9)",
              "min(9)",
              "m7b5",
              "min7",
              "min6",
              "min"
            ],
            "autoStart": false,
            "sourceChordNote": 0,
            "sourceChordType": "Maj",
            "ctb2Low": null,
            "ctb2Main": {
              "ntr": "ROOT_TRANSPOSITION",
              "ntt": "BYPASS",
              "bassOn": false,
              "chordRootUpperLimit": 6,
              "noteLowLimit": 0,
              "noteHighLimit": 127,
              "rtr": "PITCH_SHIFT"
            },
            "ctb2High": null
          },
          "notes": [
            {
              "pitch": 67,
              "velocity": 94,
              "position": 0,
              "duration": 0.15625
            },
            {
              "pitch": 64,
              "velocity": 94,
              "position": 0,
              "duration": 0.1875
            },
            {
              "pitch": 60,
              "velocity": 110,
              "position": 0,
              "duration": 0.19791666666666666
            },
            {
              "pitch": 67,
              "velocity": 90,
              "position": 0.2604166666666667,
              "duration": 0.10416666666666667
            },
            {
              "pitch": 64,
              "velocity": 72,
              "position": 0.2604166666666667,
              "duration": 0.11458333333333333
            },
            {
              "pitch": 60,
              "velocity": 92,
              "position": 0.2604166666666667,
              "duration": 0.11458333333333333
            },
            {
              "pitch": 67,
              "velocity": 122,
              "position": 0.7604166666666666,
              "duration": 0.5
            },
            {
              "pitch": 64,
              "velocity": 122,
              "position": 0.7604166666666666,
              "duration": 0.5208333333333334
            },
            {
              "pitch": 60,
              "velocity": 124,
              "position": 0.7604166666666666,
              "duration": 0.53125
            },
            {
              "pitch": 60,
              "velocity": 120,
              "position": 1.4895833333333333,
              "duration": 0.20833333333333334
            },
            {
              "pitch": 64,
              "velocity": 110,
              "position": 1.4895833333333333,
              "duration": 0.20833333333333334
            },
            {
              "pitch": 67,
              "velocity": 110,
              "position": 1.4895833333333333,
              "duration": 0.20833333333333334
            },
            {
              "pitch": 60,
              "velocity": 98,
              "position": 1.7708333333333333,
              "duration": 0.125
            },
            {
              "pitch": 67,
              "velocity": 88,
              "position": 1.7708333333333333,
              "duration": 0.13541666666666666
            },
            {
              "pitch": 64,
              "velocity": 98,
              "position": 1.7708333333333333,
              "duration": 0.14583333333333334
            },
            {
              "pitch": 67,
              "velocity": 106,
              "position": 2.2604166666666665,
              "duration": 0.5833333333333334
            },
            {
              "pitch": 64,
              "velocity": 108,
              "position": 2.2604166666666665,
              "duration": 0.59375
            },
            {
              "pitch": 60,
              "velocity": 104,
              "position": 2.25,
              "duration": 0.6145833333333334
            },
            {
              "pitch": 60,
              "velocity": 104,
              "position": 2.9895833333333335,
              "duration": 0.19791666666666666
            },
            {
              "pitch": 64,
              "velocity": 104,
              "position": 2.9895833333333335,
              "duration": 0.22916666666666666
            },
            {
              "pitch": 67,
              "velocity": 104,
              "position": 2.9895833333333335,
              "duration": 0.22916666666666666
            },
            {
              "pitch": 67,
              "velocity": 116,
              "position": 3.2708333333333335,
              "duration": 0.11458333333333333
            },
            {
              "pitch": 60,
              "velocity": 120,
              "position": 3.2708333333333335,
              "duration": 0.13541666666666666
            },
            {
              "pitch": 64,
              "velocity": 120,
              "position": 3.2708333333333335,
              "duration": 0.14583333333333334
            },
            {
              "pitch": 64,
              "velocity": 110,
              "position": 6.75,
              "duration": 0.1875
            },
            {
              "pitch": 67,
              "velocity": 120,
              "position": 6.75,
              "duration": 0.19791666666666666
            },
            {
              "pitch": 60,
              "velocity": 120,
              "position": 6.75,
              "duration": 0.21875
            }
          ]
        },
        "2": {
          "ctab": {
            "srcChannel": 2,
            "name": "BrasSect",
            "accType": "PHRASE1",
            "editable": false,
            "mutedNotes": [],
            "mutedChords": [
              "1+2+5",
              "sus4",
              "1+5",
              "1+8",
              "7aug",
              "Maj7aug",
              "7(#9)",
              "7(b13)",
              "7(b9)",
              "7(13)",
              "7#11",
              "7(9)",
              "7b5",
              "7sus4",
              "7th",
              "aug",
              "Maj6(9)",
              "Maj7(9)",
              "Maj(9)",
              "Maj7#11",
              "Maj7",
              "Maj6",
              "Maj"
            ],
            "autoStart": false,
            "sourceChordNote": 0,
            "sourceChordType": "min",
            "ctb2Low": null,
            "ctb2Main": {
              "ntr": "ROOT_TRANSPOSITION",
              "ntt": "BYPASS",
              "bassOn": false,
              "chordRootUpperLimit": 6,
              "noteLowLimit": 0,
              "noteHighLimit": 127,
              "rtr": "PITCH_SHIFT"
            },
            "ctb2High": null
          },
          "notes": [
            {
              "pitch": 67,
              "velocity": 94,
              "position": 0,
              "duration": 0.15625
            },
            {
              "pitch": 63,
              "velocity": 94,
              "position": 0,
              "duration": 0.1875
            },
            {
              "pitch": 60,
              "velocity": 110,
              "position": 0,
              "duration": 0.19791666666666666
            },
            {
              "pitch": 67,
              "velocity": 90,
              "position": 0.2604166666666667,
              "duration": 0.10416666666666667
            },
            {
              "pitch": 63,
              "velocity": 72,
              "position": 0.2604166666666667,
              "duration": 0.11458333333333333
            },
            {
              "pitch": 60,
              "velocity": 92,
              "position": 0.2604166666666667,
              "duration": 0.11458333333333333
            },
            {
              "pitch": 67,
              "velocity": 122,
              "position": 0.7604166666666666,
              "duration": 0.5
            },
            {
              "pitch": 63,
              "velocity": 122,
              "position": 0.7604166666666666,
              "duration": 0.5208333333333334
            },
            {
              "pitch": 60,
              "velocity": 124,
              "position": 0.7604166666666666,
              "duration": 0.53125
            },
            {
              "pitch": 60,
              "velocity": 120,
              "position": 1.4895833333333333,
              "duration": 0.20833333333333334
            },
            {
              "pitch": 63,
              "velocity": 110,
              "position": 1.4895833333333333,
              "duration": 0.20833333333333334
            },
            {
              "pitch": 67,
              "velocity": 110,
              "position": 1.4895833333333333,
              "duration": 0.20833333333333334
            },
            {
              "pitch": 60,
              "velocity": 98,
              "position": 1.7708333333333333,
              "duration": 0.125
            },
            {
              "pitch": 67,
              "velocity": 88,
              "position": 1.7708333333333333,
              "duration": 0.13541666666666666
            },
            {
              "pitch": 63,
              "velocity": 98,
              "position": 1.7708333333333333,
              "duration": 0.14583333333333334
            },
            {
              "pitch": 67,
              "velocity": 106,
              "position": 2.2604166666666665,
              "duration": 0.5833333333333334
            },
            {
              "pitch": 63,
              "velocity": 108,
              "position": 2.2604166666666665,
              "duration": 0.59375
            },
            {
              "pitch": 60,
              "velocity": 104,
              "position": 2.25,
              "duration": 0.6145833333333334
            },
            {
              "pitch": 60,
              "velocity": 104,
              "position": 2.9895833333333335,
              "duration": 0.19791666666666666
            },
            {
              "pitch": 63,
              "velocity": 104,
              "position": 2.9895833333333335,
              "duration": 0.22916666666666666
            },
            {
              "pitch": 67,
              "velocity": 104,
              "position": 2.9895833333333335,
              "duration": 0.22916666666666666
            },
            {
              "pitch": 67,
              "velocity": 116,
              "position": 3.2708333333333335,
              "duration": 0.11458333333333333
            },
            {
              "pitch": 60,
              "velocity": 120,
              "position": 3.2708333333333335,
              "duration": 0.13541666666666666
            },
            {
              "pitch": 63,
              "velocity": 120,
              "position": 3.2708333333333335,
              "duration": 0.14583333333333334
            },
            {
              "pitch": 63,
              "velocity": 110,
              "position": 6.75,
              "duration": 0.1875
            },
            {
              "pitch": 67,
              "velocity": 120,
              "position": 6.75,
              "duration": 0.19791666666666666
            },
            {
              "pitch": 60,
              "velocity": 126,
              "position": 6.75,
              "duration": 0.19791666666666666
            }
          ]
        },
        "3": {
          "ctab": {
            "srcChannel": 3,
            "name": "BrasSect",
            "accType": "PHRASE1",
            "editable": false,
            "mutedNotes": [],
            "mutedChords": [
              "1+2+5",
              "sus4",
              "1+5",
              "1+8",
              "dim7",
              "dim",
              "minMaj7(9)",
              "minMaj7",
              "min7(11)",
              "min7(9)",
              "min(9)",
              "m7b5",
              "min7",
              "min6",
              "min",
              "aug",
              "Maj6(9)",
              "Maj7(9)",
              "Maj(9)",
              "Maj7#11",
              "Maj7",
              "Maj6",
              "Maj"
            ],
            "autoStart": false,
            "sourceChordNote": 0,
            "sourceChordType": "7th",
            "ctb2Low": null,
            "ctb2Main": {
              "ntr": "ROOT_TRANSPOSITION",
              "ntt": "BYPASS",
              "bassOn": false,
              "chordRootUpperLimit": 6,
              "noteLowLimit": 0,
              "noteHighLimit": 127,
              "rtr": "PITCH_SHIFT"
            },
            "ctb2High": null
          },
          "notes": [
            {
              "pitch": 60,
              "velocity": 110,
              "position": 0,
              "duration": 0.15625
            },
            {
              "pitch": 70,
              "velocity": 94,
              "position": 0,
              "duration": 0.15625
            },
            {
              "pitch": 64,
              "velocity": 94,
              "position": 0,
              "duration": 0.1875
            },
            {
              "pitch": 58,
              "velocity": 94,
              "position": 0,
              "duration": 0.19791666666666666
            },
            {
              "pitch": 70,
              "velocity": 90,
              "position": 0.2604166666666667,
              "duration": 0.10416666666666667
            },
            {
              "pitch": 64,
              "velocity": 72,
              "position": 0.2604166666666667,
              "duration": 0.11458333333333333
            },
            {
              "pitch": 60,
              "velocity": 92,
              "position": 0.2604166666666667,
              "duration": 0.11458333333333333
            },
            {
              "pitch": 58,
              "velocity": 92,
              "position": 0.2604166666666667,
              "duration": 0.125
            },
            {
              "pitch": 60,
              "velocity": 124,
              "position": 0.7604166666666666,
              "duration": 0.4895833333333333
            },
            {
              "pitch": 70,
              "velocity": 122,
              "position": 0.7604166666666666,
              "duration": 0.5
            },
            {
              "pitch": 64,
              "velocity": 122,
              "position": 0.7604166666666666,
              "duration": 0.5208333333333334
            },
            {
              "pitch": 58,
              "velocity": 112,
              "position": 0.7604166666666666,
              "duration": 0.53125
            },
            {
              "pitch": 64,
              "velocity": 110,
              "position": 1.4895833333333333,
              "duration": 0.20833333333333334
            },
            {
              "pitch": 70,
              "velocity": 110,
              "position": 1.4895833333333333,
              "duration": 0.20833333333333334
            },
            {
              "pitch": 60,
              "velocity": 110,
              "position": 1.4895833333333333,
              "duration": 0.20833333333333334
            },
            {
              "pitch": 58,
              "velocity": 120,
              "position": 1.4895833333333333,
              "duration": 0.22916666666666666
            },
            {
              "pitch": 58,
              "velocity": 98,
              "position": 1.7708333333333333,
              "duration": 0.125
            },
            {
              "pitch": 60,
              "velocity": 98,
              "position": 1.7708333333333333,
              "duration": 0.13541666666666666
            },
            {
              "pitch": 70,
              "velocity": 88,
              "position": 1.7708333333333333,
              "duration": 0.13541666666666666
            },
            {
              "pitch": 64,
              "velocity": 98,
              "position": 1.7708333333333333,
              "duration": 0.14583333333333334
            },
            {
              "pitch": 70,
              "velocity": 106,
              "position": 2.2604166666666665,
              "duration": 0.5833333333333334
            },
            {
              "pitch": 64,
              "velocity": 108,
              "position": 2.2604166666666665,
              "duration": 0.59375
            },
            {
              "pitch": 58,
              "velocity": 108,
              "position": 2.2604166666666665,
              "duration": 0.6041666666666666
            },
            {
              "pitch": 60,
              "velocity": 104,
              "position": 2.25,
              "duration": 0.625
            },
            {
              "pitch": 60,
              "velocity": 110,
              "position": 2.9895833333333335,
              "duration": 0.19791666666666666
            },
            {
              "pitch": 58,
              "velocity": 104,
              "position": 2.9895833333333335,
              "duration": 0.20833333333333334
            },
            {
              "pitch": 64,
              "velocity": 104,
              "position": 2.9895833333333335,
              "duration": 0.22916666666666666
            },
            {
              "pitch": 70,
              "velocity": 104,
              "position": 2.9895833333333335,
              "duration": 0.22916666666666666
            },
            {
              "pitch": 70,
              "velocity": 116,
              "position": 3.2708333333333335,
              "duration": 0.11458333333333333
            },
            {
              "pitch": 58,
              "velocity": 120,
              "position": 3.2708333333333335,
              "duration": 0.13541666666666666
            },
            {
              "pitch": 64,
              "velocity": 120,
              "position": 3.2708333333333335,
              "duration": 0.14583333333333334
            },
            {
              "pitch": 60,
              "velocity": 120,
              "position": 3.2708333333333335,
              "duration": 0.14583333333333334
            },
            {
              "pitch": 64,
              "velocity": 110,
              "position": 6.75,
              "duration": 0.1875
            },
            {
              "pitch": 70,
              "velocity": 120,
              "position": 6.75,
              "duration": 0.19791666666666666
            },
            {
              "pitch": 60,
              "velocity": 120,
              "position": 6.75,
              "duration": 0.19791666666666666
            },
            {
              "pitch": 58,
              "velocity": 126,
              "position": 6.75,
              "duration": 0.21875
            }
          ]
        },
        "4": {
          "ctab": {
            "srcChannel": 4,
            "name": "BrasSect",
            "accType": "PHRASE2",
            "editable": false,
            "mutedNotes": [],
            "mutedChords": [
              "7aug",
              "Maj7aug",
              "7(#9)",
              "7(b13)",
              "7(b9)",
              "7(13)",
              "7#11",
              "7(9)",
              "7b5",
              "7sus4",
              "7th",
              "dim7",
              "dim",
              "minMaj7(9)",
              "minMaj7",
              "min7(11)",
              "min7(9)",
              "min(9)",
              "m7b5",
              "min7",
              "min6",
              "min"
            ],
            "autoStart": false,
            "sourceChordNote": 0,
            "sourceChordType": "Maj",
            "ctb2Low": null,
            "ctb2Main": {
              "ntr": "ROOT_TRANSPOSITION",
              "ntt": "BYPASS",
              "bassOn": false,
              "chordRootUpperLimit": 6,
              "noteLowLimit": 0,
              "noteHighLimit": 127,
              "rtr": "PITCH_SHIFT"
            },
            "ctb2High": null
          },
          "notes": [
            {
              "pitch": 79,
              "velocity": 124,
              "position": 0,
              "duration": 0.21875
            },
            {
              "pitch": 67,
              "velocity": 124,
              "position": 0,
              "duration": 0.23958333333333334
            },
            {
              "pitch": 69,
              "velocity": 104,
              "position": 0.2604166666666667,
              "duration": 0.13541666666666666
            },
            {
              "pitch": 81,
              "velocity": 110,
              "position": 0.2604166666666667,
              "duration": 0.15625
            },
            {
              "pitch": 84,
              "velocity": 126,
              "position": 0.7395833333333334,
              "duration": 0.6770833333333334
            },
            {
              "pitch": 72,
              "velocity": 116,
              "position": 0.7395833333333334,
              "duration": 0.6770833333333334
            },
            {
              "pitch": 79,
              "velocity": 90,
              "position": 1.5,
              "duration": 0.20833333333333334
            },
            {
              "pitch": 67,
              "velocity": 90,
              "position": 1.5,
              "duration": 0.21875
            },
            {
              "pitch": 69,
              "velocity": 110,
              "position": 1.7604166666666667,
              "duration": 0.13541666666666666
            },
            {
              "pitch": 81,
              "velocity": 110,
              "position": 1.7708333333333333,
              "duration": 0.125
            },
            {
              "pitch": 72,
              "velocity": 124,
              "position": 2.2604166666666665,
              "duration": 0.6666666666666666
            },
            {
              "pitch": 84,
              "velocity": 124,
              "position": 2.2604166666666665,
              "duration": 0.6770833333333334
            },
            {
              "pitch": 79,
              "velocity": 110,
              "position": 3.0208333333333335,
              "duration": 0.20833333333333334
            },
            {
              "pitch": 67,
              "velocity": 110,
              "position": 3.0104166666666665,
              "duration": 0.22916666666666666
            },
            {
              "pitch": 81,
              "velocity": 90,
              "position": 3.28125,
              "duration": 0.14583333333333334
            },
            {
              "pitch": 69,
              "velocity": 90,
              "position": 3.28125,
              "duration": 0.14583333333333334
            },
            {
              "pitch": 79,
              "velocity": 112,
              "position": 6.770833333333333,
              "duration": 0.21875
            },
            {
              "pitch": 74,
              "velocity": 126,
              "position": 6.770833333333333,
              "duration": 0.21875
            },
            {
              "pitch": 76,
              "velocity": 112,
              "position": 6.770833333333333,
              "duration": 0.22916666666666666
            },
            {
              "pitch": 84,
              "velocity": 112,
              "position": 6.770833333333333,
              "duration": 0.22916666666666666
            }
          ]
        },
        "5": {
          "ctab": {
            "srcChannel": 5,
            "name": "BrasSect",
            "accType": "PHRASE2",
            "editable": false,
            "mutedNotes": [],
            "mutedChords": [
              "1+2+5",
              "sus4",
              "1+5",
              "1+8",
              "7aug",
              "Maj7aug",
              "7(#9)",
              "7(b13)",
              "7(b9)",
              "7(13)",
              "7#11",
              "7(9)",
              "7b5",
              "7sus4",
              "7th",
              "aug",
              "Maj6(9)",
              "Maj7(9)",
              "Maj(9)",
              "Maj7#11",
              "Maj7",
              "Maj6",
              "Maj"
            ],
            "autoStart": false,
            "sourceChordNote": 0,
            "sourceChordType": "min",
            "ctb2Low": null,
            "ctb2Main": {
              "ntr": "ROOT_TRANSPOSITION",
              "ntt": "BYPASS",
              "bassOn": false,
              "chordRootUpperLimit": 6,
              "noteLowLimit": 0,
              "noteHighLimit": 127,
              "rtr": "PITCH_SHIFT"
            },
            "ctb2High": null
          },
          "notes": [
            {
              "pitch": 75,
              "velocity": 124,
              "position": 0,
              "duration": 0.21875
            },
            {
              "pitch": 63,
              "velocity": 124,
              "position": 0,
              "duration": 0.23958333333333334
            },
            {
              "pitch": 67,
              "velocity": 104,
              "position": 0.2604166666666667,
              "duration": 0.13541666666666666
            },
            {
              "pitch": 79,
              "velocity": 110,
              "position": 0.2604166666666667,
              "duration": 0.15625
            },
            {
              "pitch": 84,
              "velocity": 126,
              "position": 0.7395833333333334,
              "duration": 0.6770833333333334
            },
            {
              "pitch": 72,
              "velocity": 116,
              "position": 0.7395833333333334,
              "duration": 0.6770833333333334
            },
            {
              "pitch": 75,
              "velocity": 90,
              "position": 1.5,
              "duration": 0.20833333333333334
            },
            {
              "pitch": 63,
              "velocity": 90,
              "position": 1.5,
              "duration": 0.21875
            },
            {
              "pitch": 67,
              "velocity": 110,
              "position": 1.7604166666666667,
              "duration": 0.13541666666666666
            },
            {
              "pitch": 79,
              "velocity": 110,
              "position": 1.7708333333333333,
              "duration": 0.125
            },
            {
              "pitch": 72,
              "velocity": 124,
              "position": 2.2604166666666665,
              "duration": 0.6666666666666666
            },
            {
              "pitch": 84,
              "velocity": 124,
              "position": 2.2604166666666665,
              "duration": 0.6770833333333334
            },
            {
              "pitch": 75,
              "velocity": 110,
              "position": 3.0208333333333335,
              "duration": 0.20833333333333334
            },
            {
              "pitch": 63,
              "velocity": 110,
              "position": 3.0104166666666665,
              "duration": 0.22916666666666666
            },
            {
              "pitch": 79,
              "velocity": 90,
              "position": 3.28125,
              "duration": 0.14583333333333334
            },
            {
              "pitch": 67,
              "velocity": 90,
              "position": 3.28125,
              "duration": 0.14583333333333334
            },
            {
              "pitch": 79,
              "velocity": 112,
              "position": 6.770833333333333,
              "duration": 0.21875
            },
            {
              "pitch": 72,
              "velocity": 126,
              "position": 6.770833333333333,
              "duration": 0.21875
            },
            {
              "pitch": 75,
              "velocity": 112,
              "position": 6.770833333333333,
              "duration": 0.22916666666666666
            },
            {
              "pitch": 84,
              "velocity": 112,
              "position": 6.770833333333333,
              "duration": 0.22916666666666666
            }
          ]
        },
        "6": {
          "ctab": {
            "srcChannel": 6,
            "name": "BrasSect",
            "accType": "PHRASE2",
            "editable": false,
            "mutedNotes": [],
            "mutedChords": [
              "1+2+5",
              "sus4",
              "1+5",
              "1+8",
              "dim7",
              "dim",
              "minMaj7(9)",
              "minMaj7",
              "min7(11)",
              "min7(9)",
              "min(9)",
              "m7b5",
              "min7",
              "min6",
              "min",
              "aug",
              "Maj6(9)",
              "Maj7(9)",
              "Maj(9)",
              "Maj7#11",
              "Maj7",
              "Maj6",
              "Maj"
            ],
            "autoStart": false,
            "sourceChordNote": 0,
            "sourceChordType": "7th",
            "ctb2Low": null,
            "ctb2Main": {
              "ntr": "ROOT_TRANSPOSITION",
              "ntt": "BYPASS",
              "bassOn": false,
              "chordRootUpperLimit": 6,
              "noteLowLimit": 0,
              "noteHighLimit": 127,
              "rtr": "PITCH_SHIFT"
            },
            "ctb2High": null
          },
          "notes": [
            {
              "pitch": 82,
              "velocity": 124,
              "position": 0,
              "duration": 0.21875
            },
            {
              "pitch": 70,
              "velocity": 124,
              "position": 0,
              "duration": 0.23958333333333334
            },
            {
              "pitch": 69,
              "velocity": 104,
              "position": 0.2604166666666667,
              "duration": 0.13541666666666666
            },
            {
              "pitch": 81,
              "velocity": 110,
              "position": 0.2604166666666667,
              "duration": 0.15625
            },
            {
              "pitch": 84,
              "velocity": 126,
              "position": 0.7395833333333334,
              "duration": 0.6770833333333334
            },
            {
              "pitch": 72,
              "velocity": 116,
              "position": 0.7395833333333334,
              "duration": 0.6770833333333334
            },
            {
              "pitch": 82,
              "velocity": 90,
              "position": 1.5,
              "duration": 0.20833333333333334
            },
            {
              "pitch": 70,
              "velocity": 90,
              "position": 1.5,
              "duration": 0.21875
            },
            {
              "pitch": 69,
              "velocity": 110,
              "position": 1.7604166666666667,
              "duration": 0.13541666666666666
            },
            {
              "pitch": 81,
              "velocity": 110,
              "position": 1.7708333333333333,
              "duration": 0.125
            },
            {
              "pitch": 72,
              "velocity": 124,
              "position": 2.2604166666666665,
              "duration": 0.6666666666666666
            },
            {
              "pitch": 84,
              "velocity": 124,
              "position": 2.2604166666666665,
              "duration": 0.6770833333333334
            },
            {
              "pitch": 82,
              "velocity": 110,
              "position": 3.0208333333333335,
              "duration": 0.20833333333333334
            },
            {
              "pitch": 70,
              "velocity": 110,
              "position": 3.0104166666666665,
              "duration": 0.22916666666666666
            },
            {
              "pitch": 81,
              "velocity": 90,
              "position": 3.28125,
              "duration": 0.14583333333333334
            },
            {
              "pitch": 69,
              "velocity": 90,
              "position": 3.28125,
              "duration": 0.14583333333333334
            },
            {
              "pitch": 82,
              "velocity": 112,
              "position": 6.770833333333333,
              "duration": 0.21875
            },
            {
              "pitch": 74,
              "velocity": 126,
              "position": 6.770833333333333,
              "duration": 0.21875
            },
            {
              "pitch": 76,
              "velocity": 112,
              "position": 6.770833333333333,
              "duration": 0.22916666666666666
            },
            {
              "pitch": 84,
              "velocity": 112,
              "position": 6.770833333333333,
              "duration": 0.22916666666666666
            }
          ]
        },
        "8": {
          "ctab": {
            "srcChannel": 8,
            "name": "Std.Kit1",
            "accType": "RHYTHM",
            "editable": false,
            "mutedNotes": [],
            "mutedChords": [],
            "autoStart": true,
            "sourceChordNote": 0,
            "sourceChordType": "Maj7",
            "ctb2Low": null,
            "ctb2Main": {
              "ntr": "ROOT_FIXED",
              "ntt": "BYPASS",
              "bassOn": false,
              "chordRootUpperLimit": 6,
              "noteLowLimit": 0,
              "noteHighLimit": 127,
              "rtr": "PITCH_SHIFT"
            },
            "ctb2High": null
          },
          "notes": [
            {
              "pitch": 49,
              "velocity": 80,
              "position": 0,
              "duration": 0.015625
            },
            {
              "pitch": 42,
              "velocity": 92,
              "position": 0,
              "duration": 0.015625
            },
            {
              "pitch": 42,
              "velocity": 80,
              "position": 0.4895833333333333,
              "duration": 0.015625
            },
            {
              "pitch": 42,
              "velocity": 72,
              "position": 0.75,
              "duration": 0.015625
            },
            {
              "pitch": 36,
              "velocity": 108,
              "position": 0.7604166666666666,
              "duration": 0.015625
            },
            {
              "pitch": 42,
              "velocity": 92,
              "position": 1,
              "duration": 0.015625
            },
            {
              "pitch": 42,
              "velocity": 80,
              "position": 1.4895833333333333,
              "duration": 0.015625
            },
            {
              "pitch": 42,
              "velocity": 80,
              "position": 1.75,
              "duration": 0.015625
            },
            {
              "pitch": 42,
              "velocity": 70,
              "position": 2,
              "duration": 0.015625
            },
            {
              "pitch": 42,
              "velocity": 72,
              "position": 2.4895833333333335,
              "duration": 0.015625
            },
            {
              "pitch": 42,
              "velocity": 80,
              "position": 2.7604166666666665,
              "duration": 0.015625
            },
            {
              "pitch": 36,
              "velocity": 110,
              "position": 2.7604166666666665,
              "duration": 0.015625
            },
            {
              "pitch": 42,
              "velocity": 90,
              "position": 3,
              "duration": 0.015625
            },
            {
              "pitch": 42,
              "velocity": 80,
              "position": 3.4895833333333335,
              "duration": 0.015625
            },
            {
              "pitch": 42,
              "velocity": 80,
              "position": 3.75,
              "duration": 0.015625
            },
            {
              "pitch": 36,
              "velocity": 72,
              "position": 4,
              "duration": 0.015625
            },
            {
              "pitch": 42,
              "velocity": 80,
              "position": 4,
              "duration": 0.015625
            },
            {
              "pitch": 42,
              "velocity": 80,
              "position": 4.5,
              "duration": 0.015625
            },
            {
              "pitch": 36,
              "velocity": 72,
              "position": 4.5,
              "duration": 0.015625
            },
            {
              "pitch": 42,
              "velocity": 72,
              "position": 4.75,
              "duration": 0.015625
            },
            {
              "pitch": 36,
              "velocity": 80,
              "position": 4.989583333333333,
              "duration": 0.015625
            },
            {
              "pitch": 42,
              "velocity": 90,
              "position": 5,
              "duration": 0.015625
            },
            {
              "pitch": 42,
              "velocity": 80,
              "position": 5.489583333333333,
              "duration": 0.015625
            },
            {
              "pitch": 36,
              "velocity": 110,
              "position": 5.5,
              "duration": 0.015625
            },
            {
              "pitch": 42,
              "velocity": 92,
              "position": 5.75,
              "duration": 0.015625
            },
            {
              "pitch": 36,
              "velocity": 110,
              "position": 6,
              "duration": 0.015625
            },
            {
              "pitch": 42,
              "velocity": 80,
              "position": 6,
              "duration": 0.015625
            },
            {
              "pitch": 42,
              "velocity": 94,
              "position": 6.489583333333333,
              "duration": 0.015625
            },
            {
              "pitch": 36,
              "velocity": 92,
              "position": 6.5,
              "duration": 0.015625
            },
            {
              "pitch": 42,
              "velocity": 80,
              "position": 6.75,
              "duration": 0.015625
            },
            {
              "pitch": 36,
              "velocity": 124,
              "position": 6.760416666666667,
              "duration": 0.015625
            },
            {
              "pitch": 55,
              "velocity": 124,
              "position": 6.760416666666667,
              "duration": 0.015625
            }
          ]
        },
        "10": {
          "ctab": {
            "srcChannel": 10,
            "name": "Std.Kit1",
            "accType": "SUBRHYTHM",
            "editable": false,
            "mutedNotes": [],
            "mutedChords": [],
            "autoStart": true,
            "sourceChordNote": 0,
            "sourceChordType": "Maj7",
            "ctb2Low": null,
            "ctb2Main": {
              "ntr": "ROOT_FIXED",
              "ntt": "BYPASS",
              "bassOn": false,
              "chordRootUpperLimit": 6,
              "noteLowLimit": 0,
              "noteHighLimit": 127,
              "rtr": "PITCH_SHIFT"
            },
            "ctb2High": null
          },
          "notes": [
            {
              "pitch": 60,
              "velocity": 90,
              "position": 0,
              "duration": 0.015625
            },
            {
              "pitch": 62,
              "velocity": 102,
              "position": 0,
              "duration": 0.015625
            },
            {
              "pitch": 33,
              "velocity": 110,
              "position": 0,
              "duration": 0.015625
            },
            {
              "pitch": 65,
              "velocity": 126,
              "position": 0.020833333333333332,
              "duration": 0.015625
            },
            {
              "pitch": 33,
              "velocity": 80,
              "position": 0.25,
              "duration": 0.015625
            },
            {
              "pitch": 61,
              "velocity": 64,
              "position": 0.25,
              "duration": 0.015625
            },
            {
              "pitch": 62,
              "velocity": 88,
              "position": 0.25,
              "duration": 0.015625
            },
            {
              "pitch": 62,
              "velocity": 112,
              "position": 0.4895833333333333,
              "duration": 0.015625
            },
            {
              "pitch": 33,
              "velocity": 110,
              "position": 0.5,
              "duration": 0.015625
            },
            {
              "pitch": 75,
              "velocity": 120,
              "position": 0.5,
              "duration": 0.015625
            },
            {
              "pitch": 61,
              "velocity": 72,
              "position": 0.5,
              "duration": 0.015625
            },
            {
              "pitch": 60,
              "velocity": 92,
              "position": 0.75,
              "duration": 0.015625
            },
            {
              "pitch": 33,
              "velocity": 72,
              "position": 0.75,
              "duration": 0.015625
            },
            {
              "pitch": 62,
              "velocity": 78,
              "position": 0.7604166666666666,
              "duration": 0.015625
            },
            {
              "pitch": 62,
              "velocity": 88,
              "position": 1,
              "duration": 0.015625
            },
            {
              "pitch": 60,
              "velocity": 80,
              "position": 1,
              "duration": 0.015625
            },
            {
              "pitch": 75,
              "velocity": 126,
              "position": 1,
              "duration": 0.015625
            },
            {
              "pitch": 33,
              "velocity": 110,
              "position": 1,
              "duration": 0.015625
            },
            {
              "pitch": 62,
              "velocity": 88,
              "position": 1.2604166666666667,
              "duration": 0.015625
            },
            {
              "pitch": 61,
              "velocity": 80,
              "position": 1.2604166666666667,
              "duration": 0.015625
            },
            {
              "pitch": 33,
              "velocity": 90,
              "position": 1.2604166666666667,
              "duration": 0.015625
            },
            {
              "pitch": 61,
              "velocity": 80,
              "position": 1.5,
              "duration": 0.015625
            },
            {
              "pitch": 64,
              "velocity": 100,
              "position": 1.5,
              "duration": 0.015625
            },
            {
              "pitch": 33,
              "velocity": 80,
              "position": 1.5,
              "duration": 0.015625
            },
            {
              "pitch": 64,
              "velocity": 100,
              "position": 1.7604166666666667,
              "duration": 0.015625
            },
            {
              "pitch": 60,
              "velocity": 110,
              "position": 1.7604166666666667,
              "duration": 0.015625
            },
            {
              "pitch": 33,
              "velocity": 92,
              "position": 1.7708333333333333,
              "duration": 0.015625
            },
            {
              "pitch": 75,
              "velocity": 120,
              "position": 2,
              "duration": 0.015625
            },
            {
              "pitch": 61,
              "velocity": 72,
              "position": 2,
              "duration": 0.015625
            },
            {
              "pitch": 62,
              "velocity": 96,
              "position": 2,
              "duration": 0.015625
            },
            {
              "pitch": 33,
              "velocity": 110,
              "position": 2.0104166666666665,
              "duration": 0.015625
            },
            {
              "pitch": 62,
              "velocity": 96,
              "position": 2.25,
              "duration": 0.015625
            },
            {
              "pitch": 61,
              "velocity": 80,
              "position": 2.2604166666666665,
              "duration": 0.015625
            },
            {
              "pitch": 33,
              "velocity": 72,
              "position": 2.2708333333333335,
              "duration": 0.015625
            },
            {
              "pitch": 62,
              "velocity": 110,
              "position": 2.5,
              "duration": 0.015625
            },
            {
              "pitch": 33,
              "velocity": 110,
              "position": 2.5,
              "duration": 0.015625
            },
            {
              "pitch": 61,
              "velocity": 72,
              "position": 2.5104166666666665,
              "duration": 0.015625
            },
            {
              "pitch": 62,
              "velocity": 88,
              "position": 2.75,
              "duration": 0.015625
            },
            {
              "pitch": 60,
              "velocity": 90,
              "position": 2.75,
              "duration": 0.015625
            },
            {
              "pitch": 75,
              "velocity": 120,
              "position": 2.7604166666666665,
              "duration": 0.015625
            },
            {
              "pitch": 33,
              "velocity": 110,
              "position": 2.7604166666666665,
              "duration": 0.015625
            },
            {
              "pitch": 60,
              "velocity": 80,
              "position": 3,
              "duration": 0.015625
            },
            {
              "pitch": 62,
              "velocity": 84,
              "position": 3,
              "duration": 0.015625
            },
            {
              "pitch": 33,
              "velocity": 64,
              "position": 3,
              "duration": 0.015625
            },
            {
              "pitch": 62,
              "velocity": 100,
              "position": 3.25,
              "duration": 0.015625
            },
            {
              "pitch": 61,
              "velocity": 80,
              "position": 3.2604166666666665,
              "duration": 0.015625
            },
            {
              "pitch": 33,
              "velocity": 104,
              "position": 3.2604166666666665,
              "duration": 0.015625
            },
            {
              "pitch": 64,
              "velocity": 100,
              "position": 3.4895833333333335,
              "duration": 0.015625
            },
            {
              "pitch": 61,
              "velocity": 90,
              "position": 3.4895833333333335,
              "duration": 0.015625
            },
            {
              "pitch": 75,
              "velocity": 112,
              "position": 3.5,
              "duration": 0.015625
            },
            {
              "pitch": 33,
              "velocity": 72,
              "position": 3.5,
              "duration": 0.015625
            },
            {
              "pitch": 61,
              "velocity": 80,
              "position": 3.75,
              "duration": 0.015625
            },
            {
              "pitch": 64,
              "velocity": 100,
              "position": 3.75,
              "duration": 0.015625
            },
            {
              "pitch": 33,
              "velocity": 92,
              "position": 3.75,
              "duration": 0.015625
            },
            {
              "pitch": 61,
              "velocity": 72,
              "position": 4,
              "duration": 0.015625
            },
            {
              "pitch": 64,
              "velocity": 52,
              "position": 4,
              "duration": 0.015625
            },
            {
              "pitch": 66,
              "velocity": 90,
              "position": 4,
              "duration": 0.015625
            },
            {
              "pitch": 64,
              "velocity": 62,
              "position": 4.239583333333333,
              "duration": 0.015625
            },
            {
              "pitch": 61,
              "velocity": 72,
              "position": 4.25,
              "duration": 0.015625
            },
            {
              "pitch": 66,
              "velocity": 72,
              "position": 4.270833333333333,
              "duration": 0.015625
            },
            {
              "pitch": 64,
              "velocity": 68,
              "position": 4.489583333333333,
              "duration": 0.015625
            },
            {
              "pitch": 61,
              "velocity": 72,
              "position": 4.5,
              "duration": 0.015625
            },
            {
              "pitch": 75,
              "velocity": 120,
              "position": 4.5,
              "duration": 0.015625
            },
            {
              "pitch": 66,
              "velocity": 80,
              "position": 4.510416666666667,
              "duration": 0.015625
            },
            {
              "pitch": 64,
              "velocity": 72,
              "position": 4.75,
              "duration": 0.015625
            },
            {
              "pitch": 61,
              "velocity": 80,
              "position": 4.75,
              "duration": 0.015625
            },
            {
              "pitch": 66,
              "velocity": 80,
              "position": 4.770833333333333,
              "duration": 0.015625
            },
            {
              "pitch": 64,
              "velocity": 80,
              "position": 4.989583333333333,
              "duration": 0.015625
            },
            {
              "pitch": 61,
              "velocity": 92,
              "position": 5,
              "duration": 0.015625
            },
            {
              "pitch": 66,
              "velocity": 80,
              "position": 5,
              "duration": 0.015625
            },
            {
              "pitch": 75,
              "velocity": 114,
              "position": 5.010416666666667,
              "duration": 0.015625
            },
            {
              "pitch": 64,
              "velocity": 80,
              "position": 5.25,
              "duration": 0.015625
            },
            {
              "pitch": 61,
              "velocity": 92,
              "position": 5.25,
              "duration": 0.015625
            },
            {
              "pitch": 66,
              "velocity": 92,
              "position": 5.270833333333333,
              "duration": 0.015625
            },
            {
              "pitch": 64,
              "velocity": 92,
              "position": 5.489583333333333,
              "duration": 0.015625
            },
            {
              "pitch": 61,
              "velocity": 110,
              "position": 5.5,
              "duration": 0.015625
            },
            {
              "pitch": 66,
              "velocity": 90,
              "position": 5.510416666666667,
              "duration": 0.015625
            },
            {
              "pitch": 64,
              "velocity": 96,
              "position": 5.75,
              "duration": 0.015625
            },
            {
              "pitch": 61,
              "velocity": 110,
              "position": 5.75,
              "duration": 0.015625
            },
            {
              "pitch": 66,
              "velocity": 110,
              "position": 5.760416666666667,
              "duration": 0.015625
            },
            {
              "pitch": 64,
              "velocity": 110,
              "position": 6,
              "duration": 0.015625
            },
            {
              "pitch": 61,
              "velocity": 124,
              "position": 6,
              "duration": 0.015625
            },
            {
              "pitch": 75,
              "velocity": 120,
              "position": 6.010416666666667,
              "duration": 0.015625
            },
            {
              "pitch": 66,
              "velocity": 110,
              "position": 6.020833333333333,
              "duration": 0.015625
            },
            {
              "pitch": 64,
              "velocity": 114,
              "position": 6.25,
              "duration": 0.015625
            },
            {
              "pitch": 61,
              "velocity": 110,
              "position": 6.260416666666667,
              "duration": 0.015625
            },
            {
              "pitch": 66,
              "velocity": 110,
              "position": 6.270833333333333,
              "duration": 0.015625
            },
            {
              "pitch": 64,
              "velocity": 126,
              "position": 6.5,
              "duration": 0.015625
            },
            {
              "pitch": 61,
              "velocity": 124,
              "position": 6.5,
              "duration": 0.015625
            },
            {
              "pitch": 66,
              "velocity": 126,
              "position": 6.520833333333333,
              "duration": 0.015625
            },
            {
              "pitch": 65,
              "velocity": 126,
              "position": 6.75,
              "duration": 0.015625
            },
            {
              "pitch": 64,
              "velocity": 126,
              "position": 6.760416666666667,
              "duration": 0.015625
            },
            {
              "pitch": 75,
              "velocity": 112,
              "position": 6.760416666666667,
              "duration": 0.015625
            },
            {
              "pitch": 60,
              "velocity": 126,
              "position": 6.760416666666667,
              "duration": 0.015625
            }
          ]
        },
        "12": {
          "ctab": {
            "srcChannel": 12,
            "name": "Aco.Bass",
            "accType": "BASS",
            "editable": false,
            "mutedNotes": [],
            "mutedChords": [],
            "autoStart": false,
            "sourceChordNote": 0,
            "sourceChordType": "Maj",
            "ctb2Low": null,
            "ctb2Main": {
              "ntr": "ROOT_TRANSPOSITION",
              "ntt": "MELODY",
              "bassOn": true,
              "chordRootUpperLimit": 3,
              "noteLowLimit": 28,
              "noteHighLimit": 54,
              "rtr": "PITCH_SHIFT_TO_ROOT"
            },
            "ctb2High": null
          },
          "notes": [
            {
              "pitch": 36,
              "velocity": 118,
              "position": 0,
              "duration": 0.7291666666666666
            },
            {
              "pitch": 43,
              "velocity": 126,
              "position": 0.7604166666666666,
              "duration": 0.5416666666666666
            },
            {
              "pitch": 48,
              "velocity": 122,
              "position": 1.5,
              "duration": 1.1145833333333333
            },
            {
              "pitch": 43,
              "velocity": 92,
              "position": 2.75,
              "duration": 0.11458333333333333
            },
            {
              "pitch": 43,
              "velocity": 110,
              "position": 2.9895833333333335,
              "duration": 0.4270833333333333
            },
            {
              "pitch": 36,
              "velocity": 110,
              "position": 3.5,
              "duration": 0.4583333333333333
            },
            {
              "pitch": 43,
              "velocity": 80,
              "position": 4,
              "duration": 0.15625
            },
            {
              "pitch": 43,
              "velocity": 58,
              "position": 4.25,
              "duration": 0.16666666666666666
            },
            {
              "pitch": 43,
              "velocity": 80,
              "position": 4.5,
              "duration": 0.25
            },
            {
              "pitch": 43,
              "velocity": 92,
              "position": 4.760416666666667,
              "duration": 0.09375
            },
            {
              "pitch": 43,
              "velocity": 80,
              "position": 4.989583333333333,
              "duration": 0.17708333333333334
            },
            {
              "pitch": 43,
              "velocity": 90,
              "position": 5.25,
              "duration": 0.16666666666666666
            },
            {
              "pitch": 43,
              "velocity": 110,
              "position": 5.5,
              "duration": 0.15625
            },
            {
              "pitch": 43,
              "velocity": 110,
              "position": 5.75,
              "duration": 0.17708333333333334
            },
            {
              "pitch": 43,
              "velocity": 110,
              "position": 6,
              "duration": 0.15625
            },
            {
              "pitch": 43,
              "velocity": 92,
              "position": 6.25,
              "duration": 0.16666666666666666
            },
            {
              "pitch": 43,
              "velocity": 124,
              "position": 6.5,
              "duration": 0.25
            },
            {
              "pitch": 36,
              "velocity": 126,
              "position": 6.75,
              "duration": 0.041666666666666664
            },
            {
              "pitch": 36,
              "velocity": 126,
              "position": 6.791666666666667,
              "duration": 0.23958333333333334
            }
          ]
        },
        "14": {
          "ctab": {
            "srcChannel": 14,
            "name": "GrandPno",
            "accType": "CHORD1",
            "editable": false,
            "mutedNotes": [],
            "mutedChords": [
              "7aug",
              "Maj7aug",
              "7(#9)",
              "7(b13)",
              "7(b9)",
              "7(13)",
              "7#11",
              "7(9)",
              "7b5",
              "7sus4",
              "7th"
            ],
            "autoStart": false,
            "sourceChordNote": 0,
            "sourceChordType": "Maj",
            "ctb2Low": null,
            "ctb2Main": {
              "ntr": "ROOT_TRANSPOSITION",
              "ntt": "BYPASS",
              "bassOn": false,
              "chordRootUpperLimit": 6,
              "noteLowLimit": 0,
              "noteHighLimit": 79,
              "rtr": "PITCH_SHIFT"
            },
            "ctb2High": null
          },
          "notes": [
            {
              "pitch": 72,
              "velocity": 80,
              "position": 0.020833333333333332,
              "duration": 0.17708333333333334
            },
            {
              "pitch": 60,
              "velocity": 90,
              "position": 0.010416666666666666,
              "duration": 0.20833333333333334
            },
            {
              "pitch": 64,
              "velocity": 86,
              "position": 0.2604166666666667,
              "duration": 0.16666666666666666
            },
            {
              "pitch": 76,
              "velocity": 86,
              "position": 0.2604166666666667,
              "duration": 0.16666666666666666
            },
            {
              "pitch": 79,
              "velocity": 100,
              "position": 0.4895833333333333,
              "duration": 0.22916666666666666
            },
            {
              "pitch": 67,
              "velocity": 84,
              "position": 0.5104166666666666,
              "duration": 0.20833333333333334
            },
            {
              "pitch": 72,
              "velocity": 90,
              "position": 0.7604166666666666,
              "duration": 0.4583333333333333
            },
            {
              "pitch": 60,
              "velocity": 92,
              "position": 0.7708333333333334,
              "duration": 0.4479166666666667
            },
            {
              "pitch": 79,
              "velocity": 78,
              "position": 1.2604166666666667,
              "duration": 0.3854166666666667
            },
            {
              "pitch": 64,
              "velocity": 90,
              "position": 1.2604166666666667,
              "duration": 0.40625
            },
            {
              "pitch": 76,
              "velocity": 94,
              "position": 1.2604166666666667,
              "duration": 0.4166666666666667
            },
            {
              "pitch": 67,
              "velocity": 80,
              "position": 1.2604166666666667,
              "duration": 0.4166666666666667
            },
            {
              "pitch": 60,
              "velocity": 110,
              "position": 1.75,
              "duration": 0.4583333333333333
            },
            {
              "pitch": 72,
              "velocity": 110,
              "position": 1.75,
              "duration": 0.4791666666666667
            },
            {
              "pitch": 79,
              "velocity": 78,
              "position": 2.25,
              "duration": 0.3854166666666667
            },
            {
              "pitch": 64,
              "velocity": 88,
              "position": 2.25,
              "duration": 0.3958333333333333
            },
            {
              "pitch": 76,
              "velocity": 92,
              "position": 2.25,
              "duration": 0.4479166666666667
            },
            {
              "pitch": 67,
              "velocity": 76,
              "position": 2.25,
              "duration": 0.4583333333333333
            },
            {
              "pitch": 72,
              "velocity": 110,
              "position": 2.75,
              "duration": 0.40625
            },
            {
              "pitch": 60,
              "velocity": 88,
              "position": 2.75,
              "duration": 0.4166666666666667
            },
            {
              "pitch": 64,
              "velocity": 78,
              "position": 3.25,
              "duration": 0.40625
            },
            {
              "pitch": 67,
              "velocity": 78,
              "position": 3.25,
              "duration": 0.4583333333333333
            },
            {
              "pitch": 79,
              "velocity": 110,
              "position": 3.25,
              "duration": 0.46875
            },
            {
              "pitch": 76,
              "velocity": 110,
              "position": 3.25,
              "duration": 0.4791666666666667
            },
            {
              "pitch": 43,
              "velocity": 80,
              "position": 4,
              "duration": 0.14583333333333334
            },
            {
              "pitch": 55,
              "velocity": 80,
              "position": 4,
              "duration": 0.15625
            },
            {
              "pitch": 55,
              "velocity": 68,
              "position": 4.25,
              "duration": 0.16666666666666666
            },
            {
              "pitch": 43,
              "velocity": 78,
              "position": 4.25,
              "duration": 0.16666666666666666
            },
            {
              "pitch": 43,
              "velocity": 90,
              "position": 4.5,
              "duration": 0.16666666666666666
            },
            {
              "pitch": 55,
              "velocity": 90,
              "position": 4.5,
              "duration": 0.17708333333333334
            },
            {
              "pitch": 55,
              "velocity": 88,
              "position": 4.75,
              "duration": 0.15625
            },
            {
              "pitch": 43,
              "velocity": 80,
              "position": 4.75,
              "duration": 0.16666666666666666
            },
            {
              "pitch": 43,
              "velocity": 88,
              "position": 5,
              "duration": 0.16666666666666666
            },
            {
              "pitch": 55,
              "velocity": 78,
              "position": 5,
              "duration": 0.16666666666666666
            },
            {
              "pitch": 55,
              "velocity": 88,
              "position": 5.25,
              "duration": 0.14583333333333334
            },
            {
              "pitch": 43,
              "velocity": 90,
              "position": 5.25,
              "duration": 0.15625
            },
            {
              "pitch": 43,
              "velocity": 88,
              "position": 5.5,
              "duration": 0.15625
            },
            {
              "pitch": 55,
              "velocity": 88,
              "position": 5.5,
              "duration": 0.15625
            },
            {
              "pitch": 55,
              "velocity": 88,
              "position": 5.75,
              "duration": 0.15625
            },
            {
              "pitch": 43,
              "velocity": 110,
              "position": 5.75,
              "duration": 0.16666666666666666
            },
            {
              "pitch": 43,
              "velocity": 90,
              "position": 6,
              "duration": 0.15625
            },
            {
              "pitch": 55,
              "velocity": 90,
              "position": 6,
              "duration": 0.16666666666666666
            },
            {
              "pitch": 55,
              "velocity": 90,
              "position": 6.25,
              "duration": 0.16666666666666666
            },
            {
              "pitch": 43,
              "velocity": 90,
              "position": 6.25,
              "duration": 0.17708333333333334
            },
            {
              "pitch": 55,
              "velocity": 90,
              "position": 6.489583333333333,
              "duration": 0.16666666666666666
            },
            {
              "pitch": 43,
              "velocity": 124,
              "position": 6.489583333333333,
              "duration": 0.17708333333333334
            },
            {
              "pitch": 64,
              "velocity": 94,
              "position": 6.75,
              "duration": 0.23958333333333334
            },
            {
              "pitch": 76,
              "velocity": 90,
              "position": 6.75,
              "duration": 0.25
            },
            {
              "pitch": 79,
              "velocity": 120,
              "position": 6.75,
              "duration": 0.25
            },
            {
              "pitch": 72,
              "velocity": 122,
              "position": 6.75,
              "duration": 0.2604166666666667
            },
            {
              "pitch": 84,
              "velocity": 94,
              "position": 6.75,
              "duration": 0.2708333333333333
            },
            {
              "pitch": 55,
              "velocity": 124,
              "position": 6.75,
              "duration": 0.2708333333333333
            },
            {
              "pitch": 48,
              "velocity": 124,
              "position": 6.75,
              "duration": 0.28125
            }
          ]
        },
        "15": {
          "ctab": {
            "srcChannel": 15,
            "name": "GrandPno",
            "accType": "CHORD1",
            "editable": false,
            "mutedNotes": [],
            "mutedChords": [
              "1+2+5",
              "sus4",
              "1+5",
              "1+8",
              "dim7",
              "dim",
              "minMaj7(9)",
              "minMaj7",
              "min7(11)",
              "min7(9)",
              "min(9)",
              "m7b5",
              "min7",
              "min6",
              "min",
              "aug",
              "Maj6(9)",
              "Maj7(9)",
              "Maj(9)",
              "Maj7#11",
              "Maj7",
              "Maj6",
              "Maj"
            ],
            "autoStart": false,
            "sourceChordNote": 0,
            "sourceChordType": "7th",
            "ctb2Low": null,
            "ctb2Main": {
              "ntr": "ROOT_TRANSPOSITION",
              "ntt": "BYPASS",
              "bassOn": false,
              "chordRootUpperLimit": 6,
              "noteLowLimit": 0,
              "noteHighLimit": 79,
              "rtr": "PITCH_SHIFT"
            },
            "ctb2High": null
          },
          "notes": [
            {
              "pitch": 72,
              "velocity": 80,
              "position": 0.020833333333333332,
              "duration": 0.17708333333333334
            },
            {
              "pitch": 60,
              "velocity": 90,
              "position": 0.010416666666666666,
              "duration": 0.20833333333333334
            },
            {
              "pitch": 64,
              "velocity": 86,
              "position": 0.2604166666666667,
              "duration": 0.16666666666666666
            },
            {
              "pitch": 76,
              "velocity": 86,
              "position": 0.2604166666666667,
              "duration": 0.16666666666666666
            },
            {
              "pitch": 82,
              "velocity": 100,
              "position": 0.4895833333333333,
              "duration": 0.22916666666666666
            },
            {
              "pitch": 70,
              "velocity": 84,
              "position": 0.5104166666666666,
              "duration": 0.20833333333333334
            },
            {
              "pitch": 70,
              "velocity": 90,
              "position": 0.7604166666666666,
              "duration": 0.4583333333333333
            },
            {
              "pitch": 58,
              "velocity": 92,
              "position": 0.7708333333333334,
              "duration": 0.4479166666666667
            },
            {
              "pitch": 82,
              "velocity": 78,
              "position": 1.2604166666666667,
              "duration": 0.3854166666666667
            },
            {
              "pitch": 64,
              "velocity": 90,
              "position": 1.2604166666666667,
              "duration": 0.40625
            },
            {
              "pitch": 76,
              "velocity": 94,
              "position": 1.2604166666666667,
              "duration": 0.4166666666666667
            },
            {
              "pitch": 70,
              "velocity": 80,
              "position": 1.2604166666666667,
              "duration": 0.4166666666666667
            },
            {
              "pitch": 60,
              "velocity": 110,
              "position": 1.75,
              "duration": 0.4583333333333333
            },
            {
              "pitch": 72,
              "velocity": 110,
              "position": 1.75,
              "duration": 0.4791666666666667
            },
            {
              "pitch": 82,
              "velocity": 78,
              "position": 2.25,
              "duration": 0.3854166666666667
            },
            {
              "pitch": 64,
              "velocity": 88,
              "position": 2.25,
              "duration": 0.3958333333333333
            },
            {
              "pitch": 76,
              "velocity": 92,
              "position": 2.25,
              "duration": 0.4479166666666667
            },
            {
              "pitch": 70,
              "velocity": 76,
              "position": 2.25,
              "duration": 0.4583333333333333
            },
            {
              "pitch": 70,
              "velocity": 110,
              "position": 2.75,
              "duration": 0.40625
            },
            {
              "pitch": 58,
              "velocity": 88,
              "position": 2.75,
              "duration": 0.4166666666666667
            },
            {
              "pitch": 64,
              "velocity": 78,
              "position": 3.25,
              "duration": 0.40625
            },
            {
              "pitch": 70,
              "velocity": 78,
              "position": 3.25,
              "duration": 0.4583333333333333
            },
            {
              "pitch": 82,
              "velocity": 110,
              "position": 3.25,
              "duration": 0.46875
            },
            {
              "pitch": 76,
              "velocity": 110,
              "position": 3.25,
              "duration": 0.4791666666666667
            },
            {
              "pitch": 46,
              "velocity": 80,
              "position": 4,
              "duration": 0.14583333333333334
            },
            {
              "pitch": 58,
              "velocity": 80,
              "position": 4,
              "duration": 0.15625
            },
            {
              "pitch": 58,
              "velocity": 68,
              "position": 4.25,
              "duration": 0.16666666666666666
            },
            {
              "pitch": 46,
              "velocity": 78,
              "position": 4.25,
              "duration": 0.16666666666666666
            },
            {
              "pitch": 46,
              "velocity": 90,
              "position": 4.5,
              "duration": 0.16666666666666666
            },
            {
              "pitch": 58,
              "velocity": 90,
              "position": 4.5,
              "duration": 0.17708333333333334
            },
            {
              "pitch": 58,
              "velocity": 88,
              "position": 4.75,
              "duration": 0.15625
            },
            {
              "pitch": 46,
              "velocity": 80,
              "position": 4.75,
              "duration": 0.16666666666666666
            },
            {
              "pitch": 46,
              "velocity": 88,
              "position": 5,
              "duration": 0.16666666666666666
            },
            {
              "pitch": 58,
              "velocity": 78,
              "position": 5,
              "duration": 0.16666666666666666
            },
            {
              "pitch": 58,
              "velocity": 88,
              "position": 5.25,
              "duration": 0.14583333333333334
            },
            {
              "pitch": 46,
              "velocity": 90,
              "position": 5.25,
              "duration": 0.15625
            },
            {
              "pitch": 46,
              "velocity": 88,
              "position": 5.5,
              "duration": 0.15625
            },
            {
              "pitch": 58,
              "velocity": 88,
              "position": 5.5,
              "duration": 0.15625
            },
            {
              "pitch": 58,
              "velocity": 88,
              "position": 5.75,
              "duration": 0.15625
            },
            {
              "pitch": 46,
              "velocity": 110,
              "position": 5.75,
              "duration": 0.16666666666666666
            },
            {
              "pitch": 46,
              "velocity": 90,
              "position": 6,
              "duration": 0.15625
            },
            {
              "pitch": 58,
              "velocity": 90,
              "position": 6,
              "duration": 0.16666666666666666
            },
            {
              "pitch": 58,
              "velocity": 90,
              "position": 6.25,
              "duration": 0.16666666666666666
            },
            {
              "pitch": 46,
              "velocity": 90,
              "position": 6.25,
              "duration": 0.17708333333333334
            },
            {
              "pitch": 58,
              "velocity": 90,
              "position": 6.489583333333333,
              "duration": 0.16666666666666666
            },
            {
              "pitch": 46,
              "velocity": 124,
              "position": 6.489583333333333,
              "duration": 0.17708333333333334
            },
            {
              "pitch": 64,
              "velocity": 94,
              "position": 6.75,
              "duration": 0.23958333333333334
            },
            {
              "pitch": 76,
              "velocity": 90,
              "position": 6.75,
              "duration": 0.25
            },
            {
              "pitch": 82,
              "velocity": 120,
              "position": 6.75,
              "duration": 0.25
            },
            {
              "pitch": 70,
              "velocity": 122,
              "position": 6.75,
              "duration": 0.2604166666666667
            },
            {
              "pitch": 84,
              "velocity": 94,
              "position": 6.75,
              "duration": 0.2708333333333333
            },
            {
              "pitch": 58,
              "velocity": 124,
              "position": 6.75,
              "duration": 0.2708333333333333
            },
            {
              "pitch": 48,
              "velocity": 124,
              "position": 6.75,
              "duration": 0.28125
            }
          ]
        }
      }
    },
    "Ending_B": {
      "type": "Ending_B",
      "sizeInBeats": 16,
      "channels": {
        "1": {
          "ctab": {
            "srcChannel": 1,
            "name": "BrasSect",
            "accType": "PHRASE1",
            "editable": false,
            "mutedNotes": [],
            "mutedChords": [
              "dim7",
              "dim",
              "minMaj7(9)",
              "minMaj7",
              "min7(11)",
              "min7(9)",
              "min(9)",
              "m7b5",
              "min7",
              "min6",
              "min"
            ],
            "autoStart": false,
            "sourceChordNote": 0,
            "sourceChordType": "Maj",
            "ctb2Low": null,
            "ctb2Main": {
              "ntr": "ROOT_TRANSPOSITION",
              "ntt": "BYPASS",
              "bassOn": false,
              "chordRootUpperLimit": 6,
              "noteLowLimit": 0,
              "noteHighLimit": 127,
              "rtr": "PITCH_SHIFT"
            },
            "ctb2High": null
          },
          "notes": [
            {
              "pitch": 78,
              "velocity": 118,
              "position": 0,
              "duration": 0.23958333333333334
            },
            {
              "pitch": 74,
              "velocity": 110,
              "position": 0,
              "duration": 0.23958333333333334
            },
            {
              "pitch": 79,
              "velocity": 126,
              "position": 0,
              "duration": 0.25
            },
            {
              "pitch": 76,
              "velocity": 124,
              "position": 0,
              "duration": 0.28125
            },
            {
              "pitch": 71,
              "velocity": 110,
              "position": 0,
              "duration": 0.2916666666666667
            },
            {
              "pitch": 77,
              "velocity": 90,
              "position": 0.22916666666666666,
              "duration": 0.10416666666666667
            },
            {
              "pitch": 74,
              "velocity": 90,
              "position": 0.25,
              "duration": 0.09375
            },
            {
              "pitch": 76,
              "velocity": 92,
              "position": 0.2916666666666667,
              "duration": 0.08333333333333333
            },
            {
              "pitch": 69,
              "velocity": 64,
              "position": 0.2916666666666667,
              "duration": 0.09375
            },
            {
              "pitch": 72,
              "velocity": 80,
              "position": 0.34375,
              "duration": 0.0625
            },
            {
              "pitch": 74,
              "velocity": 90,
              "position": 0.3541666666666667,
              "duration": 0.0625
            },
            {
              "pitch": 67,
              "velocity": 92,
              "position": 0.3958333333333333,
              "duration": 0.07291666666666667
            },
            {
              "pitch": 72,
              "velocity": 88,
              "position": 0.4270833333333333,
              "duration": 0.0625
            },
            {
              "pitch": 73,
              "velocity": 72,
              "position": 0.3645833333333333,
              "duration": 0.13541666666666666
            },
            {
              "pitch": 71,
              "velocity": 88,
              "position": 0.4270833333333333,
              "duration": 0.07291666666666667
            },
            {
              "pitch": 65,
              "velocity": 80,
              "position": 0.46875,
              "duration": 0.07291666666666667
            },
            {
              "pitch": 72,
              "velocity": 68,
              "position": 0.5104166666666666,
              "duration": 0.0625
            },
            {
              "pitch": 64,
              "velocity": 52,
              "position": 0.5416666666666666,
              "duration": 0.041666666666666664
            },
            {
              "pitch": 71,
              "velocity": 122,
              "position": 0.7604166666666666,
              "duration": 0.19791666666666666
            },
            {
              "pitch": 79,
              "velocity": 122,
              "position": 0.7604166666666666,
              "duration": 0.20833333333333334
            },
            {
              "pitch": 74,
              "velocity": 118,
              "position": 0.7604166666666666,
              "duration": 0.20833333333333334
            },
            {
              "pitch": 76,
              "velocity": 118,
              "position": 0.7604166666666666,
              "duration": 0.20833333333333334
            },
            {
              "pitch": 71,
              "velocity": 78,
              "position": 1.0104166666666667,
              "duration": 0.20833333333333334
            },
            {
              "pitch": 79,
              "velocity": 94,
              "position": 1.0208333333333333,
              "duration": 0.20833333333333334
            },
            {
              "pitch": 74,
              "velocity": 84,
              "position": 1.0104166666666667,
              "duration": 0.22916666666666666
            },
            {
              "pitch": 76,
              "velocity": 80,
              "position": 1.0104166666666667,
              "duration": 0.22916666666666666
            },
            {
              "pitch": 71,
              "velocity": 94,
              "position": 1.28125,
              "duration": 0.15625
            },
            {
              "pitch": 74,
              "velocity": 124,
              "position": 1.28125,
              "duration": 0.17708333333333334
            },
            {
              "pitch": 76,
              "velocity": 104,
              "position": 1.28125,
              "duration": 0.1875
            },
            {
              "pitch": 79,
              "velocity": 94,
              "position": 1.28125,
              "duration": 0.19791666666666666
            },
            {
              "pitch": 73,
              "velocity": 110,
              "position": 1.7604166666666667,
              "duration": 0.16666666666666666
            },
            {
              "pitch": 84,
              "velocity": 110,
              "position": 1.78125,
              "duration": 0.15625
            },
            {
              "pitch": 77,
              "velocity": 110,
              "position": 1.7708333333333333,
              "duration": 0.17708333333333334
            },
            {
              "pitch": 79,
              "velocity": 104,
              "position": 1.7708333333333333,
              "duration": 0.17708333333333334
            },
            {
              "pitch": 73,
              "velocity": 126,
              "position": 2.2708333333333335,
              "duration": 0.17708333333333334
            },
            {
              "pitch": 84,
              "velocity": 118,
              "position": 2.2708333333333335,
              "duration": 0.1875
            },
            {
              "pitch": 79,
              "velocity": 126,
              "position": 2.2708333333333335,
              "duration": 0.20833333333333334
            },
            {
              "pitch": 77,
              "velocity": 118,
              "position": 2.2708333333333335,
              "duration": 0.22916666666666666
            },
            {
              "pitch": 74,
              "velocity": 126,
              "position": 10.760416666666666,
              "duration": 0.2708333333333333
            },
            {
              "pitch": 76,
              "velocity": 126,
              "position": 10.760416666666666,
              "duration": 0.2708333333333333
            },
            {
              "pitch": 79,
              "velocity": 120,
              "position": 10.760416666666666,
              "duration": 0.28125
            },
            {
              "pitch": 84,
              "velocity": 126,
              "position": 10.760416666666666,
              "duration": 0.28125
            }
          ]
        },
        "2": {
          "ctab": {
            "srcChannel": 2,
            "name": "BrasSect",
            "accType": "PHRASE1",
            "editable": false,
            "mutedNotes": [],
            "mutedChords": [
              "1+2+5",
              "sus4",
              "1+5",
              "1+8",
              "7aug",
              "Maj7aug",
              "7(#9)",
              "7(b13)",
              "7(b9)",
              "7(13)",
              "7#11",
              "7(9)",
              "7b5",
              "7sus4",
              "7th",
              "aug",
              "Maj6(9)",
              "Maj7(9)",
              "Maj(9)",
              "Maj7#11",
              "Maj7",
              "Maj6",
              "Maj"
            ],
            "autoStart": false,
            "sourceChordNote": 0,
            "sourceChordType": "min",
            "ctb2Low": null,
            "ctb2Main": {
              "ntr": "ROOT_TRANSPOSITION",
              "ntt": "BYPASS",
              "bassOn": false,
              "chordRootUpperLimit": 6,
              "noteLowLimit": 0,
              "noteHighLimit": 127,
              "rtr": "PITCH_SHIFT"
            },
            "ctb2High": null
          },
          "notes": [
            {
              "pitch": 67,
              "velocity": 110,
              "position": 0.7604166666666666,
              "duration": 0.19791666666666666
            },
            {
              "pitch": 79,
              "velocity": 110,
              "position": 0.7395833333333334,
              "duration": 0.22916666666666666
            },
            {
              "pitch": 84,
              "velocity": 110,
              "position": 1,
              "duration": 0.1875
            },
            {
              "pitch": 72,
              "velocity": 110,
              "position": 1.0104166666666667,
              "duration": 0.20833333333333334
            },
            {
              "pitch": 82,
              "velocity": 110,
              "position": 1.2708333333333333,
              "duration": 0.17708333333333334
            },
            {
              "pitch": 70,
              "velocity": 90,
              "position": 1.28125,
              "duration": 0.16666666666666666
            },
            {
              "pitch": 67,
              "velocity": 110,
              "position": 1.75,
              "duration": 0.17708333333333334
            },
            {
              "pitch": 79,
              "velocity": 90,
              "position": 1.75,
              "duration": 0.19791666666666666
            },
            {
              "pitch": 77,
              "velocity": 124,
              "position": 2.2395833333333335,
              "duration": 0.1875
            },
            {
              "pitch": 65,
              "velocity": 90,
              "position": 2.2395833333333335,
              "duration": 0.1875
            },
            {
              "pitch": 75,
              "velocity": 110,
              "position": 2.75,
              "duration": 0.15625
            },
            {
              "pitch": 63,
              "velocity": 110,
              "position": 2.75,
              "duration": 0.17708333333333334
            },
            {
              "pitch": 60,
              "velocity": 92,
              "position": 3.25,
              "duration": 0.15625
            },
            {
              "pitch": 72,
              "velocity": 110,
              "position": 3.2604166666666665,
              "duration": 0.16666666666666666
            },
            {
              "pitch": 70,
              "velocity": 80,
              "position": 3.75,
              "duration": 0.14583333333333334
            },
            {
              "pitch": 58,
              "velocity": 90,
              "position": 3.7395833333333335,
              "duration": 0.16666666666666666
            },
            {
              "pitch": 77,
              "velocity": 80,
              "position": 4,
              "duration": 0.4479166666666667
            },
            {
              "pitch": 65,
              "velocity": 110,
              "position": 4,
              "duration": 0.4583333333333333
            },
            {
              "pitch": 63,
              "velocity": 88,
              "position": 4.489583333333333,
              "duration": 0.14583333333333334
            },
            {
              "pitch": 75,
              "velocity": 110,
              "position": 4.489583333333333,
              "duration": 0.1875
            },
            {
              "pitch": 65,
              "velocity": 110,
              "position": 4.739583333333333,
              "duration": 0.17708333333333334
            },
            {
              "pitch": 77,
              "velocity": 110,
              "position": 4.75,
              "duration": 0.16666666666666666
            },
            {
              "pitch": 67,
              "velocity": 90,
              "position": 5.25,
              "duration": 0.13541666666666666
            },
            {
              "pitch": 79,
              "velocity": 110,
              "position": 5.260416666666667,
              "duration": 0.14583333333333334
            },
            {
              "pitch": 80,
              "velocity": 110,
              "position": 5.770833333333333,
              "duration": 1.3020833333333333
            },
            {
              "pitch": 68,
              "velocity": 92,
              "position": 5.760416666666667,
              "duration": 1.6666666666666667
            },
            {
              "pitch": 75,
              "velocity": 124,
              "position": 8.739583333333334,
              "duration": 0.14583333333333334
            },
            {
              "pitch": 63,
              "velocity": 126,
              "position": 8.75,
              "duration": 0.14583333333333334
            },
            {
              "pitch": 65,
              "velocity": 110,
              "position": 9.25,
              "duration": 0.14583333333333334
            },
            {
              "pitch": 77,
              "velocity": 100,
              "position": 9.25,
              "duration": 0.15625
            },
            {
              "pitch": 79,
              "velocity": 124,
              "position": 9.739583333333334,
              "duration": 0.23958333333333334
            },
            {
              "pitch": 67,
              "velocity": 122,
              "position": 9.739583333333334,
              "duration": 0.23958333333333334
            },
            {
              "pitch": 80,
              "velocity": 110,
              "position": 9.989583333333334,
              "duration": 0.19791666666666666
            },
            {
              "pitch": 68,
              "velocity": 106,
              "position": 9.989583333333334,
              "duration": 0.20833333333333334
            },
            {
              "pitch": 82,
              "velocity": 90,
              "position": 10.239583333333334,
              "duration": 0.20833333333333334
            },
            {
              "pitch": 70,
              "velocity": 92,
              "position": 10.25,
              "duration": 0.22916666666666666
            },
            {
              "pitch": 80,
              "velocity": 96,
              "position": 10.479166666666666,
              "duration": 0.17708333333333334
            },
            {
              "pitch": 68,
              "velocity": 90,
              "position": 10.489583333333334,
              "duration": 0.17708333333333334
            },
            {
              "pitch": 79,
              "velocity": 110,
              "position": 10.739583333333334,
              "duration": 0.15625
            },
            {
              "pitch": 67,
              "velocity": 106,
              "position": 10.739583333333334,
              "duration": 0.1875
            },
            {
              "pitch": 59,
              "velocity": 110,
              "position": 11.260416666666666,
              "duration": 0.16666666666666666
            },
            {
              "pitch": 71,
              "velocity": 92,
              "position": 11.270833333333334,
              "duration": 0.16666666666666666
            },
            {
              "pitch": 72,
              "velocity": 90,
              "position": 11.760416666666666,
              "duration": 2.4583333333333335
            },
            {
              "pitch": 60,
              "velocity": 108,
              "position": 11.760416666666666,
              "duration": 2.46875
            },
            {
              "pitch": 74,
              "velocity": 126,
              "position": 14.75,
              "duration": 0.3020833333333333
            },
            {
              "pitch": 75,
              "velocity": 112,
              "position": 14.75,
              "duration": 0.3125
            },
            {
              "pitch": 79,
              "velocity": 126,
              "position": 14.75,
              "duration": 0.3229166666666667
            },
            {
              "pitch": 69,
              "velocity": 124,
              "position": 14.75,
              "duration": 0.34375
            }
          ]
        },
        "4": {
          "ctab": {
            "srcChannel": 4,
            "name": "Alto Sax",
            "accType": "PHRASE2",
            "editable": false,
            "mutedNotes": [],
            "mutedChords": [
              "dim7",
              "dim",
              "minMaj7(9)",
              "minMaj7",
              "min7(11)",
              "min7(9)",
              "min(9)",
              "m7b5",
              "min7",
              "min6",
              "min"
            ],
            "autoStart": false,
            "sourceChordNote": 0,
            "sourceChordType": "Maj",
            "ctb2Low": null,
            "ctb2Main": {
              "ntr": "ROOT_TRANSPOSITION",
              "ntt": "BYPASS",
              "bassOn": false,
              "chordRootUpperLimit": 6,
              "noteLowLimit": 0,
              "noteHighLimit": 127,
              "rtr": "PITCH_SHIFT"
            },
            "ctb2High": null
          },
          "notes": [
            {
              "pitch": 67,
              "velocity": 124,
              "position": 0,
              "duration": 0.3854166666666667
            },
            {
              "pitch": 60,
              "velocity": 104,
              "position": 0,
              "duration": 0.4479166666666667
            },
            {
              "pitch": 64,
              "velocity": 110,
              "position": 0,
              "duration": 0.4479166666666667
            },
            {
              "pitch": 59,
              "velocity": 124,
              "position": 0,
              "duration": 0.4583333333333333
            },
            {
              "pitch": 59,
              "velocity": 114,
              "position": 0.7708333333333334,
              "duration": 0.16666666666666666
            },
            {
              "pitch": 60,
              "velocity": 118,
              "position": 0.7604166666666666,
              "duration": 0.1875
            },
            {
              "pitch": 64,
              "velocity": 124,
              "position": 0.7708333333333334,
              "duration": 0.17708333333333334
            },
            {
              "pitch": 67,
              "velocity": 114,
              "position": 0.7708333333333334,
              "duration": 0.1875
            },
            {
              "pitch": 60,
              "velocity": 80,
              "position": 1.0104166666666667,
              "duration": 0.19791666666666666
            },
            {
              "pitch": 67,
              "velocity": 64,
              "position": 1.0104166666666667,
              "duration": 0.20833333333333334
            },
            {
              "pitch": 59,
              "velocity": 80,
              "position": 1.0104166666666667,
              "duration": 0.20833333333333334
            },
            {
              "pitch": 64,
              "velocity": 80,
              "position": 1.0104166666666667,
              "duration": 0.20833333333333334
            },
            {
              "pitch": 67,
              "velocity": 94,
              "position": 1.28125,
              "duration": 0.125
            },
            {
              "pitch": 64,
              "velocity": 92,
              "position": 1.28125,
              "duration": 0.125
            },
            {
              "pitch": 60,
              "velocity": 94,
              "position": 1.28125,
              "duration": 0.13541666666666666
            },
            {
              "pitch": 59,
              "velocity": 94,
              "position": 1.28125,
              "duration": 0.14583333333333334
            },
            {
              "pitch": 61,
              "velocity": 120,
              "position": 1.7604166666666667,
              "duration": 0.17708333333333334
            },
            {
              "pitch": 65,
              "velocity": 92,
              "position": 1.7604166666666667,
              "duration": 0.17708333333333334
            },
            {
              "pitch": 58,
              "velocity": 116,
              "position": 1.7604166666666667,
              "duration": 0.1875
            },
            {
              "pitch": 55,
              "velocity": 114,
              "position": 1.7604166666666667,
              "duration": 0.19791666666666666
            },
            {
              "pitch": 61,
              "velocity": 126,
              "position": 2.25,
              "duration": 0.21875
            },
            {
              "pitch": 58,
              "velocity": 120,
              "position": 2.25,
              "duration": 0.22916666666666666
            },
            {
              "pitch": 65,
              "velocity": 126,
              "position": 2.25,
              "duration": 0.22916666666666666
            },
            {
              "pitch": 55,
              "velocity": 120,
              "position": 2.25,
              "duration": 0.25
            },
            {
              "pitch": 57,
              "velocity": 110,
              "position": 4.5,
              "duration": 0.1875
            },
            {
              "pitch": 69,
              "velocity": 110,
              "position": 4.489583333333333,
              "duration": 0.22916666666666666
            },
            {
              "pitch": 65,
              "velocity": 92,
              "position": 5,
              "duration": 0.6666666666666666
            },
            {
              "pitch": 53,
              "velocity": 92,
              "position": 5.010416666666667,
              "duration": 0.6770833333333334
            },
            {
              "pitch": 48,
              "velocity": 80,
              "position": 5.760416666666667,
              "duration": 0.1875
            },
            {
              "pitch": 60,
              "velocity": 90,
              "position": 5.75,
              "duration": 0.20833333333333334
            },
            {
              "pitch": 59,
              "velocity": 80,
              "position": 6,
              "duration": 0.21875
            },
            {
              "pitch": 47,
              "velocity": 92,
              "position": 6,
              "duration": 0.21875
            },
            {
              "pitch": 62,
              "velocity": 110,
              "position": 6.489583333333333,
              "duration": 0.19791666666666666
            },
            {
              "pitch": 50,
              "velocity": 92,
              "position": 6.5,
              "duration": 0.1875
            },
            {
              "pitch": 57,
              "velocity": 110,
              "position": 6.989583333333333,
              "duration": 0.7291666666666666
            },
            {
              "pitch": 69,
              "velocity": 110,
              "position": 6.989583333333333,
              "duration": 0.7395833333333334
            },
            {
              "pitch": 55,
              "velocity": 110,
              "position": 7.760416666666667,
              "duration": 2.9479166666666665
            },
            {
              "pitch": 67,
              "velocity": 110,
              "position": 7.770833333333333,
              "duration": 2.9375
            },
            {
              "pitch": 64,
              "velocity": 126,
              "position": 10.75,
              "duration": 0.22916666666666666
            },
            {
              "pitch": 62,
              "velocity": 110,
              "position": 10.75,
              "duration": 0.23958333333333334
            },
            {
              "pitch": 71,
              "velocity": 110,
              "position": 10.75,
              "duration": 0.23958333333333334
            },
            {
              "pitch": 67,
              "velocity": 110,
              "position": 10.75,
              "duration": 0.2604166666666667
            }
          ]
        },
        "5": {
          "ctab": {
            "srcChannel": 5,
            "name": "Alto Sax",
            "accType": "PHRASE2",
            "editable": false,
            "mutedNotes": [],
            "mutedChords": [
              "1+2+5",
              "sus4",
              "1+5",
              "1+8",
              "7aug",
              "Maj7aug",
              "7(#9)",
              "7(b13)",
              "7(b9)",
              "7(13)",
              "7#11",
              "7(9)",
              "7b5",
              "7sus4",
              "7th",
              "aug",
              "Maj6(9)",
              "Maj7(9)",
              "Maj(9)",
              "Maj7#11",
              "Maj7",
              "Maj6",
              "Maj"
            ],
            "autoStart": false,
            "sourceChordNote": 0,
            "sourceChordType": "min",
            "ctb2Low": null,
            "ctb2Main": {
              "ntr": "ROOT_TRANSPOSITION",
              "ntt": "BYPASS",
              "bassOn": false,
              "chordRootUpperLimit": 6,
              "noteLowLimit": 0,
              "noteHighLimit": 127,
              "rtr": "PITCH_SHIFT"
            },
            "ctb2High": null
          },
          "notes": [
            {
              "pitch": 67,
              "velocity": 120,
              "position": 0,
              "duration": 0.4791666666666667
            },
            {
              "pitch": 62,
              "velocity": 120,
              "position": 0,
              "duration": 0.4895833333333333
            },
            {
              "pitch": 63,
              "velocity": 104,
              "position": 0,
              "duration": 0.5208333333333334
            },
            {
              "pitch": 57,
              "velocity": 92,
              "position": 0,
              "duration": 0.5833333333333334
            },
            {
              "pitch": 54,
              "velocity": 94,
              "position": 4,
              "duration": 0.53125
            },
            {
              "pitch": 58,
              "velocity": 94,
              "position": 4,
              "duration": 0.5625
            },
            {
              "pitch": 65,
              "velocity": 92,
              "position": 4,
              "duration": 0.5625
            },
            {
              "pitch": 60,
              "velocity": 120,
              "position": 4,
              "duration": 0.6041666666666666
            },
            {
              "pitch": 58,
              "velocity": 80,
              "position": 4.760416666666667,
              "duration": 0.14583333333333334
            },
            {
              "pitch": 65,
              "velocity": 72,
              "position": 4.770833333333333,
              "duration": 0.14583333333333334
            },
            {
              "pitch": 60,
              "velocity": 88,
              "position": 4.770833333333333,
              "duration": 0.15625
            },
            {
              "pitch": 54,
              "velocity": 90,
              "position": 4.760416666666667,
              "duration": 0.21875
            },
            {
              "pitch": 58,
              "velocity": 80,
              "position": 5.25,
              "duration": 0.11458333333333333
            },
            {
              "pitch": 60,
              "velocity": 94,
              "position": 5.25,
              "duration": 0.17708333333333334
            },
            {
              "pitch": 65,
              "velocity": 122,
              "position": 5.25,
              "duration": 0.19791666666666666
            },
            {
              "pitch": 54,
              "velocity": 122,
              "position": 5.25,
              "duration": 0.19791666666666666
            },
            {
              "pitch": 63,
              "velocity": 94,
              "position": 5.75,
              "duration": 1.8645833333333333
            },
            {
              "pitch": 53,
              "velocity": 90,
              "position": 5.75,
              "duration": 1.8645833333333333
            },
            {
              "pitch": 59,
              "velocity": 94,
              "position": 5.75,
              "duration": 1.875
            },
            {
              "pitch": 58,
              "velocity": 78,
              "position": 5.75,
              "duration": 1.875
            },
            {
              "pitch": 56,
              "velocity": 126,
              "position": 7.75,
              "duration": 0.22916666666666666
            },
            {
              "pitch": 65,
              "velocity": 124,
              "position": 7.75,
              "duration": 0.22916666666666666
            },
            {
              "pitch": 62,
              "velocity": 126,
              "position": 7.760416666666667,
              "duration": 0.22916666666666666
            },
            {
              "pitch": 60,
              "velocity": 118,
              "position": 7.760416666666667,
              "duration": 0.23958333333333334
            },
            {
              "pitch": 53,
              "velocity": 94,
              "position": 10,
              "duration": 0.5520833333333334
            },
            {
              "pitch": 63,
              "velocity": 124,
              "position": 10.010416666666666,
              "duration": 0.5416666666666666
            },
            {
              "pitch": 58,
              "velocity": 94,
              "position": 10,
              "duration": 0.5625
            },
            {
              "pitch": 59,
              "velocity": 94,
              "position": 10,
              "duration": 0.5729166666666666
            },
            {
              "pitch": 53,
              "velocity": 80,
              "position": 10.770833333333334,
              "duration": 0.08333333333333333
            },
            {
              "pitch": 63,
              "velocity": 80,
              "position": 10.770833333333334,
              "duration": 0.10416666666666667
            },
            {
              "pitch": 59,
              "velocity": 94,
              "position": 10.760416666666666,
              "duration": 0.13541666666666666
            },
            {
              "pitch": 58,
              "velocity": 88,
              "position": 10.760416666666666,
              "duration": 0.14583333333333334
            },
            {
              "pitch": 59,
              "velocity": 92,
              "position": 11.25,
              "duration": 0.10416666666666667
            },
            {
              "pitch": 63,
              "velocity": 90,
              "position": 11.25,
              "duration": 0.11458333333333333
            },
            {
              "pitch": 53,
              "velocity": 92,
              "position": 11.25,
              "duration": 0.14583333333333334
            },
            {
              "pitch": 58,
              "velocity": 80,
              "position": 11.25,
              "duration": 0.15625
            },
            {
              "pitch": 51,
              "velocity": 94,
              "position": 11.739583333333334,
              "duration": 2.40625
            },
            {
              "pitch": 55,
              "velocity": 92,
              "position": 11.75,
              "duration": 2.3958333333333335
            },
            {
              "pitch": 62,
              "velocity": 92,
              "position": 11.75,
              "duration": 2.3958333333333335
            },
            {
              "pitch": 57,
              "velocity": 76,
              "position": 11.75,
              "duration": 2.3958333333333335
            },
            {
              "pitch": 63,
              "velocity": 120,
              "position": 14.770833333333334,
              "duration": 0.23958333333333334
            },
            {
              "pitch": 60,
              "velocity": 126,
              "position": 14.770833333333334,
              "duration": 0.25
            },
            {
              "pitch": 67,
              "velocity": 104,
              "position": 14.78125,
              "duration": 0.23958333333333334
            },
            {
              "pitch": 69,
              "velocity": 126,
              "position": 14.770833333333334,
              "duration": 0.2708333333333333
            }
          ]
        },
        "8": {
          "ctab": {
            "srcChannel": 8,
            "name": "Std.Kit1",
            "accType": "RHYTHM",
            "editable": false,
            "mutedNotes": [],
            "mutedChords": [
              "dim7",
              "dim",
              "minMaj7(9)",
              "minMaj7",
              "min7(11)",
              "min7(9)",
              "min(9)",
              "m7b5",
              "min7",
              "min6",
              "min"
            ],
            "autoStart": true,
            "sourceChordNote": 0,
            "sourceChordType": "Maj7",
            "ctb2Low": null,
            "ctb2Main": {
              "ntr": "ROOT_FIXED",
              "ntt": "BYPASS",
              "bassOn": false,
              "chordRootUpperLimit": 6,
              "noteLowLimit": 0,
              "noteHighLimit": 127,
              "rtr": "PITCH_SHIFT"
            },
            "ctb2High": null
          },
          "notes": [
            {
              "pitch": 42,
              "velocity": 92,
              "position": 0,
              "duration": 0.015625
            },
            {
              "pitch": 42,
              "velocity": 80,
              "position": 0.5,
              "duration": 0.015625
            },
            {
              "pitch": 42,
              "velocity": 72,
              "position": 0.75,
              "duration": 0.015625
            },
            {
              "pitch": 36,
              "velocity": 110,
              "position": 0.7604166666666666,
              "duration": 0.015625
            },
            {
              "pitch": 42,
              "velocity": 90,
              "position": 1,
              "duration": 0.015625
            },
            {
              "pitch": 42,
              "velocity": 80,
              "position": 1.4895833333333333,
              "duration": 0.015625
            },
            {
              "pitch": 42,
              "velocity": 92,
              "position": 1.75,
              "duration": 0.015625
            },
            {
              "pitch": 42,
              "velocity": 80,
              "position": 2,
              "duration": 0.015625
            },
            {
              "pitch": 42,
              "velocity": 94,
              "position": 2.4895833333333335,
              "duration": 0.015625
            },
            {
              "pitch": 42,
              "velocity": 80,
              "position": 2.75,
              "duration": 0.015625
            },
            {
              "pitch": 36,
              "velocity": 110,
              "position": 2.7604166666666665,
              "duration": 0.015625
            },
            {
              "pitch": 42,
              "velocity": 80,
              "position": 3,
              "duration": 0.015625
            },
            {
              "pitch": 42,
              "velocity": 92,
              "position": 3.5,
              "duration": 0.015625
            },
            {
              "pitch": 42,
              "velocity": 80,
              "position": 3.75,
              "duration": 0.015625
            },
            {
              "pitch": 42,
              "velocity": 92,
              "position": 4,
              "duration": 0.015625
            },
            {
              "pitch": 42,
              "velocity": 80,
              "position": 4.489583333333333,
              "duration": 0.015625
            },
            {
              "pitch": 42,
              "velocity": 72,
              "position": 4.75,
              "duration": 0.015625
            },
            {
              "pitch": 36,
              "velocity": 108,
              "position": 4.760416666666667,
              "duration": 0.015625
            },
            {
              "pitch": 42,
              "velocity": 92,
              "position": 5,
              "duration": 0.015625
            },
            {
              "pitch": 42,
              "velocity": 80,
              "position": 5.489583333333333,
              "duration": 0.015625
            },
            {
              "pitch": 42,
              "velocity": 80,
              "position": 5.75,
              "duration": 0.015625
            },
            {
              "pitch": 42,
              "velocity": 86,
              "position": 6,
              "duration": 0.015625
            },
            {
              "pitch": 42,
              "velocity": 72,
              "position": 6.489583333333333,
              "duration": 0.015625
            },
            {
              "pitch": 42,
              "velocity": 80,
              "position": 6.760416666666667,
              "duration": 0.015625
            },
            {
              "pitch": 36,
              "velocity": 112,
              "position": 6.760416666666667,
              "duration": 0.015625
            },
            {
              "pitch": 42,
              "velocity": 90,
              "position": 7,
              "duration": 0.015625
            },
            {
              "pitch": 42,
              "velocity": 80,
              "position": 7.489583333333333,
              "duration": 0.015625
            },
            {
              "pitch": 42,
              "velocity": 80,
              "position": 7.75,
              "duration": 0.015625
            },
            {
              "pitch": 42,
              "velocity": 92,
              "position": 8,
              "duration": 0.015625
            },
            {
              "pitch": 42,
              "velocity": 80,
              "position": 8.489583333333334,
              "duration": 0.015625
            },
            {
              "pitch": 42,
              "velocity": 72,
              "position": 8.75,
              "duration": 0.015625
            },
            {
              "pitch": 36,
              "velocity": 108,
              "position": 8.760416666666666,
              "duration": 0.015625
            },
            {
              "pitch": 42,
              "velocity": 92,
              "position": 9,
              "duration": 0.015625
            },
            {
              "pitch": 42,
              "velocity": 80,
              "position": 9.489583333333334,
              "duration": 0.015625
            },
            {
              "pitch": 42,
              "velocity": 80,
              "position": 9.75,
              "duration": 0.015625
            },
            {
              "pitch": 42,
              "velocity": 70,
              "position": 10,
              "duration": 0.015625
            },
            {
              "pitch": 48,
              "velocity": 110,
              "position": 10.260416666666666,
              "duration": 0.015625
            },
            {
              "pitch": 42,
              "velocity": 72,
              "position": 10.489583333333334,
              "duration": 0.015625
            },
            {
              "pitch": 48,
              "velocity": 110,
              "position": 10.489583333333334,
              "duration": 0.015625
            },
            {
              "pitch": 42,
              "velocity": 80,
              "position": 10.760416666666666,
              "duration": 0.015625
            },
            {
              "pitch": 36,
              "velocity": 110,
              "position": 10.760416666666666,
              "duration": 0.015625
            },
            {
              "pitch": 55,
              "velocity": 124,
              "position": 10.760416666666666,
              "duration": 0.015625
            }
          ]
        },
        "9": {
          "ctab": {
            "srcChannel": 9,
            "name": "Std.Kit1",
            "accType": "RHYTHM",
            "editable": false,
            "mutedNotes": [],
            "mutedChords": [
              "1+2+5",
              "sus4",
              "1+5",
              "1+8",
              "7aug",
              "Maj7aug",
              "7(#9)",
              "7(b13)",
              "7(b9)",
              "7(13)",
              "7#11",
              "7(9)",
              "7b5",
              "7sus4",
              "7th",
              "aug",
              "Maj6(9)",
              "Maj7(9)",
              "Maj(9)",
              "Maj7#11",
              "Maj7",
              "Maj6",
              "Maj"
            ],
            "autoStart": false,
            "sourceChordNote": 0,
            "sourceChordType": "Maj7",
            "ctb2Low": null,
            "ctb2Main": {
              "ntr": "ROOT_FIXED",
              "ntt": "BYPASS",
              "bassOn": false,
              "chordRootUpperLimit": 6,
              "noteLowLimit": 0,
              "noteHighLimit": 127,
              "rtr": "PITCH_SHIFT"
            },
            "ctb2High": null
          },
          "notes": [
            {
              "pitch": 42,
              "velocity": 92,
              "position": 0,
              "duration": 0.015625
            },
            {
              "pitch": 42,
              "velocity": 80,
              "position": 0.5,
              "duration": 0.015625
            },
            {
              "pitch": 42,
              "velocity": 72,
              "position": 0.75,
              "duration": 0.015625
            },
            {
              "pitch": 36,
              "velocity": 110,
              "position": 0.7604166666666666,
              "duration": 0.015625
            },
            {
              "pitch": 42,
              "velocity": 90,
              "position": 1,
              "duration": 0.015625
            },
            {
              "pitch": 42,
              "velocity": 80,
              "position": 1.4895833333333333,
              "duration": 0.015625
            },
            {
              "pitch": 42,
              "velocity": 92,
              "position": 1.75,
              "duration": 0.015625
            },
            {
              "pitch": 42,
              "velocity": 80,
              "position": 2,
              "duration": 0.015625
            },
            {
              "pitch": 42,
              "velocity": 94,
              "position": 2.4895833333333335,
              "duration": 0.015625
            },
            {
              "pitch": 42,
              "velocity": 80,
              "position": 2.75,
              "duration": 0.015625
            },
            {
              "pitch": 36,
              "velocity": 110,
              "position": 2.7604166666666665,
              "duration": 0.015625
            },
            {
              "pitch": 42,
              "velocity": 80,
              "position": 3,
              "duration": 0.015625
            },
            {
              "pitch": 42,
              "velocity": 92,
              "position": 3.5,
              "duration": 0.015625
            },
            {
              "pitch": 42,
              "velocity": 80,
              "position": 3.75,
              "duration": 0.015625
            },
            {
              "pitch": 42,
              "velocity": 92,
              "position": 4,
              "duration": 0.015625
            },
            {
              "pitch": 42,
              "velocity": 80,
              "position": 4.489583333333333,
              "duration": 0.015625
            },
            {
              "pitch": 42,
              "velocity": 72,
              "position": 4.75,
              "duration": 0.015625
            },
            {
              "pitch": 36,
              "velocity": 108,
              "position": 4.760416666666667,
              "duration": 0.015625
            },
            {
              "pitch": 42,
              "velocity": 92,
              "position": 5,
              "duration": 0.015625
            },
            {
              "pitch": 42,
              "velocity": 80,
              "position": 5.489583333333333,
              "duration": 0.015625
            },
            {
              "pitch": 42,
              "velocity": 80,
              "position": 5.75,
              "duration": 0.015625
            },
            {
              "pitch": 42,
              "velocity": 86,
              "position": 6,
              "duration": 0.015625
            },
            {
              "pitch": 42,
              "velocity": 72,
              "position": 6.489583333333333,
              "duration": 0.015625
            },
            {
              "pitch": 42,
              "velocity": 80,
              "position": 6.760416666666667,
              "duration": 0.015625
            },
            {
              "pitch": 36,
              "velocity": 112,
              "position": 6.760416666666667,
              "duration": 0.015625
            },
            {
              "pitch": 42,
              "velocity": 90,
              "position": 7,
              "duration": 0.015625
            },
            {
              "pitch": 42,
              "velocity": 80,
              "position": 7.489583333333333,
              "duration": 0.015625
            },
            {
              "pitch": 42,
              "velocity": 80,
              "position": 7.75,
              "duration": 0.015625
            },
            {
              "pitch": 42,
              "velocity": 92,
              "position": 8,
              "duration": 0.015625
            },
            {
              "pitch": 42,
              "velocity": 80,
              "position": 8.5,
              "duration": 0.015625
            },
            {
              "pitch": 42,
              "velocity": 72,
              "position": 8.75,
              "duration": 0.015625
            },
            {
              "pitch": 36,
              "velocity": 110,
              "position": 8.760416666666666,
              "duration": 0.015625
            },
            {
              "pitch": 42,
              "velocity": 90,
              "position": 9,
              "duration": 0.015625
            },
            {
              "pitch": 42,
              "velocity": 80,
              "position": 9.489583333333334,
              "duration": 0.015625
            },
            {
              "pitch": 42,
              "velocity": 92,
              "position": 9.75,
              "duration": 0.015625
            },
            {
              "pitch": 42,
              "velocity": 80,
              "position": 10,
              "duration": 0.015625
            },
            {
              "pitch": 42,
              "velocity": 94,
              "position": 10.489583333333334,
              "duration": 0.015625
            },
            {
              "pitch": 42,
              "velocity": 80,
              "position": 10.75,
              "duration": 0.015625
            },
            {
              "pitch": 36,
              "velocity": 110,
              "position": 10.760416666666666,
              "duration": 0.015625
            },
            {
              "pitch": 42,
              "velocity": 80,
              "position": 11,
              "duration": 0.015625
            },
            {
              "pitch": 42,
              "velocity": 92,
              "position": 11.5,
              "duration": 0.015625
            },
            {
              "pitch": 42,
              "velocity": 80,
              "position": 11.75,
              "duration": 0.015625
            },
            {
              "pitch": 42,
              "velocity": 80,
              "position": 12,
              "duration": 0.015625
            },
            {
              "pitch": 42,
              "velocity": 80,
              "position": 12.5,
              "duration": 0.015625
            },
            {
              "pitch": 42,
              "velocity": 72,
              "position": 12.75,
              "duration": 0.015625
            },
            {
              "pitch": 36,
              "velocity": 106,
              "position": 12.760416666666666,
              "duration": 0.015625
            },
            {
              "pitch": 42,
              "velocity": 90,
              "position": 13,
              "duration": 0.015625
            },
            {
              "pitch": 42,
              "velocity": 80,
              "position": 13.489583333333334,
              "duration": 0.015625
            },
            {
              "pitch": 42,
              "velocity": 92,
              "position": 13.75,
              "duration": 0.015625
            },
            {
              "pitch": 42,
              "velocity": 80,
              "position": 14,
              "duration": 0.015625
            },
            {
              "pitch": 42,
              "velocity": 94,
              "position": 14.489583333333334,
              "duration": 0.015625
            },
            {
              "pitch": 42,
              "velocity": 80,
              "position": 14.75,
              "duration": 0.015625
            },
            {
              "pitch": 36,
              "velocity": 112,
              "position": 14.760416666666666,
              "duration": 0.015625
            },
            {
              "pitch": 55,
              "velocity": 124,
              "position": 14.760416666666666,
              "duration": 0.015625
            }
          ]
        },
        "10": {
          "ctab": {
            "srcChannel": 10,
            "name": "Std.Kit1",
            "accType": "SUBRHYTHM",
            "editable": false,
            "mutedNotes": [],
            "mutedChords": [
              "dim7",
              "dim",
              "minMaj7(9)",
              "minMaj7",
              "min7(11)",
              "min7(9)",
              "min(9)",
              "m7b5",
              "min7",
              "min6",
              "min"
            ],
            "autoStart": true,
            "sourceChordNote": 0,
            "sourceChordType": "Maj7",
            "ctb2Low": null,
            "ctb2Main": {
              "ntr": "ROOT_FIXED",
              "ntt": "BYPASS",
              "bassOn": false,
              "chordRootUpperLimit": 6,
              "noteLowLimit": 0,
              "noteHighLimit": 127,
              "rtr": "PITCH_SHIFT"
            },
            "ctb2High": null
          },
          "notes": [
            {
              "pitch": 60,
              "velocity": 92,
              "position": 0,
              "duration": 0.015625
            },
            {
              "pitch": 33,
              "velocity": 92,
              "position": 0,
              "duration": 0.015625
            },
            {
              "pitch": 62,
              "velocity": 92,
              "position": 0,
              "duration": 0.015625
            },
            {
              "pitch": 33,
              "velocity": 58,
              "position": 0.25,
              "duration": 0.015625
            },
            {
              "pitch": 61,
              "velocity": 80,
              "position": 0.25,
              "duration": 0.015625
            },
            {
              "pitch": 62,
              "velocity": 88,
              "position": 0.2604166666666667,
              "duration": 0.015625
            },
            {
              "pitch": 33,
              "velocity": 110,
              "position": 0.4895833333333333,
              "duration": 0.015625
            },
            {
              "pitch": 75,
              "velocity": 120,
              "position": 0.5,
              "duration": 0.015625
            },
            {
              "pitch": 62,
              "velocity": 108,
              "position": 0.5,
              "duration": 0.015625
            },
            {
              "pitch": 61,
              "velocity": 80,
              "position": 0.5,
              "duration": 0.015625
            },
            {
              "pitch": 62,
              "velocity": 88,
              "position": 0.75,
              "duration": 0.015625
            },
            {
              "pitch": 33,
              "velocity": 58,
              "position": 0.75,
              "duration": 0.015625
            },
            {
              "pitch": 60,
              "velocity": 92,
              "position": 0.7604166666666666,
              "duration": 0.015625
            },
            {
              "pitch": 33,
              "velocity": 110,
              "position": 0.9895833333333334,
              "duration": 0.015625
            },
            {
              "pitch": 62,
              "velocity": 88,
              "position": 0.9895833333333334,
              "duration": 0.015625
            },
            {
              "pitch": 75,
              "velocity": 126,
              "position": 1,
              "duration": 0.015625
            },
            {
              "pitch": 60,
              "velocity": 80,
              "position": 1,
              "duration": 0.015625
            },
            {
              "pitch": 62,
              "velocity": 88,
              "position": 1.25,
              "duration": 0.015625
            },
            {
              "pitch": 33,
              "velocity": 110,
              "position": 1.25,
              "duration": 0.015625
            },
            {
              "pitch": 61,
              "velocity": 92,
              "position": 1.2604166666666667,
              "duration": 0.015625
            },
            {
              "pitch": 33,
              "velocity": 72,
              "position": 1.4895833333333333,
              "duration": 0.015625
            },
            {
              "pitch": 64,
              "velocity": 100,
              "position": 1.4895833333333333,
              "duration": 0.015625
            },
            {
              "pitch": 61,
              "velocity": 92,
              "position": 1.5,
              "duration": 0.015625
            },
            {
              "pitch": 64,
              "velocity": 100,
              "position": 1.75,
              "duration": 0.015625
            },
            {
              "pitch": 33,
              "velocity": 92,
              "position": 1.75,
              "duration": 0.015625
            },
            {
              "pitch": 60,
              "velocity": 112,
              "position": 1.7604166666666667,
              "duration": 0.015625
            },
            {
              "pitch": 75,
              "velocity": 120,
              "position": 2,
              "duration": 0.015625
            },
            {
              "pitch": 61,
              "velocity": 80,
              "position": 2,
              "duration": 0.015625
            },
            {
              "pitch": 62,
              "velocity": 84,
              "position": 2,
              "duration": 0.015625
            },
            {
              "pitch": 33,
              "velocity": 110,
              "position": 2,
              "duration": 0.015625
            },
            {
              "pitch": 33,
              "velocity": 68,
              "position": 2.25,
              "duration": 0.015625
            },
            {
              "pitch": 62,
              "velocity": 88,
              "position": 2.25,
              "duration": 0.015625
            },
            {
              "pitch": 61,
              "velocity": 80,
              "position": 2.2604166666666665,
              "duration": 0.015625
            },
            {
              "pitch": 62,
              "velocity": 108,
              "position": 2.4895833333333335,
              "duration": 0.015625
            },
            {
              "pitch": 33,
              "velocity": 90,
              "position": 2.4895833333333335,
              "duration": 0.015625
            },
            {
              "pitch": 61,
              "velocity": 72,
              "position": 2.5,
              "duration": 0.015625
            },
            {
              "pitch": 60,
              "velocity": 80,
              "position": 2.75,
              "duration": 0.015625
            },
            {
              "pitch": 62,
              "velocity": 88,
              "position": 2.75,
              "duration": 0.015625
            },
            {
              "pitch": 33,
              "velocity": 110,
              "position": 2.75,
              "duration": 0.015625
            },
            {
              "pitch": 75,
              "velocity": 120,
              "position": 2.7604166666666665,
              "duration": 0.015625
            },
            {
              "pitch": 62,
              "velocity": 100,
              "position": 3,
              "duration": 0.015625
            },
            {
              "pitch": 33,
              "velocity": 68,
              "position": 3,
              "duration": 0.015625
            },
            {
              "pitch": 60,
              "velocity": 80,
              "position": 3,
              "duration": 0.015625
            },
            {
              "pitch": 62,
              "velocity": 100,
              "position": 3.25,
              "duration": 0.015625
            },
            {
              "pitch": 61,
              "velocity": 92,
              "position": 3.25,
              "duration": 0.015625
            },
            {
              "pitch": 33,
              "velocity": 110,
              "position": 3.25,
              "duration": 0.015625
            },
            {
              "pitch": 61,
              "velocity": 92,
              "position": 3.4895833333333335,
              "duration": 0.015625
            },
            {
              "pitch": 64,
              "velocity": 100,
              "position": 3.4895833333333335,
              "duration": 0.015625
            },
            {
              "pitch": 33,
              "velocity": 72,
              "position": 3.5,
              "duration": 0.015625
            },
            {
              "pitch": 75,
              "velocity": 112,
              "position": 3.5,
              "duration": 0.015625
            },
            {
              "pitch": 61,
              "velocity": 80,
              "position": 3.75,
              "duration": 0.015625
            },
            {
              "pitch": 33,
              "velocity": 110,
              "position": 3.75,
              "duration": 0.015625
            },
            {
              "pitch": 64,
              "velocity": 102,
              "position": 3.75,
              "duration": 0.015625
            },
            {
              "pitch": 60,
              "velocity": 92,
              "position": 4,
              "duration": 0.015625
            },
            {
              "pitch": 62,
              "velocity": 88,
              "position": 4,
              "duration": 0.015625
            },
            {
              "pitch": 33,
              "velocity": 110,
              "position": 4,
              "duration": 0.015625
            },
            {
              "pitch": 61,
              "velocity": 80,
              "position": 4.25,
              "duration": 0.015625
            },
            {
              "pitch": 33,
              "velocity": 60,
              "position": 4.25,
              "duration": 0.015625
            },
            {
              "pitch": 62,
              "velocity": 88,
              "position": 4.25,
              "duration": 0.015625
            },
            {
              "pitch": 62,
              "velocity": 110,
              "position": 4.5,
              "duration": 0.015625
            },
            {
              "pitch": 33,
              "velocity": 110,
              "position": 4.5,
              "duration": 0.015625
            },
            {
              "pitch": 75,
              "velocity": 120,
              "position": 4.5,
              "duration": 0.015625
            },
            {
              "pitch": 61,
              "velocity": 92,
              "position": 4.5,
              "duration": 0.015625
            },
            {
              "pitch": 62,
              "velocity": 100,
              "position": 4.75,
              "duration": 0.015625
            },
            {
              "pitch": 33,
              "velocity": 72,
              "position": 4.75,
              "duration": 0.015625
            },
            {
              "pitch": 60,
              "velocity": 92,
              "position": 4.760416666666667,
              "duration": 0.015625
            },
            {
              "pitch": 62,
              "velocity": 100,
              "position": 4.989583333333333,
              "duration": 0.015625
            },
            {
              "pitch": 33,
              "velocity": 110,
              "position": 5,
              "duration": 0.015625
            },
            {
              "pitch": 60,
              "velocity": 80,
              "position": 5,
              "duration": 0.015625
            },
            {
              "pitch": 75,
              "velocity": 114,
              "position": 5.010416666666667,
              "duration": 0.015625
            },
            {
              "pitch": 62,
              "velocity": 100,
              "position": 5.25,
              "duration": 0.015625
            },
            {
              "pitch": 33,
              "velocity": 110,
              "position": 5.25,
              "duration": 0.015625
            },
            {
              "pitch": 61,
              "velocity": 90,
              "position": 5.260416666666667,
              "duration": 0.015625
            },
            {
              "pitch": 33,
              "velocity": 76,
              "position": 5.489583333333333,
              "duration": 0.015625
            },
            {
              "pitch": 61,
              "velocity": 90,
              "position": 5.5,
              "duration": 0.015625
            },
            {
              "pitch": 64,
              "velocity": 100,
              "position": 5.5,
              "duration": 0.015625
            },
            {
              "pitch": 64,
              "velocity": 102,
              "position": 5.75,
              "duration": 0.015625
            },
            {
              "pitch": 33,
              "velocity": 110,
              "position": 5.75,
              "duration": 0.015625
            },
            {
              "pitch": 60,
              "velocity": 110,
              "position": 5.760416666666667,
              "duration": 0.015625
            },
            {
              "pitch": 61,
              "velocity": 80,
              "position": 6,
              "duration": 0.015625
            },
            {
              "pitch": 62,
              "velocity": 96,
              "position": 6,
              "duration": 0.015625
            },
            {
              "pitch": 33,
              "velocity": 110,
              "position": 6,
              "duration": 0.015625
            },
            {
              "pitch": 75,
              "velocity": 120,
              "position": 6.010416666666667,
              "duration": 0.015625
            },
            {
              "pitch": 62,
              "velocity": 88,
              "position": 6.25,
              "duration": 0.015625
            },
            {
              "pitch": 33,
              "velocity": 64,
              "position": 6.25,
              "duration": 0.015625
            },
            {
              "pitch": 61,
              "velocity": 80,
              "position": 6.260416666666667,
              "duration": 0.015625
            },
            {
              "pitch": 62,
              "velocity": 108,
              "position": 6.489583333333333,
              "duration": 0.015625
            },
            {
              "pitch": 33,
              "velocity": 110,
              "position": 6.5,
              "duration": 0.015625
            },
            {
              "pitch": 61,
              "velocity": 80,
              "position": 6.510416666666667,
              "duration": 0.015625
            },
            {
              "pitch": 62,
              "velocity": 88,
              "position": 6.75,
              "duration": 0.015625
            },
            {
              "pitch": 60,
              "velocity": 92,
              "position": 6.75,
              "duration": 0.015625
            },
            {
              "pitch": 33,
              "velocity": 92,
              "position": 6.75,
              "duration": 0.015625
            },
            {
              "pitch": 75,
              "velocity": 112,
              "position": 6.760416666666667,
              "duration": 0.015625
            },
            {
              "pitch": 60,
              "velocity": 80,
              "position": 7,
              "duration": 0.015625
            },
            {
              "pitch": 62,
              "velocity": 100,
              "position": 7,
              "duration": 0.015625
            },
            {
              "pitch": 33,
              "velocity": 64,
              "position": 7,
              "duration": 0.015625
            },
            {
              "pitch": 62,
              "velocity": 88,
              "position": 7.25,
              "duration": 0.015625
            },
            {
              "pitch": 61,
              "velocity": 80,
              "position": 7.25,
              "duration": 0.015625
            },
            {
              "pitch": 33,
              "velocity": 110,
              "position": 7.260416666666667,
              "duration": 0.015625
            },
            {
              "pitch": 61,
              "velocity": 80,
              "position": 7.489583333333333,
              "duration": 0.015625
            },
            {
              "pitch": 64,
              "velocity": 104,
              "position": 7.489583333333333,
              "duration": 0.015625
            },
            {
              "pitch": 75,
              "velocity": 120,
              "position": 7.5,
              "duration": 0.015625
            },
            {
              "pitch": 33,
              "velocity": 72,
              "position": 7.5,
              "duration": 0.015625
            },
            {
              "pitch": 61,
              "velocity": 92,
              "position": 7.739583333333333,
              "duration": 0.015625
            },
            {
              "pitch": 64,
              "velocity": 100,
              "position": 7.75,
              "duration": 0.015625
            },
            {
              "pitch": 33,
              "velocity": 110,
              "position": 7.760416666666667,
              "duration": 0.015625
            },
            {
              "pitch": 60,
              "velocity": 92,
              "position": 8,
              "duration": 0.015625
            },
            {
              "pitch": 62,
              "velocity": 102,
              "position": 8,
              "duration": 0.015625
            },
            {
              "pitch": 33,
              "velocity": 92,
              "position": 8.010416666666666,
              "duration": 0.015625
            },
            {
              "pitch": 33,
              "velocity": 56,
              "position": 8.25,
              "duration": 0.015625
            },
            {
              "pitch": 62,
              "velocity": 88,
              "position": 8.25,
              "duration": 0.015625
            },
            {
              "pitch": 61,
              "velocity": 80,
              "position": 8.25,
              "duration": 0.015625
            },
            {
              "pitch": 62,
              "velocity": 108,
              "position": 8.489583333333334,
              "duration": 0.015625
            },
            {
              "pitch": 75,
              "velocity": 120,
              "position": 8.5,
              "duration": 0.015625
            },
            {
              "pitch": 33,
              "velocity": 110,
              "position": 8.5,
              "duration": 0.015625
            },
            {
              "pitch": 61,
              "velocity": 80,
              "position": 8.5,
              "duration": 0.015625
            },
            {
              "pitch": 62,
              "velocity": 88,
              "position": 8.75,
              "duration": 0.015625
            },
            {
              "pitch": 33,
              "velocity": 72,
              "position": 8.75,
              "duration": 0.015625
            },
            {
              "pitch": 60,
              "velocity": 90,
              "position": 8.75,
              "duration": 0.015625
            },
            {
              "pitch": 62,
              "velocity": 88,
              "position": 9,
              "duration": 0.015625
            },
            {
              "pitch": 33,
              "velocity": 110,
              "position": 9,
              "duration": 0.015625
            },
            {
              "pitch": 75,
              "velocity": 126,
              "position": 9,
              "duration": 0.015625
            },
            {
              "pitch": 60,
              "velocity": 92,
              "position": 9,
              "duration": 0.015625
            },
            {
              "pitch": 62,
              "velocity": 100,
              "position": 9.25,
              "duration": 0.015625
            },
            {
              "pitch": 33,
              "velocity": 110,
              "position": 9.25,
              "duration": 0.015625
            },
            {
              "pitch": 61,
              "velocity": 90,
              "position": 9.25,
              "duration": 0.015625
            },
            {
              "pitch": 61,
              "velocity": 92,
              "position": 9.489583333333334,
              "duration": 0.015625
            },
            {
              "pitch": 64,
              "velocity": 100,
              "position": 9.489583333333334,
              "duration": 0.015625
            },
            {
              "pitch": 33,
              "velocity": 64,
              "position": 9.489583333333334,
              "duration": 0.015625
            },
            {
              "pitch": 33,
              "velocity": 92,
              "position": 9.75,
              "duration": 0.015625
            },
            {
              "pitch": 60,
              "velocity": 108,
              "position": 9.75,
              "duration": 0.015625
            },
            {
              "pitch": 64,
              "velocity": 100,
              "position": 9.75,
              "duration": 0.015625
            },
            {
              "pitch": 75,
              "velocity": 120,
              "position": 10,
              "duration": 0.015625
            },
            {
              "pitch": 62,
              "velocity": 88,
              "position": 10,
              "duration": 0.015625
            },
            {
              "pitch": 61,
              "velocity": 80,
              "position": 10,
              "duration": 0.015625
            },
            {
              "pitch": 33,
              "velocity": 92,
              "position": 10,
              "duration": 0.015625
            },
            {
              "pitch": 62,
              "velocity": 88,
              "position": 10.25,
              "duration": 0.015625
            },
            {
              "pitch": 66,
              "velocity": 80,
              "position": 10.25,
              "duration": 0.015625
            },
            {
              "pitch": 33,
              "velocity": 64,
              "position": 10.25,
              "duration": 0.015625
            },
            {
              "pitch": 61,
              "velocity": 72,
              "position": 10.260416666666666,
              "duration": 0.015625
            },
            {
              "pitch": 66,
              "velocity": 92,
              "position": 10.333333333333334,
              "duration": 0.015625
            },
            {
              "pitch": 66,
              "velocity": 98,
              "position": 10.427083333333334,
              "duration": 0.015625
            },
            {
              "pitch": 62,
              "velocity": 112,
              "position": 10.5,
              "duration": 0.015625
            },
            {
              "pitch": 33,
              "velocity": 110,
              "position": 10.5,
              "duration": 0.015625
            },
            {
              "pitch": 61,
              "velocity": 64,
              "position": 10.5,
              "duration": 0.015625
            },
            {
              "pitch": 66,
              "velocity": 110,
              "position": 10.5,
              "duration": 0.015625
            },
            {
              "pitch": 62,
              "velocity": 110,
              "position": 10.75,
              "duration": 0.015625
            },
            {
              "pitch": 60,
              "velocity": 102,
              "position": 10.760416666666666,
              "duration": 0.015625
            },
            {
              "pitch": 75,
              "velocity": 120,
              "position": 10.760416666666666,
              "duration": 0.015625
            },
            {
              "pitch": 65,
              "velocity": 126,
              "position": 10.760416666666666,
              "duration": 0.015625
            },
            {
              "pitch": 33,
              "velocity": 110,
              "position": 10.760416666666666,
              "duration": 0.015625
            }
          ]
        },
        "11": {
          "ctab": {
            "srcChannel": 11,
            "name": "Std.Kit1",
            "accType": "SUBRHYTHM",
            "editable": false,
            "mutedNotes": [],
            "mutedChords": [
              "1+2+5",
              "sus4",
              "1+5",
              "1+8",
              "7aug",
              "Maj7aug",
              "7(#9)",
              "7(b13)",
              "7(b9)",
              "7(13)",
              "7#11",
              "7(9)",
              "7b5",
              "7sus4",
              "7th",
              "aug",
              "Maj6(9)",
              "Maj7(9)",
              "Maj(9)",
              "Maj7#11",
              "Maj7",
              "Maj6",
              "Maj"
            ],
            "autoStart": false,
            "sourceChordNote": 0,
            "sourceChordType": "Maj7",
            "ctb2Low": null,
            "ctb2Main": {
              "ntr": "ROOT_FIXED",
              "ntt": "BYPASS",
              "bassOn": false,
              "chordRootUpperLimit": 6,
              "noteLowLimit": 0,
              "noteHighLimit": 127,
              "rtr": "PITCH_SHIFT"
            },
            "ctb2High": null
          },
          "notes": [
            {
              "pitch": 60,
              "velocity": 92,
              "position": 0,
              "duration": 0.015625
            },
            {
              "pitch": 33,
              "velocity": 92,
              "position": 0,
              "duration": 0.015625
            },
            {
              "pitch": 62,
              "velocity": 92,
              "position": 0,
              "duration": 0.015625
            },
            {
              "pitch": 33,
              "velocity": 58,
              "position": 0.25,
              "duration": 0.015625
            },
            {
              "pitch": 61,
              "velocity": 80,
              "position": 0.25,
              "duration": 0.015625
            },
            {
              "pitch": 62,
              "velocity": 88,
              "position": 0.2604166666666667,
              "duration": 0.015625
            },
            {
              "pitch": 33,
              "velocity": 110,
              "position": 0.4895833333333333,
              "duration": 0.015625
            },
            {
              "pitch": 75,
              "velocity": 120,
              "position": 0.5,
              "duration": 0.015625
            },
            {
              "pitch": 62,
              "velocity": 108,
              "position": 0.5,
              "duration": 0.015625
            },
            {
              "pitch": 61,
              "velocity": 80,
              "position": 0.5,
              "duration": 0.015625
            },
            {
              "pitch": 62,
              "velocity": 88,
              "position": 0.75,
              "duration": 0.015625
            },
            {
              "pitch": 33,
              "velocity": 58,
              "position": 0.75,
              "duration": 0.015625
            },
            {
              "pitch": 60,
              "velocity": 92,
              "position": 0.7604166666666666,
              "duration": 0.015625
            },
            {
              "pitch": 33,
              "velocity": 110,
              "position": 0.9895833333333334,
              "duration": 0.015625
            },
            {
              "pitch": 62,
              "velocity": 88,
              "position": 0.9895833333333334,
              "duration": 0.015625
            },
            {
              "pitch": 75,
              "velocity": 126,
              "position": 1,
              "duration": 0.015625
            },
            {
              "pitch": 60,
              "velocity": 80,
              "position": 1,
              "duration": 0.015625
            },
            {
              "pitch": 62,
              "velocity": 88,
              "position": 1.25,
              "duration": 0.015625
            },
            {
              "pitch": 33,
              "velocity": 110,
              "position": 1.25,
              "duration": 0.015625
            },
            {
              "pitch": 61,
              "velocity": 92,
              "position": 1.2604166666666667,
              "duration": 0.015625
            },
            {
              "pitch": 33,
              "velocity": 72,
              "position": 1.4895833333333333,
              "duration": 0.015625
            },
            {
              "pitch": 64,
              "velocity": 100,
              "position": 1.4895833333333333,
              "duration": 0.015625
            },
            {
              "pitch": 61,
              "velocity": 92,
              "position": 1.5,
              "duration": 0.015625
            },
            {
              "pitch": 64,
              "velocity": 100,
              "position": 1.75,
              "duration": 0.015625
            },
            {
              "pitch": 33,
              "velocity": 92,
              "position": 1.75,
              "duration": 0.015625
            },
            {
              "pitch": 60,
              "velocity": 112,
              "position": 1.7604166666666667,
              "duration": 0.015625
            },
            {
              "pitch": 75,
              "velocity": 120,
              "position": 2,
              "duration": 0.015625
            },
            {
              "pitch": 61,
              "velocity": 80,
              "position": 2,
              "duration": 0.015625
            },
            {
              "pitch": 62,
              "velocity": 84,
              "position": 2,
              "duration": 0.015625
            },
            {
              "pitch": 33,
              "velocity": 110,
              "position": 2,
              "duration": 0.015625
            },
            {
              "pitch": 33,
              "velocity": 68,
              "position": 2.25,
              "duration": 0.015625
            },
            {
              "pitch": 62,
              "velocity": 88,
              "position": 2.25,
              "duration": 0.015625
            },
            {
              "pitch": 61,
              "velocity": 80,
              "position": 2.2604166666666665,
              "duration": 0.015625
            },
            {
              "pitch": 62,
              "velocity": 108,
              "position": 2.4895833333333335,
              "duration": 0.015625
            },
            {
              "pitch": 33,
              "velocity": 90,
              "position": 2.4895833333333335,
              "duration": 0.015625
            },
            {
              "pitch": 61,
              "velocity": 72,
              "position": 2.5,
              "duration": 0.015625
            },
            {
              "pitch": 60,
              "velocity": 80,
              "position": 2.75,
              "duration": 0.015625
            },
            {
              "pitch": 62,
              "velocity": 88,
              "position": 2.75,
              "duration": 0.015625
            },
            {
              "pitch": 33,
              "velocity": 110,
              "position": 2.75,
              "duration": 0.015625
            },
            {
              "pitch": 75,
              "velocity": 120,
              "position": 2.7604166666666665,
              "duration": 0.015625
            },
            {
              "pitch": 62,
              "velocity": 100,
              "position": 3,
              "duration": 0.015625
            },
            {
              "pitch": 33,
              "velocity": 68,
              "position": 3,
              "duration": 0.015625
            },
            {
              "pitch": 60,
              "velocity": 80,
              "position": 3,
              "duration": 0.015625
            },
            {
              "pitch": 62,
              "velocity": 100,
              "position": 3.25,
              "duration": 0.015625
            },
            {
              "pitch": 61,
              "velocity": 92,
              "position": 3.25,
              "duration": 0.015625
            },
            {
              "pitch": 33,
              "velocity": 110,
              "position": 3.25,
              "duration": 0.015625
            },
            {
              "pitch": 61,
              "velocity": 92,
              "position": 3.4895833333333335,
              "duration": 0.015625
            },
            {
              "pitch": 64,
              "velocity": 100,
              "position": 3.4895833333333335,
              "duration": 0.015625
            },
            {
              "pitch": 33,
              "velocity": 72,
              "position": 3.5,
              "duration": 0.015625
            },
            {
              "pitch": 75,
              "velocity": 112,
              "position": 3.5,
              "duration": 0.015625
            },
            {
              "pitch": 61,
              "velocity": 80,
              "position": 3.75,
              "duration": 0.015625
            },
            {
              "pitch": 33,
              "velocity": 110,
              "position": 3.75,
              "duration": 0.015625
            },
            {
              "pitch": 64,
              "velocity": 102,
              "position": 3.75,
              "duration": 0.015625
            },
            {
              "pitch": 60,
              "velocity": 92,
              "position": 4,
              "duration": 0.015625
            },
            {
              "pitch": 62,
              "velocity": 88,
              "position": 4,
              "duration": 0.015625
            },
            {
              "pitch": 33,
              "velocity": 110,
              "position": 4,
              "duration": 0.015625
            },
            {
              "pitch": 61,
              "velocity": 80,
              "position": 4.25,
              "duration": 0.015625
            },
            {
              "pitch": 33,
              "velocity": 60,
              "position": 4.25,
              "duration": 0.015625
            },
            {
              "pitch": 62,
              "velocity": 88,
              "position": 4.25,
              "duration": 0.015625
            },
            {
              "pitch": 62,
              "velocity": 110,
              "position": 4.5,
              "duration": 0.015625
            },
            {
              "pitch": 33,
              "velocity": 110,
              "position": 4.5,
              "duration": 0.015625
            },
            {
              "pitch": 75,
              "velocity": 120,
              "position": 4.5,
              "duration": 0.015625
            },
            {
              "pitch": 61,
              "velocity": 92,
              "position": 4.5,
              "duration": 0.015625
            },
            {
              "pitch": 62,
              "velocity": 100,
              "position": 4.75,
              "duration": 0.015625
            },
            {
              "pitch": 33,
              "velocity": 72,
              "position": 4.75,
              "duration": 0.015625
            },
            {
              "pitch": 60,
              "velocity": 92,
              "position": 4.760416666666667,
              "duration": 0.015625
            },
            {
              "pitch": 62,
              "velocity": 100,
              "position": 4.989583333333333,
              "duration": 0.015625
            },
            {
              "pitch": 33,
              "velocity": 110,
              "position": 5,
              "duration": 0.015625
            },
            {
              "pitch": 60,
              "velocity": 80,
              "position": 5,
              "duration": 0.015625
            },
            {
              "pitch": 75,
              "velocity": 114,
              "position": 5.010416666666667,
              "duration": 0.015625
            },
            {
              "pitch": 62,
              "velocity": 100,
              "position": 5.25,
              "duration": 0.015625
            },
            {
              "pitch": 33,
              "velocity": 110,
              "position": 5.25,
              "duration": 0.015625
            },
            {
              "pitch": 61,
              "velocity": 90,
              "position": 5.260416666666667,
              "duration": 0.015625
            },
            {
              "pitch": 33,
              "velocity": 76,
              "position": 5.489583333333333,
              "duration": 0.015625
            },
            {
              "pitch": 61,
              "velocity": 90,
              "position": 5.5,
              "duration": 0.015625
            },
            {
              "pitch": 64,
              "velocity": 100,
              "position": 5.5,
              "duration": 0.015625
            },
            {
              "pitch": 64,
              "velocity": 102,
              "position": 5.75,
              "duration": 0.015625
            },
            {
              "pitch": 33,
              "velocity": 110,
              "position": 5.75,
              "duration": 0.015625
            },
            {
              "pitch": 60,
              "velocity": 110,
              "position": 5.760416666666667,
              "duration": 0.015625
            },
            {
              "pitch": 61,
              "velocity": 80,
              "position": 6,
              "duration": 0.015625
            },
            {
              "pitch": 62,
              "velocity": 96,
              "position": 6,
              "duration": 0.015625
            },
            {
              "pitch": 33,
              "velocity": 110,
              "position": 6,
              "duration": 0.015625
            },
            {
              "pitch": 75,
              "velocity": 120,
              "position": 6.010416666666667,
              "duration": 0.015625
            },
            {
              "pitch": 62,
              "velocity": 88,
              "position": 6.25,
              "duration": 0.015625
            },
            {
              "pitch": 33,
              "velocity": 64,
              "position": 6.25,
              "duration": 0.015625
            },
            {
              "pitch": 61,
              "velocity": 80,
              "position": 6.260416666666667,
              "duration": 0.015625
            },
            {
              "pitch": 62,
              "velocity": 108,
              "position": 6.489583333333333,
              "duration": 0.015625
            },
            {
              "pitch": 33,
              "velocity": 110,
              "position": 6.5,
              "duration": 0.015625
            },
            {
              "pitch": 61,
              "velocity": 80,
              "position": 6.510416666666667,
              "duration": 0.015625
            },
            {
              "pitch": 62,
              "velocity": 88,
              "position": 6.75,
              "duration": 0.015625
            },
            {
              "pitch": 60,
              "velocity": 92,
              "position": 6.75,
              "duration": 0.015625
            },
            {
              "pitch": 33,
              "velocity": 92,
              "position": 6.75,
              "duration": 0.015625
            },
            {
              "pitch": 75,
              "velocity": 112,
              "position": 6.760416666666667,
              "duration": 0.015625
            },
            {
              "pitch": 60,
              "velocity": 80,
              "position": 7,
              "duration": 0.015625
            },
            {
              "pitch": 62,
              "velocity": 100,
              "position": 7,
              "duration": 0.015625
            },
            {
              "pitch": 33,
              "velocity": 64,
              "position": 7,
              "duration": 0.015625
            },
            {
              "pitch": 62,
              "velocity": 88,
              "position": 7.25,
              "duration": 0.015625
            },
            {
              "pitch": 61,
              "velocity": 80,
              "position": 7.25,
              "duration": 0.015625
            },
            {
              "pitch": 33,
              "velocity": 110,
              "position": 7.260416666666667,
              "duration": 0.015625
            },
            {
              "pitch": 61,
              "velocity": 80,
              "position": 7.489583333333333,
              "duration": 0.015625
            },
            {
              "pitch": 64,
              "velocity": 104,
              "position": 7.489583333333333,
              "duration": 0.015625
            },
            {
              "pitch": 75,
              "velocity": 120,
              "position": 7.5,
              "duration": 0.015625
            },
            {
              "pitch": 33,
              "velocity": 72,
              "position": 7.5,
              "duration": 0.015625
            },
            {
              "pitch": 61,
              "velocity": 92,
              "position": 7.739583333333333,
              "duration": 0.015625
            },
            {
              "pitch": 64,
              "velocity": 100,
              "position": 7.75,
              "duration": 0.015625
            },
            {
              "pitch": 33,
              "velocity": 110,
              "position": 7.760416666666667,
              "duration": 0.015625
            },
            {
              "pitch": 60,
              "velocity": 92,
              "position": 8,
              "duration": 0.015625
            },
            {
              "pitch": 33,
              "velocity": 92,
              "position": 8,
              "duration": 0.015625
            },
            {
              "pitch": 62,
              "velocity": 92,
              "position": 8,
              "duration": 0.015625
            },
            {
              "pitch": 33,
              "velocity": 58,
              "position": 8.25,
              "duration": 0.015625
            },
            {
              "pitch": 61,
              "velocity": 80,
              "position": 8.25,
              "duration": 0.015625
            },
            {
              "pitch": 62,
              "velocity": 88,
              "position": 8.260416666666666,
              "duration": 0.015625
            },
            {
              "pitch": 33,
              "velocity": 110,
              "position": 8.489583333333334,
              "duration": 0.015625
            },
            {
              "pitch": 75,
              "velocity": 120,
              "position": 8.5,
              "duration": 0.015625
            },
            {
              "pitch": 62,
              "velocity": 108,
              "position": 8.5,
              "duration": 0.015625
            },
            {
              "pitch": 61,
              "velocity": 80,
              "position": 8.5,
              "duration": 0.015625
            },
            {
              "pitch": 62,
              "velocity": 88,
              "position": 8.75,
              "duration": 0.015625
            },
            {
              "pitch": 33,
              "velocity": 58,
              "position": 8.75,
              "duration": 0.015625
            },
            {
              "pitch": 60,
              "velocity": 92,
              "position": 8.760416666666666,
              "duration": 0.015625
            },
            {
              "pitch": 33,
              "velocity": 110,
              "position": 8.989583333333334,
              "duration": 0.015625
            },
            {
              "pitch": 62,
              "velocity": 88,
              "position": 8.989583333333334,
              "duration": 0.015625
            },
            {
              "pitch": 75,
              "velocity": 126,
              "position": 9,
              "duration": 0.015625
            },
            {
              "pitch": 60,
              "velocity": 80,
              "position": 9,
              "duration": 0.015625
            },
            {
              "pitch": 62,
              "velocity": 88,
              "position": 9.25,
              "duration": 0.015625
            },
            {
              "pitch": 33,
              "velocity": 110,
              "position": 9.25,
              "duration": 0.015625
            },
            {
              "pitch": 61,
              "velocity": 92,
              "position": 9.260416666666666,
              "duration": 0.015625
            },
            {
              "pitch": 33,
              "velocity": 72,
              "position": 9.489583333333334,
              "duration": 0.015625
            },
            {
              "pitch": 64,
              "velocity": 100,
              "position": 9.489583333333334,
              "duration": 0.015625
            },
            {
              "pitch": 61,
              "velocity": 92,
              "position": 9.5,
              "duration": 0.015625
            },
            {
              "pitch": 64,
              "velocity": 100,
              "position": 9.75,
              "duration": 0.015625
            },
            {
              "pitch": 33,
              "velocity": 92,
              "position": 9.75,
              "duration": 0.015625
            },
            {
              "pitch": 60,
              "velocity": 112,
              "position": 9.760416666666666,
              "duration": 0.015625
            },
            {
              "pitch": 75,
              "velocity": 120,
              "position": 10,
              "duration": 0.015625
            },
            {
              "pitch": 61,
              "velocity": 80,
              "position": 10,
              "duration": 0.015625
            },
            {
              "pitch": 62,
              "velocity": 84,
              "position": 10,
              "duration": 0.015625
            },
            {
              "pitch": 33,
              "velocity": 110,
              "position": 10,
              "duration": 0.015625
            },
            {
              "pitch": 33,
              "velocity": 68,
              "position": 10.25,
              "duration": 0.015625
            },
            {
              "pitch": 62,
              "velocity": 88,
              "position": 10.25,
              "duration": 0.015625
            },
            {
              "pitch": 61,
              "velocity": 80,
              "position": 10.260416666666666,
              "duration": 0.015625
            },
            {
              "pitch": 62,
              "velocity": 108,
              "position": 10.489583333333334,
              "duration": 0.015625
            },
            {
              "pitch": 33,
              "velocity": 90,
              "position": 10.489583333333334,
              "duration": 0.015625
            },
            {
              "pitch": 61,
              "velocity": 72,
              "position": 10.5,
              "duration": 0.015625
            },
            {
              "pitch": 60,
              "velocity": 80,
              "position": 10.75,
              "duration": 0.015625
            },
            {
              "pitch": 62,
              "velocity": 88,
              "position": 10.75,
              "duration": 0.015625
            },
            {
              "pitch": 33,
              "velocity": 110,
              "position": 10.75,
              "duration": 0.015625
            },
            {
              "pitch": 75,
              "velocity": 120,
              "position": 10.760416666666666,
              "duration": 0.015625
            },
            {
              "pitch": 62,
              "velocity": 100,
              "position": 11,
              "duration": 0.015625
            },
            {
              "pitch": 33,
              "velocity": 68,
              "position": 11,
              "duration": 0.015625
            },
            {
              "pitch": 60,
              "velocity": 80,
              "position": 11,
              "duration": 0.015625
            },
            {
              "pitch": 62,
              "velocity": 100,
              "position": 11.25,
              "duration": 0.015625
            },
            {
              "pitch": 61,
              "velocity": 92,
              "position": 11.25,
              "duration": 0.015625
            },
            {
              "pitch": 33,
              "velocity": 110,
              "position": 11.25,
              "duration": 0.015625
            },
            {
              "pitch": 61,
              "velocity": 92,
              "position": 11.489583333333334,
              "duration": 0.015625
            },
            {
              "pitch": 64,
              "velocity": 100,
              "position": 11.489583333333334,
              "duration": 0.015625
            },
            {
              "pitch": 33,
              "velocity": 72,
              "position": 11.5,
              "duration": 0.015625
            },
            {
              "pitch": 75,
              "velocity": 112,
              "position": 11.5,
              "duration": 0.015625
            },
            {
              "pitch": 61,
              "velocity": 80,
              "position": 11.75,
              "duration": 0.015625
            },
            {
              "pitch": 33,
              "velocity": 110,
              "position": 11.75,
              "duration": 0.015625
            },
            {
              "pitch": 64,
              "velocity": 102,
              "position": 11.75,
              "duration": 0.015625
            },
            {
              "pitch": 62,
              "velocity": 88,
              "position": 12,
              "duration": 0.015625
            },
            {
              "pitch": 60,
              "velocity": 92,
              "position": 12,
              "duration": 0.015625
            },
            {
              "pitch": 33,
              "velocity": 92,
              "position": 12.010416666666666,
              "duration": 0.015625
            },
            {
              "pitch": 62,
              "velocity": 100,
              "position": 12.25,
              "duration": 0.015625
            },
            {
              "pitch": 33,
              "velocity": 68,
              "position": 12.25,
              "duration": 0.015625
            },
            {
              "pitch": 61,
              "velocity": 80,
              "position": 12.260416666666666,
              "duration": 0.015625
            },
            {
              "pitch": 62,
              "velocity": 108,
              "position": 12.5,
              "duration": 0.015625
            },
            {
              "pitch": 75,
              "velocity": 120,
              "position": 12.5,
              "duration": 0.015625
            },
            {
              "pitch": 61,
              "velocity": 90,
              "position": 12.5,
              "duration": 0.015625
            },
            {
              "pitch": 33,
              "velocity": 110,
              "position": 12.5,
              "duration": 0.015625
            },
            {
              "pitch": 60,
              "velocity": 80,
              "position": 12.760416666666666,
              "duration": 0.015625
            },
            {
              "pitch": 62,
              "velocity": 88,
              "position": 12.760416666666666,
              "duration": 0.015625
            },
            {
              "pitch": 33,
              "velocity": 64,
              "position": 12.760416666666666,
              "duration": 0.015625
            },
            {
              "pitch": 62,
              "velocity": 100,
              "position": 13,
              "duration": 0.015625
            },
            {
              "pitch": 60,
              "velocity": 80,
              "position": 13,
              "duration": 0.015625
            },
            {
              "pitch": 33,
              "velocity": 90,
              "position": 13,
              "duration": 0.015625
            },
            {
              "pitch": 75,
              "velocity": 114,
              "position": 13.010416666666666,
              "duration": 0.015625
            },
            {
              "pitch": 62,
              "velocity": 88,
              "position": 13.25,
              "duration": 0.015625
            },
            {
              "pitch": 61,
              "velocity": 80,
              "position": 13.260416666666666,
              "duration": 0.015625
            },
            {
              "pitch": 33,
              "velocity": 110,
              "position": 13.260416666666666,
              "duration": 0.015625
            },
            {
              "pitch": 61,
              "velocity": 90,
              "position": 13.5,
              "duration": 0.015625
            },
            {
              "pitch": 64,
              "velocity": 100,
              "position": 13.5,
              "duration": 0.015625
            },
            {
              "pitch": 33,
              "velocity": 72,
              "position": 13.5,
              "duration": 0.015625
            },
            {
              "pitch": 65,
              "velocity": 126,
              "position": 13.71875,
              "duration": 0.015625
            },
            {
              "pitch": 64,
              "velocity": 100,
              "position": 13.760416666666666,
              "duration": 0.015625
            },
            {
              "pitch": 60,
              "velocity": 108,
              "position": 13.760416666666666,
              "duration": 0.015625
            },
            {
              "pitch": 33,
              "velocity": 90,
              "position": 13.760416666666666,
              "duration": 0.015625
            },
            {
              "pitch": 65,
              "velocity": 106,
              "position": 13.770833333333334,
              "duration": 0.015625
            },
            {
              "pitch": 62,
              "velocity": 88,
              "position": 14,
              "duration": 0.015625
            },
            {
              "pitch": 61,
              "velocity": 72,
              "position": 14,
              "duration": 0.015625
            },
            {
              "pitch": 75,
              "velocity": 120,
              "position": 14.010416666666666,
              "duration": 0.015625
            },
            {
              "pitch": 33,
              "velocity": 90,
              "position": 14.010416666666666,
              "duration": 0.015625
            },
            {
              "pitch": 66,
              "velocity": 110,
              "position": 14.25,
              "duration": 0.015625
            },
            {
              "pitch": 62,
              "velocity": 88,
              "position": 14.25,
              "duration": 0.015625
            },
            {
              "pitch": 61,
              "velocity": 72,
              "position": 14.260416666666666,
              "duration": 0.015625
            },
            {
              "pitch": 33,
              "velocity": 72,
              "position": 14.260416666666666,
              "duration": 0.015625
            },
            {
              "pitch": 62,
              "velocity": 108,
              "position": 14.489583333333334,
              "duration": 0.015625
            },
            {
              "pitch": 66,
              "velocity": 92,
              "position": 14.5,
              "duration": 0.015625
            },
            {
              "pitch": 33,
              "velocity": 92,
              "position": 14.5,
              "duration": 0.015625
            },
            {
              "pitch": 61,
              "velocity": 80,
              "position": 14.5,
              "duration": 0.015625
            },
            {
              "pitch": 62,
              "velocity": 88,
              "position": 14.75,
              "duration": 0.015625
            },
            {
              "pitch": 60,
              "velocity": 92,
              "position": 14.75,
              "duration": 0.015625
            },
            {
              "pitch": 33,
              "velocity": 92,
              "position": 14.760416666666666,
              "duration": 0.015625
            },
            {
              "pitch": 75,
              "velocity": 112,
              "position": 14.760416666666666,
              "duration": 0.015625
            },
            {
              "pitch": 65,
              "velocity": 126,
              "position": 14.770833333333334,
              "duration": 0.015625
            }
          ]
        },
        "12": {
          "ctab": {
            "srcChannel": 12,
            "name": "Aco.Bass",
            "accType": "BASS",
            "editable": false,
            "mutedNotes": [],
            "mutedChords": [
              "dim7",
              "dim",
              "minMaj7(9)",
              "minMaj7",
              "min7(11)",
              "min7(9)",
              "min(9)",
              "m7b5",
              "min7",
              "min6",
              "min"
            ],
            "autoStart": false,
            "sourceChordNote": 0,
            "sourceChordType": "Maj",
            "ctb2Low": null,
            "ctb2Main": {
              "ntr": "ROOT_TRANSPOSITION",
              "ntt": "MELODY",
              "bassOn": true,
              "chordRootUpperLimit": 3,
              "noteLowLimit": 28,
              "noteHighLimit": 54,
              "rtr": "PITCH_SHIFT_TO_ROOT"
            },
            "ctb2High": null
          },
          "notes": [
            {
              "pitch": 36,
              "velocity": 120,
              "position": 0,
              "duration": 0.6354166666666666
            },
            {
              "pitch": 43,
              "velocity": 120,
              "position": 0.75,
              "duration": 0.7083333333333334
            },
            {
              "pitch": 48,
              "velocity": 118,
              "position": 1.5,
              "duration": 0.46875
            },
            {
              "pitch": 51,
              "velocity": 110,
              "position": 2,
              "duration": 0.7291666666666666
            },
            {
              "pitch": 46,
              "velocity": 122,
              "position": 2.7395833333333335,
              "duration": 0.11458333333333333
            },
            {
              "pitch": 46,
              "velocity": 104,
              "position": 3,
              "duration": 0.4375
            },
            {
              "pitch": 38,
              "velocity": 120,
              "position": 3.4895833333333335,
              "duration": 1.1770833333333333
            },
            {
              "pitch": 45,
              "velocity": 104,
              "position": 4.760416666666667,
              "duration": 0.6666666666666666
            },
            {
              "pitch": 43,
              "velocity": 120,
              "position": 5.5,
              "duration": 0.9583333333333334
            },
            {
              "pitch": 31,
              "velocity": 104,
              "position": 6.739583333333333,
              "duration": 0.14583333333333334
            },
            {
              "pitch": 31,
              "velocity": 104,
              "position": 7,
              "duration": 0.46875
            },
            {
              "pitch": 36,
              "velocity": 120,
              "position": 7.5,
              "duration": 1.1041666666666667
            },
            {
              "pitch": 43,
              "velocity": 126,
              "position": 8.760416666666666,
              "duration": 0.5416666666666666
            },
            {
              "pitch": 48,
              "velocity": 122,
              "position": 9.5,
              "duration": 1.1145833333333333
            },
            {
              "pitch": 36,
              "velocity": 126,
              "position": 10.770833333333334,
              "duration": 0.25
            }
          ]
        },
        "13": {
          "ctab": {
            "srcChannel": 13,
            "name": "Aco.Bass",
            "accType": "BASS",
            "editable": false,
            "mutedNotes": [],
            "mutedChords": [
              "1+2+5",
              "sus4",
              "1+5",
              "1+8",
              "7aug",
              "Maj7aug",
              "7(#9)",
              "7(b13)",
              "7(b9)",
              "7(13)",
              "7#11",
              "7(9)",
              "7b5",
              "7sus4",
              "7th",
              "aug",
              "Maj6(9)",
              "Maj7(9)",
              "Maj(9)",
              "Maj7#11",
              "Maj7",
              "Maj6",
              "Maj"
            ],
            "autoStart": false,
            "sourceChordNote": 0,
            "sourceChordType": "min",
            "ctb2Low": null,
            "ctb2Main": {
              "ntr": "ROOT_TRANSPOSITION",
              "ntt": "MELODY",
              "bassOn": true,
              "chordRootUpperLimit": 3,
              "noteLowLimit": 28,
              "noteHighLimit": 54,
              "rtr": "PITCH_SHIFT_TO_ROOT"
            },
            "ctb2High": null
          },
          "notes": [
            {
              "pitch": 36,
              "velocity": 104,
              "position": 0,
              "duration": 0.6666666666666666
            },
            {
              "pitch": 43,
              "velocity": 122,
              "position": 0.7604166666666666,
              "duration": 0.6458333333333334
            },
            {
              "pitch": 48,
              "velocity": 120,
              "position": 1.4895833333333333,
              "duration": 0.4166666666666667
            },
            {
              "pitch": 46,
              "velocity": 104,
              "position": 1.9895833333333333,
              "duration": 0.6666666666666666
            },
            {
              "pitch": 41,
              "velocity": 104,
              "position": 2.75,
              "duration": 0.13541666666666666
            },
            {
              "pitch": 41,
              "velocity": 104,
              "position": 2.9895833333333335,
              "duration": 0.2916666666666667
            },
            {
              "pitch": 44,
              "velocity": 120,
              "position": 3.4895833333333335,
              "duration": 1.0416666666666667
            },
            {
              "pitch": 39,
              "velocity": 104,
              "position": 4.739583333333333,
              "duration": 0.59375
            },
            {
              "pitch": 43,
              "velocity": 104,
              "position": 5.510416666666667,
              "duration": 1.0520833333333333
            },
            {
              "pitch": 31,
              "velocity": 120,
              "position": 6.75,
              "duration": 0.13541666666666666
            },
            {
              "pitch": 31,
              "velocity": 94,
              "position": 7,
              "duration": 0.2708333333333333
            },
            {
              "pitch": 38,
              "velocity": 104,
              "position": 7.489583333333333,
              "duration": 1.15625
            },
            {
              "pitch": 44,
              "velocity": 120,
              "position": 8.75,
              "duration": 0.5833333333333334
            },
            {
              "pitch": 43,
              "velocity": 120,
              "position": 9.489583333333334,
              "duration": 1.2291666666666667
            },
            {
              "pitch": 35,
              "velocity": 104,
              "position": 10.75,
              "duration": 0.625
            },
            {
              "pitch": 36,
              "velocity": 118,
              "position": 11.489583333333334,
              "duration": 1.1354166666666667
            },
            {
              "pitch": 48,
              "velocity": 88,
              "position": 12.739583333333334,
              "duration": 0.22916666666666666
            },
            {
              "pitch": 43,
              "velocity": 86,
              "position": 12.739583333333334,
              "duration": 0.22916666666666666
            },
            {
              "pitch": 48,
              "velocity": 100,
              "position": 13.260416666666666,
              "duration": 0.16666666666666666
            },
            {
              "pitch": 43,
              "velocity": 88,
              "position": 13.25,
              "duration": 0.21875
            },
            {
              "pitch": 43,
              "velocity": 114,
              "position": 13.760416666666666,
              "duration": 0.1875
            },
            {
              "pitch": 48,
              "velocity": 124,
              "position": 13.760416666666666,
              "duration": 0.20833333333333334
            },
            {
              "pitch": 36,
              "velocity": 126,
              "position": 14.75,
              "duration": 0.2916666666666667
            }
          ]
        },
        "14": {
          "ctab": {
            "srcChannel": 14,
            "name": "GrandPno",
            "accType": "CHORD1",
            "editable": false,
            "mutedNotes": [],
            "mutedChords": [
              "dim7",
              "dim",
              "minMaj7(9)",
              "minMaj7",
              "min7(11)",
              "min7(9)",
              "min(9)",
              "m7b5",
              "min7",
              "min6",
              "min"
            ],
            "autoStart": false,
            "sourceChordNote": 0,
            "sourceChordType": "Maj",
            "ctb2Low": null,
            "ctb2Main": {
              "ntr": "ROOT_TRANSPOSITION",
              "ntt": "BYPASS",
              "bassOn": false,
              "chordRootUpperLimit": 6,
              "noteLowLimit": 0,
              "noteHighLimit": 79,
              "rtr": "PITCH_SHIFT"
            },
            "ctb2High": null
          },
          "notes": [
            {
              "pitch": 60,
              "velocity": 92,
              "position": 0,
              "duration": 0.3645833333333333
            },
            {
              "pitch": 72,
              "velocity": 110,
              "position": 0,
              "duration": 0.3854166666666667
            },
            {
              "pitch": 79,
              "velocity": 92,
              "position": 0.5,
              "duration": 0.6770833333333334
            },
            {
              "pitch": 64,
              "velocity": 80,
              "position": 0.5,
              "duration": 0.6875
            },
            {
              "pitch": 67,
              "velocity": 68,
              "position": 0.5,
              "duration": 0.6875
            },
            {
              "pitch": 76,
              "velocity": 104,
              "position": 0.5,
              "duration": 0.7083333333333334
            },
            {
              "pitch": 71,
              "velocity": 92,
              "position": 1.25,
              "duration": 0.3333333333333333
            },
            {
              "pitch": 59,
              "velocity": 80,
              "position": 1.2604166666666667,
              "duration": 0.375
            },
            {
              "pitch": 61,
              "velocity": 90,
              "position": 1.7604166666666667,
              "duration": 0.4166666666666667
            },
            {
              "pitch": 73,
              "velocity": 90,
              "position": 1.75,
              "duration": 0.4583333333333333
            },
            {
              "pitch": 82,
              "velocity": 80,
              "position": 2.2604166666666665,
              "duration": 0.3645833333333333
            },
            {
              "pitch": 79,
              "velocity": 88,
              "position": 2.25,
              "duration": 0.40625
            },
            {
              "pitch": 70,
              "velocity": 72,
              "position": 2.2604166666666665,
              "duration": 0.40625
            },
            {
              "pitch": 67,
              "velocity": 68,
              "position": 2.2604166666666665,
              "duration": 0.4270833333333333
            },
            {
              "pitch": 61,
              "velocity": 92,
              "position": 2.75,
              "duration": 0.4375
            },
            {
              "pitch": 73,
              "velocity": 110,
              "position": 2.75,
              "duration": 0.4479166666666667
            },
            {
              "pitch": 70,
              "velocity": 80,
              "position": 3.2604166666666665,
              "duration": 0.375
            },
            {
              "pitch": 82,
              "velocity": 88,
              "position": 3.25,
              "duration": 0.3958333333333333
            },
            {
              "pitch": 79,
              "velocity": 88,
              "position": 3.25,
              "duration": 0.4166666666666667
            },
            {
              "pitch": 67,
              "velocity": 68,
              "position": 3.2604166666666665,
              "duration": 0.40625
            },
            {
              "pitch": 73,
              "velocity": 104,
              "position": 3.75,
              "duration": 0.17708333333333334
            },
            {
              "pitch": 61,
              "velocity": 110,
              "position": 3.75,
              "duration": 0.17708333333333334
            },
            {
              "pitch": 72,
              "velocity": 88,
              "position": 4,
              "duration": 0.17708333333333334
            },
            {
              "pitch": 60,
              "velocity": 88,
              "position": 4,
              "duration": 0.1875
            },
            {
              "pitch": 65,
              "velocity": 90,
              "position": 4.25,
              "duration": 0.1875
            },
            {
              "pitch": 77,
              "velocity": 104,
              "position": 4.25,
              "duration": 0.1875
            },
            {
              "pitch": 69,
              "velocity": 88,
              "position": 4.5,
              "duration": 0.23958333333333334
            },
            {
              "pitch": 81,
              "velocity": 76,
              "position": 4.5,
              "duration": 0.2604166666666667
            },
            {
              "pitch": 60,
              "velocity": 94,
              "position": 4.760416666666667,
              "duration": 0.40625
            },
            {
              "pitch": 72,
              "velocity": 80,
              "position": 4.760416666666667,
              "duration": 0.4270833333333333
            },
            {
              "pitch": 81,
              "velocity": 88,
              "position": 5.260416666666667,
              "duration": 0.3958333333333333
            },
            {
              "pitch": 69,
              "velocity": 76,
              "position": 5.25,
              "duration": 0.4375
            },
            {
              "pitch": 65,
              "velocity": 110,
              "position": 5.25,
              "duration": 0.4791666666666667
            },
            {
              "pitch": 77,
              "velocity": 90,
              "position": 5.25,
              "duration": 0.4791666666666667
            },
            {
              "pitch": 71,
              "velocity": 90,
              "position": 5.760416666666667,
              "duration": 0.4166666666666667
            },
            {
              "pitch": 59,
              "velocity": 90,
              "position": 5.760416666666667,
              "duration": 0.4479166666666667
            },
            {
              "pitch": 67,
              "velocity": 88,
              "position": 6.25,
              "duration": 0.3541666666666667
            },
            {
              "pitch": 65,
              "velocity": 88,
              "position": 6.25,
              "duration": 0.375
            },
            {
              "pitch": 79,
              "velocity": 88,
              "position": 6.260416666666667,
              "duration": 0.375
            },
            {
              "pitch": 77,
              "velocity": 110,
              "position": 6.260416666666667,
              "duration": 0.3958333333333333
            },
            {
              "pitch": 59,
              "velocity": 92,
              "position": 6.75,
              "duration": 0.4270833333333333
            },
            {
              "pitch": 71,
              "velocity": 92,
              "position": 6.75,
              "duration": 0.4791666666666667
            },
            {
              "pitch": 67,
              "velocity": 88,
              "position": 7.25,
              "duration": 0.1875
            },
            {
              "pitch": 65,
              "velocity": 88,
              "position": 7.25,
              "duration": 0.20833333333333334
            },
            {
              "pitch": 79,
              "velocity": 88,
              "position": 7.260416666666667,
              "duration": 0.19791666666666666
            },
            {
              "pitch": 77,
              "velocity": 76,
              "position": 7.260416666666667,
              "duration": 0.21875
            },
            {
              "pitch": 69,
              "velocity": 72,
              "position": 7.5,
              "duration": 0.1875
            },
            {
              "pitch": 57,
              "velocity": 92,
              "position": 7.5,
              "duration": 0.22916666666666666
            },
            {
              "pitch": 59,
              "velocity": 80,
              "position": 7.75,
              "duration": 0.17708333333333334
            },
            {
              "pitch": 71,
              "velocity": 94,
              "position": 7.75,
              "duration": 0.17708333333333334
            },
            {
              "pitch": 72,
              "velocity": 80,
              "position": 8.020833333333334,
              "duration": 0.17708333333333334
            },
            {
              "pitch": 60,
              "velocity": 90,
              "position": 8.010416666666666,
              "duration": 0.20833333333333334
            },
            {
              "pitch": 64,
              "velocity": 86,
              "position": 8.260416666666666,
              "duration": 0.16666666666666666
            },
            {
              "pitch": 76,
              "velocity": 86,
              "position": 8.260416666666666,
              "duration": 0.16666666666666666
            },
            {
              "pitch": 79,
              "velocity": 100,
              "position": 8.489583333333334,
              "duration": 0.22916666666666666
            },
            {
              "pitch": 67,
              "velocity": 84,
              "position": 8.510416666666666,
              "duration": 0.20833333333333334
            },
            {
              "pitch": 71,
              "velocity": 90,
              "position": 8.760416666666666,
              "duration": 0.4583333333333333
            },
            {
              "pitch": 59,
              "velocity": 92,
              "position": 8.770833333333334,
              "duration": 0.4479166666666667
            },
            {
              "pitch": 79,
              "velocity": 78,
              "position": 9.260416666666666,
              "duration": 0.3854166666666667
            },
            {
              "pitch": 64,
              "velocity": 90,
              "position": 9.260416666666666,
              "duration": 0.40625
            },
            {
              "pitch": 76,
              "velocity": 94,
              "position": 9.260416666666666,
              "duration": 0.4166666666666667
            },
            {
              "pitch": 67,
              "velocity": 80,
              "position": 9.260416666666666,
              "duration": 0.4166666666666667
            },
            {
              "pitch": 60,
              "velocity": 110,
              "position": 9.75,
              "duration": 0.4583333333333333
            },
            {
              "pitch": 72,
              "velocity": 110,
              "position": 9.75,
              "duration": 0.4791666666666667
            },
            {
              "pitch": 71,
              "velocity": 120,
              "position": 10.770833333333334,
              "duration": 0.22916666666666666
            },
            {
              "pitch": 76,
              "velocity": 120,
              "position": 10.770833333333334,
              "duration": 0.22916666666666666
            },
            {
              "pitch": 79,
              "velocity": 126,
              "position": 10.770833333333334,
              "duration": 0.25
            },
            {
              "pitch": 84,
              "velocity": 80,
              "position": 10.78125,
              "duration": 0.23958333333333334
            },
            {
              "pitch": 64,
              "velocity": 112,
              "position": 10.78125,
              "duration": 0.23958333333333334
            },
            {
              "pitch": 55,
              "velocity": 112,
              "position": 10.78125,
              "duration": 0.2604166666666667
            },
            {
              "pitch": 48,
              "velocity": 120,
              "position": 10.78125,
              "duration": 0.2708333333333333
            }
          ]
        },
        "15": {
          "ctab": {
            "srcChannel": 15,
            "name": "GrandPno",
            "accType": "CHORD1",
            "editable": false,
            "mutedNotes": [],
            "mutedChords": [
              "1+2+5",
              "sus4",
              "1+5",
              "1+8",
              "7aug",
              "Maj7aug",
              "7(#9)",
              "7(b13)",
              "7(b9)",
              "7(13)",
              "7#11",
              "7(9)",
              "7b5",
              "7sus4",
              "7th",
              "aug",
              "Maj6(9)",
              "Maj7(9)",
              "Maj(9)",
              "Maj7#11",
              "Maj7",
              "Maj6",
              "Maj"
            ],
            "autoStart": false,
            "sourceChordNote": 0,
            "sourceChordType": "min",
            "ctb2Low": null,
            "ctb2Main": {
              "ntr": "ROOT_TRANSPOSITION",
              "ntt": "BYPASS",
              "bassOn": false,
              "chordRootUpperLimit": 6,
              "noteLowLimit": 0,
              "noteHighLimit": 127,
              "rtr": "PITCH_SHIFT"
            },
            "ctb2High": null
          },
          "notes": [
            {
              "pitch": 62,
              "velocity": 126,
              "position": 0,
              "duration": 0.9791666666666666
            },
            {
              "pitch": 63,
              "velocity": 106,
              "position": 0,
              "duration": 0.9895833333333334
            },
            {
              "pitch": 67,
              "velocity": 126,
              "position": 0,
              "duration": 1
            },
            {
              "pitch": 48,
              "velocity": 94,
              "position": 0,
              "duration": 1.0104166666666667
            },
            {
              "pitch": 57,
              "velocity": 80,
              "position": 0,
              "duration": 1.0520833333333333
            },
            {
              "pitch": 63,
              "velocity": 102,
              "position": 1.2604166666666667,
              "duration": 0.125
            },
            {
              "pitch": 62,
              "velocity": 102,
              "position": 1.2604166666666667,
              "duration": 0.125
            },
            {
              "pitch": 57,
              "velocity": 110,
              "position": 1.2604166666666667,
              "duration": 0.13541666666666666
            },
            {
              "pitch": 48,
              "velocity": 94,
              "position": 1.2604166666666667,
              "duration": 0.14583333333333334
            },
            {
              "pitch": 67,
              "velocity": 102,
              "position": 1.2604166666666667,
              "duration": 0.14583333333333334
            },
            {
              "pitch": 62,
              "velocity": 90,
              "position": 1.7604166666666667,
              "duration": 1.6875
            },
            {
              "pitch": 67,
              "velocity": 110,
              "position": 1.7604166666666667,
              "duration": 1.75
            },
            {
              "pitch": 56,
              "velocity": 94,
              "position": 1.7604166666666667,
              "duration": 1.7604166666666667
            },
            {
              "pitch": 46,
              "velocity": 90,
              "position": 1.7604166666666667,
              "duration": 1.7708333333333333
            },
            {
              "pitch": 72,
              "velocity": 110,
              "position": 1.7604166666666667,
              "duration": 1.7708333333333333
            },
            {
              "pitch": 70,
              "velocity": 102,
              "position": 4.010416666666667,
              "duration": 0.5
            },
            {
              "pitch": 44,
              "velocity": 90,
              "position": 4.010416666666667,
              "duration": 0.5104166666666666
            },
            {
              "pitch": 60,
              "velocity": 94,
              "position": 4.010416666666667,
              "duration": 0.53125
            },
            {
              "pitch": 54,
              "velocity": 110,
              "position": 4.010416666666667,
              "duration": 0.53125
            },
            {
              "pitch": 65,
              "velocity": 102,
              "position": 4.010416666666667,
              "duration": 0.53125
            },
            {
              "pitch": 54,
              "velocity": 80,
              "position": 4.770833333333333,
              "duration": 0.09375
            },
            {
              "pitch": 70,
              "velocity": 70,
              "position": 4.770833333333333,
              "duration": 0.10416666666666667
            },
            {
              "pitch": 44,
              "velocity": 80,
              "position": 4.78125,
              "duration": 0.09375
            },
            {
              "pitch": 65,
              "velocity": 62,
              "position": 4.770833333333333,
              "duration": 0.11458333333333333
            },
            {
              "pitch": 60,
              "velocity": 80,
              "position": 4.770833333333333,
              "duration": 0.13541666666666666
            },
            {
              "pitch": 60,
              "velocity": 98,
              "position": 5.260416666666667,
              "duration": 0.125
            },
            {
              "pitch": 65,
              "velocity": 104,
              "position": 5.270833333333333,
              "duration": 0.125
            },
            {
              "pitch": 70,
              "velocity": 104,
              "position": 5.270833333333333,
              "duration": 0.125
            },
            {
              "pitch": 54,
              "velocity": 104,
              "position": 5.270833333333333,
              "duration": 0.13541666666666666
            },
            {
              "pitch": 44,
              "velocity": 108,
              "position": 5.270833333333333,
              "duration": 0.16666666666666666
            },
            {
              "pitch": 59,
              "velocity": 80,
              "position": 5.760416666666667,
              "duration": 1.8854166666666667
            },
            {
              "pitch": 63,
              "velocity": 94,
              "position": 5.760416666666667,
              "duration": 1.90625
            },
            {
              "pitch": 68,
              "velocity": 94,
              "position": 5.770833333333333,
              "duration": 1.90625
            },
            {
              "pitch": 53,
              "velocity": 94,
              "position": 5.760416666666667,
              "duration": 1.9270833333333333
            },
            {
              "pitch": 43,
              "velocity": 94,
              "position": 5.760416666666667,
              "duration": 1.9479166666666667
            },
            {
              "pitch": 68,
              "velocity": 76,
              "position": 7.760416666666667,
              "duration": 2.0520833333333335
            },
            {
              "pitch": 60,
              "velocity": 110,
              "position": 7.760416666666667,
              "duration": 2.0520833333333335
            },
            {
              "pitch": 62,
              "velocity": 88,
              "position": 7.760416666666667,
              "duration": 2.0833333333333335
            },
            {
              "pitch": 65,
              "velocity": 88,
              "position": 7.760416666666667,
              "duration": 2.09375
            },
            {
              "pitch": 50,
              "velocity": 88,
              "position": 7.760416666666667,
              "duration": 2.1354166666666665
            },
            {
              "pitch": 53,
              "velocity": 80,
              "position": 7.760416666666667,
              "duration": 2.1354166666666665
            },
            {
              "pitch": 63,
              "velocity": 104,
              "position": 9.989583333333334,
              "duration": 0.9791666666666666
            },
            {
              "pitch": 67,
              "velocity": 92,
              "position": 9.989583333333334,
              "duration": 1.0104166666666667
            },
            {
              "pitch": 59,
              "velocity": 94,
              "position": 9.989583333333334,
              "duration": 1.0208333333333333
            },
            {
              "pitch": 43,
              "velocity": 80,
              "position": 10,
              "duration": 1.03125
            },
            {
              "pitch": 53,
              "velocity": 80,
              "position": 9.989583333333334,
              "duration": 1.0625
            },
            {
              "pitch": 63,
              "velocity": 94,
              "position": 11.260416666666666,
              "duration": 0.08333333333333333
            },
            {
              "pitch": 59,
              "velocity": 94,
              "position": 11.260416666666666,
              "duration": 0.125
            },
            {
              "pitch": 67,
              "velocity": 94,
              "position": 11.260416666666666,
              "duration": 0.125
            },
            {
              "pitch": 43,
              "velocity": 90,
              "position": 11.260416666666666,
              "duration": 0.15625
            },
            {
              "pitch": 53,
              "velocity": 90,
              "position": 11.260416666666666,
              "duration": 0.15625
            },
            {
              "pitch": 62,
              "velocity": 112,
              "position": 11.760416666666666,
              "duration": 0.8333333333333334
            },
            {
              "pitch": 63,
              "velocity": 88,
              "position": 11.760416666666666,
              "duration": 0.8541666666666666
            },
            {
              "pitch": 72,
              "velocity": 88,
              "position": 11.760416666666666,
              "duration": 0.8541666666666666
            },
            {
              "pitch": 48,
              "velocity": 78,
              "position": 11.760416666666666,
              "duration": 0.875
            },
            {
              "pitch": 57,
              "velocity": 76,
              "position": 11.760416666666666,
              "duration": 0.875
            },
            {
              "pitch": 67,
              "velocity": 112,
              "position": 11.760416666666666,
              "duration": 0.8854166666666666
            },
            {
              "pitch": 72,
              "velocity": 80,
              "position": 12.770833333333334,
              "duration": 0.10416666666666667
            },
            {
              "pitch": 62,
              "velocity": 90,
              "position": 12.770833333333334,
              "duration": 0.11458333333333333
            },
            {
              "pitch": 43,
              "velocity": 94,
              "position": 12.770833333333334,
              "duration": 0.15625
            },
            {
              "pitch": 48,
              "velocity": 94,
              "position": 12.770833333333334,
              "duration": 0.15625
            },
            {
              "pitch": 63,
              "velocity": 90,
              "position": 12.770833333333334,
              "duration": 0.15625
            },
            {
              "pitch": 57,
              "velocity": 72,
              "position": 12.770833333333334,
              "duration": 0.16666666666666666
            },
            {
              "pitch": 67,
              "velocity": 72,
              "position": 12.770833333333334,
              "duration": 0.16666666666666666
            },
            {
              "pitch": 62,
              "velocity": 88,
              "position": 13.270833333333334,
              "duration": 0.10416666666666667
            },
            {
              "pitch": 72,
              "velocity": 84,
              "position": 13.270833333333334,
              "duration": 0.125
            },
            {
              "pitch": 43,
              "velocity": 88,
              "position": 13.270833333333334,
              "duration": 0.13541666666666666
            },
            {
              "pitch": 48,
              "velocity": 88,
              "position": 13.270833333333334,
              "duration": 0.13541666666666666
            },
            {
              "pitch": 63,
              "velocity": 80,
              "position": 13.260416666666666,
              "duration": 0.15625
            },
            {
              "pitch": 57,
              "velocity": 92,
              "position": 13.270833333333334,
              "duration": 0.15625
            },
            {
              "pitch": 67,
              "velocity": 80,
              "position": 13.260416666666666,
              "duration": 0.19791666666666666
            },
            {
              "pitch": 62,
              "velocity": 110,
              "position": 13.760416666666666,
              "duration": 0.125
            },
            {
              "pitch": 63,
              "velocity": 90,
              "position": 13.760416666666666,
              "duration": 0.15625
            },
            {
              "pitch": 72,
              "velocity": 110,
              "position": 13.760416666666666,
              "duration": 0.16666666666666666
            },
            {
              "pitch": 43,
              "velocity": 110,
              "position": 13.760416666666666,
              "duration": 0.19791666666666666
            },
            {
              "pitch": 48,
              "velocity": 110,
              "position": 13.760416666666666,
              "duration": 0.19791666666666666
            },
            {
              "pitch": 67,
              "velocity": 110,
              "position": 13.760416666666666,
              "duration": 0.19791666666666666
            },
            {
              "pitch": 57,
              "velocity": 88,
              "position": 13.770833333333334,
              "duration": 0.1875
            },
            {
              "pitch": 62,
              "velocity": 126,
              "position": 14.770833333333334,
              "duration": 0.17708333333333334
            },
            {
              "pitch": 67,
              "velocity": 94,
              "position": 14.770833333333334,
              "duration": 0.20833333333333334
            },
            {
              "pitch": 48,
              "velocity": 94,
              "position": 14.770833333333334,
              "duration": 0.20833333333333334
            },
            {
              "pitch": 72,
              "velocity": 126,
              "position": 14.770833333333334,
              "duration": 0.21875
            },
            {
              "pitch": 63,
              "velocity": 94,
              "position": 14.770833333333334,
              "duration": 0.22916666666666666
            },
            {
              "pitch": 57,
              "velocity": 94,
              "position": 14.770833333333334,
              "duration": 0.22916666666666666
            }
          ]
        }
      }
    },
    "Ending_C": {
      "type": "Ending_C",
      "sizeInBeats": 16,
      "channels": {
        "1": {
          "ctab": {
            "srcChannel": 1,
            "name": "BrasSect",
            "accType": "PHRASE1",
            "editable": false,
            "mutedNotes": [],
            "mutedChords": [
              "dim7",
              "dim",
              "minMaj7(9)",
              "minMaj7",
              "min7(11)",
              "min7(9)",
              "min(9)",
              "m7b5",
              "min7",
              "min6",
              "min"
            ],
            "autoStart": false,
            "sourceChordNote": 0,
            "sourceChordType": "Maj",
            "ctb2Low": null,
            "ctb2Main": {
              "ntr": "ROOT_TRANSPOSITION",
              "ntt": "BYPASS",
              "bassOn": false,
              "chordRootUpperLimit": 6,
              "noteLowLimit": 0,
              "noteHighLimit": 127,
              "rtr": "PITCH_SHIFT"
            },
            "ctb2High": null
          },
          "notes": [
            {
              "pitch": 78,
              "velocity": 118,
              "position": 0,
              "duration": 0.23958333333333334
            },
            {
              "pitch": 74,
              "velocity": 110,
              "position": 0,
              "duration": 0.23958333333333334
            },
            {
              "pitch": 79,
              "velocity": 126,
              "position": 0,
              "duration": 0.25
            },
            {
              "pitch": 76,
              "velocity": 124,
              "position": 0,
              "duration": 0.28125
            },
            {
              "pitch": 71,
              "velocity": 110,
              "position": 0,
              "duration": 0.2916666666666667
            },
            {
              "pitch": 77,
              "velocity": 90,
              "position": 0.22916666666666666,
              "duration": 0.10416666666666667
            },
            {
              "pitch": 74,
              "velocity": 90,
              "position": 0.25,
              "duration": 0.09375
            },
            {
              "pitch": 76,
              "velocity": 92,
              "position": 0.2916666666666667,
              "duration": 0.08333333333333333
            },
            {
              "pitch": 69,
              "velocity": 64,
              "position": 0.2916666666666667,
              "duration": 0.09375
            },
            {
              "pitch": 72,
              "velocity": 80,
              "position": 0.34375,
              "duration": 0.0625
            },
            {
              "pitch": 74,
              "velocity": 90,
              "position": 0.3541666666666667,
              "duration": 0.0625
            },
            {
              "pitch": 67,
              "velocity": 92,
              "position": 0.3958333333333333,
              "duration": 0.07291666666666667
            },
            {
              "pitch": 72,
              "velocity": 88,
              "position": 0.4270833333333333,
              "duration": 0.0625
            },
            {
              "pitch": 73,
              "velocity": 72,
              "position": 0.3645833333333333,
              "duration": 0.13541666666666666
            },
            {
              "pitch": 71,
              "velocity": 88,
              "position": 0.4270833333333333,
              "duration": 0.07291666666666667
            },
            {
              "pitch": 65,
              "velocity": 80,
              "position": 0.46875,
              "duration": 0.07291666666666667
            },
            {
              "pitch": 72,
              "velocity": 68,
              "position": 0.5104166666666666,
              "duration": 0.0625
            },
            {
              "pitch": 64,
              "velocity": 52,
              "position": 0.5416666666666666,
              "duration": 0.041666666666666664
            },
            {
              "pitch": 71,
              "velocity": 122,
              "position": 0.7604166666666666,
              "duration": 0.19791666666666666
            },
            {
              "pitch": 79,
              "velocity": 122,
              "position": 0.7604166666666666,
              "duration": 0.20833333333333334
            },
            {
              "pitch": 74,
              "velocity": 118,
              "position": 0.7604166666666666,
              "duration": 0.20833333333333334
            },
            {
              "pitch": 76,
              "velocity": 118,
              "position": 0.7604166666666666,
              "duration": 0.20833333333333334
            },
            {
              "pitch": 71,
              "velocity": 78,
              "position": 1.0104166666666667,
              "duration": 0.20833333333333334
            },
            {
              "pitch": 79,
              "velocity": 94,
              "position": 1.0208333333333333,
              "duration": 0.20833333333333334
            },
            {
              "pitch": 74,
              "velocity": 84,
              "position": 1.0104166666666667,
              "duration": 0.22916666666666666
            },
            {
              "pitch": 76,
              "velocity": 80,
              "position": 1.0104166666666667,
              "duration": 0.22916666666666666
            },
            {
              "pitch": 71,
              "velocity": 94,
              "position": 1.28125,
              "duration": 0.15625
            },
            {
              "pitch": 74,
              "velocity": 124,
              "position": 1.28125,
              "duration": 0.17708333333333334
            },
            {
              "pitch": 76,
              "velocity": 104,
              "position": 1.28125,
              "duration": 0.1875
            },
            {
              "pitch": 79,
              "velocity": 94,
              "position": 1.28125,
              "duration": 0.19791666666666666
            },
            {
              "pitch": 73,
              "velocity": 110,
              "position": 1.7604166666666667,
              "duration": 0.16666666666666666
            },
            {
              "pitch": 84,
              "velocity": 110,
              "position": 1.78125,
              "duration": 0.15625
            },
            {
              "pitch": 77,
              "velocity": 110,
              "position": 1.7708333333333333,
              "duration": 0.17708333333333334
            },
            {
              "pitch": 79,
              "velocity": 104,
              "position": 1.7708333333333333,
              "duration": 0.17708333333333334
            },
            {
              "pitch": 73,
              "velocity": 126,
              "position": 2.2708333333333335,
              "duration": 0.17708333333333334
            },
            {
              "pitch": 84,
              "velocity": 118,
              "position": 2.2708333333333335,
              "duration": 0.1875
            },
            {
              "pitch": 79,
              "velocity": 126,
              "position": 2.2708333333333335,
              "duration": 0.20833333333333334
            },
            {
              "pitch": 77,
              "velocity": 118,
              "position": 2.2708333333333335,
              "duration": 0.22916666666666666
            },
            {
              "pitch": 74,
              "velocity": 126,
              "position": 10.760416666666666,
              "duration": 0.2708333333333333
            },
            {
              "pitch": 76,
              "velocity": 126,
              "position": 10.760416666666666,
              "duration": 0.2708333333333333
            },
            {
              "pitch": 79,
              "velocity": 120,
              "position": 10.760416666666666,
              "duration": 0.28125
            },
            {
              "pitch": 84,
              "velocity": 126,
              "position": 10.760416666666666,
              "duration": 0.28125
            }
          ]
        },
        "2": {
          "ctab": {
            "srcChannel": 2,
            "name": "BrasSect",
            "accType": "PHRASE1",
            "editable": false,
            "mutedNotes": [],
            "mutedChords": [
              "1+2+5",
              "sus4",
              "1+5",
              "1+8",
              "7aug",
              "Maj7aug",
              "7(#9)",
              "7(b13)",
              "7(b9)",
              "7(13)",
              "7#11",
              "7(9)",
              "7b5",
              "7sus4",
              "7th",
              "aug",
              "Maj6(9)",
              "Maj7(9)",
              "Maj(9)",
              "Maj7#11",
              "Maj7",
              "Maj6",
              "Maj"
            ],
            "autoStart": false,
            "sourceChordNote": 0,
            "sourceChordType": "min",
            "ctb2Low": null,
            "ctb2Main": {
              "ntr": "ROOT_TRANSPOSITION",
              "ntt": "BYPASS",
              "bassOn": false,
              "chordRootUpperLimit": 6,
              "noteLowLimit": 0,
              "noteHighLimit": 127,
              "rtr": "PITCH_SHIFT"
            },
            "ctb2High": null
          },
          "notes": [
            {
              "pitch": 67,
              "velocity": 110,
              "position": 0.7604166666666666,
              "duration": 0.19791666666666666
            },
            {
              "pitch": 79,
              "velocity": 110,
              "position": 0.7395833333333334,
              "duration": 0.22916666666666666
            },
            {
              "pitch": 84,
              "velocity": 110,
              "position": 1,
              "duration": 0.1875
            },
            {
              "pitch": 72,
              "velocity": 110,
              "position": 1.0104166666666667,
              "duration": 0.20833333333333334
            },
            {
              "pitch": 82,
              "velocity": 110,
              "position": 1.2708333333333333,
              "duration": 0.17708333333333334
            },
            {
              "pitch": 70,
              "velocity": 90,
              "position": 1.28125,
              "duration": 0.16666666666666666
            },
            {
              "pitch": 67,
              "velocity": 110,
              "position": 1.75,
              "duration": 0.17708333333333334
            },
            {
              "pitch": 79,
              "velocity": 90,
              "position": 1.75,
              "duration": 0.19791666666666666
            },
            {
              "pitch": 77,
              "velocity": 124,
              "position": 2.2395833333333335,
              "duration": 0.1875
            },
            {
              "pitch": 65,
              "velocity": 90,
              "position": 2.2395833333333335,
              "duration": 0.1875
            },
            {
              "pitch": 75,
              "velocity": 110,
              "position": 2.75,
              "duration": 0.15625
            },
            {
              "pitch": 63,
              "velocity": 110,
              "position": 2.75,
              "duration": 0.17708333333333334
            },
            {
              "pitch": 60,
              "velocity": 92,
              "position": 3.25,
              "duration": 0.15625
            },
            {
              "pitch": 72,
              "velocity": 110,
              "position": 3.2604166666666665,
              "duration": 0.16666666666666666
            },
            {
              "pitch": 70,
              "velocity": 80,
              "position": 3.75,
              "duration": 0.14583333333333334
            },
            {
              "pitch": 58,
              "velocity": 90,
              "position": 3.7395833333333335,
              "duration": 0.16666666666666666
            },
            {
              "pitch": 77,
              "velocity": 80,
              "position": 4,
              "duration": 0.4479166666666667
            },
            {
              "pitch": 65,
              "velocity": 110,
              "position": 4,
              "duration": 0.4583333333333333
            },
            {
              "pitch": 63,
              "velocity": 88,
              "position": 4.489583333333333,
              "duration": 0.14583333333333334
            },
            {
              "pitch": 75,
              "velocity": 110,
              "position": 4.489583333333333,
              "duration": 0.1875
            },
            {
              "pitch": 65,
              "velocity": 110,
              "position": 4.739583333333333,
              "duration": 0.17708333333333334
            },
            {
              "pitch": 77,
              "velocity": 110,
              "position": 4.75,
              "duration": 0.16666666666666666
            },
            {
              "pitch": 67,
              "velocity": 90,
              "position": 5.25,
              "duration": 0.13541666666666666
            },
            {
              "pitch": 79,
              "velocity": 110,
              "position": 5.260416666666667,
              "duration": 0.14583333333333334
            },
            {
              "pitch": 80,
              "velocity": 110,
              "position": 5.770833333333333,
              "duration": 1.3020833333333333
            },
            {
              "pitch": 68,
              "velocity": 92,
              "position": 5.760416666666667,
              "duration": 1.6666666666666667
            },
            {
              "pitch": 75,
              "velocity": 124,
              "position": 8.739583333333334,
              "duration": 0.14583333333333334
            },
            {
              "pitch": 63,
              "velocity": 126,
              "position": 8.75,
              "duration": 0.14583333333333334
            },
            {
              "pitch": 65,
              "velocity": 110,
              "position": 9.25,
              "duration": 0.14583333333333334
            },
            {
              "pitch": 77,
              "velocity": 100,
              "position": 9.25,
              "duration": 0.15625
            },
            {
              "pitch": 79,
              "velocity": 124,
              "position": 9.739583333333334,
              "duration": 0.23958333333333334
            },
            {
              "pitch": 67,
              "velocity": 122,
              "position": 9.739583333333334,
              "duration": 0.23958333333333334
            },
            {
              "pitch": 80,
              "velocity": 110,
              "position": 9.989583333333334,
              "duration": 0.19791666666666666
            },
            {
              "pitch": 68,
              "velocity": 106,
              "position": 9.989583333333334,
              "duration": 0.20833333333333334
            },
            {
              "pitch": 82,
              "velocity": 90,
              "position": 10.239583333333334,
              "duration": 0.20833333333333334
            },
            {
              "pitch": 70,
              "velocity": 92,
              "position": 10.25,
              "duration": 0.22916666666666666
            },
            {
              "pitch": 80,
              "velocity": 96,
              "position": 10.479166666666666,
              "duration": 0.17708333333333334
            },
            {
              "pitch": 68,
              "velocity": 90,
              "position": 10.489583333333334,
              "duration": 0.17708333333333334
            },
            {
              "pitch": 79,
              "velocity": 110,
              "position": 10.739583333333334,
              "duration": 0.15625
            },
            {
              "pitch": 67,
              "velocity": 106,
              "position": 10.739583333333334,
              "duration": 0.1875
            },
            {
              "pitch": 59,
              "velocity": 110,
              "position": 11.260416666666666,
              "duration": 0.16666666666666666
            },
            {
              "pitch": 71,
              "velocity": 92,
              "position": 11.270833333333334,
              "duration": 0.16666666666666666
            },
            {
              "pitch": 72,
              "velocity": 90,
              "position": 11.760416666666666,
              "duration": 2.4583333333333335
            },
            {
              "pitch": 60,
              "velocity": 108,
              "position": 11.760416666666666,
              "duration": 2.46875
            },
            {
              "pitch": 74,
              "velocity": 126,
              "position": 14.75,
              "duration": 0.3020833333333333
            },
            {
              "pitch": 75,
              "velocity": 112,
              "position": 14.75,
              "duration": 0.3125
            },
            {
              "pitch": 79,
              "velocity": 126,
              "position": 14.75,
              "duration": 0.3229166666666667
            },
            {
              "pitch": 69,
              "velocity": 124,
              "position": 14.75,
              "duration": 0.34375
            }
          ]
        },
        "4": {
          "ctab": {
            "srcChannel": 4,
            "name": "Alto Sax",
            "accType": "PHRASE2",
            "editable": false,
            "mutedNotes": [],
            "mutedChords": [
              "dim7",
              "dim",
              "minMaj7(9)",
              "minMaj7",
              "min7(11)",
              "min7(9)",
              "min(9)",
              "m7b5",
              "min7",
              "min6",
              "min"
            ],
            "autoStart": false,
            "sourceChordNote": 0,
            "sourceChordType": "Maj",
            "ctb2Low": null,
            "ctb2Main": {
              "ntr": "ROOT_TRANSPOSITION",
              "ntt": "BYPASS",
              "bassOn": false,
              "chordRootUpperLimit": 6,
              "noteLowLimit": 0,
              "noteHighLimit": 127,
              "rtr": "PITCH_SHIFT"
            },
            "ctb2High": null
          },
          "notes": [
            {
              "pitch": 67,
              "velocity": 124,
              "position": 0,
              "duration": 0.3854166666666667
            },
            {
              "pitch": 60,
              "velocity": 104,
              "position": 0,
              "duration": 0.4479166666666667
            },
            {
              "pitch": 64,
              "velocity": 110,
              "position": 0,
              "duration": 0.4479166666666667
            },
            {
              "pitch": 59,
              "velocity": 124,
              "position": 0,
              "duration": 0.4583333333333333
            },
            {
              "pitch": 59,
              "velocity": 114,
              "position": 0.7708333333333334,
              "duration": 0.16666666666666666
            },
            {
              "pitch": 60,
              "velocity": 118,
              "position": 0.7604166666666666,
              "duration": 0.1875
            },
            {
              "pitch": 64,
              "velocity": 124,
              "position": 0.7708333333333334,
              "duration": 0.17708333333333334
            },
            {
              "pitch": 67,
              "velocity": 114,
              "position": 0.7708333333333334,
              "duration": 0.1875
            },
            {
              "pitch": 60,
              "velocity": 80,
              "position": 1.0104166666666667,
              "duration": 0.19791666666666666
            },
            {
              "pitch": 67,
              "velocity": 64,
              "position": 1.0104166666666667,
              "duration": 0.20833333333333334
            },
            {
              "pitch": 59,
              "velocity": 80,
              "position": 1.0104166666666667,
              "duration": 0.20833333333333334
            },
            {
              "pitch": 64,
              "velocity": 80,
              "position": 1.0104166666666667,
              "duration": 0.20833333333333334
            },
            {
              "pitch": 67,
              "velocity": 94,
              "position": 1.28125,
              "duration": 0.125
            },
            {
              "pitch": 64,
              "velocity": 92,
              "position": 1.28125,
              "duration": 0.125
            },
            {
              "pitch": 60,
              "velocity": 94,
              "position": 1.28125,
              "duration": 0.13541666666666666
            },
            {
              "pitch": 59,
              "velocity": 94,
              "position": 1.28125,
              "duration": 0.14583333333333334
            },
            {
              "pitch": 61,
              "velocity": 120,
              "position": 1.7604166666666667,
              "duration": 0.17708333333333334
            },
            {
              "pitch": 65,
              "velocity": 92,
              "position": 1.7604166666666667,
              "duration": 0.17708333333333334
            },
            {
              "pitch": 58,
              "velocity": 116,
              "position": 1.7604166666666667,
              "duration": 0.1875
            },
            {
              "pitch": 55,
              "velocity": 114,
              "position": 1.7604166666666667,
              "duration": 0.19791666666666666
            },
            {
              "pitch": 61,
              "velocity": 126,
              "position": 2.25,
              "duration": 0.21875
            },
            {
              "pitch": 58,
              "velocity": 120,
              "position": 2.25,
              "duration": 0.22916666666666666
            },
            {
              "pitch": 65,
              "velocity": 126,
              "position": 2.25,
              "duration": 0.22916666666666666
            },
            {
              "pitch": 55,
              "velocity": 120,
              "position": 2.25,
              "duration": 0.25
            },
            {
              "pitch": 57,
              "velocity": 110,
              "position": 4.5,
              "duration": 0.1875
            },
            {
              "pitch": 69,
              "velocity": 110,
              "position": 4.489583333333333,
              "duration": 0.22916666666666666
            },
            {
              "pitch": 65,
              "velocity": 92,
              "position": 5,
              "duration": 0.6666666666666666
            },
            {
              "pitch": 53,
              "velocity": 92,
              "position": 5.010416666666667,
              "duration": 0.6770833333333334
            },
            {
              "pitch": 48,
              "velocity": 80,
              "position": 5.760416666666667,
              "duration": 0.1875
            },
            {
              "pitch": 60,
              "velocity": 90,
              "position": 5.75,
              "duration": 0.20833333333333334
            },
            {
              "pitch": 59,
              "velocity": 80,
              "position": 6,
              "duration": 0.21875
            },
            {
              "pitch": 47,
              "velocity": 92,
              "position": 6,
              "duration": 0.21875
            },
            {
              "pitch": 62,
              "velocity": 110,
              "position": 6.489583333333333,
              "duration": 0.19791666666666666
            },
            {
              "pitch": 50,
              "velocity": 92,
              "position": 6.5,
              "duration": 0.1875
            },
            {
              "pitch": 57,
              "velocity": 110,
              "position": 6.989583333333333,
              "duration": 0.7291666666666666
            },
            {
              "pitch": 69,
              "velocity": 110,
              "position": 6.989583333333333,
              "duration": 0.7395833333333334
            },
            {
              "pitch": 55,
              "velocity": 110,
              "position": 7.760416666666667,
              "duration": 2.9479166666666665
            },
            {
              "pitch": 67,
              "velocity": 110,
              "position": 7.770833333333333,
              "duration": 2.9375
            },
            {
              "pitch": 64,
              "velocity": 126,
              "position": 10.75,
              "duration": 0.22916666666666666
            },
            {
              "pitch": 62,
              "velocity": 110,
              "position": 10.75,
              "duration": 0.23958333333333334
            },
            {
              "pitch": 71,
              "velocity": 110,
              "position": 10.75,
              "duration": 0.23958333333333334
            },
            {
              "pitch": 67,
              "velocity": 110,
              "position": 10.75,
              "duration": 0.2604166666666667
            }
          ]
        },
        "5": {
          "ctab": {
            "srcChannel": 5,
            "name": "Alto Sax",
            "accType": "PHRASE2",
            "editable": false,
            "mutedNotes": [],
            "mutedChords": [
              "1+2+5",
              "sus4",
              "1+5",
              "1+8",
              "7aug",
              "Maj7aug",
              "7(#9)",
              "7(b13)",
              "7(b9)",
              "7(13)",
              "7#11",
              "7(9)",
              "7b5",
              "7sus4",
              "7th",
              "aug",
              "Maj6(9)",
              "Maj7(9)",
              "Maj(9)",
              "Maj7#11",
              "Maj7",
              "Maj6",
              "Maj"
            ],
            "autoStart": false,
            "sourceChordNote": 0,
            "sourceChordType": "min",
            "ctb2Low": null,
            "ctb2Main": {
              "ntr": "ROOT_TRANSPOSITION",
              "ntt": "BYPASS",
              "bassOn": false,
              "chordRootUpperLimit": 6,
              "noteLowLimit": 0,
              "noteHighLimit": 127,
              "rtr": "PITCH_SHIFT"
            },
            "ctb2High": null
          },
          "notes": [
            {
              "pitch": 67,
              "velocity": 120,
              "position": 0,
              "duration": 0.4791666666666667
            },
            {
              "pitch": 62,
              "velocity": 120,
              "position": 0,
              "duration": 0.4895833333333333
            },
            {
              "pitch": 63,
              "velocity": 104,
              "position": 0,
              "duration": 0.5208333333333334
            },
            {
              "pitch": 57,
              "velocity": 92,
              "position": 0,
              "duration": 0.5833333333333334
            },
            {
              "pitch": 54,
              "velocity": 94,
              "position": 4,
              "duration": 0.53125
            },
            {
              "pitch": 58,
              "velocity": 94,
              "position": 4,
              "duration": 0.5625
            },
            {
              "pitch": 65,
              "velocity": 92,
              "position": 4,
              "duration": 0.5625
            },
            {
              "pitch": 60,
              "velocity": 120,
              "position": 4,
              "duration": 0.6041666666666666
            },
            {
              "pitch": 58,
              "velocity": 80,
              "position": 4.760416666666667,
              "duration": 0.14583333333333334
            },
            {
              "pitch": 65,
              "velocity": 72,
              "position": 4.770833333333333,
              "duration": 0.14583333333333334
            },
            {
              "pitch": 60,
              "velocity": 88,
              "position": 4.770833333333333,
              "duration": 0.15625
            },
            {
              "pitch": 54,
              "velocity": 90,
              "position": 4.760416666666667,
              "duration": 0.21875
            },
            {
              "pitch": 58,
              "velocity": 80,
              "position": 5.25,
              "duration": 0.11458333333333333
            },
            {
              "pitch": 60,
              "velocity": 94,
              "position": 5.25,
              "duration": 0.17708333333333334
            },
            {
              "pitch": 65,
              "velocity": 122,
              "position": 5.25,
              "duration": 0.19791666666666666
            },
            {
              "pitch": 54,
              "velocity": 122,
              "position": 5.25,
              "duration": 0.19791666666666666
            },
            {
              "pitch": 63,
              "velocity": 94,
              "position": 5.75,
              "duration": 1.8645833333333333
            },
            {
              "pitch": 53,
              "velocity": 90,
              "position": 5.75,
              "duration": 1.8645833333333333
            },
            {
              "pitch": 59,
              "velocity": 94,
              "position": 5.75,
              "duration": 1.875
            },
            {
              "pitch": 58,
              "velocity": 78,
              "position": 5.75,
              "duration": 1.875
            },
            {
              "pitch": 56,
              "velocity": 126,
              "position": 7.75,
              "duration": 0.22916666666666666
            },
            {
              "pitch": 65,
              "velocity": 124,
              "position": 7.75,
              "duration": 0.22916666666666666
            },
            {
              "pitch": 62,
              "velocity": 126,
              "position": 7.760416666666667,
              "duration": 0.22916666666666666
            },
            {
              "pitch": 60,
              "velocity": 118,
              "position": 7.760416666666667,
              "duration": 0.23958333333333334
            },
            {
              "pitch": 53,
              "velocity": 94,
              "position": 10,
              "duration": 0.5520833333333334
            },
            {
              "pitch": 63,
              "velocity": 124,
              "position": 10.010416666666666,
              "duration": 0.5416666666666666
            },
            {
              "pitch": 58,
              "velocity": 94,
              "position": 10,
              "duration": 0.5625
            },
            {
              "pitch": 59,
              "velocity": 94,
              "position": 10,
              "duration": 0.5729166666666666
            },
            {
              "pitch": 53,
              "velocity": 80,
              "position": 10.770833333333334,
              "duration": 0.08333333333333333
            },
            {
              "pitch": 63,
              "velocity": 80,
              "position": 10.770833333333334,
              "duration": 0.10416666666666667
            },
            {
              "pitch": 59,
              "velocity": 94,
              "position": 10.760416666666666,
              "duration": 0.13541666666666666
            },
            {
              "pitch": 58,
              "velocity": 88,
              "position": 10.760416666666666,
              "duration": 0.14583333333333334
            },
            {
              "pitch": 59,
              "velocity": 92,
              "position": 11.25,
              "duration": 0.10416666666666667
            },
            {
              "pitch": 63,
              "velocity": 90,
              "position": 11.25,
              "duration": 0.11458333333333333
            },
            {
              "pitch": 53,
              "velocity": 92,
              "position": 11.25,
              "duration": 0.14583333333333334
            },
            {
              "pitch": 58,
              "velocity": 80,
              "position": 11.25,
              "duration": 0.15625
            },
            {
              "pitch": 51,
              "velocity": 94,
              "position": 11.739583333333334,
              "duration": 2.40625
            },
            {
              "pitch": 55,
              "velocity": 92,
              "position": 11.75,
              "duration": 2.3958333333333335
            },
            {
              "pitch": 62,
              "velocity": 92,
              "position": 11.75,
              "duration": 2.3958333333333335
            },
            {
              "pitch": 57,
              "velocity": 76,
              "position": 11.75,
              "duration": 2.3958333333333335
            },
            {
              "pitch": 63,
              "velocity": 120,
              "position": 14.770833333333334,
              "duration": 0.23958333333333334
            },
            {
              "pitch": 60,
              "velocity": 126,
              "position": 14.770833333333334,
              "duration": 0.25
            },
            {
              "pitch": 67,
              "velocity": 104,
              "position": 14.78125,
              "duration": 0.23958333333333334
            },
            {
              "pitch": 69,
              "velocity": 126,
              "position": 14.770833333333334,
              "duration": 0.2708333333333333
            }
          ]
        },
        "8": {
          "ctab": {
            "srcChannel": 8,
            "name": "Std.Kit1",
            "accType": "RHYTHM",
            "editable": false,
            "mutedNotes": [],
            "mutedChords": [
              "dim7",
              "dim",
              "minMaj7(9)",
              "minMaj7",
              "min7(11)",
              "min7(9)",
              "min(9)",
              "m7b5",
              "min7",
              "min6",
              "min"
            ],
            "autoStart": true,
            "sourceChordNote": 0,
            "sourceChordType": "Maj7",
            "ctb2Low": null,
            "ctb2Main": {
              "ntr": "ROOT_FIXED",
              "ntt": "BYPASS",
              "bassOn": false,
              "chordRootUpperLimit": 6,
              "noteLowLimit": 0,
              "noteHighLimit": 127,
              "rtr": "PITCH_SHIFT"
            },
            "ctb2High": null
          },
          "notes": [
            {
              "pitch": 42,
              "velocity": 92,
              "position": 0,
              "duration": 0.015625
            },
            {
              "pitch": 42,
              "velocity": 80,
              "position": 0.5,
              "duration": 0.015625
            },
            {
              "pitch": 42,
              "velocity": 72,
              "position": 0.75,
              "duration": 0.015625
            },
            {
              "pitch": 36,
              "velocity": 110,
              "position": 0.7604166666666666,
              "duration": 0.015625
            },
            {
              "pitch": 42,
              "velocity": 90,
              "position": 1,
              "duration": 0.015625
            },
            {
              "pitch": 42,
              "velocity": 80,
              "position": 1.4895833333333333,
              "duration": 0.015625
            },
            {
              "pitch": 42,
              "velocity": 92,
              "position": 1.75,
              "duration": 0.015625
            },
            {
              "pitch": 42,
              "velocity": 80,
              "position": 2,
              "duration": 0.015625
            },
            {
              "pitch": 42,
              "velocity": 94,
              "position": 2.4895833333333335,
              "duration": 0.015625
            },
            {
              "pitch": 42,
              "velocity": 80,
              "position": 2.75,
              "duration": 0.015625
            },
            {
              "pitch": 36,
              "velocity": 110,
              "position": 2.7604166666666665,
              "duration": 0.015625
            },
            {
              "pitch": 42,
              "velocity": 80,
              "position": 3,
              "duration": 0.015625
            },
            {
              "pitch": 42,
              "velocity": 92,
              "position": 3.5,
              "duration": 0.015625
            },
            {
              "pitch": 42,
              "velocity": 80,
              "position": 3.75,
              "duration": 0.015625
            },
            {
              "pitch": 42,
              "velocity": 92,
              "position": 4,
              "duration": 0.015625
            },
            {
              "pitch": 42,
              "velocity": 80,
              "position": 4.489583333333333,
              "duration": 0.015625
            },
            {
              "pitch": 42,
              "velocity": 72,
              "position": 4.75,
              "duration": 0.015625
            },
            {
              "pitch": 36,
              "velocity": 108,
              "position": 4.760416666666667,
              "duration": 0.015625
            },
            {
              "pitch": 42,
              "velocity": 92,
              "position": 5,
              "duration": 0.015625
            },
            {
              "pitch": 42,
              "velocity": 80,
              "position": 5.489583333333333,
              "duration": 0.015625
            },
            {
              "pitch": 42,
              "velocity": 80,
              "position": 5.75,
              "duration": 0.015625
            },
            {
              "pitch": 42,
              "velocity": 86,
              "position": 6,
              "duration": 0.015625
            },
            {
              "pitch": 42,
              "velocity": 72,
              "position": 6.489583333333333,
              "duration": 0.015625
            },
            {
              "pitch": 42,
              "velocity": 80,
              "position": 6.760416666666667,
              "duration": 0.015625
            },
            {
              "pitch": 36,
              "velocity": 112,
              "position": 6.760416666666667,
              "duration": 0.015625
            },
            {
              "pitch": 42,
              "velocity": 90,
              "position": 7,
              "duration": 0.015625
            },
            {
              "pitch": 42,
              "velocity": 80,
              "position": 7.489583333333333,
              "duration": 0.015625
            },
            {
              "pitch": 42,
              "velocity": 80,
              "position": 7.75,
              "duration": 0.015625
            },
            {
              "pitch": 42,
              "velocity": 92,
              "position": 8,
              "duration": 0.015625
            },
            {
              "pitch": 42,
              "velocity": 80,
              "position": 8.489583333333334,
              "duration": 0.015625
            },
            {
              "pitch": 42,
              "velocity": 72,
              "position": 8.75,
              "duration": 0.015625
            },
            {
              "pitch": 36,
              "velocity": 108,
              "position": 8.760416666666666,
              "duration": 0.015625
            },
            {
              "pitch": 42,
              "velocity": 92,
              "position": 9,
              "duration": 0.015625
            },
            {
              "pitch": 42,
              "velocity": 80,
              "position": 9.489583333333334,
              "duration": 0.015625
            },
            {
              "pitch": 42,
              "velocity": 80,
              "position": 9.75,
              "duration": 0.015625
            },
            {
              "pitch": 42,
              "velocity": 70,
              "position": 10,
              "duration": 0.015625
            },
            {
              "pitch": 48,
              "velocity": 110,
              "position": 10.260416666666666,
              "duration": 0.015625
            },
            {
              "pitch": 42,
              "velocity": 72,
              "position": 10.489583333333334,
              "duration": 0.015625
            },
            {
              "pitch": 48,
              "velocity": 110,
              "position": 10.489583333333334,
              "duration": 0.015625
            },
            {
              "pitch": 42,
              "velocity": 80,
              "position": 10.760416666666666,
              "duration": 0.015625
            },
            {
              "pitch": 36,
              "velocity": 110,
              "position": 10.760416666666666,
              "duration": 0.015625
            },
            {
              "pitch": 55,
              "velocity": 124,
              "position": 10.760416666666666,
              "duration": 0.015625
            }
          ]
        },
        "9": {
          "ctab": {
            "srcChannel": 9,
            "name": "Std.Kit1",
            "accType": "RHYTHM",
            "editable": false,
            "mutedNotes": [],
            "mutedChords": [
              "1+2+5",
              "sus4",
              "1+5",
              "1+8",
              "7aug",
              "Maj7aug",
              "7(#9)",
              "7(b13)",
              "7(b9)",
              "7(13)",
              "7#11",
              "7(9)",
              "7b5",
              "7sus4",
              "7th",
              "aug",
              "Maj6(9)",
              "Maj7(9)",
              "Maj(9)",
              "Maj7#11",
              "Maj7",
              "Maj6",
              "Maj"
            ],
            "autoStart": false,
            "sourceChordNote": 0,
            "sourceChordType": "Maj7",
            "ctb2Low": null,
            "ctb2Main": {
              "ntr": "ROOT_FIXED",
              "ntt": "BYPASS",
              "bassOn": false,
              "chordRootUpperLimit": 6,
              "noteLowLimit": 0,
              "noteHighLimit": 127,
              "rtr": "PITCH_SHIFT"
            },
            "ctb2High": null
          },
          "notes": [
            {
              "pitch": 42,
              "velocity": 92,
              "position": 0,
              "duration": 0.015625
            },
            {
              "pitch": 42,
              "velocity": 80,
              "position": 0.5,
              "duration": 0.015625
            },
            {
              "pitch": 42,
              "velocity": 72,
              "position": 0.75,
              "duration": 0.015625
            },
            {
              "pitch": 36,
              "velocity": 110,
              "position": 0.7604166666666666,
              "duration": 0.015625
            },
            {
              "pitch": 42,
              "velocity": 90,
              "position": 1,
              "duration": 0.015625
            },
            {
              "pitch": 42,
              "velocity": 80,
              "position": 1.4895833333333333,
              "duration": 0.015625
            },
            {
              "pitch": 42,
              "velocity": 92,
              "position": 1.75,
              "duration": 0.015625
            },
            {
              "pitch": 42,
              "velocity": 80,
              "position": 2,
              "duration": 0.015625
            },
            {
              "pitch": 42,
              "velocity": 94,
              "position": 2.4895833333333335,
              "duration": 0.015625
            },
            {
              "pitch": 42,
              "velocity": 80,
              "position": 2.75,
              "duration": 0.015625
            },
            {
              "pitch": 36,
              "velocity": 110,
              "position": 2.7604166666666665,
              "duration": 0.015625
            },
            {
              "pitch": 42,
              "velocity": 80,
              "position": 3,
              "duration": 0.015625
            },
            {
              "pitch": 42,
              "velocity": 92,
              "position": 3.5,
              "duration": 0.015625
            },
            {
              "pitch": 42,
              "velocity": 80,
              "position": 3.75,
              "duration": 0.015625
            },
            {
              "pitch": 42,
              "velocity": 92,
              "position": 4,
              "duration": 0.015625
            },
            {
              "pitch": 42,
              "velocity": 80,
              "position": 4.489583333333333,
              "duration": 0.015625
            },
            {
              "pitch": 42,
              "velocity": 72,
              "position": 4.75,
              "duration": 0.015625
            },
            {
              "pitch": 36,
              "velocity": 108,
              "position": 4.760416666666667,
              "duration": 0.015625
            },
            {
              "pitch": 42,
              "velocity": 92,
              "position": 5,
              "duration": 0.015625
            },
            {
              "pitch": 42,
              "velocity": 80,
              "position": 5.489583333333333,
              "duration": 0.015625
            },
            {
              "pitch": 42,
              "velocity": 80,
              "position": 5.75,
              "duration": 0.015625
            },
            {
              "pitch": 42,
              "velocity": 86,
              "position": 6,
              "duration": 0.015625
            },
            {
              "pitch": 42,
              "velocity": 72,
              "position": 6.489583333333333,
              "duration": 0.015625
            },
            {
              "pitch": 42,
              "velocity": 80,
              "position": 6.760416666666667,
              "duration": 0.015625
            },
            {
              "pitch": 36,
              "velocity": 112,
              "position": 6.760416666666667,
              "duration": 0.015625
            },
            {
              "pitch": 42,
              "velocity": 90,
              "position": 7,
              "duration": 0.015625
            },
            {
              "pitch": 42,
              "velocity": 80,
              "position": 7.489583333333333,
              "duration": 0.015625
            },
            {
              "pitch": 42,
              "velocity": 80,
              "position": 7.75,
              "duration": 0.015625
            },
            {
              "pitch": 42,
              "velocity": 92,
              "position": 8,
              "duration": 0.015625
            },
            {
              "pitch": 42,
              "velocity": 80,
              "position": 8.5,
              "duration": 0.015625
            },
            {
              "pitch": 42,
              "velocity": 72,
              "position": 8.75,
              "duration": 0.015625
            },
            {
              "pitch": 36,
              "velocity": 110,
              "position": 8.760416666666666,
              "duration": 0.015625
            },
            {
              "pitch": 42,
              "velocity": 90,
              "position": 9,
              "duration": 0.015625
            },
            {
              "pitch": 42,
              "velocity": 80,
              "position": 9.489583333333334,
              "duration": 0.015625
            },
            {
              "pitch": 42,
              "velocity": 92,
              "position": 9.75,
              "duration": 0.015625
            },
            {
              "pitch": 42,
              "velocity": 80,
              "position": 10,
              "duration": 0.015625
            },
            {
              "pitch": 42,
              "velocity": 94,
              "position": 10.489583333333334,
              "duration": 0.015625
            },
            {
              "pitch": 42,
              "velocity": 80,
              "position": 10.75,
              "duration": 0.015625
            },
            {
              "pitch": 36,
              "velocity": 110,
              "position": 10.760416666666666,
              "duration": 0.015625
            },
            {
              "pitch": 42,
              "velocity": 80,
              "position": 11,
              "duration": 0.015625
            },
            {
              "pitch": 42,
              "velocity": 92,
              "position": 11.5,
              "duration": 0.015625
            },
            {
              "pitch": 42,
              "velocity": 80,
              "position": 11.75,
              "duration": 0.015625
            },
            {
              "pitch": 42,
              "velocity": 80,
              "position": 12,
              "duration": 0.015625
            },
            {
              "pitch": 42,
              "velocity": 80,
              "position": 12.5,
              "duration": 0.015625
            },
            {
              "pitch": 42,
              "velocity": 72,
              "position": 12.75,
              "duration": 0.015625
            },
            {
              "pitch": 36,
              "velocity": 106,
              "position": 12.760416666666666,
              "duration": 0.015625
            },
            {
              "pitch": 42,
              "velocity": 90,
              "position": 13,
              "duration": 0.015625
            },
            {
              "pitch": 42,
              "velocity": 80,
              "position": 13.489583333333334,
              "duration": 0.015625
            },
            {
              "pitch": 42,
              "velocity": 92,
              "position": 13.75,
              "duration": 0.015625
            },
            {
              "pitch": 42,
              "velocity": 80,
              "position": 14,
              "duration": 0.015625
            },
            {
              "pitch": 42,
              "velocity": 94,
              "position": 14.489583333333334,
              "duration": 0.015625
            },
            {
              "pitch": 42,
              "velocity": 80,
              "position": 14.75,
              "duration": 0.015625
            },
            {
              "pitch": 36,
              "velocity": 112,
              "position": 14.760416666666666,
              "duration": 0.015625
            },
            {
              "pitch": 55,
              "velocity": 124,
              "position": 14.760416666666666,
              "duration": 0.015625
            }
          ]
        },
        "10": {
          "ctab": {
            "srcChannel": 10,
            "name": "Std.Kit1",
            "accType": "SUBRHYTHM",
            "editable": false,
            "mutedNotes": [],
            "mutedChords": [
              "dim7",
              "dim",
              "minMaj7(9)",
              "minMaj7",
              "min7(11)",
              "min7(9)",
              "min(9)",
              "m7b5",
              "min7",
              "min6",
              "min"
            ],
            "autoStart": true,
            "sourceChordNote": 0,
            "sourceChordType": "Maj7",
            "ctb2Low": null,
            "ctb2Main": {
              "ntr": "ROOT_FIXED",
              "ntt": "BYPASS",
              "bassOn": false,
              "chordRootUpperLimit": 6,
              "noteLowLimit": 0,
              "noteHighLimit": 127,
              "rtr": "PITCH_SHIFT"
            },
            "ctb2High": null
          },
          "notes": [
            {
              "pitch": 60,
              "velocity": 92,
              "position": 0,
              "duration": 0.015625
            },
            {
              "pitch": 33,
              "velocity": 92,
              "position": 0,
              "duration": 0.015625
            },
            {
              "pitch": 62,
              "velocity": 92,
              "position": 0,
              "duration": 0.015625
            },
            {
              "pitch": 33,
              "velocity": 58,
              "position": 0.25,
              "duration": 0.015625
            },
            {
              "pitch": 61,
              "velocity": 80,
              "position": 0.25,
              "duration": 0.015625
            },
            {
              "pitch": 62,
              "velocity": 88,
              "position": 0.2604166666666667,
              "duration": 0.015625
            },
            {
              "pitch": 33,
              "velocity": 110,
              "position": 0.4895833333333333,
              "duration": 0.015625
            },
            {
              "pitch": 75,
              "velocity": 120,
              "position": 0.5,
              "duration": 0.015625
            },
            {
              "pitch": 62,
              "velocity": 108,
              "position": 0.5,
              "duration": 0.015625
            },
            {
              "pitch": 61,
              "velocity": 80,
              "position": 0.5,
              "duration": 0.015625
            },
            {
              "pitch": 62,
              "velocity": 88,
              "position": 0.75,
              "duration": 0.015625
            },
            {
              "pitch": 33,
              "velocity": 58,
              "position": 0.75,
              "duration": 0.015625
            },
            {
              "pitch": 60,
              "velocity": 92,
              "position": 0.7604166666666666,
              "duration": 0.015625
            },
            {
              "pitch": 33,
              "velocity": 110,
              "position": 0.9895833333333334,
              "duration": 0.015625
            },
            {
              "pitch": 62,
              "velocity": 88,
              "position": 0.9895833333333334,
              "duration": 0.015625
            },
            {
              "pitch": 75,
              "velocity": 126,
              "position": 1,
              "duration": 0.015625
            },
            {
              "pitch": 60,
              "velocity": 80,
              "position": 1,
              "duration": 0.015625
            },
            {
              "pitch": 62,
              "velocity": 88,
              "position": 1.25,
              "duration": 0.015625
            },
            {
              "pitch": 33,
              "velocity": 110,
              "position": 1.25,
              "duration": 0.015625
            },
            {
              "pitch": 61,
              "velocity": 92,
              "position": 1.2604166666666667,
              "duration": 0.015625
            },
            {
              "pitch": 33,
              "velocity": 72,
              "position": 1.4895833333333333,
              "duration": 0.015625
            },
            {
              "pitch": 64,
              "velocity": 100,
              "position": 1.4895833333333333,
              "duration": 0.015625
            },
            {
              "pitch": 61,
              "velocity": 92,
              "position": 1.5,
              "duration": 0.015625
            },
            {
              "pitch": 64,
              "velocity": 100,
              "position": 1.75,
              "duration": 0.015625
            },
            {
              "pitch": 33,
              "velocity": 92,
              "position": 1.75,
              "duration": 0.015625
            },
            {
              "pitch": 60,
              "velocity": 112,
              "position": 1.7604166666666667,
              "duration": 0.015625
            },
            {
              "pitch": 75,
              "velocity": 120,
              "position": 2,
              "duration": 0.015625
            },
            {
              "pitch": 61,
              "velocity": 80,
              "position": 2,
              "duration": 0.015625
            },
            {
              "pitch": 62,
              "velocity": 84,
              "position": 2,
              "duration": 0.015625
            },
            {
              "pitch": 33,
              "velocity": 110,
              "position": 2,
              "duration": 0.015625
            },
            {
              "pitch": 33,
              "velocity": 68,
              "position": 2.25,
              "duration": 0.015625
            },
            {
              "pitch": 62,
              "velocity": 88,
              "position": 2.25,
              "duration": 0.015625
            },
            {
              "pitch": 61,
              "velocity": 80,
              "position": 2.2604166666666665,
              "duration": 0.015625
            },
            {
              "pitch": 62,
              "velocity": 108,
              "position": 2.4895833333333335,
              "duration": 0.015625
            },
            {
              "pitch": 33,
              "velocity": 90,
              "position": 2.4895833333333335,
              "duration": 0.015625
            },
            {
              "pitch": 61,
              "velocity": 72,
              "position": 2.5,
              "duration": 0.015625
            },
            {
              "pitch": 60,
              "velocity": 80,
              "position": 2.75,
              "duration": 0.015625
            },
            {
              "pitch": 62,
              "velocity": 88,
              "position": 2.75,
              "duration": 0.015625
            },
            {
              "pitch": 33,
              "velocity": 110,
              "position": 2.75,
              "duration": 0.015625
            },
            {
              "pitch": 75,
              "velocity": 120,
              "position": 2.7604166666666665,
              "duration": 0.015625
            },
            {
              "pitch": 62,
              "velocity": 100,
              "position": 3,
              "duration": 0.015625
            },
            {
              "pitch": 33,
              "velocity": 68,
              "position": 3,
              "duration": 0.015625
            },
            {
              "pitch": 60,
              "velocity": 80,
              "position": 3,
              "duration": 0.015625
            },
            {
              "pitch": 62,
              "velocity": 100,
              "position": 3.25,
              "duration": 0.015625
            },
            {
              "pitch": 61,
              "velocity": 92,
              "position": 3.25,
              "duration": 0.015625
            },
            {
              "pitch": 33,
              "velocity": 110,
              "position": 3.25,
              "duration": 0.015625
            },
            {
              "pitch": 61,
              "velocity": 92,
              "position": 3.4895833333333335,
              "duration": 0.015625
            },
            {
              "pitch": 64,
              "velocity": 100,
              "position": 3.4895833333333335,
              "duration": 0.015625
            },
            {
              "pitch": 33,
              "velocity": 72,
              "position": 3.5,
              "duration": 0.015625
            },
            {
              "pitch": 75,
              "velocity": 112,
              "position": 3.5,
              "duration": 0.015625
            },
            {
              "pitch": 61,
              "velocity": 80,
              "position": 3.75,
              "duration": 0.015625
            },
            {
              "pitch": 33,
              "velocity": 110,
              "position": 3.75,
              "duration": 0.015625
            },
            {
              "pitch": 64,
              "velocity": 102,
              "position": 3.75,
              "duration": 0.015625
            },
            {
              "pitch": 60,
              "velocity": 92,
              "position": 4,
              "duration": 0.015625
            },
            {
              "pitch": 62,
              "velocity": 88,
              "position": 4,
              "duration": 0.015625
            },
            {
              "pitch": 33,
              "velocity": 110,
              "position": 4,
              "duration": 0.015625
            },
            {
              "pitch": 61,
              "velocity": 80,
              "position": 4.25,
              "duration": 0.015625
            },
            {
              "pitch": 33,
              "velocity": 60,
              "position": 4.25,
              "duration": 0.015625
            },
            {
              "pitch": 62,
              "velocity": 88,
              "position": 4.25,
              "duration": 0.015625
            },
            {
              "pitch": 62,
              "velocity": 110,
              "position": 4.5,
              "duration": 0.015625
            },
            {
              "pitch": 33,
              "velocity": 110,
              "position": 4.5,
              "duration": 0.015625
            },
            {
              "pitch": 75,
              "velocity": 120,
              "position": 4.5,
              "duration": 0.015625
            },
            {
              "pitch": 61,
              "velocity": 92,
              "position": 4.5,
              "duration": 0.015625
            },
            {
              "pitch": 62,
              "velocity": 100,
              "position": 4.75,
              "duration": 0.015625
            },
            {
              "pitch": 33,
              "velocity": 72,
              "position": 4.75,
              "duration": 0.015625
            },
            {
              "pitch": 60,
              "velocity": 92,
              "position": 4.760416666666667,
              "duration": 0.015625
            },
            {
              "pitch": 62,
              "velocity": 100,
              "position": 4.989583333333333,
              "duration": 0.015625
            },
            {
              "pitch": 33,
              "velocity": 110,
              "position": 5,
              "duration": 0.015625
            },
            {
              "pitch": 60,
              "velocity": 80,
              "position": 5,
              "duration": 0.015625
            },
            {
              "pitch": 75,
              "velocity": 114,
              "position": 5.010416666666667,
              "duration": 0.015625
            },
            {
              "pitch": 62,
              "velocity": 100,
              "position": 5.25,
              "duration": 0.015625
            },
            {
              "pitch": 33,
              "velocity": 110,
              "position": 5.25,
              "duration": 0.015625
            },
            {
              "pitch": 61,
              "velocity": 90,
              "position": 5.260416666666667,
              "duration": 0.015625
            },
            {
              "pitch": 33,
              "velocity": 76,
              "position": 5.489583333333333,
              "duration": 0.015625
            },
            {
              "pitch": 61,
              "velocity": 90,
              "position": 5.5,
              "duration": 0.015625
            },
            {
              "pitch": 64,
              "velocity": 100,
              "position": 5.5,
              "duration": 0.015625
            },
            {
              "pitch": 64,
              "velocity": 102,
              "position": 5.75,
              "duration": 0.015625
            },
            {
              "pitch": 33,
              "velocity": 110,
              "position": 5.75,
              "duration": 0.015625
            },
            {
              "pitch": 60,
              "velocity": 110,
              "position": 5.760416666666667,
              "duration": 0.015625
            },
            {
              "pitch": 61,
              "velocity": 80,
              "position": 6,
              "duration": 0.015625
            },
            {
              "pitch": 62,
              "velocity": 96,
              "position": 6,
              "duration": 0.015625
            },
            {
              "pitch": 33,
              "velocity": 110,
              "position": 6,
              "duration": 0.015625
            },
            {
              "pitch": 75,
              "velocity": 120,
              "position": 6.010416666666667,
              "duration": 0.015625
            },
            {
              "pitch": 62,
              "velocity": 88,
              "position": 6.25,
              "duration": 0.015625
            },
            {
              "pitch": 33,
              "velocity": 64,
              "position": 6.25,
              "duration": 0.015625
            },
            {
              "pitch": 61,
              "velocity": 80,
              "position": 6.260416666666667,
              "duration": 0.015625
            },
            {
              "pitch": 62,
              "velocity": 108,
              "position": 6.489583333333333,
              "duration": 0.015625
            },
            {
              "pitch": 33,
              "velocity": 110,
              "position": 6.5,
              "duration": 0.015625
            },
            {
              "pitch": 61,
              "velocity": 80,
              "position": 6.510416666666667,
              "duration": 0.015625
            },
            {
              "pitch": 62,
              "velocity": 88,
              "position": 6.75,
              "duration": 0.015625
            },
            {
              "pitch": 60,
              "velocity": 92,
              "position": 6.75,
              "duration": 0.015625
            },
            {
              "pitch": 33,
              "velocity": 92,
              "position": 6.75,
              "duration": 0.015625
            },
            {
              "pitch": 75,
              "velocity": 112,
              "position": 6.760416666666667,
              "duration": 0.015625
            },
            {
              "pitch": 60,
              "velocity": 80,
              "position": 7,
              "duration": 0.015625
            },
            {
              "pitch": 62,
              "velocity": 100,
              "position": 7,
              "duration": 0.015625
            },
            {
              "pitch": 33,
              "velocity": 64,
              "position": 7,
              "duration": 0.015625
            },
            {
              "pitch": 62,
              "velocity": 88,
              "position": 7.25,
              "duration": 0.015625
            },
            {
              "pitch": 61,
              "velocity": 80,
              "position": 7.25,
              "duration": 0.015625
            },
            {
              "pitch": 33,
              "velocity": 110,
              "position": 7.260416666666667,
              "duration": 0.015625
            },
            {
              "pitch": 61,
              "velocity": 80,
              "position": 7.489583333333333,
              "duration": 0.015625
            },
            {
              "pitch": 64,
              "velocity": 104,
              "position": 7.489583333333333,
              "duration": 0.015625
            },
            {
              "pitch": 75,
              "velocity": 120,
              "position": 7.5,
              "duration": 0.015625
            },
            {
              "pitch": 33,
              "velocity": 72,
              "position": 7.5,
              "duration": 0.015625
            },
            {
              "pitch": 61,
              "velocity": 92,
              "position": 7.739583333333333,
              "duration": 0.015625
            },
            {
              "pitch": 64,
              "velocity": 100,
              "position": 7.75,
              "duration": 0.015625
            },
            {
              "pitch": 33,
              "velocity": 110,
              "position": 7.760416666666667,
              "duration": 0.015625
            },
            {
              "pitch": 60,
              "velocity": 92,
              "position": 8,
              "duration": 0.015625
            },
            {
              "pitch": 62,
              "velocity": 102,
              "position": 8,
              "duration": 0.015625
            },
            {
              "pitch": 33,
              "velocity": 92,
              "position": 8.010416666666666,
              "duration": 0.015625
            },
            {
              "pitch": 33,
              "velocity": 56,
              "position": 8.25,
              "duration": 0.015625
            },
            {
              "pitch": 62,
              "velocity": 88,
              "position": 8.25,
              "duration": 0.015625
            },
            {
              "pitch": 61,
              "velocity": 80,
              "position": 8.25,
              "duration": 0.015625
            },
            {
              "pitch": 62,
              "velocity": 108,
              "position": 8.489583333333334,
              "duration": 0.015625
            },
            {
              "pitch": 75,
              "velocity": 120,
              "position": 8.5,
              "duration": 0.015625
            },
            {
              "pitch": 33,
              "velocity": 110,
              "position": 8.5,
              "duration": 0.015625
            },
            {
              "pitch": 61,
              "velocity": 80,
              "position": 8.5,
              "duration": 0.015625
            },
            {
              "pitch": 62,
              "velocity": 88,
              "position": 8.75,
              "duration": 0.015625
            },
            {
              "pitch": 33,
              "velocity": 72,
              "position": 8.75,
              "duration": 0.015625
            },
            {
              "pitch": 60,
              "velocity": 90,
              "position": 8.75,
              "duration": 0.015625
            },
            {
              "pitch": 62,
              "velocity": 88,
              "position": 9,
              "duration": 0.015625
            },
            {
              "pitch": 33,
              "velocity": 110,
              "position": 9,
              "duration": 0.015625
            },
            {
              "pitch": 75,
              "velocity": 126,
              "position": 9,
              "duration": 0.015625
            },
            {
              "pitch": 60,
              "velocity": 92,
              "position": 9,
              "duration": 0.015625
            },
            {
              "pitch": 62,
              "velocity": 100,
              "position": 9.25,
              "duration": 0.015625
            },
            {
              "pitch": 33,
              "velocity": 110,
              "position": 9.25,
              "duration": 0.015625
            },
            {
              "pitch": 61,
              "velocity": 90,
              "position": 9.25,
              "duration": 0.015625
            },
            {
              "pitch": 61,
              "velocity": 92,
              "position": 9.489583333333334,
              "duration": 0.015625
            },
            {
              "pitch": 64,
              "velocity": 100,
              "position": 9.489583333333334,
              "duration": 0.015625
            },
            {
              "pitch": 33,
              "velocity": 64,
              "position": 9.489583333333334,
              "duration": 0.015625
            },
            {
              "pitch": 33,
              "velocity": 92,
              "position": 9.75,
              "duration": 0.015625
            },
            {
              "pitch": 60,
              "velocity": 108,
              "position": 9.75,
              "duration": 0.015625
            },
            {
              "pitch": 64,
              "velocity": 100,
              "position": 9.75,
              "duration": 0.015625
            },
            {
              "pitch": 75,
              "velocity": 120,
              "position": 10,
              "duration": 0.015625
            },
            {
              "pitch": 62,
              "velocity": 88,
              "position": 10,
              "duration": 0.015625
            },
            {
              "pitch": 61,
              "velocity": 80,
              "position": 10,
              "duration": 0.015625
            },
            {
              "pitch": 33,
              "velocity": 92,
              "position": 10,
              "duration": 0.015625
            },
            {
              "pitch": 62,
              "velocity": 88,
              "position": 10.25,
              "duration": 0.015625
            },
            {
              "pitch": 66,
              "velocity": 80,
              "position": 10.25,
              "duration": 0.015625
            },
            {
              "pitch": 33,
              "velocity": 64,
              "position": 10.25,
              "duration": 0.015625
            },
            {
              "pitch": 61,
              "velocity": 72,
              "position": 10.260416666666666,
              "duration": 0.015625
            },
            {
              "pitch": 66,
              "velocity": 92,
              "position": 10.333333333333334,
              "duration": 0.015625
            },
            {
              "pitch": 66,
              "velocity": 98,
              "position": 10.427083333333334,
              "duration": 0.015625
            },
            {
              "pitch": 62,
              "velocity": 112,
              "position": 10.5,
              "duration": 0.015625
            },
            {
              "pitch": 33,
              "velocity": 110,
              "position": 10.5,
              "duration": 0.015625
            },
            {
              "pitch": 61,
              "velocity": 64,
              "position": 10.5,
              "duration": 0.015625
            },
            {
              "pitch": 66,
              "velocity": 110,
              "position": 10.5,
              "duration": 0.015625
            },
            {
              "pitch": 62,
              "velocity": 110,
              "position": 10.75,
              "duration": 0.015625
            },
            {
              "pitch": 60,
              "velocity": 102,
              "position": 10.760416666666666,
              "duration": 0.015625
            },
            {
              "pitch": 75,
              "velocity": 120,
              "position": 10.760416666666666,
              "duration": 0.015625
            },
            {
              "pitch": 65,
              "velocity": 126,
              "position": 10.760416666666666,
              "duration": 0.015625
            },
            {
              "pitch": 33,
              "velocity": 110,
              "position": 10.760416666666666,
              "duration": 0.015625
            }
          ]
        },
        "11": {
          "ctab": {
            "srcChannel": 11,
            "name": "Std.Kit1",
            "accType": "SUBRHYTHM",
            "editable": false,
            "mutedNotes": [],
            "mutedChords": [
              "1+2+5",
              "sus4",
              "1+5",
              "1+8",
              "7aug",
              "Maj7aug",
              "7(#9)",
              "7(b13)",
              "7(b9)",
              "7(13)",
              "7#11",
              "7(9)",
              "7b5",
              "7sus4",
              "7th",
              "aug",
              "Maj6(9)",
              "Maj7(9)",
              "Maj(9)",
              "Maj7#11",
              "Maj7",
              "Maj6",
              "Maj"
            ],
            "autoStart": false,
            "sourceChordNote": 0,
            "sourceChordType": "Maj7",
            "ctb2Low": null,
            "ctb2Main": {
              "ntr": "ROOT_FIXED",
              "ntt": "BYPASS",
              "bassOn": false,
              "chordRootUpperLimit": 6,
              "noteLowLimit": 0,
              "noteHighLimit": 127,
              "rtr": "PITCH_SHIFT"
            },
            "ctb2High": null
          },
          "notes": [
            {
              "pitch": 60,
              "velocity": 92,
              "position": 0,
              "duration": 0.015625
            },
            {
              "pitch": 33,
              "velocity": 92,
              "position": 0,
              "duration": 0.015625
            },
            {
              "pitch": 62,
              "velocity": 92,
              "position": 0,
              "duration": 0.015625
            },
            {
              "pitch": 33,
              "velocity": 58,
              "position": 0.25,
              "duration": 0.015625
            },
            {
              "pitch": 61,
              "velocity": 80,
              "position": 0.25,
              "duration": 0.015625
            },
            {
              "pitch": 62,
              "velocity": 88,
              "position": 0.2604166666666667,
              "duration": 0.015625
            },
            {
              "pitch": 33,
              "velocity": 110,
              "position": 0.4895833333333333,
              "duration": 0.015625
            },
            {
              "pitch": 75,
              "velocity": 120,
              "position": 0.5,
              "duration": 0.015625
            },
            {
              "pitch": 62,
              "velocity": 108,
              "position": 0.5,
              "duration": 0.015625
            },
            {
              "pitch": 61,
              "velocity": 80,
              "position": 0.5,
              "duration": 0.015625
            },
            {
              "pitch": 62,
              "velocity": 88,
              "position": 0.75,
              "duration": 0.015625
            },
            {
              "pitch": 33,
              "velocity": 58,
              "position": 0.75,
              "duration": 0.015625
            },
            {
              "pitch": 60,
              "velocity": 92,
              "position": 0.7604166666666666,
              "duration": 0.015625
            },
            {
              "pitch": 33,
              "velocity": 110,
              "position": 0.9895833333333334,
              "duration": 0.015625
            },
            {
              "pitch": 62,
              "velocity": 88,
              "position": 0.9895833333333334,
              "duration": 0.015625
            },
            {
              "pitch": 75,
              "velocity": 126,
              "position": 1,
              "duration": 0.015625
            },
            {
              "pitch": 60,
              "velocity": 80,
              "position": 1,
              "duration": 0.015625
            },
            {
              "pitch": 62,
              "velocity": 88,
              "position": 1.25,
              "duration": 0.015625
            },
            {
              "pitch": 33,
              "velocity": 110,
              "position": 1.25,
              "duration": 0.015625
            },
            {
              "pitch": 61,
              "velocity": 92,
              "position": 1.2604166666666667,
              "duration": 0.015625
            },
            {
              "pitch": 33,
              "velocity": 72,
              "position": 1.4895833333333333,
              "duration": 0.015625
            },
            {
              "pitch": 64,
              "velocity": 100,
              "position": 1.4895833333333333,
              "duration": 0.015625
            },
            {
              "pitch": 61,
              "velocity": 92,
              "position": 1.5,
              "duration": 0.015625
            },
            {
              "pitch": 64,
              "velocity": 100,
              "position": 1.75,
              "duration": 0.015625
            },
            {
              "pitch": 33,
              "velocity": 92,
              "position": 1.75,
              "duration": 0.015625
            },
            {
              "pitch": 60,
              "velocity": 112,
              "position": 1.7604166666666667,
              "duration": 0.015625
            },
            {
              "pitch": 75,
              "velocity": 120,
              "position": 2,
              "duration": 0.015625
            },
            {
              "pitch": 61,
              "velocity": 80,
              "position": 2,
              "duration": 0.015625
            },
            {
              "pitch": 62,
              "velocity": 84,
              "position": 2,
              "duration": 0.015625
            },
            {
              "pitch": 33,
              "velocity": 110,
              "position": 2,
              "duration": 0.015625
            },
            {
              "pitch": 33,
              "velocity": 68,
              "position": 2.25,
              "duration": 0.015625
            },
            {
              "pitch": 62,
              "velocity": 88,
              "position": 2.25,
              "duration": 0.015625
            },
            {
              "pitch": 61,
              "velocity": 80,
              "position": 2.2604166666666665,
              "duration": 0.015625
            },
            {
              "pitch": 62,
              "velocity": 108,
              "position": 2.4895833333333335,
              "duration": 0.015625
            },
            {
              "pitch": 33,
              "velocity": 90,
              "position": 2.4895833333333335,
              "duration": 0.015625
            },
            {
              "pitch": 61,
              "velocity": 72,
              "position": 2.5,
              "duration": 0.015625
            },
            {
              "pitch": 60,
              "velocity": 80,
              "position": 2.75,
              "duration": 0.015625
            },
            {
              "pitch": 62,
              "velocity": 88,
              "position": 2.75,
              "duration": 0.015625
            },
            {
              "pitch": 33,
              "velocity": 110,
              "position": 2.75,
              "duration": 0.015625
            },
            {
              "pitch": 75,
              "velocity": 120,
              "position": 2.7604166666666665,
              "duration": 0.015625
            },
            {
              "pitch": 62,
              "velocity": 100,
              "position": 3,
              "duration": 0.015625
            },
            {
              "pitch": 33,
              "velocity": 68,
              "position": 3,
              "duration": 0.015625
            },
            {
              "pitch": 60,
              "velocity": 80,
              "position": 3,
              "duration": 0.015625
            },
            {
              "pitch": 62,
              "velocity": 100,
              "position": 3.25,
              "duration": 0.015625
            },
            {
              "pitch": 61,
              "velocity": 92,
              "position": 3.25,
              "duration": 0.015625
            },
            {
              "pitch": 33,
              "velocity": 110,
              "position": 3.25,
              "duration": 0.015625
            },
            {
              "pitch": 61,
              "velocity": 92,
              "position": 3.4895833333333335,
              "duration": 0.015625
            },
            {
              "pitch": 64,
              "velocity": 100,
              "position": 3.4895833333333335,
              "duration": 0.015625
            },
            {
              "pitch": 33,
              "velocity": 72,
              "position": 3.5,
              "duration": 0.015625
            },
            {
              "pitch": 75,
              "velocity": 112,
              "position": 3.5,
              "duration": 0.015625
            },
            {
              "pitch": 61,
              "velocity": 80,
              "position": 3.75,
              "duration": 0.015625
            },
            {
              "pitch": 33,
              "velocity": 110,
              "position": 3.75,
              "duration": 0.015625
            },
            {
              "pitch": 64,
              "velocity": 102,
              "position": 3.75,
              "duration": 0.015625
            },
            {
              "pitch": 60,
              "velocity": 92,
              "position": 4,
              "duration": 0.015625
            },
            {
              "pitch": 62,
              "velocity": 88,
              "position": 4,
              "duration": 0.015625
            },
            {
              "pitch": 33,
              "velocity": 110,
              "position": 4,
              "duration": 0.015625
            },
            {
              "pitch": 61,
              "velocity": 80,
              "position": 4.25,
              "duration": 0.015625
            },
            {
              "pitch": 33,
              "velocity": 60,
              "position": 4.25,
              "duration": 0.015625
            },
            {
              "pitch": 62,
              "velocity": 88,
              "position": 4.25,
              "duration": 0.015625
            },
            {
              "pitch": 62,
              "velocity": 110,
              "position": 4.5,
              "duration": 0.015625
            },
            {
              "pitch": 33,
              "velocity": 110,
              "position": 4.5,
              "duration": 0.015625
            },
            {
              "pitch": 75,
              "velocity": 120,
              "position": 4.5,
              "duration": 0.015625
            },
            {
              "pitch": 61,
              "velocity": 92,
              "position": 4.5,
              "duration": 0.015625
            },
            {
              "pitch": 62,
              "velocity": 100,
              "position": 4.75,
              "duration": 0.015625
            },
            {
              "pitch": 33,
              "velocity": 72,
              "position": 4.75,
              "duration": 0.015625
            },
            {
              "pitch": 60,
              "velocity": 92,
              "position": 4.760416666666667,
              "duration": 0.015625
            },
            {
              "pitch": 62,
              "velocity": 100,
              "position": 4.989583333333333,
              "duration": 0.015625
            },
            {
              "pitch": 33,
              "velocity": 110,
              "position": 5,
              "duration": 0.015625
            },
            {
              "pitch": 60,
              "velocity": 80,
              "position": 5,
              "duration": 0.015625
            },
            {
              "pitch": 75,
              "velocity": 114,
              "position": 5.010416666666667,
              "duration": 0.015625
            },
            {
              "pitch": 62,
              "velocity": 100,
              "position": 5.25,
              "duration": 0.015625
            },
            {
              "pitch": 33,
              "velocity": 110,
              "position": 5.25,
              "duration": 0.015625
            },
            {
              "pitch": 61,
              "velocity": 90,
              "position": 5.260416666666667,
              "duration": 0.015625
            },
            {
              "pitch": 33,
              "velocity": 76,
              "position": 5.489583333333333,
              "duration": 0.015625
            },
            {
              "pitch": 61,
              "velocity": 90,
              "position": 5.5,
              "duration": 0.015625
            },
            {
              "pitch": 64,
              "velocity": 100,
              "position": 5.5,
              "duration": 0.015625
            },
            {
              "pitch": 64,
              "velocity": 102,
              "position": 5.75,
              "duration": 0.015625
            },
            {
              "pitch": 33,
              "velocity": 110,
              "position": 5.75,
              "duration": 0.015625
            },
            {
              "pitch": 60,
              "velocity": 110,
              "position": 5.760416666666667,
              "duration": 0.015625
            },
            {
              "pitch": 61,
              "velocity": 80,
              "position": 6,
              "duration": 0.015625
            },
            {
              "pitch": 62,
              "velocity": 96,
              "position": 6,
              "duration": 0.015625
            },
            {
              "pitch": 33,
              "velocity": 110,
              "position": 6,
              "duration": 0.015625
            },
            {
              "pitch": 75,
              "velocity": 120,
              "position": 6.010416666666667,
              "duration": 0.015625
            },
            {
              "pitch": 62,
              "velocity": 88,
              "position": 6.25,
              "duration": 0.015625
            },
            {
              "pitch": 33,
              "velocity": 64,
              "position": 6.25,
              "duration": 0.015625
            },
            {
              "pitch": 61,
              "velocity": 80,
              "position": 6.260416666666667,
              "duration": 0.015625
            },
            {
              "pitch": 62,
              "velocity": 108,
              "position": 6.489583333333333,
              "duration": 0.015625
            },
            {
              "pitch": 33,
              "velocity": 110,
              "position": 6.5,
              "duration": 0.015625
            },
            {
              "pitch": 61,
              "velocity": 80,
              "position": 6.510416666666667,
              "duration": 0.015625
            },
            {
              "pitch": 62,
              "velocity": 88,
              "position": 6.75,
              "duration": 0.015625
            },
            {
              "pitch": 60,
              "velocity": 92,
              "position": 6.75,
              "duration": 0.015625
            },
            {
              "pitch": 33,
              "velocity": 92,
              "position": 6.75,
              "duration": 0.015625
            },
            {
              "pitch": 75,
              "velocity": 112,
              "position": 6.760416666666667,
              "duration": 0.015625
            },
            {
              "pitch": 60,
              "velocity": 80,
              "position": 7,
              "duration": 0.015625
            },
            {
              "pitch": 62,
              "velocity": 100,
              "position": 7,
              "duration": 0.015625
            },
            {
              "pitch": 33,
              "velocity": 64,
              "position": 7,
              "duration": 0.015625
            },
            {
              "pitch": 62,
              "velocity": 88,
              "position": 7.25,
              "duration": 0.015625
            },
            {
              "pitch": 61,
              "velocity": 80,
              "position": 7.25,
              "duration": 0.015625
            },
            {
              "pitch": 33,
              "velocity": 110,
              "position": 7.260416666666667,
              "duration": 0.015625
            },
            {
              "pitch": 61,
              "velocity": 80,
              "position": 7.489583333333333,
              "duration": 0.015625
            },
            {
              "pitch": 64,
              "velocity": 104,
              "position": 7.489583333333333,
              "duration": 0.015625
            },
            {
              "pitch": 75,
              "velocity": 120,
              "position": 7.5,
              "duration": 0.015625
            },
            {
              "pitch": 33,
              "velocity": 72,
              "position": 7.5,
              "duration": 0.015625
            },
            {
              "pitch": 61,
              "velocity": 92,
              "position": 7.739583333333333,
              "duration": 0.015625
            },
            {
              "pitch": 64,
              "velocity": 100,
              "position": 7.75,
              "duration": 0.015625
            },
            {
              "pitch": 33,
              "velocity": 110,
              "position": 7.760416666666667,
              "duration": 0.015625
            },
            {
              "pitch": 60,
              "velocity": 92,
              "position": 8,
              "duration": 0.015625
            },
            {
              "pitch": 33,
              "velocity": 92,
              "position": 8,
              "duration": 0.015625
            },
            {
              "pitch": 62,
              "velocity": 92,
              "position": 8,
              "duration": 0.015625
            },
            {
              "pitch": 33,
              "velocity": 58,
              "position": 8.25,
              "duration": 0.015625
            },
            {
              "pitch": 61,
              "velocity": 80,
              "position": 8.25,
              "duration": 0.015625
            },
            {
              "pitch": 62,
              "velocity": 88,
              "position": 8.260416666666666,
              "duration": 0.015625
            },
            {
              "pitch": 33,
              "velocity": 110,
              "position": 8.489583333333334,
              "duration": 0.015625
            },
            {
              "pitch": 75,
              "velocity": 120,
              "position": 8.5,
              "duration": 0.015625
            },
            {
              "pitch": 62,
              "velocity": 108,
              "position": 8.5,
              "duration": 0.015625
            },
            {
              "pitch": 61,
              "velocity": 80,
              "position": 8.5,
              "duration": 0.015625
            },
            {
              "pitch": 62,
              "velocity": 88,
              "position": 8.75,
              "duration": 0.015625
            },
            {
              "pitch": 33,
              "velocity": 58,
              "position": 8.75,
              "duration": 0.015625
            },
            {
              "pitch": 60,
              "velocity": 92,
              "position": 8.760416666666666,
              "duration": 0.015625
            },
            {
              "pitch": 33,
              "velocity": 110,
              "position": 8.989583333333334,
              "duration": 0.015625
            },
            {
              "pitch": 62,
              "velocity": 88,
              "position": 8.989583333333334,
              "duration": 0.015625
            },
            {
              "pitch": 75,
              "velocity": 126,
              "position": 9,
              "duration": 0.015625
            },
            {
              "pitch": 60,
              "velocity": 80,
              "position": 9,
              "duration": 0.015625
            },
            {
              "pitch": 62,
              "velocity": 88,
              "position": 9.25,
              "duration": 0.015625
            },
            {
              "pitch": 33,
              "velocity": 110,
              "position": 9.25,
              "duration": 0.015625
            },
            {
              "pitch": 61,
              "velocity": 92,
              "position": 9.260416666666666,
              "duration": 0.015625
            },
            {
              "pitch": 33,
              "velocity": 72,
              "position": 9.489583333333334,
              "duration": 0.015625
            },
            {
              "pitch": 64,
              "velocity": 100,
              "position": 9.489583333333334,
              "duration": 0.015625
            },
            {
              "pitch": 61,
              "velocity": 92,
              "position": 9.5,
              "duration": 0.015625
            },
            {
              "pitch": 64,
              "velocity": 100,
              "position": 9.75,
              "duration": 0.015625
            },
            {
              "pitch": 33,
              "velocity": 92,
              "position": 9.75,
              "duration": 0.015625
            },
            {
              "pitch": 60,
              "velocity": 112,
              "position": 9.760416666666666,
              "duration": 0.015625
            },
            {
              "pitch": 75,
              "velocity": 120,
              "position": 10,
              "duration": 0.015625
            },
            {
              "pitch": 61,
              "velocity": 80,
              "position": 10,
              "duration": 0.015625
            },
            {
              "pitch": 62,
              "velocity": 84,
              "position": 10,
              "duration": 0.015625
            },
            {
              "pitch": 33,
              "velocity": 110,
              "position": 10,
              "duration": 0.015625
            },
            {
              "pitch": 33,
              "velocity": 68,
              "position": 10.25,
              "duration": 0.015625
            },
            {
              "pitch": 62,
              "velocity": 88,
              "position": 10.25,
              "duration": 0.015625
            },
            {
              "pitch": 61,
              "velocity": 80,
              "position": 10.260416666666666,
              "duration": 0.015625
            },
            {
              "pitch": 62,
              "velocity": 108,
              "position": 10.489583333333334,
              "duration": 0.015625
            },
            {
              "pitch": 33,
              "velocity": 90,
              "position": 10.489583333333334,
              "duration": 0.015625
            },
            {
              "pitch": 61,
              "velocity": 72,
              "position": 10.5,
              "duration": 0.015625
            },
            {
              "pitch": 60,
              "velocity": 80,
              "position": 10.75,
              "duration": 0.015625
            },
            {
              "pitch": 62,
              "velocity": 88,
              "position": 10.75,
              "duration": 0.015625
            },
            {
              "pitch": 33,
              "velocity": 110,
              "position": 10.75,
              "duration": 0.015625
            },
            {
              "pitch": 75,
              "velocity": 120,
              "position": 10.760416666666666,
              "duration": 0.015625
            },
            {
              "pitch": 62,
              "velocity": 100,
              "position": 11,
              "duration": 0.015625
            },
            {
              "pitch": 33,
              "velocity": 68,
              "position": 11,
              "duration": 0.015625
            },
            {
              "pitch": 60,
              "velocity": 80,
              "position": 11,
              "duration": 0.015625
            },
            {
              "pitch": 62,
              "velocity": 100,
              "position": 11.25,
              "duration": 0.015625
            },
            {
              "pitch": 61,
              "velocity": 92,
              "position": 11.25,
              "duration": 0.015625
            },
            {
              "pitch": 33,
              "velocity": 110,
              "position": 11.25,
              "duration": 0.015625
            },
            {
              "pitch": 61,
              "velocity": 92,
              "position": 11.489583333333334,
              "duration": 0.015625
            },
            {
              "pitch": 64,
              "velocity": 100,
              "position": 11.489583333333334,
              "duration": 0.015625
            },
            {
              "pitch": 33,
              "velocity": 72,
              "position": 11.5,
              "duration": 0.015625
            },
            {
              "pitch": 75,
              "velocity": 112,
              "position": 11.5,
              "duration": 0.015625
            },
            {
              "pitch": 61,
              "velocity": 80,
              "position": 11.75,
              "duration": 0.015625
            },
            {
              "pitch": 33,
              "velocity": 110,
              "position": 11.75,
              "duration": 0.015625
            },
            {
              "pitch": 64,
              "velocity": 102,
              "position": 11.75,
              "duration": 0.015625
            },
            {
              "pitch": 62,
              "velocity": 88,
              "position": 12,
              "duration": 0.015625
            },
            {
              "pitch": 60,
              "velocity": 92,
              "position": 12,
              "duration": 0.015625
            },
            {
              "pitch": 33,
              "velocity": 92,
              "position": 12.010416666666666,
              "duration": 0.015625
            },
            {
              "pitch": 62,
              "velocity": 100,
              "position": 12.25,
              "duration": 0.015625
            },
            {
              "pitch": 33,
              "velocity": 68,
              "position": 12.25,
              "duration": 0.015625
            },
            {
              "pitch": 61,
              "velocity": 80,
              "position": 12.260416666666666,
              "duration": 0.015625
            },
            {
              "pitch": 62,
              "velocity": 108,
              "position": 12.5,
              "duration": 0.015625
            },
            {
              "pitch": 75,
              "velocity": 120,
              "position": 12.5,
              "duration": 0.015625
            },
            {
              "pitch": 61,
              "velocity": 90,
              "position": 12.5,
              "duration": 0.015625
            },
            {
              "pitch": 33,
              "velocity": 110,
              "position": 12.5,
              "duration": 0.015625
            },
            {
              "pitch": 60,
              "velocity": 80,
              "position": 12.760416666666666,
              "duration": 0.015625
            },
            {
              "pitch": 62,
              "velocity": 88,
              "position": 12.760416666666666,
              "duration": 0.015625
            },
            {
              "pitch": 33,
              "velocity": 64,
              "position": 12.760416666666666,
              "duration": 0.015625
            },
            {
              "pitch": 62,
              "velocity": 100,
              "position": 13,
              "duration": 0.015625
            },
            {
              "pitch": 60,
              "velocity": 80,
              "position": 13,
              "duration": 0.015625
            },
            {
              "pitch": 33,
              "velocity": 90,
              "position": 13,
              "duration": 0.015625
            },
            {
              "pitch": 75,
              "velocity": 114,
              "position": 13.010416666666666,
              "duration": 0.015625
            },
            {
              "pitch": 62,
              "velocity": 88,
              "position": 13.25,
              "duration": 0.015625
            },
            {
              "pitch": 61,
              "velocity": 80,
              "position": 13.260416666666666,
              "duration": 0.015625
            },
            {
              "pitch": 33,
              "velocity": 110,
              "position": 13.260416666666666,
              "duration": 0.015625
            },
            {
              "pitch": 61,
              "velocity": 90,
              "position": 13.5,
              "duration": 0.015625
            },
            {
              "pitch": 64,
              "velocity": 100,
              "position": 13.5,
              "duration": 0.015625
            },
            {
              "pitch": 33,
              "velocity": 72,
              "position": 13.5,
              "duration": 0.015625
            },
            {
              "pitch": 65,
              "velocity": 126,
              "position": 13.71875,
              "duration": 0.015625
            },
            {
              "pitch": 64,
              "velocity": 100,
              "position": 13.760416666666666,
              "duration": 0.015625
            },
            {
              "pitch": 60,
              "velocity": 108,
              "position": 13.760416666666666,
              "duration": 0.015625
            },
            {
              "pitch": 33,
              "velocity": 90,
              "position": 13.760416666666666,
              "duration": 0.015625
            },
            {
              "pitch": 65,
              "velocity": 106,
              "position": 13.770833333333334,
              "duration": 0.015625
            },
            {
              "pitch": 62,
              "velocity": 88,
              "position": 14,
              "duration": 0.015625
            },
            {
              "pitch": 61,
              "velocity": 72,
              "position": 14,
              "duration": 0.015625
            },
            {
              "pitch": 75,
              "velocity": 120,
              "position": 14.010416666666666,
              "duration": 0.015625
            },
            {
              "pitch": 33,
              "velocity": 90,
              "position": 14.010416666666666,
              "duration": 0.015625
            },
            {
              "pitch": 66,
              "velocity": 110,
              "position": 14.25,
              "duration": 0.015625
            },
            {
              "pitch": 62,
              "velocity": 88,
              "position": 14.25,
              "duration": 0.015625
            },
            {
              "pitch": 61,
              "velocity": 72,
              "position": 14.260416666666666,
              "duration": 0.015625
            },
            {
              "pitch": 33,
              "velocity": 72,
              "position": 14.260416666666666,
              "duration": 0.015625
            },
            {
              "pitch": 62,
              "velocity": 108,
              "position": 14.489583333333334,
              "duration": 0.015625
            },
            {
              "pitch": 66,
              "velocity": 92,
              "position": 14.5,
              "duration": 0.015625
            },
            {
              "pitch": 33,
              "velocity": 92,
              "position": 14.5,
              "duration": 0.015625
            },
            {
              "pitch": 61,
              "velocity": 80,
              "position": 14.5,
              "duration": 0.015625
            },
            {
              "pitch": 62,
              "velocity": 88,
              "position": 14.75,
              "duration": 0.015625
            },
            {
              "pitch": 60,
              "velocity": 92,
              "position": 14.75,
              "duration": 0.015625
            },
            {
              "pitch": 33,
              "velocity": 92,
              "position": 14.760416666666666,
              "duration": 0.015625
            },
            {
              "pitch": 75,
              "velocity": 112,
              "position": 14.760416666666666,
              "duration": 0.015625
            },
            {
              "pitch": 65,
              "velocity": 126,
              "position": 14.770833333333334,
              "duration": 0.015625
            }
          ]
        },
        "12": {
          "ctab": {
            "srcChannel": 12,
            "name": "Aco.Bass",
            "accType": "BASS",
            "editable": false,
            "mutedNotes": [],
            "mutedChords": [
              "dim7",
              "dim",
              "minMaj7(9)",
              "minMaj7",
              "min7(11)",
              "min7(9)",
              "min(9)",
              "m7b5",
              "min7",
              "min6",
              "min"
            ],
            "autoStart": false,
            "sourceChordNote": 0,
            "sourceChordType": "Maj",
            "ctb2Low": null,
            "ctb2Main": {
              "ntr": "ROOT_TRANSPOSITION",
              "ntt": "MELODY",
              "bassOn": true,
              "chordRootUpperLimit": 3,
              "noteLowLimit": 28,
              "noteHighLimit": 54,
              "rtr": "PITCH_SHIFT_TO_ROOT"
            },
            "ctb2High": null
          },
          "notes": [
            {
              "pitch": 36,
              "velocity": 120,
              "position": 0,
              "duration": 0.6354166666666666
            },
            {
              "pitch": 43,
              "velocity": 120,
              "position": 0.75,
              "duration": 0.7083333333333334
            },
            {
              "pitch": 48,
              "velocity": 118,
              "position": 1.5,
              "duration": 0.46875
            },
            {
              "pitch": 51,
              "velocity": 110,
              "position": 2,
              "duration": 0.7291666666666666
            },
            {
              "pitch": 46,
              "velocity": 122,
              "position": 2.7395833333333335,
              "duration": 0.11458333333333333
            },
            {
              "pitch": 46,
              "velocity": 104,
              "position": 3,
              "duration": 0.4375
            },
            {
              "pitch": 38,
              "velocity": 120,
              "position": 3.4895833333333335,
              "duration": 1.1770833333333333
            },
            {
              "pitch": 45,
              "velocity": 104,
              "position": 4.760416666666667,
              "duration": 0.6666666666666666
            },
            {
              "pitch": 43,
              "velocity": 120,
              "position": 5.5,
              "duration": 0.9583333333333334
            },
            {
              "pitch": 31,
              "velocity": 104,
              "position": 6.739583333333333,
              "duration": 0.14583333333333334
            },
            {
              "pitch": 31,
              "velocity": 104,
              "position": 7,
              "duration": 0.46875
            },
            {
              "pitch": 36,
              "velocity": 120,
              "position": 7.5,
              "duration": 1.1041666666666667
            },
            {
              "pitch": 43,
              "velocity": 126,
              "position": 8.760416666666666,
              "duration": 0.5416666666666666
            },
            {
              "pitch": 48,
              "velocity": 122,
              "position": 9.5,
              "duration": 1.1145833333333333
            },
            {
              "pitch": 36,
              "velocity": 126,
              "position": 10.770833333333334,
              "duration": 0.25
            }
          ]
        },
        "13": {
          "ctab": {
            "srcChannel": 13,
            "name": "Aco.Bass",
            "accType": "BASS",
            "editable": false,
            "mutedNotes": [],
            "mutedChords": [
              "1+2+5",
              "sus4",
              "1+5",
              "1+8",
              "7aug",
              "Maj7aug",
              "7(#9)",
              "7(b13)",
              "7(b9)",
              "7(13)",
              "7#11",
              "7(9)",
              "7b5",
              "7sus4",
              "7th",
              "aug",
              "Maj6(9)",
              "Maj7(9)",
              "Maj(9)",
              "Maj7#11",
              "Maj7",
              "Maj6",
              "Maj"
            ],
            "autoStart": false,
            "sourceChordNote": 0,
            "sourceChordType": "min",
            "ctb2Low": null,
            "ctb2Main": {
              "ntr": "ROOT_TRANSPOSITION",
              "ntt": "MELODY",
              "bassOn": true,
              "chordRootUpperLimit": 3,
              "noteLowLimit": 28,
              "noteHighLimit": 54,
              "rtr": "PITCH_SHIFT_TO_ROOT"
            },
            "ctb2High": null
          },
          "notes": [
            {
              "pitch": 36,
              "velocity": 104,
              "position": 0,
              "duration": 0.6666666666666666
            },
            {
              "pitch": 43,
              "velocity": 122,
              "position": 0.7604166666666666,
              "duration": 0.6458333333333334
            },
            {
              "pitch": 48,
              "velocity": 120,
              "position": 1.4895833333333333,
              "duration": 0.4166666666666667
            },
            {
              "pitch": 46,
              "velocity": 104,
              "position": 1.9895833333333333,
              "duration": 0.6666666666666666
            },
            {
              "pitch": 41,
              "velocity": 104,
              "position": 2.75,
              "duration": 0.13541666666666666
            },
            {
              "pitch": 41,
              "velocity": 104,
              "position": 2.9895833333333335,
              "duration": 0.2916666666666667
            },
            {
              "pitch": 44,
              "velocity": 120,
              "position": 3.4895833333333335,
              "duration": 1.0416666666666667
            },
            {
              "pitch": 39,
              "velocity": 104,
              "position": 4.739583333333333,
              "duration": 0.59375
            },
            {
              "pitch": 43,
              "velocity": 104,
              "position": 5.510416666666667,
              "duration": 1.0520833333333333
            },
            {
              "pitch": 31,
              "velocity": 120,
              "position": 6.75,
              "duration": 0.13541666666666666
            },
            {
              "pitch": 31,
              "velocity": 94,
              "position": 7,
              "duration": 0.2708333333333333
            },
            {
              "pitch": 38,
              "velocity": 104,
              "position": 7.489583333333333,
              "duration": 1.15625
            },
            {
              "pitch": 44,
              "velocity": 120,
              "position": 8.75,
              "duration": 0.5833333333333334
            },
            {
              "pitch": 43,
              "velocity": 120,
              "position": 9.489583333333334,
              "duration": 1.2291666666666667
            },
            {
              "pitch": 35,
              "velocity": 104,
              "position": 10.75,
              "duration": 0.625
            },
            {
              "pitch": 36,
              "velocity": 118,
              "position": 11.489583333333334,
              "duration": 1.1354166666666667
            },
            {
              "pitch": 48,
              "velocity": 88,
              "position": 12.739583333333334,
              "duration": 0.22916666666666666
            },
            {
              "pitch": 43,
              "velocity": 86,
              "position": 12.739583333333334,
              "duration": 0.22916666666666666
            },
            {
              "pitch": 48,
              "velocity": 100,
              "position": 13.260416666666666,
              "duration": 0.16666666666666666
            },
            {
              "pitch": 43,
              "velocity": 88,
              "position": 13.25,
              "duration": 0.21875
            },
            {
              "pitch": 43,
              "velocity": 114,
              "position": 13.760416666666666,
              "duration": 0.1875
            },
            {
              "pitch": 48,
              "velocity": 124,
              "position": 13.760416666666666,
              "duration": 0.20833333333333334
            },
            {
              "pitch": 36,
              "velocity": 126,
              "position": 14.75,
              "duration": 0.2916666666666667
            }
          ]
        },
        "14": {
          "ctab": {
            "srcChannel": 14,
            "name": "GrandPno",
            "accType": "CHORD1",
            "editable": false,
            "mutedNotes": [],
            "mutedChords": [
              "dim7",
              "dim",
              "minMaj7(9)",
              "minMaj7",
              "min7(11)",
              "min7(9)",
              "min(9)",
              "m7b5",
              "min7",
              "min6",
              "min"
            ],
            "autoStart": false,
            "sourceChordNote": 0,
            "sourceChordType": "Maj",
            "ctb2Low": null,
            "ctb2Main": {
              "ntr": "ROOT_TRANSPOSITION",
              "ntt": "BYPASS",
              "bassOn": false,
              "chordRootUpperLimit": 6,
              "noteLowLimit": 0,
              "noteHighLimit": 79,
              "rtr": "PITCH_SHIFT"
            },
            "ctb2High": null
          },
          "notes": [
            {
              "pitch": 60,
              "velocity": 92,
              "position": 0,
              "duration": 0.3645833333333333
            },
            {
              "pitch": 72,
              "velocity": 110,
              "position": 0,
              "duration": 0.3854166666666667
            },
            {
              "pitch": 79,
              "velocity": 92,
              "position": 0.5,
              "duration": 0.6770833333333334
            },
            {
              "pitch": 64,
              "velocity": 80,
              "position": 0.5,
              "duration": 0.6875
            },
            {
              "pitch": 67,
              "velocity": 68,
              "position": 0.5,
              "duration": 0.6875
            },
            {
              "pitch": 76,
              "velocity": 104,
              "position": 0.5,
              "duration": 0.7083333333333334
            },
            {
              "pitch": 71,
              "velocity": 92,
              "position": 1.25,
              "duration": 0.3333333333333333
            },
            {
              "pitch": 59,
              "velocity": 80,
              "position": 1.2604166666666667,
              "duration": 0.375
            },
            {
              "pitch": 61,
              "velocity": 90,
              "position": 1.7604166666666667,
              "duration": 0.4166666666666667
            },
            {
              "pitch": 73,
              "velocity": 90,
              "position": 1.75,
              "duration": 0.4583333333333333
            },
            {
              "pitch": 82,
              "velocity": 80,
              "position": 2.2604166666666665,
              "duration": 0.3645833333333333
            },
            {
              "pitch": 79,
              "velocity": 88,
              "position": 2.25,
              "duration": 0.40625
            },
            {
              "pitch": 70,
              "velocity": 72,
              "position": 2.2604166666666665,
              "duration": 0.40625
            },
            {
              "pitch": 67,
              "velocity": 68,
              "position": 2.2604166666666665,
              "duration": 0.4270833333333333
            },
            {
              "pitch": 61,
              "velocity": 92,
              "position": 2.75,
              "duration": 0.4375
            },
            {
              "pitch": 73,
              "velocity": 110,
              "position": 2.75,
              "duration": 0.4479166666666667
            },
            {
              "pitch": 70,
              "velocity": 80,
              "position": 3.2604166666666665,
              "duration": 0.375
            },
            {
              "pitch": 82,
              "velocity": 88,
              "position": 3.25,
              "duration": 0.3958333333333333
            },
            {
              "pitch": 79,
              "velocity": 88,
              "position": 3.25,
              "duration": 0.4166666666666667
            },
            {
              "pitch": 67,
              "velocity": 68,
              "position": 3.2604166666666665,
              "duration": 0.40625
            },
            {
              "pitch": 73,
              "velocity": 104,
              "position": 3.75,
              "duration": 0.17708333333333334
            },
            {
              "pitch": 61,
              "velocity": 110,
              "position": 3.75,
              "duration": 0.17708333333333334
            },
            {
              "pitch": 72,
              "velocity": 88,
              "position": 4,
              "duration": 0.17708333333333334
            },
            {
              "pitch": 60,
              "velocity": 88,
              "position": 4,
              "duration": 0.1875
            },
            {
              "pitch": 65,
              "velocity": 90,
              "position": 4.25,
              "duration": 0.1875
            },
            {
              "pitch": 77,
              "velocity": 104,
              "position": 4.25,
              "duration": 0.1875
            },
            {
              "pitch": 69,
              "velocity": 88,
              "position": 4.5,
              "duration": 0.23958333333333334
            },
            {
              "pitch": 81,
              "velocity": 76,
              "position": 4.5,
              "duration": 0.2604166666666667
            },
            {
              "pitch": 60,
              "velocity": 94,
              "position": 4.760416666666667,
              "duration": 0.40625
            },
            {
              "pitch": 72,
              "velocity": 80,
              "position": 4.760416666666667,
              "duration": 0.4270833333333333
            },
            {
              "pitch": 81,
              "velocity": 88,
              "position": 5.260416666666667,
              "duration": 0.3958333333333333
            },
            {
              "pitch": 69,
              "velocity": 76,
              "position": 5.25,
              "duration": 0.4375
            },
            {
              "pitch": 65,
              "velocity": 110,
              "position": 5.25,
              "duration": 0.4791666666666667
            },
            {
              "pitch": 77,
              "velocity": 90,
              "position": 5.25,
              "duration": 0.4791666666666667
            },
            {
              "pitch": 71,
              "velocity": 90,
              "position": 5.760416666666667,
              "duration": 0.4166666666666667
            },
            {
              "pitch": 59,
              "velocity": 90,
              "position": 5.760416666666667,
              "duration": 0.4479166666666667
            },
            {
              "pitch": 67,
              "velocity": 88,
              "position": 6.25,
              "duration": 0.3541666666666667
            },
            {
              "pitch": 65,
              "velocity": 88,
              "position": 6.25,
              "duration": 0.375
            },
            {
              "pitch": 79,
              "velocity": 88,
              "position": 6.260416666666667,
              "duration": 0.375
            },
            {
              "pitch": 77,
              "velocity": 110,
              "position": 6.260416666666667,
              "duration": 0.3958333333333333
            },
            {
              "pitch": 59,
              "velocity": 92,
              "position": 6.75,
              "duration": 0.4270833333333333
            },
            {
              "pitch": 71,
              "velocity": 92,
              "position": 6.75,
              "duration": 0.4791666666666667
            },
            {
              "pitch": 67,
              "velocity": 88,
              "position": 7.25,
              "duration": 0.1875
            },
            {
              "pitch": 65,
              "velocity": 88,
              "position": 7.25,
              "duration": 0.20833333333333334
            },
            {
              "pitch": 79,
              "velocity": 88,
              "position": 7.260416666666667,
              "duration": 0.19791666666666666
            },
            {
              "pitch": 77,
              "velocity": 76,
              "position": 7.260416666666667,
              "duration": 0.21875
            },
            {
              "pitch": 69,
              "velocity": 72,
              "position": 7.5,
              "duration": 0.1875
            },
            {
              "pitch": 57,
              "velocity": 92,
              "position": 7.5,
              "duration": 0.22916666666666666
            },
            {
              "pitch": 59,
              "velocity": 80,
              "position": 7.75,
              "duration": 0.17708333333333334
            },
            {
              "pitch": 71,
              "velocity": 94,
              "position": 7.75,
              "duration": 0.17708333333333334
            },
            {
              "pitch": 72,
              "velocity": 80,
              "position": 8.020833333333334,
              "duration": 0.17708333333333334
            },
            {
              "pitch": 60,
              "velocity": 90,
              "position": 8.010416666666666,
              "duration": 0.20833333333333334
            },
            {
              "pitch": 64,
              "velocity": 86,
              "position": 8.260416666666666,
              "duration": 0.16666666666666666
            },
            {
              "pitch": 76,
              "velocity": 86,
              "position": 8.260416666666666,
              "duration": 0.16666666666666666
            },
            {
              "pitch": 79,
              "velocity": 100,
              "position": 8.489583333333334,
              "duration": 0.22916666666666666
            },
            {
              "pitch": 67,
              "velocity": 84,
              "position": 8.510416666666666,
              "duration": 0.20833333333333334
            },
            {
              "pitch": 71,
              "velocity": 90,
              "position": 8.760416666666666,
              "duration": 0.4583333333333333
            },
            {
              "pitch": 59,
              "velocity": 92,
              "position": 8.770833333333334,
              "duration": 0.4479166666666667
            },
            {
              "pitch": 79,
              "velocity": 78,
              "position": 9.260416666666666,
              "duration": 0.3854166666666667
            },
            {
              "pitch": 64,
              "velocity": 90,
              "position": 9.260416666666666,
              "duration": 0.40625
            },
            {
              "pitch": 76,
              "velocity": 94,
              "position": 9.260416666666666,
              "duration": 0.4166666666666667
            },
            {
              "pitch": 67,
              "velocity": 80,
              "position": 9.260416666666666,
              "duration": 0.4166666666666667
            },
            {
              "pitch": 60,
              "velocity": 110,
              "position": 9.75,
              "duration": 0.4583333333333333
            },
            {
              "pitch": 72,
              "velocity": 110,
              "position": 9.75,
              "duration": 0.4791666666666667
            },
            {
              "pitch": 71,
              "velocity": 120,
              "position": 10.770833333333334,
              "duration": 0.22916666666666666
            },
            {
              "pitch": 76,
              "velocity": 120,
              "position": 10.770833333333334,
              "duration": 0.22916666666666666
            },
            {
              "pitch": 79,
              "velocity": 126,
              "position": 10.770833333333334,
              "duration": 0.25
            },
            {
              "pitch": 84,
              "velocity": 80,
              "position": 10.78125,
              "duration": 0.23958333333333334
            },
            {
              "pitch": 64,
              "velocity": 112,
              "position": 10.78125,
              "duration": 0.23958333333333334
            },
            {
              "pitch": 55,
              "velocity": 112,
              "position": 10.78125,
              "duration": 0.2604166666666667
            },
            {
              "pitch": 48,
              "velocity": 120,
              "position": 10.78125,
              "duration": 0.2708333333333333
            }
          ]
        },
        "15": {
          "ctab": {
            "srcChannel": 15,
            "name": "GrandPno",
            "accType": "CHORD1",
            "editable": false,
            "mutedNotes": [],
            "mutedChords": [
              "1+2+5",
              "sus4",
              "1+5",
              "1+8",
              "7aug",
              "Maj7aug",
              "7(#9)",
              "7(b13)",
              "7(b9)",
              "7(13)",
              "7#11",
              "7(9)",
              "7b5",
              "7sus4",
              "7th",
              "aug",
              "Maj6(9)",
              "Maj7(9)",
              "Maj(9)",
              "Maj7#11",
              "Maj7",
              "Maj6",
              "Maj"
            ],
            "autoStart": false,
            "sourceChordNote": 0,
            "sourceChordType": "min",
            "ctb2Low": null,
            "ctb2Main": {
              "ntr": "ROOT_TRANSPOSITION",
              "ntt": "BYPASS",
              "bassOn": false,
              "chordRootUpperLimit": 6,
              "noteLowLimit": 0,
              "noteHighLimit": 127,
              "rtr": "PITCH_SHIFT"
            },
            "ctb2High": null
          },
          "notes": [
            {
              "pitch": 62,
              "velocity": 126,
              "position": 0,
              "duration": 0.9791666666666666
            },
            {
              "pitch": 63,
              "velocity": 106,
              "position": 0,
              "duration": 0.9895833333333334
            },
            {
              "pitch": 67,
              "velocity": 126,
              "position": 0,
              "duration": 1
            },
            {
              "pitch": 48,
              "velocity": 94,
              "position": 0,
              "duration": 1.0104166666666667
            },
            {
              "pitch": 57,
              "velocity": 80,
              "position": 0,
              "duration": 1.0520833333333333
            },
            {
              "pitch": 63,
              "velocity": 102,
              "position": 1.2604166666666667,
              "duration": 0.125
            },
            {
              "pitch": 62,
              "velocity": 102,
              "position": 1.2604166666666667,
              "duration": 0.125
            },
            {
              "pitch": 57,
              "velocity": 110,
              "position": 1.2604166666666667,
              "duration": 0.13541666666666666
            },
            {
              "pitch": 48,
              "velocity": 94,
              "position": 1.2604166666666667,
              "duration": 0.14583333333333334
            },
            {
              "pitch": 67,
              "velocity": 102,
              "position": 1.2604166666666667,
              "duration": 0.14583333333333334
            },
            {
              "pitch": 62,
              "velocity": 90,
              "position": 1.7604166666666667,
              "duration": 1.6875
            },
            {
              "pitch": 67,
              "velocity": 110,
              "position": 1.7604166666666667,
              "duration": 1.75
            },
            {
              "pitch": 56,
              "velocity": 94,
              "position": 1.7604166666666667,
              "duration": 1.7604166666666667
            },
            {
              "pitch": 46,
              "velocity": 90,
              "position": 1.7604166666666667,
              "duration": 1.7708333333333333
            },
            {
              "pitch": 72,
              "velocity": 110,
              "position": 1.7604166666666667,
              "duration": 1.7708333333333333
            },
            {
              "pitch": 70,
              "velocity": 102,
              "position": 4.010416666666667,
              "duration": 0.5
            },
            {
              "pitch": 44,
              "velocity": 90,
              "position": 4.010416666666667,
              "duration": 0.5104166666666666
            },
            {
              "pitch": 60,
              "velocity": 94,
              "position": 4.010416666666667,
              "duration": 0.53125
            },
            {
              "pitch": 54,
              "velocity": 110,
              "position": 4.010416666666667,
              "duration": 0.53125
            },
            {
              "pitch": 65,
              "velocity": 102,
              "position": 4.010416666666667,
              "duration": 0.53125
            },
            {
              "pitch": 54,
              "velocity": 80,
              "position": 4.770833333333333,
              "duration": 0.09375
            },
            {
              "pitch": 70,
              "velocity": 70,
              "position": 4.770833333333333,
              "duration": 0.10416666666666667
            },
            {
              "pitch": 44,
              "velocity": 80,
              "position": 4.78125,
              "duration": 0.09375
            },
            {
              "pitch": 65,
              "velocity": 62,
              "position": 4.770833333333333,
              "duration": 0.11458333333333333
            },
            {
              "pitch": 60,
              "velocity": 80,
              "position": 4.770833333333333,
              "duration": 0.13541666666666666
            },
            {
              "pitch": 60,
              "velocity": 98,
              "position": 5.260416666666667,
              "duration": 0.125
            },
            {
              "pitch": 65,
              "velocity": 104,
              "position": 5.270833333333333,
              "duration": 0.125
            },
            {
              "pitch": 70,
              "velocity": 104,
              "position": 5.270833333333333,
              "duration": 0.125
            },
            {
              "pitch": 54,
              "velocity": 104,
              "position": 5.270833333333333,
              "duration": 0.13541666666666666
            },
            {
              "pitch": 44,
              "velocity": 108,
              "position": 5.270833333333333,
              "duration": 0.16666666666666666
            },
            {
              "pitch": 59,
              "velocity": 80,
              "position": 5.760416666666667,
              "duration": 1.8854166666666667
            },
            {
              "pitch": 63,
              "velocity": 94,
              "position": 5.760416666666667,
              "duration": 1.90625
            },
            {
              "pitch": 68,
              "velocity": 94,
              "position": 5.770833333333333,
              "duration": 1.90625
            },
            {
              "pitch": 53,
              "velocity": 94,
              "position": 5.760416666666667,
              "duration": 1.9270833333333333
            },
            {
              "pitch": 43,
              "velocity": 94,
              "position": 5.760416666666667,
              "duration": 1.9479166666666667
            },
            {
              "pitch": 68,
              "velocity": 76,
              "position": 7.760416666666667,
              "duration": 2.0520833333333335
            },
            {
              "pitch": 60,
              "velocity": 110,
              "position": 7.760416666666667,
              "duration": 2.0520833333333335
            },
            {
              "pitch": 62,
              "velocity": 88,
              "position": 7.760416666666667,
              "duration": 2.0833333333333335
            },
            {
              "pitch": 65,
              "velocity": 88,
              "position": 7.760416666666667,
              "duration": 2.09375
            },
            {
              "pitch": 50,
              "velocity": 88,
              "position": 7.760416666666667,
              "duration": 2.1354166666666665
            },
            {
              "pitch": 53,
              "velocity": 80,
              "position": 7.760416666666667,
              "duration": 2.1354166666666665
            },
            {
              "pitch": 63,
              "velocity": 104,
              "position": 9.989583333333334,
              "duration": 0.9791666666666666
            },
            {
              "pitch": 67,
              "velocity": 92,
              "position": 9.989583333333334,
              "duration": 1.0104166666666667
            },
            {
              "pitch": 59,
              "velocity": 94,
              "position": 9.989583333333334,
              "duration": 1.0208333333333333
            },
            {
              "pitch": 43,
              "velocity": 80,
              "position": 10,
              "duration": 1.03125
            },
            {
              "pitch": 53,
              "velocity": 80,
              "position": 9.989583333333334,
              "duration": 1.0625
            },
            {
              "pitch": 63,
              "velocity": 94,
              "position": 11.260416666666666,
              "duration": 0.08333333333333333
            },
            {
              "pitch": 59,
              "velocity": 94,
              "position": 11.260416666666666,
              "duration": 0.125
            },
            {
              "pitch": 67,
              "velocity": 94,
              "position": 11.260416666666666,
              "duration": 0.125
            },
            {
              "pitch": 43,
              "velocity": 90,
              "position": 11.260416666666666,
              "duration": 0.15625
            },
            {
              "pitch": 53,
              "velocity": 90,
              "position": 11.260416666666666,
              "duration": 0.15625
            },
            {
              "pitch": 62,
              "velocity": 112,
              "position": 11.760416666666666,
              "duration": 0.8333333333333334
            },
            {
              "pitch": 63,
              "velocity": 88,
              "position": 11.760416666666666,
              "duration": 0.8541666666666666
            },
            {
              "pitch": 72,
              "velocity": 88,
              "position": 11.760416666666666,
              "duration": 0.8541666666666666
            },
            {
              "pitch": 48,
              "velocity": 78,
              "position": 11.760416666666666,
              "duration": 0.875
            },
            {
              "pitch": 57,
              "velocity": 76,
              "position": 11.760416666666666,
              "duration": 0.875
            },
            {
              "pitch": 67,
              "velocity": 112,
              "position": 11.760416666666666,
              "duration": 0.8854166666666666
            },
            {
              "pitch": 72,
              "velocity": 80,
              "position": 12.770833333333334,
              "duration": 0.10416666666666667
            },
            {
              "pitch": 62,
              "velocity": 90,
              "position": 12.770833333333334,
              "duration": 0.11458333333333333
            },
            {
              "pitch": 43,
              "velocity": 94,
              "position": 12.770833333333334,
              "duration": 0.15625
            },
            {
              "pitch": 48,
              "velocity": 94,
              "position": 12.770833333333334,
              "duration": 0.15625
            },
            {
              "pitch": 63,
              "velocity": 90,
              "position": 12.770833333333334,
              "duration": 0.15625
            },
            {
              "pitch": 57,
              "velocity": 72,
              "position": 12.770833333333334,
              "duration": 0.16666666666666666
            },
            {
              "pitch": 67,
              "velocity": 72,
              "position": 12.770833333333334,
              "duration": 0.16666666666666666
            },
            {
              "pitch": 62,
              "velocity": 88,
              "position": 13.270833333333334,
              "duration": 0.10416666666666667
            },
            {
              "pitch": 72,
              "velocity": 84,
              "position": 13.270833333333334,
              "duration": 0.125
            },
            {
              "pitch": 43,
              "velocity": 88,
              "position": 13.270833333333334,
              "duration": 0.13541666666666666
            },
            {
              "pitch": 48,
              "velocity": 88,
              "position": 13.270833333333334,
              "duration": 0.13541666666666666
            },
            {
              "pitch": 63,
              "velocity": 80,
              "position": 13.260416666666666,
              "duration": 0.15625
            },
            {
              "pitch": 57,
              "velocity": 92,
              "position": 13.270833333333334,
              "duration": 0.15625
            },
            {
              "pitch": 67,
              "velocity": 80,
              "position": 13.260416666666666,
              "duration": 0.19791666666666666
            },
            {
              "pitch": 62,
              "velocity": 110,
              "position": 13.760416666666666,
              "duration": 0.125
            },
            {
              "pitch": 63,
              "velocity": 90,
              "position": 13.760416666666666,
              "duration": 0.15625
            },
            {
              "pitch": 72,
              "velocity": 110,
              "position": 13.760416666666666,
              "duration": 0.16666666666666666
            },
            {
              "pitch": 43,
              "velocity": 110,
              "position": 13.760416666666666,
              "duration": 0.19791666666666666
            },
            {
              "pitch": 48,
              "velocity": 110,
              "position": 13.760416666666666,
              "duration": 0.19791666666666666
            },
            {
              "pitch": 67,
              "velocity": 110,
              "position": 13.760416666666666,
              "duration": 0.19791666666666666
            },
            {
              "pitch": 57,
              "velocity": 88,
              "position": 13.770833333333334,
              "duration": 0.1875
            },
            {
              "pitch": 62,
              "velocity": 126,
              "position": 14.770833333333334,
              "duration": 0.17708333333333334
            },
            {
              "pitch": 67,
              "velocity": 94,
              "position": 14.770833333333334,
              "duration": 0.20833333333333334
            },
            {
              "pitch": 48,
              "velocity": 94,
              "position": 14.770833333333334,
              "duration": 0.20833333333333334
            },
            {
              "pitch": 72,
              "velocity": 126,
              "position": 14.770833333333334,
              "duration": 0.21875
            },
            {
              "pitch": 63,
              "velocity": 94,
              "position": 14.770833333333334,
              "duration": 0.22916666666666666
            },
            {
              "pitch": 57,
              "velocity": 94,
              "position": 14.770833333333334,
              "duration": 0.22916666666666666
            }
          ]
        }
      }
    }
  }
}