{
  "name": "Mambo.S635.prs",
  "tempo": 104,
  "timeSignature": "4/4",
  "ticksPerQuarter": 1920,
  "sffType": "SFF1",
  "division": "EIGHTH_SHUFFLE",
  "parts": {
    "Main_A": {
      "type": "Main_A",
      "sizeInBeats": 8,
      "channels": {
        "0": {
          "ctab": {
            "srcChannel": 0,
            "name": "Gtr FX",
            "accType": "CHORD1",
            "editable": true,
            "mutedNotes": [],
            "mutedChords": [],
            "autoStart": false,
            "sourceChordNote": 0,
            "sourceChordType": "Maj7",
            "ctb2Low": null,
            "ctb2Main": {
              "ntr": "ROOT_FIXED",
              "ntt": "BYPASS",
              "bassOn": false,
              "chordRootUpperLimit": 6,
              "noteLowLimit": 0,
              "noteHighLimit": 79,
              "rtr": "PITCH_SHIFT"
            },
            "ctb2High": null
          },
          "notes": [
            {
              "pitch": 108,
              "velocity": 119,
              "position": 0,
              "duration": 0.10416666666666667
            },
            {
              "pitch": 105,
              "velocity": 101,
              "position": 0.25,
              "duration": 0.10416666666666667
            },
            {
              "pitch": 104,
              "velocity": 76,
              "position": 0.5,
              "duration": 0.10416666666666667
            },
            {
              "pitch": 103,
              "velocity": 127,
              "position": 0.75,
              "duration": 0.10416666666666667
            },
            {
              "pitch": 100,
              "velocity": 81,
              "position": 1,
              "duration": 0.10416666666666667
            },
            {
              "pitch": 107,
              "velocity": 127,
              "position": 1.25,
              "duration": 0.10416666666666667
            },
            {
              "pitch": 106,
              "velocity": 67,
              "position": 1.5,
              "duration": 0.10416666666666667
            },
            {
              "pitch": 105,
              "velocity": 104,
              "position": 1.75,
              "duration": 0.10416666666666667
            },
            {
              "pitch": 104,
              "velocity": 67,
              "position": 2,
              "duration": 0.10416666666666667
            },
            {
              "pitch": 107,
              "velocity": 121,
              "position": 2.25,
              "duration": 0.10416666666666667
            },
            {
              "pitch": 106,
              "velocity": 62,
              "position": 2.5,
              "duration": 0.10416666666666667
            },
            {
              "pitch": 105,
              "velocity": 111,
              "position": 2.75,
              "duration": 0.10416666666666667
            },
            {
              "pitch": 100,
              "velocity": 65,
              "position": 3,
              "duration": 0.10416666666666667
            },
            {
              "pitch": 107,
              "velocity": 127,
              "position": 3.25,
              "duration": 0.10416666666666667
            },
            {
              "pitch": 104,
              "velocity": 69,
              "position": 3.5,
              "duration": 0.10416666666666667
            },
            {
              "pitch": 103,
              "velocity": 113,
              "position": 3.75,
              "duration": 0.10416666666666667
            },
            {
              "pitch": 108,
              "velocity": 119,
              "position": 4,
              "duration": 0.10416666666666667
            },
            {
              "pitch": 105,
              "velocity": 101,
              "position": 4.25,
              "duration": 0.10416666666666667
            },
            {
              "pitch": 104,
              "velocity": 76,
              "position": 4.5,
              "duration": 0.10416666666666667
            },
            {
              "pitch": 103,
              "velocity": 127,
              "position": 4.75,
              "duration": 0.10416666666666667
            },
            {
              "pitch": 100,
              "velocity": 81,
              "position": 5,
              "duration": 0.10416666666666667
            },
            {
              "pitch": 107,
              "velocity": 127,
              "position": 5.25,
              "duration": 0.10416666666666667
            },
            {
              "pitch": 106,
              "velocity": 67,
              "position": 5.5,
              "duration": 0.10416666666666667
            },
            {
              "pitch": 105,
              "velocity": 104,
              "position": 5.75,
              "duration": 0.10416666666666667
            },
            {
              "pitch": 104,
              "velocity": 61,
              "position": 6,
              "duration": 0.10416666666666667
            },
            {
              "pitch": 103,
              "velocity": 127,
              "position": 6.25,
              "duration": 0.10416666666666667
            },
            {
              "pitch": 104,
              "velocity": 62,
              "position": 6.5,
              "duration": 0.10416666666666667
            },
            {
              "pitch": 105,
              "velocity": 105,
              "position": 6.75,
              "duration": 0.10416666666666667
            },
            {
              "pitch": 100,
              "velocity": 53,
              "position": 7,
              "duration": 0.10416666666666667
            },
            {
              "pitch": 107,
              "velocity": 127,
              "position": 7.25,
              "duration": 0.10416666666666667
            },
            {
              "pitch": 104,
              "velocity": 69,
              "position": 7.5,
              "duration": 0.10416666666666667
            },
            {
              "pitch": 103,
              "velocity": 113,
              "position": 7.75,
              "duration": 0.10416666666666667
            }
          ]
        },
        "2": {
          "ctab": {
            "srcChannel": 2,
            "name": "Gtr Root",
            "accType": "CHORD1",
            "editable": false,
            "mutedNotes": [],
            "mutedChords": [
              "1+2+5",
              "sus4",
              "1+5",
              "1+8",
              "Maj7aug",
              "dim",
              "minMaj7(9)",
              "minMaj7",
              "min6",
              "min",
              "aug",
              "Maj7(9)",
              "Maj7#11",
              "Maj7",
              "Maj6",
              "Maj"
            ],
            "autoStart": false,
            "sourceChordNote": 0,
            "sourceChordType": "Maj7",
            "ctb2Low": null,
            "ctb2Main": {
              "ntr": "ROOT_TRANSPOSITION",
              "ntt": "CHORD",
              "bassOn": false,
              "chordRootUpperLimit": 6,
              "noteLowLimit": 0,
              "noteHighLimit": 127,
              "rtr": "PITCH_SHIFT"
            },
            "ctb2High": null
          },
          "notes": [
            {
              "pitch": 60,
              "velocity": 38,
              "position": 0,
              "duration": 0.23958333333333334
            },
            {
              "pitch": 60,
              "velocity": 20,
              "position": 0.5,
              "duration": 0.23958333333333334
            },
            {
              "pitch": 60,
              "velocity": 38,
              "position": 0.7604166666666666,
              "duration": 0.1875
            },
            {
              "pitch": 60,
              "velocity": 26,
              "position": 1.2604166666666667,
              "duration": 0.1875
            },
            {
              "pitch": 60,
              "velocity": 23,
              "position": 1.7604166666666667,
              "duration": 0.1875
            },
            {
              "pitch": 60,
              "velocity": 32,
              "position": 2.2604166666666665,
              "duration": 0.23958333333333334
            },
            {
              "pitch": 60,
              "velocity": 22,
              "position": 2.7604166666666665,
              "duration": 0.1875
            },
            {
              "pitch": 60,
              "velocity": 38,
              "position": 3.2604166666666665,
              "duration": 0.1875
            },
            {
              "pitch": 60,
              "velocity": 25,
              "position": 3.7604166666666665,
              "duration": 0.22916666666666666
            },
            {
              "pitch": 60,
              "velocity": 38,
              "position": 4,
              "duration": 0.23958333333333334
            },
            {
              "pitch": 60,
              "velocity": 20,
              "position": 4.5,
              "duration": 0.23958333333333334
            },
            {
              "pitch": 60,
              "velocity": 38,
              "position": 4.760416666666667,
              "duration": 0.1875
            },
            {
              "pitch": 60,
              "velocity": 26,
              "position": 5.260416666666667,
              "duration": 0.1875
            },
            {
              "pitch": 60,
              "velocity": 19,
              "position": 5.760416666666667,
              "duration": 0.1875
            },
            {
              "pitch": 60,
              "velocity": 32,
              "position": 6.260416666666667,
              "duration": 0.23958333333333334
            },
            {
              "pitch": 60,
              "velocity": 18,
              "position": 6.760416666666667,
              "duration": 0.1875
            },
            {
              "pitch": 60,
              "velocity": 38,
              "position": 7.260416666666667,
              "duration": 0.1875
            },
            {
              "pitch": 60,
              "velocity": 24,
              "position": 7.760416666666667,
              "duration": 0.22916666666666666
            }
          ]
        },
        "4": {
          "ctab": {
            "srcChannel": 4,
            "name": "Str Root",
            "accType": "PAD",
            "editable": false,
            "mutedNotes": [],
            "mutedChords": [
              "1+2+5",
              "sus4",
              "1+5",
              "1+8",
              "Maj7aug",
              "dim",
              "minMaj7(9)",
              "minMaj7",
              "min6",
              "min",
              "aug",
              "Maj7(9)",
              "Maj7#11",
              "Maj7",
              "Maj6",
              "Maj"
            ],
            "autoStart": false,
            "sourceChordNote": 0,
            "sourceChordType": "Maj7",
            "ctb2Low": null,
            "ctb2Main": {
              "ntr": "ROOT_TRANSPOSITION",
              "ntt": "CHORD",
              "bassOn": false,
              "chordRootUpperLimit": 6,
              "noteLowLimit": 0,
              "noteHighLimit": 127,
              "rtr": "PITCH_SHIFT"
            },
            "ctb2High": null
          },
          "notes": [
            {
              "pitch": 60,
              "velocity": 30,
              "position": 0,
              "duration": 7.989583333333333
            }
          ]
        },
        "7": {
          "ctab": {
            "srcChannel": 7,
            "name": "CC_Crash",
            "accType": "RHYTHM",
            "editable": false,
            "mutedNotes": [],
            "mutedChords": [
              "1+2+5",
              "sus4",
              "1+5",
              "1+8",
              "7aug",
              "Maj7aug",
              "7(#9)",
              "7(b13)",
              "7(b9)",
              "7(13)",
              "7#11",
              "7(9)",
              "7b5",
              "7sus4",
              "7th",
              "dim7",
              "dim",
              "minMaj7(9)",
              "minMaj7",
              "min7(11)",
              "min7(9)",
              "min(9)",
              "m7b5",
              "min7",
              "min6",
              "min",
              "aug",
              "Maj6(9)",
              "Maj7(9)",
              "Maj(9)",
              "Maj7#11",
              "Maj7",
              "Maj6",
              "Maj"
            ],
            "autoStart": true,
            "sourceChordNote": 0,
            "sourceChordType": "Maj",
            "ctb2Low": null,
            "ctb2Main": {
              "ntr": "ROOT_FIXED",
              "ntt": "BYPASS",
              "bassOn": false,
              "chordRootUpperLimit": 0,
              "noteLowLimit": 0,
              "noteHighLimit": 127,
              "rtr": "RETRIGGER"
            },
            "ctb2High": null
          },
          "notes": []
        },
        "8": {
          "ctab": {
            "srcChannel": 8,
            "name": "Perc",
            "accType": "SUBRHYTHM",
            "editable": false,
            "mutedNotes": [],
            "mutedChords": [],
            "autoStart": true,
            "sourceChordNote": 0,
            "sourceChordType": "Maj7",
            "ctb2Low": null,
            "ctb2Main": {
              "ntr": "ROOT_FIXED",
              "ntt": "BYPASS",
              "bassOn": false,
              "chordRootUpperLimit": 6,
              "noteLowLimit": 0,
              "noteHighLimit": 127,
              "rtr": "PITCH_SHIFT"
            },
            "ctb2High": null
          },
          "notes": [
            {
              "pitch": 23,
              "velocity": 101,
              "position": 0,
              "duration": 0.125
            },
            {
              "pitch": 38,
              "velocity": 84,
              "position": 0,
              "duration": 0.125
            },
            {
              "pitch": 22,
              "velocity": 74,
              "position": 0.25,
              "duration": 0.125
            },
            {
              "pitch": 39,
              "velocity": 74,
              "position": 0.25,
              "duration": 0.125
            },
            {
              "pitch": 28,
              "velocity": 107,
              "position": 0.5,
              "duration": 0.125
            },
            {
              "pitch": 36,
              "velocity": 88,
              "position": 0.5,
              "duration": 0.125
            },
            {
              "pitch": 22,
              "velocity": 74,
              "position": 0.75,
              "duration": 0.125
            },
            {
              "pitch": 40,
              "velocity": 97,
              "position": 0.75,
              "duration": 0.125
            },
            {
              "pitch": 23,
              "velocity": 80,
              "position": 1,
              "duration": 0.125
            },
            {
              "pitch": 38,
              "velocity": 89,
              "position": 1,
              "duration": 0.125
            },
            {
              "pitch": 22,
              "velocity": 86,
              "position": 1.25,
              "duration": 0.125
            },
            {
              "pitch": 39,
              "velocity": 74,
              "position": 1.25,
              "duration": 0.125
            },
            {
              "pitch": 24,
              "velocity": 94,
              "position": 1.5,
              "duration": 0.125
            },
            {
              "pitch": 42,
              "velocity": 102,
              "position": 1.5,
              "duration": 0.125
            },
            {
              "pitch": 24,
              "velocity": 100,
              "position": 1.75,
              "duration": 0.125
            },
            {
              "pitch": 37,
              "velocity": 88,
              "position": 1.75,
              "duration": 0.125
            },
            {
              "pitch": 23,
              "velocity": 81,
              "position": 2,
              "duration": 0.125
            },
            {
              "pitch": 38,
              "velocity": 84,
              "position": 2,
              "duration": 0.125
            },
            {
              "pitch": 22,
              "velocity": 63,
              "position": 2.25,
              "duration": 0.125
            },
            {
              "pitch": 39,
              "velocity": 74,
              "position": 2.25,
              "duration": 0.125
            },
            {
              "pitch": 28,
              "velocity": 107,
              "position": 2.5,
              "duration": 0.125
            },
            {
              "pitch": 36,
              "velocity": 88,
              "position": 2.5,
              "duration": 0.125
            },
            {
              "pitch": 22,
              "velocity": 63,
              "position": 2.75,
              "duration": 0.125
            },
            {
              "pitch": 40,
              "velocity": 97,
              "position": 2.75,
              "duration": 0.125
            },
            {
              "pitch": 23,
              "velocity": 81,
              "position": 3,
              "duration": 0.125
            },
            {
              "pitch": 38,
              "velocity": 89,
              "position": 3,
              "duration": 0.125
            },
            {
              "pitch": 22,
              "velocity": 63,
              "position": 3.25,
              "duration": 0.125
            },
            {
              "pitch": 39,
              "velocity": 74,
              "position": 3.25,
              "duration": 0.125
            },
            {
              "pitch": 31,
              "velocity": 99,
              "position": 3.5,
              "duration": 0.125
            },
            {
              "pitch": 42,
              "velocity": 102,
              "position": 3.5,
              "duration": 0.125
            },
            {
              "pitch": 24,
              "velocity": 97,
              "position": 3.75,
              "duration": 0.125
            },
            {
              "pitch": 40,
              "velocity": 90,
              "position": 3.75,
              "duration": 0.125
            },
            {
              "pitch": 23,
              "velocity": 101,
              "position": 4,
              "duration": 0.125
            },
            {
              "pitch": 38,
              "velocity": 84,
              "position": 4,
              "duration": 0.125
            },
            {
              "pitch": 22,
              "velocity": 74,
              "position": 4.25,
              "duration": 0.125
            },
            {
              "pitch": 39,
              "velocity": 74,
              "position": 4.25,
              "duration": 0.125
            },
            {
              "pitch": 28,
              "velocity": 107,
              "position": 4.5,
              "duration": 0.125
            },
            {
              "pitch": 36,
              "velocity": 88,
              "position": 4.5,
              "duration": 0.125
            },
            {
              "pitch": 22,
              "velocity": 74,
              "position": 4.75,
              "duration": 0.125
            },
            {
              "pitch": 40,
              "velocity": 97,
              "position": 4.75,
              "duration": 0.125
            },
            {
              "pitch": 23,
              "velocity": 80,
              "position": 5,
              "duration": 0.125
            },
            {
              "pitch": 38,
              "velocity": 89,
              "position": 5,
              "duration": 0.125
            },
            {
              "pitch": 22,
              "velocity": 86,
              "position": 5.25,
              "duration": 0.125
            },
            {
              "pitch": 39,
              "velocity": 74,
              "position": 5.25,
              "duration": 0.125
            },
            {
              "pitch": 24,
              "velocity": 94,
              "position": 5.5,
              "duration": 0.125
            },
            {
              "pitch": 42,
              "velocity": 102,
              "position": 5.5,
              "duration": 0.125
            },
            {
              "pitch": 24,
              "velocity": 100,
              "position": 5.75,
              "duration": 0.125
            },
            {
              "pitch": 37,
              "velocity": 88,
              "position": 5.75,
              "duration": 0.125
            },
            {
              "pitch": 23,
              "velocity": 81,
              "position": 6,
              "duration": 0.125
            },
            {
              "pitch": 38,
              "velocity": 84,
              "position": 6,
              "duration": 0.125
            },
            {
              "pitch": 22,
              "velocity": 63,
              "position": 6.25,
              "duration": 0.125
            },
            {
              "pitch": 39,
              "velocity": 74,
              "position": 6.25,
              "duration": 0.125
            },
            {
              "pitch": 28,
              "velocity": 107,
              "position": 6.5,
              "duration": 0.125
            },
            {
              "pitch": 36,
              "velocity": 88,
              "position": 6.5,
              "duration": 0.125
            },
            {
              "pitch": 22,
              "velocity": 63,
              "position": 6.75,
              "duration": 0.125
            },
            {
              "pitch": 40,
              "velocity": 97,
              "position": 6.75,
              "duration": 0.125
            },
            {
              "pitch": 23,
              "velocity": 81,
              "position": 7,
              "duration": 0.125
            },
            {
              "pitch": 38,
              "velocity": 89,
              "position": 7,
              "duration": 0.125
            },
            {
              "pitch": 22,
              "velocity": 63,
              "position": 7.25,
              "duration": 0.125
            },
            {
              "pitch": 39,
              "velocity": 74,
              "position": 7.25,
              "duration": 0.125
            },
            {
              "pitch": 31,
              "velocity": 99,
              "position": 7.5,
              "duration": 0.125
            },
            {
              "pitch": 42,
              "velocity": 102,
              "position": 7.5,
              "duration": 0.125
            },
            {
              "pitch": 24,
              "velocity": 97,
              "position": 7.75,
              "duration": 0.125
            },
            {
              "pitch": 40,
              "velocity": 90,
              "position": 7.75,
              "duration": 0.125
            }
          ]
        },
        "9": {
          "ctab": {
            "srcChannel": 9,
            "name": "Drums",
            "accType": "RHYTHM",
            "editable": false,
            "mutedNotes": [],
            "mutedChords": [],
            "autoStart": true,
            "sourceChordNote": 0,
            "sourceChordType": "Maj7",
            "ctb2Low": null,
            "ctb2Main": {
              "ntr": "ROOT_FIXED",
              "ntt": "BYPASS",
              "bassOn": false,
              "chordRootUpperLimit": 6,
              "noteLowLimit": 0,
              "noteHighLimit": 127,
              "rtr": "PITCH_SHIFT"
            },
            "ctb2High": null
          },
          "notes": [
            {
              "pitch": 35,
              "velocity": 107,
              "position": 0,
              "duration": 0.010416666666666666
            },
            {
              "pitch": 42,
              "velocity": 104,
              "position": 0,
              "duration": 0.010416666666666666
            },
            {
              "pitch": 42,
              "velocity": 90,
              "position": 0.25,
              "duration": 0.010416666666666666
            },
            {
              "pitch": 42,
              "velocity": 114,
              "position": 0.5,
              "duration": 0.010416666666666666
            },
            {
              "pitch": 42,
              "velocity": 99,
              "position": 0.75,
              "duration": 0.010416666666666666
            },
            {
              "pitch": 35,
              "velocity": 107,
              "position": 1,
              "duration": 0.010416666666666666
            },
            {
              "pitch": 40,
              "velocity": 105,
              "position": 1,
              "duration": 0.010416666666666666
            },
            {
              "pitch": 42,
              "velocity": 90,
              "position": 1.25,
              "duration": 0.010416666666666666
            },
            {
              "pitch": 42,
              "velocity": 114,
              "position": 1.5,
              "duration": 0.010416666666666666
            },
            {
              "pitch": 42,
              "velocity": 99,
              "position": 1.75,
              "duration": 0.010416666666666666
            },
            {
              "pitch": 35,
              "velocity": 107,
              "position": 2,
              "duration": 0.010416666666666666
            },
            {
              "pitch": 42,
              "velocity": 104,
              "position": 2,
              "duration": 0.010416666666666666
            },
            {
              "pitch": 42,
              "velocity": 90,
              "position": 2.25,
              "duration": 0.010416666666666666
            },
            {
              "pitch": 42,
              "velocity": 114,
              "position": 2.5,
              "duration": 0.010416666666666666
            },
            {
              "pitch": 42,
              "velocity": 99,
              "position": 2.75,
              "duration": 0.010416666666666666
            },
            {
              "pitch": 35,
              "velocity": 107,
              "position": 3,
              "duration": 0.010416666666666666
            },
            {
              "pitch": 40,
              "velocity": 105,
              "position": 3,
              "duration": 0.010416666666666666
            },
            {
              "pitch": 42,
              "velocity": 90,
              "position": 3.25,
              "duration": 0.010416666666666666
            },
            {
              "pitch": 42,
              "velocity": 114,
              "position": 3.5,
              "duration": 0.010416666666666666
            },
            {
              "pitch": 42,
              "velocity": 99,
              "position": 3.75,
              "duration": 0.010416666666666666
            },
            {
              "pitch": 35,
              "velocity": 107,
              "position": 4,
              "duration": 0.010416666666666666
            },
            {
              "pitch": 42,
              "velocity": 104,
              "position": 4,
              "duration": 0.010416666666666666
            },
            {
              "pitch": 42,
              "velocity": 90,
              "position": 4.25,
              "duration": 0.010416666666666666
            },
            {
              "pitch": 42,
              "velocity": 114,
              "position": 4.5,
              "duration": 0.010416666666666666
            },
            {
              "pitch": 42,
              "velocity": 99,
              "position": 4.75,
              "duration": 0.010416666666666666
            },
            {
              "pitch": 35,
              "velocity": 107,
              "position": 5,
              "duration": 0.010416666666666666
            },
            {
              "pitch": 40,
              "velocity": 105,
              "position": 5,
              "duration": 0.010416666666666666
            },
            {
              "pitch": 42,
              "velocity": 90,
              "position": 5.25,
              "duration": 0.010416666666666666
            },
            {
              "pitch": 42,
              "velocity": 114,
              "position": 5.5,
              "duration": 0.010416666666666666
            },
            {
              "pitch": 42,
              "velocity": 99,
              "position": 5.75,
              "duration": 0.010416666666666666
            },
            {
              "pitch": 35,
              "velocity": 107,
              "position": 6,
              "duration": 0.010416666666666666
            },
            {
              "pitch": 42,
              "velocity": 104,
              "position": 6,
              "duration": 0.010416666666666666
            },
            {
              "pitch": 42,
              "velocity": 90,
              "position": 6.25,
              "duration": 0.010416666666666666
            },
            {
              "pitch": 42,
              "velocity": 114,
              "position": 6.5,
              "duration": 0.010416666666666666
            },
            {
              "pitch": 42,
              "velocity": 99,
              "position": 6.75,
              "duration": 0.010416666666666666
            },
            {
              "pitch": 35,
              "velocity": 107,
              "position": 7,
              "duration": 0.010416666666666666
            },
            {
              "pitch": 40,
              "velocity": 105,
              "position": 7,
              "duration": 0.010416666666666666
            },
            {
              "pitch": 42,
              "velocity": 90,
              "position": 7.25,
              "duration": 0.010416666666666666
            },
            {
              "pitch": 42,
              "velocity": 114,
              "position": 7.5,
              "duration": 0.010416666666666666
            },
            {
              "pitch": 42,
              "velocity": 99,
              "position": 7.75,
              "duration": 0.010416666666666666
            }
          ]
        },
        "10": {
          "ctab": {
            "srcChannel": 10,
            "name": "Bass",
            "accType": "BASS",
            "editable": false,
            "mutedNotes": [],
            "mutedChords": [],
            "autoStart": false,
            "sourceChordNote": 0,
            "sourceChordType": "Maj7",
            "ctb2Low": null,
            "ctb2Main": {
              "ntr": "ROOT_TRANSPOSITION",
              "ntt": "MELODY",
              "bassOn": true,
              "chordRootUpperLimit": 8,
              "noteLowLimit": 28,
              "noteHighLimit": 127,
              "rtr": "PITCH_SHIFT_TO_ROOT"
            },
            "ctb2High": null
          },
          "notes": [
            {
              "pitch": 24,
              "velocity": 72,
              "position": 0,
              "duration": 0.4895833333333333
            },
            {
              "pitch": 31,
              "velocity": 72,
              "position": 0.75,
              "duration": 1.2395833333333333
            },
            {
              "pitch": 24,
              "velocity": 72,
              "position": 2,
              "duration": 0.4895833333333333
            },
            {
              "pitch": 31,
              "velocity": 72,
              "position": 2.75,
              "duration": 0.7395833333333334
            },
            {
              "pitch": 36,
              "velocity": 60,
              "position": 3.5,
              "duration": 0.4895833333333333
            },
            {
              "pitch": 24,
              "velocity": 72,
              "position": 4,
              "duration": 0.4895833333333333
            },
            {
              "pitch": 31,
              "velocity": 72,
              "position": 4.75,
              "duration": 1.2395833333333333
            },
            {
              "pitch": 24,
              "velocity": 72,
              "position": 6,
              "duration": 0.4895833333333333
            },
            {
              "pitch": 31,
              "velocity": 72,
              "position": 6.75,
              "duration": 0.7395833333333334
            },
            {
              "pitch": 36,
              "velocity": 60,
              "position": 7.5,
              "duration": 0.4895833333333333
            }
          ]
        },
        "11": {
          "ctab": {
            "srcChannel": 11,
            "name": "Gtr",
            "accType": "CHORD1",
            "editable": false,
            "mutedNotes": [],
            "mutedChords": [],
            "autoStart": false,
            "sourceChordNote": 0,
            "sourceChordType": "Maj7",
            "ctb2Low": null,
            "ctb2Main": {
              "ntr": "ROOT_FIXED",
              "ntt": "CHORD",
              "bassOn": false,
              "chordRootUpperLimit": 7,
              "noteLowLimit": 0,
              "noteHighLimit": 127,
              "rtr": "PITCH_SHIFT"
            },
            "ctb2High": null
          },
          "notes": [
            {
              "pitch": 55,
              "velocity": 38,
              "position": 0,
              "duration": 0.23958333333333334
            },
            {
              "pitch": 59,
              "velocity": 38,
              "position": 0,
              "duration": 0.23958333333333334
            },
            {
              "pitch": 64,
              "velocity": 38,
              "position": 0.010416666666666666,
              "duration": 0.23958333333333334
            },
            {
              "pitch": 55,
              "velocity": 20,
              "position": 0.5,
              "duration": 0.23958333333333334
            },
            {
              "pitch": 59,
              "velocity": 20,
              "position": 0.5,
              "duration": 0.23958333333333334
            },
            {
              "pitch": 59,
              "velocity": 38,
              "position": 0.75,
              "duration": 0.1875
            },
            {
              "pitch": 55,
              "velocity": 38,
              "position": 0.7604166666666666,
              "duration": 0.1875
            },
            {
              "pitch": 59,
              "velocity": 28,
              "position": 1.25,
              "duration": 0.1875
            },
            {
              "pitch": 64,
              "velocity": 28,
              "position": 1.25,
              "duration": 0.1875
            },
            {
              "pitch": 55,
              "velocity": 28,
              "position": 1.2604166666666667,
              "duration": 0.1875
            },
            {
              "pitch": 59,
              "velocity": 26,
              "position": 1.75,
              "duration": 0.1875
            },
            {
              "pitch": 64,
              "velocity": 26,
              "position": 1.75,
              "duration": 0.1875
            },
            {
              "pitch": 55,
              "velocity": 26,
              "position": 1.7604166666666667,
              "duration": 0.1875
            },
            {
              "pitch": 59,
              "velocity": 34,
              "position": 2.25,
              "duration": 0.23958333333333334
            },
            {
              "pitch": 64,
              "velocity": 40,
              "position": 2.25,
              "duration": 0.23958333333333334
            },
            {
              "pitch": 55,
              "velocity": 34,
              "position": 2.2604166666666665,
              "duration": 0.23958333333333334
            },
            {
              "pitch": 59,
              "velocity": 24,
              "position": 2.75,
              "duration": 0.1875
            },
            {
              "pitch": 64,
              "velocity": 24,
              "position": 2.75,
              "duration": 0.1875
            },
            {
              "pitch": 55,
              "velocity": 24,
              "position": 2.7604166666666665,
              "duration": 0.1875
            },
            {
              "pitch": 59,
              "velocity": 36,
              "position": 3.25,
              "duration": 0.1875
            },
            {
              "pitch": 64,
              "velocity": 36,
              "position": 3.25,
              "duration": 0.1875
            },
            {
              "pitch": 55,
              "velocity": 36,
              "position": 3.2604166666666665,
              "duration": 0.1875
            },
            {
              "pitch": 55,
              "velocity": 25,
              "position": 3.7604166666666665,
              "duration": 0.22916666666666666
            },
            {
              "pitch": 59,
              "velocity": 25,
              "position": 3.75,
              "duration": 0.24166666666666667
            },
            {
              "pitch": 64,
              "velocity": 25,
              "position": 3.75,
              "duration": 0.24166666666666667
            },
            {
              "pitch": 55,
              "velocity": 38,
              "position": 4,
              "duration": 0.23958333333333334
            },
            {
              "pitch": 59,
              "velocity": 38,
              "position": 4,
              "duration": 0.23958333333333334
            },
            {
              "pitch": 64,
              "velocity": 38,
              "position": 4.010416666666667,
              "duration": 0.23958333333333334
            },
            {
              "pitch": 55,
              "velocity": 20,
              "position": 4.5,
              "duration": 0.23958333333333334
            },
            {
              "pitch": 59,
              "velocity": 20,
              "position": 4.5,
              "duration": 0.23958333333333334
            },
            {
              "pitch": 59,
              "velocity": 38,
              "position": 4.75,
              "duration": 0.1875
            },
            {
              "pitch": 55,
              "velocity": 38,
              "position": 4.760416666666667,
              "duration": 0.1875
            },
            {
              "pitch": 59,
              "velocity": 28,
              "position": 5.25,
              "duration": 0.1875
            },
            {
              "pitch": 64,
              "velocity": 28,
              "position": 5.25,
              "duration": 0.1875
            },
            {
              "pitch": 55,
              "velocity": 28,
              "position": 5.260416666666667,
              "duration": 0.1875
            },
            {
              "pitch": 59,
              "velocity": 22,
              "position": 5.75,
              "duration": 0.1875
            },
            {
              "pitch": 64,
              "velocity": 22,
              "position": 5.75,
              "duration": 0.1875
            },
            {
              "pitch": 55,
              "velocity": 22,
              "position": 5.760416666666667,
              "duration": 0.1875
            },
            {
              "pitch": 59,
              "velocity": 34,
              "position": 6.25,
              "duration": 0.23958333333333334
            },
            {
              "pitch": 64,
              "velocity": 40,
              "position": 6.25,
              "duration": 0.23958333333333334
            },
            {
              "pitch": 55,
              "velocity": 34,
              "position": 6.260416666666667,
              "duration": 0.23958333333333334
            },
            {
              "pitch": 59,
              "velocity": 20,
              "position": 6.75,
              "duration": 0.1875
            },
            {
              "pitch": 64,
              "velocity": 20,
              "position": 6.75,
              "duration": 0.1875
            },
            {
              "pitch": 55,
              "velocity": 20,
              "position": 6.760416666666667,
              "duration": 0.1875
            },
            {
              "pitch": 59,
              "velocity": 36,
              "position": 7.25,
              "duration": 0.1875
            },
            {
              "pitch": 64,
              "velocity": 36,
              "position": 7.25,
              "duration": 0.1875
            },
            {
              "pitch": 55,
              "velocity": 36,
              "position": 7.260416666666667,
              "duration": 0.1875
            },
            {
              "pitch": 55,
              "velocity": 24,
              "position": 7.760416666666667,
              "duration": 0.22916666666666666
            },
            {
              "pitch": 59,
              "velocity": 24,
              "position": 7.75,
              "duration": 0.24166666666666667
            },
            {
              "pitch": 64,
              "velocity": 24,
              "position": 7.75,
              "duration": 0.24166666666666667
            }
          ]
        },
        "12": {
          "ctab": {
            "srcChannel": 12,
            "name": "Pno",
            "accType": "CHORD2",
            "editable": false,
            "mutedNotes": [],
            "mutedChords": [],
            "autoStart": false,
            "sourceChordNote": 0,
            "sourceChordType": "Maj7",
            "ctb2Low": null,
            "ctb2Main": {
              "ntr": "ROOT_FIXED",
              "ntt": "CHORD",
              "bassOn": false,
              "chordRootUpperLimit": 7,
              "noteLowLimit": 0,
              "noteHighLimit": 127,
              "rtr": "PITCH_SHIFT"
            },
            "ctb2High": null
          },
          "notes": [
            {
              "pitch": 55,
              "velocity": 74,
              "position": 1,
              "duration": 0.21875
            },
            {
              "pitch": 59,
              "velocity": 74,
              "position": 1,
              "duration": 0.21875
            },
            {
              "pitch": 64,
              "velocity": 74,
              "position": 1,
              "duration": 0.21875
            },
            {
              "pitch": 55,
              "velocity": 62,
              "position": 1.25,
              "duration": 0.11458333333333333
            },
            {
              "pitch": 59,
              "velocity": 62,
              "position": 1.25,
              "duration": 0.11458333333333333
            },
            {
              "pitch": 64,
              "velocity": 62,
              "position": 1.25,
              "duration": 0.11458333333333333
            },
            {
              "pitch": 55,
              "velocity": 67,
              "position": 2,
              "duration": 0.10416666666666667
            },
            {
              "pitch": 59,
              "velocity": 67,
              "position": 2,
              "duration": 0.10416666666666667
            },
            {
              "pitch": 64,
              "velocity": 67,
              "position": 2,
              "duration": 0.10416666666666667
            },
            {
              "pitch": 55,
              "velocity": 74,
              "position": 2.75,
              "duration": 0.625
            },
            {
              "pitch": 59,
              "velocity": 74,
              "position": 2.75,
              "duration": 0.625
            },
            {
              "pitch": 64,
              "velocity": 74,
              "position": 2.75,
              "duration": 0.625
            },
            {
              "pitch": 55,
              "velocity": 67,
              "position": 3.5,
              "duration": 0.09375
            },
            {
              "pitch": 59,
              "velocity": 67,
              "position": 3.5,
              "duration": 0.09375
            },
            {
              "pitch": 64,
              "velocity": 67,
              "position": 3.5,
              "duration": 0.09375
            },
            {
              "pitch": 55,
              "velocity": 74,
              "position": 5,
              "duration": 0.21875
            },
            {
              "pitch": 59,
              "velocity": 74,
              "position": 5,
              "duration": 0.21875
            },
            {
              "pitch": 64,
              "velocity": 74,
              "position": 5,
              "duration": 0.21875
            },
            {
              "pitch": 55,
              "velocity": 62,
              "position": 5.25,
              "duration": 0.11458333333333333
            },
            {
              "pitch": 59,
              "velocity": 62,
              "position": 5.25,
              "duration": 0.11458333333333333
            },
            {
              "pitch": 64,
              "velocity": 62,
              "position": 5.25,
              "duration": 0.11458333333333333
            },
            {
              "pitch": 55,
              "velocity": 67,
              "position": 6,
              "duration": 0.10416666666666667
            },
            {
              "pitch": 59,
              "velocity": 67,
              "position": 6,
              "duration": 0.10416666666666667
            },
            {
              "pitch": 64,
              "velocity": 67,
              "position": 6,
              "duration": 0.10416666666666667
            },
            {
              "pitch": 55,
              "velocity": 74,
              "position": 6.75,
              "duration": 0.625
            },
            {
              "pitch": 59,
              "velocity": 74,
              "position": 6.75,
              "duration": 0.625
            },
            {
              "pitch": 64,
              "velocity": 74,
              "position": 6.75,
              "duration": 0.625
            },
            {
              "pitch": 55,
              "velocity": 67,
              "position": 7.5,
              "duration": 0.09375
            },
            {
              "pitch": 59,
              "velocity": 67,
              "position": 7.5,
              "duration": 0.09375
            },
            {
              "pitch": 64,
              "velocity": 67,
              "position": 7.5,
              "duration": 0.09375
            }
          ]
        },
        "13": {
          "ctab": {
            "srcChannel": 13,
            "name": "Str",
            "accType": "PAD",
            "editable": false,
            "mutedNotes": [],
            "mutedChords": [],
            "autoStart": false,
            "sourceChordNote": 0,
            "sourceChordType": "Maj7",
            "ctb2Low": null,
            "ctb2Main": {
              "ntr": "ROOT_FIXED",
              "ntt": "CHORD",
              "bassOn": false,
              "chordRootUpperLimit": 7,
              "noteLowLimit": 0,
              "noteHighLimit": 127,
              "rtr": "PITCH_SHIFT"
            },
            "ctb2High": null
          },
          "notes": [
            {
              "pitch": 55,
              "velocity": 30,
              "position": 0,
              "duration": 7.989583333333333
            },
            {
              "pitch": 59,
              "velocity": 30,
              "position": 0,
              "duration": 7.989583333333333
            },
            {
              "pitch": 64,
              "velocity": 30,
              "position": 0,
              "duration": 7.989583333333333
            }
          ]
        },
        "14": {
          "ctab": {
            "srcChannel": 14,
            "name": "Brass",
            "accType": "PHRASE1",
            "editable": false,
            "mutedNotes": [],
            "mutedChords": [],
            "autoStart": false,
            "sourceChordNote": 0,
            "sourceChordType": "Maj7",
            "ctb2Low": null,
            "ctb2Main": {
              "ntr": "ROOT_FIXED",
              "ntt": "CHORD",
              "bassOn": false,
              "chordRootUpperLimit": 7,
              "noteLowLimit": 0,
              "noteHighLimit": 127,
              "rtr": "PITCH_SHIFT"
            },
            "ctb2High": null
          },
          "notes": []
        }
      }
    },
    "Main_B": {
      "type": "Main_B",
      "sizeInBeats": 4,
      "channels": {
        "0": {
          "ctab": {
            "srcChannel": 0,
            "name": "Gtr FX",
            "accType": "CHORD1",
            "editable": true,
            "mutedNotes": [],
            "mutedChords": [],
            "autoStart": false,
            "sourceChordNote": 0,
            "sourceChordType": "Maj7",
            "ctb2Low": null,
            "ctb2Main": {
              "ntr": "ROOT_FIXED",
              "ntt": "BYPASS",
              "bassOn": false,
              "chordRootUpperLimit": 6,
              "noteLowLimit": 0,
              "noteHighLimit": 79,
              "rtr": "PITCH_SHIFT"
            },
            "ctb2High": null
          },
          "notes": [
            {
              "pitch": 108,
              "velocity": 119,
              "position": 0,
              "duration": 0.10416666666666667
            },
            {
              "pitch": 105,
              "velocity": 67,
              "position": 0.25,
              "duration": 0.10416666666666667
            },
            {
              "pitch": 104,
              "velocity": 81,
              "position": 0.5,
              "duration": 0.10416666666666667
            },
            {
              "pitch": 103,
              "velocity": 127,
              "position": 0.75,
              "duration": 0.10416666666666667
            },
            {
              "pitch": 100,
              "velocity": 81,
              "position": 1,
              "duration": 0.10416666666666667
            },
            {
              "pitch": 101,
              "velocity": 127,
              "position": 1.25,
              "duration": 0.10416666666666667
            },
            {
              "pitch": 102,
              "velocity": 63,
              "position": 1.5,
              "duration": 0.10416666666666667
            },
            {
              "pitch": 105,
              "velocity": 115,
              "position": 1.75,
              "duration": 0.10416666666666667
            },
            {
              "pitch": 104,
              "velocity": 67,
              "position": 2,
              "duration": 0.10416666666666667
            },
            {
              "pitch": 103,
              "velocity": 121,
              "position": 2.25,
              "duration": 0.10416666666666667
            },
            {
              "pitch": 102,
              "velocity": 57,
              "position": 2.5,
              "duration": 0.10416666666666667
            },
            {
              "pitch": 105,
              "velocity": 111,
              "position": 2.75,
              "duration": 0.10416666666666667
            },
            {
              "pitch": 108,
              "velocity": 117,
              "position": 3,
              "duration": 0.10416666666666667
            },
            {
              "pitch": 107,
              "velocity": 97,
              "position": 3.25,
              "duration": 0.10416666666666667
            },
            {
              "pitch": 104,
              "velocity": 65,
              "position": 3.5,
              "duration": 0.10416666666666667
            },
            {
              "pitch": 105,
              "velocity": 113,
              "position": 3.75,
              "duration": 0.10416666666666667
            }
          ]
        },
        "2": {
          "ctab": {
            "srcChannel": 2,
            "name": "Gtr Root",
            "accType": "CHORD1",
            "editable": false,
            "mutedNotes": [],
            "mutedChords": [
              "1+2+5",
              "sus4",
              "1+5",
              "1+8",
              "Maj7aug",
              "dim",
              "minMaj7(9)",
              "minMaj7",
              "min6",
              "min",
              "aug",
              "Maj7(9)",
              "Maj7#11",
              "Maj7",
              "Maj6",
              "Maj"
            ],
            "autoStart": false,
            "sourceChordNote": 0,
            "sourceChordType": "Maj7",
            "ctb2Low": null,
            "ctb2Main": {
              "ntr": "ROOT_TRANSPOSITION",
              "ntt": "CHORD",
              "bassOn": false,
              "chordRootUpperLimit": 6,
              "noteLowLimit": 0,
              "noteHighLimit": 127,
              "rtr": "PITCH_SHIFT"
            },
            "ctb2High": null
          },
          "notes": [
            {
              "pitch": 60,
              "velocity": 38,
              "position": 0,
              "duration": 0.49166666666666664
            },
            {
              "pitch": 60,
              "velocity": 20,
              "position": 0.5104166666666666,
              "duration": 0.22916666666666666
            },
            {
              "pitch": 60,
              "velocity": 38,
              "position": 0.75,
              "duration": 0.1875
            },
            {
              "pitch": 60,
              "velocity": 25,
              "position": 1.2604166666666667,
              "duration": 0.1875
            },
            {
              "pitch": 60,
              "velocity": 38,
              "position": 1.7604166666666667,
              "duration": 0.1875
            },
            {
              "pitch": 60,
              "velocity": 30,
              "position": 2.2604166666666665,
              "duration": 0.23958333333333334
            },
            {
              "pitch": 60,
              "velocity": 20,
              "position": 2.7604166666666665,
              "duration": 0.23125
            },
            {
              "pitch": 60,
              "velocity": 38,
              "position": 3,
              "duration": 0.4895833333333333
            },
            {
              "pitch": 60,
              "velocity": 28,
              "position": 3.5,
              "duration": 0.24166666666666667
            },
            {
              "pitch": 60,
              "velocity": 20,
              "position": 3.7604166666666665,
              "duration": 0.22916666666666666
            }
          ]
        },
        "4": {
          "ctab": {
            "srcChannel": 4,
            "name": "Str Root",
            "accType": "PAD",
            "editable": false,
            "mutedNotes": [],
            "mutedChords": [
              "1+2+5",
              "sus4",
              "1+5",
              "1+8",
              "Maj7aug",
              "dim",
              "minMaj7(9)",
              "minMaj7",
              "min6",
              "min",
              "aug",
              "Maj7(9)",
              "Maj7#11",
              "Maj7",
              "Maj6",
              "Maj"
            ],
            "autoStart": false,
            "sourceChordNote": 0,
            "sourceChordType": "Maj7",
            "ctb2Low": null,
            "ctb2Main": {
              "ntr": "ROOT_TRANSPOSITION",
              "ntt": "CHORD",
              "bassOn": false,
              "chordRootUpperLimit": 6,
              "noteLowLimit": 0,
              "noteHighLimit": 127,
              "rtr": "PITCH_SHIFT"
            },
            "ctb2High": null
          },
          "notes": []
        },
        "7": {
          "ctab": {
            "srcChannel": 7,
            "name": "CC_Crash",
            "accType": "RHYTHM",
            "editable": false,
            "mutedNotes": [],
            "mutedChords": [
              "1+2+5",
              "sus4",
              "1+5",
              "1+8",
              "7aug",
              "Maj7aug",
              "7(#9)",
              "7(b13)",
              "7(b9)",
              "7(13)",
              "7#11",
              "7(9)",
              "7b5",
              "7sus4",
              "7th",
              "dim7",
              "dim",
              "minMaj7(9)",
              "minMaj7",
              "min7(11)",
              "min7(9)",
              "min(9)",
              "m7b5",
              "min7",
              "min6",
              "min",
              "aug",
              "Maj6(9)",
              "Maj7(9)",
              "Maj(9)",
              "Maj7#11",
              "Maj7",
              "Maj6",
              "Maj"
            ],
            "autoStart": true,
            "sourceChordNote": 0,
            "sourceChordType": "Maj",
            "ctb2Low": null,
            "ctb2Main": {
              "ntr": "ROOT_FIXED",
              "ntt": "BYPASS",
              "bassOn": false,
              "chordRootUpperLimit": 0,
              "noteLowLimit": 0,
              "noteHighLimit": 127,
              "rtr": "RETRIGGER"
            },
            "ctb2High": null
          },
          "notes": []
        },
        "8": {
          "ctab": {
            "srcChannel": 8,
            "name": "Perc",
            "accType": "SUBRHYTHM",
            "editable": false,
            "mutedNotes": [],
            "mutedChords": [],
            "autoStart": true,
            "sourceChordNote": 0,
            "sourceChordType": "Maj7",
            "ctb2Low": null,
            "ctb2Main": {
              "ntr": "ROOT_FIXED",
              "ntt": "BYPASS",
              "bassOn": false,
              "chordRootUpperLimit": 6,
              "noteLowLimit": 0,
              "noteHighLimit": 127,
              "rtr": "PITCH_SHIFT"
            },
            "ctb2High": null
          },
          "notes": [
            {
              "pitch": 23,
              "velocity": 101,
              "position": 0,
              "duration": 0.125
            },
            {
              "pitch": 40,
              "velocity": 95,
              "position": 0,
              "duration": 0.125
            },
            {
              "pitch": 22,
              "velocity": 74,
              "position": 0.25,
              "duration": 0.125
            },
            {
              "pitch": 38,
              "velocity": 88,
              "position": 0.25,
              "duration": 0.125
            },
            {
              "pitch": 28,
              "velocity": 107,
              "position": 0.5,
              "duration": 0.125
            },
            {
              "pitch": 36,
              "velocity": 90,
              "position": 0.5,
              "duration": 0.125
            },
            {
              "pitch": 22,
              "velocity": 74,
              "position": 0.75,
              "duration": 0.125
            },
            {
              "pitch": 40,
              "velocity": 99,
              "position": 0.75,
              "duration": 0.125
            },
            {
              "pitch": 23,
              "velocity": 80,
              "position": 1,
              "duration": 0.125
            },
            {
              "pitch": 38,
              "velocity": 87,
              "position": 1,
              "duration": 0.125
            },
            {
              "pitch": 22,
              "velocity": 86,
              "position": 1.25,
              "duration": 0.125
            },
            {
              "pitch": 39,
              "velocity": 76,
              "position": 1.25,
              "duration": 0.125
            },
            {
              "pitch": 24,
              "velocity": 94,
              "position": 1.5,
              "duration": 0.125
            },
            {
              "pitch": 42,
              "velocity": 104,
              "position": 1.5,
              "duration": 0.125
            },
            {
              "pitch": 24,
              "velocity": 100,
              "position": 1.75,
              "duration": 0.125
            },
            {
              "pitch": 43,
              "velocity": 111,
              "position": 1.75,
              "duration": 0.125
            },
            {
              "pitch": 23,
              "velocity": 81,
              "position": 2,
              "duration": 0.125
            },
            {
              "pitch": 38,
              "velocity": 78,
              "position": 2,
              "duration": 0.125
            },
            {
              "pitch": 22,
              "velocity": 63,
              "position": 2.25,
              "duration": 0.125
            },
            {
              "pitch": 43,
              "velocity": 110,
              "position": 2.25,
              "duration": 0.125
            },
            {
              "pitch": 28,
              "velocity": 107,
              "position": 2.5,
              "duration": 0.125
            },
            {
              "pitch": 43,
              "velocity": 111,
              "position": 2.5,
              "duration": 0.125
            },
            {
              "pitch": 22,
              "velocity": 63,
              "position": 2.75,
              "duration": 0.125
            },
            {
              "pitch": 40,
              "velocity": 99,
              "position": 2.75,
              "duration": 0.125
            },
            {
              "pitch": 23,
              "velocity": 81,
              "position": 3,
              "duration": 0.125
            },
            {
              "pitch": 38,
              "velocity": 78,
              "position": 3,
              "duration": 0.125
            },
            {
              "pitch": 22,
              "velocity": 63,
              "position": 3.25,
              "duration": 0.125
            },
            {
              "pitch": 39,
              "velocity": 76,
              "position": 3.25,
              "duration": 0.125
            },
            {
              "pitch": 31,
              "velocity": 99,
              "position": 3.5,
              "duration": 0.125
            },
            {
              "pitch": 42,
              "velocity": 104,
              "position": 3.5,
              "duration": 0.125
            },
            {
              "pitch": 24,
              "velocity": 97,
              "position": 3.75,
              "duration": 0.125
            },
            {
              "pitch": 40,
              "velocity": 92,
              "position": 3.75,
              "duration": 0.125
            }
          ]
        },
        "9": {
          "ctab": {
            "srcChannel": 9,
            "name": "Drums",
            "accType": "RHYTHM",
            "editable": false,
            "mutedNotes": [],
            "mutedChords": [],
            "autoStart": true,
            "sourceChordNote": 0,
            "sourceChordType": "Maj7",
            "ctb2Low": null,
            "ctb2Main": {
              "ntr": "ROOT_FIXED",
              "ntt": "BYPASS",
              "bassOn": false,
              "chordRootUpperLimit": 6,
              "noteLowLimit": 0,
              "noteHighLimit": 127,
              "rtr": "PITCH_SHIFT"
            },
            "ctb2High": null
          },
          "notes": [
            {
              "pitch": 35,
              "velocity": 107,
              "position": 0,
              "duration": 0.010416666666666666
            },
            {
              "pitch": 42,
              "velocity": 104,
              "position": 0,
              "duration": 0.010416666666666666
            },
            {
              "pitch": 42,
              "velocity": 90,
              "position": 0.25,
              "duration": 0.010416666666666666
            },
            {
              "pitch": 42,
              "velocity": 114,
              "position": 0.5,
              "duration": 0.010416666666666666
            },
            {
              "pitch": 35,
              "velocity": 107,
              "position": 0.75,
              "duration": 0.010416666666666666
            },
            {
              "pitch": 42,
              "velocity": 100,
              "position": 0.75,
              "duration": 0.010416666666666666
            },
            {
              "pitch": 40,
              "velocity": 112,
              "position": 1,
              "duration": 0.010416666666666666
            },
            {
              "pitch": 42,
              "velocity": 90,
              "position": 1.25,
              "duration": 0.010416666666666666
            },
            {
              "pitch": 35,
              "velocity": 93,
              "position": 1.5,
              "duration": 0.010416666666666666
            },
            {
              "pitch": 42,
              "velocity": 114,
              "position": 1.5,
              "duration": 0.010416666666666666
            },
            {
              "pitch": 42,
              "velocity": 100,
              "position": 1.75,
              "duration": 0.010416666666666666
            },
            {
              "pitch": 35,
              "velocity": 107,
              "position": 2,
              "duration": 0.010416666666666666
            },
            {
              "pitch": 42,
              "velocity": 104,
              "position": 2,
              "duration": 0.010416666666666666
            },
            {
              "pitch": 42,
              "velocity": 90,
              "position": 2.25,
              "duration": 0.010416666666666666
            },
            {
              "pitch": 42,
              "velocity": 114,
              "position": 2.5,
              "duration": 0.010416666666666666
            },
            {
              "pitch": 35,
              "velocity": 107,
              "position": 2.75,
              "duration": 0.010416666666666666
            },
            {
              "pitch": 42,
              "velocity": 100,
              "position": 2.75,
              "duration": 0.010416666666666666
            },
            {
              "pitch": 40,
              "velocity": 112,
              "position": 3,
              "duration": 0.010416666666666666
            },
            {
              "pitch": 42,
              "velocity": 90,
              "position": 3.25,
              "duration": 0.010416666666666666
            },
            {
              "pitch": 35,
              "velocity": 93,
              "position": 3.5,
              "duration": 0.010416666666666666
            },
            {
              "pitch": 42,
              "velocity": 114,
              "position": 3.5,
              "duration": 0.010416666666666666
            },
            {
              "pitch": 42,
              "velocity": 100,
              "position": 3.75,
              "duration": 0.010416666666666666
            }
          ]
        },
        "10": {
          "ctab": {
            "srcChannel": 10,
            "name": "Bass",
            "accType": "BASS",
            "editable": false,
            "mutedNotes": [],
            "mutedChords": [],
            "autoStart": false,
            "sourceChordNote": 0,
            "sourceChordType": "Maj7",
            "ctb2Low": null,
            "ctb2Main": {
              "ntr": "ROOT_TRANSPOSITION",
              "ntt": "MELODY",
              "bassOn": true,
              "chordRootUpperLimit": 8,
              "noteLowLimit": 28,
              "noteHighLimit": 127,
              "rtr": "PITCH_SHIFT_TO_ROOT"
            },
            "ctb2High": null
          },
          "notes": [
            {
              "pitch": 24,
              "velocity": 72,
              "position": 0,
              "duration": 0.5
            },
            {
              "pitch": 31,
              "velocity": 72,
              "position": 0.75,
              "duration": 1.2395833333333333
            },
            {
              "pitch": 24,
              "velocity": 72,
              "position": 2,
              "duration": 0.5
            },
            {
              "pitch": 31,
              "velocity": 72,
              "position": 2.75,
              "duration": 0.7395833333333334
            },
            {
              "pitch": 31,
              "velocity": 62,
              "position": 3.5,
              "duration": 0.4895833333333333
            }
          ]
        },
        "11": {
          "ctab": {
            "srcChannel": 11,
            "name": "Gtr",
            "accType": "CHORD1",
            "editable": false,
            "mutedNotes": [],
            "mutedChords": [],
            "autoStart": false,
            "sourceChordNote": 0,
            "sourceChordType": "Maj7",
            "ctb2Low": null,
            "ctb2Main": {
              "ntr": "ROOT_FIXED",
              "ntt": "CHORD",
              "bassOn": false,
              "chordRootUpperLimit": 7,
              "noteLowLimit": 0,
              "noteHighLimit": 127,
              "rtr": "PITCH_SHIFT"
            },
            "ctb2High": null
          },
          "notes": [
            {
              "pitch": 64,
              "velocity": 38,
              "position": 0.010416666666666666,
              "duration": 0.4791666666666667
            },
            {
              "pitch": 55,
              "velocity": 38,
              "position": 0,
              "duration": 0.49166666666666664
            },
            {
              "pitch": 59,
              "velocity": 38,
              "position": 0,
              "duration": 0.49166666666666664
            },
            {
              "pitch": 55,
              "velocity": 20,
              "position": 0.5104166666666666,
              "duration": 0.22916666666666666
            },
            {
              "pitch": 59,
              "velocity": 20,
              "position": 0.5,
              "duration": 0.24166666666666667
            },
            {
              "pitch": 64,
              "velocity": 32,
              "position": 0.5,
              "duration": 0.24166666666666667
            },
            {
              "pitch": 55,
              "velocity": 38,
              "position": 0.75,
              "duration": 0.1875
            },
            {
              "pitch": 59,
              "velocity": 38,
              "position": 0.75,
              "duration": 0.1875
            },
            {
              "pitch": 64,
              "velocity": 38,
              "position": 0.7604166666666666,
              "duration": 0.1875
            },
            {
              "pitch": 59,
              "velocity": 25,
              "position": 1.25,
              "duration": 0.1875
            },
            {
              "pitch": 64,
              "velocity": 25,
              "position": 1.25,
              "duration": 0.1875
            },
            {
              "pitch": 55,
              "velocity": 25,
              "position": 1.2604166666666667,
              "duration": 0.1875
            },
            {
              "pitch": 59,
              "velocity": 38,
              "position": 1.75,
              "duration": 0.1875
            },
            {
              "pitch": 64,
              "velocity": 38,
              "position": 1.75,
              "duration": 0.1875
            },
            {
              "pitch": 55,
              "velocity": 38,
              "position": 1.7604166666666667,
              "duration": 0.1875
            },
            {
              "pitch": 59,
              "velocity": 30,
              "position": 2.25,
              "duration": 0.23958333333333334
            },
            {
              "pitch": 64,
              "velocity": 34,
              "position": 2.25,
              "duration": 0.23958333333333334
            },
            {
              "pitch": 55,
              "velocity": 30,
              "position": 2.2604166666666665,
              "duration": 0.23958333333333334
            },
            {
              "pitch": 59,
              "velocity": 20,
              "position": 2.75,
              "duration": 0.24166666666666667
            },
            {
              "pitch": 64,
              "velocity": 24,
              "position": 2.75,
              "duration": 0.24166666666666667
            },
            {
              "pitch": 55,
              "velocity": 20,
              "position": 2.7604166666666665,
              "duration": 0.23125
            },
            {
              "pitch": 55,
              "velocity": 38,
              "position": 3,
              "duration": 0.4895833333333333
            },
            {
              "pitch": 59,
              "velocity": 38,
              "position": 3,
              "duration": 0.49166666666666664
            },
            {
              "pitch": 64,
              "velocity": 38,
              "position": 3.0104166666666665,
              "duration": 0.49166666666666664
            },
            {
              "pitch": 64,
              "velocity": 28,
              "position": 3.5104166666666665,
              "duration": 0.22916666666666666
            },
            {
              "pitch": 55,
              "velocity": 28,
              "position": 3.5,
              "duration": 0.24166666666666667
            },
            {
              "pitch": 59,
              "velocity": 28,
              "position": 3.5,
              "duration": 0.24166666666666667
            },
            {
              "pitch": 64,
              "velocity": 20,
              "position": 3.75,
              "duration": 0.22916666666666666
            },
            {
              "pitch": 55,
              "velocity": 20,
              "position": 3.7604166666666665,
              "duration": 0.22916666666666666
            },
            {
              "pitch": 59,
              "velocity": 20,
              "position": 3.75,
              "duration": 0.24166666666666667
            }
          ]
        },
        "12": {
          "ctab": {
            "srcChannel": 12,
            "name": "Pno",
            "accType": "CHORD2",
            "editable": false,
            "mutedNotes": [],
            "mutedChords": [],
            "autoStart": false,
            "sourceChordNote": 0,
            "sourceChordType": "Maj7",
            "ctb2Low": null,
            "ctb2Main": {
              "ntr": "ROOT_FIXED",
              "ntt": "CHORD",
              "bassOn": false,
              "chordRootUpperLimit": 7,
              "noteLowLimit": 0,
              "noteHighLimit": 127,
              "rtr": "PITCH_SHIFT"
            },
            "ctb2High": null
          },
          "notes": [
            {
              "pitch": 55,
              "velocity": 67,
              "position": 0,
              "duration": 0.09375
            },
            {
              "pitch": 59,
              "velocity": 67,
              "position": 0,
              "duration": 0.09375
            },
            {
              "pitch": 64,
              "velocity": 67,
              "position": 0,
              "duration": 0.09375
            },
            {
              "pitch": 55,
              "velocity": 74,
              "position": 0.5,
              "duration": 0.4895833333333333
            },
            {
              "pitch": 59,
              "velocity": 74,
              "position": 0.5,
              "duration": 0.4895833333333333
            },
            {
              "pitch": 64,
              "velocity": 74,
              "position": 0.5,
              "duration": 0.4895833333333333
            },
            {
              "pitch": 55,
              "velocity": 65,
              "position": 1.25,
              "duration": 0.125
            },
            {
              "pitch": 59,
              "velocity": 65,
              "position": 1.25,
              "duration": 0.125
            },
            {
              "pitch": 64,
              "velocity": 65,
              "position": 1.25,
              "duration": 0.125
            },
            {
              "pitch": 55,
              "velocity": 65,
              "position": 1.75,
              "duration": 0.09375
            },
            {
              "pitch": 59,
              "velocity": 65,
              "position": 1.75,
              "duration": 0.09375
            },
            {
              "pitch": 64,
              "velocity": 65,
              "position": 1.75,
              "duration": 0.09375
            },
            {
              "pitch": 55,
              "velocity": 74,
              "position": 2.25,
              "duration": 0.6145833333333334
            },
            {
              "pitch": 59,
              "velocity": 74,
              "position": 2.25,
              "duration": 0.6145833333333334
            },
            {
              "pitch": 64,
              "velocity": 74,
              "position": 2.25,
              "duration": 0.6145833333333334
            },
            {
              "pitch": 55,
              "velocity": 71,
              "position": 3,
              "duration": 0.125
            },
            {
              "pitch": 59,
              "velocity": 71,
              "position": 3,
              "duration": 0.125
            },
            {
              "pitch": 64,
              "velocity": 71,
              "position": 3,
              "duration": 0.125
            },
            {
              "pitch": 55,
              "velocity": 65,
              "position": 3.5,
              "duration": 0.09375
            },
            {
              "pitch": 59,
              "velocity": 65,
              "position": 3.5,
              "duration": 0.09375
            },
            {
              "pitch": 64,
              "velocity": 65,
              "position": 3.5,
              "duration": 0.09375
            }
          ]
        },
        "13": {
          "ctab": {
            "srcChannel": 13,
            "name": "Str",
            "accType": "PAD",
            "editable": false,
            "mutedNotes": [],
            "mutedChords": [],
            "autoStart": false,
            "sourceChordNote": 0,
            "sourceChordType": "Maj7",
            "ctb2Low": null,
            "ctb2Main": {
              "ntr": "ROOT_FIXED",
              "ntt": "CHORD",
              "bassOn": false,
              "chordRootUpperLimit": 7,
              "noteLowLimit": 0,
              "noteHighLimit": 127,
              "rtr": "PITCH_SHIFT"
            },
            "ctb2High": null
          },
          "notes": []
        },
        "14": {
          "ctab": {
            "srcChannel": 14,
            "name": "Brass",
            "accType": "PHRASE1",
            "editable": false,
            "mutedNotes": [],
            "mutedChords": [],
            "autoStart": false,
            "sourceChordNote": 0,
            "sourceChordType": "Maj7",
            "ctb2Low": null,
            "ctb2Main": {
              "ntr": "ROOT_FIXED",
              "ntt": "CHORD",
              "bassOn": false,
              "chordRootUpperLimit": 7,
              "noteLowLimit": 0,
              "noteHighLimit": 127,
              "rtr": "PITCH_SHIFT"
            },
            "ctb2High": null
          },
          "notes": []
        }
      }
    },
    "Main_C": {
      "type": "Main_C",
      "sizeInBeats": 4,
      "channels": {
        "0": {
          "ctab": {
            "srcChannel": 0,
            "name": "Gtr FX",
            "accType": "CHORD1",
            "editable": true,
            "mutedNotes": [],
            "mutedChords": [],
            "autoStart": false,
            "sourceChordNote": 0,
            "sourceChordType": "Maj7",
            "ctb2Low": null,
            "ctb2Main": {
              "ntr": "ROOT_FIXED",
              "ntt": "BYPASS",
              "bassOn": false,
              "chordRootUpperLimit": 6,
              "noteLowLimit": 0,
              "noteHighLimit": 79,
              "rtr": "PITCH_SHIFT"
            },
            "ctb2High": null
          },
          "notes": [
            {
              "pitch": 104,
              "velocity": 79,
              "position": 0,
              "duration": 0.10416666666666667
            },
            {
              "pitch": 105,
              "velocity": 63,
              "position": 0.25,
              "duration": 0.10416666666666667
            },
            {
              "pitch": 108,
              "velocity": 119,
              "position": 0.5,
              "duration": 0.10416666666666667
            },
            {
              "pitch": 105,
              "velocity": 101,
              "position": 0.75,
              "duration": 0.10416666666666667
            },
            {
              "pitch": 102,
              "velocity": 79,
              "position": 1,
              "duration": 0.10416666666666667
            },
            {
              "pitch": 105,
              "velocity": 67,
              "position": 1.25,
              "duration": 0.10416666666666667
            },
            {
              "pitch": 106,
              "velocity": 115,
              "position": 1.5,
              "duration": 0.10416666666666667
            },
            {
              "pitch": 105,
              "velocity": 101,
              "position": 1.75,
              "duration": 0.10416666666666667
            },
            {
              "pitch": 104,
              "velocity": 79,
              "position": 2,
              "duration": 0.10416666666666667
            },
            {
              "pitch": 105,
              "velocity": 67,
              "position": 2.25,
              "duration": 0.10416666666666667
            },
            {
              "pitch": 108,
              "velocity": 121,
              "position": 2.5,
              "duration": 0.10416666666666667
            },
            {
              "pitch": 105,
              "velocity": 123,
              "position": 2.75,
              "duration": 0.10416666666666667
            },
            {
              "pitch": 102,
              "velocity": 79,
              "position": 3,
              "duration": 0.10416666666666667
            },
            {
              "pitch": 105,
              "velocity": 67,
              "position": 3.25,
              "duration": 0.10416666666666667
            },
            {
              "pitch": 106,
              "velocity": 111,
              "position": 3.5,
              "duration": 0.10416666666666667
            },
            {
              "pitch": 105,
              "velocity": 85,
              "position": 3.75,
              "duration": 0.10416666666666667
            }
          ]
        },
        "2": {
          "ctab": {
            "srcChannel": 2,
            "name": "Gtr Root",
            "accType": "CHORD1",
            "editable": false,
            "mutedNotes": [],
            "mutedChords": [
              "1+2+5",
              "sus4",
              "1+5",
              "1+8",
              "Maj7aug",
              "dim",
              "minMaj7(9)",
              "minMaj7",
              "min6",
              "min",
              "aug",
              "Maj7(9)",
              "Maj7#11",
              "Maj7",
              "Maj6",
              "Maj"
            ],
            "autoStart": false,
            "sourceChordNote": 0,
            "sourceChordType": "Maj7",
            "ctb2Low": null,
            "ctb2Main": {
              "ntr": "ROOT_TRANSPOSITION",
              "ntt": "CHORD",
              "bassOn": false,
              "chordRootUpperLimit": 6,
              "noteLowLimit": 0,
              "noteHighLimit": 127,
              "rtr": "PITCH_SHIFT"
            },
            "ctb2High": null
          },
          "notes": [
            {
              "pitch": 60,
              "velocity": 20,
              "position": 0,
              "duration": 0.22916666666666666
            },
            {
              "pitch": 60,
              "velocity": 28,
              "position": 3.7604166666666665,
              "duration": 0.23125
            }
          ]
        },
        "4": {
          "ctab": {
            "srcChannel": 4,
            "name": "Str Root",
            "accType": "PAD",
            "editable": false,
            "mutedNotes": [],
            "mutedChords": [
              "1+2+5",
              "sus4",
              "1+5",
              "1+8",
              "Maj7aug",
              "dim",
              "minMaj7(9)",
              "minMaj7",
              "min6",
              "min",
              "aug",
              "Maj7(9)",
              "Maj7#11",
              "Maj7",
              "Maj6",
              "Maj"
            ],
            "autoStart": false,
            "sourceChordNote": 0,
            "sourceChordType": "Maj7",
            "ctb2Low": null,
            "ctb2Main": {
              "ntr": "ROOT_TRANSPOSITION",
              "ntt": "CHORD",
              "bassOn": false,
              "chordRootUpperLimit": 6,
              "noteLowLimit": 0,
              "noteHighLimit": 127,
              "rtr": "PITCH_SHIFT"
            },
            "ctb2High": null
          },
          "notes": []
        },
        "7": {
          "ctab": {
            "srcChannel": 7,
            "name": "CC_Crash",
            "accType": "RHYTHM",
            "editable": false,
            "mutedNotes": [],
            "mutedChords": [
              "1+2+5",
              "sus4",
              "1+5",
              "1+8",
              "7aug",
              "Maj7aug",
              "7(#9)",
              "7(b13)",
              "7(b9)",
              "7(13)",
              "7#11",
              "7(9)",
              "7b5",
              "7sus4",
              "7th",
              "dim7",
              "dim",
              "minMaj7(9)",
              "minMaj7",
              "min7(11)",
              "min7(9)",
              "min(9)",
              "m7b5",
              "min7",
              "min6",
              "min",
              "aug",
              "Maj6(9)",
              "Maj7(9)",
              "Maj(9)",
              "Maj7#11",
              "Maj7",
              "Maj6",
              "Maj"
            ],
            "autoStart": true,
            "sourceChordNote": 0,
            "sourceChordType": "Maj",
            "ctb2Low": null,
            "ctb2Main": {
              "ntr": "ROOT_FIXED",
              "ntt": "BYPASS",
              "bassOn": false,
              "chordRootUpperLimit": 0,
              "noteLowLimit": 0,
              "noteHighLimit": 127,
              "rtr": "RETRIGGER"
            },
            "ctb2High": null
          },
          "notes": []
        },
        "8": {
          "ctab": {
            "srcChannel": 8,
            "name": "Perc",
            "accType": "SUBRHYTHM",
            "editable": false,
            "mutedNotes": [],
            "mutedChords": [],
            "autoStart": true,
            "sourceChordNote": 0,
            "sourceChordType": "Maj7",
            "ctb2Low": null,
            "ctb2Main": {
              "ntr": "ROOT_FIXED",
              "ntt": "BYPASS",
              "bassOn": false,
              "chordRootUpperLimit": 6,
              "noteLowLimit": 0,
              "noteHighLimit": 127,
              "rtr": "PITCH_SHIFT"
            },
            "ctb2High": null
          },
          "notes": [
            {
              "pitch": 23,
              "velocity": 101,
              "position": 0,
              "duration": 0.125
            },
            {
              "pitch": 38,
              "velocity": 84,
              "position": 0,
              "duration": 0.125
            },
            {
              "pitch": 60,
              "velocity": 94,
              "position": 0,
              "duration": 0.125
            },
            {
              "pitch": 22,
              "velocity": 74,
              "position": 0.25,
              "duration": 0.125
            },
            {
              "pitch": 39,
              "velocity": 74,
              "position": 0.25,
              "duration": 0.125
            },
            {
              "pitch": 28,
              "velocity": 107,
              "position": 0.5,
              "duration": 0.125
            },
            {
              "pitch": 36,
              "velocity": 88,
              "position": 0.5,
              "duration": 0.125
            },
            {
              "pitch": 22,
              "velocity": 74,
              "position": 0.75,
              "duration": 0.125
            },
            {
              "pitch": 40,
              "velocity": 97,
              "position": 0.75,
              "duration": 0.125
            },
            {
              "pitch": 23,
              "velocity": 80,
              "position": 1,
              "duration": 0.125
            },
            {
              "pitch": 38,
              "velocity": 89,
              "position": 1,
              "duration": 0.125
            },
            {
              "pitch": 60,
              "velocity": 94,
              "position": 1,
              "duration": 0.125
            },
            {
              "pitch": 22,
              "velocity": 86,
              "position": 1.25,
              "duration": 0.125
            },
            {
              "pitch": 39,
              "velocity": 74,
              "position": 1.25,
              "duration": 0.125
            },
            {
              "pitch": 24,
              "velocity": 98,
              "position": 1.5,
              "duration": 0.125
            },
            {
              "pitch": 42,
              "velocity": 102,
              "position": 1.5,
              "duration": 0.125
            },
            {
              "pitch": 24,
              "velocity": 100,
              "position": 1.75,
              "duration": 0.125
            },
            {
              "pitch": 37,
              "velocity": 88,
              "position": 1.75,
              "duration": 0.125
            },
            {
              "pitch": 23,
              "velocity": 81,
              "position": 2,
              "duration": 0.125
            },
            {
              "pitch": 38,
              "velocity": 84,
              "position": 2,
              "duration": 0.125
            },
            {
              "pitch": 60,
              "velocity": 94,
              "position": 2,
              "duration": 0.125
            },
            {
              "pitch": 22,
              "velocity": 63,
              "position": 2.25,
              "duration": 0.125
            },
            {
              "pitch": 39,
              "velocity": 74,
              "position": 2.25,
              "duration": 0.125
            },
            {
              "pitch": 28,
              "velocity": 107,
              "position": 2.5,
              "duration": 0.125
            },
            {
              "pitch": 36,
              "velocity": 88,
              "position": 2.5,
              "duration": 0.125
            },
            {
              "pitch": 31,
              "velocity": 101,
              "position": 2.75,
              "duration": 0.125
            },
            {
              "pitch": 40,
              "velocity": 97,
              "position": 2.75,
              "duration": 0.125
            },
            {
              "pitch": 23,
              "velocity": 81,
              "position": 3,
              "duration": 0.125
            },
            {
              "pitch": 38,
              "velocity": 89,
              "position": 3,
              "duration": 0.125
            },
            {
              "pitch": 60,
              "velocity": 94,
              "position": 3,
              "duration": 0.125
            },
            {
              "pitch": 22,
              "velocity": 63,
              "position": 3.25,
              "duration": 0.125
            },
            {
              "pitch": 39,
              "velocity": 74,
              "position": 3.25,
              "duration": 0.125
            },
            {
              "pitch": 24,
              "velocity": 99,
              "position": 3.5,
              "duration": 0.125
            },
            {
              "pitch": 42,
              "velocity": 102,
              "position": 3.5,
              "duration": 0.125
            },
            {
              "pitch": 24,
              "velocity": 100,
              "position": 3.75,
              "duration": 0.125
            },
            {
              "pitch": 40,
              "velocity": 90,
              "position": 3.75,
              "duration": 0.125
            }
          ]
        },
        "9": {
          "ctab": {
            "srcChannel": 9,
            "name": "Drums",
            "accType": "RHYTHM",
            "editable": false,
            "mutedNotes": [],
            "mutedChords": [],
            "autoStart": true,
            "sourceChordNote": 0,
            "sourceChordType": "Maj7",
            "ctb2Low": null,
            "ctb2Main": {
              "ntr": "ROOT_FIXED",
              "ntt": "BYPASS",
              "bassOn": false,
              "chordRootUpperLimit": 6,
              "noteLowLimit": 0,
              "noteHighLimit": 127,
              "rtr": "PITCH_SHIFT"
            },
            "ctb2High": null
          },
          "notes": [
            {
              "pitch": 35,
              "velocity": 107,
              "position": 0,
              "duration": 0.010416666666666666
            },
            {
              "pitch": 42,
              "velocity": 104,
              "position": 0,
              "duration": 0.010416666666666666
            },
            {
              "pitch": 42,
              "velocity": 60,
              "position": 0.25,
              "duration": 0.010416666666666666
            },
            {
              "pitch": 42,
              "velocity": 105,
              "position": 0.5,
              "duration": 0.010416666666666666
            },
            {
              "pitch": 35,
              "velocity": 105,
              "position": 0.75,
              "duration": 0.010416666666666666
            },
            {
              "pitch": 42,
              "velocity": 95,
              "position": 0.75,
              "duration": 0.010416666666666666
            },
            {
              "pitch": 40,
              "velocity": 107,
              "position": 1,
              "duration": 0.010416666666666666
            },
            {
              "pitch": 42,
              "velocity": 113,
              "position": 1,
              "duration": 0.010416666666666666
            },
            {
              "pitch": 42,
              "velocity": 60,
              "position": 1.25,
              "duration": 0.010416666666666666
            },
            {
              "pitch": 42,
              "velocity": 106,
              "position": 1.5,
              "duration": 0.010416666666666666
            },
            {
              "pitch": 43,
              "velocity": 74,
              "position": 1.5,
              "duration": 0.010416666666666666
            },
            {
              "pitch": 42,
              "velocity": 96,
              "position": 1.75,
              "duration": 0.010416666666666666
            },
            {
              "pitch": 35,
              "velocity": 107,
              "position": 2,
              "duration": 0.010416666666666666
            },
            {
              "pitch": 42,
              "velocity": 104,
              "position": 2,
              "duration": 0.010416666666666666
            },
            {
              "pitch": 42,
              "velocity": 60,
              "position": 2.25,
              "duration": 0.010416666666666666
            },
            {
              "pitch": 42,
              "velocity": 105,
              "position": 2.5,
              "duration": 0.010416666666666666
            },
            {
              "pitch": 35,
              "velocity": 105,
              "position": 2.75,
              "duration": 0.010416666666666666
            },
            {
              "pitch": 42,
              "velocity": 95,
              "position": 2.75,
              "duration": 0.010416666666666666
            },
            {
              "pitch": 40,
              "velocity": 112,
              "position": 3,
              "duration": 0.010416666666666666
            },
            {
              "pitch": 42,
              "velocity": 113,
              "position": 3,
              "duration": 0.010416666666666666
            },
            {
              "pitch": 42,
              "velocity": 60,
              "position": 3.25,
              "duration": 0.010416666666666666
            },
            {
              "pitch": 42,
              "velocity": 106,
              "position": 3.5,
              "duration": 0.010416666666666666
            },
            {
              "pitch": 43,
              "velocity": 74,
              "position": 3.5,
              "duration": 0.010416666666666666
            },
            {
              "pitch": 42,
              "velocity": 96,
              "position": 3.75,
              "duration": 0.010416666666666666
            }
          ]
        },
        "10": {
          "ctab": {
            "srcChannel": 10,
            "name": "Bass",
            "accType": "BASS",
            "editable": false,
            "mutedNotes": [],
            "mutedChords": [],
            "autoStart": false,
            "sourceChordNote": 0,
            "sourceChordType": "Maj7",
            "ctb2Low": null,
            "ctb2Main": {
              "ntr": "ROOT_TRANSPOSITION",
              "ntt": "MELODY",
              "bassOn": true,
              "chordRootUpperLimit": 8,
              "noteLowLimit": 28,
              "noteHighLimit": 127,
              "rtr": "PITCH_SHIFT_TO_ROOT"
            },
            "ctb2High": null
          },
          "notes": [
            {
              "pitch": 24,
              "velocity": 72,
              "position": 0,
              "duration": 0.7395833333333334
            },
            {
              "pitch": 31,
              "velocity": 72,
              "position": 0.75,
              "duration": 0.7395833333333334
            },
            {
              "pitch": 36,
              "velocity": 60,
              "position": 1.5,
              "duration": 0.4895833333333333
            },
            {
              "pitch": 24,
              "velocity": 72,
              "position": 2,
              "duration": 0.7395833333333334
            },
            {
              "pitch": 31,
              "velocity": 72,
              "position": 2.75,
              "duration": 0.7395833333333334
            },
            {
              "pitch": 36,
              "velocity": 60,
              "position": 3.5,
              "duration": 0.4895833333333333
            }
          ]
        },
        "11": {
          "ctab": {
            "srcChannel": 11,
            "name": "Gtr",
            "accType": "CHORD1",
            "editable": false,
            "mutedNotes": [],
            "mutedChords": [],
            "autoStart": false,
            "sourceChordNote": 0,
            "sourceChordType": "Maj7",
            "ctb2Low": null,
            "ctb2Main": {
              "ntr": "ROOT_FIXED",
              "ntt": "CHORD",
              "bassOn": false,
              "chordRootUpperLimit": 7,
              "noteLowLimit": 0,
              "noteHighLimit": 127,
              "rtr": "PITCH_SHIFT"
            },
            "ctb2High": null
          },
          "notes": [
            {
              "pitch": 55,
              "velocity": 20,
              "position": 0,
              "duration": 0.22916666666666666
            },
            {
              "pitch": 59,
              "velocity": 20,
              "position": 0,
              "duration": 0.24166666666666667
            },
            {
              "pitch": 64,
              "velocity": 20,
              "position": 0.010416666666666666,
              "duration": 0.23125
            },
            {
              "pitch": 59,
              "velocity": 28,
              "position": 0.25,
              "duration": 0.23958333333333334
            },
            {
              "pitch": 64,
              "velocity": 28,
              "position": 0.25,
              "duration": 0.23958333333333334
            },
            {
              "pitch": 59,
              "velocity": 38,
              "position": 0.5,
              "duration": 0.09375
            },
            {
              "pitch": 64,
              "velocity": 38,
              "position": 0.5104166666666666,
              "duration": 0.09375
            },
            {
              "pitch": 59,
              "velocity": 32,
              "position": 0.75,
              "duration": 0.23958333333333334
            },
            {
              "pitch": 64,
              "velocity": 32,
              "position": 0.75,
              "duration": 0.23958333333333334
            },
            {
              "pitch": 59,
              "velocity": 20,
              "position": 1,
              "duration": 0.23958333333333334
            },
            {
              "pitch": 59,
              "velocity": 28,
              "position": 1.25,
              "duration": 0.23958333333333334
            },
            {
              "pitch": 59,
              "velocity": 38,
              "position": 1.5,
              "duration": 0.09375
            },
            {
              "pitch": 64,
              "velocity": 38,
              "position": 1.5104166666666667,
              "duration": 0.09375
            },
            {
              "pitch": 59,
              "velocity": 32,
              "position": 1.75,
              "duration": 0.23958333333333334
            },
            {
              "pitch": 64,
              "velocity": 32,
              "position": 1.75,
              "duration": 0.23958333333333334
            },
            {
              "pitch": 59,
              "velocity": 20,
              "position": 2,
              "duration": 0.23958333333333334
            },
            {
              "pitch": 59,
              "velocity": 28,
              "position": 2.25,
              "duration": 0.23958333333333334
            },
            {
              "pitch": 59,
              "velocity": 38,
              "position": 2.5,
              "duration": 0.09375
            },
            {
              "pitch": 64,
              "velocity": 38,
              "position": 2.5104166666666665,
              "duration": 0.09375
            },
            {
              "pitch": 59,
              "velocity": 32,
              "position": 2.75,
              "duration": 0.23958333333333334
            },
            {
              "pitch": 64,
              "velocity": 32,
              "position": 2.75,
              "duration": 0.23958333333333334
            },
            {
              "pitch": 59,
              "velocity": 20,
              "position": 3,
              "duration": 0.23958333333333334
            },
            {
              "pitch": 59,
              "velocity": 28,
              "position": 3.25,
              "duration": 0.23958333333333334
            },
            {
              "pitch": 59,
              "velocity": 38,
              "position": 3.5,
              "duration": 0.09375
            },
            {
              "pitch": 64,
              "velocity": 38,
              "position": 3.5104166666666665,
              "duration": 0.09375
            },
            {
              "pitch": 59,
              "velocity": 28,
              "position": 3.75,
              "duration": 0.24166666666666667
            },
            {
              "pitch": 64,
              "velocity": 28,
              "position": 3.75,
              "duration": 0.24166666666666667
            },
            {
              "pitch": 55,
              "velocity": 28,
              "position": 3.7604166666666665,
              "duration": 0.23125
            }
          ]
        },
        "12": {
          "ctab": {
            "srcChannel": 12,
            "name": "Pno",
            "accType": "CHORD2",
            "editable": false,
            "mutedNotes": [],
            "mutedChords": [],
            "autoStart": false,
            "sourceChordNote": 0,
            "sourceChordType": "Maj7",
            "ctb2Low": null,
            "ctb2Main": {
              "ntr": "ROOT_FIXED",
              "ntt": "CHORD",
              "bassOn": false,
              "chordRootUpperLimit": 7,
              "noteLowLimit": 0,
              "noteHighLimit": 127,
              "rtr": "PITCH_SHIFT"
            },
            "ctb2High": null
          },
          "notes": [
            {
              "pitch": 55,
              "velocity": 74,
              "position": 0,
              "duration": 0.125
            },
            {
              "pitch": 59,
              "velocity": 74,
              "position": 0,
              "duration": 0.125
            },
            {
              "pitch": 64,
              "velocity": 74,
              "position": 0,
              "duration": 0.125
            },
            {
              "pitch": 55,
              "velocity": 63,
              "position": 0.5,
              "duration": 0.09375
            },
            {
              "pitch": 59,
              "velocity": 63,
              "position": 0.5,
              "duration": 0.09375
            },
            {
              "pitch": 64,
              "velocity": 63,
              "position": 0.5,
              "duration": 0.09375
            },
            {
              "pitch": 55,
              "velocity": 74,
              "position": 1.25,
              "duration": 0.4895833333333333
            },
            {
              "pitch": 59,
              "velocity": 74,
              "position": 1.25,
              "duration": 0.4895833333333333
            },
            {
              "pitch": 64,
              "velocity": 74,
              "position": 1.25,
              "duration": 0.4895833333333333
            },
            {
              "pitch": 55,
              "velocity": 66,
              "position": 1.75,
              "duration": 0.08333333333333333
            },
            {
              "pitch": 59,
              "velocity": 66,
              "position": 1.75,
              "duration": 0.08333333333333333
            },
            {
              "pitch": 64,
              "velocity": 66,
              "position": 1.75,
              "duration": 0.08333333333333333
            },
            {
              "pitch": 55,
              "velocity": 65,
              "position": 2.25,
              "duration": 0.11458333333333333
            },
            {
              "pitch": 59,
              "velocity": 65,
              "position": 2.25,
              "duration": 0.11458333333333333
            },
            {
              "pitch": 64,
              "velocity": 65,
              "position": 2.25,
              "duration": 0.11458333333333333
            },
            {
              "pitch": 55,
              "velocity": 74,
              "position": 2.75,
              "duration": 0.09375
            },
            {
              "pitch": 59,
              "velocity": 74,
              "position": 2.75,
              "duration": 0.09375
            },
            {
              "pitch": 64,
              "velocity": 74,
              "position": 2.75,
              "duration": 0.09375
            },
            {
              "pitch": 55,
              "velocity": 65,
              "position": 3.25,
              "duration": 0.10416666666666667
            },
            {
              "pitch": 59,
              "velocity": 65,
              "position": 3.25,
              "duration": 0.10416666666666667
            },
            {
              "pitch": 64,
              "velocity": 65,
              "position": 3.25,
              "duration": 0.10416666666666667
            }
          ]
        },
        "13": {
          "ctab": {
            "srcChannel": 13,
            "name": "Str",
            "accType": "PAD",
            "editable": false,
            "mutedNotes": [],
            "mutedChords": [],
            "autoStart": false,
            "sourceChordNote": 0,
            "sourceChordType": "Maj7",
            "ctb2Low": null,
            "ctb2Main": {
              "ntr": "ROOT_FIXED",
              "ntt": "CHORD",
              "bassOn": false,
              "chordRootUpperLimit": 7,
              "noteLowLimit": 0,
              "noteHighLimit": 127,
              "rtr": "PITCH_SHIFT"
            },
            "ctb2High": null
          },
          "notes": []
        },
        "14": {
          "ctab": {
            "srcChannel": 14,
            "name": "Brass",
            "accType": "PHRASE1",
            "editable": false,
            "mutedNotes": [],
            "mutedChords": [],
            "autoStart": false,
            "sourceChordNote": 0,
            "sourceChordType": "Maj7",
            "ctb2Low": null,
            "ctb2Main": {
              "ntr": "ROOT_FIXED",
              "ntt": "CHORD",
              "bassOn": false,
              "chordRootUpperLimit": 7,
              "noteLowLimit": 0,
              "noteHighLimit": 127,
              "rtr": "PITCH_SHIFT"
            },
            "ctb2High": null
          },
          "notes": []
        }
      }
    },
    "Fill_In_AA": {
      "type": "Fill_In_AA",
      "sizeInBeats": 4,
      "channels": {
        "0": {
          "ctab": {
            "srcChannel": 0,
            "name": "Gtr FX",
            "accType": "CHORD1",
            "editable": true,
            "mutedNotes": [],
            "mutedChords": [],
            "autoStart": false,
            "sourceChordNote": 0,
            "sourceChordType": "Maj7",
            "ctb2Low": null,
            "ctb2Main": {
              "ntr": "ROOT_FIXED",
              "ntt": "BYPASS",
              "bassOn": false,
              "chordRootUpperLimit": 6,
              "noteLowLimit": 0,
              "noteHighLimit": 79,
              "rtr": "PITCH_SHIFT"
            },
            "ctb2High": null
          },
          "notes": [
            {
              "pitch": 108,
              "velocity": 127,
              "position": 0,
              "duration": 0.10416666666666667
            },
            {
              "pitch": 105,
              "velocity": 95,
              "position": 0.25,
              "duration": 0.10416666666666667
            },
            {
              "pitch": 104,
              "velocity": 67,
              "position": 0.5,
              "duration": 0.10416666666666667
            },
            {
              "pitch": 103,
              "velocity": 127,
              "position": 0.75,
              "duration": 0.10416666666666667
            },
            {
              "pitch": 100,
              "velocity": 55,
              "position": 1,
              "duration": 0.10416666666666667
            },
            {
              "pitch": 107,
              "velocity": 127,
              "position": 1.25,
              "duration": 0.10416666666666667
            },
            {
              "pitch": 105,
              "velocity": 127,
              "position": 2.25,
              "duration": 0.10416666666666667
            },
            {
              "pitch": 104,
              "velocity": 71,
              "position": 2.5,
              "duration": 0.10416666666666667
            },
            {
              "pitch": 103,
              "velocity": 123,
              "position": 2.75,
              "duration": 0.10416666666666667
            },
            {
              "pitch": 99,
              "velocity": 77,
              "position": 3,
              "duration": 0.10416666666666667
            },
            {
              "pitch": 107,
              "velocity": 127,
              "position": 3.25,
              "duration": 0.10416666666666667
            },
            {
              "pitch": 104,
              "velocity": 69,
              "position": 3.5,
              "duration": 0.10416666666666667
            },
            {
              "pitch": 103,
              "velocity": 97,
              "position": 3.75,
              "duration": 0.10416666666666667
            }
          ]
        },
        "2": {
          "ctab": {
            "srcChannel": 2,
            "name": "Gtr Root",
            "accType": "CHORD1",
            "editable": false,
            "mutedNotes": [],
            "mutedChords": [
              "1+2+5",
              "sus4",
              "1+5",
              "1+8",
              "Maj7aug",
              "dim",
              "minMaj7(9)",
              "minMaj7",
              "min6",
              "min",
              "aug",
              "Maj7(9)",
              "Maj7#11",
              "Maj7",
              "Maj6",
              "Maj"
            ],
            "autoStart": false,
            "sourceChordNote": 0,
            "sourceChordType": "Maj7",
            "ctb2Low": null,
            "ctb2Main": {
              "ntr": "ROOT_TRANSPOSITION",
              "ntt": "CHORD",
              "bassOn": false,
              "chordRootUpperLimit": 6,
              "noteLowLimit": 0,
              "noteHighLimit": 127,
              "rtr": "PITCH_SHIFT"
            },
            "ctb2High": null
          },
          "notes": [
            {
              "pitch": 60,
              "velocity": 38,
              "position": 0,
              "duration": 0.23958333333333334
            },
            {
              "pitch": 60,
              "velocity": 20,
              "position": 0.5,
              "duration": 0.23958333333333334
            },
            {
              "pitch": 60,
              "velocity": 38,
              "position": 0.7604166666666666,
              "duration": 0.1875
            },
            {
              "pitch": 60,
              "velocity": 32,
              "position": 1.2604166666666667,
              "duration": 0.9375
            },
            {
              "pitch": 60,
              "velocity": 28,
              "position": 2.2604166666666665,
              "duration": 0.23958333333333334
            },
            {
              "pitch": 60,
              "velocity": 22,
              "position": 2.7604166666666665,
              "duration": 0.1875
            },
            {
              "pitch": 60,
              "velocity": 38,
              "position": 3.2604166666666665,
              "duration": 0.1875
            },
            {
              "pitch": 60,
              "velocity": 25,
              "position": 3.7604166666666665,
              "duration": 0.22916666666666666
            }
          ]
        },
        "4": {
          "ctab": {
            "srcChannel": 4,
            "name": "Str Root",
            "accType": "PAD",
            "editable": false,
            "mutedNotes": [],
            "mutedChords": [
              "1+2+5",
              "sus4",
              "1+5",
              "1+8",
              "Maj7aug",
              "dim",
              "minMaj7(9)",
              "minMaj7",
              "min6",
              "min",
              "aug",
              "Maj7(9)",
              "Maj7#11",
              "Maj7",
              "Maj6",
              "Maj"
            ],
            "autoStart": false,
            "sourceChordNote": 0,
            "sourceChordType": "Maj7",
            "ctb2Low": null,
            "ctb2Main": {
              "ntr": "ROOT_TRANSPOSITION",
              "ntt": "CHORD",
              "bassOn": false,
              "chordRootUpperLimit": 6,
              "noteLowLimit": 0,
              "noteHighLimit": 127,
              "rtr": "PITCH_SHIFT"
            },
            "ctb2High": null
          },
          "notes": [
            {
              "pitch": 60,
              "velocity": 30,
              "position": 0,
              "duration": 3.9895833333333335
            }
          ]
        },
        "7": {
          "ctab": {
            "srcChannel": 7,
            "name": "CC_Crash",
            "accType": "RHYTHM",
            "editable": false,
            "mutedNotes": [],
            "mutedChords": [
              "1+2+5",
              "sus4",
              "1+5",
              "1+8",
              "7aug",
              "Maj7aug",
              "7(#9)",
              "7(b13)",
              "7(b9)",
              "7(13)",
              "7#11",
              "7(9)",
              "7b5",
              "7sus4",
              "7th",
              "dim7",
              "dim",
              "minMaj7(9)",
              "minMaj7",
              "min7(11)",
              "min7(9)",
              "min(9)",
              "m7b5",
              "min7",
              "min6",
              "min",
              "aug",
              "Maj6(9)",
              "Maj7(9)",
              "Maj(9)",
              "Maj7#11",
              "Maj7",
              "Maj6",
              "Maj"
            ],
            "autoStart": true,
            "sourceChordNote": 0,
            "sourceChordType": "Maj",
            "ctb2Low": null,
            "ctb2Main": {
              "ntr": "ROOT_FIXED",
              "ntt": "BYPASS",
              "bassOn": false,
              "chordRootUpperLimit": 0,
              "noteLowLimit": 0,
              "noteHighLimit": 127,
              "rtr": "RETRIGGER"
            },
            "ctb2High": null
          },
          "notes": []
        },
        "8": {
          "ctab": {
            "srcChannel": 8,
            "name": "Perc",
            "accType": "SUBRHYTHM",
            "editable": false,
            "mutedNotes": [],
            "mutedChords": [],
            "autoStart": true,
            "sourceChordNote": 0,
            "sourceChordType": "Maj7",
            "ctb2Low": null,
            "ctb2Main": {
              "ntr": "ROOT_FIXED",
              "ntt": "BYPASS",
              "bassOn": false,
              "chordRootUpperLimit": 6,
              "noteLowLimit": 0,
              "noteHighLimit": 127,
              "rtr": "PITCH_SHIFT"
            },
            "ctb2High": null
          },
          "notes": [
            {
              "pitch": 23,
              "velocity": 101,
              "position": 0,
              "duration": 0.125
            },
            {
              "pitch": 38,
              "velocity": 84,
              "position": 0,
              "duration": 0.125
            },
            {
              "pitch": 22,
              "velocity": 74,
              "position": 0.25,
              "duration": 0.125
            },
            {
              "pitch": 39,
              "velocity": 74,
              "position": 0.25,
              "duration": 0.125
            },
            {
              "pitch": 28,
              "velocity": 107,
              "position": 0.5,
              "duration": 0.125
            },
            {
              "pitch": 36,
              "velocity": 88,
              "position": 0.5,
              "duration": 0.125
            },
            {
              "pitch": 22,
              "velocity": 74,
              "position": 0.75,
              "duration": 0.125
            },
            {
              "pitch": 40,
              "velocity": 97,
              "position": 0.75,
              "duration": 0.125
            },
            {
              "pitch": 23,
              "velocity": 80,
              "position": 1,
              "duration": 0.125
            },
            {
              "pitch": 38,
              "velocity": 89,
              "position": 1,
              "duration": 0.125
            },
            {
              "pitch": 22,
              "velocity": 86,
              "position": 1.25,
              "duration": 0.125
            },
            {
              "pitch": 39,
              "velocity": 74,
              "position": 1.25,
              "duration": 0.125
            },
            {
              "pitch": 24,
              "velocity": 94,
              "position": 1.5,
              "duration": 0.125
            },
            {
              "pitch": 42,
              "velocity": 102,
              "position": 1.5,
              "duration": 0.125
            },
            {
              "pitch": 24,
              "velocity": 100,
              "position": 1.75,
              "duration": 0.125
            },
            {
              "pitch": 37,
              "velocity": 88,
              "position": 1.75,
              "duration": 0.125
            },
            {
              "pitch": 23,
              "velocity": 81,
              "position": 2,
              "duration": 0.125
            },
            {
              "pitch": 38,
              "velocity": 84,
              "position": 2,
              "duration": 0.125
            },
            {
              "pitch": 22,
              "velocity": 63,
              "position": 2.25,
              "duration": 0.125
            },
            {
              "pitch": 39,
              "velocity": 74,
              "position": 2.25,
              "duration": 0.125
            },
            {
              "pitch": 28,
              "velocity": 107,
              "position": 2.5,
              "duration": 0.125
            },
            {
              "pitch": 36,
              "velocity": 88,
              "position": 2.5,
              "duration": 0.125
            },
            {
              "pitch": 22,
              "velocity": 63,
              "position": 2.75,
              "duration": 0.125
            },
            {
              "pitch": 40,
              "velocity": 97,
              "position": 2.75,
              "duration": 0.125
            },
            {
              "pitch": 23,
              "velocity": 81,
              "position": 3,
              "duration": 0.125
            },
            {
              "pitch": 38,
              "velocity": 89,
              "position": 3,
              "duration": 0.125
            },
            {
              "pitch": 22,
              "velocity": 63,
              "position": 3.25,
              "duration": 0.125
            },
            {
              "pitch": 39,
              "velocity": 74,
              "position": 3.25,
              "duration": 0.125
            },
            {
              "pitch": 31,
              "velocity": 99,
              "position": 3.5,
              "duration": 0.125
            },
            {
              "pitch": 42,
              "velocity": 102,
              "position": 3.5,
              "duration": 0.125
            },
            {
              "pitch": 24,
              "velocity": 97,
              "position": 3.75,
              "duration": 0.125
            },
            {
              "pitch": 40,
              "velocity": 90,
              "position": 3.75,
              "duration": 0.125
            }
          ]
        },
        "9": {
          "ctab": {
            "srcChannel": 9,
            "name": "Drums",
            "accType": "RHYTHM",
            "editable": false,
            "mutedNotes": [],
            "mutedChords": [],
            "autoStart": true,
            "sourceChordNote": 0,
            "sourceChordType": "Maj7",
            "ctb2Low": null,
            "ctb2Main": {
              "ntr": "ROOT_FIXED",
              "ntt": "BYPASS",
              "bassOn": false,
              "chordRootUpperLimit": 6,
              "noteLowLimit": 0,
              "noteHighLimit": 127,
              "rtr": "PITCH_SHIFT"
            },
            "ctb2High": null
          },
          "notes": [
            {
              "pitch": 35,
              "velocity": 107,
              "position": 0,
              "duration": 0.010416666666666666
            },
            {
              "pitch": 42,
              "velocity": 104,
              "position": 0,
              "duration": 0.010416666666666666
            },
            {
              "pitch": 42,
              "velocity": 90,
              "position": 0.25,
              "duration": 0.010416666666666666
            },
            {
              "pitch": 42,
              "velocity": 114,
              "position": 0.5,
              "duration": 0.010416666666666666
            },
            {
              "pitch": 42,
              "velocity": 90,
              "position": 0.75,
              "duration": 0.010416666666666666
            },
            {
              "pitch": 35,
              "velocity": 107,
              "position": 1,
              "duration": 0.010416666666666666
            },
            {
              "pitch": 40,
              "velocity": 105,
              "position": 1,
              "duration": 0.010416666666666666
            },
            {
              "pitch": 42,
              "velocity": 90,
              "position": 1.25,
              "duration": 0.010416666666666666
            },
            {
              "pitch": 42,
              "velocity": 114,
              "position": 1.5,
              "duration": 0.010416666666666666
            },
            {
              "pitch": 43,
              "velocity": 73,
              "position": 1.75,
              "duration": 0.010416666666666666
            },
            {
              "pitch": 35,
              "velocity": 107,
              "position": 2,
              "duration": 0.010416666666666666
            },
            {
              "pitch": 42,
              "velocity": 104,
              "position": 2,
              "duration": 0.010416666666666666
            },
            {
              "pitch": 40,
              "velocity": 110,
              "position": 2.25,
              "duration": 0.010416666666666666
            },
            {
              "pitch": 42,
              "velocity": 114,
              "position": 2.5,
              "duration": 0.010416666666666666
            },
            {
              "pitch": 40,
              "velocity": 78,
              "position": 2.75,
              "duration": 0.010416666666666666
            },
            {
              "pitch": 35,
              "velocity": 107,
              "position": 3,
              "duration": 0.010416666666666666
            },
            {
              "pitch": 40,
              "velocity": 105,
              "position": 3,
              "duration": 0.010416666666666666
            },
            {
              "pitch": 40,
              "velocity": 107,
              "position": 3.25,
              "duration": 0.010416666666666666
            },
            {
              "pitch": 41,
              "velocity": 84,
              "position": 3.5,
              "duration": 0.010416666666666666
            },
            {
              "pitch": 42,
              "velocity": 90,
              "position": 3.75,
              "duration": 0.010416666666666666
            }
          ]
        },
        "10": {
          "ctab": {
            "srcChannel": 10,
            "name": "Bass",
            "accType": "BASS",
            "editable": false,
            "mutedNotes": [],
            "mutedChords": [],
            "autoStart": false,
            "sourceChordNote": 0,
            "sourceChordType": "Maj7",
            "ctb2Low": null,
            "ctb2Main": {
              "ntr": "ROOT_TRANSPOSITION",
              "ntt": "MELODY",
              "bassOn": true,
              "chordRootUpperLimit": 8,
              "noteLowLimit": 28,
              "noteHighLimit": 127,
              "rtr": "PITCH_SHIFT_TO_ROOT"
            },
            "ctb2High": null
          },
          "notes": [
            {
              "pitch": 24,
              "velocity": 72,
              "position": 0,
              "duration": 0.7395833333333334
            },
            {
              "pitch": 31,
              "velocity": 72,
              "position": 0.75,
              "duration": 0.7395833333333334
            },
            {
              "pitch": 36,
              "velocity": 72,
              "position": 1.5,
              "duration": 1.2395833333333333
            },
            {
              "pitch": 31,
              "velocity": 72,
              "position": 2.75,
              "duration": 0.7395833333333334
            },
            {
              "pitch": 24,
              "velocity": 72,
              "position": 3.5,
              "duration": 0.4895833333333333
            }
          ]
        },
        "11": {
          "ctab": {
            "srcChannel": 11,
            "name": "Gtr",
            "accType": "CHORD1",
            "editable": false,
            "mutedNotes": [],
            "mutedChords": [],
            "autoStart": false,
            "sourceChordNote": 0,
            "sourceChordType": "Maj7",
            "ctb2Low": null,
            "ctb2Main": {
              "ntr": "ROOT_FIXED",
              "ntt": "CHORD",
              "bassOn": false,
              "chordRootUpperLimit": 7,
              "noteLowLimit": 0,
              "noteHighLimit": 127,
              "rtr": "PITCH_SHIFT"
            },
            "ctb2High": null
          },
          "notes": [
            {
              "pitch": 55,
              "velocity": 38,
              "position": 0,
              "duration": 0.23958333333333334
            },
            {
              "pitch": 59,
              "velocity": 38,
              "position": 0,
              "duration": 0.23958333333333334
            },
            {
              "pitch": 64,
              "velocity": 38,
              "position": 0.010416666666666666,
              "duration": 0.23958333333333334
            },
            {
              "pitch": 55,
              "velocity": 20,
              "position": 0.5,
              "duration": 0.23958333333333334
            },
            {
              "pitch": 59,
              "velocity": 20,
              "position": 0.5,
              "duration": 0.23958333333333334
            },
            {
              "pitch": 59,
              "velocity": 38,
              "position": 0.75,
              "duration": 0.1875
            },
            {
              "pitch": 55,
              "velocity": 38,
              "position": 0.7604166666666666,
              "duration": 0.1875
            },
            {
              "pitch": 59,
              "velocity": 32,
              "position": 1.25,
              "duration": 0.9375
            },
            {
              "pitch": 64,
              "velocity": 32,
              "position": 1.25,
              "duration": 0.9375
            },
            {
              "pitch": 55,
              "velocity": 32,
              "position": 1.2604166666666667,
              "duration": 0.9375
            },
            {
              "pitch": 59,
              "velocity": 28,
              "position": 2.25,
              "duration": 0.23958333333333334
            },
            {
              "pitch": 64,
              "velocity": 33,
              "position": 2.25,
              "duration": 0.23958333333333334
            },
            {
              "pitch": 55,
              "velocity": 28,
              "position": 2.2604166666666665,
              "duration": 0.23958333333333334
            },
            {
              "pitch": 59,
              "velocity": 22,
              "position": 2.75,
              "duration": 0.1875
            },
            {
              "pitch": 64,
              "velocity": 22,
              "position": 2.75,
              "duration": 0.1875
            },
            {
              "pitch": 55,
              "velocity": 22,
              "position": 2.7604166666666665,
              "duration": 0.1875
            },
            {
              "pitch": 59,
              "velocity": 38,
              "position": 3.25,
              "duration": 0.1875
            },
            {
              "pitch": 64,
              "velocity": 38,
              "position": 3.25,
              "duration": 0.1875
            },
            {
              "pitch": 55,
              "velocity": 38,
              "position": 3.2604166666666665,
              "duration": 0.1875
            },
            {
              "pitch": 55,
              "velocity": 25,
              "position": 3.7604166666666665,
              "duration": 0.22916666666666666
            },
            {
              "pitch": 59,
              "velocity": 25,
              "position": 3.75,
              "duration": 0.24166666666666667
            },
            {
              "pitch": 64,
              "velocity": 25,
              "position": 3.75,
              "duration": 0.24166666666666667
            }
          ]
        },
        "12": {
          "ctab": {
            "srcChannel": 12,
            "name": "Pno",
            "accType": "CHORD2",
            "editable": false,
            "mutedNotes": [],
            "mutedChords": [],
            "autoStart": false,
            "sourceChordNote": 0,
            "sourceChordType": "Maj7",
            "ctb2Low": null,
            "ctb2Main": {
              "ntr": "ROOT_FIXED",
              "ntt": "CHORD",
              "bassOn": false,
              "chordRootUpperLimit": 7,
              "noteLowLimit": 0,
              "noteHighLimit": 127,
              "rtr": "PITCH_SHIFT"
            },
            "ctb2High": null
          },
          "notes": [
            {
              "pitch": 55,
              "velocity": 74,
              "position": 0.5,
              "duration": 0.4583333333333333
            },
            {
              "pitch": 59,
              "velocity": 74,
              "position": 0.5,
              "duration": 0.4583333333333333
            },
            {
              "pitch": 64,
              "velocity": 74,
              "position": 0.5,
              "duration": 0.4583333333333333
            },
            {
              "pitch": 55,
              "velocity": 67,
              "position": 2.75,
              "duration": 0.625
            },
            {
              "pitch": 59,
              "velocity": 67,
              "position": 2.75,
              "duration": 0.625
            },
            {
              "pitch": 64,
              "velocity": 67,
              "position": 2.75,
              "duration": 0.625
            },
            {
              "pitch": 55,
              "velocity": 74,
              "position": 3.5,
              "duration": 0.10416666666666667
            },
            {
              "pitch": 59,
              "velocity": 74,
              "position": 3.5,
              "duration": 0.10416666666666667
            },
            {
              "pitch": 64,
              "velocity": 74,
              "position": 3.5,
              "duration": 0.10416666666666667
            }
          ]
        },
        "13": {
          "ctab": {
            "srcChannel": 13,
            "name": "Str",
            "accType": "PAD",
            "editable": false,
            "mutedNotes": [],
            "mutedChords": [],
            "autoStart": false,
            "sourceChordNote": 0,
            "sourceChordType": "Maj7",
            "ctb2Low": null,
            "ctb2Main": {
              "ntr": "ROOT_FIXED",
              "ntt": "CHORD",
              "bassOn": false,
              "chordRootUpperLimit": 7,
              "noteLowLimit": 0,
              "noteHighLimit": 127,
              "rtr": "PITCH_SHIFT"
            },
            "ctb2High": null
          },
          "notes": [
            {
              "pitch": 55,
              "velocity": 30,
              "position": 0,
              "duration": 3.9895833333333335
            },
            {
              "pitch": 59,
              "velocity": 30,
              "position": 0,
              "duration": 3.9895833333333335
            },
            {
              "pitch": 64,
              "velocity": 30,
              "position": 0,
              "duration": 3.9895833333333335
            }
          ]
        },
        "14": {
          "ctab": {
            "srcChannel": 14,
            "name": "Brass",
            "accType": "PHRASE1",
            "editable": false,
            "mutedNotes": [],
            "mutedChords": [],
            "autoStart": false,
            "sourceChordNote": 0,
            "sourceChordType": "Maj7",
            "ctb2Low": null,
            "ctb2Main": {
              "ntr": "ROOT_FIXED",
              "ntt": "CHORD",
              "bassOn": false,
              "chordRootUpperLimit": 7,
              "noteLowLimit": 0,
              "noteHighLimit": 127,
              "rtr": "PITCH_SHIFT"
            },
            "ctb2High": null
          },
          "notes": []
        }
      }
    },
    "Fill_In_BB": {
      "type": "Fill_In_BB",
      "sizeInBeats": 4,
      "channels": {
        "0": {
          "ctab": {
            "srcChannel": 0,
            "name": "Gtr FX",
            "accType": "CHORD1",
            "editable": true,
            "mutedNotes": [],
            "mutedChords": [],
            "autoStart": false,
            "sourceChordNote": 0,
            "sourceChordType": "Maj7",
            "ctb2Low": null,
            "ctb2Main": {
              "ntr": "ROOT_FIXED",
              "ntt": "BYPASS",
              "bassOn": false,
              "chordRootUpperLimit": 6,
              "noteLowLimit": 0,
              "noteHighLimit": 79,
              "rtr": "PITCH_SHIFT"
            },
            "ctb2High": null
          },
          "notes": [
            {
              "pitch": 106,
              "velocity": 127,
              "position": 0,
              "duration": 0.10416666666666667
            },
            {
              "pitch": 105,
              "velocity": 85,
              "position": 0.25,
              "duration": 0.10416666666666667
            },
            {
              "pitch": 108,
              "velocity": 127,
              "position": 0.5,
              "duration": 0.10416666666666667
            },
            {
              "pitch": 100,
              "velocity": 48,
              "position": 1,
              "duration": 0.10416666666666667
            },
            {
              "pitch": 121,
              "velocity": 85,
              "position": 0.7083333333333334,
              "duration": 0.4479166666666667
            },
            {
              "pitch": 105,
              "velocity": 117,
              "position": 1.25,
              "duration": 0.10416666666666667
            },
            {
              "pitch": 106,
              "velocity": 71,
              "position": 1.5,
              "duration": 0.10416666666666667
            },
            {
              "pitch": 107,
              "velocity": 127,
              "position": 1.75,
              "duration": 0.10416666666666667
            },
            {
              "pitch": 104,
              "velocity": 45,
              "position": 2,
              "duration": 0.10416666666666667
            },
            {
              "pitch": 99,
              "velocity": 105,
              "position": 2.75,
              "duration": 0.10416666666666667
            },
            {
              "pitch": 100,
              "velocity": 117,
              "position": 3,
              "duration": 0.10416666666666667
            },
            {
              "pitch": 107,
              "velocity": 95,
              "position": 3.25,
              "duration": 0.10416666666666667
            },
            {
              "pitch": 104,
              "velocity": 69,
              "position": 3.5,
              "duration": 0.10416666666666667
            },
            {
              "pitch": 103,
              "velocity": 101,
              "position": 3.75,
              "duration": 0.10416666666666667
            }
          ]
        },
        "2": {
          "ctab": {
            "srcChannel": 2,
            "name": "Gtr Root",
            "accType": "CHORD1",
            "editable": false,
            "mutedNotes": [],
            "mutedChords": [
              "1+2+5",
              "sus4",
              "1+5",
              "1+8",
              "Maj7aug",
              "dim",
              "minMaj7(9)",
              "minMaj7",
              "min6",
              "min",
              "aug",
              "Maj7(9)",
              "Maj7#11",
              "Maj7",
              "Maj6",
              "Maj"
            ],
            "autoStart": false,
            "sourceChordNote": 0,
            "sourceChordType": "Maj7",
            "ctb2Low": null,
            "ctb2Main": {
              "ntr": "ROOT_TRANSPOSITION",
              "ntt": "CHORD",
              "bassOn": false,
              "chordRootUpperLimit": 6,
              "noteLowLimit": 0,
              "noteHighLimit": 127,
              "rtr": "PITCH_SHIFT"
            },
            "ctb2High": null
          },
          "notes": [
            {
              "pitch": 60,
              "velocity": 38,
              "position": 0,
              "duration": 0.4583333333333333
            },
            {
              "pitch": 60,
              "velocity": 32,
              "position": 0.5104166666666666,
              "duration": 0.24166666666666667
            },
            {
              "pitch": 60,
              "velocity": 30,
              "position": 1.2604166666666667,
              "duration": 0.15625
            },
            {
              "pitch": 60,
              "velocity": 40,
              "position": 1.7604166666666667,
              "duration": 0.15625
            },
            {
              "pitch": 60,
              "velocity": 21,
              "position": 2.7604166666666665,
              "duration": 0.22916666666666666
            },
            {
              "pitch": 60,
              "velocity": 38,
              "position": 3,
              "duration": 0.4791666666666667
            },
            {
              "pitch": 60,
              "velocity": 38,
              "position": 3.5,
              "duration": 0.1875
            }
          ]
        },
        "4": {
          "ctab": {
            "srcChannel": 4,
            "name": "Str Root",
            "accType": "PAD",
            "editable": false,
            "mutedNotes": [],
            "mutedChords": [
              "1+2+5",
              "sus4",
              "1+5",
              "1+8",
              "Maj7aug",
              "dim",
              "minMaj7(9)",
              "minMaj7",
              "min6",
              "min",
              "aug",
              "Maj7(9)",
              "Maj7#11",
              "Maj7",
              "Maj6",
              "Maj"
            ],
            "autoStart": false,
            "sourceChordNote": 0,
            "sourceChordType": "Maj7",
            "ctb2Low": null,
            "ctb2Main": {
              "ntr": "ROOT_TRANSPOSITION",
              "ntt": "CHORD",
              "bassOn": false,
              "chordRootUpperLimit": 6,
              "noteLowLimit": 0,
              "noteHighLimit": 127,
              "rtr": "PITCH_SHIFT"
            },
            "ctb2High": null
          },
          "notes": [
            {
              "pitch": 60,
              "velocity": 34,
              "position": 0,
              "duration": 3.9895833333333335
            }
          ]
        },
        "7": {
          "ctab": {
            "srcChannel": 7,
            "name": "CC_Crash",
            "accType": "RHYTHM",
            "editable": false,
            "mutedNotes": [],
            "mutedChords": [
              "1+2+5",
              "sus4",
              "1+5",
              "1+8",
              "7aug",
              "Maj7aug",
              "7(#9)",
              "7(b13)",
              "7(b9)",
              "7(13)",
              "7#11",
              "7(9)",
              "7b5",
              "7sus4",
              "7th",
              "dim7",
              "dim",
              "minMaj7(9)",
              "minMaj7",
              "min7(11)",
              "min7(9)",
              "min(9)",
              "m7b5",
              "min7",
              "min6",
              "min",
              "aug",
              "Maj6(9)",
              "Maj7(9)",
              "Maj(9)",
              "Maj7#11",
              "Maj7",
              "Maj6",
              "Maj"
            ],
            "autoStart": true,
            "sourceChordNote": 0,
            "sourceChordType": "Maj",
            "ctb2Low": null,
            "ctb2Main": {
              "ntr": "ROOT_FIXED",
              "ntt": "BYPASS",
              "bassOn": false,
              "chordRootUpperLimit": 0,
              "noteLowLimit": 0,
              "noteHighLimit": 127,
              "rtr": "RETRIGGER"
            },
            "ctb2High": null
          },
          "notes": []
        },
        "8": {
          "ctab": {
            "srcChannel": 8,
            "name": "Perc",
            "accType": "SUBRHYTHM",
            "editable": false,
            "mutedNotes": [],
            "mutedChords": [],
            "autoStart": true,
            "sourceChordNote": 0,
            "sourceChordType": "Maj7",
            "ctb2Low": null,
            "ctb2Main": {
              "ntr": "ROOT_FIXED",
              "ntt": "BYPASS",
              "bassOn": false,
              "chordRootUpperLimit": 6,
              "noteLowLimit": 0,
              "noteHighLimit": 127,
              "rtr": "PITCH_SHIFT"
            },
            "ctb2High": null
          },
          "notes": [
            {
              "pitch": 23,
              "velocity": 101,
              "position": 0,
              "duration": 0.125
            },
            {
              "pitch": 40,
              "velocity": 95,
              "position": 0,
              "duration": 0.125
            },
            {
              "pitch": 22,
              "velocity": 74,
              "position": 0.25,
              "duration": 0.125
            },
            {
              "pitch": 38,
              "velocity": 88,
              "position": 0.25,
              "duration": 0.125
            },
            {
              "pitch": 28,
              "velocity": 107,
              "position": 0.5,
              "duration": 0.125
            },
            {
              "pitch": 36,
              "velocity": 90,
              "position": 0.5,
              "duration": 0.125
            },
            {
              "pitch": 22,
              "velocity": 74,
              "position": 0.75,
              "duration": 0.125
            },
            {
              "pitch": 40,
              "velocity": 99,
              "position": 0.75,
              "duration": 0.125
            },
            {
              "pitch": 54,
              "velocity": 112,
              "position": 0.9479166666666666,
              "duration": 0.07291666666666667
            },
            {
              "pitch": 23,
              "velocity": 80,
              "position": 1,
              "duration": 0.125
            },
            {
              "pitch": 38,
              "velocity": 87,
              "position": 1,
              "duration": 0.125
            },
            {
              "pitch": 54,
              "velocity": 112,
              "position": 1.03125,
              "duration": 0.125
            },
            {
              "pitch": 22,
              "velocity": 86,
              "position": 1.25,
              "duration": 0.125
            },
            {
              "pitch": 39,
              "velocity": 76,
              "position": 1.25,
              "duration": 0.125
            },
            {
              "pitch": 24,
              "velocity": 94,
              "position": 1.5,
              "duration": 0.125
            },
            {
              "pitch": 42,
              "velocity": 104,
              "position": 1.5,
              "duration": 0.125
            },
            {
              "pitch": 54,
              "velocity": 112,
              "position": 1.5,
              "duration": 0.125
            },
            {
              "pitch": 24,
              "velocity": 100,
              "position": 1.75,
              "duration": 0.125
            },
            {
              "pitch": 43,
              "velocity": 111,
              "position": 1.75,
              "duration": 0.125
            },
            {
              "pitch": 54,
              "velocity": 115,
              "position": 1.75,
              "duration": 0.125
            },
            {
              "pitch": 23,
              "velocity": 81,
              "position": 2,
              "duration": 0.125
            },
            {
              "pitch": 38,
              "velocity": 78,
              "position": 2,
              "duration": 0.125
            },
            {
              "pitch": 48,
              "velocity": 112,
              "position": 2.21875,
              "duration": 0.052083333333333336
            },
            {
              "pitch": 22,
              "velocity": 63,
              "position": 2.25,
              "duration": 0.125
            },
            {
              "pitch": 43,
              "velocity": 110,
              "position": 2.25,
              "duration": 0.125
            },
            {
              "pitch": 48,
              "velocity": 112,
              "position": 2.28125,
              "duration": 0.125
            },
            {
              "pitch": 28,
              "velocity": 107,
              "position": 2.5,
              "duration": 0.125
            },
            {
              "pitch": 43,
              "velocity": 111,
              "position": 2.5,
              "duration": 0.125
            },
            {
              "pitch": 22,
              "velocity": 63,
              "position": 2.75,
              "duration": 0.125
            },
            {
              "pitch": 40,
              "velocity": 99,
              "position": 2.75,
              "duration": 0.125
            },
            {
              "pitch": 54,
              "velocity": 112,
              "position": 2.75,
              "duration": 0.125
            },
            {
              "pitch": 23,
              "velocity": 81,
              "position": 3,
              "duration": 0.125
            },
            {
              "pitch": 38,
              "velocity": 78,
              "position": 3,
              "duration": 0.125
            },
            {
              "pitch": 22,
              "velocity": 63,
              "position": 3.25,
              "duration": 0.125
            },
            {
              "pitch": 39,
              "velocity": 76,
              "position": 3.25,
              "duration": 0.125
            },
            {
              "pitch": 54,
              "velocity": 114,
              "position": 3.25,
              "duration": 0.125
            },
            {
              "pitch": 31,
              "velocity": 99,
              "position": 3.5,
              "duration": 0.125
            },
            {
              "pitch": 42,
              "velocity": 104,
              "position": 3.5,
              "duration": 0.125
            },
            {
              "pitch": 24,
              "velocity": 97,
              "position": 3.75,
              "duration": 0.125
            },
            {
              "pitch": 40,
              "velocity": 92,
              "position": 3.75,
              "duration": 0.125
            }
          ]
        },
        "9": {
          "ctab": {
            "srcChannel": 9,
            "name": "Drums",
            "accType": "RHYTHM",
            "editable": false,
            "mutedNotes": [],
            "mutedChords": [],
            "autoStart": true,
            "sourceChordNote": 0,
            "sourceChordType": "Maj7",
            "ctb2Low": null,
            "ctb2Main": {
              "ntr": "ROOT_FIXED",
              "ntt": "BYPASS",
              "bassOn": false,
              "chordRootUpperLimit": 6,
              "noteLowLimit": 0,
              "noteHighLimit": 127,
              "rtr": "PITCH_SHIFT"
            },
            "ctb2High": null
          },
          "notes": [
            {
              "pitch": 35,
              "velocity": 114,
              "position": 0,
              "duration": 0.010416666666666666
            },
            {
              "pitch": 42,
              "velocity": 112,
              "position": 0,
              "duration": 0.010416666666666666
            },
            {
              "pitch": 40,
              "velocity": 97,
              "position": 0.25,
              "duration": 0.010416666666666666
            },
            {
              "pitch": 42,
              "velocity": 112,
              "position": 0.5,
              "duration": 0.010416666666666666
            },
            {
              "pitch": 35,
              "velocity": 107,
              "position": 0.75,
              "duration": 0.010416666666666666
            },
            {
              "pitch": 42,
              "velocity": 68,
              "position": 0.75,
              "duration": 0.010416666666666666
            },
            {
              "pitch": 42,
              "velocity": 112,
              "position": 1,
              "duration": 0.010416666666666666
            },
            {
              "pitch": 42,
              "velocity": 85,
              "position": 1.25,
              "duration": 0.010416666666666666
            },
            {
              "pitch": 35,
              "velocity": 107,
              "position": 1.5,
              "duration": 0.010416666666666666
            },
            {
              "pitch": 42,
              "velocity": 105,
              "position": 1.5,
              "duration": 0.010416666666666666
            },
            {
              "pitch": 42,
              "velocity": 84,
              "position": 1.75,
              "duration": 0.010416666666666666
            },
            {
              "pitch": 35,
              "velocity": 107,
              "position": 2,
              "duration": 0.010416666666666666
            },
            {
              "pitch": 42,
              "velocity": 112,
              "position": 2,
              "duration": 0.010416666666666666
            },
            {
              "pitch": 42,
              "velocity": 68,
              "position": 2.25,
              "duration": 0.010416666666666666
            },
            {
              "pitch": 42,
              "velocity": 96,
              "position": 2.5,
              "duration": 0.010416666666666666
            },
            {
              "pitch": 42,
              "velocity": 112,
              "position": 2.75,
              "duration": 0.010416666666666666
            },
            {
              "pitch": 35,
              "velocity": 107,
              "position": 3,
              "duration": 0.010416666666666666
            },
            {
              "pitch": 40,
              "velocity": 112,
              "position": 3,
              "duration": 0.010416666666666666
            },
            {
              "pitch": 42,
              "velocity": 112,
              "position": 3.25,
              "duration": 0.010416666666666666
            },
            {
              "pitch": 46,
              "velocity": 104,
              "position": 3.5,
              "duration": 0.010416666666666666
            }
          ]
        },
        "10": {
          "ctab": {
            "srcChannel": 10,
            "name": "Bass",
            "accType": "BASS",
            "editable": false,
            "mutedNotes": [],
            "mutedChords": [],
            "autoStart": false,
            "sourceChordNote": 0,
            "sourceChordType": "Maj7",
            "ctb2Low": null,
            "ctb2Main": {
              "ntr": "ROOT_TRANSPOSITION",
              "ntt": "MELODY",
              "bassOn": true,
              "chordRootUpperLimit": 8,
              "noteLowLimit": 28,
              "noteHighLimit": 127,
              "rtr": "PITCH_SHIFT_TO_ROOT"
            },
            "ctb2High": null
          },
          "notes": [
            {
              "pitch": 24,
              "velocity": 72,
              "position": 0,
              "duration": 0.5
            },
            {
              "pitch": 31,
              "velocity": 72,
              "position": 0.75,
              "duration": 0.6666666666666666
            },
            {
              "pitch": 31,
              "velocity": 72,
              "position": 1.5,
              "duration": 0.23958333333333334
            },
            {
              "pitch": 31,
              "velocity": 110,
              "position": 1.75,
              "duration": 0.10416666666666667
            },
            {
              "pitch": 24,
              "velocity": 72,
              "position": 2,
              "duration": 0.5
            },
            {
              "pitch": 31,
              "velocity": 72,
              "position": 2.75,
              "duration": 0.6666666666666666
            },
            {
              "pitch": 31,
              "velocity": 72,
              "position": 3.5,
              "duration": 0.4895833333333333
            }
          ]
        },
        "11": {
          "ctab": {
            "srcChannel": 11,
            "name": "Gtr",
            "accType": "CHORD1",
            "editable": false,
            "mutedNotes": [],
            "mutedChords": [],
            "autoStart": false,
            "sourceChordNote": 0,
            "sourceChordType": "Maj7",
            "ctb2Low": null,
            "ctb2Main": {
              "ntr": "ROOT_FIXED",
              "ntt": "CHORD",
              "bassOn": false,
              "chordRootUpperLimit": 7,
              "noteLowLimit": 0,
              "noteHighLimit": 127,
              "rtr": "PITCH_SHIFT"
            },
            "ctb2High": null
          },
          "notes": [
            {
              "pitch": 55,
              "velocity": 38,
              "position": 0,
              "duration": 0.4583333333333333
            },
            {
              "pitch": 64,
              "velocity": 38,
              "position": 0.010416666666666666,
              "duration": 0.4583333333333333
            },
            {
              "pitch": 59,
              "velocity": 38,
              "position": 0,
              "duration": 0.49166666666666664
            },
            {
              "pitch": 59,
              "velocity": 32,
              "position": 0.5,
              "duration": 0.24166666666666667
            },
            {
              "pitch": 64,
              "velocity": 36,
              "position": 0.5,
              "duration": 0.24166666666666667
            },
            {
              "pitch": 55,
              "velocity": 32,
              "position": 0.5104166666666666,
              "duration": 0.24166666666666667
            },
            {
              "pitch": 59,
              "velocity": 30,
              "position": 1.25,
              "duration": 0.15625
            },
            {
              "pitch": 64,
              "velocity": 30,
              "position": 1.25,
              "duration": 0.15625
            },
            {
              "pitch": 55,
              "velocity": 30,
              "position": 1.2604166666666667,
              "duration": 0.15625
            },
            {
              "pitch": 59,
              "velocity": 40,
              "position": 1.75,
              "duration": 0.15625
            },
            {
              "pitch": 64,
              "velocity": 40,
              "position": 1.75,
              "duration": 0.15625
            },
            {
              "pitch": 55,
              "velocity": 40,
              "position": 1.7604166666666667,
              "duration": 0.15625
            },
            {
              "pitch": 55,
              "velocity": 21,
              "position": 2.7604166666666665,
              "duration": 0.22916666666666666
            },
            {
              "pitch": 59,
              "velocity": 21,
              "position": 2.75,
              "duration": 0.24166666666666667
            },
            {
              "pitch": 64,
              "velocity": 21,
              "position": 2.75,
              "duration": 0.24166666666666667
            },
            {
              "pitch": 55,
              "velocity": 38,
              "position": 3,
              "duration": 0.4791666666666667
            },
            {
              "pitch": 59,
              "velocity": 38,
              "position": 3,
              "duration": 0.49166666666666664
            },
            {
              "pitch": 64,
              "velocity": 38,
              "position": 3.0104166666666665,
              "duration": 0.49166666666666664
            },
            {
              "pitch": 55,
              "velocity": 38,
              "position": 3.5,
              "duration": 0.1875
            },
            {
              "pitch": 59,
              "velocity": 38,
              "position": 3.5,
              "duration": 0.1875
            },
            {
              "pitch": 64,
              "velocity": 38,
              "position": 3.5104166666666665,
              "duration": 0.1875
            }
          ]
        },
        "12": {
          "ctab": {
            "srcChannel": 12,
            "name": "Pno",
            "accType": "CHORD2",
            "editable": false,
            "mutedNotes": [],
            "mutedChords": [],
            "autoStart": false,
            "sourceChordNote": 0,
            "sourceChordType": "Maj7",
            "ctb2Low": null,
            "ctb2Main": {
              "ntr": "ROOT_FIXED",
              "ntt": "CHORD",
              "bassOn": false,
              "chordRootUpperLimit": 7,
              "noteLowLimit": 0,
              "noteHighLimit": 127,
              "rtr": "PITCH_SHIFT"
            },
            "ctb2High": null
          },
          "notes": [
            {
              "pitch": 55,
              "velocity": 67,
              "position": 0,
              "duration": 0.09375
            },
            {
              "pitch": 59,
              "velocity": 67,
              "position": 0,
              "duration": 0.09375
            },
            {
              "pitch": 64,
              "velocity": 67,
              "position": 0,
              "duration": 0.09375
            },
            {
              "pitch": 55,
              "velocity": 74,
              "position": 0.5,
              "duration": 0.4895833333333333
            },
            {
              "pitch": 59,
              "velocity": 74,
              "position": 0.5,
              "duration": 0.4895833333333333
            },
            {
              "pitch": 64,
              "velocity": 74,
              "position": 0.5,
              "duration": 0.4895833333333333
            },
            {
              "pitch": 55,
              "velocity": 65,
              "position": 1.25,
              "duration": 0.125
            },
            {
              "pitch": 59,
              "velocity": 65,
              "position": 1.25,
              "duration": 0.125
            },
            {
              "pitch": 64,
              "velocity": 65,
              "position": 1.25,
              "duration": 0.125
            },
            {
              "pitch": 55,
              "velocity": 65,
              "position": 1.75,
              "duration": 0.09375
            },
            {
              "pitch": 59,
              "velocity": 65,
              "position": 1.75,
              "duration": 0.09375
            },
            {
              "pitch": 64,
              "velocity": 65,
              "position": 1.75,
              "duration": 0.09375
            },
            {
              "pitch": 55,
              "velocity": 74,
              "position": 2.25,
              "duration": 0.6145833333333334
            },
            {
              "pitch": 59,
              "velocity": 74,
              "position": 2.25,
              "duration": 0.6145833333333334
            },
            {
              "pitch": 64,
              "velocity": 74,
              "position": 2.25,
              "duration": 0.6145833333333334
            },
            {
              "pitch": 55,
              "velocity": 71,
              "position": 3,
              "duration": 0.125
            },
            {
              "pitch": 59,
              "velocity": 71,
              "position": 3,
              "duration": 0.125
            },
            {
              "pitch": 64,
              "velocity": 71,
              "position": 3,
              "duration": 0.125
            },
            {
              "pitch": 55,
              "velocity": 65,
              "position": 3.5,
              "duration": 0.09375
            },
            {
              "pitch": 59,
              "velocity": 65,
              "position": 3.5,
              "duration": 0.09375
            },
            {
              "pitch": 64,
              "velocity": 65,
              "position": 3.5,
              "duration": 0.09375
            }
          ]
        },
        "13": {
          "ctab": {
            "srcChannel": 13,
            "name": "Str",
            "accType": "PAD",
            "editable": false,
            "mutedNotes": [],
            "mutedChords": [],
            "autoStart": false,
            "sourceChordNote": 0,
            "sourceChordType": "Maj7",
            "ctb2Low": null,
            "ctb2Main": {
              "ntr": "ROOT_FIXED",
              "ntt": "CHORD",
              "bassOn": false,
              "chordRootUpperLimit": 7,
              "noteLowLimit": 0,
              "noteHighLimit": 127,
              "rtr": "PITCH_SHIFT"
            },
            "ctb2High": null
          },
          "notes": [
            {
              "pitch": 55,
              "velocity": 34,
              "position": 0,
              "duration": 3.9895833333333335
            },
            {
              "pitch": 59,
              "velocity": 34,
              "position": 0,
              "duration": 3.9895833333333335
            },
            {
              "pitch": 64,
              "velocity": 34,
              "position": 0,
              "duration": 3.9895833333333335
            }
          ]
        },
        "14": {
          "ctab": {
            "srcChannel": 14,
            "name": "Brass",
            "accType": "PHRASE1",
            "editable": false,
            "mutedNotes": [],
            "mutedChords": [],
            "autoStart": false,
            "sourceChordNote": 0,
            "sourceChordType": "Maj7",
            "ctb2Low": null,
            "ctb2Main": {
              "ntr": "ROOT_FIXED",
              "ntt": "CHORD",
              "bassOn": false,
              "chordRootUpperLimit": 7,
              "noteLowLimit": 0,
              "noteHighLimit": 127,
              "rtr": "PITCH_SHIFT"
            },
            "ctb2High": null
          },
          "notes": []
        }
      }
    },
    "Fill_In_CC": {
      "type": "Fill_In_CC",
      "sizeInBeats": 4,
      "channels": {
        "0": {
          "ctab": {
            "srcChannel": 0,
            "name": "Gtr FX",
            "accType": "CHORD1",
            "editable": true,
            "mutedNotes": [],
            "mutedChords": [],
            "autoStart": false,
            "sourceChordNote": 0,
            "sourceChordType": "Maj7",
            "ctb2Low": null,
            "ctb2Main": {
              "ntr": "ROOT_FIXED",
              "ntt": "BYPASS",
              "bassOn": false,
              "chordRootUpperLimit": 6,
              "noteLowLimit": 0,
              "noteHighLimit": 79,
              "rtr": "PITCH_SHIFT"
            },
            "ctb2High": null
          },
          "notes": [
            {
              "pitch": 104,
              "velocity": 79,
              "position": 0,
              "duration": 0.10416666666666667
            },
            {
              "pitch": 105,
              "velocity": 63,
              "position": 0.25,
              "duration": 0.10416666666666667
            },
            {
              "pitch": 108,
              "velocity": 119,
              "position": 0.5,
              "duration": 0.10416666666666667
            },
            {
              "pitch": 105,
              "velocity": 101,
              "position": 0.75,
              "duration": 0.10416666666666667
            },
            {
              "pitch": 102,
              "velocity": 79,
              "position": 1,
              "duration": 0.10416666666666667
            },
            {
              "pitch": 105,
              "velocity": 67,
              "position": 1.25,
              "duration": 0.10416666666666667
            },
            {
              "pitch": 106,
              "velocity": 115,
              "position": 1.5,
              "duration": 0.10416666666666667
            },
            {
              "pitch": 105,
              "velocity": 101,
              "position": 1.75,
              "duration": 0.10416666666666667
            },
            {
              "pitch": 104,
              "velocity": 79,
              "position": 2,
              "duration": 0.10416666666666667
            },
            {
              "pitch": 105,
              "velocity": 67,
              "position": 2.25,
              "duration": 0.10416666666666667
            },
            {
              "pitch": 108,
              "velocity": 121,
              "position": 2.5,
              "duration": 0.10416666666666667
            },
            {
              "pitch": 105,
              "velocity": 123,
              "position": 2.75,
              "duration": 0.10416666666666667
            },
            {
              "pitch": 102,
              "velocity": 79,
              "position": 3,
              "duration": 0.10416666666666667
            },
            {
              "pitch": 105,
              "velocity": 67,
              "position": 3.25,
              "duration": 0.10416666666666667
            },
            {
              "pitch": 106,
              "velocity": 111,
              "position": 3.5,
              "duration": 0.10416666666666667
            },
            {
              "pitch": 105,
              "velocity": 85,
              "position": 3.75,
              "duration": 0.10416666666666667
            }
          ]
        },
        "2": {
          "ctab": {
            "srcChannel": 2,
            "name": "Gtr Root",
            "accType": "CHORD1",
            "editable": false,
            "mutedNotes": [],
            "mutedChords": [
              "1+2+5",
              "sus4",
              "1+5",
              "1+8",
              "Maj7aug",
              "dim",
              "minMaj7(9)",
              "minMaj7",
              "min6",
              "min",
              "aug",
              "Maj7(9)",
              "Maj7#11",
              "Maj7",
              "Maj6",
              "Maj"
            ],
            "autoStart": false,
            "sourceChordNote": 0,
            "sourceChordType": "Maj7",
            "ctb2Low": null,
            "ctb2Main": {
              "ntr": "ROOT_TRANSPOSITION",
              "ntt": "CHORD",
              "bassOn": false,
              "chordRootUpperLimit": 6,
              "noteLowLimit": 0,
              "noteHighLimit": 127,
              "rtr": "PITCH_SHIFT"
            },
            "ctb2High": null
          },
          "notes": [
            {
              "pitch": 60,
              "velocity": 20,
              "position": 0,
              "duration": 0.22916666666666666
            },
            {
              "pitch": 60,
              "velocity": 28,
              "position": 3.7604166666666665,
              "duration": 0.23125
            }
          ]
        },
        "4": {
          "ctab": {
            "srcChannel": 4,
            "name": "Str Root",
            "accType": "PAD",
            "editable": false,
            "mutedNotes": [],
            "mutedChords": [
              "1+2+5",
              "sus4",
              "1+5",
              "1+8",
              "Maj7aug",
              "dim",
              "minMaj7(9)",
              "minMaj7",
              "min6",
              "min",
              "aug",
              "Maj7(9)",
              "Maj7#11",
              "Maj7",
              "Maj6",
              "Maj"
            ],
            "autoStart": false,
            "sourceChordNote": 0,
            "sourceChordType": "Maj7",
            "ctb2Low": null,
            "ctb2Main": {
              "ntr": "ROOT_TRANSPOSITION",
              "ntt": "CHORD",
              "bassOn": false,
              "chordRootUpperLimit": 6,
              "noteLowLimit": 0,
              "noteHighLimit": 127,
              "rtr": "PITCH_SHIFT"
            },
            "ctb2High": null
          },
          "notes": [
            {
              "pitch": 60,
              "velocity": 34,
              "position": 0,
              "duration": 3.9895833333333335
            }
          ]
        },
        "7": {
          "ctab": {
            "srcChannel": 7,
            "name": "CC_Crash",
            "accType": "RHYTHM",
            "editable": false,
            "mutedNotes": [],
            "mutedChords": [
              "1+2+5",
              "sus4",
              "1+5",
              "1+8",
              "7aug",
              "Maj7aug",
              "7(#9)",
              "7(b13)",
              "7(b9)",
              "7(13)",
              "7#11",
              "7(9)",
              "7b5",
              "7sus4",
              "7th",
              "dim7",
              "dim",
              "minMaj7(9)",
              "minMaj7",
              "min7(11)",
              "min7(9)",
              "min(9)",
              "m7b5",
              "min7",
              "min6",
              "min",
              "aug",
              "Maj6(9)",
              "Maj7(9)",
              "Maj(9)",
              "Maj7#11",
              "Maj7",
              "Maj6",
              "Maj"
            ],
            "autoStart": true,
            "sourceChordNote": 0,
            "sourceChordType": "Maj",
            "ctb2Low": null,
            "ctb2Main": {
              "ntr": "ROOT_FIXED",
              "ntt": "BYPASS",
              "bassOn": false,
              "chordRootUpperLimit": 0,
              "noteLowLimit": 0,
              "noteHighLimit": 127,
              "rtr": "RETRIGGER"
            },
            "ctb2High": null
          },
          "notes": []
        },
        "8": {
          "ctab": {
            "srcChannel": 8,
            "name": "Perc",
            "accType": "SUBRHYTHM",
            "editable": false,
            "mutedNotes": [],
            "mutedChords": [],
            "autoStart": true,
            "sourceChordNote": 0,
            "sourceChordType": "Maj7",
            "ctb2Low": null,
            "ctb2Main": {
              "ntr": "ROOT_FIXED",
              "ntt": "BYPASS",
              "bassOn": false,
              "chordRootUpperLimit": 6,
              "noteLowLimit": 0,
              "noteHighLimit": 127,
              "rtr": "PITCH_SHIFT"
            },
            "ctb2High": null
          },
          "notes": [
            {
              "pitch": 23,
              "velocity": 103,
              "position": 0,
              "duration": 0.125
            },
            {
              "pitch": 38,
              "velocity": 73,
              "position": 0,
              "duration": 0.125
            },
            {
              "pitch": 60,
              "velocity": 96,
              "position": 0,
              "duration": 0.125
            },
            {
              "pitch": 22,
              "velocity": 89,
              "position": 0.25,
              "duration": 0.125
            },
            {
              "pitch": 39,
              "velocity": 74,
              "position": 0.25,
              "duration": 0.125
            },
            {
              "pitch": 28,
              "velocity": 103,
              "position": 0.5,
              "duration": 0.125
            },
            {
              "pitch": 36,
              "velocity": 88,
              "position": 0.5,
              "duration": 0.125
            },
            {
              "pitch": 22,
              "velocity": 89,
              "position": 0.75,
              "duration": 0.125
            },
            {
              "pitch": 40,
              "velocity": 97,
              "position": 0.75,
              "duration": 0.125
            },
            {
              "pitch": 23,
              "velocity": 80,
              "position": 1,
              "duration": 0.125
            },
            {
              "pitch": 38,
              "velocity": 73,
              "position": 1,
              "duration": 0.125
            },
            {
              "pitch": 60,
              "velocity": 96,
              "position": 1,
              "duration": 0.125
            },
            {
              "pitch": 22,
              "velocity": 105,
              "position": 1.25,
              "duration": 0.125
            },
            {
              "pitch": 39,
              "velocity": 74,
              "position": 1.25,
              "duration": 0.125
            },
            {
              "pitch": 31,
              "velocity": 101,
              "position": 1.5,
              "duration": 0.125
            },
            {
              "pitch": 42,
              "velocity": 99,
              "position": 1.5,
              "duration": 0.125
            },
            {
              "pitch": 24,
              "velocity": 100,
              "position": 1.75,
              "duration": 0.125
            },
            {
              "pitch": 37,
              "velocity": 88,
              "position": 1.75,
              "duration": 0.125
            },
            {
              "pitch": 23,
              "velocity": 81,
              "position": 2,
              "duration": 0.125
            },
            {
              "pitch": 39,
              "velocity": 74,
              "position": 2,
              "duration": 0.125
            },
            {
              "pitch": 60,
              "velocity": 96,
              "position": 2,
              "duration": 0.125
            },
            {
              "pitch": 22,
              "velocity": 81,
              "position": 2.25,
              "duration": 0.125
            },
            {
              "pitch": 37,
              "velocity": 88,
              "position": 2.25,
              "duration": 0.125
            },
            {
              "pitch": 28,
              "velocity": 103,
              "position": 2.5,
              "duration": 0.125
            },
            {
              "pitch": 39,
              "velocity": 74,
              "position": 2.5,
              "duration": 0.125
            },
            {
              "pitch": 31,
              "velocity": 106,
              "position": 2.75,
              "duration": 0.125
            },
            {
              "pitch": 40,
              "velocity": 97,
              "position": 2.75,
              "duration": 0.125
            },
            {
              "pitch": 23,
              "velocity": 81,
              "position": 3,
              "duration": 0.125
            },
            {
              "pitch": 38,
              "velocity": 73,
              "position": 3,
              "duration": 0.125
            },
            {
              "pitch": 60,
              "velocity": 96,
              "position": 3,
              "duration": 0.125
            },
            {
              "pitch": 22,
              "velocity": 81,
              "position": 3.25,
              "duration": 0.125
            },
            {
              "pitch": 39,
              "velocity": 74,
              "position": 3.25,
              "duration": 0.125
            },
            {
              "pitch": 24,
              "velocity": 99,
              "position": 3.5,
              "duration": 0.125
            },
            {
              "pitch": 42,
              "velocity": 99,
              "position": 3.5,
              "duration": 0.125
            },
            {
              "pitch": 24,
              "velocity": 102,
              "position": 3.75,
              "duration": 0.125
            },
            {
              "pitch": 40,
              "velocity": 90,
              "position": 3.75,
              "duration": 0.125
            }
          ]
        },
        "9": {
          "ctab": {
            "srcChannel": 9,
            "name": "Drums",
            "accType": "RHYTHM",
            "editable": false,
            "mutedNotes": [],
            "mutedChords": [],
            "autoStart": true,
            "sourceChordNote": 0,
            "sourceChordType": "Maj7",
            "ctb2Low": null,
            "ctb2Main": {
              "ntr": "ROOT_FIXED",
              "ntt": "BYPASS",
              "bassOn": false,
              "chordRootUpperLimit": 6,
              "noteLowLimit": 0,
              "noteHighLimit": 127,
              "rtr": "PITCH_SHIFT"
            },
            "ctb2High": null
          },
          "notes": [
            {
              "pitch": 35,
              "velocity": 112,
              "position": 0,
              "duration": 0.010416666666666666
            },
            {
              "pitch": 42,
              "velocity": 104,
              "position": 0,
              "duration": 0.010416666666666666
            },
            {
              "pitch": 42,
              "velocity": 60,
              "position": 0.25,
              "duration": 0.010416666666666666
            },
            {
              "pitch": 42,
              "velocity": 105,
              "position": 0.5,
              "duration": 0.010416666666666666
            },
            {
              "pitch": 35,
              "velocity": 109,
              "position": 0.75,
              "duration": 0.010416666666666666
            },
            {
              "pitch": 42,
              "velocity": 95,
              "position": 0.75,
              "duration": 0.010416666666666666
            },
            {
              "pitch": 40,
              "velocity": 107,
              "position": 1,
              "duration": 0.010416666666666666
            },
            {
              "pitch": 42,
              "velocity": 113,
              "position": 1,
              "duration": 0.010416666666666666
            },
            {
              "pitch": 42,
              "velocity": 60,
              "position": 1.25,
              "duration": 0.010416666666666666
            },
            {
              "pitch": 43,
              "velocity": 79,
              "position": 1.5,
              "duration": 0.010416666666666666
            },
            {
              "pitch": 46,
              "velocity": 88,
              "position": 1.5,
              "duration": 0.010416666666666666
            },
            {
              "pitch": 35,
              "velocity": 107,
              "position": 2,
              "duration": 0.010416666666666666
            },
            {
              "pitch": 40,
              "velocity": 107,
              "position": 2,
              "duration": 0.010416666666666666
            },
            {
              "pitch": 48,
              "velocity": 55,
              "position": 2.25,
              "duration": 0.010416666666666666
            },
            {
              "pitch": 48,
              "velocity": 80,
              "position": 2.375,
              "duration": 0.010416666666666666
            },
            {
              "pitch": 48,
              "velocity": 88,
              "position": 2.5,
              "duration": 0.010416666666666666
            },
            {
              "pitch": 48,
              "velocity": 82,
              "position": 2.75,
              "duration": 0.010416666666666666
            },
            {
              "pitch": 35,
              "velocity": 105,
              "position": 3,
              "duration": 0.010416666666666666
            },
            {
              "pitch": 45,
              "velocity": 88,
              "position": 3.25,
              "duration": 0.010416666666666666
            },
            {
              "pitch": 45,
              "velocity": 80,
              "position": 3.5,
              "duration": 0.010416666666666666
            }
          ]
        },
        "10": {
          "ctab": {
            "srcChannel": 10,
            "name": "Bass",
            "accType": "BASS",
            "editable": false,
            "mutedNotes": [],
            "mutedChords": [],
            "autoStart": false,
            "sourceChordNote": 0,
            "sourceChordType": "Maj7",
            "ctb2Low": null,
            "ctb2Main": {
              "ntr": "ROOT_TRANSPOSITION",
              "ntt": "MELODY",
              "bassOn": true,
              "chordRootUpperLimit": 8,
              "noteLowLimit": 28,
              "noteHighLimit": 127,
              "rtr": "PITCH_SHIFT_TO_ROOT"
            },
            "ctb2High": null
          },
          "notes": [
            {
              "pitch": 24,
              "velocity": 72,
              "position": 0,
              "duration": 0.6145833333333334
            },
            {
              "pitch": 24,
              "velocity": 110,
              "position": 0.75,
              "duration": 0.10416666666666667
            },
            {
              "pitch": 31,
              "velocity": 72,
              "position": 1,
              "duration": 0.4895833333333333
            },
            {
              "pitch": 36,
              "velocity": 60,
              "position": 1.5,
              "duration": 0.4895833333333333
            },
            {
              "pitch": 24,
              "velocity": 72,
              "position": 2,
              "duration": 0.6145833333333334
            },
            {
              "pitch": 24,
              "velocity": 110,
              "position": 2.75,
              "duration": 0.10416666666666667
            },
            {
              "pitch": 31,
              "velocity": 72,
              "position": 3,
              "duration": 0.4895833333333333
            },
            {
              "pitch": 36,
              "velocity": 60,
              "position": 3.5,
              "duration": 0.4895833333333333
            }
          ]
        },
        "11": {
          "ctab": {
            "srcChannel": 11,
            "name": "Gtr",
            "accType": "CHORD1",
            "editable": false,
            "mutedNotes": [],
            "mutedChords": [],
            "autoStart": false,
            "sourceChordNote": 0,
            "sourceChordType": "Maj7",
            "ctb2Low": null,
            "ctb2Main": {
              "ntr": "ROOT_FIXED",
              "ntt": "CHORD",
              "bassOn": false,
              "chordRootUpperLimit": 7,
              "noteLowLimit": 0,
              "noteHighLimit": 127,
              "rtr": "PITCH_SHIFT"
            },
            "ctb2High": null
          },
          "notes": [
            {
              "pitch": 55,
              "velocity": 20,
              "position": 0,
              "duration": 0.22916666666666666
            },
            {
              "pitch": 59,
              "velocity": 20,
              "position": 0,
              "duration": 0.24166666666666667
            },
            {
              "pitch": 64,
              "velocity": 20,
              "position": 0.010416666666666666,
              "duration": 0.23125
            },
            {
              "pitch": 59,
              "velocity": 28,
              "position": 0.25,
              "duration": 0.23958333333333334
            },
            {
              "pitch": 64,
              "velocity": 28,
              "position": 0.25,
              "duration": 0.23958333333333334
            },
            {
              "pitch": 59,
              "velocity": 38,
              "position": 0.5,
              "duration": 0.09375
            },
            {
              "pitch": 64,
              "velocity": 38,
              "position": 0.5104166666666666,
              "duration": 0.09375
            },
            {
              "pitch": 59,
              "velocity": 32,
              "position": 0.75,
              "duration": 0.23958333333333334
            },
            {
              "pitch": 64,
              "velocity": 32,
              "position": 0.75,
              "duration": 0.23958333333333334
            },
            {
              "pitch": 59,
              "velocity": 20,
              "position": 1,
              "duration": 0.23958333333333334
            },
            {
              "pitch": 59,
              "velocity": 28,
              "position": 1.25,
              "duration": 0.23958333333333334
            },
            {
              "pitch": 59,
              "velocity": 38,
              "position": 1.5,
              "duration": 0.09375
            },
            {
              "pitch": 64,
              "velocity": 38,
              "position": 1.5104166666666667,
              "duration": 0.09375
            },
            {
              "pitch": 59,
              "velocity": 32,
              "position": 1.75,
              "duration": 0.23958333333333334
            },
            {
              "pitch": 64,
              "velocity": 32,
              "position": 1.75,
              "duration": 0.23958333333333334
            },
            {
              "pitch": 59,
              "velocity": 20,
              "position": 2,
              "duration": 0.23958333333333334
            },
            {
              "pitch": 59,
              "velocity": 28,
              "position": 2.25,
              "duration": 0.23958333333333334
            },
            {
              "pitch": 59,
              "velocity": 38,
              "position": 2.5,
              "duration": 0.09375
            },
            {
              "pitch": 64,
              "velocity": 38,
              "position": 2.5104166666666665,
              "duration": 0.09375
            },
            {
              "pitch": 59,
              "velocity": 32,
              "position": 2.75,
              "duration": 0.23958333333333334
            },
            {
              "pitch": 64,
              "velocity": 32,
              "position": 2.75,
              "duration": 0.23958333333333334
            },
            {
              "pitch": 59,
              "velocity": 20,
              "position": 3,
              "duration": 0.23958333333333334
            },
            {
              "pitch": 59,
              "velocity": 28,
              "position": 3.25,
              "duration": 0.23958333333333334
            },
            {
              "pitch": 59,
              "velocity": 38,
              "position": 3.5,
              "duration": 0.09375
            },
            {
              "pitch": 64,
              "velocity": 38,
              "position": 3.5104166666666665,
              "duration": 0.09375
            },
            {
              "pitch": 59,
              "velocity": 28,
              "position": 3.75,
              "duration": 0.24166666666666667
            },
            {
              "pitch": 64,
              "velocity": 28,
              "position": 3.75,
              "duration": 0.24166666666666667
            },
            {
              "pitch": 55,
              "velocity": 28,
              "position": 3.7604166666666665,
              "duration": 0.23125
            }
          ]
        },
        "12": {
          "ctab": {
            "srcChannel": 12,
            "name": "Pno",
            "accType": "CHORD2",
            "editable": false,
            "mutedNotes": [],
            "mutedChords": [],
            "autoStart": false,
            "sourceChordNote": 0,
            "sourceChordType": "Maj7",
            "ctb2Low": null,
            "ctb2Main": {
              "ntr": "ROOT_FIXED",
              "ntt": "CHORD",
              "bassOn": false,
              "chordRootUpperLimit": 7,
              "noteLowLimit": 0,
              "noteHighLimit": 127,
              "rtr": "PITCH_SHIFT"
            },
            "ctb2High": null
          },
          "notes": [
            {
              "pitch": 55,
              "velocity": 74,
              "position": 0,
              "duration": 0.125
            },
            {
              "pitch": 59,
              "velocity": 74,
              "position": 0,
              "duration": 0.125
            },
            {
              "pitch": 64,
              "velocity": 74,
              "position": 0,
              "duration": 0.125
            },
            {
              "pitch": 55,
              "velocity": 63,
              "position": 0.5,
              "duration": 0.09375
            },
            {
              "pitch": 59,
              "velocity": 63,
              "position": 0.5,
              "duration": 0.09375
            },
            {
              "pitch": 64,
              "velocity": 63,
              "position": 0.5,
              "duration": 0.09375
            },
            {
              "pitch": 55,
              "velocity": 74,
              "position": 1.25,
              "duration": 0.4895833333333333
            },
            {
              "pitch": 59,
              "velocity": 74,
              "position": 1.25,
              "duration": 0.4895833333333333
            },
            {
              "pitch": 64,
              "velocity": 74,
              "position": 1.25,
              "duration": 0.4895833333333333
            },
            {
              "pitch": 55,
              "velocity": 66,
              "position": 1.75,
              "duration": 0.08333333333333333
            },
            {
              "pitch": 59,
              "velocity": 66,
              "position": 1.75,
              "duration": 0.08333333333333333
            },
            {
              "pitch": 64,
              "velocity": 66,
              "position": 1.75,
              "duration": 0.08333333333333333
            },
            {
              "pitch": 55,
              "velocity": 65,
              "position": 2.25,
              "duration": 0.11458333333333333
            },
            {
              "pitch": 59,
              "velocity": 65,
              "position": 2.25,
              "duration": 0.11458333333333333
            },
            {
              "pitch": 64,
              "velocity": 65,
              "position": 2.25,
              "duration": 0.11458333333333333
            },
            {
              "pitch": 55,
              "velocity": 74,
              "position": 2.75,
              "duration": 0.09375
            },
            {
              "pitch": 59,
              "velocity": 74,
              "position": 2.75,
              "duration": 0.09375
            },
            {
              "pitch": 64,
              "velocity": 74,
              "position": 2.75,
              "duration": 0.09375
            },
            {
              "pitch": 55,
              "velocity": 65,
              "position": 3.25,
              "duration": 0.10416666666666667
            },
            {
              "pitch": 59,
              "velocity": 65,
              "position": 3.25,
              "duration": 0.10416666666666667
            },
            {
              "pitch": 64,
              "velocity": 65,
              "position": 3.25,
              "duration": 0.10416666666666667
            }
          ]
        },
        "13": {
          "ctab": {
            "srcChannel": 13,
            "name": "Str",
            "accType": "PAD",
            "editable": false,
            "mutedNotes": [],
            "mutedChords": [],
            "autoStart": false,
            "sourceChordNote": 0,
            "sourceChordType": "Maj7",
            "ctb2Low": null,
            "ctb2Main": {
              "ntr": "ROOT_FIXED",
              "ntt": "CHORD",
              "bassOn": false,
              "chordRootUpperLimit": 7,
              "noteLowLimit": 0,
              "noteHighLimit": 127,
              "rtr": "PITCH_SHIFT"
            },
            "ctb2High": null
          },
          "notes": [
            {
              "pitch": 55,
              "velocity": 34,
              "position": 0,
              "duration": 3.9895833333333335
            },
            {
              "pitch": 59,
              "velocity": 34,
              "position": 0,
              "duration": 3.9895833333333335
            },
            {
              "pitch": 64,
              "velocity": 34,
              "position": 0,
              "duration": 3.9895833333333335
            }
          ]
        },
        "14": {
          "ctab": {
            "srcChannel": 14,
            "name": "Brass",
            "accType": "PHRASE1",
            "editable": false,
            "mutedNotes": [],
            "mutedChords": [],
            "autoStart": false,
            "sourceChordNote": 0,
            "sourceChordType": "Maj7",
            "ctb2Low": null,
            "ctb2Main": {
              "ntr": "ROOT_FIXED",
              "ntt": "CHORD",
              "bassOn": false,
              "chordRootUpperLimit": 7,
              "noteLowLimit": 0,
              "noteHighLimit": 127,
              "rtr": "PITCH_SHIFT"
            },
            "ctb2High": null
          },
          "notes": []
        }
      }
    },
    "Intro_A": {
      "type": "Intro_A",
      "sizeInBeats": 4,
      "channels": {
        "0": {
          "ctab": {
            "srcChannel": 0,
            "name": "Gtr FX",
            "accType": "CHORD1",
            "editable": true,
            "mutedNotes": [],
            "mutedChords": [],
            "autoStart": false,
            "sourceChordNote": 0,
            "sourceChordType": "Maj7",
            "ctb2Low": null,
            "ctb2Main": {
              "ntr": "ROOT_FIXED",
              "ntt": "BYPASS",
              "bassOn": false,
              "chordRootUpperLimit": 6,
              "noteLowLimit": 0,
              "noteHighLimit": 79,
              "rtr": "PITCH_SHIFT"
            },
            "ctb2High": null
          },
          "notes": [
            {
              "pitch": 102,
              "velocity": 105,
              "position": 3.5,
              "duration": 0.10416666666666667
            },
            {
              "pitch": 103,
              "velocity": 113,
              "position": 3.75,
              "duration": 0.10416666666666667
            }
          ]
        },
        "2": {
          "ctab": {
            "srcChannel": 2,
            "name": "Gtr Root",
            "accType": "CHORD1",
            "editable": false,
            "mutedNotes": [],
            "mutedChords": [
              "1+2+5",
              "sus4",
              "1+5",
              "1+8",
              "Maj7aug",
              "dim",
              "minMaj7(9)",
              "minMaj7",
              "min6",
              "min",
              "aug",
              "Maj7(9)",
              "Maj7#11",
              "Maj7",
              "Maj6",
              "Maj"
            ],
            "autoStart": false,
            "sourceChordNote": 0,
            "sourceChordType": "Maj7",
            "ctb2Low": null,
            "ctb2Main": {
              "ntr": "ROOT_TRANSPOSITION",
              "ntt": "CHORD",
              "bassOn": false,
              "chordRootUpperLimit": 6,
              "noteLowLimit": 0,
              "noteHighLimit": 127,
              "rtr": "PITCH_SHIFT"
            },
            "ctb2High": null
          },
          "notes": []
        },
        "4": {
          "ctab": {
            "srcChannel": 4,
            "name": "Str Root",
            "accType": "PAD",
            "editable": false,
            "mutedNotes": [],
            "mutedChords": [
              "1+2+5",
              "sus4",
              "1+5",
              "1+8",
              "Maj7aug",
              "dim",
              "minMaj7(9)",
              "minMaj7",
              "min6",
              "min",
              "aug",
              "Maj7(9)",
              "Maj7#11",
              "Maj7",
              "Maj6",
              "Maj"
            ],
            "autoStart": false,
            "sourceChordNote": 0,
            "sourceChordType": "Maj7",
            "ctb2Low": null,
            "ctb2Main": {
              "ntr": "ROOT_TRANSPOSITION",
              "ntt": "CHORD",
              "bassOn": false,
              "chordRootUpperLimit": 6,
              "noteLowLimit": 0,
              "noteHighLimit": 127,
              "rtr": "PITCH_SHIFT"
            },
            "ctb2High": null
          },
          "notes": []
        },
        "7": {
          "ctab": {
            "srcChannel": 7,
            "name": "CC_Crash",
            "accType": "RHYTHM",
            "editable": false,
            "mutedNotes": [],
            "mutedChords": [
              "1+2+5",
              "sus4",
              "1+5",
              "1+8",
              "7aug",
              "Maj7aug",
              "7(#9)",
              "7(b13)",
              "7(b9)",
              "7(13)",
              "7#11",
              "7(9)",
              "7b5",
              "7sus4",
              "7th",
              "dim7",
              "dim",
              "minMaj7(9)",
              "minMaj7",
              "min7(11)",
              "min7(9)",
              "min(9)",
              "m7b5",
              "min7",
              "min6",
              "min",
              "aug",
              "Maj6(9)",
              "Maj7(9)",
              "Maj(9)",
              "Maj7#11",
              "Maj7",
              "Maj6",
              "Maj"
            ],
            "autoStart": true,
            "sourceChordNote": 0,
            "sourceChordType": "Maj",
            "ctb2Low": null,
            "ctb2Main": {
              "ntr": "ROOT_FIXED",
              "ntt": "BYPASS",
              "bassOn": false,
              "chordRootUpperLimit": 0,
              "noteLowLimit": 0,
              "noteHighLimit": 127,
              "rtr": "RETRIGGER"
            },
            "ctb2High": null
          },
          "notes": []
        },
        "8": {
          "ctab": {
            "srcChannel": 8,
            "name": "Perc",
            "accType": "SUBRHYTHM",
            "editable": false,
            "mutedNotes": [],
            "mutedChords": [],
            "autoStart": true,
            "sourceChordNote": 0,
            "sourceChordType": "Maj7",
            "ctb2Low": null,
            "ctb2Main": {
              "ntr": "ROOT_FIXED",
              "ntt": "BYPASS",
              "bassOn": false,
              "chordRootUpperLimit": 6,
              "noteLowLimit": 0,
              "noteHighLimit": 127,
              "rtr": "PITCH_SHIFT"
            },
            "ctb2High": null
          },
          "notes": []
        },
        "9": {
          "ctab": {
            "srcChannel": 9,
            "name": "Drums",
            "accType": "RHYTHM",
            "editable": false,
            "mutedNotes": [],
            "mutedChords": [],
            "autoStart": true,
            "sourceChordNote": 0,
            "sourceChordType": "Maj7",
            "ctb2Low": null,
            "ctb2Main": {
              "ntr": "ROOT_FIXED",
              "ntt": "BYPASS",
              "bassOn": false,
              "chordRootUpperLimit": 6,
              "noteLowLimit": 0,
              "noteHighLimit": 127,
              "rtr": "PITCH_SHIFT"
            },
            "ctb2High": null
          },
          "notes": [
            {
              "pitch": 32,
              "velocity": 82,
              "position": 0,
              "duration": 0.010416666666666666
            },
            {
              "pitch": 32,
              "velocity": 82,
              "position": 1,
              "duration": 0.010416666666666666
            },
            {
              "pitch": 40,
              "velocity": 37,
              "position": 1.75,
              "duration": 0.010416666666666666
            },
            {
              "pitch": 40,
              "velocity": 51,
              "position": 1.875,
              "duration": 0.010416666666666666
            },
            {
              "pitch": 40,
              "velocity": 114,
              "position": 2,
              "duration": 0.010416666666666666
            },
            {
              "pitch": 40,
              "velocity": 119,
              "position": 2.25,
              "duration": 0.010416666666666666
            },
            {
              "pitch": 40,
              "velocity": 108,
              "position": 2.75,
              "duration": 0.010416666666666666
            },
            {
              "pitch": 40,
              "velocity": 115,
              "position": 3,
              "duration": 0.010416666666666666
            },
            {
              "pitch": 45,
              "velocity": 83,
              "position": 3.25,
              "duration": 0.010416666666666666
            },
            {
              "pitch": 41,
              "velocity": 74,
              "position": 3.5,
              "duration": 0.010416666666666666
            },
            {
              "pitch": 35,
              "velocity": 89,
              "position": 3.75,
              "duration": 0.010416666666666666
            }
          ]
        },
        "10": {
          "ctab": {
            "srcChannel": 10,
            "name": "Bass",
            "accType": "BASS",
            "editable": false,
            "mutedNotes": [],
            "mutedChords": [],
            "autoStart": false,
            "sourceChordNote": 0,
            "sourceChordType": "Maj7",
            "ctb2Low": null,
            "ctb2Main": {
              "ntr": "ROOT_TRANSPOSITION",
              "ntt": "MELODY",
              "bassOn": true,
              "chordRootUpperLimit": 8,
              "noteLowLimit": 28,
              "noteHighLimit": 127,
              "rtr": "PITCH_SHIFT_TO_ROOT"
            },
            "ctb2High": null
          },
          "notes": []
        },
        "11": {
          "ctab": {
            "srcChannel": 11,
            "name": "Gtr",
            "accType": "CHORD1",
            "editable": false,
            "mutedNotes": [],
            "mutedChords": [],
            "autoStart": false,
            "sourceChordNote": 0,
            "sourceChordType": "Maj7",
            "ctb2Low": null,
            "ctb2Main": {
              "ntr": "ROOT_FIXED",
              "ntt": "CHORD",
              "bassOn": false,
              "chordRootUpperLimit": 7,
              "noteLowLimit": 0,
              "noteHighLimit": 127,
              "rtr": "PITCH_SHIFT"
            },
            "ctb2High": null
          },
          "notes": []
        },
        "12": {
          "ctab": {
            "srcChannel": 12,
            "name": "Pno",
            "accType": "CHORD2",
            "editable": false,
            "mutedNotes": [],
            "mutedChords": [],
            "autoStart": false,
            "sourceChordNote": 0,
            "sourceChordType": "Maj7",
            "ctb2Low": null,
            "ctb2Main": {
              "ntr": "ROOT_FIXED",
              "ntt": "CHORD",
              "bassOn": false,
              "chordRootUpperLimit": 7,
              "noteLowLimit": 0,
              "noteHighLimit": 127,
              "rtr": "PITCH_SHIFT"
            },
            "ctb2High": null
          },
          "notes": []
        },
        "13": {
          "ctab": {
            "srcChannel": 13,
            "name": "Str",
            "accType": "PAD",
            "editable": false,
            "mutedNotes": [],
            "mutedChords": [],
            "autoStart": false,
            "sourceChordNote": 0,
            "sourceChordType": "Maj7",
            "ctb2Low": null,
            "ctb2Main": {
              "ntr": "ROOT_FIXED",
              "ntt": "CHORD",
              "bassOn": false,
              "chordRootUpperLimit": 7,
              "noteLowLimit": 0,
              "noteHighLimit": 127,
              "rtr": "PITCH_SHIFT"
            },
            "ctb2High": null
          },
          "notes": []
        },
        "14": {
          "ctab": {
            "srcChannel": 14,
            "name": "Brass",
            "accType": "PHRASE1",
            "editable": false,
            "mutedNotes": [],
            "mutedChords": [],
            "autoStart": false,
            "sourceChordNote": 0,
            "sourceChordType": "Maj7",
            "ctb2Low": null,
            "ctb2Main": {
              "ntr": "ROOT_FIXED",
              "ntt": "CHORD",
              "bassOn": false,
              "chordRootUpperLimit": 7,
              "noteLowLimit": 0,
              "noteHighLimit": 127,
              "rtr": "PITCH_SHIFT"
            },
            "ctb2High": null
          },
          "notes": []
        }
      }
    },
    "Ending_A": {
      "type": "Ending_A",
      "sizeInBeats": 4,
      "channels": {
        "0": {
          "ctab": {
            "srcChannel": 0,
            "name": "Gtr FX",
            "accType": "CHORD1",
            "editable": true,
            "mutedNotes": [],
            "mutedChords": [],
            "autoStart": false,
            "sourceChordNote": 0,
            "sourceChordType": "Maj7",
            "ctb2Low": null,
            "ctb2Main": {
              "ntr": "ROOT_FIXED",
              "ntt": "BYPASS",
              "bassOn": false,
              "chordRootUpperLimit": 6,
              "noteLowLimit": 0,
              "noteHighLimit": 79,
              "rtr": "PITCH_SHIFT"
            },
            "ctb2High": null
          },
          "notes": [
            {
              "pitch": 108,
              "velocity": 103,
              "position": 0,
              "duration": 0.10416666666666667
            }
          ]
        },
        "2": {
          "ctab": {
            "srcChannel": 2,
            "name": "Gtr Root",
            "accType": "CHORD1",
            "editable": false,
            "mutedNotes": [],
            "mutedChords": [
              "1+2+5",
              "sus4",
              "1+5",
              "1+8",
              "Maj7aug",
              "dim",
              "minMaj7(9)",
              "minMaj7",
              "min6",
              "min",
              "aug",
              "Maj7(9)",
              "Maj7#11",
              "Maj7",
              "Maj6",
              "Maj"
            ],
            "autoStart": false,
            "sourceChordNote": 0,
            "sourceChordType": "Maj7",
            "ctb2Low": null,
            "ctb2Main": {
              "ntr": "ROOT_TRANSPOSITION",
              "ntt": "CHORD",
              "bassOn": false,
              "chordRootUpperLimit": 6,
              "noteLowLimit": 0,
              "noteHighLimit": 127,
              "rtr": "PITCH_SHIFT"
            },
            "ctb2High": null
          },
          "notes": [
            {
              "pitch": 60,
              "velocity": 40,
              "position": 0,
              "duration": 3.9895833333333335
            }
          ]
        },
        "4": {
          "ctab": {
            "srcChannel": 4,
            "name": "Str Root",
            "accType": "PAD",
            "editable": false,
            "mutedNotes": [],
            "mutedChords": [
              "1+2+5",
              "sus4",
              "1+5",
              "1+8",
              "Maj7aug",
              "dim",
              "minMaj7(9)",
              "minMaj7",
              "min6",
              "min",
              "aug",
              "Maj7(9)",
              "Maj7#11",
              "Maj7",
              "Maj6",
              "Maj"
            ],
            "autoStart": false,
            "sourceChordNote": 0,
            "sourceChordType": "Maj7",
            "ctb2Low": null,
            "ctb2Main": {
              "ntr": "ROOT_TRANSPOSITION",
              "ntt": "CHORD",
              "bassOn": false,
              "chordRootUpperLimit": 6,
              "noteLowLimit": 0,
              "noteHighLimit": 127,
              "rtr": "PITCH_SHIFT"
            },
            "ctb2High": null
          },
          "notes": [
            {
              "pitch": 60,
              "velocity": 38,
              "position": 0,
              "duration": 3.9895833333333335
            }
          ]
        },
        "7": {
          "ctab": {
            "srcChannel": 7,
            "name": "CC_Crash",
            "accType": "RHYTHM",
            "editable": false,
            "mutedNotes": [],
            "mutedChords": [
              "1+2+5",
              "sus4",
              "1+5",
              "1+8",
              "7aug",
              "Maj7aug",
              "7(#9)",
              "7(b13)",
              "7(b9)",
              "7(13)",
              "7#11",
              "7(9)",
              "7b5",
              "7sus4",
              "7th",
              "dim7",
              "dim",
              "minMaj7(9)",
              "minMaj7",
              "min7(11)",
              "min7(9)",
              "min(9)",
              "m7b5",
              "min7",
              "min6",
              "min",
              "aug",
              "Maj6(9)",
              "Maj7(9)",
              "Maj(9)",
              "Maj7#11",
              "Maj7",
              "Maj6",
              "Maj"
            ],
            "autoStart": true,
            "sourceChordNote": 0,
            "sourceChordType": "Maj",
            "ctb2Low": null,
            "ctb2Main": {
              "ntr": "ROOT_FIXED",
              "ntt": "BYPASS",
              "bassOn": false,
              "chordRootUpperLimit": 0,
              "noteLowLimit": 0,
              "noteHighLimit": 127,
              "rtr": "RETRIGGER"
            },
            "ctb2High": null
          },
          "notes": []
        },
        "8": {
          "ctab": {
            "srcChannel": 8,
            "name": "Perc",
            "accType": "SUBRHYTHM",
            "editable": false,
            "mutedNotes": [],
            "mutedChords": [],
            "autoStart": true,
            "sourceChordNote": 0,
            "sourceChordType": "Maj7",
            "ctb2Low": null,
            "ctb2Main": {
              "ntr": "ROOT_FIXED",
              "ntt": "BYPASS",
              "bassOn": false,
              "chordRootUpperLimit": 6,
              "noteLowLimit": 0,
              "noteHighLimit": 127,
              "rtr": "PITCH_SHIFT"
            },
            "ctb2High": null
          },
          "notes": []
        },
        "9": {
          "ctab": {
            "srcChannel": 9,
            "name": "Drums",
            "accType": "RHYTHM",
            "editable": false,
            "mutedNotes": [],
            "mutedChords": [],
            "autoStart": true,
            "sourceChordNote": 0,
            "sourceChordType": "Maj7",
            "ctb2Low": null,
            "ctb2Main": {
              "ntr": "ROOT_FIXED",
              "ntt": "BYPASS",
              "bassOn": false,
              "chordRootUpperLimit": 6,
              "noteLowLimit": 0,
              "noteHighLimit": 127,
              "rtr": "PITCH_SHIFT"
            },
            "ctb2High": null
          },
          "notes": [
            {
              "pitch": 35,
              "velocity": 107,
              "position": 0,
              "duration": 0.010416666666666666
            },
            {
              "pitch": 46,
              "velocity": 91,
              "position": 0,
              "duration": 0.010416666666666666
            }
          ]
        },
        "10": {
          "ctab": {
            "srcChannel": 10,
            "name": "Bass",
            "accType": "BASS",
            "editable": false,
            "mutedNotes": [],
            "mutedChords": [],
            "autoStart": false,
            "sourceChordNote": 0,
            "sourceChordType": "Maj7",
            "ctb2Low": null,
            "ctb2Main": {
              "ntr": "ROOT_TRANSPOSITION",
              "ntt": "MELODY",
              "bassOn": true,
              "chordRootUpperLimit": 8,
              "noteLowLimit": 28,
              "noteHighLimit": 127,
              "rtr": "PITCH_SHIFT_TO_ROOT"
            },
            "ctb2High": null
          },
          "notes": [
            {
              "pitch": 24,
              "velocity": 72,
              "position": 0,
              "duration": 3.9895833333333335
            }
          ]
        },
        "11": {
          "ctab": {
            "srcChannel": 11,
            "name": "Gtr",
            "accType": "CHORD1",
            "editable": false,
            "mutedNotes": [],
            "mutedChords": [],
            "autoStart": false,
            "sourceChordNote": 0,
            "sourceChordType": "Maj7",
            "ctb2Low": null,
            "ctb2Main": {
              "ntr": "ROOT_FIXED",
              "ntt": "CHORD",
              "bassOn": false,
              "chordRootUpperLimit": 7,
              "noteLowLimit": 0,
              "noteHighLimit": 127,
              "rtr": "PITCH_SHIFT"
            },
            "ctb2High": null
          },
          "notes": [
            {
              "pitch": 55,
              "velocity": 40,
              "position": 0,
              "duration": 3.9895833333333335
            },
            {
              "pitch": 59,
              "velocity": 40,
              "position": 0,
              "duration": 3.9895833333333335
            },
            {
              "pitch": 64,
              "velocity": 40,
              "position": 0,
              "duration": 3.9895833333333335
            }
          ]
        },
        "12": {
          "ctab": {
            "srcChannel": 12,
            "name": "Pno",
            "accType": "CHORD2",
            "editable": false,
            "mutedNotes": [],
            "mutedChords": [],
            "autoStart": false,
            "sourceChordNote": 0,
            "sourceChordType": "Maj7",
            "ctb2Low": null,
            "ctb2Main": {
              "ntr": "ROOT_FIXED",
              "ntt": "CHORD",
              "bassOn": false,
              "chordRootUpperLimit": 7,
              "noteLowLimit": 0,
              "noteHighLimit": 127,
              "rtr": "PITCH_SHIFT"
            },
            "ctb2High": null
          },
          "notes": [
            {
              "pitch": 55,
              "velocity": 92,
              "position": 0,
              "duration": 3.9895833333333335
            },
            {
              "pitch": 59,
              "velocity": 92,
              "position": 0,
              "duration": 3.9895833333333335
            },
            {
              "pitch": 64,
              "velocity": 92,
              "position": 0,
              "duration": 3.9895833333333335
            }
          ]
        },
        "13": {
          "ctab": {
            "srcChannel": 13,
            "name": "Str",
            "accType": "PAD",
            "editable": false,
            "mutedNotes": [],
            "mutedChords": [],
            "autoStart": false,
            "sourceChordNote": 0,
            "sourceChordType": "Maj7",
            "ctb2Low": null,
            "ctb2Main": {
              "ntr": "ROOT_FIXED",
              "ntt": "CHORD",
              "bassOn": false,
              "chordRootUpperLimit": 7,
              "noteLowLimit": 0,
              "noteHighLimit": 127,
              "rtr": "PITCH_SHIFT"
            },
            "ctb2High": null
          },
          "notes": [
            {
              "pitch": 55,
              "velocity": 38,
              "position": 0,
              "duration": 3.9895833333333335
            },
            {
              "pitch": 59,
              "velocity": 38,
              "position": 0,
              "duration": 3.9895833333333335
            },
            {
              "pitch": 64,
              "velocity": 38,
              "position": 0,
              "duration": 3.9895833333333335
            }
          ]
        },
        "14": {
          "ctab": {
            "srcChannel": 14,
            "name": "Brass",
            "accType": "PHRASE1",
            "editable": false,
            "mutedNotes": [],
            "mutedChords": [],
            "autoStart": false,
            "sourceChordNote": 0,
            "sourceChordType": "Maj7",
            "ctb2Low": null,
            "ctb2Main": {
              "ntr": "ROOT_FIXED",
              "ntt": "CHORD",
              "bassOn": false,
              "chordRootUpperLimit": 7,
              "noteLowLimit": 0,
              "noteHighLimit": 127,
              "rtr": "PITCH_SHIFT"
            },
            "ctb2High": null
          },
          "notes": []
        }
      }
    },
    "Ending_B": {
      "type": "Ending_B",
      "sizeInBeats": 8,
      "channels": {
        "0": {
          "ctab": {
            "srcChannel": 0,
            "name": "Gtr FX",
            "accType": "CHORD1",
            "editable": true,
            "mutedNotes": [],
            "mutedChords": [],
            "autoStart": false,
            "sourceChordNote": 0,
            "sourceChordType": "Maj7",
            "ctb2Low": null,
            "ctb2Main": {
              "ntr": "ROOT_FIXED",
              "ntt": "BYPASS",
              "bassOn": false,
              "chordRootUpperLimit": 6,
              "noteLowLimit": 0,
              "noteHighLimit": 79,
              "rtr": "PITCH_SHIFT"
            },
            "ctb2High": null
          },
          "notes": [
            {
              "pitch": 106,
              "velocity": 107,
              "position": 0,
              "duration": 0.10416666666666667
            },
            {
              "pitch": 107,
              "velocity": 85,
              "position": 0.25,
              "duration": 0.10416666666666667
            },
            {
              "pitch": 108,
              "velocity": 107,
              "position": 0.5,
              "duration": 0.10416666666666667
            },
            {
              "pitch": 121,
              "velocity": 77,
              "position": 0.875,
              "duration": 0.6041666666666666
            },
            {
              "pitch": 104,
              "velocity": 119,
              "position": 6,
              "duration": 0.10416666666666667
            },
            {
              "pitch": 105,
              "velocity": 101,
              "position": 6.25,
              "duration": 0.10416666666666667
            },
            {
              "pitch": 106,
              "velocity": 107,
              "position": 6.5,
              "duration": 0.10416666666666667
            },
            {
              "pitch": 107,
              "velocity": 85,
              "position": 6.75,
              "duration": 0.10416666666666667
            },
            {
              "pitch": 108,
              "velocity": 107,
              "position": 7,
              "duration": 0.10416666666666667
            }
          ]
        },
        "2": {
          "ctab": {
            "srcChannel": 2,
            "name": "Gtr Root",
            "accType": "CHORD1",
            "editable": false,
            "mutedNotes": [],
            "mutedChords": [
              "1+2+5",
              "sus4",
              "1+5",
              "1+8",
              "Maj7aug",
              "dim",
              "minMaj7(9)",
              "minMaj7",
              "min6",
              "min",
              "aug",
              "Maj7(9)",
              "Maj7#11",
              "Maj7",
              "Maj6",
              "Maj"
            ],
            "autoStart": false,
            "sourceChordNote": 0,
            "sourceChordType": "Maj7",
            "ctb2Low": null,
            "ctb2Main": {
              "ntr": "ROOT_TRANSPOSITION",
              "ntt": "CHORD",
              "bassOn": false,
              "chordRootUpperLimit": 6,
              "noteLowLimit": 0,
              "noteHighLimit": 127,
              "rtr": "PITCH_SHIFT"
            },
            "ctb2High": null
          },
          "notes": [
            {
              "pitch": 60,
              "velocity": 40,
              "position": 0,
              "duration": 0.21875
            },
            {
              "pitch": 60,
              "velocity": 40,
              "position": 0.5,
              "duration": 0.21875
            },
            {
              "pitch": 60,
              "velocity": 40,
              "position": 6.5,
              "duration": 0.21875
            },
            {
              "pitch": 60,
              "velocity": 40,
              "position": 7,
              "duration": 0.21875
            }
          ]
        },
        "4": {
          "ctab": {
            "srcChannel": 4,
            "name": "Str Root",
            "accType": "PAD",
            "editable": false,
            "mutedNotes": [],
            "mutedChords": [
              "1+2+5",
              "sus4",
              "1+5",
              "1+8",
              "Maj7aug",
              "dim",
              "minMaj7(9)",
              "minMaj7",
              "min6",
              "min",
              "aug",
              "Maj7(9)",
              "Maj7#11",
              "Maj7",
              "Maj6",
              "Maj"
            ],
            "autoStart": false,
            "sourceChordNote": 0,
            "sourceChordType": "Maj7",
            "ctb2Low": null,
            "ctb2Main": {
              "ntr": "ROOT_TRANSPOSITION",
              "ntt": "CHORD",
              "bassOn": false,
              "chordRootUpperLimit": 6,
              "noteLowLimit": 0,
              "noteHighLimit": 127,
              "rtr": "PITCH_SHIFT"
            },
            "ctb2High": null
          },
          "notes": []
        },
        "7": {
          "ctab": {
            "srcChannel": 7,
            "name": "CC_Crash",
            "accType": "RHYTHM",
            "editable": false,
            "mutedNotes": [],
            "mutedChords": [
              "1+2+5",
              "sus4",
              "1+5",
              "1+8",
              "7aug",
              "Maj7aug",
              "7(#9)",
              "7(b13)",
              "7(b9)",
              "7(13)",
              "7#11",
              "7(9)",
              "7b5",
              "7sus4",
              "7th",
              "dim7",
              "dim",
              "minMaj7(9)",
              "minMaj7",
              "min7(11)",
              "min7(9)",
              "min(9)",
              "m7b5",
              "min7",
              "min6",
              "min",
              "aug",
              "Maj6(9)",
              "Maj7(9)",
              "Maj(9)",
              "Maj7#11",
              "Maj7",
              "Maj6",
              "Maj"
            ],
            "autoStart": true,
            "sourceChordNote": 0,
            "sourceChordType": "Maj",
            "ctb2Low": null,
            "ctb2Main": {
              "ntr": "ROOT_FIXED",
              "ntt": "BYPASS",
              "bassOn": false,
              "chordRootUpperLimit": 0,
              "noteLowLimit": 0,
              "noteHighLimit": 127,
              "rtr": "RETRIGGER"
            },
            "ctb2High": null
          },
          "notes": []
        },
        "8": {
          "ctab": {
            "srcChannel": 8,
            "name": "Perc",
            "accType": "SUBRHYTHM",
            "editable": false,
            "mutedNotes": [],
            "mutedChords": [],
            "autoStart": true,
            "sourceChordNote": 0,
            "sourceChordType": "Maj7",
            "ctb2Low": null,
            "ctb2Main": {
              "ntr": "ROOT_FIXED",
              "ntt": "BYPASS",
              "bassOn": false,
              "chordRootUpperLimit": 6,
              "noteLowLimit": 0,
              "noteHighLimit": 127,
              "rtr": "PITCH_SHIFT"
            },
            "ctb2High": null
          },
          "notes": [
            {
              "pitch": 23,
              "velocity": 101,
              "position": 0,
              "duration": 0.125
            },
            {
              "pitch": 40,
              "velocity": 93,
              "position": 0,
              "duration": 0.125
            },
            {
              "pitch": 22,
              "velocity": 74,
              "position": 0.25,
              "duration": 0.125
            },
            {
              "pitch": 38,
              "velocity": 86,
              "position": 0.25,
              "duration": 0.125
            },
            {
              "pitch": 28,
              "velocity": 107,
              "position": 0.5,
              "duration": 0.125
            },
            {
              "pitch": 36,
              "velocity": 88,
              "position": 0.5,
              "duration": 0.125
            },
            {
              "pitch": 22,
              "velocity": 74,
              "position": 0.75,
              "duration": 0.125
            },
            {
              "pitch": 40,
              "velocity": 97,
              "position": 0.75,
              "duration": 0.125
            },
            {
              "pitch": 23,
              "velocity": 80,
              "position": 1,
              "duration": 0.125
            },
            {
              "pitch": 38,
              "velocity": 86,
              "position": 1,
              "duration": 0.125
            },
            {
              "pitch": 22,
              "velocity": 86,
              "position": 1.25,
              "duration": 0.125
            },
            {
              "pitch": 39,
              "velocity": 74,
              "position": 1.25,
              "duration": 0.125
            },
            {
              "pitch": 24,
              "velocity": 94,
              "position": 1.5,
              "duration": 0.125
            },
            {
              "pitch": 42,
              "velocity": 102,
              "position": 1.5,
              "duration": 0.125
            },
            {
              "pitch": 24,
              "velocity": 100,
              "position": 1.75,
              "duration": 0.125
            },
            {
              "pitch": 43,
              "velocity": 108,
              "position": 1.75,
              "duration": 0.125
            },
            {
              "pitch": 23,
              "velocity": 81,
              "position": 2,
              "duration": 0.125
            },
            {
              "pitch": 38,
              "velocity": 76,
              "position": 2,
              "duration": 0.125
            },
            {
              "pitch": 22,
              "velocity": 63,
              "position": 2.25,
              "duration": 0.125
            },
            {
              "pitch": 43,
              "velocity": 108,
              "position": 2.25,
              "duration": 0.125
            },
            {
              "pitch": 28,
              "velocity": 107,
              "position": 2.5,
              "duration": 0.125
            },
            {
              "pitch": 43,
              "velocity": 108,
              "position": 2.5,
              "duration": 0.125
            },
            {
              "pitch": 22,
              "velocity": 63,
              "position": 2.75,
              "duration": 0.125
            },
            {
              "pitch": 40,
              "velocity": 97,
              "position": 2.75,
              "duration": 0.125
            },
            {
              "pitch": 23,
              "velocity": 81,
              "position": 3,
              "duration": 0.125
            },
            {
              "pitch": 38,
              "velocity": 76,
              "position": 3,
              "duration": 0.125
            },
            {
              "pitch": 22,
              "velocity": 63,
              "position": 3.25,
              "duration": 0.125
            },
            {
              "pitch": 39,
              "velocity": 74,
              "position": 3.25,
              "duration": 0.125
            },
            {
              "pitch": 31,
              "velocity": 99,
              "position": 3.5,
              "duration": 0.125
            },
            {
              "pitch": 42,
              "velocity": 102,
              "position": 3.5,
              "duration": 0.125
            },
            {
              "pitch": 24,
              "velocity": 97,
              "position": 3.75,
              "duration": 0.125
            },
            {
              "pitch": 40,
              "velocity": 90,
              "position": 3.75,
              "duration": 0.125
            },
            {
              "pitch": 23,
              "velocity": 101,
              "position": 4,
              "duration": 0.125
            },
            {
              "pitch": 40,
              "velocity": 93,
              "position": 4,
              "duration": 0.125
            },
            {
              "pitch": 22,
              "velocity": 74,
              "position": 4.25,
              "duration": 0.125
            },
            {
              "pitch": 38,
              "velocity": 86,
              "position": 4.25,
              "duration": 0.125
            },
            {
              "pitch": 28,
              "velocity": 107,
              "position": 4.5,
              "duration": 0.125
            },
            {
              "pitch": 36,
              "velocity": 88,
              "position": 4.5,
              "duration": 0.125
            },
            {
              "pitch": 48,
              "velocity": 100,
              "position": 4.5,
              "duration": 0.125
            },
            {
              "pitch": 22,
              "velocity": 74,
              "position": 4.75,
              "duration": 0.125
            },
            {
              "pitch": 40,
              "velocity": 97,
              "position": 4.75,
              "duration": 0.125
            },
            {
              "pitch": 48,
              "velocity": 110,
              "position": 4.75,
              "duration": 0.125
            },
            {
              "pitch": 23,
              "velocity": 80,
              "position": 5,
              "duration": 0.125
            },
            {
              "pitch": 38,
              "velocity": 86,
              "position": 5,
              "duration": 0.125
            },
            {
              "pitch": 22,
              "velocity": 86,
              "position": 5.25,
              "duration": 0.125
            },
            {
              "pitch": 39,
              "velocity": 74,
              "position": 5.25,
              "duration": 0.125
            },
            {
              "pitch": 24,
              "velocity": 94,
              "position": 5.5,
              "duration": 0.125
            },
            {
              "pitch": 42,
              "velocity": 102,
              "position": 5.5,
              "duration": 0.125
            },
            {
              "pitch": 24,
              "velocity": 100,
              "position": 5.75,
              "duration": 0.125
            },
            {
              "pitch": 43,
              "velocity": 108,
              "position": 5.75,
              "duration": 0.125
            },
            {
              "pitch": 26,
              "velocity": 93,
              "position": 6.5,
              "duration": 0.125
            },
            {
              "pitch": 38,
              "velocity": 92,
              "position": 6.5,
              "duration": 0.125
            },
            {
              "pitch": 48,
              "velocity": 112,
              "position": 6.5,
              "duration": 0.125
            },
            {
              "pitch": 54,
              "velocity": 112,
              "position": 6.5,
              "duration": 0.125
            },
            {
              "pitch": 26,
              "velocity": 93,
              "position": 7,
              "duration": 0.125
            },
            {
              "pitch": 38,
              "velocity": 92,
              "position": 7,
              "duration": 0.125
            },
            {
              "pitch": 48,
              "velocity": 112,
              "position": 7,
              "duration": 0.125
            },
            {
              "pitch": 54,
              "velocity": 112,
              "position": 7,
              "duration": 0.125
            }
          ]
        },
        "9": {
          "ctab": {
            "srcChannel": 9,
            "name": "Drums",
            "accType": "RHYTHM",
            "editable": false,
            "mutedNotes": [],
            "mutedChords": [],
            "autoStart": true,
            "sourceChordNote": 0,
            "sourceChordType": "Maj7",
            "ctb2Low": null,
            "ctb2Main": {
              "ntr": "ROOT_FIXED",
              "ntt": "BYPASS",
              "bassOn": false,
              "chordRootUpperLimit": 6,
              "noteLowLimit": 0,
              "noteHighLimit": 127,
              "rtr": "PITCH_SHIFT"
            },
            "ctb2High": null
          },
          "notes": [
            {
              "pitch": 35,
              "velocity": 107,
              "position": 0,
              "duration": 0.010416666666666666
            },
            {
              "pitch": 42,
              "velocity": 113,
              "position": 0,
              "duration": 0.010416666666666666
            },
            {
              "pitch": 51,
              "velocity": 62,
              "position": 0,
              "duration": 0.010416666666666666
            },
            {
              "pitch": 42,
              "velocity": 60,
              "position": 0.25,
              "duration": 0.010416666666666666
            },
            {
              "pitch": 42,
              "velocity": 98,
              "position": 0.5,
              "duration": 0.010416666666666666
            },
            {
              "pitch": 51,
              "velocity": 62,
              "position": 0.5,
              "duration": 0.010416666666666666
            },
            {
              "pitch": 35,
              "velocity": 105,
              "position": 0.75,
              "duration": 0.010416666666666666
            },
            {
              "pitch": 42,
              "velocity": 85,
              "position": 0.75,
              "duration": 0.010416666666666666
            },
            {
              "pitch": 40,
              "velocity": 107,
              "position": 1,
              "duration": 0.010416666666666666
            },
            {
              "pitch": 42,
              "velocity": 113,
              "position": 1,
              "duration": 0.010416666666666666
            },
            {
              "pitch": 42,
              "velocity": 60,
              "position": 1.25,
              "duration": 0.010416666666666666
            },
            {
              "pitch": 51,
              "velocity": 62,
              "position": 1.25,
              "duration": 0.010416666666666666
            },
            {
              "pitch": 42,
              "velocity": 88,
              "position": 1.5,
              "duration": 0.010416666666666666
            },
            {
              "pitch": 43,
              "velocity": 74,
              "position": 1.5,
              "duration": 0.010416666666666666
            },
            {
              "pitch": 40,
              "velocity": 107,
              "position": 1.75,
              "duration": 0.010416666666666666
            },
            {
              "pitch": 42,
              "velocity": 85,
              "position": 1.75,
              "duration": 0.010416666666666666
            },
            {
              "pitch": 35,
              "velocity": 107,
              "position": 2,
              "duration": 0.010416666666666666
            },
            {
              "pitch": 42,
              "velocity": 113,
              "position": 2,
              "duration": 0.010416666666666666
            },
            {
              "pitch": 51,
              "velocity": 62,
              "position": 2,
              "duration": 0.010416666666666666
            },
            {
              "pitch": 40,
              "velocity": 82,
              "position": 2.25,
              "duration": 0.010416666666666666
            },
            {
              "pitch": 42,
              "velocity": 60,
              "position": 2.25,
              "duration": 0.010416666666666666
            },
            {
              "pitch": 42,
              "velocity": 98,
              "position": 2.5,
              "duration": 0.010416666666666666
            },
            {
              "pitch": 35,
              "velocity": 105,
              "position": 2.75,
              "duration": 0.010416666666666666
            },
            {
              "pitch": 42,
              "velocity": 85,
              "position": 2.75,
              "duration": 0.010416666666666666
            },
            {
              "pitch": 51,
              "velocity": 62,
              "position": 2.75,
              "duration": 0.010416666666666666
            },
            {
              "pitch": 40,
              "velocity": 112,
              "position": 3,
              "duration": 0.010416666666666666
            },
            {
              "pitch": 42,
              "velocity": 113,
              "position": 3,
              "duration": 0.010416666666666666
            },
            {
              "pitch": 49,
              "velocity": 67,
              "position": 3,
              "duration": 0.010416666666666666
            },
            {
              "pitch": 42,
              "velocity": 60,
              "position": 3.25,
              "duration": 0.010416666666666666
            },
            {
              "pitch": 42,
              "velocity": 88,
              "position": 3.5,
              "duration": 0.010416666666666666
            },
            {
              "pitch": 43,
              "velocity": 74,
              "position": 3.5,
              "duration": 0.010416666666666666
            },
            {
              "pitch": 42,
              "velocity": 85,
              "position": 3.75,
              "duration": 0.010416666666666666
            },
            {
              "pitch": 35,
              "velocity": 107,
              "position": 4,
              "duration": 0.010416666666666666
            },
            {
              "pitch": 42,
              "velocity": 113,
              "position": 4,
              "duration": 0.010416666666666666
            },
            {
              "pitch": 42,
              "velocity": 60,
              "position": 4.25,
              "duration": 0.010416666666666666
            },
            {
              "pitch": 42,
              "velocity": 98,
              "position": 4.5,
              "duration": 0.010416666666666666
            },
            {
              "pitch": 42,
              "velocity": 85,
              "position": 4.75,
              "duration": 0.010416666666666666
            },
            {
              "pitch": 35,
              "velocity": 105,
              "position": 5,
              "duration": 0.010416666666666666
            },
            {
              "pitch": 42,
              "velocity": 113,
              "position": 5,
              "duration": 0.010416666666666666
            },
            {
              "pitch": 42,
              "velocity": 60,
              "position": 5.25,
              "duration": 0.010416666666666666
            },
            {
              "pitch": 42,
              "velocity": 88,
              "position": 5.5,
              "duration": 0.010416666666666666
            },
            {
              "pitch": 42,
              "velocity": 102,
              "position": 5.75,
              "duration": 0.010416666666666666
            },
            {
              "pitch": 34,
              "velocity": 79,
              "position": 6,
              "duration": 0.010416666666666666
            },
            {
              "pitch": 35,
              "velocity": 105,
              "position": 6.5,
              "duration": 0.010416666666666666
            },
            {
              "pitch": 49,
              "velocity": 60,
              "position": 6.5,
              "duration": 0.010416666666666666
            },
            {
              "pitch": 35,
              "velocity": 105,
              "position": 7,
              "duration": 0.010416666666666666
            },
            {
              "pitch": 49,
              "velocity": 60,
              "position": 7,
              "duration": 0.010416666666666666
            }
          ]
        },
        "10": {
          "ctab": {
            "srcChannel": 10,
            "name": "Bass",
            "accType": "BASS",
            "editable": false,
            "mutedNotes": [],
            "mutedChords": [],
            "autoStart": false,
            "sourceChordNote": 0,
            "sourceChordType": "Maj7",
            "ctb2Low": null,
            "ctb2Main": {
              "ntr": "ROOT_TRANSPOSITION",
              "ntt": "MELODY",
              "bassOn": true,
              "chordRootUpperLimit": 8,
              "noteLowLimit": 28,
              "noteHighLimit": 127,
              "rtr": "PITCH_SHIFT_TO_ROOT"
            },
            "ctb2High": null
          },
          "notes": [
            {
              "pitch": 24,
              "velocity": 72,
              "position": 0,
              "duration": 0.23958333333333334
            },
            {
              "pitch": 24,
              "velocity": 72,
              "position": 0.5,
              "duration": 0.23958333333333334
            },
            {
              "pitch": 24,
              "velocity": 72,
              "position": 6.5,
              "duration": 0.23958333333333334
            },
            {
              "pitch": 24,
              "velocity": 72,
              "position": 7,
              "duration": 0.4895833333333333
            }
          ]
        },
        "11": {
          "ctab": {
            "srcChannel": 11,
            "name": "Gtr",
            "accType": "CHORD1",
            "editable": false,
            "mutedNotes": [],
            "mutedChords": [],
            "autoStart": false,
            "sourceChordNote": 0,
            "sourceChordType": "Maj7",
            "ctb2Low": null,
            "ctb2Main": {
              "ntr": "ROOT_FIXED",
              "ntt": "CHORD",
              "bassOn": false,
              "chordRootUpperLimit": 7,
              "noteLowLimit": 0,
              "noteHighLimit": 127,
              "rtr": "PITCH_SHIFT"
            },
            "ctb2High": null
          },
          "notes": [
            {
              "pitch": 55,
              "velocity": 40,
              "position": 0,
              "duration": 0.21875
            },
            {
              "pitch": 59,
              "velocity": 40,
              "position": 0,
              "duration": 0.21875
            },
            {
              "pitch": 64,
              "velocity": 40,
              "position": 0,
              "duration": 0.21875
            },
            {
              "pitch": 55,
              "velocity": 40,
              "position": 0.5,
              "duration": 0.21875
            },
            {
              "pitch": 59,
              "velocity": 40,
              "position": 0.5,
              "duration": 0.21875
            },
            {
              "pitch": 64,
              "velocity": 40,
              "position": 0.5,
              "duration": 0.21875
            },
            {
              "pitch": 55,
              "velocity": 40,
              "position": 6.5,
              "duration": 0.21875
            },
            {
              "pitch": 59,
              "velocity": 40,
              "position": 6.5,
              "duration": 0.21875
            },
            {
              "pitch": 64,
              "velocity": 40,
              "position": 6.5,
              "duration": 0.21875
            },
            {
              "pitch": 55,
              "velocity": 40,
              "position": 7,
              "duration": 0.21875
            },
            {
              "pitch": 59,
              "velocity": 40,
              "position": 7,
              "duration": 0.21875
            },
            {
              "pitch": 64,
              "velocity": 40,
              "position": 7,
              "duration": 0.21875
            }
          ]
        },
        "12": {
          "ctab": {
            "srcChannel": 12,
            "name": "Pno",
            "accType": "CHORD2",
            "editable": false,
            "mutedNotes": [],
            "mutedChords": [],
            "autoStart": false,
            "sourceChordNote": 0,
            "sourceChordType": "Maj7",
            "ctb2Low": null,
            "ctb2Main": {
              "ntr": "ROOT_FIXED",
              "ntt": "CHORD",
              "bassOn": false,
              "chordRootUpperLimit": 7,
              "noteLowLimit": 0,
              "noteHighLimit": 127,
              "rtr": "PITCH_SHIFT"
            },
            "ctb2High": null
          },
          "notes": [
            {
              "pitch": 55,
              "velocity": 90,
              "position": 0,
              "duration": 0.1875
            },
            {
              "pitch": 59,
              "velocity": 90,
              "position": 0,
              "duration": 0.1875
            },
            {
              "pitch": 64,
              "velocity": 90,
              "position": 0,
              "duration": 0.1875
            },
            {
              "pitch": 55,
              "velocity": 90,
              "position": 0.5,
              "duration": 0.15625
            },
            {
              "pitch": 59,
              "velocity": 90,
              "position": 0.5,
              "duration": 0.15625
            },
            {
              "pitch": 64,
              "velocity": 90,
              "position": 0.5,
              "duration": 0.15625
            },
            {
              "pitch": 55,
              "velocity": 92,
              "position": 6.5,
              "duration": 0.1875
            },
            {
              "pitch": 59,
              "velocity": 92,
              "position": 6.5,
              "duration": 0.1875
            },
            {
              "pitch": 64,
              "velocity": 92,
              "position": 6.5,
              "duration": 0.1875
            },
            {
              "pitch": 55,
              "velocity": 92,
              "position": 7,
              "duration": 0.15625
            },
            {
              "pitch": 59,
              "velocity": 92,
              "position": 7,
              "duration": 0.15625
            },
            {
              "pitch": 64,
              "velocity": 92,
              "position": 7,
              "duration": 0.15625
            }
          ]
        },
        "13": {
          "ctab": {
            "srcChannel": 13,
            "name": "Str",
            "accType": "PAD",
            "editable": false,
            "mutedNotes": [],
            "mutedChords": [],
            "autoStart": false,
            "sourceChordNote": 0,
            "sourceChordType": "Maj7",
            "ctb2Low": null,
            "ctb2Main": {
              "ntr": "ROOT_FIXED",
              "ntt": "CHORD",
              "bassOn": false,
              "chordRootUpperLimit": 7,
              "noteLowLimit": 0,
              "noteHighLimit": 127,
              "rtr": "PITCH_SHIFT"
            },
            "ctb2High": null
          },
          "notes": []
        },
        "14": {
          "ctab": {
            "srcChannel": 14,
            "name": "Brass",
            "accType": "PHRASE1",
            "editable": false,
            "mutedNotes": [],
            "mutedChords": [],
            "autoStart": false,
            "sourceChordNote": 0,
            "sourceChordType": "Maj7",
            "ctb2Low": null,
            "ctb2Main": {
              "ntr": "ROOT_FIXED",
              "ntt": "CHORD",
              "bassOn": false,
              "chordRootUpperLimit": 7,
              "noteLowLimit": 0,
              "noteHighLimit": 127,
              "rtr": "PITCH_SHIFT"
            },
            "ctb2High": null
          },
          "notes": [
            {
              "pitch": 64,
              "velocity": 83,
              "position": 0,
              "duration": 0.20833333333333334
            },
            {
              "pitch": 67,
              "velocity": 83,
              "position": 0,
              "duration": 0.20833333333333334
            },
            {
              "pitch": 71,
              "velocity": 104,
              "position": 0,
              "duration": 0.20833333333333334
            },
            {
              "pitch": 64,
              "velocity": 83,
              "position": 0.5,
              "duration": 0.20833333333333334
            },
            {
              "pitch": 67,
              "velocity": 83,
              "position": 0.5,
              "duration": 0.20833333333333334
            },
            {
              "pitch": 71,
              "velocity": 104,
              "position": 0.5,
              "duration": 0.20833333333333334
            },
            {
              "pitch": 76,
              "velocity": 85,
              "position": 6.5,
              "duration": 0.22916666666666666
            },
            {
              "pitch": 79,
              "velocity": 85,
              "position": 6.5,
              "duration": 0.22916666666666666
            },
            {
              "pitch": 83,
              "velocity": 106,
              "position": 6.5,
              "duration": 0.22916666666666666
            },
            {
              "pitch": 76,
              "velocity": 85,
              "position": 7,
              "duration": 0.3854166666666667
            },
            {
              "pitch": 79,
              "velocity": 85,
              "position": 7,
              "duration": 0.3854166666666667
            },
            {
              "pitch": 83,
              "velocity": 106,
              "position": 7,
              "duration": 0.3854166666666667
            }
          ]
        }
      }
    },
    "Fill_In_BA": {
      "type": "Fill_In_BA",
      "sizeInBeats": 4,
      "channels": {
        "0": {
          "ctab": {
            "srcChannel": 0,
            "name": "Gtr FX",
            "accType": "CHORD1",
            "editable": true,
            "mutedNotes": [],
            "mutedChords": [],
            "autoStart": false,
            "sourceChordNote": 0,
            "sourceChordType": "Maj7",
            "ctb2Low": null,
            "ctb2Main": {
              "ntr": "ROOT_FIXED",
              "ntt": "BYPASS",
              "bassOn": false,
              "chordRootUpperLimit": 6,
              "noteLowLimit": 0,
              "noteHighLimit": 79,
              "rtr": "PITCH_SHIFT"
            },
            "ctb2High": null
          },
          "notes": [
            {
              "pitch": 106,
              "velocity": 107,
              "position": 0,
              "duration": 0.10416666666666667
            },
            {
              "pitch": 107,
              "velocity": 85,
              "position": 0.25,
              "duration": 0.10416666666666667
            },
            {
              "pitch": 108,
              "velocity": 123,
              "position": 0.5,
              "duration": 0.10416666666666667
            },
            {
              "pitch": 121,
              "velocity": 85,
              "position": 0.875,
              "duration": 0.6041666666666666
            },
            {
              "pitch": 106,
              "velocity": 103,
              "position": 3.5,
              "duration": 0.10416666666666667
            },
            {
              "pitch": 105,
              "velocity": 85,
              "position": 3.75,
              "duration": 0.10416666666666667
            }
          ]
        },
        "2": {
          "ctab": {
            "srcChannel": 2,
            "name": "Gtr Root",
            "accType": "CHORD1",
            "editable": false,
            "mutedNotes": [],
            "mutedChords": [
              "1+2+5",
              "sus4",
              "1+5",
              "1+8",
              "Maj7aug",
              "dim",
              "minMaj7(9)",
              "minMaj7",
              "min6",
              "min",
              "aug",
              "Maj7(9)",
              "Maj7#11",
              "Maj7",
              "Maj6",
              "Maj"
            ],
            "autoStart": false,
            "sourceChordNote": 0,
            "sourceChordType": "Maj7",
            "ctb2Low": null,
            "ctb2Main": {
              "ntr": "ROOT_TRANSPOSITION",
              "ntt": "CHORD",
              "bassOn": false,
              "chordRootUpperLimit": 6,
              "noteLowLimit": 0,
              "noteHighLimit": 127,
              "rtr": "PITCH_SHIFT"
            },
            "ctb2High": null
          },
          "notes": [
            {
              "pitch": 60,
              "velocity": 37,
              "position": 0,
              "duration": 0.21875
            },
            {
              "pitch": 60,
              "velocity": 37,
              "position": 0.5,
              "duration": 0.21875
            }
          ]
        },
        "4": {
          "ctab": {
            "srcChannel": 4,
            "name": "Str Root",
            "accType": "PAD",
            "editable": false,
            "mutedNotes": [],
            "mutedChords": [
              "1+2+5",
              "sus4",
              "1+5",
              "1+8",
              "Maj7aug",
              "dim",
              "minMaj7(9)",
              "minMaj7",
              "min6",
              "min",
              "aug",
              "Maj7(9)",
              "Maj7#11",
              "Maj7",
              "Maj6",
              "Maj"
            ],
            "autoStart": false,
            "sourceChordNote": 0,
            "sourceChordType": "Maj7",
            "ctb2Low": null,
            "ctb2Main": {
              "ntr": "ROOT_TRANSPOSITION",
              "ntt": "CHORD",
              "bassOn": false,
              "chordRootUpperLimit": 6,
              "noteLowLimit": 0,
              "noteHighLimit": 127,
              "rtr": "PITCH_SHIFT"
            },
            "ctb2High": null
          },
          "notes": []
        },
        "7": {
          "ctab": {
            "srcChannel": 7,
            "name": "CC_Crash",
            "accType": "RHYTHM",
            "editable": false,
            "mutedNotes": [],
            "mutedChords": [
              "1+2+5",
              "sus4",
              "1+5",
              "1+8",
              "7aug",
              "Maj7aug",
              "7(#9)",
              "7(b13)",
              "7(b9)",
              "7(13)",
              "7#11",
              "7(9)",
              "7b5",
              "7sus4",
              "7th",
              "dim7",
              "dim",
              "minMaj7(9)",
              "minMaj7",
              "min7(11)",
              "min7(9)",
              "min(9)",
              "m7b5",
              "min7",
              "min6",
              "min",
              "aug",
              "Maj6(9)",
              "Maj7(9)",
              "Maj(9)",
              "Maj7#11",
              "Maj7",
              "Maj6",
              "Maj"
            ],
            "autoStart": true,
            "sourceChordNote": 0,
            "sourceChordType": "Maj",
            "ctb2Low": null,
            "ctb2Main": {
              "ntr": "ROOT_FIXED",
              "ntt": "BYPASS",
              "bassOn": false,
              "chordRootUpperLimit": 0,
              "noteLowLimit": 0,
              "noteHighLimit": 127,
              "rtr": "RETRIGGER"
            },
            "ctb2High": null
          },
          "notes": []
        },
        "8": {
          "ctab": {
            "srcChannel": 8,
            "name": "Perc",
            "accType": "SUBRHYTHM",
            "editable": false,
            "mutedNotes": [],
            "mutedChords": [],
            "autoStart": true,
            "sourceChordNote": 0,
            "sourceChordType": "Maj7",
            "ctb2Low": null,
            "ctb2Main": {
              "ntr": "ROOT_FIXED",
              "ntt": "BYPASS",
              "bassOn": false,
              "chordRootUpperLimit": 6,
              "noteLowLimit": 0,
              "noteHighLimit": 127,
              "rtr": "PITCH_SHIFT"
            },
            "ctb2High": null
          },
          "notes": [
            {
              "pitch": 23,
              "velocity": 103,
              "position": 0,
              "duration": 0.125
            },
            {
              "pitch": 38,
              "velocity": 90,
              "position": 0,
              "duration": 0.125
            },
            {
              "pitch": 60,
              "velocity": 88,
              "position": 0,
              "duration": 0.125
            },
            {
              "pitch": 22,
              "velocity": 74,
              "position": 0.25,
              "duration": 0.125
            },
            {
              "pitch": 38,
              "velocity": 90,
              "position": 0.25,
              "duration": 0.125
            },
            {
              "pitch": 28,
              "velocity": 107,
              "position": 0.5,
              "duration": 0.125
            },
            {
              "pitch": 60,
              "velocity": 94,
              "position": 0.5,
              "duration": 0.125
            },
            {
              "pitch": 22,
              "velocity": 74,
              "position": 0.75,
              "duration": 0.125
            },
            {
              "pitch": 23,
              "velocity": 80,
              "position": 1,
              "duration": 0.125
            },
            {
              "pitch": 22,
              "velocity": 100,
              "position": 1.25,
              "duration": 0.125
            },
            {
              "pitch": 24,
              "velocity": 97,
              "position": 1.5,
              "duration": 0.125
            },
            {
              "pitch": 37,
              "velocity": 103,
              "position": 1.5,
              "duration": 0.125
            },
            {
              "pitch": 24,
              "velocity": 100,
              "position": 1.75,
              "duration": 0.125
            },
            {
              "pitch": 23,
              "velocity": 81,
              "position": 2,
              "duration": 0.125
            },
            {
              "pitch": 37,
              "velocity": 103,
              "position": 2,
              "duration": 0.125
            },
            {
              "pitch": 24,
              "velocity": 99,
              "position": 2.25,
              "duration": 0.125
            },
            {
              "pitch": 24,
              "velocity": 99,
              "position": 2.5,
              "duration": 0.125
            },
            {
              "pitch": 37,
              "velocity": 103,
              "position": 2.5,
              "duration": 0.125
            },
            {
              "pitch": 38,
              "velocity": 92,
              "position": 3,
              "duration": 0.125
            },
            {
              "pitch": 31,
              "velocity": 107,
              "position": 3.25,
              "duration": 0.125
            },
            {
              "pitch": 38,
              "velocity": 92,
              "position": 3.25,
              "duration": 0.125
            },
            {
              "pitch": 31,
              "velocity": 107,
              "position": 3.5,
              "duration": 0.125
            }
          ]
        },
        "9": {
          "ctab": {
            "srcChannel": 9,
            "name": "Drums",
            "accType": "RHYTHM",
            "editable": false,
            "mutedNotes": [],
            "mutedChords": [],
            "autoStart": true,
            "sourceChordNote": 0,
            "sourceChordType": "Maj7",
            "ctb2Low": null,
            "ctb2Main": {
              "ntr": "ROOT_FIXED",
              "ntt": "BYPASS",
              "bassOn": false,
              "chordRootUpperLimit": 6,
              "noteLowLimit": 0,
              "noteHighLimit": 127,
              "rtr": "PITCH_SHIFT"
            },
            "ctb2High": null
          },
          "notes": [
            {
              "pitch": 35,
              "velocity": 107,
              "position": 0,
              "duration": 0.010416666666666666
            },
            {
              "pitch": 55,
              "velocity": 77,
              "position": 0,
              "duration": 0.010416666666666666
            },
            {
              "pitch": 35,
              "velocity": 107,
              "position": 0.5,
              "duration": 0.010416666666666666
            },
            {
              "pitch": 55,
              "velocity": 77,
              "position": 0.5,
              "duration": 0.010416666666666666
            },
            {
              "pitch": 42,
              "velocity": 85,
              "position": 0.75,
              "duration": 0.010416666666666666
            },
            {
              "pitch": 42,
              "velocity": 113,
              "position": 1,
              "duration": 0.010416666666666666
            },
            {
              "pitch": 42,
              "velocity": 60,
              "position": 1.25,
              "duration": 0.010416666666666666
            },
            {
              "pitch": 42,
              "velocity": 88,
              "position": 1.5,
              "duration": 0.010416666666666666
            },
            {
              "pitch": 42,
              "velocity": 85,
              "position": 1.75,
              "duration": 0.010416666666666666
            },
            {
              "pitch": 42,
              "velocity": 113,
              "position": 2,
              "duration": 0.010416666666666666
            },
            {
              "pitch": 42,
              "velocity": 60,
              "position": 2.25,
              "duration": 0.010416666666666666
            },
            {
              "pitch": 42,
              "velocity": 98,
              "position": 2.5,
              "duration": 0.010416666666666666
            },
            {
              "pitch": 42,
              "velocity": 85,
              "position": 2.75,
              "duration": 0.010416666666666666
            },
            {
              "pitch": 40,
              "velocity": 103,
              "position": 3,
              "duration": 0.010416666666666666
            },
            {
              "pitch": 40,
              "velocity": 112,
              "position": 3.25,
              "duration": 0.010416666666666666
            },
            {
              "pitch": 43,
              "velocity": 73,
              "position": 3.5,
              "duration": 0.010416666666666666
            },
            {
              "pitch": 42,
              "velocity": 85,
              "position": 3.75,
              "duration": 0.010416666666666666
            },
            {
              "pitch": 49,
              "velocity": 59,
              "position": 3.9895833333333335,
              "duration": 0.010416666666666666
            }
          ]
        },
        "10": {
          "ctab": {
            "srcChannel": 10,
            "name": "Bass",
            "accType": "BASS",
            "editable": false,
            "mutedNotes": [],
            "mutedChords": [],
            "autoStart": false,
            "sourceChordNote": 0,
            "sourceChordType": "Maj7",
            "ctb2Low": null,
            "ctb2Main": {
              "ntr": "ROOT_TRANSPOSITION",
              "ntt": "MELODY",
              "bassOn": true,
              "chordRootUpperLimit": 8,
              "noteLowLimit": 28,
              "noteHighLimit": 127,
              "rtr": "PITCH_SHIFT_TO_ROOT"
            },
            "ctb2High": null
          },
          "notes": [
            {
              "pitch": 24,
              "velocity": 72,
              "position": 0,
              "duration": 0.23958333333333334
            },
            {
              "pitch": 24,
              "velocity": 72,
              "position": 0.5,
              "duration": 0.23958333333333334
            }
          ]
        },
        "11": {
          "ctab": {
            "srcChannel": 11,
            "name": "Gtr",
            "accType": "CHORD1",
            "editable": false,
            "mutedNotes": [],
            "mutedChords": [],
            "autoStart": false,
            "sourceChordNote": 0,
            "sourceChordType": "Maj7",
            "ctb2Low": null,
            "ctb2Main": {
              "ntr": "ROOT_FIXED",
              "ntt": "CHORD",
              "bassOn": false,
              "chordRootUpperLimit": 7,
              "noteLowLimit": 0,
              "noteHighLimit": 127,
              "rtr": "PITCH_SHIFT"
            },
            "ctb2High": null
          },
          "notes": [
            {
              "pitch": 55,
              "velocity": 37,
              "position": 0,
              "duration": 0.21875
            },
            {
              "pitch": 59,
              "velocity": 37,
              "position": 0,
              "duration": 0.21875
            },
            {
              "pitch": 64,
              "velocity": 37,
              "position": 0,
              "duration": 0.21875
            },
            {
              "pitch": 55,
              "velocity": 37,
              "position": 0.5,
              "duration": 0.21875
            },
            {
              "pitch": 59,
              "velocity": 37,
              "position": 0.5,
              "duration": 0.21875
            },
            {
              "pitch": 64,
              "velocity": 37,
              "position": 0.5,
              "duration": 0.21875
            }
          ]
        },
        "12": {
          "ctab": {
            "srcChannel": 12,
            "name": "Pno",
            "accType": "CHORD2",
            "editable": false,
            "mutedNotes": [],
            "mutedChords": [],
            "autoStart": false,
            "sourceChordNote": 0,
            "sourceChordType": "Maj7",
            "ctb2Low": null,
            "ctb2Main": {
              "ntr": "ROOT_FIXED",
              "ntt": "CHORD",
              "bassOn": false,
              "chordRootUpperLimit": 7,
              "noteLowLimit": 0,
              "noteHighLimit": 127,
              "rtr": "PITCH_SHIFT"
            },
            "ctb2High": null
          },
          "notes": [
            {
              "pitch": 55,
              "velocity": 88,
              "position": 0,
              "duration": 0.1875
            },
            {
              "pitch": 59,
              "velocity": 88,
              "position": 0,
              "duration": 0.1875
            },
            {
              "pitch": 64,
              "velocity": 88,
              "position": 0,
              "duration": 0.1875
            },
            {
              "pitch": 55,
              "velocity": 88,
              "position": 0.5,
              "duration": 0.15625
            },
            {
              "pitch": 59,
              "velocity": 88,
              "position": 0.5,
              "duration": 0.15625
            },
            {
              "pitch": 64,
              "velocity": 88,
              "position": 0.5,
              "duration": 0.15625
            }
          ]
        },
        "13": {
          "ctab": {
            "srcChannel": 13,
            "name": "Str",
            "accType": "PAD",
            "editable": false,
            "mutedNotes": [],
            "mutedChords": [],
            "autoStart": false,
            "sourceChordNote": 0,
            "sourceChordType": "Maj7",
            "ctb2Low": null,
            "ctb2Main": {
              "ntr": "ROOT_FIXED",
              "ntt": "CHORD",
              "bassOn": false,
              "chordRootUpperLimit": 7,
              "noteLowLimit": 0,
              "noteHighLimit": 127,
              "rtr": "PITCH_SHIFT"
            },
            "ctb2High": null
          },
          "notes": []
        },
        "14": {
          "ctab": {
            "srcChannel": 14,
            "name": "Brass",
            "accType": "PHRASE1",
            "editable": false,
            "mutedNotes": [],
            "mutedChords": [],
            "autoStart": false,
            "sourceChordNote": 0,
            "sourceChordType": "Maj7",
            "ctb2Low": null,
            "ctb2Main": {
              "ntr": "ROOT_FIXED",
              "ntt": "CHORD",
              "bassOn": false,
              "chordRootUpperLimit": 7,
              "noteLowLimit": 0,
              "noteHighLimit": 127,
              "rtr": "PITCH_SHIFT"
            },
            "ctb2High": null
          },
          "notes": [
            {
              "pitch": 64,
              "velocity": 79,
              "position": 0,
              "duration": 0.20833333333333334
            },
            {
              "pitch": 67,
              "velocity": 79,
              "position": 0,
              "duration": 0.20833333333333334
            },
            {
              "pitch": 71,
              "velocity": 94,
              "position": 0,
              "duration": 0.20833333333333334
            },
            {
              "pitch": 64,
              "velocity": 79,
              "position": 0.5,
              "duration": 0.20833333333333334
            },
            {
              "pitch": 67,
              "velocity": 79,
              "position": 0.5,
              "duration": 0.20833333333333334
            },
            {
              "pitch": 71,
              "velocity": 94,
              "position": 0.5,
              "duration": 0.20833333333333334
            }
          ]
        }
      }
    },
    "Main_D": {
      "type": "Main_D",
      "sizeInBeats": 8,
      "channels": {
        "0": {
          "ctab": {
            "srcChannel": 0,
            "name": "Gtr FX",
            "accType": "CHORD1",
            "editable": true,
            "mutedNotes": [],
            "mutedChords": [],
            "autoStart": false,
            "sourceChordNote": 0,
            "sourceChordType": "Maj7",
            "ctb2Low": null,
            "ctb2Main": {
              "ntr": "ROOT_FIXED",
              "ntt": "BYPASS",
              "bassOn": false,
              "chordRootUpperLimit": 6,
              "noteLowLimit": 0,
              "noteHighLimit": 79,
              "rtr": "PITCH_SHIFT"
            },
            "ctb2High": null
          },
          "notes": [
            {
              "pitch": 104,
              "velocity": 79,
              "position": 0,
              "duration": 0.10416666666666667
            },
            {
              "pitch": 105,
              "velocity": 63,
              "position": 0.25,
              "duration": 0.10416666666666667
            },
            {
              "pitch": 108,
              "velocity": 105,
              "position": 0.5,
              "duration": 0.10416666666666667
            },
            {
              "pitch": 105,
              "velocity": 101,
              "position": 0.75,
              "duration": 0.10416666666666667
            },
            {
              "pitch": 102,
              "velocity": 79,
              "position": 1,
              "duration": 0.10416666666666667
            },
            {
              "pitch": 105,
              "velocity": 67,
              "position": 1.25,
              "duration": 0.10416666666666667
            },
            {
              "pitch": 106,
              "velocity": 107,
              "position": 1.5,
              "duration": 0.10416666666666667
            },
            {
              "pitch": 105,
              "velocity": 101,
              "position": 1.75,
              "duration": 0.10416666666666667
            },
            {
              "pitch": 104,
              "velocity": 79,
              "position": 2,
              "duration": 0.10416666666666667
            },
            {
              "pitch": 105,
              "velocity": 67,
              "position": 2.25,
              "duration": 0.10416666666666667
            },
            {
              "pitch": 108,
              "velocity": 107,
              "position": 2.5,
              "duration": 0.10416666666666667
            },
            {
              "pitch": 105,
              "velocity": 123,
              "position": 2.75,
              "duration": 0.10416666666666667
            },
            {
              "pitch": 102,
              "velocity": 79,
              "position": 3,
              "duration": 0.10416666666666667
            },
            {
              "pitch": 105,
              "velocity": 67,
              "position": 3.25,
              "duration": 0.10416666666666667
            },
            {
              "pitch": 106,
              "velocity": 103,
              "position": 3.5,
              "duration": 0.10416666666666667
            },
            {
              "pitch": 105,
              "velocity": 85,
              "position": 3.75,
              "duration": 0.10416666666666667
            },
            {
              "pitch": 104,
              "velocity": 79,
              "position": 4,
              "duration": 0.10416666666666667
            },
            {
              "pitch": 105,
              "velocity": 63,
              "position": 4.25,
              "duration": 0.10416666666666667
            },
            {
              "pitch": 108,
              "velocity": 105,
              "position": 4.5,
              "duration": 0.10416666666666667
            },
            {
              "pitch": 105,
              "velocity": 101,
              "position": 4.75,
              "duration": 0.10416666666666667
            },
            {
              "pitch": 102,
              "velocity": 79,
              "position": 5,
              "duration": 0.10416666666666667
            },
            {
              "pitch": 105,
              "velocity": 67,
              "position": 5.25,
              "duration": 0.10416666666666667
            },
            {
              "pitch": 106,
              "velocity": 107,
              "position": 5.5,
              "duration": 0.10416666666666667
            },
            {
              "pitch": 105,
              "velocity": 101,
              "position": 5.75,
              "duration": 0.10416666666666667
            },
            {
              "pitch": 104,
              "velocity": 79,
              "position": 6,
              "duration": 0.10416666666666667
            },
            {
              "pitch": 105,
              "velocity": 67,
              "position": 6.25,
              "duration": 0.10416666666666667
            },
            {
              "pitch": 108,
              "velocity": 107,
              "position": 6.5,
              "duration": 0.10416666666666667
            },
            {
              "pitch": 105,
              "velocity": 123,
              "position": 6.75,
              "duration": 0.10416666666666667
            },
            {
              "pitch": 102,
              "velocity": 79,
              "position": 7,
              "duration": 0.10416666666666667
            },
            {
              "pitch": 105,
              "velocity": 67,
              "position": 7.25,
              "duration": 0.10416666666666667
            },
            {
              "pitch": 106,
              "velocity": 103,
              "position": 7.5,
              "duration": 0.10416666666666667
            },
            {
              "pitch": 105,
              "velocity": 85,
              "position": 7.75,
              "duration": 0.10416666666666667
            }
          ]
        },
        "2": {
          "ctab": {
            "srcChannel": 2,
            "name": "Gtr Root",
            "accType": "CHORD1",
            "editable": false,
            "mutedNotes": [],
            "mutedChords": [
              "1+2+5",
              "sus4",
              "1+5",
              "1+8",
              "Maj7aug",
              "dim",
              "minMaj7(9)",
              "minMaj7",
              "min6",
              "min",
              "aug",
              "Maj7(9)",
              "Maj7#11",
              "Maj7",
              "Maj6",
              "Maj"
            ],
            "autoStart": false,
            "sourceChordNote": 0,
            "sourceChordType": "Maj7",
            "ctb2Low": null,
            "ctb2Main": {
              "ntr": "ROOT_TRANSPOSITION",
              "ntt": "CHORD",
              "bassOn": false,
              "chordRootUpperLimit": 6,
              "noteLowLimit": 0,
              "noteHighLimit": 127,
              "rtr": "PITCH_SHIFT"
            },
            "ctb2High": null
          },
          "notes": [
            {
              "pitch": 60,
              "velocity": 20,
              "position": 0,
              "duration": 0.22916666666666666
            },
            {
              "pitch": 60,
              "velocity": 34,
              "position": 3.7604166666666665,
              "duration": 0.23125
            },
            {
              "pitch": 60,
              "velocity": 20,
              "position": 4,
              "duration": 0.22916666666666666
            },
            {
              "pitch": 60,
              "velocity": 34,
              "position": 7.760416666666667,
              "duration": 0.23125
            }
          ]
        },
        "3": {
          "ctab": {
            "srcChannel": 3,
            "name": "Pno RH 1",
            "accType": "CHORD2",
            "editable": false,
            "mutedNotes": [],
            "mutedChords": [
              "sus4",
              "1+5",
              "1+8",
              "7aug",
              "7(#9)",
              "7(b13)",
              "7(b9)",
              "7(13)",
              "7(9)",
              "dim",
              "minMaj7",
              "min7(9)",
              "min(9)",
              "m7b5",
              "min6",
              "min",
              "aug",
              "Maj6(9)",
              "Maj6"
            ],
            "autoStart": false,
            "sourceChordNote": 0,
            "sourceChordType": "Maj7",
            "ctb2Low": null,
            "ctb2Main": {
              "ntr": "ROOT_TRANSPOSITION",
              "ntt": "CHORD",
              "bassOn": false,
              "chordRootUpperLimit": 7,
              "noteLowLimit": 78,
              "noteHighLimit": 89,
              "rtr": "PITCH_SHIFT"
            },
            "ctb2High": null
          },
          "notes": [
            {
              "pitch": 59,
              "velocity": 84,
              "position": 0,
              "duration": 0.1875
            },
            {
              "pitch": 60,
              "velocity": 73,
              "position": 0.5,
              "duration": 0.17708333333333334
            },
            {
              "pitch": 55,
              "velocity": 84,
              "position": 0.75,
              "duration": 0.19791666666666666
            },
            {
              "pitch": 57,
              "velocity": 73,
              "position": 1.25,
              "duration": 0.17708333333333334
            },
            {
              "pitch": 60,
              "velocity": 84,
              "position": 1.75,
              "duration": 0.16666666666666666
            },
            {
              "pitch": 64,
              "velocity": 73,
              "position": 2.25,
              "duration": 0.1875
            },
            {
              "pitch": 55,
              "velocity": 73,
              "position": 2.75,
              "duration": 0.17708333333333334
            },
            {
              "pitch": 57,
              "velocity": 84,
              "position": 3,
              "duration": 0.23958333333333334
            },
            {
              "pitch": 60,
              "velocity": 84,
              "position": 3.5,
              "duration": 0.15625
            },
            {
              "pitch": 59,
              "velocity": 84,
              "position": 4,
              "duration": 0.1875
            },
            {
              "pitch": 60,
              "velocity": 73,
              "position": 4.5,
              "duration": 0.17708333333333334
            },
            {
              "pitch": 55,
              "velocity": 84,
              "position": 4.75,
              "duration": 0.19791666666666666
            },
            {
              "pitch": 57,
              "velocity": 73,
              "position": 5.25,
              "duration": 0.17708333333333334
            },
            {
              "pitch": 60,
              "velocity": 84,
              "position": 5.75,
              "duration": 0.16666666666666666
            },
            {
              "pitch": 64,
              "velocity": 73,
              "position": 6.25,
              "duration": 0.1875
            },
            {
              "pitch": 55,
              "velocity": 73,
              "position": 6.75,
              "duration": 0.17708333333333334
            },
            {
              "pitch": 57,
              "velocity": 84,
              "position": 7,
              "duration": 0.23958333333333334
            },
            {
              "pitch": 60,
              "velocity": 84,
              "position": 7.5,
              "duration": 0.15625
            }
          ]
        },
        "4": {
          "ctab": {
            "srcChannel": 4,
            "name": "Str Root",
            "accType": "PAD",
            "editable": false,
            "mutedNotes": [],
            "mutedChords": [
              "1+2+5",
              "sus4",
              "1+5",
              "1+8",
              "Maj7aug",
              "dim",
              "minMaj7(9)",
              "minMaj7",
              "min6",
              "min",
              "aug",
              "Maj7(9)",
              "Maj7#11",
              "Maj7",
              "Maj6",
              "Maj"
            ],
            "autoStart": false,
            "sourceChordNote": 0,
            "sourceChordType": "Maj7",
            "ctb2Low": null,
            "ctb2Main": {
              "ntr": "ROOT_TRANSPOSITION",
              "ntt": "CHORD",
              "bassOn": false,
              "chordRootUpperLimit": 6,
              "noteLowLimit": 0,
              "noteHighLimit": 127,
              "rtr": "PITCH_SHIFT"
            },
            "ctb2High": null
          },
          "notes": [
            {
              "pitch": 60,
              "velocity": 38,
              "position": 0,
              "duration": 7.989583333333333
            }
          ]
        },
        "6": {
          "ctab": {
            "srcChannel": 6,
            "name": "Pno RH 2",
            "accType": "CHORD2",
            "editable": false,
            "mutedNotes": [],
            "mutedChords": [
              "1+2+5",
              "Maj7aug",
              "7#11",
              "7b5",
              "7sus4",
              "7th",
              "dim7",
              "minMaj7(9)",
              "min7(11)",
              "min7",
              "Maj7(9)",
              "Maj(9)",
              "Maj7#11",
              "Maj7",
              "Maj"
            ],
            "autoStart": false,
            "sourceChordNote": 0,
            "sourceChordType": "Maj7",
            "ctb2Low": null,
            "ctb2Main": {
              "ntr": "ROOT_TRANSPOSITION",
              "ntt": "CHORD",
              "bassOn": false,
              "chordRootUpperLimit": 7,
              "noteLowLimit": 78,
              "noteHighLimit": 89,
              "rtr": "PITCH_SHIFT"
            },
            "ctb2High": null
          },
          "notes": [
            {
              "pitch": 60,
              "velocity": 86,
              "position": 0,
              "duration": 0.1875
            },
            {
              "pitch": 64,
              "velocity": 75,
              "position": 0.5,
              "duration": 0.17708333333333334
            },
            {
              "pitch": 55,
              "velocity": 86,
              "position": 0.75,
              "duration": 0.19791666666666666
            },
            {
              "pitch": 64,
              "velocity": 75,
              "position": 1.25,
              "duration": 0.17708333333333334
            },
            {
              "pitch": 60,
              "velocity": 86,
              "position": 1.75,
              "duration": 0.16666666666666666
            },
            {
              "pitch": 64,
              "velocity": 75,
              "position": 2.25,
              "duration": 0.1875
            },
            {
              "pitch": 55,
              "velocity": 75,
              "position": 2.75,
              "duration": 0.17708333333333334
            },
            {
              "pitch": 55,
              "velocity": 86,
              "position": 3,
              "duration": 0.23958333333333334
            },
            {
              "pitch": 64,
              "velocity": 86,
              "position": 3.5,
              "duration": 0.15625
            },
            {
              "pitch": 60,
              "velocity": 86,
              "position": 4,
              "duration": 0.1875
            },
            {
              "pitch": 64,
              "velocity": 75,
              "position": 4.5,
              "duration": 0.17708333333333334
            },
            {
              "pitch": 55,
              "velocity": 86,
              "position": 4.75,
              "duration": 0.19791666666666666
            },
            {
              "pitch": 64,
              "velocity": 75,
              "position": 5.25,
              "duration": 0.17708333333333334
            },
            {
              "pitch": 60,
              "velocity": 86,
              "position": 5.75,
              "duration": 0.16666666666666666
            },
            {
              "pitch": 64,
              "velocity": 75,
              "position": 6.25,
              "duration": 0.1875
            },
            {
              "pitch": 55,
              "velocity": 75,
              "position": 6.75,
              "duration": 0.17708333333333334
            },
            {
              "pitch": 55,
              "velocity": 86,
              "position": 7,
              "duration": 0.23958333333333334
            },
            {
              "pitch": 64,
              "velocity": 86,
              "position": 7.5,
              "duration": 0.15625
            }
          ]
        },
        "7": {
          "ctab": {
            "srcChannel": 7,
            "name": "CC_Crash",
            "accType": "RHYTHM",
            "editable": false,
            "mutedNotes": [],
            "mutedChords": [
              "1+2+5",
              "sus4",
              "1+5",
              "1+8",
              "7aug",
              "Maj7aug",
              "7(#9)",
              "7(b13)",
              "7(b9)",
              "7(13)",
              "7#11",
              "7(9)",
              "7b5",
              "7sus4",
              "7th",
              "dim7",
              "dim",
              "minMaj7(9)",
              "minMaj7",
              "min7(11)",
              "min7(9)",
              "min(9)",
              "m7b5",
              "min7",
              "min6",
              "min",
              "aug",
              "Maj6(9)",
              "Maj7(9)",
              "Maj(9)",
              "Maj7#11",
              "Maj7",
              "Maj6",
              "Maj"
            ],
            "autoStart": true,
            "sourceChordNote": 0,
            "sourceChordType": "Maj",
            "ctb2Low": null,
            "ctb2Main": {
              "ntr": "ROOT_FIXED",
              "ntt": "BYPASS",
              "bassOn": false,
              "chordRootUpperLimit": 0,
              "noteLowLimit": 0,
              "noteHighLimit": 127,
              "rtr": "RETRIGGER"
            },
            "ctb2High": null
          },
          "notes": []
        },
        "8": {
          "ctab": {
            "srcChannel": 8,
            "name": "Perc",
            "accType": "SUBRHYTHM",
            "editable": false,
            "mutedNotes": [],
            "mutedChords": [],
            "autoStart": true,
            "sourceChordNote": 0,
            "sourceChordType": "Maj7",
            "ctb2Low": null,
            "ctb2Main": {
              "ntr": "ROOT_FIXED",
              "ntt": "BYPASS",
              "bassOn": false,
              "chordRootUpperLimit": 6,
              "noteLowLimit": 0,
              "noteHighLimit": 127,
              "rtr": "PITCH_SHIFT"
            },
            "ctb2High": null
          },
          "notes": [
            {
              "pitch": 23,
              "velocity": 103,
              "position": 0,
              "duration": 0.125
            },
            {
              "pitch": 60,
              "velocity": 104,
              "position": 0,
              "duration": 0.125
            },
            {
              "pitch": 22,
              "velocity": 74,
              "position": 0.25,
              "duration": 0.125
            },
            {
              "pitch": 28,
              "velocity": 107,
              "position": 0.5,
              "duration": 0.125
            },
            {
              "pitch": 22,
              "velocity": 74,
              "position": 0.75,
              "duration": 0.125
            },
            {
              "pitch": 23,
              "velocity": 80,
              "position": 1,
              "duration": 0.125
            },
            {
              "pitch": 60,
              "velocity": 104,
              "position": 1,
              "duration": 0.125
            },
            {
              "pitch": 22,
              "velocity": 100,
              "position": 1.25,
              "duration": 0.125
            },
            {
              "pitch": 24,
              "velocity": 97,
              "position": 1.5,
              "duration": 0.125
            },
            {
              "pitch": 24,
              "velocity": 100,
              "position": 1.75,
              "duration": 0.125
            },
            {
              "pitch": 23,
              "velocity": 81,
              "position": 2,
              "duration": 0.125
            },
            {
              "pitch": 60,
              "velocity": 104,
              "position": 2,
              "duration": 0.125
            },
            {
              "pitch": 26,
              "velocity": 80,
              "position": 2.25,
              "duration": 0.125
            },
            {
              "pitch": 26,
              "velocity": 83,
              "position": 2.5,
              "duration": 0.125
            },
            {
              "pitch": 31,
              "velocity": 103,
              "position": 2.75,
              "duration": 0.125
            },
            {
              "pitch": 31,
              "velocity": 106,
              "position": 3,
              "duration": 0.125
            },
            {
              "pitch": 60,
              "velocity": 104,
              "position": 3,
              "duration": 0.125
            },
            {
              "pitch": 22,
              "velocity": 62,
              "position": 3.25,
              "duration": 0.125
            },
            {
              "pitch": 24,
              "velocity": 99,
              "position": 3.5,
              "duration": 0.125
            },
            {
              "pitch": 24,
              "velocity": 102,
              "position": 3.75,
              "duration": 0.125
            },
            {
              "pitch": 23,
              "velocity": 103,
              "position": 4,
              "duration": 0.125
            },
            {
              "pitch": 60,
              "velocity": 104,
              "position": 4,
              "duration": 0.125
            },
            {
              "pitch": 22,
              "velocity": 74,
              "position": 4.25,
              "duration": 0.125
            },
            {
              "pitch": 28,
              "velocity": 107,
              "position": 4.5,
              "duration": 0.125
            },
            {
              "pitch": 22,
              "velocity": 74,
              "position": 4.75,
              "duration": 0.125
            },
            {
              "pitch": 23,
              "velocity": 80,
              "position": 5,
              "duration": 0.125
            },
            {
              "pitch": 60,
              "velocity": 104,
              "position": 5,
              "duration": 0.125
            },
            {
              "pitch": 22,
              "velocity": 100,
              "position": 5.25,
              "duration": 0.125
            },
            {
              "pitch": 24,
              "velocity": 97,
              "position": 5.5,
              "duration": 0.125
            },
            {
              "pitch": 24,
              "velocity": 100,
              "position": 5.75,
              "duration": 0.125
            },
            {
              "pitch": 23,
              "velocity": 81,
              "position": 6,
              "duration": 0.125
            },
            {
              "pitch": 60,
              "velocity": 104,
              "position": 6,
              "duration": 0.125
            },
            {
              "pitch": 26,
              "velocity": 80,
              "position": 6.25,
              "duration": 0.125
            },
            {
              "pitch": 26,
              "velocity": 83,
              "position": 6.5,
              "duration": 0.125
            },
            {
              "pitch": 31,
              "velocity": 103,
              "position": 6.75,
              "duration": 0.125
            },
            {
              "pitch": 31,
              "velocity": 106,
              "position": 7,
              "duration": 0.125
            },
            {
              "pitch": 60,
              "velocity": 104,
              "position": 7,
              "duration": 0.125
            },
            {
              "pitch": 22,
              "velocity": 62,
              "position": 7.25,
              "duration": 0.125
            },
            {
              "pitch": 24,
              "velocity": 99,
              "position": 7.5,
              "duration": 0.125
            },
            {
              "pitch": 24,
              "velocity": 102,
              "position": 7.75,
              "duration": 0.125
            }
          ]
        },
        "9": {
          "ctab": {
            "srcChannel": 9,
            "name": "Drums",
            "accType": "RHYTHM",
            "editable": false,
            "mutedNotes": [],
            "mutedChords": [],
            "autoStart": true,
            "sourceChordNote": 0,
            "sourceChordType": "Maj7",
            "ctb2Low": null,
            "ctb2Main": {
              "ntr": "ROOT_FIXED",
              "ntt": "BYPASS",
              "bassOn": false,
              "chordRootUpperLimit": 6,
              "noteLowLimit": 0,
              "noteHighLimit": 127,
              "rtr": "PITCH_SHIFT"
            },
            "ctb2High": null
          },
          "notes": [
            {
              "pitch": 35,
              "velocity": 107,
              "position": 0,
              "duration": 0.010416666666666666
            },
            {
              "pitch": 44,
              "velocity": 92,
              "position": 0,
              "duration": 0.010416666666666666
            },
            {
              "pitch": 40,
              "velocity": 45,
              "position": 0.25,
              "duration": 0.010416666666666666
            },
            {
              "pitch": 44,
              "velocity": 89,
              "position": 0.5,
              "duration": 0.010416666666666666
            },
            {
              "pitch": 53,
              "velocity": 88,
              "position": 0.5,
              "duration": 0.010416666666666666
            },
            {
              "pitch": 35,
              "velocity": 102,
              "position": 0.75,
              "duration": 0.010416666666666666
            },
            {
              "pitch": 40,
              "velocity": 109,
              "position": 1,
              "duration": 0.010416666666666666
            },
            {
              "pitch": 44,
              "velocity": 92,
              "position": 1,
              "duration": 0.010416666666666666
            },
            {
              "pitch": 35,
              "velocity": 110,
              "position": 1.5,
              "duration": 0.010416666666666666
            },
            {
              "pitch": 44,
              "velocity": 89,
              "position": 1.5,
              "duration": 0.010416666666666666
            },
            {
              "pitch": 53,
              "velocity": 88,
              "position": 1.5,
              "duration": 0.010416666666666666
            },
            {
              "pitch": 35,
              "velocity": 107,
              "position": 2,
              "duration": 0.010416666666666666
            },
            {
              "pitch": 44,
              "velocity": 92,
              "position": 2,
              "duration": 0.010416666666666666
            },
            {
              "pitch": 44,
              "velocity": 89,
              "position": 2.5,
              "duration": 0.010416666666666666
            },
            {
              "pitch": 53,
              "velocity": 88,
              "position": 2.5,
              "duration": 0.010416666666666666
            },
            {
              "pitch": 35,
              "velocity": 102,
              "position": 2.75,
              "duration": 0.010416666666666666
            },
            {
              "pitch": 40,
              "velocity": 109,
              "position": 3,
              "duration": 0.010416666666666666
            },
            {
              "pitch": 44,
              "velocity": 92,
              "position": 3,
              "duration": 0.010416666666666666
            },
            {
              "pitch": 35,
              "velocity": 110,
              "position": 3.5,
              "duration": 0.010416666666666666
            },
            {
              "pitch": 44,
              "velocity": 89,
              "position": 3.5,
              "duration": 0.010416666666666666
            },
            {
              "pitch": 53,
              "velocity": 88,
              "position": 3.5,
              "duration": 0.010416666666666666
            },
            {
              "pitch": 40,
              "velocity": 100,
              "position": 3.75,
              "duration": 0.010416666666666666
            },
            {
              "pitch": 35,
              "velocity": 107,
              "position": 4,
              "duration": 0.010416666666666666
            },
            {
              "pitch": 44,
              "velocity": 92,
              "position": 4,
              "duration": 0.010416666666666666
            },
            {
              "pitch": 40,
              "velocity": 45,
              "position": 4.25,
              "duration": 0.010416666666666666
            },
            {
              "pitch": 44,
              "velocity": 89,
              "position": 4.5,
              "duration": 0.010416666666666666
            },
            {
              "pitch": 53,
              "velocity": 88,
              "position": 4.5,
              "duration": 0.010416666666666666
            },
            {
              "pitch": 35,
              "velocity": 102,
              "position": 4.75,
              "duration": 0.010416666666666666
            },
            {
              "pitch": 40,
              "velocity": 109,
              "position": 5,
              "duration": 0.010416666666666666
            },
            {
              "pitch": 44,
              "velocity": 92,
              "position": 5,
              "duration": 0.010416666666666666
            },
            {
              "pitch": 35,
              "velocity": 110,
              "position": 5.5,
              "duration": 0.010416666666666666
            },
            {
              "pitch": 44,
              "velocity": 89,
              "position": 5.5,
              "duration": 0.010416666666666666
            },
            {
              "pitch": 53,
              "velocity": 88,
              "position": 5.5,
              "duration": 0.010416666666666666
            },
            {
              "pitch": 35,
              "velocity": 107,
              "position": 6,
              "duration": 0.010416666666666666
            },
            {
              "pitch": 44,
              "velocity": 92,
              "position": 6,
              "duration": 0.010416666666666666
            },
            {
              "pitch": 44,
              "velocity": 89,
              "position": 6.5,
              "duration": 0.010416666666666666
            },
            {
              "pitch": 53,
              "velocity": 88,
              "position": 6.5,
              "duration": 0.010416666666666666
            },
            {
              "pitch": 35,
              "velocity": 102,
              "position": 6.75,
              "duration": 0.010416666666666666
            },
            {
              "pitch": 40,
              "velocity": 109,
              "position": 7,
              "duration": 0.010416666666666666
            },
            {
              "pitch": 44,
              "velocity": 92,
              "position": 7,
              "duration": 0.010416666666666666
            },
            {
              "pitch": 35,
              "velocity": 110,
              "position": 7.5,
              "duration": 0.010416666666666666
            },
            {
              "pitch": 44,
              "velocity": 89,
              "position": 7.5,
              "duration": 0.010416666666666666
            },
            {
              "pitch": 53,
              "velocity": 88,
              "position": 7.5,
              "duration": 0.010416666666666666
            },
            {
              "pitch": 40,
              "velocity": 100,
              "position": 7.75,
              "duration": 0.010416666666666666
            }
          ]
        },
        "10": {
          "ctab": {
            "srcChannel": 10,
            "name": "Bass",
            "accType": "BASS",
            "editable": false,
            "mutedNotes": [],
            "mutedChords": [],
            "autoStart": false,
            "sourceChordNote": 0,
            "sourceChordType": "Maj7",
            "ctb2Low": null,
            "ctb2Main": {
              "ntr": "ROOT_TRANSPOSITION",
              "ntt": "MELODY",
              "bassOn": true,
              "chordRootUpperLimit": 8,
              "noteLowLimit": 28,
              "noteHighLimit": 127,
              "rtr": "PITCH_SHIFT_TO_ROOT"
            },
            "ctb2High": null
          },
          "notes": [
            {
              "pitch": 24,
              "velocity": 72,
              "position": 0,
              "duration": 0.7395833333333334
            },
            {
              "pitch": 31,
              "velocity": 72,
              "position": 0.75,
              "duration": 0.7395833333333334
            },
            {
              "pitch": 36,
              "velocity": 72,
              "position": 1.5,
              "duration": 0.9895833333333334
            },
            {
              "pitch": 31,
              "velocity": 62,
              "position": 2.75,
              "duration": 0.16666666666666666
            },
            {
              "pitch": 31,
              "velocity": 72,
              "position": 3,
              "duration": 0.4895833333333333
            },
            {
              "pitch": 31,
              "velocity": 72,
              "position": 4.75,
              "duration": 0.7395833333333334
            },
            {
              "pitch": 36,
              "velocity": 72,
              "position": 5.5,
              "duration": 0.9895833333333334
            },
            {
              "pitch": 31,
              "velocity": 62,
              "position": 6.75,
              "duration": 0.16666666666666666
            },
            {
              "pitch": 31,
              "velocity": 72,
              "position": 7,
              "duration": 0.4895833333333333
            },
            {
              "pitch": 24,
              "velocity": 72,
              "position": 7.5,
              "duration": 0.4895833333333333
            }
          ]
        },
        "11": {
          "ctab": {
            "srcChannel": 11,
            "name": "Gtr",
            "accType": "CHORD1",
            "editable": false,
            "mutedNotes": [],
            "mutedChords": [],
            "autoStart": false,
            "sourceChordNote": 0,
            "sourceChordType": "Maj7",
            "ctb2Low": null,
            "ctb2Main": {
              "ntr": "ROOT_FIXED",
              "ntt": "CHORD",
              "bassOn": false,
              "chordRootUpperLimit": 7,
              "noteLowLimit": 0,
              "noteHighLimit": 127,
              "rtr": "PITCH_SHIFT"
            },
            "ctb2High": null
          },
          "notes": [
            {
              "pitch": 55,
              "velocity": 20,
              "position": 0,
              "duration": 0.22916666666666666
            },
            {
              "pitch": 59,
              "velocity": 20,
              "position": 0,
              "duration": 0.24166666666666667
            },
            {
              "pitch": 64,
              "velocity": 20,
              "position": 0.010416666666666666,
              "duration": 0.23125
            },
            {
              "pitch": 59,
              "velocity": 28,
              "position": 0.25,
              "duration": 0.23958333333333334
            },
            {
              "pitch": 64,
              "velocity": 28,
              "position": 0.25,
              "duration": 0.23958333333333334
            },
            {
              "pitch": 59,
              "velocity": 38,
              "position": 0.5,
              "duration": 0.09375
            },
            {
              "pitch": 64,
              "velocity": 38,
              "position": 0.5104166666666666,
              "duration": 0.09375
            },
            {
              "pitch": 59,
              "velocity": 32,
              "position": 0.75,
              "duration": 0.23958333333333334
            },
            {
              "pitch": 64,
              "velocity": 32,
              "position": 0.75,
              "duration": 0.23958333333333334
            },
            {
              "pitch": 59,
              "velocity": 20,
              "position": 1,
              "duration": 0.23958333333333334
            },
            {
              "pitch": 59,
              "velocity": 28,
              "position": 1.25,
              "duration": 0.23958333333333334
            },
            {
              "pitch": 59,
              "velocity": 38,
              "position": 1.5,
              "duration": 0.09375
            },
            {
              "pitch": 64,
              "velocity": 38,
              "position": 1.5104166666666667,
              "duration": 0.09375
            },
            {
              "pitch": 59,
              "velocity": 32,
              "position": 1.75,
              "duration": 0.23958333333333334
            },
            {
              "pitch": 64,
              "velocity": 32,
              "position": 1.75,
              "duration": 0.23958333333333334
            },
            {
              "pitch": 59,
              "velocity": 20,
              "position": 2,
              "duration": 0.23958333333333334
            },
            {
              "pitch": 59,
              "velocity": 28,
              "position": 2.25,
              "duration": 0.23958333333333334
            },
            {
              "pitch": 59,
              "velocity": 38,
              "position": 2.5,
              "duration": 0.09375
            },
            {
              "pitch": 64,
              "velocity": 38,
              "position": 2.5104166666666665,
              "duration": 0.09375
            },
            {
              "pitch": 59,
              "velocity": 32,
              "position": 2.75,
              "duration": 0.23958333333333334
            },
            {
              "pitch": 64,
              "velocity": 32,
              "position": 2.75,
              "duration": 0.23958333333333334
            },
            {
              "pitch": 59,
              "velocity": 20,
              "position": 3,
              "duration": 0.23958333333333334
            },
            {
              "pitch": 59,
              "velocity": 28,
              "position": 3.25,
              "duration": 0.23958333333333334
            },
            {
              "pitch": 59,
              "velocity": 38,
              "position": 3.5,
              "duration": 0.09375
            },
            {
              "pitch": 64,
              "velocity": 38,
              "position": 3.5104166666666665,
              "duration": 0.09375
            },
            {
              "pitch": 59,
              "velocity": 34,
              "position": 3.75,
              "duration": 0.24166666666666667
            },
            {
              "pitch": 64,
              "velocity": 34,
              "position": 3.75,
              "duration": 0.24166666666666667
            },
            {
              "pitch": 55,
              "velocity": 34,
              "position": 3.7604166666666665,
              "duration": 0.23125
            },
            {
              "pitch": 55,
              "velocity": 20,
              "position": 4,
              "duration": 0.22916666666666666
            },
            {
              "pitch": 59,
              "velocity": 20,
              "position": 4,
              "duration": 0.24166666666666667
            },
            {
              "pitch": 64,
              "velocity": 20,
              "position": 4.010416666666667,
              "duration": 0.23125
            },
            {
              "pitch": 59,
              "velocity": 28,
              "position": 4.25,
              "duration": 0.23958333333333334
            },
            {
              "pitch": 64,
              "velocity": 28,
              "position": 4.25,
              "duration": 0.23958333333333334
            },
            {
              "pitch": 59,
              "velocity": 38,
              "position": 4.5,
              "duration": 0.09375
            },
            {
              "pitch": 64,
              "velocity": 38,
              "position": 4.510416666666667,
              "duration": 0.09375
            },
            {
              "pitch": 59,
              "velocity": 32,
              "position": 4.75,
              "duration": 0.23958333333333334
            },
            {
              "pitch": 64,
              "velocity": 32,
              "position": 4.75,
              "duration": 0.23958333333333334
            },
            {
              "pitch": 59,
              "velocity": 20,
              "position": 5,
              "duration": 0.23958333333333334
            },
            {
              "pitch": 59,
              "velocity": 28,
              "position": 5.25,
              "duration": 0.23958333333333334
            },
            {
              "pitch": 59,
              "velocity": 38,
              "position": 5.5,
              "duration": 0.09375
            },
            {
              "pitch": 64,
              "velocity": 38,
              "position": 5.510416666666667,
              "duration": 0.09375
            },
            {
              "pitch": 59,
              "velocity": 32,
              "position": 5.75,
              "duration": 0.23958333333333334
            },
            {
              "pitch": 64,
              "velocity": 32,
              "position": 5.75,
              "duration": 0.23958333333333334
            },
            {
              "pitch": 59,
              "velocity": 20,
              "position": 6,
              "duration": 0.23958333333333334
            },
            {
              "pitch": 59,
              "velocity": 28,
              "position": 6.25,
              "duration": 0.23958333333333334
            },
            {
              "pitch": 59,
              "velocity": 38,
              "position": 6.5,
              "duration": 0.09375
            },
            {
              "pitch": 64,
              "velocity": 38,
              "position": 6.510416666666667,
              "duration": 0.09375
            },
            {
              "pitch": 59,
              "velocity": 32,
              "position": 6.75,
              "duration": 0.23958333333333334
            },
            {
              "pitch": 64,
              "velocity": 32,
              "position": 6.75,
              "duration": 0.23958333333333334
            },
            {
              "pitch": 59,
              "velocity": 20,
              "position": 7,
              "duration": 0.23958333333333334
            },
            {
              "pitch": 59,
              "velocity": 28,
              "position": 7.25,
              "duration": 0.23958333333333334
            },
            {
              "pitch": 59,
              "velocity": 38,
              "position": 7.5,
              "duration": 0.09375
            },
            {
              "pitch": 64,
              "velocity": 38,
              "position": 7.510416666666667,
              "duration": 0.09375
            },
            {
              "pitch": 59,
              "velocity": 34,
              "position": 7.75,
              "duration": 0.24166666666666667
            },
            {
              "pitch": 64,
              "velocity": 34,
              "position": 7.75,
              "duration": 0.24166666666666667
            },
            {
              "pitch": 55,
              "velocity": 34,
              "position": 7.760416666666667,
              "duration": 0.23125
            }
          ]
        },
        "12": {
          "ctab": {
            "srcChannel": 12,
            "name": "Pno LH 1",
            "accType": "CHORD2",
            "editable": false,
            "mutedNotes": [],
            "mutedChords": [
              "sus4",
              "1+5",
              "1+8",
              "7aug",
              "7(#9)",
              "7(b13)",
              "7(b9)",
              "7(13)",
              "7(9)",
              "dim",
              "minMaj7",
              "min7(9)",
              "min(9)",
              "m7b5",
              "min6",
              "min",
              "aug",
              "Maj6(9)",
              "Maj6"
            ],
            "autoStart": false,
            "sourceChordNote": 0,
            "sourceChordType": "Maj7",
            "ctb2Low": null,
            "ctb2Main": {
              "ntr": "ROOT_TRANSPOSITION",
              "ntt": "CHORD",
              "bassOn": false,
              "chordRootUpperLimit": 7,
              "noteLowLimit": 66,
              "noteHighLimit": 77,
              "rtr": "PITCH_SHIFT"
            },
            "ctb2High": null
          },
          "notes": [
            {
              "pitch": 55,
              "velocity": 86,
              "position": 0,
              "duration": 0.1875
            },
            {
              "pitch": 59,
              "velocity": 86,
              "position": 0,
              "duration": 0.1875
            },
            {
              "pitch": 64,
              "velocity": 86,
              "position": 0,
              "duration": 0.1875
            },
            {
              "pitch": 60,
              "velocity": 75,
              "position": 0.5,
              "duration": 0.17708333333333334
            },
            {
              "pitch": 55,
              "velocity": 86,
              "position": 0.75,
              "duration": 0.19791666666666666
            },
            {
              "pitch": 57,
              "velocity": 75,
              "position": 1.25,
              "duration": 0.17708333333333334
            },
            {
              "pitch": 55,
              "velocity": 86,
              "position": 1.75,
              "duration": 0.16666666666666666
            },
            {
              "pitch": 60,
              "velocity": 86,
              "position": 1.75,
              "duration": 0.16666666666666666
            },
            {
              "pitch": 64,
              "velocity": 86,
              "position": 1.75,
              "duration": 0.16666666666666666
            },
            {
              "pitch": 64,
              "velocity": 75,
              "position": 2.25,
              "duration": 0.1875
            },
            {
              "pitch": 55,
              "velocity": 75,
              "position": 2.75,
              "duration": 0.17708333333333334
            },
            {
              "pitch": 57,
              "velocity": 86,
              "position": 3,
              "duration": 0.23958333333333334
            },
            {
              "pitch": 60,
              "velocity": 86,
              "position": 3.5,
              "duration": 0.15625
            },
            {
              "pitch": 55,
              "velocity": 86,
              "position": 4,
              "duration": 0.1875
            },
            {
              "pitch": 59,
              "velocity": 86,
              "position": 4,
              "duration": 0.1875
            },
            {
              "pitch": 64,
              "velocity": 86,
              "position": 4,
              "duration": 0.1875
            },
            {
              "pitch": 60,
              "velocity": 75,
              "position": 4.5,
              "duration": 0.17708333333333334
            },
            {
              "pitch": 55,
              "velocity": 86,
              "position": 4.75,
              "duration": 0.19791666666666666
            },
            {
              "pitch": 57,
              "velocity": 75,
              "position": 5.25,
              "duration": 0.17708333333333334
            },
            {
              "pitch": 55,
              "velocity": 86,
              "position": 5.75,
              "duration": 0.16666666666666666
            },
            {
              "pitch": 60,
              "velocity": 86,
              "position": 5.75,
              "duration": 0.16666666666666666
            },
            {
              "pitch": 64,
              "velocity": 86,
              "position": 5.75,
              "duration": 0.16666666666666666
            },
            {
              "pitch": 64,
              "velocity": 75,
              "position": 6.25,
              "duration": 0.1875
            },
            {
              "pitch": 55,
              "velocity": 75,
              "position": 6.75,
              "duration": 0.17708333333333334
            },
            {
              "pitch": 57,
              "velocity": 86,
              "position": 7,
              "duration": 0.23958333333333334
            },
            {
              "pitch": 60,
              "velocity": 86,
              "position": 7.5,
              "duration": 0.15625
            }
          ]
        },
        "13": {
          "ctab": {
            "srcChannel": 13,
            "name": "Str",
            "accType": "PAD",
            "editable": false,
            "mutedNotes": [],
            "mutedChords": [],
            "autoStart": false,
            "sourceChordNote": 0,
            "sourceChordType": "Maj7",
            "ctb2Low": null,
            "ctb2Main": {
              "ntr": "ROOT_FIXED",
              "ntt": "CHORD",
              "bassOn": false,
              "chordRootUpperLimit": 7,
              "noteLowLimit": 0,
              "noteHighLimit": 127,
              "rtr": "PITCH_SHIFT"
            },
            "ctb2High": null
          },
          "notes": [
            {
              "pitch": 55,
              "velocity": 38,
              "position": 0,
              "duration": 7.989583333333333
            },
            {
              "pitch": 59,
              "velocity": 38,
              "position": 0,
              "duration": 7.989583333333333
            },
            {
              "pitch": 64,
              "velocity": 38,
              "position": 0,
              "duration": 7.989583333333333
            }
          ]
        },
        "14": {
          "ctab": {
            "srcChannel": 14,
            "name": "Brass",
            "accType": "PHRASE1",
            "editable": false,
            "mutedNotes": [],
            "mutedChords": [],
            "autoStart": false,
            "sourceChordNote": 0,
            "sourceChordType": "Maj7",
            "ctb2Low": null,
            "ctb2Main": {
              "ntr": "ROOT_FIXED",
              "ntt": "CHORD",
              "bassOn": false,
              "chordRootUpperLimit": 7,
              "noteLowLimit": 0,
              "noteHighLimit": 127,
              "rtr": "PITCH_SHIFT"
            },
            "ctb2High": null
          },
          "notes": [
            {
              "pitch": 64,
              "velocity": 79,
              "position": 0,
              "duration": 0.13541666666666666
            },
            {
              "pitch": 67,
              "velocity": 79,
              "position": 0,
              "duration": 0.13541666666666666
            },
            {
              "pitch": 71,
              "velocity": 94,
              "position": 0,
              "duration": 0.13541666666666666
            },
            {
              "pitch": 64,
              "velocity": 79,
              "position": 0.5,
              "duration": 0.13541666666666666
            },
            {
              "pitch": 67,
              "velocity": 79,
              "position": 0.5,
              "duration": 0.13541666666666666
            },
            {
              "pitch": 71,
              "velocity": 94,
              "position": 0.5,
              "duration": 0.13541666666666666
            },
            {
              "pitch": 64,
              "velocity": 79,
              "position": 4.5,
              "duration": 0.13541666666666666
            },
            {
              "pitch": 67,
              "velocity": 79,
              "position": 4.5,
              "duration": 0.13541666666666666
            },
            {
              "pitch": 71,
              "velocity": 94,
              "position": 4.5,
              "duration": 0.13541666666666666
            }
          ]
        },
        "15": {
          "ctab": {
            "srcChannel": 15,
            "name": "Pno LH 2",
            "accType": "CHORD2",
            "editable": false,
            "mutedNotes": [],
            "mutedChords": [
              "1+2+5",
              "Maj7aug",
              "7#11",
              "7b5",
              "7sus4",
              "7th",
              "dim7",
              "minMaj7(9)",
              "min7(11)",
              "min7",
              "Maj7(9)",
              "Maj(9)",
              "Maj7#11",
              "Maj7",
              "Maj"
            ],
            "autoStart": false,
            "sourceChordNote": 0,
            "sourceChordType": "Maj7",
            "ctb2Low": null,
            "ctb2Main": {
              "ntr": "ROOT_TRANSPOSITION",
              "ntt": "CHORD",
              "bassOn": false,
              "chordRootUpperLimit": 7,
              "noteLowLimit": 66,
              "noteHighLimit": 77,
              "rtr": "PITCH_SHIFT"
            },
            "ctb2High": null
          },
          "notes": [
            {
              "pitch": 55,
              "velocity": 84,
              "position": 0,
              "duration": 0.1875
            },
            {
              "pitch": 60,
              "velocity": 84,
              "position": 0,
              "duration": 0.1875
            },
            {
              "pitch": 64,
              "velocity": 84,
              "position": 0,
              "duration": 0.1875
            },
            {
              "pitch": 64,
              "velocity": 73,
              "position": 0.5,
              "duration": 0.17708333333333334
            },
            {
              "pitch": 55,
              "velocity": 84,
              "position": 0.75,
              "duration": 0.19791666666666666
            },
            {
              "pitch": 64,
              "velocity": 73,
              "position": 1.25,
              "duration": 0.17708333333333334
            },
            {
              "pitch": 60,
              "velocity": 84,
              "position": 1.75,
              "duration": 0.16666666666666666
            },
            {
              "pitch": 64,
              "velocity": 73,
              "position": 2.25,
              "duration": 0.1875
            },
            {
              "pitch": 55,
              "velocity": 73,
              "position": 2.75,
              "duration": 0.17708333333333334
            },
            {
              "pitch": 55,
              "velocity": 84,
              "position": 3,
              "duration": 0.23958333333333334
            },
            {
              "pitch": 55,
              "velocity": 84,
              "position": 3.5,
              "duration": 0.15625
            },
            {
              "pitch": 60,
              "velocity": 84,
              "position": 3.5,
              "duration": 0.15625
            },
            {
              "pitch": 64,
              "velocity": 84,
              "position": 3.5,
              "duration": 0.15625
            },
            {
              "pitch": 55,
              "velocity": 84,
              "position": 4,
              "duration": 0.1875
            },
            {
              "pitch": 60,
              "velocity": 84,
              "position": 4,
              "duration": 0.1875
            },
            {
              "pitch": 64,
              "velocity": 84,
              "position": 4,
              "duration": 0.1875
            },
            {
              "pitch": 64,
              "velocity": 73,
              "position": 4.5,
              "duration": 0.17708333333333334
            },
            {
              "pitch": 55,
              "velocity": 84,
              "position": 4.75,
              "duration": 0.19791666666666666
            },
            {
              "pitch": 64,
              "velocity": 73,
              "position": 5.25,
              "duration": 0.17708333333333334
            },
            {
              "pitch": 60,
              "velocity": 84,
              "position": 5.75,
              "duration": 0.16666666666666666
            },
            {
              "pitch": 64,
              "velocity": 73,
              "position": 6.25,
              "duration": 0.1875
            },
            {
              "pitch": 55,
              "velocity": 73,
              "position": 6.75,
              "duration": 0.17708333333333334
            },
            {
              "pitch": 55,
              "velocity": 84,
              "position": 7,
              "duration": 0.23958333333333334
            },
            {
              "pitch": 55,
              "velocity": 84,
              "position": 7.5,
              "duration": 0.15625
            },
            {
              "pitch": 60,
              "velocity": 84,
              "position": 7.5,
              "duration": 0.15625
            },
            {
              "pitch": 64,
              "velocity": 84,
              "position": 7.5,
              "duration": 0.15625
            }
          ]
        }
      }
    },
    "Fill_In_DD": {
      "type": "Fill_In_DD",
      "sizeInBeats": 4,
      "channels": {
        "0": {
          "ctab": {
            "srcChannel": 0,
            "name": "Gtr FX",
            "accType": "CHORD1",
            "editable": true,
            "mutedNotes": [],
            "mutedChords": [],
            "autoStart": false,
            "sourceChordNote": 0,
            "sourceChordType": "Maj7",
            "ctb2Low": null,
            "ctb2Main": {
              "ntr": "ROOT_FIXED",
              "ntt": "BYPASS",
              "bassOn": false,
              "chordRootUpperLimit": 6,
              "noteLowLimit": 0,
              "noteHighLimit": 79,
              "rtr": "PITCH_SHIFT"
            },
            "ctb2High": null
          },
          "notes": [
            {
              "pitch": 104,
              "velocity": 79,
              "position": 0,
              "duration": 0.10416666666666667
            },
            {
              "pitch": 105,
              "velocity": 63,
              "position": 0.25,
              "duration": 0.10416666666666667
            },
            {
              "pitch": 108,
              "velocity": 105,
              "position": 0.5,
              "duration": 0.10416666666666667
            },
            {
              "pitch": 105,
              "velocity": 101,
              "position": 0.75,
              "duration": 0.10416666666666667
            },
            {
              "pitch": 102,
              "velocity": 79,
              "position": 1,
              "duration": 0.10416666666666667
            },
            {
              "pitch": 105,
              "velocity": 67,
              "position": 1.25,
              "duration": 0.10416666666666667
            },
            {
              "pitch": 106,
              "velocity": 107,
              "position": 1.5,
              "duration": 0.10416666666666667
            },
            {
              "pitch": 105,
              "velocity": 101,
              "position": 1.75,
              "duration": 0.10416666666666667
            },
            {
              "pitch": 106,
              "velocity": 127,
              "position": 2,
              "duration": 0.10416666666666667
            },
            {
              "pitch": 99,
              "velocity": 67,
              "position": 2.25,
              "duration": 0.10416666666666667
            },
            {
              "pitch": 98,
              "velocity": 60,
              "position": 2.5,
              "duration": 0.10416666666666667
            },
            {
              "pitch": 99,
              "velocity": 123,
              "position": 2.75,
              "duration": 0.10416666666666667
            },
            {
              "pitch": 102,
              "velocity": 111,
              "position": 3,
              "duration": 0.10416666666666667
            },
            {
              "pitch": 99,
              "velocity": 67,
              "position": 3.25,
              "duration": 0.10416666666666667
            },
            {
              "pitch": 100,
              "velocity": 77,
              "position": 3.5,
              "duration": 0.10416666666666667
            },
            {
              "pitch": 101,
              "velocity": 85,
              "position": 3.75,
              "duration": 0.10416666666666667
            }
          ]
        },
        "2": {
          "ctab": {
            "srcChannel": 2,
            "name": "Gtr Root",
            "accType": "CHORD1",
            "editable": false,
            "mutedNotes": [],
            "mutedChords": [
              "1+2+5",
              "sus4",
              "1+5",
              "1+8",
              "Maj7aug",
              "dim",
              "minMaj7(9)",
              "minMaj7",
              "min6",
              "min",
              "aug",
              "Maj7(9)",
              "Maj7#11",
              "Maj7",
              "Maj6",
              "Maj"
            ],
            "autoStart": false,
            "sourceChordNote": 0,
            "sourceChordType": "Maj7",
            "ctb2Low": null,
            "ctb2Main": {
              "ntr": "ROOT_TRANSPOSITION",
              "ntt": "CHORD",
              "bassOn": false,
              "chordRootUpperLimit": 6,
              "noteLowLimit": 0,
              "noteHighLimit": 127,
              "rtr": "PITCH_SHIFT"
            },
            "ctb2High": null
          },
          "notes": [
            {
              "pitch": 60,
              "velocity": 20,
              "position": 0,
              "duration": 0.22916666666666666
            },
            {
              "pitch": 60,
              "velocity": 38,
              "position": 2.5,
              "duration": 0.09375
            },
            {
              "pitch": 60,
              "velocity": 38,
              "position": 3.5,
              "duration": 0.09375
            },
            {
              "pitch": 60,
              "velocity": 20,
              "position": 3.75,
              "duration": 0.23958333333333334
            }
          ]
        },
        "3": {
          "ctab": {
            "srcChannel": 3,
            "name": "Pno RH 1",
            "accType": "CHORD2",
            "editable": false,
            "mutedNotes": [],
            "mutedChords": [
              "sus4",
              "1+5",
              "1+8",
              "7aug",
              "7(#9)",
              "7(b13)",
              "7(b9)",
              "7(13)",
              "7(9)",
              "dim",
              "minMaj7",
              "min7(9)",
              "min(9)",
              "m7b5",
              "min6",
              "min",
              "aug",
              "Maj6(9)",
              "Maj6"
            ],
            "autoStart": false,
            "sourceChordNote": 0,
            "sourceChordType": "Maj7",
            "ctb2Low": null,
            "ctb2Main": {
              "ntr": "ROOT_TRANSPOSITION",
              "ntt": "CHORD",
              "bassOn": false,
              "chordRootUpperLimit": 7,
              "noteLowLimit": 78,
              "noteHighLimit": 89,
              "rtr": "PITCH_SHIFT"
            },
            "ctb2High": null
          },
          "notes": [
            {
              "pitch": 55,
              "velocity": 86,
              "position": 0,
              "duration": 0.1875
            },
            {
              "pitch": 60,
              "velocity": 86,
              "position": 0,
              "duration": 0.1875
            },
            {
              "pitch": 64,
              "velocity": 86,
              "position": 0,
              "duration": 0.1875
            },
            {
              "pitch": 64,
              "velocity": 75,
              "position": 0.5,
              "duration": 0.17708333333333334
            },
            {
              "pitch": 55,
              "velocity": 86,
              "position": 0.75,
              "duration": 0.19791666666666666
            },
            {
              "pitch": 57,
              "velocity": 75,
              "position": 1.25,
              "duration": 0.17708333333333334
            },
            {
              "pitch": 60,
              "velocity": 86,
              "position": 1.75,
              "duration": 0.16666666666666666
            },
            {
              "pitch": 64,
              "velocity": 75,
              "position": 2.25,
              "duration": 0.1875
            },
            {
              "pitch": 55,
              "velocity": 86,
              "position": 2.75,
              "duration": 0.17708333333333334
            },
            {
              "pitch": 57,
              "velocity": 86,
              "position": 3.25,
              "duration": 0.19791666666666666
            },
            {
              "pitch": 60,
              "velocity": 75,
              "position": 3.75,
              "duration": 0.17708333333333334
            }
          ]
        },
        "4": {
          "ctab": {
            "srcChannel": 4,
            "name": "Str Root",
            "accType": "PAD",
            "editable": false,
            "mutedNotes": [],
            "mutedChords": [
              "1+2+5",
              "sus4",
              "1+5",
              "1+8",
              "Maj7aug",
              "dim",
              "minMaj7(9)",
              "minMaj7",
              "min6",
              "min",
              "aug",
              "Maj7(9)",
              "Maj7#11",
              "Maj7",
              "Maj6",
              "Maj"
            ],
            "autoStart": false,
            "sourceChordNote": 0,
            "sourceChordType": "Maj7",
            "ctb2Low": null,
            "ctb2Main": {
              "ntr": "ROOT_TRANSPOSITION",
              "ntt": "CHORD",
              "bassOn": false,
              "chordRootUpperLimit": 6,
              "noteLowLimit": 0,
              "noteHighLimit": 127,
              "rtr": "PITCH_SHIFT"
            },
            "ctb2High": null
          },
          "notes": [
            {
              "pitch": 60,
              "velocity": 38,
              "position": 0,
              "duration": 3.9895833333333335
            }
          ]
        },
        "6": {
          "ctab": {
            "srcChannel": 6,
            "name": "Pno RH 2",
            "accType": "CHORD2",
            "editable": false,
            "mutedNotes": [],
            "mutedChords": [
              "1+2+5",
              "Maj7aug",
              "7#11",
              "7b5",
              "7sus4",
              "7th",
              "dim7",
              "minMaj7(9)",
              "min7(11)",
              "min7",
              "Maj7(9)",
              "Maj(9)",
              "Maj7#11",
              "Maj7",
              "Maj"
            ],
            "autoStart": false,
            "sourceChordNote": 0,
            "sourceChordType": "Maj7",
            "ctb2Low": null,
            "ctb2Main": {
              "ntr": "ROOT_TRANSPOSITION",
              "ntt": "CHORD",
              "bassOn": false,
              "chordRootUpperLimit": 7,
              "noteLowLimit": 78,
              "noteHighLimit": 89,
              "rtr": "PITCH_SHIFT"
            },
            "ctb2High": null
          },
          "notes": [
            {
              "pitch": 60,
              "velocity": 88,
              "position": 0,
              "duration": 0.1875
            },
            {
              "pitch": 64,
              "velocity": 77,
              "position": 0.5,
              "duration": 0.17708333333333334
            },
            {
              "pitch": 55,
              "velocity": 88,
              "position": 0.75,
              "duration": 0.19791666666666666
            },
            {
              "pitch": 64,
              "velocity": 77,
              "position": 1.25,
              "duration": 0.17708333333333334
            },
            {
              "pitch": 60,
              "velocity": 88,
              "position": 1.75,
              "duration": 0.16666666666666666
            },
            {
              "pitch": 64,
              "velocity": 77,
              "position": 2.25,
              "duration": 0.1875
            },
            {
              "pitch": 55,
              "velocity": 88,
              "position": 2.75,
              "duration": 0.17708333333333334
            },
            {
              "pitch": 64,
              "velocity": 88,
              "position": 3.25,
              "duration": 0.19791666666666666
            },
            {
              "pitch": 60,
              "velocity": 77,
              "position": 3.75,
              "duration": 0.17708333333333334
            }
          ]
        },
        "7": {
          "ctab": {
            "srcChannel": 7,
            "name": "CC_Crash",
            "accType": "RHYTHM",
            "editable": false,
            "mutedNotes": [],
            "mutedChords": [
              "1+2+5",
              "sus4",
              "1+5",
              "1+8",
              "7aug",
              "Maj7aug",
              "7(#9)",
              "7(b13)",
              "7(b9)",
              "7(13)",
              "7#11",
              "7(9)",
              "7b5",
              "7sus4",
              "7th",
              "dim7",
              "dim",
              "minMaj7(9)",
              "minMaj7",
              "min7(11)",
              "min7(9)",
              "min(9)",
              "m7b5",
              "min7",
              "min6",
              "min",
              "aug",
              "Maj6(9)",
              "Maj7(9)",
              "Maj(9)",
              "Maj7#11",
              "Maj7",
              "Maj6",
              "Maj"
            ],
            "autoStart": true,
            "sourceChordNote": 0,
            "sourceChordType": "Maj",
            "ctb2Low": null,
            "ctb2Main": {
              "ntr": "ROOT_FIXED",
              "ntt": "BYPASS",
              "bassOn": false,
              "chordRootUpperLimit": 0,
              "noteLowLimit": 0,
              "noteHighLimit": 127,
              "rtr": "RETRIGGER"
            },
            "ctb2High": null
          },
          "notes": []
        },
        "8": {
          "ctab": {
            "srcChannel": 8,
            "name": "Perc",
            "accType": "SUBRHYTHM",
            "editable": false,
            "mutedNotes": [],
            "mutedChords": [],
            "autoStart": true,
            "sourceChordNote": 0,
            "sourceChordType": "Maj7",
            "ctb2Low": null,
            "ctb2Main": {
              "ntr": "ROOT_FIXED",
              "ntt": "BYPASS",
              "bassOn": false,
              "chordRootUpperLimit": 6,
              "noteLowLimit": 0,
              "noteHighLimit": 127,
              "rtr": "PITCH_SHIFT"
            },
            "ctb2High": null
          },
          "notes": [
            {
              "pitch": 23,
              "velocity": 103,
              "position": 0,
              "duration": 0.125
            },
            {
              "pitch": 22,
              "velocity": 89,
              "position": 0.25,
              "duration": 0.125
            },
            {
              "pitch": 60,
              "velocity": 94,
              "position": 0.25,
              "duration": 0.125
            },
            {
              "pitch": 28,
              "velocity": 106,
              "position": 0.5,
              "duration": 0.125
            },
            {
              "pitch": 60,
              "velocity": 101,
              "position": 0.5,
              "duration": 0.125
            },
            {
              "pitch": 22,
              "velocity": 89,
              "position": 0.75,
              "duration": 0.125
            },
            {
              "pitch": 60,
              "velocity": 108,
              "position": 0.75,
              "duration": 0.125
            },
            {
              "pitch": 23,
              "velocity": 80,
              "position": 1,
              "duration": 0.125
            },
            {
              "pitch": 22,
              "velocity": 105,
              "position": 1.25,
              "duration": 0.125
            },
            {
              "pitch": 60,
              "velocity": 94,
              "position": 1.25,
              "duration": 0.125
            },
            {
              "pitch": 24,
              "velocity": 97,
              "position": 1.5,
              "duration": 0.125
            },
            {
              "pitch": 60,
              "velocity": 101,
              "position": 1.5,
              "duration": 0.125
            },
            {
              "pitch": 24,
              "velocity": 100,
              "position": 1.75,
              "duration": 0.125
            },
            {
              "pitch": 60,
              "velocity": 108,
              "position": 1.75,
              "duration": 0.125
            },
            {
              "pitch": 23,
              "velocity": 81,
              "position": 2,
              "duration": 0.125
            },
            {
              "pitch": 26,
              "velocity": 87,
              "position": 2.25,
              "duration": 0.125
            },
            {
              "pitch": 60,
              "velocity": 94,
              "position": 2.25,
              "duration": 0.125
            },
            {
              "pitch": 26,
              "velocity": 89,
              "position": 2.5,
              "duration": 0.125
            },
            {
              "pitch": 60,
              "velocity": 101,
              "position": 2.5,
              "duration": 0.125
            },
            {
              "pitch": 31,
              "velocity": 103,
              "position": 2.75,
              "duration": 0.125
            },
            {
              "pitch": 60,
              "velocity": 108,
              "position": 2.75,
              "duration": 0.125
            },
            {
              "pitch": 31,
              "velocity": 106,
              "position": 3,
              "duration": 0.125
            },
            {
              "pitch": 22,
              "velocity": 81,
              "position": 3.25,
              "duration": 0.125
            },
            {
              "pitch": 60,
              "velocity": 107,
              "position": 3.25,
              "duration": 0.125
            },
            {
              "pitch": 24,
              "velocity": 99,
              "position": 3.5,
              "duration": 0.125
            },
            {
              "pitch": 60,
              "velocity": 107,
              "position": 3.5,
              "duration": 0.125
            },
            {
              "pitch": 24,
              "velocity": 102,
              "position": 3.75,
              "duration": 0.125
            }
          ]
        },
        "9": {
          "ctab": {
            "srcChannel": 9,
            "name": "Drums",
            "accType": "RHYTHM",
            "editable": false,
            "mutedNotes": [],
            "mutedChords": [],
            "autoStart": true,
            "sourceChordNote": 0,
            "sourceChordType": "Maj7",
            "ctb2Low": null,
            "ctb2Main": {
              "ntr": "ROOT_FIXED",
              "ntt": "BYPASS",
              "bassOn": false,
              "chordRootUpperLimit": 6,
              "noteLowLimit": 0,
              "noteHighLimit": 127,
              "rtr": "PITCH_SHIFT"
            },
            "ctb2High": null
          },
          "notes": [
            {
              "pitch": 35,
              "velocity": 110,
              "position": 0,
              "duration": 0.010416666666666666
            },
            {
              "pitch": 49,
              "velocity": 49,
              "position": 0,
              "duration": 0.010416666666666666
            },
            {
              "pitch": 40,
              "velocity": 45,
              "position": 0.25,
              "duration": 0.010416666666666666
            },
            {
              "pitch": 44,
              "velocity": 89,
              "position": 0.5,
              "duration": 0.010416666666666666
            },
            {
              "pitch": 53,
              "velocity": 88,
              "position": 0.5,
              "duration": 0.010416666666666666
            },
            {
              "pitch": 35,
              "velocity": 102,
              "position": 0.75,
              "duration": 0.010416666666666666
            },
            {
              "pitch": 40,
              "velocity": 109,
              "position": 1,
              "duration": 0.010416666666666666
            },
            {
              "pitch": 44,
              "velocity": 92,
              "position": 1,
              "duration": 0.010416666666666666
            },
            {
              "pitch": 35,
              "velocity": 110,
              "position": 1.5,
              "duration": 0.010416666666666666
            },
            {
              "pitch": 44,
              "velocity": 89,
              "position": 1.5,
              "duration": 0.010416666666666666
            },
            {
              "pitch": 53,
              "velocity": 88,
              "position": 1.5,
              "duration": 0.010416666666666666
            },
            {
              "pitch": 40,
              "velocity": 109,
              "position": 1.75,
              "duration": 0.010416666666666666
            },
            {
              "pitch": 40,
              "velocity": 117,
              "position": 2,
              "duration": 0.010416666666666666
            },
            {
              "pitch": 35,
              "velocity": 110,
              "position": 2.25,
              "duration": 0.010416666666666666
            },
            {
              "pitch": 46,
              "velocity": 96,
              "position": 2.25,
              "duration": 0.010416666666666666
            },
            {
              "pitch": 44,
              "velocity": 61,
              "position": 2.5208333333333335,
              "duration": 0.010416666666666666
            },
            {
              "pitch": 35,
              "velocity": 110,
              "position": 2.75,
              "duration": 0.010416666666666666
            },
            {
              "pitch": 46,
              "velocity": 96,
              "position": 2.75,
              "duration": 0.010416666666666666
            },
            {
              "pitch": 44,
              "velocity": 61,
              "position": 3.0208333333333335,
              "duration": 0.010416666666666666
            },
            {
              "pitch": 35,
              "velocity": 110,
              "position": 3.25,
              "duration": 0.010416666666666666
            },
            {
              "pitch": 46,
              "velocity": 96,
              "position": 3.25,
              "duration": 0.010416666666666666
            },
            {
              "pitch": 40,
              "velocity": 109,
              "position": 3.5,
              "duration": 0.010416666666666666
            },
            {
              "pitch": 40,
              "velocity": 108,
              "position": 3.75,
              "duration": 0.010416666666666666
            }
          ]
        },
        "10": {
          "ctab": {
            "srcChannel": 10,
            "name": "Bass",
            "accType": "BASS",
            "editable": false,
            "mutedNotes": [],
            "mutedChords": [],
            "autoStart": false,
            "sourceChordNote": 0,
            "sourceChordType": "Maj7",
            "ctb2Low": null,
            "ctb2Main": {
              "ntr": "ROOT_TRANSPOSITION",
              "ntt": "MELODY",
              "bassOn": true,
              "chordRootUpperLimit": 8,
              "noteLowLimit": 28,
              "noteHighLimit": 127,
              "rtr": "PITCH_SHIFT_TO_ROOT"
            },
            "ctb2High": null
          },
          "notes": [
            {
              "pitch": 24,
              "velocity": 72,
              "position": 0,
              "duration": 0.7395833333333334
            },
            {
              "pitch": 31,
              "velocity": 72,
              "position": 0.75,
              "duration": 0.7395833333333334
            },
            {
              "pitch": 24,
              "velocity": 72,
              "position": 1.5,
              "duration": 0.4895833333333333
            },
            {
              "pitch": 24,
              "velocity": 68,
              "position": 2.25,
              "duration": 0.16666666666666666
            },
            {
              "pitch": 31,
              "velocity": 68,
              "position": 2.75,
              "duration": 0.16666666666666666
            },
            {
              "pitch": 24,
              "velocity": 72,
              "position": 3.25,
              "duration": 0.7395833333333334
            }
          ]
        },
        "11": {
          "ctab": {
            "srcChannel": 11,
            "name": "Gtr",
            "accType": "CHORD1",
            "editable": false,
            "mutedNotes": [],
            "mutedChords": [],
            "autoStart": false,
            "sourceChordNote": 0,
            "sourceChordType": "Maj7",
            "ctb2Low": null,
            "ctb2Main": {
              "ntr": "ROOT_FIXED",
              "ntt": "CHORD",
              "bassOn": false,
              "chordRootUpperLimit": 7,
              "noteLowLimit": 0,
              "noteHighLimit": 127,
              "rtr": "PITCH_SHIFT"
            },
            "ctb2High": null
          },
          "notes": [
            {
              "pitch": 55,
              "velocity": 20,
              "position": 0,
              "duration": 0.22916666666666666
            },
            {
              "pitch": 59,
              "velocity": 20,
              "position": 0,
              "duration": 0.24166666666666667
            },
            {
              "pitch": 64,
              "velocity": 20,
              "position": 0.010416666666666666,
              "duration": 0.23125
            },
            {
              "pitch": 59,
              "velocity": 28,
              "position": 0.25,
              "duration": 0.23958333333333334
            },
            {
              "pitch": 64,
              "velocity": 28,
              "position": 0.25,
              "duration": 0.23958333333333334
            },
            {
              "pitch": 59,
              "velocity": 38,
              "position": 0.5,
              "duration": 0.09375
            },
            {
              "pitch": 64,
              "velocity": 38,
              "position": 0.5104166666666666,
              "duration": 0.09375
            },
            {
              "pitch": 59,
              "velocity": 32,
              "position": 0.75,
              "duration": 0.23958333333333334
            },
            {
              "pitch": 64,
              "velocity": 32,
              "position": 0.75,
              "duration": 0.23958333333333334
            },
            {
              "pitch": 59,
              "velocity": 20,
              "position": 1,
              "duration": 0.23958333333333334
            },
            {
              "pitch": 59,
              "velocity": 28,
              "position": 1.25,
              "duration": 0.23958333333333334
            },
            {
              "pitch": 59,
              "velocity": 38,
              "position": 1.5,
              "duration": 0.09375
            },
            {
              "pitch": 64,
              "velocity": 38,
              "position": 1.5104166666666667,
              "duration": 0.09375
            },
            {
              "pitch": 59,
              "velocity": 32,
              "position": 1.75,
              "duration": 0.23958333333333334
            },
            {
              "pitch": 64,
              "velocity": 32,
              "position": 1.75,
              "duration": 0.23958333333333334
            },
            {
              "pitch": 59,
              "velocity": 22,
              "position": 2,
              "duration": 0.4895833333333333
            },
            {
              "pitch": 64,
              "velocity": 22,
              "position": 2.0104166666666665,
              "duration": 0.4791666666666667
            },
            {
              "pitch": 55,
              "velocity": 38,
              "position": 2.5,
              "duration": 0.09375
            },
            {
              "pitch": 59,
              "velocity": 38,
              "position": 2.5,
              "duration": 0.09375
            },
            {
              "pitch": 64,
              "velocity": 38,
              "position": 2.5104166666666665,
              "duration": 0.09375
            },
            {
              "pitch": 59,
              "velocity": 32,
              "position": 2.75,
              "duration": 0.23958333333333334
            },
            {
              "pitch": 64,
              "velocity": 32,
              "position": 2.75,
              "duration": 0.23958333333333334
            },
            {
              "pitch": 59,
              "velocity": 22,
              "position": 3,
              "duration": 0.4895833333333333
            },
            {
              "pitch": 64,
              "velocity": 22,
              "position": 3.0104166666666665,
              "duration": 0.4791666666666667
            },
            {
              "pitch": 55,
              "velocity": 38,
              "position": 3.5,
              "duration": 0.09375
            },
            {
              "pitch": 59,
              "velocity": 38,
              "position": 3.5,
              "duration": 0.09375
            },
            {
              "pitch": 64,
              "velocity": 38,
              "position": 3.5104166666666665,
              "duration": 0.09375
            },
            {
              "pitch": 55,
              "velocity": 20,
              "position": 3.75,
              "duration": 0.23958333333333334
            },
            {
              "pitch": 59,
              "velocity": 20,
              "position": 3.75,
              "duration": 0.23958333333333334
            },
            {
              "pitch": 64,
              "velocity": 20,
              "position": 3.75,
              "duration": 0.23958333333333334
            }
          ]
        },
        "12": {
          "ctab": {
            "srcChannel": 12,
            "name": "Pno LH 1",
            "accType": "CHORD2",
            "editable": false,
            "mutedNotes": [],
            "mutedChords": [
              "sus4",
              "1+5",
              "1+8",
              "7aug",
              "7(#9)",
              "7(b13)",
              "7(b9)",
              "7(13)",
              "7(9)",
              "dim",
              "minMaj7",
              "min7(9)",
              "min(9)",
              "m7b5",
              "min6",
              "min",
              "aug",
              "Maj6(9)",
              "Maj6"
            ],
            "autoStart": false,
            "sourceChordNote": 0,
            "sourceChordType": "Maj7",
            "ctb2Low": null,
            "ctb2Main": {
              "ntr": "ROOT_TRANSPOSITION",
              "ntt": "CHORD",
              "bassOn": false,
              "chordRootUpperLimit": 7,
              "noteLowLimit": 66,
              "noteHighLimit": 77,
              "rtr": "PITCH_SHIFT"
            },
            "ctb2High": null
          },
          "notes": [
            {
              "pitch": 60,
              "velocity": 84,
              "position": 0,
              "duration": 0.1875
            },
            {
              "pitch": 64,
              "velocity": 73,
              "position": 0.5,
              "duration": 0.17708333333333334
            },
            {
              "pitch": 55,
              "velocity": 88,
              "position": 0.75,
              "duration": 0.19791666666666666
            },
            {
              "pitch": 57,
              "velocity": 77,
              "position": 1.25,
              "duration": 0.17708333333333334
            },
            {
              "pitch": 60,
              "velocity": 88,
              "position": 1.75,
              "duration": 0.16666666666666666
            },
            {
              "pitch": 64,
              "velocity": 77,
              "position": 2.25,
              "duration": 0.1875
            },
            {
              "pitch": 55,
              "velocity": 88,
              "position": 2.75,
              "duration": 0.17708333333333334
            },
            {
              "pitch": 57,
              "velocity": 88,
              "position": 3.25,
              "duration": 0.19791666666666666
            },
            {
              "pitch": 60,
              "velocity": 77,
              "position": 3.75,
              "duration": 0.17708333333333334
            }
          ]
        },
        "13": {
          "ctab": {
            "srcChannel": 13,
            "name": "Str",
            "accType": "PAD",
            "editable": false,
            "mutedNotes": [],
            "mutedChords": [],
            "autoStart": false,
            "sourceChordNote": 0,
            "sourceChordType": "Maj7",
            "ctb2Low": null,
            "ctb2Main": {
              "ntr": "ROOT_FIXED",
              "ntt": "CHORD",
              "bassOn": false,
              "chordRootUpperLimit": 7,
              "noteLowLimit": 0,
              "noteHighLimit": 127,
              "rtr": "PITCH_SHIFT"
            },
            "ctb2High": null
          },
          "notes": [
            {
              "pitch": 55,
              "velocity": 38,
              "position": 0,
              "duration": 3.9895833333333335
            },
            {
              "pitch": 59,
              "velocity": 38,
              "position": 0,
              "duration": 3.9895833333333335
            },
            {
              "pitch": 64,
              "velocity": 38,
              "position": 0,
              "duration": 3.9895833333333335
            }
          ]
        },
        "14": {
          "ctab": {
            "srcChannel": 14,
            "name": "Brass",
            "accType": "PHRASE1",
            "editable": false,
            "mutedNotes": [],
            "mutedChords": [],
            "autoStart": false,
            "sourceChordNote": 0,
            "sourceChordType": "Maj7",
            "ctb2Low": null,
            "ctb2Main": {
              "ntr": "ROOT_FIXED",
              "ntt": "CHORD",
              "bassOn": false,
              "chordRootUpperLimit": 7,
              "noteLowLimit": 0,
              "noteHighLimit": 127,
              "rtr": "PITCH_SHIFT"
            },
            "ctb2High": null
          },
          "notes": [
            {
              "pitch": 64,
              "velocity": 94,
              "position": 2.25,
              "duration": 0.13541666666666666
            },
            {
              "pitch": 67,
              "velocity": 79,
              "position": 2.25,
              "duration": 0.13541666666666666
            },
            {
              "pitch": 71,
              "velocity": 79,
              "position": 2.25,
              "duration": 0.13541666666666666
            },
            {
              "pitch": 64,
              "velocity": 79,
              "position": 2.75,
              "duration": 0.13541666666666666
            },
            {
              "pitch": 67,
              "velocity": 94,
              "position": 2.75,
              "duration": 0.13541666666666666
            },
            {
              "pitch": 71,
              "velocity": 79,
              "position": 2.75,
              "duration": 0.13541666666666666
            },
            {
              "pitch": 64,
              "velocity": 79,
              "position": 3.25,
              "duration": 0.6354166666666666
            },
            {
              "pitch": 67,
              "velocity": 79,
              "position": 3.25,
              "duration": 0.6354166666666666
            },
            {
              "pitch": 71,
              "velocity": 94,
              "position": 3.25,
              "duration": 0.6354166666666666
            }
          ]
        },
        "15": {
          "ctab": {
            "srcChannel": 15,
            "name": "Pno LH 2",
            "accType": "CHORD2",
            "editable": false,
            "mutedNotes": [],
            "mutedChords": [
              "1+2+5",
              "Maj7aug",
              "7#11",
              "7b5",
              "7sus4",
              "7th",
              "dim7",
              "minMaj7(9)",
              "min7(11)",
              "min7",
              "Maj7(9)",
              "Maj(9)",
              "Maj7#11",
              "Maj7",
              "Maj"
            ],
            "autoStart": false,
            "sourceChordNote": 0,
            "sourceChordType": "Maj7",
            "ctb2Low": null,
            "ctb2Main": {
              "ntr": "ROOT_TRANSPOSITION",
              "ntt": "CHORD",
              "bassOn": false,
              "chordRootUpperLimit": 7,
              "noteLowLimit": 66,
              "noteHighLimit": 77,
              "rtr": "PITCH_SHIFT"
            },
            "ctb2High": null
          },
          "notes": [
            {
              "pitch": 60,
              "velocity": 86,
              "position": 0,
              "duration": 0.1875
            },
            {
              "pitch": 64,
              "velocity": 75,
              "position": 0.5,
              "duration": 0.17708333333333334
            },
            {
              "pitch": 55,
              "velocity": 86,
              "position": 0.75,
              "duration": 0.19791666666666666
            },
            {
              "pitch": 64,
              "velocity": 75,
              "position": 1.25,
              "duration": 0.17708333333333334
            },
            {
              "pitch": 60,
              "velocity": 86,
              "position": 1.75,
              "duration": 0.16666666666666666
            },
            {
              "pitch": 64,
              "velocity": 75,
              "position": 2.25,
              "duration": 0.1875
            },
            {
              "pitch": 55,
              "velocity": 86,
              "position": 2.75,
              "duration": 0.17708333333333334
            },
            {
              "pitch": 64,
              "velocity": 86,
              "position": 3.25,
              "duration": 0.19791666666666666
            },
            {
              "pitch": 60,
              "velocity": 75,
              "position": 3.75,
              "duration": 0.17708333333333334
            }
          ]
        }
      }
    },
    "Intro_B": {
      "type": "Intro_B",
      "sizeInBeats": 8,
      "channels": {
        "0": {
          "ctab": {
            "srcChannel": 0,
            "name": "Gtr FX",
            "accType": "CHORD1",
            "editable": true,
            "mutedNotes": [],
            "mutedChords": [],
            "autoStart": false,
            "sourceChordNote": 0,
            "sourceChordType": "Maj7",
            "ctb2Low": null,
            "ctb2Main": {
              "ntr": "ROOT_FIXED",
              "ntt": "BYPASS",
              "bassOn": false,
              "chordRootUpperLimit": 6,
              "noteLowLimit": 0,
              "noteHighLimit": 79,
              "rtr": "PITCH_SHIFT"
            },
            "ctb2High": null
          },
          "notes": [
            {
              "pitch": 106,
              "velocity": 123,
              "position": 0.5,
              "duration": 0.10416666666666667
            },
            {
              "pitch": 107,
              "velocity": 105,
              "position": 0.75,
              "duration": 0.10416666666666667
            },
            {
              "pitch": 125,
              "velocity": 95,
              "position": 1.9583333333333333,
              "duration": 0.25
            },
            {
              "pitch": 96,
              "velocity": 117,
              "position": 2.25,
              "duration": 0.10416666666666667
            },
            {
              "pitch": 103,
              "velocity": 83,
              "position": 4.25,
              "duration": 0.10416666666666667
            },
            {
              "pitch": 106,
              "velocity": 123,
              "position": 4.5,
              "duration": 0.10416666666666667
            },
            {
              "pitch": 107,
              "velocity": 105,
              "position": 4.75,
              "duration": 0.10416666666666667
            },
            {
              "pitch": 123,
              "velocity": 85,
              "position": 4.958333333333333,
              "duration": 0.3541666666666667
            },
            {
              "pitch": 98,
              "velocity": 123,
              "position": 5.75,
              "duration": 0.10416666666666667
            },
            {
              "pitch": 99,
              "velocity": 85,
              "position": 6.25,
              "duration": 0.10416666666666667
            },
            {
              "pitch": 100,
              "velocity": 105,
              "position": 6.5,
              "duration": 0.10416666666666667
            },
            {
              "pitch": 106,
              "velocity": 103,
              "position": 7.5,
              "duration": 0.10416666666666667
            },
            {
              "pitch": 105,
              "velocity": 85,
              "position": 7.75,
              "duration": 0.10416666666666667
            }
          ]
        },
        "1": {
          "ctab": {
            "srcChannel": 1,
            "name": "Bass",
            "accType": "BASS",
            "editable": false,
            "mutedNotes": [],
            "mutedChords": [
              "1+2+5",
              "sus4",
              "1+5",
              "1+8",
              "7aug",
              "Maj7aug",
              "7(#9)",
              "7(b13)",
              "7(b9)",
              "7(13)",
              "7#11",
              "7(9)",
              "7b5",
              "7sus4",
              "7th",
              "aug",
              "Maj6(9)",
              "Maj7(9)",
              "Maj(9)",
              "Maj7#11",
              "Maj7",
              "Maj6",
              "Maj"
            ],
            "autoStart": false,
            "sourceChordNote": 0,
            "sourceChordType": "min",
            "ctb2Low": null,
            "ctb2Main": {
              "ntr": "ROOT_TRANSPOSITION",
              "ntt": "BYPASS",
              "bassOn": false,
              "chordRootUpperLimit": 8,
              "noteLowLimit": 28,
              "noteHighLimit": 127,
              "rtr": "PITCH_SHIFT"
            },
            "ctb2High": null
          },
          "notes": [
            {
              "pitch": 24,
              "velocity": 72,
              "position": 0,
              "duration": 0.4895833333333333
            },
            {
              "pitch": 36,
              "velocity": 110,
              "position": 0.5,
              "duration": 0.10416666666666667
            },
            {
              "pitch": 31,
              "velocity": 72,
              "position": 0.75,
              "duration": 0.7395833333333334
            },
            {
              "pitch": 36,
              "velocity": 60,
              "position": 1.5,
              "duration": 0.4895833333333333
            },
            {
              "pitch": 29,
              "velocity": 72,
              "position": 2,
              "duration": 0.4895833333333333
            },
            {
              "pitch": 41,
              "velocity": 110,
              "position": 2.5,
              "duration": 0.10416666666666667
            },
            {
              "pitch": 36,
              "velocity": 72,
              "position": 2.75,
              "duration": 0.7395833333333334
            },
            {
              "pitch": 41,
              "velocity": 60,
              "position": 3.5,
              "duration": 0.4895833333333333
            },
            {
              "pitch": 24,
              "velocity": 72,
              "position": 4,
              "duration": 0.4895833333333333
            },
            {
              "pitch": 36,
              "velocity": 110,
              "position": 4.5,
              "duration": 0.10416666666666667
            },
            {
              "pitch": 29,
              "velocity": 72,
              "position": 4.75,
              "duration": 0.23958333333333334
            },
            {
              "pitch": 29,
              "velocity": 60,
              "position": 5.25,
              "duration": 0.23958333333333334
            },
            {
              "pitch": 29,
              "velocity": 72,
              "position": 5.75,
              "duration": 0.23958333333333334
            },
            {
              "pitch": 31,
              "velocity": 72,
              "position": 6.5,
              "duration": 1.4895833333333333
            }
          ]
        },
        "2": {
          "ctab": {
            "srcChannel": 2,
            "name": "Gtr",
            "accType": "CHORD1",
            "editable": false,
            "mutedNotes": [],
            "mutedChords": [
              "1+2+5",
              "sus4",
              "1+5",
              "1+8",
              "7aug",
              "Maj7aug",
              "7(#9)",
              "7(b13)",
              "7(b9)",
              "7(13)",
              "7#11",
              "7(9)",
              "7b5",
              "7sus4",
              "7th",
              "aug",
              "Maj6(9)",
              "Maj7(9)",
              "Maj(9)",
              "Maj7#11",
              "Maj7",
              "Maj6",
              "Maj"
            ],
            "autoStart": false,
            "sourceChordNote": 0,
            "sourceChordType": "min",
            "ctb2Low": null,
            "ctb2Main": {
              "ntr": "ROOT_TRANSPOSITION",
              "ntt": "BYPASS",
              "bassOn": false,
              "chordRootUpperLimit": 3,
              "noteLowLimit": 54,
              "noteHighLimit": 65,
              "rtr": "PITCH_SHIFT"
            },
            "ctb2High": null
          },
          "notes": [
            {
              "pitch": 60,
              "velocity": 38,
              "position": 0,
              "duration": 0.17708333333333334
            },
            {
              "pitch": 55,
              "velocity": 38,
              "position": 0.5,
              "duration": 0.23958333333333334
            },
            {
              "pitch": 58,
              "velocity": 38,
              "position": 0.5,
              "duration": 0.23958333333333334
            },
            {
              "pitch": 63,
              "velocity": 38,
              "position": 0.5,
              "duration": 0.23958333333333334
            },
            {
              "pitch": 55,
              "velocity": 100,
              "position": 0.75,
              "duration": 0.14583333333333334
            },
            {
              "pitch": 58,
              "velocity": 100,
              "position": 0.75,
              "duration": 0.14583333333333334
            },
            {
              "pitch": 57,
              "velocity": 34,
              "position": 1.25,
              "duration": 0.17708333333333334
            },
            {
              "pitch": 60,
              "velocity": 38,
              "position": 1.75,
              "duration": 0.17708333333333334
            },
            {
              "pitch": 57,
              "velocity": 38,
              "position": 2.25,
              "duration": 0.125
            },
            {
              "pitch": 60,
              "velocity": 38,
              "position": 2.25,
              "duration": 0.125
            },
            {
              "pitch": 65,
              "velocity": 38,
              "position": 2.25,
              "duration": 0.125
            },
            {
              "pitch": 57,
              "velocity": 34,
              "position": 2.75,
              "duration": 0.17708333333333334
            },
            {
              "pitch": 60,
              "velocity": 38,
              "position": 3.25,
              "duration": 0.17708333333333334
            },
            {
              "pitch": 57,
              "velocity": 60,
              "position": 3.75,
              "duration": 0.23958333333333334
            },
            {
              "pitch": 60,
              "velocity": 100,
              "position": 4,
              "duration": 0.17708333333333334
            },
            {
              "pitch": 55,
              "velocity": 38,
              "position": 4.5,
              "duration": 0.23958333333333334
            },
            {
              "pitch": 58,
              "velocity": 38,
              "position": 4.5,
              "duration": 0.23958333333333334
            },
            {
              "pitch": 63,
              "velocity": 38,
              "position": 4.5,
              "duration": 0.23958333333333334
            },
            {
              "pitch": 55,
              "velocity": 100,
              "position": 4.75,
              "duration": 0.14583333333333334
            },
            {
              "pitch": 58,
              "velocity": 100,
              "position": 4.75,
              "duration": 0.14583333333333334
            },
            {
              "pitch": 57,
              "velocity": 34,
              "position": 5.25,
              "duration": 0.17708333333333334
            },
            {
              "pitch": 55,
              "velocity": 36,
              "position": 5.75,
              "duration": 0.1875
            },
            {
              "pitch": 59,
              "velocity": 36,
              "position": 5.75,
              "duration": 0.1875
            },
            {
              "pitch": 63,
              "velocity": 36,
              "position": 5.75,
              "duration": 0.1875
            },
            {
              "pitch": 55,
              "velocity": 40,
              "position": 6.5,
              "duration": 1.4895833333333333
            },
            {
              "pitch": 59,
              "velocity": 40,
              "position": 6.5,
              "duration": 1.4895833333333333
            },
            {
              "pitch": 63,
              "velocity": 40,
              "position": 6.5,
              "duration": 1.4895833333333333
            }
          ]
        },
        "3": {
          "ctab": {
            "srcChannel": 3,
            "name": "Pno",
            "accType": "CHORD2",
            "editable": false,
            "mutedNotes": [],
            "mutedChords": [
              "1+2+5",
              "sus4",
              "1+5",
              "1+8",
              "7aug",
              "Maj7aug",
              "7(#9)",
              "7(b13)",
              "7(b9)",
              "7(13)",
              "7#11",
              "7(9)",
              "7b5",
              "7sus4",
              "7th",
              "aug",
              "Maj6(9)",
              "Maj7(9)",
              "Maj(9)",
              "Maj7#11",
              "Maj7",
              "Maj6",
              "Maj"
            ],
            "autoStart": false,
            "sourceChordNote": 0,
            "sourceChordType": "min",
            "ctb2Low": null,
            "ctb2Main": {
              "ntr": "ROOT_TRANSPOSITION",
              "ntt": "BYPASS",
              "bassOn": false,
              "chordRootUpperLimit": 3,
              "noteLowLimit": 52,
              "noteHighLimit": 63,
              "rtr": "PITCH_SHIFT"
            },
            "ctb2High": null
          },
          "notes": [
            {
              "pitch": 55,
              "velocity": 80,
              "position": 1,
              "duration": 0.22916666666666666
            },
            {
              "pitch": 58,
              "velocity": 80,
              "position": 1,
              "duration": 0.22916666666666666
            },
            {
              "pitch": 63,
              "velocity": 80,
              "position": 1,
              "duration": 0.22916666666666666
            },
            {
              "pitch": 55,
              "velocity": 75,
              "position": 1.25,
              "duration": 0.08333333333333333
            },
            {
              "pitch": 58,
              "velocity": 75,
              "position": 1.25,
              "duration": 0.08333333333333333
            },
            {
              "pitch": 63,
              "velocity": 75,
              "position": 1.25,
              "duration": 0.08333333333333333
            },
            {
              "pitch": 57,
              "velocity": 75,
              "position": 2,
              "duration": 0.10416666666666667
            },
            {
              "pitch": 60,
              "velocity": 75,
              "position": 2,
              "duration": 0.10416666666666667
            },
            {
              "pitch": 63,
              "velocity": 75,
              "position": 2,
              "duration": 0.10416666666666667
            },
            {
              "pitch": 57,
              "velocity": 80,
              "position": 2.75,
              "duration": 0.625
            },
            {
              "pitch": 60,
              "velocity": 80,
              "position": 2.75,
              "duration": 0.625
            },
            {
              "pitch": 63,
              "velocity": 80,
              "position": 2.75,
              "duration": 0.625
            },
            {
              "pitch": 57,
              "velocity": 80,
              "position": 3.5,
              "duration": 0.09375
            },
            {
              "pitch": 60,
              "velocity": 80,
              "position": 3.5,
              "duration": 0.09375
            },
            {
              "pitch": 63,
              "velocity": 80,
              "position": 3.5,
              "duration": 0.09375
            },
            {
              "pitch": 55,
              "velocity": 80,
              "position": 4.75,
              "duration": 0.23958333333333334
            },
            {
              "pitch": 58,
              "velocity": 80,
              "position": 4.75,
              "duration": 0.23958333333333334
            },
            {
              "pitch": 63,
              "velocity": 80,
              "position": 4.75,
              "duration": 0.23958333333333334
            },
            {
              "pitch": 55,
              "velocity": 75,
              "position": 5.25,
              "duration": 0.08333333333333333
            },
            {
              "pitch": 58,
              "velocity": 75,
              "position": 5.25,
              "duration": 0.08333333333333333
            },
            {
              "pitch": 63,
              "velocity": 75,
              "position": 5.25,
              "duration": 0.08333333333333333
            },
            {
              "pitch": 53,
              "velocity": 75,
              "position": 5.75,
              "duration": 0.10416666666666667
            },
            {
              "pitch": 59,
              "velocity": 75,
              "position": 5.75,
              "duration": 0.10416666666666667
            },
            {
              "pitch": 63,
              "velocity": 75,
              "position": 5.75,
              "duration": 0.10416666666666667
            },
            {
              "pitch": 53,
              "velocity": 92,
              "position": 6.5,
              "duration": 1.4895833333333333
            },
            {
              "pitch": 59,
              "velocity": 92,
              "position": 6.5,
              "duration": 1.4895833333333333
            },
            {
              "pitch": 63,
              "velocity": 92,
              "position": 6.5,
              "duration": 1.4895833333333333
            }
          ]
        },
        "4": {
          "ctab": {
            "srcChannel": 4,
            "name": "Str",
            "accType": "PAD",
            "editable": false,
            "mutedNotes": [],
            "mutedChords": [
              "1+2+5",
              "sus4",
              "1+5",
              "1+8",
              "7aug",
              "Maj7aug",
              "7(#9)",
              "7(b13)",
              "7(b9)",
              "7(13)",
              "7#11",
              "7(9)",
              "7b5",
              "7sus4",
              "7th",
              "aug",
              "Maj6(9)",
              "Maj7(9)",
              "Maj(9)",
              "Maj7#11",
              "Maj7",
              "Maj6",
              "Maj"
            ],
            "autoStart": false,
            "sourceChordNote": 0,
            "sourceChordType": "min",
            "ctb2Low": null,
            "ctb2Main": {
              "ntr": "ROOT_TRANSPOSITION",
              "ntt": "BYPASS",
              "bassOn": false,
              "chordRootUpperLimit": 8,
              "noteLowLimit": 58,
              "noteHighLimit": 69,
              "rtr": "PITCH_SHIFT"
            },
            "ctb2High": null
          },
          "notes": [
            {
              "pitch": 55,
              "velocity": 38,
              "position": 0,
              "duration": 1.9895833333333333
            },
            {
              "pitch": 58,
              "velocity": 38,
              "position": 0,
              "duration": 1.9895833333333333
            },
            {
              "pitch": 63,
              "velocity": 38,
              "position": 0,
              "duration": 1.9895833333333333
            },
            {
              "pitch": 57,
              "velocity": 38,
              "position": 2,
              "duration": 1.9895833333333333
            },
            {
              "pitch": 60,
              "velocity": 38,
              "position": 2,
              "duration": 1.9895833333333333
            },
            {
              "pitch": 63,
              "velocity": 38,
              "position": 2,
              "duration": 1.9895833333333333
            },
            {
              "pitch": 55,
              "velocity": 38,
              "position": 4,
              "duration": 1.7395833333333333
            },
            {
              "pitch": 58,
              "velocity": 38,
              "position": 4,
              "duration": 1.7395833333333333
            },
            {
              "pitch": 63,
              "velocity": 38,
              "position": 4,
              "duration": 1.7395833333333333
            },
            {
              "pitch": 55,
              "velocity": 38,
              "position": 6.5,
              "duration": 1.4895833333333333
            },
            {
              "pitch": 59,
              "velocity": 38,
              "position": 6.5,
              "duration": 1.4895833333333333
            },
            {
              "pitch": 63,
              "velocity": 38,
              "position": 6.5,
              "duration": 1.4895833333333333
            }
          ]
        },
        "5": {
          "ctab": {
            "srcChannel": 5,
            "name": "Brass",
            "accType": "PHRASE1",
            "editable": false,
            "mutedNotes": [],
            "mutedChords": [
              "1+2+5",
              "sus4",
              "1+5",
              "1+8",
              "7aug",
              "Maj7aug",
              "7(#9)",
              "7(b13)",
              "7(b9)",
              "7(13)",
              "7#11",
              "7(9)",
              "7b5",
              "7sus4",
              "7th",
              "aug",
              "Maj6(9)",
              "Maj7(9)",
              "Maj(9)",
              "Maj7#11",
              "Maj7",
              "Maj6",
              "Maj"
            ],
            "autoStart": false,
            "sourceChordNote": 0,
            "sourceChordType": "min",
            "ctb2Low": null,
            "ctb2Main": {
              "ntr": "ROOT_TRANSPOSITION",
              "ntt": "BYPASS",
              "bassOn": false,
              "chordRootUpperLimit": 8,
              "noteLowLimit": 0,
              "noteHighLimit": 127,
              "rtr": "PITCH_SHIFT"
            },
            "ctb2High": null
          },
          "notes": [
            {
              "pitch": 67,
              "velocity": 83,
              "position": 0,
              "duration": 0.20833333333333334
            },
            {
              "pitch": 70,
              "velocity": 83,
              "position": 0,
              "duration": 0.20833333333333334
            },
            {
              "pitch": 72,
              "velocity": 83,
              "position": 0,
              "duration": 0.20833333333333334
            },
            {
              "pitch": 75,
              "velocity": 104,
              "position": 0,
              "duration": 0.20833333333333334
            },
            {
              "pitch": 67,
              "velocity": 83,
              "position": 0.5,
              "duration": 0.20833333333333334
            },
            {
              "pitch": 70,
              "velocity": 83,
              "position": 0.5,
              "duration": 0.20833333333333334
            },
            {
              "pitch": 72,
              "velocity": 83,
              "position": 0.5,
              "duration": 0.20833333333333334
            },
            {
              "pitch": 75,
              "velocity": 104,
              "position": 0.5,
              "duration": 0.20833333333333334
            },
            {
              "pitch": 63,
              "velocity": 83,
              "position": 2.25,
              "duration": 0.20833333333333334
            },
            {
              "pitch": 67,
              "velocity": 83,
              "position": 2.25,
              "duration": 0.20833333333333334
            },
            {
              "pitch": 70,
              "velocity": 83,
              "position": 2.25,
              "duration": 0.20833333333333334
            },
            {
              "pitch": 74,
              "velocity": 104,
              "position": 2.25,
              "duration": 0.20833333333333334
            },
            {
              "pitch": 63,
              "velocity": 83,
              "position": 2.75,
              "duration": 0.20833333333333334
            },
            {
              "pitch": 67,
              "velocity": 83,
              "position": 2.75,
              "duration": 0.20833333333333334
            },
            {
              "pitch": 69,
              "velocity": 83,
              "position": 2.75,
              "duration": 0.20833333333333334
            },
            {
              "pitch": 72,
              "velocity": 104,
              "position": 2.75,
              "duration": 0.20833333333333334
            },
            {
              "pitch": 62,
              "velocity": 83,
              "position": 3.25,
              "duration": 0.20833333333333334
            },
            {
              "pitch": 63,
              "velocity": 83,
              "position": 3.25,
              "duration": 0.20833333333333334
            },
            {
              "pitch": 67,
              "velocity": 83,
              "position": 3.25,
              "duration": 0.20833333333333334
            },
            {
              "pitch": 70,
              "velocity": 104,
              "position": 3.25,
              "duration": 0.20833333333333334
            },
            {
              "pitch": 61,
              "velocity": 64,
              "position": 3.75,
              "duration": 0.20833333333333334
            },
            {
              "pitch": 63,
              "velocity": 64,
              "position": 3.75,
              "duration": 0.20833333333333334
            },
            {
              "pitch": 66,
              "velocity": 64,
              "position": 3.75,
              "duration": 0.20833333333333334
            },
            {
              "pitch": 69,
              "velocity": 84,
              "position": 3.75,
              "duration": 0.23958333333333334
            },
            {
              "pitch": 60,
              "velocity": 83,
              "position": 4,
              "duration": 0.7395833333333334
            },
            {
              "pitch": 63,
              "velocity": 83,
              "position": 4,
              "duration": 0.7395833333333334
            },
            {
              "pitch": 67,
              "velocity": 83,
              "position": 4,
              "duration": 0.7395833333333334
            },
            {
              "pitch": 70,
              "velocity": 104,
              "position": 4,
              "duration": 0.7395833333333334
            },
            {
              "pitch": 58,
              "velocity": 83,
              "position": 4.75,
              "duration": 0.20833333333333334
            },
            {
              "pitch": 60,
              "velocity": 83,
              "position": 4.75,
              "duration": 0.20833333333333334
            },
            {
              "pitch": 63,
              "velocity": 104,
              "position": 4.75,
              "duration": 0.20833333333333334
            },
            {
              "pitch": 58,
              "velocity": 64,
              "position": 5.25,
              "duration": 0.20833333333333334
            },
            {
              "pitch": 62,
              "velocity": 64,
              "position": 5.25,
              "duration": 0.20833333333333334
            },
            {
              "pitch": 65,
              "velocity": 84,
              "position": 5.25,
              "duration": 0.20833333333333334
            },
            {
              "pitch": 59,
              "velocity": 83,
              "position": 5.75,
              "duration": 0.23958333333333334
            },
            {
              "pitch": 63,
              "velocity": 83,
              "position": 5.75,
              "duration": 0.23958333333333334
            },
            {
              "pitch": 65,
              "velocity": 83,
              "position": 5.75,
              "duration": 0.23958333333333334
            },
            {
              "pitch": 67,
              "velocity": 104,
              "position": 5.75,
              "duration": 0.23958333333333334
            }
          ]
        },
        "8": {
          "ctab": {
            "srcChannel": 8,
            "name": "Perc",
            "accType": "SUBRHYTHM",
            "editable": false,
            "mutedNotes": [],
            "mutedChords": [],
            "autoStart": true,
            "sourceChordNote": 0,
            "sourceChordType": "Maj7",
            "ctb2Low": null,
            "ctb2Main": {
              "ntr": "ROOT_FIXED",
              "ntt": "BYPASS",
              "bassOn": false,
              "chordRootUpperLimit": 6,
              "noteLowLimit": 0,
              "noteHighLimit": 127,
              "rtr": "PITCH_SHIFT"
            },
            "ctb2High": null
          },
          "notes": [
            {
              "pitch": 23,
              "velocity": 101,
              "position": 0,
              "duration": 0.125
            },
            {
              "pitch": 40,
              "velocity": 93,
              "position": 0,
              "duration": 0.125
            },
            {
              "pitch": 22,
              "velocity": 74,
              "position": 0.25,
              "duration": 0.125
            },
            {
              "pitch": 38,
              "velocity": 86,
              "position": 0.25,
              "duration": 0.125
            },
            {
              "pitch": 28,
              "velocity": 107,
              "position": 0.5,
              "duration": 0.125
            },
            {
              "pitch": 36,
              "velocity": 88,
              "position": 0.5,
              "duration": 0.125
            },
            {
              "pitch": 22,
              "velocity": 74,
              "position": 0.75,
              "duration": 0.125
            },
            {
              "pitch": 40,
              "velocity": 97,
              "position": 0.75,
              "duration": 0.125
            },
            {
              "pitch": 23,
              "velocity": 80,
              "position": 1,
              "duration": 0.125
            },
            {
              "pitch": 38,
              "velocity": 86,
              "position": 1,
              "duration": 0.125
            },
            {
              "pitch": 22,
              "velocity": 86,
              "position": 1.25,
              "duration": 0.125
            },
            {
              "pitch": 39,
              "velocity": 74,
              "position": 1.25,
              "duration": 0.125
            },
            {
              "pitch": 24,
              "velocity": 94,
              "position": 1.5,
              "duration": 0.125
            },
            {
              "pitch": 42,
              "velocity": 102,
              "position": 1.5,
              "duration": 0.125
            },
            {
              "pitch": 24,
              "velocity": 100,
              "position": 1.75,
              "duration": 0.125
            },
            {
              "pitch": 43,
              "velocity": 108,
              "position": 1.75,
              "duration": 0.125
            },
            {
              "pitch": 23,
              "velocity": 81,
              "position": 2,
              "duration": 0.125
            },
            {
              "pitch": 38,
              "velocity": 76,
              "position": 2,
              "duration": 0.125
            },
            {
              "pitch": 22,
              "velocity": 63,
              "position": 2.25,
              "duration": 0.125
            },
            {
              "pitch": 43,
              "velocity": 108,
              "position": 2.25,
              "duration": 0.125
            },
            {
              "pitch": 28,
              "velocity": 107,
              "position": 2.5,
              "duration": 0.125
            },
            {
              "pitch": 43,
              "velocity": 108,
              "position": 2.5,
              "duration": 0.125
            },
            {
              "pitch": 22,
              "velocity": 63,
              "position": 2.75,
              "duration": 0.125
            },
            {
              "pitch": 40,
              "velocity": 97,
              "position": 2.75,
              "duration": 0.125
            },
            {
              "pitch": 23,
              "velocity": 81,
              "position": 3,
              "duration": 0.125
            },
            {
              "pitch": 38,
              "velocity": 76,
              "position": 3,
              "duration": 0.125
            },
            {
              "pitch": 22,
              "velocity": 63,
              "position": 3.25,
              "duration": 0.125
            },
            {
              "pitch": 39,
              "velocity": 74,
              "position": 3.25,
              "duration": 0.125
            },
            {
              "pitch": 31,
              "velocity": 99,
              "position": 3.5,
              "duration": 0.125
            },
            {
              "pitch": 42,
              "velocity": 102,
              "position": 3.5,
              "duration": 0.125
            },
            {
              "pitch": 24,
              "velocity": 97,
              "position": 3.75,
              "duration": 0.125
            },
            {
              "pitch": 40,
              "velocity": 90,
              "position": 3.75,
              "duration": 0.125
            },
            {
              "pitch": 23,
              "velocity": 101,
              "position": 4,
              "duration": 0.125
            },
            {
              "pitch": 40,
              "velocity": 93,
              "position": 4,
              "duration": 0.125
            },
            {
              "pitch": 22,
              "velocity": 74,
              "position": 4.25,
              "duration": 0.125
            },
            {
              "pitch": 38,
              "velocity": 86,
              "position": 4.25,
              "duration": 0.125
            },
            {
              "pitch": 28,
              "velocity": 107,
              "position": 4.5,
              "duration": 0.125
            },
            {
              "pitch": 36,
              "velocity": 88,
              "position": 4.5,
              "duration": 0.125
            },
            {
              "pitch": 22,
              "velocity": 74,
              "position": 4.75,
              "duration": 0.125
            },
            {
              "pitch": 40,
              "velocity": 97,
              "position": 4.75,
              "duration": 0.125
            },
            {
              "pitch": 23,
              "velocity": 80,
              "position": 5,
              "duration": 0.125
            },
            {
              "pitch": 38,
              "velocity": 86,
              "position": 5,
              "duration": 0.125
            },
            {
              "pitch": 22,
              "velocity": 86,
              "position": 5.25,
              "duration": 0.125
            },
            {
              "pitch": 39,
              "velocity": 74,
              "position": 5.25,
              "duration": 0.125
            },
            {
              "pitch": 24,
              "velocity": 94,
              "position": 5.5,
              "duration": 0.125
            },
            {
              "pitch": 42,
              "velocity": 102,
              "position": 5.5,
              "duration": 0.125
            },
            {
              "pitch": 24,
              "velocity": 100,
              "position": 5.75,
              "duration": 0.125
            },
            {
              "pitch": 43,
              "velocity": 108,
              "position": 5.75,
              "duration": 0.125
            },
            {
              "pitch": 23,
              "velocity": 81,
              "position": 6,
              "duration": 0.125
            },
            {
              "pitch": 38,
              "velocity": 76,
              "position": 6,
              "duration": 0.125
            },
            {
              "pitch": 22,
              "velocity": 63,
              "position": 6.25,
              "duration": 0.125
            },
            {
              "pitch": 43,
              "velocity": 108,
              "position": 6.25,
              "duration": 0.125
            },
            {
              "pitch": 28,
              "velocity": 107,
              "position": 6.5,
              "duration": 0.125
            },
            {
              "pitch": 43,
              "velocity": 108,
              "position": 6.5,
              "duration": 0.125
            },
            {
              "pitch": 22,
              "velocity": 63,
              "position": 6.75,
              "duration": 0.125
            },
            {
              "pitch": 40,
              "velocity": 97,
              "position": 6.75,
              "duration": 0.125
            },
            {
              "pitch": 38,
              "velocity": 73,
              "position": 7,
              "duration": 0.125
            },
            {
              "pitch": 39,
              "velocity": 74,
              "position": 7.25,
              "duration": 0.125
            },
            {
              "pitch": 54,
              "velocity": 102,
              "position": 7.25,
              "duration": 0.125
            },
            {
              "pitch": 31,
              "velocity": 101,
              "position": 7.5,
              "duration": 0.125
            },
            {
              "pitch": 42,
              "velocity": 99,
              "position": 7.5,
              "duration": 0.125
            },
            {
              "pitch": 54,
              "velocity": 115,
              "position": 7.5,
              "duration": 0.125
            },
            {
              "pitch": 31,
              "velocity": 101,
              "position": 7.75,
              "duration": 0.125
            },
            {
              "pitch": 40,
              "velocity": 90,
              "position": 7.75,
              "duration": 0.125
            }
          ]
        },
        "9": {
          "ctab": {
            "srcChannel": 9,
            "name": "Drums",
            "accType": "RHYTHM",
            "editable": false,
            "mutedNotes": [],
            "mutedChords": [],
            "autoStart": true,
            "sourceChordNote": 0,
            "sourceChordType": "Maj7",
            "ctb2Low": null,
            "ctb2Main": {
              "ntr": "ROOT_FIXED",
              "ntt": "BYPASS",
              "bassOn": false,
              "chordRootUpperLimit": 6,
              "noteLowLimit": 0,
              "noteHighLimit": 127,
              "rtr": "PITCH_SHIFT"
            },
            "ctb2High": null
          },
          "notes": [
            {
              "pitch": 35,
              "velocity": 107,
              "position": 0,
              "duration": 0.010416666666666666
            },
            {
              "pitch": 42,
              "velocity": 113,
              "position": 0,
              "duration": 0.010416666666666666
            },
            {
              "pitch": 51,
              "velocity": 62,
              "position": 0,
              "duration": 0.010416666666666666
            },
            {
              "pitch": 42,
              "velocity": 60,
              "position": 0.25,
              "duration": 0.010416666666666666
            },
            {
              "pitch": 42,
              "velocity": 98,
              "position": 0.5,
              "duration": 0.010416666666666666
            },
            {
              "pitch": 51,
              "velocity": 62,
              "position": 0.5,
              "duration": 0.010416666666666666
            },
            {
              "pitch": 35,
              "velocity": 95,
              "position": 0.75,
              "duration": 0.010416666666666666
            },
            {
              "pitch": 42,
              "velocity": 85,
              "position": 0.75,
              "duration": 0.010416666666666666
            },
            {
              "pitch": 40,
              "velocity": 107,
              "position": 1,
              "duration": 0.010416666666666666
            },
            {
              "pitch": 42,
              "velocity": 113,
              "position": 1,
              "duration": 0.010416666666666666
            },
            {
              "pitch": 42,
              "velocity": 60,
              "position": 1.25,
              "duration": 0.010416666666666666
            },
            {
              "pitch": 51,
              "velocity": 62,
              "position": 1.25,
              "duration": 0.010416666666666666
            },
            {
              "pitch": 42,
              "velocity": 88,
              "position": 1.5,
              "duration": 0.010416666666666666
            },
            {
              "pitch": 43,
              "velocity": 74,
              "position": 1.5,
              "duration": 0.010416666666666666
            },
            {
              "pitch": 40,
              "velocity": 107,
              "position": 1.75,
              "duration": 0.010416666666666666
            },
            {
              "pitch": 42,
              "velocity": 85,
              "position": 1.75,
              "duration": 0.010416666666666666
            },
            {
              "pitch": 35,
              "velocity": 107,
              "position": 2,
              "duration": 0.010416666666666666
            },
            {
              "pitch": 42,
              "velocity": 113,
              "position": 2,
              "duration": 0.010416666666666666
            },
            {
              "pitch": 51,
              "velocity": 62,
              "position": 2,
              "duration": 0.010416666666666666
            },
            {
              "pitch": 42,
              "velocity": 60,
              "position": 2.25,
              "duration": 0.010416666666666666
            },
            {
              "pitch": 42,
              "velocity": 98,
              "position": 2.5,
              "duration": 0.010416666666666666
            },
            {
              "pitch": 51,
              "velocity": 62,
              "position": 2.5,
              "duration": 0.010416666666666666
            },
            {
              "pitch": 35,
              "velocity": 95,
              "position": 2.75,
              "duration": 0.010416666666666666
            },
            {
              "pitch": 42,
              "velocity": 85,
              "position": 2.75,
              "duration": 0.010416666666666666
            },
            {
              "pitch": 40,
              "velocity": 107,
              "position": 3,
              "duration": 0.010416666666666666
            },
            {
              "pitch": 42,
              "velocity": 113,
              "position": 3,
              "duration": 0.010416666666666666
            },
            {
              "pitch": 42,
              "velocity": 60,
              "position": 3.25,
              "duration": 0.010416666666666666
            },
            {
              "pitch": 51,
              "velocity": 62,
              "position": 3.25,
              "duration": 0.010416666666666666
            },
            {
              "pitch": 42,
              "velocity": 88,
              "position": 3.5,
              "duration": 0.010416666666666666
            },
            {
              "pitch": 43,
              "velocity": 74,
              "position": 3.5,
              "duration": 0.010416666666666666
            },
            {
              "pitch": 40,
              "velocity": 107,
              "position": 3.75,
              "duration": 0.010416666666666666
            },
            {
              "pitch": 42,
              "velocity": 85,
              "position": 3.75,
              "duration": 0.010416666666666666
            },
            {
              "pitch": 35,
              "velocity": 107,
              "position": 4,
              "duration": 0.010416666666666666
            },
            {
              "pitch": 42,
              "velocity": 113,
              "position": 4,
              "duration": 0.010416666666666666
            },
            {
              "pitch": 51,
              "velocity": 62,
              "position": 4,
              "duration": 0.010416666666666666
            },
            {
              "pitch": 40,
              "velocity": 101,
              "position": 4.25,
              "duration": 0.010416666666666666
            },
            {
              "pitch": 42,
              "velocity": 60,
              "position": 4.25,
              "duration": 0.010416666666666666
            },
            {
              "pitch": 42,
              "velocity": 98,
              "position": 4.5,
              "duration": 0.010416666666666666
            },
            {
              "pitch": 51,
              "velocity": 62,
              "position": 4.5,
              "duration": 0.010416666666666666
            },
            {
              "pitch": 35,
              "velocity": 105,
              "position": 4.75,
              "duration": 0.010416666666666666
            },
            {
              "pitch": 42,
              "velocity": 85,
              "position": 4.75,
              "duration": 0.010416666666666666
            },
            {
              "pitch": 40,
              "velocity": 107,
              "position": 5,
              "duration": 0.010416666666666666
            },
            {
              "pitch": 42,
              "velocity": 113,
              "position": 5,
              "duration": 0.010416666666666666
            },
            {
              "pitch": 40,
              "velocity": 107,
              "position": 5.25,
              "duration": 0.010416666666666666
            },
            {
              "pitch": 42,
              "velocity": 60,
              "position": 5.25,
              "duration": 0.010416666666666666
            },
            {
              "pitch": 51,
              "velocity": 62,
              "position": 5.25,
              "duration": 0.010416666666666666
            },
            {
              "pitch": 40,
              "velocity": 107,
              "position": 5.5,
              "duration": 0.010416666666666666
            },
            {
              "pitch": 42,
              "velocity": 88,
              "position": 5.5,
              "duration": 0.010416666666666666
            },
            {
              "pitch": 35,
              "velocity": 107,
              "position": 5.75,
              "duration": 0.010416666666666666
            },
            {
              "pitch": 46,
              "velocity": 109,
              "position": 5.75,
              "duration": 0.010416666666666666
            },
            {
              "pitch": 44,
              "velocity": 61,
              "position": 6.020833333333333,
              "duration": 0.010416666666666666
            },
            {
              "pitch": 35,
              "velocity": 102,
              "position": 6.25,
              "duration": 0.010416666666666666
            },
            {
              "pitch": 35,
              "velocity": 110,
              "position": 6.5,
              "duration": 0.010416666666666666
            },
            {
              "pitch": 57,
              "velocity": 76,
              "position": 6.5,
              "duration": 0.010416666666666666
            },
            {
              "pitch": 44,
              "velocity": 89,
              "position": 7.5,
              "duration": 0.010416666666666666
            },
            {
              "pitch": 35,
              "velocity": 90,
              "position": 7.75,
              "duration": 0.010416666666666666
            }
          ]
        },
        "10": {
          "ctab": {
            "srcChannel": 10,
            "name": "Bass",
            "accType": "BASS",
            "editable": false,
            "mutedNotes": [],
            "mutedChords": [
              "dim7",
              "dim",
              "minMaj7(9)",
              "minMaj7",
              "min7(11)",
              "min7(9)",
              "min(9)",
              "m7b5",
              "min7",
              "min6",
              "min"
            ],
            "autoStart": false,
            "sourceChordNote": 0,
            "sourceChordType": "Maj",
            "ctb2Low": null,
            "ctb2Main": {
              "ntr": "ROOT_TRANSPOSITION",
              "ntt": "BYPASS",
              "bassOn": false,
              "chordRootUpperLimit": 8,
              "noteLowLimit": 28,
              "noteHighLimit": 127,
              "rtr": "PITCH_SHIFT"
            },
            "ctb2High": null
          },
          "notes": [
            {
              "pitch": 24,
              "velocity": 72,
              "position": 0,
              "duration": 0.4895833333333333
            },
            {
              "pitch": 36,
              "velocity": 110,
              "position": 0.5,
              "duration": 0.10416666666666667
            },
            {
              "pitch": 31,
              "velocity": 72,
              "position": 0.75,
              "duration": 0.7395833333333334
            },
            {
              "pitch": 36,
              "velocity": 60,
              "position": 1.5,
              "duration": 0.4895833333333333
            },
            {
              "pitch": 29,
              "velocity": 72,
              "position": 2,
              "duration": 0.4895833333333333
            },
            {
              "pitch": 41,
              "velocity": 110,
              "position": 2.5,
              "duration": 0.10416666666666667
            },
            {
              "pitch": 36,
              "velocity": 72,
              "position": 2.75,
              "duration": 0.7395833333333334
            },
            {
              "pitch": 41,
              "velocity": 60,
              "position": 3.5,
              "duration": 0.4895833333333333
            },
            {
              "pitch": 24,
              "velocity": 72,
              "position": 4,
              "duration": 0.4895833333333333
            },
            {
              "pitch": 36,
              "velocity": 110,
              "position": 4.5,
              "duration": 0.10416666666666667
            },
            {
              "pitch": 29,
              "velocity": 72,
              "position": 4.75,
              "duration": 0.23958333333333334
            },
            {
              "pitch": 29,
              "velocity": 60,
              "position": 5.25,
              "duration": 0.23958333333333334
            },
            {
              "pitch": 29,
              "velocity": 72,
              "position": 5.75,
              "duration": 0.23958333333333334
            },
            {
              "pitch": 31,
              "velocity": 72,
              "position": 6.5,
              "duration": 1.4895833333333333
            }
          ]
        },
        "11": {
          "ctab": {
            "srcChannel": 11,
            "name": "Gtr",
            "accType": "CHORD1",
            "editable": false,
            "mutedNotes": [],
            "mutedChords": [
              "dim7",
              "dim",
              "minMaj7(9)",
              "minMaj7",
              "min7(11)",
              "min7(9)",
              "min(9)",
              "m7b5",
              "min7",
              "min6",
              "min"
            ],
            "autoStart": false,
            "sourceChordNote": 0,
            "sourceChordType": "Maj",
            "ctb2Low": null,
            "ctb2Main": {
              "ntr": "ROOT_TRANSPOSITION",
              "ntt": "BYPASS",
              "bassOn": false,
              "chordRootUpperLimit": 3,
              "noteLowLimit": 54,
              "noteHighLimit": 65,
              "rtr": "PITCH_SHIFT"
            },
            "ctb2High": null
          },
          "notes": [
            {
              "pitch": 60,
              "velocity": 38,
              "position": 0,
              "duration": 0.17708333333333334
            },
            {
              "pitch": 55,
              "velocity": 38,
              "position": 0.5,
              "duration": 0.23958333333333334
            },
            {
              "pitch": 59,
              "velocity": 38,
              "position": 0.5,
              "duration": 0.23958333333333334
            },
            {
              "pitch": 64,
              "velocity": 38,
              "position": 0.5,
              "duration": 0.23958333333333334
            },
            {
              "pitch": 55,
              "velocity": 100,
              "position": 0.75,
              "duration": 0.14583333333333334
            },
            {
              "pitch": 59,
              "velocity": 100,
              "position": 0.75,
              "duration": 0.14583333333333334
            },
            {
              "pitch": 57,
              "velocity": 34,
              "position": 1.25,
              "duration": 0.15625
            },
            {
              "pitch": 60,
              "velocity": 38,
              "position": 1.75,
              "duration": 0.17708333333333334
            },
            {
              "pitch": 57,
              "velocity": 38,
              "position": 2.25,
              "duration": 0.125
            },
            {
              "pitch": 60,
              "velocity": 38,
              "position": 2.25,
              "duration": 0.125
            },
            {
              "pitch": 65,
              "velocity": 38,
              "position": 2.25,
              "duration": 0.125
            },
            {
              "pitch": 57,
              "velocity": 36,
              "position": 2.75,
              "duration": 0.15625
            },
            {
              "pitch": 60,
              "velocity": 38,
              "position": 3.25,
              "duration": 0.17708333333333334
            },
            {
              "pitch": 57,
              "velocity": 60,
              "position": 3.75,
              "duration": 0.23958333333333334
            },
            {
              "pitch": 60,
              "velocity": 100,
              "position": 4,
              "duration": 0.17708333333333334
            },
            {
              "pitch": 55,
              "velocity": 38,
              "position": 4.5,
              "duration": 0.23958333333333334
            },
            {
              "pitch": 59,
              "velocity": 38,
              "position": 4.5,
              "duration": 0.23958333333333334
            },
            {
              "pitch": 64,
              "velocity": 38,
              "position": 4.5,
              "duration": 0.23958333333333334
            },
            {
              "pitch": 55,
              "velocity": 100,
              "position": 4.75,
              "duration": 0.14583333333333334
            },
            {
              "pitch": 59,
              "velocity": 100,
              "position": 4.75,
              "duration": 0.14583333333333334
            },
            {
              "pitch": 57,
              "velocity": 30,
              "position": 5.25,
              "duration": 0.15625
            },
            {
              "pitch": 57,
              "velocity": 36,
              "position": 5.75,
              "duration": 0.1875
            },
            {
              "pitch": 60,
              "velocity": 36,
              "position": 5.75,
              "duration": 0.1875
            },
            {
              "pitch": 65,
              "velocity": 36,
              "position": 5.75,
              "duration": 0.1875
            },
            {
              "pitch": 57,
              "velocity": 40,
              "position": 6.5,
              "duration": 1.4895833333333333
            },
            {
              "pitch": 60,
              "velocity": 40,
              "position": 6.5,
              "duration": 1.4895833333333333
            },
            {
              "pitch": 65,
              "velocity": 40,
              "position": 6.5,
              "duration": 1.4895833333333333
            }
          ]
        },
        "12": {
          "ctab": {
            "srcChannel": 12,
            "name": "Pno",
            "accType": "CHORD2",
            "editable": false,
            "mutedNotes": [],
            "mutedChords": [
              "dim7",
              "dim",
              "minMaj7(9)",
              "minMaj7",
              "min7(11)",
              "min7(9)",
              "min(9)",
              "m7b5",
              "min7",
              "min6",
              "min"
            ],
            "autoStart": false,
            "sourceChordNote": 0,
            "sourceChordType": "Maj",
            "ctb2Low": null,
            "ctb2Main": {
              "ntr": "ROOT_TRANSPOSITION",
              "ntt": "BYPASS",
              "bassOn": false,
              "chordRootUpperLimit": 3,
              "noteLowLimit": 52,
              "noteHighLimit": 63,
              "rtr": "PITCH_SHIFT"
            },
            "ctb2High": null
          },
          "notes": [
            {
              "pitch": 55,
              "velocity": 80,
              "position": 1,
              "duration": 0.22916666666666666
            },
            {
              "pitch": 59,
              "velocity": 80,
              "position": 1,
              "duration": 0.22916666666666666
            },
            {
              "pitch": 64,
              "velocity": 80,
              "position": 1,
              "duration": 0.22916666666666666
            },
            {
              "pitch": 55,
              "velocity": 75,
              "position": 1.25,
              "duration": 0.08333333333333333
            },
            {
              "pitch": 59,
              "velocity": 75,
              "position": 1.25,
              "duration": 0.08333333333333333
            },
            {
              "pitch": 64,
              "velocity": 75,
              "position": 1.25,
              "duration": 0.08333333333333333
            },
            {
              "pitch": 57,
              "velocity": 75,
              "position": 2,
              "duration": 0.10416666666666667
            },
            {
              "pitch": 60,
              "velocity": 75,
              "position": 2,
              "duration": 0.10416666666666667
            },
            {
              "pitch": 63,
              "velocity": 75,
              "position": 2,
              "duration": 0.10416666666666667
            },
            {
              "pitch": 57,
              "velocity": 80,
              "position": 2.75,
              "duration": 0.625
            },
            {
              "pitch": 60,
              "velocity": 80,
              "position": 2.75,
              "duration": 0.625
            },
            {
              "pitch": 63,
              "velocity": 80,
              "position": 2.75,
              "duration": 0.625
            },
            {
              "pitch": 57,
              "velocity": 80,
              "position": 3.5,
              "duration": 0.09375
            },
            {
              "pitch": 60,
              "velocity": 80,
              "position": 3.5,
              "duration": 0.09375
            },
            {
              "pitch": 63,
              "velocity": 80,
              "position": 3.5,
              "duration": 0.09375
            },
            {
              "pitch": 55,
              "velocity": 80,
              "position": 5,
              "duration": 0.23958333333333334
            },
            {
              "pitch": 59,
              "velocity": 80,
              "position": 5,
              "duration": 0.23958333333333334
            },
            {
              "pitch": 64,
              "velocity": 80,
              "position": 5,
              "duration": 0.23958333333333334
            },
            {
              "pitch": 55,
              "velocity": 75,
              "position": 5.25,
              "duration": 0.08333333333333333
            },
            {
              "pitch": 59,
              "velocity": 75,
              "position": 5.25,
              "duration": 0.08333333333333333
            },
            {
              "pitch": 64,
              "velocity": 75,
              "position": 5.25,
              "duration": 0.08333333333333333
            },
            {
              "pitch": 57,
              "velocity": 75,
              "position": 5.75,
              "duration": 0.10416666666666667
            },
            {
              "pitch": 60,
              "velocity": 75,
              "position": 5.75,
              "duration": 0.10416666666666667
            },
            {
              "pitch": 65,
              "velocity": 75,
              "position": 5.75,
              "duration": 0.10416666666666667
            },
            {
              "pitch": 57,
              "velocity": 92,
              "position": 6.5,
              "duration": 1.4895833333333333
            },
            {
              "pitch": 60,
              "velocity": 92,
              "position": 6.5,
              "duration": 1.4895833333333333
            },
            {
              "pitch": 65,
              "velocity": 92,
              "position": 6.5,
              "duration": 1.4895833333333333
            }
          ]
        },
        "13": {
          "ctab": {
            "srcChannel": 13,
            "name": "Str",
            "accType": "PAD",
            "editable": false,
            "mutedNotes": [],
            "mutedChords": [
              "dim7",
              "dim",
              "minMaj7(9)",
              "minMaj7",
              "min7(11)",
              "min7(9)",
              "min(9)",
              "m7b5",
              "min7",
              "min6",
              "min"
            ],
            "autoStart": false,
            "sourceChordNote": 0,
            "sourceChordType": "Maj",
            "ctb2Low": null,
            "ctb2Main": {
              "ntr": "ROOT_TRANSPOSITION",
              "ntt": "BYPASS",
              "bassOn": false,
              "chordRootUpperLimit": 8,
              "noteLowLimit": 58,
              "noteHighLimit": 69,
              "rtr": "PITCH_SHIFT"
            },
            "ctb2High": null
          },
          "notes": [
            {
              "pitch": 55,
              "velocity": 38,
              "position": 0,
              "duration": 1.9895833333333333
            },
            {
              "pitch": 59,
              "velocity": 38,
              "position": 0,
              "duration": 1.9895833333333333
            },
            {
              "pitch": 64,
              "velocity": 38,
              "position": 0,
              "duration": 1.9895833333333333
            },
            {
              "pitch": 57,
              "velocity": 38,
              "position": 2,
              "duration": 1.9895833333333333
            },
            {
              "pitch": 60,
              "velocity": 38,
              "position": 2,
              "duration": 1.9895833333333333
            },
            {
              "pitch": 63,
              "velocity": 38,
              "position": 2,
              "duration": 1.9895833333333333
            },
            {
              "pitch": 55,
              "velocity": 38,
              "position": 4,
              "duration": 1.7395833333333333
            },
            {
              "pitch": 59,
              "velocity": 38,
              "position": 4,
              "duration": 1.7395833333333333
            },
            {
              "pitch": 64,
              "velocity": 38,
              "position": 4,
              "duration": 1.7395833333333333
            },
            {
              "pitch": 57,
              "velocity": 38,
              "position": 6.5,
              "duration": 1.4895833333333333
            },
            {
              "pitch": 60,
              "velocity": 38,
              "position": 6.5,
              "duration": 1.4895833333333333
            },
            {
              "pitch": 65,
              "velocity": 38,
              "position": 6.5,
              "duration": 1.4895833333333333
            }
          ]
        },
        "14": {
          "ctab": {
            "srcChannel": 14,
            "name": "Brass",
            "accType": "PHRASE1",
            "editable": false,
            "mutedNotes": [],
            "mutedChords": [
              "dim7",
              "dim",
              "minMaj7(9)",
              "minMaj7",
              "min7(11)",
              "min7(9)",
              "min(9)",
              "m7b5",
              "min7",
              "min6",
              "min"
            ],
            "autoStart": false,
            "sourceChordNote": 0,
            "sourceChordType": "Maj",
            "ctb2Low": null,
            "ctb2Main": {
              "ntr": "ROOT_TRANSPOSITION",
              "ntt": "BYPASS",
              "bassOn": false,
              "chordRootUpperLimit": 8,
              "noteLowLimit": 0,
              "noteHighLimit": 127,
              "rtr": "PITCH_SHIFT"
            },
            "ctb2High": null
          },
          "notes": [
            {
              "pitch": 67,
              "velocity": 83,
              "position": 0,
              "duration": 0.20833333333333334
            },
            {
              "pitch": 71,
              "velocity": 83,
              "position": 0,
              "duration": 0.20833333333333334
            },
            {
              "pitch": 74,
              "velocity": 83,
              "position": 0,
              "duration": 0.20833333333333334
            },
            {
              "pitch": 76,
              "velocity": 104,
              "position": 0,
              "duration": 0.20833333333333334
            },
            {
              "pitch": 67,
              "velocity": 83,
              "position": 0.5,
              "duration": 0.20833333333333334
            },
            {
              "pitch": 71,
              "velocity": 83,
              "position": 0.5,
              "duration": 0.20833333333333334
            },
            {
              "pitch": 74,
              "velocity": 83,
              "position": 0.5,
              "duration": 0.20833333333333334
            },
            {
              "pitch": 76,
              "velocity": 104,
              "position": 0.5,
              "duration": 0.20833333333333334
            },
            {
              "pitch": 63,
              "velocity": 83,
              "position": 2.25,
              "duration": 0.20833333333333334
            },
            {
              "pitch": 67,
              "velocity": 83,
              "position": 2.25,
              "duration": 0.20833333333333334
            },
            {
              "pitch": 71,
              "velocity": 83,
              "position": 2.25,
              "duration": 0.20833333333333334
            },
            {
              "pitch": 74,
              "velocity": 104,
              "position": 2.25,
              "duration": 0.20833333333333334
            },
            {
              "pitch": 63,
              "velocity": 83,
              "position": 2.75,
              "duration": 0.20833333333333334
            },
            {
              "pitch": 67,
              "velocity": 83,
              "position": 2.75,
              "duration": 0.20833333333333334
            },
            {
              "pitch": 69,
              "velocity": 83,
              "position": 2.75,
              "duration": 0.20833333333333334
            },
            {
              "pitch": 72,
              "velocity": 104,
              "position": 2.75,
              "duration": 0.20833333333333334
            },
            {
              "pitch": 62,
              "velocity": 83,
              "position": 3.25,
              "duration": 0.20833333333333334
            },
            {
              "pitch": 63,
              "velocity": 83,
              "position": 3.25,
              "duration": 0.20833333333333334
            },
            {
              "pitch": 67,
              "velocity": 83,
              "position": 3.25,
              "duration": 0.20833333333333334
            },
            {
              "pitch": 71,
              "velocity": 104,
              "position": 3.25,
              "duration": 0.20833333333333334
            },
            {
              "pitch": 60,
              "velocity": 64,
              "position": 3.75,
              "duration": 0.20833333333333334
            },
            {
              "pitch": 63,
              "velocity": 64,
              "position": 3.75,
              "duration": 0.20833333333333334
            },
            {
              "pitch": 65,
              "velocity": 64,
              "position": 3.75,
              "duration": 0.20833333333333334
            },
            {
              "pitch": 69,
              "velocity": 84,
              "position": 3.75,
              "duration": 0.23958333333333334
            },
            {
              "pitch": 62,
              "velocity": 83,
              "position": 4,
              "duration": 0.7395833333333334
            },
            {
              "pitch": 64,
              "velocity": 83,
              "position": 4,
              "duration": 0.7395833333333334
            },
            {
              "pitch": 67,
              "velocity": 83,
              "position": 4,
              "duration": 0.7395833333333334
            },
            {
              "pitch": 71,
              "velocity": 104,
              "position": 4,
              "duration": 0.7395833333333334
            },
            {
              "pitch": 59,
              "velocity": 83,
              "position": 4.75,
              "duration": 0.20833333333333334
            },
            {
              "pitch": 62,
              "velocity": 83,
              "position": 4.75,
              "duration": 0.20833333333333334
            },
            {
              "pitch": 64,
              "velocity": 104,
              "position": 4.75,
              "duration": 0.20833333333333334
            },
            {
              "pitch": 59,
              "velocity": 64,
              "position": 5.25,
              "duration": 0.20833333333333334
            },
            {
              "pitch": 62,
              "velocity": 64,
              "position": 5.25,
              "duration": 0.20833333333333334
            },
            {
              "pitch": 65,
              "velocity": 84,
              "position": 5.25,
              "duration": 0.20833333333333334
            },
            {
              "pitch": 60,
              "velocity": 83,
              "position": 5.75,
              "duration": 0.23958333333333334
            },
            {
              "pitch": 62,
              "velocity": 83,
              "position": 5.75,
              "duration": 0.23958333333333334
            },
            {
              "pitch": 65,
              "velocity": 83,
              "position": 5.75,
              "duration": 0.23958333333333334
            },
            {
              "pitch": 67,
              "velocity": 104,
              "position": 5.75,
              "duration": 0.23958333333333334
            }
          ]
        }
      }
    },
    "Intro_C": {
      "type": "Intro_C",
      "sizeInBeats": 16,
      "channels": {
        "0": {
          "ctab": {
            "srcChannel": 0,
            "name": "Gtr FX",
            "accType": "CHORD1",
            "editable": true,
            "mutedNotes": [],
            "mutedChords": [],
            "autoStart": false,
            "sourceChordNote": 0,
            "sourceChordType": "Maj7",
            "ctb2Low": null,
            "ctb2Main": {
              "ntr": "ROOT_FIXED",
              "ntt": "BYPASS",
              "bassOn": false,
              "chordRootUpperLimit": 6,
              "noteLowLimit": 0,
              "noteHighLimit": 79,
              "rtr": "PITCH_SHIFT"
            },
            "ctb2High": null
          },
          "notes": [
            {
              "pitch": 127,
              "velocity": 83,
              "position": 2.15625,
              "duration": 0.4583333333333333
            },
            {
              "pitch": 108,
              "velocity": 103,
              "position": 6.25,
              "duration": 0.10416666666666667
            },
            {
              "pitch": 105,
              "velocity": 85,
              "position": 6.5,
              "duration": 0.10416666666666667
            },
            {
              "pitch": 125,
              "velocity": 95,
              "position": 6.520833333333333,
              "duration": 0.3125
            },
            {
              "pitch": 104,
              "velocity": 107,
              "position": 6.75,
              "duration": 0.10416666666666667
            },
            {
              "pitch": 103,
              "velocity": 77,
              "position": 7,
              "duration": 0.10416666666666667
            },
            {
              "pitch": 102,
              "velocity": 123,
              "position": 7.25,
              "duration": 0.10416666666666667
            },
            {
              "pitch": 105,
              "velocity": 81,
              "position": 7.5,
              "duration": 0.10416666666666667
            },
            {
              "pitch": 122,
              "velocity": 95,
              "position": 7.520833333333333,
              "duration": 0.3125
            },
            {
              "pitch": 106,
              "velocity": 107,
              "position": 7.75,
              "duration": 0.10416666666666667
            }
          ]
        },
        "1": {
          "ctab": {
            "srcChannel": 1,
            "name": "Bass",
            "accType": "BASS",
            "editable": false,
            "mutedNotes": [],
            "mutedChords": [
              "1+2+5",
              "sus4",
              "1+5",
              "1+8",
              "7aug",
              "Maj7aug",
              "7(#9)",
              "7(b13)",
              "7(b9)",
              "7(13)",
              "7#11",
              "7(9)",
              "7b5",
              "7sus4",
              "7th",
              "aug",
              "Maj6(9)",
              "Maj7(9)",
              "Maj(9)",
              "Maj7#11",
              "Maj7",
              "Maj6",
              "Maj"
            ],
            "autoStart": false,
            "sourceChordNote": 0,
            "sourceChordType": "min",
            "ctb2Low": null,
            "ctb2Main": {
              "ntr": "ROOT_TRANSPOSITION",
              "ntt": "BYPASS",
              "bassOn": false,
              "chordRootUpperLimit": 3,
              "noteLowLimit": 28,
              "noteHighLimit": 127,
              "rtr": "PITCH_SHIFT"
            },
            "ctb2High": null
          },
          "notes": [
            {
              "pitch": 36,
              "velocity": 72,
              "position": 0.25,
              "duration": 0.23958333333333334
            },
            {
              "pitch": 39,
              "velocity": 60,
              "position": 0.5,
              "duration": 0.13541666666666666
            },
            {
              "pitch": 43,
              "velocity": 60,
              "position": 0.75,
              "duration": 0.13541666666666666
            },
            {
              "pitch": 48,
              "velocity": 72,
              "position": 1,
              "duration": 0.23958333333333334
            },
            {
              "pitch": 43,
              "velocity": 60,
              "position": 1.25,
              "duration": 0.23958333333333334
            },
            {
              "pitch": 44,
              "velocity": 60,
              "position": 1.5,
              "duration": 0.23958333333333334
            },
            {
              "pitch": 46,
              "velocity": 72,
              "position": 1.75,
              "duration": 0.375
            },
            {
              "pitch": 46,
              "velocity": 72,
              "position": 2.75,
              "duration": 0.23958333333333334
            },
            {
              "pitch": 41,
              "velocity": 60,
              "position": 3.25,
              "duration": 0.23958333333333334
            },
            {
              "pitch": 43,
              "velocity": 60,
              "position": 3.5,
              "duration": 0.23958333333333334
            },
            {
              "pitch": 44,
              "velocity": 72,
              "position": 3.75,
              "duration": 0.375
            },
            {
              "pitch": 44,
              "velocity": 72,
              "position": 4.75,
              "duration": 0.23958333333333334
            },
            {
              "pitch": 46,
              "velocity": 60,
              "position": 5.25,
              "duration": 0.23958333333333334
            },
            {
              "pitch": 44,
              "velocity": 60,
              "position": 5.5,
              "duration": 0.23958333333333334
            },
            {
              "pitch": 43,
              "velocity": 72,
              "position": 5.75,
              "duration": 0.4895833333333333
            },
            {
              "pitch": 43,
              "velocity": 72,
              "position": 6.25,
              "duration": 0.23958333333333334
            },
            {
              "pitch": 31,
              "velocity": 72,
              "position": 6.75,
              "duration": 0.23958333333333334
            },
            {
              "pitch": 31,
              "velocity": 72,
              "position": 7.25,
              "duration": 0.23958333333333334
            },
            {
              "pitch": 36,
              "velocity": 72,
              "position": 7.75,
              "duration": 0.23958333333333334
            },
            {
              "pitch": 36,
              "velocity": 72,
              "position": 8.25,
              "duration": 0.23958333333333334
            },
            {
              "pitch": 39,
              "velocity": 60,
              "position": 8.5,
              "duration": 0.13541666666666666
            },
            {
              "pitch": 43,
              "velocity": 60,
              "position": 8.75,
              "duration": 0.13541666666666666
            },
            {
              "pitch": 48,
              "velocity": 72,
              "position": 9,
              "duration": 0.23958333333333334
            },
            {
              "pitch": 43,
              "velocity": 60,
              "position": 9.25,
              "duration": 0.23958333333333334
            },
            {
              "pitch": 44,
              "velocity": 60,
              "position": 9.5,
              "duration": 0.23958333333333334
            },
            {
              "pitch": 46,
              "velocity": 72,
              "position": 9.75,
              "duration": 0.375
            },
            {
              "pitch": 46,
              "velocity": 72,
              "position": 10.75,
              "duration": 0.23958333333333334
            },
            {
              "pitch": 41,
              "velocity": 60,
              "position": 11.25,
              "duration": 0.23958333333333334
            },
            {
              "pitch": 43,
              "velocity": 60,
              "position": 11.5,
              "duration": 0.23958333333333334
            },
            {
              "pitch": 44,
              "velocity": 72,
              "position": 11.75,
              "duration": 0.375
            },
            {
              "pitch": 44,
              "velocity": 72,
              "position": 12.75,
              "duration": 0.23958333333333334
            },
            {
              "pitch": 46,
              "velocity": 60,
              "position": 13.25,
              "duration": 0.23958333333333334
            },
            {
              "pitch": 44,
              "velocity": 60,
              "position": 13.5,
              "duration": 0.23958333333333334
            },
            {
              "pitch": 43,
              "velocity": 72,
              "position": 13.75,
              "duration": 0.23958333333333334
            },
            {
              "pitch": 43,
              "velocity": 72,
              "position": 14.25,
              "duration": 0.23958333333333334
            },
            {
              "pitch": 31,
              "velocity": 72,
              "position": 14.75,
              "duration": 1.2395833333333333
            }
          ]
        },
        "2": {
          "ctab": {
            "srcChannel": 2,
            "name": "Gtr",
            "accType": "CHORD1",
            "editable": false,
            "mutedNotes": [],
            "mutedChords": [
              "1+2+5",
              "sus4",
              "1+5",
              "1+8",
              "7aug",
              "Maj7aug",
              "7(#9)",
              "7(b13)",
              "7(b9)",
              "7(13)",
              "7#11",
              "7(9)",
              "7b5",
              "7sus4",
              "7th",
              "aug",
              "Maj6(9)",
              "Maj7(9)",
              "Maj(9)",
              "Maj7#11",
              "Maj7",
              "Maj6",
              "Maj"
            ],
            "autoStart": false,
            "sourceChordNote": 0,
            "sourceChordType": "min",
            "ctb2Low": null,
            "ctb2Main": {
              "ntr": "ROOT_TRANSPOSITION",
              "ntt": "BYPASS",
              "bassOn": false,
              "chordRootUpperLimit": 3,
              "noteLowLimit": 40,
              "noteHighLimit": 127,
              "rtr": "PITCH_SHIFT"
            },
            "ctb2High": null
          },
          "notes": [
            {
              "pitch": 48,
              "velocity": 40,
              "position": 0.25,
              "duration": 0.23958333333333334
            },
            {
              "pitch": 51,
              "velocity": 100,
              "position": 0.5,
              "duration": 0.13541666666666666
            },
            {
              "pitch": 55,
              "velocity": 88,
              "position": 0.75,
              "duration": 0.13541666666666666
            },
            {
              "pitch": 60,
              "velocity": 40,
              "position": 1,
              "duration": 0.23958333333333334
            },
            {
              "pitch": 55,
              "velocity": 100,
              "position": 1.25,
              "duration": 0.23958333333333334
            },
            {
              "pitch": 56,
              "velocity": 38,
              "position": 1.5,
              "duration": 0.23958333333333334
            },
            {
              "pitch": 58,
              "velocity": 36,
              "position": 1.75,
              "duration": 0.375
            },
            {
              "pitch": 58,
              "velocity": 36,
              "position": 2.75,
              "duration": 0.23958333333333334
            },
            {
              "pitch": 53,
              "velocity": 38,
              "position": 3.25,
              "duration": 0.23958333333333334
            },
            {
              "pitch": 55,
              "velocity": 100,
              "position": 3.5,
              "duration": 0.23958333333333334
            },
            {
              "pitch": 56,
              "velocity": 36,
              "position": 3.75,
              "duration": 0.375
            },
            {
              "pitch": 56,
              "velocity": 72,
              "position": 4.5,
              "duration": 0.13541666666666666
            },
            {
              "pitch": 56,
              "velocity": 40,
              "position": 4.75,
              "duration": 0.23958333333333334
            },
            {
              "pitch": 58,
              "velocity": 60,
              "position": 5.25,
              "duration": 0.23958333333333334
            },
            {
              "pitch": 56,
              "velocity": 100,
              "position": 5.5,
              "duration": 0.23958333333333334
            },
            {
              "pitch": 55,
              "velocity": 38,
              "position": 5.75,
              "duration": 0.4895833333333333
            },
            {
              "pitch": 69,
              "velocity": 38,
              "position": 6.25,
              "duration": 0.23958333333333334
            },
            {
              "pitch": 72,
              "velocity": 38,
              "position": 6.25,
              "duration": 0.23958333333333334
            },
            {
              "pitch": 77,
              "velocity": 38,
              "position": 6.25,
              "duration": 0.23958333333333334
            },
            {
              "pitch": 65,
              "velocity": 34,
              "position": 6.75,
              "duration": 0.23958333333333334
            },
            {
              "pitch": 71,
              "velocity": 34,
              "position": 6.75,
              "duration": 0.23958333333333334
            },
            {
              "pitch": 75,
              "velocity": 34,
              "position": 6.75,
              "duration": 0.23958333333333334
            },
            {
              "pitch": 65,
              "velocity": 38,
              "position": 7.25,
              "duration": 0.23958333333333334
            },
            {
              "pitch": 71,
              "velocity": 38,
              "position": 7.25,
              "duration": 0.23958333333333334
            },
            {
              "pitch": 75,
              "velocity": 38,
              "position": 7.25,
              "duration": 0.23958333333333334
            },
            {
              "pitch": 63,
              "velocity": 38,
              "position": 7.75,
              "duration": 0.23958333333333334
            },
            {
              "pitch": 67,
              "velocity": 38,
              "position": 7.75,
              "duration": 0.23958333333333334
            },
            {
              "pitch": 72,
              "velocity": 38,
              "position": 7.75,
              "duration": 0.23958333333333334
            },
            {
              "pitch": 48,
              "velocity": 40,
              "position": 8.25,
              "duration": 0.23958333333333334
            },
            {
              "pitch": 51,
              "velocity": 100,
              "position": 8.5,
              "duration": 0.13541666666666666
            },
            {
              "pitch": 55,
              "velocity": 88,
              "position": 8.75,
              "duration": 0.13541666666666666
            },
            {
              "pitch": 60,
              "velocity": 40,
              "position": 9,
              "duration": 0.23958333333333334
            },
            {
              "pitch": 55,
              "velocity": 100,
              "position": 9.25,
              "duration": 0.23958333333333334
            },
            {
              "pitch": 56,
              "velocity": 38,
              "position": 9.5,
              "duration": 0.23958333333333334
            },
            {
              "pitch": 58,
              "velocity": 36,
              "position": 9.75,
              "duration": 0.375
            },
            {
              "pitch": 58,
              "velocity": 72,
              "position": 10.5,
              "duration": 0.13541666666666666
            },
            {
              "pitch": 58,
              "velocity": 40,
              "position": 10.75,
              "duration": 0.23958333333333334
            },
            {
              "pitch": 53,
              "velocity": 38,
              "position": 11.25,
              "duration": 0.23958333333333334
            },
            {
              "pitch": 55,
              "velocity": 100,
              "position": 11.5,
              "duration": 0.23958333333333334
            },
            {
              "pitch": 56,
              "velocity": 36,
              "position": 11.75,
              "duration": 0.375
            },
            {
              "pitch": 56,
              "velocity": 74,
              "position": 12.5,
              "duration": 0.13541666666666666
            },
            {
              "pitch": 56,
              "velocity": 40,
              "position": 12.75,
              "duration": 0.23958333333333334
            },
            {
              "pitch": 58,
              "velocity": 60,
              "position": 13.25,
              "duration": 0.23958333333333334
            },
            {
              "pitch": 56,
              "velocity": 100,
              "position": 13.5,
              "duration": 0.23958333333333334
            },
            {
              "pitch": 55,
              "velocity": 34,
              "position": 13.75,
              "duration": 0.23958333333333334
            },
            {
              "pitch": 55,
              "velocity": 36,
              "position": 14.25,
              "duration": 0.23958333333333334
            },
            {
              "pitch": 55,
              "velocity": 40,
              "position": 14.75,
              "duration": 1.2395833333333333
            }
          ]
        },
        "3": {
          "ctab": {
            "srcChannel": 3,
            "name": "Pno",
            "accType": "CHORD2",
            "editable": false,
            "mutedNotes": [],
            "mutedChords": [
              "1+2+5",
              "sus4",
              "1+5",
              "1+8",
              "7aug",
              "Maj7aug",
              "7(#9)",
              "7(b13)",
              "7(b9)",
              "7(13)",
              "7#11",
              "7(9)",
              "7b5",
              "7sus4",
              "7th",
              "aug",
              "Maj6(9)",
              "Maj7(9)",
              "Maj(9)",
              "Maj7#11",
              "Maj7",
              "Maj6",
              "Maj"
            ],
            "autoStart": false,
            "sourceChordNote": 0,
            "sourceChordType": "min",
            "ctb2Low": null,
            "ctb2Main": {
              "ntr": "ROOT_TRANSPOSITION",
              "ntt": "BYPASS",
              "bassOn": false,
              "chordRootUpperLimit": 3,
              "noteLowLimit": 0,
              "noteHighLimit": 79,
              "rtr": "PITCH_SHIFT"
            },
            "ctb2High": null
          },
          "notes": [
            {
              "pitch": 48,
              "velocity": 108,
              "position": 0.25,
              "duration": 0.23958333333333334
            },
            {
              "pitch": 72,
              "velocity": 108,
              "position": 0.25,
              "duration": 0.23958333333333334
            },
            {
              "pitch": 51,
              "velocity": 96,
              "position": 0.5,
              "duration": 0.125
            },
            {
              "pitch": 75,
              "velocity": 96,
              "position": 0.5,
              "duration": 0.125
            },
            {
              "pitch": 55,
              "velocity": 96,
              "position": 0.75,
              "duration": 0.14583333333333334
            },
            {
              "pitch": 79,
              "velocity": 96,
              "position": 0.75,
              "duration": 0.14583333333333334
            },
            {
              "pitch": 60,
              "velocity": 108,
              "position": 1,
              "duration": 0.23958333333333334
            },
            {
              "pitch": 84,
              "velocity": 108,
              "position": 1,
              "duration": 0.23958333333333334
            },
            {
              "pitch": 55,
              "velocity": 96,
              "position": 1.25,
              "duration": 0.23958333333333334
            },
            {
              "pitch": 79,
              "velocity": 96,
              "position": 1.25,
              "duration": 0.23958333333333334
            },
            {
              "pitch": 56,
              "velocity": 96,
              "position": 1.5,
              "duration": 0.23958333333333334
            },
            {
              "pitch": 80,
              "velocity": 96,
              "position": 1.5,
              "duration": 0.23958333333333334
            },
            {
              "pitch": 58,
              "velocity": 108,
              "position": 1.75,
              "duration": 0.1875
            },
            {
              "pitch": 82,
              "velocity": 108,
              "position": 1.75,
              "duration": 0.1875
            },
            {
              "pitch": 68,
              "velocity": 96,
              "position": 2.25,
              "duration": 0.20833333333333334
            },
            {
              "pitch": 74,
              "velocity": 96,
              "position": 2.25,
              "duration": 0.20833333333333334
            },
            {
              "pitch": 58,
              "velocity": 108,
              "position": 2.75,
              "duration": 0.21875
            },
            {
              "pitch": 82,
              "velocity": 108,
              "position": 2.75,
              "duration": 0.21875
            },
            {
              "pitch": 53,
              "velocity": 96,
              "position": 3.25,
              "duration": 0.23958333333333334
            },
            {
              "pitch": 77,
              "velocity": 96,
              "position": 3.25,
              "duration": 0.23958333333333334
            },
            {
              "pitch": 55,
              "velocity": 96,
              "position": 3.5,
              "duration": 0.23958333333333334
            },
            {
              "pitch": 79,
              "velocity": 96,
              "position": 3.5,
              "duration": 0.23958333333333334
            },
            {
              "pitch": 56,
              "velocity": 108,
              "position": 3.75,
              "duration": 0.1875
            },
            {
              "pitch": 80,
              "velocity": 108,
              "position": 3.75,
              "duration": 0.1875
            },
            {
              "pitch": 68,
              "velocity": 96,
              "position": 4.25,
              "duration": 0.20833333333333334
            },
            {
              "pitch": 72,
              "velocity": 96,
              "position": 4.25,
              "duration": 0.20833333333333334
            },
            {
              "pitch": 56,
              "velocity": 108,
              "position": 4.75,
              "duration": 0.23958333333333334
            },
            {
              "pitch": 80,
              "velocity": 108,
              "position": 4.75,
              "duration": 0.23958333333333334
            },
            {
              "pitch": 58,
              "velocity": 96,
              "position": 5.25,
              "duration": 0.23958333333333334
            },
            {
              "pitch": 82,
              "velocity": 96,
              "position": 5.25,
              "duration": 0.23958333333333334
            },
            {
              "pitch": 56,
              "velocity": 96,
              "position": 5.5,
              "duration": 0.23958333333333334
            },
            {
              "pitch": 80,
              "velocity": 96,
              "position": 5.5,
              "duration": 0.23958333333333334
            },
            {
              "pitch": 55,
              "velocity": 108,
              "position": 5.75,
              "duration": 0.4895833333333333
            },
            {
              "pitch": 79,
              "velocity": 108,
              "position": 5.75,
              "duration": 0.4895833333333333
            },
            {
              "pitch": 65,
              "velocity": 96,
              "position": 6.25,
              "duration": 0.21875
            },
            {
              "pitch": 69,
              "velocity": 96,
              "position": 6.25,
              "duration": 0.21875
            },
            {
              "pitch": 65,
              "velocity": 96,
              "position": 6.75,
              "duration": 0.1875
            },
            {
              "pitch": 67,
              "velocity": 96,
              "position": 6.75,
              "duration": 0.1875
            },
            {
              "pitch": 65,
              "velocity": 96,
              "position": 7.25,
              "duration": 0.21875
            },
            {
              "pitch": 71,
              "velocity": 96,
              "position": 7.25,
              "duration": 0.21875
            },
            {
              "pitch": 63,
              "velocity": 96,
              "position": 7.75,
              "duration": 0.19791666666666666
            },
            {
              "pitch": 72,
              "velocity": 96,
              "position": 7.75,
              "duration": 0.19791666666666666
            },
            {
              "pitch": 48,
              "velocity": 108,
              "position": 8.25,
              "duration": 0.23958333333333334
            },
            {
              "pitch": 72,
              "velocity": 108,
              "position": 8.25,
              "duration": 0.23958333333333334
            },
            {
              "pitch": 51,
              "velocity": 96,
              "position": 8.5,
              "duration": 0.125
            },
            {
              "pitch": 75,
              "velocity": 96,
              "position": 8.5,
              "duration": 0.125
            },
            {
              "pitch": 55,
              "velocity": 96,
              "position": 8.75,
              "duration": 0.14583333333333334
            },
            {
              "pitch": 79,
              "velocity": 96,
              "position": 8.75,
              "duration": 0.14583333333333334
            },
            {
              "pitch": 60,
              "velocity": 108,
              "position": 9,
              "duration": 0.23958333333333334
            },
            {
              "pitch": 84,
              "velocity": 108,
              "position": 9,
              "duration": 0.23958333333333334
            },
            {
              "pitch": 55,
              "velocity": 96,
              "position": 9.25,
              "duration": 0.23958333333333334
            },
            {
              "pitch": 79,
              "velocity": 96,
              "position": 9.25,
              "duration": 0.23958333333333334
            },
            {
              "pitch": 56,
              "velocity": 96,
              "position": 9.5,
              "duration": 0.23958333333333334
            },
            {
              "pitch": 80,
              "velocity": 96,
              "position": 9.5,
              "duration": 0.23958333333333334
            },
            {
              "pitch": 58,
              "velocity": 108,
              "position": 9.75,
              "duration": 0.1875
            },
            {
              "pitch": 82,
              "velocity": 108,
              "position": 9.75,
              "duration": 0.1875
            },
            {
              "pitch": 68,
              "velocity": 96,
              "position": 10.25,
              "duration": 0.20833333333333334
            },
            {
              "pitch": 74,
              "velocity": 96,
              "position": 10.25,
              "duration": 0.20833333333333334
            },
            {
              "pitch": 58,
              "velocity": 108,
              "position": 10.75,
              "duration": 0.21875
            },
            {
              "pitch": 82,
              "velocity": 108,
              "position": 10.75,
              "duration": 0.21875
            },
            {
              "pitch": 53,
              "velocity": 96,
              "position": 11.25,
              "duration": 0.23958333333333334
            },
            {
              "pitch": 77,
              "velocity": 96,
              "position": 11.25,
              "duration": 0.23958333333333334
            },
            {
              "pitch": 55,
              "velocity": 96,
              "position": 11.5,
              "duration": 0.23958333333333334
            },
            {
              "pitch": 79,
              "velocity": 96,
              "position": 11.5,
              "duration": 0.23958333333333334
            },
            {
              "pitch": 56,
              "velocity": 108,
              "position": 11.75,
              "duration": 0.1875
            },
            {
              "pitch": 80,
              "velocity": 108,
              "position": 11.75,
              "duration": 0.1875
            },
            {
              "pitch": 66,
              "velocity": 96,
              "position": 12.25,
              "duration": 0.20833333333333334
            },
            {
              "pitch": 72,
              "velocity": 96,
              "position": 12.25,
              "duration": 0.20833333333333334
            },
            {
              "pitch": 56,
              "velocity": 108,
              "position": 12.75,
              "duration": 0.23958333333333334
            },
            {
              "pitch": 80,
              "velocity": 108,
              "position": 12.75,
              "duration": 0.23958333333333334
            },
            {
              "pitch": 58,
              "velocity": 96,
              "position": 13.25,
              "duration": 0.23958333333333334
            },
            {
              "pitch": 82,
              "velocity": 96,
              "position": 13.25,
              "duration": 0.23958333333333334
            },
            {
              "pitch": 56,
              "velocity": 96,
              "position": 13.5,
              "duration": 0.23958333333333334
            },
            {
              "pitch": 80,
              "velocity": 96,
              "position": 13.5,
              "duration": 0.23958333333333334
            },
            {
              "pitch": 55,
              "velocity": 108,
              "position": 13.75,
              "duration": 0.21875
            },
            {
              "pitch": 79,
              "velocity": 108,
              "position": 13.75,
              "duration": 0.21875
            },
            {
              "pitch": 55,
              "velocity": 108,
              "position": 14.25,
              "duration": 0.19791666666666666
            },
            {
              "pitch": 67,
              "velocity": 108,
              "position": 14.25,
              "duration": 0.19791666666666666
            },
            {
              "pitch": 43,
              "velocity": 108,
              "position": 14.75,
              "duration": 1.2395833333333333
            },
            {
              "pitch": 55,
              "velocity": 108,
              "position": 14.75,
              "duration": 1.2395833333333333
            }
          ]
        },
        "5": {
          "ctab": {
            "srcChannel": 5,
            "name": "Brass",
            "accType": "PHRASE1",
            "editable": false,
            "mutedNotes": [],
            "mutedChords": [
              "1+2+5",
              "sus4",
              "1+5",
              "1+8",
              "7aug",
              "Maj7aug",
              "7(#9)",
              "7(b13)",
              "7(b9)",
              "7(13)",
              "7#11",
              "7(9)",
              "7b5",
              "7sus4",
              "7th",
              "aug",
              "Maj6(9)",
              "Maj7(9)",
              "Maj(9)",
              "Maj7#11",
              "Maj7",
              "Maj6",
              "Maj"
            ],
            "autoStart": false,
            "sourceChordNote": 0,
            "sourceChordType": "min",
            "ctb2Low": null,
            "ctb2Main": {
              "ntr": "ROOT_TRANSPOSITION",
              "ntt": "BYPASS",
              "bassOn": false,
              "chordRootUpperLimit": 2,
              "noteLowLimit": 0,
              "noteHighLimit": 127,
              "rtr": "PITCH_SHIFT"
            },
            "ctb2High": null
          },
          "notes": [
            {
              "pitch": 70,
              "velocity": 82,
              "position": 0,
              "duration": 0.23958333333333334
            },
            {
              "pitch": 72,
              "velocity": 82,
              "position": 0,
              "duration": 0.23958333333333334
            },
            {
              "pitch": 75,
              "velocity": 82,
              "position": 0,
              "duration": 0.23958333333333334
            },
            {
              "pitch": 79,
              "velocity": 101,
              "position": 0,
              "duration": 0.23958333333333334
            },
            {
              "pitch": 68,
              "velocity": 82,
              "position": 2.25,
              "duration": 0.23958333333333334
            },
            {
              "pitch": 72,
              "velocity": 82,
              "position": 2.25,
              "duration": 0.23958333333333334
            },
            {
              "pitch": 74,
              "velocity": 82,
              "position": 2.25,
              "duration": 0.23958333333333334
            },
            {
              "pitch": 79,
              "velocity": 101,
              "position": 2.25,
              "duration": 0.23958333333333334
            },
            {
              "pitch": 70,
              "velocity": 82,
              "position": 4.25,
              "duration": 0.23958333333333334
            },
            {
              "pitch": 72,
              "velocity": 82,
              "position": 4.25,
              "duration": 0.23958333333333334
            },
            {
              "pitch": 75,
              "velocity": 82,
              "position": 4.25,
              "duration": 0.23958333333333334
            },
            {
              "pitch": 79,
              "velocity": 101,
              "position": 4.25,
              "duration": 0.23958333333333334
            },
            {
              "pitch": 69,
              "velocity": 82,
              "position": 6.25,
              "duration": 0.23958333333333334
            },
            {
              "pitch": 72,
              "velocity": 82,
              "position": 6.25,
              "duration": 0.23958333333333334
            },
            {
              "pitch": 77,
              "velocity": 82,
              "position": 6.25,
              "duration": 0.23958333333333334
            },
            {
              "pitch": 79,
              "velocity": 101,
              "position": 6.25,
              "duration": 0.23958333333333334
            },
            {
              "pitch": 65,
              "velocity": 82,
              "position": 6.75,
              "duration": 0.23958333333333334
            },
            {
              "pitch": 71,
              "velocity": 82,
              "position": 6.75,
              "duration": 0.23958333333333334
            },
            {
              "pitch": 75,
              "velocity": 82,
              "position": 6.75,
              "duration": 0.23958333333333334
            },
            {
              "pitch": 79,
              "velocity": 101,
              "position": 6.75,
              "duration": 0.23958333333333334
            },
            {
              "pitch": 71,
              "velocity": 82,
              "position": 7.25,
              "duration": 0.23958333333333334
            },
            {
              "pitch": 75,
              "velocity": 82,
              "position": 7.25,
              "duration": 0.23958333333333334
            },
            {
              "pitch": 79,
              "velocity": 82,
              "position": 7.25,
              "duration": 0.23958333333333334
            },
            {
              "pitch": 83,
              "velocity": 101,
              "position": 7.25,
              "duration": 0.23958333333333334
            },
            {
              "pitch": 72,
              "velocity": 82,
              "position": 7.75,
              "duration": 0.23958333333333334
            },
            {
              "pitch": 75,
              "velocity": 82,
              "position": 7.75,
              "duration": 0.23958333333333334
            },
            {
              "pitch": 79,
              "velocity": 82,
              "position": 7.75,
              "duration": 0.23958333333333334
            },
            {
              "pitch": 82,
              "velocity": 82,
              "position": 7.75,
              "duration": 0.23958333333333334
            },
            {
              "pitch": 84,
              "velocity": 101,
              "position": 7.75,
              "duration": 0.23958333333333334
            },
            {
              "pitch": 68,
              "velocity": 82,
              "position": 10.25,
              "duration": 0.23958333333333334
            },
            {
              "pitch": 72,
              "velocity": 82,
              "position": 10.25,
              "duration": 0.23958333333333334
            },
            {
              "pitch": 74,
              "velocity": 82,
              "position": 10.25,
              "duration": 0.23958333333333334
            },
            {
              "pitch": 79,
              "velocity": 82,
              "position": 10.25,
              "duration": 0.23958333333333334
            },
            {
              "pitch": 82,
              "velocity": 101,
              "position": 10.25,
              "duration": 0.23958333333333334
            },
            {
              "pitch": 66,
              "velocity": 82,
              "position": 12.25,
              "duration": 0.23958333333333334
            },
            {
              "pitch": 70,
              "velocity": 82,
              "position": 12.25,
              "duration": 0.23958333333333334
            },
            {
              "pitch": 72,
              "velocity": 82,
              "position": 12.25,
              "duration": 0.23958333333333334
            },
            {
              "pitch": 77,
              "velocity": 82,
              "position": 12.25,
              "duration": 0.23958333333333334
            },
            {
              "pitch": 80,
              "velocity": 101,
              "position": 12.25,
              "duration": 0.23958333333333334
            },
            {
              "pitch": 67,
              "velocity": 101,
              "position": 14.25,
              "duration": 0.23958333333333334
            },
            {
              "pitch": 79,
              "velocity": 101,
              "position": 14.25,
              "duration": 0.23958333333333334
            },
            {
              "pitch": 55,
              "velocity": 101,
              "position": 14.75,
              "duration": 1.2395833333333333
            },
            {
              "pitch": 67,
              "velocity": 101,
              "position": 14.75,
              "duration": 1.2395833333333333
            }
          ]
        },
        "8": {
          "ctab": {
            "srcChannel": 8,
            "name": "Perc",
            "accType": "SUBRHYTHM",
            "editable": false,
            "mutedNotes": [],
            "mutedChords": [],
            "autoStart": true,
            "sourceChordNote": 0,
            "sourceChordType": "Maj7",
            "ctb2Low": null,
            "ctb2Main": {
              "ntr": "ROOT_FIXED",
              "ntt": "BYPASS",
              "bassOn": false,
              "chordRootUpperLimit": 6,
              "noteLowLimit": 0,
              "noteHighLimit": 127,
              "rtr": "PITCH_SHIFT"
            },
            "ctb2High": null
          },
          "notes": [
            {
              "pitch": 23,
              "velocity": 101,
              "position": 0,
              "duration": 0.125
            },
            {
              "pitch": 60,
              "velocity": 106,
              "position": 0,
              "duration": 0.125
            },
            {
              "pitch": 22,
              "velocity": 74,
              "position": 0.25,
              "duration": 0.125
            },
            {
              "pitch": 28,
              "velocity": 111,
              "position": 0.5,
              "duration": 0.125
            },
            {
              "pitch": 22,
              "velocity": 74,
              "position": 0.75,
              "duration": 0.125
            },
            {
              "pitch": 23,
              "velocity": 80,
              "position": 1,
              "duration": 0.125
            },
            {
              "pitch": 60,
              "velocity": 106,
              "position": 1,
              "duration": 0.125
            },
            {
              "pitch": 22,
              "velocity": 86,
              "position": 1.25,
              "duration": 0.125
            },
            {
              "pitch": 24,
              "velocity": 98,
              "position": 1.5,
              "duration": 0.125
            },
            {
              "pitch": 24,
              "velocity": 100,
              "position": 1.75,
              "duration": 0.125
            },
            {
              "pitch": 23,
              "velocity": 81,
              "position": 2,
              "duration": 0.125
            },
            {
              "pitch": 60,
              "velocity": 106,
              "position": 2,
              "duration": 0.125
            },
            {
              "pitch": 28,
              "velocity": 114,
              "position": 2.25,
              "duration": 0.125
            },
            {
              "pitch": 23,
              "velocity": 63,
              "position": 2.5,
              "duration": 0.125
            },
            {
              "pitch": 24,
              "velocity": 97,
              "position": 2.75,
              "duration": 0.125
            },
            {
              "pitch": 23,
              "velocity": 81,
              "position": 3,
              "duration": 0.125
            },
            {
              "pitch": 60,
              "velocity": 106,
              "position": 3,
              "duration": 0.125
            },
            {
              "pitch": 31,
              "velocity": 106,
              "position": 3.25,
              "duration": 0.125
            },
            {
              "pitch": 31,
              "velocity": 106,
              "position": 3.5,
              "duration": 0.125
            },
            {
              "pitch": 24,
              "velocity": 100,
              "position": 3.75,
              "duration": 0.125
            },
            {
              "pitch": 23,
              "velocity": 81,
              "position": 4,
              "duration": 0.125
            },
            {
              "pitch": 60,
              "velocity": 106,
              "position": 4,
              "duration": 0.125
            },
            {
              "pitch": 28,
              "velocity": 114,
              "position": 4.25,
              "duration": 0.125
            },
            {
              "pitch": 23,
              "velocity": 63,
              "position": 4.5,
              "duration": 0.125
            },
            {
              "pitch": 24,
              "velocity": 97,
              "position": 4.75,
              "duration": 0.125
            },
            {
              "pitch": 23,
              "velocity": 81,
              "position": 5,
              "duration": 0.125
            },
            {
              "pitch": 60,
              "velocity": 106,
              "position": 5,
              "duration": 0.125
            },
            {
              "pitch": 31,
              "velocity": 106,
              "position": 5.25,
              "duration": 0.125
            },
            {
              "pitch": 31,
              "velocity": 106,
              "position": 5.5,
              "duration": 0.125
            },
            {
              "pitch": 24,
              "velocity": 100,
              "position": 5.75,
              "duration": 0.125
            },
            {
              "pitch": 23,
              "velocity": 81,
              "position": 6,
              "duration": 0.125
            },
            {
              "pitch": 60,
              "velocity": 106,
              "position": 6,
              "duration": 0.125
            },
            {
              "pitch": 28,
              "velocity": 114,
              "position": 6.25,
              "duration": 0.125
            },
            {
              "pitch": 23,
              "velocity": 63,
              "position": 6.5,
              "duration": 0.125
            },
            {
              "pitch": 31,
              "velocity": 105,
              "position": 6.75,
              "duration": 0.125
            },
            {
              "pitch": 31,
              "velocity": 105,
              "position": 7,
              "duration": 0.125
            },
            {
              "pitch": 60,
              "velocity": 106,
              "position": 7,
              "duration": 0.125
            },
            {
              "pitch": 23,
              "velocity": 81,
              "position": 7.25,
              "duration": 0.125
            },
            {
              "pitch": 24,
              "velocity": 103,
              "position": 7.5,
              "duration": 0.125
            },
            {
              "pitch": 24,
              "velocity": 102,
              "position": 7.75,
              "duration": 0.125
            },
            {
              "pitch": 23,
              "velocity": 101,
              "position": 8,
              "duration": 0.125
            },
            {
              "pitch": 60,
              "velocity": 106,
              "position": 8,
              "duration": 0.125
            },
            {
              "pitch": 22,
              "velocity": 74,
              "position": 8.25,
              "duration": 0.125
            },
            {
              "pitch": 28,
              "velocity": 111,
              "position": 8.5,
              "duration": 0.125
            },
            {
              "pitch": 22,
              "velocity": 74,
              "position": 8.75,
              "duration": 0.125
            },
            {
              "pitch": 23,
              "velocity": 80,
              "position": 9,
              "duration": 0.125
            },
            {
              "pitch": 60,
              "velocity": 106,
              "position": 9,
              "duration": 0.125
            },
            {
              "pitch": 22,
              "velocity": 86,
              "position": 9.25,
              "duration": 0.125
            },
            {
              "pitch": 24,
              "velocity": 98,
              "position": 9.5,
              "duration": 0.125
            },
            {
              "pitch": 24,
              "velocity": 100,
              "position": 9.75,
              "duration": 0.125
            },
            {
              "pitch": 23,
              "velocity": 81,
              "position": 10,
              "duration": 0.125
            },
            {
              "pitch": 60,
              "velocity": 106,
              "position": 10,
              "duration": 0.125
            },
            {
              "pitch": 28,
              "velocity": 114,
              "position": 10.25,
              "duration": 0.125
            },
            {
              "pitch": 23,
              "velocity": 63,
              "position": 10.5,
              "duration": 0.125
            },
            {
              "pitch": 24,
              "velocity": 97,
              "position": 10.75,
              "duration": 0.125
            },
            {
              "pitch": 23,
              "velocity": 81,
              "position": 11,
              "duration": 0.125
            },
            {
              "pitch": 60,
              "velocity": 106,
              "position": 11,
              "duration": 0.125
            },
            {
              "pitch": 31,
              "velocity": 106,
              "position": 11.25,
              "duration": 0.125
            },
            {
              "pitch": 31,
              "velocity": 106,
              "position": 11.5,
              "duration": 0.125
            },
            {
              "pitch": 24,
              "velocity": 100,
              "position": 11.75,
              "duration": 0.125
            },
            {
              "pitch": 23,
              "velocity": 81,
              "position": 12,
              "duration": 0.125
            },
            {
              "pitch": 60,
              "velocity": 106,
              "position": 12,
              "duration": 0.125
            },
            {
              "pitch": 28,
              "velocity": 114,
              "position": 12.25,
              "duration": 0.125
            },
            {
              "pitch": 23,
              "velocity": 63,
              "position": 12.5,
              "duration": 0.125
            },
            {
              "pitch": 24,
              "velocity": 97,
              "position": 12.75,
              "duration": 0.125
            },
            {
              "pitch": 23,
              "velocity": 81,
              "position": 13,
              "duration": 0.125
            },
            {
              "pitch": 60,
              "velocity": 106,
              "position": 13,
              "duration": 0.125
            },
            {
              "pitch": 31,
              "velocity": 106,
              "position": 13.25,
              "duration": 0.125
            },
            {
              "pitch": 31,
              "velocity": 106,
              "position": 13.5,
              "duration": 0.125
            },
            {
              "pitch": 24,
              "velocity": 100,
              "position": 13.75,
              "duration": 0.125
            },
            {
              "pitch": 23,
              "velocity": 81,
              "position": 14,
              "duration": 0.125
            },
            {
              "pitch": 60,
              "velocity": 106,
              "position": 14,
              "duration": 0.125
            },
            {
              "pitch": 28,
              "velocity": 114,
              "position": 14.25,
              "duration": 0.125
            },
            {
              "pitch": 24,
              "velocity": 102,
              "position": 14.5,
              "duration": 0.125
            },
            {
              "pitch": 24,
              "velocity": 102,
              "position": 14.75,
              "duration": 0.125
            },
            {
              "pitch": 23,
              "velocity": 63,
              "position": 15,
              "duration": 0.125
            },
            {
              "pitch": 60,
              "velocity": 106,
              "position": 15,
              "duration": 0.125
            },
            {
              "pitch": 31,
              "velocity": 106,
              "position": 15.25,
              "duration": 0.125
            },
            {
              "pitch": 31,
              "velocity": 106,
              "position": 15.5,
              "duration": 0.125
            }
          ]
        },
        "9": {
          "ctab": {
            "srcChannel": 9,
            "name": "Drums",
            "accType": "RHYTHM",
            "editable": false,
            "mutedNotes": [],
            "mutedChords": [],
            "autoStart": true,
            "sourceChordNote": 0,
            "sourceChordType": "Maj7",
            "ctb2Low": null,
            "ctb2Main": {
              "ntr": "ROOT_FIXED",
              "ntt": "BYPASS",
              "bassOn": false,
              "chordRootUpperLimit": 6,
              "noteLowLimit": 0,
              "noteHighLimit": 127,
              "rtr": "PITCH_SHIFT"
            },
            "ctb2High": null
          },
          "notes": [
            {
              "pitch": 35,
              "velocity": 107,
              "position": 0,
              "duration": 0.010416666666666666
            },
            {
              "pitch": 44,
              "velocity": 92,
              "position": 0,
              "duration": 0.010416666666666666
            },
            {
              "pitch": 49,
              "velocity": 61,
              "position": 0,
              "duration": 0.010416666666666666
            },
            {
              "pitch": 40,
              "velocity": 114,
              "position": 0.25,
              "duration": 0.010416666666666666
            },
            {
              "pitch": 44,
              "velocity": 89,
              "position": 0.5,
              "duration": 0.010416666666666666
            },
            {
              "pitch": 53,
              "velocity": 57,
              "position": 0.5,
              "duration": 0.010416666666666666
            },
            {
              "pitch": 35,
              "velocity": 102,
              "position": 0.75,
              "duration": 0.010416666666666666
            },
            {
              "pitch": 40,
              "velocity": 112,
              "position": 1,
              "duration": 0.010416666666666666
            },
            {
              "pitch": 44,
              "velocity": 92,
              "position": 1,
              "duration": 0.010416666666666666
            },
            {
              "pitch": 44,
              "velocity": 89,
              "position": 1.5,
              "duration": 0.010416666666666666
            },
            {
              "pitch": 53,
              "velocity": 57,
              "position": 1.5,
              "duration": 0.010416666666666666
            },
            {
              "pitch": 44,
              "velocity": 92,
              "position": 2,
              "duration": 0.010416666666666666
            },
            {
              "pitch": 35,
              "velocity": 110,
              "position": 2.25,
              "duration": 0.010416666666666666
            },
            {
              "pitch": 40,
              "velocity": 120,
              "position": 2.25,
              "duration": 0.010416666666666666
            },
            {
              "pitch": 44,
              "velocity": 89,
              "position": 2.5,
              "duration": 0.010416666666666666
            },
            {
              "pitch": 53,
              "velocity": 57,
              "position": 2.5,
              "duration": 0.010416666666666666
            },
            {
              "pitch": 35,
              "velocity": 92,
              "position": 2.75,
              "duration": 0.010416666666666666
            },
            {
              "pitch": 41,
              "velocity": 73,
              "position": 3,
              "duration": 0.010416666666666666
            },
            {
              "pitch": 44,
              "velocity": 92,
              "position": 3,
              "duration": 0.010416666666666666
            },
            {
              "pitch": 44,
              "velocity": 89,
              "position": 3.5,
              "duration": 0.010416666666666666
            },
            {
              "pitch": 53,
              "velocity": 57,
              "position": 3.5,
              "duration": 0.010416666666666666
            },
            {
              "pitch": 40,
              "velocity": 100,
              "position": 3.75,
              "duration": 0.010416666666666666
            },
            {
              "pitch": 44,
              "velocity": 92,
              "position": 4,
              "duration": 0.010416666666666666
            },
            {
              "pitch": 35,
              "velocity": 110,
              "position": 4.25,
              "duration": 0.010416666666666666
            },
            {
              "pitch": 40,
              "velocity": 120,
              "position": 4.25,
              "duration": 0.010416666666666666
            },
            {
              "pitch": 44,
              "velocity": 89,
              "position": 4.5,
              "duration": 0.010416666666666666
            },
            {
              "pitch": 53,
              "velocity": 57,
              "position": 4.5,
              "duration": 0.010416666666666666
            },
            {
              "pitch": 35,
              "velocity": 102,
              "position": 4.75,
              "duration": 0.010416666666666666
            },
            {
              "pitch": 43,
              "velocity": 73,
              "position": 5,
              "duration": 0.010416666666666666
            },
            {
              "pitch": 44,
              "velocity": 92,
              "position": 5,
              "duration": 0.010416666666666666
            },
            {
              "pitch": 44,
              "velocity": 89,
              "position": 5.5,
              "duration": 0.010416666666666666
            },
            {
              "pitch": 53,
              "velocity": 57,
              "position": 5.5,
              "duration": 0.010416666666666666
            },
            {
              "pitch": 40,
              "velocity": 100,
              "position": 5.75,
              "duration": 0.010416666666666666
            },
            {
              "pitch": 40,
              "velocity": 118,
              "position": 6,
              "duration": 0.010416666666666666
            },
            {
              "pitch": 44,
              "velocity": 92,
              "position": 6,
              "duration": 0.010416666666666666
            },
            {
              "pitch": 35,
              "velocity": 105,
              "position": 6.25,
              "duration": 0.010416666666666666
            },
            {
              "pitch": 46,
              "velocity": 94,
              "position": 6.25,
              "duration": 0.010416666666666666
            },
            {
              "pitch": 44,
              "velocity": 89,
              "position": 6.5,
              "duration": 0.010416666666666666
            },
            {
              "pitch": 35,
              "velocity": 107,
              "position": 6.75,
              "duration": 0.010416666666666666
            },
            {
              "pitch": 46,
              "velocity": 94,
              "position": 6.75,
              "duration": 0.010416666666666666
            },
            {
              "pitch": 44,
              "velocity": 92,
              "position": 7,
              "duration": 0.010416666666666666
            },
            {
              "pitch": 35,
              "velocity": 110,
              "position": 7.25,
              "duration": 0.010416666666666666
            },
            {
              "pitch": 46,
              "velocity": 94,
              "position": 7.25,
              "duration": 0.010416666666666666
            },
            {
              "pitch": 44,
              "velocity": 89,
              "position": 7.5,
              "duration": 0.010416666666666666
            },
            {
              "pitch": 35,
              "velocity": 105,
              "position": 7.75,
              "duration": 0.010416666666666666
            },
            {
              "pitch": 57,
              "velocity": 76,
              "position": 7.75,
              "duration": 0.010416666666666666
            },
            {
              "pitch": 35,
              "velocity": 107,
              "position": 8,
              "duration": 0.010416666666666666
            },
            {
              "pitch": 44,
              "velocity": 92,
              "position": 8,
              "duration": 0.010416666666666666
            },
            {
              "pitch": 40,
              "velocity": 114,
              "position": 8.25,
              "duration": 0.010416666666666666
            },
            {
              "pitch": 44,
              "velocity": 89,
              "position": 8.5,
              "duration": 0.010416666666666666
            },
            {
              "pitch": 53,
              "velocity": 57,
              "position": 8.5,
              "duration": 0.010416666666666666
            },
            {
              "pitch": 35,
              "velocity": 102,
              "position": 8.75,
              "duration": 0.010416666666666666
            },
            {
              "pitch": 40,
              "velocity": 112,
              "position": 9,
              "duration": 0.010416666666666666
            },
            {
              "pitch": 44,
              "velocity": 92,
              "position": 9,
              "duration": 0.010416666666666666
            },
            {
              "pitch": 44,
              "velocity": 89,
              "position": 9.5,
              "duration": 0.010416666666666666
            },
            {
              "pitch": 53,
              "velocity": 57,
              "position": 9.5,
              "duration": 0.010416666666666666
            },
            {
              "pitch": 44,
              "velocity": 92,
              "position": 10,
              "duration": 0.010416666666666666
            },
            {
              "pitch": 35,
              "velocity": 110,
              "position": 10.25,
              "duration": 0.010416666666666666
            },
            {
              "pitch": 40,
              "velocity": 120,
              "position": 10.25,
              "duration": 0.010416666666666666
            },
            {
              "pitch": 44,
              "velocity": 89,
              "position": 10.5,
              "duration": 0.010416666666666666
            },
            {
              "pitch": 53,
              "velocity": 57,
              "position": 10.5,
              "duration": 0.010416666666666666
            },
            {
              "pitch": 35,
              "velocity": 92,
              "position": 10.75,
              "duration": 0.010416666666666666
            },
            {
              "pitch": 41,
              "velocity": 73,
              "position": 11,
              "duration": 0.010416666666666666
            },
            {
              "pitch": 44,
              "velocity": 92,
              "position": 11,
              "duration": 0.010416666666666666
            },
            {
              "pitch": 44,
              "velocity": 89,
              "position": 11.5,
              "duration": 0.010416666666666666
            },
            {
              "pitch": 53,
              "velocity": 57,
              "position": 11.5,
              "duration": 0.010416666666666666
            },
            {
              "pitch": 40,
              "velocity": 100,
              "position": 11.75,
              "duration": 0.010416666666666666
            },
            {
              "pitch": 44,
              "velocity": 92,
              "position": 12,
              "duration": 0.010416666666666666
            },
            {
              "pitch": 35,
              "velocity": 110,
              "position": 12.25,
              "duration": 0.010416666666666666
            },
            {
              "pitch": 40,
              "velocity": 120,
              "position": 12.25,
              "duration": 0.010416666666666666
            },
            {
              "pitch": 44,
              "velocity": 89,
              "position": 12.5,
              "duration": 0.010416666666666666
            },
            {
              "pitch": 53,
              "velocity": 57,
              "position": 12.5,
              "duration": 0.010416666666666666
            },
            {
              "pitch": 35,
              "velocity": 102,
              "position": 12.75,
              "duration": 0.010416666666666666
            },
            {
              "pitch": 43,
              "velocity": 73,
              "position": 13,
              "duration": 0.010416666666666666
            },
            {
              "pitch": 44,
              "velocity": 92,
              "position": 13,
              "duration": 0.010416666666666666
            },
            {
              "pitch": 44,
              "velocity": 89,
              "position": 13.5,
              "duration": 0.010416666666666666
            },
            {
              "pitch": 53,
              "velocity": 57,
              "position": 13.5,
              "duration": 0.010416666666666666
            },
            {
              "pitch": 40,
              "velocity": 100,
              "position": 13.75,
              "duration": 0.010416666666666666
            },
            {
              "pitch": 46,
              "velocity": 83,
              "position": 14,
              "duration": 0.010416666666666666
            },
            {
              "pitch": 35,
              "velocity": 110,
              "position": 14.25,
              "duration": 0.010416666666666666
            },
            {
              "pitch": 40,
              "velocity": 103,
              "position": 14.25,
              "duration": 0.010416666666666666
            },
            {
              "pitch": 43,
              "velocity": 76,
              "position": 14.5,
              "duration": 0.010416666666666666
            },
            {
              "pitch": 35,
              "velocity": 110,
              "position": 14.75,
              "duration": 0.010416666666666666
            },
            {
              "pitch": 40,
              "velocity": 100,
              "position": 14.75,
              "duration": 0.010416666666666666
            },
            {
              "pitch": 49,
              "velocity": 61,
              "position": 14.75,
              "duration": 0.010416666666666666
            },
            {
              "pitch": 40,
              "velocity": 108,
              "position": 15,
              "duration": 0.010416666666666666
            },
            {
              "pitch": 46,
              "velocity": 83,
              "position": 15,
              "duration": 0.010416666666666666
            },
            {
              "pitch": 48,
              "velocity": 81,
              "position": 15.25,
              "duration": 0.010416666666666666
            },
            {
              "pitch": 44,
              "velocity": 85,
              "position": 15.5,
              "duration": 0.010416666666666666
            },
            {
              "pitch": 48,
              "velocity": 81,
              "position": 15.5,
              "duration": 0.010416666666666666
            },
            {
              "pitch": 47,
              "velocity": 81,
              "position": 15.75,
              "duration": 0.010416666666666666
            }
          ]
        },
        "10": {
          "ctab": {
            "srcChannel": 10,
            "name": "Bass",
            "accType": "BASS",
            "editable": false,
            "mutedNotes": [],
            "mutedChords": [
              "dim7",
              "dim",
              "minMaj7(9)",
              "minMaj7",
              "min7(11)",
              "min7(9)",
              "min(9)",
              "m7b5",
              "min7",
              "min6",
              "min"
            ],
            "autoStart": false,
            "sourceChordNote": 0,
            "sourceChordType": "Maj",
            "ctb2Low": null,
            "ctb2Main": {
              "ntr": "ROOT_TRANSPOSITION",
              "ntt": "BYPASS",
              "bassOn": false,
              "chordRootUpperLimit": 3,
              "noteLowLimit": 28,
              "noteHighLimit": 127,
              "rtr": "PITCH_SHIFT"
            },
            "ctb2High": null
          },
          "notes": [
            {
              "pitch": 36,
              "velocity": 72,
              "position": 0.25,
              "duration": 0.23958333333333334
            },
            {
              "pitch": 40,
              "velocity": 60,
              "position": 0.5,
              "duration": 0.13541666666666666
            },
            {
              "pitch": 43,
              "velocity": 60,
              "position": 0.75,
              "duration": 0.13541666666666666
            },
            {
              "pitch": 48,
              "velocity": 72,
              "position": 1,
              "duration": 0.23958333333333334
            },
            {
              "pitch": 43,
              "velocity": 60,
              "position": 1.25,
              "duration": 0.23958333333333334
            },
            {
              "pitch": 48,
              "velocity": 60,
              "position": 1.5,
              "duration": 0.23958333333333334
            },
            {
              "pitch": 46,
              "velocity": 72,
              "position": 1.75,
              "duration": 0.375
            },
            {
              "pitch": 46,
              "velocity": 66,
              "position": 2.75,
              "duration": 0.23958333333333334
            },
            {
              "pitch": 48,
              "velocity": 60,
              "position": 3.25,
              "duration": 0.23958333333333334
            },
            {
              "pitch": 46,
              "velocity": 60,
              "position": 3.5,
              "duration": 0.23958333333333334
            },
            {
              "pitch": 44,
              "velocity": 72,
              "position": 3.75,
              "duration": 0.375
            },
            {
              "pitch": 44,
              "velocity": 66,
              "position": 4.75,
              "duration": 0.23958333333333334
            },
            {
              "pitch": 46,
              "velocity": 60,
              "position": 5.25,
              "duration": 0.23958333333333334
            },
            {
              "pitch": 44,
              "velocity": 60,
              "position": 5.5,
              "duration": 0.23958333333333334
            },
            {
              "pitch": 43,
              "velocity": 72,
              "position": 5.75,
              "duration": 0.4895833333333333
            },
            {
              "pitch": 43,
              "velocity": 72,
              "position": 6.25,
              "duration": 0.23958333333333334
            },
            {
              "pitch": 31,
              "velocity": 72,
              "position": 6.75,
              "duration": 0.23958333333333334
            },
            {
              "pitch": 31,
              "velocity": 72,
              "position": 7.25,
              "duration": 0.23958333333333334
            },
            {
              "pitch": 36,
              "velocity": 72,
              "position": 7.75,
              "duration": 0.23958333333333334
            },
            {
              "pitch": 36,
              "velocity": 72,
              "position": 8.25,
              "duration": 0.23958333333333334
            },
            {
              "pitch": 40,
              "velocity": 60,
              "position": 8.5,
              "duration": 0.13541666666666666
            },
            {
              "pitch": 43,
              "velocity": 60,
              "position": 8.75,
              "duration": 0.13541666666666666
            },
            {
              "pitch": 48,
              "velocity": 72,
              "position": 9,
              "duration": 0.23958333333333334
            },
            {
              "pitch": 43,
              "velocity": 60,
              "position": 9.25,
              "duration": 0.23958333333333334
            },
            {
              "pitch": 48,
              "velocity": 60,
              "position": 9.5,
              "duration": 0.23958333333333334
            },
            {
              "pitch": 46,
              "velocity": 72,
              "position": 9.75,
              "duration": 0.375
            },
            {
              "pitch": 46,
              "velocity": 72,
              "position": 10.75,
              "duration": 0.23958333333333334
            },
            {
              "pitch": 48,
              "velocity": 60,
              "position": 11.25,
              "duration": 0.23958333333333334
            },
            {
              "pitch": 46,
              "velocity": 60,
              "position": 11.5,
              "duration": 0.23958333333333334
            },
            {
              "pitch": 44,
              "velocity": 72,
              "position": 11.75,
              "duration": 0.375
            },
            {
              "pitch": 44,
              "velocity": 72,
              "position": 12.75,
              "duration": 0.23958333333333334
            },
            {
              "pitch": 46,
              "velocity": 60,
              "position": 13.25,
              "duration": 0.23958333333333334
            },
            {
              "pitch": 44,
              "velocity": 60,
              "position": 13.5,
              "duration": 0.23958333333333334
            },
            {
              "pitch": 43,
              "velocity": 72,
              "position": 13.75,
              "duration": 0.23958333333333334
            },
            {
              "pitch": 43,
              "velocity": 72,
              "position": 14.25,
              "duration": 0.23958333333333334
            },
            {
              "pitch": 31,
              "velocity": 72,
              "position": 14.75,
              "duration": 1.2395833333333333
            }
          ]
        },
        "11": {
          "ctab": {
            "srcChannel": 11,
            "name": "Gtr",
            "accType": "CHORD1",
            "editable": false,
            "mutedNotes": [],
            "mutedChords": [
              "dim7",
              "dim",
              "minMaj7(9)",
              "minMaj7",
              "min7(11)",
              "min7(9)",
              "min(9)",
              "m7b5",
              "min7",
              "min6",
              "min"
            ],
            "autoStart": false,
            "sourceChordNote": 0,
            "sourceChordType": "Maj",
            "ctb2Low": null,
            "ctb2Main": {
              "ntr": "ROOT_TRANSPOSITION",
              "ntt": "BYPASS",
              "bassOn": false,
              "chordRootUpperLimit": 3,
              "noteLowLimit": 40,
              "noteHighLimit": 127,
              "rtr": "PITCH_SHIFT"
            },
            "ctb2High": null
          },
          "notes": [
            {
              "pitch": 48,
              "velocity": 40,
              "position": 0.25,
              "duration": 0.23958333333333334
            },
            {
              "pitch": 52,
              "velocity": 100,
              "position": 0.5,
              "duration": 0.13541666666666666
            },
            {
              "pitch": 55,
              "velocity": 88,
              "position": 0.75,
              "duration": 0.13541666666666666
            },
            {
              "pitch": 60,
              "velocity": 40,
              "position": 1,
              "duration": 0.23958333333333334
            },
            {
              "pitch": 55,
              "velocity": 100,
              "position": 1.25,
              "duration": 0.23958333333333334
            },
            {
              "pitch": 60,
              "velocity": 38,
              "position": 1.5,
              "duration": 0.23958333333333334
            },
            {
              "pitch": 58,
              "velocity": 36,
              "position": 1.75,
              "duration": 0.375
            },
            {
              "pitch": 58,
              "velocity": 36,
              "position": 2.75,
              "duration": 0.23958333333333334
            },
            {
              "pitch": 60,
              "velocity": 38,
              "position": 3.25,
              "duration": 0.23958333333333334
            },
            {
              "pitch": 58,
              "velocity": 100,
              "position": 3.5,
              "duration": 0.23958333333333334
            },
            {
              "pitch": 56,
              "velocity": 36,
              "position": 3.75,
              "duration": 0.375
            },
            {
              "pitch": 56,
              "velocity": 66,
              "position": 4.5,
              "duration": 0.13541666666666666
            },
            {
              "pitch": 56,
              "velocity": 36,
              "position": 4.75,
              "duration": 0.23958333333333334
            },
            {
              "pitch": 58,
              "velocity": 60,
              "position": 5.25,
              "duration": 0.23958333333333334
            },
            {
              "pitch": 56,
              "velocity": 100,
              "position": 5.5,
              "duration": 0.23958333333333334
            },
            {
              "pitch": 55,
              "velocity": 36,
              "position": 5.75,
              "duration": 0.4895833333333333
            },
            {
              "pitch": 69,
              "velocity": 38,
              "position": 6.25,
              "duration": 0.23958333333333334
            },
            {
              "pitch": 72,
              "velocity": 38,
              "position": 6.25,
              "duration": 0.23958333333333334
            },
            {
              "pitch": 77,
              "velocity": 38,
              "position": 6.25,
              "duration": 0.23958333333333334
            },
            {
              "pitch": 65,
              "velocity": 34,
              "position": 6.75,
              "duration": 0.23958333333333334
            },
            {
              "pitch": 71,
              "velocity": 34,
              "position": 6.75,
              "duration": 0.23958333333333334
            },
            {
              "pitch": 76,
              "velocity": 34,
              "position": 6.75,
              "duration": 0.23958333333333334
            },
            {
              "pitch": 65,
              "velocity": 40,
              "position": 7.25,
              "duration": 0.23958333333333334
            },
            {
              "pitch": 71,
              "velocity": 40,
              "position": 7.25,
              "duration": 0.23958333333333334
            },
            {
              "pitch": 76,
              "velocity": 38,
              "position": 7.25,
              "duration": 0.23958333333333334
            },
            {
              "pitch": 64,
              "velocity": 40,
              "position": 7.75,
              "duration": 0.23958333333333334
            },
            {
              "pitch": 67,
              "velocity": 40,
              "position": 7.75,
              "duration": 0.23958333333333334
            },
            {
              "pitch": 72,
              "velocity": 40,
              "position": 7.75,
              "duration": 0.23958333333333334
            },
            {
              "pitch": 48,
              "velocity": 40,
              "position": 8.25,
              "duration": 0.23958333333333334
            },
            {
              "pitch": 52,
              "velocity": 100,
              "position": 8.5,
              "duration": 0.13541666666666666
            },
            {
              "pitch": 55,
              "velocity": 88,
              "position": 8.75,
              "duration": 0.13541666666666666
            },
            {
              "pitch": 60,
              "velocity": 40,
              "position": 9,
              "duration": 0.23958333333333334
            },
            {
              "pitch": 55,
              "velocity": 100,
              "position": 9.25,
              "duration": 0.23958333333333334
            },
            {
              "pitch": 60,
              "velocity": 38,
              "position": 9.5,
              "duration": 0.23958333333333334
            },
            {
              "pitch": 58,
              "velocity": 36,
              "position": 9.75,
              "duration": 0.375
            },
            {
              "pitch": 58,
              "velocity": 72,
              "position": 10.5,
              "duration": 0.13541666666666666
            },
            {
              "pitch": 58,
              "velocity": 36,
              "position": 10.75,
              "duration": 0.23958333333333334
            },
            {
              "pitch": 60,
              "velocity": 38,
              "position": 11.25,
              "duration": 0.23958333333333334
            },
            {
              "pitch": 58,
              "velocity": 100,
              "position": 11.5,
              "duration": 0.23958333333333334
            },
            {
              "pitch": 56,
              "velocity": 36,
              "position": 11.75,
              "duration": 0.375
            },
            {
              "pitch": 56,
              "velocity": 74,
              "position": 12.5,
              "duration": 0.13541666666666666
            },
            {
              "pitch": 56,
              "velocity": 36,
              "position": 12.75,
              "duration": 0.23958333333333334
            },
            {
              "pitch": 58,
              "velocity": 60,
              "position": 13.25,
              "duration": 0.23958333333333334
            },
            {
              "pitch": 56,
              "velocity": 100,
              "position": 13.5,
              "duration": 0.23958333333333334
            },
            {
              "pitch": 55,
              "velocity": 34,
              "position": 13.75,
              "duration": 0.23958333333333334
            },
            {
              "pitch": 55,
              "velocity": 38,
              "position": 14.25,
              "duration": 0.23958333333333334
            },
            {
              "pitch": 55,
              "velocity": 40,
              "position": 14.75,
              "duration": 1.2395833333333333
            }
          ]
        },
        "12": {
          "ctab": {
            "srcChannel": 12,
            "name": "Pno",
            "accType": "CHORD2",
            "editable": false,
            "mutedNotes": [],
            "mutedChords": [
              "dim7",
              "dim",
              "minMaj7(9)",
              "minMaj7",
              "min7(11)",
              "min7(9)",
              "min(9)",
              "m7b5",
              "min7",
              "min6",
              "min"
            ],
            "autoStart": false,
            "sourceChordNote": 0,
            "sourceChordType": "Maj",
            "ctb2Low": null,
            "ctb2Main": {
              "ntr": "ROOT_TRANSPOSITION",
              "ntt": "BYPASS",
              "bassOn": false,
              "chordRootUpperLimit": 3,
              "noteLowLimit": 0,
              "noteHighLimit": 79,
              "rtr": "PITCH_SHIFT"
            },
            "ctb2High": null
          },
          "notes": [
            {
              "pitch": 48,
              "velocity": 108,
              "position": 0.25,
              "duration": 0.23958333333333334
            },
            {
              "pitch": 72,
              "velocity": 108,
              "position": 0.25,
              "duration": 0.23958333333333334
            },
            {
              "pitch": 52,
              "velocity": 96,
              "position": 0.5,
              "duration": 0.125
            },
            {
              "pitch": 76,
              "velocity": 96,
              "position": 0.5,
              "duration": 0.125
            },
            {
              "pitch": 55,
              "velocity": 96,
              "position": 0.75,
              "duration": 0.14583333333333334
            },
            {
              "pitch": 79,
              "velocity": 96,
              "position": 0.75,
              "duration": 0.14583333333333334
            },
            {
              "pitch": 60,
              "velocity": 108,
              "position": 1,
              "duration": 0.23958333333333334
            },
            {
              "pitch": 84,
              "velocity": 108,
              "position": 1,
              "duration": 0.23958333333333334
            },
            {
              "pitch": 55,
              "velocity": 96,
              "position": 1.25,
              "duration": 0.23958333333333334
            },
            {
              "pitch": 79,
              "velocity": 96,
              "position": 1.25,
              "duration": 0.23958333333333334
            },
            {
              "pitch": 60,
              "velocity": 96,
              "position": 1.5,
              "duration": 0.23958333333333334
            },
            {
              "pitch": 84,
              "velocity": 96,
              "position": 1.5,
              "duration": 0.23958333333333334
            },
            {
              "pitch": 58,
              "velocity": 108,
              "position": 1.75,
              "duration": 0.1875
            },
            {
              "pitch": 82,
              "velocity": 108,
              "position": 1.75,
              "duration": 0.1875
            },
            {
              "pitch": 68,
              "velocity": 96,
              "position": 2.25,
              "duration": 0.20833333333333334
            },
            {
              "pitch": 74,
              "velocity": 96,
              "position": 2.25,
              "duration": 0.20833333333333334
            },
            {
              "pitch": 58,
              "velocity": 108,
              "position": 2.75,
              "duration": 0.21875
            },
            {
              "pitch": 82,
              "velocity": 108,
              "position": 2.75,
              "duration": 0.21875
            },
            {
              "pitch": 60,
              "velocity": 96,
              "position": 3.25,
              "duration": 0.23958333333333334
            },
            {
              "pitch": 84,
              "velocity": 96,
              "position": 3.25,
              "duration": 0.23958333333333334
            },
            {
              "pitch": 58,
              "velocity": 96,
              "position": 3.5,
              "duration": 0.23958333333333334
            },
            {
              "pitch": 82,
              "velocity": 96,
              "position": 3.5,
              "duration": 0.23958333333333334
            },
            {
              "pitch": 56,
              "velocity": 108,
              "position": 3.75,
              "duration": 0.1875
            },
            {
              "pitch": 80,
              "velocity": 108,
              "position": 3.75,
              "duration": 0.1875
            },
            {
              "pitch": 68,
              "velocity": 96,
              "position": 4.25,
              "duration": 0.20833333333333334
            },
            {
              "pitch": 72,
              "velocity": 96,
              "position": 4.25,
              "duration": 0.20833333333333334
            },
            {
              "pitch": 56,
              "velocity": 108,
              "position": 4.75,
              "duration": 0.23958333333333334
            },
            {
              "pitch": 80,
              "velocity": 108,
              "position": 4.75,
              "duration": 0.23958333333333334
            },
            {
              "pitch": 58,
              "velocity": 96,
              "position": 5.25,
              "duration": 0.23958333333333334
            },
            {
              "pitch": 82,
              "velocity": 96,
              "position": 5.25,
              "duration": 0.23958333333333334
            },
            {
              "pitch": 56,
              "velocity": 96,
              "position": 5.5,
              "duration": 0.23958333333333334
            },
            {
              "pitch": 80,
              "velocity": 96,
              "position": 5.5,
              "duration": 0.23958333333333334
            },
            {
              "pitch": 55,
              "velocity": 108,
              "position": 5.75,
              "duration": 0.4895833333333333
            },
            {
              "pitch": 79,
              "velocity": 108,
              "position": 5.75,
              "duration": 0.4895833333333333
            },
            {
              "pitch": 65,
              "velocity": 96,
              "position": 6.25,
              "duration": 0.21875
            },
            {
              "pitch": 69,
              "velocity": 96,
              "position": 6.25,
              "duration": 0.21875
            },
            {
              "pitch": 65,
              "velocity": 96,
              "position": 6.75,
              "duration": 0.1875
            },
            {
              "pitch": 67,
              "velocity": 96,
              "position": 6.75,
              "duration": 0.1875
            },
            {
              "pitch": 65,
              "velocity": 96,
              "position": 7.25,
              "duration": 0.21875
            },
            {
              "pitch": 71,
              "velocity": 96,
              "position": 7.25,
              "duration": 0.21875
            },
            {
              "pitch": 64,
              "velocity": 96,
              "position": 7.75,
              "duration": 0.19791666666666666
            },
            {
              "pitch": 72,
              "velocity": 96,
              "position": 7.75,
              "duration": 0.19791666666666666
            },
            {
              "pitch": 48,
              "velocity": 108,
              "position": 8.25,
              "duration": 0.23958333333333334
            },
            {
              "pitch": 72,
              "velocity": 108,
              "position": 8.25,
              "duration": 0.23958333333333334
            },
            {
              "pitch": 52,
              "velocity": 96,
              "position": 8.5,
              "duration": 0.125
            },
            {
              "pitch": 76,
              "velocity": 96,
              "position": 8.5,
              "duration": 0.125
            },
            {
              "pitch": 55,
              "velocity": 96,
              "position": 8.75,
              "duration": 0.14583333333333334
            },
            {
              "pitch": 79,
              "velocity": 96,
              "position": 8.75,
              "duration": 0.14583333333333334
            },
            {
              "pitch": 60,
              "velocity": 108,
              "position": 9,
              "duration": 0.23958333333333334
            },
            {
              "pitch": 84,
              "velocity": 108,
              "position": 9,
              "duration": 0.23958333333333334
            },
            {
              "pitch": 55,
              "velocity": 96,
              "position": 9.25,
              "duration": 0.23958333333333334
            },
            {
              "pitch": 79,
              "velocity": 96,
              "position": 9.25,
              "duration": 0.23958333333333334
            },
            {
              "pitch": 60,
              "velocity": 96,
              "position": 9.5,
              "duration": 0.23958333333333334
            },
            {
              "pitch": 84,
              "velocity": 96,
              "position": 9.5,
              "duration": 0.23958333333333334
            },
            {
              "pitch": 58,
              "velocity": 108,
              "position": 9.75,
              "duration": 0.1875
            },
            {
              "pitch": 82,
              "velocity": 108,
              "position": 9.75,
              "duration": 0.1875
            },
            {
              "pitch": 68,
              "velocity": 96,
              "position": 10.25,
              "duration": 0.20833333333333334
            },
            {
              "pitch": 74,
              "velocity": 96,
              "position": 10.25,
              "duration": 0.20833333333333334
            },
            {
              "pitch": 58,
              "velocity": 108,
              "position": 10.75,
              "duration": 0.21875
            },
            {
              "pitch": 82,
              "velocity": 108,
              "position": 10.75,
              "duration": 0.21875
            },
            {
              "pitch": 60,
              "velocity": 96,
              "position": 11.25,
              "duration": 0.23958333333333334
            },
            {
              "pitch": 84,
              "velocity": 96,
              "position": 11.25,
              "duration": 0.23958333333333334
            },
            {
              "pitch": 58,
              "velocity": 96,
              "position": 11.5,
              "duration": 0.23958333333333334
            },
            {
              "pitch": 82,
              "velocity": 96,
              "position": 11.5,
              "duration": 0.23958333333333334
            },
            {
              "pitch": 56,
              "velocity": 108,
              "position": 11.75,
              "duration": 0.1875
            },
            {
              "pitch": 80,
              "velocity": 108,
              "position": 11.75,
              "duration": 0.1875
            },
            {
              "pitch": 66,
              "velocity": 96,
              "position": 12.25,
              "duration": 0.20833333333333334
            },
            {
              "pitch": 72,
              "velocity": 96,
              "position": 12.25,
              "duration": 0.20833333333333334
            },
            {
              "pitch": 56,
              "velocity": 108,
              "position": 12.75,
              "duration": 0.23958333333333334
            },
            {
              "pitch": 80,
              "velocity": 108,
              "position": 12.75,
              "duration": 0.23958333333333334
            },
            {
              "pitch": 58,
              "velocity": 96,
              "position": 13.25,
              "duration": 0.23958333333333334
            },
            {
              "pitch": 82,
              "velocity": 96,
              "position": 13.25,
              "duration": 0.23958333333333334
            },
            {
              "pitch": 56,
              "velocity": 96,
              "position": 13.5,
              "duration": 0.23958333333333334
            },
            {
              "pitch": 80,
              "velocity": 96,
              "position": 13.5,
              "duration": 0.23958333333333334
            },
            {
              "pitch": 55,
              "velocity": 108,
              "position": 13.75,
              "duration": 0.21875
            },
            {
              "pitch": 79,
              "velocity": 108,
              "position": 13.75,
              "duration": 0.21875
            },
            {
              "pitch": 55,
              "velocity": 108,
              "position": 14.25,
              "duration": 0.19791666666666666
            },
            {
              "pitch": 67,
              "velocity": 108,
              "position": 14.25,
              "duration": 0.19791666666666666
            },
            {
              "pitch": 43,
              "velocity": 108,
              "position": 14.75,
              "duration": 1.2395833333333333
            },
            {
              "pitch": 55,
              "velocity": 108,
              "position": 14.75,
              "duration": 1.2395833333333333
            }
          ]
        },
        "14": {
          "ctab": {
            "srcChannel": 14,
            "name": "Brass",
            "accType": "PHRASE1",
            "editable": false,
            "mutedNotes": [],
            "mutedChords": [
              "dim7",
              "dim",
              "minMaj7(9)",
              "minMaj7",
              "min7(11)",
              "min7(9)",
              "min(9)",
              "m7b5",
              "min7",
              "min6",
              "min"
            ],
            "autoStart": false,
            "sourceChordNote": 0,
            "sourceChordType": "Maj",
            "ctb2Low": null,
            "ctb2Main": {
              "ntr": "ROOT_TRANSPOSITION",
              "ntt": "BYPASS",
              "bassOn": false,
              "chordRootUpperLimit": 2,
              "noteLowLimit": 0,
              "noteHighLimit": 127,
              "rtr": "PITCH_SHIFT"
            },
            "ctb2High": null
          },
          "notes": [
            {
              "pitch": 69,
              "velocity": 82,
              "position": 0,
              "duration": 0.23958333333333334
            },
            {
              "pitch": 72,
              "velocity": 82,
              "position": 0,
              "duration": 0.23958333333333334
            },
            {
              "pitch": 76,
              "velocity": 82,
              "position": 0,
              "duration": 0.23958333333333334
            },
            {
              "pitch": 79,
              "velocity": 101,
              "position": 0,
              "duration": 0.23958333333333334
            },
            {
              "pitch": 68,
              "velocity": 82,
              "position": 2.25,
              "duration": 0.23958333333333334
            },
            {
              "pitch": 72,
              "velocity": 82,
              "position": 2.25,
              "duration": 0.23958333333333334
            },
            {
              "pitch": 74,
              "velocity": 82,
              "position": 2.25,
              "duration": 0.23958333333333334
            },
            {
              "pitch": 79,
              "velocity": 101,
              "position": 2.25,
              "duration": 0.23958333333333334
            },
            {
              "pitch": 70,
              "velocity": 82,
              "position": 4.25,
              "duration": 0.23958333333333334
            },
            {
              "pitch": 72,
              "velocity": 82,
              "position": 4.25,
              "duration": 0.23958333333333334
            },
            {
              "pitch": 75,
              "velocity": 82,
              "position": 4.25,
              "duration": 0.23958333333333334
            },
            {
              "pitch": 79,
              "velocity": 101,
              "position": 4.25,
              "duration": 0.23958333333333334
            },
            {
              "pitch": 69,
              "velocity": 82,
              "position": 6.25,
              "duration": 0.23958333333333334
            },
            {
              "pitch": 72,
              "velocity": 82,
              "position": 6.25,
              "duration": 0.23958333333333334
            },
            {
              "pitch": 77,
              "velocity": 82,
              "position": 6.25,
              "duration": 0.23958333333333334
            },
            {
              "pitch": 79,
              "velocity": 101,
              "position": 6.25,
              "duration": 0.23958333333333334
            },
            {
              "pitch": 69,
              "velocity": 82,
              "position": 6.75,
              "duration": 0.23958333333333334
            },
            {
              "pitch": 71,
              "velocity": 82,
              "position": 6.75,
              "duration": 0.23958333333333334
            },
            {
              "pitch": 76,
              "velocity": 82,
              "position": 6.75,
              "duration": 0.23958333333333334
            },
            {
              "pitch": 79,
              "velocity": 101,
              "position": 6.75,
              "duration": 0.23958333333333334
            },
            {
              "pitch": 71,
              "velocity": 82,
              "position": 7.25,
              "duration": 0.23958333333333334
            },
            {
              "pitch": 76,
              "velocity": 82,
              "position": 7.25,
              "duration": 0.23958333333333334
            },
            {
              "pitch": 79,
              "velocity": 82,
              "position": 7.25,
              "duration": 0.23958333333333334
            },
            {
              "pitch": 83,
              "velocity": 101,
              "position": 7.25,
              "duration": 0.23958333333333334
            },
            {
              "pitch": 72,
              "velocity": 82,
              "position": 7.75,
              "duration": 0.23958333333333334
            },
            {
              "pitch": 76,
              "velocity": 82,
              "position": 7.75,
              "duration": 0.23958333333333334
            },
            {
              "pitch": 79,
              "velocity": 82,
              "position": 7.75,
              "duration": 0.23958333333333334
            },
            {
              "pitch": 81,
              "velocity": 82,
              "position": 7.75,
              "duration": 0.23958333333333334
            },
            {
              "pitch": 84,
              "velocity": 101,
              "position": 7.75,
              "duration": 0.23958333333333334
            },
            {
              "pitch": 68,
              "velocity": 82,
              "position": 10.25,
              "duration": 0.23958333333333334
            },
            {
              "pitch": 72,
              "velocity": 82,
              "position": 10.25,
              "duration": 0.23958333333333334
            },
            {
              "pitch": 74,
              "velocity": 82,
              "position": 10.25,
              "duration": 0.23958333333333334
            },
            {
              "pitch": 79,
              "velocity": 82,
              "position": 10.25,
              "duration": 0.23958333333333334
            },
            {
              "pitch": 82,
              "velocity": 101,
              "position": 10.25,
              "duration": 0.23958333333333334
            },
            {
              "pitch": 66,
              "velocity": 82,
              "position": 12.25,
              "duration": 0.23958333333333334
            },
            {
              "pitch": 70,
              "velocity": 82,
              "position": 12.25,
              "duration": 0.23958333333333334
            },
            {
              "pitch": 72,
              "velocity": 82,
              "position": 12.25,
              "duration": 0.23958333333333334
            },
            {
              "pitch": 77,
              "velocity": 82,
              "position": 12.25,
              "duration": 0.23958333333333334
            },
            {
              "pitch": 80,
              "velocity": 101,
              "position": 12.25,
              "duration": 0.23958333333333334
            },
            {
              "pitch": 67,
              "velocity": 101,
              "position": 14.25,
              "duration": 0.23958333333333334
            },
            {
              "pitch": 79,
              "velocity": 101,
              "position": 14.25,
              "duration": 0.23958333333333334
            },
            {
              "pitch": 55,
              "velocity": 101,
              "position": 14.75,
              "duration": 1.2395833333333333
            },
            {
              "pitch": 67,
              "velocity": 101,
              "position": 14.75,
              "duration": 1.2395833333333333
            }
          ]
        }
      }
    },
    "Ending_C": {
      "type": "Ending_C",
      "sizeInBeats": 8,
      "channels": {
        "0": {
          "ctab": {
            "srcChannel": 0,
            "name": "Gtr FX",
            "accType": "CHORD1",
            "editable": true,
            "mutedNotes": [],
            "mutedChords": [],
            "autoStart": false,
            "sourceChordNote": 0,
            "sourceChordType": "Maj7",
            "ctb2Low": null,
            "ctb2Main": {
              "ntr": "ROOT_FIXED",
              "ntt": "BYPASS",
              "bassOn": false,
              "chordRootUpperLimit": 6,
              "noteLowLimit": 0,
              "noteHighLimit": 79,
              "rtr": "PITCH_SHIFT"
            },
            "ctb2High": null
          },
          "notes": [
            {
              "pitch": 126,
              "velocity": 95,
              "position": 1.2291666666666667,
              "duration": 0.3125
            },
            {
              "pitch": 106,
              "velocity": 99,
              "position": 3,
              "duration": 0.10416666666666667
            },
            {
              "pitch": 107,
              "velocity": 127,
              "position": 3.25,
              "duration": 0.10416666666666667
            },
            {
              "pitch": 105,
              "velocity": 103,
              "position": 3.75,
              "duration": 0.10416666666666667
            },
            {
              "pitch": 108,
              "velocity": 127,
              "position": 4,
              "duration": 0.10416666666666667
            }
          ]
        },
        "1": {
          "ctab": {
            "srcChannel": 1,
            "name": "Bass",
            "accType": "BASS",
            "editable": false,
            "mutedNotes": [],
            "mutedChords": [
              "1+2+5",
              "sus4",
              "1+5",
              "1+8",
              "7aug",
              "Maj7aug",
              "7(#9)",
              "7(b13)",
              "7(b9)",
              "7(13)",
              "7#11",
              "7(9)",
              "7b5",
              "7sus4",
              "7th",
              "aug",
              "Maj6(9)",
              "Maj7(9)",
              "Maj(9)",
              "Maj7#11",
              "Maj7",
              "Maj6",
              "Maj"
            ],
            "autoStart": false,
            "sourceChordNote": 0,
            "sourceChordType": "min",
            "ctb2Low": null,
            "ctb2Main": {
              "ntr": "ROOT_TRANSPOSITION",
              "ntt": "BYPASS",
              "bassOn": false,
              "chordRootUpperLimit": 3,
              "noteLowLimit": 28,
              "noteHighLimit": 127,
              "rtr": "PITCH_SHIFT"
            },
            "ctb2High": null
          },
          "notes": [
            {
              "pitch": 24,
              "velocity": 72,
              "position": 0,
              "duration": 0.23958333333333334
            },
            {
              "pitch": 27,
              "velocity": 60,
              "position": 0.25,
              "duration": 0.13541666666666666
            },
            {
              "pitch": 31,
              "velocity": 60,
              "position": 0.5,
              "duration": 0.13541666666666666
            },
            {
              "pitch": 34,
              "velocity": 72,
              "position": 0.75,
              "duration": 0.34375
            },
            {
              "pitch": 32,
              "velocity": 72,
              "position": 1.75,
              "duration": 0.34375
            },
            {
              "pitch": 31,
              "velocity": 72,
              "position": 2.75,
              "duration": 0.23958333333333334
            },
            {
              "pitch": 31,
              "velocity": 72,
              "position": 3.25,
              "duration": 0.7395833333333334
            },
            {
              "pitch": 24,
              "velocity": 72,
              "position": 4,
              "duration": 0.375
            }
          ]
        },
        "2": {
          "ctab": {
            "srcChannel": 2,
            "name": "Gtr",
            "accType": "CHORD1",
            "editable": false,
            "mutedNotes": [],
            "mutedChords": [
              "1+2+5",
              "sus4",
              "1+5",
              "1+8",
              "7aug",
              "Maj7aug",
              "7(#9)",
              "7(b13)",
              "7(b9)",
              "7(13)",
              "7#11",
              "7(9)",
              "7b5",
              "7sus4",
              "7th",
              "aug",
              "Maj6(9)",
              "Maj7(9)",
              "Maj(9)",
              "Maj7#11",
              "Maj7",
              "Maj6",
              "Maj"
            ],
            "autoStart": false,
            "sourceChordNote": 0,
            "sourceChordType": "min",
            "ctb2Low": null,
            "ctb2Main": {
              "ntr": "ROOT_TRANSPOSITION",
              "ntt": "BYPASS",
              "bassOn": false,
              "chordRootUpperLimit": 3,
              "noteLowLimit": 40,
              "noteHighLimit": 127,
              "rtr": "PITCH_SHIFT"
            },
            "ctb2High": null
          },
          "notes": [
            {
              "pitch": 36,
              "velocity": 40,
              "position": 0,
              "duration": 0.23958333333333334
            },
            {
              "pitch": 39,
              "velocity": 100,
              "position": 0.25,
              "duration": 0.16666666666666666
            },
            {
              "pitch": 43,
              "velocity": 88,
              "position": 0.5,
              "duration": 0.16666666666666666
            },
            {
              "pitch": 46,
              "velocity": 40,
              "position": 0.75,
              "duration": 0.3541666666666667
            },
            {
              "pitch": 44,
              "velocity": 40,
              "position": 1.75,
              "duration": 0.3541666666666667
            },
            {
              "pitch": 43,
              "velocity": 40,
              "position": 2.75,
              "duration": 0.23958333333333334
            },
            {
              "pitch": 53,
              "velocity": 112,
              "position": 3.25,
              "duration": 0.7395833333333334
            },
            {
              "pitch": 59,
              "velocity": 120,
              "position": 3.25,
              "duration": 0.7395833333333334
            },
            {
              "pitch": 63,
              "velocity": 120,
              "position": 3.25,
              "duration": 0.7395833333333334
            },
            {
              "pitch": 55,
              "velocity": 40,
              "position": 4,
              "duration": 0.375
            },
            {
              "pitch": 60,
              "velocity": 40,
              "position": 4,
              "duration": 0.375
            },
            {
              "pitch": 63,
              "velocity": 40,
              "position": 4,
              "duration": 0.375
            }
          ]
        },
        "3": {
          "ctab": {
            "srcChannel": 3,
            "name": "Pno",
            "accType": "CHORD2",
            "editable": false,
            "mutedNotes": [],
            "mutedChords": [
              "1+2+5",
              "sus4",
              "1+5",
              "1+8",
              "7aug",
              "Maj7aug",
              "7(#9)",
              "7(b13)",
              "7(b9)",
              "7(13)",
              "7#11",
              "7(9)",
              "7b5",
              "7sus4",
              "7th",
              "aug",
              "Maj6(9)",
              "Maj7(9)",
              "Maj(9)",
              "Maj7#11",
              "Maj7",
              "Maj6",
              "Maj"
            ],
            "autoStart": false,
            "sourceChordNote": 0,
            "sourceChordType": "min",
            "ctb2Low": null,
            "ctb2Main": {
              "ntr": "ROOT_TRANSPOSITION",
              "ntt": "BYPASS",
              "bassOn": false,
              "chordRootUpperLimit": 3,
              "noteLowLimit": 0,
              "noteHighLimit": 79,
              "rtr": "PITCH_SHIFT"
            },
            "ctb2High": null
          },
          "notes": [
            {
              "pitch": 48,
              "velocity": 108,
              "position": 0,
              "duration": 0.23958333333333334
            },
            {
              "pitch": 72,
              "velocity": 108,
              "position": 0,
              "duration": 0.23958333333333334
            },
            {
              "pitch": 51,
              "velocity": 96,
              "position": 0.25,
              "duration": 0.14583333333333334
            },
            {
              "pitch": 75,
              "velocity": 96,
              "position": 0.25,
              "duration": 0.14583333333333334
            },
            {
              "pitch": 55,
              "velocity": 96,
              "position": 0.5,
              "duration": 0.13541666666666666
            },
            {
              "pitch": 79,
              "velocity": 96,
              "position": 0.5,
              "duration": 0.13541666666666666
            },
            {
              "pitch": 58,
              "velocity": 108,
              "position": 0.75,
              "duration": 0.3020833333333333
            },
            {
              "pitch": 82,
              "velocity": 108,
              "position": 0.75,
              "duration": 0.3020833333333333
            },
            {
              "pitch": 68,
              "velocity": 96,
              "position": 1.25,
              "duration": 0.125
            },
            {
              "pitch": 74,
              "velocity": 96,
              "position": 1.25,
              "duration": 0.125
            },
            {
              "pitch": 56,
              "velocity": 108,
              "position": 1.75,
              "duration": 0.3020833333333333
            },
            {
              "pitch": 80,
              "velocity": 108,
              "position": 1.75,
              "duration": 0.3020833333333333
            },
            {
              "pitch": 68,
              "velocity": 96,
              "position": 2.25,
              "duration": 0.125
            },
            {
              "pitch": 72,
              "velocity": 96,
              "position": 2.25,
              "duration": 0.125
            },
            {
              "pitch": 55,
              "velocity": 108,
              "position": 2.75,
              "duration": 0.19791666666666666
            },
            {
              "pitch": 79,
              "velocity": 108,
              "position": 2.75,
              "duration": 0.19791666666666666
            },
            {
              "pitch": 65,
              "velocity": 108,
              "position": 3.25,
              "duration": 0.7395833333333334
            },
            {
              "pitch": 67,
              "velocity": 108,
              "position": 3.25,
              "duration": 0.7395833333333334
            },
            {
              "pitch": 71,
              "velocity": 108,
              "position": 3.25,
              "duration": 0.7395833333333334
            },
            {
              "pitch": 75,
              "velocity": 108,
              "position": 3.25,
              "duration": 0.7395833333333334
            },
            {
              "pitch": 60,
              "velocity": 108,
              "position": 4,
              "duration": 0.3645833333333333
            },
            {
              "pitch": 63,
              "velocity": 108,
              "position": 4,
              "duration": 0.3645833333333333
            },
            {
              "pitch": 67,
              "velocity": 108,
              "position": 4,
              "duration": 0.3645833333333333
            },
            {
              "pitch": 72,
              "velocity": 108,
              "position": 4,
              "duration": 0.3645833333333333
            }
          ]
        },
        "5": {
          "ctab": {
            "srcChannel": 5,
            "name": "Brass",
            "accType": "PHRASE1",
            "editable": false,
            "mutedNotes": [],
            "mutedChords": [
              "1+2+5",
              "sus4",
              "1+5",
              "1+8",
              "7aug",
              "Maj7aug",
              "7(#9)",
              "7(b13)",
              "7(b9)",
              "7(13)",
              "7#11",
              "7(9)",
              "7b5",
              "7sus4",
              "7th",
              "aug",
              "Maj6(9)",
              "Maj7(9)",
              "Maj(9)",
              "Maj7#11",
              "Maj7",
              "Maj6",
              "Maj"
            ],
            "autoStart": false,
            "sourceChordNote": 0,
            "sourceChordType": "min",
            "ctb2Low": null,
            "ctb2Main": {
              "ntr": "ROOT_TRANSPOSITION",
              "ntt": "BYPASS",
              "bassOn": false,
              "chordRootUpperLimit": 2,
              "noteLowLimit": 0,
              "noteHighLimit": 127,
              "rtr": "PITCH_SHIFT"
            },
            "ctb2High": null
          },
          "notes": [
            {
              "pitch": 68,
              "velocity": 82,
              "position": 1.25,
              "duration": 0.23958333333333334
            },
            {
              "pitch": 72,
              "velocity": 82,
              "position": 1.25,
              "duration": 0.23958333333333334
            },
            {
              "pitch": 74,
              "velocity": 82,
              "position": 1.25,
              "duration": 0.23958333333333334
            },
            {
              "pitch": 79,
              "velocity": 101,
              "position": 1.25,
              "duration": 0.23958333333333334
            },
            {
              "pitch": 70,
              "velocity": 82,
              "position": 2.25,
              "duration": 0.23958333333333334
            },
            {
              "pitch": 72,
              "velocity": 82,
              "position": 2.25,
              "duration": 0.23958333333333334
            },
            {
              "pitch": 75,
              "velocity": 82,
              "position": 2.25,
              "duration": 0.23958333333333334
            },
            {
              "pitch": 79,
              "velocity": 101,
              "position": 2.25,
              "duration": 0.23958333333333334
            },
            {
              "pitch": 79,
              "velocity": 101,
              "position": 3.25,
              "duration": 0.6145833333333334
            },
            {
              "pitch": 80,
              "velocity": 63,
              "position": 3.8125,
              "duration": 0.08333333333333333
            },
            {
              "pitch": 81,
              "velocity": 63,
              "position": 3.875,
              "duration": 0.08333333333333333
            },
            {
              "pitch": 65,
              "velocity": 82,
              "position": 3.25,
              "duration": 0.7395833333333334
            },
            {
              "pitch": 71,
              "velocity": 82,
              "position": 3.25,
              "duration": 0.7395833333333334
            },
            {
              "pitch": 75,
              "velocity": 82,
              "position": 3.25,
              "duration": 0.7395833333333334
            },
            {
              "pitch": 82,
              "velocity": 63,
              "position": 3.9375,
              "duration": 0.08333333333333333
            },
            {
              "pitch": 83,
              "velocity": 63,
              "position": 4,
              "duration": 0.08333333333333333
            },
            {
              "pitch": 72,
              "velocity": 82,
              "position": 4,
              "duration": 0.375
            },
            {
              "pitch": 75,
              "velocity": 82,
              "position": 4,
              "duration": 0.375
            },
            {
              "pitch": 79,
              "velocity": 82,
              "position": 4,
              "duration": 0.375
            },
            {
              "pitch": 84,
              "velocity": 101,
              "position": 4.0625,
              "duration": 0.375
            }
          ]
        },
        "8": {
          "ctab": {
            "srcChannel": 8,
            "name": "Perc",
            "accType": "SUBRHYTHM",
            "editable": false,
            "mutedNotes": [],
            "mutedChords": [],
            "autoStart": true,
            "sourceChordNote": 0,
            "sourceChordType": "Maj7",
            "ctb2Low": null,
            "ctb2Main": {
              "ntr": "ROOT_FIXED",
              "ntt": "BYPASS",
              "bassOn": false,
              "chordRootUpperLimit": 6,
              "noteLowLimit": 0,
              "noteHighLimit": 127,
              "rtr": "PITCH_SHIFT"
            },
            "ctb2High": null
          },
          "notes": [
            {
              "pitch": 24,
              "velocity": 97,
              "position": 0,
              "duration": 0.125
            },
            {
              "pitch": 23,
              "velocity": 74,
              "position": 0.25,
              "duration": 0.125
            },
            {
              "pitch": 29,
              "velocity": 109,
              "position": 0.5,
              "duration": 0.125
            },
            {
              "pitch": 31,
              "velocity": 109,
              "position": 0.75,
              "duration": 0.125
            },
            {
              "pitch": 24,
              "velocity": 76,
              "position": 1,
              "duration": 0.125
            },
            {
              "pitch": 31,
              "velocity": 109,
              "position": 1,
              "duration": 0.125
            },
            {
              "pitch": 23,
              "velocity": 86,
              "position": 1.25,
              "duration": 0.125
            },
            {
              "pitch": 31,
              "velocity": 109,
              "position": 1.3333333333333333,
              "duration": 0.125
            },
            {
              "pitch": 25,
              "velocity": 102,
              "position": 1.5,
              "duration": 0.125
            },
            {
              "pitch": 31,
              "velocity": 109,
              "position": 1.6666666666666667,
              "duration": 0.125
            },
            {
              "pitch": 25,
              "velocity": 104,
              "position": 1.75,
              "duration": 0.125
            },
            {
              "pitch": 31,
              "velocity": 109,
              "position": 2,
              "duration": 0.125
            },
            {
              "pitch": 31,
              "velocity": 109,
              "position": 2.3333333333333335,
              "duration": 0.125
            },
            {
              "pitch": 31,
              "velocity": 109,
              "position": 2.6666666666666665,
              "duration": 0.125
            },
            {
              "pitch": 31,
              "velocity": 109,
              "position": 3,
              "duration": 0.125
            },
            {
              "pitch": 24,
              "velocity": 106,
              "position": 3.25,
              "duration": 0.125
            },
            {
              "pitch": 26,
              "velocity": 98,
              "position": 4,
              "duration": 0.125
            }
          ]
        },
        "9": {
          "ctab": {
            "srcChannel": 9,
            "name": "Drums",
            "accType": "RHYTHM",
            "editable": false,
            "mutedNotes": [],
            "mutedChords": [],
            "autoStart": true,
            "sourceChordNote": 0,
            "sourceChordType": "Maj7",
            "ctb2Low": null,
            "ctb2Main": {
              "ntr": "ROOT_FIXED",
              "ntt": "BYPASS",
              "bassOn": false,
              "chordRootUpperLimit": 6,
              "noteLowLimit": 0,
              "noteHighLimit": 127,
              "rtr": "PITCH_SHIFT"
            },
            "ctb2High": null
          },
          "notes": [
            {
              "pitch": 35,
              "velocity": 107,
              "position": 0,
              "duration": 0.010416666666666666
            },
            {
              "pitch": 44,
              "velocity": 92,
              "position": 0,
              "duration": 0.010416666666666666
            },
            {
              "pitch": 40,
              "velocity": 45,
              "position": 0.25,
              "duration": 0.010416666666666666
            },
            {
              "pitch": 44,
              "velocity": 89,
              "position": 0.5,
              "duration": 0.010416666666666666
            },
            {
              "pitch": 53,
              "velocity": 69,
              "position": 0.5,
              "duration": 0.010416666666666666
            },
            {
              "pitch": 35,
              "velocity": 102,
              "position": 0.75,
              "duration": 0.010416666666666666
            },
            {
              "pitch": 40,
              "velocity": 112,
              "position": 1,
              "duration": 0.010416666666666666
            },
            {
              "pitch": 44,
              "velocity": 92,
              "position": 1,
              "duration": 0.010416666666666666
            },
            {
              "pitch": 44,
              "velocity": 89,
              "position": 1.5,
              "duration": 0.010416666666666666
            },
            {
              "pitch": 53,
              "velocity": 69,
              "position": 1.5,
              "duration": 0.010416666666666666
            },
            {
              "pitch": 35,
              "velocity": 98,
              "position": 1.75,
              "duration": 0.010416666666666666
            },
            {
              "pitch": 35,
              "velocity": 93,
              "position": 2,
              "duration": 0.010416666666666666
            },
            {
              "pitch": 44,
              "velocity": 92,
              "position": 2,
              "duration": 0.010416666666666666
            },
            {
              "pitch": 40,
              "velocity": 109,
              "position": 2.25,
              "duration": 0.010416666666666666
            },
            {
              "pitch": 44,
              "velocity": 89,
              "position": 2.5,
              "duration": 0.010416666666666666
            },
            {
              "pitch": 53,
              "velocity": 69,
              "position": 2.5,
              "duration": 0.010416666666666666
            },
            {
              "pitch": 35,
              "velocity": 93,
              "position": 2.75,
              "duration": 0.010416666666666666
            },
            {
              "pitch": 40,
              "velocity": 102,
              "position": 2.75,
              "duration": 0.010416666666666666
            },
            {
              "pitch": 40,
              "velocity": 119,
              "position": 3,
              "duration": 0.010416666666666666
            },
            {
              "pitch": 44,
              "velocity": 92,
              "position": 3,
              "duration": 0.010416666666666666
            },
            {
              "pitch": 35,
              "velocity": 110,
              "position": 3.25,
              "duration": 0.010416666666666666
            },
            {
              "pitch": 49,
              "velocity": 64,
              "position": 3.25,
              "duration": 0.010416666666666666
            },
            {
              "pitch": 35,
              "velocity": 104,
              "position": 4,
              "duration": 0.010416666666666666
            },
            {
              "pitch": 49,
              "velocity": 61,
              "position": 4,
              "duration": 0.010416666666666666
            }
          ]
        },
        "10": {
          "ctab": {
            "srcChannel": 10,
            "name": "Bass",
            "accType": "BASS",
            "editable": false,
            "mutedNotes": [],
            "mutedChords": [
              "dim7",
              "dim",
              "minMaj7(9)",
              "minMaj7",
              "min7(11)",
              "min7(9)",
              "min(9)",
              "m7b5",
              "min7",
              "min6",
              "min"
            ],
            "autoStart": false,
            "sourceChordNote": 0,
            "sourceChordType": "Maj",
            "ctb2Low": null,
            "ctb2Main": {
              "ntr": "ROOT_TRANSPOSITION",
              "ntt": "BYPASS",
              "bassOn": false,
              "chordRootUpperLimit": 3,
              "noteLowLimit": 28,
              "noteHighLimit": 127,
              "rtr": "PITCH_SHIFT"
            },
            "ctb2High": null
          },
          "notes": [
            {
              "pitch": 36,
              "velocity": 72,
              "position": 0,
              "duration": 0.15625
            },
            {
              "pitch": 40,
              "velocity": 60,
              "position": 0.25,
              "duration": 0.13541666666666666
            },
            {
              "pitch": 43,
              "velocity": 60,
              "position": 0.5,
              "duration": 0.13541666666666666
            },
            {
              "pitch": 46,
              "velocity": 72,
              "position": 0.75,
              "duration": 0.3541666666666667
            },
            {
              "pitch": 44,
              "velocity": 72,
              "position": 1.75,
              "duration": 0.3541666666666667
            },
            {
              "pitch": 43,
              "velocity": 72,
              "position": 2.75,
              "duration": 0.23958333333333334
            },
            {
              "pitch": 43,
              "velocity": 72,
              "position": 3.25,
              "duration": 0.7395833333333334
            },
            {
              "pitch": 36,
              "velocity": 72,
              "position": 4,
              "duration": 0.375
            }
          ]
        },
        "11": {
          "ctab": {
            "srcChannel": 11,
            "name": "Gtr",
            "accType": "CHORD1",
            "editable": false,
            "mutedNotes": [],
            "mutedChords": [
              "dim7",
              "dim",
              "minMaj7(9)",
              "minMaj7",
              "min7(11)",
              "min7(9)",
              "min(9)",
              "m7b5",
              "min7",
              "min6",
              "min"
            ],
            "autoStart": false,
            "sourceChordNote": 0,
            "sourceChordType": "Maj",
            "ctb2Low": null,
            "ctb2Main": {
              "ntr": "ROOT_TRANSPOSITION",
              "ntt": "BYPASS",
              "bassOn": false,
              "chordRootUpperLimit": 3,
              "noteLowLimit": 40,
              "noteHighLimit": 127,
              "rtr": "PITCH_SHIFT"
            },
            "ctb2High": null
          },
          "notes": [
            {
              "pitch": 36,
              "velocity": 40,
              "position": 0,
              "duration": 0.23958333333333334
            },
            {
              "pitch": 40,
              "velocity": 100,
              "position": 0.25,
              "duration": 0.16666666666666666
            },
            {
              "pitch": 43,
              "velocity": 88,
              "position": 0.5,
              "duration": 0.16666666666666666
            },
            {
              "pitch": 46,
              "velocity": 40,
              "position": 0.75,
              "duration": 0.40625
            },
            {
              "pitch": 44,
              "velocity": 40,
              "position": 1.75,
              "duration": 0.40625
            },
            {
              "pitch": 43,
              "velocity": 40,
              "position": 2.75,
              "duration": 0.23958333333333334
            },
            {
              "pitch": 53,
              "velocity": 112,
              "position": 3.25,
              "duration": 0.7395833333333334
            },
            {
              "pitch": 59,
              "velocity": 120,
              "position": 3.25,
              "duration": 0.7395833333333334
            },
            {
              "pitch": 64,
              "velocity": 120,
              "position": 3.25,
              "duration": 0.7395833333333334
            },
            {
              "pitch": 55,
              "velocity": 40,
              "position": 4,
              "duration": 0.375
            },
            {
              "pitch": 60,
              "velocity": 40,
              "position": 4,
              "duration": 0.375
            },
            {
              "pitch": 64,
              "velocity": 40,
              "position": 4,
              "duration": 0.375
            }
          ]
        },
        "12": {
          "ctab": {
            "srcChannel": 12,
            "name": "Pno",
            "accType": "CHORD2",
            "editable": false,
            "mutedNotes": [],
            "mutedChords": [
              "dim7",
              "dim",
              "minMaj7(9)",
              "minMaj7",
              "min7(11)",
              "min7(9)",
              "min(9)",
              "m7b5",
              "min7",
              "min6",
              "min"
            ],
            "autoStart": false,
            "sourceChordNote": 0,
            "sourceChordType": "Maj",
            "ctb2Low": null,
            "ctb2Main": {
              "ntr": "ROOT_TRANSPOSITION",
              "ntt": "BYPASS",
              "bassOn": false,
              "chordRootUpperLimit": 3,
              "noteLowLimit": 0,
              "noteHighLimit": 79,
              "rtr": "PITCH_SHIFT"
            },
            "ctb2High": null
          },
          "notes": [
            {
              "pitch": 48,
              "velocity": 108,
              "position": 0,
              "duration": 0.23958333333333334
            },
            {
              "pitch": 72,
              "velocity": 108,
              "position": 0,
              "duration": 0.23958333333333334
            },
            {
              "pitch": 52,
              "velocity": 96,
              "position": 0.25,
              "duration": 0.14583333333333334
            },
            {
              "pitch": 76,
              "velocity": 96,
              "position": 0.25,
              "duration": 0.14583333333333334
            },
            {
              "pitch": 55,
              "velocity": 96,
              "position": 0.5,
              "duration": 0.13541666666666666
            },
            {
              "pitch": 79,
              "velocity": 96,
              "position": 0.5,
              "duration": 0.13541666666666666
            },
            {
              "pitch": 58,
              "velocity": 108,
              "position": 0.75,
              "duration": 0.3020833333333333
            },
            {
              "pitch": 82,
              "velocity": 108,
              "position": 0.75,
              "duration": 0.3020833333333333
            },
            {
              "pitch": 68,
              "velocity": 96,
              "position": 1.25,
              "duration": 0.125
            },
            {
              "pitch": 74,
              "velocity": 96,
              "position": 1.25,
              "duration": 0.125
            },
            {
              "pitch": 56,
              "velocity": 108,
              "position": 1.75,
              "duration": 0.3020833333333333
            },
            {
              "pitch": 80,
              "velocity": 108,
              "position": 1.75,
              "duration": 0.3020833333333333
            },
            {
              "pitch": 68,
              "velocity": 96,
              "position": 2.25,
              "duration": 0.125
            },
            {
              "pitch": 72,
              "velocity": 96,
              "position": 2.25,
              "duration": 0.125
            },
            {
              "pitch": 55,
              "velocity": 108,
              "position": 2.75,
              "duration": 0.19791666666666666
            },
            {
              "pitch": 79,
              "velocity": 108,
              "position": 2.75,
              "duration": 0.19791666666666666
            },
            {
              "pitch": 65,
              "velocity": 108,
              "position": 3.25,
              "duration": 0.7395833333333334
            },
            {
              "pitch": 67,
              "velocity": 108,
              "position": 3.25,
              "duration": 0.7395833333333334
            },
            {
              "pitch": 71,
              "velocity": 108,
              "position": 3.25,
              "duration": 0.7395833333333334
            },
            {
              "pitch": 76,
              "velocity": 108,
              "position": 3.25,
              "duration": 0.7395833333333334
            },
            {
              "pitch": 60,
              "velocity": 108,
              "position": 4,
              "duration": 0.3645833333333333
            },
            {
              "pitch": 64,
              "velocity": 108,
              "position": 4,
              "duration": 0.3645833333333333
            },
            {
              "pitch": 67,
              "velocity": 108,
              "position": 4,
              "duration": 0.3645833333333333
            },
            {
              "pitch": 72,
              "velocity": 108,
              "position": 4,
              "duration": 0.3645833333333333
            }
          ]
        },
        "14": {
          "ctab": {
            "srcChannel": 14,
            "name": "Brass",
            "accType": "PHRASE1",
            "editable": false,
            "mutedNotes": [],
            "mutedChords": [
              "dim7",
              "dim",
              "minMaj7(9)",
              "minMaj7",
              "min7(11)",
              "min7(9)",
              "min(9)",
              "m7b5",
              "min7",
              "min6",
              "min"
            ],
            "autoStart": false,
            "sourceChordNote": 0,
            "sourceChordType": "Maj",
            "ctb2Low": null,
            "ctb2Main": {
              "ntr": "ROOT_TRANSPOSITION",
              "ntt": "BYPASS",
              "bassOn": false,
              "chordRootUpperLimit": 2,
              "noteLowLimit": 0,
              "noteHighLimit": 127,
              "rtr": "PITCH_SHIFT"
            },
            "ctb2High": null
          },
          "notes": [
            {
              "pitch": 68,
              "velocity": 82,
              "position": 1.25,
              "duration": 0.23958333333333334
            },
            {
              "pitch": 72,
              "velocity": 82,
              "position": 1.25,
              "duration": 0.23958333333333334
            },
            {
              "pitch": 74,
              "velocity": 82,
              "position": 1.25,
              "duration": 0.23958333333333334
            },
            {
              "pitch": 79,
              "velocity": 101,
              "position": 1.25,
              "duration": 0.23958333333333334
            },
            {
              "pitch": 70,
              "velocity": 82,
              "position": 2.25,
              "duration": 0.23958333333333334
            },
            {
              "pitch": 72,
              "velocity": 82,
              "position": 2.25,
              "duration": 0.23958333333333334
            },
            {
              "pitch": 75,
              "velocity": 82,
              "position": 2.25,
              "duration": 0.23958333333333334
            },
            {
              "pitch": 79,
              "velocity": 101,
              "position": 2.25,
              "duration": 0.23958333333333334
            },
            {
              "pitch": 79,
              "velocity": 101,
              "position": 3.25,
              "duration": 0.6145833333333334
            },
            {
              "pitch": 80,
              "velocity": 63,
              "position": 3.8125,
              "duration": 0.08333333333333333
            },
            {
              "pitch": 81,
              "velocity": 63,
              "position": 3.875,
              "duration": 0.08333333333333333
            },
            {
              "pitch": 65,
              "velocity": 82,
              "position": 3.25,
              "duration": 0.7395833333333334
            },
            {
              "pitch": 71,
              "velocity": 82,
              "position": 3.25,
              "duration": 0.7395833333333334
            },
            {
              "pitch": 76,
              "velocity": 82,
              "position": 3.25,
              "duration": 0.7395833333333334
            },
            {
              "pitch": 82,
              "velocity": 63,
              "position": 3.9375,
              "duration": 0.08333333333333333
            },
            {
              "pitch": 83,
              "velocity": 63,
              "position": 4,
              "duration": 0.08333333333333333
            },
            {
              "pitch": 69,
              "velocity": 82,
              "position": 4,
              "duration": 0.375
            },
            {
              "pitch": 76,
              "velocity": 82,
              "position": 4,
              "duration": 0.375
            },
            {
              "pitch": 79,
              "velocity": 82,
              "position": 4,
              "duration": 0.375
            },
            {
              "pitch": 84,
              "velocity": 101,
              "position": 4.0625,
              "duration": 0.375
            }
          ]
        }
      }
    }
  }
}