{
  "name": "SAMBA_3.S506.STY",
  "tempo": 110,
  "timeSignature": "4/4",
  "ticksPerQuarter": 1920,
  "sffType": "SFF2",
  "division": "EIGHTH_TRIPLET",
  "parts": {
    "Main_A": {
      "type": "Main_A",
      "sizeInBeats": 16,
      "channels": {
        "0": {
          "ctab": {
            "srcChannel": 0,
            "name": "NylonGtr",
            "accType": "CHORD2",
            "editable": false,
            "mutedNotes": [],
            "mutedChords": [],
            "autoStart": false,
            "sourceChordNote": 0,
            "sourceChordType": "Maj7",
            "ctb2Low": null,
            "ctb2Main": {
              "ntr": "ROOT_TRANSPOSITION",
              "ntt": "CHORD",
              "bassOn": false,
              "chordRootUpperLimit": 6,
              "noteLowLimit": 0,
              "noteHighLimit": 127,
              "rtr": "PITCH_SHIFT"
            },
            "ctb2High": null,
            "ctb2MiddleLowPitch": 0,
            "ctb2MiddleHighPitch": 127
          },
          "notes": [
            {
              "pitch": 67,
              "velocity": 59,
              "position": 0.25,
              "duration": 0.14583333333333334
            },
            {
              "pitch": 64,
              "velocity": 57,
              "position": 0.25,
              "duration": 0.16666666666666666
            },
            {
              "pitch": 74,
              "velocity": 59,
              "position": 0.25,
              "duration": 0.16666666666666666
            },
            {
              "pitch": 59,
              "velocity": 66,
              "position": 0.75,
              "duration": 0.125
            },
            {
              "pitch": 67,
              "velocity": 56,
              "position": 1,
              "duration": 0.14583333333333334
            },
            {
              "pitch": 64,
              "velocity": 55,
              "position": 1,
              "duration": 0.16666666666666666
            },
            {
              "pitch": 74,
              "velocity": 60,
              "position": 1,
              "duration": 0.16666666666666666
            },
            {
              "pitch": 67,
              "velocity": 73,
              "position": 1.5,
              "duration": 0.14583333333333334
            },
            {
              "pitch": 64,
              "velocity": 69,
              "position": 1.5,
              "duration": 0.14583333333333334
            },
            {
              "pitch": 74,
              "velocity": 68,
              "position": 1.5,
              "duration": 0.1875
            },
            {
              "pitch": 67,
              "velocity": 72,
              "position": 2,
              "duration": 0.20833333333333334
            },
            {
              "pitch": 64,
              "velocity": 68,
              "position": 2,
              "duration": 0.22916666666666666
            },
            {
              "pitch": 74,
              "velocity": 64,
              "position": 2,
              "duration": 0.2708333333333333
            },
            {
              "pitch": 59,
              "velocity": 73,
              "position": 2.5,
              "duration": 0.125
            },
            {
              "pitch": 67,
              "velocity": 56,
              "position": 2.75,
              "duration": 0.14583333333333334
            },
            {
              "pitch": 64,
              "velocity": 59,
              "position": 2.75,
              "duration": 0.14583333333333334
            },
            {
              "pitch": 74,
              "velocity": 60,
              "position": 2.75,
              "duration": 0.1875
            },
            {
              "pitch": 67,
              "velocity": 57,
              "position": 3.25,
              "duration": 0.16666666666666666
            },
            {
              "pitch": 64,
              "velocity": 53,
              "position": 3.25,
              "duration": 0.1875
            },
            {
              "pitch": 74,
              "velocity": 62,
              "position": 3.25,
              "duration": 0.20833333333333334
            },
            {
              "pitch": 67,
              "velocity": 66,
              "position": 3.75,
              "duration": 0.125
            },
            {
              "pitch": 64,
              "velocity": 62,
              "position": 3.75,
              "duration": 0.14583333333333334
            },
            {
              "pitch": 74,
              "velocity": 67,
              "position": 3.75,
              "duration": 0.16666666666666666
            },
            {
              "pitch": 67,
              "velocity": 78,
              "position": 4.25,
              "duration": 0.125
            },
            {
              "pitch": 64,
              "velocity": 73,
              "position": 4.25,
              "duration": 0.14583333333333334
            },
            {
              "pitch": 74,
              "velocity": 68,
              "position": 4.25,
              "duration": 0.14583333333333334
            },
            {
              "pitch": 59,
              "velocity": 30,
              "position": 4.75,
              "duration": 0.125
            },
            {
              "pitch": 67,
              "velocity": 64,
              "position": 5,
              "duration": 0.10416666666666667
            },
            {
              "pitch": 64,
              "velocity": 65,
              "position": 5,
              "duration": 0.14583333333333334
            },
            {
              "pitch": 74,
              "velocity": 69,
              "position": 5,
              "duration": 0.16666666666666666
            },
            {
              "pitch": 64,
              "velocity": 57,
              "position": 5.5,
              "duration": 0.08333333333333333
            },
            {
              "pitch": 59,
              "velocity": 73,
              "position": 5.75,
              "duration": 0.125
            },
            {
              "pitch": 67,
              "velocity": 91,
              "position": 6,
              "duration": 0.08333333333333333
            },
            {
              "pitch": 64,
              "velocity": 81,
              "position": 6,
              "duration": 0.10416666666666667
            },
            {
              "pitch": 74,
              "velocity": 71,
              "position": 6,
              "duration": 0.14583333333333334
            },
            {
              "pitch": 64,
              "velocity": 69,
              "position": 6.25,
              "duration": 0.3541666666666667
            },
            {
              "pitch": 67,
              "velocity": 59,
              "position": 6.5,
              "duration": 0.10416666666666667
            },
            {
              "pitch": 67,
              "velocity": 70,
              "position": 6.75,
              "duration": 0.125
            },
            {
              "pitch": 74,
              "velocity": 69,
              "position": 6.75,
              "duration": 0.14583333333333334
            },
            {
              "pitch": 64,
              "velocity": 65,
              "position": 6.75,
              "duration": 0.14583333333333334
            },
            {
              "pitch": 67,
              "velocity": 74,
              "position": 7.25,
              "duration": 0.10416666666666667
            },
            {
              "pitch": 74,
              "velocity": 66,
              "position": 7.25,
              "duration": 0.14583333333333334
            },
            {
              "pitch": 64,
              "velocity": 66,
              "position": 7.25,
              "duration": 0.14583333333333334
            },
            {
              "pitch": 67,
              "velocity": 78,
              "position": 7.75,
              "duration": 0.10416666666666667
            },
            {
              "pitch": 74,
              "velocity": 67,
              "position": 7.75,
              "duration": 0.14583333333333334
            },
            {
              "pitch": 64,
              "velocity": 70,
              "position": 7.75,
              "duration": 0.16666666666666666
            },
            {
              "pitch": 67,
              "velocity": 87,
              "position": 8.25,
              "duration": 0.10416666666666667
            },
            {
              "pitch": 64,
              "velocity": 73,
              "position": 8.25,
              "duration": 0.14583333333333334
            },
            {
              "pitch": 74,
              "velocity": 71,
              "position": 8.25,
              "duration": 0.14583333333333334
            },
            {
              "pitch": 59,
              "velocity": 77,
              "position": 8.75,
              "duration": 0.125
            },
            {
              "pitch": 67,
              "velocity": 55,
              "position": 9,
              "duration": 0.0625
            },
            {
              "pitch": 64,
              "velocity": 53,
              "position": 9,
              "duration": 0.10416666666666667
            },
            {
              "pitch": 74,
              "velocity": 63,
              "position": 9,
              "duration": 0.125
            },
            {
              "pitch": 74,
              "velocity": 56,
              "position": 9.5,
              "duration": 0.0625
            },
            {
              "pitch": 67,
              "velocity": 70,
              "position": 9.5,
              "duration": 0.125
            },
            {
              "pitch": 64,
              "velocity": 57,
              "position": 9.5,
              "duration": 0.14583333333333334
            },
            {
              "pitch": 59,
              "velocity": 69,
              "position": 9.75,
              "duration": 0.125
            },
            {
              "pitch": 64,
              "velocity": 69,
              "position": 10,
              "duration": 0.08333333333333333
            },
            {
              "pitch": 67,
              "velocity": 90,
              "position": 10,
              "duration": 0.125
            },
            {
              "pitch": 74,
              "velocity": 65,
              "position": 10,
              "duration": 0.1875
            },
            {
              "pitch": 64,
              "velocity": 71,
              "position": 10.25,
              "duration": 0.1875
            },
            {
              "pitch": 67,
              "velocity": 60,
              "position": 10.5,
              "duration": 0.125
            },
            {
              "pitch": 67,
              "velocity": 62,
              "position": 10.75,
              "duration": 0.10416666666666667
            },
            {
              "pitch": 64,
              "velocity": 61,
              "position": 10.75,
              "duration": 0.14583333333333334
            },
            {
              "pitch": 74,
              "velocity": 69,
              "position": 10.75,
              "duration": 0.14583333333333334
            },
            {
              "pitch": 67,
              "velocity": 73,
              "position": 11.25,
              "duration": 0.10416666666666667
            },
            {
              "pitch": 64,
              "velocity": 66,
              "position": 11.25,
              "duration": 0.14583333333333334
            },
            {
              "pitch": 74,
              "velocity": 66,
              "position": 11.25,
              "duration": 0.16666666666666666
            },
            {
              "pitch": 67,
              "velocity": 81,
              "position": 11.75,
              "duration": 0.14583333333333334
            },
            {
              "pitch": 64,
              "velocity": 69,
              "position": 11.75,
              "duration": 0.16666666666666666
            },
            {
              "pitch": 74,
              "velocity": 64,
              "position": 11.75,
              "duration": 0.16666666666666666
            },
            {
              "pitch": 67,
              "velocity": 85,
              "position": 12.25,
              "duration": 0.08333333333333333
            },
            {
              "pitch": 64,
              "velocity": 71,
              "position": 12.25,
              "duration": 0.125
            },
            {
              "pitch": 74,
              "velocity": 64,
              "position": 12.25,
              "duration": 0.125
            },
            {
              "pitch": 64,
              "velocity": 49,
              "position": 12.75,
              "duration": 0.0625
            },
            {
              "pitch": 67,
              "velocity": 66,
              "position": 12.75,
              "duration": 0.08333333333333333
            },
            {
              "pitch": 74,
              "velocity": 53,
              "position": 12.75,
              "duration": 0.08333333333333333
            },
            {
              "pitch": 67,
              "velocity": 72,
              "position": 13,
              "duration": 0.10416666666666667
            },
            {
              "pitch": 74,
              "velocity": 65,
              "position": 13,
              "duration": 0.14583333333333334
            },
            {
              "pitch": 64,
              "velocity": 58,
              "position": 13,
              "duration": 0.16666666666666666
            },
            {
              "pitch": 59,
              "velocity": 63,
              "position": 13.5,
              "duration": 0.125
            },
            {
              "pitch": 67,
              "velocity": 57,
              "position": 13.75,
              "duration": 0.10416666666666667
            },
            {
              "pitch": 64,
              "velocity": 62,
              "position": 13.75,
              "duration": 0.14583333333333334
            },
            {
              "pitch": 74,
              "velocity": 62,
              "position": 13.75,
              "duration": 0.16666666666666666
            },
            {
              "pitch": 59,
              "velocity": 70,
              "position": 14,
              "duration": 0.14583333333333334
            },
            {
              "pitch": 67,
              "velocity": 55,
              "position": 14.25,
              "duration": 0.0625
            },
            {
              "pitch": 64,
              "velocity": 50,
              "position": 14.25,
              "duration": 0.08333333333333333
            },
            {
              "pitch": 67,
              "velocity": 67,
              "position": 14.5,
              "duration": 0.14583333333333334
            },
            {
              "pitch": 64,
              "velocity": 55,
              "position": 14.5,
              "duration": 0.14583333333333334
            },
            {
              "pitch": 74,
              "velocity": 67,
              "position": 14.5,
              "duration": 0.16666666666666666
            },
            {
              "pitch": 64,
              "velocity": 69,
              "position": 15,
              "duration": 0.10416666666666667
            },
            {
              "pitch": 59,
              "velocity": 57,
              "position": 15,
              "duration": 0.16666666666666666
            },
            {
              "pitch": 74,
              "velocity": 55,
              "position": 15.25,
              "duration": 0.10416666666666667
            },
            {
              "pitch": 67,
              "velocity": 68,
              "position": 15.25,
              "duration": 0.125
            },
            {
              "pitch": 64,
              "velocity": 57,
              "position": 15.25,
              "duration": 0.14583333333333334
            },
            {
              "pitch": 67,
              "velocity": 75,
              "position": 15.75,
              "duration": 0.08333333333333333
            },
            {
              "pitch": 64,
              "velocity": 71,
              "position": 15.75,
              "duration": 0.10416666666666667
            },
            {
              "pitch": 74,
              "velocity": 67,
              "position": 15.75,
              "duration": 0.10416666666666667
            }
          ]
        },
        "4": {
          "ctab": {
            "srcChannel": 4,
            "name": "Chor.EP2",
            "accType": "PHRASE1",
            "editable": false,
            "mutedNotes": [],
            "mutedChords": [],
            "autoStart": false,
            "sourceChordNote": 0,
            "sourceChordType": "Maj7",
            "ctb2Low": null,
            "ctb2Main": {
              "ntr": "ROOT_FIXED",
              "ntt": "CHORD",
              "bassOn": false,
              "chordRootUpperLimit": 6,
              "noteLowLimit": 0,
              "noteHighLimit": 127,
              "rtr": "PITCH_SHIFT"
            },
            "ctb2High": null,
            "ctb2MiddleLowPitch": 0,
            "ctb2MiddleHighPitch": 127
          },
          "notes": [
            {
              "pitch": 67,
              "velocity": 90,
              "position": 0,
              "duration": 6.958333333333333
            },
            {
              "pitch": 64,
              "velocity": 89,
              "position": 0,
              "duration": 7
            },
            {
              "pitch": 59,
              "velocity": 90,
              "position": 0,
              "duration": 7.083333333333333
            },
            {
              "pitch": 64,
              "velocity": 89,
              "position": 8,
              "duration": 7.541666666666667
            },
            {
              "pitch": 67,
              "velocity": 90,
              "position": 8,
              "duration": 7.541666666666667
            },
            {
              "pitch": 59,
              "velocity": 89,
              "position": 8,
              "duration": 7.645833333333333
            }
          ]
        },
        "8": {
          "ctab": {
            "srcChannel": 8,
            "name": "Std.Kit1",
            "accType": "RHYTHM",
            "editable": false,
            "mutedNotes": [],
            "mutedChords": [],
            "autoStart": true,
            "sourceChordNote": 0,
            "sourceChordType": "Maj7",
            "ctb2Low": null,
            "ctb2Main": {
              "ntr": "ROOT_FIXED",
              "ntt": "BYPASS",
              "bassOn": false,
              "chordRootUpperLimit": 6,
              "noteLowLimit": 0,
              "noteHighLimit": 127,
              "rtr": "PITCH_SHIFT"
            },
            "ctb2High": null,
            "ctb2MiddleLowPitch": 0,
            "ctb2MiddleHighPitch": 127
          },
          "notes": [
            {
              "pitch": 42,
              "velocity": 112,
              "position": 0.041666666666666664,
              "duration": 0.10416666666666667
            },
            {
              "pitch": 42,
              "velocity": 55,
              "position": 0.375,
              "duration": 0.125
            },
            {
              "pitch": 42,
              "velocity": 61,
              "position": 0.7083333333333334,
              "duration": 0.125
            },
            {
              "pitch": 44,
              "velocity": 50,
              "position": 1,
              "duration": 0.1875
            },
            {
              "pitch": 42,
              "velocity": 60,
              "position": 1.4583333333333333,
              "duration": 0.125
            },
            {
              "pitch": 36,
              "velocity": 95,
              "position": 1,
              "duration": 0.6666666666666666
            },
            {
              "pitch": 42,
              "velocity": 55,
              "position": 1.7916666666666667,
              "duration": 0.08333333333333333
            },
            {
              "pitch": 42,
              "velocity": 78,
              "position": 2,
              "duration": 0.16666666666666666
            },
            {
              "pitch": 40,
              "velocity": 75,
              "position": 2,
              "duration": 0.4791666666666667
            },
            {
              "pitch": 42,
              "velocity": 42,
              "position": 2.7916666666666665,
              "duration": 0.08333333333333333
            },
            {
              "pitch": 44,
              "velocity": 73,
              "position": 3.0416666666666665,
              "duration": 0.20833333333333334
            },
            {
              "pitch": 36,
              "velocity": 95,
              "position": 3,
              "duration": 0.4583333333333333
            },
            {
              "pitch": 42,
              "velocity": 84,
              "position": 3.7916666666666665,
              "duration": 0.14583333333333334
            },
            {
              "pitch": 42,
              "velocity": 47,
              "position": 4.083333333333333,
              "duration": 0.08333333333333333
            },
            {
              "pitch": 42,
              "velocity": 90,
              "position": 4.791666666666667,
              "duration": 0.10416666666666667
            },
            {
              "pitch": 36,
              "velocity": 95,
              "position": 5,
              "duration": 0.2708333333333333
            },
            {
              "pitch": 44,
              "velocity": 77,
              "position": 5.041666666666667,
              "duration": 0.22916666666666666
            },
            {
              "pitch": 42,
              "velocity": 84,
              "position": 5.791666666666667,
              "duration": 0.08333333333333333
            },
            {
              "pitch": 42,
              "velocity": 93,
              "position": 6,
              "duration": 0.14583333333333334
            },
            {
              "pitch": 40,
              "velocity": 70,
              "position": 6,
              "duration": 0.3958333333333333
            },
            {
              "pitch": 42,
              "velocity": 51,
              "position": 6.75,
              "duration": 0.10416666666666667
            },
            {
              "pitch": 44,
              "velocity": 66,
              "position": 7,
              "duration": 0.1875
            },
            {
              "pitch": 36,
              "velocity": 95,
              "position": 7,
              "duration": 0.4375
            },
            {
              "pitch": 42,
              "velocity": 101,
              "position": 7.791666666666667,
              "duration": 0.10416666666666667
            },
            {
              "pitch": 42,
              "velocity": 112,
              "position": 8,
              "duration": 0.125
            },
            {
              "pitch": 42,
              "velocity": 55,
              "position": 8.375,
              "duration": 0.125
            },
            {
              "pitch": 42,
              "velocity": 61,
              "position": 8.708333333333334,
              "duration": 0.125
            },
            {
              "pitch": 44,
              "velocity": 50,
              "position": 9,
              "duration": 0.1875
            },
            {
              "pitch": 42,
              "velocity": 60,
              "position": 9.458333333333334,
              "duration": 0.125
            },
            {
              "pitch": 36,
              "velocity": 95,
              "position": 9,
              "duration": 0.6666666666666666
            },
            {
              "pitch": 42,
              "velocity": 55,
              "position": 9.791666666666666,
              "duration": 0.08333333333333333
            },
            {
              "pitch": 42,
              "velocity": 78,
              "position": 10,
              "duration": 0.16666666666666666
            },
            {
              "pitch": 40,
              "velocity": 75,
              "position": 10,
              "duration": 0.4791666666666667
            },
            {
              "pitch": 42,
              "velocity": 42,
              "position": 10.791666666666666,
              "duration": 0.08333333333333333
            },
            {
              "pitch": 44,
              "velocity": 73,
              "position": 11.041666666666666,
              "duration": 0.20833333333333334
            },
            {
              "pitch": 36,
              "velocity": 95,
              "position": 11,
              "duration": 0.4583333333333333
            },
            {
              "pitch": 42,
              "velocity": 84,
              "position": 11.791666666666666,
              "duration": 0.14583333333333334
            },
            {
              "pitch": 42,
              "velocity": 47,
              "position": 12.083333333333334,
              "duration": 0.08333333333333333
            },
            {
              "pitch": 42,
              "velocity": 90,
              "position": 12.791666666666666,
              "duration": 0.10416666666666667
            },
            {
              "pitch": 36,
              "velocity": 95,
              "position": 13,
              "duration": 0.2708333333333333
            },
            {
              "pitch": 44,
              "velocity": 77,
              "position": 13.083333333333334,
              "duration": 0.20833333333333334
            },
            {
              "pitch": 42,
              "velocity": 84,
              "position": 13.791666666666666,
              "duration": 0.08333333333333333
            },
            {
              "pitch": 42,
              "velocity": 93,
              "position": 14,
              "duration": 0.14583333333333334
            },
            {
              "pitch": 40,
              "velocity": 70,
              "position": 14,
              "duration": 0.3958333333333333
            },
            {
              "pitch": 42,
              "velocity": 51,
              "position": 14.75,
              "duration": 0.10416666666666667
            },
            {
              "pitch": 44,
              "velocity": 66,
              "position": 15,
              "duration": 0.1875
            },
            {
              "pitch": 36,
              "velocity": 95,
              "position": 15,
              "duration": 0.4375
            },
            {
              "pitch": 42,
              "velocity": 101,
              "position": 15.791666666666666,
              "duration": 0.10416666666666667
            }
          ]
        },
        "10": {
          "ctab": {
            "srcChannel": 10,
            "name": "Std.Kit1",
            "accType": "SUBRHYTHM",
            "editable": false,
            "mutedNotes": [],
            "mutedChords": [],
            "autoStart": true,
            "sourceChordNote": 0,
            "sourceChordType": "Maj7",
            "ctb2Low": null,
            "ctb2Main": {
              "ntr": "ROOT_FIXED",
              "ntt": "BYPASS",
              "bassOn": false,
              "chordRootUpperLimit": 6,
              "noteLowLimit": 0,
              "noteHighLimit": 127,
              "rtr": "PITCH_SHIFT"
            },
            "ctb2High": null,
            "ctb2MiddleLowPitch": 0,
            "ctb2MiddleHighPitch": 127
          },
          "notes": [
            {
              "pitch": 69,
              "velocity": 127,
              "position": 0.041666666666666664,
              "duration": 0.10416666666666667
            },
            {
              "pitch": 69,
              "velocity": 45,
              "position": 0.25,
              "duration": 0.14583333333333334
            },
            {
              "pitch": 62,
              "velocity": 86,
              "position": 0.041666666666666664,
              "duration": 0.375
            },
            {
              "pitch": 69,
              "velocity": 32,
              "position": 0.5,
              "duration": 0.10416666666666667
            },
            {
              "pitch": 69,
              "velocity": 30,
              "position": 0.75,
              "duration": 0.14583333333333334
            },
            {
              "pitch": 62,
              "velocity": 96,
              "position": 1,
              "duration": 0.125
            },
            {
              "pitch": 69,
              "velocity": 97,
              "position": 1,
              "duration": 0.16666666666666666
            },
            {
              "pitch": 69,
              "velocity": 15,
              "position": 1.25,
              "duration": 0.14583333333333334
            },
            {
              "pitch": 69,
              "velocity": 33,
              "position": 1.5,
              "duration": 0.14583333333333334
            },
            {
              "pitch": 62,
              "velocity": 87,
              "position": 1.5,
              "duration": 0.14583333333333334
            },
            {
              "pitch": 69,
              "velocity": 16,
              "position": 1.75,
              "duration": 0.125
            },
            {
              "pitch": 69,
              "velocity": 92,
              "position": 2,
              "duration": 0.16666666666666666
            },
            {
              "pitch": 69,
              "velocity": 16,
              "position": 2.25,
              "duration": 0.125
            },
            {
              "pitch": 62,
              "velocity": 99,
              "position": 2,
              "duration": 0.3958333333333333
            },
            {
              "pitch": 69,
              "velocity": 26,
              "position": 2.5,
              "duration": 0.08333333333333333
            },
            {
              "pitch": 69,
              "velocity": 47,
              "position": 2.75,
              "duration": 0.125
            },
            {
              "pitch": 62,
              "velocity": 92,
              "position": 2.75,
              "duration": 0.1875
            },
            {
              "pitch": 69,
              "velocity": 73,
              "position": 3,
              "duration": 0.14583333333333334
            },
            {
              "pitch": 69,
              "velocity": 15,
              "position": 3.25,
              "duration": 0.125
            },
            {
              "pitch": 62,
              "velocity": 99,
              "position": 3.25,
              "duration": 0.125
            },
            {
              "pitch": 69,
              "velocity": 33,
              "position": 3.5,
              "duration": 0.10416666666666667
            },
            {
              "pitch": 69,
              "velocity": 22,
              "position": 3.75,
              "duration": 0.08333333333333333
            },
            {
              "pitch": 62,
              "velocity": 96,
              "position": 3.75,
              "duration": 0.10416666666666667
            },
            {
              "pitch": 69,
              "velocity": 110,
              "position": 4,
              "duration": 0.16666666666666666
            },
            {
              "pitch": 69,
              "velocity": 35,
              "position": 4.25,
              "duration": 0.10416666666666667
            },
            {
              "pitch": 62,
              "velocity": 120,
              "position": 4.25,
              "duration": 0.14583333333333334
            },
            {
              "pitch": 69,
              "velocity": 28,
              "position": 4.5,
              "duration": 0.08333333333333333
            },
            {
              "pitch": 60,
              "velocity": 76,
              "position": 4.5,
              "duration": 0.20833333333333334
            },
            {
              "pitch": 69,
              "velocity": 53,
              "position": 4.75,
              "duration": 0.125
            },
            {
              "pitch": 61,
              "velocity": 51,
              "position": 4.75,
              "duration": 0.2708333333333333
            },
            {
              "pitch": 62,
              "velocity": 82,
              "position": 5,
              "duration": 0.125
            },
            {
              "pitch": 69,
              "velocity": 71,
              "position": 5,
              "duration": 0.125
            },
            {
              "pitch": 69,
              "velocity": 40,
              "position": 5.25,
              "duration": 0.125
            },
            {
              "pitch": 62,
              "velocity": 92,
              "position": 5.5,
              "duration": 0.08333333333333333
            },
            {
              "pitch": 69,
              "velocity": 47,
              "position": 5.5,
              "duration": 0.10416666666666667
            },
            {
              "pitch": 69,
              "velocity": 77,
              "position": 5.75,
              "duration": 0.10416666666666667
            },
            {
              "pitch": 69,
              "velocity": 86,
              "position": 6,
              "duration": 0.16666666666666666
            },
            {
              "pitch": 62,
              "velocity": 111,
              "position": 6,
              "duration": 0.2916666666666667
            },
            {
              "pitch": 69,
              "velocity": 26,
              "position": 6.25,
              "duration": 0.125
            },
            {
              "pitch": 69,
              "velocity": 22,
              "position": 6.5,
              "duration": 0.08333333333333333
            },
            {
              "pitch": 69,
              "velocity": 62,
              "position": 6.75,
              "duration": 0.125
            },
            {
              "pitch": 62,
              "velocity": 99,
              "position": 6.75,
              "duration": 0.14583333333333334
            },
            {
              "pitch": 69,
              "velocity": 92,
              "position": 7,
              "duration": 0.14583333333333334
            },
            {
              "pitch": 69,
              "velocity": 33,
              "position": 7.25,
              "duration": 0.10416666666666667
            },
            {
              "pitch": 62,
              "velocity": 88,
              "position": 7.25,
              "duration": 0.10416666666666667
            },
            {
              "pitch": 69,
              "velocity": 15,
              "position": 7.5,
              "duration": 0.08333333333333333
            },
            {
              "pitch": 62,
              "velocity": 96,
              "position": 7.75,
              "duration": 0.08333333333333333
            },
            {
              "pitch": 69,
              "velocity": 56,
              "position": 7.75,
              "duration": 0.125
            },
            {
              "pitch": 69,
              "velocity": 127,
              "position": 8,
              "duration": 0.125
            },
            {
              "pitch": 62,
              "velocity": 86,
              "position": 8,
              "duration": 0.3958333333333333
            },
            {
              "pitch": 69,
              "velocity": 45,
              "position": 8.25,
              "duration": 0.14583333333333334
            },
            {
              "pitch": 69,
              "velocity": 32,
              "position": 8.5,
              "duration": 0.10416666666666667
            },
            {
              "pitch": 69,
              "velocity": 30,
              "position": 8.75,
              "duration": 0.14583333333333334
            },
            {
              "pitch": 62,
              "velocity": 96,
              "position": 9,
              "duration": 0.125
            },
            {
              "pitch": 69,
              "velocity": 97,
              "position": 9,
              "duration": 0.1875
            },
            {
              "pitch": 69,
              "velocity": 15,
              "position": 9.25,
              "duration": 0.14583333333333334
            },
            {
              "pitch": 69,
              "velocity": 33,
              "position": 9.5,
              "duration": 0.14583333333333334
            },
            {
              "pitch": 62,
              "velocity": 87,
              "position": 9.5,
              "duration": 0.14583333333333334
            },
            {
              "pitch": 69,
              "velocity": 16,
              "position": 9.75,
              "duration": 0.10416666666666667
            },
            {
              "pitch": 69,
              "velocity": 92,
              "position": 10,
              "duration": 0.16666666666666666
            },
            {
              "pitch": 69,
              "velocity": 16,
              "position": 10.25,
              "duration": 0.125
            },
            {
              "pitch": 62,
              "velocity": 99,
              "position": 10,
              "duration": 0.3958333333333333
            },
            {
              "pitch": 69,
              "velocity": 26,
              "position": 10.5,
              "duration": 0.08333333333333333
            },
            {
              "pitch": 69,
              "velocity": 47,
              "position": 10.75,
              "duration": 0.125
            },
            {
              "pitch": 62,
              "velocity": 92,
              "position": 10.75,
              "duration": 0.1875
            },
            {
              "pitch": 69,
              "velocity": 73,
              "position": 11,
              "duration": 0.14583333333333334
            },
            {
              "pitch": 69,
              "velocity": 15,
              "position": 11.25,
              "duration": 0.125
            },
            {
              "pitch": 62,
              "velocity": 99,
              "position": 11.25,
              "duration": 0.125
            },
            {
              "pitch": 69,
              "velocity": 33,
              "position": 11.5,
              "duration": 0.10416666666666667
            },
            {
              "pitch": 69,
              "velocity": 22,
              "position": 11.75,
              "duration": 0.08333333333333333
            },
            {
              "pitch": 62,
              "velocity": 96,
              "position": 11.75,
              "duration": 0.10416666666666667
            },
            {
              "pitch": 69,
              "velocity": 110,
              "position": 12,
              "duration": 0.16666666666666666
            },
            {
              "pitch": 69,
              "velocity": 35,
              "position": 12.25,
              "duration": 0.10416666666666667
            },
            {
              "pitch": 62,
              "velocity": 120,
              "position": 12.25,
              "duration": 0.14583333333333334
            },
            {
              "pitch": 69,
              "velocity": 28,
              "position": 12.5,
              "duration": 0.08333333333333333
            },
            {
              "pitch": 60,
              "velocity": 76,
              "position": 12.5,
              "duration": 0.20833333333333334
            },
            {
              "pitch": 69,
              "velocity": 53,
              "position": 12.75,
              "duration": 0.125
            },
            {
              "pitch": 61,
              "velocity": 51,
              "position": 12.75,
              "duration": 0.2916666666666667
            },
            {
              "pitch": 62,
              "velocity": 82,
              "position": 13,
              "duration": 0.125
            },
            {
              "pitch": 69,
              "velocity": 71,
              "position": 13,
              "duration": 0.125
            },
            {
              "pitch": 69,
              "velocity": 40,
              "position": 13.25,
              "duration": 0.125
            },
            {
              "pitch": 62,
              "velocity": 92,
              "position": 13.5,
              "duration": 0.08333333333333333
            },
            {
              "pitch": 69,
              "velocity": 47,
              "position": 13.5,
              "duration": 0.10416666666666667
            },
            {
              "pitch": 69,
              "velocity": 77,
              "position": 13.75,
              "duration": 0.10416666666666667
            },
            {
              "pitch": 69,
              "velocity": 86,
              "position": 14,
              "duration": 0.16666666666666666
            },
            {
              "pitch": 62,
              "velocity": 111,
              "position": 14,
              "duration": 0.2916666666666667
            },
            {
              "pitch": 69,
              "velocity": 26,
              "position": 14.25,
              "duration": 0.125
            },
            {
              "pitch": 69,
              "velocity": 22,
              "position": 14.5,
              "duration": 0.08333333333333333
            },
            {
              "pitch": 69,
              "velocity": 62,
              "position": 14.75,
              "duration": 0.125
            },
            {
              "pitch": 62,
              "velocity": 99,
              "position": 14.75,
              "duration": 0.14583333333333334
            },
            {
              "pitch": 69,
              "velocity": 92,
              "position": 15,
              "duration": 0.14583333333333334
            },
            {
              "pitch": 69,
              "velocity": 33,
              "position": 15.25,
              "duration": 0.10416666666666667
            },
            {
              "pitch": 62,
              "velocity": 88,
              "position": 15.25,
              "duration": 0.125
            },
            {
              "pitch": 69,
              "velocity": 15,
              "position": 15.5,
              "duration": 0.08333333333333333
            },
            {
              "pitch": 62,
              "velocity": 96,
              "position": 15.75,
              "duration": 0.08333333333333333
            },
            {
              "pitch": 69,
              "velocity": 56,
              "position": 15.75,
              "duration": 0.125
            }
          ]
        },
        "12": {
          "ctab": {
            "srcChannel": 12,
            "name": "FngrBass",
            "accType": "BASS",
            "editable": false,
            "mutedNotes": [],
            "mutedChords": [],
            "autoStart": false,
            "sourceChordNote": 0,
            "sourceChordType": "Maj7",
            "ctb2Low": null,
            "ctb2Main": {
              "ntr": "ROOT_TRANSPOSITION",
              "ntt": "MELODY",
              "bassOn": true,
              "chordRootUpperLimit": 3,
              "noteLowLimit": 28,
              "noteHighLimit": 54,
              "rtr": "PITCH_SHIFT_TO_ROOT"
            },
            "ctb2High": null,
            "ctb2MiddleLowPitch": 0,
            "ctb2MiddleHighPitch": 127
          },
          "notes": [
            {
              "pitch": 36,
              "velocity": 48,
              "position": 0,
              "duration": 0.22916666666666666
            },
            {
              "pitch": 31,
              "velocity": 30,
              "position": 1,
              "duration": 0.4791666666666667
            },
            {
              "pitch": 36,
              "velocity": 44,
              "position": 1.5,
              "duration": 0.25
            },
            {
              "pitch": 31,
              "velocity": 68,
              "position": 3,
              "duration": 0.6041666666666666
            },
            {
              "pitch": 36,
              "velocity": 58,
              "position": 3.75,
              "duration": 0.14583333333333334
            },
            {
              "pitch": 36,
              "velocity": 68,
              "position": 4.75,
              "duration": 0.16666666666666666
            },
            {
              "pitch": 31,
              "velocity": 48,
              "position": 5,
              "duration": 0.3958333333333333
            },
            {
              "pitch": 36,
              "velocity": 68,
              "position": 5.5,
              "duration": 0.1875
            },
            {
              "pitch": 38,
              "velocity": 58,
              "position": 7,
              "duration": 0.14583333333333334
            },
            {
              "pitch": 31,
              "velocity": 41,
              "position": 7.25,
              "duration": 0.1875
            },
            {
              "pitch": 36,
              "velocity": 50,
              "position": 7.75,
              "duration": 0.25
            },
            {
              "pitch": 36,
              "velocity": 40,
              "position": 8.75,
              "duration": 0.16666666666666666
            },
            {
              "pitch": 31,
              "velocity": 23,
              "position": 9,
              "duration": 0.4583333333333333
            },
            {
              "pitch": 36,
              "velocity": 68,
              "position": 9.5,
              "duration": 0.25
            },
            {
              "pitch": 31,
              "velocity": 58,
              "position": 11,
              "duration": 0.6666666666666666
            },
            {
              "pitch": 36,
              "velocity": 53,
              "position": 11.75,
              "duration": 0.1875
            },
            {
              "pitch": 36,
              "velocity": 40,
              "position": 12.75,
              "duration": 0.14583333333333334
            },
            {
              "pitch": 31,
              "velocity": 41,
              "position": 13,
              "duration": 0.4583333333333333
            },
            {
              "pitch": 36,
              "velocity": 58,
              "position": 13.5,
              "duration": 0.16666666666666666
            },
            {
              "pitch": 31,
              "velocity": 73,
              "position": 15,
              "duration": 0.9166666666666666
            }
          ]
        },
        "14": {
          "ctab": {
            "srcChannel": 14,
            "name": "E.Grand",
            "accType": "CHORD1",
            "editable": false,
            "mutedNotes": [],
            "mutedChords": [],
            "autoStart": false,
            "sourceChordNote": 0,
            "sourceChordType": "Maj7",
            "ctb2Low": null,
            "ctb2Main": {
              "ntr": "ROOT_TRANSPOSITION",
              "ntt": "CHORD",
              "bassOn": false,
              "chordRootUpperLimit": 6,
              "noteLowLimit": 0,
              "noteHighLimit": 127,
              "rtr": "PITCH_SHIFT"
            },
            "ctb2High": null,
            "ctb2MiddleLowPitch": 0,
            "ctb2MiddleHighPitch": 127
          },
          "notes": [
            {
              "pitch": 55,
              "velocity": 58,
              "position": 0.5,
              "duration": 0.125
            },
            {
              "pitch": 64,
              "velocity": 72,
              "position": 0.5,
              "duration": 0.16666666666666666
            },
            {
              "pitch": 62,
              "velocity": 65,
              "position": 0.5,
              "duration": 0.16666666666666666
            },
            {
              "pitch": 67,
              "velocity": 74,
              "position": 0.5,
              "duration": 0.16666666666666666
            },
            {
              "pitch": 62,
              "velocity": 56,
              "position": 6.5,
              "duration": 0.08333333333333333
            },
            {
              "pitch": 55,
              "velocity": 80,
              "position": 6.75,
              "duration": 0.125
            },
            {
              "pitch": 55,
              "velocity": 54,
              "position": 7,
              "duration": 0.10416666666666667
            },
            {
              "pitch": 62,
              "velocity": 54,
              "position": 7.25,
              "duration": 0.08333333333333333
            },
            {
              "pitch": 55,
              "velocity": 52,
              "position": 7.25,
              "duration": 0.08333333333333333
            },
            {
              "pitch": 64,
              "velocity": 64,
              "position": 7.25,
              "duration": 0.10416666666666667
            },
            {
              "pitch": 62,
              "velocity": 46,
              "position": 7.75,
              "duration": 0.0625
            },
            {
              "pitch": 64,
              "velocity": 54,
              "position": 7.75,
              "duration": 0.08333333333333333
            },
            {
              "pitch": 55,
              "velocity": 54,
              "position": 7.75,
              "duration": 0.10416666666666667
            },
            {
              "pitch": 62,
              "velocity": 61,
              "position": 8.25,
              "duration": 0.0625
            },
            {
              "pitch": 67,
              "velocity": 78,
              "position": 8.25,
              "duration": 0.125
            },
            {
              "pitch": 62,
              "velocity": 52,
              "position": 9.5,
              "duration": 0.08333333333333333
            },
            {
              "pitch": 64,
              "velocity": 52,
              "position": 9.5,
              "duration": 0.10416666666666667
            },
            {
              "pitch": 67,
              "velocity": 48,
              "position": 10.5,
              "duration": 0.08333333333333333
            },
            {
              "pitch": 64,
              "velocity": 53,
              "position": 10.5,
              "duration": 0.10416666666666667
            },
            {
              "pitch": 62,
              "velocity": 56,
              "position": 10.5,
              "duration": 0.10416666666666667
            },
            {
              "pitch": 55,
              "velocity": 54,
              "position": 11,
              "duration": 0.08333333333333333
            },
            {
              "pitch": 63,
              "velocity": 82,
              "position": 12.25,
              "duration": 0.125
            },
            {
              "pitch": 66,
              "velocity": 89,
              "position": 12.25,
              "duration": 0.14583333333333334
            },
            {
              "pitch": 64,
              "velocity": 38,
              "position": 12.75,
              "duration": 0.125
            },
            {
              "pitch": 67,
              "velocity": 38,
              "position": 12.75,
              "duration": 0.16666666666666666
            },
            {
              "pitch": 64,
              "velocity": 48,
              "position": 13.5,
              "duration": 0.20833333333333334
            },
            {
              "pitch": 67,
              "velocity": 53,
              "position": 14,
              "duration": 0.10416666666666667
            },
            {
              "pitch": 64,
              "velocity": 58,
              "position": 14,
              "duration": 0.125
            },
            {
              "pitch": 74,
              "velocity": 62,
              "position": 14,
              "duration": 0.14583333333333334
            },
            {
              "pitch": 64,
              "velocity": 51,
              "position": 14.5,
              "duration": 0.10416666666666667
            },
            {
              "pitch": 59,
              "velocity": 57,
              "position": 14.75,
              "duration": 0.0625
            },
            {
              "pitch": 64,
              "velocity": 63,
              "position": 15,
              "duration": 0.14583333333333334
            },
            {
              "pitch": 67,
              "velocity": 60,
              "position": 15.25,
              "duration": 0.0625
            }
          ]
        }
      }
    },
    "Main_B": {
      "type": "Main_B",
      "sizeInBeats": 16,
      "channels": {
        "0": {
          "ctab": {
            "srcChannel": 0,
            "name": "NylonGtr",
            "accType": "CHORD2",
            "editable": false,
            "mutedNotes": [],
            "mutedChords": [],
            "autoStart": false,
            "sourceChordNote": 0,
            "sourceChordType": "Maj7",
            "ctb2Low": null,
            "ctb2Main": {
              "ntr": "ROOT_TRANSPOSITION",
              "ntt": "CHORD",
              "bassOn": false,
              "chordRootUpperLimit": 6,
              "noteLowLimit": 0,
              "noteHighLimit": 127,
              "rtr": "PITCH_SHIFT"
            },
            "ctb2High": null,
            "ctb2MiddleLowPitch": 0,
            "ctb2MiddleHighPitch": 127
          },
          "notes": [
            {
              "pitch": 64,
              "velocity": 68,
              "position": 0.5,
              "duration": 0.3333333333333333
            },
            {
              "pitch": 62,
              "velocity": 62,
              "position": 0.5,
              "duration": 0.375
            },
            {
              "pitch": 67,
              "velocity": 69,
              "position": 0.5,
              "duration": 0.375
            },
            {
              "pitch": 64,
              "velocity": 50,
              "position": 1,
              "duration": 0.0625
            },
            {
              "pitch": 62,
              "velocity": 48,
              "position": 1,
              "duration": 0.0625
            },
            {
              "pitch": 67,
              "velocity": 51,
              "position": 1,
              "duration": 0.14583333333333334
            },
            {
              "pitch": 64,
              "velocity": 66,
              "position": 1.5,
              "duration": 0.0625
            },
            {
              "pitch": 62,
              "velocity": 66,
              "position": 1.5,
              "duration": 0.10416666666666667
            },
            {
              "pitch": 67,
              "velocity": 62,
              "position": 1.5,
              "duration": 0.10416666666666667
            },
            {
              "pitch": 67,
              "velocity": 66,
              "position": 2,
              "duration": 0.08333333333333333
            },
            {
              "pitch": 64,
              "velocity": 88,
              "position": 2,
              "duration": 0.10416666666666667
            },
            {
              "pitch": 62,
              "velocity": 85,
              "position": 2,
              "duration": 0.14583333333333334
            },
            {
              "pitch": 60,
              "velocity": 66,
              "position": 2.25,
              "duration": 0.3125
            },
            {
              "pitch": 62,
              "velocity": 69,
              "position": 2.5,
              "duration": 0.14583333333333334
            },
            {
              "pitch": 62,
              "velocity": 62,
              "position": 2.75,
              "duration": 0.08333333333333333
            },
            {
              "pitch": 64,
              "velocity": 90,
              "position": 2.75,
              "duration": 0.10416666666666667
            },
            {
              "pitch": 60,
              "velocity": 73,
              "position": 2.75,
              "duration": 0.10416666666666667
            },
            {
              "pitch": 67,
              "velocity": 72,
              "position": 2.75,
              "duration": 0.125
            },
            {
              "pitch": 67,
              "velocity": 69,
              "position": 3.25,
              "duration": 0.10416666666666667
            },
            {
              "pitch": 60,
              "velocity": 58,
              "position": 3.25,
              "duration": 0.125
            },
            {
              "pitch": 64,
              "velocity": 71,
              "position": 3.25,
              "duration": 0.125
            },
            {
              "pitch": 64,
              "velocity": 87,
              "position": 3.75,
              "duration": 0.10416666666666667
            },
            {
              "pitch": 60,
              "velocity": 73,
              "position": 3.75,
              "duration": 0.10416666666666667
            },
            {
              "pitch": 67,
              "velocity": 69,
              "position": 3.75,
              "duration": 0.10416666666666667
            },
            {
              "pitch": 72,
              "velocity": 43,
              "position": 4.25,
              "duration": 0.041666666666666664
            },
            {
              "pitch": 64,
              "velocity": 74,
              "position": 4.25,
              "duration": 0.08333333333333333
            },
            {
              "pitch": 60,
              "velocity": 77,
              "position": 4.75,
              "duration": 0.10416666666666667
            },
            {
              "pitch": 67,
              "velocity": 73,
              "position": 5,
              "duration": 0.08333333333333333
            },
            {
              "pitch": 64,
              "velocity": 69,
              "position": 5,
              "duration": 0.10416666666666667
            },
            {
              "pitch": 72,
              "velocity": 61,
              "position": 5,
              "duration": 0.10416666666666667
            },
            {
              "pitch": 67,
              "velocity": 58,
              "position": 5.5,
              "duration": 0.041666666666666664
            },
            {
              "pitch": 72,
              "velocity": 44,
              "position": 5.5,
              "duration": 0.0625
            },
            {
              "pitch": 64,
              "velocity": 65,
              "position": 5.5,
              "duration": 0.08333333333333333
            },
            {
              "pitch": 60,
              "velocity": 71,
              "position": 5.75,
              "duration": 0.08333333333333333
            },
            {
              "pitch": 64,
              "velocity": 70,
              "position": 6,
              "duration": 0.0625
            },
            {
              "pitch": 67,
              "velocity": 91,
              "position": 6,
              "duration": 0.125
            },
            {
              "pitch": 72,
              "velocity": 68,
              "position": 6,
              "duration": 0.16666666666666666
            },
            {
              "pitch": 64,
              "velocity": 60,
              "position": 6.25,
              "duration": 0.14583333333333334
            },
            {
              "pitch": 67,
              "velocity": 53,
              "position": 6.5,
              "duration": 0.08333333333333333
            },
            {
              "pitch": 67,
              "velocity": 72,
              "position": 6.75,
              "duration": 0.08333333333333333
            },
            {
              "pitch": 64,
              "velocity": 66,
              "position": 6.75,
              "duration": 0.10416666666666667
            },
            {
              "pitch": 72,
              "velocity": 67,
              "position": 6.75,
              "duration": 0.125
            },
            {
              "pitch": 67,
              "velocity": 53,
              "position": 7.25,
              "duration": 0.10416666666666667
            },
            {
              "pitch": 72,
              "velocity": 57,
              "position": 7.25,
              "duration": 0.125
            },
            {
              "pitch": 64,
              "velocity": 56,
              "position": 7.25,
              "duration": 0.125
            },
            {
              "pitch": 67,
              "velocity": 55,
              "position": 7.75,
              "duration": 0.08333333333333333
            },
            {
              "pitch": 64,
              "velocity": 58,
              "position": 7.75,
              "duration": 0.125
            },
            {
              "pitch": 72,
              "velocity": 62,
              "position": 7.75,
              "duration": 0.125
            },
            {
              "pitch": 60,
              "velocity": 48,
              "position": 8,
              "duration": 0.0625
            },
            {
              "pitch": 67,
              "velocity": 73,
              "position": 8.25,
              "duration": 0.08333333333333333
            },
            {
              "pitch": 64,
              "velocity": 64,
              "position": 8.25,
              "duration": 0.10416666666666667
            },
            {
              "pitch": 74,
              "velocity": 68,
              "position": 8.25,
              "duration": 0.10416666666666667
            },
            {
              "pitch": 60,
              "velocity": 52,
              "position": 8.75,
              "duration": 0.125
            },
            {
              "pitch": 67,
              "velocity": 64,
              "position": 9,
              "duration": 0.0625
            },
            {
              "pitch": 74,
              "velocity": 61,
              "position": 9,
              "duration": 0.10416666666666667
            },
            {
              "pitch": 64,
              "velocity": 62,
              "position": 9,
              "duration": 0.10416666666666667
            },
            {
              "pitch": 60,
              "velocity": 78,
              "position": 9.75,
              "duration": 0.041666666666666664
            },
            {
              "pitch": 70,
              "velocity": 67,
              "position": 10,
              "duration": 0.041666666666666664
            },
            {
              "pitch": 65,
              "velocity": 75,
              "position": 10,
              "duration": 0.08333333333333333
            },
            {
              "pitch": 67,
              "velocity": 98,
              "position": 10,
              "duration": 0.10416666666666667
            },
            {
              "pitch": 64,
              "velocity": 74,
              "position": 10,
              "duration": 0.125
            },
            {
              "pitch": 74,
              "velocity": 75,
              "position": 10,
              "duration": 0.16666666666666666
            },
            {
              "pitch": 64,
              "velocity": 49,
              "position": 10.25,
              "duration": 0.08333333333333333
            },
            {
              "pitch": 64,
              "velocity": 50,
              "position": 10.5,
              "duration": 0.0625
            },
            {
              "pitch": 67,
              "velocity": 68,
              "position": 10.5,
              "duration": 0.08333333333333333
            },
            {
              "pitch": 67,
              "velocity": 90,
              "position": 10.75,
              "duration": 0.08333333333333333
            },
            {
              "pitch": 64,
              "velocity": 67,
              "position": 10.75,
              "duration": 0.10416666666666667
            },
            {
              "pitch": 74,
              "velocity": 69,
              "position": 10.75,
              "duration": 0.125
            },
            {
              "pitch": 67,
              "velocity": 81,
              "position": 11.25,
              "duration": 0.08333333333333333
            },
            {
              "pitch": 74,
              "velocity": 64,
              "position": 11.25,
              "duration": 0.10416666666666667
            },
            {
              "pitch": 64,
              "velocity": 69,
              "position": 11.25,
              "duration": 0.125
            },
            {
              "pitch": 67,
              "velocity": 53,
              "position": 11.75,
              "duration": 0.08333333333333333
            },
            {
              "pitch": 74,
              "velocity": 62,
              "position": 11.75,
              "duration": 0.10416666666666667
            },
            {
              "pitch": 64,
              "velocity": 59,
              "position": 11.75,
              "duration": 0.125
            },
            {
              "pitch": 67,
              "velocity": 55,
              "position": 12.25,
              "duration": 0.10416666666666667
            },
            {
              "pitch": 74,
              "velocity": 61,
              "position": 12.25,
              "duration": 0.10416666666666667
            },
            {
              "pitch": 64,
              "velocity": 55,
              "position": 12.25,
              "duration": 0.125
            },
            {
              "pitch": 67,
              "velocity": 49,
              "position": 12.75,
              "duration": 0.08333333333333333
            },
            {
              "pitch": 74,
              "velocity": 43,
              "position": 12.75,
              "duration": 0.08333333333333333
            },
            {
              "pitch": 64,
              "velocity": 34,
              "position": 12.75,
              "duration": 0.10416666666666667
            },
            {
              "pitch": 67,
              "velocity": 57,
              "position": 13,
              "duration": 0.10416666666666667
            },
            {
              "pitch": 64,
              "velocity": 50,
              "position": 13,
              "duration": 0.125
            },
            {
              "pitch": 74,
              "velocity": 57,
              "position": 13,
              "duration": 0.14583333333333334
            },
            {
              "pitch": 67,
              "velocity": 84,
              "position": 13.5,
              "duration": 0.10416666666666667
            },
            {
              "pitch": 74,
              "velocity": 67,
              "position": 13.5,
              "duration": 0.125
            },
            {
              "pitch": 64,
              "velocity": 71,
              "position": 13.5,
              "duration": 0.125
            },
            {
              "pitch": 67,
              "velocity": 81,
              "position": 14,
              "duration": 0.10416666666666667
            },
            {
              "pitch": 64,
              "velocity": 69,
              "position": 14,
              "duration": 0.125
            },
            {
              "pitch": 74,
              "velocity": 66,
              "position": 14,
              "duration": 0.125
            },
            {
              "pitch": 60,
              "velocity": 36,
              "position": 14.25,
              "duration": 0.08333333333333333
            },
            {
              "pitch": 64,
              "velocity": 62,
              "position": 14.5,
              "duration": 0.16666666666666666
            },
            {
              "pitch": 67,
              "velocity": 91,
              "position": 14.75,
              "duration": 0.10416666666666667
            },
            {
              "pitch": 60,
              "velocity": 72,
              "position": 14.75,
              "duration": 0.10416666666666667
            },
            {
              "pitch": 74,
              "velocity": 71,
              "position": 14.75,
              "duration": 0.125
            },
            {
              "pitch": 64,
              "velocity": 73,
              "position": 14.75,
              "duration": 0.125
            },
            {
              "pitch": 67,
              "velocity": 84,
              "position": 15.25,
              "duration": 0.0625
            },
            {
              "pitch": 74,
              "velocity": 68,
              "position": 15.25,
              "duration": 0.08333333333333333
            },
            {
              "pitch": 64,
              "velocity": 75,
              "position": 15.25,
              "duration": 0.10416666666666667
            }
          ]
        },
        "4": {
          "ctab": {
            "srcChannel": 4,
            "name": "Chor.EP2",
            "accType": "PHRASE1",
            "editable": false,
            "mutedNotes": [],
            "mutedChords": [],
            "autoStart": false,
            "sourceChordNote": 0,
            "sourceChordType": "Maj7",
            "ctb2Low": null,
            "ctb2Main": {
              "ntr": "ROOT_FIXED",
              "ntt": "CHORD",
              "bassOn": false,
              "chordRootUpperLimit": 6,
              "noteLowLimit": 0,
              "noteHighLimit": 127,
              "rtr": "PITCH_SHIFT"
            },
            "ctb2High": null,
            "ctb2MiddleLowPitch": 0,
            "ctb2MiddleHighPitch": 127
          },
          "notes": [
            {
              "pitch": 64,
              "velocity": 90,
              "position": 0,
              "duration": 7.479166666666667
            },
            {
              "pitch": 67,
              "velocity": 90,
              "position": 0,
              "duration": 7.520833333333333
            },
            {
              "pitch": 59,
              "velocity": 94,
              "position": 0,
              "duration": 7.520833333333333
            },
            {
              "pitch": 59,
              "velocity": 90,
              "position": 8,
              "duration": 6.625
            },
            {
              "pitch": 64,
              "velocity": 90,
              "position": 8,
              "duration": 6.625
            },
            {
              "pitch": 67,
              "velocity": 91,
              "position": 8,
              "duration": 6.6875
            }
          ]
        },
        "8": {
          "ctab": {
            "srcChannel": 8,
            "name": "Std.Kit1",
            "accType": "RHYTHM",
            "editable": false,
            "mutedNotes": [],
            "mutedChords": [],
            "autoStart": true,
            "sourceChordNote": 0,
            "sourceChordType": "Maj7",
            "ctb2Low": null,
            "ctb2Main": {
              "ntr": "ROOT_FIXED",
              "ntt": "BYPASS",
              "bassOn": false,
              "chordRootUpperLimit": 6,
              "noteLowLimit": 0,
              "noteHighLimit": 127,
              "rtr": "PITCH_SHIFT"
            },
            "ctb2High": null,
            "ctb2MiddleLowPitch": 0,
            "ctb2MiddleHighPitch": 127
          },
          "notes": [
            {
              "pitch": 42,
              "velocity": 49,
              "position": 0.041666666666666664,
              "duration": 0.1875
            },
            {
              "pitch": 42,
              "velocity": 45,
              "position": 0.25,
              "duration": 0.10416666666666667
            },
            {
              "pitch": 36,
              "velocity": 84,
              "position": 0.041666666666666664,
              "duration": 0.4583333333333333
            },
            {
              "pitch": 44,
              "velocity": 38,
              "position": 0.5,
              "duration": 0.14583333333333334
            },
            {
              "pitch": 42,
              "velocity": 63,
              "position": 0.75,
              "duration": 0.08333333333333333
            },
            {
              "pitch": 36,
              "velocity": 67,
              "position": 0.75,
              "duration": 0.10416666666666667
            },
            {
              "pitch": 42,
              "velocity": 41,
              "position": 1,
              "duration": 0.08333333333333333
            },
            {
              "pitch": 42,
              "velocity": 36,
              "position": 1.25,
              "duration": 0.10416666666666667
            },
            {
              "pitch": 36,
              "velocity": 89,
              "position": 1,
              "duration": 0.5
            },
            {
              "pitch": 44,
              "velocity": 60,
              "position": 1.5,
              "duration": 0.14583333333333334
            },
            {
              "pitch": 42,
              "velocity": 15,
              "position": 1.75,
              "duration": 0.10416666666666667
            },
            {
              "pitch": 36,
              "velocity": 50,
              "position": 1.75,
              "duration": 0.10416666666666667
            },
            {
              "pitch": 42,
              "velocity": 76,
              "position": 2,
              "duration": 0.125
            },
            {
              "pitch": 42,
              "velocity": 37,
              "position": 2.25,
              "duration": 0.125
            },
            {
              "pitch": 42,
              "velocity": 45,
              "position": 2.5,
              "duration": 0.020833333333333332
            },
            {
              "pitch": 36,
              "velocity": 95,
              "position": 2,
              "duration": 0.5416666666666666
            },
            {
              "pitch": 44,
              "velocity": 78,
              "position": 2.5,
              "duration": 0.14583333333333334
            },
            {
              "pitch": 36,
              "velocity": 61,
              "position": 2.75,
              "duration": 0.08333333333333333
            },
            {
              "pitch": 42,
              "velocity": 50,
              "position": 2.75,
              "duration": 0.10416666666666667
            },
            {
              "pitch": 42,
              "velocity": 47,
              "position": 3,
              "duration": 0.14583333333333334
            },
            {
              "pitch": 42,
              "velocity": 71,
              "position": 3.25,
              "duration": 0.10416666666666667
            },
            {
              "pitch": 36,
              "velocity": 89,
              "position": 3,
              "duration": 0.4583333333333333
            },
            {
              "pitch": 44,
              "velocity": 72,
              "position": 3.5,
              "duration": 0.14583333333333334
            },
            {
              "pitch": 36,
              "velocity": 75,
              "position": 3.75,
              "duration": 0.08333333333333333
            },
            {
              "pitch": 42,
              "velocity": 63,
              "position": 3.75,
              "duration": 0.125
            },
            {
              "pitch": 42,
              "velocity": 52,
              "position": 4,
              "duration": 0.125
            },
            {
              "pitch": 42,
              "velocity": 76,
              "position": 4.25,
              "duration": 0.10416666666666667
            },
            {
              "pitch": 36,
              "velocity": 95,
              "position": 4,
              "duration": 0.4791666666666667
            },
            {
              "pitch": 44,
              "velocity": 66,
              "position": 4.5,
              "duration": 0.14583333333333334
            },
            {
              "pitch": 36,
              "velocity": 64,
              "position": 4.75,
              "duration": 0.08333333333333333
            },
            {
              "pitch": 42,
              "velocity": 63,
              "position": 4.75,
              "duration": 0.10416666666666667
            },
            {
              "pitch": 42,
              "velocity": 67,
              "position": 5,
              "duration": 0.125
            },
            {
              "pitch": 42,
              "velocity": 59,
              "position": 5.25,
              "duration": 0.125
            },
            {
              "pitch": 36,
              "velocity": 89,
              "position": 5,
              "duration": 0.4791666666666667
            },
            {
              "pitch": 44,
              "velocity": 66,
              "position": 5.5,
              "duration": 0.10416666666666667
            },
            {
              "pitch": 36,
              "velocity": 67,
              "position": 5.75,
              "duration": 0.0625
            },
            {
              "pitch": 42,
              "velocity": 40,
              "position": 5.75,
              "duration": 0.08333333333333333
            },
            {
              "pitch": 42,
              "velocity": 59,
              "position": 6,
              "duration": 0.125
            },
            {
              "pitch": 42,
              "velocity": 50,
              "position": 6.25,
              "duration": 0.10416666666666667
            },
            {
              "pitch": 36,
              "velocity": 95,
              "position": 6,
              "duration": 0.4375
            },
            {
              "pitch": 44,
              "velocity": 72,
              "position": 6.5,
              "duration": 0.14583333333333334
            },
            {
              "pitch": 36,
              "velocity": 61,
              "position": 6.75,
              "duration": 0.08333333333333333
            },
            {
              "pitch": 42,
              "velocity": 63,
              "position": 6.75,
              "duration": 0.125
            },
            {
              "pitch": 42,
              "velocity": 59,
              "position": 7,
              "duration": 0.08333333333333333
            },
            {
              "pitch": 42,
              "velocity": 71,
              "position": 7.25,
              "duration": 0.125
            },
            {
              "pitch": 36,
              "velocity": 89,
              "position": 7,
              "duration": 0.4375
            },
            {
              "pitch": 44,
              "velocity": 66,
              "position": 7.5,
              "duration": 0.14583333333333334
            },
            {
              "pitch": 36,
              "velocity": 67,
              "position": 7.75,
              "duration": 0.08333333333333333
            },
            {
              "pitch": 42,
              "velocity": 63,
              "position": 7.75,
              "duration": 0.10416666666666667
            },
            {
              "pitch": 42,
              "velocity": 55,
              "position": 8,
              "duration": 0.10416666666666667
            },
            {
              "pitch": 42,
              "velocity": 63,
              "position": 8.25,
              "duration": 0.125
            },
            {
              "pitch": 36,
              "velocity": 84,
              "position": 8,
              "duration": 0.4791666666666667
            },
            {
              "pitch": 44,
              "velocity": 66,
              "position": 8.5,
              "duration": 0.14583333333333334
            },
            {
              "pitch": 36,
              "velocity": 67,
              "position": 8.75,
              "duration": 0.0625
            },
            {
              "pitch": 42,
              "velocity": 52,
              "position": 8.75,
              "duration": 0.08333333333333333
            },
            {
              "pitch": 42,
              "velocity": 63,
              "position": 9,
              "duration": 0.10416666666666667
            },
            {
              "pitch": 42,
              "velocity": 38,
              "position": 9.25,
              "duration": 0.08333333333333333
            },
            {
              "pitch": 36,
              "velocity": 95,
              "position": 9,
              "duration": 0.4375
            },
            {
              "pitch": 44,
              "velocity": 72,
              "position": 9.5,
              "duration": 0.14583333333333334
            },
            {
              "pitch": 36,
              "velocity": 57,
              "position": 9.75,
              "duration": 0.0625
            },
            {
              "pitch": 42,
              "velocity": 45,
              "position": 9.75,
              "duration": 0.10416666666666667
            },
            {
              "pitch": 42,
              "velocity": 76,
              "position": 10,
              "duration": 0.125
            },
            {
              "pitch": 42,
              "velocity": 39,
              "position": 10.25,
              "duration": 0.10416666666666667
            },
            {
              "pitch": 36,
              "velocity": 89,
              "position": 10,
              "duration": 0.4583333333333333
            },
            {
              "pitch": 44,
              "velocity": 72,
              "position": 10.5,
              "duration": 0.14583333333333334
            },
            {
              "pitch": 36,
              "velocity": 50,
              "position": 10.75,
              "duration": 0.0625
            },
            {
              "pitch": 42,
              "velocity": 59,
              "position": 10.75,
              "duration": 0.10416666666666667
            },
            {
              "pitch": 42,
              "velocity": 63,
              "position": 11,
              "duration": 0.10416666666666667
            },
            {
              "pitch": 42,
              "velocity": 76,
              "position": 11.25,
              "duration": 0.14583333333333334
            },
            {
              "pitch": 36,
              "velocity": 95,
              "position": 11,
              "duration": 0.4583333333333333
            },
            {
              "pitch": 44,
              "velocity": 66,
              "position": 11.5,
              "duration": 0.14583333333333334
            },
            {
              "pitch": 36,
              "velocity": 61,
              "position": 11.75,
              "duration": 0.08333333333333333
            },
            {
              "pitch": 42,
              "velocity": 50,
              "position": 11.75,
              "duration": 0.125
            },
            {
              "pitch": 42,
              "velocity": 50,
              "position": 12,
              "duration": 0.08333333333333333
            },
            {
              "pitch": 42,
              "velocity": 50,
              "position": 12.25,
              "duration": 0.14583333333333334
            },
            {
              "pitch": 36,
              "velocity": 95,
              "position": 12,
              "duration": 0.4375
            },
            {
              "pitch": 44,
              "velocity": 66,
              "position": 12.5,
              "duration": 0.14583333333333334
            },
            {
              "pitch": 42,
              "velocity": 45,
              "position": 12.75,
              "duration": 0.08333333333333333
            },
            {
              "pitch": 36,
              "velocity": 64,
              "position": 12.75,
              "duration": 0.125
            },
            {
              "pitch": 42,
              "velocity": 50,
              "position": 13,
              "duration": 0.14583333333333334
            },
            {
              "pitch": 42,
              "velocity": 50,
              "position": 13.25,
              "duration": 0.14583333333333334
            },
            {
              "pitch": 36,
              "velocity": 89,
              "position": 13,
              "duration": 0.5208333333333334
            },
            {
              "pitch": 44,
              "velocity": 72,
              "position": 13.5,
              "duration": 0.125
            },
            {
              "pitch": 36,
              "velocity": 64,
              "position": 13.75,
              "duration": 0.10416666666666667
            },
            {
              "pitch": 42,
              "velocity": 33,
              "position": 13.75,
              "duration": 0.16666666666666666
            },
            {
              "pitch": 42,
              "velocity": 80,
              "position": 14,
              "duration": 0.10416666666666667
            },
            {
              "pitch": 46,
              "velocity": 95,
              "position": 14.25,
              "duration": 0.14583333333333334
            },
            {
              "pitch": 36,
              "velocity": 84,
              "position": 14,
              "duration": 0.4375
            },
            {
              "pitch": 42,
              "velocity": 40,
              "position": 14.5,
              "duration": 0.3125
            },
            {
              "pitch": 36,
              "velocity": 57,
              "position": 14.75,
              "duration": 0.10416666666666667
            },
            {
              "pitch": 46,
              "velocity": 83,
              "position": 14.75,
              "duration": 0.1875
            },
            {
              "pitch": 42,
              "velocity": 59,
              "position": 15,
              "duration": 0.125
            },
            {
              "pitch": 36,
              "velocity": 95,
              "position": 15,
              "duration": 0.3958333333333333
            },
            {
              "pitch": 46,
              "velocity": 95,
              "position": 15.25,
              "duration": 0.16666666666666666
            },
            {
              "pitch": 42,
              "velocity": 84,
              "position": 15.5,
              "duration": 0.10416666666666667
            },
            {
              "pitch": 42,
              "velocity": 76,
              "position": 15.75,
              "duration": 0.10416666666666667
            },
            {
              "pitch": 36,
              "velocity": 61,
              "position": 15.75,
              "duration": 0.10416666666666667
            }
          ]
        },
        "10": {
          "ctab": {
            "srcChannel": 10,
            "name": "Std.Kit1",
            "accType": "SUBRHYTHM",
            "editable": false,
            "mutedNotes": [],
            "mutedChords": [],
            "autoStart": true,
            "sourceChordNote": 0,
            "sourceChordType": "Maj7",
            "ctb2Low": null,
            "ctb2Main": {
              "ntr": "ROOT_FIXED",
              "ntt": "BYPASS",
              "bassOn": false,
              "chordRootUpperLimit": 6,
              "noteLowLimit": 0,
              "noteHighLimit": 127,
              "rtr": "PITCH_SHIFT"
            },
            "ctb2High": null,
            "ctb2MiddleLowPitch": 0,
            "ctb2MiddleHighPitch": 127
          },
          "notes": [
            {
              "pitch": 70,
              "velocity": 51,
              "position": 0.041666666666666664,
              "duration": 0.10416666666666667
            },
            {
              "pitch": 70,
              "velocity": 42,
              "position": 0.25,
              "duration": 0.10416666666666667
            },
            {
              "pitch": 70,
              "velocity": 90,
              "position": 0.5,
              "duration": 0.14583333333333334
            },
            {
              "pitch": 70,
              "velocity": 35,
              "position": 0.75,
              "duration": 0.10416666666666667
            },
            {
              "pitch": 70,
              "velocity": 47,
              "position": 1,
              "duration": 0.0625
            },
            {
              "pitch": 70,
              "velocity": 29,
              "position": 1.25,
              "duration": 0.125
            },
            {
              "pitch": 70,
              "velocity": 90,
              "position": 1.5,
              "duration": 0.125
            },
            {
              "pitch": 70,
              "velocity": 35,
              "position": 1.75,
              "duration": 0.125
            },
            {
              "pitch": 70,
              "velocity": 55,
              "position": 2,
              "duration": 0.10416666666666667
            },
            {
              "pitch": 70,
              "velocity": 36,
              "position": 2.25,
              "duration": 0.125
            },
            {
              "pitch": 70,
              "velocity": 107,
              "position": 2.5,
              "duration": 0.125
            },
            {
              "pitch": 70,
              "velocity": 44,
              "position": 2.75,
              "duration": 0.10416666666666667
            },
            {
              "pitch": 70,
              "velocity": 44,
              "position": 3,
              "duration": 0.08333333333333333
            },
            {
              "pitch": 70,
              "velocity": 42,
              "position": 3.25,
              "duration": 0.125
            },
            {
              "pitch": 70,
              "velocity": 90,
              "position": 3.5,
              "duration": 0.125
            },
            {
              "pitch": 70,
              "velocity": 40,
              "position": 3.75,
              "duration": 0.10416666666666667
            },
            {
              "pitch": 70,
              "velocity": 51,
              "position": 4,
              "duration": 0.0625
            },
            {
              "pitch": 70,
              "velocity": 44,
              "position": 4.25,
              "duration": 0.10416666666666667
            },
            {
              "pitch": 70,
              "velocity": 107,
              "position": 4.5,
              "duration": 0.125
            },
            {
              "pitch": 70,
              "velocity": 40,
              "position": 4.75,
              "duration": 0.125
            },
            {
              "pitch": 70,
              "velocity": 51,
              "position": 5,
              "duration": 0.10416666666666667
            },
            {
              "pitch": 70,
              "velocity": 42,
              "position": 5.25,
              "duration": 0.125
            },
            {
              "pitch": 70,
              "velocity": 107,
              "position": 5.5,
              "duration": 0.10416666666666667
            },
            {
              "pitch": 70,
              "velocity": 71,
              "position": 6,
              "duration": 0.08333333333333333
            },
            {
              "pitch": 70,
              "velocity": 39,
              "position": 6.25,
              "duration": 0.08333333333333333
            },
            {
              "pitch": 70,
              "velocity": 24,
              "position": 6.5,
              "duration": 0.10416666666666667
            },
            {
              "pitch": 70,
              "velocity": 55,
              "position": 7,
              "duration": 0.0625
            },
            {
              "pitch": 70,
              "velocity": 58,
              "position": 7.25,
              "duration": 0.0625
            },
            {
              "pitch": 70,
              "velocity": 127,
              "position": 7.5,
              "duration": 0.10416666666666667
            },
            {
              "pitch": 70,
              "velocity": 66,
              "position": 10,
              "duration": 0.10416666666666667
            },
            {
              "pitch": 70,
              "velocity": 30,
              "position": 10.25,
              "duration": 0.10416666666666667
            },
            {
              "pitch": 70,
              "velocity": 90,
              "position": 10.5,
              "duration": 0.14583333333333334
            },
            {
              "pitch": 70,
              "velocity": 36,
              "position": 10.75,
              "duration": 0.10416666666666667
            },
            {
              "pitch": 70,
              "velocity": 51,
              "position": 11,
              "duration": 0.125
            },
            {
              "pitch": 70,
              "velocity": 36,
              "position": 11.25,
              "duration": 0.08333333333333333
            },
            {
              "pitch": 70,
              "velocity": 90,
              "position": 11.5,
              "duration": 0.125
            },
            {
              "pitch": 70,
              "velocity": 31,
              "position": 11.75,
              "duration": 0.10416666666666667
            },
            {
              "pitch": 70,
              "velocity": 55,
              "position": 12,
              "duration": 0.10416666666666667
            },
            {
              "pitch": 70,
              "velocity": 35,
              "position": 12.25,
              "duration": 0.08333333333333333
            },
            {
              "pitch": 70,
              "velocity": 98,
              "position": 12.5,
              "duration": 0.14583333333333334
            },
            {
              "pitch": 70,
              "velocity": 36,
              "position": 12.75,
              "duration": 0.10416666666666667
            },
            {
              "pitch": 70,
              "velocity": 55,
              "position": 13,
              "duration": 0.08333333333333333
            },
            {
              "pitch": 70,
              "velocity": 36,
              "position": 13.25,
              "duration": 0.10416666666666667
            },
            {
              "pitch": 70,
              "velocity": 85,
              "position": 13.5,
              "duration": 0.10416666666666667
            },
            {
              "pitch": 70,
              "velocity": 35,
              "position": 13.75,
              "duration": 0.10416666666666667
            },
            {
              "pitch": 70,
              "velocity": 58,
              "position": 14,
              "duration": 0.10416666666666667
            },
            {
              "pitch": 70,
              "velocity": 35,
              "position": 14.25,
              "duration": 0.14583333333333334
            },
            {
              "pitch": 70,
              "velocity": 77,
              "position": 14.5,
              "duration": 0.10416666666666667
            },
            {
              "pitch": 70,
              "velocity": 37,
              "position": 14.75,
              "duration": 0.125
            },
            {
              "pitch": 70,
              "velocity": 71,
              "position": 15,
              "duration": 0.10416666666666667
            },
            {
              "pitch": 70,
              "velocity": 42,
              "position": 15.25,
              "duration": 0.125
            },
            {
              "pitch": 70,
              "velocity": 71,
              "position": 15.5,
              "duration": 0.10416666666666667
            },
            {
              "pitch": 70,
              "velocity": 42,
              "position": 15.75,
              "duration": 0.10416666666666667
            }
          ]
        },
        "12": {
          "ctab": {
            "srcChannel": 12,
            "name": "FngrBass",
            "accType": "BASS",
            "editable": false,
            "mutedNotes": [],
            "mutedChords": [],
            "autoStart": false,
            "sourceChordNote": 0,
            "sourceChordType": "Maj7",
            "ctb2Low": null,
            "ctb2Main": {
              "ntr": "ROOT_TRANSPOSITION",
              "ntt": "MELODY",
              "bassOn": true,
              "chordRootUpperLimit": 3,
              "noteLowLimit": 28,
              "noteHighLimit": 54,
              "rtr": "PITCH_SHIFT_TO_ROOT"
            },
            "ctb2High": null,
            "ctb2MiddleLowPitch": 0,
            "ctb2MiddleHighPitch": 127
          },
          "notes": [
            {
              "pitch": 36,
              "velocity": 79,
              "position": 0,
              "duration": 0.16666666666666666
            },
            {
              "pitch": 36,
              "velocity": 79,
              "position": 0.75,
              "duration": 0.0625
            },
            {
              "pitch": 31,
              "velocity": 75,
              "position": 1,
              "duration": 0.6666666666666666
            },
            {
              "pitch": 31,
              "velocity": 32,
              "position": 1.75,
              "duration": 0.20833333333333334
            },
            {
              "pitch": 36,
              "velocity": 58,
              "position": 2,
              "duration": 0.16666666666666666
            },
            {
              "pitch": 36,
              "velocity": 58,
              "position": 2.75,
              "duration": 0.041666666666666664
            },
            {
              "pitch": 31,
              "velocity": 79,
              "position": 3,
              "duration": 0.5833333333333334
            },
            {
              "pitch": 31,
              "velocity": 45,
              "position": 3.75,
              "duration": 0.1875
            },
            {
              "pitch": 36,
              "velocity": 36,
              "position": 4,
              "duration": 0.14583333333333334
            },
            {
              "pitch": 36,
              "velocity": 58,
              "position": 4.75,
              "duration": 0.0625
            },
            {
              "pitch": 31,
              "velocity": 79,
              "position": 5,
              "duration": 0.5625
            },
            {
              "pitch": 31,
              "velocity": 45,
              "position": 5.75,
              "duration": 0.16666666666666666
            },
            {
              "pitch": 36,
              "velocity": 48,
              "position": 6,
              "duration": 0.10416666666666667
            },
            {
              "pitch": 36,
              "velocity": 70,
              "position": 6.75,
              "duration": 0.041666666666666664
            },
            {
              "pitch": 31,
              "velocity": 79,
              "position": 7,
              "duration": 0.5833333333333334
            },
            {
              "pitch": 31,
              "velocity": 53,
              "position": 7.75,
              "duration": 0.1875
            },
            {
              "pitch": 36,
              "velocity": 38,
              "position": 8,
              "duration": 0.125
            },
            {
              "pitch": 36,
              "velocity": 68,
              "position": 8.75,
              "duration": 0.0625
            },
            {
              "pitch": 31,
              "velocity": 79,
              "position": 9,
              "duration": 0.5416666666666666
            },
            {
              "pitch": 31,
              "velocity": 51,
              "position": 9.75,
              "duration": 0.1875
            },
            {
              "pitch": 36,
              "velocity": 41,
              "position": 10,
              "duration": 0.14583333333333334
            },
            {
              "pitch": 36,
              "velocity": 68,
              "position": 10.75,
              "duration": 0.041666666666666664
            },
            {
              "pitch": 31,
              "velocity": 79,
              "position": 11,
              "duration": 0.5416666666666666
            },
            {
              "pitch": 31,
              "velocity": 48,
              "position": 11.75,
              "duration": 0.1875
            },
            {
              "pitch": 36,
              "velocity": 53,
              "position": 12,
              "duration": 0.10416666666666667
            },
            {
              "pitch": 36,
              "velocity": 79,
              "position": 12.75,
              "duration": 0.0625
            },
            {
              "pitch": 31,
              "velocity": 79,
              "position": 13,
              "duration": 0.5208333333333334
            },
            {
              "pitch": 31,
              "velocity": 58,
              "position": 13.75,
              "duration": 0.14583333333333334
            },
            {
              "pitch": 36,
              "velocity": 54,
              "position": 14,
              "duration": 0.10416666666666667
            },
            {
              "pitch": 36,
              "velocity": 79,
              "position": 14.75,
              "duration": 0.0625
            },
            {
              "pitch": 31,
              "velocity": 75,
              "position": 15,
              "duration": 0.6875
            },
            {
              "pitch": 38,
              "velocity": 79,
              "position": 15.75,
              "duration": 0.08333333333333333
            }
          ]
        },
        "14": {
          "ctab": {
            "srcChannel": 14,
            "name": "E.Grand",
            "accType": "CHORD1",
            "editable": false,
            "mutedNotes": [],
            "mutedChords": [],
            "autoStart": false,
            "sourceChordNote": 0,
            "sourceChordType": "Maj7",
            "ctb2Low": null,
            "ctb2Main": {
              "ntr": "ROOT_TRANSPOSITION",
              "ntt": "CHORD",
              "bassOn": false,
              "chordRootUpperLimit": 6,
              "noteLowLimit": 0,
              "noteHighLimit": 127,
              "rtr": "PITCH_SHIFT"
            },
            "ctb2High": null,
            "ctb2MiddleLowPitch": 0,
            "ctb2MiddleHighPitch": 127
          },
          "notes": [
            {
              "pitch": 59,
              "velocity": 92,
              "position": 0.5,
              "duration": 0.3958333333333333
            },
            {
              "pitch": 74,
              "velocity": 92,
              "position": 0.5,
              "duration": 0.5208333333333334
            },
            {
              "pitch": 67,
              "velocity": 74,
              "position": 0.5,
              "duration": 0.5416666666666666
            },
            {
              "pitch": 64,
              "velocity": 70,
              "position": 0.5,
              "duration": 0.5625
            },
            {
              "pitch": 64,
              "velocity": 88,
              "position": 1.5,
              "duration": 0.10416666666666667
            },
            {
              "pitch": 59,
              "velocity": 70,
              "position": 1.5,
              "duration": 0.125
            },
            {
              "pitch": 67,
              "velocity": 110,
              "position": 1.5,
              "duration": 0.125
            },
            {
              "pitch": 64,
              "velocity": 72,
              "position": 2,
              "duration": 0.08333333333333333
            },
            {
              "pitch": 67,
              "velocity": 80,
              "position": 2,
              "duration": 0.10416666666666667
            },
            {
              "pitch": 67,
              "velocity": 122,
              "position": 2.5,
              "duration": 0.125
            },
            {
              "pitch": 59,
              "velocity": 84,
              "position": 2.5,
              "duration": 0.14583333333333334
            },
            {
              "pitch": 64,
              "velocity": 92,
              "position": 2.5,
              "duration": 0.16666666666666666
            },
            {
              "pitch": 74,
              "velocity": 110,
              "position": 2.5,
              "duration": 0.1875
            },
            {
              "pitch": 64,
              "velocity": 74,
              "position": 3.25,
              "duration": 0.08333333333333333
            },
            {
              "pitch": 67,
              "velocity": 93,
              "position": 3.25,
              "duration": 0.10416666666666667
            },
            {
              "pitch": 59,
              "velocity": 62,
              "position": 3.25,
              "duration": 0.10416666666666667
            },
            {
              "pitch": 67,
              "velocity": 71,
              "position": 3.75,
              "duration": 0.125
            },
            {
              "pitch": 64,
              "velocity": 70,
              "position": 3.75,
              "duration": 0.125
            },
            {
              "pitch": 59,
              "velocity": 61,
              "position": 3.75,
              "duration": 0.14583333333333334
            },
            {
              "pitch": 67,
              "velocity": 126,
              "position": 4.25,
              "duration": 0.10416666666666667
            },
            {
              "pitch": 64,
              "velocity": 95,
              "position": 4.25,
              "duration": 0.125
            },
            {
              "pitch": 74,
              "velocity": 96,
              "position": 4.25,
              "duration": 0.125
            },
            {
              "pitch": 59,
              "velocity": 106,
              "position": 4.25,
              "duration": 0.14583333333333334
            },
            {
              "pitch": 67,
              "velocity": 79,
              "position": 5,
              "duration": 0.10416666666666667
            },
            {
              "pitch": 64,
              "velocity": 76,
              "position": 5,
              "duration": 0.125
            },
            {
              "pitch": 64,
              "velocity": 79,
              "position": 5.5,
              "duration": 0.10416666666666667
            },
            {
              "pitch": 67,
              "velocity": 97,
              "position": 5.5,
              "duration": 0.10416666666666667
            },
            {
              "pitch": 59,
              "velocity": 72,
              "position": 5.5,
              "duration": 0.14583333333333334
            },
            {
              "pitch": 64,
              "velocity": 52,
              "position": 6,
              "duration": 0.0625
            },
            {
              "pitch": 67,
              "velocity": 61,
              "position": 6,
              "duration": 0.0625
            },
            {
              "pitch": 59,
              "velocity": 89,
              "position": 6,
              "duration": 0.10416666666666667
            },
            {
              "pitch": 59,
              "velocity": 70,
              "position": 6.5,
              "duration": 0.0625
            },
            {
              "pitch": 74,
              "velocity": 64,
              "position": 6.5,
              "duration": 0.08333333333333333
            },
            {
              "pitch": 67,
              "velocity": 104,
              "position": 6.5,
              "duration": 0.10416666666666667
            },
            {
              "pitch": 64,
              "velocity": 89,
              "position": 6.5,
              "duration": 0.125
            },
            {
              "pitch": 59,
              "velocity": 48,
              "position": 7.25,
              "duration": 0.10416666666666667
            },
            {
              "pitch": 67,
              "velocity": 87,
              "position": 7.25,
              "duration": 0.10416666666666667
            },
            {
              "pitch": 64,
              "velocity": 78,
              "position": 7.25,
              "duration": 0.10416666666666667
            },
            {
              "pitch": 67,
              "velocity": 72,
              "position": 7.75,
              "duration": 0.10416666666666667
            },
            {
              "pitch": 64,
              "velocity": 72,
              "position": 7.75,
              "duration": 0.125
            },
            {
              "pitch": 59,
              "velocity": 75,
              "position": 7.75,
              "duration": 0.125
            },
            {
              "pitch": 74,
              "velocity": 95,
              "position": 8.25,
              "duration": 0.3958333333333333
            },
            {
              "pitch": 67,
              "velocity": 106,
              "position": 8.25,
              "duration": 0.4375
            },
            {
              "pitch": 59,
              "velocity": 110,
              "position": 8.25,
              "duration": 0.4375
            },
            {
              "pitch": 64,
              "velocity": 87,
              "position": 8.25,
              "duration": 0.4583333333333333
            },
            {
              "pitch": 55,
              "velocity": 70,
              "position": 8.75,
              "duration": 0.16666666666666666
            },
            {
              "pitch": 59,
              "velocity": 77,
              "position": 9,
              "duration": 0.08333333333333333
            },
            {
              "pitch": 64,
              "velocity": 66,
              "position": 9,
              "duration": 0.10416666666666667
            },
            {
              "pitch": 67,
              "velocity": 72,
              "position": 9,
              "duration": 0.125
            },
            {
              "pitch": 67,
              "velocity": 93,
              "position": 9.5,
              "duration": 0.125
            },
            {
              "pitch": 64,
              "velocity": 79,
              "position": 9.5,
              "duration": 0.125
            },
            {
              "pitch": 59,
              "velocity": 110,
              "position": 9.5,
              "duration": 0.14583333333333334
            },
            {
              "pitch": 67,
              "velocity": 88,
              "position": 10,
              "duration": 0.14583333333333334
            },
            {
              "pitch": 64,
              "velocity": 82,
              "position": 10,
              "duration": 0.16666666666666666
            },
            {
              "pitch": 67,
              "velocity": 127,
              "position": 10.5,
              "duration": 0.10416666666666667
            },
            {
              "pitch": 74,
              "velocity": 97,
              "position": 10.5,
              "duration": 0.125
            },
            {
              "pitch": 64,
              "velocity": 106,
              "position": 10.5,
              "duration": 0.125
            },
            {
              "pitch": 59,
              "velocity": 72,
              "position": 11,
              "duration": 0.125
            },
            {
              "pitch": 59,
              "velocity": 65,
              "position": 11.25,
              "duration": 0.10416666666666667
            },
            {
              "pitch": 67,
              "velocity": 69,
              "position": 11.25,
              "duration": 0.125
            },
            {
              "pitch": 64,
              "velocity": 63,
              "position": 11.25,
              "duration": 0.14583333333333334
            },
            {
              "pitch": 67,
              "velocity": 82,
              "position": 11.75,
              "duration": 0.125
            },
            {
              "pitch": 59,
              "velocity": 89,
              "position": 11.75,
              "duration": 0.125
            },
            {
              "pitch": 64,
              "velocity": 80,
              "position": 11.75,
              "duration": 0.125
            },
            {
              "pitch": 67,
              "velocity": 116,
              "position": 12.25,
              "duration": 0.125
            },
            {
              "pitch": 64,
              "velocity": 96,
              "position": 12.25,
              "duration": 0.14583333333333334
            },
            {
              "pitch": 74,
              "velocity": 106,
              "position": 12.25,
              "duration": 0.14583333333333334
            },
            {
              "pitch": 59,
              "velocity": 80,
              "position": 12.75,
              "duration": 0.10416666666666667
            },
            {
              "pitch": 67,
              "velocity": 64,
              "position": 13,
              "duration": 0.08333333333333333
            },
            {
              "pitch": 64,
              "velocity": 63,
              "position": 13,
              "duration": 0.10416666666666667
            },
            {
              "pitch": 59,
              "velocity": 84,
              "position": 13,
              "duration": 0.125
            },
            {
              "pitch": 67,
              "velocity": 74,
              "position": 13.5,
              "duration": 0.125
            },
            {
              "pitch": 64,
              "velocity": 73,
              "position": 13.5,
              "duration": 0.125
            },
            {
              "pitch": 59,
              "velocity": 82,
              "position": 13.75,
              "duration": 0.10416666666666667
            },
            {
              "pitch": 74,
              "velocity": 92,
              "position": 14,
              "duration": 0.08333333333333333
            },
            {
              "pitch": 67,
              "velocity": 111,
              "position": 14,
              "duration": 0.10416666666666667
            },
            {
              "pitch": 64,
              "velocity": 91,
              "position": 14,
              "duration": 0.125
            },
            {
              "pitch": 59,
              "velocity": 57,
              "position": 14.5,
              "duration": 0.125
            },
            {
              "pitch": 67,
              "velocity": 88,
              "position": 14.75,
              "duration": 0.10416666666666667
            },
            {
              "pitch": 74,
              "velocity": 72,
              "position": 14.75,
              "duration": 0.125
            },
            {
              "pitch": 64,
              "velocity": 85,
              "position": 14.75,
              "duration": 0.14583333333333334
            },
            {
              "pitch": 74,
              "velocity": 66,
              "position": 15.25,
              "duration": 0.0625
            },
            {
              "pitch": 67,
              "velocity": 80,
              "position": 15.25,
              "duration": 0.10416666666666667
            },
            {
              "pitch": 59,
              "velocity": 74,
              "position": 15.25,
              "duration": 0.10416666666666667
            },
            {
              "pitch": 64,
              "velocity": 80,
              "position": 15.25,
              "duration": 0.10416666666666667
            },
            {
              "pitch": 67,
              "velocity": 106,
              "position": 15.75,
              "duration": 0.10416666666666667
            },
            {
              "pitch": 59,
              "velocity": 83,
              "position": 15.75,
              "duration": 0.10416666666666667
            },
            {
              "pitch": 64,
              "velocity": 93,
              "position": 15.75,
              "duration": 0.125
            },
            {
              "pitch": 74,
              "velocity": 89,
              "position": 15.75,
              "duration": 0.125
            }
          ]
        }
      }
    },
    "Main_C": {
      "type": "Main_C",
      "sizeInBeats": 16,
      "channels": {
        "0": {
          "ctab": {
            "srcChannel": 0,
            "name": "NylonGtr",
            "accType": "CHORD2",
            "editable": false,
            "mutedNotes": [],
            "mutedChords": [],
            "autoStart": false,
            "sourceChordNote": 0,
            "sourceChordType": "Maj7",
            "ctb2Low": null,
            "ctb2Main": {
              "ntr": "ROOT_TRANSPOSITION",
              "ntt": "CHORD",
              "bassOn": false,
              "chordRootUpperLimit": 6,
              "noteLowLimit": 0,
              "noteHighLimit": 127,
              "rtr": "PITCH_SHIFT"
            },
            "ctb2High": null,
            "ctb2MiddleLowPitch": 0,
            "ctb2MiddleHighPitch": 127
          },
          "notes": [
            {
              "pitch": 52,
              "velocity": 78,
              "position": 0.5,
              "duration": 0.3541666666666667
            },
            {
              "pitch": 62,
              "velocity": 72,
              "position": 0.5,
              "duration": 0.3541666666666667
            },
            {
              "pitch": 55,
              "velocity": 90,
              "position": 0.5,
              "duration": 0.3541666666666667
            },
            {
              "pitch": 62,
              "velocity": 57,
              "position": 1,
              "duration": 0.0625
            },
            {
              "pitch": 55,
              "velocity": 55,
              "position": 1,
              "duration": 0.10416666666666667
            },
            {
              "pitch": 52,
              "velocity": 45,
              "position": 1,
              "duration": 0.10416666666666667
            },
            {
              "pitch": 55,
              "velocity": 87,
              "position": 1.5,
              "duration": 0.08333333333333333
            },
            {
              "pitch": 52,
              "velocity": 70,
              "position": 1.5,
              "duration": 0.08333333333333333
            },
            {
              "pitch": 62,
              "velocity": 61,
              "position": 1.5,
              "duration": 0.10416666666666667
            },
            {
              "pitch": 52,
              "velocity": 77,
              "position": 2,
              "duration": 0.08333333333333333
            },
            {
              "pitch": 55,
              "velocity": 100,
              "position": 2,
              "duration": 0.10416666666666667
            },
            {
              "pitch": 62,
              "velocity": 75,
              "position": 2,
              "duration": 0.14583333333333334
            },
            {
              "pitch": 52,
              "velocity": 64,
              "position": 2.25,
              "duration": 0.14583333333333334
            },
            {
              "pitch": 55,
              "velocity": 71,
              "position": 2.5,
              "duration": 0.0625
            },
            {
              "pitch": 52,
              "velocity": 52,
              "position": 2.5,
              "duration": 0.08333333333333333
            },
            {
              "pitch": 58,
              "velocity": 66,
              "position": 2.75,
              "duration": 0.020833333333333332
            },
            {
              "pitch": 55,
              "velocity": 94,
              "position": 2.75,
              "duration": 0.0625
            },
            {
              "pitch": 52,
              "velocity": 74,
              "position": 2.75,
              "duration": 0.08333333333333333
            },
            {
              "pitch": 62,
              "velocity": 74,
              "position": 2.75,
              "duration": 0.10416666666666667
            },
            {
              "pitch": 62,
              "velocity": 71,
              "position": 3.25,
              "duration": 0.10416666666666667
            },
            {
              "pitch": 52,
              "velocity": 77,
              "position": 3.25,
              "duration": 0.10416666666666667
            },
            {
              "pitch": 55,
              "velocity": 94,
              "position": 3.25,
              "duration": 0.10416666666666667
            },
            {
              "pitch": 52,
              "velocity": 84,
              "position": 3.75,
              "duration": 0.10416666666666667
            },
            {
              "pitch": 62,
              "velocity": 71,
              "position": 3.75,
              "duration": 0.10416666666666667
            },
            {
              "pitch": 55,
              "velocity": 94,
              "position": 3.75,
              "duration": 0.10416666666666667
            },
            {
              "pitch": 55,
              "velocity": 100,
              "position": 4.25,
              "duration": 0.10416666666666667
            },
            {
              "pitch": 62,
              "velocity": 73,
              "position": 4.25,
              "duration": 0.10416666666666667
            },
            {
              "pitch": 52,
              "velocity": 85,
              "position": 4.25,
              "duration": 0.125
            },
            {
              "pitch": 48,
              "velocity": 69,
              "position": 4.5,
              "duration": 0.08333333333333333
            },
            {
              "pitch": 48,
              "velocity": 73,
              "position": 4.75,
              "duration": 0.08333333333333333
            },
            {
              "pitch": 55,
              "velocity": 94,
              "position": 5,
              "duration": 0.0625
            },
            {
              "pitch": 52,
              "velocity": 85,
              "position": 5,
              "duration": 0.0625
            },
            {
              "pitch": 62,
              "velocity": 67,
              "position": 5,
              "duration": 0.08333333333333333
            },
            {
              "pitch": 55,
              "velocity": 74,
              "position": 5.5,
              "duration": 0.041666666666666664
            },
            {
              "pitch": 52,
              "velocity": 69,
              "position": 5.5,
              "duration": 0.0625
            },
            {
              "pitch": 48,
              "velocity": 57,
              "position": 5.75,
              "duration": 0.10416666666666667
            },
            {
              "pitch": 52,
              "velocity": 77,
              "position": 6,
              "duration": 0.0625
            },
            {
              "pitch": 55,
              "velocity": 100,
              "position": 6,
              "duration": 0.08333333333333333
            },
            {
              "pitch": 62,
              "velocity": 73,
              "position": 6,
              "duration": 0.10416666666666667
            },
            {
              "pitch": 48,
              "velocity": 73,
              "position": 6.25,
              "duration": 0.10416666666666667
            },
            {
              "pitch": 52,
              "velocity": 85,
              "position": 6.5,
              "duration": 0.08333333333333333
            },
            {
              "pitch": 55,
              "velocity": 100,
              "position": 6.75,
              "duration": 0.08333333333333333
            },
            {
              "pitch": 52,
              "velocity": 84,
              "position": 6.75,
              "duration": 0.10416666666666667
            },
            {
              "pitch": 62,
              "velocity": 84,
              "position": 6.75,
              "duration": 0.10416666666666667
            },
            {
              "pitch": 48,
              "velocity": 61,
              "position": 7,
              "duration": 0.041666666666666664
            },
            {
              "pitch": 55,
              "velocity": 97,
              "position": 7.25,
              "duration": 0.08333333333333333
            },
            {
              "pitch": 52,
              "velocity": 85,
              "position": 7.25,
              "duration": 0.10416666666666667
            },
            {
              "pitch": 62,
              "velocity": 65,
              "position": 7.25,
              "duration": 0.10416666666666667
            },
            {
              "pitch": 48,
              "velocity": 55,
              "position": 7.5,
              "duration": 0.0625
            },
            {
              "pitch": 55,
              "velocity": 81,
              "position": 7.75,
              "duration": 0.0625
            },
            {
              "pitch": 52,
              "velocity": 70,
              "position": 7.75,
              "duration": 0.10416666666666667
            },
            {
              "pitch": 62,
              "velocity": 57,
              "position": 7.75,
              "duration": 0.10416666666666667
            },
            {
              "pitch": 48,
              "velocity": 82,
              "position": 8,
              "duration": 0.08333333333333333
            },
            {
              "pitch": 55,
              "velocity": 94,
              "position": 8.25,
              "duration": 0.0625
            },
            {
              "pitch": 52,
              "velocity": 73,
              "position": 8.25,
              "duration": 0.08333333333333333
            },
            {
              "pitch": 62,
              "velocity": 57,
              "position": 8.25,
              "duration": 0.08333333333333333
            },
            {
              "pitch": 55,
              "velocity": 100,
              "position": 8.5,
              "duration": 0.0625
            },
            {
              "pitch": 52,
              "velocity": 87,
              "position": 8.5,
              "duration": 0.0625
            },
            {
              "pitch": 62,
              "velocity": 85,
              "position": 8.5,
              "duration": 0.10416666666666667
            },
            {
              "pitch": 48,
              "velocity": 62,
              "position": 8.75,
              "duration": 0.08333333333333333
            },
            {
              "pitch": 55,
              "velocity": 88,
              "position": 9,
              "duration": 0.041666666666666664
            },
            {
              "pitch": 52,
              "velocity": 81,
              "position": 9,
              "duration": 0.08333333333333333
            },
            {
              "pitch": 62,
              "velocity": 64,
              "position": 9,
              "duration": 0.08333333333333333
            },
            {
              "pitch": 55,
              "velocity": 97,
              "position": 9.5,
              "duration": 0.0625
            },
            {
              "pitch": 52,
              "velocity": 87,
              "position": 9.5,
              "duration": 0.08333333333333333
            },
            {
              "pitch": 62,
              "velocity": 74,
              "position": 9.5,
              "duration": 0.10416666666666667
            },
            {
              "pitch": 48,
              "velocity": 53,
              "position": 9.75,
              "duration": 0.041666666666666664
            },
            {
              "pitch": 55,
              "velocity": 90,
              "position": 10,
              "duration": 0.0625
            },
            {
              "pitch": 62,
              "velocity": 69,
              "position": 10,
              "duration": 0.08333333333333333
            },
            {
              "pitch": 48,
              "velocity": 66,
              "position": 10.25,
              "duration": 0.0625
            },
            {
              "pitch": 55,
              "velocity": 74,
              "position": 10.5,
              "duration": 0.041666666666666664
            },
            {
              "pitch": 52,
              "velocity": 90,
              "position": 10.5,
              "duration": 0.10416666666666667
            },
            {
              "pitch": 55,
              "velocity": 100,
              "position": 10.75,
              "duration": 0.0625
            },
            {
              "pitch": 52,
              "velocity": 85,
              "position": 10.75,
              "duration": 0.0625
            },
            {
              "pitch": 62,
              "velocity": 78,
              "position": 10.75,
              "duration": 0.08333333333333333
            },
            {
              "pitch": 48,
              "velocity": 57,
              "position": 11,
              "duration": 0.0625
            },
            {
              "pitch": 55,
              "velocity": 94,
              "position": 11.25,
              "duration": 0.10416666666666667
            },
            {
              "pitch": 52,
              "velocity": 84,
              "position": 11.25,
              "duration": 0.10416666666666667
            },
            {
              "pitch": 62,
              "velocity": 67,
              "position": 11.25,
              "duration": 0.125
            },
            {
              "pitch": 48,
              "velocity": 75,
              "position": 11.5,
              "duration": 0.041666666666666664
            },
            {
              "pitch": 55,
              "velocity": 94,
              "position": 11.75,
              "duration": 0.0625
            },
            {
              "pitch": 62,
              "velocity": 60,
              "position": 11.75,
              "duration": 0.08333333333333333
            },
            {
              "pitch": 52,
              "velocity": 81,
              "position": 11.75,
              "duration": 0.10416666666666667
            },
            {
              "pitch": 48,
              "velocity": 84,
              "position": 12,
              "duration": 0.10416666666666667
            },
            {
              "pitch": 55,
              "velocity": 88,
              "position": 12.25,
              "duration": 0.08333333333333333
            },
            {
              "pitch": 52,
              "velocity": 77,
              "position": 12.25,
              "duration": 0.08333333333333333
            },
            {
              "pitch": 62,
              "velocity": 75,
              "position": 12.25,
              "duration": 0.125
            },
            {
              "pitch": 48,
              "velocity": 51,
              "position": 12.5,
              "duration": 0.125
            },
            {
              "pitch": 55,
              "velocity": 87,
              "position": 12.75,
              "duration": 0.08333333333333333
            },
            {
              "pitch": 62,
              "velocity": 55,
              "position": 12.75,
              "duration": 0.08333333333333333
            },
            {
              "pitch": 52,
              "velocity": 70,
              "position": 12.75,
              "duration": 0.08333333333333333
            },
            {
              "pitch": 55,
              "velocity": 90,
              "position": 13,
              "duration": 0.041666666666666664
            },
            {
              "pitch": 52,
              "velocity": 77,
              "position": 13,
              "duration": 0.08333333333333333
            },
            {
              "pitch": 62,
              "velocity": 69,
              "position": 13,
              "duration": 0.08333333333333333
            },
            {
              "pitch": 48,
              "velocity": 69,
              "position": 13.25,
              "duration": 0.0625
            },
            {
              "pitch": 52,
              "velocity": 78,
              "position": 13.5,
              "duration": 0.08333333333333333
            },
            {
              "pitch": 55,
              "velocity": 100,
              "position": 13.75,
              "duration": 0.0625
            },
            {
              "pitch": 52,
              "velocity": 85,
              "position": 13.75,
              "duration": 0.08333333333333333
            },
            {
              "pitch": 62,
              "velocity": 75,
              "position": 13.75,
              "duration": 0.10416666666666667
            },
            {
              "pitch": 48,
              "velocity": 84,
              "position": 14,
              "duration": 0.08333333333333333
            },
            {
              "pitch": 62,
              "velocity": 43,
              "position": 14.25,
              "duration": 0.041666666666666664
            },
            {
              "pitch": 55,
              "velocity": 85,
              "position": 14.25,
              "duration": 0.0625
            },
            {
              "pitch": 52,
              "velocity": 73,
              "position": 14.25,
              "duration": 0.08333333333333333
            },
            {
              "pitch": 55,
              "velocity": 98,
              "position": 14.5,
              "duration": 0.0625
            },
            {
              "pitch": 52,
              "velocity": 85,
              "position": 14.5,
              "duration": 0.08333333333333333
            },
            {
              "pitch": 62,
              "velocity": 90,
              "position": 14.5,
              "duration": 0.10416666666666667
            },
            {
              "pitch": 48,
              "velocity": 87,
              "position": 14.75,
              "duration": 0.08333333333333333
            },
            {
              "pitch": 52,
              "velocity": 70,
              "position": 15,
              "duration": 0.041666666666666664
            },
            {
              "pitch": 55,
              "velocity": 100,
              "position": 15.25,
              "duration": 0.08333333333333333
            },
            {
              "pitch": 52,
              "velocity": 81,
              "position": 15.25,
              "duration": 0.10416666666666667
            },
            {
              "pitch": 62,
              "velocity": 72,
              "position": 15.25,
              "duration": 0.10416666666666667
            },
            {
              "pitch": 48,
              "velocity": 78,
              "position": 15.5,
              "duration": 0.08333333333333333
            },
            {
              "pitch": 55,
              "velocity": 94,
              "position": 15.75,
              "duration": 0.041666666666666664
            },
            {
              "pitch": 52,
              "velocity": 81,
              "position": 15.75,
              "duration": 0.08333333333333333
            },
            {
              "pitch": 62,
              "velocity": 74,
              "position": 15.75,
              "duration": 0.08333333333333333
            }
          ]
        },
        "2": {
          "ctab": {
            "srcChannel": 2,
            "name": "Strings1",
            "accType": "PAD",
            "editable": false,
            "mutedNotes": [],
            "mutedChords": [],
            "autoStart": false,
            "sourceChordNote": 0,
            "sourceChordType": "Maj7",
            "ctb2Low": null,
            "ctb2Main": {
              "ntr": "ROOT_TRANSPOSITION",
              "ntt": "CHORD",
              "bassOn": false,
              "chordRootUpperLimit": 6,
              "noteLowLimit": 0,
              "noteHighLimit": 127,
              "rtr": "PITCH_SHIFT"
            },
            "ctb2High": null,
            "ctb2MiddleLowPitch": 0,
            "ctb2MiddleHighPitch": 127
          },
          "notes": [
            {
              "pitch": 74,
              "velocity": 55,
              "position": 0,
              "duration": 4.125
            },
            {
              "pitch": 79,
              "velocity": 25,
              "position": 4,
              "duration": 4.166666666666667
            },
            {
              "pitch": 76,
              "velocity": 29,
              "position": 8,
              "duration": 4.145833333333333
            },
            {
              "pitch": 79,
              "velocity": 48,
              "position": 12,
              "duration": 3.125
            },
            {
              "pitch": 55,
              "velocity": 38,
              "position": 0,
              "duration": 15.979166666666666
            },
            {
              "pitch": 59,
              "velocity": 54,
              "position": 0,
              "duration": 15.979166666666666
            },
            {
              "pitch": 64,
              "velocity": 45,
              "position": 0,
              "duration": 15.979166666666666
            },
            {
              "pitch": 76,
              "velocity": 17,
              "position": 15,
              "duration": 0.9791666666666666
            }
          ]
        },
        "8": {
          "ctab": {
            "srcChannel": 8,
            "name": "Std.Kit1",
            "accType": "RHYTHM",
            "editable": false,
            "mutedNotes": [],
            "mutedChords": [],
            "autoStart": true,
            "sourceChordNote": 0,
            "sourceChordType": "Maj7",
            "ctb2Low": null,
            "ctb2Main": {
              "ntr": "ROOT_FIXED",
              "ntt": "BYPASS",
              "bassOn": false,
              "chordRootUpperLimit": 6,
              "noteLowLimit": 0,
              "noteHighLimit": 127,
              "rtr": "PITCH_SHIFT"
            },
            "ctb2High": null,
            "ctb2MiddleLowPitch": 0,
            "ctb2MiddleHighPitch": 127
          },
          "notes": [
            {
              "pitch": 42,
              "velocity": 63,
              "position": 0.041666666666666664,
              "duration": 0.08333333333333333
            },
            {
              "pitch": 44,
              "velocity": 16,
              "position": 0.041666666666666664,
              "duration": 0.16666666666666666
            },
            {
              "pitch": 42,
              "velocity": 50,
              "position": 0.25,
              "duration": 0.10416666666666667
            },
            {
              "pitch": 37,
              "velocity": 93,
              "position": 0.25,
              "duration": 0.125
            },
            {
              "pitch": 36,
              "velocity": 95,
              "position": 0.041666666666666664,
              "duration": 0.4791666666666667
            },
            {
              "pitch": 44,
              "velocity": 31,
              "position": 0.5,
              "duration": 0.14583333333333334
            },
            {
              "pitch": 42,
              "velocity": 38,
              "position": 0.75,
              "duration": 0.0625
            },
            {
              "pitch": 36,
              "velocity": 64,
              "position": 0.75,
              "duration": 0.0625
            },
            {
              "pitch": 37,
              "velocity": 56,
              "position": 0.75,
              "duration": 0.10416666666666667
            },
            {
              "pitch": 42,
              "velocity": 63,
              "position": 1,
              "duration": 0.10416666666666667
            },
            {
              "pitch": 37,
              "velocity": 83,
              "position": 1,
              "duration": 0.10416666666666667
            },
            {
              "pitch": 42,
              "velocity": 45,
              "position": 1.25,
              "duration": 0.08333333333333333
            },
            {
              "pitch": 44,
              "velocity": 60,
              "position": 1.25,
              "duration": 0.1875
            },
            {
              "pitch": 36,
              "velocity": 95,
              "position": 1,
              "duration": 0.4791666666666667
            },
            {
              "pitch": 37,
              "velocity": 76,
              "position": 1.5,
              "duration": 0.08333333333333333
            },
            {
              "pitch": 36,
              "velocity": 64,
              "position": 1.75,
              "duration": 0.0625
            },
            {
              "pitch": 37,
              "velocity": 95,
              "position": 1.75,
              "duration": 0.0625
            },
            {
              "pitch": 46,
              "velocity": 10,
              "position": 1.75,
              "duration": 0.125
            },
            {
              "pitch": 44,
              "velocity": 15,
              "position": 1.7916666666666667,
              "duration": 0.16666666666666666
            },
            {
              "pitch": 42,
              "velocity": 80,
              "position": 1.75,
              "duration": 0.23958333333333334
            },
            {
              "pitch": 42,
              "velocity": 63,
              "position": 2,
              "duration": 0.1875
            },
            {
              "pitch": 42,
              "velocity": 50,
              "position": 2.25,
              "duration": 0.10416666666666667
            },
            {
              "pitch": 37,
              "velocity": 93,
              "position": 2.25,
              "duration": 0.125
            },
            {
              "pitch": 44,
              "velocity": 16,
              "position": 2.25,
              "duration": 0.1875
            },
            {
              "pitch": 36,
              "velocity": 95,
              "position": 2,
              "duration": 0.5
            },
            {
              "pitch": 44,
              "velocity": 78,
              "position": 2.5,
              "duration": 0.14583333333333334
            },
            {
              "pitch": 42,
              "velocity": 38,
              "position": 2.75,
              "duration": 0.0625
            },
            {
              "pitch": 36,
              "velocity": 64,
              "position": 2.75,
              "duration": 0.0625
            },
            {
              "pitch": 37,
              "velocity": 56,
              "position": 2.75,
              "duration": 0.10416666666666667
            },
            {
              "pitch": 44,
              "velocity": 11,
              "position": 2.75,
              "duration": 0.14583333333333334
            },
            {
              "pitch": 42,
              "velocity": 63,
              "position": 3,
              "duration": 0.10416666666666667
            },
            {
              "pitch": 37,
              "velocity": 83,
              "position": 3,
              "duration": 0.10416666666666667
            },
            {
              "pitch": 42,
              "velocity": 45,
              "position": 3.25,
              "duration": 0.08333333333333333
            },
            {
              "pitch": 44,
              "velocity": 60,
              "position": 3.25,
              "duration": 0.10416666666666667
            },
            {
              "pitch": 36,
              "velocity": 95,
              "position": 3,
              "duration": 0.4791666666666667
            },
            {
              "pitch": 37,
              "velocity": 76,
              "position": 3.5,
              "duration": 0.08333333333333333
            },
            {
              "pitch": 44,
              "velocity": 31,
              "position": 3.5,
              "duration": 0.16666666666666666
            },
            {
              "pitch": 36,
              "velocity": 64,
              "position": 3.75,
              "duration": 0.0625
            },
            {
              "pitch": 37,
              "velocity": 95,
              "position": 3.75,
              "duration": 0.08333333333333333
            },
            {
              "pitch": 46,
              "velocity": 10,
              "position": 3.75,
              "duration": 0.125
            },
            {
              "pitch": 42,
              "velocity": 80,
              "position": 3.75,
              "duration": 0.23958333333333334
            },
            {
              "pitch": 44,
              "velocity": 31,
              "position": 4,
              "duration": 0.16666666666666666
            },
            {
              "pitch": 42,
              "velocity": 59,
              "position": 4,
              "duration": 0.20833333333333334
            },
            {
              "pitch": 42,
              "velocity": 45,
              "position": 4.25,
              "duration": 0.10416666666666667
            },
            {
              "pitch": 36,
              "velocity": 84,
              "position": 4,
              "duration": 0.4791666666666667
            },
            {
              "pitch": 42,
              "velocity": 49,
              "position": 4.5,
              "duration": 0.125
            },
            {
              "pitch": 37,
              "velocity": 101,
              "position": 4.5,
              "duration": 0.14583333333333334
            },
            {
              "pitch": 44,
              "velocity": 23,
              "position": 4.5,
              "duration": 0.16666666666666666
            },
            {
              "pitch": 42,
              "velocity": 76,
              "position": 4.75,
              "duration": 0.10416666666666667
            },
            {
              "pitch": 36,
              "velocity": 67,
              "position": 4.75,
              "duration": 0.10416666666666667
            },
            {
              "pitch": 42,
              "velocity": 76,
              "position": 5,
              "duration": 0.10416666666666667
            },
            {
              "pitch": 44,
              "velocity": 23,
              "position": 5.208333333333333,
              "duration": 0.14583333333333334
            },
            {
              "pitch": 42,
              "velocity": 36,
              "position": 5.25,
              "duration": 0.10416666666666667
            },
            {
              "pitch": 37,
              "velocity": 85,
              "position": 5.25,
              "duration": 0.125
            },
            {
              "pitch": 36,
              "velocity": 89,
              "position": 5,
              "duration": 0.5
            },
            {
              "pitch": 44,
              "velocity": 60,
              "position": 5.5,
              "duration": 0.14583333333333334
            },
            {
              "pitch": 42,
              "velocity": 15,
              "position": 5.75,
              "duration": 0.08333333333333333
            },
            {
              "pitch": 36,
              "velocity": 50,
              "position": 5.75,
              "duration": 0.08333333333333333
            },
            {
              "pitch": 37,
              "velocity": 84,
              "position": 5.75,
              "duration": 0.125
            },
            {
              "pitch": 44,
              "velocity": 19,
              "position": 5.791666666666667,
              "duration": 0.16666666666666666
            },
            {
              "pitch": 42,
              "velocity": 76,
              "position": 6,
              "duration": 0.125
            },
            {
              "pitch": 37,
              "velocity": 91,
              "position": 6.25,
              "duration": 0.125
            },
            {
              "pitch": 42,
              "velocity": 37,
              "position": 6.25,
              "duration": 0.14583333333333334
            },
            {
              "pitch": 44,
              "velocity": 34,
              "position": 6.291666666666667,
              "duration": 0.16666666666666666
            },
            {
              "pitch": 36,
              "velocity": 95,
              "position": 6,
              "duration": 0.5208333333333334
            },
            {
              "pitch": 42,
              "velocity": 45,
              "position": 6.5,
              "duration": 0.020833333333333332
            },
            {
              "pitch": 44,
              "velocity": 78,
              "position": 6.5,
              "duration": 0.14583333333333334
            },
            {
              "pitch": 36,
              "velocity": 61,
              "position": 6.75,
              "duration": 0.08333333333333333
            },
            {
              "pitch": 42,
              "velocity": 50,
              "position": 6.75,
              "duration": 0.10416666666666667
            },
            {
              "pitch": 44,
              "velocity": 1,
              "position": 6.791666666666667,
              "duration": 0.10416666666666667
            },
            {
              "pitch": 37,
              "velocity": 88,
              "position": 7,
              "duration": 0.125
            },
            {
              "pitch": 42,
              "velocity": 47,
              "position": 7,
              "duration": 0.14583333333333334
            },
            {
              "pitch": 44,
              "velocity": 31,
              "position": 7.041666666666667,
              "duration": 0.16666666666666666
            },
            {
              "pitch": 42,
              "velocity": 71,
              "position": 7.25,
              "duration": 0.125
            },
            {
              "pitch": 36,
              "velocity": 89,
              "position": 7,
              "duration": 0.4583333333333333
            },
            {
              "pitch": 37,
              "velocity": 87,
              "position": 7.5,
              "duration": 0.125
            },
            {
              "pitch": 44,
              "velocity": 72,
              "position": 7.5,
              "duration": 0.14583333333333334
            },
            {
              "pitch": 36,
              "velocity": 75,
              "position": 7.75,
              "duration": 0.08333333333333333
            },
            {
              "pitch": 42,
              "velocity": 63,
              "position": 7.75,
              "duration": 0.125
            },
            {
              "pitch": 44,
              "velocity": 23,
              "position": 7.75,
              "duration": 0.14583333333333334
            },
            {
              "pitch": 37,
              "velocity": 89,
              "position": 8,
              "duration": 0.10416666666666667
            },
            {
              "pitch": 42,
              "velocity": 52,
              "position": 8,
              "duration": 0.125
            },
            {
              "pitch": 44,
              "velocity": 23,
              "position": 8.041666666666666,
              "duration": 0.20833333333333334
            },
            {
              "pitch": 42,
              "velocity": 76,
              "position": 8.25,
              "duration": 0.10416666666666667
            },
            {
              "pitch": 36,
              "velocity": 95,
              "position": 8,
              "duration": 0.4791666666666667
            },
            {
              "pitch": 37,
              "velocity": 92,
              "position": 8.5,
              "duration": 0.125
            },
            {
              "pitch": 44,
              "velocity": 66,
              "position": 8.5,
              "duration": 0.16666666666666666
            },
            {
              "pitch": 36,
              "velocity": 64,
              "position": 8.75,
              "duration": 0.08333333333333333
            },
            {
              "pitch": 42,
              "velocity": 63,
              "position": 8.75,
              "duration": 0.10416666666666667
            },
            {
              "pitch": 42,
              "velocity": 67,
              "position": 9,
              "duration": 0.125
            },
            {
              "pitch": 37,
              "velocity": 97,
              "position": 9.25,
              "duration": 0.125
            },
            {
              "pitch": 42,
              "velocity": 59,
              "position": 9.25,
              "duration": 0.125
            },
            {
              "pitch": 44,
              "velocity": 23,
              "position": 9.25,
              "duration": 0.1875
            },
            {
              "pitch": 36,
              "velocity": 89,
              "position": 9,
              "duration": 0.4791666666666667
            },
            {
              "pitch": 44,
              "velocity": 66,
              "position": 9.5,
              "duration": 0.10416666666666667
            },
            {
              "pitch": 36,
              "velocity": 67,
              "position": 9.75,
              "duration": 0.0625
            },
            {
              "pitch": 42,
              "velocity": 40,
              "position": 9.75,
              "duration": 0.08333333333333333
            },
            {
              "pitch": 37,
              "velocity": 92,
              "position": 9.75,
              "duration": 0.10416666666666667
            },
            {
              "pitch": 44,
              "velocity": 12,
              "position": 9.75,
              "duration": 0.1875
            },
            {
              "pitch": 42,
              "velocity": 59,
              "position": 10,
              "duration": 0.10416666666666667
            },
            {
              "pitch": 42,
              "velocity": 50,
              "position": 10.25,
              "duration": 0.10416666666666667
            },
            {
              "pitch": 37,
              "velocity": 94,
              "position": 10.25,
              "duration": 0.10416666666666667
            },
            {
              "pitch": 44,
              "velocity": 21,
              "position": 10.25,
              "duration": 0.16666666666666666
            },
            {
              "pitch": 36,
              "velocity": 95,
              "position": 10,
              "duration": 0.4375
            },
            {
              "pitch": 44,
              "velocity": 72,
              "position": 10.5,
              "duration": 0.125
            },
            {
              "pitch": 37,
              "velocity": 48,
              "position": 10.75,
              "duration": 0.08333333333333333
            },
            {
              "pitch": 36,
              "velocity": 61,
              "position": 10.75,
              "duration": 0.08333333333333333
            },
            {
              "pitch": 44,
              "velocity": 5,
              "position": 10.75,
              "duration": 0.10416666666666667
            },
            {
              "pitch": 42,
              "velocity": 63,
              "position": 10.75,
              "duration": 0.125
            },
            {
              "pitch": 42,
              "velocity": 59,
              "position": 11,
              "duration": 0.08333333333333333
            },
            {
              "pitch": 37,
              "velocity": 83,
              "position": 11,
              "duration": 0.10416666666666667
            },
            {
              "pitch": 44,
              "velocity": 21,
              "position": 11.041666666666666,
              "duration": 0.1875
            },
            {
              "pitch": 42,
              "velocity": 71,
              "position": 11.25,
              "duration": 0.125
            },
            {
              "pitch": 36,
              "velocity": 89,
              "position": 11,
              "duration": 0.4375
            },
            {
              "pitch": 37,
              "velocity": 92,
              "position": 11.5,
              "duration": 0.10416666666666667
            },
            {
              "pitch": 44,
              "velocity": 66,
              "position": 11.5,
              "duration": 0.14583333333333334
            },
            {
              "pitch": 36,
              "velocity": 67,
              "position": 11.75,
              "duration": 0.08333333333333333
            },
            {
              "pitch": 42,
              "velocity": 63,
              "position": 11.75,
              "duration": 0.10416666666666667
            },
            {
              "pitch": 42,
              "velocity": 55,
              "position": 12,
              "duration": 0.10416666666666667
            },
            {
              "pitch": 37,
              "velocity": 91,
              "position": 12,
              "duration": 0.125
            },
            {
              "pitch": 44,
              "velocity": 18,
              "position": 12,
              "duration": 0.14583333333333334
            },
            {
              "pitch": 42,
              "velocity": 63,
              "position": 12.25,
              "duration": 0.125
            },
            {
              "pitch": 36,
              "velocity": 84,
              "position": 12,
              "duration": 0.4791666666666667
            },
            {
              "pitch": 37,
              "velocity": 95,
              "position": 12.5,
              "duration": 0.125
            },
            {
              "pitch": 44,
              "velocity": 27,
              "position": 12.5,
              "duration": 0.14583333333333334
            },
            {
              "pitch": 36,
              "velocity": 67,
              "position": 12.75,
              "duration": 0.0625
            },
            {
              "pitch": 42,
              "velocity": 52,
              "position": 12.75,
              "duration": 0.08333333333333333
            },
            {
              "pitch": 42,
              "velocity": 63,
              "position": 13,
              "duration": 0.10416666666666667
            },
            {
              "pitch": 42,
              "velocity": 38,
              "position": 13.25,
              "duration": 0.08333333333333333
            },
            {
              "pitch": 37,
              "velocity": 91,
              "position": 13.25,
              "duration": 0.10416666666666667
            },
            {
              "pitch": 44,
              "velocity": 19,
              "position": 13.208333333333334,
              "duration": 0.16666666666666666
            },
            {
              "pitch": 36,
              "velocity": 95,
              "position": 13,
              "duration": 0.4583333333333333
            },
            {
              "pitch": 44,
              "velocity": 72,
              "position": 13.5,
              "duration": 0.16666666666666666
            },
            {
              "pitch": 36,
              "velocity": 57,
              "position": 13.75,
              "duration": 0.0625
            },
            {
              "pitch": 37,
              "velocity": 91,
              "position": 13.75,
              "duration": 0.10416666666666667
            },
            {
              "pitch": 42,
              "velocity": 45,
              "position": 13.75,
              "duration": 0.10416666666666667
            },
            {
              "pitch": 44,
              "velocity": 15,
              "position": 13.791666666666666,
              "duration": 0.14583333333333334
            },
            {
              "pitch": 42,
              "velocity": 76,
              "position": 14,
              "duration": 0.125
            },
            {
              "pitch": 42,
              "velocity": 39,
              "position": 14.25,
              "duration": 0.10416666666666667
            },
            {
              "pitch": 37,
              "velocity": 92,
              "position": 14.25,
              "duration": 0.10416666666666667
            },
            {
              "pitch": 36,
              "velocity": 89,
              "position": 14,
              "duration": 0.4583333333333333
            },
            {
              "pitch": 44,
              "velocity": 21,
              "position": 14.291666666666666,
              "duration": 0.16666666666666666
            },
            {
              "pitch": 44,
              "velocity": 72,
              "position": 14.5,
              "duration": 0.14583333333333334
            },
            {
              "pitch": 36,
              "velocity": 50,
              "position": 14.75,
              "duration": 0.0625
            },
            {
              "pitch": 42,
              "velocity": 59,
              "position": 14.75,
              "duration": 0.10416666666666667
            },
            {
              "pitch": 44,
              "velocity": 15,
              "position": 14.75,
              "duration": 0.14583333333333334
            },
            {
              "pitch": 42,
              "velocity": 63,
              "position": 15,
              "duration": 0.10416666666666667
            },
            {
              "pitch": 37,
              "velocity": 79,
              "position": 15,
              "duration": 0.125
            },
            {
              "pitch": 44,
              "velocity": 43,
              "position": 15.041666666666666,
              "duration": 0.16666666666666666
            },
            {
              "pitch": 42,
              "velocity": 76,
              "position": 15.25,
              "duration": 0.14583333333333334
            },
            {
              "pitch": 36,
              "velocity": 95,
              "position": 15,
              "duration": 0.4583333333333333
            },
            {
              "pitch": 37,
              "velocity": 92,
              "position": 15.5,
              "duration": 0.125
            },
            {
              "pitch": 44,
              "velocity": 66,
              "position": 15.5,
              "duration": 0.14583333333333334
            },
            {
              "pitch": 36,
              "velocity": 61,
              "position": 15.75,
              "duration": 0.0625
            },
            {
              "pitch": 44,
              "velocity": 31,
              "position": 15.708333333333334,
              "duration": 0.125
            },
            {
              "pitch": 42,
              "velocity": 50,
              "position": 15.75,
              "duration": 0.125
            }
          ]
        },
        "10": {
          "ctab": {
            "srcChannel": 10,
            "name": "Std.Kit1",
            "accType": "SUBRHYTHM",
            "editable": false,
            "mutedNotes": [],
            "mutedChords": [],
            "autoStart": true,
            "sourceChordNote": 0,
            "sourceChordType": "Maj7",
            "ctb2Low": null,
            "ctb2Main": {
              "ntr": "ROOT_FIXED",
              "ntt": "BYPASS",
              "bassOn": false,
              "chordRootUpperLimit": 6,
              "noteLowLimit": 0,
              "noteHighLimit": 127,
              "rtr": "PITCH_SHIFT"
            },
            "ctb2High": null,
            "ctb2MiddleLowPitch": 0,
            "ctb2MiddleHighPitch": 127
          },
          "notes": [
            {
              "pitch": 54,
              "velocity": 33,
              "position": 0.041666666666666664,
              "duration": 0.125
            },
            {
              "pitch": 61,
              "velocity": 64,
              "position": 0.041666666666666664,
              "duration": 0.1875
            },
            {
              "pitch": 54,
              "velocity": 27,
              "position": 0.25,
              "duration": 0.08333333333333333
            },
            {
              "pitch": 70,
              "velocity": 35,
              "position": 0.25,
              "duration": 0.10416666666666667
            },
            {
              "pitch": 70,
              "velocity": 107,
              "position": 0.5,
              "duration": 0.10416666666666667
            },
            {
              "pitch": 54,
              "velocity": 95,
              "position": 0.5,
              "duration": 0.14583333333333334
            },
            {
              "pitch": 61,
              "velocity": 71,
              "position": 0.5,
              "duration": 0.3333333333333333
            },
            {
              "pitch": 70,
              "velocity": 39,
              "position": 0.75,
              "duration": 0.10416666666666667
            },
            {
              "pitch": 54,
              "velocity": 20,
              "position": 0.75,
              "duration": 0.10416666666666667
            },
            {
              "pitch": 70,
              "velocity": 77,
              "position": 1,
              "duration": 0.08333333333333333
            },
            {
              "pitch": 63,
              "velocity": 64,
              "position": 1,
              "duration": 0.14583333333333334
            },
            {
              "pitch": 54,
              "velocity": 18,
              "position": 1,
              "duration": 0.14583333333333334
            },
            {
              "pitch": 70,
              "velocity": 40,
              "position": 1.25,
              "duration": 0.08333333333333333
            },
            {
              "pitch": 54,
              "velocity": 18,
              "position": 1.25,
              "duration": 0.14583333333333334
            },
            {
              "pitch": 61,
              "velocity": 64,
              "position": 1.2916666666666667,
              "duration": 0.1875
            },
            {
              "pitch": 70,
              "velocity": 98,
              "position": 1.5,
              "duration": 0.0625
            },
            {
              "pitch": 62,
              "velocity": 39,
              "position": 1.5416666666666667,
              "duration": 0.041666666666666664
            },
            {
              "pitch": 54,
              "velocity": 103,
              "position": 1.5,
              "duration": 0.125
            },
            {
              "pitch": 70,
              "velocity": 71,
              "position": 1.75,
              "duration": 0.08333333333333333
            },
            {
              "pitch": 64,
              "velocity": 98,
              "position": 1.7916666666666667,
              "duration": 0.0625
            },
            {
              "pitch": 54,
              "velocity": 47,
              "position": 1.75,
              "duration": 0.125
            },
            {
              "pitch": 61,
              "velocity": 66,
              "position": 1.7916666666666667,
              "duration": 0.1875
            },
            {
              "pitch": 54,
              "velocity": 71,
              "position": 2,
              "duration": 0.125
            },
            {
              "pitch": 64,
              "velocity": 111,
              "position": 2.0416666666666665,
              "duration": 0.14583333333333334
            },
            {
              "pitch": 70,
              "velocity": 35,
              "position": 2.25,
              "duration": 0.10416666666666667
            },
            {
              "pitch": 54,
              "velocity": 25,
              "position": 2.25,
              "duration": 0.14583333333333334
            },
            {
              "pitch": 61,
              "velocity": 66,
              "position": 2.2916666666666665,
              "duration": 0.1875
            },
            {
              "pitch": 70,
              "velocity": 107,
              "position": 2.5,
              "duration": 0.10416666666666667
            },
            {
              "pitch": 54,
              "velocity": 113,
              "position": 2.5,
              "duration": 0.14583333333333334
            },
            {
              "pitch": 70,
              "velocity": 39,
              "position": 2.75,
              "duration": 0.10416666666666667
            },
            {
              "pitch": 54,
              "velocity": 27,
              "position": 2.75,
              "duration": 0.10416666666666667
            },
            {
              "pitch": 61,
              "velocity": 71,
              "position": 2.75,
              "duration": 0.20833333333333334
            },
            {
              "pitch": 70,
              "velocity": 77,
              "position": 3,
              "duration": 0.08333333333333333
            },
            {
              "pitch": 54,
              "velocity": 47,
              "position": 3,
              "duration": 0.125
            },
            {
              "pitch": 61,
              "velocity": 66,
              "position": 3.2083333333333335,
              "duration": 0.125
            },
            {
              "pitch": 70,
              "velocity": 40,
              "position": 3.25,
              "duration": 0.08333333333333333
            },
            {
              "pitch": 54,
              "velocity": 40,
              "position": 3.25,
              "duration": 0.14583333333333334
            },
            {
              "pitch": 70,
              "velocity": 98,
              "position": 3.5,
              "duration": 0.0625
            },
            {
              "pitch": 61,
              "velocity": 94,
              "position": 3.5,
              "duration": 0.14583333333333334
            },
            {
              "pitch": 54,
              "velocity": 103,
              "position": 3.5,
              "duration": 0.14583333333333334
            },
            {
              "pitch": 70,
              "velocity": 71,
              "position": 3.75,
              "duration": 0.08333333333333333
            },
            {
              "pitch": 54,
              "velocity": 30,
              "position": 3.75,
              "duration": 0.10416666666666667
            },
            {
              "pitch": 54,
              "velocity": 54,
              "position": 4,
              "duration": 0.125
            },
            {
              "pitch": 70,
              "velocity": 51,
              "position": 4,
              "duration": 0.125
            },
            {
              "pitch": 61,
              "velocity": 74,
              "position": 4.041666666666667,
              "duration": 0.1875
            },
            {
              "pitch": 70,
              "velocity": 42,
              "position": 4.25,
              "duration": 0.10416666666666667
            },
            {
              "pitch": 54,
              "velocity": 33,
              "position": 4.25,
              "duration": 0.16666666666666666
            },
            {
              "pitch": 54,
              "velocity": 103,
              "position": 4.5,
              "duration": 0.14583333333333334
            },
            {
              "pitch": 70,
              "velocity": 90,
              "position": 4.5,
              "duration": 0.14583333333333334
            },
            {
              "pitch": 61,
              "velocity": 79,
              "position": 4.541666666666667,
              "duration": 0.2708333333333333
            },
            {
              "pitch": 62,
              "velocity": 49,
              "position": 4.75,
              "duration": 0.08333333333333333
            },
            {
              "pitch": 70,
              "velocity": 35,
              "position": 4.75,
              "duration": 0.10416666666666667
            },
            {
              "pitch": 54,
              "velocity": 27,
              "position": 4.75,
              "duration": 0.16666666666666666
            },
            {
              "pitch": 70,
              "velocity": 47,
              "position": 5,
              "duration": 0.08333333333333333
            },
            {
              "pitch": 54,
              "velocity": 61,
              "position": 5,
              "duration": 0.14583333333333334
            },
            {
              "pitch": 63,
              "velocity": 64,
              "position": 5.041666666666667,
              "duration": 0.125
            },
            {
              "pitch": 70,
              "velocity": 29,
              "position": 5.25,
              "duration": 0.125
            },
            {
              "pitch": 54,
              "velocity": 113,
              "position": 5.25,
              "duration": 0.14583333333333334
            },
            {
              "pitch": 61,
              "velocity": 79,
              "position": 5.208333333333333,
              "duration": 0.20833333333333334
            },
            {
              "pitch": 64,
              "velocity": 67,
              "position": 5.458333333333333,
              "duration": 0.10416666666666667
            },
            {
              "pitch": 54,
              "velocity": 30,
              "position": 5.5,
              "duration": 0.0625
            },
            {
              "pitch": 70,
              "velocity": 90,
              "position": 5.5,
              "duration": 0.125
            },
            {
              "pitch": 64,
              "velocity": 104,
              "position": 5.75,
              "duration": 0.08333333333333333
            },
            {
              "pitch": 70,
              "velocity": 35,
              "position": 5.75,
              "duration": 0.125
            },
            {
              "pitch": 54,
              "velocity": 95,
              "position": 5.75,
              "duration": 0.125
            },
            {
              "pitch": 61,
              "velocity": 94,
              "position": 5.791666666666667,
              "duration": 0.22916666666666666
            },
            {
              "pitch": 70,
              "velocity": 55,
              "position": 6,
              "duration": 0.10416666666666667
            },
            {
              "pitch": 54,
              "velocity": 103,
              "position": 6,
              "duration": 0.125
            },
            {
              "pitch": 64,
              "velocity": 120,
              "position": 6.041666666666667,
              "duration": 0.125
            },
            {
              "pitch": 70,
              "velocity": 36,
              "position": 6.25,
              "duration": 0.10416666666666667
            },
            {
              "pitch": 54,
              "velocity": 21,
              "position": 6.25,
              "duration": 0.125
            },
            {
              "pitch": 61,
              "velocity": 79,
              "position": 6.291666666666667,
              "duration": 0.1875
            },
            {
              "pitch": 54,
              "velocity": 71,
              "position": 6.5,
              "duration": 0.125
            },
            {
              "pitch": 70,
              "velocity": 107,
              "position": 6.5,
              "duration": 0.125
            },
            {
              "pitch": 70,
              "velocity": 44,
              "position": 6.75,
              "duration": 0.10416666666666667
            },
            {
              "pitch": 54,
              "velocity": 124,
              "position": 6.75,
              "duration": 0.125
            },
            {
              "pitch": 61,
              "velocity": 66,
              "position": 6.791666666666667,
              "duration": 0.10416666666666667
            },
            {
              "pitch": 54,
              "velocity": 20,
              "position": 7,
              "duration": 0.08333333333333333
            },
            {
              "pitch": 70,
              "velocity": 44,
              "position": 7,
              "duration": 0.08333333333333333
            },
            {
              "pitch": 61,
              "velocity": 104,
              "position": 7.041666666666667,
              "duration": 0.20833333333333334
            },
            {
              "pitch": 70,
              "velocity": 42,
              "position": 7.25,
              "duration": 0.125
            },
            {
              "pitch": 54,
              "velocity": 95,
              "position": 7.25,
              "duration": 0.125
            },
            {
              "pitch": 70,
              "velocity": 90,
              "position": 7.5,
              "duration": 0.10416666666666667
            },
            {
              "pitch": 61,
              "velocity": 79,
              "position": 7.5,
              "duration": 0.14583333333333334
            },
            {
              "pitch": 54,
              "velocity": 113,
              "position": 7.5,
              "duration": 0.16666666666666666
            },
            {
              "pitch": 70,
              "velocity": 40,
              "position": 7.75,
              "duration": 0.10416666666666667
            },
            {
              "pitch": 54,
              "velocity": 47,
              "position": 7.75,
              "duration": 0.10416666666666667
            },
            {
              "pitch": 61,
              "velocity": 94,
              "position": 7.791666666666667,
              "duration": 0.10416666666666667
            },
            {
              "pitch": 70,
              "velocity": 51,
              "position": 8,
              "duration": 0.0625
            },
            {
              "pitch": 54,
              "velocity": 54,
              "position": 8,
              "duration": 0.125
            },
            {
              "pitch": 61,
              "velocity": 84,
              "position": 8.041666666666666,
              "duration": 0.20833333333333334
            },
            {
              "pitch": 70,
              "velocity": 44,
              "position": 8.25,
              "duration": 0.10416666666666667
            },
            {
              "pitch": 54,
              "velocity": 47,
              "position": 8.25,
              "duration": 0.10416666666666667
            },
            {
              "pitch": 70,
              "velocity": 107,
              "position": 8.5,
              "duration": 0.125
            },
            {
              "pitch": 54,
              "velocity": 113,
              "position": 8.5,
              "duration": 0.14583333333333334
            },
            {
              "pitch": 61,
              "velocity": 71,
              "position": 8.5,
              "duration": 0.1875
            },
            {
              "pitch": 70,
              "velocity": 40,
              "position": 8.75,
              "duration": 0.10416666666666667
            },
            {
              "pitch": 54,
              "velocity": 30,
              "position": 8.75,
              "duration": 0.16666666666666666
            },
            {
              "pitch": 70,
              "velocity": 51,
              "position": 9,
              "duration": 0.10416666666666667
            },
            {
              "pitch": 54,
              "velocity": 54,
              "position": 9,
              "duration": 0.10416666666666667
            },
            {
              "pitch": 63,
              "velocity": 64,
              "position": 9,
              "duration": 0.1875
            },
            {
              "pitch": 70,
              "velocity": 42,
              "position": 9.25,
              "duration": 0.125
            },
            {
              "pitch": 54,
              "velocity": 33,
              "position": 9.25,
              "duration": 0.125
            },
            {
              "pitch": 61,
              "velocity": 94,
              "position": 9.25,
              "duration": 0.1875
            },
            {
              "pitch": 70,
              "velocity": 107,
              "position": 9.5,
              "duration": 0.10416666666666667
            },
            {
              "pitch": 54,
              "velocity": 113,
              "position": 9.5,
              "duration": 0.125
            },
            {
              "pitch": 64,
              "velocity": 98,
              "position": 9.75,
              "duration": 0.10416666666666667
            },
            {
              "pitch": 54,
              "velocity": 30,
              "position": 9.75,
              "duration": 0.14583333333333334
            },
            {
              "pitch": 61,
              "velocity": 64,
              "position": 9.75,
              "duration": 0.1875
            },
            {
              "pitch": 70,
              "velocity": 90,
              "position": 10,
              "duration": 0.0625
            },
            {
              "pitch": 54,
              "velocity": 47,
              "position": 10,
              "duration": 0.125
            },
            {
              "pitch": 64,
              "velocity": 104,
              "position": 10.041666666666666,
              "duration": 0.16666666666666666
            },
            {
              "pitch": 70,
              "velocity": 71,
              "position": 10.125,
              "duration": 0.08333333333333333
            },
            {
              "pitch": 70,
              "velocity": 85,
              "position": 10.25,
              "duration": 0.08333333333333333
            },
            {
              "pitch": 61,
              "velocity": 84,
              "position": 10.291666666666666,
              "duration": 0.16666666666666666
            },
            {
              "pitch": 70,
              "velocity": 39,
              "position": 10.375,
              "duration": 0.08333333333333333
            },
            {
              "pitch": 54,
              "velocity": 86,
              "position": 10.25,
              "duration": 0.3541666666666667
            },
            {
              "pitch": 70,
              "velocity": 24,
              "position": 10.5,
              "duration": 0.10416666666666667
            },
            {
              "pitch": 61,
              "velocity": 64,
              "position": 10.75,
              "duration": 0.14583333333333334
            },
            {
              "pitch": 54,
              "velocity": 40,
              "position": 10.75,
              "duration": 0.14583333333333334
            },
            {
              "pitch": 70,
              "velocity": 90,
              "position": 11,
              "duration": 0.0625
            },
            {
              "pitch": 54,
              "velocity": 78,
              "position": 11,
              "duration": 0.16666666666666666
            },
            {
              "pitch": 70,
              "velocity": 55,
              "position": 11.125,
              "duration": 0.0625
            },
            {
              "pitch": 61,
              "velocity": 74,
              "position": 11.083333333333334,
              "duration": 0.1875
            },
            {
              "pitch": 70,
              "velocity": 77,
              "position": 11.25,
              "duration": 0.0625
            },
            {
              "pitch": 54,
              "velocity": 27,
              "position": 11.25,
              "duration": 0.125
            },
            {
              "pitch": 70,
              "velocity": 58,
              "position": 11.375,
              "duration": 0.0625
            },
            {
              "pitch": 70,
              "velocity": 127,
              "position": 11.5,
              "duration": 0.10416666666666667
            },
            {
              "pitch": 54,
              "velocity": 86,
              "position": 11.5,
              "duration": 0.125
            },
            {
              "pitch": 61,
              "velocity": 79,
              "position": 11.5,
              "duration": 0.1875
            },
            {
              "pitch": 54,
              "velocity": 95,
              "position": 11.75,
              "duration": 0.125
            },
            {
              "pitch": 54,
              "velocity": 47,
              "position": 12,
              "duration": 0.10416666666666667
            },
            {
              "pitch": 61,
              "velocity": 74,
              "position": 12.041666666666666,
              "duration": 0.16666666666666666
            },
            {
              "pitch": 54,
              "velocity": 47,
              "position": 12.25,
              "duration": 0.14583333333333334
            },
            {
              "pitch": 54,
              "velocity": 113,
              "position": 12.5,
              "duration": 0.16666666666666666
            },
            {
              "pitch": 61,
              "velocity": 104,
              "position": 12.5,
              "duration": 0.2708333333333333
            },
            {
              "pitch": 54,
              "velocity": 30,
              "position": 12.75,
              "duration": 0.14583333333333334
            },
            {
              "pitch": 54,
              "velocity": 40,
              "position": 13,
              "duration": 0.125
            },
            {
              "pitch": 63,
              "velocity": 31,
              "position": 13,
              "duration": 0.1875
            },
            {
              "pitch": 54,
              "velocity": 95,
              "position": 13.25,
              "duration": 0.16666666666666666
            },
            {
              "pitch": 61,
              "velocity": 64,
              "position": 13.25,
              "duration": 0.20833333333333334
            },
            {
              "pitch": 54,
              "velocity": 21,
              "position": 13.5,
              "duration": 0.10416666666666667
            },
            {
              "pitch": 64,
              "velocity": 92,
              "position": 13.666666666666666,
              "duration": 0.125
            },
            {
              "pitch": 54,
              "velocity": 40,
              "position": 13.75,
              "duration": 0.14583333333333334
            },
            {
              "pitch": 61,
              "velocity": 74,
              "position": 13.791666666666666,
              "duration": 0.1875
            },
            {
              "pitch": 70,
              "velocity": 66,
              "position": 14,
              "duration": 0.10416666666666667
            },
            {
              "pitch": 54,
              "velocity": 103,
              "position": 14,
              "duration": 0.14583333333333334
            },
            {
              "pitch": 64,
              "velocity": 104,
              "position": 14.041666666666666,
              "duration": 0.125
            },
            {
              "pitch": 70,
              "velocity": 30,
              "position": 14.25,
              "duration": 0.10416666666666667
            },
            {
              "pitch": 54,
              "velocity": 54,
              "position": 14.25,
              "duration": 0.125
            },
            {
              "pitch": 61,
              "velocity": 79,
              "position": 14.291666666666666,
              "duration": 0.1875
            },
            {
              "pitch": 70,
              "velocity": 90,
              "position": 14.5,
              "duration": 0.14583333333333334
            },
            {
              "pitch": 54,
              "velocity": 25,
              "position": 14.5,
              "duration": 0.14583333333333334
            },
            {
              "pitch": 70,
              "velocity": 36,
              "position": 14.75,
              "duration": 0.10416666666666667
            },
            {
              "pitch": 61,
              "velocity": 79,
              "position": 14.75,
              "duration": 0.14583333333333334
            },
            {
              "pitch": 54,
              "velocity": 95,
              "position": 14.75,
              "duration": 0.1875
            },
            {
              "pitch": 54,
              "velocity": 27,
              "position": 15,
              "duration": 0.08333333333333333
            },
            {
              "pitch": 70,
              "velocity": 51,
              "position": 15,
              "duration": 0.125
            },
            {
              "pitch": 61,
              "velocity": 94,
              "position": 15.041666666666666,
              "duration": 0.16666666666666666
            },
            {
              "pitch": 70,
              "velocity": 36,
              "position": 15.25,
              "duration": 0.08333333333333333
            },
            {
              "pitch": 54,
              "velocity": 95,
              "position": 15.25,
              "duration": 0.14583333333333334
            },
            {
              "pitch": 64,
              "velocity": 77,
              "position": 15.291666666666666,
              "duration": 0.10416666666666667
            },
            {
              "pitch": 70,
              "velocity": 90,
              "position": 15.5,
              "duration": 0.125
            },
            {
              "pitch": 54,
              "velocity": 124,
              "position": 15.5,
              "duration": 0.16666666666666666
            },
            {
              "pitch": 61,
              "velocity": 64,
              "position": 15.5,
              "duration": 0.1875
            },
            {
              "pitch": 70,
              "velocity": 31,
              "position": 15.75,
              "duration": 0.08333333333333333
            },
            {
              "pitch": 64,
              "velocity": 67,
              "position": 15.75,
              "duration": 0.10416666666666667
            },
            {
              "pitch": 54,
              "velocity": 40,
              "position": 15.75,
              "duration": 0.1875
            },
            {
              "pitch": 61,
              "velocity": 104,
              "position": 15.791666666666666,
              "duration": 0.14583333333333334
            }
          ]
        },
        "12": {
          "ctab": {
            "srcChannel": 12,
            "name": "FngrBass",
            "accType": "BASS",
            "editable": false,
            "mutedNotes": [],
            "mutedChords": [],
            "autoStart": false,
            "sourceChordNote": 0,
            "sourceChordType": "Maj7",
            "ctb2Low": null,
            "ctb2Main": {
              "ntr": "ROOT_TRANSPOSITION",
              "ntt": "MELODY",
              "bassOn": true,
              "chordRootUpperLimit": 3,
              "noteLowLimit": 28,
              "noteHighLimit": 54,
              "rtr": "PITCH_SHIFT_TO_ROOT"
            },
            "ctb2High": null,
            "ctb2MiddleLowPitch": 0,
            "ctb2MiddleHighPitch": 127
          },
          "notes": [
            {
              "pitch": 36,
              "velocity": 58,
              "position": 0,
              "duration": 0.3541666666666667
            },
            {
              "pitch": 36,
              "velocity": 64,
              "position": 0.75,
              "duration": 0.0625
            },
            {
              "pitch": 31,
              "velocity": 79,
              "position": 1,
              "duration": 0.5833333333333334
            },
            {
              "pitch": 31,
              "velocity": 30,
              "position": 1.75,
              "duration": 0.25
            },
            {
              "pitch": 36,
              "velocity": 33,
              "position": 2,
              "duration": 0.1875
            },
            {
              "pitch": 36,
              "velocity": 58,
              "position": 2.75,
              "duration": 0.08333333333333333
            },
            {
              "pitch": 31,
              "velocity": 79,
              "position": 3,
              "duration": 0.5625
            },
            {
              "pitch": 31,
              "velocity": 38,
              "position": 3.75,
              "duration": 0.1875
            },
            {
              "pitch": 36,
              "velocity": 50,
              "position": 4,
              "duration": 0.14583333333333334
            },
            {
              "pitch": 36,
              "velocity": 68,
              "position": 4.75,
              "duration": 0.041666666666666664
            },
            {
              "pitch": 31,
              "velocity": 79,
              "position": 5,
              "duration": 0.6041666666666666
            },
            {
              "pitch": 31,
              "velocity": 28,
              "position": 5.75,
              "duration": 0.16666666666666666
            },
            {
              "pitch": 36,
              "velocity": 58,
              "position": 6,
              "duration": 0.10416666666666667
            },
            {
              "pitch": 36,
              "velocity": 79,
              "position": 6.75,
              "duration": 0.0625
            },
            {
              "pitch": 31,
              "velocity": 79,
              "position": 7,
              "duration": 0.5416666666666666
            },
            {
              "pitch": 31,
              "velocity": 45,
              "position": 7.75,
              "duration": 0.1875
            },
            {
              "pitch": 36,
              "velocity": 58,
              "position": 8,
              "duration": 0.3958333333333333
            },
            {
              "pitch": 36,
              "velocity": 64,
              "position": 8.75,
              "duration": 0.0625
            },
            {
              "pitch": 31,
              "velocity": 79,
              "position": 9,
              "duration": 0.5833333333333334
            },
            {
              "pitch": 31,
              "velocity": 41,
              "position": 9.75,
              "duration": 0.16666666666666666
            },
            {
              "pitch": 36,
              "velocity": 35,
              "position": 10,
              "duration": 0.10416666666666667
            },
            {
              "pitch": 36,
              "velocity": 75,
              "position": 10.75,
              "duration": 0.0625
            },
            {
              "pitch": 31,
              "velocity": 79,
              "position": 11,
              "duration": 0.5625
            },
            {
              "pitch": 31,
              "velocity": 34,
              "position": 11.75,
              "duration": 0.1875
            },
            {
              "pitch": 36,
              "velocity": 54,
              "position": 12,
              "duration": 0.125
            },
            {
              "pitch": 36,
              "velocity": 79,
              "position": 12.75,
              "duration": 0.0625
            },
            {
              "pitch": 31,
              "velocity": 79,
              "position": 13,
              "duration": 0.6041666666666666
            },
            {
              "pitch": 31,
              "velocity": 63,
              "position": 13.75,
              "duration": 0.16666666666666666
            },
            {
              "pitch": 36,
              "velocity": 48,
              "position": 14,
              "duration": 0.10416666666666667
            },
            {
              "pitch": 36,
              "velocity": 71,
              "position": 14.75,
              "duration": 0.0625
            },
            {
              "pitch": 31,
              "velocity": 79,
              "position": 15,
              "duration": 0.6041666666666666
            },
            {
              "pitch": 31,
              "velocity": 70,
              "position": 15.75,
              "duration": 0.14583333333333334
            }
          ]
        },
        "14": {
          "ctab": {
            "srcChannel": 14,
            "name": "Alto Sax",
            "accType": "CHORD1",
            "editable": false,
            "mutedNotes": [],
            "mutedChords": [],
            "autoStart": false,
            "sourceChordNote": 0,
            "sourceChordType": "Maj7",
            "ctb2Low": null,
            "ctb2Main": {
              "ntr": "ROOT_TRANSPOSITION",
              "ntt": "CHORD",
              "bassOn": false,
              "chordRootUpperLimit": 6,
              "noteLowLimit": 0,
              "noteHighLimit": 79,
              "rtr": "PITCH_SHIFT"
            },
            "ctb2High": null,
            "ctb2MiddleLowPitch": 0,
            "ctb2MiddleHighPitch": 127
          },
          "notes": [
            {
              "pitch": 59,
              "velocity": 93,
              "position": 0.25,
              "duration": 0.041666666666666664
            },
            {
              "pitch": 67,
              "velocity": 95,
              "position": 0.25,
              "duration": 0.0625
            },
            {
              "pitch": 64,
              "velocity": 85,
              "position": 0.25,
              "duration": 0.0625
            },
            {
              "pitch": 74,
              "velocity": 71,
              "position": 0.25,
              "duration": 0.08333333333333333
            },
            {
              "pitch": 67,
              "velocity": 82,
              "position": 0.5,
              "duration": 0.14583333333333334
            },
            {
              "pitch": 64,
              "velocity": 81,
              "position": 0.5,
              "duration": 0.14583333333333334
            },
            {
              "pitch": 74,
              "velocity": 99,
              "position": 0.5,
              "duration": 0.1875
            },
            {
              "pitch": 67,
              "velocity": 65,
              "position": 2.75,
              "duration": 0.041666666666666664
            },
            {
              "pitch": 64,
              "velocity": 64,
              "position": 2.75,
              "duration": 0.08333333333333333
            },
            {
              "pitch": 59,
              "velocity": 65,
              "position": 3,
              "duration": 0.0625
            },
            {
              "pitch": 67,
              "velocity": 96,
              "position": 3.25,
              "duration": 0.041666666666666664
            },
            {
              "pitch": 64,
              "velocity": 84,
              "position": 3.25,
              "duration": 0.0625
            },
            {
              "pitch": 67,
              "velocity": 126,
              "position": 4.25,
              "duration": 0.0625
            },
            {
              "pitch": 64,
              "velocity": 100,
              "position": 4.25,
              "duration": 0.08333333333333333
            },
            {
              "pitch": 74,
              "velocity": 82,
              "position": 4.25,
              "duration": 0.10416666666666667
            },
            {
              "pitch": 59,
              "velocity": 87,
              "position": 4.75,
              "duration": 0.0625
            },
            {
              "pitch": 67,
              "velocity": 106,
              "position": 5,
              "duration": 0.041666666666666664
            },
            {
              "pitch": 64,
              "velocity": 96,
              "position": 5,
              "duration": 0.0625
            },
            {
              "pitch": 74,
              "velocity": 80,
              "position": 5,
              "duration": 0.08333333333333333
            },
            {
              "pitch": 67,
              "velocity": 80,
              "position": 5.75,
              "duration": 0.0625
            },
            {
              "pitch": 76,
              "velocity": 83,
              "position": 5.75,
              "duration": 0.08333333333333333
            },
            {
              "pitch": 64,
              "velocity": 83,
              "position": 5.75,
              "duration": 0.10416666666666667
            },
            {
              "pitch": 59,
              "velocity": 110,
              "position": 6.25,
              "duration": 0.08333333333333333
            },
            {
              "pitch": 67,
              "velocity": 93,
              "position": 6.5,
              "duration": 0.0625
            },
            {
              "pitch": 64,
              "velocity": 96,
              "position": 6.5,
              "duration": 0.08333333333333333
            },
            {
              "pitch": 74,
              "velocity": 92,
              "position": 6.5,
              "duration": 0.10416666666666667
            },
            {
              "pitch": 55,
              "velocity": 83,
              "position": 7,
              "duration": 0.125
            },
            {
              "pitch": 67,
              "velocity": 93,
              "position": 7.25,
              "duration": 0.0625
            },
            {
              "pitch": 64,
              "velocity": 84,
              "position": 7.25,
              "duration": 0.10416666666666667
            },
            {
              "pitch": 67,
              "velocity": 116,
              "position": 8.25,
              "duration": 0.0625
            },
            {
              "pitch": 64,
              "velocity": 91,
              "position": 8.25,
              "duration": 0.0625
            },
            {
              "pitch": 74,
              "velocity": 93,
              "position": 8.25,
              "duration": 0.10416666666666667
            },
            {
              "pitch": 59,
              "velocity": 120,
              "position": 15.25,
              "duration": 0.10416666666666667
            },
            {
              "pitch": 63,
              "velocity": 127,
              "position": 15.25,
              "duration": 0.1875
            },
            {
              "pitch": 64,
              "velocity": 96,
              "position": 15.5,
              "duration": 0.14583333333333334
            },
            {
              "pitch": 67,
              "velocity": 110,
              "position": 15.75,
              "duration": 0.14583333333333334
            }
          ]
        }
      }
    },
    "Main_D": {
      "type": "Main_D",
      "sizeInBeats": 16,
      "channels": {
        "0": {
          "ctab": {
            "srcChannel": 0,
            "name": "NylonGtr",
            "accType": "CHORD2",
            "editable": false,
            "mutedNotes": [],
            "mutedChords": [],
            "autoStart": false,
            "sourceChordNote": 0,
            "sourceChordType": "Maj7",
            "ctb2Low": null,
            "ctb2Main": {
              "ntr": "ROOT_TRANSPOSITION",
              "ntt": "CHORD",
              "bassOn": false,
              "chordRootUpperLimit": 6,
              "noteLowLimit": 0,
              "noteHighLimit": 127,
              "rtr": "PITCH_SHIFT"
            },
            "ctb2High": null,
            "ctb2MiddleLowPitch": 0,
            "ctb2MiddleHighPitch": 127
          },
          "notes": [
            {
              "pitch": 52,
              "velocity": 78,
              "position": 0.5,
              "duration": 0.3541666666666667
            },
            {
              "pitch": 62,
              "velocity": 72,
              "position": 0.5,
              "duration": 0.3541666666666667
            },
            {
              "pitch": 55,
              "velocity": 90,
              "position": 0.5,
              "duration": 0.3541666666666667
            },
            {
              "pitch": 62,
              "velocity": 57,
              "position": 1,
              "duration": 0.0625
            },
            {
              "pitch": 55,
              "velocity": 55,
              "position": 1,
              "duration": 0.10416666666666667
            },
            {
              "pitch": 52,
              "velocity": 45,
              "position": 1,
              "duration": 0.10416666666666667
            },
            {
              "pitch": 55,
              "velocity": 87,
              "position": 1.5,
              "duration": 0.08333333333333333
            },
            {
              "pitch": 52,
              "velocity": 70,
              "position": 1.5,
              "duration": 0.08333333333333333
            },
            {
              "pitch": 62,
              "velocity": 61,
              "position": 1.5,
              "duration": 0.10416666666666667
            },
            {
              "pitch": 52,
              "velocity": 77,
              "position": 2,
              "duration": 0.08333333333333333
            },
            {
              "pitch": 55,
              "velocity": 100,
              "position": 2,
              "duration": 0.10416666666666667
            },
            {
              "pitch": 62,
              "velocity": 75,
              "position": 2,
              "duration": 0.14583333333333334
            },
            {
              "pitch": 52,
              "velocity": 64,
              "position": 2.25,
              "duration": 0.14583333333333334
            },
            {
              "pitch": 55,
              "velocity": 71,
              "position": 2.5,
              "duration": 0.0625
            },
            {
              "pitch": 52,
              "velocity": 52,
              "position": 2.5,
              "duration": 0.08333333333333333
            },
            {
              "pitch": 58,
              "velocity": 66,
              "position": 2.75,
              "duration": 0.020833333333333332
            },
            {
              "pitch": 55,
              "velocity": 94,
              "position": 2.75,
              "duration": 0.0625
            },
            {
              "pitch": 52,
              "velocity": 74,
              "position": 2.75,
              "duration": 0.08333333333333333
            },
            {
              "pitch": 62,
              "velocity": 74,
              "position": 2.75,
              "duration": 0.10416666666666667
            },
            {
              "pitch": 62,
              "velocity": 71,
              "position": 3.25,
              "duration": 0.10416666666666667
            },
            {
              "pitch": 52,
              "velocity": 77,
              "position": 3.25,
              "duration": 0.10416666666666667
            },
            {
              "pitch": 55,
              "velocity": 94,
              "position": 3.25,
              "duration": 0.10416666666666667
            },
            {
              "pitch": 52,
              "velocity": 84,
              "position": 3.75,
              "duration": 0.10416666666666667
            },
            {
              "pitch": 62,
              "velocity": 71,
              "position": 3.75,
              "duration": 0.10416666666666667
            },
            {
              "pitch": 55,
              "velocity": 94,
              "position": 3.75,
              "duration": 0.10416666666666667
            },
            {
              "pitch": 55,
              "velocity": 100,
              "position": 4.25,
              "duration": 0.10416666666666667
            },
            {
              "pitch": 62,
              "velocity": 73,
              "position": 4.25,
              "duration": 0.10416666666666667
            },
            {
              "pitch": 52,
              "velocity": 85,
              "position": 4.25,
              "duration": 0.125
            },
            {
              "pitch": 48,
              "velocity": 69,
              "position": 4.5,
              "duration": 0.08333333333333333
            },
            {
              "pitch": 48,
              "velocity": 73,
              "position": 4.75,
              "duration": 0.08333333333333333
            },
            {
              "pitch": 55,
              "velocity": 94,
              "position": 5,
              "duration": 0.0625
            },
            {
              "pitch": 52,
              "velocity": 85,
              "position": 5,
              "duration": 0.0625
            },
            {
              "pitch": 62,
              "velocity": 67,
              "position": 5,
              "duration": 0.08333333333333333
            },
            {
              "pitch": 55,
              "velocity": 74,
              "position": 5.5,
              "duration": 0.041666666666666664
            },
            {
              "pitch": 52,
              "velocity": 69,
              "position": 5.5,
              "duration": 0.0625
            },
            {
              "pitch": 48,
              "velocity": 57,
              "position": 5.75,
              "duration": 0.10416666666666667
            },
            {
              "pitch": 52,
              "velocity": 77,
              "position": 6,
              "duration": 0.0625
            },
            {
              "pitch": 55,
              "velocity": 100,
              "position": 6,
              "duration": 0.08333333333333333
            },
            {
              "pitch": 62,
              "velocity": 73,
              "position": 6,
              "duration": 0.10416666666666667
            },
            {
              "pitch": 48,
              "velocity": 73,
              "position": 6.25,
              "duration": 0.10416666666666667
            },
            {
              "pitch": 52,
              "velocity": 85,
              "position": 6.5,
              "duration": 0.08333333333333333
            },
            {
              "pitch": 55,
              "velocity": 100,
              "position": 6.75,
              "duration": 0.08333333333333333
            },
            {
              "pitch": 52,
              "velocity": 84,
              "position": 6.75,
              "duration": 0.10416666666666667
            },
            {
              "pitch": 62,
              "velocity": 84,
              "position": 6.75,
              "duration": 0.10416666666666667
            },
            {
              "pitch": 48,
              "velocity": 61,
              "position": 7,
              "duration": 0.041666666666666664
            },
            {
              "pitch": 55,
              "velocity": 97,
              "position": 7.25,
              "duration": 0.08333333333333333
            },
            {
              "pitch": 52,
              "velocity": 85,
              "position": 7.25,
              "duration": 0.10416666666666667
            },
            {
              "pitch": 62,
              "velocity": 65,
              "position": 7.25,
              "duration": 0.10416666666666667
            },
            {
              "pitch": 48,
              "velocity": 55,
              "position": 7.5,
              "duration": 0.0625
            },
            {
              "pitch": 55,
              "velocity": 81,
              "position": 7.75,
              "duration": 0.0625
            },
            {
              "pitch": 52,
              "velocity": 70,
              "position": 7.75,
              "duration": 0.10416666666666667
            },
            {
              "pitch": 62,
              "velocity": 57,
              "position": 7.75,
              "duration": 0.10416666666666667
            },
            {
              "pitch": 48,
              "velocity": 82,
              "position": 8,
              "duration": 0.08333333333333333
            },
            {
              "pitch": 55,
              "velocity": 94,
              "position": 8.25,
              "duration": 0.0625
            },
            {
              "pitch": 52,
              "velocity": 73,
              "position": 8.25,
              "duration": 0.08333333333333333
            },
            {
              "pitch": 62,
              "velocity": 57,
              "position": 8.25,
              "duration": 0.08333333333333333
            },
            {
              "pitch": 55,
              "velocity": 100,
              "position": 8.5,
              "duration": 0.0625
            },
            {
              "pitch": 52,
              "velocity": 87,
              "position": 8.5,
              "duration": 0.0625
            },
            {
              "pitch": 62,
              "velocity": 85,
              "position": 8.5,
              "duration": 0.10416666666666667
            },
            {
              "pitch": 48,
              "velocity": 62,
              "position": 8.75,
              "duration": 0.08333333333333333
            },
            {
              "pitch": 55,
              "velocity": 88,
              "position": 9,
              "duration": 0.041666666666666664
            },
            {
              "pitch": 52,
              "velocity": 81,
              "position": 9,
              "duration": 0.08333333333333333
            },
            {
              "pitch": 62,
              "velocity": 64,
              "position": 9,
              "duration": 0.08333333333333333
            },
            {
              "pitch": 55,
              "velocity": 97,
              "position": 9.5,
              "duration": 0.0625
            },
            {
              "pitch": 52,
              "velocity": 87,
              "position": 9.5,
              "duration": 0.08333333333333333
            },
            {
              "pitch": 62,
              "velocity": 74,
              "position": 9.5,
              "duration": 0.10416666666666667
            },
            {
              "pitch": 48,
              "velocity": 53,
              "position": 9.75,
              "duration": 0.041666666666666664
            },
            {
              "pitch": 55,
              "velocity": 90,
              "position": 10,
              "duration": 0.0625
            },
            {
              "pitch": 62,
              "velocity": 69,
              "position": 10,
              "duration": 0.08333333333333333
            },
            {
              "pitch": 48,
              "velocity": 66,
              "position": 10.25,
              "duration": 0.0625
            },
            {
              "pitch": 55,
              "velocity": 74,
              "position": 10.5,
              "duration": 0.041666666666666664
            },
            {
              "pitch": 52,
              "velocity": 90,
              "position": 10.5,
              "duration": 0.10416666666666667
            },
            {
              "pitch": 55,
              "velocity": 100,
              "position": 10.75,
              "duration": 0.0625
            },
            {
              "pitch": 52,
              "velocity": 85,
              "position": 10.75,
              "duration": 0.0625
            },
            {
              "pitch": 62,
              "velocity": 78,
              "position": 10.75,
              "duration": 0.08333333333333333
            },
            {
              "pitch": 48,
              "velocity": 57,
              "position": 11,
              "duration": 0.0625
            },
            {
              "pitch": 55,
              "velocity": 94,
              "position": 11.25,
              "duration": 0.10416666666666667
            },
            {
              "pitch": 52,
              "velocity": 84,
              "position": 11.25,
              "duration": 0.10416666666666667
            },
            {
              "pitch": 62,
              "velocity": 67,
              "position": 11.25,
              "duration": 0.125
            },
            {
              "pitch": 48,
              "velocity": 75,
              "position": 11.5,
              "duration": 0.041666666666666664
            },
            {
              "pitch": 55,
              "velocity": 94,
              "position": 11.75,
              "duration": 0.0625
            },
            {
              "pitch": 62,
              "velocity": 60,
              "position": 11.75,
              "duration": 0.08333333333333333
            },
            {
              "pitch": 52,
              "velocity": 81,
              "position": 11.75,
              "duration": 0.10416666666666667
            },
            {
              "pitch": 48,
              "velocity": 84,
              "position": 12,
              "duration": 0.10416666666666667
            },
            {
              "pitch": 55,
              "velocity": 88,
              "position": 12.25,
              "duration": 0.08333333333333333
            },
            {
              "pitch": 52,
              "velocity": 77,
              "position": 12.25,
              "duration": 0.08333333333333333
            },
            {
              "pitch": 62,
              "velocity": 75,
              "position": 12.25,
              "duration": 0.125
            },
            {
              "pitch": 48,
              "velocity": 51,
              "position": 12.5,
              "duration": 0.125
            },
            {
              "pitch": 55,
              "velocity": 87,
              "position": 12.75,
              "duration": 0.08333333333333333
            },
            {
              "pitch": 62,
              "velocity": 55,
              "position": 12.75,
              "duration": 0.08333333333333333
            },
            {
              "pitch": 52,
              "velocity": 70,
              "position": 12.75,
              "duration": 0.08333333333333333
            },
            {
              "pitch": 55,
              "velocity": 90,
              "position": 13,
              "duration": 0.041666666666666664
            },
            {
              "pitch": 52,
              "velocity": 77,
              "position": 13,
              "duration": 0.08333333333333333
            },
            {
              "pitch": 62,
              "velocity": 69,
              "position": 13,
              "duration": 0.08333333333333333
            },
            {
              "pitch": 48,
              "velocity": 69,
              "position": 13.25,
              "duration": 0.0625
            },
            {
              "pitch": 52,
              "velocity": 78,
              "position": 13.5,
              "duration": 0.08333333333333333
            },
            {
              "pitch": 55,
              "velocity": 100,
              "position": 13.75,
              "duration": 0.0625
            },
            {
              "pitch": 52,
              "velocity": 85,
              "position": 13.75,
              "duration": 0.08333333333333333
            },
            {
              "pitch": 62,
              "velocity": 75,
              "position": 13.75,
              "duration": 0.10416666666666667
            },
            {
              "pitch": 48,
              "velocity": 84,
              "position": 14,
              "duration": 0.08333333333333333
            },
            {
              "pitch": 62,
              "velocity": 43,
              "position": 14.25,
              "duration": 0.041666666666666664
            },
            {
              "pitch": 55,
              "velocity": 85,
              "position": 14.25,
              "duration": 0.0625
            },
            {
              "pitch": 52,
              "velocity": 73,
              "position": 14.25,
              "duration": 0.08333333333333333
            },
            {
              "pitch": 55,
              "velocity": 98,
              "position": 14.5,
              "duration": 0.0625
            },
            {
              "pitch": 52,
              "velocity": 85,
              "position": 14.5,
              "duration": 0.08333333333333333
            },
            {
              "pitch": 62,
              "velocity": 90,
              "position": 14.5,
              "duration": 0.10416666666666667
            },
            {
              "pitch": 48,
              "velocity": 87,
              "position": 14.75,
              "duration": 0.08333333333333333
            },
            {
              "pitch": 52,
              "velocity": 70,
              "position": 15,
              "duration": 0.041666666666666664
            },
            {
              "pitch": 55,
              "velocity": 100,
              "position": 15.25,
              "duration": 0.08333333333333333
            },
            {
              "pitch": 52,
              "velocity": 81,
              "position": 15.25,
              "duration": 0.10416666666666667
            },
            {
              "pitch": 62,
              "velocity": 72,
              "position": 15.25,
              "duration": 0.10416666666666667
            },
            {
              "pitch": 48,
              "velocity": 78,
              "position": 15.5,
              "duration": 0.08333333333333333
            },
            {
              "pitch": 55,
              "velocity": 94,
              "position": 15.75,
              "duration": 0.041666666666666664
            },
            {
              "pitch": 52,
              "velocity": 81,
              "position": 15.75,
              "duration": 0.08333333333333333
            },
            {
              "pitch": 62,
              "velocity": 74,
              "position": 15.75,
              "duration": 0.08333333333333333
            }
          ]
        },
        "2": {
          "ctab": {
            "srcChannel": 2,
            "name": "Strings1",
            "accType": "PAD",
            "editable": false,
            "mutedNotes": [],
            "mutedChords": [],
            "autoStart": false,
            "sourceChordNote": 0,
            "sourceChordType": "Maj7",
            "ctb2Low": null,
            "ctb2Main": {
              "ntr": "ROOT_TRANSPOSITION",
              "ntt": "CHORD",
              "bassOn": false,
              "chordRootUpperLimit": 6,
              "noteLowLimit": 0,
              "noteHighLimit": 127,
              "rtr": "PITCH_SHIFT"
            },
            "ctb2High": null,
            "ctb2MiddleLowPitch": 0,
            "ctb2MiddleHighPitch": 127
          },
          "notes": [
            {
              "pitch": 74,
              "velocity": 55,
              "position": 0,
              "duration": 4.125
            },
            {
              "pitch": 79,
              "velocity": 25,
              "position": 4,
              "duration": 4.166666666666667
            },
            {
              "pitch": 76,
              "velocity": 29,
              "position": 8,
              "duration": 4.145833333333333
            },
            {
              "pitch": 79,
              "velocity": 48,
              "position": 12,
              "duration": 3.125
            },
            {
              "pitch": 55,
              "velocity": 38,
              "position": 0,
              "duration": 15.979166666666666
            },
            {
              "pitch": 59,
              "velocity": 54,
              "position": 0,
              "duration": 15.979166666666666
            },
            {
              "pitch": 64,
              "velocity": 45,
              "position": 0,
              "duration": 15.979166666666666
            },
            {
              "pitch": 76,
              "velocity": 17,
              "position": 15,
              "duration": 0.9791666666666666
            }
          ]
        },
        "8": {
          "ctab": {
            "srcChannel": 8,
            "name": "Std.Kit1",
            "accType": "RHYTHM",
            "editable": false,
            "mutedNotes": [],
            "mutedChords": [],
            "autoStart": true,
            "sourceChordNote": 0,
            "sourceChordType": "Maj7",
            "ctb2Low": null,
            "ctb2Main": {
              "ntr": "ROOT_FIXED",
              "ntt": "BYPASS",
              "bassOn": false,
              "chordRootUpperLimit": 6,
              "noteLowLimit": 0,
              "noteHighLimit": 127,
              "rtr": "PITCH_SHIFT"
            },
            "ctb2High": null,
            "ctb2MiddleLowPitch": 0,
            "ctb2MiddleHighPitch": 127
          },
          "notes": [
            {
              "pitch": 42,
              "velocity": 63,
              "position": 0.041666666666666664,
              "duration": 0.08333333333333333
            },
            {
              "pitch": 44,
              "velocity": 16,
              "position": 0.041666666666666664,
              "duration": 0.16666666666666666
            },
            {
              "pitch": 42,
              "velocity": 50,
              "position": 0.25,
              "duration": 0.10416666666666667
            },
            {
              "pitch": 37,
              "velocity": 93,
              "position": 0.25,
              "duration": 0.125
            },
            {
              "pitch": 36,
              "velocity": 95,
              "position": 0.041666666666666664,
              "duration": 0.4791666666666667
            },
            {
              "pitch": 44,
              "velocity": 31,
              "position": 0.5,
              "duration": 0.14583333333333334
            },
            {
              "pitch": 42,
              "velocity": 38,
              "position": 0.75,
              "duration": 0.0625
            },
            {
              "pitch": 36,
              "velocity": 64,
              "position": 0.75,
              "duration": 0.0625
            },
            {
              "pitch": 37,
              "velocity": 56,
              "position": 0.75,
              "duration": 0.10416666666666667
            },
            {
              "pitch": 42,
              "velocity": 63,
              "position": 1,
              "duration": 0.10416666666666667
            },
            {
              "pitch": 37,
              "velocity": 83,
              "position": 1,
              "duration": 0.10416666666666667
            },
            {
              "pitch": 42,
              "velocity": 45,
              "position": 1.25,
              "duration": 0.08333333333333333
            },
            {
              "pitch": 44,
              "velocity": 60,
              "position": 1.25,
              "duration": 0.1875
            },
            {
              "pitch": 36,
              "velocity": 95,
              "position": 1,
              "duration": 0.4791666666666667
            },
            {
              "pitch": 37,
              "velocity": 76,
              "position": 1.5,
              "duration": 0.08333333333333333
            },
            {
              "pitch": 36,
              "velocity": 64,
              "position": 1.75,
              "duration": 0.0625
            },
            {
              "pitch": 37,
              "velocity": 95,
              "position": 1.75,
              "duration": 0.0625
            },
            {
              "pitch": 46,
              "velocity": 10,
              "position": 1.75,
              "duration": 0.125
            },
            {
              "pitch": 44,
              "velocity": 15,
              "position": 1.7916666666666667,
              "duration": 0.16666666666666666
            },
            {
              "pitch": 42,
              "velocity": 80,
              "position": 1.75,
              "duration": 0.23958333333333334
            },
            {
              "pitch": 42,
              "velocity": 63,
              "position": 2,
              "duration": 0.1875
            },
            {
              "pitch": 42,
              "velocity": 50,
              "position": 2.25,
              "duration": 0.10416666666666667
            },
            {
              "pitch": 37,
              "velocity": 93,
              "position": 2.25,
              "duration": 0.125
            },
            {
              "pitch": 44,
              "velocity": 16,
              "position": 2.25,
              "duration": 0.1875
            },
            {
              "pitch": 36,
              "velocity": 95,
              "position": 2,
              "duration": 0.5
            },
            {
              "pitch": 44,
              "velocity": 78,
              "position": 2.5,
              "duration": 0.14583333333333334
            },
            {
              "pitch": 42,
              "velocity": 38,
              "position": 2.75,
              "duration": 0.0625
            },
            {
              "pitch": 36,
              "velocity": 64,
              "position": 2.75,
              "duration": 0.0625
            },
            {
              "pitch": 37,
              "velocity": 56,
              "position": 2.75,
              "duration": 0.10416666666666667
            },
            {
              "pitch": 44,
              "velocity": 11,
              "position": 2.75,
              "duration": 0.14583333333333334
            },
            {
              "pitch": 42,
              "velocity": 63,
              "position": 3,
              "duration": 0.10416666666666667
            },
            {
              "pitch": 37,
              "velocity": 83,
              "position": 3,
              "duration": 0.10416666666666667
            },
            {
              "pitch": 42,
              "velocity": 45,
              "position": 3.25,
              "duration": 0.08333333333333333
            },
            {
              "pitch": 44,
              "velocity": 60,
              "position": 3.25,
              "duration": 0.10416666666666667
            },
            {
              "pitch": 36,
              "velocity": 95,
              "position": 3,
              "duration": 0.4791666666666667
            },
            {
              "pitch": 37,
              "velocity": 76,
              "position": 3.5,
              "duration": 0.08333333333333333
            },
            {
              "pitch": 44,
              "velocity": 31,
              "position": 3.5,
              "duration": 0.16666666666666666
            },
            {
              "pitch": 36,
              "velocity": 64,
              "position": 3.75,
              "duration": 0.0625
            },
            {
              "pitch": 37,
              "velocity": 95,
              "position": 3.75,
              "duration": 0.08333333333333333
            },
            {
              "pitch": 46,
              "velocity": 10,
              "position": 3.75,
              "duration": 0.125
            },
            {
              "pitch": 42,
              "velocity": 80,
              "position": 3.75,
              "duration": 0.23958333333333334
            },
            {
              "pitch": 44,
              "velocity": 31,
              "position": 4,
              "duration": 0.16666666666666666
            },
            {
              "pitch": 42,
              "velocity": 59,
              "position": 4,
              "duration": 0.20833333333333334
            },
            {
              "pitch": 42,
              "velocity": 45,
              "position": 4.25,
              "duration": 0.10416666666666667
            },
            {
              "pitch": 36,
              "velocity": 84,
              "position": 4,
              "duration": 0.4791666666666667
            },
            {
              "pitch": 42,
              "velocity": 49,
              "position": 4.5,
              "duration": 0.125
            },
            {
              "pitch": 37,
              "velocity": 101,
              "position": 4.5,
              "duration": 0.14583333333333334
            },
            {
              "pitch": 44,
              "velocity": 23,
              "position": 4.5,
              "duration": 0.16666666666666666
            },
            {
              "pitch": 42,
              "velocity": 76,
              "position": 4.75,
              "duration": 0.10416666666666667
            },
            {
              "pitch": 36,
              "velocity": 67,
              "position": 4.75,
              "duration": 0.10416666666666667
            },
            {
              "pitch": 42,
              "velocity": 76,
              "position": 5,
              "duration": 0.10416666666666667
            },
            {
              "pitch": 44,
              "velocity": 23,
              "position": 5.208333333333333,
              "duration": 0.14583333333333334
            },
            {
              "pitch": 42,
              "velocity": 36,
              "position": 5.25,
              "duration": 0.10416666666666667
            },
            {
              "pitch": 37,
              "velocity": 85,
              "position": 5.25,
              "duration": 0.125
            },
            {
              "pitch": 36,
              "velocity": 89,
              "position": 5,
              "duration": 0.5
            },
            {
              "pitch": 44,
              "velocity": 60,
              "position": 5.5,
              "duration": 0.14583333333333334
            },
            {
              "pitch": 42,
              "velocity": 15,
              "position": 5.75,
              "duration": 0.08333333333333333
            },
            {
              "pitch": 36,
              "velocity": 50,
              "position": 5.75,
              "duration": 0.08333333333333333
            },
            {
              "pitch": 37,
              "velocity": 84,
              "position": 5.75,
              "duration": 0.125
            },
            {
              "pitch": 44,
              "velocity": 19,
              "position": 5.791666666666667,
              "duration": 0.16666666666666666
            },
            {
              "pitch": 42,
              "velocity": 76,
              "position": 6,
              "duration": 0.125
            },
            {
              "pitch": 37,
              "velocity": 91,
              "position": 6.25,
              "duration": 0.125
            },
            {
              "pitch": 42,
              "velocity": 37,
              "position": 6.25,
              "duration": 0.14583333333333334
            },
            {
              "pitch": 44,
              "velocity": 34,
              "position": 6.291666666666667,
              "duration": 0.16666666666666666
            },
            {
              "pitch": 36,
              "velocity": 95,
              "position": 6,
              "duration": 0.5208333333333334
            },
            {
              "pitch": 42,
              "velocity": 45,
              "position": 6.5,
              "duration": 0.020833333333333332
            },
            {
              "pitch": 44,
              "velocity": 78,
              "position": 6.5,
              "duration": 0.14583333333333334
            },
            {
              "pitch": 36,
              "velocity": 61,
              "position": 6.75,
              "duration": 0.08333333333333333
            },
            {
              "pitch": 42,
              "velocity": 50,
              "position": 6.75,
              "duration": 0.10416666666666667
            },
            {
              "pitch": 44,
              "velocity": 1,
              "position": 6.791666666666667,
              "duration": 0.10416666666666667
            },
            {
              "pitch": 37,
              "velocity": 88,
              "position": 7,
              "duration": 0.125
            },
            {
              "pitch": 42,
              "velocity": 47,
              "position": 7,
              "duration": 0.14583333333333334
            },
            {
              "pitch": 44,
              "velocity": 31,
              "position": 7.041666666666667,
              "duration": 0.16666666666666666
            },
            {
              "pitch": 42,
              "velocity": 71,
              "position": 7.25,
              "duration": 0.125
            },
            {
              "pitch": 36,
              "velocity": 89,
              "position": 7,
              "duration": 0.4583333333333333
            },
            {
              "pitch": 37,
              "velocity": 87,
              "position": 7.5,
              "duration": 0.125
            },
            {
              "pitch": 44,
              "velocity": 72,
              "position": 7.5,
              "duration": 0.14583333333333334
            },
            {
              "pitch": 36,
              "velocity": 75,
              "position": 7.75,
              "duration": 0.08333333333333333
            },
            {
              "pitch": 42,
              "velocity": 63,
              "position": 7.75,
              "duration": 0.125
            },
            {
              "pitch": 44,
              "velocity": 23,
              "position": 7.75,
              "duration": 0.14583333333333334
            },
            {
              "pitch": 37,
              "velocity": 89,
              "position": 8,
              "duration": 0.10416666666666667
            },
            {
              "pitch": 42,
              "velocity": 52,
              "position": 8,
              "duration": 0.125
            },
            {
              "pitch": 44,
              "velocity": 23,
              "position": 8.041666666666666,
              "duration": 0.20833333333333334
            },
            {
              "pitch": 42,
              "velocity": 76,
              "position": 8.25,
              "duration": 0.10416666666666667
            },
            {
              "pitch": 36,
              "velocity": 95,
              "position": 8,
              "duration": 0.4791666666666667
            },
            {
              "pitch": 37,
              "velocity": 92,
              "position": 8.5,
              "duration": 0.125
            },
            {
              "pitch": 44,
              "velocity": 66,
              "position": 8.5,
              "duration": 0.16666666666666666
            },
            {
              "pitch": 36,
              "velocity": 64,
              "position": 8.75,
              "duration": 0.08333333333333333
            },
            {
              "pitch": 42,
              "velocity": 63,
              "position": 8.75,
              "duration": 0.10416666666666667
            },
            {
              "pitch": 42,
              "velocity": 67,
              "position": 9,
              "duration": 0.125
            },
            {
              "pitch": 37,
              "velocity": 97,
              "position": 9.25,
              "duration": 0.125
            },
            {
              "pitch": 42,
              "velocity": 59,
              "position": 9.25,
              "duration": 0.125
            },
            {
              "pitch": 44,
              "velocity": 23,
              "position": 9.25,
              "duration": 0.1875
            },
            {
              "pitch": 36,
              "velocity": 89,
              "position": 9,
              "duration": 0.4791666666666667
            },
            {
              "pitch": 44,
              "velocity": 66,
              "position": 9.5,
              "duration": 0.10416666666666667
            },
            {
              "pitch": 36,
              "velocity": 67,
              "position": 9.75,
              "duration": 0.0625
            },
            {
              "pitch": 42,
              "velocity": 40,
              "position": 9.75,
              "duration": 0.08333333333333333
            },
            {
              "pitch": 37,
              "velocity": 92,
              "position": 9.75,
              "duration": 0.10416666666666667
            },
            {
              "pitch": 44,
              "velocity": 12,
              "position": 9.75,
              "duration": 0.1875
            },
            {
              "pitch": 42,
              "velocity": 59,
              "position": 10,
              "duration": 0.10416666666666667
            },
            {
              "pitch": 42,
              "velocity": 50,
              "position": 10.25,
              "duration": 0.10416666666666667
            },
            {
              "pitch": 37,
              "velocity": 94,
              "position": 10.25,
              "duration": 0.10416666666666667
            },
            {
              "pitch": 44,
              "velocity": 21,
              "position": 10.25,
              "duration": 0.16666666666666666
            },
            {
              "pitch": 36,
              "velocity": 95,
              "position": 10,
              "duration": 0.4375
            },
            {
              "pitch": 44,
              "velocity": 72,
              "position": 10.5,
              "duration": 0.125
            },
            {
              "pitch": 37,
              "velocity": 48,
              "position": 10.75,
              "duration": 0.08333333333333333
            },
            {
              "pitch": 36,
              "velocity": 61,
              "position": 10.75,
              "duration": 0.08333333333333333
            },
            {
              "pitch": 44,
              "velocity": 5,
              "position": 10.75,
              "duration": 0.10416666666666667
            },
            {
              "pitch": 42,
              "velocity": 63,
              "position": 10.75,
              "duration": 0.125
            },
            {
              "pitch": 42,
              "velocity": 59,
              "position": 11,
              "duration": 0.08333333333333333
            },
            {
              "pitch": 37,
              "velocity": 83,
              "position": 11,
              "duration": 0.10416666666666667
            },
            {
              "pitch": 44,
              "velocity": 21,
              "position": 11.041666666666666,
              "duration": 0.1875
            },
            {
              "pitch": 42,
              "velocity": 71,
              "position": 11.25,
              "duration": 0.125
            },
            {
              "pitch": 36,
              "velocity": 89,
              "position": 11,
              "duration": 0.4375
            },
            {
              "pitch": 37,
              "velocity": 92,
              "position": 11.5,
              "duration": 0.10416666666666667
            },
            {
              "pitch": 44,
              "velocity": 66,
              "position": 11.5,
              "duration": 0.14583333333333334
            },
            {
              "pitch": 36,
              "velocity": 67,
              "position": 11.75,
              "duration": 0.08333333333333333
            },
            {
              "pitch": 42,
              "velocity": 63,
              "position": 11.75,
              "duration": 0.10416666666666667
            },
            {
              "pitch": 42,
              "velocity": 55,
              "position": 12,
              "duration": 0.10416666666666667
            },
            {
              "pitch": 37,
              "velocity": 91,
              "position": 12,
              "duration": 0.125
            },
            {
              "pitch": 44,
              "velocity": 18,
              "position": 12,
              "duration": 0.14583333333333334
            },
            {
              "pitch": 42,
              "velocity": 63,
              "position": 12.25,
              "duration": 0.125
            },
            {
              "pitch": 36,
              "velocity": 84,
              "position": 12,
              "duration": 0.4791666666666667
            },
            {
              "pitch": 37,
              "velocity": 95,
              "position": 12.5,
              "duration": 0.125
            },
            {
              "pitch": 44,
              "velocity": 27,
              "position": 12.5,
              "duration": 0.14583333333333334
            },
            {
              "pitch": 36,
              "velocity": 67,
              "position": 12.75,
              "duration": 0.0625
            },
            {
              "pitch": 42,
              "velocity": 52,
              "position": 12.75,
              "duration": 0.08333333333333333
            },
            {
              "pitch": 42,
              "velocity": 63,
              "position": 13,
              "duration": 0.10416666666666667
            },
            {
              "pitch": 42,
              "velocity": 38,
              "position": 13.25,
              "duration": 0.08333333333333333
            },
            {
              "pitch": 37,
              "velocity": 91,
              "position": 13.25,
              "duration": 0.10416666666666667
            },
            {
              "pitch": 44,
              "velocity": 19,
              "position": 13.208333333333334,
              "duration": 0.16666666666666666
            },
            {
              "pitch": 36,
              "velocity": 95,
              "position": 13,
              "duration": 0.4583333333333333
            },
            {
              "pitch": 44,
              "velocity": 72,
              "position": 13.5,
              "duration": 0.16666666666666666
            },
            {
              "pitch": 36,
              "velocity": 57,
              "position": 13.75,
              "duration": 0.0625
            },
            {
              "pitch": 37,
              "velocity": 91,
              "position": 13.75,
              "duration": 0.10416666666666667
            },
            {
              "pitch": 42,
              "velocity": 45,
              "position": 13.75,
              "duration": 0.10416666666666667
            },
            {
              "pitch": 44,
              "velocity": 15,
              "position": 13.791666666666666,
              "duration": 0.14583333333333334
            },
            {
              "pitch": 42,
              "velocity": 76,
              "position": 14,
              "duration": 0.125
            },
            {
              "pitch": 42,
              "velocity": 39,
              "position": 14.25,
              "duration": 0.10416666666666667
            },
            {
              "pitch": 37,
              "velocity": 92,
              "position": 14.25,
              "duration": 0.10416666666666667
            },
            {
              "pitch": 36,
              "velocity": 89,
              "position": 14,
              "duration": 0.4583333333333333
            },
            {
              "pitch": 44,
              "velocity": 21,
              "position": 14.291666666666666,
              "duration": 0.16666666666666666
            },
            {
              "pitch": 44,
              "velocity": 72,
              "position": 14.5,
              "duration": 0.14583333333333334
            },
            {
              "pitch": 36,
              "velocity": 50,
              "position": 14.75,
              "duration": 0.0625
            },
            {
              "pitch": 42,
              "velocity": 59,
              "position": 14.75,
              "duration": 0.10416666666666667
            },
            {
              "pitch": 44,
              "velocity": 15,
              "position": 14.75,
              "duration": 0.14583333333333334
            },
            {
              "pitch": 42,
              "velocity": 63,
              "position": 15,
              "duration": 0.10416666666666667
            },
            {
              "pitch": 37,
              "velocity": 79,
              "position": 15,
              "duration": 0.125
            },
            {
              "pitch": 44,
              "velocity": 43,
              "position": 15.041666666666666,
              "duration": 0.16666666666666666
            },
            {
              "pitch": 42,
              "velocity": 76,
              "position": 15.25,
              "duration": 0.14583333333333334
            },
            {
              "pitch": 36,
              "velocity": 95,
              "position": 15,
              "duration": 0.4583333333333333
            },
            {
              "pitch": 37,
              "velocity": 92,
              "position": 15.5,
              "duration": 0.125
            },
            {
              "pitch": 44,
              "velocity": 66,
              "position": 15.5,
              "duration": 0.14583333333333334
            },
            {
              "pitch": 36,
              "velocity": 61,
              "position": 15.75,
              "duration": 0.0625
            },
            {
              "pitch": 44,
              "velocity": 31,
              "position": 15.708333333333334,
              "duration": 0.125
            },
            {
              "pitch": 42,
              "velocity": 50,
              "position": 15.75,
              "duration": 0.125
            }
          ]
        },
        "10": {
          "ctab": {
            "srcChannel": 10,
            "name": "Std.Kit1",
            "accType": "SUBRHYTHM",
            "editable": false,
            "mutedNotes": [],
            "mutedChords": [],
            "autoStart": true,
            "sourceChordNote": 0,
            "sourceChordType": "Maj7",
            "ctb2Low": null,
            "ctb2Main": {
              "ntr": "ROOT_FIXED",
              "ntt": "BYPASS",
              "bassOn": false,
              "chordRootUpperLimit": 6,
              "noteLowLimit": 0,
              "noteHighLimit": 127,
              "rtr": "PITCH_SHIFT"
            },
            "ctb2High": null,
            "ctb2MiddleLowPitch": 0,
            "ctb2MiddleHighPitch": 127
          },
          "notes": [
            {
              "pitch": 54,
              "velocity": 33,
              "position": 0.041666666666666664,
              "duration": 0.125
            },
            {
              "pitch": 61,
              "velocity": 64,
              "position": 0.041666666666666664,
              "duration": 0.1875
            },
            {
              "pitch": 54,
              "velocity": 27,
              "position": 0.25,
              "duration": 0.08333333333333333
            },
            {
              "pitch": 70,
              "velocity": 35,
              "position": 0.25,
              "duration": 0.10416666666666667
            },
            {
              "pitch": 70,
              "velocity": 107,
              "position": 0.5,
              "duration": 0.10416666666666667
            },
            {
              "pitch": 54,
              "velocity": 95,
              "position": 0.5,
              "duration": 0.14583333333333334
            },
            {
              "pitch": 61,
              "velocity": 71,
              "position": 0.5,
              "duration": 0.3333333333333333
            },
            {
              "pitch": 70,
              "velocity": 39,
              "position": 0.75,
              "duration": 0.10416666666666667
            },
            {
              "pitch": 54,
              "velocity": 20,
              "position": 0.75,
              "duration": 0.10416666666666667
            },
            {
              "pitch": 70,
              "velocity": 77,
              "position": 1,
              "duration": 0.08333333333333333
            },
            {
              "pitch": 63,
              "velocity": 64,
              "position": 1,
              "duration": 0.14583333333333334
            },
            {
              "pitch": 54,
              "velocity": 18,
              "position": 1,
              "duration": 0.14583333333333334
            },
            {
              "pitch": 70,
              "velocity": 40,
              "position": 1.25,
              "duration": 0.08333333333333333
            },
            {
              "pitch": 54,
              "velocity": 18,
              "position": 1.25,
              "duration": 0.14583333333333334
            },
            {
              "pitch": 61,
              "velocity": 64,
              "position": 1.2916666666666667,
              "duration": 0.1875
            },
            {
              "pitch": 70,
              "velocity": 98,
              "position": 1.5,
              "duration": 0.0625
            },
            {
              "pitch": 62,
              "velocity": 39,
              "position": 1.5416666666666667,
              "duration": 0.041666666666666664
            },
            {
              "pitch": 54,
              "velocity": 103,
              "position": 1.5,
              "duration": 0.125
            },
            {
              "pitch": 70,
              "velocity": 71,
              "position": 1.75,
              "duration": 0.08333333333333333
            },
            {
              "pitch": 64,
              "velocity": 98,
              "position": 1.7916666666666667,
              "duration": 0.0625
            },
            {
              "pitch": 54,
              "velocity": 47,
              "position": 1.75,
              "duration": 0.125
            },
            {
              "pitch": 61,
              "velocity": 66,
              "position": 1.7916666666666667,
              "duration": 0.1875
            },
            {
              "pitch": 54,
              "velocity": 71,
              "position": 2,
              "duration": 0.125
            },
            {
              "pitch": 64,
              "velocity": 111,
              "position": 2.0416666666666665,
              "duration": 0.14583333333333334
            },
            {
              "pitch": 70,
              "velocity": 35,
              "position": 2.25,
              "duration": 0.10416666666666667
            },
            {
              "pitch": 54,
              "velocity": 25,
              "position": 2.25,
              "duration": 0.14583333333333334
            },
            {
              "pitch": 61,
              "velocity": 66,
              "position": 2.2916666666666665,
              "duration": 0.1875
            },
            {
              "pitch": 70,
              "velocity": 107,
              "position": 2.5,
              "duration": 0.10416666666666667
            },
            {
              "pitch": 54,
              "velocity": 113,
              "position": 2.5,
              "duration": 0.14583333333333334
            },
            {
              "pitch": 70,
              "velocity": 39,
              "position": 2.75,
              "duration": 0.10416666666666667
            },
            {
              "pitch": 54,
              "velocity": 27,
              "position": 2.75,
              "duration": 0.10416666666666667
            },
            {
              "pitch": 61,
              "velocity": 71,
              "position": 2.75,
              "duration": 0.20833333333333334
            },
            {
              "pitch": 70,
              "velocity": 77,
              "position": 3,
              "duration": 0.08333333333333333
            },
            {
              "pitch": 54,
              "velocity": 47,
              "position": 3,
              "duration": 0.125
            },
            {
              "pitch": 61,
              "velocity": 66,
              "position": 3.2083333333333335,
              "duration": 0.125
            },
            {
              "pitch": 70,
              "velocity": 40,
              "position": 3.25,
              "duration": 0.08333333333333333
            },
            {
              "pitch": 54,
              "velocity": 40,
              "position": 3.25,
              "duration": 0.14583333333333334
            },
            {
              "pitch": 70,
              "velocity": 98,
              "position": 3.5,
              "duration": 0.0625
            },
            {
              "pitch": 61,
              "velocity": 94,
              "position": 3.5,
              "duration": 0.14583333333333334
            },
            {
              "pitch": 54,
              "velocity": 103,
              "position": 3.5,
              "duration": 0.14583333333333334
            },
            {
              "pitch": 70,
              "velocity": 71,
              "position": 3.75,
              "duration": 0.08333333333333333
            },
            {
              "pitch": 54,
              "velocity": 30,
              "position": 3.75,
              "duration": 0.10416666666666667
            },
            {
              "pitch": 54,
              "velocity": 54,
              "position": 4,
              "duration": 0.125
            },
            {
              "pitch": 70,
              "velocity": 51,
              "position": 4,
              "duration": 0.125
            },
            {
              "pitch": 61,
              "velocity": 74,
              "position": 4.041666666666667,
              "duration": 0.1875
            },
            {
              "pitch": 70,
              "velocity": 42,
              "position": 4.25,
              "duration": 0.10416666666666667
            },
            {
              "pitch": 54,
              "velocity": 33,
              "position": 4.25,
              "duration": 0.16666666666666666
            },
            {
              "pitch": 54,
              "velocity": 103,
              "position": 4.5,
              "duration": 0.14583333333333334
            },
            {
              "pitch": 70,
              "velocity": 90,
              "position": 4.5,
              "duration": 0.14583333333333334
            },
            {
              "pitch": 61,
              "velocity": 79,
              "position": 4.541666666666667,
              "duration": 0.2708333333333333
            },
            {
              "pitch": 62,
              "velocity": 49,
              "position": 4.75,
              "duration": 0.08333333333333333
            },
            {
              "pitch": 70,
              "velocity": 35,
              "position": 4.75,
              "duration": 0.10416666666666667
            },
            {
              "pitch": 54,
              "velocity": 27,
              "position": 4.75,
              "duration": 0.16666666666666666
            },
            {
              "pitch": 70,
              "velocity": 47,
              "position": 5,
              "duration": 0.08333333333333333
            },
            {
              "pitch": 54,
              "velocity": 61,
              "position": 5,
              "duration": 0.14583333333333334
            },
            {
              "pitch": 63,
              "velocity": 64,
              "position": 5.041666666666667,
              "duration": 0.125
            },
            {
              "pitch": 70,
              "velocity": 29,
              "position": 5.25,
              "duration": 0.125
            },
            {
              "pitch": 54,
              "velocity": 113,
              "position": 5.25,
              "duration": 0.14583333333333334
            },
            {
              "pitch": 61,
              "velocity": 79,
              "position": 5.208333333333333,
              "duration": 0.20833333333333334
            },
            {
              "pitch": 64,
              "velocity": 67,
              "position": 5.458333333333333,
              "duration": 0.10416666666666667
            },
            {
              "pitch": 54,
              "velocity": 30,
              "position": 5.5,
              "duration": 0.0625
            },
            {
              "pitch": 70,
              "velocity": 90,
              "position": 5.5,
              "duration": 0.125
            },
            {
              "pitch": 64,
              "velocity": 104,
              "position": 5.75,
              "duration": 0.08333333333333333
            },
            {
              "pitch": 70,
              "velocity": 35,
              "position": 5.75,
              "duration": 0.125
            },
            {
              "pitch": 54,
              "velocity": 95,
              "position": 5.75,
              "duration": 0.125
            },
            {
              "pitch": 61,
              "velocity": 94,
              "position": 5.791666666666667,
              "duration": 0.22916666666666666
            },
            {
              "pitch": 70,
              "velocity": 55,
              "position": 6,
              "duration": 0.10416666666666667
            },
            {
              "pitch": 54,
              "velocity": 103,
              "position": 6,
              "duration": 0.125
            },
            {
              "pitch": 64,
              "velocity": 120,
              "position": 6.041666666666667,
              "duration": 0.125
            },
            {
              "pitch": 70,
              "velocity": 36,
              "position": 6.25,
              "duration": 0.10416666666666667
            },
            {
              "pitch": 54,
              "velocity": 21,
              "position": 6.25,
              "duration": 0.125
            },
            {
              "pitch": 61,
              "velocity": 79,
              "position": 6.291666666666667,
              "duration": 0.1875
            },
            {
              "pitch": 54,
              "velocity": 71,
              "position": 6.5,
              "duration": 0.125
            },
            {
              "pitch": 70,
              "velocity": 107,
              "position": 6.5,
              "duration": 0.125
            },
            {
              "pitch": 70,
              "velocity": 44,
              "position": 6.75,
              "duration": 0.10416666666666667
            },
            {
              "pitch": 54,
              "velocity": 124,
              "position": 6.75,
              "duration": 0.125
            },
            {
              "pitch": 61,
              "velocity": 66,
              "position": 6.791666666666667,
              "duration": 0.10416666666666667
            },
            {
              "pitch": 54,
              "velocity": 20,
              "position": 7,
              "duration": 0.08333333333333333
            },
            {
              "pitch": 70,
              "velocity": 44,
              "position": 7,
              "duration": 0.08333333333333333
            },
            {
              "pitch": 61,
              "velocity": 104,
              "position": 7.041666666666667,
              "duration": 0.20833333333333334
            },
            {
              "pitch": 70,
              "velocity": 42,
              "position": 7.25,
              "duration": 0.125
            },
            {
              "pitch": 54,
              "velocity": 95,
              "position": 7.25,
              "duration": 0.125
            },
            {
              "pitch": 70,
              "velocity": 90,
              "position": 7.5,
              "duration": 0.10416666666666667
            },
            {
              "pitch": 61,
              "velocity": 79,
              "position": 7.5,
              "duration": 0.14583333333333334
            },
            {
              "pitch": 54,
              "velocity": 113,
              "position": 7.5,
              "duration": 0.16666666666666666
            },
            {
              "pitch": 70,
              "velocity": 40,
              "position": 7.75,
              "duration": 0.10416666666666667
            },
            {
              "pitch": 54,
              "velocity": 47,
              "position": 7.75,
              "duration": 0.10416666666666667
            },
            {
              "pitch": 61,
              "velocity": 94,
              "position": 7.791666666666667,
              "duration": 0.10416666666666667
            },
            {
              "pitch": 70,
              "velocity": 51,
              "position": 8,
              "duration": 0.0625
            },
            {
              "pitch": 54,
              "velocity": 54,
              "position": 8,
              "duration": 0.125
            },
            {
              "pitch": 61,
              "velocity": 84,
              "position": 8.041666666666666,
              "duration": 0.20833333333333334
            },
            {
              "pitch": 70,
              "velocity": 44,
              "position": 8.25,
              "duration": 0.10416666666666667
            },
            {
              "pitch": 54,
              "velocity": 47,
              "position": 8.25,
              "duration": 0.10416666666666667
            },
            {
              "pitch": 70,
              "velocity": 107,
              "position": 8.5,
              "duration": 0.125
            },
            {
              "pitch": 54,
              "velocity": 113,
              "position": 8.5,
              "duration": 0.14583333333333334
            },
            {
              "pitch": 61,
              "velocity": 71,
              "position": 8.5,
              "duration": 0.1875
            },
            {
              "pitch": 70,
              "velocity": 40,
              "position": 8.75,
              "duration": 0.10416666666666667
            },
            {
              "pitch": 54,
              "velocity": 30,
              "position": 8.75,
              "duration": 0.16666666666666666
            },
            {
              "pitch": 70,
              "velocity": 51,
              "position": 9,
              "duration": 0.10416666666666667
            },
            {
              "pitch": 54,
              "velocity": 54,
              "position": 9,
              "duration": 0.10416666666666667
            },
            {
              "pitch": 63,
              "velocity": 64,
              "position": 9,
              "duration": 0.1875
            },
            {
              "pitch": 70,
              "velocity": 42,
              "position": 9.25,
              "duration": 0.125
            },
            {
              "pitch": 54,
              "velocity": 33,
              "position": 9.25,
              "duration": 0.125
            },
            {
              "pitch": 61,
              "velocity": 94,
              "position": 9.25,
              "duration": 0.1875
            },
            {
              "pitch": 70,
              "velocity": 107,
              "position": 9.5,
              "duration": 0.10416666666666667
            },
            {
              "pitch": 54,
              "velocity": 113,
              "position": 9.5,
              "duration": 0.125
            },
            {
              "pitch": 64,
              "velocity": 98,
              "position": 9.75,
              "duration": 0.10416666666666667
            },
            {
              "pitch": 54,
              "velocity": 30,
              "position": 9.75,
              "duration": 0.14583333333333334
            },
            {
              "pitch": 61,
              "velocity": 64,
              "position": 9.75,
              "duration": 0.1875
            },
            {
              "pitch": 70,
              "velocity": 90,
              "position": 10,
              "duration": 0.0625
            },
            {
              "pitch": 54,
              "velocity": 47,
              "position": 10,
              "duration": 0.125
            },
            {
              "pitch": 64,
              "velocity": 104,
              "position": 10.041666666666666,
              "duration": 0.16666666666666666
            },
            {
              "pitch": 70,
              "velocity": 71,
              "position": 10.125,
              "duration": 0.08333333333333333
            },
            {
              "pitch": 70,
              "velocity": 85,
              "position": 10.25,
              "duration": 0.08333333333333333
            },
            {
              "pitch": 61,
              "velocity": 84,
              "position": 10.291666666666666,
              "duration": 0.16666666666666666
            },
            {
              "pitch": 70,
              "velocity": 39,
              "position": 10.375,
              "duration": 0.08333333333333333
            },
            {
              "pitch": 54,
              "velocity": 86,
              "position": 10.25,
              "duration": 0.3541666666666667
            },
            {
              "pitch": 70,
              "velocity": 24,
              "position": 10.5,
              "duration": 0.10416666666666667
            },
            {
              "pitch": 61,
              "velocity": 64,
              "position": 10.75,
              "duration": 0.14583333333333334
            },
            {
              "pitch": 54,
              "velocity": 40,
              "position": 10.75,
              "duration": 0.14583333333333334
            },
            {
              "pitch": 70,
              "velocity": 90,
              "position": 11,
              "duration": 0.0625
            },
            {
              "pitch": 54,
              "velocity": 78,
              "position": 11,
              "duration": 0.16666666666666666
            },
            {
              "pitch": 70,
              "velocity": 55,
              "position": 11.125,
              "duration": 0.0625
            },
            {
              "pitch": 61,
              "velocity": 74,
              "position": 11.083333333333334,
              "duration": 0.1875
            },
            {
              "pitch": 70,
              "velocity": 77,
              "position": 11.25,
              "duration": 0.0625
            },
            {
              "pitch": 54,
              "velocity": 27,
              "position": 11.25,
              "duration": 0.125
            },
            {
              "pitch": 70,
              "velocity": 58,
              "position": 11.375,
              "duration": 0.0625
            },
            {
              "pitch": 70,
              "velocity": 127,
              "position": 11.5,
              "duration": 0.10416666666666667
            },
            {
              "pitch": 54,
              "velocity": 86,
              "position": 11.5,
              "duration": 0.125
            },
            {
              "pitch": 61,
              "velocity": 79,
              "position": 11.5,
              "duration": 0.1875
            },
            {
              "pitch": 54,
              "velocity": 95,
              "position": 11.75,
              "duration": 0.125
            },
            {
              "pitch": 54,
              "velocity": 47,
              "position": 12,
              "duration": 0.10416666666666667
            },
            {
              "pitch": 61,
              "velocity": 74,
              "position": 12.041666666666666,
              "duration": 0.16666666666666666
            },
            {
              "pitch": 54,
              "velocity": 47,
              "position": 12.25,
              "duration": 0.14583333333333334
            },
            {
              "pitch": 54,
              "velocity": 113,
              "position": 12.5,
              "duration": 0.16666666666666666
            },
            {
              "pitch": 61,
              "velocity": 104,
              "position": 12.5,
              "duration": 0.2708333333333333
            },
            {
              "pitch": 54,
              "velocity": 30,
              "position": 12.75,
              "duration": 0.14583333333333334
            },
            {
              "pitch": 54,
              "velocity": 40,
              "position": 13,
              "duration": 0.125
            },
            {
              "pitch": 63,
              "velocity": 31,
              "position": 13,
              "duration": 0.1875
            },
            {
              "pitch": 54,
              "velocity": 95,
              "position": 13.25,
              "duration": 0.16666666666666666
            },
            {
              "pitch": 61,
              "velocity": 64,
              "position": 13.25,
              "duration": 0.20833333333333334
            },
            {
              "pitch": 54,
              "velocity": 21,
              "position": 13.5,
              "duration": 0.10416666666666667
            },
            {
              "pitch": 64,
              "velocity": 92,
              "position": 13.666666666666666,
              "duration": 0.125
            },
            {
              "pitch": 54,
              "velocity": 40,
              "position": 13.75,
              "duration": 0.14583333333333334
            },
            {
              "pitch": 61,
              "velocity": 74,
              "position": 13.791666666666666,
              "duration": 0.1875
            },
            {
              "pitch": 70,
              "velocity": 66,
              "position": 14,
              "duration": 0.10416666666666667
            },
            {
              "pitch": 54,
              "velocity": 103,
              "position": 14,
              "duration": 0.14583333333333334
            },
            {
              "pitch": 64,
              "velocity": 104,
              "position": 14.041666666666666,
              "duration": 0.125
            },
            {
              "pitch": 70,
              "velocity": 30,
              "position": 14.25,
              "duration": 0.10416666666666667
            },
            {
              "pitch": 54,
              "velocity": 54,
              "position": 14.25,
              "duration": 0.125
            },
            {
              "pitch": 61,
              "velocity": 79,
              "position": 14.291666666666666,
              "duration": 0.1875
            },
            {
              "pitch": 70,
              "velocity": 90,
              "position": 14.5,
              "duration": 0.14583333333333334
            },
            {
              "pitch": 54,
              "velocity": 25,
              "position": 14.5,
              "duration": 0.14583333333333334
            },
            {
              "pitch": 70,
              "velocity": 36,
              "position": 14.75,
              "duration": 0.10416666666666667
            },
            {
              "pitch": 61,
              "velocity": 79,
              "position": 14.75,
              "duration": 0.14583333333333334
            },
            {
              "pitch": 54,
              "velocity": 95,
              "position": 14.75,
              "duration": 0.1875
            },
            {
              "pitch": 54,
              "velocity": 27,
              "position": 15,
              "duration": 0.08333333333333333
            },
            {
              "pitch": 70,
              "velocity": 51,
              "position": 15,
              "duration": 0.125
            },
            {
              "pitch": 61,
              "velocity": 94,
              "position": 15.041666666666666,
              "duration": 0.16666666666666666
            },
            {
              "pitch": 70,
              "velocity": 36,
              "position": 15.25,
              "duration": 0.08333333333333333
            },
            {
              "pitch": 54,
              "velocity": 95,
              "position": 15.25,
              "duration": 0.14583333333333334
            },
            {
              "pitch": 64,
              "velocity": 77,
              "position": 15.291666666666666,
              "duration": 0.10416666666666667
            },
            {
              "pitch": 70,
              "velocity": 90,
              "position": 15.5,
              "duration": 0.125
            },
            {
              "pitch": 54,
              "velocity": 124,
              "position": 15.5,
              "duration": 0.16666666666666666
            },
            {
              "pitch": 61,
              "velocity": 64,
              "position": 15.5,
              "duration": 0.1875
            },
            {
              "pitch": 70,
              "velocity": 31,
              "position": 15.75,
              "duration": 0.08333333333333333
            },
            {
              "pitch": 64,
              "velocity": 67,
              "position": 15.75,
              "duration": 0.10416666666666667
            },
            {
              "pitch": 54,
              "velocity": 40,
              "position": 15.75,
              "duration": 0.1875
            },
            {
              "pitch": 61,
              "velocity": 104,
              "position": 15.791666666666666,
              "duration": 0.14583333333333334
            }
          ]
        },
        "12": {
          "ctab": {
            "srcChannel": 12,
            "name": "FngrBass",
            "accType": "BASS",
            "editable": false,
            "mutedNotes": [],
            "mutedChords": [],
            "autoStart": false,
            "sourceChordNote": 0,
            "sourceChordType": "Maj7",
            "ctb2Low": null,
            "ctb2Main": {
              "ntr": "ROOT_TRANSPOSITION",
              "ntt": "MELODY",
              "bassOn": true,
              "chordRootUpperLimit": 3,
              "noteLowLimit": 28,
              "noteHighLimit": 54,
              "rtr": "PITCH_SHIFT_TO_ROOT"
            },
            "ctb2High": null,
            "ctb2MiddleLowPitch": 0,
            "ctb2MiddleHighPitch": 127
          },
          "notes": [
            {
              "pitch": 36,
              "velocity": 58,
              "position": 0,
              "duration": 0.3541666666666667
            },
            {
              "pitch": 36,
              "velocity": 64,
              "position": 0.75,
              "duration": 0.0625
            },
            {
              "pitch": 31,
              "velocity": 79,
              "position": 1,
              "duration": 0.5833333333333334
            },
            {
              "pitch": 31,
              "velocity": 30,
              "position": 1.75,
              "duration": 0.25
            },
            {
              "pitch": 36,
              "velocity": 33,
              "position": 2,
              "duration": 0.1875
            },
            {
              "pitch": 36,
              "velocity": 58,
              "position": 2.75,
              "duration": 0.08333333333333333
            },
            {
              "pitch": 31,
              "velocity": 79,
              "position": 3,
              "duration": 0.5625
            },
            {
              "pitch": 31,
              "velocity": 38,
              "position": 3.75,
              "duration": 0.1875
            },
            {
              "pitch": 36,
              "velocity": 50,
              "position": 4,
              "duration": 0.14583333333333334
            },
            {
              "pitch": 36,
              "velocity": 68,
              "position": 4.75,
              "duration": 0.041666666666666664
            },
            {
              "pitch": 31,
              "velocity": 79,
              "position": 5,
              "duration": 0.6041666666666666
            },
            {
              "pitch": 31,
              "velocity": 28,
              "position": 5.75,
              "duration": 0.16666666666666666
            },
            {
              "pitch": 36,
              "velocity": 58,
              "position": 6,
              "duration": 0.10416666666666667
            },
            {
              "pitch": 36,
              "velocity": 79,
              "position": 6.75,
              "duration": 0.0625
            },
            {
              "pitch": 31,
              "velocity": 79,
              "position": 7,
              "duration": 0.5416666666666666
            },
            {
              "pitch": 31,
              "velocity": 45,
              "position": 7.75,
              "duration": 0.1875
            },
            {
              "pitch": 36,
              "velocity": 58,
              "position": 8,
              "duration": 0.3958333333333333
            },
            {
              "pitch": 36,
              "velocity": 64,
              "position": 8.75,
              "duration": 0.0625
            },
            {
              "pitch": 31,
              "velocity": 79,
              "position": 9,
              "duration": 0.5833333333333334
            },
            {
              "pitch": 31,
              "velocity": 41,
              "position": 9.75,
              "duration": 0.16666666666666666
            },
            {
              "pitch": 36,
              "velocity": 35,
              "position": 10,
              "duration": 0.10416666666666667
            },
            {
              "pitch": 36,
              "velocity": 75,
              "position": 10.75,
              "duration": 0.0625
            },
            {
              "pitch": 31,
              "velocity": 79,
              "position": 11,
              "duration": 0.5625
            },
            {
              "pitch": 31,
              "velocity": 34,
              "position": 11.75,
              "duration": 0.1875
            },
            {
              "pitch": 36,
              "velocity": 54,
              "position": 12,
              "duration": 0.125
            },
            {
              "pitch": 36,
              "velocity": 79,
              "position": 12.75,
              "duration": 0.0625
            },
            {
              "pitch": 31,
              "velocity": 79,
              "position": 13,
              "duration": 0.6041666666666666
            },
            {
              "pitch": 31,
              "velocity": 63,
              "position": 13.75,
              "duration": 0.16666666666666666
            },
            {
              "pitch": 36,
              "velocity": 48,
              "position": 14,
              "duration": 0.10416666666666667
            },
            {
              "pitch": 36,
              "velocity": 71,
              "position": 14.75,
              "duration": 0.0625
            },
            {
              "pitch": 31,
              "velocity": 79,
              "position": 15,
              "duration": 0.6041666666666666
            },
            {
              "pitch": 31,
              "velocity": 70,
              "position": 15.75,
              "duration": 0.14583333333333334
            }
          ]
        },
        "14": {
          "ctab": {
            "srcChannel": 14,
            "name": "Alto Sax",
            "accType": "CHORD1",
            "editable": false,
            "mutedNotes": [],
            "mutedChords": [],
            "autoStart": false,
            "sourceChordNote": 0,
            "sourceChordType": "Maj7",
            "ctb2Low": null,
            "ctb2Main": {
              "ntr": "ROOT_TRANSPOSITION",
              "ntt": "CHORD",
              "bassOn": false,
              "chordRootUpperLimit": 6,
              "noteLowLimit": 0,
              "noteHighLimit": 79,
              "rtr": "PITCH_SHIFT"
            },
            "ctb2High": null,
            "ctb2MiddleLowPitch": 0,
            "ctb2MiddleHighPitch": 127
          },
          "notes": [
            {
              "pitch": 59,
              "velocity": 93,
              "position": 0.25,
              "duration": 0.041666666666666664
            },
            {
              "pitch": 67,
              "velocity": 95,
              "position": 0.25,
              "duration": 0.0625
            },
            {
              "pitch": 64,
              "velocity": 85,
              "position": 0.25,
              "duration": 0.0625
            },
            {
              "pitch": 74,
              "velocity": 71,
              "position": 0.25,
              "duration": 0.08333333333333333
            },
            {
              "pitch": 67,
              "velocity": 82,
              "position": 0.5,
              "duration": 0.14583333333333334
            },
            {
              "pitch": 64,
              "velocity": 81,
              "position": 0.5,
              "duration": 0.14583333333333334
            },
            {
              "pitch": 74,
              "velocity": 99,
              "position": 0.5,
              "duration": 0.1875
            },
            {
              "pitch": 67,
              "velocity": 65,
              "position": 2.75,
              "duration": 0.041666666666666664
            },
            {
              "pitch": 64,
              "velocity": 64,
              "position": 2.75,
              "duration": 0.08333333333333333
            },
            {
              "pitch": 59,
              "velocity": 65,
              "position": 3,
              "duration": 0.0625
            },
            {
              "pitch": 67,
              "velocity": 96,
              "position": 3.25,
              "duration": 0.041666666666666664
            },
            {
              "pitch": 64,
              "velocity": 84,
              "position": 3.25,
              "duration": 0.0625
            },
            {
              "pitch": 67,
              "velocity": 126,
              "position": 4.25,
              "duration": 0.0625
            },
            {
              "pitch": 64,
              "velocity": 100,
              "position": 4.25,
              "duration": 0.08333333333333333
            },
            {
              "pitch": 74,
              "velocity": 82,
              "position": 4.25,
              "duration": 0.10416666666666667
            },
            {
              "pitch": 59,
              "velocity": 87,
              "position": 4.75,
              "duration": 0.0625
            },
            {
              "pitch": 67,
              "velocity": 106,
              "position": 5,
              "duration": 0.041666666666666664
            },
            {
              "pitch": 64,
              "velocity": 96,
              "position": 5,
              "duration": 0.0625
            },
            {
              "pitch": 74,
              "velocity": 80,
              "position": 5,
              "duration": 0.08333333333333333
            },
            {
              "pitch": 67,
              "velocity": 80,
              "position": 5.75,
              "duration": 0.0625
            },
            {
              "pitch": 76,
              "velocity": 83,
              "position": 5.75,
              "duration": 0.08333333333333333
            },
            {
              "pitch": 64,
              "velocity": 83,
              "position": 5.75,
              "duration": 0.10416666666666667
            },
            {
              "pitch": 59,
              "velocity": 110,
              "position": 6.25,
              "duration": 0.08333333333333333
            },
            {
              "pitch": 67,
              "velocity": 93,
              "position": 6.5,
              "duration": 0.0625
            },
            {
              "pitch": 64,
              "velocity": 96,
              "position": 6.5,
              "duration": 0.08333333333333333
            },
            {
              "pitch": 74,
              "velocity": 92,
              "position": 6.5,
              "duration": 0.10416666666666667
            },
            {
              "pitch": 55,
              "velocity": 83,
              "position": 7,
              "duration": 0.125
            },
            {
              "pitch": 67,
              "velocity": 93,
              "position": 7.25,
              "duration": 0.0625
            },
            {
              "pitch": 64,
              "velocity": 84,
              "position": 7.25,
              "duration": 0.10416666666666667
            },
            {
              "pitch": 67,
              "velocity": 116,
              "position": 8.25,
              "duration": 0.0625
            },
            {
              "pitch": 64,
              "velocity": 91,
              "position": 8.25,
              "duration": 0.0625
            },
            {
              "pitch": 74,
              "velocity": 93,
              "position": 8.25,
              "duration": 0.10416666666666667
            },
            {
              "pitch": 59,
              "velocity": 120,
              "position": 15.25,
              "duration": 0.10416666666666667
            },
            {
              "pitch": 63,
              "velocity": 127,
              "position": 15.25,
              "duration": 0.1875
            },
            {
              "pitch": 64,
              "velocity": 96,
              "position": 15.5,
              "duration": 0.14583333333333334
            },
            {
              "pitch": 67,
              "velocity": 110,
              "position": 15.75,
              "duration": 0.14583333333333334
            }
          ]
        }
      }
    },
    "Intro_A": {
      "type": "Intro_A",
      "sizeInBeats": 20,
      "channels": {
        "0": {
          "ctab": {
            "srcChannel": 0,
            "name": "NylonGtr",
            "accType": "CHORD2",
            "editable": false,
            "mutedNotes": [],
            "mutedChords": [],
            "autoStart": false,
            "sourceChordNote": 0,
            "sourceChordType": "Maj7",
            "ctb2Low": null,
            "ctb2Main": {
              "ntr": "ROOT_TRANSPOSITION",
              "ntt": "CHORD",
              "bassOn": false,
              "chordRootUpperLimit": 6,
              "noteLowLimit": 0,
              "noteHighLimit": 127,
              "rtr": "PITCH_SHIFT"
            },
            "ctb2High": null,
            "ctb2MiddleLowPitch": 0,
            "ctb2MiddleHighPitch": 127
          },
          "notes": [
            {
              "pitch": 56,
              "velocity": 90,
              "position": 4.5,
              "duration": 0.6458333333333334
            },
            {
              "pitch": 67,
              "velocity": 73,
              "position": 4.5,
              "duration": 0.6666666666666666
            },
            {
              "pitch": 63,
              "velocity": 87,
              "position": 4.5,
              "duration": 0.7083333333333334
            },
            {
              "pitch": 60,
              "velocity": 73,
              "position": 4.5,
              "duration": 0.7291666666666666
            },
            {
              "pitch": 63,
              "velocity": 88,
              "position": 5.5,
              "duration": 0.10416666666666667
            },
            {
              "pitch": 56,
              "velocity": 85,
              "position": 5.5,
              "duration": 0.125
            },
            {
              "pitch": 60,
              "velocity": 84,
              "position": 5.5,
              "duration": 0.125
            },
            {
              "pitch": 67,
              "velocity": 73,
              "position": 5.5,
              "duration": 0.14583333333333334
            },
            {
              "pitch": 62,
              "velocity": 94,
              "position": 6,
              "duration": 0.125
            },
            {
              "pitch": 60,
              "velocity": 73,
              "position": 6,
              "duration": 0.14583333333333334
            },
            {
              "pitch": 67,
              "velocity": 71,
              "position": 6,
              "duration": 0.14583333333333334
            },
            {
              "pitch": 56,
              "velocity": 84,
              "position": 6,
              "duration": 0.16666666666666666
            },
            {
              "pitch": 56,
              "velocity": 83,
              "position": 6.5,
              "duration": 0.125
            },
            {
              "pitch": 62,
              "velocity": 97,
              "position": 6.75,
              "duration": 0.10416666666666667
            },
            {
              "pitch": 60,
              "velocity": 81,
              "position": 6.75,
              "duration": 0.10416666666666667
            },
            {
              "pitch": 67,
              "velocity": 73,
              "position": 6.75,
              "duration": 0.125
            },
            {
              "pitch": 56,
              "velocity": 72,
              "position": 6.75,
              "duration": 0.16666666666666666
            },
            {
              "pitch": 62,
              "velocity": 94,
              "position": 7.25,
              "duration": 0.10416666666666667
            },
            {
              "pitch": 60,
              "velocity": 75,
              "position": 7.25,
              "duration": 0.125
            },
            {
              "pitch": 67,
              "velocity": 67,
              "position": 7.25,
              "duration": 0.125
            },
            {
              "pitch": 56,
              "velocity": 91,
              "position": 7.25,
              "duration": 0.16666666666666666
            },
            {
              "pitch": 55,
              "velocity": 57,
              "position": 7.75,
              "duration": 0.16666666666666666
            },
            {
              "pitch": 58,
              "velocity": 81,
              "position": 7.75,
              "duration": 0.16666666666666666
            },
            {
              "pitch": 62,
              "velocity": 77,
              "position": 7.75,
              "duration": 0.20833333333333334
            },
            {
              "pitch": 55,
              "velocity": 74,
              "position": 8.25,
              "duration": 0.14583333333333334
            },
            {
              "pitch": 58,
              "velocity": 97,
              "position": 8.5,
              "duration": 0.10416666666666667
            },
            {
              "pitch": 62,
              "velocity": 94,
              "position": 8.5,
              "duration": 0.125
            },
            {
              "pitch": 65,
              "velocity": 69,
              "position": 8.5,
              "duration": 0.14583333333333334
            },
            {
              "pitch": 55,
              "velocity": 70,
              "position": 8.75,
              "duration": 0.16666666666666666
            },
            {
              "pitch": 58,
              "velocity": 78,
              "position": 9,
              "duration": 0.041666666666666664
            },
            {
              "pitch": 55,
              "velocity": 72,
              "position": 9.25,
              "duration": 0.10416666666666667
            },
            {
              "pitch": 58,
              "velocity": 100,
              "position": 9.5,
              "duration": 0.10416666666666667
            },
            {
              "pitch": 62,
              "velocity": 94,
              "position": 9.5,
              "duration": 0.125
            },
            {
              "pitch": 65,
              "velocity": 73,
              "position": 9.5,
              "duration": 0.16666666666666666
            },
            {
              "pitch": 56,
              "velocity": 88,
              "position": 9.75,
              "duration": 0.0625
            },
            {
              "pitch": 56,
              "velocity": 77,
              "position": 10,
              "duration": 0.041666666666666664
            },
            {
              "pitch": 60,
              "velocity": 97,
              "position": 10.25,
              "duration": 0.10416666666666667
            },
            {
              "pitch": 56,
              "velocity": 91,
              "position": 10.25,
              "duration": 0.10416666666666667
            },
            {
              "pitch": 65,
              "velocity": 77,
              "position": 10.25,
              "duration": 0.125
            },
            {
              "pitch": 56,
              "velocity": 64,
              "position": 10.5,
              "duration": 0.020833333333333332
            },
            {
              "pitch": 65,
              "velocity": 56,
              "position": 10.75,
              "duration": 0.0625
            },
            {
              "pitch": 60,
              "velocity": 74,
              "position": 10.75,
              "duration": 0.08333333333333333
            },
            {
              "pitch": 56,
              "velocity": 81,
              "position": 10.75,
              "duration": 0.10416666666666667
            },
            {
              "pitch": 56,
              "velocity": 80,
              "position": 11,
              "duration": 0.08333333333333333
            },
            {
              "pitch": 60,
              "velocity": 84,
              "position": 11,
              "duration": 0.10416666666666667
            },
            {
              "pitch": 65,
              "velocity": 77,
              "position": 11,
              "duration": 0.16666666666666666
            },
            {
              "pitch": 56,
              "velocity": 88,
              "position": 11.25,
              "duration": 0.10416666666666667
            },
            {
              "pitch": 56,
              "velocity": 81,
              "position": 11.5,
              "duration": 0.08333333333333333
            },
            {
              "pitch": 56,
              "velocity": 50,
              "position": 11.75,
              "duration": 0.0625
            },
            {
              "pitch": 60,
              "velocity": 75,
              "position": 11.75,
              "duration": 0.08333333333333333
            },
            {
              "pitch": 65,
              "velocity": 62,
              "position": 11.75,
              "duration": 0.125
            },
            {
              "pitch": 56,
              "velocity": 90,
              "position": 12,
              "duration": 0.08333333333333333
            },
            {
              "pitch": 56,
              "velocity": 85,
              "position": 12.25,
              "duration": 0.125
            },
            {
              "pitch": 65,
              "velocity": 85,
              "position": 12.5,
              "duration": 0.08333333333333333
            },
            {
              "pitch": 68,
              "velocity": 88,
              "position": 12.5,
              "duration": 0.125
            },
            {
              "pitch": 60,
              "velocity": 87,
              "position": 12.5,
              "duration": 0.125
            },
            {
              "pitch": 56,
              "velocity": 88,
              "position": 12.75,
              "duration": 0.041666666666666664
            },
            {
              "pitch": 66,
              "velocity": 39,
              "position": 13,
              "duration": 0.0625
            },
            {
              "pitch": 60,
              "velocity": 60,
              "position": 13,
              "duration": 0.08333333333333333
            },
            {
              "pitch": 56,
              "velocity": 90,
              "position": 13.25,
              "duration": 0.08333333333333333
            },
            {
              "pitch": 65,
              "velocity": 97,
              "position": 13.5,
              "duration": 0.08333333333333333
            },
            {
              "pitch": 68,
              "velocity": 88,
              "position": 13.5,
              "duration": 0.08333333333333333
            },
            {
              "pitch": 60,
              "velocity": 94,
              "position": 13.5,
              "duration": 0.10416666666666667
            },
            {
              "pitch": 57,
              "velocity": 55,
              "position": 13.75,
              "duration": 0.08333333333333333
            },
            {
              "pitch": 55,
              "velocity": 56,
              "position": 13.75,
              "duration": 0.10416666666666667
            },
            {
              "pitch": 70,
              "velocity": 90,
              "position": 14,
              "duration": 0.9375
            },
            {
              "pitch": 63,
              "velocity": 97,
              "position": 14,
              "duration": 0.9583333333333334
            },
            {
              "pitch": 59,
              "velocity": 78,
              "position": 14,
              "duration": 1
            },
            {
              "pitch": 55,
              "velocity": 66,
              "position": 15,
              "duration": 0.14583333333333334
            },
            {
              "pitch": 63,
              "velocity": 81,
              "position": 15.25,
              "duration": 0.08333333333333333
            },
            {
              "pitch": 68,
              "velocity": 94,
              "position": 15.25,
              "duration": 0.08333333333333333
            },
            {
              "pitch": 60,
              "velocity": 81,
              "position": 15.75,
              "duration": 1.5416666666666667
            },
            {
              "pitch": 67,
              "velocity": 100,
              "position": 15.75,
              "duration": 1.625
            },
            {
              "pitch": 63,
              "velocity": 100,
              "position": 15.75,
              "duration": 1.6458333333333333
            },
            {
              "pitch": 55,
              "velocity": 65,
              "position": 18,
              "duration": 1.2916666666666667
            },
            {
              "pitch": 59,
              "velocity": 55,
              "position": 18,
              "duration": 1.3125
            },
            {
              "pitch": 63,
              "velocity": 97,
              "position": 18,
              "duration": 1.3125
            },
            {
              "pitch": 67,
              "velocity": 100,
              "position": 18,
              "duration": 1.3333333333333333
            }
          ]
        },
        "2": {
          "ctab": {
            "srcChannel": 2,
            "name": "Strings1",
            "accType": "PAD",
            "editable": false,
            "mutedNotes": [],
            "mutedChords": [],
            "autoStart": false,
            "sourceChordNote": 0,
            "sourceChordType": "Maj7",
            "ctb2Low": null,
            "ctb2Main": {
              "ntr": "ROOT_TRANSPOSITION",
              "ntt": "CHORD",
              "bassOn": false,
              "chordRootUpperLimit": 6,
              "noteLowLimit": 0,
              "noteHighLimit": 127,
              "rtr": "PITCH_SHIFT"
            },
            "ctb2High": null,
            "ctb2MiddleLowPitch": 0,
            "ctb2MiddleHighPitch": 127
          },
          "notes": [
            {
              "pitch": 72,
              "velocity": 34,
              "position": 4,
              "duration": 2
            },
            {
              "pitch": 68,
              "velocity": 39,
              "position": 4,
              "duration": 2.1041666666666665
            },
            {
              "pitch": 65,
              "velocity": 40,
              "position": 4,
              "duration": 3.875
            },
            {
              "pitch": 70,
              "velocity": 30,
              "position": 6,
              "duration": 3.5208333333333335
            },
            {
              "pitch": 74,
              "velocity": 49,
              "position": 5.75,
              "duration": 4.041666666666667
            },
            {
              "pitch": 67,
              "velocity": 69,
              "position": 7.75,
              "duration": 2.1666666666666665
            },
            {
              "pitch": 68,
              "velocity": 32,
              "position": 10,
              "duration": 1.7395833333333333
            },
            {
              "pitch": 75,
              "velocity": 46,
              "position": 9.75,
              "duration": 2.2291666666666665
            },
            {
              "pitch": 68,
              "velocity": 43,
              "position": 11.75,
              "duration": 2.2291666666666665
            },
            {
              "pitch": 72,
              "velocity": 53,
              "position": 10,
              "duration": 4.083333333333333
            },
            {
              "pitch": 71,
              "velocity": 57,
              "position": 14,
              "duration": 1.8541666666666667
            },
            {
              "pitch": 65,
              "velocity": 56,
              "position": 12,
              "duration": 3.875
            },
            {
              "pitch": 72,
              "velocity": 59,
              "position": 15.75,
              "duration": 2.3541666666666665
            },
            {
              "pitch": 67,
              "velocity": 53,
              "position": 14,
              "duration": 5.6875
            },
            {
              "pitch": 63,
              "velocity": 35,
              "position": 15.75,
              "duration": 3.9791666666666665
            },
            {
              "pitch": 71,
              "velocity": 41,
              "position": 18,
              "duration": 1.75
            }
          ]
        },
        "8": {
          "ctab": {
            "srcChannel": 8,
            "name": "Std.Kit1",
            "accType": "RHYTHM",
            "editable": false,
            "mutedNotes": [],
            "mutedChords": [],
            "autoStart": true,
            "sourceChordNote": 0,
            "sourceChordType": "Maj7",
            "ctb2Low": null,
            "ctb2Main": {
              "ntr": "ROOT_FIXED",
              "ntt": "BYPASS",
              "bassOn": false,
              "chordRootUpperLimit": 6,
              "noteLowLimit": 0,
              "noteHighLimit": 127,
              "rtr": "PITCH_SHIFT"
            },
            "ctb2High": null,
            "ctb2MiddleLowPitch": 0,
            "ctb2MiddleHighPitch": 127
          },
          "notes": [
            {
              "pitch": 42,
              "velocity": 75,
              "position": 0,
              "duration": 0.14583333333333334
            },
            {
              "pitch": 42,
              "velocity": 51,
              "position": 0.25,
              "duration": 0.125
            },
            {
              "pitch": 36,
              "velocity": 89,
              "position": 0,
              "duration": 0.4166666666666667
            },
            {
              "pitch": 46,
              "velocity": 89,
              "position": 0.5,
              "duration": 0.16666666666666666
            },
            {
              "pitch": 36,
              "velocity": 83,
              "position": 0.75,
              "duration": 0.0625
            },
            {
              "pitch": 42,
              "velocity": 87,
              "position": 0.75,
              "duration": 0.125
            },
            {
              "pitch": 40,
              "velocity": 80,
              "position": 1,
              "duration": 0.25
            },
            {
              "pitch": 36,
              "velocity": 95,
              "position": 1.5,
              "duration": 0.3541666666666667
            },
            {
              "pitch": 42,
              "velocity": 38,
              "position": 4,
              "duration": 0.08333333333333333
            },
            {
              "pitch": 42,
              "velocity": 50,
              "position": 4.25,
              "duration": 0.14583333333333334
            },
            {
              "pitch": 36,
              "velocity": 95,
              "position": 4,
              "duration": 0.4583333333333333
            },
            {
              "pitch": 37,
              "velocity": 97,
              "position": 4.5,
              "duration": 0.10416666666666667
            },
            {
              "pitch": 44,
              "velocity": 72,
              "position": 4.5,
              "duration": 0.125
            },
            {
              "pitch": 36,
              "velocity": 64,
              "position": 4.75,
              "duration": 0.08333333333333333
            },
            {
              "pitch": 42,
              "velocity": 71,
              "position": 4.75,
              "duration": 0.10416666666666667
            },
            {
              "pitch": 42,
              "velocity": 67,
              "position": 5,
              "duration": 0.10416666666666667
            },
            {
              "pitch": 42,
              "velocity": 59,
              "position": 5.25,
              "duration": 0.10416666666666667
            },
            {
              "pitch": 37,
              "velocity": 91,
              "position": 5.25,
              "duration": 0.125
            },
            {
              "pitch": 36,
              "velocity": 89,
              "position": 5,
              "duration": 0.5208333333333334
            },
            {
              "pitch": 44,
              "velocity": 72,
              "position": 5.5,
              "duration": 0.14583333333333334
            },
            {
              "pitch": 36,
              "velocity": 64,
              "position": 5.75,
              "duration": 0.10416666666666667
            },
            {
              "pitch": 42,
              "velocity": 63,
              "position": 5.75,
              "duration": 0.10416666666666667
            },
            {
              "pitch": 37,
              "velocity": 77,
              "position": 5.75,
              "duration": 0.125
            },
            {
              "pitch": 42,
              "velocity": 80,
              "position": 6,
              "duration": 0.125
            },
            {
              "pitch": 37,
              "velocity": 93,
              "position": 6.25,
              "duration": 0.10416666666666667
            },
            {
              "pitch": 42,
              "velocity": 41,
              "position": 6.25,
              "duration": 0.125
            },
            {
              "pitch": 36,
              "velocity": 84,
              "position": 6,
              "duration": 0.4375
            },
            {
              "pitch": 44,
              "velocity": 72,
              "position": 6.5,
              "duration": 0.14583333333333334
            },
            {
              "pitch": 36,
              "velocity": 61,
              "position": 6.75,
              "duration": 0.08333333333333333
            },
            {
              "pitch": 42,
              "velocity": 67,
              "position": 6.75,
              "duration": 0.10416666666666667
            },
            {
              "pitch": 37,
              "velocity": 80,
              "position": 6.75,
              "duration": 0.125
            },
            {
              "pitch": 42,
              "velocity": 52,
              "position": 7,
              "duration": 0.0625
            },
            {
              "pitch": 37,
              "velocity": 64,
              "position": 7.25,
              "duration": 0.08333333333333333
            },
            {
              "pitch": 42,
              "velocity": 71,
              "position": 7.25,
              "duration": 0.125
            },
            {
              "pitch": 36,
              "velocity": 95,
              "position": 7,
              "duration": 0.4375
            },
            {
              "pitch": 37,
              "velocity": 99,
              "position": 7.5,
              "duration": 0.125
            },
            {
              "pitch": 44,
              "velocity": 72,
              "position": 7.5,
              "duration": 0.14583333333333334
            },
            {
              "pitch": 36,
              "velocity": 61,
              "position": 7.75,
              "duration": 0.08333333333333333
            },
            {
              "pitch": 42,
              "velocity": 76,
              "position": 7.75,
              "duration": 0.10416666666666667
            },
            {
              "pitch": 42,
              "velocity": 63,
              "position": 8,
              "duration": 0.10416666666666667
            },
            {
              "pitch": 37,
              "velocity": 60,
              "position": 8,
              "duration": 0.10416666666666667
            },
            {
              "pitch": 42,
              "velocity": 63,
              "position": 8.25,
              "duration": 0.14583333333333334
            },
            {
              "pitch": 36,
              "velocity": 95,
              "position": 8,
              "duration": 0.4583333333333333
            },
            {
              "pitch": 37,
              "velocity": 95,
              "position": 8.5,
              "duration": 0.125
            },
            {
              "pitch": 44,
              "velocity": 78,
              "position": 8.5,
              "duration": 0.125
            },
            {
              "pitch": 36,
              "velocity": 64,
              "position": 8.75,
              "duration": 0.0625
            },
            {
              "pitch": 42,
              "velocity": 63,
              "position": 8.75,
              "duration": 0.08333333333333333
            },
            {
              "pitch": 42,
              "velocity": 63,
              "position": 9,
              "duration": 0.125
            },
            {
              "pitch": 42,
              "velocity": 52,
              "position": 9.25,
              "duration": 0.10416666666666667
            },
            {
              "pitch": 37,
              "velocity": 91,
              "position": 9.25,
              "duration": 0.14583333333333334
            },
            {
              "pitch": 36,
              "velocity": 95,
              "position": 9,
              "duration": 0.5
            },
            {
              "pitch": 44,
              "velocity": 72,
              "position": 9.5,
              "duration": 0.125
            },
            {
              "pitch": 36,
              "velocity": 67,
              "position": 9.75,
              "duration": 0.08333333333333333
            },
            {
              "pitch": 42,
              "velocity": 63,
              "position": 9.75,
              "duration": 0.08333333333333333
            },
            {
              "pitch": 37,
              "velocity": 91,
              "position": 9.75,
              "duration": 0.10416666666666667
            },
            {
              "pitch": 42,
              "velocity": 59,
              "position": 10,
              "duration": 0.10416666666666667
            },
            {
              "pitch": 42,
              "velocity": 41,
              "position": 10.25,
              "duration": 0.08333333333333333
            },
            {
              "pitch": 37,
              "velocity": 93,
              "position": 10.25,
              "duration": 0.125
            },
            {
              "pitch": 36,
              "velocity": 95,
              "position": 10,
              "duration": 0.3958333333333333
            },
            {
              "pitch": 44,
              "velocity": 78,
              "position": 10.5,
              "duration": 0.14583333333333334
            },
            {
              "pitch": 36,
              "velocity": 72,
              "position": 10.75,
              "duration": 0.08333333333333333
            },
            {
              "pitch": 42,
              "velocity": 71,
              "position": 10.75,
              "duration": 0.10416666666666667
            },
            {
              "pitch": 37,
              "velocity": 81,
              "position": 10.75,
              "duration": 0.16666666666666666
            },
            {
              "pitch": 42,
              "velocity": 63,
              "position": 11,
              "duration": 0.08333333333333333
            },
            {
              "pitch": 37,
              "velocity": 93,
              "position": 11,
              "duration": 0.16666666666666666
            },
            {
              "pitch": 42,
              "velocity": 84,
              "position": 11.25,
              "duration": 0.10416666666666667
            },
            {
              "pitch": 36,
              "velocity": 84,
              "position": 11,
              "duration": 0.4375
            },
            {
              "pitch": 37,
              "velocity": 90,
              "position": 11.5,
              "duration": 0.125
            },
            {
              "pitch": 44,
              "velocity": 66,
              "position": 11.5,
              "duration": 0.14583333333333334
            },
            {
              "pitch": 36,
              "velocity": 72,
              "position": 11.75,
              "duration": 0.10416666666666667
            },
            {
              "pitch": 42,
              "velocity": 71,
              "position": 11.75,
              "duration": 0.125
            },
            {
              "pitch": 37,
              "velocity": 77,
              "position": 12,
              "duration": 0.10416666666666667
            },
            {
              "pitch": 42,
              "velocity": 39,
              "position": 12,
              "duration": 0.10416666666666667
            },
            {
              "pitch": 42,
              "velocity": 67,
              "position": 12.25,
              "duration": 0.14583333333333334
            },
            {
              "pitch": 36,
              "velocity": 84,
              "position": 12,
              "duration": 0.4583333333333333
            },
            {
              "pitch": 37,
              "velocity": 94,
              "position": 12.5,
              "duration": 0.10416666666666667
            },
            {
              "pitch": 44,
              "velocity": 87,
              "position": 12.5,
              "duration": 0.14583333333333334
            },
            {
              "pitch": 36,
              "velocity": 61,
              "position": 12.75,
              "duration": 0.0625
            },
            {
              "pitch": 42,
              "velocity": 52,
              "position": 12.75,
              "duration": 0.08333333333333333
            },
            {
              "pitch": 42,
              "velocity": 42,
              "position": 13,
              "duration": 0.10416666666666667
            },
            {
              "pitch": 42,
              "velocity": 49,
              "position": 13.25,
              "duration": 0.10416666666666667
            },
            {
              "pitch": 37,
              "velocity": 88,
              "position": 13.25,
              "duration": 0.14583333333333334
            },
            {
              "pitch": 36,
              "velocity": 89,
              "position": 13,
              "duration": 0.4791666666666667
            },
            {
              "pitch": 44,
              "velocity": 87,
              "position": 13.5,
              "duration": 0.16666666666666666
            },
            {
              "pitch": 36,
              "velocity": 53,
              "position": 13.75,
              "duration": 0.0625
            },
            {
              "pitch": 42,
              "velocity": 59,
              "position": 13.75,
              "duration": 0.10416666666666667
            },
            {
              "pitch": 37,
              "velocity": 88,
              "position": 13.75,
              "duration": 0.10416666666666667
            },
            {
              "pitch": 42,
              "velocity": 63,
              "position": 14,
              "duration": 0.10416666666666667
            },
            {
              "pitch": 42,
              "velocity": 50,
              "position": 14.25,
              "duration": 0.10416666666666667
            },
            {
              "pitch": 37,
              "velocity": 93,
              "position": 14.25,
              "duration": 0.10416666666666667
            },
            {
              "pitch": 36,
              "velocity": 95,
              "position": 14,
              "duration": 0.5
            },
            {
              "pitch": 44,
              "velocity": 78,
              "position": 14.5,
              "duration": 0.14583333333333334
            },
            {
              "pitch": 42,
              "velocity": 38,
              "position": 14.75,
              "duration": 0.0625
            },
            {
              "pitch": 36,
              "velocity": 64,
              "position": 14.75,
              "duration": 0.0625
            },
            {
              "pitch": 37,
              "velocity": 56,
              "position": 14.75,
              "duration": 0.10416666666666667
            },
            {
              "pitch": 42,
              "velocity": 63,
              "position": 15,
              "duration": 0.10416666666666667
            },
            {
              "pitch": 37,
              "velocity": 83,
              "position": 15,
              "duration": 0.125
            },
            {
              "pitch": 42,
              "velocity": 45,
              "position": 15.25,
              "duration": 0.0625
            },
            {
              "pitch": 44,
              "velocity": 60,
              "position": 15.25,
              "duration": 0.16666666666666666
            },
            {
              "pitch": 36,
              "velocity": 95,
              "position": 15,
              "duration": 0.4791666666666667
            },
            {
              "pitch": 37,
              "velocity": 76,
              "position": 15.5,
              "duration": 0.08333333333333333
            },
            {
              "pitch": 36,
              "velocity": 64,
              "position": 15.75,
              "duration": 0.0625
            },
            {
              "pitch": 37,
              "velocity": 95,
              "position": 15.75,
              "duration": 0.08333333333333333
            },
            {
              "pitch": 46,
              "velocity": 10,
              "position": 15.75,
              "duration": 0.14583333333333334
            },
            {
              "pitch": 42,
              "velocity": 80,
              "position": 15.75,
              "duration": 0.23958333333333334
            },
            {
              "pitch": 42,
              "velocity": 89,
              "position": 16,
              "duration": 0.1875
            },
            {
              "pitch": 42,
              "velocity": 46,
              "position": 16.25,
              "duration": 0.10416666666666667
            },
            {
              "pitch": 42,
              "velocity": 63,
              "position": 16.5,
              "duration": 0.125
            },
            {
              "pitch": 42,
              "velocity": 40,
              "position": 16.75,
              "duration": 0.125
            },
            {
              "pitch": 46,
              "velocity": 46,
              "position": 17.041666666666668,
              "duration": 1.2291666666666667
            },
            {
              "pitch": 36,
              "velocity": 89,
              "position": 16,
              "duration": 2.4375
            },
            {
              "pitch": 51,
              "velocity": 40,
              "position": 18.708333333333332,
              "duration": 0.08333333333333333
            },
            {
              "pitch": 51,
              "velocity": 68,
              "position": 18.833333333333332,
              "duration": 0.0625
            },
            {
              "pitch": 51,
              "velocity": 68,
              "position": 18.958333333333332,
              "duration": 0.041666666666666664
            },
            {
              "pitch": 51,
              "velocity": 86,
              "position": 19,
              "duration": 0.08333333333333333
            },
            {
              "pitch": 51,
              "velocity": 110,
              "position": 19.166666666666668,
              "duration": 0.08333333333333333
            },
            {
              "pitch": 49,
              "velocity": 56,
              "position": 19.958333333333332,
              "duration": 0.041666666666666664
            }
          ]
        },
        "10": {
          "ctab": {
            "srcChannel": 10,
            "name": "Std.Kit1",
            "accType": "SUBRHYTHM",
            "editable": false,
            "mutedNotes": [],
            "mutedChords": [],
            "autoStart": true,
            "sourceChordNote": 0,
            "sourceChordType": "Maj7",
            "ctb2Low": null,
            "ctb2Main": {
              "ntr": "ROOT_FIXED",
              "ntt": "BYPASS",
              "bassOn": false,
              "chordRootUpperLimit": 6,
              "noteLowLimit": 0,
              "noteHighLimit": 127,
              "rtr": "PITCH_SHIFT"
            },
            "ctb2High": null,
            "ctb2MiddleLowPitch": 0,
            "ctb2MiddleHighPitch": 127
          },
          "notes": [
            {
              "pitch": 70,
              "velocity": 70,
              "position": 0.5,
              "duration": 0.10416666666666667
            },
            {
              "pitch": 70,
              "velocity": 90,
              "position": 4,
              "duration": 0.14583333333333334
            },
            {
              "pitch": 70,
              "velocity": 40,
              "position": 4.25,
              "duration": 0.10416666666666667
            },
            {
              "pitch": 70,
              "velocity": 66,
              "position": 4.5,
              "duration": 0.125
            },
            {
              "pitch": 70,
              "velocity": 42,
              "position": 4.75,
              "duration": 0.10416666666666667
            },
            {
              "pitch": 70,
              "velocity": 71,
              "position": 5,
              "duration": 0.10416666666666667
            },
            {
              "pitch": 70,
              "velocity": 42,
              "position": 5.25,
              "duration": 0.125
            },
            {
              "pitch": 70,
              "velocity": 90,
              "position": 5.5,
              "duration": 0.10416666666666667
            },
            {
              "pitch": 70,
              "velocity": 37,
              "position": 5.75,
              "duration": 0.10416666666666667
            },
            {
              "pitch": 70,
              "velocity": 66,
              "position": 6,
              "duration": 0.125
            },
            {
              "pitch": 70,
              "velocity": 37,
              "position": 6.25,
              "duration": 0.14583333333333334
            },
            {
              "pitch": 70,
              "velocity": 98,
              "position": 6.5,
              "duration": 0.14583333333333334
            },
            {
              "pitch": 70,
              "velocity": 40,
              "position": 6.75,
              "duration": 0.10416666666666667
            },
            {
              "pitch": 70,
              "velocity": 51,
              "position": 7,
              "duration": 0.08333333333333333
            },
            {
              "pitch": 70,
              "velocity": 35,
              "position": 7.25,
              "duration": 0.125
            },
            {
              "pitch": 70,
              "velocity": 98,
              "position": 7.5,
              "duration": 0.125
            },
            {
              "pitch": 70,
              "velocity": 31,
              "position": 7.75,
              "duration": 0.10416666666666667
            },
            {
              "pitch": 70,
              "velocity": 98,
              "position": 8,
              "duration": 0.10416666666666667
            },
            {
              "pitch": 70,
              "velocity": 20,
              "position": 8.25,
              "duration": 0.125
            },
            {
              "pitch": 70,
              "velocity": 98,
              "position": 8.5,
              "duration": 0.125
            },
            {
              "pitch": 70,
              "velocity": 26,
              "position": 8.75,
              "duration": 0.0625
            },
            {
              "pitch": 70,
              "velocity": 58,
              "position": 9,
              "duration": 0.10416666666666667
            },
            {
              "pitch": 70,
              "velocity": 47,
              "position": 9.25,
              "duration": 0.10416666666666667
            },
            {
              "pitch": 70,
              "velocity": 107,
              "position": 9.5,
              "duration": 0.10416666666666667
            },
            {
              "pitch": 70,
              "velocity": 40,
              "position": 9.75,
              "duration": 0.08333333333333333
            },
            {
              "pitch": 70,
              "velocity": 107,
              "position": 10,
              "duration": 0.08333333333333333
            },
            {
              "pitch": 70,
              "velocity": 51,
              "position": 10.125,
              "duration": 0.0625
            },
            {
              "pitch": 70,
              "velocity": 77,
              "position": 10.25,
              "duration": 0.0625
            },
            {
              "pitch": 70,
              "velocity": 107,
              "position": 10.375,
              "duration": 0.08333333333333333
            },
            {
              "pitch": 70,
              "velocity": 127,
              "position": 10.5,
              "duration": 0.10416666666666667
            },
            {
              "pitch": 70,
              "velocity": 77,
              "position": 10.75,
              "duration": 0.0625
            },
            {
              "pitch": 70,
              "velocity": 107,
              "position": 11,
              "duration": 0.0625
            },
            {
              "pitch": 70,
              "velocity": 85,
              "position": 11.125,
              "duration": 0.0625
            },
            {
              "pitch": 70,
              "velocity": 77,
              "position": 11.25,
              "duration": 0.041666666666666664
            },
            {
              "pitch": 70,
              "velocity": 98,
              "position": 11.375,
              "duration": 0.08333333333333333
            },
            {
              "pitch": 70,
              "velocity": 42,
              "position": 11.5,
              "duration": 0.08333333333333333
            },
            {
              "pitch": 70,
              "velocity": 85,
              "position": 11.75,
              "duration": 0.0625
            },
            {
              "pitch": 70,
              "velocity": 98,
              "position": 12,
              "duration": 0.0625
            },
            {
              "pitch": 70,
              "velocity": 36,
              "position": 12.25,
              "duration": 0.0625
            },
            {
              "pitch": 70,
              "velocity": 107,
              "position": 12.5,
              "duration": 0.10416666666666667
            },
            {
              "pitch": 70,
              "velocity": 58,
              "position": 12.75,
              "duration": 0.10416666666666667
            },
            {
              "pitch": 70,
              "velocity": 85,
              "position": 13,
              "duration": 0.10416666666666667
            },
            {
              "pitch": 70,
              "velocity": 33,
              "position": 13.25,
              "duration": 0.125
            },
            {
              "pitch": 70,
              "velocity": 107,
              "position": 13.5,
              "duration": 0.10416666666666667
            },
            {
              "pitch": 70,
              "velocity": 28,
              "position": 13.75,
              "duration": 0.10416666666666667
            },
            {
              "pitch": 70,
              "velocity": 35,
              "position": 14.25,
              "duration": 0.10416666666666667
            },
            {
              "pitch": 70,
              "velocity": 107,
              "position": 14.5,
              "duration": 0.10416666666666667
            },
            {
              "pitch": 70,
              "velocity": 39,
              "position": 14.75,
              "duration": 0.10416666666666667
            },
            {
              "pitch": 70,
              "velocity": 77,
              "position": 15,
              "duration": 0.08333333333333333
            },
            {
              "pitch": 70,
              "velocity": 40,
              "position": 15.25,
              "duration": 0.08333333333333333
            },
            {
              "pitch": 70,
              "velocity": 98,
              "position": 15.5,
              "duration": 0.0625
            },
            {
              "pitch": 70,
              "velocity": 71,
              "position": 15.75,
              "duration": 0.08333333333333333
            },
            {
              "pitch": 70,
              "velocity": 98,
              "position": 16,
              "duration": 0.10416666666666667
            }
          ]
        },
        "12": {
          "ctab": {
            "srcChannel": 12,
            "name": "FngrBass",
            "accType": "BASS",
            "editable": false,
            "mutedNotes": [],
            "mutedChords": [],
            "autoStart": false,
            "sourceChordNote": 0,
            "sourceChordType": "Maj7",
            "ctb2Low": null,
            "ctb2Main": {
              "ntr": "ROOT_TRANSPOSITION",
              "ntt": "MELODY",
              "bassOn": true,
              "chordRootUpperLimit": 3,
              "noteLowLimit": 28,
              "noteHighLimit": 54,
              "rtr": "PITCH_SHIFT_TO_ROOT"
            },
            "ctb2High": null,
            "ctb2MiddleLowPitch": 0,
            "ctb2MiddleHighPitch": 127
          },
          "notes": [
            {
              "pitch": 41,
              "velocity": 45,
              "position": 4,
              "duration": 0.4583333333333333
            },
            {
              "pitch": 41,
              "velocity": 21,
              "position": 4.75,
              "duration": 0.08333333333333333
            },
            {
              "pitch": 36,
              "velocity": 34,
              "position": 5,
              "duration": 0.4583333333333333
            },
            {
              "pitch": 36,
              "velocity": 44,
              "position": 5.75,
              "duration": 0.10416666666666667
            },
            {
              "pitch": 34,
              "velocity": 68,
              "position": 6,
              "duration": 0.5
            },
            {
              "pitch": 34,
              "velocity": 63,
              "position": 6.75,
              "duration": 0.08333333333333333
            },
            {
              "pitch": 41,
              "velocity": 64,
              "position": 7,
              "duration": 0.625
            },
            {
              "pitch": 34,
              "velocity": 50,
              "position": 7.75,
              "duration": 0.1875
            },
            {
              "pitch": 39,
              "velocity": 58,
              "position": 8,
              "duration": 0.4375
            },
            {
              "pitch": 39,
              "velocity": 79,
              "position": 8.75,
              "duration": 0.08333333333333333
            },
            {
              "pitch": 34,
              "velocity": 64,
              "position": 9,
              "duration": 0.625
            },
            {
              "pitch": 39,
              "velocity": 48,
              "position": 9.75,
              "duration": 0.125
            },
            {
              "pitch": 32,
              "velocity": 68,
              "position": 10,
              "duration": 0.5208333333333334
            },
            {
              "pitch": 32,
              "velocity": 53,
              "position": 10.75,
              "duration": 0.10416666666666667
            },
            {
              "pitch": 39,
              "velocity": 68,
              "position": 11,
              "duration": 0.5625
            },
            {
              "pitch": 37,
              "velocity": 64,
              "position": 11.75,
              "duration": 0.1875
            },
            {
              "pitch": 38,
              "velocity": 38,
              "position": 12,
              "duration": 0.4791666666666667
            },
            {
              "pitch": 38,
              "velocity": 70,
              "position": 12.75,
              "duration": 0.08333333333333333
            },
            {
              "pitch": 38,
              "velocity": 64,
              "position": 13,
              "duration": 0.6666666666666666
            },
            {
              "pitch": 32,
              "velocity": 45,
              "position": 13.75,
              "duration": 0.14583333333333334
            },
            {
              "pitch": 31,
              "velocity": 79,
              "position": 14,
              "duration": 1.0625
            },
            {
              "pitch": 38,
              "velocity": 73,
              "position": 15.25,
              "duration": 0.08333333333333333
            },
            {
              "pitch": 36,
              "velocity": 79,
              "position": 15.75,
              "duration": 2.1041666666666665
            },
            {
              "pitch": 31,
              "velocity": 45,
              "position": 18,
              "duration": 1.8541666666666667
            }
          ]
        },
        "14": {
          "ctab": {
            "srcChannel": 14,
            "name": "Alto Sax",
            "accType": "CHORD1",
            "editable": false,
            "mutedNotes": [],
            "mutedChords": [],
            "autoStart": false,
            "sourceChordNote": 0,
            "sourceChordType": "Maj7",
            "ctb2Low": null,
            "ctb2Main": {
              "ntr": "ROOT_TRANSPOSITION",
              "ntt": "CHORD",
              "bassOn": false,
              "chordRootUpperLimit": 6,
              "noteLowLimit": 0,
              "noteHighLimit": 79,
              "rtr": "PITCH_SHIFT"
            },
            "ctb2High": null,
            "ctb2MiddleLowPitch": 0,
            "ctb2MiddleHighPitch": 127
          },
          "notes": [
            {
              "pitch": 67,
              "velocity": 96,
              "position": 2.4166666666666665,
              "duration": 0.20833333333333334
            },
            {
              "pitch": 67,
              "velocity": 52,
              "position": 2.75,
              "duration": 0.20833333333333334
            },
            {
              "pitch": 67,
              "velocity": 90,
              "position": 3.2083333333333335,
              "duration": 0.16666666666666666
            },
            {
              "pitch": 67,
              "velocity": 82,
              "position": 3.7083333333333335,
              "duration": 0.5625
            },
            {
              "pitch": 65,
              "velocity": 63,
              "position": 4.291666666666667,
              "duration": 0.2916666666666667
            },
            {
              "pitch": 67,
              "velocity": 101,
              "position": 4.75,
              "duration": 0.22916666666666666
            },
            {
              "pitch": 68,
              "velocity": 90,
              "position": 5.25,
              "duration": 0.3958333333333333
            },
            {
              "pitch": 65,
              "velocity": 96,
              "position": 6.5,
              "duration": 0.20833333333333334
            },
            {
              "pitch": 65,
              "velocity": 35,
              "position": 6.75,
              "duration": 0.1875
            },
            {
              "pitch": 65,
              "velocity": 127,
              "position": 7.25,
              "duration": 0.16666666666666666
            },
            {
              "pitch": 65,
              "velocity": 116,
              "position": 7.791666666666667,
              "duration": 0.4583333333333333
            },
            {
              "pitch": 63,
              "velocity": 80,
              "position": 8.291666666666666,
              "duration": 0.22916666666666666
            },
            {
              "pitch": 65,
              "velocity": 73,
              "position": 8.708333333333334,
              "duration": 0.20833333333333334
            },
            {
              "pitch": 66,
              "velocity": 90,
              "position": 9.083333333333334,
              "duration": 0.08333333333333333
            },
            {
              "pitch": 67,
              "velocity": 96,
              "position": 9.166666666666666,
              "duration": 0.5
            },
            {
              "pitch": 63,
              "velocity": 88,
              "position": 10.5,
              "duration": 0.1875
            },
            {
              "pitch": 63,
              "velocity": 31,
              "position": 10.75,
              "duration": 0.2916666666666667
            },
            {
              "pitch": 63,
              "velocity": 109,
              "position": 11.291666666666666,
              "duration": 0.22916666666666666
            },
            {
              "pitch": 63,
              "velocity": 101,
              "position": 11.791666666666666,
              "duration": 0.5
            },
            {
              "pitch": 62,
              "velocity": 65,
              "position": 12.291666666666666,
              "duration": 0.625
            },
            {
              "pitch": 61,
              "velocity": 93,
              "position": 12.958333333333334,
              "duration": 0.5
            },
            {
              "pitch": 62,
              "velocity": 58,
              "position": 13.5,
              "duration": 0.4166666666666667
            },
            {
              "pitch": 65,
              "velocity": 114,
              "position": 14.083333333333334,
              "duration": 1.0208333333333333
            },
            {
              "pitch": 63,
              "velocity": 103,
              "position": 15.291666666666666,
              "duration": 0.20833333333333334
            },
            {
              "pitch": 60,
              "velocity": 94,
              "position": 15.833333333333334,
              "duration": 2.3333333333333335
            }
          ]
        }
      }
    },
    "Intro_B": {
      "type": "Intro_B",
      "sizeInBeats": 20,
      "channels": {
        "0": {
          "ctab": {
            "srcChannel": 0,
            "name": "NylonGtr",
            "accType": "CHORD2",
            "editable": false,
            "mutedNotes": [],
            "mutedChords": [],
            "autoStart": false,
            "sourceChordNote": 0,
            "sourceChordType": "Maj7",
            "ctb2Low": null,
            "ctb2Main": {
              "ntr": "ROOT_TRANSPOSITION",
              "ntt": "CHORD",
              "bassOn": false,
              "chordRootUpperLimit": 6,
              "noteLowLimit": 0,
              "noteHighLimit": 127,
              "rtr": "PITCH_SHIFT"
            },
            "ctb2High": null,
            "ctb2MiddleLowPitch": 0,
            "ctb2MiddleHighPitch": 127
          },
          "notes": [
            {
              "pitch": 56,
              "velocity": 90,
              "position": 4.5,
              "duration": 0.6458333333333334
            },
            {
              "pitch": 67,
              "velocity": 73,
              "position": 4.5,
              "duration": 0.6666666666666666
            },
            {
              "pitch": 63,
              "velocity": 87,
              "position": 4.5,
              "duration": 0.7083333333333334
            },
            {
              "pitch": 60,
              "velocity": 73,
              "position": 4.5,
              "duration": 0.7291666666666666
            },
            {
              "pitch": 63,
              "velocity": 88,
              "position": 5.5,
              "duration": 0.10416666666666667
            },
            {
              "pitch": 56,
              "velocity": 85,
              "position": 5.5,
              "duration": 0.125
            },
            {
              "pitch": 60,
              "velocity": 84,
              "position": 5.5,
              "duration": 0.125
            },
            {
              "pitch": 67,
              "velocity": 73,
              "position": 5.5,
              "duration": 0.14583333333333334
            },
            {
              "pitch": 62,
              "velocity": 94,
              "position": 6,
              "duration": 0.125
            },
            {
              "pitch": 60,
              "velocity": 73,
              "position": 6,
              "duration": 0.14583333333333334
            },
            {
              "pitch": 67,
              "velocity": 71,
              "position": 6,
              "duration": 0.14583333333333334
            },
            {
              "pitch": 56,
              "velocity": 84,
              "position": 6,
              "duration": 0.16666666666666666
            },
            {
              "pitch": 56,
              "velocity": 83,
              "position": 6.5,
              "duration": 0.125
            },
            {
              "pitch": 62,
              "velocity": 97,
              "position": 6.75,
              "duration": 0.10416666666666667
            },
            {
              "pitch": 60,
              "velocity": 81,
              "position": 6.75,
              "duration": 0.10416666666666667
            },
            {
              "pitch": 67,
              "velocity": 73,
              "position": 6.75,
              "duration": 0.125
            },
            {
              "pitch": 56,
              "velocity": 72,
              "position": 6.75,
              "duration": 0.16666666666666666
            },
            {
              "pitch": 62,
              "velocity": 94,
              "position": 7.25,
              "duration": 0.10416666666666667
            },
            {
              "pitch": 60,
              "velocity": 75,
              "position": 7.25,
              "duration": 0.125
            },
            {
              "pitch": 67,
              "velocity": 67,
              "position": 7.25,
              "duration": 0.125
            },
            {
              "pitch": 56,
              "velocity": 91,
              "position": 7.25,
              "duration": 0.16666666666666666
            },
            {
              "pitch": 55,
              "velocity": 57,
              "position": 7.75,
              "duration": 0.16666666666666666
            },
            {
              "pitch": 58,
              "velocity": 81,
              "position": 7.75,
              "duration": 0.16666666666666666
            },
            {
              "pitch": 62,
              "velocity": 77,
              "position": 7.75,
              "duration": 0.20833333333333334
            },
            {
              "pitch": 55,
              "velocity": 74,
              "position": 8.25,
              "duration": 0.14583333333333334
            },
            {
              "pitch": 58,
              "velocity": 97,
              "position": 8.5,
              "duration": 0.10416666666666667
            },
            {
              "pitch": 62,
              "velocity": 94,
              "position": 8.5,
              "duration": 0.125
            },
            {
              "pitch": 65,
              "velocity": 69,
              "position": 8.5,
              "duration": 0.14583333333333334
            },
            {
              "pitch": 55,
              "velocity": 70,
              "position": 8.75,
              "duration": 0.16666666666666666
            },
            {
              "pitch": 58,
              "velocity": 78,
              "position": 9,
              "duration": 0.041666666666666664
            },
            {
              "pitch": 55,
              "velocity": 72,
              "position": 9.25,
              "duration": 0.10416666666666667
            },
            {
              "pitch": 58,
              "velocity": 100,
              "position": 9.5,
              "duration": 0.10416666666666667
            },
            {
              "pitch": 62,
              "velocity": 94,
              "position": 9.5,
              "duration": 0.125
            },
            {
              "pitch": 65,
              "velocity": 73,
              "position": 9.5,
              "duration": 0.16666666666666666
            },
            {
              "pitch": 56,
              "velocity": 88,
              "position": 9.75,
              "duration": 0.0625
            },
            {
              "pitch": 56,
              "velocity": 77,
              "position": 10,
              "duration": 0.041666666666666664
            },
            {
              "pitch": 60,
              "velocity": 97,
              "position": 10.25,
              "duration": 0.10416666666666667
            },
            {
              "pitch": 56,
              "velocity": 91,
              "position": 10.25,
              "duration": 0.10416666666666667
            },
            {
              "pitch": 65,
              "velocity": 77,
              "position": 10.25,
              "duration": 0.125
            },
            {
              "pitch": 56,
              "velocity": 64,
              "position": 10.5,
              "duration": 0.020833333333333332
            },
            {
              "pitch": 65,
              "velocity": 56,
              "position": 10.75,
              "duration": 0.0625
            },
            {
              "pitch": 60,
              "velocity": 74,
              "position": 10.75,
              "duration": 0.08333333333333333
            },
            {
              "pitch": 56,
              "velocity": 81,
              "position": 10.75,
              "duration": 0.10416666666666667
            },
            {
              "pitch": 56,
              "velocity": 80,
              "position": 11,
              "duration": 0.08333333333333333
            },
            {
              "pitch": 60,
              "velocity": 84,
              "position": 11,
              "duration": 0.10416666666666667
            },
            {
              "pitch": 65,
              "velocity": 77,
              "position": 11,
              "duration": 0.16666666666666666
            },
            {
              "pitch": 56,
              "velocity": 88,
              "position": 11.25,
              "duration": 0.10416666666666667
            },
            {
              "pitch": 56,
              "velocity": 81,
              "position": 11.5,
              "duration": 0.08333333333333333
            },
            {
              "pitch": 56,
              "velocity": 50,
              "position": 11.75,
              "duration": 0.0625
            },
            {
              "pitch": 60,
              "velocity": 75,
              "position": 11.75,
              "duration": 0.08333333333333333
            },
            {
              "pitch": 65,
              "velocity": 62,
              "position": 11.75,
              "duration": 0.125
            },
            {
              "pitch": 56,
              "velocity": 90,
              "position": 12,
              "duration": 0.08333333333333333
            },
            {
              "pitch": 56,
              "velocity": 85,
              "position": 12.25,
              "duration": 0.125
            },
            {
              "pitch": 65,
              "velocity": 85,
              "position": 12.5,
              "duration": 0.08333333333333333
            },
            {
              "pitch": 68,
              "velocity": 88,
              "position": 12.5,
              "duration": 0.125
            },
            {
              "pitch": 60,
              "velocity": 87,
              "position": 12.5,
              "duration": 0.125
            },
            {
              "pitch": 56,
              "velocity": 88,
              "position": 12.75,
              "duration": 0.041666666666666664
            },
            {
              "pitch": 66,
              "velocity": 39,
              "position": 13,
              "duration": 0.0625
            },
            {
              "pitch": 60,
              "velocity": 60,
              "position": 13,
              "duration": 0.08333333333333333
            },
            {
              "pitch": 56,
              "velocity": 90,
              "position": 13.25,
              "duration": 0.08333333333333333
            },
            {
              "pitch": 65,
              "velocity": 97,
              "position": 13.5,
              "duration": 0.08333333333333333
            },
            {
              "pitch": 68,
              "velocity": 88,
              "position": 13.5,
              "duration": 0.08333333333333333
            },
            {
              "pitch": 60,
              "velocity": 94,
              "position": 13.5,
              "duration": 0.10416666666666667
            },
            {
              "pitch": 57,
              "velocity": 55,
              "position": 13.75,
              "duration": 0.08333333333333333
            },
            {
              "pitch": 55,
              "velocity": 56,
              "position": 13.75,
              "duration": 0.10416666666666667
            },
            {
              "pitch": 70,
              "velocity": 90,
              "position": 14,
              "duration": 0.9375
            },
            {
              "pitch": 63,
              "velocity": 97,
              "position": 14,
              "duration": 0.9583333333333334
            },
            {
              "pitch": 59,
              "velocity": 78,
              "position": 14,
              "duration": 1
            },
            {
              "pitch": 55,
              "velocity": 66,
              "position": 15,
              "duration": 0.14583333333333334
            },
            {
              "pitch": 63,
              "velocity": 81,
              "position": 15.25,
              "duration": 0.08333333333333333
            },
            {
              "pitch": 68,
              "velocity": 94,
              "position": 15.25,
              "duration": 0.08333333333333333
            },
            {
              "pitch": 60,
              "velocity": 81,
              "position": 15.75,
              "duration": 1.5416666666666667
            },
            {
              "pitch": 67,
              "velocity": 100,
              "position": 15.75,
              "duration": 1.625
            },
            {
              "pitch": 63,
              "velocity": 100,
              "position": 15.75,
              "duration": 1.6458333333333333
            },
            {
              "pitch": 55,
              "velocity": 65,
              "position": 18,
              "duration": 1.2916666666666667
            },
            {
              "pitch": 59,
              "velocity": 55,
              "position": 18,
              "duration": 1.3125
            },
            {
              "pitch": 63,
              "velocity": 97,
              "position": 18,
              "duration": 1.3125
            },
            {
              "pitch": 67,
              "velocity": 100,
              "position": 18,
              "duration": 1.3333333333333333
            }
          ]
        },
        "2": {
          "ctab": {
            "srcChannel": 2,
            "name": "Strings1",
            "accType": "PAD",
            "editable": false,
            "mutedNotes": [],
            "mutedChords": [],
            "autoStart": false,
            "sourceChordNote": 0,
            "sourceChordType": "Maj7",
            "ctb2Low": null,
            "ctb2Main": {
              "ntr": "ROOT_TRANSPOSITION",
              "ntt": "CHORD",
              "bassOn": false,
              "chordRootUpperLimit": 6,
              "noteLowLimit": 0,
              "noteHighLimit": 127,
              "rtr": "PITCH_SHIFT"
            },
            "ctb2High": null,
            "ctb2MiddleLowPitch": 0,
            "ctb2MiddleHighPitch": 127
          },
          "notes": [
            {
              "pitch": 72,
              "velocity": 34,
              "position": 4,
              "duration": 2
            },
            {
              "pitch": 68,
              "velocity": 39,
              "position": 4,
              "duration": 2.1041666666666665
            },
            {
              "pitch": 65,
              "velocity": 40,
              "position": 4,
              "duration": 3.875
            },
            {
              "pitch": 70,
              "velocity": 30,
              "position": 6,
              "duration": 3.5208333333333335
            },
            {
              "pitch": 74,
              "velocity": 49,
              "position": 5.75,
              "duration": 4.041666666666667
            },
            {
              "pitch": 67,
              "velocity": 69,
              "position": 7.75,
              "duration": 2.1666666666666665
            },
            {
              "pitch": 68,
              "velocity": 32,
              "position": 10,
              "duration": 1.7395833333333333
            },
            {
              "pitch": 75,
              "velocity": 46,
              "position": 9.75,
              "duration": 2.2291666666666665
            },
            {
              "pitch": 68,
              "velocity": 43,
              "position": 11.75,
              "duration": 2.2291666666666665
            },
            {
              "pitch": 72,
              "velocity": 53,
              "position": 10,
              "duration": 4.083333333333333
            },
            {
              "pitch": 71,
              "velocity": 57,
              "position": 14,
              "duration": 1.8541666666666667
            },
            {
              "pitch": 65,
              "velocity": 56,
              "position": 12,
              "duration": 3.875
            },
            {
              "pitch": 72,
              "velocity": 59,
              "position": 15.75,
              "duration": 2.3541666666666665
            },
            {
              "pitch": 67,
              "velocity": 53,
              "position": 14,
              "duration": 5.6875
            },
            {
              "pitch": 63,
              "velocity": 35,
              "position": 15.75,
              "duration": 3.9791666666666665
            },
            {
              "pitch": 71,
              "velocity": 41,
              "position": 18,
              "duration": 1.75
            }
          ]
        },
        "8": {
          "ctab": {
            "srcChannel": 8,
            "name": "Std.Kit1",
            "accType": "RHYTHM",
            "editable": false,
            "mutedNotes": [],
            "mutedChords": [],
            "autoStart": true,
            "sourceChordNote": 0,
            "sourceChordType": "Maj7",
            "ctb2Low": null,
            "ctb2Main": {
              "ntr": "ROOT_FIXED",
              "ntt": "BYPASS",
              "bassOn": false,
              "chordRootUpperLimit": 6,
              "noteLowLimit": 0,
              "noteHighLimit": 127,
              "rtr": "PITCH_SHIFT"
            },
            "ctb2High": null,
            "ctb2MiddleLowPitch": 0,
            "ctb2MiddleHighPitch": 127
          },
          "notes": [
            {
              "pitch": 42,
              "velocity": 75,
              "position": 0,
              "duration": 0.14583333333333334
            },
            {
              "pitch": 42,
              "velocity": 51,
              "position": 0.25,
              "duration": 0.125
            },
            {
              "pitch": 36,
              "velocity": 89,
              "position": 0,
              "duration": 0.4166666666666667
            },
            {
              "pitch": 46,
              "velocity": 89,
              "position": 0.5,
              "duration": 0.16666666666666666
            },
            {
              "pitch": 36,
              "velocity": 83,
              "position": 0.75,
              "duration": 0.0625
            },
            {
              "pitch": 42,
              "velocity": 87,
              "position": 0.75,
              "duration": 0.125
            },
            {
              "pitch": 40,
              "velocity": 80,
              "position": 1,
              "duration": 0.25
            },
            {
              "pitch": 36,
              "velocity": 95,
              "position": 1.5,
              "duration": 0.3541666666666667
            },
            {
              "pitch": 42,
              "velocity": 38,
              "position": 4,
              "duration": 0.08333333333333333
            },
            {
              "pitch": 42,
              "velocity": 50,
              "position": 4.25,
              "duration": 0.14583333333333334
            },
            {
              "pitch": 36,
              "velocity": 95,
              "position": 4,
              "duration": 0.4583333333333333
            },
            {
              "pitch": 37,
              "velocity": 97,
              "position": 4.5,
              "duration": 0.10416666666666667
            },
            {
              "pitch": 44,
              "velocity": 72,
              "position": 4.5,
              "duration": 0.125
            },
            {
              "pitch": 36,
              "velocity": 64,
              "position": 4.75,
              "duration": 0.08333333333333333
            },
            {
              "pitch": 42,
              "velocity": 71,
              "position": 4.75,
              "duration": 0.10416666666666667
            },
            {
              "pitch": 42,
              "velocity": 67,
              "position": 5,
              "duration": 0.10416666666666667
            },
            {
              "pitch": 42,
              "velocity": 59,
              "position": 5.25,
              "duration": 0.10416666666666667
            },
            {
              "pitch": 37,
              "velocity": 91,
              "position": 5.25,
              "duration": 0.125
            },
            {
              "pitch": 36,
              "velocity": 89,
              "position": 5,
              "duration": 0.5208333333333334
            },
            {
              "pitch": 44,
              "velocity": 72,
              "position": 5.5,
              "duration": 0.14583333333333334
            },
            {
              "pitch": 36,
              "velocity": 64,
              "position": 5.75,
              "duration": 0.10416666666666667
            },
            {
              "pitch": 42,
              "velocity": 63,
              "position": 5.75,
              "duration": 0.10416666666666667
            },
            {
              "pitch": 37,
              "velocity": 77,
              "position": 5.75,
              "duration": 0.125
            },
            {
              "pitch": 42,
              "velocity": 80,
              "position": 6,
              "duration": 0.125
            },
            {
              "pitch": 37,
              "velocity": 93,
              "position": 6.25,
              "duration": 0.10416666666666667
            },
            {
              "pitch": 42,
              "velocity": 41,
              "position": 6.25,
              "duration": 0.125
            },
            {
              "pitch": 36,
              "velocity": 84,
              "position": 6,
              "duration": 0.4375
            },
            {
              "pitch": 44,
              "velocity": 72,
              "position": 6.5,
              "duration": 0.14583333333333334
            },
            {
              "pitch": 36,
              "velocity": 61,
              "position": 6.75,
              "duration": 0.08333333333333333
            },
            {
              "pitch": 42,
              "velocity": 67,
              "position": 6.75,
              "duration": 0.10416666666666667
            },
            {
              "pitch": 37,
              "velocity": 80,
              "position": 6.75,
              "duration": 0.125
            },
            {
              "pitch": 42,
              "velocity": 52,
              "position": 7,
              "duration": 0.0625
            },
            {
              "pitch": 37,
              "velocity": 64,
              "position": 7.25,
              "duration": 0.08333333333333333
            },
            {
              "pitch": 42,
              "velocity": 71,
              "position": 7.25,
              "duration": 0.125
            },
            {
              "pitch": 36,
              "velocity": 95,
              "position": 7,
              "duration": 0.4375
            },
            {
              "pitch": 37,
              "velocity": 99,
              "position": 7.5,
              "duration": 0.125
            },
            {
              "pitch": 44,
              "velocity": 72,
              "position": 7.5,
              "duration": 0.14583333333333334
            },
            {
              "pitch": 36,
              "velocity": 61,
              "position": 7.75,
              "duration": 0.08333333333333333
            },
            {
              "pitch": 42,
              "velocity": 76,
              "position": 7.75,
              "duration": 0.10416666666666667
            },
            {
              "pitch": 42,
              "velocity": 63,
              "position": 8,
              "duration": 0.10416666666666667
            },
            {
              "pitch": 37,
              "velocity": 60,
              "position": 8,
              "duration": 0.10416666666666667
            },
            {
              "pitch": 42,
              "velocity": 63,
              "position": 8.25,
              "duration": 0.14583333333333334
            },
            {
              "pitch": 36,
              "velocity": 95,
              "position": 8,
              "duration": 0.4583333333333333
            },
            {
              "pitch": 37,
              "velocity": 95,
              "position": 8.5,
              "duration": 0.125
            },
            {
              "pitch": 44,
              "velocity": 78,
              "position": 8.5,
              "duration": 0.125
            },
            {
              "pitch": 36,
              "velocity": 64,
              "position": 8.75,
              "duration": 0.0625
            },
            {
              "pitch": 42,
              "velocity": 63,
              "position": 8.75,
              "duration": 0.08333333333333333
            },
            {
              "pitch": 42,
              "velocity": 63,
              "position": 9,
              "duration": 0.125
            },
            {
              "pitch": 42,
              "velocity": 52,
              "position": 9.25,
              "duration": 0.10416666666666667
            },
            {
              "pitch": 37,
              "velocity": 91,
              "position": 9.25,
              "duration": 0.14583333333333334
            },
            {
              "pitch": 36,
              "velocity": 95,
              "position": 9,
              "duration": 0.5
            },
            {
              "pitch": 44,
              "velocity": 72,
              "position": 9.5,
              "duration": 0.125
            },
            {
              "pitch": 36,
              "velocity": 67,
              "position": 9.75,
              "duration": 0.08333333333333333
            },
            {
              "pitch": 42,
              "velocity": 63,
              "position": 9.75,
              "duration": 0.08333333333333333
            },
            {
              "pitch": 37,
              "velocity": 91,
              "position": 9.75,
              "duration": 0.10416666666666667
            },
            {
              "pitch": 42,
              "velocity": 59,
              "position": 10,
              "duration": 0.10416666666666667
            },
            {
              "pitch": 42,
              "velocity": 41,
              "position": 10.25,
              "duration": 0.08333333333333333
            },
            {
              "pitch": 37,
              "velocity": 93,
              "position": 10.25,
              "duration": 0.125
            },
            {
              "pitch": 36,
              "velocity": 95,
              "position": 10,
              "duration": 0.3958333333333333
            },
            {
              "pitch": 44,
              "velocity": 78,
              "position": 10.5,
              "duration": 0.14583333333333334
            },
            {
              "pitch": 36,
              "velocity": 72,
              "position": 10.75,
              "duration": 0.08333333333333333
            },
            {
              "pitch": 42,
              "velocity": 71,
              "position": 10.75,
              "duration": 0.10416666666666667
            },
            {
              "pitch": 37,
              "velocity": 81,
              "position": 10.75,
              "duration": 0.16666666666666666
            },
            {
              "pitch": 42,
              "velocity": 63,
              "position": 11,
              "duration": 0.08333333333333333
            },
            {
              "pitch": 37,
              "velocity": 93,
              "position": 11,
              "duration": 0.16666666666666666
            },
            {
              "pitch": 42,
              "velocity": 84,
              "position": 11.25,
              "duration": 0.10416666666666667
            },
            {
              "pitch": 36,
              "velocity": 84,
              "position": 11,
              "duration": 0.4375
            },
            {
              "pitch": 37,
              "velocity": 90,
              "position": 11.5,
              "duration": 0.125
            },
            {
              "pitch": 44,
              "velocity": 66,
              "position": 11.5,
              "duration": 0.14583333333333334
            },
            {
              "pitch": 36,
              "velocity": 72,
              "position": 11.75,
              "duration": 0.10416666666666667
            },
            {
              "pitch": 42,
              "velocity": 71,
              "position": 11.75,
              "duration": 0.125
            },
            {
              "pitch": 37,
              "velocity": 77,
              "position": 12,
              "duration": 0.10416666666666667
            },
            {
              "pitch": 42,
              "velocity": 39,
              "position": 12,
              "duration": 0.10416666666666667
            },
            {
              "pitch": 42,
              "velocity": 67,
              "position": 12.25,
              "duration": 0.14583333333333334
            },
            {
              "pitch": 36,
              "velocity": 84,
              "position": 12,
              "duration": 0.4583333333333333
            },
            {
              "pitch": 37,
              "velocity": 94,
              "position": 12.5,
              "duration": 0.10416666666666667
            },
            {
              "pitch": 44,
              "velocity": 87,
              "position": 12.5,
              "duration": 0.14583333333333334
            },
            {
              "pitch": 36,
              "velocity": 61,
              "position": 12.75,
              "duration": 0.0625
            },
            {
              "pitch": 42,
              "velocity": 52,
              "position": 12.75,
              "duration": 0.08333333333333333
            },
            {
              "pitch": 42,
              "velocity": 42,
              "position": 13,
              "duration": 0.10416666666666667
            },
            {
              "pitch": 42,
              "velocity": 49,
              "position": 13.25,
              "duration": 0.10416666666666667
            },
            {
              "pitch": 37,
              "velocity": 88,
              "position": 13.25,
              "duration": 0.14583333333333334
            },
            {
              "pitch": 36,
              "velocity": 89,
              "position": 13,
              "duration": 0.4791666666666667
            },
            {
              "pitch": 44,
              "velocity": 87,
              "position": 13.5,
              "duration": 0.16666666666666666
            },
            {
              "pitch": 36,
              "velocity": 53,
              "position": 13.75,
              "duration": 0.0625
            },
            {
              "pitch": 42,
              "velocity": 59,
              "position": 13.75,
              "duration": 0.10416666666666667
            },
            {
              "pitch": 37,
              "velocity": 88,
              "position": 13.75,
              "duration": 0.10416666666666667
            },
            {
              "pitch": 42,
              "velocity": 63,
              "position": 14,
              "duration": 0.10416666666666667
            },
            {
              "pitch": 42,
              "velocity": 50,
              "position": 14.25,
              "duration": 0.10416666666666667
            },
            {
              "pitch": 37,
              "velocity": 93,
              "position": 14.25,
              "duration": 0.10416666666666667
            },
            {
              "pitch": 36,
              "velocity": 95,
              "position": 14,
              "duration": 0.5
            },
            {
              "pitch": 44,
              "velocity": 78,
              "position": 14.5,
              "duration": 0.14583333333333334
            },
            {
              "pitch": 42,
              "velocity": 38,
              "position": 14.75,
              "duration": 0.0625
            },
            {
              "pitch": 36,
              "velocity": 64,
              "position": 14.75,
              "duration": 0.0625
            },
            {
              "pitch": 37,
              "velocity": 56,
              "position": 14.75,
              "duration": 0.10416666666666667
            },
            {
              "pitch": 42,
              "velocity": 63,
              "position": 15,
              "duration": 0.10416666666666667
            },
            {
              "pitch": 37,
              "velocity": 83,
              "position": 15,
              "duration": 0.125
            },
            {
              "pitch": 42,
              "velocity": 45,
              "position": 15.25,
              "duration": 0.0625
            },
            {
              "pitch": 44,
              "velocity": 60,
              "position": 15.25,
              "duration": 0.16666666666666666
            },
            {
              "pitch": 36,
              "velocity": 95,
              "position": 15,
              "duration": 0.4791666666666667
            },
            {
              "pitch": 37,
              "velocity": 76,
              "position": 15.5,
              "duration": 0.08333333333333333
            },
            {
              "pitch": 36,
              "velocity": 64,
              "position": 15.75,
              "duration": 0.0625
            },
            {
              "pitch": 37,
              "velocity": 95,
              "position": 15.75,
              "duration": 0.08333333333333333
            },
            {
              "pitch": 46,
              "velocity": 10,
              "position": 15.75,
              "duration": 0.14583333333333334
            },
            {
              "pitch": 42,
              "velocity": 80,
              "position": 15.75,
              "duration": 0.23958333333333334
            },
            {
              "pitch": 42,
              "velocity": 89,
              "position": 16,
              "duration": 0.1875
            },
            {
              "pitch": 42,
              "velocity": 46,
              "position": 16.25,
              "duration": 0.10416666666666667
            },
            {
              "pitch": 42,
              "velocity": 63,
              "position": 16.5,
              "duration": 0.125
            },
            {
              "pitch": 42,
              "velocity": 40,
              "position": 16.75,
              "duration": 0.125
            },
            {
              "pitch": 46,
              "velocity": 46,
              "position": 17.041666666666668,
              "duration": 1.2291666666666667
            },
            {
              "pitch": 36,
              "velocity": 89,
              "position": 16,
              "duration": 2.4375
            },
            {
              "pitch": 51,
              "velocity": 40,
              "position": 18.708333333333332,
              "duration": 0.08333333333333333
            },
            {
              "pitch": 51,
              "velocity": 68,
              "position": 18.833333333333332,
              "duration": 0.0625
            },
            {
              "pitch": 51,
              "velocity": 68,
              "position": 18.958333333333332,
              "duration": 0.041666666666666664
            },
            {
              "pitch": 51,
              "velocity": 86,
              "position": 19,
              "duration": 0.08333333333333333
            },
            {
              "pitch": 51,
              "velocity": 110,
              "position": 19.166666666666668,
              "duration": 0.08333333333333333
            },
            {
              "pitch": 49,
              "velocity": 56,
              "position": 19.958333333333332,
              "duration": 0.041666666666666664
            }
          ]
        },
        "10": {
          "ctab": {
            "srcChannel": 10,
            "name": "Std.Kit1",
            "accType": "SUBRHYTHM",
            "editable": false,
            "mutedNotes": [],
            "mutedChords": [],
            "autoStart": true,
            "sourceChordNote": 0,
            "sourceChordType": "Maj7",
            "ctb2Low": null,
            "ctb2Main": {
              "ntr": "ROOT_FIXED",
              "ntt": "BYPASS",
              "bassOn": false,
              "chordRootUpperLimit": 6,
              "noteLowLimit": 0,
              "noteHighLimit": 127,
              "rtr": "PITCH_SHIFT"
            },
            "ctb2High": null,
            "ctb2MiddleLowPitch": 0,
            "ctb2MiddleHighPitch": 127
          },
          "notes": [
            {
              "pitch": 70,
              "velocity": 70,
              "position": 0.5,
              "duration": 0.10416666666666667
            },
            {
              "pitch": 70,
              "velocity": 90,
              "position": 4,
              "duration": 0.14583333333333334
            },
            {
              "pitch": 70,
              "velocity": 40,
              "position": 4.25,
              "duration": 0.10416666666666667
            },
            {
              "pitch": 70,
              "velocity": 66,
              "position": 4.5,
              "duration": 0.125
            },
            {
              "pitch": 70,
              "velocity": 42,
              "position": 4.75,
              "duration": 0.10416666666666667
            },
            {
              "pitch": 70,
              "velocity": 71,
              "position": 5,
              "duration": 0.10416666666666667
            },
            {
              "pitch": 70,
              "velocity": 42,
              "position": 5.25,
              "duration": 0.125
            },
            {
              "pitch": 70,
              "velocity": 90,
              "position": 5.5,
              "duration": 0.10416666666666667
            },
            {
              "pitch": 70,
              "velocity": 37,
              "position": 5.75,
              "duration": 0.10416666666666667
            },
            {
              "pitch": 70,
              "velocity": 66,
              "position": 6,
              "duration": 0.125
            },
            {
              "pitch": 70,
              "velocity": 37,
              "position": 6.25,
              "duration": 0.14583333333333334
            },
            {
              "pitch": 70,
              "velocity": 98,
              "position": 6.5,
              "duration": 0.14583333333333334
            },
            {
              "pitch": 70,
              "velocity": 40,
              "position": 6.75,
              "duration": 0.10416666666666667
            },
            {
              "pitch": 70,
              "velocity": 51,
              "position": 7,
              "duration": 0.08333333333333333
            },
            {
              "pitch": 70,
              "velocity": 35,
              "position": 7.25,
              "duration": 0.125
            },
            {
              "pitch": 70,
              "velocity": 98,
              "position": 7.5,
              "duration": 0.125
            },
            {
              "pitch": 70,
              "velocity": 31,
              "position": 7.75,
              "duration": 0.10416666666666667
            },
            {
              "pitch": 70,
              "velocity": 98,
              "position": 8,
              "duration": 0.10416666666666667
            },
            {
              "pitch": 70,
              "velocity": 20,
              "position": 8.25,
              "duration": 0.125
            },
            {
              "pitch": 70,
              "velocity": 98,
              "position": 8.5,
              "duration": 0.125
            },
            {
              "pitch": 70,
              "velocity": 26,
              "position": 8.75,
              "duration": 0.0625
            },
            {
              "pitch": 70,
              "velocity": 58,
              "position": 9,
              "duration": 0.10416666666666667
            },
            {
              "pitch": 70,
              "velocity": 47,
              "position": 9.25,
              "duration": 0.10416666666666667
            },
            {
              "pitch": 70,
              "velocity": 107,
              "position": 9.5,
              "duration": 0.10416666666666667
            },
            {
              "pitch": 70,
              "velocity": 40,
              "position": 9.75,
              "duration": 0.08333333333333333
            },
            {
              "pitch": 70,
              "velocity": 107,
              "position": 10,
              "duration": 0.08333333333333333
            },
            {
              "pitch": 70,
              "velocity": 51,
              "position": 10.125,
              "duration": 0.0625
            },
            {
              "pitch": 70,
              "velocity": 77,
              "position": 10.25,
              "duration": 0.0625
            },
            {
              "pitch": 70,
              "velocity": 107,
              "position": 10.375,
              "duration": 0.08333333333333333
            },
            {
              "pitch": 70,
              "velocity": 127,
              "position": 10.5,
              "duration": 0.10416666666666667
            },
            {
              "pitch": 70,
              "velocity": 77,
              "position": 10.75,
              "duration": 0.0625
            },
            {
              "pitch": 70,
              "velocity": 107,
              "position": 11,
              "duration": 0.0625
            },
            {
              "pitch": 70,
              "velocity": 85,
              "position": 11.125,
              "duration": 0.0625
            },
            {
              "pitch": 70,
              "velocity": 77,
              "position": 11.25,
              "duration": 0.041666666666666664
            },
            {
              "pitch": 70,
              "velocity": 98,
              "position": 11.375,
              "duration": 0.08333333333333333
            },
            {
              "pitch": 70,
              "velocity": 42,
              "position": 11.5,
              "duration": 0.08333333333333333
            },
            {
              "pitch": 70,
              "velocity": 85,
              "position": 11.75,
              "duration": 0.0625
            },
            {
              "pitch": 70,
              "velocity": 98,
              "position": 12,
              "duration": 0.0625
            },
            {
              "pitch": 70,
              "velocity": 36,
              "position": 12.25,
              "duration": 0.0625
            },
            {
              "pitch": 70,
              "velocity": 107,
              "position": 12.5,
              "duration": 0.10416666666666667
            },
            {
              "pitch": 70,
              "velocity": 58,
              "position": 12.75,
              "duration": 0.10416666666666667
            },
            {
              "pitch": 70,
              "velocity": 85,
              "position": 13,
              "duration": 0.10416666666666667
            },
            {
              "pitch": 70,
              "velocity": 33,
              "position": 13.25,
              "duration": 0.125
            },
            {
              "pitch": 70,
              "velocity": 107,
              "position": 13.5,
              "duration": 0.10416666666666667
            },
            {
              "pitch": 70,
              "velocity": 28,
              "position": 13.75,
              "duration": 0.10416666666666667
            },
            {
              "pitch": 70,
              "velocity": 35,
              "position": 14.25,
              "duration": 0.10416666666666667
            },
            {
              "pitch": 70,
              "velocity": 107,
              "position": 14.5,
              "duration": 0.10416666666666667
            },
            {
              "pitch": 70,
              "velocity": 39,
              "position": 14.75,
              "duration": 0.10416666666666667
            },
            {
              "pitch": 70,
              "velocity": 77,
              "position": 15,
              "duration": 0.08333333333333333
            },
            {
              "pitch": 70,
              "velocity": 40,
              "position": 15.25,
              "duration": 0.08333333333333333
            },
            {
              "pitch": 70,
              "velocity": 98,
              "position": 15.5,
              "duration": 0.0625
            },
            {
              "pitch": 70,
              "velocity": 71,
              "position": 15.75,
              "duration": 0.08333333333333333
            },
            {
              "pitch": 70,
              "velocity": 98,
              "position": 16,
              "duration": 0.10416666666666667
            }
          ]
        },
        "12": {
          "ctab": {
            "srcChannel": 12,
            "name": "FngrBass",
            "accType": "BASS",
            "editable": false,
            "mutedNotes": [],
            "mutedChords": [],
            "autoStart": false,
            "sourceChordNote": 0,
            "sourceChordType": "Maj7",
            "ctb2Low": null,
            "ctb2Main": {
              "ntr": "ROOT_TRANSPOSITION",
              "ntt": "MELODY",
              "bassOn": true,
              "chordRootUpperLimit": 3,
              "noteLowLimit": 28,
              "noteHighLimit": 54,
              "rtr": "PITCH_SHIFT_TO_ROOT"
            },
            "ctb2High": null,
            "ctb2MiddleLowPitch": 0,
            "ctb2MiddleHighPitch": 127
          },
          "notes": [
            {
              "pitch": 41,
              "velocity": 45,
              "position": 4,
              "duration": 0.4583333333333333
            },
            {
              "pitch": 41,
              "velocity": 21,
              "position": 4.75,
              "duration": 0.08333333333333333
            },
            {
              "pitch": 36,
              "velocity": 34,
              "position": 5,
              "duration": 0.4583333333333333
            },
            {
              "pitch": 36,
              "velocity": 44,
              "position": 5.75,
              "duration": 0.10416666666666667
            },
            {
              "pitch": 34,
              "velocity": 68,
              "position": 6,
              "duration": 0.5
            },
            {
              "pitch": 34,
              "velocity": 63,
              "position": 6.75,
              "duration": 0.08333333333333333
            },
            {
              "pitch": 41,
              "velocity": 64,
              "position": 7,
              "duration": 0.625
            },
            {
              "pitch": 34,
              "velocity": 50,
              "position": 7.75,
              "duration": 0.1875
            },
            {
              "pitch": 39,
              "velocity": 58,
              "position": 8,
              "duration": 0.4375
            },
            {
              "pitch": 39,
              "velocity": 79,
              "position": 8.75,
              "duration": 0.08333333333333333
            },
            {
              "pitch": 34,
              "velocity": 64,
              "position": 9,
              "duration": 0.625
            },
            {
              "pitch": 39,
              "velocity": 48,
              "position": 9.75,
              "duration": 0.125
            },
            {
              "pitch": 32,
              "velocity": 68,
              "position": 10,
              "duration": 0.5208333333333334
            },
            {
              "pitch": 32,
              "velocity": 53,
              "position": 10.75,
              "duration": 0.10416666666666667
            },
            {
              "pitch": 39,
              "velocity": 68,
              "position": 11,
              "duration": 0.5625
            },
            {
              "pitch": 37,
              "velocity": 64,
              "position": 11.75,
              "duration": 0.1875
            },
            {
              "pitch": 38,
              "velocity": 38,
              "position": 12,
              "duration": 0.4791666666666667
            },
            {
              "pitch": 38,
              "velocity": 70,
              "position": 12.75,
              "duration": 0.08333333333333333
            },
            {
              "pitch": 38,
              "velocity": 64,
              "position": 13,
              "duration": 0.6666666666666666
            },
            {
              "pitch": 32,
              "velocity": 45,
              "position": 13.75,
              "duration": 0.14583333333333334
            },
            {
              "pitch": 31,
              "velocity": 79,
              "position": 14,
              "duration": 1.0625
            },
            {
              "pitch": 38,
              "velocity": 73,
              "position": 15.25,
              "duration": 0.08333333333333333
            },
            {
              "pitch": 36,
              "velocity": 79,
              "position": 15.75,
              "duration": 2.1041666666666665
            },
            {
              "pitch": 31,
              "velocity": 45,
              "position": 18,
              "duration": 1.8541666666666667
            }
          ]
        },
        "14": {
          "ctab": {
            "srcChannel": 14,
            "name": "Alto Sax",
            "accType": "CHORD1",
            "editable": false,
            "mutedNotes": [],
            "mutedChords": [],
            "autoStart": false,
            "sourceChordNote": 0,
            "sourceChordType": "Maj7",
            "ctb2Low": null,
            "ctb2Main": {
              "ntr": "ROOT_TRANSPOSITION",
              "ntt": "CHORD",
              "bassOn": false,
              "chordRootUpperLimit": 6,
              "noteLowLimit": 0,
              "noteHighLimit": 79,
              "rtr": "PITCH_SHIFT"
            },
            "ctb2High": null,
            "ctb2MiddleLowPitch": 0,
            "ctb2MiddleHighPitch": 127
          },
          "notes": [
            {
              "pitch": 67,
              "velocity": 96,
              "position": 2.4166666666666665,
              "duration": 0.20833333333333334
            },
            {
              "pitch": 67,
              "velocity": 52,
              "position": 2.75,
              "duration": 0.20833333333333334
            },
            {
              "pitch": 67,
              "velocity": 90,
              "position": 3.2083333333333335,
              "duration": 0.16666666666666666
            },
            {
              "pitch": 67,
              "velocity": 82,
              "position": 3.7083333333333335,
              "duration": 0.5625
            },
            {
              "pitch": 65,
              "velocity": 63,
              "position": 4.291666666666667,
              "duration": 0.2916666666666667
            },
            {
              "pitch": 67,
              "velocity": 101,
              "position": 4.75,
              "duration": 0.22916666666666666
            },
            {
              "pitch": 68,
              "velocity": 90,
              "position": 5.25,
              "duration": 0.3958333333333333
            },
            {
              "pitch": 65,
              "velocity": 96,
              "position": 6.5,
              "duration": 0.20833333333333334
            },
            {
              "pitch": 65,
              "velocity": 35,
              "position": 6.75,
              "duration": 0.1875
            },
            {
              "pitch": 65,
              "velocity": 127,
              "position": 7.25,
              "duration": 0.16666666666666666
            },
            {
              "pitch": 65,
              "velocity": 116,
              "position": 7.791666666666667,
              "duration": 0.4583333333333333
            },
            {
              "pitch": 63,
              "velocity": 80,
              "position": 8.291666666666666,
              "duration": 0.22916666666666666
            },
            {
              "pitch": 65,
              "velocity": 73,
              "position": 8.708333333333334,
              "duration": 0.20833333333333334
            },
            {
              "pitch": 66,
              "velocity": 90,
              "position": 9.083333333333334,
              "duration": 0.08333333333333333
            },
            {
              "pitch": 67,
              "velocity": 96,
              "position": 9.166666666666666,
              "duration": 0.5
            },
            {
              "pitch": 63,
              "velocity": 88,
              "position": 10.5,
              "duration": 0.1875
            },
            {
              "pitch": 63,
              "velocity": 31,
              "position": 10.75,
              "duration": 0.2916666666666667
            },
            {
              "pitch": 63,
              "velocity": 109,
              "position": 11.291666666666666,
              "duration": 0.22916666666666666
            },
            {
              "pitch": 63,
              "velocity": 101,
              "position": 11.791666666666666,
              "duration": 0.5
            },
            {
              "pitch": 62,
              "velocity": 65,
              "position": 12.291666666666666,
              "duration": 0.625
            },
            {
              "pitch": 61,
              "velocity": 93,
              "position": 12.958333333333334,
              "duration": 0.5
            },
            {
              "pitch": 62,
              "velocity": 58,
              "position": 13.5,
              "duration": 0.4166666666666667
            },
            {
              "pitch": 65,
              "velocity": 114,
              "position": 14.083333333333334,
              "duration": 1.0208333333333333
            },
            {
              "pitch": 63,
              "velocity": 103,
              "position": 15.291666666666666,
              "duration": 0.20833333333333334
            },
            {
              "pitch": 60,
              "velocity": 94,
              "position": 15.833333333333334,
              "duration": 2.3333333333333335
            }
          ]
        }
      }
    },
    "Intro_C": {
      "type": "Intro_C",
      "sizeInBeats": 20,
      "channels": {
        "0": {
          "ctab": {
            "srcChannel": 0,
            "name": "NylonGtr",
            "accType": "CHORD2",
            "editable": false,
            "mutedNotes": [],
            "mutedChords": [],
            "autoStart": false,
            "sourceChordNote": 0,
            "sourceChordType": "Maj7",
            "ctb2Low": null,
            "ctb2Main": {
              "ntr": "ROOT_TRANSPOSITION",
              "ntt": "CHORD",
              "bassOn": false,
              "chordRootUpperLimit": 6,
              "noteLowLimit": 0,
              "noteHighLimit": 127,
              "rtr": "PITCH_SHIFT"
            },
            "ctb2High": null,
            "ctb2MiddleLowPitch": 0,
            "ctb2MiddleHighPitch": 127
          },
          "notes": [
            {
              "pitch": 56,
              "velocity": 90,
              "position": 4.5,
              "duration": 0.6458333333333334
            },
            {
              "pitch": 67,
              "velocity": 73,
              "position": 4.5,
              "duration": 0.6666666666666666
            },
            {
              "pitch": 63,
              "velocity": 87,
              "position": 4.5,
              "duration": 0.7083333333333334
            },
            {
              "pitch": 60,
              "velocity": 73,
              "position": 4.5,
              "duration": 0.7291666666666666
            },
            {
              "pitch": 63,
              "velocity": 88,
              "position": 5.5,
              "duration": 0.10416666666666667
            },
            {
              "pitch": 56,
              "velocity": 85,
              "position": 5.5,
              "duration": 0.125
            },
            {
              "pitch": 60,
              "velocity": 84,
              "position": 5.5,
              "duration": 0.125
            },
            {
              "pitch": 67,
              "velocity": 73,
              "position": 5.5,
              "duration": 0.14583333333333334
            },
            {
              "pitch": 62,
              "velocity": 94,
              "position": 6,
              "duration": 0.125
            },
            {
              "pitch": 60,
              "velocity": 73,
              "position": 6,
              "duration": 0.14583333333333334
            },
            {
              "pitch": 67,
              "velocity": 71,
              "position": 6,
              "duration": 0.14583333333333334
            },
            {
              "pitch": 56,
              "velocity": 84,
              "position": 6,
              "duration": 0.16666666666666666
            },
            {
              "pitch": 56,
              "velocity": 83,
              "position": 6.5,
              "duration": 0.125
            },
            {
              "pitch": 62,
              "velocity": 97,
              "position": 6.75,
              "duration": 0.10416666666666667
            },
            {
              "pitch": 60,
              "velocity": 81,
              "position": 6.75,
              "duration": 0.10416666666666667
            },
            {
              "pitch": 67,
              "velocity": 73,
              "position": 6.75,
              "duration": 0.125
            },
            {
              "pitch": 56,
              "velocity": 72,
              "position": 6.75,
              "duration": 0.16666666666666666
            },
            {
              "pitch": 62,
              "velocity": 94,
              "position": 7.25,
              "duration": 0.10416666666666667
            },
            {
              "pitch": 60,
              "velocity": 75,
              "position": 7.25,
              "duration": 0.125
            },
            {
              "pitch": 67,
              "velocity": 67,
              "position": 7.25,
              "duration": 0.125
            },
            {
              "pitch": 56,
              "velocity": 91,
              "position": 7.25,
              "duration": 0.16666666666666666
            },
            {
              "pitch": 55,
              "velocity": 57,
              "position": 7.75,
              "duration": 0.16666666666666666
            },
            {
              "pitch": 58,
              "velocity": 81,
              "position": 7.75,
              "duration": 0.16666666666666666
            },
            {
              "pitch": 62,
              "velocity": 77,
              "position": 7.75,
              "duration": 0.20833333333333334
            },
            {
              "pitch": 55,
              "velocity": 74,
              "position": 8.25,
              "duration": 0.14583333333333334
            },
            {
              "pitch": 58,
              "velocity": 97,
              "position": 8.5,
              "duration": 0.10416666666666667
            },
            {
              "pitch": 62,
              "velocity": 94,
              "position": 8.5,
              "duration": 0.125
            },
            {
              "pitch": 65,
              "velocity": 69,
              "position": 8.5,
              "duration": 0.14583333333333334
            },
            {
              "pitch": 55,
              "velocity": 70,
              "position": 8.75,
              "duration": 0.16666666666666666
            },
            {
              "pitch": 58,
              "velocity": 78,
              "position": 9,
              "duration": 0.041666666666666664
            },
            {
              "pitch": 55,
              "velocity": 72,
              "position": 9.25,
              "duration": 0.10416666666666667
            },
            {
              "pitch": 58,
              "velocity": 100,
              "position": 9.5,
              "duration": 0.10416666666666667
            },
            {
              "pitch": 62,
              "velocity": 94,
              "position": 9.5,
              "duration": 0.125
            },
            {
              "pitch": 65,
              "velocity": 73,
              "position": 9.5,
              "duration": 0.16666666666666666
            },
            {
              "pitch": 56,
              "velocity": 88,
              "position": 9.75,
              "duration": 0.0625
            },
            {
              "pitch": 56,
              "velocity": 77,
              "position": 10,
              "duration": 0.041666666666666664
            },
            {
              "pitch": 60,
              "velocity": 97,
              "position": 10.25,
              "duration": 0.10416666666666667
            },
            {
              "pitch": 56,
              "velocity": 91,
              "position": 10.25,
              "duration": 0.10416666666666667
            },
            {
              "pitch": 65,
              "velocity": 77,
              "position": 10.25,
              "duration": 0.125
            },
            {
              "pitch": 56,
              "velocity": 64,
              "position": 10.5,
              "duration": 0.020833333333333332
            },
            {
              "pitch": 65,
              "velocity": 56,
              "position": 10.75,
              "duration": 0.0625
            },
            {
              "pitch": 60,
              "velocity": 74,
              "position": 10.75,
              "duration": 0.08333333333333333
            },
            {
              "pitch": 56,
              "velocity": 81,
              "position": 10.75,
              "duration": 0.10416666666666667
            },
            {
              "pitch": 56,
              "velocity": 80,
              "position": 11,
              "duration": 0.08333333333333333
            },
            {
              "pitch": 60,
              "velocity": 84,
              "position": 11,
              "duration": 0.10416666666666667
            },
            {
              "pitch": 65,
              "velocity": 77,
              "position": 11,
              "duration": 0.16666666666666666
            },
            {
              "pitch": 56,
              "velocity": 88,
              "position": 11.25,
              "duration": 0.10416666666666667
            },
            {
              "pitch": 56,
              "velocity": 81,
              "position": 11.5,
              "duration": 0.08333333333333333
            },
            {
              "pitch": 56,
              "velocity": 50,
              "position": 11.75,
              "duration": 0.0625
            },
            {
              "pitch": 60,
              "velocity": 75,
              "position": 11.75,
              "duration": 0.08333333333333333
            },
            {
              "pitch": 65,
              "velocity": 62,
              "position": 11.75,
              "duration": 0.125
            },
            {
              "pitch": 56,
              "velocity": 90,
              "position": 12,
              "duration": 0.08333333333333333
            },
            {
              "pitch": 56,
              "velocity": 85,
              "position": 12.25,
              "duration": 0.125
            },
            {
              "pitch": 65,
              "velocity": 85,
              "position": 12.5,
              "duration": 0.08333333333333333
            },
            {
              "pitch": 68,
              "velocity": 88,
              "position": 12.5,
              "duration": 0.125
            },
            {
              "pitch": 60,
              "velocity": 87,
              "position": 12.5,
              "duration": 0.125
            },
            {
              "pitch": 56,
              "velocity": 88,
              "position": 12.75,
              "duration": 0.041666666666666664
            },
            {
              "pitch": 66,
              "velocity": 39,
              "position": 13,
              "duration": 0.0625
            },
            {
              "pitch": 60,
              "velocity": 60,
              "position": 13,
              "duration": 0.08333333333333333
            },
            {
              "pitch": 56,
              "velocity": 90,
              "position": 13.25,
              "duration": 0.08333333333333333
            },
            {
              "pitch": 65,
              "velocity": 97,
              "position": 13.5,
              "duration": 0.08333333333333333
            },
            {
              "pitch": 68,
              "velocity": 88,
              "position": 13.5,
              "duration": 0.08333333333333333
            },
            {
              "pitch": 60,
              "velocity": 94,
              "position": 13.5,
              "duration": 0.10416666666666667
            },
            {
              "pitch": 57,
              "velocity": 55,
              "position": 13.75,
              "duration": 0.08333333333333333
            },
            {
              "pitch": 55,
              "velocity": 56,
              "position": 13.75,
              "duration": 0.10416666666666667
            },
            {
              "pitch": 70,
              "velocity": 90,
              "position": 14,
              "duration": 0.9375
            },
            {
              "pitch": 63,
              "velocity": 97,
              "position": 14,
              "duration": 0.9583333333333334
            },
            {
              "pitch": 59,
              "velocity": 78,
              "position": 14,
              "duration": 1
            },
            {
              "pitch": 55,
              "velocity": 66,
              "position": 15,
              "duration": 0.14583333333333334
            },
            {
              "pitch": 63,
              "velocity": 81,
              "position": 15.25,
              "duration": 0.08333333333333333
            },
            {
              "pitch": 68,
              "velocity": 94,
              "position": 15.25,
              "duration": 0.08333333333333333
            },
            {
              "pitch": 60,
              "velocity": 81,
              "position": 15.75,
              "duration": 1.5416666666666667
            },
            {
              "pitch": 67,
              "velocity": 100,
              "position": 15.75,
              "duration": 1.625
            },
            {
              "pitch": 63,
              "velocity": 100,
              "position": 15.75,
              "duration": 1.6458333333333333
            },
            {
              "pitch": 55,
              "velocity": 65,
              "position": 18,
              "duration": 1.2916666666666667
            },
            {
              "pitch": 59,
              "velocity": 55,
              "position": 18,
              "duration": 1.3125
            },
            {
              "pitch": 63,
              "velocity": 97,
              "position": 18,
              "duration": 1.3125
            },
            {
              "pitch": 67,
              "velocity": 100,
              "position": 18,
              "duration": 1.3333333333333333
            }
          ]
        },
        "2": {
          "ctab": {
            "srcChannel": 2,
            "name": "Strings1",
            "accType": "PAD",
            "editable": false,
            "mutedNotes": [],
            "mutedChords": [],
            "autoStart": false,
            "sourceChordNote": 0,
            "sourceChordType": "Maj7",
            "ctb2Low": null,
            "ctb2Main": {
              "ntr": "ROOT_TRANSPOSITION",
              "ntt": "CHORD",
              "bassOn": false,
              "chordRootUpperLimit": 6,
              "noteLowLimit": 0,
              "noteHighLimit": 127,
              "rtr": "PITCH_SHIFT"
            },
            "ctb2High": null,
            "ctb2MiddleLowPitch": 0,
            "ctb2MiddleHighPitch": 127
          },
          "notes": [
            {
              "pitch": 72,
              "velocity": 34,
              "position": 4,
              "duration": 2
            },
            {
              "pitch": 68,
              "velocity": 39,
              "position": 4,
              "duration": 2.1041666666666665
            },
            {
              "pitch": 65,
              "velocity": 40,
              "position": 4,
              "duration": 3.875
            },
            {
              "pitch": 70,
              "velocity": 30,
              "position": 6,
              "duration": 3.5208333333333335
            },
            {
              "pitch": 74,
              "velocity": 49,
              "position": 5.75,
              "duration": 4.041666666666667
            },
            {
              "pitch": 67,
              "velocity": 69,
              "position": 7.75,
              "duration": 2.1666666666666665
            },
            {
              "pitch": 68,
              "velocity": 32,
              "position": 10,
              "duration": 1.7395833333333333
            },
            {
              "pitch": 75,
              "velocity": 46,
              "position": 9.75,
              "duration": 2.2291666666666665
            },
            {
              "pitch": 68,
              "velocity": 43,
              "position": 11.75,
              "duration": 2.2291666666666665
            },
            {
              "pitch": 72,
              "velocity": 53,
              "position": 10,
              "duration": 4.083333333333333
            },
            {
              "pitch": 71,
              "velocity": 57,
              "position": 14,
              "duration": 1.8541666666666667
            },
            {
              "pitch": 65,
              "velocity": 56,
              "position": 12,
              "duration": 3.875
            },
            {
              "pitch": 72,
              "velocity": 59,
              "position": 15.75,
              "duration": 2.3541666666666665
            },
            {
              "pitch": 67,
              "velocity": 53,
              "position": 14,
              "duration": 5.6875
            },
            {
              "pitch": 63,
              "velocity": 35,
              "position": 15.75,
              "duration": 3.9791666666666665
            },
            {
              "pitch": 71,
              "velocity": 41,
              "position": 18,
              "duration": 1.75
            }
          ]
        },
        "8": {
          "ctab": {
            "srcChannel": 8,
            "name": "Std.Kit1",
            "accType": "RHYTHM",
            "editable": false,
            "mutedNotes": [],
            "mutedChords": [],
            "autoStart": true,
            "sourceChordNote": 0,
            "sourceChordType": "Maj7",
            "ctb2Low": null,
            "ctb2Main": {
              "ntr": "ROOT_FIXED",
              "ntt": "BYPASS",
              "bassOn": false,
              "chordRootUpperLimit": 6,
              "noteLowLimit": 0,
              "noteHighLimit": 127,
              "rtr": "PITCH_SHIFT"
            },
            "ctb2High": null,
            "ctb2MiddleLowPitch": 0,
            "ctb2MiddleHighPitch": 127
          },
          "notes": [
            {
              "pitch": 42,
              "velocity": 75,
              "position": 0,
              "duration": 0.14583333333333334
            },
            {
              "pitch": 42,
              "velocity": 51,
              "position": 0.25,
              "duration": 0.125
            },
            {
              "pitch": 36,
              "velocity": 89,
              "position": 0,
              "duration": 0.4166666666666667
            },
            {
              "pitch": 46,
              "velocity": 89,
              "position": 0.5,
              "duration": 0.16666666666666666
            },
            {
              "pitch": 36,
              "velocity": 83,
              "position": 0.75,
              "duration": 0.0625
            },
            {
              "pitch": 42,
              "velocity": 87,
              "position": 0.75,
              "duration": 0.125
            },
            {
              "pitch": 40,
              "velocity": 80,
              "position": 1,
              "duration": 0.25
            },
            {
              "pitch": 36,
              "velocity": 95,
              "position": 1.5,
              "duration": 0.3541666666666667
            },
            {
              "pitch": 42,
              "velocity": 38,
              "position": 4,
              "duration": 0.08333333333333333
            },
            {
              "pitch": 42,
              "velocity": 50,
              "position": 4.25,
              "duration": 0.14583333333333334
            },
            {
              "pitch": 36,
              "velocity": 95,
              "position": 4,
              "duration": 0.4583333333333333
            },
            {
              "pitch": 37,
              "velocity": 97,
              "position": 4.5,
              "duration": 0.10416666666666667
            },
            {
              "pitch": 44,
              "velocity": 72,
              "position": 4.5,
              "duration": 0.125
            },
            {
              "pitch": 36,
              "velocity": 64,
              "position": 4.75,
              "duration": 0.08333333333333333
            },
            {
              "pitch": 42,
              "velocity": 71,
              "position": 4.75,
              "duration": 0.10416666666666667
            },
            {
              "pitch": 42,
              "velocity": 67,
              "position": 5,
              "duration": 0.10416666666666667
            },
            {
              "pitch": 42,
              "velocity": 59,
              "position": 5.25,
              "duration": 0.10416666666666667
            },
            {
              "pitch": 37,
              "velocity": 91,
              "position": 5.25,
              "duration": 0.125
            },
            {
              "pitch": 36,
              "velocity": 89,
              "position": 5,
              "duration": 0.5208333333333334
            },
            {
              "pitch": 44,
              "velocity": 72,
              "position": 5.5,
              "duration": 0.14583333333333334
            },
            {
              "pitch": 36,
              "velocity": 64,
              "position": 5.75,
              "duration": 0.10416666666666667
            },
            {
              "pitch": 42,
              "velocity": 63,
              "position": 5.75,
              "duration": 0.10416666666666667
            },
            {
              "pitch": 37,
              "velocity": 77,
              "position": 5.75,
              "duration": 0.125
            },
            {
              "pitch": 42,
              "velocity": 80,
              "position": 6,
              "duration": 0.125
            },
            {
              "pitch": 37,
              "velocity": 93,
              "position": 6.25,
              "duration": 0.10416666666666667
            },
            {
              "pitch": 42,
              "velocity": 41,
              "position": 6.25,
              "duration": 0.125
            },
            {
              "pitch": 36,
              "velocity": 84,
              "position": 6,
              "duration": 0.4375
            },
            {
              "pitch": 44,
              "velocity": 72,
              "position": 6.5,
              "duration": 0.14583333333333334
            },
            {
              "pitch": 36,
              "velocity": 61,
              "position": 6.75,
              "duration": 0.08333333333333333
            },
            {
              "pitch": 42,
              "velocity": 67,
              "position": 6.75,
              "duration": 0.10416666666666667
            },
            {
              "pitch": 37,
              "velocity": 80,
              "position": 6.75,
              "duration": 0.125
            },
            {
              "pitch": 42,
              "velocity": 52,
              "position": 7,
              "duration": 0.0625
            },
            {
              "pitch": 37,
              "velocity": 64,
              "position": 7.25,
              "duration": 0.08333333333333333
            },
            {
              "pitch": 42,
              "velocity": 71,
              "position": 7.25,
              "duration": 0.125
            },
            {
              "pitch": 36,
              "velocity": 95,
              "position": 7,
              "duration": 0.4375
            },
            {
              "pitch": 37,
              "velocity": 99,
              "position": 7.5,
              "duration": 0.125
            },
            {
              "pitch": 44,
              "velocity": 72,
              "position": 7.5,
              "duration": 0.14583333333333334
            },
            {
              "pitch": 36,
              "velocity": 61,
              "position": 7.75,
              "duration": 0.08333333333333333
            },
            {
              "pitch": 42,
              "velocity": 76,
              "position": 7.75,
              "duration": 0.10416666666666667
            },
            {
              "pitch": 42,
              "velocity": 63,
              "position": 8,
              "duration": 0.10416666666666667
            },
            {
              "pitch": 37,
              "velocity": 60,
              "position": 8,
              "duration": 0.10416666666666667
            },
            {
              "pitch": 42,
              "velocity": 63,
              "position": 8.25,
              "duration": 0.14583333333333334
            },
            {
              "pitch": 36,
              "velocity": 95,
              "position": 8,
              "duration": 0.4583333333333333
            },
            {
              "pitch": 37,
              "velocity": 95,
              "position": 8.5,
              "duration": 0.125
            },
            {
              "pitch": 44,
              "velocity": 78,
              "position": 8.5,
              "duration": 0.125
            },
            {
              "pitch": 36,
              "velocity": 64,
              "position": 8.75,
              "duration": 0.0625
            },
            {
              "pitch": 42,
              "velocity": 63,
              "position": 8.75,
              "duration": 0.08333333333333333
            },
            {
              "pitch": 42,
              "velocity": 63,
              "position": 9,
              "duration": 0.125
            },
            {
              "pitch": 42,
              "velocity": 52,
              "position": 9.25,
              "duration": 0.10416666666666667
            },
            {
              "pitch": 37,
              "velocity": 91,
              "position": 9.25,
              "duration": 0.14583333333333334
            },
            {
              "pitch": 36,
              "velocity": 95,
              "position": 9,
              "duration": 0.5
            },
            {
              "pitch": 44,
              "velocity": 72,
              "position": 9.5,
              "duration": 0.125
            },
            {
              "pitch": 36,
              "velocity": 67,
              "position": 9.75,
              "duration": 0.08333333333333333
            },
            {
              "pitch": 42,
              "velocity": 63,
              "position": 9.75,
              "duration": 0.08333333333333333
            },
            {
              "pitch": 37,
              "velocity": 91,
              "position": 9.75,
              "duration": 0.10416666666666667
            },
            {
              "pitch": 42,
              "velocity": 59,
              "position": 10,
              "duration": 0.10416666666666667
            },
            {
              "pitch": 42,
              "velocity": 41,
              "position": 10.25,
              "duration": 0.08333333333333333
            },
            {
              "pitch": 37,
              "velocity": 93,
              "position": 10.25,
              "duration": 0.125
            },
            {
              "pitch": 36,
              "velocity": 95,
              "position": 10,
              "duration": 0.3958333333333333
            },
            {
              "pitch": 44,
              "velocity": 78,
              "position": 10.5,
              "duration": 0.14583333333333334
            },
            {
              "pitch": 36,
              "velocity": 72,
              "position": 10.75,
              "duration": 0.08333333333333333
            },
            {
              "pitch": 42,
              "velocity": 71,
              "position": 10.75,
              "duration": 0.10416666666666667
            },
            {
              "pitch": 37,
              "velocity": 81,
              "position": 10.75,
              "duration": 0.16666666666666666
            },
            {
              "pitch": 42,
              "velocity": 63,
              "position": 11,
              "duration": 0.08333333333333333
            },
            {
              "pitch": 37,
              "velocity": 93,
              "position": 11,
              "duration": 0.16666666666666666
            },
            {
              "pitch": 42,
              "velocity": 84,
              "position": 11.25,
              "duration": 0.10416666666666667
            },
            {
              "pitch": 36,
              "velocity": 84,
              "position": 11,
              "duration": 0.4375
            },
            {
              "pitch": 37,
              "velocity": 90,
              "position": 11.5,
              "duration": 0.125
            },
            {
              "pitch": 44,
              "velocity": 66,
              "position": 11.5,
              "duration": 0.14583333333333334
            },
            {
              "pitch": 36,
              "velocity": 72,
              "position": 11.75,
              "duration": 0.10416666666666667
            },
            {
              "pitch": 42,
              "velocity": 71,
              "position": 11.75,
              "duration": 0.125
            },
            {
              "pitch": 37,
              "velocity": 77,
              "position": 12,
              "duration": 0.10416666666666667
            },
            {
              "pitch": 42,
              "velocity": 39,
              "position": 12,
              "duration": 0.10416666666666667
            },
            {
              "pitch": 42,
              "velocity": 67,
              "position": 12.25,
              "duration": 0.14583333333333334
            },
            {
              "pitch": 36,
              "velocity": 84,
              "position": 12,
              "duration": 0.4583333333333333
            },
            {
              "pitch": 37,
              "velocity": 94,
              "position": 12.5,
              "duration": 0.10416666666666667
            },
            {
              "pitch": 44,
              "velocity": 87,
              "position": 12.5,
              "duration": 0.14583333333333334
            },
            {
              "pitch": 36,
              "velocity": 61,
              "position": 12.75,
              "duration": 0.0625
            },
            {
              "pitch": 42,
              "velocity": 52,
              "position": 12.75,
              "duration": 0.08333333333333333
            },
            {
              "pitch": 42,
              "velocity": 42,
              "position": 13,
              "duration": 0.10416666666666667
            },
            {
              "pitch": 42,
              "velocity": 49,
              "position": 13.25,
              "duration": 0.10416666666666667
            },
            {
              "pitch": 37,
              "velocity": 88,
              "position": 13.25,
              "duration": 0.14583333333333334
            },
            {
              "pitch": 36,
              "velocity": 89,
              "position": 13,
              "duration": 0.4791666666666667
            },
            {
              "pitch": 44,
              "velocity": 87,
              "position": 13.5,
              "duration": 0.16666666666666666
            },
            {
              "pitch": 36,
              "velocity": 53,
              "position": 13.75,
              "duration": 0.0625
            },
            {
              "pitch": 42,
              "velocity": 59,
              "position": 13.75,
              "duration": 0.10416666666666667
            },
            {
              "pitch": 37,
              "velocity": 88,
              "position": 13.75,
              "duration": 0.10416666666666667
            },
            {
              "pitch": 42,
              "velocity": 63,
              "position": 14,
              "duration": 0.10416666666666667
            },
            {
              "pitch": 42,
              "velocity": 50,
              "position": 14.25,
              "duration": 0.10416666666666667
            },
            {
              "pitch": 37,
              "velocity": 93,
              "position": 14.25,
              "duration": 0.10416666666666667
            },
            {
              "pitch": 36,
              "velocity": 95,
              "position": 14,
              "duration": 0.5
            },
            {
              "pitch": 44,
              "velocity": 78,
              "position": 14.5,
              "duration": 0.14583333333333334
            },
            {
              "pitch": 42,
              "velocity": 38,
              "position": 14.75,
              "duration": 0.0625
            },
            {
              "pitch": 36,
              "velocity": 64,
              "position": 14.75,
              "duration": 0.0625
            },
            {
              "pitch": 37,
              "velocity": 56,
              "position": 14.75,
              "duration": 0.10416666666666667
            },
            {
              "pitch": 42,
              "velocity": 63,
              "position": 15,
              "duration": 0.10416666666666667
            },
            {
              "pitch": 37,
              "velocity": 83,
              "position": 15,
              "duration": 0.125
            },
            {
              "pitch": 42,
              "velocity": 45,
              "position": 15.25,
              "duration": 0.0625
            },
            {
              "pitch": 44,
              "velocity": 60,
              "position": 15.25,
              "duration": 0.16666666666666666
            },
            {
              "pitch": 36,
              "velocity": 95,
              "position": 15,
              "duration": 0.4791666666666667
            },
            {
              "pitch": 37,
              "velocity": 76,
              "position": 15.5,
              "duration": 0.08333333333333333
            },
            {
              "pitch": 36,
              "velocity": 64,
              "position": 15.75,
              "duration": 0.0625
            },
            {
              "pitch": 37,
              "velocity": 95,
              "position": 15.75,
              "duration": 0.08333333333333333
            },
            {
              "pitch": 46,
              "velocity": 10,
              "position": 15.75,
              "duration": 0.14583333333333334
            },
            {
              "pitch": 42,
              "velocity": 80,
              "position": 15.75,
              "duration": 0.23958333333333334
            },
            {
              "pitch": 42,
              "velocity": 89,
              "position": 16,
              "duration": 0.1875
            },
            {
              "pitch": 42,
              "velocity": 46,
              "position": 16.25,
              "duration": 0.10416666666666667
            },
            {
              "pitch": 42,
              "velocity": 63,
              "position": 16.5,
              "duration": 0.125
            },
            {
              "pitch": 42,
              "velocity": 40,
              "position": 16.75,
              "duration": 0.125
            },
            {
              "pitch": 46,
              "velocity": 46,
              "position": 17.041666666666668,
              "duration": 1.2291666666666667
            },
            {
              "pitch": 36,
              "velocity": 89,
              "position": 16,
              "duration": 2.4375
            },
            {
              "pitch": 51,
              "velocity": 40,
              "position": 18.708333333333332,
              "duration": 0.08333333333333333
            },
            {
              "pitch": 51,
              "velocity": 68,
              "position": 18.833333333333332,
              "duration": 0.0625
            },
            {
              "pitch": 51,
              "velocity": 68,
              "position": 18.958333333333332,
              "duration": 0.041666666666666664
            },
            {
              "pitch": 51,
              "velocity": 86,
              "position": 19,
              "duration": 0.08333333333333333
            },
            {
              "pitch": 51,
              "velocity": 110,
              "position": 19.166666666666668,
              "duration": 0.08333333333333333
            },
            {
              "pitch": 49,
              "velocity": 56,
              "position": 19.958333333333332,
              "duration": 0.041666666666666664
            }
          ]
        },
        "10": {
          "ctab": {
            "srcChannel": 10,
            "name": "Std.Kit1",
            "accType": "SUBRHYTHM",
            "editable": false,
            "mutedNotes": [],
            "mutedChords": [],
            "autoStart": true,
            "sourceChordNote": 0,
            "sourceChordType": "Maj7",
            "ctb2Low": null,
            "ctb2Main": {
              "ntr": "ROOT_FIXED",
              "ntt": "BYPASS",
              "bassOn": false,
              "chordRootUpperLimit": 6,
              "noteLowLimit": 0,
              "noteHighLimit": 127,
              "rtr": "PITCH_SHIFT"
            },
            "ctb2High": null,
            "ctb2MiddleLowPitch": 0,
            "ctb2MiddleHighPitch": 127
          },
          "notes": [
            {
              "pitch": 70,
              "velocity": 70,
              "position": 0.5,
              "duration": 0.10416666666666667
            },
            {
              "pitch": 70,
              "velocity": 90,
              "position": 4,
              "duration": 0.14583333333333334
            },
            {
              "pitch": 70,
              "velocity": 40,
              "position": 4.25,
              "duration": 0.10416666666666667
            },
            {
              "pitch": 70,
              "velocity": 66,
              "position": 4.5,
              "duration": 0.125
            },
            {
              "pitch": 70,
              "velocity": 42,
              "position": 4.75,
              "duration": 0.10416666666666667
            },
            {
              "pitch": 70,
              "velocity": 71,
              "position": 5,
              "duration": 0.10416666666666667
            },
            {
              "pitch": 70,
              "velocity": 42,
              "position": 5.25,
              "duration": 0.125
            },
            {
              "pitch": 70,
              "velocity": 90,
              "position": 5.5,
              "duration": 0.10416666666666667
            },
            {
              "pitch": 70,
              "velocity": 37,
              "position": 5.75,
              "duration": 0.10416666666666667
            },
            {
              "pitch": 70,
              "velocity": 66,
              "position": 6,
              "duration": 0.125
            },
            {
              "pitch": 70,
              "velocity": 37,
              "position": 6.25,
              "duration": 0.14583333333333334
            },
            {
              "pitch": 70,
              "velocity": 98,
              "position": 6.5,
              "duration": 0.14583333333333334
            },
            {
              "pitch": 70,
              "velocity": 40,
              "position": 6.75,
              "duration": 0.10416666666666667
            },
            {
              "pitch": 70,
              "velocity": 51,
              "position": 7,
              "duration": 0.08333333333333333
            },
            {
              "pitch": 70,
              "velocity": 35,
              "position": 7.25,
              "duration": 0.125
            },
            {
              "pitch": 70,
              "velocity": 98,
              "position": 7.5,
              "duration": 0.125
            },
            {
              "pitch": 70,
              "velocity": 31,
              "position": 7.75,
              "duration": 0.10416666666666667
            },
            {
              "pitch": 70,
              "velocity": 98,
              "position": 8,
              "duration": 0.10416666666666667
            },
            {
              "pitch": 70,
              "velocity": 20,
              "position": 8.25,
              "duration": 0.125
            },
            {
              "pitch": 70,
              "velocity": 98,
              "position": 8.5,
              "duration": 0.125
            },
            {
              "pitch": 70,
              "velocity": 26,
              "position": 8.75,
              "duration": 0.0625
            },
            {
              "pitch": 70,
              "velocity": 58,
              "position": 9,
              "duration": 0.10416666666666667
            },
            {
              "pitch": 70,
              "velocity": 47,
              "position": 9.25,
              "duration": 0.10416666666666667
            },
            {
              "pitch": 70,
              "velocity": 107,
              "position": 9.5,
              "duration": 0.10416666666666667
            },
            {
              "pitch": 70,
              "velocity": 40,
              "position": 9.75,
              "duration": 0.08333333333333333
            },
            {
              "pitch": 70,
              "velocity": 107,
              "position": 10,
              "duration": 0.08333333333333333
            },
            {
              "pitch": 70,
              "velocity": 51,
              "position": 10.125,
              "duration": 0.0625
            },
            {
              "pitch": 70,
              "velocity": 77,
              "position": 10.25,
              "duration": 0.0625
            },
            {
              "pitch": 70,
              "velocity": 107,
              "position": 10.375,
              "duration": 0.08333333333333333
            },
            {
              "pitch": 70,
              "velocity": 127,
              "position": 10.5,
              "duration": 0.10416666666666667
            },
            {
              "pitch": 70,
              "velocity": 77,
              "position": 10.75,
              "duration": 0.0625
            },
            {
              "pitch": 70,
              "velocity": 107,
              "position": 11,
              "duration": 0.0625
            },
            {
              "pitch": 70,
              "velocity": 85,
              "position": 11.125,
              "duration": 0.0625
            },
            {
              "pitch": 70,
              "velocity": 77,
              "position": 11.25,
              "duration": 0.041666666666666664
            },
            {
              "pitch": 70,
              "velocity": 98,
              "position": 11.375,
              "duration": 0.08333333333333333
            },
            {
              "pitch": 70,
              "velocity": 42,
              "position": 11.5,
              "duration": 0.08333333333333333
            },
            {
              "pitch": 70,
              "velocity": 85,
              "position": 11.75,
              "duration": 0.0625
            },
            {
              "pitch": 70,
              "velocity": 98,
              "position": 12,
              "duration": 0.0625
            },
            {
              "pitch": 70,
              "velocity": 36,
              "position": 12.25,
              "duration": 0.0625
            },
            {
              "pitch": 70,
              "velocity": 107,
              "position": 12.5,
              "duration": 0.10416666666666667
            },
            {
              "pitch": 70,
              "velocity": 58,
              "position": 12.75,
              "duration": 0.10416666666666667
            },
            {
              "pitch": 70,
              "velocity": 85,
              "position": 13,
              "duration": 0.10416666666666667
            },
            {
              "pitch": 70,
              "velocity": 33,
              "position": 13.25,
              "duration": 0.125
            },
            {
              "pitch": 70,
              "velocity": 107,
              "position": 13.5,
              "duration": 0.10416666666666667
            },
            {
              "pitch": 70,
              "velocity": 28,
              "position": 13.75,
              "duration": 0.10416666666666667
            },
            {
              "pitch": 70,
              "velocity": 35,
              "position": 14.25,
              "duration": 0.10416666666666667
            },
            {
              "pitch": 70,
              "velocity": 107,
              "position": 14.5,
              "duration": 0.10416666666666667
            },
            {
              "pitch": 70,
              "velocity": 39,
              "position": 14.75,
              "duration": 0.10416666666666667
            },
            {
              "pitch": 70,
              "velocity": 77,
              "position": 15,
              "duration": 0.08333333333333333
            },
            {
              "pitch": 70,
              "velocity": 40,
              "position": 15.25,
              "duration": 0.08333333333333333
            },
            {
              "pitch": 70,
              "velocity": 98,
              "position": 15.5,
              "duration": 0.0625
            },
            {
              "pitch": 70,
              "velocity": 71,
              "position": 15.75,
              "duration": 0.08333333333333333
            },
            {
              "pitch": 70,
              "velocity": 98,
              "position": 16,
              "duration": 0.10416666666666667
            }
          ]
        },
        "12": {
          "ctab": {
            "srcChannel": 12,
            "name": "FngrBass",
            "accType": "BASS",
            "editable": false,
            "mutedNotes": [],
            "mutedChords": [],
            "autoStart": false,
            "sourceChordNote": 0,
            "sourceChordType": "Maj7",
            "ctb2Low": null,
            "ctb2Main": {
              "ntr": "ROOT_TRANSPOSITION",
              "ntt": "MELODY",
              "bassOn": true,
              "chordRootUpperLimit": 3,
              "noteLowLimit": 28,
              "noteHighLimit": 54,
              "rtr": "PITCH_SHIFT_TO_ROOT"
            },
            "ctb2High": null,
            "ctb2MiddleLowPitch": 0,
            "ctb2MiddleHighPitch": 127
          },
          "notes": [
            {
              "pitch": 41,
              "velocity": 45,
              "position": 4,
              "duration": 0.4583333333333333
            },
            {
              "pitch": 41,
              "velocity": 21,
              "position": 4.75,
              "duration": 0.08333333333333333
            },
            {
              "pitch": 36,
              "velocity": 34,
              "position": 5,
              "duration": 0.4583333333333333
            },
            {
              "pitch": 36,
              "velocity": 44,
              "position": 5.75,
              "duration": 0.10416666666666667
            },
            {
              "pitch": 34,
              "velocity": 68,
              "position": 6,
              "duration": 0.5
            },
            {
              "pitch": 34,
              "velocity": 63,
              "position": 6.75,
              "duration": 0.08333333333333333
            },
            {
              "pitch": 41,
              "velocity": 64,
              "position": 7,
              "duration": 0.625
            },
            {
              "pitch": 34,
              "velocity": 50,
              "position": 7.75,
              "duration": 0.1875
            },
            {
              "pitch": 39,
              "velocity": 58,
              "position": 8,
              "duration": 0.4375
            },
            {
              "pitch": 39,
              "velocity": 79,
              "position": 8.75,
              "duration": 0.08333333333333333
            },
            {
              "pitch": 34,
              "velocity": 64,
              "position": 9,
              "duration": 0.625
            },
            {
              "pitch": 39,
              "velocity": 48,
              "position": 9.75,
              "duration": 0.125
            },
            {
              "pitch": 32,
              "velocity": 68,
              "position": 10,
              "duration": 0.5208333333333334
            },
            {
              "pitch": 32,
              "velocity": 53,
              "position": 10.75,
              "duration": 0.10416666666666667
            },
            {
              "pitch": 39,
              "velocity": 68,
              "position": 11,
              "duration": 0.5625
            },
            {
              "pitch": 37,
              "velocity": 64,
              "position": 11.75,
              "duration": 0.1875
            },
            {
              "pitch": 38,
              "velocity": 38,
              "position": 12,
              "duration": 0.4791666666666667
            },
            {
              "pitch": 38,
              "velocity": 70,
              "position": 12.75,
              "duration": 0.08333333333333333
            },
            {
              "pitch": 38,
              "velocity": 64,
              "position": 13,
              "duration": 0.6666666666666666
            },
            {
              "pitch": 32,
              "velocity": 45,
              "position": 13.75,
              "duration": 0.14583333333333334
            },
            {
              "pitch": 31,
              "velocity": 79,
              "position": 14,
              "duration": 1.0625
            },
            {
              "pitch": 38,
              "velocity": 73,
              "position": 15.25,
              "duration": 0.08333333333333333
            },
            {
              "pitch": 36,
              "velocity": 79,
              "position": 15.75,
              "duration": 2.1041666666666665
            },
            {
              "pitch": 31,
              "velocity": 45,
              "position": 18,
              "duration": 1.8541666666666667
            }
          ]
        },
        "14": {
          "ctab": {
            "srcChannel": 14,
            "name": "Alto Sax",
            "accType": "CHORD1",
            "editable": false,
            "mutedNotes": [],
            "mutedChords": [],
            "autoStart": false,
            "sourceChordNote": 0,
            "sourceChordType": "Maj7",
            "ctb2Low": null,
            "ctb2Main": {
              "ntr": "ROOT_TRANSPOSITION",
              "ntt": "CHORD",
              "bassOn": false,
              "chordRootUpperLimit": 6,
              "noteLowLimit": 0,
              "noteHighLimit": 79,
              "rtr": "PITCH_SHIFT"
            },
            "ctb2High": null,
            "ctb2MiddleLowPitch": 0,
            "ctb2MiddleHighPitch": 127
          },
          "notes": [
            {
              "pitch": 67,
              "velocity": 96,
              "position": 2.4166666666666665,
              "duration": 0.20833333333333334
            },
            {
              "pitch": 67,
              "velocity": 52,
              "position": 2.75,
              "duration": 0.20833333333333334
            },
            {
              "pitch": 67,
              "velocity": 90,
              "position": 3.2083333333333335,
              "duration": 0.16666666666666666
            },
            {
              "pitch": 67,
              "velocity": 82,
              "position": 3.7083333333333335,
              "duration": 0.5625
            },
            {
              "pitch": 65,
              "velocity": 63,
              "position": 4.291666666666667,
              "duration": 0.2916666666666667
            },
            {
              "pitch": 67,
              "velocity": 101,
              "position": 4.75,
              "duration": 0.22916666666666666
            },
            {
              "pitch": 68,
              "velocity": 90,
              "position": 5.25,
              "duration": 0.3958333333333333
            },
            {
              "pitch": 65,
              "velocity": 96,
              "position": 6.5,
              "duration": 0.20833333333333334
            },
            {
              "pitch": 65,
              "velocity": 35,
              "position": 6.75,
              "duration": 0.1875
            },
            {
              "pitch": 65,
              "velocity": 127,
              "position": 7.25,
              "duration": 0.16666666666666666
            },
            {
              "pitch": 65,
              "velocity": 116,
              "position": 7.791666666666667,
              "duration": 0.4583333333333333
            },
            {
              "pitch": 63,
              "velocity": 80,
              "position": 8.291666666666666,
              "duration": 0.22916666666666666
            },
            {
              "pitch": 65,
              "velocity": 73,
              "position": 8.708333333333334,
              "duration": 0.20833333333333334
            },
            {
              "pitch": 66,
              "velocity": 90,
              "position": 9.083333333333334,
              "duration": 0.08333333333333333
            },
            {
              "pitch": 67,
              "velocity": 96,
              "position": 9.166666666666666,
              "duration": 0.5
            },
            {
              "pitch": 63,
              "velocity": 88,
              "position": 10.5,
              "duration": 0.1875
            },
            {
              "pitch": 63,
              "velocity": 31,
              "position": 10.75,
              "duration": 0.2916666666666667
            },
            {
              "pitch": 63,
              "velocity": 109,
              "position": 11.291666666666666,
              "duration": 0.22916666666666666
            },
            {
              "pitch": 63,
              "velocity": 101,
              "position": 11.791666666666666,
              "duration": 0.5
            },
            {
              "pitch": 62,
              "velocity": 65,
              "position": 12.291666666666666,
              "duration": 0.625
            },
            {
              "pitch": 61,
              "velocity": 93,
              "position": 12.958333333333334,
              "duration": 0.5
            },
            {
              "pitch": 62,
              "velocity": 58,
              "position": 13.5,
              "duration": 0.4166666666666667
            },
            {
              "pitch": 65,
              "velocity": 114,
              "position": 14.083333333333334,
              "duration": 1.0208333333333333
            },
            {
              "pitch": 63,
              "velocity": 103,
              "position": 15.291666666666666,
              "duration": 0.20833333333333334
            },
            {
              "pitch": 60,
              "velocity": 94,
              "position": 15.833333333333334,
              "duration": 2.3333333333333335
            }
          ]
        }
      }
    },
    "Ending_A": {
      "type": "Ending_A",
      "sizeInBeats": 16,
      "channels": {
        "0": {
          "ctab": {
            "srcChannel": 0,
            "name": "NylonGtr",
            "accType": "CHORD2",
            "editable": false,
            "mutedNotes": [],
            "mutedChords": [],
            "autoStart": false,
            "sourceChordNote": 0,
            "sourceChordType": "Maj7",
            "ctb2Low": null,
            "ctb2Main": {
              "ntr": "ROOT_TRANSPOSITION",
              "ntt": "CHORD",
              "bassOn": false,
              "chordRootUpperLimit": 6,
              "noteLowLimit": 0,
              "noteHighLimit": 127,
              "rtr": "PITCH_SHIFT"
            },
            "ctb2High": null,
            "ctb2MiddleLowPitch": 0,
            "ctb2MiddleHighPitch": 127
          },
          "notes": [
            {
              "pitch": 57,
              "velocity": 74,
              "position": 0.3333333333333333,
              "duration": 0.5416666666666666
            },
            {
              "pitch": 60,
              "velocity": 81,
              "position": 0.3333333333333333,
              "duration": 0.5416666666666666
            },
            {
              "pitch": 66,
              "velocity": 93,
              "position": 0.3333333333333333,
              "duration": 0.5833333333333334
            },
            {
              "pitch": 64,
              "velocity": 90,
              "position": 0.3333333333333333,
              "duration": 0.6041666666666666
            },
            {
              "pitch": 64,
              "velocity": 60,
              "position": 1.125,
              "duration": 0.10416666666666667
            },
            {
              "pitch": 57,
              "velocity": 57,
              "position": 1.125,
              "duration": 0.10416666666666667
            },
            {
              "pitch": 66,
              "velocity": 58,
              "position": 1.125,
              "duration": 0.125
            },
            {
              "pitch": 60,
              "velocity": 63,
              "position": 1.125,
              "duration": 0.125
            },
            {
              "pitch": 64,
              "velocity": 76,
              "position": 1.5416666666666667,
              "duration": 0.125
            },
            {
              "pitch": 66,
              "velocity": 81,
              "position": 1.5416666666666667,
              "duration": 0.14583333333333334
            },
            {
              "pitch": 60,
              "velocity": 55,
              "position": 1.5833333333333333,
              "duration": 0.10416666666666667
            },
            {
              "pitch": 57,
              "velocity": 67,
              "position": 1.5833333333333333,
              "duration": 0.16666666666666666
            },
            {
              "pitch": 60,
              "velocity": 50,
              "position": 2.0833333333333335,
              "duration": 0.08333333333333333
            },
            {
              "pitch": 62,
              "velocity": 73,
              "position": 2.0833333333333335,
              "duration": 0.08333333333333333
            },
            {
              "pitch": 67,
              "velocity": 67,
              "position": 2.0833333333333335,
              "duration": 0.10416666666666667
            },
            {
              "pitch": 56,
              "velocity": 50,
              "position": 2.125,
              "duration": 0.08333333333333333
            },
            {
              "pitch": 62,
              "velocity": 92,
              "position": 2.5416666666666665,
              "duration": 0.5
            },
            {
              "pitch": 56,
              "velocity": 69,
              "position": 2.5416666666666665,
              "duration": 0.6041666666666666
            },
            {
              "pitch": 67,
              "velocity": 84,
              "position": 2.5833333333333335,
              "duration": 0.5625
            },
            {
              "pitch": 60,
              "velocity": 69,
              "position": 2.5416666666666665,
              "duration": 0.6458333333333334
            },
            {
              "pitch": 67,
              "velocity": 71,
              "position": 3.3333333333333335,
              "duration": 0.16666666666666666
            },
            {
              "pitch": 62,
              "velocity": 72,
              "position": 3.3333333333333335,
              "duration": 0.16666666666666666
            },
            {
              "pitch": 56,
              "velocity": 70,
              "position": 3.375,
              "duration": 0.16666666666666666
            },
            {
              "pitch": 60,
              "velocity": 63,
              "position": 3.375,
              "duration": 0.16666666666666666
            },
            {
              "pitch": 60,
              "velocity": 79,
              "position": 3.7916666666666665,
              "duration": 0.16666666666666666
            },
            {
              "pitch": 64,
              "velocity": 90,
              "position": 4.333333333333333,
              "duration": 0.5208333333333334
            },
            {
              "pitch": 67,
              "velocity": 85,
              "position": 4.333333333333333,
              "duration": 0.5416666666666666
            },
            {
              "pitch": 72,
              "velocity": 81,
              "position": 4.333333333333333,
              "duration": 0.5625
            },
            {
              "pitch": 72,
              "velocity": 50,
              "position": 5.083333333333333,
              "duration": 0.10416666666666667
            },
            {
              "pitch": 64,
              "velocity": 52,
              "position": 5.083333333333333,
              "duration": 0.125
            },
            {
              "pitch": 67,
              "velocity": 64,
              "position": 5.083333333333333,
              "duration": 0.14583333333333334
            },
            {
              "pitch": 64,
              "velocity": 81,
              "position": 5.5,
              "duration": 0.14583333333333334
            },
            {
              "pitch": 72,
              "velocity": 63,
              "position": 5.541666666666667,
              "duration": 0.10416666666666667
            },
            {
              "pitch": 67,
              "velocity": 84,
              "position": 5.541666666666667,
              "duration": 0.125
            },
            {
              "pitch": 66,
              "velocity": 81,
              "position": 6.041666666666667,
              "duration": 0.10416666666666667
            },
            {
              "pitch": 72,
              "velocity": 69,
              "position": 6.041666666666667,
              "duration": 0.10416666666666667
            },
            {
              "pitch": 63,
              "velocity": 65,
              "position": 6,
              "duration": 0.16666666666666666
            },
            {
              "pitch": 63,
              "velocity": 76,
              "position": 6.5,
              "duration": 0.22916666666666666
            },
            {
              "pitch": 66,
              "velocity": 93,
              "position": 6.541666666666667,
              "duration": 0.20833333333333334
            },
            {
              "pitch": 72,
              "velocity": 79,
              "position": 6.541666666666667,
              "duration": 0.4583333333333333
            },
            {
              "pitch": 69,
              "velocity": 95,
              "position": 6.541666666666667,
              "duration": 0.4791666666666667
            },
            {
              "pitch": 63,
              "velocity": 57,
              "position": 7.083333333333333,
              "duration": 0.14583333333333334
            },
            {
              "pitch": 66,
              "velocity": 76,
              "position": 7.333333333333333,
              "duration": 0.16666666666666666
            },
            {
              "pitch": 69,
              "velocity": 78,
              "position": 7.333333333333333,
              "duration": 0.16666666666666666
            },
            {
              "pitch": 72,
              "velocity": 68,
              "position": 7.333333333333333,
              "duration": 0.1875
            },
            {
              "pitch": 60,
              "velocity": 79,
              "position": 7.833333333333333,
              "duration": 0.125
            },
            {
              "pitch": 60,
              "velocity": 63,
              "position": 8.333333333333334,
              "duration": 0.125
            },
            {
              "pitch": 64,
              "velocity": 60,
              "position": 8.333333333333334,
              "duration": 0.14583333333333334
            },
            {
              "pitch": 65,
              "velocity": 73,
              "position": 8.333333333333334,
              "duration": 0.14583333333333334
            },
            {
              "pitch": 69,
              "velocity": 70,
              "position": 8.333333333333334,
              "duration": 0.20833333333333334
            },
            {
              "pitch": 69,
              "velocity": 52,
              "position": 8.833333333333334,
              "duration": 0.0625
            },
            {
              "pitch": 64,
              "velocity": 59,
              "position": 8.75,
              "duration": 0.16666666666666666
            },
            {
              "pitch": 65,
              "velocity": 72,
              "position": 8.791666666666666,
              "duration": 0.125
            },
            {
              "pitch": 60,
              "velocity": 48,
              "position": 8.833333333333334,
              "duration": 0.10416666666666667
            },
            {
              "pitch": 66,
              "velocity": 69,
              "position": 9.083333333333334,
              "duration": 0.08333333333333333
            },
            {
              "pitch": 64,
              "velocity": 76,
              "position": 9.083333333333334,
              "duration": 0.1875
            },
            {
              "pitch": 60,
              "velocity": 76,
              "position": 9.083333333333334,
              "duration": 0.1875
            },
            {
              "pitch": 65,
              "velocity": 84,
              "position": 9.083333333333334,
              "duration": 0.20833333333333334
            },
            {
              "pitch": 69,
              "velocity": 78,
              "position": 9.083333333333334,
              "duration": 0.22916666666666666
            },
            {
              "pitch": 66,
              "velocity": 55,
              "position": 9.541666666666666,
              "duration": 0.14583333333333334
            },
            {
              "pitch": 60,
              "velocity": 66,
              "position": 9.541666666666666,
              "duration": 0.1875
            },
            {
              "pitch": 69,
              "velocity": 66,
              "position": 9.541666666666666,
              "duration": 0.20833333333333334
            },
            {
              "pitch": 65,
              "velocity": 68,
              "position": 9.541666666666666,
              "duration": 0.20833333333333334
            },
            {
              "pitch": 64,
              "velocity": 60,
              "position": 9.541666666666666,
              "duration": 0.22916666666666666
            },
            {
              "pitch": 67,
              "velocity": 73,
              "position": 10.083333333333334,
              "duration": 0.0625
            },
            {
              "pitch": 60,
              "velocity": 81,
              "position": 10.041666666666666,
              "duration": 0.14583333333333334
            },
            {
              "pitch": 63,
              "velocity": 94,
              "position": 10.041666666666666,
              "duration": 0.14583333333333334
            },
            {
              "pitch": 65,
              "velocity": 74,
              "position": 10.041666666666666,
              "duration": 0.1875
            },
            {
              "pitch": 68,
              "velocity": 82,
              "position": 10.041666666666666,
              "duration": 0.1875
            },
            {
              "pitch": 63,
              "velocity": 94,
              "position": 11.041666666666666,
              "duration": 0.16666666666666666
            },
            {
              "pitch": 65,
              "velocity": 98,
              "position": 11.041666666666666,
              "duration": 0.1875
            },
            {
              "pitch": 60,
              "velocity": 84,
              "position": 11.083333333333334,
              "duration": 0.14583333333333334
            },
            {
              "pitch": 68,
              "velocity": 88,
              "position": 11.041666666666666,
              "duration": 0.22916666666666666
            },
            {
              "pitch": 59,
              "velocity": 95,
              "position": 11.791666666666666,
              "duration": 0.6458333333333334
            },
            {
              "pitch": 62,
              "velocity": 85,
              "position": 11.75,
              "duration": 0.7291666666666666
            },
            {
              "pitch": 64,
              "velocity": 81,
              "position": 11.791666666666666,
              "duration": 0.7291666666666666
            },
            {
              "pitch": 67,
              "velocity": 90,
              "position": 11.791666666666666,
              "duration": 0.7708333333333334
            }
          ]
        },
        "2": {
          "ctab": {
            "srcChannel": 2,
            "name": "Strings1",
            "accType": "PAD",
            "editable": false,
            "mutedNotes": [],
            "mutedChords": [],
            "autoStart": false,
            "sourceChordNote": 0,
            "sourceChordType": "Maj7",
            "ctb2Low": null,
            "ctb2Main": {
              "ntr": "ROOT_TRANSPOSITION",
              "ntt": "CHORD",
              "bassOn": false,
              "chordRootUpperLimit": 6,
              "noteLowLimit": 0,
              "noteHighLimit": 127,
              "rtr": "PITCH_SHIFT"
            },
            "ctb2High": null,
            "ctb2MiddleLowPitch": 0,
            "ctb2MiddleHighPitch": 127
          },
          "notes": [
            {
              "pitch": 51,
              "velocity": 49,
              "position": 0,
              "duration": 2
            },
            {
              "pitch": 54,
              "velocity": 63,
              "position": 0,
              "duration": 2.1041666666666665
            },
            {
              "pitch": 61,
              "velocity": 84,
              "position": 0,
              "duration": 2.2916666666666665
            },
            {
              "pitch": 62,
              "velocity": 91,
              "position": 1.9583333333333333,
              "duration": 1.5208333333333333
            },
            {
              "pitch": 53,
              "velocity": 66,
              "position": 2,
              "duration": 1.5208333333333333
            },
            {
              "pitch": 56,
              "velocity": 74,
              "position": 2,
              "duration": 1.5208333333333333
            },
            {
              "pitch": 67,
              "velocity": 110,
              "position": 1.9583333333333333,
              "duration": 1.6041666666666667
            },
            {
              "pitch": 64,
              "velocity": 84,
              "position": 3.625,
              "duration": 2.1666666666666665
            },
            {
              "pitch": 52,
              "velocity": 67,
              "position": 3.5833333333333335,
              "duration": 2.3125
            },
            {
              "pitch": 60,
              "velocity": 80,
              "position": 3.625,
              "duration": 2.2708333333333335
            },
            {
              "pitch": 67,
              "velocity": 65,
              "position": 3.5833333333333335,
              "duration": 2.3333333333333335
            },
            {
              "pitch": 60,
              "velocity": 54,
              "position": 5.958333333333333,
              "duration": 1.5
            },
            {
              "pitch": 69,
              "velocity": 69,
              "position": 5.916666666666667,
              "duration": 1.625
            },
            {
              "pitch": 66,
              "velocity": 91,
              "position": 6,
              "duration": 1.5833333333333333
            },
            {
              "pitch": 51,
              "velocity": 74,
              "position": 5.958333333333333,
              "duration": 1.7083333333333333
            },
            {
              "pitch": 50,
              "velocity": 91,
              "position": 7.666666666666667,
              "duration": 1.7708333333333333
            },
            {
              "pitch": 60,
              "velocity": 87,
              "position": 7.666666666666667,
              "duration": 1.9583333333333333
            },
            {
              "pitch": 65,
              "velocity": 114,
              "position": 7.666666666666667,
              "duration": 2.0833333333333335
            },
            {
              "pitch": 69,
              "velocity": 88,
              "position": 7.666666666666667,
              "duration": 2.0833333333333335
            },
            {
              "pitch": 67,
              "velocity": 88,
              "position": 10,
              "duration": 0.0625
            },
            {
              "pitch": 65,
              "velocity": 123,
              "position": 9.958333333333334,
              "duration": 0.1875
            },
            {
              "pitch": 68,
              "velocity": 125,
              "position": 9.958333333333334,
              "duration": 0.22916666666666666
            },
            {
              "pitch": 49,
              "velocity": 101,
              "position": 9.958333333333334,
              "duration": 0.25
            },
            {
              "pitch": 60,
              "velocity": 100,
              "position": 9.958333333333334,
              "duration": 0.2708333333333333
            },
            {
              "pitch": 65,
              "velocity": 123,
              "position": 11,
              "duration": 0.3125
            },
            {
              "pitch": 68,
              "velocity": 114,
              "position": 11.041666666666666,
              "duration": 0.3125
            },
            {
              "pitch": 60,
              "velocity": 88,
              "position": 11.083333333333334,
              "duration": 0.2708333333333333
            },
            {
              "pitch": 49,
              "velocity": 84,
              "position": 11.041666666666666,
              "duration": 0.4375
            },
            {
              "pitch": 64,
              "velocity": 127,
              "position": 11.75,
              "duration": 0.20833333333333334
            },
            {
              "pitch": 67,
              "velocity": 123,
              "position": 11.75,
              "duration": 0.20833333333333334
            },
            {
              "pitch": 59,
              "velocity": 112,
              "position": 11.791666666666666,
              "duration": 0.16666666666666666
            },
            {
              "pitch": 48,
              "velocity": 74,
              "position": 11.791666666666666,
              "duration": 0.1875
            }
          ]
        },
        "8": {
          "ctab": {
            "srcChannel": 8,
            "name": "Std.Kit1",
            "accType": "RHYTHM",
            "editable": false,
            "mutedNotes": [],
            "mutedChords": [],
            "autoStart": true,
            "sourceChordNote": 0,
            "sourceChordType": "Maj7",
            "ctb2Low": null,
            "ctb2Main": {
              "ntr": "ROOT_FIXED",
              "ntt": "BYPASS",
              "bassOn": false,
              "chordRootUpperLimit": 6,
              "noteLowLimit": 0,
              "noteHighLimit": 127,
              "rtr": "PITCH_SHIFT"
            },
            "ctb2High": null,
            "ctb2MiddleLowPitch": 0,
            "ctb2MiddleHighPitch": 127
          },
          "notes": [
            {
              "pitch": 42,
              "velocity": 56,
              "position": 0.041666666666666664,
              "duration": 0.041666666666666664
            },
            {
              "pitch": 41,
              "velocity": 36,
              "position": 0.041666666666666664,
              "duration": 0.2708333333333333
            },
            {
              "pitch": 36,
              "velocity": 64,
              "position": 0.041666666666666664,
              "duration": 0.3125
            },
            {
              "pitch": 42,
              "velocity": 73,
              "position": 0.25,
              "duration": 0.10416666666666667
            },
            {
              "pitch": 44,
              "velocity": 68,
              "position": 0.25,
              "duration": 0.10416666666666667
            },
            {
              "pitch": 42,
              "velocity": 99,
              "position": 0.5,
              "duration": 0.125
            },
            {
              "pitch": 42,
              "velocity": 81,
              "position": 0.75,
              "duration": 0.08333333333333333
            },
            {
              "pitch": 44,
              "velocity": 61,
              "position": 1,
              "duration": 0.14583333333333334
            },
            {
              "pitch": 42,
              "velocity": 81,
              "position": 1.25,
              "duration": 0.08333333333333333
            },
            {
              "pitch": 44,
              "velocity": 59,
              "position": 1.5,
              "duration": 0.125
            },
            {
              "pitch": 42,
              "velocity": 105,
              "position": 1.5,
              "duration": 0.14583333333333334
            },
            {
              "pitch": 36,
              "velocity": 95,
              "position": 1,
              "duration": 0.6666666666666666
            },
            {
              "pitch": 42,
              "velocity": 70,
              "position": 1.75,
              "duration": 0.10416666666666667
            },
            {
              "pitch": 42,
              "velocity": 46,
              "position": 2,
              "duration": 0.0625
            },
            {
              "pitch": 44,
              "velocity": 55,
              "position": 2,
              "duration": 0.10416666666666667
            },
            {
              "pitch": 36,
              "velocity": 66,
              "position": 2,
              "duration": 0.3333333333333333
            },
            {
              "pitch": 42,
              "velocity": 88,
              "position": 2.25,
              "duration": 0.10416666666666667
            },
            {
              "pitch": 41,
              "velocity": 30,
              "position": 2.0416666666666665,
              "duration": 0.3333333333333333
            },
            {
              "pitch": 44,
              "velocity": 76,
              "position": 2.5,
              "duration": 0.14583333333333334
            },
            {
              "pitch": 42,
              "velocity": 78,
              "position": 2.75,
              "duration": 0.0625
            },
            {
              "pitch": 42,
              "velocity": 64,
              "position": 3,
              "duration": 0.10416666666666667
            },
            {
              "pitch": 44,
              "velocity": 50,
              "position": 3.25,
              "duration": 0.14583333333333334
            },
            {
              "pitch": 42,
              "velocity": 108,
              "position": 3.25,
              "duration": 0.14583333333333334
            },
            {
              "pitch": 36,
              "velocity": 95,
              "position": 3,
              "duration": 0.4583333333333333
            },
            {
              "pitch": 44,
              "velocity": 45,
              "position": 3.5,
              "duration": 0.10416666666666667
            },
            {
              "pitch": 42,
              "velocity": 88,
              "position": 3.75,
              "duration": 0.10416666666666667
            },
            {
              "pitch": 44,
              "velocity": 53,
              "position": 3.7916666666666665,
              "duration": 0.125
            },
            {
              "pitch": 42,
              "velocity": 37,
              "position": 4,
              "duration": 0.0625
            },
            {
              "pitch": 41,
              "velocity": 57,
              "position": 4,
              "duration": 0.3541666666666667
            },
            {
              "pitch": 36,
              "velocity": 76,
              "position": 4,
              "duration": 0.3541666666666667
            },
            {
              "pitch": 42,
              "velocity": 85,
              "position": 4.25,
              "duration": 0.10416666666666667
            },
            {
              "pitch": 44,
              "velocity": 71,
              "position": 4.25,
              "duration": 0.125
            },
            {
              "pitch": 44,
              "velocity": 55,
              "position": 4.5,
              "duration": 0.14583333333333334
            },
            {
              "pitch": 42,
              "velocity": 81,
              "position": 4.75,
              "duration": 0.0625
            },
            {
              "pitch": 44,
              "velocity": 55,
              "position": 5,
              "duration": 0.16666666666666666
            },
            {
              "pitch": 36,
              "velocity": 95,
              "position": 5,
              "duration": 0.2708333333333333
            },
            {
              "pitch": 42,
              "velocity": 85,
              "position": 5.25,
              "duration": 0.0625
            },
            {
              "pitch": 44,
              "velocity": 52,
              "position": 5.5,
              "duration": 0.041666666666666664
            },
            {
              "pitch": 44,
              "velocity": 49,
              "position": 5.541666666666667,
              "duration": 0.10416666666666667
            },
            {
              "pitch": 42,
              "velocity": 76,
              "position": 5.75,
              "duration": 0.0625
            },
            {
              "pitch": 42,
              "velocity": 66,
              "position": 6,
              "duration": 0.08333333333333333
            },
            {
              "pitch": 44,
              "velocity": 50,
              "position": 6,
              "duration": 0.10416666666666667
            },
            {
              "pitch": 42,
              "velocity": 88,
              "position": 6.25,
              "duration": 0.08333333333333333
            },
            {
              "pitch": 36,
              "velocity": 83,
              "position": 6,
              "duration": 0.4166666666666667
            },
            {
              "pitch": 41,
              "velocity": 45,
              "position": 6,
              "duration": 0.4375
            },
            {
              "pitch": 44,
              "velocity": 67,
              "position": 6.5,
              "duration": 0.14583333333333334
            },
            {
              "pitch": 42,
              "velocity": 81,
              "position": 6.75,
              "duration": 0.0625
            },
            {
              "pitch": 42,
              "velocity": 50,
              "position": 7,
              "duration": 0.0625
            },
            {
              "pitch": 42,
              "velocity": 105,
              "position": 7.25,
              "duration": 0.10416666666666667
            },
            {
              "pitch": 44,
              "velocity": 59,
              "position": 7.25,
              "duration": 0.14583333333333334
            },
            {
              "pitch": 36,
              "velocity": 95,
              "position": 7,
              "duration": 0.4375
            },
            {
              "pitch": 44,
              "velocity": 28,
              "position": 7.5,
              "duration": 0.0625
            },
            {
              "pitch": 42,
              "velocity": 95,
              "position": 7.75,
              "duration": 0.10416666666666667
            },
            {
              "pitch": 44,
              "velocity": 63,
              "position": 7.75,
              "duration": 0.14583333333333334
            },
            {
              "pitch": 36,
              "velocity": 95,
              "position": 8,
              "duration": 0.14583333333333334
            },
            {
              "pitch": 38,
              "velocity": 66,
              "position": 8.25,
              "duration": 0.125
            },
            {
              "pitch": 38,
              "velocity": 41,
              "position": 8.75,
              "duration": 0.08333333333333333
            },
            {
              "pitch": 38,
              "velocity": 56,
              "position": 9,
              "duration": 0.14583333333333334
            },
            {
              "pitch": 38,
              "velocity": 56,
              "position": 9.5,
              "duration": 0.125
            },
            {
              "pitch": 38,
              "velocity": 66,
              "position": 10.041666666666666,
              "duration": 0.14583333333333334
            },
            {
              "pitch": 48,
              "velocity": 61,
              "position": 10.041666666666666,
              "duration": 0.14583333333333334
            },
            {
              "pitch": 36,
              "velocity": 95,
              "position": 10,
              "duration": 0.20833333333333334
            },
            {
              "pitch": 41,
              "velocity": 74,
              "position": 10.291666666666666,
              "duration": 0.14583333333333334
            },
            {
              "pitch": 45,
              "velocity": 87,
              "position": 10.541666666666666,
              "duration": 0.0625
            },
            {
              "pitch": 41,
              "velocity": 74,
              "position": 10.75,
              "duration": 0.10416666666666667
            },
            {
              "pitch": 36,
              "velocity": 95,
              "position": 11.041666666666666,
              "duration": 0.4583333333333333
            },
            {
              "pitch": 38,
              "velocity": 66,
              "position": 11.083333333333334,
              "duration": 0.4791666666666667
            },
            {
              "pitch": 46,
              "velocity": 111,
              "position": 11.125,
              "duration": 0.7916666666666666
            },
            {
              "pitch": 35,
              "velocity": 76,
              "position": 11.833333333333334,
              "duration": 0.10416666666666667
            },
            {
              "pitch": 38,
              "velocity": 66,
              "position": 11.791666666666666,
              "duration": 0.1875
            },
            {
              "pitch": 36,
              "velocity": 95,
              "position": 11.791666666666666,
              "duration": 0.1875
            },
            {
              "pitch": 42,
              "velocity": 118,
              "position": 11.875,
              "duration": 0.1875
            }
          ]
        },
        "10": {
          "ctab": {
            "srcChannel": 10,
            "name": "Std.Kit1",
            "accType": "SUBRHYTHM",
            "editable": false,
            "mutedNotes": [],
            "mutedChords": [],
            "autoStart": true,
            "sourceChordNote": 0,
            "sourceChordType": "Maj7",
            "ctb2Low": null,
            "ctb2Main": {
              "ntr": "ROOT_FIXED",
              "ntt": "BYPASS",
              "bassOn": false,
              "chordRootUpperLimit": 6,
              "noteLowLimit": 0,
              "noteHighLimit": 127,
              "rtr": "PITCH_SHIFT"
            },
            "ctb2High": null,
            "ctb2MiddleLowPitch": 0,
            "ctb2MiddleHighPitch": 127
          },
          "notes": [
            {
              "pitch": 69,
              "velocity": 127,
              "position": 0.041666666666666664,
              "duration": 0.10416666666666667
            },
            {
              "pitch": 69,
              "velocity": 45,
              "position": 0.25,
              "duration": 0.125
            },
            {
              "pitch": 62,
              "velocity": 86,
              "position": 0.041666666666666664,
              "duration": 0.3541666666666667
            },
            {
              "pitch": 69,
              "velocity": 32,
              "position": 0.5,
              "duration": 0.10416666666666667
            },
            {
              "pitch": 62,
              "velocity": 86,
              "position": 0.5,
              "duration": 0.125
            },
            {
              "pitch": 69,
              "velocity": 30,
              "position": 0.75,
              "duration": 0.14583333333333334
            },
            {
              "pitch": 62,
              "velocity": 87,
              "position": 0.75,
              "duration": 0.22916666666666666
            },
            {
              "pitch": 62,
              "velocity": 96,
              "position": 1,
              "duration": 0.125
            },
            {
              "pitch": 69,
              "velocity": 97,
              "position": 1,
              "duration": 0.1875
            },
            {
              "pitch": 69,
              "velocity": 15,
              "position": 1.25,
              "duration": 0.14583333333333334
            },
            {
              "pitch": 62,
              "velocity": 78,
              "position": 1.5,
              "duration": 0.020833333333333332
            },
            {
              "pitch": 69,
              "velocity": 33,
              "position": 1.5,
              "duration": 0.125
            },
            {
              "pitch": 62,
              "velocity": 87,
              "position": 1.5416666666666667,
              "duration": 0.20833333333333334
            },
            {
              "pitch": 69,
              "velocity": 16,
              "position": 1.75,
              "duration": 0.125
            },
            {
              "pitch": 62,
              "velocity": 86,
              "position": 2,
              "duration": 0.020833333333333332
            },
            {
              "pitch": 69,
              "velocity": 92,
              "position": 2.0416666666666665,
              "duration": 0.14583333333333334
            },
            {
              "pitch": 69,
              "velocity": 16,
              "position": 2.25,
              "duration": 0.125
            },
            {
              "pitch": 62,
              "velocity": 99,
              "position": 2.0416666666666665,
              "duration": 0.375
            },
            {
              "pitch": 69,
              "velocity": 26,
              "position": 2.5,
              "duration": 0.08333333333333333
            },
            {
              "pitch": 69,
              "velocity": 47,
              "position": 2.75,
              "duration": 0.125
            },
            {
              "pitch": 62,
              "velocity": 92,
              "position": 2.75,
              "duration": 0.1875
            },
            {
              "pitch": 69,
              "velocity": 73,
              "position": 3,
              "duration": 0.14583333333333334
            },
            {
              "pitch": 62,
              "velocity": 99,
              "position": 3,
              "duration": 0.16666666666666666
            },
            {
              "pitch": 62,
              "velocity": 99,
              "position": 3.25,
              "duration": 0.020833333333333332
            },
            {
              "pitch": 69,
              "velocity": 15,
              "position": 3.25,
              "duration": 0.125
            },
            {
              "pitch": 62,
              "velocity": 87,
              "position": 3.2916666666666665,
              "duration": 0.16666666666666666
            },
            {
              "pitch": 69,
              "velocity": 33,
              "position": 3.5,
              "duration": 0.10416666666666667
            },
            {
              "pitch": 62,
              "velocity": 86,
              "position": 3.75,
              "duration": 0.005208333333333333
            },
            {
              "pitch": 69,
              "velocity": 22,
              "position": 3.75,
              "duration": 0.08333333333333333
            },
            {
              "pitch": 62,
              "velocity": 96,
              "position": 3.7916666666666665,
              "duration": 0.125
            },
            {
              "pitch": 69,
              "velocity": 110,
              "position": 4,
              "duration": 0.16666666666666666
            },
            {
              "pitch": 69,
              "velocity": 35,
              "position": 4.25,
              "duration": 0.10416666666666667
            },
            {
              "pitch": 62,
              "velocity": 85,
              "position": 4.25,
              "duration": 0.16666666666666666
            },
            {
              "pitch": 69,
              "velocity": 28,
              "position": 4.5,
              "duration": 0.08333333333333333
            },
            {
              "pitch": 60,
              "velocity": 76,
              "position": 4.5,
              "duration": 0.20833333333333334
            },
            {
              "pitch": 69,
              "velocity": 53,
              "position": 4.75,
              "duration": 0.125
            },
            {
              "pitch": 62,
              "velocity": 107,
              "position": 4.75,
              "duration": 0.125
            },
            {
              "pitch": 62,
              "velocity": 82,
              "position": 5,
              "duration": 0.020833333333333332
            },
            {
              "pitch": 61,
              "velocity": 51,
              "position": 4.75,
              "duration": 0.2916666666666667
            },
            {
              "pitch": 69,
              "velocity": 71,
              "position": 5,
              "duration": 0.125
            },
            {
              "pitch": 62,
              "velocity": 87,
              "position": 5.041666666666667,
              "duration": 0.16666666666666666
            },
            {
              "pitch": 69,
              "velocity": 40,
              "position": 5.25,
              "duration": 0.125
            },
            {
              "pitch": 69,
              "velocity": 47,
              "position": 5.541666666666667,
              "duration": 0.08333333333333333
            },
            {
              "pitch": 62,
              "velocity": 92,
              "position": 5.5,
              "duration": 0.16666666666666666
            },
            {
              "pitch": 69,
              "velocity": 77,
              "position": 5.75,
              "duration": 0.10416666666666667
            },
            {
              "pitch": 69,
              "velocity": 86,
              "position": 6,
              "duration": 0.16666666666666666
            },
            {
              "pitch": 62,
              "velocity": 99,
              "position": 6,
              "duration": 0.2708333333333333
            },
            {
              "pitch": 69,
              "velocity": 26,
              "position": 6.25,
              "duration": 0.125
            },
            {
              "pitch": 69,
              "velocity": 22,
              "position": 6.5,
              "duration": 0.0625
            },
            {
              "pitch": 62,
              "velocity": 99,
              "position": 6.5,
              "duration": 0.1875
            },
            {
              "pitch": 69,
              "velocity": 62,
              "position": 6.75,
              "duration": 0.125
            },
            {
              "pitch": 62,
              "velocity": 99,
              "position": 6.75,
              "duration": 0.14583333333333334
            },
            {
              "pitch": 62,
              "velocity": 114,
              "position": 7,
              "duration": 0.125
            },
            {
              "pitch": 69,
              "velocity": 92,
              "position": 7,
              "duration": 0.125
            },
            {
              "pitch": 69,
              "velocity": 33,
              "position": 7.25,
              "duration": 0.10416666666666667
            },
            {
              "pitch": 62,
              "velocity": 85,
              "position": 7.25,
              "duration": 0.16666666666666666
            },
            {
              "pitch": 69,
              "velocity": 15,
              "position": 7.5,
              "duration": 0.08333333333333333
            },
            {
              "pitch": 62,
              "velocity": 99,
              "position": 7.75,
              "duration": 0.020833333333333332
            },
            {
              "pitch": 69,
              "velocity": 56,
              "position": 7.75,
              "duration": 0.125
            },
            {
              "pitch": 62,
              "velocity": 96,
              "position": 7.791666666666667,
              "duration": 0.16666666666666666
            }
          ]
        },
        "12": {
          "ctab": {
            "srcChannel": 12,
            "name": "FngrBass",
            "accType": "BASS",
            "editable": false,
            "mutedNotes": [],
            "mutedChords": [],
            "autoStart": false,
            "sourceChordNote": 0,
            "sourceChordType": "Maj7",
            "ctb2Low": null,
            "ctb2Main": {
              "ntr": "ROOT_TRANSPOSITION",
              "ntt": "MELODY",
              "bassOn": true,
              "chordRootUpperLimit": 3,
              "noteLowLimit": 28,
              "noteHighLimit": 54,
              "rtr": "PITCH_SHIFT_TO_ROOT"
            },
            "ctb2High": null,
            "ctb2MiddleLowPitch": 0,
            "ctb2MiddleHighPitch": 127
          },
          "notes": [
            {
              "pitch": 42,
              "velocity": 70,
              "position": 0,
              "duration": 0.8333333333333334
            },
            {
              "pitch": 42,
              "velocity": 75,
              "position": 1,
              "duration": 0.10416666666666667
            },
            {
              "pitch": 42,
              "velocity": 79,
              "position": 1.5,
              "duration": 0.3541666666666667
            },
            {
              "pitch": 41,
              "velocity": 58,
              "position": 2,
              "duration": 0.8125
            },
            {
              "pitch": 48,
              "velocity": 44,
              "position": 3,
              "duration": 0.1875
            },
            {
              "pitch": 41,
              "velocity": 58,
              "position": 3.25,
              "duration": 0.25
            },
            {
              "pitch": 40,
              "velocity": 75,
              "position": 3.75,
              "duration": 1.1041666666666667
            },
            {
              "pitch": 48,
              "velocity": 44,
              "position": 5,
              "duration": 0.125
            },
            {
              "pitch": 40,
              "velocity": 66,
              "position": 5.5,
              "duration": 0.3125
            },
            {
              "pitch": 39,
              "velocity": 64,
              "position": 6,
              "duration": 0.6458333333333334
            },
            {
              "pitch": 39,
              "velocity": 73,
              "position": 7,
              "duration": 0.6875
            },
            {
              "pitch": 38,
              "velocity": 58,
              "position": 7.75,
              "duration": 0.3541666666666667
            },
            {
              "pitch": 38,
              "velocity": 79,
              "position": 8.333333333333334,
              "duration": 0.16666666666666666
            },
            {
              "pitch": 38,
              "velocity": 76,
              "position": 8.75,
              "duration": 0.125
            },
            {
              "pitch": 38,
              "velocity": 70,
              "position": 9.083333333333334,
              "duration": 0.14583333333333334
            },
            {
              "pitch": 38,
              "velocity": 55,
              "position": 9.458333333333334,
              "duration": 0.20833333333333334
            },
            {
              "pitch": 37,
              "velocity": 79,
              "position": 10,
              "duration": 0.3958333333333333
            },
            {
              "pitch": 37,
              "velocity": 79,
              "position": 11.083333333333334,
              "duration": 0.020833333333333332
            },
            {
              "pitch": 37,
              "velocity": 79,
              "position": 11.125,
              "duration": 0.5833333333333334
            },
            {
              "pitch": 36,
              "velocity": 79,
              "position": 11.875,
              "duration": 0.3333333333333333
            }
          ]
        },
        "14": {
          "ctab": {
            "srcChannel": 14,
            "name": "Alto Sax",
            "accType": "CHORD1",
            "editable": false,
            "mutedNotes": [],
            "mutedChords": [],
            "autoStart": false,
            "sourceChordNote": 0,
            "sourceChordType": "Maj7",
            "ctb2Low": null,
            "ctb2Main": {
              "ntr": "ROOT_TRANSPOSITION",
              "ntt": "CHORD",
              "bassOn": false,
              "chordRootUpperLimit": 6,
              "noteLowLimit": 0,
              "noteHighLimit": 79,
              "rtr": "PITCH_SHIFT"
            },
            "ctb2High": null,
            "ctb2MiddleLowPitch": 0,
            "ctb2MiddleHighPitch": 127
          },
          "notes": [
            {
              "pitch": 88,
              "velocity": 86,
              "position": 0.041666666666666664,
              "duration": 1.8333333333333333
            },
            {
              "pitch": 76,
              "velocity": 101,
              "position": 0.08333333333333333,
              "duration": 1.8541666666666667
            },
            {
              "pitch": 78,
              "velocity": 94,
              "position": 1.9583333333333333,
              "duration": 0.08333333333333333
            },
            {
              "pitch": 91,
              "velocity": 101,
              "position": 2,
              "duration": 0.7708333333333334
            },
            {
              "pitch": 79,
              "velocity": 127,
              "position": 2,
              "duration": 0.8333333333333334
            },
            {
              "pitch": 67,
              "velocity": 127,
              "position": 2,
              "duration": 0.9583333333333334
            },
            {
              "pitch": 89,
              "velocity": 92,
              "position": 3,
              "duration": 0.5
            },
            {
              "pitch": 77,
              "velocity": 105,
              "position": 3,
              "duration": 0.5208333333333334
            },
            {
              "pitch": 65,
              "velocity": 112,
              "position": 3.0416666666666665,
              "duration": 0.5833333333333334
            },
            {
              "pitch": 72,
              "velocity": 127,
              "position": 3.75,
              "duration": 1.4583333333333333
            },
            {
              "pitch": 84,
              "velocity": 95,
              "position": 3.75,
              "duration": 1.5833333333333333
            },
            {
              "pitch": 60,
              "velocity": 95,
              "position": 3.75,
              "duration": 1.7083333333333333
            },
            {
              "pitch": 95,
              "velocity": 77,
              "position": 5.958333333333333,
              "duration": 0.08333333333333333
            },
            {
              "pitch": 83,
              "velocity": 68,
              "position": 5.958333333333333,
              "duration": 0.10416666666666667
            },
            {
              "pitch": 74,
              "velocity": 101,
              "position": 6.041666666666667,
              "duration": 0.3333333333333333
            },
            {
              "pitch": 96,
              "velocity": 101,
              "position": 6.041666666666667,
              "duration": 0.6666666666666666
            },
            {
              "pitch": 84,
              "velocity": 118,
              "position": 6.083333333333333,
              "duration": 0.7083333333333334
            },
            {
              "pitch": 72,
              "velocity": 87,
              "position": 6,
              "duration": 0.875
            },
            {
              "pitch": 94,
              "velocity": 84,
              "position": 6.958333333333333,
              "duration": 0.5
            },
            {
              "pitch": 82,
              "velocity": 87,
              "position": 7,
              "duration": 0.5208333333333334
            },
            {
              "pitch": 70,
              "velocity": 123,
              "position": 7,
              "duration": 0.5625
            },
            {
              "pitch": 88,
              "velocity": 43,
              "position": 7.791666666666667,
              "duration": 0.020833333333333332
            },
            {
              "pitch": 79,
              "velocity": 127,
              "position": 7.75,
              "duration": 0.125
            },
            {
              "pitch": 77,
              "velocity": 123,
              "position": 7.75,
              "duration": 0.125
            },
            {
              "pitch": 72,
              "velocity": 56,
              "position": 7.791666666666667,
              "duration": 0.08333333333333333
            },
            {
              "pitch": 89,
              "velocity": 105,
              "position": 7.75,
              "duration": 0.14583333333333334
            },
            {
              "pitch": 62,
              "velocity": 105,
              "position": 7.75,
              "duration": 0.16666666666666666
            },
            {
              "pitch": 77,
              "velocity": 101,
              "position": 8.291666666666666,
              "duration": 0.125
            },
            {
              "pitch": 89,
              "velocity": 101,
              "position": 8.291666666666666,
              "duration": 0.14583333333333334
            },
            {
              "pitch": 72,
              "velocity": 80,
              "position": 8.333333333333334,
              "duration": 0.125
            },
            {
              "pitch": 62,
              "velocity": 87,
              "position": 8.333333333333334,
              "duration": 0.14583333333333334
            },
            {
              "pitch": 77,
              "velocity": 123,
              "position": 8.708333333333334,
              "duration": 0.14583333333333334
            },
            {
              "pitch": 89,
              "velocity": 92,
              "position": 8.75,
              "duration": 0.14583333333333334
            },
            {
              "pitch": 62,
              "velocity": 89,
              "position": 8.75,
              "duration": 0.14583333333333334
            },
            {
              "pitch": 72,
              "velocity": 87,
              "position": 8.75,
              "duration": 0.14583333333333334
            },
            {
              "pitch": 77,
              "velocity": 101,
              "position": 8.958333333333334,
              "duration": 0.20833333333333334
            },
            {
              "pitch": 89,
              "velocity": 89,
              "position": 8.958333333333334,
              "duration": 0.20833333333333334
            },
            {
              "pitch": 72,
              "velocity": 84,
              "position": 9.041666666666666,
              "duration": 0.16666666666666666
            },
            {
              "pitch": 62,
              "velocity": 95,
              "position": 9.041666666666666,
              "duration": 0.1875
            },
            {
              "pitch": 77,
              "velocity": 112,
              "position": 9.5,
              "duration": 0.16666666666666666
            },
            {
              "pitch": 89,
              "velocity": 95,
              "position": 9.5,
              "duration": 0.1875
            },
            {
              "pitch": 62,
              "velocity": 95,
              "position": 9.5,
              "duration": 0.1875
            },
            {
              "pitch": 72,
              "velocity": 92,
              "position": 9.5,
              "duration": 0.20833333333333334
            },
            {
              "pitch": 77,
              "velocity": 127,
              "position": 10.041666666666666,
              "duration": 0.14583333333333334
            },
            {
              "pitch": 72,
              "velocity": 118,
              "position": 10.083333333333334,
              "duration": 0.125
            },
            {
              "pitch": 89,
              "velocity": 127,
              "position": 10.041666666666666,
              "duration": 0.1875
            },
            {
              "pitch": 61,
              "velocity": 114,
              "position": 10.041666666666666,
              "duration": 0.20833333333333334
            },
            {
              "pitch": 72,
              "velocity": 123,
              "position": 11.041666666666666,
              "duration": 0.4791666666666667
            },
            {
              "pitch": 77,
              "velocity": 127,
              "position": 11.083333333333334,
              "duration": 0.4583333333333333
            },
            {
              "pitch": 89,
              "velocity": 127,
              "position": 11.041666666666666,
              "duration": 0.5208333333333334
            },
            {
              "pitch": 61,
              "velocity": 86,
              "position": 11,
              "duration": 0.6041666666666666
            },
            {
              "pitch": 66,
              "velocity": 77,
              "position": 11.75,
              "duration": 0.041666666666666664
            },
            {
              "pitch": 76,
              "velocity": 127,
              "position": 11.75,
              "duration": 0.16666666666666666
            }
          ]
        }
      }
    },
    "Ending_B": {
      "type": "Ending_B",
      "sizeInBeats": 16,
      "channels": {
        "0": {
          "ctab": {
            "srcChannel": 0,
            "name": "NylonGtr",
            "accType": "CHORD2",
            "editable": false,
            "mutedNotes": [],
            "mutedChords": [],
            "autoStart": false,
            "sourceChordNote": 0,
            "sourceChordType": "Maj7",
            "ctb2Low": null,
            "ctb2Main": {
              "ntr": "ROOT_TRANSPOSITION",
              "ntt": "CHORD",
              "bassOn": false,
              "chordRootUpperLimit": 6,
              "noteLowLimit": 0,
              "noteHighLimit": 127,
              "rtr": "PITCH_SHIFT"
            },
            "ctb2High": null,
            "ctb2MiddleLowPitch": 0,
            "ctb2MiddleHighPitch": 127
          },
          "notes": [
            {
              "pitch": 57,
              "velocity": 74,
              "position": 0.3333333333333333,
              "duration": 0.5416666666666666
            },
            {
              "pitch": 60,
              "velocity": 81,
              "position": 0.3333333333333333,
              "duration": 0.5416666666666666
            },
            {
              "pitch": 66,
              "velocity": 93,
              "position": 0.3333333333333333,
              "duration": 0.5833333333333334
            },
            {
              "pitch": 64,
              "velocity": 90,
              "position": 0.3333333333333333,
              "duration": 0.6041666666666666
            },
            {
              "pitch": 64,
              "velocity": 60,
              "position": 1.125,
              "duration": 0.10416666666666667
            },
            {
              "pitch": 57,
              "velocity": 57,
              "position": 1.125,
              "duration": 0.10416666666666667
            },
            {
              "pitch": 66,
              "velocity": 58,
              "position": 1.125,
              "duration": 0.125
            },
            {
              "pitch": 60,
              "velocity": 63,
              "position": 1.125,
              "duration": 0.125
            },
            {
              "pitch": 64,
              "velocity": 76,
              "position": 1.5416666666666667,
              "duration": 0.125
            },
            {
              "pitch": 66,
              "velocity": 81,
              "position": 1.5416666666666667,
              "duration": 0.14583333333333334
            },
            {
              "pitch": 60,
              "velocity": 55,
              "position": 1.5833333333333333,
              "duration": 0.10416666666666667
            },
            {
              "pitch": 57,
              "velocity": 67,
              "position": 1.5833333333333333,
              "duration": 0.16666666666666666
            },
            {
              "pitch": 60,
              "velocity": 50,
              "position": 2.0833333333333335,
              "duration": 0.08333333333333333
            },
            {
              "pitch": 62,
              "velocity": 73,
              "position": 2.0833333333333335,
              "duration": 0.08333333333333333
            },
            {
              "pitch": 67,
              "velocity": 67,
              "position": 2.0833333333333335,
              "duration": 0.10416666666666667
            },
            {
              "pitch": 56,
              "velocity": 50,
              "position": 2.125,
              "duration": 0.08333333333333333
            },
            {
              "pitch": 62,
              "velocity": 92,
              "position": 2.5416666666666665,
              "duration": 0.5
            },
            {
              "pitch": 56,
              "velocity": 69,
              "position": 2.5416666666666665,
              "duration": 0.6041666666666666
            },
            {
              "pitch": 67,
              "velocity": 84,
              "position": 2.5833333333333335,
              "duration": 0.5625
            },
            {
              "pitch": 60,
              "velocity": 69,
              "position": 2.5416666666666665,
              "duration": 0.6458333333333334
            },
            {
              "pitch": 67,
              "velocity": 71,
              "position": 3.3333333333333335,
              "duration": 0.16666666666666666
            },
            {
              "pitch": 62,
              "velocity": 72,
              "position": 3.3333333333333335,
              "duration": 0.16666666666666666
            },
            {
              "pitch": 56,
              "velocity": 70,
              "position": 3.375,
              "duration": 0.16666666666666666
            },
            {
              "pitch": 60,
              "velocity": 63,
              "position": 3.375,
              "duration": 0.16666666666666666
            },
            {
              "pitch": 60,
              "velocity": 79,
              "position": 3.7916666666666665,
              "duration": 0.16666666666666666
            },
            {
              "pitch": 64,
              "velocity": 90,
              "position": 4.333333333333333,
              "duration": 0.5208333333333334
            },
            {
              "pitch": 67,
              "velocity": 85,
              "position": 4.333333333333333,
              "duration": 0.5416666666666666
            },
            {
              "pitch": 72,
              "velocity": 81,
              "position": 4.333333333333333,
              "duration": 0.5625
            },
            {
              "pitch": 72,
              "velocity": 50,
              "position": 5.083333333333333,
              "duration": 0.10416666666666667
            },
            {
              "pitch": 64,
              "velocity": 52,
              "position": 5.083333333333333,
              "duration": 0.125
            },
            {
              "pitch": 67,
              "velocity": 64,
              "position": 5.083333333333333,
              "duration": 0.14583333333333334
            },
            {
              "pitch": 64,
              "velocity": 81,
              "position": 5.5,
              "duration": 0.14583333333333334
            },
            {
              "pitch": 72,
              "velocity": 63,
              "position": 5.541666666666667,
              "duration": 0.10416666666666667
            },
            {
              "pitch": 67,
              "velocity": 84,
              "position": 5.541666666666667,
              "duration": 0.125
            },
            {
              "pitch": 66,
              "velocity": 81,
              "position": 6.041666666666667,
              "duration": 0.10416666666666667
            },
            {
              "pitch": 72,
              "velocity": 69,
              "position": 6.041666666666667,
              "duration": 0.10416666666666667
            },
            {
              "pitch": 63,
              "velocity": 65,
              "position": 6,
              "duration": 0.16666666666666666
            },
            {
              "pitch": 63,
              "velocity": 76,
              "position": 6.5,
              "duration": 0.22916666666666666
            },
            {
              "pitch": 66,
              "velocity": 93,
              "position": 6.541666666666667,
              "duration": 0.20833333333333334
            },
            {
              "pitch": 72,
              "velocity": 79,
              "position": 6.541666666666667,
              "duration": 0.4583333333333333
            },
            {
              "pitch": 69,
              "velocity": 95,
              "position": 6.541666666666667,
              "duration": 0.4791666666666667
            },
            {
              "pitch": 63,
              "velocity": 57,
              "position": 7.083333333333333,
              "duration": 0.14583333333333334
            },
            {
              "pitch": 66,
              "velocity": 76,
              "position": 7.333333333333333,
              "duration": 0.16666666666666666
            },
            {
              "pitch": 69,
              "velocity": 78,
              "position": 7.333333333333333,
              "duration": 0.16666666666666666
            },
            {
              "pitch": 72,
              "velocity": 68,
              "position": 7.333333333333333,
              "duration": 0.1875
            },
            {
              "pitch": 60,
              "velocity": 79,
              "position": 7.833333333333333,
              "duration": 0.125
            },
            {
              "pitch": 60,
              "velocity": 63,
              "position": 8.333333333333334,
              "duration": 0.125
            },
            {
              "pitch": 64,
              "velocity": 60,
              "position": 8.333333333333334,
              "duration": 0.14583333333333334
            },
            {
              "pitch": 65,
              "velocity": 73,
              "position": 8.333333333333334,
              "duration": 0.14583333333333334
            },
            {
              "pitch": 69,
              "velocity": 70,
              "position": 8.333333333333334,
              "duration": 0.20833333333333334
            },
            {
              "pitch": 69,
              "velocity": 52,
              "position": 8.833333333333334,
              "duration": 0.0625
            },
            {
              "pitch": 64,
              "velocity": 59,
              "position": 8.75,
              "duration": 0.16666666666666666
            },
            {
              "pitch": 65,
              "velocity": 72,
              "position": 8.791666666666666,
              "duration": 0.125
            },
            {
              "pitch": 60,
              "velocity": 48,
              "position": 8.833333333333334,
              "duration": 0.10416666666666667
            },
            {
              "pitch": 66,
              "velocity": 69,
              "position": 9.083333333333334,
              "duration": 0.08333333333333333
            },
            {
              "pitch": 64,
              "velocity": 76,
              "position": 9.083333333333334,
              "duration": 0.1875
            },
            {
              "pitch": 60,
              "velocity": 76,
              "position": 9.083333333333334,
              "duration": 0.1875
            },
            {
              "pitch": 65,
              "velocity": 84,
              "position": 9.083333333333334,
              "duration": 0.20833333333333334
            },
            {
              "pitch": 69,
              "velocity": 78,
              "position": 9.083333333333334,
              "duration": 0.22916666666666666
            },
            {
              "pitch": 66,
              "velocity": 55,
              "position": 9.541666666666666,
              "duration": 0.14583333333333334
            },
            {
              "pitch": 60,
              "velocity": 66,
              "position": 9.541666666666666,
              "duration": 0.1875
            },
            {
              "pitch": 69,
              "velocity": 66,
              "position": 9.541666666666666,
              "duration": 0.20833333333333334
            },
            {
              "pitch": 65,
              "velocity": 68,
              "position": 9.541666666666666,
              "duration": 0.20833333333333334
            },
            {
              "pitch": 64,
              "velocity": 60,
              "position": 9.541666666666666,
              "duration": 0.22916666666666666
            },
            {
              "pitch": 67,
              "velocity": 73,
              "position": 10.083333333333334,
              "duration": 0.0625
            },
            {
              "pitch": 60,
              "velocity": 81,
              "position": 10.041666666666666,
              "duration": 0.14583333333333334
            },
            {
              "pitch": 63,
              "velocity": 94,
              "position": 10.041666666666666,
              "duration": 0.14583333333333334
            },
            {
              "pitch": 65,
              "velocity": 74,
              "position": 10.041666666666666,
              "duration": 0.1875
            },
            {
              "pitch": 68,
              "velocity": 82,
              "position": 10.041666666666666,
              "duration": 0.1875
            },
            {
              "pitch": 63,
              "velocity": 94,
              "position": 11.041666666666666,
              "duration": 0.16666666666666666
            },
            {
              "pitch": 65,
              "velocity": 98,
              "position": 11.041666666666666,
              "duration": 0.1875
            },
            {
              "pitch": 60,
              "velocity": 84,
              "position": 11.083333333333334,
              "duration": 0.14583333333333334
            },
            {
              "pitch": 68,
              "velocity": 88,
              "position": 11.041666666666666,
              "duration": 0.22916666666666666
            },
            {
              "pitch": 59,
              "velocity": 95,
              "position": 11.791666666666666,
              "duration": 0.6458333333333334
            },
            {
              "pitch": 62,
              "velocity": 85,
              "position": 11.75,
              "duration": 0.7291666666666666
            },
            {
              "pitch": 64,
              "velocity": 81,
              "position": 11.791666666666666,
              "duration": 0.7291666666666666
            },
            {
              "pitch": 67,
              "velocity": 90,
              "position": 11.791666666666666,
              "duration": 0.7708333333333334
            }
          ]
        },
        "2": {
          "ctab": {
            "srcChannel": 2,
            "name": "Strings1",
            "accType": "PAD",
            "editable": false,
            "mutedNotes": [],
            "mutedChords": [],
            "autoStart": false,
            "sourceChordNote": 0,
            "sourceChordType": "Maj7",
            "ctb2Low": null,
            "ctb2Main": {
              "ntr": "ROOT_TRANSPOSITION",
              "ntt": "CHORD",
              "bassOn": false,
              "chordRootUpperLimit": 6,
              "noteLowLimit": 0,
              "noteHighLimit": 127,
              "rtr": "PITCH_SHIFT"
            },
            "ctb2High": null,
            "ctb2MiddleLowPitch": 0,
            "ctb2MiddleHighPitch": 127
          },
          "notes": [
            {
              "pitch": 51,
              "velocity": 49,
              "position": 0,
              "duration": 2
            },
            {
              "pitch": 54,
              "velocity": 63,
              "position": 0,
              "duration": 2.1041666666666665
            },
            {
              "pitch": 61,
              "velocity": 84,
              "position": 0,
              "duration": 2.2916666666666665
            },
            {
              "pitch": 62,
              "velocity": 91,
              "position": 1.9583333333333333,
              "duration": 1.5208333333333333
            },
            {
              "pitch": 53,
              "velocity": 66,
              "position": 2,
              "duration": 1.5208333333333333
            },
            {
              "pitch": 56,
              "velocity": 74,
              "position": 2,
              "duration": 1.5208333333333333
            },
            {
              "pitch": 67,
              "velocity": 110,
              "position": 1.9583333333333333,
              "duration": 1.6041666666666667
            },
            {
              "pitch": 64,
              "velocity": 84,
              "position": 3.625,
              "duration": 2.1666666666666665
            },
            {
              "pitch": 52,
              "velocity": 67,
              "position": 3.5833333333333335,
              "duration": 2.3125
            },
            {
              "pitch": 60,
              "velocity": 80,
              "position": 3.625,
              "duration": 2.2708333333333335
            },
            {
              "pitch": 67,
              "velocity": 65,
              "position": 3.5833333333333335,
              "duration": 2.3333333333333335
            },
            {
              "pitch": 60,
              "velocity": 54,
              "position": 5.958333333333333,
              "duration": 1.5
            },
            {
              "pitch": 69,
              "velocity": 69,
              "position": 5.916666666666667,
              "duration": 1.625
            },
            {
              "pitch": 66,
              "velocity": 91,
              "position": 6,
              "duration": 1.5833333333333333
            },
            {
              "pitch": 51,
              "velocity": 74,
              "position": 5.958333333333333,
              "duration": 1.7083333333333333
            },
            {
              "pitch": 50,
              "velocity": 91,
              "position": 7.666666666666667,
              "duration": 1.7708333333333333
            },
            {
              "pitch": 60,
              "velocity": 87,
              "position": 7.666666666666667,
              "duration": 1.9583333333333333
            },
            {
              "pitch": 65,
              "velocity": 114,
              "position": 7.666666666666667,
              "duration": 2.0833333333333335
            },
            {
              "pitch": 69,
              "velocity": 88,
              "position": 7.666666666666667,
              "duration": 2.0833333333333335
            },
            {
              "pitch": 67,
              "velocity": 88,
              "position": 10,
              "duration": 0.0625
            },
            {
              "pitch": 65,
              "velocity": 123,
              "position": 9.958333333333334,
              "duration": 0.1875
            },
            {
              "pitch": 68,
              "velocity": 125,
              "position": 9.958333333333334,
              "duration": 0.22916666666666666
            },
            {
              "pitch": 49,
              "velocity": 101,
              "position": 9.958333333333334,
              "duration": 0.25
            },
            {
              "pitch": 60,
              "velocity": 100,
              "position": 9.958333333333334,
              "duration": 0.2708333333333333
            },
            {
              "pitch": 65,
              "velocity": 123,
              "position": 11,
              "duration": 0.3125
            },
            {
              "pitch": 68,
              "velocity": 114,
              "position": 11.041666666666666,
              "duration": 0.3125
            },
            {
              "pitch": 60,
              "velocity": 88,
              "position": 11.083333333333334,
              "duration": 0.2708333333333333
            },
            {
              "pitch": 49,
              "velocity": 84,
              "position": 11.041666666666666,
              "duration": 0.4375
            },
            {
              "pitch": 64,
              "velocity": 127,
              "position": 11.75,
              "duration": 0.20833333333333334
            },
            {
              "pitch": 67,
              "velocity": 123,
              "position": 11.75,
              "duration": 0.20833333333333334
            },
            {
              "pitch": 59,
              "velocity": 112,
              "position": 11.791666666666666,
              "duration": 0.16666666666666666
            },
            {
              "pitch": 48,
              "velocity": 74,
              "position": 11.791666666666666,
              "duration": 0.1875
            }
          ]
        },
        "8": {
          "ctab": {
            "srcChannel": 8,
            "name": "Std.Kit1",
            "accType": "RHYTHM",
            "editable": false,
            "mutedNotes": [],
            "mutedChords": [],
            "autoStart": true,
            "sourceChordNote": 0,
            "sourceChordType": "Maj7",
            "ctb2Low": null,
            "ctb2Main": {
              "ntr": "ROOT_FIXED",
              "ntt": "BYPASS",
              "bassOn": false,
              "chordRootUpperLimit": 6,
              "noteLowLimit": 0,
              "noteHighLimit": 127,
              "rtr": "PITCH_SHIFT"
            },
            "ctb2High": null,
            "ctb2MiddleLowPitch": 0,
            "ctb2MiddleHighPitch": 127
          },
          "notes": [
            {
              "pitch": 42,
              "velocity": 56,
              "position": 0.041666666666666664,
              "duration": 0.041666666666666664
            },
            {
              "pitch": 41,
              "velocity": 36,
              "position": 0.041666666666666664,
              "duration": 0.2708333333333333
            },
            {
              "pitch": 36,
              "velocity": 64,
              "position": 0.041666666666666664,
              "duration": 0.3125
            },
            {
              "pitch": 42,
              "velocity": 73,
              "position": 0.25,
              "duration": 0.10416666666666667
            },
            {
              "pitch": 44,
              "velocity": 68,
              "position": 0.25,
              "duration": 0.10416666666666667
            },
            {
              "pitch": 42,
              "velocity": 99,
              "position": 0.5,
              "duration": 0.125
            },
            {
              "pitch": 42,
              "velocity": 81,
              "position": 0.75,
              "duration": 0.08333333333333333
            },
            {
              "pitch": 44,
              "velocity": 61,
              "position": 1,
              "duration": 0.14583333333333334
            },
            {
              "pitch": 42,
              "velocity": 81,
              "position": 1.25,
              "duration": 0.08333333333333333
            },
            {
              "pitch": 44,
              "velocity": 59,
              "position": 1.5,
              "duration": 0.125
            },
            {
              "pitch": 42,
              "velocity": 105,
              "position": 1.5,
              "duration": 0.14583333333333334
            },
            {
              "pitch": 36,
              "velocity": 95,
              "position": 1,
              "duration": 0.6666666666666666
            },
            {
              "pitch": 42,
              "velocity": 70,
              "position": 1.75,
              "duration": 0.10416666666666667
            },
            {
              "pitch": 42,
              "velocity": 46,
              "position": 2,
              "duration": 0.0625
            },
            {
              "pitch": 44,
              "velocity": 55,
              "position": 2,
              "duration": 0.10416666666666667
            },
            {
              "pitch": 36,
              "velocity": 66,
              "position": 2,
              "duration": 0.3333333333333333
            },
            {
              "pitch": 42,
              "velocity": 88,
              "position": 2.25,
              "duration": 0.10416666666666667
            },
            {
              "pitch": 41,
              "velocity": 30,
              "position": 2.0416666666666665,
              "duration": 0.3333333333333333
            },
            {
              "pitch": 44,
              "velocity": 76,
              "position": 2.5,
              "duration": 0.14583333333333334
            },
            {
              "pitch": 42,
              "velocity": 78,
              "position": 2.75,
              "duration": 0.0625
            },
            {
              "pitch": 42,
              "velocity": 64,
              "position": 3,
              "duration": 0.10416666666666667
            },
            {
              "pitch": 44,
              "velocity": 50,
              "position": 3.25,
              "duration": 0.14583333333333334
            },
            {
              "pitch": 42,
              "velocity": 108,
              "position": 3.25,
              "duration": 0.14583333333333334
            },
            {
              "pitch": 36,
              "velocity": 95,
              "position": 3,
              "duration": 0.4583333333333333
            },
            {
              "pitch": 44,
              "velocity": 45,
              "position": 3.5,
              "duration": 0.10416666666666667
            },
            {
              "pitch": 42,
              "velocity": 88,
              "position": 3.75,
              "duration": 0.10416666666666667
            },
            {
              "pitch": 44,
              "velocity": 53,
              "position": 3.7916666666666665,
              "duration": 0.125
            },
            {
              "pitch": 42,
              "velocity": 37,
              "position": 4,
              "duration": 0.0625
            },
            {
              "pitch": 41,
              "velocity": 57,
              "position": 4,
              "duration": 0.3541666666666667
            },
            {
              "pitch": 36,
              "velocity": 76,
              "position": 4,
              "duration": 0.3541666666666667
            },
            {
              "pitch": 42,
              "velocity": 85,
              "position": 4.25,
              "duration": 0.10416666666666667
            },
            {
              "pitch": 44,
              "velocity": 71,
              "position": 4.25,
              "duration": 0.125
            },
            {
              "pitch": 44,
              "velocity": 55,
              "position": 4.5,
              "duration": 0.14583333333333334
            },
            {
              "pitch": 42,
              "velocity": 81,
              "position": 4.75,
              "duration": 0.0625
            },
            {
              "pitch": 44,
              "velocity": 55,
              "position": 5,
              "duration": 0.16666666666666666
            },
            {
              "pitch": 36,
              "velocity": 95,
              "position": 5,
              "duration": 0.2708333333333333
            },
            {
              "pitch": 42,
              "velocity": 85,
              "position": 5.25,
              "duration": 0.0625
            },
            {
              "pitch": 44,
              "velocity": 52,
              "position": 5.5,
              "duration": 0.041666666666666664
            },
            {
              "pitch": 44,
              "velocity": 49,
              "position": 5.541666666666667,
              "duration": 0.10416666666666667
            },
            {
              "pitch": 42,
              "velocity": 76,
              "position": 5.75,
              "duration": 0.0625
            },
            {
              "pitch": 42,
              "velocity": 66,
              "position": 6,
              "duration": 0.08333333333333333
            },
            {
              "pitch": 44,
              "velocity": 50,
              "position": 6,
              "duration": 0.10416666666666667
            },
            {
              "pitch": 42,
              "velocity": 88,
              "position": 6.25,
              "duration": 0.08333333333333333
            },
            {
              "pitch": 36,
              "velocity": 83,
              "position": 6,
              "duration": 0.4166666666666667
            },
            {
              "pitch": 41,
              "velocity": 45,
              "position": 6,
              "duration": 0.4375
            },
            {
              "pitch": 44,
              "velocity": 67,
              "position": 6.5,
              "duration": 0.14583333333333334
            },
            {
              "pitch": 42,
              "velocity": 81,
              "position": 6.75,
              "duration": 0.0625
            },
            {
              "pitch": 42,
              "velocity": 50,
              "position": 7,
              "duration": 0.0625
            },
            {
              "pitch": 42,
              "velocity": 105,
              "position": 7.25,
              "duration": 0.10416666666666667
            },
            {
              "pitch": 44,
              "velocity": 59,
              "position": 7.25,
              "duration": 0.14583333333333334
            },
            {
              "pitch": 36,
              "velocity": 95,
              "position": 7,
              "duration": 0.4375
            },
            {
              "pitch": 44,
              "velocity": 28,
              "position": 7.5,
              "duration": 0.0625
            },
            {
              "pitch": 42,
              "velocity": 95,
              "position": 7.75,
              "duration": 0.10416666666666667
            },
            {
              "pitch": 44,
              "velocity": 63,
              "position": 7.75,
              "duration": 0.14583333333333334
            },
            {
              "pitch": 36,
              "velocity": 95,
              "position": 8,
              "duration": 0.14583333333333334
            },
            {
              "pitch": 38,
              "velocity": 66,
              "position": 8.25,
              "duration": 0.125
            },
            {
              "pitch": 38,
              "velocity": 41,
              "position": 8.75,
              "duration": 0.08333333333333333
            },
            {
              "pitch": 38,
              "velocity": 56,
              "position": 9,
              "duration": 0.14583333333333334
            },
            {
              "pitch": 38,
              "velocity": 56,
              "position": 9.5,
              "duration": 0.125
            },
            {
              "pitch": 38,
              "velocity": 66,
              "position": 10.041666666666666,
              "duration": 0.14583333333333334
            },
            {
              "pitch": 48,
              "velocity": 61,
              "position": 10.041666666666666,
              "duration": 0.14583333333333334
            },
            {
              "pitch": 36,
              "velocity": 95,
              "position": 10,
              "duration": 0.20833333333333334
            },
            {
              "pitch": 41,
              "velocity": 74,
              "position": 10.291666666666666,
              "duration": 0.14583333333333334
            },
            {
              "pitch": 45,
              "velocity": 87,
              "position": 10.541666666666666,
              "duration": 0.0625
            },
            {
              "pitch": 41,
              "velocity": 74,
              "position": 10.75,
              "duration": 0.10416666666666667
            },
            {
              "pitch": 36,
              "velocity": 95,
              "position": 11.041666666666666,
              "duration": 0.4583333333333333
            },
            {
              "pitch": 38,
              "velocity": 66,
              "position": 11.083333333333334,
              "duration": 0.4791666666666667
            },
            {
              "pitch": 46,
              "velocity": 111,
              "position": 11.125,
              "duration": 0.7916666666666666
            },
            {
              "pitch": 35,
              "velocity": 76,
              "position": 11.833333333333334,
              "duration": 0.10416666666666667
            },
            {
              "pitch": 38,
              "velocity": 66,
              "position": 11.791666666666666,
              "duration": 0.1875
            },
            {
              "pitch": 36,
              "velocity": 95,
              "position": 11.791666666666666,
              "duration": 0.1875
            },
            {
              "pitch": 42,
              "velocity": 118,
              "position": 11.875,
              "duration": 0.1875
            }
          ]
        },
        "10": {
          "ctab": {
            "srcChannel": 10,
            "name": "Std.Kit1",
            "accType": "SUBRHYTHM",
            "editable": false,
            "mutedNotes": [],
            "mutedChords": [],
            "autoStart": true,
            "sourceChordNote": 0,
            "sourceChordType": "Maj7",
            "ctb2Low": null,
            "ctb2Main": {
              "ntr": "ROOT_FIXED",
              "ntt": "BYPASS",
              "bassOn": false,
              "chordRootUpperLimit": 6,
              "noteLowLimit": 0,
              "noteHighLimit": 127,
              "rtr": "PITCH_SHIFT"
            },
            "ctb2High": null,
            "ctb2MiddleLowPitch": 0,
            "ctb2MiddleHighPitch": 127
          },
          "notes": [
            {
              "pitch": 69,
              "velocity": 127,
              "position": 0.041666666666666664,
              "duration": 0.10416666666666667
            },
            {
              "pitch": 69,
              "velocity": 45,
              "position": 0.25,
              "duration": 0.125
            },
            {
              "pitch": 62,
              "velocity": 86,
              "position": 0.041666666666666664,
              "duration": 0.3541666666666667
            },
            {
              "pitch": 69,
              "velocity": 32,
              "position": 0.5,
              "duration": 0.10416666666666667
            },
            {
              "pitch": 62,
              "velocity": 86,
              "position": 0.5,
              "duration": 0.125
            },
            {
              "pitch": 69,
              "velocity": 30,
              "position": 0.75,
              "duration": 0.14583333333333334
            },
            {
              "pitch": 62,
              "velocity": 87,
              "position": 0.75,
              "duration": 0.22916666666666666
            },
            {
              "pitch": 62,
              "velocity": 96,
              "position": 1,
              "duration": 0.125
            },
            {
              "pitch": 69,
              "velocity": 97,
              "position": 1,
              "duration": 0.1875
            },
            {
              "pitch": 69,
              "velocity": 15,
              "position": 1.25,
              "duration": 0.14583333333333334
            },
            {
              "pitch": 62,
              "velocity": 78,
              "position": 1.5,
              "duration": 0.020833333333333332
            },
            {
              "pitch": 69,
              "velocity": 33,
              "position": 1.5,
              "duration": 0.125
            },
            {
              "pitch": 62,
              "velocity": 87,
              "position": 1.5416666666666667,
              "duration": 0.20833333333333334
            },
            {
              "pitch": 69,
              "velocity": 16,
              "position": 1.75,
              "duration": 0.125
            },
            {
              "pitch": 62,
              "velocity": 86,
              "position": 2,
              "duration": 0.020833333333333332
            },
            {
              "pitch": 69,
              "velocity": 92,
              "position": 2.0416666666666665,
              "duration": 0.14583333333333334
            },
            {
              "pitch": 69,
              "velocity": 16,
              "position": 2.25,
              "duration": 0.125
            },
            {
              "pitch": 62,
              "velocity": 99,
              "position": 2.0416666666666665,
              "duration": 0.375
            },
            {
              "pitch": 69,
              "velocity": 26,
              "position": 2.5,
              "duration": 0.08333333333333333
            },
            {
              "pitch": 69,
              "velocity": 47,
              "position": 2.75,
              "duration": 0.125
            },
            {
              "pitch": 62,
              "velocity": 92,
              "position": 2.75,
              "duration": 0.1875
            },
            {
              "pitch": 69,
              "velocity": 73,
              "position": 3,
              "duration": 0.14583333333333334
            },
            {
              "pitch": 62,
              "velocity": 99,
              "position": 3,
              "duration": 0.16666666666666666
            },
            {
              "pitch": 62,
              "velocity": 99,
              "position": 3.25,
              "duration": 0.020833333333333332
            },
            {
              "pitch": 69,
              "velocity": 15,
              "position": 3.25,
              "duration": 0.125
            },
            {
              "pitch": 62,
              "velocity": 87,
              "position": 3.2916666666666665,
              "duration": 0.16666666666666666
            },
            {
              "pitch": 69,
              "velocity": 33,
              "position": 3.5,
              "duration": 0.10416666666666667
            },
            {
              "pitch": 62,
              "velocity": 86,
              "position": 3.75,
              "duration": 0.005208333333333333
            },
            {
              "pitch": 69,
              "velocity": 22,
              "position": 3.75,
              "duration": 0.08333333333333333
            },
            {
              "pitch": 62,
              "velocity": 96,
              "position": 3.7916666666666665,
              "duration": 0.125
            },
            {
              "pitch": 69,
              "velocity": 110,
              "position": 4,
              "duration": 0.16666666666666666
            },
            {
              "pitch": 69,
              "velocity": 35,
              "position": 4.25,
              "duration": 0.10416666666666667
            },
            {
              "pitch": 62,
              "velocity": 85,
              "position": 4.25,
              "duration": 0.16666666666666666
            },
            {
              "pitch": 69,
              "velocity": 28,
              "position": 4.5,
              "duration": 0.08333333333333333
            },
            {
              "pitch": 60,
              "velocity": 76,
              "position": 4.5,
              "duration": 0.20833333333333334
            },
            {
              "pitch": 69,
              "velocity": 53,
              "position": 4.75,
              "duration": 0.125
            },
            {
              "pitch": 62,
              "velocity": 107,
              "position": 4.75,
              "duration": 0.125
            },
            {
              "pitch": 62,
              "velocity": 82,
              "position": 5,
              "duration": 0.020833333333333332
            },
            {
              "pitch": 61,
              "velocity": 51,
              "position": 4.75,
              "duration": 0.2916666666666667
            },
            {
              "pitch": 69,
              "velocity": 71,
              "position": 5,
              "duration": 0.125
            },
            {
              "pitch": 62,
              "velocity": 87,
              "position": 5.041666666666667,
              "duration": 0.16666666666666666
            },
            {
              "pitch": 69,
              "velocity": 40,
              "position": 5.25,
              "duration": 0.125
            },
            {
              "pitch": 69,
              "velocity": 47,
              "position": 5.541666666666667,
              "duration": 0.08333333333333333
            },
            {
              "pitch": 62,
              "velocity": 92,
              "position": 5.5,
              "duration": 0.16666666666666666
            },
            {
              "pitch": 69,
              "velocity": 77,
              "position": 5.75,
              "duration": 0.10416666666666667
            },
            {
              "pitch": 69,
              "velocity": 86,
              "position": 6,
              "duration": 0.16666666666666666
            },
            {
              "pitch": 62,
              "velocity": 99,
              "position": 6,
              "duration": 0.2708333333333333
            },
            {
              "pitch": 69,
              "velocity": 26,
              "position": 6.25,
              "duration": 0.125
            },
            {
              "pitch": 69,
              "velocity": 22,
              "position": 6.5,
              "duration": 0.0625
            },
            {
              "pitch": 62,
              "velocity": 99,
              "position": 6.5,
              "duration": 0.1875
            },
            {
              "pitch": 69,
              "velocity": 62,
              "position": 6.75,
              "duration": 0.125
            },
            {
              "pitch": 62,
              "velocity": 99,
              "position": 6.75,
              "duration": 0.14583333333333334
            },
            {
              "pitch": 62,
              "velocity": 114,
              "position": 7,
              "duration": 0.125
            },
            {
              "pitch": 69,
              "velocity": 92,
              "position": 7,
              "duration": 0.125
            },
            {
              "pitch": 69,
              "velocity": 33,
              "position": 7.25,
              "duration": 0.10416666666666667
            },
            {
              "pitch": 62,
              "velocity": 85,
              "position": 7.25,
              "duration": 0.16666666666666666
            },
            {
              "pitch": 69,
              "velocity": 15,
              "position": 7.5,
              "duration": 0.08333333333333333
            },
            {
              "pitch": 62,
              "velocity": 99,
              "position": 7.75,
              "duration": 0.020833333333333332
            },
            {
              "pitch": 69,
              "velocity": 56,
              "position": 7.75,
              "duration": 0.125
            },
            {
              "pitch": 62,
              "velocity": 96,
              "position": 7.791666666666667,
              "duration": 0.16666666666666666
            }
          ]
        },
        "12": {
          "ctab": {
            "srcChannel": 12,
            "name": "FngrBass",
            "accType": "BASS",
            "editable": false,
            "mutedNotes": [],
            "mutedChords": [],
            "autoStart": false,
            "sourceChordNote": 0,
            "sourceChordType": "Maj7",
            "ctb2Low": null,
            "ctb2Main": {
              "ntr": "ROOT_TRANSPOSITION",
              "ntt": "MELODY",
              "bassOn": true,
              "chordRootUpperLimit": 3,
              "noteLowLimit": 28,
              "noteHighLimit": 54,
              "rtr": "PITCH_SHIFT_TO_ROOT"
            },
            "ctb2High": null,
            "ctb2MiddleLowPitch": 0,
            "ctb2MiddleHighPitch": 127
          },
          "notes": [
            {
              "pitch": 42,
              "velocity": 70,
              "position": 0,
              "duration": 0.8333333333333334
            },
            {
              "pitch": 42,
              "velocity": 75,
              "position": 1,
              "duration": 0.10416666666666667
            },
            {
              "pitch": 42,
              "velocity": 79,
              "position": 1.5,
              "duration": 0.3541666666666667
            },
            {
              "pitch": 41,
              "velocity": 58,
              "position": 2,
              "duration": 0.8125
            },
            {
              "pitch": 48,
              "velocity": 44,
              "position": 3,
              "duration": 0.1875
            },
            {
              "pitch": 41,
              "velocity": 58,
              "position": 3.25,
              "duration": 0.25
            },
            {
              "pitch": 40,
              "velocity": 75,
              "position": 3.75,
              "duration": 1.1041666666666667
            },
            {
              "pitch": 48,
              "velocity": 44,
              "position": 5,
              "duration": 0.125
            },
            {
              "pitch": 40,
              "velocity": 66,
              "position": 5.5,
              "duration": 0.3125
            },
            {
              "pitch": 39,
              "velocity": 64,
              "position": 6,
              "duration": 0.6458333333333334
            },
            {
              "pitch": 39,
              "velocity": 73,
              "position": 7,
              "duration": 0.6875
            },
            {
              "pitch": 38,
              "velocity": 58,
              "position": 7.75,
              "duration": 0.3541666666666667
            },
            {
              "pitch": 38,
              "velocity": 79,
              "position": 8.333333333333334,
              "duration": 0.16666666666666666
            },
            {
              "pitch": 38,
              "velocity": 76,
              "position": 8.75,
              "duration": 0.125
            },
            {
              "pitch": 38,
              "velocity": 70,
              "position": 9.083333333333334,
              "duration": 0.14583333333333334
            },
            {
              "pitch": 38,
              "velocity": 55,
              "position": 9.458333333333334,
              "duration": 0.20833333333333334
            },
            {
              "pitch": 37,
              "velocity": 79,
              "position": 10,
              "duration": 0.3958333333333333
            },
            {
              "pitch": 37,
              "velocity": 79,
              "position": 11.083333333333334,
              "duration": 0.020833333333333332
            },
            {
              "pitch": 37,
              "velocity": 79,
              "position": 11.125,
              "duration": 0.5833333333333334
            },
            {
              "pitch": 36,
              "velocity": 79,
              "position": 11.875,
              "duration": 0.3333333333333333
            }
          ]
        },
        "14": {
          "ctab": {
            "srcChannel": 14,
            "name": "Alto Sax",
            "accType": "CHORD1",
            "editable": false,
            "mutedNotes": [],
            "mutedChords": [],
            "autoStart": false,
            "sourceChordNote": 0,
            "sourceChordType": "Maj7",
            "ctb2Low": null,
            "ctb2Main": {
              "ntr": "ROOT_TRANSPOSITION",
              "ntt": "CHORD",
              "bassOn": false,
              "chordRootUpperLimit": 6,
              "noteLowLimit": 0,
              "noteHighLimit": 79,
              "rtr": "PITCH_SHIFT"
            },
            "ctb2High": null,
            "ctb2MiddleLowPitch": 0,
            "ctb2MiddleHighPitch": 127
          },
          "notes": [
            {
              "pitch": 88,
              "velocity": 86,
              "position": 0.041666666666666664,
              "duration": 1.8333333333333333
            },
            {
              "pitch": 76,
              "velocity": 101,
              "position": 0.08333333333333333,
              "duration": 1.8541666666666667
            },
            {
              "pitch": 78,
              "velocity": 94,
              "position": 1.9583333333333333,
              "duration": 0.08333333333333333
            },
            {
              "pitch": 91,
              "velocity": 101,
              "position": 2,
              "duration": 0.7708333333333334
            },
            {
              "pitch": 79,
              "velocity": 127,
              "position": 2,
              "duration": 0.8333333333333334
            },
            {
              "pitch": 67,
              "velocity": 127,
              "position": 2,
              "duration": 0.9583333333333334
            },
            {
              "pitch": 89,
              "velocity": 92,
              "position": 3,
              "duration": 0.5
            },
            {
              "pitch": 77,
              "velocity": 105,
              "position": 3,
              "duration": 0.5208333333333334
            },
            {
              "pitch": 65,
              "velocity": 112,
              "position": 3.0416666666666665,
              "duration": 0.5833333333333334
            },
            {
              "pitch": 72,
              "velocity": 127,
              "position": 3.75,
              "duration": 1.4583333333333333
            },
            {
              "pitch": 84,
              "velocity": 95,
              "position": 3.75,
              "duration": 1.5833333333333333
            },
            {
              "pitch": 60,
              "velocity": 95,
              "position": 3.75,
              "duration": 1.7083333333333333
            },
            {
              "pitch": 95,
              "velocity": 77,
              "position": 5.958333333333333,
              "duration": 0.08333333333333333
            },
            {
              "pitch": 83,
              "velocity": 68,
              "position": 5.958333333333333,
              "duration": 0.10416666666666667
            },
            {
              "pitch": 74,
              "velocity": 101,
              "position": 6.041666666666667,
              "duration": 0.3333333333333333
            },
            {
              "pitch": 96,
              "velocity": 101,
              "position": 6.041666666666667,
              "duration": 0.6666666666666666
            },
            {
              "pitch": 84,
              "velocity": 118,
              "position": 6.083333333333333,
              "duration": 0.7083333333333334
            },
            {
              "pitch": 72,
              "velocity": 87,
              "position": 6,
              "duration": 0.875
            },
            {
              "pitch": 94,
              "velocity": 84,
              "position": 6.958333333333333,
              "duration": 0.5
            },
            {
              "pitch": 82,
              "velocity": 87,
              "position": 7,
              "duration": 0.5208333333333334
            },
            {
              "pitch": 70,
              "velocity": 123,
              "position": 7,
              "duration": 0.5625
            },
            {
              "pitch": 88,
              "velocity": 43,
              "position": 7.791666666666667,
              "duration": 0.020833333333333332
            },
            {
              "pitch": 79,
              "velocity": 127,
              "position": 7.75,
              "duration": 0.125
            },
            {
              "pitch": 77,
              "velocity": 123,
              "position": 7.75,
              "duration": 0.125
            },
            {
              "pitch": 72,
              "velocity": 56,
              "position": 7.791666666666667,
              "duration": 0.08333333333333333
            },
            {
              "pitch": 89,
              "velocity": 105,
              "position": 7.75,
              "duration": 0.14583333333333334
            },
            {
              "pitch": 62,
              "velocity": 105,
              "position": 7.75,
              "duration": 0.16666666666666666
            },
            {
              "pitch": 77,
              "velocity": 101,
              "position": 8.291666666666666,
              "duration": 0.125
            },
            {
              "pitch": 89,
              "velocity": 101,
              "position": 8.291666666666666,
              "duration": 0.14583333333333334
            },
            {
              "pitch": 72,
              "velocity": 80,
              "position": 8.333333333333334,
              "duration": 0.125
            },
            {
              "pitch": 62,
              "velocity": 87,
              "position": 8.333333333333334,
              "duration": 0.14583333333333334
            },
            {
              "pitch": 77,
              "velocity": 123,
              "position": 8.708333333333334,
              "duration": 0.14583333333333334
            },
            {
              "pitch": 89,
              "velocity": 92,
              "position": 8.75,
              "duration": 0.14583333333333334
            },
            {
              "pitch": 62,
              "velocity": 89,
              "position": 8.75,
              "duration": 0.14583333333333334
            },
            {
              "pitch": 72,
              "velocity": 87,
              "position": 8.75,
              "duration": 0.14583333333333334
            },
            {
              "pitch": 77,
              "velocity": 101,
              "position": 8.958333333333334,
              "duration": 0.20833333333333334
            },
            {
              "pitch": 89,
              "velocity": 89,
              "position": 8.958333333333334,
              "duration": 0.20833333333333334
            },
            {
              "pitch": 72,
              "velocity": 84,
              "position": 9.041666666666666,
              "duration": 0.16666666666666666
            },
            {
              "pitch": 62,
              "velocity": 95,
              "position": 9.041666666666666,
              "duration": 0.1875
            },
            {
              "pitch": 77,
              "velocity": 112,
              "position": 9.5,
              "duration": 0.16666666666666666
            },
            {
              "pitch": 89,
              "velocity": 95,
              "position": 9.5,
              "duration": 0.1875
            },
            {
              "pitch": 62,
              "velocity": 95,
              "position": 9.5,
              "duration": 0.1875
            },
            {
              "pitch": 72,
              "velocity": 92,
              "position": 9.5,
              "duration": 0.20833333333333334
            },
            {
              "pitch": 77,
              "velocity": 127,
              "position": 10.041666666666666,
              "duration": 0.14583333333333334
            },
            {
              "pitch": 72,
              "velocity": 118,
              "position": 10.083333333333334,
              "duration": 0.125
            },
            {
              "pitch": 89,
              "velocity": 127,
              "position": 10.041666666666666,
              "duration": 0.1875
            },
            {
              "pitch": 61,
              "velocity": 114,
              "position": 10.041666666666666,
              "duration": 0.20833333333333334
            },
            {
              "pitch": 72,
              "velocity": 123,
              "position": 11.041666666666666,
              "duration": 0.4791666666666667
            },
            {
              "pitch": 77,
              "velocity": 127,
              "position": 11.083333333333334,
              "duration": 0.4583333333333333
            },
            {
              "pitch": 89,
              "velocity": 127,
              "position": 11.041666666666666,
              "duration": 0.5208333333333334
            },
            {
              "pitch": 61,
              "velocity": 86,
              "position": 11,
              "duration": 0.6041666666666666
            },
            {
              "pitch": 66,
              "velocity": 77,
              "position": 11.75,
              "duration": 0.041666666666666664
            },
            {
              "pitch": 76,
              "velocity": 127,
              "position": 11.75,
              "duration": 0.16666666666666666
            }
          ]
        }
      }
    },
    "Ending_C": {
      "type": "Ending_C",
      "sizeInBeats": 16,
      "channels": {
        "0": {
          "ctab": {
            "srcChannel": 0,
            "name": "NylonGtr",
            "accType": "CHORD2",
            "editable": false,
            "mutedNotes": [],
            "mutedChords": [],
            "autoStart": false,
            "sourceChordNote": 0,
            "sourceChordType": "Maj7",
            "ctb2Low": null,
            "ctb2Main": {
              "ntr": "ROOT_TRANSPOSITION",
              "ntt": "CHORD",
              "bassOn": false,
              "chordRootUpperLimit": 6,
              "noteLowLimit": 0,
              "noteHighLimit": 127,
              "rtr": "PITCH_SHIFT"
            },
            "ctb2High": null,
            "ctb2MiddleLowPitch": 0,
            "ctb2MiddleHighPitch": 127
          },
          "notes": [
            {
              "pitch": 57,
              "velocity": 74,
              "position": 0.3333333333333333,
              "duration": 0.5416666666666666
            },
            {
              "pitch": 60,
              "velocity": 81,
              "position": 0.3333333333333333,
              "duration": 0.5416666666666666
            },
            {
              "pitch": 66,
              "velocity": 93,
              "position": 0.3333333333333333,
              "duration": 0.5833333333333334
            },
            {
              "pitch": 64,
              "velocity": 90,
              "position": 0.3333333333333333,
              "duration": 0.6041666666666666
            },
            {
              "pitch": 64,
              "velocity": 60,
              "position": 1.125,
              "duration": 0.10416666666666667
            },
            {
              "pitch": 57,
              "velocity": 57,
              "position": 1.125,
              "duration": 0.10416666666666667
            },
            {
              "pitch": 66,
              "velocity": 58,
              "position": 1.125,
              "duration": 0.125
            },
            {
              "pitch": 60,
              "velocity": 63,
              "position": 1.125,
              "duration": 0.125
            },
            {
              "pitch": 64,
              "velocity": 76,
              "position": 1.5416666666666667,
              "duration": 0.125
            },
            {
              "pitch": 66,
              "velocity": 81,
              "position": 1.5416666666666667,
              "duration": 0.14583333333333334
            },
            {
              "pitch": 60,
              "velocity": 55,
              "position": 1.5833333333333333,
              "duration": 0.10416666666666667
            },
            {
              "pitch": 57,
              "velocity": 67,
              "position": 1.5833333333333333,
              "duration": 0.16666666666666666
            },
            {
              "pitch": 60,
              "velocity": 50,
              "position": 2.0833333333333335,
              "duration": 0.08333333333333333
            },
            {
              "pitch": 62,
              "velocity": 73,
              "position": 2.0833333333333335,
              "duration": 0.08333333333333333
            },
            {
              "pitch": 67,
              "velocity": 67,
              "position": 2.0833333333333335,
              "duration": 0.10416666666666667
            },
            {
              "pitch": 56,
              "velocity": 50,
              "position": 2.125,
              "duration": 0.08333333333333333
            },
            {
              "pitch": 62,
              "velocity": 92,
              "position": 2.5416666666666665,
              "duration": 0.5
            },
            {
              "pitch": 56,
              "velocity": 69,
              "position": 2.5416666666666665,
              "duration": 0.6041666666666666
            },
            {
              "pitch": 67,
              "velocity": 84,
              "position": 2.5833333333333335,
              "duration": 0.5625
            },
            {
              "pitch": 60,
              "velocity": 69,
              "position": 2.5416666666666665,
              "duration": 0.6458333333333334
            },
            {
              "pitch": 67,
              "velocity": 71,
              "position": 3.3333333333333335,
              "duration": 0.16666666666666666
            },
            {
              "pitch": 62,
              "velocity": 72,
              "position": 3.3333333333333335,
              "duration": 0.16666666666666666
            },
            {
              "pitch": 56,
              "velocity": 70,
              "position": 3.375,
              "duration": 0.16666666666666666
            },
            {
              "pitch": 60,
              "velocity": 63,
              "position": 3.375,
              "duration": 0.16666666666666666
            },
            {
              "pitch": 60,
              "velocity": 79,
              "position": 3.7916666666666665,
              "duration": 0.16666666666666666
            },
            {
              "pitch": 64,
              "velocity": 90,
              "position": 4.333333333333333,
              "duration": 0.5208333333333334
            },
            {
              "pitch": 67,
              "velocity": 85,
              "position": 4.333333333333333,
              "duration": 0.5416666666666666
            },
            {
              "pitch": 72,
              "velocity": 81,
              "position": 4.333333333333333,
              "duration": 0.5625
            },
            {
              "pitch": 72,
              "velocity": 50,
              "position": 5.083333333333333,
              "duration": 0.10416666666666667
            },
            {
              "pitch": 64,
              "velocity": 52,
              "position": 5.083333333333333,
              "duration": 0.125
            },
            {
              "pitch": 67,
              "velocity": 64,
              "position": 5.083333333333333,
              "duration": 0.14583333333333334
            },
            {
              "pitch": 64,
              "velocity": 81,
              "position": 5.5,
              "duration": 0.14583333333333334
            },
            {
              "pitch": 72,
              "velocity": 63,
              "position": 5.541666666666667,
              "duration": 0.10416666666666667
            },
            {
              "pitch": 67,
              "velocity": 84,
              "position": 5.541666666666667,
              "duration": 0.125
            },
            {
              "pitch": 66,
              "velocity": 81,
              "position": 6.041666666666667,
              "duration": 0.10416666666666667
            },
            {
              "pitch": 72,
              "velocity": 69,
              "position": 6.041666666666667,
              "duration": 0.10416666666666667
            },
            {
              "pitch": 63,
              "velocity": 65,
              "position": 6,
              "duration": 0.16666666666666666
            },
            {
              "pitch": 63,
              "velocity": 76,
              "position": 6.5,
              "duration": 0.22916666666666666
            },
            {
              "pitch": 66,
              "velocity": 93,
              "position": 6.541666666666667,
              "duration": 0.20833333333333334
            },
            {
              "pitch": 72,
              "velocity": 79,
              "position": 6.541666666666667,
              "duration": 0.4583333333333333
            },
            {
              "pitch": 69,
              "velocity": 95,
              "position": 6.541666666666667,
              "duration": 0.4791666666666667
            },
            {
              "pitch": 63,
              "velocity": 57,
              "position": 7.083333333333333,
              "duration": 0.14583333333333334
            },
            {
              "pitch": 66,
              "velocity": 76,
              "position": 7.333333333333333,
              "duration": 0.16666666666666666
            },
            {
              "pitch": 69,
              "velocity": 78,
              "position": 7.333333333333333,
              "duration": 0.16666666666666666
            },
            {
              "pitch": 72,
              "velocity": 68,
              "position": 7.333333333333333,
              "duration": 0.1875
            },
            {
              "pitch": 60,
              "velocity": 79,
              "position": 7.833333333333333,
              "duration": 0.125
            },
            {
              "pitch": 60,
              "velocity": 63,
              "position": 8.333333333333334,
              "duration": 0.125
            },
            {
              "pitch": 64,
              "velocity": 60,
              "position": 8.333333333333334,
              "duration": 0.14583333333333334
            },
            {
              "pitch": 65,
              "velocity": 73,
              "position": 8.333333333333334,
              "duration": 0.14583333333333334
            },
            {
              "pitch": 69,
              "velocity": 70,
              "position": 8.333333333333334,
              "duration": 0.20833333333333334
            },
            {
              "pitch": 69,
              "velocity": 52,
              "position": 8.833333333333334,
              "duration": 0.0625
            },
            {
              "pitch": 64,
              "velocity": 59,
              "position": 8.75,
              "duration": 0.16666666666666666
            },
            {
              "pitch": 65,
              "velocity": 72,
              "position": 8.791666666666666,
              "duration": 0.125
            },
            {
              "pitch": 60,
              "velocity": 48,
              "position": 8.833333333333334,
              "duration": 0.10416666666666667
            },
            {
              "pitch": 66,
              "velocity": 69,
              "position": 9.083333333333334,
              "duration": 0.08333333333333333
            },
            {
              "pitch": 64,
              "velocity": 76,
              "position": 9.083333333333334,
              "duration": 0.1875
            },
            {
              "pitch": 60,
              "velocity": 76,
              "position": 9.083333333333334,
              "duration": 0.1875
            },
            {
              "pitch": 65,
              "velocity": 84,
              "position": 9.083333333333334,
              "duration": 0.20833333333333334
            },
            {
              "pitch": 69,
              "velocity": 78,
              "position": 9.083333333333334,
              "duration": 0.22916666666666666
            },
            {
              "pitch": 66,
              "velocity": 55,
              "position": 9.541666666666666,
              "duration": 0.14583333333333334
            },
            {
              "pitch": 60,
              "velocity": 66,
              "position": 9.541666666666666,
              "duration": 0.1875
            },
            {
              "pitch": 69,
              "velocity": 66,
              "position": 9.541666666666666,
              "duration": 0.20833333333333334
            },
            {
              "pitch": 65,
              "velocity": 68,
              "position": 9.541666666666666,
              "duration": 0.20833333333333334
            },
            {
              "pitch": 64,
              "velocity": 60,
              "position": 9.541666666666666,
              "duration": 0.22916666666666666
            },
            {
              "pitch": 67,
              "velocity": 73,
              "position": 10.083333333333334,
              "duration": 0.0625
            },
            {
              "pitch": 60,
              "velocity": 81,
              "position": 10.041666666666666,
              "duration": 0.14583333333333334
            },
            {
              "pitch": 63,
              "velocity": 94,
              "position": 10.041666666666666,
              "duration": 0.14583333333333334
            },
            {
              "pitch": 65,
              "velocity": 74,
              "position": 10.041666666666666,
              "duration": 0.1875
            },
            {
              "pitch": 68,
              "velocity": 82,
              "position": 10.041666666666666,
              "duration": 0.1875
            },
            {
              "pitch": 63,
              "velocity": 94,
              "position": 11.041666666666666,
              "duration": 0.16666666666666666
            },
            {
              "pitch": 65,
              "velocity": 98,
              "position": 11.041666666666666,
              "duration": 0.1875
            },
            {
              "pitch": 60,
              "velocity": 84,
              "position": 11.083333333333334,
              "duration": 0.14583333333333334
            },
            {
              "pitch": 68,
              "velocity": 88,
              "position": 11.041666666666666,
              "duration": 0.22916666666666666
            },
            {
              "pitch": 59,
              "velocity": 95,
              "position": 11.791666666666666,
              "duration": 0.6458333333333334
            },
            {
              "pitch": 62,
              "velocity": 85,
              "position": 11.75,
              "duration": 0.7291666666666666
            },
            {
              "pitch": 64,
              "velocity": 81,
              "position": 11.791666666666666,
              "duration": 0.7291666666666666
            },
            {
              "pitch": 67,
              "velocity": 90,
              "position": 11.791666666666666,
              "duration": 0.7708333333333334
            }
          ]
        },
        "2": {
          "ctab": {
            "srcChannel": 2,
            "name": "Strings1",
            "accType": "PAD",
            "editable": false,
            "mutedNotes": [],
            "mutedChords": [],
            "autoStart": false,
            "sourceChordNote": 0,
            "sourceChordType": "Maj7",
            "ctb2Low": null,
            "ctb2Main": {
              "ntr": "ROOT_TRANSPOSITION",
              "ntt": "CHORD",
              "bassOn": false,
              "chordRootUpperLimit": 6,
              "noteLowLimit": 0,
              "noteHighLimit": 127,
              "rtr": "PITCH_SHIFT"
            },
            "ctb2High": null,
            "ctb2MiddleLowPitch": 0,
            "ctb2MiddleHighPitch": 127
          },
          "notes": [
            {
              "pitch": 51,
              "velocity": 49,
              "position": 0,
              "duration": 2
            },
            {
              "pitch": 54,
              "velocity": 63,
              "position": 0,
              "duration": 2.1041666666666665
            },
            {
              "pitch": 61,
              "velocity": 84,
              "position": 0,
              "duration": 2.2916666666666665
            },
            {
              "pitch": 62,
              "velocity": 91,
              "position": 1.9583333333333333,
              "duration": 1.5208333333333333
            },
            {
              "pitch": 53,
              "velocity": 66,
              "position": 2,
              "duration": 1.5208333333333333
            },
            {
              "pitch": 56,
              "velocity": 74,
              "position": 2,
              "duration": 1.5208333333333333
            },
            {
              "pitch": 67,
              "velocity": 110,
              "position": 1.9583333333333333,
              "duration": 1.6041666666666667
            },
            {
              "pitch": 64,
              "velocity": 84,
              "position": 3.625,
              "duration": 2.1666666666666665
            },
            {
              "pitch": 52,
              "velocity": 67,
              "position": 3.5833333333333335,
              "duration": 2.3125
            },
            {
              "pitch": 60,
              "velocity": 80,
              "position": 3.625,
              "duration": 2.2708333333333335
            },
            {
              "pitch": 67,
              "velocity": 65,
              "position": 3.5833333333333335,
              "duration": 2.3333333333333335
            },
            {
              "pitch": 60,
              "velocity": 54,
              "position": 5.958333333333333,
              "duration": 1.5
            },
            {
              "pitch": 69,
              "velocity": 69,
              "position": 5.916666666666667,
              "duration": 1.625
            },
            {
              "pitch": 66,
              "velocity": 91,
              "position": 6,
              "duration": 1.5833333333333333
            },
            {
              "pitch": 51,
              "velocity": 74,
              "position": 5.958333333333333,
              "duration": 1.7083333333333333
            },
            {
              "pitch": 50,
              "velocity": 91,
              "position": 7.666666666666667,
              "duration": 1.7708333333333333
            },
            {
              "pitch": 60,
              "velocity": 87,
              "position": 7.666666666666667,
              "duration": 1.9583333333333333
            },
            {
              "pitch": 65,
              "velocity": 114,
              "position": 7.666666666666667,
              "duration": 2.0833333333333335
            },
            {
              "pitch": 69,
              "velocity": 88,
              "position": 7.666666666666667,
              "duration": 2.0833333333333335
            },
            {
              "pitch": 67,
              "velocity": 88,
              "position": 10,
              "duration": 0.0625
            },
            {
              "pitch": 65,
              "velocity": 123,
              "position": 9.958333333333334,
              "duration": 0.1875
            },
            {
              "pitch": 68,
              "velocity": 125,
              "position": 9.958333333333334,
              "duration": 0.22916666666666666
            },
            {
              "pitch": 49,
              "velocity": 101,
              "position": 9.958333333333334,
              "duration": 0.25
            },
            {
              "pitch": 60,
              "velocity": 100,
              "position": 9.958333333333334,
              "duration": 0.2708333333333333
            },
            {
              "pitch": 65,
              "velocity": 123,
              "position": 11,
              "duration": 0.3125
            },
            {
              "pitch": 68,
              "velocity": 114,
              "position": 11.041666666666666,
              "duration": 0.3125
            },
            {
              "pitch": 60,
              "velocity": 88,
              "position": 11.083333333333334,
              "duration": 0.2708333333333333
            },
            {
              "pitch": 49,
              "velocity": 84,
              "position": 11.041666666666666,
              "duration": 0.4375
            },
            {
              "pitch": 64,
              "velocity": 127,
              "position": 11.75,
              "duration": 0.20833333333333334
            },
            {
              "pitch": 67,
              "velocity": 123,
              "position": 11.75,
              "duration": 0.20833333333333334
            },
            {
              "pitch": 59,
              "velocity": 112,
              "position": 11.791666666666666,
              "duration": 0.16666666666666666
            },
            {
              "pitch": 48,
              "velocity": 74,
              "position": 11.791666666666666,
              "duration": 0.1875
            }
          ]
        },
        "8": {
          "ctab": {
            "srcChannel": 8,
            "name": "Std.Kit1",
            "accType": "RHYTHM",
            "editable": false,
            "mutedNotes": [],
            "mutedChords": [],
            "autoStart": true,
            "sourceChordNote": 0,
            "sourceChordType": "Maj7",
            "ctb2Low": null,
            "ctb2Main": {
              "ntr": "ROOT_FIXED",
              "ntt": "BYPASS",
              "bassOn": false,
              "chordRootUpperLimit": 6,
              "noteLowLimit": 0,
              "noteHighLimit": 127,
              "rtr": "PITCH_SHIFT"
            },
            "ctb2High": null,
            "ctb2MiddleLowPitch": 0,
            "ctb2MiddleHighPitch": 127
          },
          "notes": [
            {
              "pitch": 42,
              "velocity": 56,
              "position": 0.041666666666666664,
              "duration": 0.041666666666666664
            },
            {
              "pitch": 41,
              "velocity": 36,
              "position": 0.041666666666666664,
              "duration": 0.2708333333333333
            },
            {
              "pitch": 36,
              "velocity": 64,
              "position": 0.041666666666666664,
              "duration": 0.3125
            },
            {
              "pitch": 42,
              "velocity": 73,
              "position": 0.25,
              "duration": 0.10416666666666667
            },
            {
              "pitch": 44,
              "velocity": 68,
              "position": 0.25,
              "duration": 0.10416666666666667
            },
            {
              "pitch": 42,
              "velocity": 99,
              "position": 0.5,
              "duration": 0.125
            },
            {
              "pitch": 42,
              "velocity": 81,
              "position": 0.75,
              "duration": 0.08333333333333333
            },
            {
              "pitch": 44,
              "velocity": 61,
              "position": 1,
              "duration": 0.14583333333333334
            },
            {
              "pitch": 42,
              "velocity": 81,
              "position": 1.25,
              "duration": 0.08333333333333333
            },
            {
              "pitch": 44,
              "velocity": 59,
              "position": 1.5,
              "duration": 0.125
            },
            {
              "pitch": 42,
              "velocity": 105,
              "position": 1.5,
              "duration": 0.14583333333333334
            },
            {
              "pitch": 36,
              "velocity": 95,
              "position": 1,
              "duration": 0.6666666666666666
            },
            {
              "pitch": 42,
              "velocity": 70,
              "position": 1.75,
              "duration": 0.10416666666666667
            },
            {
              "pitch": 42,
              "velocity": 46,
              "position": 2,
              "duration": 0.0625
            },
            {
              "pitch": 44,
              "velocity": 55,
              "position": 2,
              "duration": 0.10416666666666667
            },
            {
              "pitch": 36,
              "velocity": 66,
              "position": 2,
              "duration": 0.3333333333333333
            },
            {
              "pitch": 42,
              "velocity": 88,
              "position": 2.25,
              "duration": 0.10416666666666667
            },
            {
              "pitch": 41,
              "velocity": 30,
              "position": 2.0416666666666665,
              "duration": 0.3333333333333333
            },
            {
              "pitch": 44,
              "velocity": 76,
              "position": 2.5,
              "duration": 0.14583333333333334
            },
            {
              "pitch": 42,
              "velocity": 78,
              "position": 2.75,
              "duration": 0.0625
            },
            {
              "pitch": 42,
              "velocity": 64,
              "position": 3,
              "duration": 0.10416666666666667
            },
            {
              "pitch": 44,
              "velocity": 50,
              "position": 3.25,
              "duration": 0.14583333333333334
            },
            {
              "pitch": 42,
              "velocity": 108,
              "position": 3.25,
              "duration": 0.14583333333333334
            },
            {
              "pitch": 36,
              "velocity": 95,
              "position": 3,
              "duration": 0.4583333333333333
            },
            {
              "pitch": 44,
              "velocity": 45,
              "position": 3.5,
              "duration": 0.10416666666666667
            },
            {
              "pitch": 42,
              "velocity": 88,
              "position": 3.75,
              "duration": 0.10416666666666667
            },
            {
              "pitch": 44,
              "velocity": 53,
              "position": 3.7916666666666665,
              "duration": 0.125
            },
            {
              "pitch": 42,
              "velocity": 37,
              "position": 4,
              "duration": 0.0625
            },
            {
              "pitch": 41,
              "velocity": 57,
              "position": 4,
              "duration": 0.3541666666666667
            },
            {
              "pitch": 36,
              "velocity": 76,
              "position": 4,
              "duration": 0.3541666666666667
            },
            {
              "pitch": 42,
              "velocity": 85,
              "position": 4.25,
              "duration": 0.10416666666666667
            },
            {
              "pitch": 44,
              "velocity": 71,
              "position": 4.25,
              "duration": 0.125
            },
            {
              "pitch": 44,
              "velocity": 55,
              "position": 4.5,
              "duration": 0.14583333333333334
            },
            {
              "pitch": 42,
              "velocity": 81,
              "position": 4.75,
              "duration": 0.0625
            },
            {
              "pitch": 44,
              "velocity": 55,
              "position": 5,
              "duration": 0.16666666666666666
            },
            {
              "pitch": 36,
              "velocity": 95,
              "position": 5,
              "duration": 0.2708333333333333
            },
            {
              "pitch": 42,
              "velocity": 85,
              "position": 5.25,
              "duration": 0.0625
            },
            {
              "pitch": 44,
              "velocity": 52,
              "position": 5.5,
              "duration": 0.041666666666666664
            },
            {
              "pitch": 44,
              "velocity": 49,
              "position": 5.541666666666667,
              "duration": 0.10416666666666667
            },
            {
              "pitch": 42,
              "velocity": 76,
              "position": 5.75,
              "duration": 0.0625
            },
            {
              "pitch": 42,
              "velocity": 66,
              "position": 6,
              "duration": 0.08333333333333333
            },
            {
              "pitch": 44,
              "velocity": 50,
              "position": 6,
              "duration": 0.10416666666666667
            },
            {
              "pitch": 42,
              "velocity": 88,
              "position": 6.25,
              "duration": 0.08333333333333333
            },
            {
              "pitch": 36,
              "velocity": 83,
              "position": 6,
              "duration": 0.4166666666666667
            },
            {
              "pitch": 41,
              "velocity": 45,
              "position": 6,
              "duration": 0.4375
            },
            {
              "pitch": 44,
              "velocity": 67,
              "position": 6.5,
              "duration": 0.14583333333333334
            },
            {
              "pitch": 42,
              "velocity": 81,
              "position": 6.75,
              "duration": 0.0625
            },
            {
              "pitch": 42,
              "velocity": 50,
              "position": 7,
              "duration": 0.0625
            },
            {
              "pitch": 42,
              "velocity": 105,
              "position": 7.25,
              "duration": 0.10416666666666667
            },
            {
              "pitch": 44,
              "velocity": 59,
              "position": 7.25,
              "duration": 0.14583333333333334
            },
            {
              "pitch": 36,
              "velocity": 95,
              "position": 7,
              "duration": 0.4375
            },
            {
              "pitch": 44,
              "velocity": 28,
              "position": 7.5,
              "duration": 0.0625
            },
            {
              "pitch": 42,
              "velocity": 95,
              "position": 7.75,
              "duration": 0.10416666666666667
            },
            {
              "pitch": 44,
              "velocity": 63,
              "position": 7.75,
              "duration": 0.14583333333333334
            },
            {
              "pitch": 36,
              "velocity": 95,
              "position": 8,
              "duration": 0.14583333333333334
            },
            {
              "pitch": 38,
              "velocity": 66,
              "position": 8.25,
              "duration": 0.125
            },
            {
              "pitch": 38,
              "velocity": 41,
              "position": 8.75,
              "duration": 0.08333333333333333
            },
            {
              "pitch": 38,
              "velocity": 56,
              "position": 9,
              "duration": 0.14583333333333334
            },
            {
              "pitch": 38,
              "velocity": 56,
              "position": 9.5,
              "duration": 0.125
            },
            {
              "pitch": 38,
              "velocity": 66,
              "position": 10.041666666666666,
              "duration": 0.14583333333333334
            },
            {
              "pitch": 48,
              "velocity": 61,
              "position": 10.041666666666666,
              "duration": 0.14583333333333334
            },
            {
              "pitch": 36,
              "velocity": 95,
              "position": 10,
              "duration": 0.20833333333333334
            },
            {
              "pitch": 41,
              "velocity": 74,
              "position": 10.291666666666666,
              "duration": 0.14583333333333334
            },
            {
              "pitch": 45,
              "velocity": 87,
              "position": 10.541666666666666,
              "duration": 0.0625
            },
            {
              "pitch": 41,
              "velocity": 74,
              "position": 10.75,
              "duration": 0.10416666666666667
            },
            {
              "pitch": 36,
              "velocity": 95,
              "position": 11.041666666666666,
              "duration": 0.4583333333333333
            },
            {
              "pitch": 38,
              "velocity": 66,
              "position": 11.083333333333334,
              "duration": 0.4791666666666667
            },
            {
              "pitch": 46,
              "velocity": 111,
              "position": 11.125,
              "duration": 0.7916666666666666
            },
            {
              "pitch": 35,
              "velocity": 76,
              "position": 11.833333333333334,
              "duration": 0.10416666666666667
            },
            {
              "pitch": 38,
              "velocity": 66,
              "position": 11.791666666666666,
              "duration": 0.1875
            },
            {
              "pitch": 36,
              "velocity": 95,
              "position": 11.791666666666666,
              "duration": 0.1875
            },
            {
              "pitch": 42,
              "velocity": 118,
              "position": 11.875,
              "duration": 0.1875
            }
          ]
        },
        "10": {
          "ctab": {
            "srcChannel": 10,
            "name": "Std.Kit1",
            "accType": "SUBRHYTHM",
            "editable": false,
            "mutedNotes": [],
            "mutedChords": [],
            "autoStart": true,
            "sourceChordNote": 0,
            "sourceChordType": "Maj7",
            "ctb2Low": null,
            "ctb2Main": {
              "ntr": "ROOT_FIXED",
              "ntt": "BYPASS",
              "bassOn": false,
              "chordRootUpperLimit": 6,
              "noteLowLimit": 0,
              "noteHighLimit": 127,
              "rtr": "PITCH_SHIFT"
            },
            "ctb2High": null,
            "ctb2MiddleLowPitch": 0,
            "ctb2MiddleHighPitch": 127
          },
          "notes": [
            {
              "pitch": 69,
              "velocity": 127,
              "position": 0.041666666666666664,
              "duration": 0.10416666666666667
            },
            {
              "pitch": 69,
              "velocity": 45,
              "position": 0.25,
              "duration": 0.125
            },
            {
              "pitch": 62,
              "velocity": 86,
              "position": 0.041666666666666664,
              "duration": 0.3541666666666667
            },
            {
              "pitch": 69,
              "velocity": 32,
              "position": 0.5,
              "duration": 0.10416666666666667
            },
            {
              "pitch": 62,
              "velocity": 86,
              "position": 0.5,
              "duration": 0.125
            },
            {
              "pitch": 69,
              "velocity": 30,
              "position": 0.75,
              "duration": 0.14583333333333334
            },
            {
              "pitch": 62,
              "velocity": 87,
              "position": 0.75,
              "duration": 0.22916666666666666
            },
            {
              "pitch": 62,
              "velocity": 96,
              "position": 1,
              "duration": 0.125
            },
            {
              "pitch": 69,
              "velocity": 97,
              "position": 1,
              "duration": 0.1875
            },
            {
              "pitch": 69,
              "velocity": 15,
              "position": 1.25,
              "duration": 0.14583333333333334
            },
            {
              "pitch": 62,
              "velocity": 78,
              "position": 1.5,
              "duration": 0.020833333333333332
            },
            {
              "pitch": 69,
              "velocity": 33,
              "position": 1.5,
              "duration": 0.125
            },
            {
              "pitch": 62,
              "velocity": 87,
              "position": 1.5416666666666667,
              "duration": 0.20833333333333334
            },
            {
              "pitch": 69,
              "velocity": 16,
              "position": 1.75,
              "duration": 0.125
            },
            {
              "pitch": 62,
              "velocity": 86,
              "position": 2,
              "duration": 0.020833333333333332
            },
            {
              "pitch": 69,
              "velocity": 92,
              "position": 2.0416666666666665,
              "duration": 0.14583333333333334
            },
            {
              "pitch": 69,
              "velocity": 16,
              "position": 2.25,
              "duration": 0.125
            },
            {
              "pitch": 62,
              "velocity": 99,
              "position": 2.0416666666666665,
              "duration": 0.375
            },
            {
              "pitch": 69,
              "velocity": 26,
              "position": 2.5,
              "duration": 0.08333333333333333
            },
            {
              "pitch": 69,
              "velocity": 47,
              "position": 2.75,
              "duration": 0.125
            },
            {
              "pitch": 62,
              "velocity": 92,
              "position": 2.75,
              "duration": 0.1875
            },
            {
              "pitch": 69,
              "velocity": 73,
              "position": 3,
              "duration": 0.14583333333333334
            },
            {
              "pitch": 62,
              "velocity": 99,
              "position": 3,
              "duration": 0.16666666666666666
            },
            {
              "pitch": 62,
              "velocity": 99,
              "position": 3.25,
              "duration": 0.020833333333333332
            },
            {
              "pitch": 69,
              "velocity": 15,
              "position": 3.25,
              "duration": 0.125
            },
            {
              "pitch": 62,
              "velocity": 87,
              "position": 3.2916666666666665,
              "duration": 0.16666666666666666
            },
            {
              "pitch": 69,
              "velocity": 33,
              "position": 3.5,
              "duration": 0.10416666666666667
            },
            {
              "pitch": 62,
              "velocity": 86,
              "position": 3.75,
              "duration": 0.005208333333333333
            },
            {
              "pitch": 69,
              "velocity": 22,
              "position": 3.75,
              "duration": 0.08333333333333333
            },
            {
              "pitch": 62,
              "velocity": 96,
              "position": 3.7916666666666665,
              "duration": 0.125
            },
            {
              "pitch": 69,
              "velocity": 110,
              "position": 4,
              "duration": 0.16666666666666666
            },
            {
              "pitch": 69,
              "velocity": 35,
              "position": 4.25,
              "duration": 0.10416666666666667
            },
            {
              "pitch": 62,
              "velocity": 85,
              "position": 4.25,
              "duration": 0.16666666666666666
            },
            {
              "pitch": 69,
              "velocity": 28,
              "position": 4.5,
              "duration": 0.08333333333333333
            },
            {
              "pitch": 60,
              "velocity": 76,
              "position": 4.5,
              "duration": 0.20833333333333334
            },
            {
              "pitch": 69,
              "velocity": 53,
              "position": 4.75,
              "duration": 0.125
            },
            {
              "pitch": 62,
              "velocity": 107,
              "position": 4.75,
              "duration": 0.125
            },
            {
              "pitch": 62,
              "velocity": 82,
              "position": 5,
              "duration": 0.020833333333333332
            },
            {
              "pitch": 61,
              "velocity": 51,
              "position": 4.75,
              "duration": 0.2916666666666667
            },
            {
              "pitch": 69,
              "velocity": 71,
              "position": 5,
              "duration": 0.125
            },
            {
              "pitch": 62,
              "velocity": 87,
              "position": 5.041666666666667,
              "duration": 0.16666666666666666
            },
            {
              "pitch": 69,
              "velocity": 40,
              "position": 5.25,
              "duration": 0.125
            },
            {
              "pitch": 69,
              "velocity": 47,
              "position": 5.541666666666667,
              "duration": 0.08333333333333333
            },
            {
              "pitch": 62,
              "velocity": 92,
              "position": 5.5,
              "duration": 0.16666666666666666
            },
            {
              "pitch": 69,
              "velocity": 77,
              "position": 5.75,
              "duration": 0.10416666666666667
            },
            {
              "pitch": 69,
              "velocity": 86,
              "position": 6,
              "duration": 0.16666666666666666
            },
            {
              "pitch": 62,
              "velocity": 99,
              "position": 6,
              "duration": 0.2708333333333333
            },
            {
              "pitch": 69,
              "velocity": 26,
              "position": 6.25,
              "duration": 0.125
            },
            {
              "pitch": 69,
              "velocity": 22,
              "position": 6.5,
              "duration": 0.0625
            },
            {
              "pitch": 62,
              "velocity": 99,
              "position": 6.5,
              "duration": 0.1875
            },
            {
              "pitch": 69,
              "velocity": 62,
              "position": 6.75,
              "duration": 0.125
            },
            {
              "pitch": 62,
              "velocity": 99,
              "position": 6.75,
              "duration": 0.14583333333333334
            },
            {
              "pitch": 62,
              "velocity": 114,
              "position": 7,
              "duration": 0.125
            },
            {
              "pitch": 69,
              "velocity": 92,
              "position": 7,
              "duration": 0.125
            },
            {
              "pitch": 69,
              "velocity": 33,
              "position": 7.25,
              "duration": 0.10416666666666667
            },
            {
              "pitch": 62,
              "velocity": 85,
              "position": 7.25,
              "duration": 0.16666666666666666
            },
            {
              "pitch": 69,
              "velocity": 15,
              "position": 7.5,
              "duration": 0.08333333333333333
            },
            {
              "pitch": 62,
              "velocity": 99,
              "position": 7.75,
              "duration": 0.020833333333333332
            },
            {
              "pitch": 69,
              "velocity": 56,
              "position": 7.75,
              "duration": 0.125
            },
            {
              "pitch": 62,
              "velocity": 96,
              "position": 7.791666666666667,
              "duration": 0.16666666666666666
            }
          ]
        },
        "12": {
          "ctab": {
            "srcChannel": 12,
            "name": "FngrBass",
            "accType": "BASS",
            "editable": false,
            "mutedNotes": [],
            "mutedChords": [],
            "autoStart": false,
            "sourceChordNote": 0,
            "sourceChordType": "Maj7",
            "ctb2Low": null,
            "ctb2Main": {
              "ntr": "ROOT_TRANSPOSITION",
              "ntt": "MELODY",
              "bassOn": true,
              "chordRootUpperLimit": 3,
              "noteLowLimit": 28,
              "noteHighLimit": 54,
              "rtr": "PITCH_SHIFT_TO_ROOT"
            },
            "ctb2High": null,
            "ctb2MiddleLowPitch": 0,
            "ctb2MiddleHighPitch": 127
          },
          "notes": [
            {
              "pitch": 42,
              "velocity": 70,
              "position": 0,
              "duration": 0.8333333333333334
            },
            {
              "pitch": 42,
              "velocity": 75,
              "position": 1,
              "duration": 0.10416666666666667
            },
            {
              "pitch": 42,
              "velocity": 79,
              "position": 1.5,
              "duration": 0.3541666666666667
            },
            {
              "pitch": 41,
              "velocity": 58,
              "position": 2,
              "duration": 0.8125
            },
            {
              "pitch": 48,
              "velocity": 44,
              "position": 3,
              "duration": 0.1875
            },
            {
              "pitch": 41,
              "velocity": 58,
              "position": 3.25,
              "duration": 0.25
            },
            {
              "pitch": 40,
              "velocity": 75,
              "position": 3.75,
              "duration": 1.1041666666666667
            },
            {
              "pitch": 48,
              "velocity": 44,
              "position": 5,
              "duration": 0.125
            },
            {
              "pitch": 40,
              "velocity": 66,
              "position": 5.5,
              "duration": 0.3125
            },
            {
              "pitch": 39,
              "velocity": 64,
              "position": 6,
              "duration": 0.6458333333333334
            },
            {
              "pitch": 39,
              "velocity": 73,
              "position": 7,
              "duration": 0.6875
            },
            {
              "pitch": 38,
              "velocity": 58,
              "position": 7.75,
              "duration": 0.3541666666666667
            },
            {
              "pitch": 38,
              "velocity": 79,
              "position": 8.333333333333334,
              "duration": 0.16666666666666666
            },
            {
              "pitch": 38,
              "velocity": 76,
              "position": 8.75,
              "duration": 0.125
            },
            {
              "pitch": 38,
              "velocity": 70,
              "position": 9.083333333333334,
              "duration": 0.14583333333333334
            },
            {
              "pitch": 38,
              "velocity": 55,
              "position": 9.458333333333334,
              "duration": 0.20833333333333334
            },
            {
              "pitch": 37,
              "velocity": 79,
              "position": 10,
              "duration": 0.3958333333333333
            },
            {
              "pitch": 37,
              "velocity": 79,
              "position": 11.083333333333334,
              "duration": 0.020833333333333332
            },
            {
              "pitch": 37,
              "velocity": 79,
              "position": 11.125,
              "duration": 0.5833333333333334
            },
            {
              "pitch": 36,
              "velocity": 79,
              "position": 11.875,
              "duration": 0.3333333333333333
            }
          ]
        },
        "14": {
          "ctab": {
            "srcChannel": 14,
            "name": "Alto Sax",
            "accType": "CHORD1",
            "editable": false,
            "mutedNotes": [],
            "mutedChords": [],
            "autoStart": false,
            "sourceChordNote": 0,
            "sourceChordType": "Maj7",
            "ctb2Low": null,
            "ctb2Main": {
              "ntr": "ROOT_TRANSPOSITION",
              "ntt": "CHORD",
              "bassOn": false,
              "chordRootUpperLimit": 6,
              "noteLowLimit": 0,
              "noteHighLimit": 79,
              "rtr": "PITCH_SHIFT"
            },
            "ctb2High": null,
            "ctb2MiddleLowPitch": 0,
            "ctb2MiddleHighPitch": 127
          },
          "notes": [
            {
              "pitch": 88,
              "velocity": 86,
              "position": 0.041666666666666664,
              "duration": 1.8333333333333333
            },
            {
              "pitch": 76,
              "velocity": 101,
              "position": 0.08333333333333333,
              "duration": 1.8541666666666667
            },
            {
              "pitch": 78,
              "velocity": 94,
              "position": 1.9583333333333333,
              "duration": 0.08333333333333333
            },
            {
              "pitch": 91,
              "velocity": 101,
              "position": 2,
              "duration": 0.7708333333333334
            },
            {
              "pitch": 79,
              "velocity": 127,
              "position": 2,
              "duration": 0.8333333333333334
            },
            {
              "pitch": 67,
              "velocity": 127,
              "position": 2,
              "duration": 0.9583333333333334
            },
            {
              "pitch": 89,
              "velocity": 92,
              "position": 3,
              "duration": 0.5
            },
            {
              "pitch": 77,
              "velocity": 105,
              "position": 3,
              "duration": 0.5208333333333334
            },
            {
              "pitch": 65,
              "velocity": 112,
              "position": 3.0416666666666665,
              "duration": 0.5833333333333334
            },
            {
              "pitch": 72,
              "velocity": 127,
              "position": 3.75,
              "duration": 1.4583333333333333
            },
            {
              "pitch": 84,
              "velocity": 95,
              "position": 3.75,
              "duration": 1.5833333333333333
            },
            {
              "pitch": 60,
              "velocity": 95,
              "position": 3.75,
              "duration": 1.7083333333333333
            },
            {
              "pitch": 95,
              "velocity": 77,
              "position": 5.958333333333333,
              "duration": 0.08333333333333333
            },
            {
              "pitch": 83,
              "velocity": 68,
              "position": 5.958333333333333,
              "duration": 0.10416666666666667
            },
            {
              "pitch": 74,
              "velocity": 101,
              "position": 6.041666666666667,
              "duration": 0.3333333333333333
            },
            {
              "pitch": 96,
              "velocity": 101,
              "position": 6.041666666666667,
              "duration": 0.6666666666666666
            },
            {
              "pitch": 84,
              "velocity": 118,
              "position": 6.083333333333333,
              "duration": 0.7083333333333334
            },
            {
              "pitch": 72,
              "velocity": 87,
              "position": 6,
              "duration": 0.875
            },
            {
              "pitch": 94,
              "velocity": 84,
              "position": 6.958333333333333,
              "duration": 0.5
            },
            {
              "pitch": 82,
              "velocity": 87,
              "position": 7,
              "duration": 0.5208333333333334
            },
            {
              "pitch": 70,
              "velocity": 123,
              "position": 7,
              "duration": 0.5625
            },
            {
              "pitch": 88,
              "velocity": 43,
              "position": 7.791666666666667,
              "duration": 0.020833333333333332
            },
            {
              "pitch": 79,
              "velocity": 127,
              "position": 7.75,
              "duration": 0.125
            },
            {
              "pitch": 77,
              "velocity": 123,
              "position": 7.75,
              "duration": 0.125
            },
            {
              "pitch": 72,
              "velocity": 56,
              "position": 7.791666666666667,
              "duration": 0.08333333333333333
            },
            {
              "pitch": 89,
              "velocity": 105,
              "position": 7.75,
              "duration": 0.14583333333333334
            },
            {
              "pitch": 62,
              "velocity": 105,
              "position": 7.75,
              "duration": 0.16666666666666666
            },
            {
              "pitch": 77,
              "velocity": 101,
              "position": 8.291666666666666,
              "duration": 0.125
            },
            {
              "pitch": 89,
              "velocity": 101,
              "position": 8.291666666666666,
              "duration": 0.14583333333333334
            },
            {
              "pitch": 72,
              "velocity": 80,
              "position": 8.333333333333334,
              "duration": 0.125
            },
            {
              "pitch": 62,
              "velocity": 87,
              "position": 8.333333333333334,
              "duration": 0.14583333333333334
            },
            {
              "pitch": 77,
              "velocity": 123,
              "position": 8.708333333333334,
              "duration": 0.14583333333333334
            },
            {
              "pitch": 89,
              "velocity": 92,
              "position": 8.75,
              "duration": 0.14583333333333334
            },
            {
              "pitch": 62,
              "velocity": 89,
              "position": 8.75,
              "duration": 0.14583333333333334
            },
            {
              "pitch": 72,
              "velocity": 87,
              "position": 8.75,
              "duration": 0.14583333333333334
            },
            {
              "pitch": 77,
              "velocity": 101,
              "position": 8.958333333333334,
              "duration": 0.20833333333333334
            },
            {
              "pitch": 89,
              "velocity": 89,
              "position": 8.958333333333334,
              "duration": 0.20833333333333334
            },
            {
              "pitch": 72,
              "velocity": 84,
              "position": 9.041666666666666,
              "duration": 0.16666666666666666
            },
            {
              "pitch": 62,
              "velocity": 95,
              "position": 9.041666666666666,
              "duration": 0.1875
            },
            {
              "pitch": 77,
              "velocity": 112,
              "position": 9.5,
              "duration": 0.16666666666666666
            },
            {
              "pitch": 89,
              "velocity": 95,
              "position": 9.5,
              "duration": 0.1875
            },
            {
              "pitch": 62,
              "velocity": 95,
              "position": 9.5,
              "duration": 0.1875
            },
            {
              "pitch": 72,
              "velocity": 92,
              "position": 9.5,
              "duration": 0.20833333333333334
            },
            {
              "pitch": 77,
              "velocity": 127,
              "position": 10.041666666666666,
              "duration": 0.14583333333333334
            },
            {
              "pitch": 72,
              "velocity": 118,
              "position": 10.083333333333334,
              "duration": 0.125
            },
            {
              "pitch": 89,
              "velocity": 127,
              "position": 10.041666666666666,
              "duration": 0.1875
            },
            {
              "pitch": 61,
              "velocity": 114,
              "position": 10.041666666666666,
              "duration": 0.20833333333333334
            },
            {
              "pitch": 72,
              "velocity": 123,
              "position": 11.041666666666666,
              "duration": 0.4791666666666667
            },
            {
              "pitch": 77,
              "velocity": 127,
              "position": 11.083333333333334,
              "duration": 0.4583333333333333
            },
            {
              "pitch": 89,
              "velocity": 127,
              "position": 11.041666666666666,
              "duration": 0.5208333333333334
            },
            {
              "pitch": 61,
              "velocity": 86,
              "position": 11,
              "duration": 0.6041666666666666
            },
            {
              "pitch": 66,
              "velocity": 77,
              "position": 11.75,
              "duration": 0.041666666666666664
            },
            {
              "pitch": 76,
              "velocity": 127,
              "position": 11.75,
              "duration": 0.16666666666666666
            }
          ]
        }
      }
    },
    "Fill_In_AA": {
      "type": "Fill_In_AA",
      "sizeInBeats": 4,
      "channels": {
        "0": {
          "ctab": {
            "srcChannel": 0,
            "name": "NylonGtr",
            "accType": "CHORD2",
            "editable": false,
            "mutedNotes": [],
            "mutedChords": [],
            "autoStart": false,
            "sourceChordNote": 0,
            "sourceChordType": "Maj7",
            "ctb2Low": null,
            "ctb2Main": {
              "ntr": "ROOT_TRANSPOSITION",
              "ntt": "CHORD",
              "bassOn": false,
              "chordRootUpperLimit": 6,
              "noteLowLimit": 0,
              "noteHighLimit": 127,
              "rtr": "PITCH_SHIFT"
            },
            "ctb2High": null,
            "ctb2MiddleLowPitch": 0,
            "ctb2MiddleHighPitch": 127
          },
          "notes": [
            {
              "pitch": 68,
              "velocity": 100,
              "position": 3,
              "duration": 0.9583333333333334
            },
            {
              "pitch": 65,
              "velocity": 100,
              "position": 3,
              "duration": 0.9791666666666666
            },
            {
              "pitch": 61,
              "velocity": 100,
              "position": 3,
              "duration": 0.9791666666666666
            },
            {
              "pitch": 75,
              "velocity": 100,
              "position": 3,
              "duration": 1
            }
          ]
        },
        "4": {
          "ctab": {
            "srcChannel": 4,
            "name": "Chor.EP2",
            "accType": "PHRASE1",
            "editable": false,
            "mutedNotes": [],
            "mutedChords": [],
            "autoStart": false,
            "sourceChordNote": 0,
            "sourceChordType": "Maj7",
            "ctb2Low": null,
            "ctb2Main": {
              "ntr": "ROOT_TRANSPOSITION",
              "ntt": "CHORD",
              "bassOn": false,
              "chordRootUpperLimit": 6,
              "noteLowLimit": 0,
              "noteHighLimit": 127,
              "rtr": "PITCH_SHIFT"
            },
            "ctb2High": null,
            "ctb2MiddleLowPitch": 0,
            "ctb2MiddleHighPitch": 127
          },
          "notes": [
            {
              "pitch": 67,
              "velocity": 90,
              "position": 0.25,
              "duration": 0.10416666666666667
            },
            {
              "pitch": 64,
              "velocity": 90,
              "position": 0.25,
              "duration": 0.125
            },
            {
              "pitch": 74,
              "velocity": 93,
              "position": 0.25,
              "duration": 0.14583333333333334
            },
            {
              "pitch": 60,
              "velocity": 89,
              "position": 0.25,
              "duration": 0.14583333333333334
            },
            {
              "pitch": 67,
              "velocity": 110,
              "position": 0.75,
              "duration": 0.10416666666666667
            },
            {
              "pitch": 74,
              "velocity": 93,
              "position": 0.75,
              "duration": 0.10416666666666667
            },
            {
              "pitch": 64,
              "velocity": 98,
              "position": 0.75,
              "duration": 0.125
            },
            {
              "pitch": 60,
              "velocity": 93,
              "position": 0.75,
              "duration": 0.16666666666666666
            },
            {
              "pitch": 58,
              "velocity": 108,
              "position": 1.25,
              "duration": 0.22916666666666666
            },
            {
              "pitch": 65,
              "velocity": 94,
              "position": 1.5,
              "duration": 0.375
            },
            {
              "pitch": 62,
              "velocity": 90,
              "position": 1.5,
              "duration": 0.3958333333333333
            },
            {
              "pitch": 74,
              "velocity": 91,
              "position": 1.5,
              "duration": 0.4375
            },
            {
              "pitch": 70,
              "velocity": 90,
              "position": 1.5,
              "duration": 0.4895833333333333
            },
            {
              "pitch": 70,
              "velocity": 88,
              "position": 2,
              "duration": 0.020833333333333332
            },
            {
              "pitch": 67,
              "velocity": 104,
              "position": 2,
              "duration": 0.125
            },
            {
              "pitch": 64,
              "velocity": 98,
              "position": 2,
              "duration": 0.125
            },
            {
              "pitch": 57,
              "velocity": 90,
              "position": 2,
              "duration": 0.14583333333333334
            },
            {
              "pitch": 73,
              "velocity": 90,
              "position": 2,
              "duration": 0.14583333333333334
            }
          ]
        },
        "8": {
          "ctab": {
            "srcChannel": 8,
            "name": "Std.Kit1",
            "accType": "RHYTHM",
            "editable": false,
            "mutedNotes": [],
            "mutedChords": [],
            "autoStart": true,
            "sourceChordNote": 0,
            "sourceChordType": "Maj7",
            "ctb2Low": null,
            "ctb2Main": {
              "ntr": "ROOT_FIXED",
              "ntt": "BYPASS",
              "bassOn": false,
              "chordRootUpperLimit": 6,
              "noteLowLimit": 0,
              "noteHighLimit": 127,
              "rtr": "PITCH_SHIFT"
            },
            "ctb2High": null,
            "ctb2MiddleLowPitch": 0,
            "ctb2MiddleHighPitch": 127
          },
          "notes": [
            {
              "pitch": 42,
              "velocity": 79,
              "position": 0,
              "duration": 0.10416666666666667
            },
            {
              "pitch": 46,
              "velocity": 58,
              "position": 0.25,
              "duration": 0.14583333333333334
            },
            {
              "pitch": 36,
              "velocity": 95,
              "position": 0,
              "duration": 0.5
            },
            {
              "pitch": 42,
              "velocity": 61,
              "position": 0.5,
              "duration": 0.125
            },
            {
              "pitch": 42,
              "velocity": 49,
              "position": 0.75,
              "duration": 0.125
            },
            {
              "pitch": 44,
              "velocity": 22,
              "position": 0.75,
              "duration": 0.125
            },
            {
              "pitch": 42,
              "velocity": 63,
              "position": 1,
              "duration": 0.0625
            },
            {
              "pitch": 44,
              "velocity": 87,
              "position": 1,
              "duration": 0.1875
            },
            {
              "pitch": 42,
              "velocity": 46,
              "position": 1.25,
              "duration": 0.125
            },
            {
              "pitch": 42,
              "velocity": 71,
              "position": 1.5,
              "duration": 0.041666666666666664
            },
            {
              "pitch": 45,
              "velocity": 44,
              "position": 1.5,
              "duration": 0.375
            },
            {
              "pitch": 46,
              "velocity": 65,
              "position": 2,
              "duration": 0.0625
            },
            {
              "pitch": 42,
              "velocity": 110,
              "position": 2.25,
              "duration": 0.0625
            },
            {
              "pitch": 41,
              "velocity": 45,
              "position": 2,
              "duration": 0.3541666666666667
            },
            {
              "pitch": 36,
              "velocity": 93,
              "position": 2.75,
              "duration": 0.08333333333333333
            },
            {
              "pitch": 40,
              "velocity": 62,
              "position": 3,
              "duration": 0.020833333333333332
            },
            {
              "pitch": 49,
              "velocity": 56,
              "position": 3.9583333333333335,
              "duration": 0.041666666666666664
            }
          ]
        },
        "12": {
          "ctab": {
            "srcChannel": 12,
            "name": "FngrBass",
            "accType": "BASS",
            "editable": false,
            "mutedNotes": [],
            "mutedChords": [],
            "autoStart": false,
            "sourceChordNote": 0,
            "sourceChordType": "Maj7",
            "ctb2Low": null,
            "ctb2Main": {
              "ntr": "ROOT_TRANSPOSITION",
              "ntt": "MELODY",
              "bassOn": true,
              "chordRootUpperLimit": 3,
              "noteLowLimit": 28,
              "noteHighLimit": 54,
              "rtr": "PITCH_SHIFT_TO_ROOT"
            },
            "ctb2High": null,
            "ctb2MiddleLowPitch": 0,
            "ctb2MiddleHighPitch": 127
          },
          "notes": [
            {
              "pitch": 36,
              "velocity": 79,
              "position": 0,
              "duration": 0.3958333333333333
            },
            {
              "pitch": 31,
              "velocity": 50,
              "position": 1.25,
              "duration": 0.14583333333333334
            },
            {
              "pitch": 34,
              "velocity": 73,
              "position": 1.5,
              "duration": 0.4791666666666667
            },
            {
              "pitch": 33,
              "velocity": 45,
              "position": 2,
              "duration": 0.3125
            },
            {
              "pitch": 37,
              "velocity": 75,
              "position": 3,
              "duration": 0.7916666666666666
            }
          ]
        },
        "14": {
          "ctab": {
            "srcChannel": 14,
            "name": "E.Grand",
            "accType": "CHORD1",
            "editable": false,
            "mutedNotes": [],
            "mutedChords": [],
            "autoStart": false,
            "sourceChordNote": 0,
            "sourceChordType": "Maj7",
            "ctb2Low": null,
            "ctb2Main": {
              "ntr": "ROOT_TRANSPOSITION",
              "ntt": "CHORD",
              "bassOn": false,
              "chordRootUpperLimit": 6,
              "noteLowLimit": 0,
              "noteHighLimit": 127,
              "rtr": "PITCH_SHIFT"
            },
            "ctb2High": null,
            "ctb2MiddleLowPitch": 0,
            "ctb2MiddleHighPitch": 127
          },
          "notes": [
            {
              "pitch": 70,
              "velocity": 58,
              "position": 0,
              "duration": 0.0625
            },
            {
              "pitch": 64,
              "velocity": 105,
              "position": 0,
              "duration": 0.25
            },
            {
              "pitch": 67,
              "velocity": 122,
              "position": 0,
              "duration": 0.2708333333333333
            },
            {
              "pitch": 74,
              "velocity": 105,
              "position": 0,
              "duration": 0.2708333333333333
            },
            {
              "pitch": 60,
              "velocity": 105,
              "position": 0,
              "duration": 0.3333333333333333
            },
            {
              "pitch": 73,
              "velocity": 74,
              "position": 1.5,
              "duration": 0.020833333333333332
            },
            {
              "pitch": 67,
              "velocity": 50,
              "position": 1.5,
              "duration": 0.041666666666666664
            },
            {
              "pitch": 68,
              "velocity": 77,
              "position": 1.5,
              "duration": 0.0625
            },
            {
              "pitch": 65,
              "velocity": 107,
              "position": 1.5,
              "duration": 0.3541666666666667
            },
            {
              "pitch": 74,
              "velocity": 100,
              "position": 1.5,
              "duration": 0.4166666666666667
            },
            {
              "pitch": 70,
              "velocity": 122,
              "position": 1.5,
              "duration": 0.4166666666666667
            },
            {
              "pitch": 58,
              "velocity": 90,
              "position": 1.5,
              "duration": 0.5833333333333334
            },
            {
              "pitch": 64,
              "velocity": 111,
              "position": 2,
              "duration": 0.10416666666666667
            },
            {
              "pitch": 70,
              "velocity": 53,
              "position": 2,
              "duration": 0.10416666666666667
            },
            {
              "pitch": 67,
              "velocity": 105,
              "position": 2,
              "duration": 0.125
            },
            {
              "pitch": 57,
              "velocity": 71,
              "position": 2,
              "duration": 0.16666666666666666
            },
            {
              "pitch": 73,
              "velocity": 70,
              "position": 2,
              "duration": 0.1875
            },
            {
              "pitch": 68,
              "velocity": 122,
              "position": 3,
              "duration": 0.25
            },
            {
              "pitch": 61,
              "velocity": 127,
              "position": 3,
              "duration": 0.25
            },
            {
              "pitch": 65,
              "velocity": 117,
              "position": 3,
              "duration": 0.2708333333333333
            },
            {
              "pitch": 72,
              "velocity": 127,
              "position": 3,
              "duration": 0.2916666666666667
            },
            {
              "pitch": 75,
              "velocity": 116,
              "position": 3,
              "duration": 0.3125
            }
          ]
        }
      }
    },
    "Fill_In_BB": {
      "type": "Fill_In_BB",
      "sizeInBeats": 4,
      "channels": {
        "0": {
          "ctab": {
            "srcChannel": 0,
            "name": "NylonGtr",
            "accType": "CHORD2",
            "editable": false,
            "mutedNotes": [],
            "mutedChords": [],
            "autoStart": false,
            "sourceChordNote": 0,
            "sourceChordType": "Maj7",
            "ctb2Low": null,
            "ctb2Main": {
              "ntr": "ROOT_TRANSPOSITION",
              "ntt": "CHORD",
              "bassOn": false,
              "chordRootUpperLimit": 6,
              "noteLowLimit": 0,
              "noteHighLimit": 127,
              "rtr": "PITCH_SHIFT"
            },
            "ctb2High": null,
            "ctb2MiddleLowPitch": 0,
            "ctb2MiddleHighPitch": 127
          },
          "notes": [
            {
              "pitch": 68,
              "velocity": 100,
              "position": 3,
              "duration": 0.9583333333333334
            },
            {
              "pitch": 65,
              "velocity": 100,
              "position": 3,
              "duration": 0.9791666666666666
            },
            {
              "pitch": 61,
              "velocity": 100,
              "position": 3,
              "duration": 0.9791666666666666
            },
            {
              "pitch": 75,
              "velocity": 100,
              "position": 3,
              "duration": 1
            }
          ]
        },
        "4": {
          "ctab": {
            "srcChannel": 4,
            "name": "Chor.EP2",
            "accType": "PHRASE1",
            "editable": false,
            "mutedNotes": [],
            "mutedChords": [],
            "autoStart": false,
            "sourceChordNote": 0,
            "sourceChordType": "Maj7",
            "ctb2Low": null,
            "ctb2Main": {
              "ntr": "ROOT_TRANSPOSITION",
              "ntt": "CHORD",
              "bassOn": false,
              "chordRootUpperLimit": 6,
              "noteLowLimit": 0,
              "noteHighLimit": 127,
              "rtr": "PITCH_SHIFT"
            },
            "ctb2High": null,
            "ctb2MiddleLowPitch": 0,
            "ctb2MiddleHighPitch": 127
          },
          "notes": [
            {
              "pitch": 67,
              "velocity": 90,
              "position": 0.25,
              "duration": 0.10416666666666667
            },
            {
              "pitch": 64,
              "velocity": 90,
              "position": 0.25,
              "duration": 0.125
            },
            {
              "pitch": 74,
              "velocity": 93,
              "position": 0.25,
              "duration": 0.14583333333333334
            },
            {
              "pitch": 60,
              "velocity": 89,
              "position": 0.25,
              "duration": 0.14583333333333334
            },
            {
              "pitch": 67,
              "velocity": 110,
              "position": 0.75,
              "duration": 0.10416666666666667
            },
            {
              "pitch": 74,
              "velocity": 93,
              "position": 0.75,
              "duration": 0.10416666666666667
            },
            {
              "pitch": 64,
              "velocity": 98,
              "position": 0.75,
              "duration": 0.125
            },
            {
              "pitch": 60,
              "velocity": 93,
              "position": 0.75,
              "duration": 0.16666666666666666
            },
            {
              "pitch": 58,
              "velocity": 108,
              "position": 1.25,
              "duration": 0.22916666666666666
            },
            {
              "pitch": 65,
              "velocity": 94,
              "position": 1.5,
              "duration": 0.375
            },
            {
              "pitch": 62,
              "velocity": 90,
              "position": 1.5,
              "duration": 0.3958333333333333
            },
            {
              "pitch": 74,
              "velocity": 91,
              "position": 1.5,
              "duration": 0.4375
            },
            {
              "pitch": 70,
              "velocity": 90,
              "position": 1.5,
              "duration": 0.4895833333333333
            },
            {
              "pitch": 70,
              "velocity": 88,
              "position": 2,
              "duration": 0.020833333333333332
            },
            {
              "pitch": 67,
              "velocity": 104,
              "position": 2,
              "duration": 0.125
            },
            {
              "pitch": 64,
              "velocity": 98,
              "position": 2,
              "duration": 0.125
            },
            {
              "pitch": 57,
              "velocity": 90,
              "position": 2,
              "duration": 0.14583333333333334
            },
            {
              "pitch": 73,
              "velocity": 90,
              "position": 2,
              "duration": 0.14583333333333334
            }
          ]
        },
        "8": {
          "ctab": {
            "srcChannel": 8,
            "name": "Std.Kit1",
            "accType": "RHYTHM",
            "editable": false,
            "mutedNotes": [],
            "mutedChords": [],
            "autoStart": true,
            "sourceChordNote": 0,
            "sourceChordType": "Maj7",
            "ctb2Low": null,
            "ctb2Main": {
              "ntr": "ROOT_FIXED",
              "ntt": "BYPASS",
              "bassOn": false,
              "chordRootUpperLimit": 6,
              "noteLowLimit": 0,
              "noteHighLimit": 127,
              "rtr": "PITCH_SHIFT"
            },
            "ctb2High": null,
            "ctb2MiddleLowPitch": 0,
            "ctb2MiddleHighPitch": 127
          },
          "notes": [
            {
              "pitch": 42,
              "velocity": 79,
              "position": 0,
              "duration": 0.10416666666666667
            },
            {
              "pitch": 46,
              "velocity": 58,
              "position": 0.25,
              "duration": 0.14583333333333334
            },
            {
              "pitch": 36,
              "velocity": 95,
              "position": 0,
              "duration": 0.5
            },
            {
              "pitch": 42,
              "velocity": 61,
              "position": 0.5,
              "duration": 0.125
            },
            {
              "pitch": 42,
              "velocity": 49,
              "position": 0.75,
              "duration": 0.125
            },
            {
              "pitch": 44,
              "velocity": 22,
              "position": 0.75,
              "duration": 0.125
            },
            {
              "pitch": 42,
              "velocity": 63,
              "position": 1,
              "duration": 0.0625
            },
            {
              "pitch": 44,
              "velocity": 87,
              "position": 1,
              "duration": 0.1875
            },
            {
              "pitch": 42,
              "velocity": 46,
              "position": 1.25,
              "duration": 0.125
            },
            {
              "pitch": 42,
              "velocity": 71,
              "position": 1.5,
              "duration": 0.041666666666666664
            },
            {
              "pitch": 45,
              "velocity": 44,
              "position": 1.5,
              "duration": 0.375
            },
            {
              "pitch": 46,
              "velocity": 65,
              "position": 2,
              "duration": 0.0625
            },
            {
              "pitch": 42,
              "velocity": 110,
              "position": 2.25,
              "duration": 0.0625
            },
            {
              "pitch": 41,
              "velocity": 45,
              "position": 2,
              "duration": 0.3541666666666667
            },
            {
              "pitch": 36,
              "velocity": 93,
              "position": 2.75,
              "duration": 0.08333333333333333
            },
            {
              "pitch": 40,
              "velocity": 62,
              "position": 3,
              "duration": 0.020833333333333332
            },
            {
              "pitch": 49,
              "velocity": 56,
              "position": 3.9583333333333335,
              "duration": 0.041666666666666664
            }
          ]
        },
        "12": {
          "ctab": {
            "srcChannel": 12,
            "name": "FngrBass",
            "accType": "BASS",
            "editable": false,
            "mutedNotes": [],
            "mutedChords": [],
            "autoStart": false,
            "sourceChordNote": 0,
            "sourceChordType": "Maj7",
            "ctb2Low": null,
            "ctb2Main": {
              "ntr": "ROOT_TRANSPOSITION",
              "ntt": "MELODY",
              "bassOn": true,
              "chordRootUpperLimit": 3,
              "noteLowLimit": 28,
              "noteHighLimit": 54,
              "rtr": "PITCH_SHIFT_TO_ROOT"
            },
            "ctb2High": null,
            "ctb2MiddleLowPitch": 0,
            "ctb2MiddleHighPitch": 127
          },
          "notes": [
            {
              "pitch": 36,
              "velocity": 79,
              "position": 0,
              "duration": 0.3958333333333333
            },
            {
              "pitch": 31,
              "velocity": 50,
              "position": 1.25,
              "duration": 0.14583333333333334
            },
            {
              "pitch": 34,
              "velocity": 73,
              "position": 1.5,
              "duration": 0.4791666666666667
            },
            {
              "pitch": 33,
              "velocity": 45,
              "position": 2,
              "duration": 0.3125
            },
            {
              "pitch": 37,
              "velocity": 75,
              "position": 3,
              "duration": 0.7916666666666666
            }
          ]
        },
        "14": {
          "ctab": {
            "srcChannel": 14,
            "name": "E.Grand",
            "accType": "CHORD1",
            "editable": false,
            "mutedNotes": [],
            "mutedChords": [],
            "autoStart": false,
            "sourceChordNote": 0,
            "sourceChordType": "Maj7",
            "ctb2Low": null,
            "ctb2Main": {
              "ntr": "ROOT_TRANSPOSITION",
              "ntt": "CHORD",
              "bassOn": false,
              "chordRootUpperLimit": 6,
              "noteLowLimit": 0,
              "noteHighLimit": 127,
              "rtr": "PITCH_SHIFT"
            },
            "ctb2High": null,
            "ctb2MiddleLowPitch": 0,
            "ctb2MiddleHighPitch": 127
          },
          "notes": [
            {
              "pitch": 70,
              "velocity": 58,
              "position": 0,
              "duration": 0.0625
            },
            {
              "pitch": 64,
              "velocity": 105,
              "position": 0,
              "duration": 0.25
            },
            {
              "pitch": 67,
              "velocity": 122,
              "position": 0,
              "duration": 0.2708333333333333
            },
            {
              "pitch": 74,
              "velocity": 105,
              "position": 0,
              "duration": 0.2708333333333333
            },
            {
              "pitch": 60,
              "velocity": 105,
              "position": 0,
              "duration": 0.3333333333333333
            },
            {
              "pitch": 73,
              "velocity": 74,
              "position": 1.5,
              "duration": 0.020833333333333332
            },
            {
              "pitch": 67,
              "velocity": 50,
              "position": 1.5,
              "duration": 0.041666666666666664
            },
            {
              "pitch": 68,
              "velocity": 77,
              "position": 1.5,
              "duration": 0.0625
            },
            {
              "pitch": 65,
              "velocity": 107,
              "position": 1.5,
              "duration": 0.3541666666666667
            },
            {
              "pitch": 74,
              "velocity": 100,
              "position": 1.5,
              "duration": 0.4166666666666667
            },
            {
              "pitch": 70,
              "velocity": 122,
              "position": 1.5,
              "duration": 0.4166666666666667
            },
            {
              "pitch": 58,
              "velocity": 90,
              "position": 1.5,
              "duration": 0.5833333333333334
            },
            {
              "pitch": 64,
              "velocity": 111,
              "position": 2,
              "duration": 0.10416666666666667
            },
            {
              "pitch": 70,
              "velocity": 53,
              "position": 2,
              "duration": 0.10416666666666667
            },
            {
              "pitch": 67,
              "velocity": 105,
              "position": 2,
              "duration": 0.125
            },
            {
              "pitch": 57,
              "velocity": 71,
              "position": 2,
              "duration": 0.16666666666666666
            },
            {
              "pitch": 73,
              "velocity": 70,
              "position": 2,
              "duration": 0.1875
            },
            {
              "pitch": 68,
              "velocity": 122,
              "position": 3,
              "duration": 0.25
            },
            {
              "pitch": 61,
              "velocity": 127,
              "position": 3,
              "duration": 0.25
            },
            {
              "pitch": 65,
              "velocity": 117,
              "position": 3,
              "duration": 0.2708333333333333
            },
            {
              "pitch": 72,
              "velocity": 127,
              "position": 3,
              "duration": 0.2916666666666667
            },
            {
              "pitch": 75,
              "velocity": 116,
              "position": 3,
              "duration": 0.3125
            }
          ]
        }
      }
    },
    "Fill_In_CC": {
      "type": "Fill_In_CC",
      "sizeInBeats": 4,
      "channels": {
        "0": {
          "ctab": {
            "srcChannel": 0,
            "name": "NylonGtr",
            "accType": "CHORD2",
            "editable": false,
            "mutedNotes": [],
            "mutedChords": [],
            "autoStart": false,
            "sourceChordNote": 0,
            "sourceChordType": "Maj7",
            "ctb2Low": null,
            "ctb2Main": {
              "ntr": "ROOT_TRANSPOSITION",
              "ntt": "CHORD",
              "bassOn": false,
              "chordRootUpperLimit": 6,
              "noteLowLimit": 0,
              "noteHighLimit": 127,
              "rtr": "PITCH_SHIFT"
            },
            "ctb2High": null,
            "ctb2MiddleLowPitch": 0,
            "ctb2MiddleHighPitch": 127
          },
          "notes": [
            {
              "pitch": 68,
              "velocity": 100,
              "position": 3,
              "duration": 0.9583333333333334
            },
            {
              "pitch": 65,
              "velocity": 100,
              "position": 3,
              "duration": 0.9791666666666666
            },
            {
              "pitch": 61,
              "velocity": 100,
              "position": 3,
              "duration": 0.9791666666666666
            },
            {
              "pitch": 75,
              "velocity": 100,
              "position": 3,
              "duration": 1
            }
          ]
        },
        "4": {
          "ctab": {
            "srcChannel": 4,
            "name": "Chor.EP2",
            "accType": "PHRASE1",
            "editable": false,
            "mutedNotes": [],
            "mutedChords": [],
            "autoStart": false,
            "sourceChordNote": 0,
            "sourceChordType": "Maj7",
            "ctb2Low": null,
            "ctb2Main": {
              "ntr": "ROOT_TRANSPOSITION",
              "ntt": "CHORD",
              "bassOn": false,
              "chordRootUpperLimit": 6,
              "noteLowLimit": 0,
              "noteHighLimit": 127,
              "rtr": "PITCH_SHIFT"
            },
            "ctb2High": null,
            "ctb2MiddleLowPitch": 0,
            "ctb2MiddleHighPitch": 127
          },
          "notes": [
            {
              "pitch": 67,
              "velocity": 90,
              "position": 0.25,
              "duration": 0.10416666666666667
            },
            {
              "pitch": 64,
              "velocity": 90,
              "position": 0.25,
              "duration": 0.125
            },
            {
              "pitch": 74,
              "velocity": 93,
              "position": 0.25,
              "duration": 0.14583333333333334
            },
            {
              "pitch": 60,
              "velocity": 89,
              "position": 0.25,
              "duration": 0.14583333333333334
            },
            {
              "pitch": 67,
              "velocity": 110,
              "position": 0.75,
              "duration": 0.10416666666666667
            },
            {
              "pitch": 74,
              "velocity": 93,
              "position": 0.75,
              "duration": 0.10416666666666667
            },
            {
              "pitch": 64,
              "velocity": 98,
              "position": 0.75,
              "duration": 0.125
            },
            {
              "pitch": 60,
              "velocity": 93,
              "position": 0.75,
              "duration": 0.16666666666666666
            },
            {
              "pitch": 58,
              "velocity": 108,
              "position": 1.25,
              "duration": 0.22916666666666666
            },
            {
              "pitch": 65,
              "velocity": 94,
              "position": 1.5,
              "duration": 0.375
            },
            {
              "pitch": 62,
              "velocity": 90,
              "position": 1.5,
              "duration": 0.3958333333333333
            },
            {
              "pitch": 74,
              "velocity": 91,
              "position": 1.5,
              "duration": 0.4375
            },
            {
              "pitch": 70,
              "velocity": 90,
              "position": 1.5,
              "duration": 0.4895833333333333
            },
            {
              "pitch": 70,
              "velocity": 88,
              "position": 2,
              "duration": 0.020833333333333332
            },
            {
              "pitch": 67,
              "velocity": 104,
              "position": 2,
              "duration": 0.125
            },
            {
              "pitch": 64,
              "velocity": 98,
              "position": 2,
              "duration": 0.125
            },
            {
              "pitch": 57,
              "velocity": 90,
              "position": 2,
              "duration": 0.14583333333333334
            },
            {
              "pitch": 73,
              "velocity": 90,
              "position": 2,
              "duration": 0.14583333333333334
            }
          ]
        },
        "8": {
          "ctab": {
            "srcChannel": 8,
            "name": "Std.Kit1",
            "accType": "RHYTHM",
            "editable": false,
            "mutedNotes": [],
            "mutedChords": [],
            "autoStart": true,
            "sourceChordNote": 0,
            "sourceChordType": "Maj7",
            "ctb2Low": null,
            "ctb2Main": {
              "ntr": "ROOT_FIXED",
              "ntt": "BYPASS",
              "bassOn": false,
              "chordRootUpperLimit": 6,
              "noteLowLimit": 0,
              "noteHighLimit": 127,
              "rtr": "PITCH_SHIFT"
            },
            "ctb2High": null,
            "ctb2MiddleLowPitch": 0,
            "ctb2MiddleHighPitch": 127
          },
          "notes": [
            {
              "pitch": 42,
              "velocity": 79,
              "position": 0,
              "duration": 0.10416666666666667
            },
            {
              "pitch": 46,
              "velocity": 58,
              "position": 0.25,
              "duration": 0.14583333333333334
            },
            {
              "pitch": 36,
              "velocity": 95,
              "position": 0,
              "duration": 0.5
            },
            {
              "pitch": 42,
              "velocity": 61,
              "position": 0.5,
              "duration": 0.125
            },
            {
              "pitch": 42,
              "velocity": 49,
              "position": 0.75,
              "duration": 0.125
            },
            {
              "pitch": 44,
              "velocity": 22,
              "position": 0.75,
              "duration": 0.125
            },
            {
              "pitch": 42,
              "velocity": 63,
              "position": 1,
              "duration": 0.0625
            },
            {
              "pitch": 44,
              "velocity": 87,
              "position": 1,
              "duration": 0.1875
            },
            {
              "pitch": 42,
              "velocity": 46,
              "position": 1.25,
              "duration": 0.125
            },
            {
              "pitch": 42,
              "velocity": 71,
              "position": 1.5,
              "duration": 0.041666666666666664
            },
            {
              "pitch": 45,
              "velocity": 44,
              "position": 1.5,
              "duration": 0.375
            },
            {
              "pitch": 46,
              "velocity": 65,
              "position": 2,
              "duration": 0.0625
            },
            {
              "pitch": 42,
              "velocity": 110,
              "position": 2.25,
              "duration": 0.0625
            },
            {
              "pitch": 41,
              "velocity": 45,
              "position": 2,
              "duration": 0.3541666666666667
            },
            {
              "pitch": 36,
              "velocity": 93,
              "position": 2.75,
              "duration": 0.08333333333333333
            },
            {
              "pitch": 40,
              "velocity": 62,
              "position": 3,
              "duration": 0.020833333333333332
            },
            {
              "pitch": 49,
              "velocity": 56,
              "position": 3.9583333333333335,
              "duration": 0.041666666666666664
            }
          ]
        },
        "12": {
          "ctab": {
            "srcChannel": 12,
            "name": "FngrBass",
            "accType": "BASS",
            "editable": false,
            "mutedNotes": [],
            "mutedChords": [],
            "autoStart": false,
            "sourceChordNote": 0,
            "sourceChordType": "Maj7",
            "ctb2Low": null,
            "ctb2Main": {
              "ntr": "ROOT_TRANSPOSITION",
              "ntt": "MELODY",
              "bassOn": true,
              "chordRootUpperLimit": 3,
              "noteLowLimit": 28,
              "noteHighLimit": 54,
              "rtr": "PITCH_SHIFT_TO_ROOT"
            },
            "ctb2High": null,
            "ctb2MiddleLowPitch": 0,
            "ctb2MiddleHighPitch": 127
          },
          "notes": [
            {
              "pitch": 36,
              "velocity": 79,
              "position": 0,
              "duration": 0.3958333333333333
            },
            {
              "pitch": 31,
              "velocity": 50,
              "position": 1.25,
              "duration": 0.14583333333333334
            },
            {
              "pitch": 34,
              "velocity": 73,
              "position": 1.5,
              "duration": 0.4791666666666667
            },
            {
              "pitch": 33,
              "velocity": 45,
              "position": 2,
              "duration": 0.3125
            },
            {
              "pitch": 37,
              "velocity": 75,
              "position": 3,
              "duration": 0.7916666666666666
            }
          ]
        },
        "14": {
          "ctab": {
            "srcChannel": 14,
            "name": "E.Grand",
            "accType": "CHORD1",
            "editable": false,
            "mutedNotes": [],
            "mutedChords": [],
            "autoStart": false,
            "sourceChordNote": 0,
            "sourceChordType": "Maj7",
            "ctb2Low": null,
            "ctb2Main": {
              "ntr": "ROOT_TRANSPOSITION",
              "ntt": "CHORD",
              "bassOn": false,
              "chordRootUpperLimit": 6,
              "noteLowLimit": 0,
              "noteHighLimit": 127,
              "rtr": "PITCH_SHIFT"
            },
            "ctb2High": null,
            "ctb2MiddleLowPitch": 0,
            "ctb2MiddleHighPitch": 127
          },
          "notes": [
            {
              "pitch": 70,
              "velocity": 58,
              "position": 0,
              "duration": 0.0625
            },
            {
              "pitch": 64,
              "velocity": 105,
              "position": 0,
              "duration": 0.25
            },
            {
              "pitch": 67,
              "velocity": 122,
              "position": 0,
              "duration": 0.2708333333333333
            },
            {
              "pitch": 74,
              "velocity": 105,
              "position": 0,
              "duration": 0.2708333333333333
            },
            {
              "pitch": 60,
              "velocity": 105,
              "position": 0,
              "duration": 0.3333333333333333
            },
            {
              "pitch": 73,
              "velocity": 74,
              "position": 1.5,
              "duration": 0.020833333333333332
            },
            {
              "pitch": 67,
              "velocity": 50,
              "position": 1.5,
              "duration": 0.041666666666666664
            },
            {
              "pitch": 68,
              "velocity": 77,
              "position": 1.5,
              "duration": 0.0625
            },
            {
              "pitch": 65,
              "velocity": 107,
              "position": 1.5,
              "duration": 0.3541666666666667
            },
            {
              "pitch": 74,
              "velocity": 100,
              "position": 1.5,
              "duration": 0.4166666666666667
            },
            {
              "pitch": 70,
              "velocity": 122,
              "position": 1.5,
              "duration": 0.4166666666666667
            },
            {
              "pitch": 58,
              "velocity": 90,
              "position": 1.5,
              "duration": 0.5833333333333334
            },
            {
              "pitch": 64,
              "velocity": 111,
              "position": 2,
              "duration": 0.10416666666666667
            },
            {
              "pitch": 70,
              "velocity": 53,
              "position": 2,
              "duration": 0.10416666666666667
            },
            {
              "pitch": 67,
              "velocity": 105,
              "position": 2,
              "duration": 0.125
            },
            {
              "pitch": 57,
              "velocity": 71,
              "position": 2,
              "duration": 0.16666666666666666
            },
            {
              "pitch": 73,
              "velocity": 70,
              "position": 2,
              "duration": 0.1875
            },
            {
              "pitch": 68,
              "velocity": 122,
              "position": 3,
              "duration": 0.25
            },
            {
              "pitch": 61,
              "velocity": 127,
              "position": 3,
              "duration": 0.25
            },
            {
              "pitch": 65,
              "velocity": 117,
              "position": 3,
              "duration": 0.2708333333333333
            },
            {
              "pitch": 72,
              "velocity": 127,
              "position": 3,
              "duration": 0.2916666666666667
            },
            {
              "pitch": 75,
              "velocity": 116,
              "position": 3,
              "duration": 0.3125
            }
          ]
        }
      }
    },
    "Fill_In_DD": {
      "type": "Fill_In_DD",
      "sizeInBeats": 4,
      "channels": {
        "0": {
          "ctab": {
            "srcChannel": 0,
            "name": "NylonGtr",
            "accType": "CHORD2",
            "editable": false,
            "mutedNotes": [],
            "mutedChords": [],
            "autoStart": false,
            "sourceChordNote": 0,
            "sourceChordType": "Maj7",
            "ctb2Low": null,
            "ctb2Main": {
              "ntr": "ROOT_TRANSPOSITION",
              "ntt": "CHORD",
              "bassOn": false,
              "chordRootUpperLimit": 6,
              "noteLowLimit": 0,
              "noteHighLimit": 127,
              "rtr": "PITCH_SHIFT"
            },
            "ctb2High": null,
            "ctb2MiddleLowPitch": 0,
            "ctb2MiddleHighPitch": 127
          },
          "notes": [
            {
              "pitch": 68,
              "velocity": 100,
              "position": 3,
              "duration": 0.9583333333333334
            },
            {
              "pitch": 65,
              "velocity": 100,
              "position": 3,
              "duration": 0.9791666666666666
            },
            {
              "pitch": 61,
              "velocity": 100,
              "position": 3,
              "duration": 0.9791666666666666
            },
            {
              "pitch": 75,
              "velocity": 100,
              "position": 3,
              "duration": 1
            }
          ]
        },
        "4": {
          "ctab": {
            "srcChannel": 4,
            "name": "Chor.EP2",
            "accType": "PHRASE1",
            "editable": false,
            "mutedNotes": [],
            "mutedChords": [],
            "autoStart": false,
            "sourceChordNote": 0,
            "sourceChordType": "Maj7",
            "ctb2Low": null,
            "ctb2Main": {
              "ntr": "ROOT_TRANSPOSITION",
              "ntt": "CHORD",
              "bassOn": false,
              "chordRootUpperLimit": 6,
              "noteLowLimit": 0,
              "noteHighLimit": 127,
              "rtr": "PITCH_SHIFT"
            },
            "ctb2High": null,
            "ctb2MiddleLowPitch": 0,
            "ctb2MiddleHighPitch": 127
          },
          "notes": [
            {
              "pitch": 67,
              "velocity": 90,
              "position": 0.25,
              "duration": 0.10416666666666667
            },
            {
              "pitch": 64,
              "velocity": 90,
              "position": 0.25,
              "duration": 0.125
            },
            {
              "pitch": 74,
              "velocity": 93,
              "position": 0.25,
              "duration": 0.14583333333333334
            },
            {
              "pitch": 60,
              "velocity": 89,
              "position": 0.25,
              "duration": 0.14583333333333334
            },
            {
              "pitch": 67,
              "velocity": 110,
              "position": 0.75,
              "duration": 0.10416666666666667
            },
            {
              "pitch": 74,
              "velocity": 93,
              "position": 0.75,
              "duration": 0.10416666666666667
            },
            {
              "pitch": 64,
              "velocity": 98,
              "position": 0.75,
              "duration": 0.125
            },
            {
              "pitch": 60,
              "velocity": 93,
              "position": 0.75,
              "duration": 0.16666666666666666
            },
            {
              "pitch": 58,
              "velocity": 108,
              "position": 1.25,
              "duration": 0.22916666666666666
            },
            {
              "pitch": 65,
              "velocity": 94,
              "position": 1.5,
              "duration": 0.375
            },
            {
              "pitch": 62,
              "velocity": 90,
              "position": 1.5,
              "duration": 0.3958333333333333
            },
            {
              "pitch": 74,
              "velocity": 91,
              "position": 1.5,
              "duration": 0.4375
            },
            {
              "pitch": 70,
              "velocity": 90,
              "position": 1.5,
              "duration": 0.4895833333333333
            },
            {
              "pitch": 70,
              "velocity": 88,
              "position": 2,
              "duration": 0.020833333333333332
            },
            {
              "pitch": 67,
              "velocity": 104,
              "position": 2,
              "duration": 0.125
            },
            {
              "pitch": 64,
              "velocity": 98,
              "position": 2,
              "duration": 0.125
            },
            {
              "pitch": 57,
              "velocity": 90,
              "position": 2,
              "duration": 0.14583333333333334
            },
            {
              "pitch": 73,
              "velocity": 90,
              "position": 2,
              "duration": 0.14583333333333334
            }
          ]
        },
        "8": {
          "ctab": {
            "srcChannel": 8,
            "name": "Std.Kit1",
            "accType": "RHYTHM",
            "editable": false,
            "mutedNotes": [],
            "mutedChords": [],
            "autoStart": true,
            "sourceChordNote": 0,
            "sourceChordType": "Maj7",
            "ctb2Low": null,
            "ctb2Main": {
              "ntr": "ROOT_FIXED",
              "ntt": "BYPASS",
              "bassOn": false,
              "chordRootUpperLimit": 6,
              "noteLowLimit": 0,
              "noteHighLimit": 127,
              "rtr": "PITCH_SHIFT"
            },
            "ctb2High": null,
            "ctb2MiddleLowPitch": 0,
            "ctb2MiddleHighPitch": 127
          },
          "notes": [
            {
              "pitch": 42,
              "velocity": 79,
              "position": 0,
              "duration": 0.10416666666666667
            },
            {
              "pitch": 46,
              "velocity": 58,
              "position": 0.25,
              "duration": 0.14583333333333334
            },
            {
              "pitch": 36,
              "velocity": 95,
              "position": 0,
              "duration": 0.5
            },
            {
              "pitch": 42,
              "velocity": 61,
              "position": 0.5,
              "duration": 0.125
            },
            {
              "pitch": 42,
              "velocity": 49,
              "position": 0.75,
              "duration": 0.125
            },
            {
              "pitch": 44,
              "velocity": 22,
              "position": 0.75,
              "duration": 0.125
            },
            {
              "pitch": 42,
              "velocity": 63,
              "position": 1,
              "duration": 0.0625
            },
            {
              "pitch": 44,
              "velocity": 87,
              "position": 1,
              "duration": 0.1875
            },
            {
              "pitch": 42,
              "velocity": 46,
              "position": 1.25,
              "duration": 0.125
            },
            {
              "pitch": 42,
              "velocity": 71,
              "position": 1.5,
              "duration": 0.041666666666666664
            },
            {
              "pitch": 45,
              "velocity": 44,
              "position": 1.5,
              "duration": 0.375
            },
            {
              "pitch": 46,
              "velocity": 65,
              "position": 2,
              "duration": 0.0625
            },
            {
              "pitch": 42,
              "velocity": 110,
              "position": 2.25,
              "duration": 0.0625
            },
            {
              "pitch": 41,
              "velocity": 45,
              "position": 2,
              "duration": 0.3541666666666667
            },
            {
              "pitch": 36,
              "velocity": 93,
              "position": 2.75,
              "duration": 0.08333333333333333
            },
            {
              "pitch": 40,
              "velocity": 62,
              "position": 3,
              "duration": 0.020833333333333332
            },
            {
              "pitch": 49,
              "velocity": 56,
              "position": 3.9583333333333335,
              "duration": 0.041666666666666664
            }
          ]
        },
        "12": {
          "ctab": {
            "srcChannel": 12,
            "name": "FngrBass",
            "accType": "BASS",
            "editable": false,
            "mutedNotes": [],
            "mutedChords": [],
            "autoStart": false,
            "sourceChordNote": 0,
            "sourceChordType": "Maj7",
            "ctb2Low": null,
            "ctb2Main": {
              "ntr": "ROOT_TRANSPOSITION",
              "ntt": "MELODY",
              "bassOn": true,
              "chordRootUpperLimit": 3,
              "noteLowLimit": 28,
              "noteHighLimit": 54,
              "rtr": "PITCH_SHIFT_TO_ROOT"
            },
            "ctb2High": null,
            "ctb2MiddleLowPitch": 0,
            "ctb2MiddleHighPitch": 127
          },
          "notes": [
            {
              "pitch": 36,
              "velocity": 79,
              "position": 0,
              "duration": 0.3958333333333333
            },
            {
              "pitch": 31,
              "velocity": 50,
              "position": 1.25,
              "duration": 0.14583333333333334
            },
            {
              "pitch": 34,
              "velocity": 73,
              "position": 1.5,
              "duration": 0.4791666666666667
            },
            {
              "pitch": 33,
              "velocity": 45,
              "position": 2,
              "duration": 0.3125
            },
            {
              "pitch": 37,
              "velocity": 75,
              "position": 3,
              "duration": 0.7916666666666666
            }
          ]
        },
        "14": {
          "ctab": {
            "srcChannel": 14,
            "name": "E.Grand",
            "accType": "CHORD1",
            "editable": false,
            "mutedNotes": [],
            "mutedChords": [],
            "autoStart": false,
            "sourceChordNote": 0,
            "sourceChordType": "Maj7",
            "ctb2Low": null,
            "ctb2Main": {
              "ntr": "ROOT_TRANSPOSITION",
              "ntt": "CHORD",
              "bassOn": false,
              "chordRootUpperLimit": 6,
              "noteLowLimit": 0,
              "noteHighLimit": 127,
              "rtr": "PITCH_SHIFT"
            },
            "ctb2High": null,
            "ctb2MiddleLowPitch": 0,
            "ctb2MiddleHighPitch": 127
          },
          "notes": [
            {
              "pitch": 70,
              "velocity": 58,
              "position": 0,
              "duration": 0.0625
            },
            {
              "pitch": 64,
              "velocity": 105,
              "position": 0,
              "duration": 0.25
            },
            {
              "pitch": 67,
              "velocity": 122,
              "position": 0,
              "duration": 0.2708333333333333
            },
            {
              "pitch": 74,
              "velocity": 105,
              "position": 0,
              "duration": 0.2708333333333333
            },
            {
              "pitch": 60,
              "velocity": 105,
              "position": 0,
              "duration": 0.3333333333333333
            },
            {
              "pitch": 73,
              "velocity": 74,
              "position": 1.5,
              "duration": 0.020833333333333332
            },
            {
              "pitch": 67,
              "velocity": 50,
              "position": 1.5,
              "duration": 0.041666666666666664
            },
            {
              "pitch": 68,
              "velocity": 77,
              "position": 1.5,
              "duration": 0.0625
            },
            {
              "pitch": 65,
              "velocity": 107,
              "position": 1.5,
              "duration": 0.3541666666666667
            },
            {
              "pitch": 74,
              "velocity": 100,
              "position": 1.5,
              "duration": 0.4166666666666667
            },
            {
              "pitch": 70,
              "velocity": 122,
              "position": 1.5,
              "duration": 0.4166666666666667
            },
            {
              "pitch": 58,
              "velocity": 90,
              "position": 1.5,
              "duration": 0.5833333333333334
            },
            {
              "pitch": 64,
              "velocity": 111,
              "position": 2,
              "duration": 0.10416666666666667
            },
            {
              "pitch": 70,
              "velocity": 53,
              "position": 2,
              "duration": 0.10416666666666667
            },
            {
              "pitch": 67,
              "velocity": 105,
              "position": 2,
              "duration": 0.125
            },
            {
              "pitch": 57,
              "velocity": 71,
              "position": 2,
              "duration": 0.16666666666666666
            },
            {
              "pitch": 73,
              "velocity": 70,
              "position": 2,
              "duration": 0.1875
            },
            {
              "pitch": 68,
              "velocity": 122,
              "position": 3,
              "duration": 0.25
            },
            {
              "pitch": 61,
              "velocity": 127,
              "position": 3,
              "duration": 0.25
            },
            {
              "pitch": 65,
              "velocity": 117,
              "position": 3,
              "duration": 0.2708333333333333
            },
            {
              "pitch": 72,
              "velocity": 127,
              "position": 3,
              "duration": 0.2916666666666667
            },
            {
              "pitch": 75,
              "velocity": 116,
              "position": 3,
              "duration": 0.3125
            }
          ]
        }
      }
    },
    "Fill_In_BA": {
      "type": "Fill_In_BA",
      "sizeInBeats": 4,
      "channels": {
        "0": {
          "ctab": {
            "srcChannel": 0,
            "name": "NylonGtr",
            "accType": "CHORD2",
            "editable": false,
            "mutedNotes": [],
            "mutedChords": [],
            "autoStart": false,
            "sourceChordNote": 0,
            "sourceChordType": "Maj7",
            "ctb2Low": null,
            "ctb2Main": {
              "ntr": "ROOT_TRANSPOSITION",
              "ntt": "CHORD",
              "bassOn": false,
              "chordRootUpperLimit": 6,
              "noteLowLimit": 0,
              "noteHighLimit": 127,
              "rtr": "PITCH_SHIFT"
            },
            "ctb2High": null,
            "ctb2MiddleLowPitch": 0,
            "ctb2MiddleHighPitch": 127
          },
          "notes": [
            {
              "pitch": 68,
              "velocity": 100,
              "position": 3,
              "duration": 0.9583333333333334
            },
            {
              "pitch": 65,
              "velocity": 100,
              "position": 3,
              "duration": 0.9791666666666666
            },
            {
              "pitch": 61,
              "velocity": 100,
              "position": 3,
              "duration": 0.9791666666666666
            },
            {
              "pitch": 75,
              "velocity": 100,
              "position": 3,
              "duration": 1
            }
          ]
        },
        "4": {
          "ctab": {
            "srcChannel": 4,
            "name": "Chor.EP2",
            "accType": "PHRASE1",
            "editable": false,
            "mutedNotes": [],
            "mutedChords": [],
            "autoStart": false,
            "sourceChordNote": 0,
            "sourceChordType": "Maj7",
            "ctb2Low": null,
            "ctb2Main": {
              "ntr": "ROOT_TRANSPOSITION",
              "ntt": "CHORD",
              "bassOn": false,
              "chordRootUpperLimit": 6,
              "noteLowLimit": 0,
              "noteHighLimit": 127,
              "rtr": "PITCH_SHIFT"
            },
            "ctb2High": null,
            "ctb2MiddleLowPitch": 0,
            "ctb2MiddleHighPitch": 127
          },
          "notes": [
            {
              "pitch": 67,
              "velocity": 90,
              "position": 0.25,
              "duration": 0.10416666666666667
            },
            {
              "pitch": 64,
              "velocity": 90,
              "position": 0.25,
              "duration": 0.125
            },
            {
              "pitch": 74,
              "velocity": 93,
              "position": 0.25,
              "duration": 0.14583333333333334
            },
            {
              "pitch": 60,
              "velocity": 89,
              "position": 0.25,
              "duration": 0.14583333333333334
            },
            {
              "pitch": 67,
              "velocity": 110,
              "position": 0.75,
              "duration": 0.10416666666666667
            },
            {
              "pitch": 74,
              "velocity": 93,
              "position": 0.75,
              "duration": 0.10416666666666667
            },
            {
              "pitch": 64,
              "velocity": 98,
              "position": 0.75,
              "duration": 0.125
            },
            {
              "pitch": 60,
              "velocity": 93,
              "position": 0.75,
              "duration": 0.16666666666666666
            },
            {
              "pitch": 58,
              "velocity": 108,
              "position": 1.25,
              "duration": 0.22916666666666666
            },
            {
              "pitch": 65,
              "velocity": 94,
              "position": 1.5,
              "duration": 0.375
            },
            {
              "pitch": 62,
              "velocity": 90,
              "position": 1.5,
              "duration": 0.3958333333333333
            },
            {
              "pitch": 74,
              "velocity": 91,
              "position": 1.5,
              "duration": 0.4375
            },
            {
              "pitch": 70,
              "velocity": 90,
              "position": 1.5,
              "duration": 0.4895833333333333
            },
            {
              "pitch": 70,
              "velocity": 88,
              "position": 2,
              "duration": 0.020833333333333332
            },
            {
              "pitch": 67,
              "velocity": 104,
              "position": 2,
              "duration": 0.125
            },
            {
              "pitch": 64,
              "velocity": 98,
              "position": 2,
              "duration": 0.125
            },
            {
              "pitch": 57,
              "velocity": 90,
              "position": 2,
              "duration": 0.14583333333333334
            },
            {
              "pitch": 73,
              "velocity": 90,
              "position": 2,
              "duration": 0.14583333333333334
            }
          ]
        },
        "8": {
          "ctab": {
            "srcChannel": 8,
            "name": "Std.Kit1",
            "accType": "RHYTHM",
            "editable": false,
            "mutedNotes": [],
            "mutedChords": [],
            "autoStart": true,
            "sourceChordNote": 0,
            "sourceChordType": "Maj7",
            "ctb2Low": null,
            "ctb2Main": {
              "ntr": "ROOT_FIXED",
              "ntt": "BYPASS",
              "bassOn": false,
              "chordRootUpperLimit": 6,
              "noteLowLimit": 0,
              "noteHighLimit": 127,
              "rtr": "PITCH_SHIFT"
            },
            "ctb2High": null,
            "ctb2MiddleLowPitch": 0,
            "ctb2MiddleHighPitch": 127
          },
          "notes": [
            {
              "pitch": 42,
              "velocity": 79,
              "position": 0,
              "duration": 0.10416666666666667
            },
            {
              "pitch": 46,
              "velocity": 58,
              "position": 0.25,
              "duration": 0.14583333333333334
            },
            {
              "pitch": 36,
              "velocity": 95,
              "position": 0,
              "duration": 0.5
            },
            {
              "pitch": 42,
              "velocity": 61,
              "position": 0.5,
              "duration": 0.125
            },
            {
              "pitch": 42,
              "velocity": 49,
              "position": 0.75,
              "duration": 0.125
            },
            {
              "pitch": 44,
              "velocity": 22,
              "position": 0.75,
              "duration": 0.125
            },
            {
              "pitch": 42,
              "velocity": 63,
              "position": 1,
              "duration": 0.0625
            },
            {
              "pitch": 44,
              "velocity": 87,
              "position": 1,
              "duration": 0.1875
            },
            {
              "pitch": 42,
              "velocity": 46,
              "position": 1.25,
              "duration": 0.125
            },
            {
              "pitch": 42,
              "velocity": 71,
              "position": 1.5,
              "duration": 0.041666666666666664
            },
            {
              "pitch": 45,
              "velocity": 44,
              "position": 1.5,
              "duration": 0.375
            },
            {
              "pitch": 46,
              "velocity": 65,
              "position": 2,
              "duration": 0.0625
            },
            {
              "pitch": 42,
              "velocity": 110,
              "position": 2.25,
              "duration": 0.0625
            },
            {
              "pitch": 41,
              "velocity": 45,
              "position": 2,
              "duration": 0.3541666666666667
            },
            {
              "pitch": 36,
              "velocity": 93,
              "position": 2.75,
              "duration": 0.08333333333333333
            },
            {
              "pitch": 40,
              "velocity": 62,
              "position": 3,
              "duration": 0.020833333333333332
            },
            {
              "pitch": 49,
              "velocity": 56,
              "position": 3.9583333333333335,
              "duration": 0.041666666666666664
            }
          ]
        },
        "12": {
          "ctab": {
            "srcChannel": 12,
            "name": "FngrBass",
            "accType": "BASS",
            "editable": false,
            "mutedNotes": [],
            "mutedChords": [],
            "autoStart": false,
            "sourceChordNote": 0,
            "sourceChordType": "Maj7",
            "ctb2Low": null,
            "ctb2Main": {
              "ntr": "ROOT_TRANSPOSITION",
              "ntt": "MELODY",
              "bassOn": true,
              "chordRootUpperLimit": 3,
              "noteLowLimit": 28,
              "noteHighLimit": 54,
              "rtr": "PITCH_SHIFT_TO_ROOT"
            },
            "ctb2High": null,
            "ctb2MiddleLowPitch": 0,
            "ctb2MiddleHighPitch": 127
          },
          "notes": [
            {
              "pitch": 36,
              "velocity": 79,
              "position": 0,
              "duration": 0.3958333333333333
            },
            {
              "pitch": 31,
              "velocity": 50,
              "position": 1.25,
              "duration": 0.14583333333333334
            },
            {
              "pitch": 34,
              "velocity": 73,
              "position": 1.5,
              "duration": 0.4791666666666667
            },
            {
              "pitch": 33,
              "velocity": 45,
              "position": 2,
              "duration": 0.3125
            },
            {
              "pitch": 37,
              "velocity": 75,
              "position": 3,
              "duration": 0.7916666666666666
            }
          ]
        },
        "14": {
          "ctab": {
            "srcChannel": 14,
            "name": "E.Grand",
            "accType": "CHORD1",
            "editable": false,
            "mutedNotes": [],
            "mutedChords": [],
            "autoStart": false,
            "sourceChordNote": 0,
            "sourceChordType": "Maj7",
            "ctb2Low": null,
            "ctb2Main": {
              "ntr": "ROOT_TRANSPOSITION",
              "ntt": "CHORD",
              "bassOn": false,
              "chordRootUpperLimit": 6,
              "noteLowLimit": 0,
              "noteHighLimit": 127,
              "rtr": "PITCH_SHIFT"
            },
            "ctb2High": null,
            "ctb2MiddleLowPitch": 0,
            "ctb2MiddleHighPitch": 127
          },
          "notes": [
            {
              "pitch": 70,
              "velocity": 58,
              "position": 0,
              "duration": 0.0625
            },
            {
              "pitch": 64,
              "velocity": 105,
              "position": 0,
              "duration": 0.25
            },
            {
              "pitch": 67,
              "velocity": 122,
              "position": 0,
              "duration": 0.2708333333333333
            },
            {
              "pitch": 74,
              "velocity": 105,
              "position": 0,
              "duration": 0.2708333333333333
            },
            {
              "pitch": 60,
              "velocity": 105,
              "position": 0,
              "duration": 0.3333333333333333
            },
            {
              "pitch": 73,
              "velocity": 74,
              "position": 1.5,
              "duration": 0.020833333333333332
            },
            {
              "pitch": 67,
              "velocity": 50,
              "position": 1.5,
              "duration": 0.041666666666666664
            },
            {
              "pitch": 68,
              "velocity": 77,
              "position": 1.5,
              "duration": 0.0625
            },
            {
              "pitch": 65,
              "velocity": 107,
              "position": 1.5,
              "duration": 0.3541666666666667
            },
            {
              "pitch": 74,
              "velocity": 100,
              "position": 1.5,
              "duration": 0.4166666666666667
            },
            {
              "pitch": 70,
              "velocity": 122,
              "position": 1.5,
              "duration": 0.4166666666666667
            },
            {
              "pitch": 58,
              "velocity": 90,
              "position": 1.5,
              "duration": 0.5833333333333334
            },
            {
              "pitch": 64,
              "velocity": 111,
              "position": 2,
              "duration": 0.10416666666666667
            },
            {
              "pitch": 70,
              "velocity": 53,
              "position": 2,
              "duration": 0.10416666666666667
            },
            {
              "pitch": 67,
              "velocity": 105,
              "position": 2,
              "duration": 0.125
            },
            {
              "pitch": 57,
              "velocity": 71,
              "position": 2,
              "duration": 0.16666666666666666
            },
            {
              "pitch": 73,
              "velocity": 70,
              "position": 2,
              "duration": 0.1875
            },
            {
              "pitch": 68,
              "velocity": 122,
              "position": 3,
              "duration": 0.25
            },
            {
              "pitch": 61,
              "velocity": 127,
              "position": 3,
              "duration": 0.25
            },
            {
              "pitch": 65,
              "velocity": 117,
              "position": 3,
              "duration": 0.2708333333333333
            },
            {
              "pitch": 72,
              "velocity": 127,
              "position": 3,
              "duration": 0.2916666666666667
            },
            {
              "pitch": 75,
              "velocity": 116,
              "position": 3,
              "duration": 0.3125
            }
          ]
        }
      }
    }
  }
}